<svg xmlns="http://www.w3.org/2000/svg" xml:space="preserve" id="_x34_" width="30" height="24" x="0" y="0" style="opacity:1" viewBox="0 0 30 24"><style id="style2" type="text/css">.st1{opacity:.5;fill:#b9b8b2}.st3{fill:#22221f}.st9{opacity:.2;fill:#040000}</style><g id="g46" transform="translate(.055 5.8)scale(.05829)"><path id="path4" d="M401.4 0H110.6C49.5 0 0 49.5 0 110.6s49.5 110.6 110.6 110.6c28 0 53.6-10.4 73.1-27.6h144.6c19.5 17.2 45.1 27.6 73.1 27.6 61.1 0 110.6-49.5 110.6-110.6S462.5 0 401.4 0" style="fill:#fff"/><g id="g14"><path id="path6" d="M402.6 23.1c-44.9 0-81.3 36.3-81.3 81.2s36.4 81.3 81.3 81.3 81.2-36.4 81.2-81.3c0-44.8-36.3-81.2-81.2-81.2m-50.1 101.2c-4.2-4.2-6.2-9.6-6.2-15s2.1-10.9 6.2-15l41.9-41.9c8.3-8.3 21.8-8.3 30.1 0 4.2 4.2 6.2 9.5 6.2 15 0 5.4-2 10.9-6.2 15l-42 42c-8.4 8.1-21.8 8.1-30-.1m107.3-6.7-41.9 41.9c-8.3 8.3-21.8 8.3-30.1 0-4.2-4.2-6.2-9.6-6.2-15s2.1-10.8 6.2-15l42-42c8.2-8.3 21.7-8.3 30 0 4.2 4.2 6.2 9.6 6.2 15 0 5.5-2.1 11-6.2 15.1" class="st1" style="fill:#999"/><circle id="ellipse8" cx="106.6" cy="102.9" r="74.4" class="st1" style="fill:#999" transform="rotate(-1.436 106.583 102.93)scale(1.00001)"/><path id="rect10" d="M204.3 38.6h57.1v14.7h-57.1z" class="st1"/><path id="rect12" d="M204.3 64.5h98.5V75h-98.5z" class="st1"/></g><path id="path16" d="M512 109.2v1.4c0 61.1-49.5 110.6-110.6 110.6-28 0-53.6-10.4-73.1-27.6H183.7c-19.5 17.2-45 27.6-73.1 27.6C49.5 221.2 0 171.7 0 110.6v-1.4c.7 47.7 50 86.2 110.6 86.2 28 0 53.6-8.3 73.1-21.8h144.6c19.5 13.6 45.1 21.8 73.1 21.8 60.6.1 109.8-38.5 110.6-86.2" style="opacity:3.000000e-02;fill:#fff"/><g id="g24"><path id="path18" d="M232.3 119.5 211.9 140c-2.7 2.7-2.7 7 0 9.7s7 2.7 9.7 0l20.5-20.5c2.7-2.7 2.7-7 0-9.7-2.7-2.6-7.1-2.6-9.8 0" class="st3"/><path id="path20" d="M286 119.5c-2.7-2.7-7-2.7-9.7 0L255.8 140c-2.7 2.7-2.7 7 0 9.7s7 2.7 9.7 0l20.5-20.5c2.6-2.7 2.6-7 0-9.7" class="st3"/><path id="path22" d="M152.2 89.9h-29.5V60.4c0-2-1.6-3.6-3.6-3.6h-25c-2 0-3.6 1.6-3.6 3.6v29.5H61c-2 0-3.6 1.6-3.6 3.6v25c0 2 1.6 3.6 3.6 3.6h29.5v29.5c0 2 1.6 3.6 3.6 3.6h25c2 0 3.6-1.6 3.6-3.6v-29.5h29.5c2 0 3.6-1.6 3.6-3.6v-25c0-1.9-1.6-3.6-3.6-3.6" class="st3"/></g><circle id="ellipse26" cx="407.9" cy="68.8" r="18.6" style="fill:#000" transform="rotate(-47.54 407.91 68.764)"/><circle id="ellipse28" cx="368.5" cy="108.2" r="18.6" style="fill:#000" transform="rotate(-45 368.465 108.208)"/><circle id="ellipse30" cx="442.9" cy="104.4" r="18.6" style="fill:#000" transform="rotate(-76.827 442.935 104.377)"/><circle id="ellipse32" cx="404.3" cy="143" r="18.6" style="fill:#000" transform="rotate(-76.827 404.257 143.054)"/><path id="path34" d="M106.6 94.9c-6.2 0-11.3 5-11.3 11.3 0 5.4 3.8 9.9 8.9 11l13.4-13.4c-1.1-5.1-5.6-8.9-11-8.9" style="opacity:.2;fill:#fff"/><g id="g44"><path id="path36" d="M106 61.2 96 78.6c-.3.5.1 1.1.6 1.1h20.1c.5 0 .9-.6.6-1.1l-10-17.4c-.4-.4-1.1-.4-1.3 0" class="st9"/><path id="path38" d="M96.5 132.4c-.5 0-.9.6-.6 1.1l10 17.4c.3.5.9.5 1.2 0l10-17.4c.3-.5-.1-1.1-.6-1.1z" class="st9"/><path id="path40" d="m151.4 105.4-17.4-10c-.5-.3-1.1.1-1.1.6v20.1c0 .5.6.9 1.1.6l17.4-10c.5-.3.5-1 0-1.3" class="st9"/><path id="path42" d="m79.1 95.4-17.4 10c-.5.3-.5.9 0 1.2l17.4 10c.5.3 1.1-.1 1.1-.6V96c0-.5-.6-.9-1.1-.6" class="st9"/></g></g></svg>