<svg xmlns="http://www.w3.org/2000/svg" width="28" height="24" preserveAspectRatio="xMidYMid" viewBox="0 0 28 24"><rect width="22.107" height="11.89" x="3.218" y="3.557" ry="5.502" style="fill:#1a1a1a;stroke-width:.037477"/><g style="fill:#fff"><path d="M42.9 424.7c-19.8-6.7-32.5-21.4-38.6-44.5-2.2-8.2-2.6-12.5-3-28.2-.9-35.2 4-57.7 30.1-136 10.2-30.9 17.8-50.9 25-66.4 3.7-8 5.9-11.1 11-16.2 5.1-5 6.8-7.4 8-11.6 2.4-8.5 9.6-14.7 24.2-21.1 19.1-8.4 42-14.6 56.9-15.4 9.7-.5 10.1-.4 14 2.2 2.2 1.6 6.9 4.2 10.5 5.9l6.5 3.1h137l6.5-3.1c3.6-1.7 8.3-4.3 10.5-5.9 3.9-2.6 4.3-2.7 14-2.2 19.2 1.1 52.9 11.6 68.4 21.4 7.4 4.7 10.9 8.9 12.7 15.1 1.2 4.2 2.9 6.6 8 11.6 5.1 5.1 7.3 8.2 11 16.2 7.2 15.5 14.8 35.5 25 66.4 26.1 78.3 31 100.8 30.1 136-.4 15.7-.8 20-3 28.2-5.8 22-18.2 37-36.1 43.7-11 4.1-11.1 4.1-21.7-4-5.1-4-14.8-12.9-21.4-19.8-36.1-37.7-52.3-51.1-70.7-58.4l-6.6-2.7H160.8l-6.6 2.7c-18.4 7.3-34.6 20.7-70.7 58.4C71.4 412.7 54.2 427 51.2 427c-1 0-4.7-1.1-8.3-2.3m290.4-117.2c7.9-2.1 13.1-4.9 18.9-10.3 22.5-21 16.7-57.7-11.1-71-6.4-3.1-8.8-3.7-16.1-4-13.8-.7-24.2 3.3-33.4 12.6-8.6 8.8-12.6 18.5-12.6 30.6.1 28.6 26.7 49.3 54.3 42.1m-129.5-12.7.3-10.6 10.5-.4c7.9-.2 10.7-.7 11.4-1.8 1.1-1.6 1.4-21.9.4-24.4-.5-1.3-2.5-1.6-11.5-1.6H204v-10.9c0-9-.3-11-1.6-11.5-2-.8-21.8-.8-23.8 0-1.3.5-1.6 2.5-1.6 11.5V256h-10.9c-9 0-11 .3-11.5 1.6-.3.9-.6 6.7-.6 12.9 0 13.8-.3 13.5 13.4 13.5h9.6v10.3c0 5.7.3 10.7.7 11.1.4.3 6.3.5 13.2.4l12.6-.3zm191.7-51.7c15.2-7 18.2-26.5 5.5-37.3-11-9.5-27.5-6.3-34.3 6.7-2.8 5.5-2.8 14.6.1 20.2 5.3 10.3 18.5 15.1 28.7 10.4M141.3 227c15.4-5.8 26.3-20.7 27.5-37.6 1.4-20.3-10.7-38.1-30.3-44.8-6.4-2.1-19.6-2.1-25.9 0-19 6.5-30.6 22.4-30.6 41.9 0 19.7 12.9 36.6 32.3 42 7.1 2 19.5 1.3 27-1.5m221.4-19.7c7.6-3.5 12.3-11.2 12.3-20-.1-13.1-9.1-22.3-22-22.3-12.7 0-22 9.3-22 22 0 7.1 2.6 12.6 8 17.3 6.6 5.6 15.6 6.8 23.7 3m65.2 1.6c6.4-1.3 13.3-7.2 15.6-13.4 3.8-9.9.2-21.3-8.4-27.1-4.8-3.1-13.9-4.3-19.5-2.4-8.6 2.8-14.7 11.7-14.7 21.3 0 10.5 6.1 18.6 16 21.3 5.8 1.6 5.2 1.6 11 .3m-200.1-9.5c3.7-2.4 6.2-7.4 6.2-12.4 0-7.9-6-14-13.8-14-11.4 0-18.1 10.4-13.2 20.4 3.7 7.8 13.7 10.7 20.8 6m71.8.5c5.6-2.6 8.9-8.9 7.9-14.9-2.9-17-28.5-15.4-28.5 1.8 0 6.9 3.7 12.4 9.6 14.2 4.6 1.3 6.5 1.1 11-1.1m95.9-25.8c15.2-7 18.2-26.5 5.5-37.3-11-9.5-27.5-6.3-34.3 6.7-2.8 5.5-2.8 14.6.1 20.2 5.3 10.3 18.5 15.1 28.7 10.4m-133-17.6c8.6-1.4 17.5-10.5 19.5-20 4.9-23.7-20.9-41.1-41-27.6-15.6 10.5-15.3 33.4.5 44.3 3.8 2.5 12.2 4.9 15.5 4.2.8-.1 3.3-.5 5.5-.9" style="fill:#fff" transform="translate(.4 -1.728)scale(.05334)"/><path d="M315.1 302c-19.4-4.1-32.7-23.6-29.2-42.7 1.5-8.1 4-13.1 9.4-19 21.7-23.5 59.9-10.9 64.1 21.2 2.2 16.3-9 33.7-25.2 39.3-4.7 1.6-14.1 2.2-19.1 1.2m18.2-9c10.9-4.1 18.7-15.6 18.7-27.5 0-22.1-23.1-36.3-42.8-26.4-7 3.5-10.5 7.1-14 14.8-2.1 4.6-2.4 6.4-2 13 .6 9 2.9 14.2 9 20.1 8 7.6 20.3 10 31.1 6" style="fill:#fff" transform="translate(.4 -1.728)scale(.05334)"/><path d="M315.5 287.8c-8.2-2.3-16.5-13.6-16.5-22.5 0-7.8 5.8-17 13.3-21 4.3-2.4 16-2.4 20.3-.1 14.2 7.7 17.3 25.6 6.5 37.1-5.6 6.1-15.3 8.8-23.6 6.5M183 289.7c0-6.7-.4-10.7-1.2-11.5s-4.8-1.2-11.5-1.2H160v-15h10.3c6.7 0 10.7-.4 11.5-1.2s1.2-4.7 1.2-11V240h14.9l.3 10.8.3 10.7 10.8.3 10.7.3V277h-9.8c-6.3 0-10.2.4-11 1.2s-1.2 4.8-1.2 11.5V300h-15zm198.7-52.1c-9.5-3.4-13.4-13.1-9.1-22.3 3.5-7.3 14-10.6 21.4-6.8 3.7 1.9 7.6 7.1 8.5 11.2 1.5 7.2-4.1 16.2-11.6 18.3-4.2 1.2-4.5 1.2-9.2-.4M118.8 223c-9.6-1.7-19.1-8.2-24.7-16.8-9.4-14.7-7.1-34.1 5.6-46.4 2.6-2.6 7.5-6 10.8-7.5 5.2-2.4 7.2-2.8 15-2.8s9.9.4 15.3 2.9c15.1 6.9 24.2 24.1 21.3 40-3.8 20.7-22.9 34.2-43.3 30.6m19.3-9.8c11.2-5.5 17.4-16.2 16.7-28.7-.7-11.2-6.1-19.5-16-24.4-19.6-9.9-42.8 4-42.8 25.6 0 12.5 7.4 24 18.4 28.3 6.9 2.7 17.3 2.3 23.7-.8" style="fill:#fff" transform="translate(.4 -1.728)scale(.05334)"/><path d="M120 209.1c-8.2-2.7-14.9-9.2-17-16.7-4.3-15.3 8.6-30.7 24.4-29.1 3 .3 6.8 1.2 8.4 2.1 7.5 3.9 13.2 13.2 13.2 21.5 0 4.4-3.2 11.7-6.8 15.4-5.4 5.7-15.8 8.9-22.2 6.8m225-8.3c-7.6-5.2-9.9-13.1-6.1-20.7 5.4-10.5 19.7-11.8 26.9-2.3 3.5 4.7 3.9 13.5.6 17.9-3.5 4.8-8.2 7.3-13.4 7.3-3.2 0-5.7-.7-8-2.2m70 0c-5.7-3.9-7.5-7.2-7.5-13.8 0-4.3.5-6.6 2.1-8.7 2.4-3.3 9.7-7.3 13.4-7.3 1.4 0 4.6 1 7 2.3 14.7 7.4 9.4 29.7-7 29.7-3.2 0-5.7-.7-8-2.2m-200.8-8.1c-3.9-4.2-2.6-10.5 2.8-12.7 6-2.5 12.1 2.9 10.4 9.4-1.4 5.6-9.2 7.6-13.2 3.3m74.1.8c-7.3-5.1-.5-16.9 7.7-13.5 3.6 1.5 5 3.7 5 7.8 0 5.8-7.6 9.3-12.7 5.7m93.4-25c-7.1-2.5-10.7-7.5-10.7-14.7 0-9.2 6.4-15.8 15.2-15.8 6 0 9.8 1.9 13.5 6.6 2.2 2.9 2.7 4.7 2.7 8.9 0 5.9-1.6 9.1-6.6 12.8-4.2 3.2-9.3 4-14.1 2.2M248 149.4c-4.8-2.1-7-4.3-6.3-6.2 1.2-3.2 7.3-11 10.9-13.7l3.6-2.7 5.2 5.1c5.8 5.7 9.1 11.2 8.2 13.6s-8.5 5.5-13.6 5.4c-2.5 0-6.1-.7-8-1.5m25-10.2c0-3.1-4.3-11.3-8-15.6l-3-3.4 2.6-2.1c3.7-2.9 4.9-2.7 8.1 1.5 3.4 4.6 4.5 14.4 1.9 19-1.4 2.7-1.5 2.7-1.6.6m-36.4-1.8c-2.1-5.5.3-16.2 4.4-19.9 1.7-1.5 2.1-1.5 4.9 0 1.7.8 3.1 1.8 3.1 2 0 .3-2 3.5-4.6 7.1-2.5 3.7-4.8 8-5.1 9.5-.6 3.2-1.8 3.7-2.7 1.3m15.5-24.8-2.4-1.3 3.2-.5c1.7-.2 4.5-.2 6.2 0l3.2.5-3.3 1.3c-3.9 1.7-3.9 1.7-6.9 0" style="fill:#fff" transform="translate(.4 -1.728)scale(.05334)"/></g></svg>