<svg xmlns="http://www.w3.org/2000/svg" width="3839.004" height="723.99" viewBox="0 0 1015.736 191.556"><path d="M358 689.72c-13.29 0-25.6-.69-37.71-2.17-26.09-3.15-55.43-9.75-89.99-20.18h-.2l-.1-.1c-11.91-4.43-33.38-13.39-42.73-18.61-6.01-3.05-25.01-15.95-29.83-20.28-15.06-9.45-45.69-38.89-64.79-64.89l-.2-.3-.2-.3c-1.18-2.26-3.25-5.91-5.71-10.04-6.3-11.03-14.97-25.99-17.72-34.36-6.3-13.19-11.32-28.16-14.97-39.09-1.48-4.53-2.76-8.37-3.84-11.03l-.2-.49-.1-.49c-1.67-9.65-3.84-17.82-6.01-25.8-2.66-10.04-5.51-20.38-6.99-33.08v-.78c.3-4.43-.89-16.25-2.17-23.04l-.1-.79.1-.69c.69-6.2.69-12.21.69-18.61 0-8.76 0-17.92 1.87-27.86 1.08-6.01 2.46-10.54 3.54-14.57 1.58-5.61 2.95-10.34 3.45-17.43v-.4c.49-3.54 2.95-10.04 5.51-17.03 1.77-4.73 3.54-9.65 4.33-12.6l.1-.39.2-.39c2.26-4.82 3.74-9.16 5.42-13.88 2.26-6.6 4.63-13.39 9.06-21.37 1.48-2.76 2.86-5.61 4.33-8.57 9.26-18.41 19.79-39.29 34.76-57.6 4.23-5.61 14.47-17.33 20.58-24.32 1.08-1.28 2.95-3.35 2.95-3.35l.1-.1c6.2-6.2 11.13-9.65 16.15-13.19 4.23-2.95 8.57-5.91 14.08-10.93l.3-.3.2-.1c.3-.2.79-.79 1.28-1.18 3.25-3.15 10.04-9.65 17.43-12.6 7.58-5.81 14.67-9.65 21.46-13.49 6.3-3.54 12.31-6.79 18.61-11.52l.39-.3.39-.2c27.57-13.78 37.91-18.51 64.89-29.83l.1-.1.2-.1c9.06-3.15 19.69-5.42 29.14-7.48 6.89-1.48 13.39-2.86 16.54-4.14l.69-.3h.79c5.81-.3 11.52-1.28 17.72-2.26 7.88-1.28 16.05-2.66 24.42-2.66 1.48 0 2.95 0 4.43.1h3.54c18.02 0 35.45 1.38 50.22 2.76 1.48.1 3.05.2 4.73.3 11.62.79 25.99 1.77 44.8 5.81 23.34 3.45 46.87 10.93 62.42 15.85 2.66.79 5.02 1.58 7.19 2.26 28.85 8.76 76.41 36.23 94.33 50.51 7.98 6.4 24.71 22.84 31.61 31.61 4.43 5.71 11.72 16.05 18.12 25.11 2.86 4.04 5.51 7.88 7.78 11.13 13.29 19.4 28.46 48.15 38.89 68.92 13.19 26.39 14.77 35.05 18.41 55.93l.49 2.95 8.76 40.27v.3c1.48 13.29-.39 37.02-17.13 41.06-3.05.69-6.1 1.08-9.06 1.08-12.6 0-24.62-6.3-31.21-16.34-5.12-7.88-7.19-17.33-9.35-27.27-1.97-8.96-4.23-19-8.96-29.54-3.15-7.29-5.51-15.46-8.07-24.12-3.94-13.59-8.07-27.77-15.46-38.89l-.1-.2-9.85-16.54c-13.78-21.17-28.26-39.19-38.79-52.38-2.76-3.35-5.32-6.6-7.48-9.45-9.65-11.72-27.47-27.27-43.32-37.91-14.47-8.86-38.89-19.5-58.19-25.4h-.1c-5.32-1.77-30.13-9.06-45.39-11.03-9.06-.98-16.74-2.17-24.12-3.35-9.85-1.58-19.2-2.95-30.42-3.74-4.33-.3-8.17-.59-11.91-.89-8.96-.69-16.64-1.28-25.5-1.28s-18.31.59-29.83 1.97c-4.63 1.18-10.04 2.17-15.75 3.15-10.04 1.77-21.46 3.74-32 7.78-17.03 6.99-35.94 16.44-51.79 25.8l-.1.1c-20.87 11.52-51.4 34.26-71.19 52.97-19.99 21.37-30.23 32.98-44.6 60.95-2.07 4.33-4.63 9.35-7.29 14.67-5.91 11.62-12.7 24.81-15.95 34.95l-.2.69c-3.35 14.97-9.55 42.93-8.37 55.93v.4c.2 10.83-.1 17.92-.3 24.22-.3 8.27-.59 14.77.49 26.19v.4c.1 11.22 2.46 20.38 4.82 29.24 1.38 5.22 2.76 10.54 3.74 16.15 2.46 11.82 12.31 45.78 17.43 52.87l.3.39.2.39c28.85 62.13 67.74 86.45 105.45 103.38l.1.1.1.1c7.48 3.84 28.85 10.54 58.58 18.41 17.92 3.25 41.35 5.42 64.59 5.91h4.63c22.15 0 52.97-3.15 71.98-10.14 15.66-5.81 33.28-13.29 41.75-16.94 2.86-1.18 4.33-1.87 5.22-2.26 10.73-5.81 25.4-14.67 29.64-18.12l.2-.2.3-.2c2.86-1.87 5.42-3.35 7.68-4.73 4.92-2.95 8.57-5.12 11.91-8.66l.2-.2 1.87-1.67c6.99-6.1 11.22-9.85 16.44-17.43 3.54-5.02 8.76-12.41 13.98-19.1 3.35-5.61 5.81-11.52 8.76-18.31 1.58-3.74 3.25-7.68 5.22-11.82 5.22-14.08 5.32-15.46 6.01-26.29.1-2.26.3-4.82.49-8.07v-.3l.1-.3c.98-4.53-.2-22.06-.98-24.71l-.1-.2-.1-.3c-1.38-7.88-1.97-15.36-2.46-22.55-.69-8.76-1.28-17.03-3.35-25.9-5.12-22.25-9.55-38.6-16.25-60.26l-.1-.2c-6.4-24.32-26.78-47.85-37.71-60.55-6.89-7.98-32.89-31.8-70.5-46.57-10.44-3.54-27.18-7.38-37.42-9.16-8.07-.89-13.98-1.18-19.1-1.18-5.61 0-10.34.39-16.94.98-3.35.3-7.19.69-11.91.98-7.48 1.28-24.81 4.82-30.82 6.99-18.31 6.5-24.81 10.24-44.7 22.45l-.1.1c-8.17 4.73-15.16 8.76-24.32 17.33-3.84 3.54-7.19 8.76-10.44 13.78-2.56 4.04-5.02 7.88-7.88 11.03-5.71 7.68-16.05 23.14-22.74 40.86l-.1.2c-6.2 14.87-8.37 36.82-7.38 50.81v.4c0 10.44 2.95 30.23 4.04 34.36 1.08 4.04 3.64 15.66 4.63 19.99l.2.98c.2.89 1.58 4.23 7.78 17.03l.69 1.48c2.95 6.2 9.85 18.61 23.63 32.1l.1.1.1.1c8.47 9.16 25.9 19.4 39.78 23.34l.59.2.49.3c12.11 6.7 33.67 7.38 42.54 7.38l1.87-.1c6.5-.39 18.61-1.18 25.01-2.76 2.36-.59 4.43-1.08 6.2-1.48 10.24-2.36 14.08-3.25 27.18-8.96 4.82-2.26 9.16-4.04 13.1-5.61 7.68-3.15 13.78-5.61 19.99-10.14.89-.69 13.39-10.63 19-17.72 2.36-2.95 7.78-21.37 6.89-32.59v-.2c-.2-5.91 0-11.03.2-15.56.3-8.37.59-14.97-1.48-23.24-3.74-15.06-9.45-29.54-14.97-38.01-5.42-8.47-17.43-17.53-33.77-25.6-7.98-3.94-28.36-7.88-36.63-8.86-1.67-.2-3.35-.3-4.92-.3-15.56 0-26.19 9.06-30.13 13.1-9.45 10.83-19.59 25.01-14.97 39.09 5.42 17.13 10.63 29.24 28.85 29.24.69 0 1.48 0 2.26-.1h.59l.59.1c3.94.79 8.37 1.18 13.69 1.18 4.23 0 8.57-.3 12.31-.49 3.25-.2 6.4-.39 9.06-.39 3.94 0 6.7.39 8.76 1.38l.2.1.2.1c12.31 6.79 15.85 21.46 12.31 31.51-3.45 20.38-24.62 21.96-38.7 22.94-2.26.39-4.92.59-7.98.59-17.23 0-47.26-5.91-56.12-12.31-5.42-3.35-12.9-10.14-18.9-15.56l-1.58-1.48c-4.73-4.23-9.45-12.5-13.49-19.89-4.04-7.29-6.4-13.49-7.68-19.4-.1-.59-.3-1.18-.39-1.87-1.28-6.4-3.54-17.03-2.56-27.77.39-4.43 1.28-7.48 2.17-11.13.79-2.95 1.67-6.2 2.56-11.22l.1-.3.1-.3c4.14-13.1 9.26-22.94 17.62-34.36l.2-.3.3-.3c11.91-12.01 24.81-24.02 37.91-30.03 9.55-5.02 25.11-7.88 42.63-7.88 3.05 0 6.2.1 9.26.3h.2c16.44 1.58 33.18 3.45 44.6 7.29h.1c2.46.89 4.73 1.67 6.79 2.46 14.38 5.12 20.97 7.48 35.54 16.64 15.06 9.35 29.24 25.99 36.53 38.5l.1.2.1.2c19.5 39.88 25.4 77.78 19.3 122.88-.59 9.75-3.94 18.81-8.86 29.34-3.64 7.78-12.01 22.45-27.47 33.87-5.81 5.32-14.18 11.22-20.48 14.57-7.78 4.63-13.49 7.58-20.78 11.22-1.58.79-3.15 1.58-4.82 2.46l-.1.1c-9.16 4.33-19.2 8.86-32.2 12.5-11.52 4.53-20.87 5.71-32.79 7.19-3.35.39-6.79.89-10.54 1.38-5.32 1.28-12.8 1.97-21.86 1.97-20.28 0-52.09-3.54-74.93-13.69-21.27-8.86-43.52-24.32-59.47-41.35-7.09-7.48-14.08-19.2-18.22-26.19-1.38-2.26-2.56-4.23-3.05-5.02l-.2-.3-.2-.3c-9.85-19.1-13.88-36.92-16.25-47.56-.69-3.15-1.38-6.1-1.77-6.99-2.26-5.32-3.54-14.28-4.82-22.84-.59-3.84-1.08-7.58-1.67-10.73-2.46-12.7-.69-63.11 11.22-94.92l.1-.3.2-.3c2.66-5.02 4.92-10.04 6.99-14.38 2.95-6.4 5.51-12.01 8.47-15.85 2.95-4.14 5.32-7.78 7.48-11.03 3.84-5.81 7.09-10.83 11.62-16.15 1.97-2.36 3.84-4.63 5.61-6.89 7.78-9.55 14.57-17.82 23.14-24.02 26.49-21.56 48.84-32.89 77.49-46.47l.1-.1.1-.1c25.11-10.24 38.79-12.21 55.24-12.21 4.53 0 9.16.1 14.47.3 4.23.1 8.57.3 13.59.39 13.49.1 31.8 3.64 43.91 6.01 2.07.39 4.04.79 5.71 1.08 15.66 2.07 26.19 5.42 36.53 8.57 3.45 1.08 6.7 2.07 10.24 3.05 12.6 3.45 21.07 8.86 30.03 14.47 2.17 1.38 4.33 2.76 6.7 4.14l.1.1c10.73 6.89 22.55 15.85 30.03 22.84 20.09 14.87 30.33 30.72 42.04 49.03l.59.89c3.05 4.43 17.23 35.25 19.59 44.01v.1c.98 3.94 4.23 16.34 6.4 23.73v.2c1.38 5.81 2.36 11.13 3.45 16.84 1.08 5.61 2.07 11.32 3.64 17.72v.1c2.66 12.9 7.38 38.1 9.26 62.42 3.45 21.56-2.17 63.31-5.32 75.72l-.1.2c-9.45 31.61-24.02 58.39-44.7 81.92-10.44 12.31-21.46 21.96-34.66 32.69-9.26 7.58-17.03 12.31-30.03 20.09l-3.64 2.17c-21.86 13-37.71 20.68-65.28 31.51l-.2.1-3.35 1.08c-11.03 3.54-24.81 7.98-39.38 10.93l-.3.1h-.3c-20.9 1.4-39.71 2.98-59.9 2.98" class="st1" style="display:inline;fill:#f05100;fill-opacity:1" transform="translate(-.01)scale(.26458)"/><g style="fill:#000"><g style="fill:#000"><path d="M1059.54 620.5c-14.77 0-49.13-.1-85.56-.2-43.72-.1-88.81-.2-112.15-.2h-8.17l3.94-7.19c8.17-15.26 13.49-36.43 13.49-53.96V171.22c0-15.95-3.15-35.94-9.26-43.42l-6.5-7.98h10.34c24.12 0 62.92.1 100.33.2 37.02.1 72.07.1 93.64.1 29.05 0 103.68 5.12 167.78 52.78 27.86 20.68 49.82 46.67 64.98 77.29 17.23 34.56 25.99 75.03 25.99 120.42 0 69.32-26.19 132.82-73.65 178.81-47.55 45.78-113.32 71.08-185.2 71.08M953.6 563.1c27.47 3.45 51.59 5.12 73.65 5.12 17.62 0 34.26-1.08 49.53-3.25 48.25-6.89 160.29-39.78 159.51-196.13-.69-153.5-93.14-191.11-170.53-195.54-11.32-.69-22.55-.98-33.38-.98-27.08 0-52.87 2.07-78.77 6.3V563.1Z" style="display:inline;fill:#000" transform="translate(-.01)scale(.26458)"/></g><path d="m1348.72 620.21 6.6-7.98c6.5-7.88 10.04-24.12 10.04-32.3v-249.4c-.1-19.69-4.33-44.21-13.29-51.4l-8.76-6.99 89.4-13.98v50.02c7.38-11.13 16.94-20.87 28.36-28.65 18.81-12.9 41.75-19.69 66.36-19.69 19.5 0 40.07 4.14 61.24 12.41l4.53 1.77-22.94 60.16-4.82-2.26c-19.79-9.35-38.79-14.08-56.42-14.08-47.06 0-76.31 34.17-76.31 89.11v172.8c0 7.78 1.67 23.63 6.3 33.38l3.35 6.99h-93.64zm2391.32 3.44c-1.38 0-2.76 0-4.04-.1-42.54 0-88.02-24.42-88.02-92.75V314.88c-10.04 0-32 0-36.63-.2l-4.73-.2v-43.72h4.92c3.15 0 15.56-.1 26.49-.1 4.23 0 8.27 0 11.22-.1 0-9.75.1-29.74.1-29.74 0-18.31-3.64-40.37-10.73-46.97l-6.4-6.01 81.62-22.55-.39 104.86c18.9 0 90.19.1 90.19.1l-.1 52.68-6.7-2.66c-8.86-3.54-19.2-4.53-35.05-5.02-.98 0-4.33-.1-15.16-.1-11.22 0-25.6 0-33.18.1h-.1c-.2 24.52 0 139.22.1 190.92 0 17.13.1 29.64.1 34.07 0 19.69 13.39 32.89 33.38 32.89 8.17 0 29.24-.79 47.56-7.78l8.47-3.25-11.62 54.74-3.05.69c-8.76 1.69-30.62 6.12-48.25 6.12m-266.73-.69c-30.82 0-65.58-5.12-97.67-14.28l-2.76-.79-16.94-75.62 10.44 7.48c26.39 18.81 70.6 37.91 104.27 37.91 46.38 0 74.04-22.25 74.04-59.57 0-33.28-37.71-49.13-77.69-65.97-46.67-19.69-99.54-41.94-99.54-97.48 0-32.1 13.49-57.99 39.09-74.93 21.07-13.98 50.31-21.66 82.22-21.66 16.54 0 59.86 3.54 88.22 14.57l3.15 1.18-.3 59.47-8.07-6.89c-25.21-21.56-64.3-23.93-79.95-23.93-38.1 0-60.95 18.81-60.95 50.41 0 18.81 28.75 30.82 62.13 44.7 51.2 21.37 114.9 47.85 114.9 116.09 0 34.76-14.28 63.51-41.35 82.9-23.72 17.06-56.81 26.41-93.24 26.41m-834.45-2.95 6.5-7.98c6.6-8.17 10.04-26.78 10.04-34.56V396.11c0-78.67-54.15-84.77-70.79-84.77-35.45 0-77.69 14.67-77.69 84.77v181.46c0 7.78 3.45 26.49 10.04 34.46l6.6 7.98h-98.36l6.5-7.98c6.6-8.17 10.04-26.78 10.04-34.56V396.11c0-32.39-6.7-55.63-19.99-69.02-10.44-10.63-25.3-15.75-45.69-15.75-18.12 0-77.1 6.1-77.1 84.77v181.37c0 7.78 3.45 26.49 10.04 34.46l6.6 7.98h-100.82l6.5-7.98c6.6-8.17 10.04-26.78 10.04-34.56V336.34c0-20.97-6.99-47.95-14.28-55.63l-6.5-6.79 88.52-13.69v5.71c0 2.36 0 13.19-.1 23.63v8.07c23.83-24.91 52.78-37.51 86.25-37.51 41.45 0 75.13 13.78 100.13 41.06 23.43-19.99 53.07-40.27 102.4-40.27 50.9 0 81.82 19.3 98.85 35.45 19.3 18.31 31.31 43.32 31.31 65.28v215.93c0 7.78 3.45 26.49 10.04 34.46l6.6 7.98h-95.68zm536.51 4.82c-42.93 0-75.52-12.8-96.89-38.01-21.66-25.5-23.34-54.45-23.34-62.72 0-45.59 17.62-78.77 52.48-98.46 29.05-16.44 64-20.48 89.6-23.53 4.92-.59 9.55-1.08 13.69-1.67 25.21-3.54 54.65-10.34 58.88-30.72 3.25-15.46.3-29.34-8.37-39.98-12.11-14.77-34.86-22.94-64.3-22.94-36.23 0-70.01 9.65-103.19 29.44l-7.38 4.43-.1-62.33 3.05-1.28c29.44-11.82 78.08-18.02 110.87-18.02 41.55 0 74.24 10.73 97.08 32 24.62 22.84 37.12 57.11 37.12 102.01v149.56c0 6.2-.3 12.21-.59 18.02-.98 20.28-1.87 37.71 9.65 51.1l6.99 8.07h-77.69l-1.87-31.7c-23.72 26-52.37 36.73-95.69 36.73m97.18-191.21c-12.01 7.38-30.03 13.19-49.72 15.66-28.85 3.84-56.42 8.07-76.31 18.51-20.87 11.03-30.62 27.67-30.62 52.38 0 30.52 34.36 56.71 62.42 56.71 85.07 0 94.33-67.74 94.33-96.89zm-342.74 190.23c-59.08 0-108.11-19.79-141.78-57.3-29.64-32.98-45.98-78.47-45.98-127.9 0-103.09 79.56-177.92 189.14-177.92 42.83 0 75.32 9.65 90.98 14.28 1.58.49 2.95.89 4.23 1.18l3.54.98-.3 58.78-7.29-4.33c-23.14-13.59-59.18-23.83-83.79-23.83-82.12 0-127.31 46.57-127.31 131.15 0 84.87 46.47 135.48 124.36 135.48 28.75 0 69.42-13.1 101.22-32.69l9.85-6.1-16.15 72.57-2.76.79c-34.65 10.63-63.01 14.86-97.96 14.86m-1175.53 1.77c-55.83 0-103.58-18.71-138.04-54.06-31.9-32.69-49.53-77-49.53-124.85 0-51.79 15.66-98.66 44.11-131.94 30.33-35.54 72.86-54.25 123.17-54.25 47.16 0 85.37 16.44 110.47 47.66 22.25 27.67 34.07 66.07 34.07 111.06v4.92H1637c-.79 6.2-1.48 12.6-1.58 19.2-.2 38.79 10.63 71.58 31.21 94.72 20.48 23.04 49.72 35.35 84.48 35.45 41.45 0 85.17-14.08 111.56-35.84l10.54-8.76-14.77 74.93-2.66.89c-36.42 12.9-66.15 20.87-101.5 20.87M1646.37 377.5h166.4c-.98-12.5-5.91-29.24-17.13-43.32-14.97-18.81-37.12-28.36-65.77-28.36-40.87.1-74.05 36.23-83.5 71.68m372.08 247.33c-42.93 0-75.52-12.8-96.89-38.01-21.66-25.5-23.34-54.45-23.34-62.72 0-45.59 17.62-78.77 52.48-98.46 29.05-16.44 64-20.48 89.6-23.53 4.92-.59 9.55-1.08 13.69-1.67 25.11-3.54 54.55-10.34 58.88-30.72 3.25-15.46.3-29.34-8.37-39.98-12.11-14.77-34.86-22.94-64.3-22.94-36.33 0-70.1 9.65-103.09 29.44l-7.38 4.43v-62.42l3.05-1.28c29.44-11.72 77.98-17.92 110.67-17.92 41.65 0 74.34 10.73 97.18 32 24.62 22.84 37.12 57.11 37.12 102.01v149.56c0 29.44.69 53.37 9.75 70.01l3.84 7.19h-75.32l-1.77-31.7c-23.82 25.98-52.38 36.71-95.8 36.71m97.18-191.21c-12.01 7.38-30.03 13.1-49.72 15.66-28.85 3.84-56.42 8.07-76.41 18.51-20.97 11.03-30.72 27.67-30.72 52.38 0 30.52 34.36 56.71 62.42 56.71 85.07 0 94.33-67.74 94.33-96.89v-46.38h.1z" style="fill:#000" transform="translate(-.01)scale(.26458)"/></g></svg>