<svg xmlns="http://www.w3.org/2000/svg" viewBox="0 0 983 292"><path d="M102.922 148.125c-2.093 1.716-4.183 3.442-6.276 5.162l-2.269-2.033c-6.131 4.637-12.261 9.329-18.39 13.935-3.261-2.888-7.524-4.318-11.763-4.99q-12.76-2.751-25.519-5.504c-1.695 7.757-2.826 15.636-4.82 23.327-1.933 6.925-5.608 13.586-10.424 18.904-2.441 2.706-5.296 5.016-7.92 7.515-3.18 2.937-6.42 5.817-9.51 8.845-1.741 2.216-.352 5.896 2.354 6.542l25.642 12.65q-7.345 5.254-14.691 10.504l44.603 22.61c8.688-6.728 17.717-13.254 24.758-21.79 3.671-4.303 6.933-8.958 9.664-13.911 27.775-.014 55.551-.002 83.327-.006 1.726 4.877 3.166 9.876 5.317 14.588 4.581 8.395 15.702 12.447 24.606 8.95 1.026-.454 2.08-1.014 3.247-.886l42.216-2.934 9.9 14.43 20.88-12.77 11.855 5.801 1.027-1.443v5.822h45.487v-9.814c1.329 2.109 2.677 4.206 4.017 6.308l39.028-23.865-2.625-4.187h57.654q6.182 6.527 12.365 13.052c5.232-2.206 10.486-4.36 15.686-6.642v24.824h45.486v-53.492a140 140 0 0 0 5.34-4.86q.28 2.897.564 5.793l28.852-.957c.025 2.869-.094 6.005-1.981 8.342-2.338 3.036-5.881 4.755-9.192 6.507-3.812 1.902-7.69 3.67-11.49 5.597l-10.24 4.986 33.137 33.215c8.588-5.1 17.846-9.313 25.318-16.074 7.186-6.372 12.989-14.391 16.348-23.416 9.795-7.005 19.061-14.801 27.276-23.623a18.8 18.8 0 0 0 6.245-5.235 19.6 19.6 0 0 0 2.303-3.744v65.031h45.487v-23.808l40.297 23.578c7.975-9.391 16.49-18.47 22.692-29.192a122 122 0 0 0 7.757-15.277c5.502 8.18 9.474 17.242 12.774 26.532 1.325 3.674 2.498 7.412 3.974 11.025.943 1.5 2.823 1.895 4.421 2.298 2.03.393 4.093-.108 5.988-.828l12.298-3.675c4.616 6.605 13.328 9.923 21.184 8.234 2.248-.463 4.422-1.314 6.357-2.553 14.606-1.621 29.044-6.024 41.555-13.84l24.609 19.754c11.757-6.866 23.58-13.764 34.148-22.409.432-.523.872.384 1.309.572 7.944 6.352 15.39 13.435 22.82 20.425l3.143 2.957 36.367-27.726c-10.818-9.912-21.434-20.09-33.1-29.018.775-1.163 1.494-2.437 2.743-3.152 5.872-4.443 8.795-12.652 6.5-19.733-1.232-4.291-4.274-7.79-7.698-10.533l-11.216-10.08c-4.695.859-9.213 2.337-13.972 2.82l-58.65 2.272 1.282 9.2-10.043-6.44c-3.021 5.941-5.79 12.006-8.766 17.97-9.71-8.164-19.368-16.629-30.562-22.71-4.082-2.268-8.162-4.54-12.244-6.805l-4.952 5.48c-6.411-5.764-13.4-10.83-20.257-16.039-2.972 2.227-5.883 4.536-8.895 6.71-2.92.35-5.005 2.626-7.368 4.137l-25.734 18.138a7375 7375 0 0 0-21.404-8.815c-4.573-5.014-9.864-9.37-15.692-12.851-2.16-1.338-4.25-2.852-6.61-3.816-2.8-.856-5.789.37-7.917 2.204-2.214 1.497-4.334 3.163-6.764 4.306-2 1.272-3.882 2.72-5.87 4.014-.519.282-1.035.863-1.556.959-4.563-2.924-10.137-3.77-15.47-3.514q-11.482-.017-22.965-.013v19.692c-1.067-2.256-2.725-4.15-4.485-5.89l-11.616-12.52c-4.221.915-8.327 2.374-12.608 2.989l-71.927 1.774a16879 16879 0 0 1-20.908-15.76c-6.845 8.512-12.667 17.924-20.7 25.42-6.396 6.024-13.685 11.051-21.398 15.237v-2.924h-81.137c2.498-2.068 4.998-4.132 7.494-6.201-8.261-8.308-15.663-17.684-25.302-24.543-4.412-3.157-8.955-6.128-13.36-9.295l-8.332 6.324-3.146-2.164c-2.392 2.146-4.784 4.293-7.184 6.43-4.261-1.806-8.977-1.956-13.535-1.79h-21.434v18.034h-32.31v18.142c-2.12-2.079-4.252-4.149-6.377-6.224 2.386-5.406 1.662-12.017-1.806-16.798-2.85-4.172-7.293-7.168-12.165-8.445-1.505-.476-3.228-1.012-4.816-1.511q-10.685-3.337-21.371-6.67c-3.126 11.613-5.82 23.337-9.797 34.71h-73.24l4.091-2.69c-9.45-9.859-18.377-20.31-29.026-28.933q-5.177-4.37-10.355-8.744zm502.64 38.598c-.292.89-.72-.313-.16-.174.235.019.487-.14.16.174m190.417 20.402c2.83 2 5.582 4.107 8.279 6.283-1.827.135-3.623.227-5.42.28a131 131 0 0 0-3.445-6.967zm-18.418 15.9c.726 1.624 1.51 3.435 2.177 5.166-.4-.148-.442-1.025-.709-1.45a156 156 0 0 0-2.23-5.337zm-557.928 6.7c-.027.015 0-.035 0 0m456.469 3.964c.901.021-.252.925-.301.871.098-.277-.252-1.306.3-.87" style="-inkscape-font-specification:GAMECUBEN;display:inline;fill:#fff;stroke:none;stroke-linecap:square;stroke-miterlimit:3.2;paint-order:stroke markers fill"/><path d="M79.709 31.768c-17.113.507-33.782 7.473-46.698 18.611C25 57.329 18.658 66.285 15.214 76.346c-3.546 10.183-4.427 21.249-2.793 31.892 1.437 8.984 5.476 17.505 11.445 24.362 9.895 11.46 24.756 18.556 39.924 18.754 7.605.105 15.206-.297 22.811-.319 8.669-.104 17.341-.022 26.008-.043 2.583-.238 4.429-2.513 5.192-4.837l1.47-3.26c.33 1.716.485 3.499 1.098 5.14 1.173 2.387 4.073 3.373 6.587 3.033 70.465-.21 140.931-.3 211.397-.348 8.165-.041 16.566-.78 24.057-4.277 3.374-1.57 6.512-3.634 9.346-6.043 10.621 9.1 25.243 13.594 39.115 11.339a47 47 0 0 0 12.197-3.679c1.023 2.006 3.33 3.139 5.544 2.932 14.544 0 29.092.054 43.634-.049 2.984-.352 5.113-3.3 5.119-6.2l.422-2.778a16.4 16.4 0 0 0 4.162-2.7c39.736-.058 79.472.041 119.207-.094 10.12-.145 20.454-1.234 29.824-5.295a48 48 0 0 0 10.567-6.33c2.152 3.372 4.123 6.88 6.544 10.064 1.724 1.767 4.373 1.723 6.66 1.638 42.33.001 84.66.002 126.99-.023 3.172-.187 5.474-3.536 4.975-6.58l.052-6.624c5.323 4.161 10.606 8.376 16.007 12.432 2.381 1.27 5.144.644 7.713.797 51.93 0 103.861.003 155.791-.018 3.172-.212 5.47-3.557 4.971-6.607-.009-27.436.025-54.873-.043-82.307-.318-3.082-3.58-5.25-6.557-4.789-51.594-.008-103.187-.088-154.78.046-6.06.153-12.126.226-18.183.023-3.151.237-5.434 3.565-4.937 6.604l.016 6.066c-5.032-3.94-9.987-7.989-15.13-11.778-2.575-1.477-5.628-.858-8.446-.99-29.037.002-58.074-.002-87.11.027-2.684.173-4.681 2.435-5.627 4.791l-6.09 11.582c-2.729-4.691-5.37-9.44-8.238-14.047-1.704-2.118-4.637-2.56-7.196-2.353H521.611c1.056-1.728 2.276-3.407 2.955-5.324.79-3.38-2.487-6.932-5.918-6.416-36.283.006-72.568-.058-108.85.079-8.59.253-17.26 2.223-24.694 6.646-2.693 1.524-5.27 3.244-7.788 5.04-5.03-4.972-11.071-9.267-18.071-10.847-6.36-1.46-12.922-.827-19.384-.957-59.185.014-118.372.017-177.556.048-1.962.088-3.693 1.49-4.602 3.104-.97-2.267-3.6-3.289-5.935-3.164-5.035.094-10.075.012-15.111.038-8.362.01-16.728-.026-25.086.068-1.438.19-2.734 1.048-3.6 2.193-9.114-2.896-18.683-4.52-28.262-4.24m2.246 23.761a51.8 51.8 0 0 1 10.45 1.04c1.202.25 2.54.574 3.788.937-.317 1.97-.589 3.946-.931 5.912-11.947-2.599-24.947-1.117-35.61 5.03-7.344 4.261-13.481 10.982-16.083 19.16-2.406 7.232-2.286 15.537 1.398 22.327 3.481 6.31 10.315 10.813 17.595 10.918 4.186.185 8.364-.342 12.505-.875 2.391-.566 4.074-2.88 4.204-5.285.304-2.19.77-4.368.922-6.574.048-2.414-1.604-4.688-3.883-5.451-1.947-.734-4.043-.232-6.061-.319-.459-.14-1.63.344-1.54-.277l.674-4.572h19.941c-1.114 7.263-2.3 14.519-3.312 21.795-.022.863.23 1.723.666 2.463-1.716.557-3.29 1.476-4.983 2.102-3.748 1.584-7.705 2.748-11.783 3.003a38.6 38.6 0 0 1-6.84-.056c-7.053-.714-14.07-3.374-19.33-8.217-4.181-3.858-7.04-9.149-7.787-14.805-1.23-8.301.024-17.04 3.971-24.483 4.789-9.229 13.32-16.167 22.886-20.012 5.194-2.107 10.87-3.335 16.377-3.67a68 68 0 0 1 2.766-.09M290.19 57.5l-1.085 7c-8.284.028-16.573-.074-24.852.082-2.687.424-4.473 3.153-4.454 5.761-.606 4.411-1.324 8.819-1.83 13.237.182 2.76 2.748 5.205 5.564 4.942 6.145.08 12.291.016 18.437.039l-1.055 6.939c-6.981.013-13.968-.046-20.945.055-2.66.394-4.508 3.027-4.562 5.618-.723 4.41-1.582 8.81-2.198 13.231.141 2.682 2.498 5.189 5.268 5.045 4.13.11 8.262.015 12.393.051h9.855l-1.137 6.75h-35.025l10.935-68.75zm155.493 0c3 7.638 5.893 15.324 9.032 22.903 1.69 3.105 6.686 3.322 8.699.445 4.872-7.763 9.706-15.55 14.564-23.323l7.035-.017c-7.919 12.537-15.894 25.038-23.65 37.674-1.946 3.339-2.04 7.305-2.586 11.032-.99 6.679-1.933 13.365-2.993 20.034l-6.226.035c1.71-10.588 3.493-21.168 5.088-31.771.01-2.777-1.746-5.078-2.71-7.57L438.33 57.5zm-261.557.166c2.353 12.779 4.632 25.574 7.078 38.331 1.061 3.434 5.977 4.732 8.602 2.282 1.892-1.971 2.447-4.758 3.645-7.137l14.29-33.484 11.533.076 2.85 68.516h-6.102c-.647-14.469-1.23-28.941-1.977-43.403-.493-3.38-4.972-5.304-7.751-3.302-2.658 2.062-3.474 5.485-4.868 8.38l-16.581 38.384-3.627-.047c-2.716-13.17-5.365-26.352-8.194-39.498-1-3.2-5.523-4.68-8.105-2.433-1.987 1.619-2.34 4.283-3.134 6.56-3.787 11.785-7.526 23.587-11.294 35.379l-19.758-.01c-1.199-6.597-2.238-13.23-3.628-19.786-.957-2.612-4-3.83-6.616-3.466-5.746.036-11.5-.125-17.24.11-2.504.445-4.116 2.748-4.912 5l-8.375 18.155c-2.225-.008-4.45.01-6.676-.03a5.2 5.2 0 0 0-.547-1.96c1.964-.58 3.284-2.35 3.937-4.213 9.155-20.812 18.376-41.594 27.555-62.394l12.426.042c3.272 19.537 6.48 39.087 9.819 58.61.873 3.001 4.69 4.68 7.465 3.183 2.02-.895 2.8-3.15 3.343-5.121q9.303-28.386 18.58-56.779zm224.904-.01c7.045.03 13.85 3.601 18.2 9.088 5.478 6.719 7.782 15.61 7.437 24.178a44 44 0 0 1-2.807 13.823c-3.247 8.619-9.418 16.383-17.79 20.464-4.818 2.302-10.378 3.233-15.637 2.121-1.044-.216-2.324-.56-3.412-.987-6.44-2.391-11.448-7.727-14.34-13.862-2.786-5.851-3.846-12.44-3.467-18.885.602-9.872 4.63-19.823 11.692-26.935a36 36 0 0 1 3.598-3.169 30 30 0 0 1 2.755-1.867c4.129-2.5 8.921-4.016 13.771-3.969m-79.963.586c7.353.047 14.711-.105 22.061.128 3.424.296 6.755 1.738 9.197 4.176 2.902 2.58 5.218 6.153 5.276 10.143.101 4.949-2.536 9.5-5.81 13.03-1.245 1.304-2.717 2.702-2.787 4.632-.24 2.27.97 4.472 2.714 5.857 3.392 3.56 5.476 8.66 4.517 13.597-.62 3.489-2.563 6.897-5.1 9.488-4.083 4.143-9.733 6.88-15.607 6.888-5.127.22-10.26-.01-15.39.068l-13.967-.028q5.394-33.997 10.81-67.99zm79.455 4.858c-6.13.284-11.718 3.773-15.64 8.343-6.837 7.963-10.005 18.782-9.172 29.188.543 5.982 2.632 12.054 6.895 16.414 3.638 3.696 9.004 5.785 14.188 4.99 5.955-.78 11.15-4.5 14.835-9.104 5.727-7.092 8.563-16.281 8.552-25.342-.073-6.316-1.719-12.833-5.702-17.845-2.952-3.692-7.37-6.3-12.137-6.593a19 19 0 0 0-1.819-.051m-68.312 1.503c-2.486.174-5.063-.11-7.47.646-2.15.904-3.091 3.328-3.246 5.51-.729 4.457-1.704 8.884-2.18 13.376.101 3.109 3.288 5.44 6.28 5.108 5.466.294 11.193.56 16.34-1.638 5.486-2.402 8.853-9.057 7.094-14.86-1.104-4.028-4.856-6.92-8.884-7.622-2.606-.557-5.284-.53-7.934-.52m194.703 4.608c1.093.03 2.186.041 3.277.103 8.746 14.39 17.403 28.836 26.143 43.229 2.07 2.869 7.015 2.452 8.709-.602 1.048-2.217.654-4.757.687-7.13.038-11.763.02-23.525.022-35.288 12.168-.012 24.34-.158 36.506.114 6.173.428 12.123 2.8 17.115 6.413 3 1.73 7.338-.586 7.557-4.046a5.1 5.1 0 0 0-.37-2.502l6.577.01c6.517 11.216 12.989 22.46 19.568 33.638 2 2.688 6.686 2.698 8.527-.173 1.454-2.198 2.556-4.597 3.864-6.82l14.72-26.667c1.772.016 3.543.04 5.315.026l-26.174 45.209q-2.463.027-4.926.023c-6.655-10.913-13.198-21.897-19.908-32.775-1.552-2.22-4.93-2.977-7.168-1.346-1.862 1.244-2.63 3.668-2.24 5.817.302 4.083.784 8.26-.241 12.29-.888 3.853-3.025 7.455-6.232 9.817-4.888 3.717-11.058 5.205-17.062 5.851-6.055.614-12.145.346-18.248.392a8898 8898 0 0 1-31.639-.09c-7.226-12.754-14.408-25.535-21.691-38.253-1.946-2.719-6.639-2.803-8.496.056-1.62 2.437-2.866 5.095-4.353 7.612-3.89 7.01-7.832 13.994-11.65 21.041-1.32 3.237 1.368 7.355 4.9 7.307 3.499.05 7 .035 10.499.033v2.25h-25.525l26.955-45.373a77 77 0 0 1 4.982-.166m412.338.059v2.74c-12.718.007-25.44-.048-38.156.03-3.116.353-5.275 3.673-4.8 6.683.065 2.556-.379 5.206.401 7.687 1.017 2.483 3.933 3.693 6.487 3.34H929.5V92c-6.84.01-13.686-.05-20.523.068-3.036.409-5.124 3.634-4.68 6.583.048 3.08-.286 6.197.21 9.249.793 2.738 3.884 4.245 6.593 3.85h36.933l.03 2.75H898.25V69.24zm-182.188 2.34c12.627 9.829 25.152 19.794 37.823 29.564 3.03 1.91 7.501-.284 8.058-3.766.163-4.094.004-8.204.054-12.305l.002-15.65 4.5-.017v45.409c-1.711.069-3.62.219-5.123-.74-2.615-2.08-5.316-4.299-7.969-6.43-10.553-8.532-21.086-17.09-31.767-25.46-2.935-1.916-7.37.227-7.834 3.663-.1 3.696-.033 7.402-.051 11.103.004 5.922.025 11.845.037 17.768l-19.207-.012c-7.29-12.852-14.493-25.754-21.852-38.566-1.98-2.858-6.842-2.54-8.574.42-5.142 9.45-10.429 18.825-15.52 28.303-1.343 3.114 1.105 7.186 4.542 7.279 2.842.183 5.693.01 8.538.076h2.036l.021 2.402c-4.005-.028-8.013-.257-12.016.001-4.472.124-8.946.158-13.42.083l26.91-45.475 8.23.036c8.79 14.412 17.475 28.887 26.285 43.285 2.08 2.793 6.97 2.402 8.608-.658 1.2-2.231.56-4.826.708-7.233l-.117-35.428 4.033-.02zm95.796-2.338c3.869.04 7.842-.042 11.645.077 1.796.08 3.564.152 5.383.505 1.746.348 3.643 1.19 4.289 2.987.869 2.194.82 4.639.924 6.908h-6.088c.143-2.027-.027-4.34-1.634-5.797-1.54-1.525-3.833-1.948-5.92-1.703-9.517.01-19.038-.048-28.552.062-3.038.381-5.12 3.622-4.656 6.561.01 9.26-.057 18.525.072 27.781.414 3.052 3.703 5.076 6.643 4.596 9.742-.01 19.489.05 29.228-.064 3.052-.405 5.118-3.64 4.714-6.595l.04-1.816 6.176.13c.013 3.067.034 6.302-1.318 9.126-1.385 2.003-4.014 2.334-6.25 2.557-3.994.349-8.008.125-12.012.195-9.616-.037-19.266-.102-28.839-.63-1.847-.277-3.483-1.749-3.724-3.64-.606-2.802-.44-5.693-.638-8.538-.299-8.428-.25-16.86.285-25.244.075-2.275.49-4.895 2.482-6.312 1.556-.995 3.48-.85 5.207-.929 7.514-.136 15.028-.222 22.543-.217M584.98 72.01c-3.267-.124-5.97 3.233-5.47 6.396.005 9.473-.065 18.95.045 28.42.388 3.053 3.606 5.104 6.553 4.77 8.237.327 16.55.396 24.705-.958 5.014-.991 10.047-3.336 13.066-7.61 3.019-4.264 3.598-9.78 2.846-14.834-.61-4.836-2.99-9.614-7.104-12.383-4.274-3.047-9.68-3.96-14.832-3.793-6.603-.032-13.206-.015-19.809-.008m-458.406 1.203c-2.462.116-4.38 2.186-5.075 4.433-2.018 4.489-4.226 8.9-6.032 13.479-.828 3.212 2.157 6.676 5.455 6.352 3.25-.011 6.51.13 9.752-.102 2.564-.409 4.384-2.99 4.218-5.528-.101-1.595-.63-3.03-.847-4.594-.73-3.605-1.34-7.257-2.236-10.833-.85-2.025-3.047-3.364-5.235-3.207m209.422 22.11c-2.654.153-5.382-.04-7.96.69-2.355.93-3.441 3.508-3.798 5.85-.99 4.705-1.498 9.499-1.889 14.282.15 3.111 3.348 5.463 6.36 5.08 6.38.148 12.868.446 19.13-1.013 5.33-1.614 9.602-6.794 9.478-12.469.03-4.794-3.4-9.413-7.895-10.833-4.265-1.661-8.919-1.664-13.426-1.588" style="display:inline;fill:#fff;fill-opacity:1;stroke:none;stroke-opacity:1"/><path d="m103.521 154.102-1.285 1.058-5.734 4.715-2.389-2.145-18.896 14.34c-1.802-3.24-5.122-5.416-8.686-6.254-4.427-.99-8.87-1.912-13.304-2.878q-5.313-1.143-10.625-2.288c-1.05 5.261-1.982 10.547-3.13 15.788-1.855 8.012-5.431 15.661-10.708 21.996-3.321 4.072-7.438 7.375-11.239 10.974q-3.312 3.042-6.627 6.082 16.027 7.904 32.051 15.813c4.833-4.44 10.034-8.559 14.07-13.782a80 80 0 0 0 2.946-3.908h1.97c-4.242 7.181-10.706 12.704-17.41 17.512-5.2 3.692-10.379 7.416-15.57 11.125q17.215 8.724 34.428 17.453c6.134-4.755 12.43-9.375 17.789-15.027 8.478-8.733 15.17-19.341 18.666-31.043.656-.046 1.318-.006 1.976-.02v11.272h83.438c1.894 5.428 3.66 10.903 5.662 16.29 2.977 6.45 10.963 9.932 17.748 7.956 1.21-.294 2.333-.885 3.436-1.414l47.482-3.299c2.943 4.293 5.89 8.583 8.83 12.877l19.18-11.73 10.508 5.142c2.54-3.584 5.11-7.146 7.638-10.738v16.474h35.487v-21.64c3.417 4.636 6.294 9.634 9.425 14.46l1.168 1.848q15.265-9.333 30.528-18.67c-1.582-2.518-3.156-5.042-4.744-7.556h68.845q5.736 6.051 11.47 12.105c6.516-2.737 13.073-5.395 19.433-8.488v27.617h35.486v-50.79c3.955-3.313 7.743-6.834 11.277-10.59a12.6 12.6 0 0 0 3.16-1.55q.496 5.107.989 10.215l29.322-.968c-.039 3.339.167 6.699-.242 10.021-.524 3.543-2.42 6.818-5.168 9.104-4.406 3.83-9.929 5.941-15.072 8.554l-8.926 4.346 25.48 25.545c6.468-3.752 13.285-7.02 19.088-11.8 7.937-6.394 14.309-14.893 17.567-24.597 7.533-5.36 14.835-11.08 21.498-17.503a153 153 0 0 0 7.011-7.163c3.98-1.57 6.71-5.36 7.912-9.357.97-3.616-.149-7.622-2.66-10.363-1.911-2.165-3.937-4.225-5.877-6.366l-5.636-6.066c-3.168.793-6.318 1.676-9.5 2.393l-74.99 1.847c-6.148-4.573-12.231-9.23-18.358-13.83-4.035 5.24-7.817 10.68-12.094 15.729-5.608 6.505-12.325 12.163-19.406 16.87-4.824 3.224-10.071 6.132-15.375 8.665-.435.104-1.373.98-1.162.05v-5.55h-87.42c.054-.724-.107-1.548.076-2.211l11.365-9.408c-6.268-6.519-12.12-13.538-19.408-18.977-3.829-2.903-7.892-5.474-11.812-8.25l-8.297 6.295-2.881-1.98-6.813 6.109c-3.278-2.126-7.27-2.989-11.146-2.816h-19.6v18.033h-32.31v25.467c-4.53-5.116-9.568-9.737-14.424-14.534l-6.543 4.11a296 296 0 0 0 1.957-5.918c3.373-2.94 4.891-7.854 3.598-12.162-1.032-3.935-4.016-7.096-7.516-9.03-1.862-1.105-4.041-1.433-6.055-2.166l-19.048-5.945c-2.476 9.324-4.701 18.724-7.844 27.86a231 231 0 0 1-4.113 11.234 256 256 0 0 1-3.979 9.496c-.277.776-.439.849-.355-.115v-15.092h-85.985c-.245-.743.53-.936 1.002-1.293l11.098-7.3c-7.128-7.504-13.964-15.337-21.92-21.997-3.24-2.78-6.519-5.516-9.777-8.273m673.04.664-1.21.918c-2.018 1.522-4.032 3.081-6.054 4.578-1.054-.355-2.15.126-2.889.88l-25.03 17.64 5.165 4.052-4.828 3.3c-2.534-1.644-5.474-2.478-8.213-3.704l-18.22-7.493q-.368 1.47-.733 2.938c-4.012-4.808-8.187-9.547-13.18-13.37-3.65-2.785-7.618-5.12-11.494-7.564-1.133-.58-2.425.01-3.27.819-2.24 1.489-4.43 3.078-6.668 4.564-1.185.079-1.941 1.117-2.927 1.645-2.794 1.923-5.606 3.88-8.375 5.77-3.44-3.509-8.53-4.913-13.34-4.774-6.66-.043-13.32-.002-19.98-.018v89.242H670.8v-28.148c4.353 1.732 8.537 3.568 12.803 5.523.32.303 1.702.39 1.04.891l-1.384 1.498 31.763 18.58c5.74-6.746 11.774-13.296 16.6-20.754a117.7 117.7 0 0 0 12.697-25.299q.736-.683 1.366-1.466a79 79 0 0 1 3.464 4.453c6.838 9.485 11.597 20.284 15.371 31.303.965 2.765 1.946 5.523 2.92 8.285.967.42 2.061.665 3.063.2 5.96-1.81 11.942-3.573 17.91-5.366 1.517 3.74 4.539 6.858 8.315 8.336 4.557 1.928 10.098 1.76 14.279-1.014.467-.35.927-.682 1.543-.621 15.185-1.578 30.21-6.383 42.857-15.063 8.247 6.618 16.49 13.238 24.738 19.854 8.25-4.847 16.541-9.671 24.231-15.387a185 185 0 0 0 9.709-7.605 260 260 0 0 1 10.795 8.785c5.698 4.91 11.086 10.14 16.58 15.265l28.26-21.545c-8.07-7.409-16.036-14.952-24.643-21.744a324 324 0 0 0-7.58-5.884 206 206 0 0 0 4.986-7.088c4.643-2.584 7.627-8.095 6.801-13.41-.456-3.435-2.365-6.573-5.04-8.743-3.627-3.32-7.32-6.569-10.97-9.865-3.611.768-7.144 1.687-10.771 2.34l-54.69 2.117 2.02 14.483-14.492-9.286c-2.787 5.634-5.364 11.374-8.29 16.938-3.446 6.257-8.293 11.83-14.402 15.603-3.242 2.054-6.763 3.652-10.42 4.813l22.366-20.063c-9.404-7.76-18.435-16.085-28.86-22.494-4.242-2.536-8.616-4.843-12.923-7.265l-5.667 6.275c-4.911-4.63-10.056-9.02-15.511-13q-2.538-1.927-5.074-3.855m-421.668 15.193q6.103 4.186 11.847 10.305l-4.666 3.863q-6.462-6.44-11.847-10.627zm-251.493.965a141 141 0 0 1 11.848 11.271l-5.385 3.543q-5.743-6.763-10.77-11.271zm673.16 0q4.667 3.542 11.489 9.984l-4.668 3.863q-6.463-6.44-11.488-10.304zm-87.421.644q6.103 3.865 11.847 10.627l-4.666 3.221q-4.667-5.475-11.847-10.627zm-369.787 2.577h7.539q3.948.644.716 2.576v15.457h33.03v7.086h-33.03v44.761h-8.255v-44.761h-32.313v-7.086h32.313zm-226.002.322q5.744 5.153 11.488 11.594l-4.668 3.54q-6.463-6.76-11.488-11.591zm251.132.322q6.105 4.186 11.848 9.66l-4.309 4.188q-6.462-6.12-11.847-9.985zm168.02.645 6.822 5.152q2.872 1.932-2.513 2.898-6.822 8.05-17.592 16.422v43.797h-8.258v-37.678q-12.564 8.695-29.438 15.78l-6.103-6.44q37.695-14.17 57.082-39.931m-459.004.322 8.975 1.932q2.872.644-.717 2.576a98.6 98.6 0 0 1-5.385 13.847h53.133v7.084H88.682q-3.231 25.12-26.926 43.475l-8.258-4.188q24.773-17.71 26.209-39.287H52.422a57.2 57.2 0 0 1-11.848 14.813l-7.181-3.541q15.796-14.492 20.105-36.711m181.664 0 8.256 2.576q3.232 1.93-.717 2.897-6.821 22.863-18.31 45.083l37.338-1.609q-7.54-9.017-11.848-13.203l7.18-4.508q12.206 11.916 23.335 28.016l-7.898 4.83-5.744-8.371-60.315 4.185q-2.154 3.22-3.23 0l-2.871-8.373 15.078-.322q12.925-25.118 19.746-51.201m532.781 0q5.385 4.507 11.489 10.947l-5.385 3.543q-5.385-6.441-11.129-10.95zm-119.013 1.61h7.18q4.308.322 1.077 2.575v20.288q17.591 4.508 35.542 12.238l-4.307 7.406q-19.028-8.695-31.235-11.594v33.492h-8.257zm31.234 0q6.103 4.185 12.207 10.948l-4.668 3.221q-6.104-6.762-12.207-10.95zm-72.342 3.542 5.385 5.795q1.077 1.289-1.795.967-10.77 12.559-25.85 23.508l-6.103-5.153q.718 24.476-23.336 38l-6.103-6.119q21.181-10.304 21.183-28.982v-13.848h7.54q3.229.322.716 2.254v8.373q12.925-8.693 19.746-17.066l-58.52 1.931-.716-7.406 65.34-1.611zm197.998.643q7.54 4.186 19.028 13.847l-6.82 6.12q-9.695-8.052-18.311-13.204zm123.323.322 5.744 5.152q2.513 2.255-1.436 2.899-6.821 10.627-14.361 19.644 15.438 10.627 30.517 24.475l-7.181 5.473q-15.08-14.17-29.08-23.83-14.002 13.524-31.951 24.152l-6.823-5.475q38.056-22.22 48.826-44.44l-39.132 2.255-1.077-7.729 41.645-1.61zm-168.38 6.764q17.952 20.288 25.49 42.83l-9.692 2.896q-8.976-25.44-23.336-40.574zm-35.902 3.863 8.618 3.543q2.871 1.61-.72 2.898-6.46 20.289-20.822 37.034l-8.257-4.83q15.796-17.069 21.181-38.645m136.248 4.188 7.54 4.83q-19.029 35.423-63.905 37.355-1.795 4.185-3.59.643l-2.873-8.371q46.673-.967 62.828-34.457m-72.005.12.57.338a169 169 0 0 1 6.17 3.83c7.221 4.679 13.726 10.335 20.34 15.811-3.35.73-6.754 1.2-10.168 1.508-1.333.113-2.898.23-4.325.295-2.03.106-3.991.149-6.054.185-2.822-6.61-6.216-12.97-10.084-19.027zm106.234 7.176-.906.805c-6.048 5.31-12.744 10.115-19.588 14.463a221 221 0 0 1-4.13 2.57c4.445-5.116 8.137-10.845 11.245-16.857.329-.482 1.174-.158 1.715-.309zm-779.908 1.397h80.058v7.086H115.43zm252.568 0h80.06v7.086h-80.06zm-67.316.644 7.898 3.866q2.154 1.61-1.435 2.254-5.385 10.626-13.643 22.218l-7.898-3.863q8.975-11.593 15.078-24.475m44.16 0q12.924 12.238 19.387 22.543l-7.899 4.83q-7.54-11.915-18.31-22.22z" style="-inkscape-font-specification:GAMECUBEN;display:inline;fill:#1f00cc;stroke:none;stroke-linecap:square;stroke-miterlimit:3.2;paint-order:stroke markers fill"/><path d="M103.71 204.955v7.48H83.99q-3.06 26.521-25.502 45.902l-7.82-4.42q23.46-18.7 24.821-41.482H49.648q-4.42 8.84-11.221 15.64l-6.8-3.74q14.96-15.3 19.04-38.762l8.501 2.04q2.72.68-.68 2.72-2.04 7.481-5.1 14.622zm-15.3-20.742q5.44 5.44 10.88 12.241l-4.42 3.74q-6.12-7.14-10.88-12.24zm9.52-3.74q5.78 5.44 11.22 11.9l-5.1 3.741q-5.44-7.14-10.2-11.9zm11.392 43.863v-7.48h75.824v7.48zm80.415 15.64 14.281-.34q12.24-26.521 18.701-54.063l7.82 2.72q3.06 2.04-.68 3.06-6.46 24.142-17.34 47.603l35.361-1.7q-7.14-9.52-11.22-13.94l6.8-4.76q11.56 12.58 22.101 29.58l-7.48 5.101-5.44-8.84-57.123 4.42q-2.04 3.4-3.06 0zm136.859-22.44q12.24 12.92 18.36 23.8l-7.48 5.1q-7.14-12.58-17.34-23.46zm-16.321-14.622h31.282v7.48h-31.282v47.263h-7.82v-47.262h-30.602v-7.48h30.601v-19.042h7.14q3.741.68.68 2.72zm-18.021 18.701q2.04 1.7-1.36 2.38-5.1 11.221-12.92 23.462l-7.481-4.08q8.5-12.241 14.28-25.842zm41.142-22.44q-6.12-6.461-11.22-10.541l4.08-4.08q5.78 4.42 11.22 10.2zm9.52-4.761q-6.12-6.8-11.22-11.22l4.42-3.74q5.78 4.42 11.22 10.88zm5.612 29.922v-7.48h75.824v7.48zm82.796 3.06q35.701-14.961 54.062-42.163l6.46 5.44q2.721 2.04-2.38 3.06-6.46 8.501-16.66 17.342v46.242h-7.82v-39.782q-11.901 9.18-27.882 16.661zm117.477-9.86q.68 25.84-22.101 40.121l-5.78-6.46q20.06-10.88 20.06-30.602v-14.62h7.14q3.061.34.681 2.38v8.84q12.24-9.18 18.701-18.02l-55.423 2.04-.68-7.821 61.883-1.7 2.38-.68 5.1 6.12q1.02 1.36-1.7 1.02-10.2 13.26-24.48 24.821zm103.197 14.62q-18.021-9.18-29.582-12.24v35.361h-7.82v-68.003h6.8q4.08.34 1.02 2.72v21.42q16.66 4.761 33.662 12.922zm-.68-29.922q-5.78-7.14-11.561-11.56l4.42-3.4q5.78 4.42 11.56 11.56zm8.16-6.46q-4.42-5.78-11.22-11.22l4.42-3.4q5.78 4.08 11.22 11.22zm61.034 3.4q17.001 21.421 24.142 45.223l-9.18 3.06q-8.501-26.862-22.102-42.843zm-25.841 7.82q2.72 1.7-.68 3.06-6.12 21.422-19.721 39.103l-7.82-5.1q14.96-18.021 20.06-40.803zm40.802-26.52q4.42 3.74 10.88 10.54l-4.42 4.08q-6.12-6.8-10.88-10.88zm-8.16 5.1q5.1 4.76 10.88 11.56l-5.1 3.74q-5.1-6.8-10.54-11.56zm95.376 27.2q-18.021 37.403-60.523 39.443-1.7 4.42-3.4.68l-2.72-8.84q44.202-1.02 59.503-36.382zm-47.943 0q-9.18-8.5-17.34-13.94l5.78-7.14q7.14 4.42 18.02 14.62zm95.717 8.501q14.62 11.221 28.901 25.842l-6.8 5.78q-14.281-14.96-27.542-25.161-13.26 14.28-30.261 25.501l-6.46-5.78q36.041-23.461 46.242-46.923l-37.062 2.38-1.02-8.16 39.442-1.7 4.08-1.02 5.44 5.44q2.38 2.38-1.36 3.06-6.46 11.22-13.6 20.741" style="-inkscape-font-specification:GAMECUBEN;display:inline;fill:#fff;stroke-linecap:square;stroke-miterlimit:3.2;paint-order:stroke markers fill" transform="scale(1.05586 .9471)"/><path d="M471.945 130.528c3.49 0 6.237-2.73 6.237-6.44 0-3.651-2.748-6.394-6.237-6.394-3.519 0-6.274 2.743-6.274 6.393 0 3.711 2.755 6.441 6.274 6.441m-7.815-6.44c0-4.422 3.579-7.678 7.815-7.678 4.2 0 7.785 3.256 7.785 7.677 0 4.457-3.585 7.726-7.785 7.726-4.236 0-7.815-3.269-7.815-7.726m7.797-.537c1.141 0 2.163-.072 2.163-1.446 0-1.1-.998-1.297-1.936-1.297h-1.828v2.743zm-1.601 4.994h-1.344v-8.878h3.37c2.102 0 3.142.77 3.142 2.527 0 1.59-.998 2.277-2.3 2.444l2.521 3.907h-1.506l-2.348-3.853h-1.535z" style="display:inline;fill:#fff;fill-opacity:1;fill-rule:nonzero;stroke:none;stroke-width:.336424"/><path d="M83.664 36.756Q62.345 36.255 43.42 48.73c-19.01 12.54-28.47 31.87-26.53 55.1 1.77 21.37 18.28 37.45 38.61 41.69q5.159 1.08 14.62.83a1076 1076 0 0 1 41.76-.31.76.75 12 0 0 .69-.44l8.54-18.97a.34.34 0 0 1 .64.09l3.01 18.84a.6.61 85.1 0 0 .61.51q105.9-.34 211.81-.34c14.74 0 24.23-1.89 34.26-11.79a.5.5 0 0 1 .7.01c13.85 13.94 35.06 17.72 52.34 7.77a44 44 0 0 1 3.32-1.73q.55-.26.45.34l-.81 5.09a.5.5 0 0 0 .49.58h43.5a.8.81 4.7 0 0 .79-.68l1-6.58a.81.81 0 0 1 .61-.67q3.41-.86 5.73-3.47a1.05 1.03 20.1 0 1 .79-.36q58.45.04 116.9-.02c16.59-.01 32.53-1.51 44.97-13.95a.46.45 51.1 0 1 .71.08l8.42 13.44a.99.98 73.8 0 0 .83.46h129.05a.48.48 0 0 0 .48-.48l.12-15.98q.01-1.991 1.58-.76L805.05 134a1.24 1.22 63.2 0 0 .74.25h159.96a.5.5 0 0 0 .5-.5V51.04a.51.51 0 0 0-.51-.51q-76.24-.07-152.48-.01c-4.92.01-13.91.47-20.96.05a.52.52 0 0 0-.55.52l.04 16.63a.42.42 0 0 1-.68.34l-21.52-16.97a2.69 2.76 64.8 0 0-1.7-.59h-91.23a1.08 1.1 14.2 0 0-.96.58l-10.75 20.44a.46.46 0 0 1-.8.01l-11.66-20.2a1.66 1.68 75.2 0 0-1.45-.83H513.06a.27.28 16 0 1-.23-.42l6.77-10.77a.36.36 0 0 0-.3-.55q-53.019-.03-105.75.01c-16.42.01-23.77 3.69-36.39 13.03a.55.56 49.9 0 1-.74-.06c-7.67-8.04-14.19-13.02-25.93-13.02q-93.81.03-187.69.03a.73.72 8.8 0 0-.69.5l-5.34 16.6a.43.42 49.6 0 1-.82-.07l-2.68-16.56a.55.56 85.8 0 0-.55-.47h-40.24a.73.73 0 0 0-.68.47l-.95 2.47a.58.58 0 0 1-.74.34q-13.654-4.974-26.446-5.274m-1.768 13.773c6.517-.035 13.115 1.055 19.434 3.4a.6.6 0 0 1 .38.651l-2.27 14.6a.47.46 13.2 0 1-.61.37C82.9 64.29 62.48 67.6 52.06 81.77c-7.33 9.96-7.81 27.25 5.36 33 4.59 2 11.14.86 16.26.41a.61.6 1.2 0 0 .54-.51l.98-6.36a.87.88 3.6 0 0-.88-1.01l-10.76.13a.6.6 0 0 1-.6-.69l2.01-13.65a.7.69 4.3 0 1 .69-.59H94.5a.57.57 0 0 1 .56.66l-4.03 25.95a.271.271 0 0 0 .52.15l29.18-66.05a.93.92 11.6 0 1 .85-.55l18.73.07a.69.69 0 0 1 .68.58l10.25 61.45a.34.34 0 0 0 .66.05l20.19-61.76a.68.67 8.9 0 1 .64-.46l14.89.1a.84.83 85.4 0 1 .81.69l7.47 40.86a.4.39 51.7 0 0 .75.09l17.61-41.25a.72.72 0 0 1 .68-.44l18.6.12a.56.57 89.5 0 1 .56.54l3.21 77.28a.64.64 0 0 1-.64.67h-14.81a.66.66 0 0 1-.66-.64l-2.04-46.58q-.02-.52-.33-.09-.61.85-1.42 2.73a26101 26101 0 0 1-19.14 44.32.62.61 11.8 0 1-.56.36l-10.16-.139a.53.54 84.5 0 1-.51-.422l-8.57-41.719q-.34-1.64-.85-.05l-13.33 41.79a.68.67 8.9 0 1-.64.46l-26.52-.01a.7.7 0 0 1-.69-.58l-3.93-22.21a.56.55 85 0 0-.54-.46l-17.49-.02a.92.9 12 0 0-.83.53l-10.22 22.2a.97.99 13.1 0 1-.9.569l-15.64-.059a.42.42 0 0 1-.38-.6l1.69-3.58q.35-.73-.39-.4a184 184 0 0 1-5.49 2.37c-20.39 8.39-48.43-1.191-51.43-25.231-3.964-31.818 22.767-53.106 51.006-53.26M493.45 52.49a.37.37 0 0 1 .31.57 5658 5658 0 0 0-27.689 43.91 11.1 11.1 0 0 0-1.61 4.46q-1.969 14.69-4.31 29.27a.63.62 4.3 0 1-.62.53l-15.28.08a.48.48 0 0 1-.48-.56l5.87-36.12a1.76 1.77 36.6 0 0-.15-1.05l-18.76-40.6a.34.33 77.5 0 1 .3-.48h17.64a.64.63 79.1 0 1 .59.41l9.61 24.64q.28.72.69.06l15.34-24.62a1 1.02 16.5 0 1 .85-.47Zm-241.959.01h44.18a.31.31 0 0 1 .3.36l-2.54 16.38a.31.31 0 0 1-.31.26h-27.88a.31.31 0 0 0-.31.27l-1.92 13.44a.31.31 0 0 0 .31.35h24.1a.31.31 0 0 1 .31.36l-2.48 16.32a.31.31 0 0 1-.31.26h-24.09a.31.31 0 0 0-.3.26l-2.29 13.38a.31.31 0 0 0 .31.36h27.7a.31.31 0 0 1 .31.36l-2.72 16.13a.31.31 0 0 1-.3.26h-44.5a.31.31 0 0 1-.3-.36l12.43-78.13a.31.31 0 0 1 .3-.26m69.52.72q14.09.05 27.05.02c7.67-.02 12.36 1.97 17.37 7.34 8.95 9.6 5.29 21.62-3.2 29.79a.87.86 45.2 0 0 0 1.25c14.51 14.03 5.35 32.97-11.31 38.46q-3.63 1.19-9.93 1.19-16.11-.01-32.17-.06a.43.43 0 0 1-.43-.5q6-38.04 12.09-76.02.07-.46.02-.88a.52.52 0 0 1 .51-.59m94.142.15a33.4 40.43 13.2 0 1 23.285 46.987 33.4 40.43 13.2 0 1-41.75 31.735 33.4 40.43 13.2 0 1-23.285-46.988 33.4 40.43 13.2 0 1 41.75-31.735m118.293 10.845q3.09-.04 6.366.185c1.64.11 1.69.75 2.4 1.91q13.05 21.47 26.01 43.07a.29.28 29.9 0 0 .529-.14V65.03a.49.49 0 0 1 .49-.49q19.161-.111 38.25-.03 12.35.05 22.13 7.06a.2.2 0 0 0 .29-.27l-3.81-6.14q-.41-.66.37-.66h17.02a.9.9 0 0 1 .78.45l20.32 35.02a.4.4 0 0 0 .7-.01q9.3-16.9 18.72-33.96c1.12-2.02 1.79-1.51 3.76-1.49q6.83.07 13.16-.13.96-.03.48.81l-31.28 54.05a.95.95 0 0 1-.8.47l-9.5.06a1.08 1.09 74.3 0 1-.95-.53l-20.41-33.76q-.96-1.58-.82.26.1 1.32.3 3.7c2.08 23.72-16.72 30.34-36.2 30.36q-22.43.02-44.87-.1a.91.89 75 0 1-.78-.46l-22.44-39.68a.37.37 0 0 0-.65 0l-15.17 27.26a.46.46 0 0 0 .4.68H533a.5.5 0 0 1 .5.5v11.12a.63.63 0 0 1-.63.63h-38.09a.33.33 0 0 1-.29-.5l32.19-54.19a1.04 1.03 11.8 0 1 .77-.5 66 66 0 0 1 5.995-.345m229.735.015a1.69 1.72 64.4 0 1 1.05.36l41.06 32.19a.44.44 0 0 0 .71-.35V65.08a.61.61 0 0 1 .6-.61l13.36-.05a.54.53 89.5 0 1 .54.54v54.01a.54.55 87.1 0 1-.49.54c-2.93.31-9.63 1.08-12.35-1.14a4711 4711 0 0 0-39.29-31.66q-.641-.52-.64.31l.07 31.96a.77.77 0 0 1-.77.77h-25.87a.87.86 75 0 1-.75-.44l-22.54-39.94q-.261-.45-.51 0l-15.02 27.23a.44.44 0 0 0 .38.65h14.51a.49.49 0 0 1 .49.49l.09 11.07a.61.6 85.6 0 1-.51.6c-4.11.61-8.66-.01-12.08.12q-13.02.5-26.04.02a.29.29 0 0 1-.24-.44l32.1-54.25a1.21 1.2 15.2 0 1 1.04-.59l12.57.02a1.2 1.19 74.3 0 1 1.02.58l26.95 44.5a.26.26 0 0 0 .48-.14l-.15-44.22a.72.72 0 0 1 .72-.72zm130.64.01 57.86.03a.57.57 0 0 1 .57.57v11.6a.57.57 0 0 1-.57.57l-41.81-.02a.57.57 0 0 0-.57.56l-.07 6.62a.57.57 0 0 0 .57.58h24.13a.57.57 0 0 1 .57.57v11.11a.57.57 0 0 1-.57.57h-24.06a.57.57 0 0 0-.57.57l-.07 8.61a.57.57 0 0 0 .57.57h42.62a.57.57 0 0 1 .57.56l.12 11.61a.57.57 0 0 1-.57.58h-58.72a.57.57 0 0 1-.57-.57V64.81a.57.57 0 0 1 .57-.57m-22.07.07c15.32.1 16.72 5.87 16.31 19.86a.6.6 0 0 1-.6.58h-15.04a.56.56 0 0 1-.56-.57l.2-6.14a.77.77 0 0 0-.77-.79h-29.54a.5.5 0 0 0-.5.5v28a.5.5 0 0 0 .5.5h29.56a.57.57 0 0 0 .57-.56l.17-7.51a.51.51 0 0 1 .52-.5l14.8.31a.65.65 0 0 1 .63.61q.51 8.6-.7 13.14c-2.17 8.12-10.56 8.01-17.55 8.05a853 853 0 0 1-33.56-.48c-6.75-.23-10.14-4.07-10.54-10.65a269 269 0 0 1 0-32.94c.39-6.36 3.82-10.95 10.41-11.16q12.62-.39 35.69-.25m-459.842 4.112a16.74 24.96 14 0 0-22.281 20.168 16.74 24.96 14 0 0 10.205 28.27 16.74 24.96 14 0 0 22.281-20.17 16.74 24.96 14 0 0-10.205-28.268m-69.586 1.164c-2.642-.029-5.367.158-7.392.193a.23.25 6.1 0 0-.23.201l-2.4 13.71a.43.43 0 0 0 .4.5c6.76.39 14.71.9 18.01-3.33 2.57-3.3 2.62-8.14-1.49-10.17-1.694-.83-4.255-1.075-6.898-1.104M584.98 77.01a.47.47 0 0 0-.47.47l-.02 28.48a.58.58 0 0 0 .54.58q9.95.61 19.95-.15c11.51-.87 18.92-5.47 16.62-18.52-1.38-7.87-7.98-10.85-15.35-10.86q-10.74-.03-21.27 0m-458.015 1.21a.31.31 0 0 0-.315.17l-6.27 13.67a.31.31 0 0 0 .28.44h8.93a.31.31 0 0 0 .31-.37l-2.67-13.67a.31.31 0 0 0-.265-.24m209.107 22.089c-2.107.058-4.12.182-5.812.242a.72.72 0 0 0-.66.51c-1.26 4.12-1.72 10.239-2.26 14.609a.46.47 4.6 0 0 .44.52q11.19.5 17.21-.43c5-.78 8.97-5.82 6.65-10.81-2.054-4.418-9.245-4.818-15.568-4.641m135.873 16.101c4.2 0 7.785 3.257 7.785 7.678 0 4.457-3.585 7.724-7.785 7.724-4.236 0-7.814-3.267-7.814-7.724 0-4.421 3.578-7.678 7.814-7.678m0 1.285c-3.519 0-6.273 2.742-6.273 6.393 0 3.71 2.754 6.44 6.273 6.44 3.49 0 6.237-2.73 6.237-6.44 0-3.65-2.748-6.393-6.237-6.393m-2.963 1.971h3.37c2.103 0 3.142.77 3.142 2.527 0 1.59-.998 2.277-2.3 2.444l2.52 3.908h-1.505l-2.348-3.854h-1.535v3.854h-1.344zm1.344 1.14v2.743h1.602c1.14 0 2.162-.071 2.162-1.445 0-1.1-.998-1.297-1.936-1.297z" style="display:inline;fill:#1f00cc;fill-opacity:1;stroke:none;stroke-opacity:1"/><path d="M909.8 106.75h42.62a.57.57 0 0 1 .57.56l.12 11.61a.57.57 0 0 1-.57.58h-58.72a.57.57 0 0 1-.57-.57V64.81a.57.57 0 0 1 .57-.57l57.86.03a.57.57 0 0 1 .57.57v11.6a.57.57 0 0 1-.57.57l-41.81-.02a.57.57 0 0 0-.57.56l-.07 6.62a.57.57 0 0 0 .57.58h24.13a.57.57 0 0 1 .57.57v11.11a.57.57 0 0 1-.57.57h-24.06a.57.57 0 0 0-.57.57l-.07 8.61a.57.57 0 0 0 .57.57m-68.05-.5h29.56a.57.57 0 0 0 .57-.56l.17-7.51a.51.51 0 0 1 .52-.5l14.8.31a.65.65 0 0 1 .63.61q.51 8.6-.7 13.14c-2.17 8.12-10.56 8.01-17.55 8.05q-16.79.09-33.56-.48c-6.75-.23-10.14-4.07-10.54-10.65q-1.01-16.49 0-32.94c.39-6.36 3.82-10.95 10.41-11.16q12.62-.39 35.69-.25c15.32.1 16.72 5.87 16.31 19.86a.6.6 0 0 1-.6.58h-15.04a.56.56 0 0 1-.56-.57l.2-6.14a.77.77 0 0 0-.77-.79h-29.54a.5.5 0 0 0-.5.5v28a.5.5 0 0 0 .5.5m-139.03 1h14.51a.49.49 0 0 1 .49.49l.09 11.07a.61.6 85.6 0 1-.51.6c-4.11.61-8.66-.01-12.08.12q-13.02.5-26.04.02a.29.29 0 0 1-.24-.44l32.1-54.25a1.21 1.2 15.2 0 1 1.04-.59l12.57.02a1.2 1.19 74.3 0 1 1.02.58l26.95 44.5a.26.26 0 0 0 .48-.14l-.15-44.22a.72.72 0 0 1 .72-.72l9.51-.06a1.69 1.72 64.4 0 1 1.05.36l41.06 32.19a.44.44 0 0 0 .71-.35V65.08a.61.61 0 0 1 .6-.61l13.36-.05a.54.53 89.5 0 1 .54.54v54.01a.54.55 87.1 0 1-.49.54c-2.93.31-9.63 1.08-12.35-1.14q-19.38-15.79-39.29-31.66-.64-.52-.64.31l.07 31.96a.77.77 0 0 1-.77.77h-25.87a.87.86 75 0 1-.75-.44l-22.54-39.94q-.26-.45-.51 0l-15.02 27.23a.44.44 0 0 0 .38.65m-65.07-21.51q.1 1.32.3 3.7c2.08 23.72-16.72 30.34-36.2 30.36q-22.43.02-44.87-.1a.91.89 75 0 1-.78-.46l-22.44-39.68a.37.37 0 0 0-.65 0l-15.17 27.26a.46.46 0 0 0 .4.68H533a.5.5 0 0 1 .5.5v11.12a.63.63 0 0 1-.63.63h-38.09a.33.33 0 0 1-.29-.5l32.19-54.19a1.04 1.03 11.8 0 1 .77-.5q5.81-.61 12.36-.16c1.64.11 1.69.75 2.4 1.91q13.05 21.47 26.01 43.07a.29.28 29.9 0 0 .53-.14V65.03a.49.49 0 0 1 .49-.49q19.16-.11 38.25-.03 12.35.05 22.13 7.06a.2.2 0 0 0 .29-.27l-3.81-6.14q-.41-.66.37-.66h17.02a.9.9 0 0 1 .78.45l20.32 35.02a.4.4 0 0 0 .7-.01q9.3-16.9 18.72-33.96c1.12-2.02 1.79-1.51 3.76-1.49q6.83.07 13.16-.13.96-.03.48.81l-31.28 54.05a.95.95 0 0 1-.8.47l-9.5.06a1.08 1.09 74.3 0 1-.95-.53l-20.41-33.76q-.96-1.58-.82.26m-53.14-8.26-.02 28.48a.58.58 0 0 0 .54.58q9.95.61 19.95-.15c11.51-.87 18.92-5.47 16.62-18.52-1.38-7.87-7.98-10.85-15.35-10.86q-10.74-.03-21.27 0a.47.47 0 0 0-.47.47M320.48 54.69q.07-.46.02-.88a.52.52 0 0 1 .51-.59q14.09.05 27.05.02c7.67-.02 12.36 1.97 17.37 7.34 8.95 9.6 5.29 21.62-3.2 29.79a.87.86 45.2 0 0 0 1.25c14.51 14.03 5.35 32.97-11.31 38.46q-3.63 1.19-9.93 1.19-16.11-.01-32.17-.06a.43.43 0 0 1-.43-.5q6-38.04 12.09-76.02m14.22 15.29-2.4 13.71a.43.43 0 0 0 .4.5c6.76.39 14.71.9 18.01-3.33 2.57-3.3 2.62-8.14-1.49-10.17-3.39-1.66-10.24-.98-14.29-.91a.23.25 6.1 0 0-.23.2m-5.1 31.08c-1.26 4.12-1.72 10.24-2.26 14.61a.46.47 4.6 0 0 .44.52q11.19.5 17.21-.43c5-.78 8.97-5.82 6.65-10.81-2.74-5.89-14.61-4.64-21.38-4.4a.72.72 0 0 0-.66.51m119.89-7.48-18.76-40.6a.34.33 77.5 0 1 .3-.48h17.64a.64.63 79.1 0 1 .59.41l9.61 24.64q.28.72.69.06l15.34-24.62a1 1.02 16.5 0 1 .85-.47l17.7-.03a.37.37 0 0 1 .31.57q-13.97 21.93-27.69 43.91-1.29 2.06-1.61 4.46-1.97 14.69-4.31 29.27a.63.62 4.3 0 1-.62.53l-15.28.08a.48.48 0 0 1-.48-.56l5.87-36.12a1.76 1.77 36.6 0 0-.15-1.05m-52.802 38.512a33.4 40.43 13.2 0 1-23.285-46.989 33.4 40.43 13.2 0 1 41.75-31.735 33.4 40.43 13.2 0 1 23.285 46.989 33.4 40.43 13.2 0 1-41.75 31.735m3.144-15.233a16.74 24.96 14 0 0 22.28-20.17 16.74 24.96 14 0 0-10.204-28.268 16.74 24.96 14 0 0-22.28 20.17 16.74 24.96 14 0 0 10.204 28.268M258.57 114.5h27.7a.31.31 0 0 1 .31.36l-2.72 16.13a.31.31 0 0 1-.3.26h-44.5a.31.31 0 0 1-.3-.36l12.43-78.13a.31.31 0 0 1 .3-.26h44.18a.31.31 0 0 1 .3.36l-2.54 16.38a.31.31 0 0 1-.31.26h-27.88a.31.31 0 0 0-.31.27l-1.92 13.44a.31.31 0 0 0 .31.35h24.1a.31.31 0 0 1 .31.36l-2.48 16.32a.31.31 0 0 1-.31.26h-24.09a.31.31 0 0 0-.3.26l-2.29 13.38a.31.31 0 0 0 .31.36m-80.1-25.43q-.34-1.64-.85-.05l-13.33 41.79a.68.67 8.9 0 1-.64.46l-26.52-.01a.7.7 0 0 1-.69-.58l-3.93-22.21a.56.55 85 0 0-.54-.46l-17.49-.02a.92.9 12 0 0-.83.53l-10.22 22.2a.97.99 13.1 0 1-.9.57l-15.64-.06a.42.42 0 0 1-.38-.6l1.69-3.58q.35-.73-.39-.4-2.75 1.24-5.49 2.37c-20.39 8.39-48.43-1.19-51.43-25.23-4.88-39.16 36.74-62.37 70.44-49.86a.6.6 0 0 1 .38.65l-2.27 14.6a.47.46 13.2 0 1-.61.37C82.9 64.29 62.48 67.6 52.06 81.77c-7.33 9.96-7.81 27.25 5.36 33 4.59 2 11.14.86 16.26.41a.61.6 1.2 0 0 .54-.51l.98-6.36a.87.88 3.6 0 0-.88-1.01l-10.76.13a.6.6 0 0 1-.6-.69l2.01-13.65a.7.69 4.3 0 1 .69-.59H94.5a.57.57 0 0 1 .56.66l-4.03 25.95a.27.27 0 0 0 .52.15l29.18-66.05a.93.92 11.6 0 1 .85-.55l18.73.07a.69.69 0 0 1 .68.58l10.25 61.45a.34.34 0 0 0 .66.05l20.19-61.76a.68.67 8.9 0 1 .64-.46l14.89.1a.84.83 85.4 0 1 .81.69l7.47 40.86a.4.39 51.7 0 0 .75.09l17.61-41.25a.72.72 0 0 1 .68-.44l18.6.12a.56.57 89.5 0 1 .56.54l3.21 77.28a.64.64 0 0 1-.64.67h-14.81a.66.66 0 0 1-.66-.64l-2.04-46.58q-.02-.52-.33-.09-.61.85-1.42 2.73-9.55 22.17-19.14 44.32a.62.61 11.8 0 1-.56.36l-10.16-.14a.53.54 84.5 0 1-.51-.42zm-51.24-10.61a.31.31 0 0 0-.58-.07l-6.27 13.67a.31.31 0 0 0 .28.44h8.93a.31.31 0 0 0 .31-.37z" style="display:inline;fill:#fff"/></svg>