<svg xmlns="http://www.w3.org/2000/svg" width="3839" height="358" viewBox="0 0 1015.735 94.721"><g style="display:inline"><path d="m1866.3 123.1 27-11c-4.3-22.4-12-43.7-22.9-63.6l-26.6 10.9c5.6 10 10.3 20.3 14.1 31.1h-66c23.2-22.7 44-50.2 60.7-82.5h-22.9c-18.1 33.1-41 60.8-66.2 82.5h-9.5l-5 18.3h114.3c1.2 4.8 2.2 9.5 3 14.3m-119.5-53.4 4.9-18.4h-140.9l-5 18.4zm-143.7-44.3 4.7-17.4H1590l-4.6 17.4zm-42.2 0h17.6l4.7-17.4h-17.6z" class="st0" style="fill:#0898ff" transform="scale(.26458)"/><path d="M1542.2 31.7h-29.8c6.7-7.7 13.1-15.6 18.9-23.9h-23.1c-16.4 20.9-36.8 39.8-58.9 54.9l10.8 14.9c12.1-8.3 23.6-17.5 34.2-27.7h42.3c-13.5 32.7-46.2 54-76.5 49.4l13.9 19.2c36.3-2.9 70.1-30.4 82.8-68.7h34.5l4.9-18.2v-.1H1561Z" class="st0" style="fill:#0898ff" transform="scale(.26458)"/><path d="M1382.737 377.626h18.5v17.4h-18.5z" class="st0" style="fill:#0898ff;stroke-width:.999983" transform="rotate(-14.869)scale(.26458)"/><path d="m1428.9 11.5-17.9 4.7 3.1 11.7c-21.9 7.7-51.4 14.3-76.3 14.4L1347 8h-19.3l-22.4 83.3c-2.4 8.9 4.3 17.5 13.5 17.5h93.2l5.5-18.3h-92.8l8-29.7c32 .9 72.2-9 98.2-19.6l-4.5-11 6.9-1.8zm-257.1 80.6 23.8-88.3h-19.2L1145.7 118c58.5-3.9 107.3-30.1 137.9-64.4l-15.1-13.8c-22.6 24.4-56.3 44.2-96.7 52.3M987.6 59.3h65.6c-13.9 24.5-38.8 40.6-63.4 40.8l12.8 17.6c30.4-5.2 58.2-27.6 71.8-58.5h49.9l4.9-18.2H992.5Zm28.4-33h101.2l4.9-18.3h-101.3zm-50-12.7h-58.8c3.4-4.4 6.5-9 9.5-13.6h-25.3c-16.5 21.2-39.9 40.2-68.5 53.2l16 16.6c20.1-10.3 37.7-23.3 52.2-37.9h57.6c-9.5 13.1-21.5 25.3-35.9 35.8l-28.1-22.3-11.4 14.4 23.4 18.5c-20.3 11.8-44 20.5-70.4 24.5l14.5 20.1C911 108.3 962.4 62.4 981.9 13.6h-15.8zM816.1 46.2H674.8l-5 18.3h141.3zM524.4 96.6h115.7l5-18.5h-22.7l14.9-55.4h-76L556.4 41h56.8l-9.9 37.1h-73.9zm4.5-86.6c-2.6-6.5-12.4-8.8-21.9-5-9.4 3.8-14.8 12.2-12.2 18.8 2.6 6.5 12.4 8.8 21.9 5 9.3-3.9 14.9-12.3 12.2-18.8m-14.7 12.9c-2.2.9-4.6 1.4-6.7 1.4-3.3 0-6-1.2-6.7-2.9s.5-3.7 1-4.5c1.6-2.4 4.4-4.6 7.7-5.9 2.2-.9 4.6-1.4 6.7-1.4 3.3 0 6 1.1 6.7 2.9 1.2 2.6-2.3 7.7-8.7 10.4m-18.6 18.2-6.9-16.9c-23.6 9.7-50.1 14.3-77.6 12.4L420.8 0h-19.2l-24.5 91.3c-2.4 8.9 4.3 17.5 13.5 17.5h94l4.9-18.3h-93.1l9.6-35.8c31.8 2.7 62.4-2.3 89.6-13.6M235 23.7 267.8 47l23.1-20.5L258 3.2zm-23.8 66.8v18.3c68.2-2.4 123.1-35.3 151.2-79.8l-15.5-10.9c-24.5 39.4-74.1 70.2-135.7 72.4m-11.8-76.8h-112l-4.9 18.2h93l-14 52.1h-95l-4.9 18.3h95l-2.2 7.9h19.2z" class="st0" style="fill:#0898ff" transform="scale(.26458)"/></g><path d="M3801.7 49H3474l-2.8 10.4h23c7.9 0 12.4 6.8 10.2 15.3l-69 257.4c-2.3 8.5-10.5 15.3-18.3 15.3h-23l-2.8 10.4h365l2.8-10.4h-23c-7.9 0-12.4-6.8-10.2-15.3l69-257.4c2.3-8.5 10.5-15.3 18.3-15.3h23L3839 49Zm-187.3 25.8-69 257.4c-2.3 8.5-10.5 15.3-18.3 15.3h-11c-7.9 0-12.4-6.8-10.2-15.3l69-257.4c2.3-8.5 10.5-15.3 18.3-15.3h11c7.9 0 12.4 6.8 10.2 15.3m110-.1-69 257.4c-2.2 8.6-10.5 15.4-18.3 15.4h-11c-7.9 0-12.4-6.8-10.2-15.3l69-257.5c2.3-8.5 10.5-15.3 18.3-15.3h11c7.9 0 12.4 6.8 10.2 15.3m-312.2 74.2h-101.5l-235.4 109.5 170.9 99.5h101.5l-171-99.5zm-367.3 209 56-209h-62.5l-56 209zm-58.4-116 17.8-66.3c3.9-14.7-4.7-26.7-19.5-26.7h-359l-56.1 209h62.5l46.4-173.3h260.7l-12.9 48.1h-223.6l158.8 125h98.5L2842 268.5h110.6c14.9.1 30-11.9 33.9-26.6m-529.7 72.2 31.1 43.8h78.4l-148.2-209h-77.2l-181.4 209h70.3l142-163.5 59.6 84h-103l-30.4 35.7zm-659.4 43.8 32.9-122.8 81.6 122.8h62.9l140.7-117.2-31.5 117.2h62.5l56-209h-62.6l-184.4 153.9-102.1-153.9H1791l-56.1 209zM1525 314.1l31 43.8h78.5l-148.3-209H1409l-181.4 209h70.5L1440 194.4l59.5 84h-103l-30.3 35.7zm-425.5-78.5-9.6 35.7h82.4l-13.6 50.8H898.1l36.8-137.5h323.2l9.6-35.7h-359c-14.7 0-29.9 11.9-33.8 26.7l-2.4 9.1-39.3 146.6c-3.9 14.7 4.7 26.7 19.5 26.7h359l32.8-122.3h-145zm-590.4 35.7h257.7l9.6-35.7H518.7l13.6-50.8h323.2L865 149H506.1c-14.7 0-29.9 11.9-33.8 26.7l-41.7 155.5c-3.9 14.7 4.7 26.7 19.5 26.7h359l9.6-35.7H495.5Zm-117.3-35.7H95.3l13.6-50.8h323.2l9.6-35.7H82.8c-14.7 0-29.9 11.9-33.8 26.7l-18.5 69c-3.9 14.7 4.7 26.7 19.5 26.7h296.5l-13.7 50.8H9.6L0 357.9h359c14.7 0 29.9-11.9 33.8-26.7l18.4-69.1c4.1-14.6-4.7-26.5-19.4-26.5" class="st0" style="fill:#0898ff" transform="scale(.26458)"/></svg>