<svg xmlns="http://www.w3.org/2000/svg" xml:space="preserve" id="Camada_1" width="3162.909" height="857.9" x="0" y="0" viewBox="0 0 3162.909 857.9"><style id="style1" type="text/css">.st0{fill:#0124a6}.st1{fill:#ff2d1e}</style><g id="g13" transform="translate(398.673 193.262)scale(4.538)"><path id="rect1" d="M134.781 21.726h49.12v11.73h-49.12z" class="st0" style="fill:#334fa2;fill-opacity:1"/><path id="rect2" d="M129.931 72.096h60.86v12.05h-60.86z" class="st0" style="fill:#334fa2;fill-opacity:1"/><path id="path2" d="m200.801 19.226-3.6 11.11c4.04 1.01 8.64 2.44 13.58 4.49a95 95 0 0 1 11.34 5.61l4.8-12.84s-3.54-1.71-11.91-4.43-14.21-3.94-14.21-3.94" class="st0" style="fill:#334fa2;fill-opacity:1"/><path id="path3" d="M197.201 72.896s20.21.16 32.37-8.42c10.76-8.34 12.87-28.53 12.87-28.53l12.4 4.44s-2.92 24.9-15.59 34.54c-13.22 10.06-38.04 11.15-38.04 11.15z" class="st0" style="fill:#334fa2;fill-opacity:1"/><path id="path5" d="M320.941 38.986h-60.18v11.38h25.27c.15 3.03-.07 8.57-1.81 13.8-3.66 6.7-16.12 10.52-17.07 10.6 1.4 3.9 4.21 11.23 4.21 11.23s18.87-4.21 23.93-12.63c5.8-8.57 5.24-19.02 4.73-23h20.92z" class="st0" style="fill:#334fa2;fill-opacity:1"/><path id="rect5" d="M268.551 19.226h44.44v10.96h-44.44z" class="st0" style="fill:#334fa2;fill-opacity:1"/><path id="path6" d="m328.151 19.226-3.6 11.11c4.04 1.01 8.64 2.44 13.58 4.49a95 95 0 0 1 11.34 5.61l4.8-12.84s-3.54-1.71-11.91-4.43c-8.36-2.73-14.21-3.94-14.21-3.94" class="st0" style="fill:#334fa2;fill-opacity:1"/><path id="path7" d="M324.551 72.896s20.21.16 32.37-8.42c10.76-8.34 12.86-28.53 12.86-28.53l12.4 4.44s-2.92 24.9-15.59 34.54c-13.22 10.06-38.04 11.15-38.04 11.15z" class="st0" style="fill:#334fa2;fill-opacity:1"/><path id="path8" d="M420.571 44.286c-6.02-1.68-11.66-2.9-16.84-3.79v-21.27h-14.97v66.77h14.97v-32.75c4.16.82 8.76 1.95 13.68 3.55 6.04 1.96 11.31 4.22 15.79 6.43 1.56-4.37 3.12-8.73 4.68-13.1a175 175 0 0 0-17.31-5.84" class="st0" style="fill:#334fa2;fill-opacity:1"/><path id="rect8" d="M416.131 19.226h6.78v16.06h-6.78z" class="st0" style="fill:#334fa2;fill-opacity:1"/><path id="rect9" d="M425.951 19.226h6.78v16.06h-6.78z" class="st0" style="fill:#334fa2;fill-opacity:1"/><path id="path9" d="M499.001 28.156h-20.82v-10.37h-14.27v10.37h-20.19v27.67h13.1v-16.37h28.58c-.02.01-.03.03-.05.04.11.54-.14 16.53-5.22 22.89-7.1 8.89-25.46 12.39-25.73 12.38l4.21 10.29c4.51-.07 23.27-1.79 33.37-14.97 7.95-10.36 7.05-41.86 7.02-41.93" class="st0" style="fill:#334fa2;fill-opacity:1"/><path id="path10" d="M556.781 33.446h-4.76c-11.11.69-15.23 5.52-16.82 11.38h.32c2.86-2.76 6.03-3.79 10.47-3.79 8.57 0 16.5 6.9 16.5 19.65 0 12.41-8.57 22.07-20.31 22.07-15.55 0-22.21-12.76-22.21-26.55 0-11.03 3.49-20.69 9.52-26.55 5.71-5.86 13.01-8.62 21.9-8.96h5.08v12.76zm-14.6 37.24c3.49 0 5.71-3.79 5.71-8.96 0-4.14-1.9-8.96-6.66-8.96-2.86 0-5.08 2.07-6.03 4.48-.32.69-.32 1.72-.32 3.45.32 4.81 2.54 9.99 7.3 9.99" class="st1" style="opacity:1;fill:#ff2d1e;fill-opacity:1"/><path id="path11" d="M589.781 81.716v-13.45h-23.16v-10.69l18.4-35.86h18.4v34.48h5.71v12.41h-5.71v13.45h-13.96zm0-25.86v-10.34c0-3.79.32-7.93.32-12.07h-.32a194 194 0 0 1-5.08 12.07l-4.44 10v.34z" class="st1" style="fill:#ff2d1e;fill-opacity:1"/></g><g id="g22"><g id="layer2_57_"><g id="polygon3542_57_"><path id="polygon11" d="m429.5 92.8-99 176.8 99-37.9 94.6 36.2 25.3-28.4V46.3z" class="st2" style="fill:#354ea2"/></g><g id="polygon3558_57_"><path id="polygon12" d="M859.1 164.7V677l-121.7 51.2-179-233.6v308.8l-128.9 54.5V330.4L558.4 281l179 255.8V211.6z" class="st2" style="fill:#354ea2"/></g><g id="polygon3560_57_"><path id="polygon13" d="m121.7 728.2 114.2-50.6-114.2-221.7z" class="st2" style="fill:#354ea2"/></g></g><g id="layer3_57_"><g id="polygon3538_57_"><path id="polygon14" d="M429.5 92.8 309.6 46.2l-66.2 118.5L300.7 281l29.8-11.4z" class="st3" style="fill:#23b057"/></g><g id="polygon3540_57_"><path id="polygon15" d="M737.4 536.8 558.4 281l-34.3-13.1 91.6-103.2 121.7 46.9z" class="st3" style="fill:#23b057"/></g><g id="polygon3552_57_"><path id="polygon16" d="M300.7 281v267.8l-179-337.2L0 164.7V677l121.7 51.2V455.9l179 347.5 128.8 54.5V330.4z" class="st3" style="fill:#23b057"/></g></g><g id="layer4_57_"><g id="polygon3554_57_"><path id="polygon17" d="m121.7 211.6 121.7-46.9L300.7 281v267.8z" class="st1" style="fill:#f01b25"/></g><g id="polygon3556_57_"><path id="polygon18" d="m558.4 622.2 36.6 51.3 142.4 54.7-179-233.6z" class="st1" style="fill:#f01b25"/></g></g><g id="layer5_57_"><g id="polygon3544_57_"><path id="polygon19" d="m300.7 281 128.8-49.3L558.4 281l-128.9 49.4z" class="st4" style="fill:#ffa623"/></g><g id="polygon3546_57_"><path id="polygon20" d="m859.1 164.7-121.7 46.9-121.7-46.9 121.7-46.8z" class="st4" style="fill:#ffa623"/></g><g id="polygon3548_57_"><path id="polygon21" d="m243.4 164.7-121.7 46.9L0 164.7l121.7-46.8z" class="st4" style="fill:#ffa623"/></g><g id="polygon3550_57_"><path id="polygon22" d="m309.6 46.2 119.9 46.6 119.9-46.5L429.5 0z" class="st4" style="fill:#ffa623"/></g></g></g></svg>