<svg xmlns="http://www.w3.org/2000/svg" width="3756.189" height="899.1" viewBox="0 0 993.825 237.887"><g style="display:inline"><path d="m3762.9 680.4-41.7 39.2H39.3v-39.2zM1418.4 448.7c-.9 104.4 83 190 187.5 191.2 69.9-.3 133.8-39.7 165.4-102l.8-1.5h-82.4c-22.4 22.2-52.4 34.7-83.9 34.9-67.6-1.9-120.9-57.9-119-125.5 1.7-65.1 54.2-117.5 119-119 31.1.1 60.9 12.4 83 34.5l83.3.2-.8-1.5c-31.6-62.3-95.6-101.6-165.4-101.9-104.6.6-188.3 86-187.5 190.6m357.4 1c2.1 103.5 87.5 185.8 191.2 183.7 103.5-2.1 185.8-87.5 183.7-191.2-2.1-102-85.4-183.7-187.4-183.8-104.5 1.2-188.2 86.8-187.5 191.3m67.7 0c1.4-66.2 56.1-118.7 122.3-117.4 66.2 1.4 118.7 56.1 117.4 122.3-1.4 65.2-54.5 117.4-119.8 117.4-66.8-.7-120.5-55.5-119.9-122.3m1658-189.7h-188.9v376.5h189.7v-72.4h-118.6v-75.5h118.6v-72.5h-118.6v-83.6h118.6V260h-1.1zm-3036.6 0h-55.8L149.5 636.7h80.4s40.1-58.4 40.6-59.2h127v59.2h68.3V260ZM321.1 503.6l76.4-111.9v118.4h-80.8c1.3-2 4.4-6.5 4.4-6.5m2235.3-243.5h-79.3s-110.6 255.5-112.3 259.5c-1.9-4.2-112.8-259.5-112.8-259.5h-80v376.6h70.8V449.3c1.2-.3 6.8-1.5 7.9-1.9l82.3 189.3h63.3s81.5-187.7 82.1-189.2c1.2.2 6.8 1.5 8 1.7v187.4h70.8V260.1Zm520.9 0H3007v254.2c.4 26.9-21.2 49.1-48.1 49.5s-49.1-21.2-49.5-48.1V260.1h-71.1v254.2c-1.1 66.3 51.8 120.8 118 121.9 66.3 1.1 120.8-51.8 121.9-118v-258Zm447.7.1h-1.1V638h71.1V439.2c3.5 6 117.4 197.4 117.4 197.4h79.9s-80.1-135.1-81.3-137.3c1.5-.5 4.7-1.7 4.7-1.7 63.5-23.7 95.7-94.4 72-157.8-17.4-46.7-61.3-78.2-111.2-79.8zm151.7 72.4c26.8 1 48.1 23.1 47.9 50 .4 26.9-21 49.2-47.9 49.7h-81.6v-99.7Zm-1096.5-72.4h-1v376.5h71.1v-134h50.7c67-1.3 120.1-56.5 118.9-123.5-1.2-65.2-53.9-117.7-118.9-118.9Zm120.7 72.4c27 .5 48.4 22.9 47.9 49.9-.5 26.2-21.8 47.4-47.9 47.9h-50.7v-97.9zm590.7-72.4h-193v72.3h61.2v304h71.1V332.6h61.5v-72.3zm-1914.9 0h-73.6s-75.5 147.4-77.3 150.7c-1.7-3.3-77.3-150.7-77.3-150.7h-75.2l117 231.5-.1 145.1h71.3l.2-145.5c.1 0 116-229.5 116-229.5l.8-1.5zm-322.7 0h-70v376.4h167.2v-72.5H1055V260.2Zm-92.6 0h-66.7v376.4h67.6V260.2Zm-89.3 0h-79.4S682.1 515.5 680.4 519.5L567.6 260.2h-80v376.4h70.8V449.2c1.2-.2 6.8-1.5 7.9-1.7.7 1.5 82.3 189.2 82.3 189.2H712l82.2-189.2c1.2.3 6.8 1.5 7.9 1.9v187.4h70.8V260.2Zm-638.6 0H39.3v376.4h72.3V488.5h122.8v-72H111.7v-86.6h122.8v-69.3z" class="st2" style="fill:#e33a25" transform="translate(-10.398 -11.033)scale(.26458)"/></g><g style="display:inline;fill:#fff"><path d="M2393 820.2v44.3c50.6 0 62.5-57.4 62.5-57.4h133.1v26.1h-132.4v44.1h113.4c0 17-32.8 19-32.8 19h-125.3v43.8H2532c45.1.9 83.4-32.7 88.5-77.4v-99.2h-189.3c1.1 25.2-14.5 48.2-38.2 56.7M2158.6 834h221.5v38.1h-221.5z" class="st1" style="fill:#fff" transform="translate(-10.398 -11.033)scale(.26458)"/><path d="M2139.5 897.4h37.6v42.8h-182.8v-43.4h120.4v-45.2h-101.8v-37.4h126.6zm-191-132.7h-2.4c-16.4.3-29.5 14-29.2 30.4s14 29.5 30.3 29.2h.2c16.3.2 30-12.8 30.3-29.2.4-16.5-12.7-30.2-29.2-30.4m-1 46.2h-.2c-9.1 0-16.4-7.4-16.4-16.4 0-9.1 7.4-16.4 16.4-16.4h.2c9.1 0 16.4 7.4 16.4 16.4s-7.3 16.4-16.4 16.4" class="st1" style="fill:#fff" transform="translate(-10.398 -11.033)scale(.26458)"/><path d="M1753.6 763.3h31.6v44.5h123.5c16.3 36.1 55.8 35.6 72.2 9.3v34.7h-195.7v25.7c0 22.2 25.2 19 25.2 19h170v43.9h-169.9c-29.3 2.1-54.8-20.1-56.8-49.5V763.3Zm-240.4 133v43.9h127c67.6 0 94.5-50.3 94.5-86.9v-89.8h-31.3v81.9c0 45-47.1 51-56.9 51-.1-.1-133.3-.1-133.3-.1m0-132.8h126.5v44.2h-126.5zm-50.6 44.3h-196.1v-44.3h227.7v177.2h-227.7v-44.4h196.1zM962.9 833h214.7v44.2H962.9zm-50.2-69.5h30.9v92.1c0 66.2-71.6 85.2-88.7 85.2H754.1v-44.3h101.1c51.1 0 57.4-48.7 57.4-63zm-190.3 0H754v113.9h-31.6zM482.5 882.9v37.8l226.8 20v-38zm0-56.5v37.9l226.8 19.8v-37.9zm0-56.5v37.9l226.8 19.8v-38zm-202.4 38.3h183v49.5c0 41.8-31.6 44.7-43.9 44.7h-38.5c0 36.7-44.2 38.4-44.2 38h-56.9v-37.2H343c7.3 0 13.1-5.9 13.1-13.2 0-.5 0-1-.1-1.5v-23.2h57.6c10-.2 18-8.5 17.7-18.5v-.9H280.5ZM39.3 764h227.6v75.4c0 48.7-37.6 100.8-94 100.8H64.6v-43.9h94.9c49.5 0 69.7-36.8 69.7-57v-31.5H39.3Z" class="st1" style="fill:#fff" transform="translate(-10.398 -11.033)scale(.26458)"/></g><path d="M2339.5 152.7V180h-150.2v-27.3Zm-17.7-90.2v26.9h-116.6V62.5Zm-182.9 136.9c-42.2-14.5-86.5-21.9-131.3-22.1l5.4-26.8c45.7 1.1 91 7.8 134.9 19.8zm-16.7-59.5c-34-10.4-69.2-16.6-104.7-18.4l5-25c35.7.8 71.2 6.5 105.4 16.9zm13.1-49.9c-38.1-11.2-77.5-17.6-117.1-19.2l4.9-25.3c39.6.8 79.2 6.2 117.5 16.1zm-162.5-35.3c-3.8 34.7-16.2 67.7-36.3 96.1-27.5 35-70.7 43.5-92.8 46.7l-11.3-25.7c65.6-8.7 85-32 99.7-72.8 3.1-8.1 4.5-14.1 5.8-18.6h-48.6c-12.6 19.5-29.5 35.9-49.4 48l-18.1-20.4c13.1-7.2 24.9-16.8 34.7-28.1 9.2-11 16.5-23.3 22-36.7l29 5.6c-1.2 2.5-1.4 2.6-3.1 5.9zm-299.6 81.9c-2.5-15.2-7.2-29.9-13.7-43.8l22.1-5.9c7.2 13.9 12.3 28.8 15.3 44.1zm.1 41.1c63.3-15.3 75.8-39.6 87.2-97.4l26.9 6.3c-9.5 40.3-22.8 94.7-101.5 113zm39.2-49.8c-2.3-15-6.5-29.5-12.3-43.5l22.1-4.7c6.9 13.5 11.2 28 13 42.8zm-183.5 4.8c-16.1-9-33.4-15.9-51.3-20.4l9.6-23.2c18.3 3.4 35.9 9.6 52.2 18.8zm-41.9 33.1c56-4.9 93.7-16.5 116.8-94.3L1630 84c-27.5 82.1-69.9 103.8-135.2 111.7zm57.3-74.9c-16.9-8.7-34.8-15.1-53.3-19.2l9.8-23.1c18.8 3.2 37.1 9.1 54.3 17.5zm-105.7 1.3c-3.1 29.9-11.4 60.2-35 78.6-18.4 14.5-45.3 23.4-82.1 26.3l-8.3-26.1c69.6-2.6 85.8-26.6 92.2-53.3H1295V92.2Zm-11.5-42.7v25.7h-119.3V49.5Zm-165.4 5.2c-3.8 34.7-16.2 67.7-36.3 96.1-27.5 35-70.7 43.5-92.8 46.7l-11.3-25.7c65.6-8.7 85-32 99.7-72.8 3.1-8.1 4.5-14.1 5.8-18.6h-48.6c-12.6 19.5-29.5 35.9-49.4 48l-18.1-20.4c13.1-7.2 24.9-16.8 34.7-28.1 9.2-11 16.5-23.3 22-36.7l29 5.6c-1.2 2.5-1.4 2.6-3.1 5.9zM921 106.3h137.8v29H921zM809.3 44.2v41.4c29 9.2 57 21.6 83.6 36.6l-14.7 29.3c-21.2-15.4-44.4-27.7-69-36.5v82.4H779V44.2Zm45.4 42.2c-3.9-9.3-8.9-18.2-14.7-26.4l14.2-6.8c5.9 7.9 11 16.4 15.1 25.3zM877.2 73c-3.9-8.7-9-16.9-14.8-24.4l14.4-6.9c5.9 7.3 11 15.1 15.1 23.4zm-230.1 30.2c-16.8-11.6-35.3-20.7-54.6-26.8L605 52.6c20.1 5.6 39.3 14 57 25zm-52.2 62C672.3 159.1 701.1 123.6 718 64l26.3 13c-26.4 89-78.4 109.3-140.1 118zm-41-71.9V119h-54.8l-.2 2.8c.2 20.6-8 40.3-23 54.4-15.3 11.4-33.3 18.9-52.2 21.8l-11.4-24.4c10-1.6 33.9-5.3 46.9-19.2 6.9-9.4 10.7-20.7 11.1-32.3l.2-3.1h-63.6V93.3zm-13.7-44.2v25.8H420.8V49.1Zm-258.1 54.1c-16.7-11.6-35.2-20.7-54.6-26.8L240 52.6c20.1 5.6 39.3 14 57 25zm-52.3 62C307.2 159.1 336 123.6 352.9 64l26.3 13c-26.4 89-78.4 109.3-140.1 118zm-39.6-12.5V180H40v-27.3Zm-17.8-90.2v26.9H55.7V62.5Z" class="st1" style="fill:#fff" transform="translate(-10.398 -11.033)scale(.26458)"/></svg>