<svg xmlns="http://www.w3.org/2000/svg" xml:space="preserve" width="620" height="200"><linearGradient id="a" x1="478.707" x2="478.707" y1="416.162" y2="513.925" gradientTransform="translate(-.09 -416.162)" gradientUnits="userSpaceOnUse"><stop offset="0" style="stop-color:#33438a"/><stop offset="1" style="stop-color:#0098df"/></linearGradient><linearGradient id="c" x1="270.465" x2="270.465" y1="416.162" y2="513.925" gradientTransform="translate(-.09 -416.162)" gradientUnits="userSpaceOnUse"><stop offset="0" style="stop-color:#33438a"/><stop offset="1" style="stop-color:#0098df"/></linearGradient><linearGradient id="d" x1="88.399" x2="88.399" y1="416.162" y2="513.925" gradientTransform="translate(-.09 -416.162)" gradientUnits="userSpaceOnUse"><stop offset="0" style="stop-color:#33438a"/><stop offset="1" style="stop-color:#0098df"/></linearGradient><g style="display:inline"><g style="display:inline"><g style="display:inline;opacity:.65;fill:#fff"><path fill="url(#a)" d="M559.93 6.986v38.401H390.307v52.375h176.619v-6.985H397.297V52.375h169.629V0H390.307v6.986z" style="fill:#fff" transform="translate(27.037 16.652)"/><path fill="url(#c)" d="M364.131 0v6.986h-90.093v90.776H176.62v-6.985h90.093V0Z" style="fill:#fff" transform="translate(27.037 16.652)"/><path fill="url(#d)" d="M6.986 97.762V52.375H176.62V0H0v6.873l169.639.113v38.401H0v52.375z" style="fill:#fff" transform="translate(27.037 16.652)"/></g><g style="display:inline"><path fill="url(#a)" d="M559.93 6.986v38.401H390.307v52.375h176.619v-6.985H397.297V52.375h169.629V0H390.307v6.986z" style="display:inline;fill:url(#a)" transform="translate(26.037 15.652)"/><path fill="url(#c)" d="M364.131 0v6.986h-90.093v90.776H176.62v-6.985h90.093V0Z" style="display:inline;fill:url(#c)" transform="translate(26.037 15.652)"/><path fill="url(#d)" d="M6.986 97.762V52.375H176.62V0H0v6.873l169.639.113v38.401H0v52.375z" style="display:inline;fill:url(#d)" transform="translate(26.037 15.652)"/></g></g><path d="M40.358 124.742q1.774 0 2.883-1.108t1.109-2.883-1.109-2.883-2.883-1.108-2.882 1.108q-1.11 1.109-1.11 2.883t1.11 2.883 2.882 1.108m0 2.218q-2.66 0-4.435-1.774t-1.774-4.435 1.774-4.435 4.435-1.774 4.435 1.774 1.774 4.435-1.774 4.435-4.435 1.774M.665 129.843v-4.879h32.82l5.765 4.213q-1.11 26.832-30.38 35.037l-3.991-4.879q27.718-6.43 29.049-29.492Zm66.747 27.94q20.4-3.77 29.714-20.623l3.77 3.77q-10.644 18.627-35.48 22.84l-3.548-2.66.443-1.331v-36.81h4.879q1.995.221.222 1.552zm42.797-11.088q23.283-9.756 35.258-27.496l4.213 3.548q1.774 1.33-1.552 1.995-4.214 5.544-10.866 11.31v30.157h-5.1v-25.944q-7.761 5.987-18.183 10.865zm83.155-3.991q9.535 7.318 18.849 16.853l-4.435 3.77q-9.314-9.757-17.962-16.41-8.648 9.314-19.735 16.631l-4.214-3.77q23.506-15.3 30.158-30.6l-24.17 1.552-.666-5.322 25.723-1.109 2.661-.665 3.548 3.548q1.552 1.552-.887 1.995-4.213 7.318-8.87 13.527m52.554-1.996h-22.174v-4.878h45.458v4.878h-18.183v2.883q0 13.97-9.98 23.062l-4.434-3.326q9.313-7.318 9.313-19.736zm-14.191-13.526v-4.879h29.492v4.879zm46.788 17.518v-4.879h49.45v4.879zm65.86 14.635q24.17-5.322 36.366-25.057l3.991 3.991q-11.309 18.183-35.036 25.723-.665 2.66-2.217.222zm-1.553-26.831q5.544 2.882 11.31 7.096l-3.549 4.656q-6.652-4.878-11.087-7.096zm6.209-13.084q5.987 3.327 11.31 7.096l-3.105 4.657q-5.987-4.213-11.088-7.096zm54.328 43.463v-4.213h22.618v-9.314H404.69v-4.213h21.287v-8.87H403.36v-4.213h27.053v33.262h-4.435v-2.439zm94.686-25.723q-11.752 24.393-39.47 25.723-1.11 2.883-2.218.444l-1.774-5.766q28.827-.665 38.806-23.727zm-31.266 0q-5.987-5.543-11.31-9.091l3.77-4.657q4.657 2.883 11.753 9.535zm49.81 21.094h49.672v4.629h-58.68v-12.307q0-4.601 3.104-7.234 3.132-2.661 8.426-2.661h30.907q3.215 0 5.21-1.885 2.024-1.913 2.024-4.574 0-2.689-1.94-4.573-1.913-1.885-5.294-1.885H507.58v-4.63h46.29q5.793 0 9.091 3.188 3.299 3.188 3.299 7.9 0 4.74-3.327 7.928-3.298 3.187-9.064 3.187h-30.85q-2.883 0-4.657 1.719-1.774 1.69-1.774 4.629z" aria-label="プレイステーション2" style="font-weight:700;font-size:56.7674px;line-height:0;font-family:PS;-inkscape-font-specification:&quot;PS Bold&quot;;text-align:center;text-anchor:middle;display:inline;fill:#fff;stroke:none" transform="translate(26.037 15.652)"/></g></svg>