<svg xmlns="http://www.w3.org/2000/svg" width="3731.487" height="779.2" viewBox="0 0 987.289 206.163"><defs><radialGradient id="b" cx="4564.655" cy="-2329.931" r="217.597" fx="4566.394" fy="-2332.972" gradientTransform="matrix(.26458 0 0 -.26458 -1116.056 -528.696)" gradientUnits="userSpaceOnUse"><stop offset="0" style="stop-color:#fff"/><stop offset=".107" style="stop-color:#e1e7f2"/><stop offset=".437" style="stop-color:#88a1cc"/><stop offset=".706" style="stop-color:#476eb0"/><stop offset=".9" style="stop-color:#1e4e9f"/><stop offset="1" style="stop-color:#0f4298"/></radialGradient><linearGradient id="a" x1="1929.895" x2="1929.895" y1="779.214" y2="9.974" gradientUnits="userSpaceOnUse"><stop offset=".308" style="stop-color:#000"/><stop offset=".4" style="stop-color:#1b0007"/><stop offset=".598" style="stop-color:#610018"/><stop offset=".884" style="stop-color:#ce0033"/><stop offset="1" style="stop-color:#fd003e"/></linearGradient></defs><g style="display:inline"><path d="M3731.2 235c-.8-2.3-3.1-3.8-5.6-3.8h-99c-2.5 0-4.8 1.5-5.6 3.8-1.1 3.2.7 6.4 3.6 7.4 9.2 3 31.2 12.7 31.2 35.8v138.7c0 5.3-6.2 8.2-10.3 4.8l-145.8-121c-45.5-37.8-109.9-62.9-152.5-76.7-9.4-3-15.9 9.4-8 15.4 1.4 1.1 2.8 2.1 4.3 3.2 48.6 36.5 53.8 88.9 53.8 94.9v195.3c0 7-5.7 12.7-12.7 12.7-16.3 0-52.7-26.4-71.2-45.9-17.5-18.3-25.8-43.4-45.4-66.4-15.6-18.3-28.8-25-28.8-25 98 0 100.9-79.5 100.9-88.4 0-13.3 0-88.8-122.7-88.8H2886c-2.5 0-4.8 1.5-5.6 3.8-1.1 3.2.7 6.5 3.6 7.4 9.2 3 31.2 12.7 31.2 35.8v174.5c0 60.3-42.2 80.5-76 80.5-61.6 0-85.3-36.3-85.3-82V277.9c0-23.1 22-32.8 31.2-35.8 2.4-.8 4-2.9 4-5.4v-.1c0-3.1-2.5-5.7-5.7-5.7h-463.9c-6.9 0-13.3 4-16.3 10.2l-18.3 37.8c-3.1 6.5 4.3 12.9 10.3 8.9 24.4-16.6 65.5-35.6 125.7-37.9 6.6-.2 12.1 5.1 12.1 11.7V501c0 11.4-4.2 20.1-9.9 26.8-4.4 5.2-11 8.2-17.9 8.2h-14.8c-4.8 0-9.6-1.3-13.7-4-9.4-6.1-18.3-14.7-23.6-26.6l-130.2-288.7c-5.6-12.3-22.7-12.8-29-.9l-135.4 257-39.1 74.1 2.7 14.2h131.6c7.3 0 10.8-9.1 5.3-14 0 0-.1 0-.1-.1-2.4-2.1-4.5-4-6-5.4-11.6-10.4-11.2-17.6-11.5-23.6s1-12.2 3.8-17.6l87-165 74.2 164.7c2.5 5.5 3.7 11.6 3.2 17.6-.1.8-.1 1.5-.2 2-1.4 7.8-8.4 23.4-21.4 23.4h-.2c-2.6 0-5.2.8-7.3 2.4-8.6 6.6-4 15.5 2.6 15.5h280.1c4.5 0 8.4-3.4 8.6-7.9.2-3.6-2-7-5.3-8.2-11-4.2-35.2-16.7-35.2-44V261.5c0-6.8 5.5-12 12.3-11.7 46.5 1.8 81.6 13.6 106.3 26.5 4 2.1 6.5 6.2 6.5 10.7v154.2h.4c4 70.8 37.6 125.3 160.8 125.3 71.4 0 138.3-37.4 138.3-106.3V283.5c0-10.5 3.3-17.9 7.5-22.9 6.1-7.5 15.5-11.5 25.1-11.5h14.6c9.7 0 19.1 4 25.1 11.5 4.2 5.2 7.5 12.6 7.5 22.9v213.9c0 31.8-25.2 43.8-37 47.7-2.8.9-5.1 3.2-5.7 6.2-1 5.2 2.9 9.8 8 9.8h167.2c3.4 0 6.6-2 7.8-5.2 1.7-4.6-.8-9.3-5-10.7-11.6-3.8-37.3-15.8-37.3-47.8V270.5c0-18.2 15.6-24.7 26.2-24.7h30.6c28.5 0 56.9 24 56.9 64.1 0 58.8-38.3 73.1-54 73.1-10.5 0-18.7.2-27.3-3 0 0-.1 0-.1-.1-5.5-2.6-11.4 2.5-9.6 8.3.1.3.1.5.2.5 9.2 31.1 25.7 78.7 48.3 109 35 47.2 101.4 84.8 212.8 84.8h47.9c3 0 5.8-1.8 6.7-4.6 1.3-3.9-.9-7.8-4.5-8.9-9.6-2.9-29.9-11.6-29.9-33.2V379.2c0-5.3 6.2-8.2 10.3-4.8l231.4 192.1c6.7 5.5 16.7.8 16.7-7.9V278.2c0-23.1 22-32.8 31.2-35.8 3-.9 4.8-4.1 3.7-7.4" style="display:inline;fill:#fff" transform="translate(-1.306 -1.323)scale(.26458)"/><path d="M1992 16.1c2.9-1.5 6.3-3.1 10.2-4.9 12.8-6 22.9 12 11.3 19.8-4.1 2.8-7.8 5.3-10.8 7.4-37.6 26.3-70.5 57.4-70.5 162.3 0 131.8 109 260.2 109 355.7 0 74.1-20.9 142-185.2 221.7-5.4 2.6-11.9.6-14.9-4.6-3.2-5.5-1.1-12.6 4.5-15.6 65.6-35.1 84.9-107.8 82.1-170.3-5.8-129.9-111-241.6-109-348.1 1.1-63.5 26.4-149.4 173.3-223.4" style="display:inline;fill:#fff" transform="translate(-1.306 -1.323)scale(.26458)"/><path d="M1889.4 545.4c-9.3-3.5-28.2-13.5-40.1-39.8l-130.2-288.7c-5.5-12.3-22.7-12.8-29-.9l-96.4 183c-5 9.5-14.9 15.5-25.5 15.5h-119.5c-3.9 0-7.8 3.1-8.4 6.9-.8 5 2.8 9.2 7.6 9.6 32.1 2.9 51.4 24.3 51.1 58.9-.2 31.9-26.8 58-58.8 58h-8.4c-85.6 0-89.3-98.3-89.3-119.8v-75.2c0-36.9 14.9-101.7 87-101.7 67.3 0 105.2 31 136 72.1 5.1 6.8 15.8 1.2 13.2-6.9l-27-84.7c-2.6-8.2-12.2-11.8-19.5-7.3-19.8 12.2-31.5 10.2-31.5 10.2-9.8.3-40.9-8.6-78.7-8.6-60.3 0-109 23.9-142.4 56.2-3.3 3.2-8.8 2.1-10.5-2.2l-14.9-36.4c-3.1-7.5-7.1-12.4-15.2-12.4h-172v-.1h-89.4c-5.7 0-11.3-.2-17-.5-30.6-1.7-138.2-7.3-193.3-7.3-69 0-123.1 21.6-128.6 72.5-4.1 38.3 22.4 58.2 37.7 72.2 8.3 7.6 47 32.1 66.9 41.3 20.7 9.6 103.5 51.1 95 84-8.6 32.6-36.5 40.6-68.8 40.6-50.7 0-105.1-42-145.4-79.6-7-6.6-17.9 1.6-13.5 10.2 16.7 32.6 38 72.2 52 93.2 4 5.9 11.2 8.8 18.2 7 15.1-3.8 34.5-5.8 46.4-5.2 15.3.7 47.1 4.9 61 4.9 116.1 0 152.5-30.5 156.3-83.5 5.2-72.8-81.7-121.3-134.7-142.5-47.3-19.1-65.6-47.8-63.6-62 3.3-24.7 26.8-28.9 46.6-28.1 61 2.3 176.2 32.1 176.2 74v194.4c0 10.9-11.9 30.4-26.8 30.4h-.3c-2.7 0-5.4 1-7.4 2.9-5.2 5.2-1.6 11.4 3.4 11.4h312.3c5.9 0 11.1-3.5 13.4-9l10-24.3c1.9-4.7 7.9-6.1 11.7-2.7 32.7 29.5 80.6 48.1 146 48.1 15.3 0 46.9-4.2 61.6-9.6 4.7-1.7 9.7-2.6 14.7-2.6h142.3c7.3 0 10.8-9.1 5.3-14-2.4-2.1-4.6-4.1-6.1-5.5-11.7-10.6-11.2-17.8-11.5-23.8s1-12 3.8-17.4l86.9-165 74.2 164.7c2.5 5.5 3.7 11.6 3.2 17.6-.1.8-.1 1.5-.2 2-1.4 7.8-8.4 23.4-21.4 23.4h-2.1c-3.2 0-6.4 1.1-8.8 3.2-7.3 6.5-2.8 14.7 3.6 14.7h109.8c5.1 0 9.1-4.6 8.1-9.8-.4-2.7-2.5-5-5.3-6m-637.8-229.3c-15 23.5-23 48.5-23 70.4 0 29.2 5.4 57.7 16.8 83.4 2.5 5.6 1.4 12.2-2.9 16.6-21 21.3-67 51.1-132.8 51.1h-16.1c-14.7 0-26.5-11.9-26.5-26.5v-94.3c0-5 7.5-11.2 15.9-9.5 12.9 2.5 35.5 10.6 53.6 21 12.7 7.4 24.1 15.1 37.3 25.9 5.8 4.8 14.6.6 14.6-6.9V335.5c0-7.5-8.8-11.7-14.6-6.9-13.2 10.9-24.6 18.6-37.3 25.9-18.1 10.4-41.4 21.3-54.2 24.3-9.9 2.3-13.4-1.6-15.3-5.3v-93.2c0-14 11.4-25.3 25.3-25.3h32.5c53.3 0 101.8 30.5 125.2 50.7 2.9 2.6 3.6 7.1 1.5 10.4" style="display:inline;fill:#fff" transform="translate(-1.306 -1.323)scale(.26458)"/><path d="M1992 16.1c2.9-1.5 6.3-3.1 10.2-4.9 12.8-6 22.9 12 11.3 19.8-4.1 2.8-7.8 5.3-10.8 7.4-37.6 26.3-70.5 57.4-70.5 162.3 0 131.8 109 260.2 109 355.7 0 74.1-20.9 142-185.2 221.7-5.4 2.6-11.9.6-14.9-4.6-3.2-5.5-1.1-12.6 4.5-15.6 65.6-35.1 84.9-107.8 82.1-170.3-5.8-129.9-111-241.6-109-348.1 1.1-63.5 26.4-149.4 173.3-223.4" style="display:inline;fill:url(#a)" transform="translate(-1.306 -1.323)scale(.26458)"/></g><g style="display:inline" transform="translate(-1.306 -1.323)scale(.26458)"><circle cx="79.286" cy="104.669" r="48.736" style="display:inline;fill:url(#b);stroke-width:.264583" transform="translate(4.938 5)scale(3.77953)"/><path d="M470.244 320.07c-49.468 10.252-113.619 30.805-193.144 57.33-54 18.1-105 34.6-147.3 45.9-2.794.755-4.871 1.192-7.468 1.858a184.2 184.2 0 0 0 12.358 45.094c45.001-11.106 99.593-29.243 157.31-48.451 59.5-19.8 121-40.302 170.6-52.102a515 515 0 0 1 22.615-4.892 184.2 184.2 0 0 0-14.97-44.737" style="display:inline;fill:#fff;stroke-width:.264583"/><path d="M210.532 558.322a184.2 184.2 0 0 1-47.778-41.05c-.205.018-.42.045-.625.064l-.03-.035c-28.7 2.6-55.6 3.4-79.8 2.1-13-.7-23.898 9.398-24.398 22.298-.251 6.479 2.199 12.376 6.306 16.719l.03.03c.909.957 1.905 1.83 2.964 2.626.312.237.636.45.96.672a23.7 23.7 0 0 0 9.171 3.703q.623.11 1.256.186c.609.076 1.19.236 1.813.265 2.632.126 5.458.102 8.146.188 3.103.098 6.22.17 9.361.217 2.861.042 5.586.195 8.493.195 2.454 0 5.063-.148 7.552-.18 4.473-.058 8.995-.162 13.577-.322a666 666 0 0 0 14.408-.648q8.01-.452 16.197-1.096c4.443-.351 8.904-.74 13.416-1.176a822 822 0 0 0 17.024-1.832 855 855 0 0 0 13.718-1.723c2.535-.338 5.06-.66 7.608-1.023l-.106-.064c.244-.035.492-.079.737-.114M470.244 320.07a184.2 184.2 0 0 1 14.971 44.737c2.307-.449 4.774-.964 6.922-1.346.46-.082.95-.175 1.402-.254 8.431-1.467 15.606-2.42 21.668-2.986.337-.031.623-.046.953-.074 2.476-.219 4.761-.371 6.875-.471a124 124 0 0 1 2.233-.078 118 118 0 0 1 6.496-.032c1.156.033 2.211.089 3.213.157.581.04 1.211.068 1.744.117 1.402.13 2.694.282 3.78.46 4.5.8 7.199 5.4 5.699 9.7-2.2 6.3-7.2 12.5-10.6 16.3-1.513 1.697-3.207 3.407-4.947 5.118a136 136 0 0 1-2.926 2.756c-.818.756-1.667 1.513-2.527 2.271a160 160 0 0 1-3.94 3.377c-.12.099-.25.199-.371.297-3.5 2.862-7.29 5.735-11.357 8.613-.183.13-.356.258-.54.387a258 258 0 0 1-6.34 4.31c-.238.158-.482.316-.722.473a316 316 0 0 1-14.43 8.899l-.006.045c-.148.086-.317.171-.467.257a184.2 184.2 0 0 1-18.22 60.918c.051-.023.109-.046.16-.07-.092.181-.175.368-.268.549 45.7-21.2 80.8-44.4 101.4-67.3 18.4-20.7 26.1-41.7 22.7-62.6a48 48 0 0 0-2.547-9.58c-.147-.393-.315-.772-.473-1.159a44 44 0 0 0-1.103-2.449 43 43 0 0 0-1.91-3.514c-3.737-6.216-8.973-11.482-15.666-15.498-20.707-12.511-54.28-11.982-100.856-2.33M134.69 470.252a184.2 184.2 0 0 1-12.358-45.094c-30.123 7.731-47.841 9.971-57.232 9.143-5.07-.448-7.242-4.065-7.193-7.451.03-1.12.299-2.213.793-3.15.201-.405.458-.834.693-1.255.34-.614.731-1.254 1.142-1.904.284-.445.548-.88.866-1.342.359-.516.764-1.04 1.154-1.56a63 63 0 0 1 2.018-2.551 76 76 0 0 1 3.464-3.902c.09-.095.188-.19.278-.284 11.4-11.838 29.933-24.52 54.086-37.203l.017-.101q.056-.03.112-.057a184.2 184.2 0 0 1 20.527-60.775c-2.615 1.12-5.237 2.213-7.84 3.367-1.68.744-3.351 1.5-5.023 2.258a601 601 0 0 0-11.317 5.275 512 512 0 0 0-13.936 6.908 465 465 0 0 0-8.529 4.506 423 423 0 0 0-6.18 3.416 382 382 0 0 0-9.58 5.565c-1.774 1.069-3.488 2.159-5.22 3.246a309 309 0 0 0-7.068 4.572 276 276 0 0 0-5.965 4.086 244 244 0 0 0-7.352 5.385c-1.25.953-2.515 1.899-3.724 2.863a189 189 0 0 0-8.456 7.168c-1.443 1.297-2.886 2.593-4.25 3.908q-.345.33-.687.662a143 143 0 0 0-3.191 3.217c-.77.799-1.529 1.6-2.266 2.404a124 124 0 0 0-4.846 5.621c-.326.406-.64.812-.957 1.22a100 100 0 0 0-3.27 4.388c-11.124 16-14.085 30.596-13.325 42.66.004.07.014.135.02.205.15 2.258.428 4.426.81 6.498.044.245.097.479.144.72a58 58 0 0 0 1.281 5.2c.16.542.326 1.056.496 1.58a59 59 0 0 0 1.211 3.352c.162.413.296.885.463 1.285.15.365.36.66.518 1.015a42 42 0 0 0 1.885 3.707 39 39 0 0 0 3.261 4.823 37 37 0 0 0 3.407 3.754q.193.185.388.367c20.8 19.425 62.24 13.625 101.64 4.533 2.296-.532 4.744-1.177 7.095-1.75.507-.122.998-.227 1.506-.35l-.008-.02c.161-.039.336-.088.498-.128m261.502-229.398a184.2 184.2 0 0 1 48.3 40.019c3.473-.404 7.049-.876 10.428-1.22 22.92-2.353 43.567-3.262 60.88-2.653 12.9.5 23.6-9.5 24.1-22.3.002-.032-.002-.062-.001-.093l.002-.008-.002-.023a23.5 23.5 0 0 0-.272-4.437c-.03-.203-.077-.399-.113-.6a23 23 0 0 0-.92-3.457c-.15-.433-.32-.85-.494-1.272a23 23 0 0 0-2.348-4.27 23 23 0 0 0-1.154-1.519 23 23 0 0 0-2.887-2.93 23 23 0 0 0-3.494-2.452 23 23 0 0 0-4.053-1.82 23 23 0 0 0-4.595-1.044c-.66-.082-1.291-.249-1.97-.275a328 328 0 0 0-12.646-.233c-23.028.002-50.368 2.245-80.062 6.256a961 961 0 0 0-27.026 4.026c-.546.09-1.126.214-1.673.304z" style="display:inline;stroke-width:.264583;fill:#fff"/></g></svg>