<svg xmlns="http://www.w3.org/2000/svg" width="3839.1" height="1267.412" viewBox="0 0 1015.762 335.336"><path d="M64.453 237.15c-1.456 1.322-2.7 2.857-3.784 4.603-.503.873-.953 1.693-1.296 2.46-.37.768-.662 1.403-.874 1.932l-25.717 56.277-28.099-59.187c-.37-.794-.608-1.35-.767-1.64-.503-.583-.873-1.06-1.085-1.403-.952-1.217-1.878-2.25-2.831-3.043h17.145c-1.164.953-1.852 2.25-2.064 3.916 0 .714.133 1.482.397 2.275.265.794.476 1.456.609 1.958L33.655 286.6l16.642-39.185c.847-2.064 1.27-3.836 1.27-5.292q0-.873-.158-1.825c-.106-.635-.53-1.667-1.244-3.149zm22.78 62.044h-12.7c.212-.291.476-.661.767-1.085s.503-.952.662-1.508c.08-.291.106-.82.106-1.561v-52.361c0-1.376-.185-2.487-.53-3.36-.37-.873-.978-1.8-1.852-2.831l11.827-.98v57.389c0 1.455.106 2.54.318 3.307s.688 1.773 1.402 2.99m-1.72-76.465H74.348v-11.615h11.165zm55.192 58.817c0 6.43-2.672 11.324-8.016 14.711-4.34 2.752-9.499 4.101-15.505 4.101q-5.636 0-9.446-.476-3.81-.477-6.826-1.905l-1.614-9.657c1.508 1.746 3.837 3.175 6.985 4.339s6.588 1.746 10.345 1.746c4.128 0 7.435-.873 9.975-2.593 2.963-2.01 4.445-5.133 4.445-9.313 0-2.514-.74-4.71-2.222-6.562s-3.52-3.254-6.139-4.286l-7.91-3.255c-4.128-1.666-7.33-3.836-9.658-6.482-2.593-3.043-3.916-6.535-3.916-10.504 0-4.974 2.276-8.996 6.826-12.012 4.128-2.752 9.102-4.1 14.976-4.1 3.386 0 6.032.184 7.91.528q2.82.555 6.51 2.46v7.727c-1.509-1.482-3.599-2.567-6.245-3.281a31 31 0 0 0-8.07-1.058c-3.386 0-6.217.846-8.466 2.54s-3.36 4.021-3.36 6.985c0 2.249.661 4.127 1.958 5.688s3.148 2.831 5.53 3.837l7.805 3.148c5.344 2.17 9.048 4.577 11.06 7.197 2.063 2.672 3.068 6.165 3.068 10.477m65.961 17.436h-11.933v-7.7c-2.672 3.15-5.635 5.372-8.837 6.695q-4.842 1.984-11.43 1.984c-6.509 0-11.906-1.746-16.166-5.212-4.762-3.836-7.17-9.102-7.17-15.849v-34.395c0-1.165-.026-2.038-.106-2.646s-.264-1.297-.529-2.064q-.436-1.15-1.746-2.222l11.377-1.085v37.094c0 5.795 1.217 10.451 3.678 13.997 2.963 4.18 7.408 6.297 13.335 6.297 4.71 0 8.757-1.508 12.144-4.551s5.106-6.826 5.106-11.377v-33.973q0-.873-.158-1.666c-.106-.53-.344-1.297-.715-2.276-.37-.979-.794-1.799-1.296-2.434l11.827-1.402v54.45c0 1.086.026 2.091.053 3.044.026.952.264 1.905.714 2.937.212.502.476.952.767 1.296.37.344.715.688 1.085 1.058m57.917-.106-11.27.212v-5.741c-2.594 2.46-5.266 4.154-8.044 5.106-2.778.926-6.165 1.402-10.187 1.402-5.82 0-10.689-1.587-14.552-4.762-4.18-3.466-6.244-8.176-6.244-14.102 0-5.266 1.482-9.287 4.445-12.039q3.89-3.572 12.462-5l12.912-2.17c3.836-.582 6.323-1.535 7.487-2.884 1.164-1.35 1.747-3.228 1.747-5.689 0-3.095-1.456-5.741-4.393-7.858-2.936-2.143-6.588-3.201-11.006-3.201-3.757 0-7.197.37-10.293 1.085-3.122.714-5.794 2.063-8.016 4.021v-7.382q4.127-2.5 8.73-3.254c3.07-.503 6.35-.767 9.817-.767 8.52 0 14.764 1.772 18.653 5.318 3.678 3.334 5.53 8.387 5.53 15.187v33.417c0 1.667.185 3.228.529 4.71.317 1.481.9 2.936 1.693 4.391m-10.848-18.441v-14.764l-8.122 2.064-11.721 2.17c-3.334.661-6.033 1.958-8.07 3.915q-3.096 2.937-3.096 7.382c0 3.678 1.35 6.774 4.022 9.208 2.672 2.46 6.006 3.678 9.975 3.678 4.55 0 8.466-1.191 11.72-3.572 3.52-2.593 5.292-5.953 5.292-10.081m36.777 18.759h-13.784c.555-1.296.9-2.196 1.084-2.699.186-.502.344-1.164.503-2.01.185-.82.291-1.773.37-2.832s.106-2.116.106-3.201v-75.803q-.436-2.5-.714-4.286c-.185-1.191-.37-2.064-.582-2.646l-1.19-2.064 12.038-.979-.106 85.487c0 1.508.027 2.699.106 3.519.08.82.291 1.931.661 3.307.133.582.344 1.244.582 2.01.265.742.556 1.483.926 2.197m130.81.106-13.784.317c.661-.873 1.137-1.587 1.455-2.17a10 10 0 0 0 .767-1.746c.185-.582.318-1.27.37-2.063.08-.794.106-1.376.106-1.747-.079-.952-.079-1.693 0-2.275V255.22c0-3.836-1.56-6.985-4.656-9.445s-6.72-3.678-10.848-3.678-7.752 1.19-10.901 3.572c-3.149 2.381-4.71 5.503-4.71 9.34v35.03c0 1.244.027 2.196.106 2.937.08.715.212 1.535.424 2.434.211.9.396 1.509.555 1.8.159.211.582.873 1.297 1.958h-13.547c.37-.503.74-1.032 1.138-1.562.397-.555.608-1.137.608-1.799v-40.746c0-3.836-1.428-7.037-4.26-9.657-2.83-2.593-6.217-3.916-10.186-3.916-4.366 0-8.017 1.614-10.927 4.816-2.91 3.228-4.366 7.038-4.366 11.456v35.64c0 .767.185 1.72.53 2.884.158.502.581 1.481 1.296 2.936h-13.335c.582-.714 1.005-1.534 1.296-2.434s.45-1.852.45-2.884v-49.927c0-.502-.08-1.084-.212-1.746-.079-.211-.238-.74-.476-1.56-.265-.821-.582-1.535-.979-2.118a17 17 0 0 1-.82-1.296l11.827-1.085v6.932q7.342-8.572 18.256-8.572c4.022 0 7.488.661 10.372 1.958s5.662 3.466 8.308 6.508l2.17-1.852c2.38-2.09 4.815-3.598 7.275-4.498q3.69-1.35 8.573-1.349c7.805 0 13.89 1.852 18.23 5.583s6.508 8.758 6.508 15.134v35.851c0 .635.133 1.64.424 3.096.079.793.211 1.455.423 1.958s.661 1.296 1.243 2.38m63.898-36.009h-45.774l-.317 4.233c0 7.673 1.931 13.838 5.768 18.548 4.286 5.212 10.372 7.805 18.256 7.805q7.5 0 11.192-.873c3.413-.794 6.667-2.434 9.79-4.869l-1.64 7.911a34 34 0 0 1-8.018 3.043c-2.751.662-7.382.98-13.89.98-9.684 0-17.198-2.753-22.57-8.256-5.582-5.715-8.36-13.996-8.36-24.844 0-8.229 2.778-15.399 8.36-21.484 5.557-6.086 12.463-9.102 20.718-9.102 7.672 0 13.996 2.593 18.97 7.805 5.027 5.212 7.514 11.589 7.514 19.103m-8.996-6.191q-1.31-6.628-5.636-10.478c-2.884-2.566-6.773-3.836-11.615-3.836-4.419 0-8.255 1.323-11.563 3.969-3.28 2.645-5.397 6.085-6.35 10.345zM586.105 299.3l-13.785.317c.662-.873 1.138-1.587 1.455-2.17a10 10 0 0 0 .768-1.746c.185-.582.317-1.27.37-2.063.08-.794.106-1.376.106-1.747-.08-.952-.08-1.693 0-2.275V255.22c0-3.836-1.561-6.985-4.657-9.445-3.122-2.461-6.72-3.678-10.848-3.678-4.127 0-7.752 1.19-10.9 3.572-3.149 2.381-4.71 5.503-4.71 9.34v35.03c0 1.244.026 2.196.106 2.937.08.715.211 1.535.423 2.434s.397 1.509.556 1.8c.158.211.582.873 1.296 1.958H532.74c.37-.503.74-1.032 1.137-1.562.397-.555.609-1.137.609-1.799v-40.746c0-3.836-1.429-7.037-4.26-9.657-2.831-2.593-6.218-3.916-10.186-3.916-4.366 0-8.017 1.614-10.928 4.816-2.91 3.228-4.365 7.038-4.365 11.456v35.64c0 .767.185 1.72.555 2.884.159.502.582 1.481 1.297 2.936h-13.335c.582-.714 1.005-1.534 1.296-2.434s.45-1.852.45-2.884v-49.927c0-.502-.08-1.084-.212-1.746-.08-.211-.238-.74-.476-1.56-.265-.821-.582-1.535-.979-2.118a17 17 0 0 1-.82-1.296l11.827-1.085v6.932q7.342-8.572 18.256-8.572c4.022 0 7.488.661 10.372 1.958s5.662 3.466 8.308 6.508l2.17-1.852c2.38-2.09 4.815-3.598 7.275-4.498q3.69-1.35 8.573-1.349c7.805 0 13.89 1.852 18.23 5.583s6.508 8.758 6.508 15.134v35.851c0 .635.133 1.64.424 3.096.079.793.211 1.455.423 1.958.238.502.635 1.296 1.217 2.38m72.574-30.691c0 8.758-3.175 16.113-9.551 22.12-6.377 6.005-14.076 8.995-23.098 8.995-8.679 0-16.14-3.148-22.358-9.445-6.217-6.298-9.34-13.785-9.34-22.464 0-8.81 3.202-16.324 9.605-22.516 6.403-6.19 14.076-9.287 23.045-9.287 8.758 0 16.22 3.202 22.41 9.605 6.192 6.456 9.287 14.102 9.287 22.992m-9.445.106c0-6.932-2.064-12.912-6.192-17.886-4.339-5.292-9.79-7.91-16.298-7.91-6.668 0-12.17 2.513-16.484 7.54-4.312 5.027-6.455 11.006-6.455 17.938 0 6.589 2.17 12.357 6.535 17.357 4.339 5 9.71 7.488 16.086 7.488 6.377 0 11.774-2.434 16.193-7.276 4.392-4.842 6.615-10.584 6.615-17.251m48.921-25.162c-1.879-.503-3.44-.767-4.657-.767-2.01 0-4.207.661-6.508 1.958-2.329 1.296-4.207 3.413-5.636 6.297-1.455 2.884-2.17 6.112-2.17 9.684v27.384c0 2.09.265 4.075.82 5.927a23.7 23.7 0 0 0 2.223 5.159h-14.764c.662-.926 1.006-1.455 1.085-1.508.291-.423.556-1.111.767-2.011.212-.9.344-1.931.37-3.043.027-1.111.054-2.037.054-2.778V245.96c0-1.217-.08-2.17-.212-2.831-.08-.133-.29-.715-.661-1.746a14.6 14.6 0 0 0-2.487-4.234l12.461-1.296v9.207c.874-1.878 1.905-3.44 3.096-4.656 1.19-1.218 2.752-2.382 4.71-3.466a16.07 16.07 0 0 1 8.149-2.17c1.005 0 2.143.106 3.36.317zm66.172-6.402c-1.508 1.375-2.83 2.777-3.916 4.233-1.084 1.455-1.957 2.963-2.592 4.55l-32.12 78.978a134 134 0 0 0-2.065 4.869c-.158.503-.37 1.402-.661 2.699s-.476 2.249-.556 2.83l-7.778.027 17.462-43.788-21.934-46.7c-.08-.211-.344-.793-.82-1.772a32 32 0 0 0-1.35-2.46 15 15 0 0 0-1.402-1.932 30 30 0 0 0-1.402-1.535h13.123c-.29.873-.423 1.826-.423 2.858s.185 2.01.556 2.963c.661 1.323 1.137 2.328 1.428 3.07l16.484 36.856 14.42-38.047c.29-.926.423-2.196.423-3.784 0-1.164-.397-2.46-1.19-3.916zm91.864 61.832h-11.933v-7.7c-2.672 3.15-5.61 5.372-8.837 6.695q-4.842 1.984-11.43 1.984c-6.509 0-11.906-1.746-16.166-5.212-4.763-3.836-7.17-9.102-7.17-15.849v-34.395c0-1.165-.027-2.038-.106-2.646q-.12-.913-.556-2.064-.436-1.15-1.746-2.222l11.377-1.085v37.094c0 5.795 1.217 10.451 3.678 13.997 2.963 4.18 7.408 6.297 13.335 6.297 4.71 0 8.757-1.508 12.144-4.551s5.107-6.826 5.107-11.377v-33.973q0-.873-.16-1.666c-.105-.53-.343-1.297-.714-2.276s-.793-1.799-1.296-2.434l11.827-1.402v54.45c0 1.086.026 2.091.053 3.044.026.952.264 1.905.714 2.937.212.502.476.952.767 1.296.397.344.741.688 1.112 1.058m65.722 0h-13.44c.423-.582.846-1.164 1.243-1.746s.582-1.243.582-1.958v-38.92c0-4.34-1.852-7.832-5.583-10.478q-5.596-3.968-12.859-3.968c-4.841 0-8.757 1.64-11.773 4.868-3.017 3.254-4.498 7.197-4.498 11.827v30.903c0 1.588.053 2.752.158 3.466s.37 1.747.82 3.043c.133.503.583 1.482 1.297 2.937h-13.123c.661-.926 1.11-1.8 1.35-2.593a9 9 0 0 0 .37-2.593v-49.027c0-.503-.027-.98-.106-1.403-.08-.423-.291-1.243-.662-2.38l-1.19-3.361 10.953-.53.106 6.827c5.027-5.503 11.298-8.228 18.786-8.228 6.905 0 12.832 2.143 17.753 6.402s7.382 9.605 7.382 16.06v31.856c0 1.165.026 2.09.106 2.832.08.714.238 1.613.503 2.645.29 1.032.9 2.223 1.825 3.52m24.21.211h-12.7c.211-.291.476-.661.767-1.085.29-.423.503-.952.661-1.508.08-.291.106-.82.106-1.561v-52.361c0-1.376-.185-2.487-.556-3.36-.37-.873-.978-1.8-1.852-2.831l11.827-.98v57.389c0 1.455.106 2.54.318 3.307.211.767.688 1.773 1.429 2.99m-1.747-76.465h-11.165v-11.615h11.165zm44.9 76.147h-10.08c-5.213 0-9.076-2.196-11.616-6.614-1.005-1.667-1.64-3.52-1.905-5.583-.264-2.064-.37-4.656-.37-7.752v-35.904h-8.361v-6.191h8.36v-9.234q-.435-.874-.555-1.19a5.9 5.9 0 0 0-1.958-2.065l11.933-6.19v18.679h14.314v6.19H974.75v36.222c0 2.673.133 4.895.37 6.668.265 1.773.9 3.175 1.906 4.18 1.799 1.8 4.022 2.699 6.614 2.699h5.636zm7.541-157.48h-4.101v-1.402h9.763v1.402h-4.075v11.007h-1.587zm18.944-1.402v12.41h-1.64v-10.081l-3.387 10.08h-1.64l-3.387-10.08v10.08h-1.64v-12.409h2.275l3.572 10.557 3.571-10.557zM220.107 34.664c0-4.313-.82-9.896-2.725-12.25 12.488 0 39.475.079 51.038.079 26.617 0 66.78 14.79 66.78 64.585 0 36.962-28.363 64.505-66.78 64.505-8.44 0-40.587-.106-52.017-.106 2.328-4.313 3.704-10.186 3.704-14.817zm19.156 104.245c12.303 1.588 23.627 2.09 33.893.609 9.922-1.429 43.286-8.599 43.074-52.89-.185-41.963-26.14-51.568-46.09-52.732-10.425-.608-20.506-.211-30.877 1.588zm106.944-76.861 19.13-2.99v16.854c4.92-12.118 20.187-21.88 41.857-13.44l-5.08 13.334c-19.87-9.419-36.75-1.164-36.75 20.902v45.482c0 2.17.475 6.535 1.772 9.34h-19.87c2.01-2.46 2.936-7.17 2.936-9.34V76.574c-.026-4.763-1.005-12.145-3.995-14.526m604.679 9.128v58.103c0 18.256 12.568 23.124 21.908 23.124 3.942.185 9.525-.74 13.414-1.587l2.408-11.272c-4.551 1.747-9.816 2.144-12.991 2.144-5.848 0-10.081-3.89-10.081-9.949 0-5.45-.132-58.764 0-60.484h-.053c.767 0 12.885-.052 14.129 0 3.969.133 7.038.37 9.657 1.43l.027-10.61-23.734-.027.106-27.2-17.621 4.87c2.434 2.275 3.228 8.916 3.228 13.308 0 0-.027 8.122-.027 9.101-.793 0-9.736.053-11.218.053v8.97c1.508.026 10.848.026 10.848.026m-76.174 61.463c7.568 5.424 19.474 10.213 28.205 10.213 12.092 0 20.77-5.874 20.77-16.96 0-20.452-46.62-17.066-46.62-42.995 0-17.542 15.69-24.156 30.639-24.156 4.815 0 15.77 1.032 22.754 3.73l-.053 11.986c-6.191-5.292-15.663-6.588-21.88-6.588-9.896 0-17.331 4.921-17.331 14.552 0 14.129 46.567 13.308 46.567 42.307 0 18.759-16.246 27.516-34.158 27.516-8.705 0-17.806-1.534-25.374-3.704zM593.275 71.361c0-1.058.027-10.557.027-11.774l-19.368 2.99c2.328 2.434 4.128 10.08 4.128 15.531v63.447c0 2.17-.926 7.435-2.937 9.896h21.114c-2.011-2.461-2.937-7.726-2.937-9.896v-47.73c0-17.463 10.821-23.601 21.563-23.601 9.737 0 18.547 4.206 18.547 23.6v47.731c0 2.17-.926 7.435-2.936 9.896h20.478c-2.01-2.461-2.937-7.726-2.937-9.896v-47.73c0-19.368 11.96-23.601 21.723-23.601 9.736 0 19.923 6.111 19.923 23.6v47.731c0 2.17-.926 7.435-2.937 9.896h19.738c-2.01-2.461-2.937-7.726-2.937-9.896V84.75c0-9.684-9.895-25.215-32.967-25.215-13.44 0-21.193 5.98-27.067 11.113-5-5.847-13.15-11.324-26.247-11.324-12.752.026-20.293 7.487-23.97 12.038m-45.641 29.791c-2.752 2.593-8.546 4.63-14.526 5.424-15.69 2.064-29.316 4.657-29.316 19.95 0 9.075 9.896 16.219 17.727 16.219 20.744 0 26.115-14.976 26.115-26.776zm-49.001-37.438c7.91-3.175 20.69-4.63 28.707-4.63 20.479 0 34.078 10.213 34.078 33.972v39.344c0 7.302.106 14.208 2.7 19.05H547.66l-.582-10.372c-6.218 8.043-13.679 11.642-26.3 11.642-24.923 0-30.374-17.04-30.374-25.215 0-29.21 27.808-29.554 39.846-31.274 6.668-.952 15.267-2.83 16.563-9.102 2.143-10.345-5.265-18.124-20.399-18.124-11.113 0-20.214 3.387-27.808 7.938zm353.457 37.438c-2.752 2.593-8.546 4.63-14.526 5.424-15.69 2.064-29.29 4.657-29.29 19.95 0 9.075 9.896 16.219 17.728 16.219 20.743 0 26.114-14.976 26.114-26.776zm-48.975-37.438c7.911-3.175 20.717-4.63 28.708-4.63 20.452 0 34.051 10.213 34.051 33.972v39.344c0 7.302-1.587 14.049 2.7 19.05h-16.431l-.609-10.372c-6.244 8.043-13.653 11.642-26.3 11.642-24.923 0-30.374-17.04-30.374-25.215 0-29.21 27.808-29.554 39.846-31.274 6.694-.952 15.293-2.83 16.563-9.102 2.144-10.345-5.265-18.124-20.399-18.124-11.112 0-20.188 3.387-27.808 7.938zM785.6 75.78c-6.164-3.599-15.9-6.456-22.7-6.456-23.866 0-34.793 14.658-34.793 35.772 0 20.928 10.689 36.935 34.025 36.935 7.99 0 18.892-3.598 27.332-8.784l-3.44 15.399c-8.599 2.567-15.848 3.784-25.426 3.784-32.782 0-48.128-23.257-48.128-47.44 0-26.75 20.611-45.535 48.498-45.535 12.197 0 21.087 2.99 24.686 4.022zm-366.897 30.48c.027-2.223.318-4.313.556-6.35h63.42c0-21.802-10.9-40.481-36.724-40.481-26.829 0-42.704 20.981-42.704 47.704 0 24.183 17.728 45.773 48.049 45.773 9.604 0 17.621-2.355 26.3-5.398l3.042-15.478c-7.408 6.112-19.394 9.71-30.189 9.71-19.447-.026-31.856-14.075-31.75-35.48m2.54-16.034c2.064-10.61 11.88-21.431 23.627-21.431 17.966 0 23.151 14.023 23.151 21.431-.026 0-46.778.027-46.778 0"/><path d="M440.9 8.7c26.9 4 54.4 13.4 68.7 17.8 28.9 8.8 75.7 36.2 92.3 49.4 7.8 6.2 24.3 22.5 30.7 30.7 6.2 8 18.1 25.3 25.6 35.9 12.1 17.6 26.2 43.8 38.3 67.9 13.4 26.9 14.4 34.8 18.4 57.3l8.9 39.7c.8 6.9 1.5 32-13.3 35.6-14.8 3.5-28.4-3.3-34.9-13.2-8.9-13.8-7.7-33.4-17.8-55.8-7.9-18.1-11.3-44.4-23.8-63.4l-9.8-16.6c-17.4-26.8-35.6-48.1-46.4-62-9.6-11.7-27.4-27.5-44.2-38.8-15.6-9.5-40.9-20.3-59.1-25.8-5.8-1.9-30.6-9.2-46.1-11.2-21-2.3-34.7-5.7-54.6-7.1-24.6-1.7-36.4-3.9-68.2-.2-12.1 3.3-31.2 4.6-48.4 11.2-13.9 5.7-33.2 14.8-52.2 26-20.4 11.2-51.3 34-71.9 53.6-20.7 22.1-31 34-45.3 62-6.4 13.7-18.6 35.1-23.5 50.3-3.4 15.4-9.8 44-8.7 58 .5 24.9-1.7 30.1.2 50.5.1 18.4 6.1 31.1 8.6 46.1 2.1 10.4 12.1 46.2 18.2 54.6 28 60.3 65.5 86.4 107.4 105.2 11.8 6 48.7 15.9 59.4 18.7 18.2 3.3 42.2 5.5 65.2 5.9 24.3.5 57.7-2.8 78-10.3 22-8.1 47.4-19.6 47.1-19.2 10.2-5.6 25.8-14.8 30.6-18.8 9.4-6 15-8.3 20.5-14.1 8-7 12.9-11 18.9-19.7 3.4-4.9 8.8-12.4 13.9-19 5.6-9.2 8.8-18.9 14.3-30.9 6.6-17.8 5.5-16.9 6.8-35.7 1.2-5.5-.1-23.8-1.1-27-3-17-1.9-31.9-5.8-48.4-5.2-22.3-9.6-38.9-16.3-60.3-6.3-24-24.8-46.3-38.6-62.2-8.6-9.9-35.2-33.2-72.2-47.7-10.4-3.5-27.4-7.5-38.2-9.4-23.1-2.4-26.9-.9-49 .8-7.6 1.3-25.3 4.9-31.8 7.2-19 6.7-26 10.9-45.4 22.8-9 5.2-15.9 9.3-25.1 17.9-7.4 6.8-12.6 18.4-18.6 25.2-8.2 11.1-17.3 26-23.4 42-6.6 15.9-8.8 38.4-7.7 52.8 0 11 3 31.1 4.2 35.5s4.2 18.1 4.8 20.8c.7 2.7 7.8 17.2 8.8 19.3 4 8.5 11.7 20.8 24.6 33.3 9.6 10.4 28 20.7 41.8 24.6 12.4 6.8 33.3 8 44.8 8 5.7-.4 20.2-1.2 27.8-3 15.4-3.7 18.2-3.8 34.1-10.7 14.2-6.6 23.9-9 33.8-16.3 0 0 13.6-10.6 19.8-18.5 3.3-4.1 8.9-23.7 7.9-35.9-.5-16.6 2-26-1.5-39.7-3.4-13.7-9.2-29.5-15.5-39.3-6.4-9.9-20-19.5-35.6-27.2-8.7-4.3-29.4-8.3-38.1-9.3-16.6-2-30.5 5.6-39 14.2-7.3 8.4-21.8 25.8-16 43.7 5.2 16.3 11.5 33.6 35.9 32.3 16.8 3.5 36.1-1.5 42.6 1.4 9.6 5.4 13.2 17.4 9.8 25.8-2.4 16.1-17.9 18.1-34.4 19.3-14.8 2.5-52.3-4.8-60.5-10.9-5.5-3.3-14-11.2-19.9-16.5-4.3-3.9-9.1-12.4-12.4-18.5-4.1-7.5-6.1-13.1-7.2-18-1.2-5.8-3.8-17-2.8-28.1.7-7.5 2.7-10.7 4.7-21.7 4-12.5 8.9-21.9 16.9-32.7 10.4-10.5 23.6-23.1 36.4-28.9 11.4-6 31.2-8.2 49.2-7.1 14.6 1.4 31.9 3.2 43.3 7 19.5 7 25.1 8.4 41.2 18.5 13.5 8.4 27.2 23.8 34.8 36.6 16.2 33.1 25.5 69.9 18.7 119.6-.5 8.4-3.2 16.5-8.4 27.7-4.8 10.2-13.3 22.7-26 32-5.1 4.7-13.2 10.6-19.7 14-9.3 5.6-15.6 8.6-25.3 13.5-8.5 4-18.5 8.6-31.5 12.2-14.1 5.6-24.9 5.8-42.5 8.4-17.4 4.4-65 1.3-93.4-11.3-19.4-8.1-41.1-22.5-57.6-40-9.2-9.6-18.2-27.1-20.8-30.6-13.1-25.3-15.7-49-17.8-54-2.9-6.8-4.3-22-6.2-32.4-2.2-11.7-.8-60.6 10.9-91.9 6.6-12.5 10.5-23.6 15-29.5 8.1-11.5 12-18.7 18.8-26.8 10.4-12.5 17.9-22.8 27.9-30 25.7-20.9 47.1-31.9 76.2-45.7 36.1-14.7 46.9-11.7 81-11.1 15.4.1 37.7 5 48.7 7 20.4 2.7 32.1 7.6 45.9 11.5 14.8 4.1 23.3 10.7 35.4 18 10 6.4 21.7 15.2 29.4 22.4 19.8 14.5 29.4 29.8 41.5 48.6 2.2 3.1 16.6 33.9 18.9 42.4 1.1 4.3 4.3 16.6 6.4 23.8 2.7 11.4 4 21.5 7 34.4 2.7 13.3 7.3 38.3 9.2 61.7 3.3 20.1-2 61.1-5.2 73.6-7 23.5-19.3 52.1-43.5 79.7-10.3 12.2-21.2 21.7-33.9 32-9.7 8-18 12.8-32.9 21.7-20.3 12.1-35.7 19.8-64.2 31-11.6 3.7-26.2 8.6-41.9 11.8-30.5 2.8-61.8 5.5-96 1.4s-68.4-13.7-88.7-19.9C180 616 158.4 607 149.3 602c-5.9-3-25.7-16.5-29-19.8-13.6-8.4-43.9-36.9-63.5-63.5-4.3-8.2-19.7-32.9-23.1-43.7-8.9-18.3-15.1-40.4-18.7-49.8-3.7-22.2-10.2-36.4-12.8-58.5.3-5.2-1-17.5-2.2-24.2 1.7-15.1-.6-29.4 2.4-45.9 2.6-13.9 6.1-19.7 7-32.3.8-5.4 7.7-21.6 9.6-28.8 5.6-11.9 7-21.6 14.3-34.9 10.5-20.6 21.5-44.4 38.4-65.1 4.8-6.4 18.5-21.9 23.1-27.2 11-11 17.5-12.7 29.9-23.8 1.3-.8 9.5-10.2 18.2-13.4 14.3-11 26.7-15.1 40.3-25.2 27.3-13.6 37.2-18.2 64.3-29.5C263.3 11 285.2 7.9 293 4.9 308 4 323.1-.8 338.9.1c17.7-.2 35.5 1.1 53.2 2.7 12 .7 27.6 1.3 48.8 5.9" class="st2" style="fill:#f05100;fill-opacity:1" transform="translate(.026 .003)scale(.26458)"/></svg>