<svg xmlns="http://www.w3.org/2000/svg" width="3839.1" height="1267.412" viewBox="0 0 1015.762 335.336"><path d="M243.5 896.3c-5.5 5-10.2 10.8-14.3 17.4-1.9 3.3-3.6 6.4-4.9 9.3-1.4 2.9-2.5 5.3-3.3 7.3L123.8 1143 17.6 919.3c-1.4-3-2.3-5.1-2.9-6.2-1.9-2.2-3.3-4-4.1-5.3-3.6-4.6-7.1-8.5-10.7-11.5h64.8c-4.4 3.6-7 8.5-7.8 14.8 0 2.7.5 5.6 1.5 8.6s1.8 5.5 2.3 7.4l66.4 156.1L190 935.1c3.2-7.8 4.8-14.5 4.8-20q0-3.3-.6-6.9c-.4-2.4-2-6.3-4.7-11.9zm86.1 234.5h-48c.8-1.1 1.8-2.5 2.9-4.1s1.9-3.6 2.5-5.7c.3-1.1.4-3.1.4-5.9V917.2c0-5.2-.7-9.4-2-12.7-1.4-3.3-3.7-6.8-7-10.7l44.7-3.7V1107c0 5.5.4 9.6 1.2 12.5s2.6 6.7 5.3 11.3m-6.5-289h-42.2v-43.9h42.2zm208.6 222.3c0 24.3-10.1 42.8-30.3 55.6-16.4 10.4-35.9 15.5-58.6 15.5q-21.3 0-35.7-1.8t-25.8-7.2l-6.1-36.5c5.7 6.6 14.5 12 26.4 16.4s24.9 6.6 39.1 6.6c15.6 0 28.1-3.3 37.7-9.8 11.2-7.6 16.8-19.4 16.8-35.2 0-9.5-2.8-17.8-8.4-24.8s-13.3-12.3-23.2-16.2l-29.9-12.3c-15.6-6.3-27.7-14.5-36.5-24.5-9.8-11.5-14.8-24.7-14.8-39.7 0-18.8 8.6-34 25.8-45.4 15.6-10.4 34.4-15.5 56.6-15.5 12.8 0 22.8.7 29.9 2q10.65 2.1 24.6 9.3v29.2c-5.7-5.6-13.6-9.7-23.6-12.4s-20.2-4-30.5-4c-12.8 0-23.5 3.2-32 9.6s-12.7 15.2-12.7 26.4c0 8.5 2.5 15.6 7.4 21.5s11.9 10.7 20.9 14.5l29.5 11.9c20.2 8.2 34.2 17.3 41.8 27.2 7.8 10.1 11.6 23.3 11.6 39.6M781 1130h-45.1v-29.1c-10.1 11.9-21.3 20.3-33.4 25.3q-18.3 7.5-43.2 7.5c-24.6 0-45-6.6-61.1-19.7-18-14.5-27.1-34.4-27.1-59.9v-130c0-4.4-.1-7.7-.4-10s-1-4.9-2-7.8q-1.65-4.35-6.6-8.4l43-4.1V1034c0 21.9 4.6 39.5 13.9 52.9 11.2 15.8 28 23.8 50.4 23.8 17.8 0 33.1-5.7 45.9-17.2s19.3-25.8 19.3-43V922.1q0-3.3-.6-6.3c-.4-2-1.3-4.9-2.7-8.6s-3-6.8-4.9-9.2l44.7-5.3v205.8c0 4.1.1 7.9.2 11.5s1 7.2 2.7 11.1c.8 1.9 1.8 3.6 2.9 4.9 1.4 1.3 2.7 2.6 4.1 4m218.9-.4-42.6.8v-21.7c-9.8 9.3-19.9 15.7-30.4 19.3-10.5 3.5-23.3 5.3-38.5 5.3-22 0-40.4-6-55-18-15.8-13.1-23.6-30.9-23.6-53.3 0-19.9 5.6-35.1 16.8-45.5q14.7-13.5 47.1-18.9l48.8-8.2c14.5-2.2 23.9-5.8 28.3-10.9s6.6-12.2 6.6-21.5c0-11.7-5.5-21.7-16.6-29.7-11.1-8.1-24.9-12.1-41.6-12.1-14.2 0-27.2 1.4-38.9 4.1-11.8 2.7-21.9 7.8-30.3 15.2v-27.9q15.6-9.45 33-12.3c11.6-1.9 24-2.9 37.1-2.9 32.2 0 55.8 6.7 70.5 20.1 13.9 12.6 20.9 31.7 20.9 57.4v126.3c0 6.3.7 12.2 2 17.8 1.2 5.6 3.4 11.1 6.4 16.6m-41-69.7v-55.8l-30.7 7.8-44.3 8.2c-12.6 2.5-22.8 7.4-30.5 14.8q-11.7 11.1-11.7 27.9c0 13.9 5.1 25.6 15.2 34.8 10.1 9.3 22.7 13.9 37.7 13.9 17.2 0 32-4.5 44.3-13.5 13.3-9.8 20-22.5 20-38.1m139 70.9h-52.1c2.1-4.9 3.4-8.3 4.1-10.2s1.3-4.4 1.9-7.6c.7-3.1 1.1-6.7 1.4-10.7s.4-8 .4-12.1V803.7q-1.65-9.45-2.7-16.2c-.7-4.5-1.4-7.8-2.2-10q-2.85-4.95-4.5-7.8l45.5-3.7-.4 323.1c0 5.7.1 10.2.4 13.3s1.1 7.3 2.5 12.5c.5 2.2 1.3 4.7 2.2 7.6 1 2.8 2.1 5.6 3.5 8.3m494.4.4-52.1 1.2c2.5-3.3 4.3-6 5.5-8.2s2.2-4.4 2.9-6.6 1.2-4.8 1.4-7.8c.3-3 .4-5.2.4-6.6-.3-3.6-.3-6.4 0-8.6v-130c0-14.5-5.9-26.4-17.6-35.7s-25.4-13.9-41-13.9-29.3 4.5-41.2 13.5-17.8 20.8-17.8 35.3v132.4c0 4.7.1 8.3.4 11.1.3 2.7.8 5.8 1.6 9.2s1.5 5.7 2.1 6.8c.6.8 2.2 3.3 4.9 7.4h-51.2c1.4-1.9 2.8-3.9 4.3-5.9 1.5-2.1 2.3-4.3 2.3-6.8V964c0-14.5-5.4-26.6-16.1-36.5-10.7-9.8-23.5-14.8-38.5-14.8-16.5 0-30.3 6.1-41.3 18.2-11 12.2-16.5 26.6-16.5 43.3v134.7c0 2.9.7 6.5 2 10.9.6 1.9 2.2 5.6 4.9 11.1h-50.4c2.2-2.7 3.8-5.8 4.9-9.2s1.7-7 1.7-10.9V922.1c0-1.9-.3-4.1-.8-6.6-.3-.8-.9-2.8-1.8-5.9-1-3.1-2.2-5.8-3.7-8s-2.5-3.8-3.1-4.9l44.7-4.1v26.2q27.75-32.4 69-32.4c15.2 0 28.3 2.5 39.2 7.4s21.4 13.1 31.4 24.6l8.2-7c9-7.9 18.2-13.6 27.5-17q13.95-5.1 32.4-5.1c29.5 0 52.5 7 68.9 21.1s24.6 33.1 24.6 57.2v135.5c0 2.4.5 6.2 1.6 11.7.3 3 .8 5.5 1.6 7.4s2.5 4.9 4.7 9m241.5-136.1h-173l-1.2 16c0 29 7.3 52.3 21.8 70.1 16.2 19.7 39.2 29.5 69 29.5q28.35 0 42.3-3.3c12.9-3 25.2-9.2 37-18.4l-6.2 29.9c-9.8 5.2-19.9 9-30.3 11.5s-27.9 3.7-52.5 3.7c-36.6 0-65-10.4-85.3-31.2-21.1-21.6-31.6-52.9-31.6-93.9 0-31.1 10.5-58.2 31.6-81.2 21-23 47.1-34.4 78.3-34.4 29 0 52.9 9.8 71.7 29.5 19 19.7 28.4 43.8 28.4 72.2m-34-23.4q-4.95-25.05-21.3-39.6c-10.9-9.7-25.6-14.5-43.9-14.5-16.7 0-31.2 5-43.7 15-12.4 10-20.4 23-24 39.1zm415.3 159.5-52.1 1.2c2.5-3.3 4.3-6 5.5-8.2s2.2-4.4 2.9-6.6 1.2-4.8 1.4-7.8c.3-3 .4-5.2.4-6.6-.3-3.6-.3-6.4 0-8.6v-130c0-14.5-5.9-26.4-17.6-35.7-11.8-9.3-25.4-13.9-41-13.9s-29.3 4.5-41.2 13.5-17.8 20.8-17.8 35.3v132.4c0 4.7.1 8.3.4 11.1.3 2.7.8 5.8 1.6 9.2s1.5 5.7 2.1 6.8c.6.8 2.2 3.3 4.9 7.4h-51.2c1.4-1.9 2.8-3.9 4.3-5.9 1.5-2.1 2.3-4.3 2.3-6.8V964c0-14.5-5.4-26.6-16.1-36.5-10.7-9.8-23.5-14.8-38.5-14.8-16.5 0-30.3 6.1-41.3 18.2-11 12.2-16.5 26.6-16.5 43.3v134.7c0 2.9.7 6.5 2.1 10.9.6 1.9 2.2 5.6 4.9 11.1h-50.4c2.2-2.7 3.8-5.8 4.9-9.2s1.7-7 1.7-10.9V922.1c0-1.9-.3-4.1-.8-6.6-.3-.8-.9-2.8-1.8-5.9-1-3.1-2.2-5.8-3.7-8s-2.5-3.8-3.1-4.9l44.7-4.1v26.2q27.75-32.4 69-32.4c15.2 0 28.3 2.5 39.2 7.4s21.4 13.1 31.4 24.6l8.2-7c9-7.9 18.2-13.6 27.5-17q13.95-5.1 32.4-5.1c29.5 0 52.5 7 68.9 21.1s24.6 33.1 24.6 57.2v135.5c0 2.4.5 6.2 1.6 11.7.3 3 .8 5.5 1.6 7.4.9 1.9 2.4 4.9 4.6 9m274.3-116c0 33.1-12 60.9-36.1 83.6s-53.2 34-87.3 34c-32.8 0-61-11.9-84.5-35.7s-35.3-52.1-35.3-84.9c0-33.3 12.1-61.7 36.3-85.1s53.2-35.1 87.1-35.1c33.1 0 61.3 12.1 84.7 36.3 23.4 24.4 35.1 53.3 35.1 86.9m-35.7.4c0-26.2-7.8-48.8-23.4-67.6-16.4-20-37-29.9-61.6-29.9-25.2 0-46 9.5-62.3 28.5s-24.4 41.6-24.4 67.8c0 24.9 8.2 46.7 24.7 65.6 16.4 18.9 36.7 28.3 60.8 28.3s44.5-9.2 61.2-27.5c16.6-18.3 25-40 25-65.2m184.9-95.1c-7.1-1.9-13-2.9-17.6-2.9-7.6 0-15.9 2.5-24.6 7.4-8.8 4.9-15.9 12.9-21.3 23.8-5.5 10.9-8.2 23.1-8.2 36.6v103.5c0 7.9 1 15.4 3.1 22.4q3.15 10.5 8.4 19.5h-55.8c2.5-3.5 3.8-5.5 4.1-5.7 1.1-1.6 2.1-4.2 2.9-7.6s1.3-7.3 1.4-11.5.2-7.7.2-10.5V929.6c0-4.6-.3-8.2-.8-10.7-.3-.5-1.1-2.7-2.5-6.6-2.2-5.8-5.3-11.1-9.4-16l47.1-4.9v34.8c3.3-7.1 7.2-13 11.7-17.6s10.4-9 17.8-13.1c9.6-5.5 19.8-8.2 30.8-8.2 3.8 0 8.1.4 12.7 1.2zm250.1-24.2c-5.7 5.2-10.7 10.5-14.8 16s-7.4 11.2-9.8 17.2L2742.7 1228c-2.7 6-5.3 12.2-7.8 18.4-.6 1.9-1.4 5.3-2.5 10.2s-1.8 8.5-2.1 10.7l-29.4.1 66-165.5-82.9-176.5c-.3-.8-1.3-3-3.1-6.7q-2.7-5.4-5.1-9.3c-1.6-2.6-3.4-5.1-5.3-7.3s-3.7-4.2-5.3-5.8h49.6c-1.1 3.3-1.6 6.9-1.6 10.8s.7 7.6 2.1 11.2c2.5 5 4.3 8.8 5.4 11.6l62.3 139.3 54.5-143.8c1.1-3.5 1.6-8.3 1.6-14.3 0-4.4-1.5-9.3-4.5-14.8zm347.2 233.7h-45.1v-29.1c-10.1 11.9-21.2 20.3-33.4 25.3q-18.3 7.5-43.2 7.5c-24.6 0-45-6.6-61.1-19.7-18-14.5-27.1-34.4-27.1-59.9v-130c0-4.4-.1-7.7-.4-10q-.45-3.45-2.1-7.8t-6.6-8.4l43-4.1V1034c0 21.9 4.6 39.5 13.9 52.9 11.2 15.8 28 23.8 50.4 23.8 17.8 0 33.1-5.7 45.9-17.2s19.3-25.8 19.3-43V922.1q0-3.3-.6-6.3c-.4-2-1.3-4.9-2.7-8.6s-3-6.8-4.9-9.2l44.7-5.3v205.8c0 4.1.1 7.9.2 11.5s1 7.2 2.7 11.1c.8 1.9 1.8 3.6 2.9 4.9 1.5 1.3 2.8 2.6 4.2 4m248.4 0h-50.8c1.6-2.2 3.2-4.4 4.7-6.6s2.2-4.7 2.2-7.4V968.9c0-16.4-7-29.6-21.1-39.6q-21.15-15-48.6-15c-18.3 0-33.1 6.2-44.5 18.4-11.4 12.3-17 27.2-17 44.7v116.8c0 6 .2 10.4.6 13.1s1.4 6.6 3.1 11.5c.5 1.9 2.2 5.6 4.9 11.1h-49.6c2.5-3.5 4.2-6.8 5.1-9.8s1.4-6.3 1.4-9.8V925c0-1.9-.1-3.7-.4-5.3s-1.1-4.7-2.5-9l-4.5-12.7 41.4-2 .4 25.8c19-20.8 42.7-31.1 71-31.1 26.1 0 48.5 8.1 67.1 24.2s27.9 36.3 27.9 60.7V1096c0 4.4.1 7.9.4 10.7.3 2.7.9 6.1 1.9 10 1.1 3.9 3.4 8.4 6.9 13.3m91.5.8h-48c.8-1.1 1.8-2.5 2.9-4.1s1.9-3.6 2.5-5.7c.3-1.1.4-3.1.4-5.9V917.2c0-5.2-.7-9.4-2.1-12.7s-3.7-6.8-7-10.7l44.7-3.7V1107c0 5.5.4 9.6 1.2 12.5s2.6 6.7 5.4 11.3m-6.6-289H3527v-43.9h42.2zm169.7 287.8h-38.1c-19.7 0-34.3-8.3-43.9-25-3.8-6.3-6.2-13.3-7.2-21.1s-1.4-17.6-1.4-29.3V918.5h-31.6v-23.4h31.6v-34.9q-1.65-3.3-2.1-4.5c-1.9-3.3-4.4-5.9-7.4-7.8l45.1-23.4v70.6h54.1v23.4h-54v136.9c0 10.1.5 18.5 1.4 25.2 1 6.7 3.4 12 7.2 15.8 6.8 6.8 15.2 10.2 25 10.2h21.3zm28.5-595.2h-15.5v-5.3h36.9v5.3h-15.4V576h-6zm71.6-5.3V576h-6.2v-38.1L3820 576h-6.2l-12.8-38.1V576h-6.2v-46.9h8.6l13.5 39.9 13.5-39.9zM831.8 131c0-16.3-3.1-37.4-10.3-46.3 47.2 0 149.2.3 192.9.3 100.6 0 252.4 55.9 252.4 244.1 0 139.7-107.2 243.8-252.4 243.8-31.9 0-153.4-.4-196.6-.4 8.8-16.3 14-38.5 14-56zm72.4 394c46.5 6 89.3 7.9 128.1 2.3 37.5-5.4 163.6-32.5 162.8-199.9-.7-158.6-98.8-194.9-174.2-199.3-39.4-2.3-77.5-.8-116.7 6zm404.2-290.5 72.3-11.3v63.7c18.6-45.8 76.3-82.7 158.2-50.8l-19.2 50.4c-75.1-35.6-138.9-4.4-138.9 79v171.9c0 8.2 1.8 24.7 6.7 35.3h-75.1c7.6-9.3 11.1-27.1 11.1-35.3v-248c-.1-18-3.8-45.9-15.1-54.9M3593.8 269v219.6c0 69 47.5 87.4 82.8 87.4 14.9.7 36-2.8 50.7-6l9.1-42.6c-17.2 6.6-37.1 8.1-49.1 8.1-22.1 0-38.1-14.7-38.1-37.6 0-20.6-.5-222.1 0-228.6h-.2c2.9 0 48.7-.2 53.4 0 15 .5 26.6 1.4 36.5 5.4l.1-40.1s-87.9-.1-89.7-.1l.4-102.8-66.6 18.4c9.2 8.6 12.2 33.7 12.2 50.3 0 0-.1 30.7-.1 34.4-3 0-36.8.2-42.4.2v33.9c5.7.1 41 .1 41 .1m-287.9 232.3c28.6 20.5 73.6 38.6 106.6 38.6 45.7 0 78.5-22.2 78.5-64.1 0-77.3-176.2-64.5-176.2-162.5 0-66.3 59.3-91.3 115.8-91.3 18.2 0 59.6 3.9 86 14.1l-.2 45.3c-23.4-20-59.2-24.9-82.7-24.9-37.4 0-65.5 18.6-65.5 55 0 53.4 176 50.3 176 159.9 0 70.9-61.4 104-129.1 104-32.9 0-67.3-5.8-95.9-14zM2242.2 269.7c0-4 .1-39.9.1-44.5l-73.2 11.3c8.8 9.2 15.6 38.1 15.6 58.7V535c0 8.2-3.5 28.1-11.1 37.4h79.8c-7.6-9.3-11.1-29.2-11.1-37.4V354.6c0-66 40.9-89.2 81.5-89.2 36.8 0 70.1 15.9 70.1 89.2V535c0 8.2-3.5 28.1-11.1 37.4h77.4c-7.6-9.3-11.1-29.2-11.1-37.4V354.6c0-73.2 45.2-89.2 82.1-89.2 36.8 0 75.3 23.1 75.3 89.2V535c0 8.2-3.5 28.1-11.1 37.4h74.6c-7.6-9.3-11.1-29.2-11.1-37.4V320.3c0-36.6-37.4-95.3-124.6-95.3-50.8 0-80.1 22.6-102.3 42-18.9-22.1-49.7-42.8-99.2-42.8-48.2.1-76.7 28.3-90.6 45.5m-172.5 112.6c-10.4 9.8-32.3 17.5-54.9 20.5-59.3 7.8-110.8 17.6-110.8 75.4 0 34.3 37.4 61.3 67 61.3 78.4 0 98.7-56.6 98.7-101.2zm-185.2-141.5c29.9-12 78.2-17.5 108.5-17.5 77.4 0 128.8 38.6 128.8 128.4v148.7c0 27.6.4 53.7 10.2 72h-62.2l-2.2-39.2c-23.5 30.4-51.7 44-99.4 44-94.2 0-114.8-64.4-114.8-95.3 0-110.4 105.1-111.7 150.6-118.2 25.2-3.6 57.7-10.7 62.6-34.4 8.1-39.1-19.9-68.5-77.1-68.5-42 0-76.4 12.8-105.1 30zm1335.9 141.5c-10.4 9.8-32.3 17.5-54.9 20.5-59.3 7.8-110.7 17.6-110.7 75.4 0 34.3 37.4 61.3 67 61.3 78.4 0 98.7-56.6 98.7-101.2zm-185.1-141.5c29.9-12 78.3-17.5 108.5-17.5 77.3 0 128.7 38.6 128.7 128.4v148.7c0 27.6-6 53.1 10.2 72h-62.1l-2.3-39.2c-23.6 30.4-51.6 44-99.4 44-94.2 0-114.8-64.4-114.8-95.3 0-110.4 105.1-111.7 150.6-118.2 25.3-3.6 57.8-10.7 62.6-34.4 8.1-39.1-19.9-68.5-77.1-68.5-42 0-76.3 12.8-105.1 30zm-66.2 45.6c-23.3-13.6-60.1-24.4-85.8-24.4-90.2 0-131.5 55.4-131.5 135.2 0 79.1 40.4 139.6 128.6 139.6 30.2 0 71.4-13.6 103.3-33.2l-13 58.2c-32.5 9.7-59.9 14.3-96.1 14.3-123.9 0-181.9-87.9-181.9-179.3 0-101.1 77.9-172.1 183.3-172.1 46.1 0 79.7 11.3 93.3 15.2zM1582.4 401.6c.1-8.4 1.2-16.3 2.1-24h239.7c0-82.4-41.2-153-138.8-153-101.4 0-161.4 79.3-161.4 180.3 0 91.4 67 173 181.6 173 36.3 0 66.6-8.9 99.4-20.4l11.5-58.5c-28 23.1-73.3 36.7-114.1 36.7-73.5-.1-120.4-53.2-120-134.1m9.6-60.6c7.8-40.1 44.9-81 89.3-81 67.9 0 87.5 53 87.5 81-.1 0-176.8.1-176.8 0" style="fill:#fff" transform="translate(.026 .003)scale(.26458)"/><path d="M440.9 8.7c26.9 4 54.4 13.4 68.7 17.8 28.9 8.8 75.7 36.2 92.3 49.4 7.8 6.2 24.3 22.5 30.7 30.7 6.2 8 18.1 25.3 25.6 35.9 12.1 17.6 26.2 43.8 38.3 67.9 13.4 26.9 14.4 34.8 18.4 57.3l8.9 39.7c.8 6.9 1.5 32-13.3 35.6-14.8 3.5-28.4-3.3-34.9-13.2-8.9-13.8-7.7-33.4-17.8-55.8-7.9-18.1-11.3-44.4-23.8-63.4l-9.8-16.6c-17.4-26.8-35.6-48.1-46.4-62-9.6-11.7-27.4-27.5-44.2-38.8-15.6-9.5-40.9-20.3-59.1-25.8-5.8-1.9-30.6-9.2-46.1-11.2-21-2.3-34.7-5.7-54.6-7.1-24.6-1.7-36.4-3.9-68.2-.2-12.1 3.3-31.2 4.6-48.4 11.2-13.9 5.7-33.2 14.8-52.2 26-20.4 11.2-51.3 34-71.9 53.6-20.7 22.1-31 34-45.3 62-6.4 13.7-18.6 35.1-23.5 50.3-3.4 15.4-9.8 44-8.7 58 .5 24.9-1.7 30.1.2 50.5.1 18.4 6.1 31.1 8.6 46.1 2.1 10.4 12.1 46.2 18.2 54.6 28 60.3 65.5 86.4 107.4 105.2 11.8 6 48.7 15.9 59.4 18.7 18.2 3.3 42.2 5.5 65.2 5.9 24.3.5 57.7-2.8 78-10.3 22-8.1 47.4-19.6 47.1-19.2 10.2-5.6 25.8-14.8 30.6-18.8 9.4-6 15-8.3 20.5-14.1 8-7 12.9-11 18.9-19.7 3.4-4.9 8.8-12.4 13.9-19 5.6-9.2 8.8-18.9 14.3-30.9 6.6-17.8 5.5-16.9 6.8-35.7 1.2-5.5-.1-23.8-1.1-27-3-17-1.9-31.9-5.8-48.4-5.2-22.3-9.6-38.9-16.3-60.3-6.3-24-24.8-46.3-38.6-62.2-8.6-9.9-35.2-33.2-72.2-47.7-10.4-3.5-27.4-7.5-38.2-9.4-23.1-2.4-26.9-.9-49 .8-7.6 1.3-25.3 4.9-31.8 7.2-19 6.7-26 10.9-45.4 22.8-9 5.2-15.9 9.3-25.1 17.9-7.4 6.8-12.6 18.4-18.6 25.2-8.2 11.1-17.3 26-23.4 42-6.6 15.9-8.8 38.4-7.7 52.8 0 11 3 31.1 4.2 35.5s4.2 18.1 4.8 20.8c.7 2.7 7.8 17.2 8.8 19.3 4 8.5 11.7 20.8 24.6 33.3 9.6 10.4 28 20.7 41.8 24.6 12.4 6.8 33.3 8 44.8 8 5.7-.4 20.2-1.2 27.8-3 15.4-3.7 18.2-3.8 34.1-10.7 14.2-6.6 23.9-9 33.8-16.3 0 0 13.6-10.6 19.8-18.5 3.3-4.1 8.9-23.7 7.9-35.9-.5-16.6 2-26-1.5-39.7-3.4-13.7-9.2-29.5-15.5-39.3-6.4-9.9-20-19.5-35.6-27.2-8.7-4.3-29.4-8.3-38.1-9.3-16.6-2-30.5 5.6-39 14.2-7.3 8.4-21.8 25.8-16 43.7 5.2 16.3 11.5 33.6 35.9 32.3 16.8 3.5 36.1-1.5 42.6 1.4 9.6 5.4 13.2 17.4 9.8 25.8-2.4 16.1-17.9 18.1-34.4 19.3-14.8 2.5-52.3-4.8-60.5-10.9-5.5-3.3-14-11.2-19.9-16.5-4.3-3.9-9.1-12.4-12.4-18.5-4.1-7.5-6.1-13.1-7.2-18-1.2-5.8-3.8-17-2.8-28.1.7-7.5 2.7-10.7 4.7-21.7 4-12.5 8.9-21.9 16.9-32.7 10.4-10.5 23.6-23.1 36.4-28.9 11.4-6 31.2-8.2 49.2-7.1 14.6 1.4 31.9 3.2 43.3 7 19.5 7 25.1 8.4 41.2 18.5 13.5 8.4 27.2 23.8 34.8 36.6 16.2 33.1 25.5 69.9 18.7 119.6-.5 8.4-3.2 16.5-8.4 27.7-4.8 10.2-13.3 22.7-26 32-5.1 4.7-13.2 10.6-19.7 14-9.3 5.6-15.6 8.6-25.3 13.5-8.5 4-18.5 8.6-31.5 12.2-14.1 5.6-24.9 5.8-42.5 8.4-17.4 4.4-65 1.3-93.4-11.3-19.4-8.1-41.1-22.5-57.6-40-9.2-9.6-18.2-27.1-20.8-30.6-13.1-25.3-15.7-49-17.8-54-2.9-6.8-4.3-22-6.2-32.4-2.2-11.7-.8-60.6 10.9-91.9 6.6-12.5 10.5-23.6 15-29.5 8.1-11.5 12-18.7 18.8-26.8 10.4-12.5 17.9-22.8 27.9-30 25.7-20.9 47.1-31.9 76.2-45.7 36.1-14.7 46.9-11.7 81-11.1 15.4.1 37.7 5 48.7 7 20.4 2.7 32.1 7.6 45.9 11.5 14.8 4.1 23.3 10.7 35.4 18 10 6.4 21.7 15.2 29.4 22.4 19.8 14.5 29.4 29.8 41.5 48.6 2.2 3.1 16.6 33.9 18.9 42.4 1.1 4.3 4.3 16.6 6.4 23.8 2.7 11.4 4 21.5 7 34.4 2.7 13.3 7.3 38.3 9.2 61.7 3.3 20.1-2 61.1-5.2 73.6-7 23.5-19.3 52.1-43.5 79.7-10.3 12.2-21.2 21.7-33.9 32-9.7 8-18 12.8-32.9 21.7-20.3 12.1-35.7 19.8-64.2 31-11.6 3.7-26.2 8.6-41.9 11.8-30.5 2.8-61.8 5.5-96 1.4s-68.4-13.7-88.7-19.9C180 616 158.4 607 149.3 602c-5.9-3-25.7-16.5-29-19.8-13.6-8.4-43.9-36.9-63.5-63.5-4.3-8.2-19.7-32.9-23.1-43.7-8.9-18.3-15.1-40.4-18.7-49.8-3.7-22.2-10.2-36.4-12.8-58.5.3-5.2-1-17.5-2.2-24.2 1.7-15.1-.6-29.4 2.4-45.9 2.6-13.9 6.1-19.7 7-32.3.8-5.4 7.7-21.6 9.6-28.8 5.6-11.9 7-21.6 14.3-34.9 10.5-20.6 21.5-44.4 38.4-65.1 4.8-6.4 18.5-21.9 23.1-27.2 11-11 17.5-12.7 29.9-23.8 1.3-.8 9.5-10.2 18.2-13.4 14.3-11 26.7-15.1 40.3-25.2 27.3-13.6 37.2-18.2 64.3-29.5C263.3 11 285.2 7.9 293 4.9 308 4 323.1-.8 338.9.1c17.7-.2 35.5 1.1 53.2 2.7 12 .7 27.6 1.3 48.8 5.9" class="st2" style="fill:#f05100;fill-opacity:1" transform="translate(.026 .003)scale(.26458)"/></svg>