<svg xmlns="http://www.w3.org/2000/svg" width="3839" height="623.368" viewBox="0 0 1015.735 164.933"><path d="M134.54 118.42c42.52 0 48.181 18.361 48.181 24.923 0 7.7-12.012 21.59-48.18 21.59-37.412 0-46.514-15.664-46.514-21.59 0-6.244 3.175-24.924 46.514-24.924" class="st0" style="clip-rule:evenodd;fill:#fddb00;fill-rule:evenodd;stroke-width:.264583"/><path d="M44.847 75.24c42.518 0 46.514 20.32 46.514 24.923 0 4.604-8.679 21.59-44.847 21.59C9.102 121.753 0 104.74 0 100.136S1.508 75.24 44.847 75.24" class="st1" style="clip-rule:evenodd;fill:#73b744;fill-rule:evenodd;stroke-width:.264583"/><path d="M146.182 86.854s.688-37.094 34.872-41.54c34.185-4.444 48.63 24.104 49.821 29.899 11.086 53.842-38.205 56.568-38.205 56.488-3.096-47.307-46.488-44.847-46.488-44.847" class="st2" style="clip-rule:evenodd;fill:#e11f26;fill-rule:evenodd;stroke-width:.264583"/><path d="M59.796 42.007S60.484 4.913 94.668.467c34.184-4.444 48.63 24.104 49.821 29.899 11.086 53.869-38.18 56.594-38.18 56.488-3.121-47.307-46.513-44.847-46.513-44.847" class="st3" style="clip-rule:evenodd;fill:#25a4dd;fill-rule:evenodd;stroke-width:.264583"/><path d="M541.92 97.729v8.625h35.083v16.113H541.92v8.626h41.803V97.729h-6.72zm-85.91 14.949h29.527c0 3.254-.582 4.418-3.44 4.418h-11.509v3.255c0 1.534-.37 3.069-4.022 3.069h-8.44v7.673h9.208c4.418 0 7.672-3.07 7.672-7.091v-.582h7.091c4.974 0 8.626-3.652 8.626-9.023v-8.81h-34.714zm39.29-8.07 41.804 4.604v-7.488L495.3 97.12zm0 10.954 41.804 4.603v-7.276l-41.804-4.603zm0 10.927 41.804 4.604v-7.488L495.3 119zm-207.857-16.88v-11.88H252.73v8.625h28.39v3.254c0 7.859-7.091 12.462-18.97 13.044h-10.743v8.626h11.695c7.487 0 13.414-3.07 17.462-7.091l4.79 7.09h10.16l-10.558-13.043c1.535-2.884 2.487-5.953 2.487-8.626m300.858-3.255h25.506V97.73H588.3zm35.878 1.905c0 11.324-5.557 14.182-14.764 14.182h-21.088v8.625h23.575c12.647 0 18.018-8.255 18.018-18.018v-15.53h-5.741zm-287.259 2.117c0 7.276-3.069 12.276-13.81 12.276v8.626c18.414 0 19.949-11.695 19.949-19.553V97.73h-6.324zm18.019 0V97.729h-6.51v13.996c0 7.673 2.117 19.553 20.506 19.553v-8.626c-10.927-.211-13.996-5-13.996-12.276m56.964-4.022h33.761v5.371c0 8.81-5.741 10.742-18.018 10.742h-13.23v8.626h18.416c9.022 0 18.97-7.276 18.97-18.415V97.543h-40.084v8.811zm-119.67 11.695h30.294v-7.488h-30.295zm78.051 0h30.48v-7.488h-30.48zm-.767-14.976c0 3.44-2.884 6.324-6.323 6.324s-6.324-2.884-6.324-6.324 2.884-6.323 6.324-6.323c3.65 0 6.323 2.884 6.323 6.323m-3.44 0c0-1.534-1.349-2.884-2.883-2.884s-2.884 1.35-2.884 2.884c0 1.535 1.349 2.884 2.884 2.884 1.534-.185 2.884-1.35 2.884-2.884m269.981-4.207h1.905v5.371h1.35v-5.37h1.905v-1.138h-5.371v1.137zm9.975 4.022-1.138-5.186h-2.116v6.509h1.35v-5.556l1.137 5.556h1.35l1.137-5.556v5.556h1.35v-6.509h-1.906zM264.821 61.851h21.485c7.858 0 8.043 11.695 0 11.695h-32.227v8.625h41.62c16.695 0 16.88-27.993-.768-27.993h-21.67c-8.625 0-8.625-10.742 0-10.742h30.878v-8.625h-39.503c-18.415 0-17.833 27.04.185 27.04m49.08-27.04v29.924c0 10.927 7.859 17.25 16.114 17.25h36.063V34.812h-13.415v38.55h-15.716c-6.906 0-10.345-5.372-10.345-9.578V34.81Zm95.7 29.739H388.33V81.8h-13.414V33.859H409.6c23.972 0 24.924 30.692 0 30.692m-4.418-22.066h-16.88v14.578h16.88c10.742-.185 10.557-14.578 0-14.578m77.867 29.924h-25.876c-6.72 0-9.578-8.043-8.811-10.742h34.898V53.04h-34.898c-.767-2.884 1.905-10.743 8.625-10.743h26.088v-8.625H454.5c-27.41 0-27.225 48.128 0 48.128h28.575v-9.393Zm123.48-29.924h23.205v-8.626h-28.39c-11.51 0-20.902 7.488-20.902 19.368V82.17h13.414V62.618h35.851v-9.577h-35.666c.027-7.488 4.234-10.557 12.489-10.557m215.345-8.626c-28.178 0-31.644 48.128 3.255 48.128h23.97v-9.578h-24.156c-13.414 0-13.414-30.11 0-30.11h24.157v-8.625zm-73.051 0h-50.43v48.128h13.415V42.298h14.578v39.688h12.462V42.298h3.836c6.72 0 12.647 3.07 12.647 10.928v28.76h13.415V50.924c.212-11.695-6.906-17.066-19.923-17.066m28.76 48.128h14.578V33.858h-14.578zM914.69 58.015c0 13.229-7.858 25.109-30.877 25.109s-30.877-11.88-30.877-25.11c0-13.625 8.255-24.156 30.877-24.156s30.877 10.557 30.877 24.157m-14.393-.186c0-12.647-4.79-16.483-16.484-16.483s-16.483 3.651-16.483 16.483c0 12.092 4.603 16.484 16.483 16.484s16.484-4.392 16.484-16.484m-210.74-1.72v25.876h-37.572c-21.67 0-22.251-29.712-.185-29.712h23.39c0-3.069-3.07-9.79-11.325-9.79H638.36v-8.625h30.11c11.51.185 21.087 6.324 21.087 22.252m-14.368 4.604h-19.367c-7.858 0-7.673 11.695 0 11.695h19.367v-5.953zM505.275 81.986h-13.626V33.858h35.11c24.342 0 26.643 24.342 7.09 29.157l15.347 19.183h-15.928l-12.277-18.23H505.46zm0-27.04h19.552c8.626 0 8.811-12.648 0-12.648h-19.552zm467.704-21.088h-50.43v48.128h13.415V42.298h14.578v39.688h12.462V42.298h3.836c6.72 0 12.647 3.07 12.647 10.928v28.76h13.415V50.924c.212-11.695-6.694-17.066-19.923-17.066m26.828 1.35h2.488v6.508h1.72v-6.508h2.486v-1.35h-6.72zm13.441-1.535-1.35 6.324-1.534-6.324h-2.487v8.043h1.535v-6.72l1.534 6.72h1.72l1.535-6.72v6.72h1.534v-8.043z" style="stroke-width:.264583;fill:#fff"/></svg>