<svg xmlns="http://www.w3.org/2000/svg" width="64" height="64" data-name="Layer 1" viewBox="0 0 64 64"><path d="M36.242 3.844s-2.029-.22-4.242-.22-4.242.22-4.242.22-4.685.208-5.037 4.18l.28 8.59a4.4 4.4 0 0 0 .961 2.599l6.174 6.824a1.2 1.2 0 0 0 .743.439 7 7 0 0 0 1.121.092 7 7 0 0 0 1.25-.117.88.88 0 0 0 .532-.315l6.1-6.722a5.1 5.1 0 0 0 1.12-3.035l.274-8.346c-.444-3.98-5.034-4.189-5.034-4.189Zm-8.484 56.31s2.029.221 4.242.221 4.242-.22 4.242-.22 4.685-.207 5.037-4.18l-.281-8.588a4.4 4.4 0 0 0-.96-2.6l-6.174-6.824a1.2 1.2 0 0 0-.736-.432 7 7 0 0 0-1.122-.094 7 7 0 0 0-1.249.118.88.88 0 0 0-.533.315l-6.1 6.722a5.1 5.1 0 0 0-1.119 3.035l-.274 8.347c.437 3.972 5.027 4.18 5.027 4.18zM3.844 27.758s-.22 2.029-.22 4.242.22 4.24.22 4.24.208 4.687 4.18 5.038l8.59-.282a4.4 4.4 0 0 0 2.599-.96l6.824-6.174a1.2 1.2 0 0 0 .439-.74A7 7 0 0 0 26.568 32a7 7 0 0 0-.117-1.25.88.88 0 0 0-.315-.532l-6.722-6.1a5.1 5.1 0 0 0-3.035-1.12l-8.346-.274c-3.98.444-4.189 5.034-4.189 5.034z" style="color:#000;fill:#fff;stroke:#fff;stroke-width:3.24956px;stroke-miterlimit:10;-inkscape-stroke:none"/><path d="M60.156 36.24s.22-2.027.22-4.24-.22-4.242-.22-4.242-.208-4.685-4.18-5.037l-8.59.28a4.4 4.4 0 0 0-2.599.961l-6.824 6.174a1.2 1.2 0 0 0-.432.736 7 7 0 0 0-.093 1.122 7 7 0 0 0 .117 1.249.88.88 0 0 0 .315.533l6.722 6.1a5.1 5.1 0 0 0 3.035 1.119l8.347.274c3.972-.437 4.182-5.028 4.182-5.028z" style="color:#000;display:inline;fill:#fff;stroke:#fff;stroke-width:3.24956px;stroke-miterlimit:10;-inkscape-stroke:none"/></svg>