<svg xmlns="http://www.w3.org/2000/svg" width="30" height="24" viewBox="0 0 30 24"><g style="stroke-width:8.97442;stroke-dasharray:none"><path d="M-209.388-1750.792c52.636-12.814 128.486-35.728 175.005-27.932l-4.632-29.455c-14.151-12.243-118.486-8.14-168.024 31.212-.672 12.642-.716 22.469-2.35 26.175" style="fill:#000;stroke:#000;stroke-width:8.97442;stroke-linecap:round;stroke-linejoin:round;stroke-dasharray:none;stroke-opacity:1" transform="translate(8.692 43.634)scale(.0226)"/><path d="M-27.453-1448.792c95.567-124.69 76.87-66.132 30.851-309.627-29.519-46.663-159.346-1.822-236.11 12.449-158.405 260.772-194.202 796.038-30.897 786.786 49.588-11.208 34.308-226.252 236.156-489.608" style="fill:#fff;stroke:#000;stroke-width:8.97442;stroke-linecap:round;stroke-linejoin:round;stroke-dasharray:none;stroke-opacity:1" transform="translate(8.692 43.634)scale(.0226)"/><path d="M-193.134-949.71c23.405 21.714 75.814-187.918 129.835-276.38-16.34-39.962-37.964-54.01-129.835 276.38" style="fill:#fff;stroke:#000;stroke-width:8.97442;stroke-linecap:round;stroke-linejoin:round;stroke-dasharray:none;stroke-opacity:1" transform="translate(8.692 43.634)scale(.0226)"/></g><g style="fill:#000;stroke-width:8.97442;stroke-dasharray:none"><path d="M436.649 58.512c-1.202.16-1.872.897-2.675 1.737-.612.64-1.243 1.261-1.847 1.91a46 46 0 0 1-1.843 1.875c-.716.685-1.398 1.321-1.838 2.23-.588 1.215-.358 2.79-.39 4.105-.024.963-.054 1.932-.096 2.895-.042.96-.114 1.91.047 2.865a7.36 7.36 0 0 0 1.713 3.627c.6.683 1.414 1.237 2.314 1.418.812.164 1.69.078 2.514.078h3.883c1.205 0 2.465.104 3.66-.072a5.7 5.7 0 0 0 1.59-.462c.424-.2.824-.44 1.178-.748 1.834-1.595 1.75-4.196 1.75-6.42 0-1.518.036-3.032-.03-4.55-.046-1.053-.048-2.05-.519-3.023-.437-.903-1.108-1.562-1.806-2.26-.78-.78-1.575-1.543-2.355-2.323-.514-.515-1.038-1.02-1.559-1.528-.43-.419-.813-.849-1.368-1.103-.68-.312-1.588-.349-2.323-.251m.159 1.746c.424-.055 1.036-.078 1.432.103.376.171.668.556.954.842.526.526 1.067 1.035 1.592 1.56.727.727 1.469 1.437 2.195 2.164.607.606 1.192 1.18 1.55 1.973.298.662.219 1.396.267 2.1.103 1.5.067 3.017.03 4.52-.048 1.929.268 4.653-1.878 5.604a4.5 4.5 0 0 1-1.178.332c-.87.126-1.794.046-2.673.046h-4.774c-.665 0-1.46.117-2.1-.088-.526-.167-.943-.547-1.29-.962-1.289-1.538-1.276-3.367-1.193-5.251.043-.985.072-1.975.096-2.96.015-.616.032-1.23.032-1.846 0-.454-.035-.915.167-1.336.374-.775.983-1.26 1.583-1.846.655-.639 1.263-1.326 1.91-1.973.7-.7 1.369-1.431 2.068-2.132.37-.37.653-.778 1.21-.85M435.47 73.63c-.515.112-.764.704-.512 1.161.13.235.376.4.576.573.482.416 1.263 1.423 1.973 1.29.324-.061.556-.316.795-.522.449-.386 1.142-.801 1.449-1.31.195-.323.142-.779-.15-1.028-.298-.255-.744-.18-1.108-.18h-2.005c-.324 0-.7-.053-1.018.016m1.179-19.234c-1.202-.16-1.872-.897-2.675-1.737-.612-.64-1.243-1.261-1.847-1.91a46 46 0 0 0-1.843-1.876c-.716-.684-1.398-1.32-1.838-2.228-.588-1.216-.358-2.79-.39-4.106-.024-.963-.054-1.932-.096-2.896-.042-.959-.114-1.909.047-2.864a7.36 7.36 0 0 1 1.713-3.628c.6-.682 1.414-1.236 2.314-1.417.812-.164 1.69-.078 2.514-.078h3.883c1.205 0 2.465-.104 3.66.072a5.7 5.7 0 0 1 1.59.462c.424.2.824.44 1.178.748 1.834 1.595 1.75 4.196 1.75 6.419 0 1.519.036 3.033-.03 4.55-.046 1.053-.048 2.05-.519 3.024-.437.902-1.108 1.562-1.806 2.26-.78.78-1.575 1.543-2.355 2.323-.514.514-1.038 1.02-1.559 1.528-.43.419-.813.848-1.368 1.103-.68.312-1.588.349-2.323.251m.159-1.746c.424.055 1.036.078 1.432-.103.376-.172.668-.556.954-.843.526-.525 1.067-1.034 1.592-1.559.727-.727 1.469-1.437 2.195-2.164.607-.606 1.192-1.18 1.55-1.973.298-.663.219-1.396.267-2.1.103-1.5.067-3.017.03-4.52-.048-1.929.268-4.653-1.878-5.604a4.5 4.5 0 0 0-1.178-.332c-.87-.127-1.794-.046-2.673-.046h-4.774c-.665 0-1.46-.117-2.1.087-.526.168-.943.548-1.29.963-1.289 1.537-1.276 3.367-1.193 5.251.043.985.072 1.975.096 2.96.015.615.032 1.23.032 1.845 0 .454-.035.916.167 1.337.374.775.983 1.26 1.583 1.846.655.639 1.263 1.326 1.91 1.973.7.7 1.369 1.431 2.068 2.132.37.37.653.778 1.21.85m-1.337-13.373c-.515-.112-.764-.704-.512-1.161.13-.235.376-.4.576-.573.482-.416 1.263-1.423 1.973-1.29.324.061.556.316.795.522.449.386 1.142.801 1.449 1.31.195.323.142.779-.15 1.028-.298.255-.744.18-1.108.18h-2.005c-.324 0-.7.053-1.018-.016m4.379 17.791c.16 1.202.897 1.872 1.737 2.675.64.612 1.261 1.243 1.91 1.847a46 46 0 0 1 1.876 1.843c.684.716 1.32 1.398 2.229 1.837 1.216.589 2.79.359 4.105.391.963.024 1.932.054 2.896.096.959.042 1.91.114 2.864-.047a7.36 7.36 0 0 0 3.628-1.713c.682-.6 1.236-1.414 1.417-2.314.164-.812.078-1.69.078-2.514v-3.883c0-1.205.104-2.465-.072-3.66a5.7 5.7 0 0 0-.462-1.59c-.2-.424-.44-.824-.748-1.178-1.595-1.834-4.196-1.75-6.419-1.75-1.518 0-3.033-.036-4.55.03-1.053.046-2.05.048-3.024.519-.902.437-1.561 1.108-2.26 1.806-.78.78-1.543 1.575-2.322 2.355-.515.514-1.02 1.038-1.528 1.559-.42.43-.85.813-1.104 1.368-.312.68-.349 1.588-.25 2.323m1.745-.159c-.055-.424-.077-1.036.103-1.432.172-.376.556-.668.843-.954.525-.526 1.034-1.067 1.559-1.592.727-.727 1.438-1.47 2.164-2.195.606-.607 1.18-1.192 1.973-1.55.663-.298 1.396-.219 2.1-.267 1.5-.103 3.017-.067 4.52-.03 1.93.048 4.653-.268 5.605 1.878.165.374.273.774.332 1.178.126.87.045 1.794.045 2.673v4.774c0 .665.117 1.46-.087 2.1-.168.526-.548.943-.963 1.29-1.537 1.288-3.367 1.276-5.251 1.193a153 153 0 0 0-2.96-.096c-.615-.015-1.23-.032-1.845-.032-.454 0-.916.035-1.337-.167-.775-.374-1.26-.983-1.846-1.583-.639-.655-1.326-1.263-1.973-1.91-.7-.7-1.43-1.369-2.132-2.068-.37-.37-.777-.654-.85-1.21m13.373 1.337c.112.515.705.764 1.161.512.235-.13.4-.376.573-.576.416-.482 1.424-1.263 1.29-1.973-.061-.324-.316-.556-.522-.795-.386-.449-.8-1.142-1.309-1.449-.324-.196-.78-.142-1.028.15-.256.298-.181.744-.181 1.108v2.005c0 .324-.053.7.016 1.018m-20.293-1.178c-.16 1.202-.897 1.872-1.737 2.675-.64.612-1.261 1.243-1.91 1.847a46 46 0 0 0-1.876 1.843c-.684.716-1.32 1.398-2.229 1.837-1.216.589-2.79.359-4.105.391-.963.024-1.932.054-2.896.096-.959.042-1.91.114-2.864-.047a7.36 7.36 0 0 1-3.628-1.713c-.682-.6-1.236-1.414-1.417-2.314-.164-.812-.078-1.69-.078-2.514v-3.883c0-1.205-.104-2.465.072-3.66a5.7 5.7 0 0 1 .462-1.59c.2-.424.44-.824.748-1.178 1.595-1.834 4.196-1.75 6.419-1.75 1.518 0 3.033-.036 4.55.03 1.053.046 2.05.048 3.024.519.902.437 1.561 1.108 2.26 1.806.78.78 1.543 1.575 2.322 2.355.515.514 1.02 1.038 1.528 1.559.42.43.85.813 1.104 1.368.312.68.349 1.588.25 2.323m-1.745-.159c.055-.424.077-1.036-.103-1.432-.172-.376-.556-.668-.843-.954-.525-.526-1.034-1.067-1.559-1.592-.727-.727-1.438-1.47-2.164-2.195-.606-.607-1.18-1.192-1.973-1.55-.663-.298-1.396-.219-2.1-.267-1.5-.103-3.017-.067-4.52-.03-1.93.048-4.653-.268-5.605 1.878a4.5 4.5 0 0 0-.332 1.178c-.126.87-.045 1.794-.045 2.673v4.774c0 .665-.117 1.46.087 2.1.168.526.548.943.963 1.29 1.537 1.288 3.367 1.276 5.251 1.193a153 153 0 0 1 2.96-.096c.615-.015 1.23-.032 1.845-.032.454 0 .916.035 1.337-.167.775-.374 1.26-.983 1.846-1.583.639-.655 1.326-1.263 1.973-1.91.7-.7 1.43-1.369 2.132-2.068.37-.37.777-.654.85-1.21m-13.373 1.337c-.112.515-.704.764-1.161.512-.235-.13-.4-.376-.573-.576-.416-.482-1.424-1.263-1.29-1.973.061-.324.316-.556.522-.795.386-.449.8-1.142 1.309-1.449.324-.196.78-.142 1.028.15.256.298.181.744.181 1.108v2.005c0 .324.053.7-.016 1.018" style="fill:#000;stroke:none;stroke-width:.120278" transform="translate(-38.589 2.514)scale(.10143)"/></g><path d="M112.109 78.847c-5.919-.465-10.93-3.625-14.355-9.055-.713-1.13-1.486-2.055-1.717-2.055-.334 0-.424-.603-.436-2.927-.017-3.355-.588-6.792-2.877-17.333a1519 1519 0 0 1-3.223-15.307l-1.593-7.804.745-1.565c.535-1.125 1.75-2.538 4.32-5.027l3.577-3.462h103.489l.563.633c.31.348 1.898 1.759 3.529 3.135 2.97 2.505 4.669 4.495 5.002 5.859.192.783-1.037 7.147-4.3 22.27-2.532 11.741-3.225 15.797-3.225 18.866 0 1.79-.105 2.421-.424 2.545-.233.091-.96 1.084-1.617 2.207-2.226 3.807-6.76 7.316-11.13 8.616-1.608.478-4.586.523-37.634.571-19.738.03-37.15-.046-38.694-.167" style="fill:#fff;stroke:none;stroke-width:.595499;stroke-linecap:round;stroke-linejoin:round;stroke-dasharray:none;stroke-opacity:1" transform="translate(-.064 1.757)scale(.10143)"/><path d="M96.22 14.59c-2.933 3.13-7.344 5.672-8.426 10.11-.071-4.304-2.632-7.302-9.132-8.235-1.116-.587 11.7-1.142 17.558-1.876m103.684.001c2.933 3.13 8.22 5.672 9.302 10.11.071-4.304 2.632-7.302 9.132-8.235 1.116-.587-12.575-1.142-18.434-1.876" style="fill:#fff;stroke:#000;stroke-width:1.5;stroke-linecap:round;stroke-linejoin:round;stroke-dasharray:none;stroke-opacity:1" transform="translate(-.064 1.757)scale(.10143)"/><g style="stroke-width:8.97442;stroke-dasharray:none"><path d="M755.058-949.71c-23.405 21.714-75.814-187.918-129.835-276.38 16.34-39.962 37.964-54.01 129.835 276.38" style="fill:#fff;stroke:#000;stroke-width:8.97441;stroke-linecap:round;stroke-linejoin:round;stroke-dasharray:none;stroke-opacity:1" transform="translate(8.692 43.634)scale(.0226)"/><path d="M-2723.194-481.403c50.53-13.223 123.346-36.868 168.005-28.823l-4.447-30.394c-13.585-12.634-113.746-8.4-161.304 32.208-.644 13.045-.687 23.184-2.254 27.01" style="opacity:1;fill:#000;stroke:#000;stroke-width:8.93221;stroke-linecap:round;stroke-linejoin:round;stroke-dasharray:none;stroke-opacity:1" transform="matrix(-.02355 0 0 .0219 -38.083 14.604)"/><path d="M-2548.537-169.772c91.745-128.666 73.795-68.241 29.618-319.501-28.338-48.152-152.973-1.88-226.666 12.845-152.07 269.09-186.434 821.426-29.661 811.879 47.604-11.566 32.935-233.468 226.71-505.223" style="fill:#fff;stroke:#000;stroke-width:8.93221;stroke-linecap:round;stroke-linejoin:round;stroke-dasharray:none;stroke-opacity:1" transform="matrix(-.02355 0 0 .0219 -38.083 14.604)"/></g><g transform="translate(-47.282 -5.27)scale(.10143)"><ellipse cx="726.974" cy="133.246" rx="9.82" ry="9.827" style="fill:none;stroke:#000;stroke-width:1.5;stroke-linecap:round;stroke-linejoin:round;stroke-dasharray:none;image-rendering:auto"/><ellipse cx="726.974" cy="133.246" rx="5.641" ry="5.645" style="fill:none;stroke:#000;stroke-width:1.5;stroke-linecap:round;stroke-linejoin:round;stroke-dasharray:none;image-rendering:auto"/></g><g transform="translate(-47.282 -5.276)scale(.10143)"><ellipse cx="684.648" cy="133.316" rx="9.82" ry="9.827" style="fill:none;stroke:#000;stroke-width:1.5;stroke-linecap:round;stroke-linejoin:round;stroke-dasharray:none;image-rendering:auto"/><rect width="9.169" height="9.169" x="680.063" y="128.731" ry="0" style="fill:none;stroke:#000;stroke-width:1.5;stroke-linecap:round;stroke-linejoin:round;stroke-dasharray:none"/></g><g style="stroke:#000" transform="translate(-47.28 -5.266)scale(.10143)"><g style="stroke:#000;stroke-width:11.8483;stroke-dasharray:none;image-rendering:auto"><path d="m2416.105 788.103 72.25 73.387m.001-73.387-72.25 73.387" style="fill:none;stroke:#000;stroke-width:12.7129;stroke-linecap:round;stroke-linejoin:round;stroke-dasharray:none" transform="matrix(.1276 0 0 .12562 392.913 50.946)"/></g><ellipse cx="705.799" cy="154.554" rx="9.82" ry="9.827" style="fill:none;stroke:#000;stroke-width:1.5;stroke-linecap:round;stroke-linejoin:round;stroke-dasharray:none;image-rendering:auto"/></g><g transform="translate(-47.28 -5.266)scale(.10143)"><ellipse cx="705.799" cy="111.878" rx="9.82" ry="9.827" style="fill:none;stroke:#000;stroke-width:1.5;stroke-linecap:round;stroke-linejoin:round;stroke-dasharray:none;image-rendering:auto"/><path d="m700.02 115.445 5.779-9.951 5.78 9.95z" style="fill:none;stroke:#000;stroke-width:1.44069;stroke-linecap:round;stroke-linejoin:round;stroke-dasharray:none"/></g><path d="M184.076 74.047c5.565-1.066 10.526-3.393 13.374-10.12l7.934-36.862c.478-2.104 2.586-11.66-7.154-12.776-33.055-3.784-67.423-3.924-100.366 0-9.735 1.16-7.502 10.653-7.154 12.776l8.157 36.863c1.933 5.909 8.42 10.228 13.373 10.119z" style="fill:#fff;stroke:#000;stroke-width:1.5;stroke-linecap:round;stroke-linejoin:round;stroke-dasharray:none;stroke-opacity:1" transform="translate(-.064 1.757)scale(.10143)"/><path d="m35.036 200.054-5.684-1.056 1.364-1.51c1.926-2.132 3.492-6.187 6.884-17.832 6.4-21.968 10.883-34.168 17.675-48.092 8.317-17.05 15.958-29.087 29.317-46.18 7.492-9.588 9.632-12.725 10.454-15.333.37-1.17.759-2.399.866-2.73.122-.377.662.214 1.439 1.574 2.372 4.154 6.383 7.33 11.094 8.787 2.537.784 4.034.814 40.068.814 36.32 0 37.514-.025 40.13-.833 4.798-1.482 9.424-5.258 11.325-9.245.771-1.617 1.406-1.655 1.406-.085 0 1.723 2.738 6.314 7.124 11.947 17 21.83 24.422 33.255 32.91 50.662 6.944 14.24 11.254 25.728 16.799 44.775 4.733 16.26 6.043 19.75 8.348 22.227l1.007 1.083-6.056 1.094c-3.331.602-6.441 1.094-6.912 1.094-.927 0-1.8-2.048-8.667-20.315-6.127-16.3-8.756-21.93-15.474-33.128-5.134-8.56-8.137-11.63-13.325-13.62-4.92-1.89-11.767-2.345-16.105-1.071-1.434.42-3.875.694-6.283.703-2.567.01-24.397.014-46.227.014s-43.66-.005-46.227-.014c-2.408-.01-4.849-.283-6.282-.703-4.987-1.464-12.734-.604-18.026 2-4.033 1.984-6.932 5.218-11.519 12.846-6.148 10.227-10.33 19.25-15.665 33.802a714 714 0 0 1-4.781 12.541l-2.73 6.945-1.281-.053c-.705-.028-3.84-.527-6.966-1.108" style="display:inline;fill:#000;stroke:#000;stroke-width:.829181;stroke-linecap:round;stroke-linejoin:round;stroke-dasharray:none;stroke-opacity:1" transform="translate(-.064 1.757)scale(.10143)"/><g transform="translate(68.718 -5.465)scale(.02522)"><path d="M-2089.998 710.362c-1.65 2.082-5.694 3.567-5.694 3.567l-30.08 10.805v-7.968l22.137-7.888c2.512-.9 2.898-2.172.856-2.84-2.038-.67-5.729-.478-8.243.426l-14.75 5.195v-8.27l.85-.287s4.263-1.508 10.256-2.172c5.994-.66 13.332.09 19.093 2.274 6.492 2.051 7.223 5.076 5.575 7.158m-32.91-13.568v-20.377c0-2.393-.441-4.596-2.687-5.22-1.72-.55-2.786 1.046-2.786 3.438v51.027l-13.762-4.367v-60.842c5.851 1.086 14.376 3.654 18.959 5.199 11.654 4 15.605 8.98 15.605 20.201 0 10.937-6.75 15.082-15.33 10.941m-44.486 19.139c-6.665-1.877-7.774-5.788-4.736-8.041 2.807-2.08 7.582-3.646 7.582-3.646l19.732-7.016v7.998l-14.2 5.082c-2.507.9-2.893 2.174-.855 2.842 2.04.668 5.732.478 8.244-.424l6.81-2.472v7.156c-.43.077-.913.154-1.358.229-6.813 1.113-14.069.648-21.219-1.708" class="cls-2" style="fill:#fff;fill-opacity:1;fill-rule:evenodd;stroke-width:.426712"/><g style="fill:#fff;stroke:#fff"><g style="fill:#fff;stroke:#fff" transform="translate(103.26 823.15)"><circle cx="-2275.446" cy="-205.337" r="5.814" style="fill:#fff;stroke:#fff;stroke-width:2;stroke-linecap:round;stroke-dasharray:none"/><circle cx="-2194.055" cy="-205.337" r="5.814" style="fill:#fff;stroke:#fff;stroke-width:2;stroke-linecap:round;stroke-dasharray:none"/><circle cx="-2234.751" cy="-205.337" r="5.814" style="fill:#fff;stroke:#fff;stroke-width:2;stroke-linecap:round;stroke-dasharray:none"/><circle cx="-2255.098" cy="-205.337" r="5.814" style="fill:#fff;stroke:#fff;stroke-width:2;stroke-linecap:round;stroke-dasharray:none"/><circle cx="-2214.403" cy="-205.337" r="5.814" style="fill:#fff;stroke:#fff;stroke-width:2;stroke-linecap:round;stroke-dasharray:none"/></g><g style="fill:#fff;stroke:#fff" transform="translate(113.433 843.727)"><circle cx="-2275.446" cy="-205.337" r="5.814" style="fill:#fff;stroke:#fff;stroke-width:2;stroke-linecap:round;stroke-dasharray:none"/><circle cx="-2234.751" cy="-205.337" r="5.814" style="fill:#fff;stroke:#fff;stroke-width:2;stroke-linecap:round;stroke-dasharray:none"/><circle cx="-2255.098" cy="-205.337" r="5.814" style="fill:#fff;stroke:#fff;stroke-width:2;stroke-linecap:round;stroke-dasharray:none"/><circle cx="-2214.403" cy="-205.337" r="5.814" style="fill:#fff;stroke:#fff;stroke-width:2;stroke-linecap:round;stroke-dasharray:none"/></g></g><rect width="61.075" height="14.657" x="248.807" y="-1324.708" rx="5.524" ry="7.329" style="fill:#fff;stroke:#fff;stroke-width:2.52712;stroke-linecap:round;stroke-dasharray:none" transform="translate(-2379.813 1946.631)scale(.89618)"/></g><g style="fill:#fff" transform="translate(30.61 16.325)scale(.02082)"><ellipse cx="-979.561" cy="-195.349" rx="83.016" ry="83.881" style="fill:#fff;stroke:none;stroke-width:14.4605;stroke-linecap:round;stroke-dasharray:none"/><ellipse cx="-979.561" cy="-195.349" rx="60.872" ry="61.506" style="fill:#fff;stroke:#000;stroke-width:19.5794;stroke-linecap:round;stroke-dasharray:none"/></g><g style="fill:#fff" transform="translate(40.084 16.325)scale(.02082)"><ellipse cx="-979.561" cy="-195.349" rx="83.016" ry="83.881" style="fill:#fff;stroke:none;stroke-width:14.4605;stroke-linecap:round;stroke-dasharray:none"/><ellipse cx="-979.561" cy="-195.349" rx="60.872" ry="61.506" style="fill:#fff;stroke:#000;stroke-width:19.5794;stroke-linecap:round;stroke-dasharray:none"/></g><g transform="translate(-66.8 2.92)scale(.10143)"><rect width="6.465" height="13.573" x="708.624" y="191.599" ry="3.142" style="opacity:1;fill:none;stroke:#000;stroke-width:1.5;stroke-linecap:round;stroke-linejoin:round;stroke-dasharray:none" transform="rotate(-13.908)"/><g style="stroke:#000"><path d="M721.811 62.265v-3.08" style="opacity:1;fill:none;stroke:#000;stroke-width:.7;stroke-linecap:round;stroke-linejoin:round;stroke-dasharray:none" transform="translate(15.987 -49.726)"/><path d="m722.894 62.265 1.271-1.966m-3.437 1.966-1.271-1.966" style="fill:none;stroke:#000;stroke-width:.7;stroke-linecap:round;stroke-linejoin:round;stroke-dasharray:none" transform="translate(15.987 -49.726)"/></g></g><g transform="translate(-64.946 2.874)scale(.10143)"><rect width="6.465" height="13.573" x="-839.391" y="-191.268" ry="3.142" style="fill:none;stroke:#000;stroke-width:1.5;stroke-linecap:round;stroke-linejoin:round;stroke-dasharray:none" transform="rotate(13.908)scale(-1 1)"/><g style="stroke:#000"><path d="M855.81 12.201h3.504m-3.504-.961h3.504m-3.504-.96h3.504" style="fill:none;stroke:#000;stroke-width:.7;stroke-linecap:round;stroke-linejoin:round;stroke-dasharray:none" transform="translate(.023 .035)"/></g></g></svg>