<svg xmlns="http://www.w3.org/2000/svg" width="64" height="36.745" data-name="Layer 1" viewBox="0 0 64 36.745"><path d="m61.957 27.987-.056-.496c-.474-4.15-1.191-10.42-4.52-15.875C53.311 4.943 46.46 1.371 37.02 1H26.97c-9.424.37-16.268 3.932-20.34 10.589-3.33 5.439-4.057 11.705-4.53 15.85l-.056.493a6.7 6.7 0 0 0 1.652 5.221 6.88 6.88 0 0 0 5.145 2.296h46.323a6.9 6.9 0 0 0 5.154-2.3 6.63 6.63 0 0 0 1.64-5.162m-30.876-1.634H20.404v-14.93h3.449v11.896h7.228zm12.52 0H32.945v-3.175h3.726v-7.949a2.9 2.9 0 0 1-.747.643 10 10 0 0 1-1.115.61 8 8 0 0 1-1.246.472 4.2 4.2 0 0 1-1.143.184v-3.28a3 3 0 0 0 1.155-.305 10 10 0 0 0 1.338-.721 11 11 0 0 0 1.142-.827 2.8 2.8 0 0 0 .61-.644h3.594v11.806h3.332z" style="stroke-width:.152528;fill:#fff"/></svg>