<svg xmlns="http://www.w3.org/2000/svg" id="Layer_1" width="64" height="36.745" data-name="Layer 1" viewBox="0 0 64 36.745"><defs id="defs1"><style id="style1">.cls-1{fill:#fff}</style></defs><path id="path1-9" d="M25.507 14.221h-3.303v4.416h3.415c.44 0 .826-.208 1.14-.626a2.57 2.57 0 0 0 .477-1.605q0-1-.547-1.594-.544-.591-1.182-.591" class="cls-1" style="fill:#fff;stroke-width:.165139"/><path id="path2" d="m61.956 27.982-.056-.495c-.474-4.14-1.19-10.404-4.517-15.854C53.303 4.95 46.445 1.372 37 1H26.998c-9.431.372-16.281 3.942-20.362 10.612-3.33 5.45-4.054 11.693-4.534 15.83l-.057.495a6.83 6.83 0 0 0 1.686 5.333 7.03 7.03 0 0 0 5.25 2.341h46.034a7.04 7.04 0 0 0 5.26-2.345 6.77 6.77 0 0 0 1.681-5.284m-34.218-.875-3.097-5.215h-2.435v5.215h-3.734V10.94h7.286a4.7 4.7 0 0 1 2.113.48 5.6 5.6 0 0 1 1.673 1.251 5.9 5.9 0 0 1 1.105 1.754 5.2 5.2 0 0 1 .398 1.981 5.7 5.7 0 0 1-.182 1.445 5.6 5.6 0 0 1-.523 1.31 4.93 4.93 0 0 1-1.935 1.935l3.552 6.011zm17.79 0H33.995v-3.438h4.034v-8.606a3.1 3.1 0 0 1-.809.695 11 11 0 0 1-1.207.661 8.5 8.5 0 0 1-1.35.512 4.6 4.6 0 0 1-1.236.198v-3.55a3.2 3.2 0 0 0 1.25-.33 11 11 0 0 0 1.448-.782 12 12 0 0 0 1.237-.895 3 3 0 0 0 .66-.697h3.891v12.782h3.608z" class="cls-1" style="fill:#fff;stroke-width:.165139"/></svg>