<svg xmlns="http://www.w3.org/2000/svg" width="5.2" height="10" data-name="Layer 1" viewBox="0 0 5.2 10"><path d="m2.473 0-.588.027.088 1.932.588-.027ZM.464.825 0 1.188l.96 1.228.464-.362ZM3.831.677 3.03 1.986l.501.308.803-1.309Z" style="color:#000;fill:#fff;stroke-width:.0245166;stroke-miterlimit:10;-inkscape-stroke:none"/><path d="M5.2 8.091v-.017l-.003-.018c-.067-.432-.293-1.466-.511-2.467a65 65 0 0 1-.367-1.728l-.003-.019-.006-.018C3.945 2.68 2.833 2.365 1.924 2.647c-.47.148-.864.438-1.107.82-.28.439-.342.958-.179 1.5.056.19.218.959.375 1.703.252 1.192.423 1.989.495 2.189l.003.01c.177.44.494.775.917.964a2 2 0 0 0 .804.167 2 2 0 0 0 .437-.045C4.456 9.79 5.235 9.15 5.2 8.09Z" style="fill:#fff;stroke-width:.0245166"/></svg>