<svg xmlns="http://www.w3.org/2000/svg" width="4.644" height="10" data-name="Layer 1" viewBox="0 0 4.644 10"><path d="M1.315 1.067h3.059M1.315.245h3.059M1.315 1.89h3.059" style="color:#000;fill:#fff;stroke:#fff;stroke-width:.48962px;stroke-miterlimit:10;-inkscape-stroke:none"/><path d="M3.116 2.606a2.04 2.04 0 0 0-1.239.12 1.74 1.74 0 0 0-.916.965L.958 3.7c-.072.2-.242.995-.494 2.186-.157.742-.318 1.51-.375 1.7-.163.541-.101 1.06.178 1.498.243.382.637.672 1.106.818A2.2 2.2 0 0 0 2.01 10c.734 0 1.463-.388 1.745-1.273l.006-.018.003-.018c.059-.321.208-1.004.366-1.727.218-.999.443-2.032.51-2.463l.003-.017v-.018c.037-1.058-.741-1.696-1.527-1.86" style="fill:#fff;stroke-width:.0244811"/></svg>