<svg xmlns="http://www.w3.org/2000/svg" width="16" height="12" viewBox="0 0 16 12"><path d="M1.588 2C.718 2 0 2.717 0 3.588v4.824C0 9.282.717 10 1.588 10h10.824C13.282 10 14 9.283 14 8.412V8h1c.547 0 1-.453 1-1V5c0-.547-.453-1-1-1h-1v-.412C14 2.718 13.283 2 12.412 2Zm0 1h10.824c.33 0 .588.258.588.588v4.824c0 .33-.258.588-.588.588H1.588A.58.58 0 0 1 1 8.412V3.588c0-.33.258-.588.588-.588M2 4v4h10V4Zm12 1h1v2h-1z" font-family="sans-serif" font-weight="400" overflow="visible" style="line-height:normal;text-indent:0;text-align:start;text-decoration-line:none;text-decoration-style:solid;text-decoration-color:#000;text-transform:none;isolation:auto;mix-blend-mode:normal;fill:#fff"/></svg>