<svg xmlns="http://www.w3.org/2000/svg" xml:space="preserve" width="24" height="24" viewBox="0 0 24 24"><path d="M837.9 750.7v-1.3c0-74-101.6-132.8-247.4-150.1V434.6c77.9-34.4 132.3-112.2 132.3-202.9C722.8 109.2 623.5 10 501 10c-122.4 0-221.7 99.2-221.7 221.7 0 90.6 54.4 168.5 132.3 202.9V599c-144 16.6-245.3 73.6-249.5 145.8h-.1v4.6l.1 48.4.4 41.1.1 1.4c6 85.3 151.1 149.7 337.3 149.7 192.7 0 338-66.8 338-155.4v-5.2c.2-58.4.1-73.7 0-78.7M346.8 174.6c-16.6-16.6-9.3-50.8 16.3-76.4s59.8-32.9 76.4-16.3 9.3 50.8-16.3 76.4-59.8 32.9-76.4 16.3M501 453.4c15.7 0 30.9-1.6 45.7-4.7v292l-.1 5.9c-4.7 4.1-21.2 10.8-45.6 10.8s-40.9-6.6-45.6-10.8l-.1-297.9c14.9 3 30.1 4.7 45.7 4.7M205.7 749.3c.2-43.2 81.3-90.5 205.9-106.1v31.3C327.4 686.4 268 714.8 268 747.9c0 43.9 103.8 79.4 231.9 79.4s231.9-35.5 231.9-79.4c0-32.8-58.3-61-141.4-73.1v-31.3c123.4 16 203.7 62.9 203.7 105.9v1.8C791.6 814.1 658 867 499.9 867c-158.9 0-293.2-53.4-294.2-116.9Zm588.4 80v5.3c0 52.8-120.8 111.7-294.2 111.7-79.9 0-155.1-12.8-211.8-36.1-49.1-20.2-79.7-47.2-81.9-72.4l-.3-36.3c45.9 51.7 158.7 87.4 294.1 87.4 135.5 0 248.5-35.8 294.3-87.6-.1 8-.1 17.2-.2 28" style="fill:#fff" transform="translate(2.485 2.77)scale(.01848)"/></svg>