<svg xmlns="http://www.w3.org/2000/svg" xmlns:xlink="http://www.w3.org/1999/xlink" width="586.247" height="280.378"><defs><linearGradient id="a"><stop offset="0" stop-color="#dd3a2b"/><stop offset="1" stop-color="#eab250"/></linearGradient><linearGradient xlink:href="#a" id="p" x1="125.674" x2="125.674" y1="443.245" y2="612.061" gradientUnits="userSpaceOnUse"/><linearGradient xlink:href="#a" id="n" x1="231.389" x2="231.389" y1="443.245" y2="524.673" gradientTransform="translate(-35.952 -376.514)" gradientUnits="userSpaceOnUse"/><linearGradient xlink:href="#a" id="i" x1="317.103" x2="317.103" y1="444.673" y2="520.041" gradientUnits="userSpaceOnUse"/><linearGradient xlink:href="#a" id="j" x1="395.674" x2="395.674" y1="446.102" y2="511.469" gradientUnits="userSpaceOnUse"/><linearGradient xlink:href="#a" id="h" x1="467.103" x2="467.103" y1="440.388" y2="518.612" gradientUnits="userSpaceOnUse"/><linearGradient xlink:href="#a" id="g" x1="539.96" x2="539.96" y1="443.245" y2="526.592" gradientUnits="userSpaceOnUse"/><linearGradient xlink:href="#a" id="b" x1="558.532" x2="558.532" y1="538.959" y2="624.327" gradientTransform="translate(-35.952 -376.514)" gradientUnits="userSpaceOnUse"/><linearGradient xlink:href="#a" id="c" x1="488.532" x2="488.532" y1="528.959" y2="624.081" gradientUnits="userSpaceOnUse"/><linearGradient xlink:href="#a" id="d" x1="407.103" x2="407.103" y1="523.245" y2="599.449" gradientTransform="translate(-35.952 -376.514)" gradientUnits="userSpaceOnUse"/><linearGradient xlink:href="#a" id="e" x1="324.246" x2="324.246" y1="520.388" y2="601.224" gradientUnits="userSpaceOnUse"/><linearGradient xlink:href="#a" id="f" x1="262.817" x2="262.817" y1="521.816" y2="608.021" gradientUnits="userSpaceOnUse"/><linearGradient xlink:href="#a" id="o" x1="209.96" x2="209.96" y1="535.857" y2="682.551" gradientUnits="userSpaceOnUse"/></defs><g stroke="#000"><path stroke-width="3" d="M530.594 201.891c-6.72-1.234-36.45-9.297-36.45-9.297s2.133-1.407 3.21-2.483c1.075-1.076 2.28-3.126 2.677-4.556 1.163-4.189.93-58.886-.264-62.241-.515-1.445-1.89-3.207-1.89-3.207s17.56 3.925 24.179 6.138c13.37 4.47 22.99 10.017 30.416 17.535 8.032 8.132 11.761 16.246 12.4 26.974.323 5.434.164 7.024-1.092 10.912-1.95 6.035-4.03 9.452-8.032 13.196-6.39 5.977-16.103 8.691-25.154 7.029zm10.496-7.005c10.63-5.785 14.665-19.96 10.011-35.166-3.472-11.347-10.14-19.232-20.594-24.355-3.416-1.675-7.777-3.494-9.692-4.044l-3.48-1v62.73l3.812 1.672c2.096.92 5.283 1.765 5.83 1.981s2.361.393 5.283.288c4.38-.157 5.93-.527 8.83-2.106zm-67.9-8.284c-9.086-13.55-30.167-44.461-37.456-54.918l-2.928-4.201-.174 23.673c-.148 20.05-.02 23.981.828 25.684 1.272 2.549 2.997 3.299 2.997 3.299s-7.958-1.303-12.781-1.92c-4.824-.616-9.992-1.08-9.992-1.08s1.37-1.383 1.885-2.827c.75-2.104.942-8.396.965-31.589.017-16.977-.234-29.654-.607-30.636-.35-.92-1.29-2.327-2.088-3.125l-1.45-1.45 5.899.39c3.244.216 8.972.787 12.736 1.192l7.439.8 15.243 23.888 15.846 23.887.01-19.079c.008-15.385-.186-19.535-.98-21.436-.541-1.296-2.356-3.031-2.356-3.031l20.421 3.919s-1.338 1.09-1.853 2.094c-.764 1.49-.997 9.137-1.268 41.605l.01 40.29zm-77.51-11.681c-9.276-.912-10.078-.96-10.078-.96s.778-1.013.647-2.765c-.13-1.752-1.257-4.072-2.167-6.001l-3.31-7.018-2.822-.4c-1.553-.22-8.776-.462-16.053-.538l-13.231-.14-3.164 5.636c-1.74 3.1-3.075 6.484-3.178 7.51-.065.644.77 1.692.77 1.692l-10.066-.003c-5.106-.002-10.125-.115-10.125-.115s2.112-1.727 3.661-3.332c2.422-2.508 5.347-7.21 12.446-20.005 6.266-11.295 27.682-47.465 27.682-47.465s2.676 4.923 24.702 48.128c5.205 10.21 10.439 20.255 11.63 22.324 1.389 2.41 2.173 4.057 2.173 4.057s-5.142-.175-9.518-.605zm-23.43-35.692c-3.154-6.762-5.893-12.295-6.087-12.295s-3.397 5.296-7.117 11.768l-6.766 11.768 5.125.34c2.819.187 8.602.424 12.851.527l7.727.186zM266.727 173.6s1.755-1.67 2.569-3.1c1.455-2.557 1.997-60.414.484-64.804-.55-1.6-2.17-3.85-2.17-3.85l22.235.108s-1.407 1.36-2.216 3.295c-.855 2.047-1.01 7.148-1.01 33.362v30.946l6.465-.36c10.613-.592 18.438-4.002 25.075-10.93l3.237-3.484-.302 8.425c0 5.795.016 8.556.016 8.556s-7.043.12-13.607.18c-11.369.103-34.627 1.07-35.784 1.234-1.202.171-4.992.422-4.992.422zm-49.88 7.676c-1.73-.292-5.146-1.196-7.592-2.01s-5.954-1.56-7.795-1.659l-3.588-.18s.043-5.67.082-8.506c.051-3.736-.861-10.009-.861-10.009s1.011 2.08 3.181 4.446c13.033 14.207 19.161 16.211 29.543 15.02 9.198-1.056 13.777-12.463 9.892-19.998-2.872-5.57-9.185-9.666-21.518-13.958-7.672-2.67-11.023-4.7-13.36-8.093-2.67-3.875-3.476-7.944-2.594-13.093.942-5.5 3.187-8.957 7.67-11.808 7.284-4.633 11.993-5.3 29.642-4.197 0 0 1.584.007 3.932-.486 2.227-.467 3.692-1.39 3.692-1.39l.197 7.097c.09 3.249.068 6.969.068 6.969s-1.335-1.237-2.532-2.6c-6.177-7.035-18.643-8.565-24.916-3.057-4.382 3.848-4.594 10.252-.47 14.24 2.103 2.033 13.476 7.606 18.631 9.13 7.17 2.117 13.651 7.086 16.45 12.61 1.337 2.637 1.706 4.388 1.765 8.357.066 4.433-.184 5.547-2.134 9.507-3.712 7.54-8.986 11.463-17.945 13.347-5.038 1.06-14.156 1.21-19.44.32zm293.434-74.78s-10.133-2.674-13.717-3.48c-3.047-.684-8.88-1.965-8.88-1.965s2.633-2.119 2.87-2.772c.278-.769.614-8.174.747-18.748l.241-19.226-17.187-19.641s-11.243-12.66-17.63-18.38c-.642-.574-2.398-1.595-2.398-1.595l25.915-.078s-1.534 1.086-1.802 2.651c-.069.4-.48 1.39 6.74 8.553 3.282 3.536 7.608 8.219 9.614 10.407l3.646 3.978 9.613-10.743c10.316-11.528 10.713-12.442 10.912-13.703.21-1.338-1.317-2.157-1.317-2.157l26.96.024s-1.384-.017-4.112 1.898c-1.066 1.243-15.192 16.554-29.387 33.323l-3.906 4.614.378 21.971c.208 12.084.753 21.98.998 22.62.335.872 1.702 2.45 1.702 2.45zm-59.907-12.75c-3.828-.655-13.972-1.963-22.54-2.906-8.57-.942-16.829-1.874-18.355-2.07l-3.883-.357 2.736-2.399s1.274-1.073 1.628-2.399c.664-2.486-.044-26.24-.044-26.24-.045-26.741-.362-30.836-2.622-33.955-1.144-1.406-2.985-2.457-2.985-2.457s14.255-.18 24.602-.105c16.502.12 18.853-.511 18.853-.511l.04 13.735s-1.223-2.252-3.05-3.268c-1.03-.403-5.021-.34-10.789-.157l-8.784.278v25.166l2.155-.456c3.112-.657 7.659-2.314 9.607-5.436 1.762-2.824 2.16-4.651 2.16-4.651l-.188 21.097s-1.181-2.098-1.873-2.977c-1.608-2.045-7.572-5.03-10.047-5.03h-1.904l.407 10.748c.224 5.912.552 10.893.728 11.069s5.159.99 11.074 1.808c11.882 1.645 14.12 1.48 18.404-1.355 1.428-.945 3.015-3.21 3.015-3.21l-.039 17.436s-4.477-.741-8.306-1.397zm-138.943 3.188a3831 3831 0 0 1-13.533-14.42 4722 4722 0 0 0-14.307-15.248c-2.587-2.735-9.601-10.16-15.588-16.5L257.12 39.238l-.332 8.213c-.182 4.517-.331 14.08-.331 21.25 0 12.626.048 13.104 1.55 15.135.852 1.153 2.781 2.916 2.781 2.916s-4.445-.11-7.698.083c-3.253.192-7.78.5-10.059.685-2.279.184-5.96.428-5.96.428s2.29-1.764 2.869-3.15c.893-2.136 1.068-6.435 1.16-28.422l.108-25.905-1.454-3.874c-.707-1.883-1.945-2.964-2.755-3.656-.949-.81-2.902-1.972-2.902-1.972s25.06-.151 26.452.366c.428.159 4.903 4.804 9.945 10.322s11.134 12.133 13.538 14.7c2.404 2.566 7.142 7.724 10.529 11.462s6.25 6.795 6.364 6.795.23-7.624.26-16.943c.048-15.76-.044-17.16-1.322-20.046-.755-1.707-2.007-3.78-2.782-4.604l-1.835-1.5h25.607s-1.083.14-1.083.311-.671 1.588-1.491 3.15c-1.816 3.454-1.762 2.139-1.796 43.444-.015 17.958-.333 34.099-.333 34.099s-2.556-3.312-4.718-5.591zm74.304-10.115c-.365-.128-3.87-.431-7.79-.675l-7.638-.443.511-2.472c.4-1.934-1.551-5.061-7.717-15.35-4.244-7.083-7.96-13.149-8.259-13.48-.309-.343-2.14.763-4.262 2.576l-3.72 3.178.212 10.133c.193 9.275.336 10.303 1.696 12.14 1.34 1.81 2.428 2.53 2.428 2.53s-7.654-.433-12.914-.487c-5.26-.055-11.798.169-11.798.169s1.835-1.676 2.683-2.578c1.4-1.49 1.572-2.411 1.881-10.04.187-4.62.336-16.754.332-26.964-.007-16.367-.146-18.83-1.169-20.82-.638-1.24-1.693-2.57-1.693-2.57l23.923-.145s-1.391.11-1.391.247-1.389 1.614-2.127 3.284c-1.188 2.685-1.323 4.189-1.16 12.982l.182 9.944 4.641-4.022c18.446-15.985 20.221-17.754 20.221-20.144l-1.221-2.291h22.46l-1.46.56s-5.895 5.488-12.828 11.513c-6.934 6.024-13.004 11.43-13.488 12.013-.992 1.196-1.82-.325 12.7 23.316 4.704 7.658 9.433 14.936 10.606 16.077l2.566 2.496-3.128-.393c-3.88-.39-2.914-.157-3.28-.284zM178.84 98.094c-23.37-6.304-36.022-30.687-27.35-52.706 3.64-9.24 10.807-17.098 19.272-21.126 6.892-3.28 11.279-4.299 18.402-4.271 28.155.108 47.175 28.356 36.596 54.35-4.698 11.545-15.221 20.591-27.62 23.743-4.845 1.232-14.751 1.237-19.3.01zm21.258-16.854c8.675-4.27 13.733-12.359 13.712-21.93-.015-7.27-1.913-11.858-7.02-16.964-12.31-12.31-31.892-8.875-39.688 6.961-1.928 3.917-2.136 4.923-2.136 10.32 0 5.077.264 6.545 1.747 9.707 4.551 9.708 13.034 14.737 23.989 14.223 4.152-.195 6.022-.656 9.395-2.317zm-31.29 177.763c-2.02-4.314-7.39-10.144-12.3-13.353-2.264-1.479-6.479-3.28-6.479-3.28s3.054-1.761 4.22-2.748c1.167-.986 2.317-3.517 2.82-4.353.692-1.152 1.193-3.57 1.236-4.912.074-2.3.061-12.658.061-12.658-1.15-39.82-.074-80.014-.233-81.587.04-2.87.554-3.137-1.926-6.979-.565-.875-1.77-2.527-3.01-3.128-.98-.474-3.54-1.182-3.54-1.182l7.443-2.49c7.243-2.424 32.289-9.198 32.289-9.198s-1.543 1.875-2.452 3.67c-3.926 7.746-4.006 8.693-3.856 45.266.076 18.414.312 41.681.526 51.704.427 20.039.503 20.43 4.986 25.536 1.14 1.299 2.664 2.022 2.664 2.022s-2.577 1.372-4.385 2.283c-4.75 2.396-11.554 9.428-13.95 14.42-1.12 2.254-2.264 4.737-2.264 4.737s-.846-1.64-1.85-3.77zM42.731 187.84c-1.912-4.072-8.07-10.79-13.014-14.195-2.005-1.38-4.669-2.79-4.669-2.79s2.397-1.469 3.074-2.183c2.553-2.692 3.465-3.841 3.961-7.937l-.03-32.645c-.043-45.83-.672-82.561-1.467-85.68-1.432-5.615-7.103-13.025-11.58-17.154-1.55-1.43-2.679-2.24-4.355-2.815l31.43.077 9.636 17.237c5.3 9.48 13.815 24.77 18.923 33.978 5.108 9.207 9.488 16.74 9.733 16.74.424 0 8.312-16.458 25.103-52.375 4.177-8.934 8.307-17.167 8.307-17.167l33.65-.063s-2.14 1.353-3.872 2.36c-5.181 3.012-8.427 6.01-10.145 9.372l-1.623 3.177.2 49.723c.117 29.23.461 50.543.834 51.712.35 1.094 1.81 3.218 3.248 4.72l2.914 2.73-3.996 2.545c-4.551 2.898-8.028 7.641-11.002 14.063l-2.206 4.763s-1.192-2.372-2.819-5.069c-1.626-2.697-3.628-6.69-8.95-11.56-.379-.347-6.436-3.695-6.436-3.695s3.955-4.128 4.743-5.54c1.48-2.65.874-7.183.838-9.028l-.932-48.956-1.242 2.652c-2.146 4.584-11.759 25.933-18.435 40.939-3.528 7.93-6.885 15.384-6.885 15.384s-7.244-13.793-15.523-29.472S55.028 83.18 54.954 83.18c-.176 0 .24 54.226.516 67.292.238 11.3.76 13.14 5.033 17.776l2.88 1.917-3.183 1.918c-6.35 3.826-10.395 9.666-12.953 14.684-1.255 2.46-2.612 4.448-2.612 4.448s-1.04-1.532-1.904-3.375z"/><g stroke-width="2"><path fill="url(#b)" d="M503.938 165.656s1.392 1.743 1.906 3.188c1.195 3.355 1.413 58.06.25 62.25-.397 1.43-1.58 3.486-2.656 4.562s-3.219 2.469-3.219 2.469 29.718 8.078 36.438 9.312c9.05 1.662 18.766-1.054 25.156-7.031 4.002-3.744 6.082-7.153 8.031-13.187 1.256-3.89 1.417-5.472 1.094-10.907-.638-10.728-4.375-18.868-12.406-27-7.426-7.518-17.037-13.06-30.406-17.53-6.62-2.214-24.188-6.126-24.188-6.126zm19.469 10.219 3.469 1c1.914.55 6.302 2.357 9.718 4.031 10.454 5.123 17.122 12.997 20.594 24.344 4.654 15.206.598 29.402-10.031 35.187-2.9 1.58-4.433 1.937-8.813 2.094-2.921.105-4.734-.065-5.28-.281-.548-.217-3.748-1.049-5.845-1.969l-3.812-1.687z" transform="translate(0 -49.969)"/><path fill="url(#c)" d="M515.213 608.661c-9.086-13.55-30.167-44.461-37.456-54.918l-2.929-4.201-.174 23.673c-.147 20.05-.02 23.98.829 25.684 1.271 2.549 2.996 3.299 2.996 3.299s-7.957-1.303-12.781-1.92c-4.824-.616-9.991-1.08-9.991-1.08s1.37-1.383 1.885-2.827c.749-2.104.941-8.396.964-31.589.018-16.977-.234-29.654-.607-30.636-.35-.92-1.29-2.327-2.087-3.125l-1.451-1.45 5.9.39c3.244.216 8.971.787 12.735 1.192l7.44.8 15.242 23.887 15.846 23.888.01-19.079c.008-15.386-.185-19.535-.98-21.436-.54-1.296-2.356-3.031-2.356-3.031l20.422 3.919s-1.339 1.09-1.853 2.094c-.765 1.49-.998 9.137-1.268 41.605l.01 40.29z" transform="translate(-35.952 -426.483)"/><path fill="url(#d)" d="M372.75 146.562s-21.39 36.174-27.656 47.469c-7.099 12.795-10.047 17.492-12.469 20-1.55 1.605-3.656 3.344-3.656 3.344s5.019.091 10.125.093h10.062s-.815-1.043-.75-1.687c.104-1.026 1.416-4.4 3.156-7.5l3.188-5.625 13.219.125c7.277.076 14.51.311 16.062.531l2.813.406 3.312 7.032c.91 1.93 2.026 4.248 2.157 6 .13 1.751-.625 2.75-.625 2.75s.786.057 10.062.968c4.376.43 9.531.594 9.531.594s-.799-1.652-2.187-4.062c-1.192-2.069-6.42-12.103-11.625-22.313-22.026-43.203-24.718-48.124-24.718-48.124zm-.5 25.906c.194 0 2.909 5.55 6.063 12.313l5.75 12.28-7.72-.187c-4.249-.102-10.056-.344-12.874-.53l-5.124-.344 6.78-11.75c3.722-6.472 6.932-11.781 7.126-11.781z" transform="translate(0 -49.969)"/><path fill="url(#e)" d="M308.75 595.659s1.756-1.67 2.57-3.1c1.455-2.557 1.996-60.414.484-64.804-.551-1.6-2.17-3.851-2.17-3.851l22.235.109s-1.408 1.36-2.216 3.295c-.855 2.047-1.01 7.148-1.01 33.362v30.946l6.464-.36c10.614-.592 18.439-4.002 25.076-10.93l3.236-3.484-.301 8.425c0 5.794.015 8.556.015 8.556s-7.043.12-13.606.18c-11.369.103-34.628 1.07-35.785 1.234-1.201.17-4.992.422-4.992.422z" transform="translate(-35.952 -426.483)"/><path fill="url(#f)" d="M258.87 603.335c-1.73-.291-5.146-1.195-7.592-2.01-2.446-.813-5.953-1.56-7.794-1.658l-3.589-.18s.043-5.671.082-8.506c.052-3.737-.861-10.01-.861-10.01s1.012 2.08 3.182 4.446c13.033 14.208 19.16 16.212 29.543 15.02 9.198-1.056 13.776-12.462 9.892-19.997-2.872-5.571-9.185-9.666-21.518-13.959-7.672-2.67-11.024-4.7-13.36-8.092-2.67-3.876-3.477-7.945-2.595-13.094.943-5.5 3.188-8.957 7.67-11.808 7.285-4.633 11.994-5.3 29.642-4.197 0 0 1.585.007 3.933-.485 2.227-.467 3.691-1.39 3.691-1.39l.197 7.096c.09 3.25.069 6.97.069 6.97s-1.335-1.237-2.532-2.6c-6.177-7.036-18.643-8.565-24.916-3.057-4.383 3.847-4.595 10.252-.471 14.239 2.103 2.034 13.476 7.606 18.632 9.13 7.169 2.118 13.65 7.087 16.45 12.61 1.336 2.637 1.706 4.388 1.765 8.357.065 4.434-.185 5.547-2.134 9.507-3.712 7.54-8.987 11.463-17.946 13.348-5.038 1.06-14.155 1.21-19.44.32z" transform="translate(-35.952 -426.483)"/><path fill="url(#g)" d="M552.304 528.557s-10.132-2.675-13.717-3.48c-3.047-.685-8.879-1.966-8.879-1.966s2.632-2.118 2.869-2.772c.278-.769.615-8.173.747-18.748l.241-19.226-17.186-19.64s-11.244-12.66-17.63-18.38c-.643-.575-2.399-1.595-2.399-1.595l25.915-.078s-1.534 1.086-1.802 2.65c-.068.4-.48 1.39 6.74 8.554a2774 2774 0 0 1 9.614 10.406l3.646 3.978 9.613-10.743c10.316-11.528 10.714-12.441 10.912-13.702.21-1.339-1.317-2.158-1.317-2.158l26.96.024s-1.384-.017-4.112 1.898c-1.066 1.243-15.192 16.554-29.387 33.324l-3.906 4.614.378 21.97c.208 12.084.753 21.981.998 22.62.335.873 1.702 2.45 1.702 2.45z" transform="translate(-35.952 -426.483)"/><path fill="url(#h)" d="M492.397 515.807c-3.829-.656-13.972-1.964-22.541-2.906s-16.828-1.875-18.354-2.071l-3.883-.357 2.736-2.399s1.274-1.073 1.628-2.398c.663-2.486-.045-26.241-.045-26.241-.045-26.74-.361-30.836-2.622-33.955-1.143-1.406-2.984-2.456-2.984-2.456s14.255-.182 24.601-.106c16.503.12 18.853-.511 18.853-.511l.042 13.735s-1.225-2.252-3.052-3.268c-1.03-.403-5.02-.34-10.788-.157l-8.784.279v25.165l2.154-.455c3.113-.658 7.66-2.315 9.607-5.437 1.763-2.823 2.161-4.651 2.161-4.651l-.189 21.097s-1.18-2.098-1.873-2.977c-1.608-2.045-7.572-5.03-10.047-5.03h-1.904l.408 10.748c.224 5.912.551 10.893.727 11.07.176.175 5.16.989 11.074 1.807 11.883 1.645 14.121 1.48 18.404-1.355 1.429-.945 3.016-3.21 3.016-3.21l-.04 17.437s-4.477-.742-8.305-1.398z" transform="translate(-35.952 -426.483)"/><path fill="url(#i)" d="M353.454 518.994a3831 3831 0 0 1-13.534-14.42 4722 4722 0 0 0-14.307-15.248c-2.586-2.735-9.6-10.16-15.587-16.5l-10.885-11.528-.331 8.213c-.183 4.517-.332 14.08-.332 21.25 0 12.626.049 13.104 1.55 15.135.853 1.154 2.782 2.916 2.782 2.916s-4.445-.11-7.698.083c-3.254.192-7.78.5-10.059.685-2.279.184-5.961.428-5.961.428s2.29-1.764 2.87-3.149c.893-2.137 1.068-6.436 1.16-28.423l.108-25.905-1.454-3.873c-.708-1.884-1.946-2.964-2.756-3.657-.948-.81-2.902-1.972-2.902-1.972s25.061-.151 26.453.366c.428.159 4.903 4.804 9.944 10.322s11.134 12.133 13.538 14.7c2.405 2.566 7.143 7.724 10.53 11.462s6.25 6.795 6.364 6.795.23-7.624.259-16.942c.048-15.76-.044-17.16-1.321-20.047-.755-1.707-2.007-3.779-2.782-4.604l-1.836-1.5h25.607s-1.082.14-1.082.311-.671 1.588-1.492 3.15c-1.816 3.454-1.761 2.14-1.796 43.444-.015 17.959-.332 34.099-.332 34.099s-2.556-3.312-4.718-5.59z" transform="translate(-35.952 -426.483)"/><path fill="url(#j)" d="M427.758 508.879c-.365-.127-3.87-.43-7.79-.674l-7.638-.443.511-2.473c.4-1.934-1.551-5.061-7.717-15.35-4.244-7.083-7.96-13.149-8.259-13.48-.31-.343-2.14.764-4.262 2.577l-3.72 3.177.212 10.134c.193 9.274.336 10.303 1.696 12.14 1.34 1.81 2.428 2.53 2.428 2.53s-7.654-.433-12.914-.488-11.798.17-11.798.17 1.835-1.676 2.683-2.578c1.4-1.49 1.572-2.412 1.881-10.04.187-4.621.336-16.755.332-26.964-.007-16.367-.146-18.83-1.169-20.82-.638-1.241-1.693-2.572-1.693-2.572l23.923-.144s-1.391.111-1.391.247-1.389 1.614-2.127 3.284c-1.188 2.686-1.323 4.19-1.16 12.982l.182 9.945 4.641-4.022c18.446-15.986 20.221-17.754 20.221-20.144l-1.221-2.292h22.46l-1.46.56s-5.895 5.489-12.828 11.513c-6.934 6.024-13.004 11.43-13.488 12.013-.992 1.196-1.82-.325 12.7 23.317 4.704 7.657 9.433 14.935 10.606 16.077l2.566 2.496-3.128-.394c-3.88-.39-2.914-.157-3.28-.284z" transform="translate(-35.952 -426.483)"/><path fill="url(#n)" d="M195.25 65.531c-7.123-.027-11.514 1.001-18.406 4.281-8.465 4.029-15.642 11.885-19.281 21.125-8.673 22.02 3.974 46.384 27.343 52.688 4.549 1.227 14.467 1.232 19.313 0 12.398-3.152 22.927-12.205 27.625-23.75 10.578-25.995-8.44-54.236-36.594-54.344zm.281 14.938c6.124.028 12.343 2.436 17.344 7.437 5.106 5.106 6.985 9.668 7 16.938.02 9.57-5.043 17.666-13.719 21.937-3.373 1.66-5.222 2.118-9.375 2.313-10.955.514-19.448-4.511-24-14.22-1.483-3.162-1.75-4.61-1.75-9.687 0-5.397.228-6.427 2.156-10.343 4.63-9.403 13.394-14.416 22.344-14.375z" transform="translate(0 -49.969)"/><path fill="url(#o)" d="M210.83 681.063c-2.02-4.314-7.39-10.144-12.3-13.353-2.264-1.48-6.479-3.281-6.479-3.281s3.054-1.76 4.22-2.747c1.167-.986 2.317-3.518 2.82-4.354.692-1.151 1.193-3.569 1.236-4.912.074-2.3.061-12.658.061-12.658-1.15-39.82-.074-80.013-.233-81.587.04-2.869.554-3.137-1.926-6.978-.565-.876-1.771-2.528-3.01-3.128-.98-.475-3.54-1.182-3.54-1.182l7.443-2.49c7.243-2.424 32.289-9.199 32.289-9.199s-1.543 1.876-2.452 3.67c-3.926 7.747-4.006 8.694-3.856 45.266.076 18.414.312 41.682.526 51.705.427 20.038.503 20.43 4.986 25.536 1.14 1.298 2.663 2.022 2.663 2.022s-2.576 1.371-4.384 2.283c-4.75 2.395-11.554 9.428-13.95 14.42-1.12 2.254-2.264 4.737-2.264 4.737s-.846-1.64-1.85-3.77z" transform="translate(-35.952 -426.483)"/><path fill="url(#p)" d="M84.755 609.898c-1.912-4.073-8.07-10.79-13.015-14.195-2.005-1.38-4.668-2.79-4.668-2.79s2.396-1.469 3.073-2.183c2.553-2.692 3.466-3.842 3.961-7.937l-.03-32.645c-.042-45.83-.671-82.562-1.466-85.68-1.433-5.615-7.103-13.026-11.58-17.154-1.551-1.43-2.68-2.24-4.356-2.816l31.43.078 9.636 17.237c5.3 9.48 13.815 24.77 18.923 33.977s9.488 16.74 9.733 16.74c.424 0 8.313-16.457 25.104-52.375 4.176-8.933 8.307-17.166 8.307-17.166l33.65-.063s-2.14 1.353-3.873 2.36c-5.18 3.011-8.427 6.01-10.144 9.372l-1.623 3.177.2 49.723c.117 29.229.46 50.543.834 51.712.349 1.094 1.81 3.217 3.247 4.72l2.915 2.73-3.997 2.544c-4.551 2.898-8.027 7.642-11.002 14.064l-2.206 4.763s-1.191-2.372-2.818-5.07c-1.627-2.697-3.629-6.69-8.95-11.56-.38-.346-6.436-3.694-6.436-3.694s3.955-4.129 4.743-5.54c1.48-2.651.873-7.183.838-9.028l-.933-48.956-1.241 2.652c-2.146 4.584-11.76 25.932-18.435 40.938-3.529 7.931-6.885 15.385-6.885 15.385s-7.244-13.793-15.524-29.473-15.115-28.507-15.19-28.507c-.175 0 .241 54.225.517 67.291.238 11.3.759 13.14 5.032 17.777l2.88 1.917-3.183 1.918c-6.35 3.826-10.394 9.665-12.953 14.684-1.254 2.46-2.612 4.448-2.612 4.448s-1.039-1.533-1.904-3.375z" transform="translate(-35.952 -426.483)"/></g></g><path d="m558.26 206.145.08 1.708h-.203q-.06-.45-.162-.645a1.07 1.07 0 0 0-.444-.458q-.274-.149-.726-.148h-1.027v5.564q0 .672.146.838.204.225.628.225h.253v.2h-3.089v-.2h.258q.461 0 .655-.28.117-.17.118-.783v-5.564h-.876q-.51 0-.724.074-.28.103-.479.393-.197.29-.236.784h-.203l.086-1.708zm4.855 7.283-2.815-6.129v4.867q.001.672.145.838.199.225.629.225h.258v.199h-2.535v-.2h.257q.463 0 .656-.279.118-.171.118-.783v-4.76q0-.483-.108-.697a.6.6 0 0 0-.277-.26q-.2-.105-.646-.105v-.2h2.062l2.643 5.7 2.6-5.7h2.062v.2h-.252q-.469 0-.661.28-.12.17-.119.783v4.76q0 .67.15.837.2.225.63.225h.252v.199h-3.094v-.2h.258q.467 0 .655-.279.119-.171.118-.783V207.3l-2.808 6.129z"/></svg>