<svg xmlns="http://www.w3.org/2000/svg" width="64" height="64" viewBox="0 0 64 64"><circle cx="32" cy="32" r="28" fill="none" stroke="#fff" stroke-width="2"/><path fill="#fff" d="M32 4A28 28 0 0 0 4 32a28 28 0 0 0 28 28 28 28 0 0 0 28-28A28 28 0 0 0 32 4m-8.242 13.781h7.89q4.767 0 6.934 1.778 2.168 1.777 2.168 5.664 0 2.48-1.172 4.257-.8 1.27-2.305 1.836 2.091.802 3.047 2.422.977 1.602.977 4.14 0 3.947-2.285 6.192-2.266 2.227-6.094 2.266h-9.16zm6.504 5.293v5.86h1.543q1.152 0 1.64-.743.489-.761.489-2.265 0-1.524-.567-2.188-.546-.663-1.758-.664zm0 10.996v6.914h1.777q2.344 0 2.344-3.613 0-3.3-2.422-3.3z"/></svg>