<?xml version="1.0" encoding="UTF-8"?>
<!-- Created by ERK -->
<svg width="840" height="282" version="1.1" viewBox="0 0 840 282" xml:space="preserve" xmlns="http://www.w3.org/2000/svg"><path d="m59.302 0v34.1h60.83c2.3762 0 4.5949 0.43536 6.6543 1.3066 2.0594 0.87128 3.8408 2.0975 5.3457 3.6816 1.5841 1.5049 2.8123 3.2883 3.6836 5.3477s1.3066 4.2761 1.3066 6.6523-0.43536 4.6348-1.3066 6.7734c-0.87128 2.0594-2.0994 3.8807-3.6836 5.4648-1.5049 1.5049-3.2863 2.6932-5.3457 3.5645-2.0594 0.87128-4.2781 1.3066-6.6543 1.3066h-17.109c-7.0495 0-13.662 1.346-19.84 4.0391-6.1782 2.6138-11.604 6.2584-16.277 10.932-4.594 4.594-8.2386 10.02-10.932 16.277-2.6931 6.1782-4.0391 12.792-4.0391 19.842v51.088h114.65v-34.1h-80.553v-16.988c0-2.3762 0.43536-4.5949 1.3066-6.6543s2.0595-3.8408 3.5645-5.3457c1.5841-1.5842 3.4055-2.8123 5.4648-3.6836 2.0594-0.87129 4.2761-1.3066 6.6523-1.3066h17.109c7.0495-1e-5 13.664-1.348 19.842-4.041 6.1782-2.693 11.564-6.3357 16.158-10.93 4.6732-4.6732 8.3558-10.099 11.049-16.277 2.693-6.2574 4.041-12.911 4.041-19.961 0-7.0495-1.348-13.662-4.041-19.84s-6.3756-11.564-11.049-16.158c-4.594-4.6732-9.98-8.3577-16.158-11.051-6.1782-2.6931-12.792-4.0391-19.842-4.0391h-60.83zm550 0v34.1h60.83c2.3762 0 4.5949 0.43536 6.6543 1.3066s3.8408 2.0975 5.3457 3.6816c1.5841 1.5049 2.8123 3.2883 3.6836 5.3477s1.3066 4.2761 1.3066 6.6523-0.43536 4.6348-1.3066 6.7734c-0.87128 2.0594-2.0994 3.8807-3.6836 5.4648-1.5049 1.5049-3.2863 2.6932-5.3457 3.5645s-4.2781 1.3066-6.6543 1.3066h-17.109c-7.0494 0-13.662 1.346-19.84 4.0391-6.1782 2.6138-11.604 6.2584-16.277 10.932-4.594 4.594-8.2386 10.02-10.932 16.277-2.693 6.1782-4.0391 12.792-4.0391 19.842v51.088h114.65v-34.1h-80.553v-16.988c0-2.3762 0.43536-4.5949 1.3066-6.6543s2.0595-3.8408 3.5644-5.3457c1.5842-1.5842 3.4055-2.8123 5.4648-3.6836 2.0594-0.87129 4.2761-1.3066 6.6523-1.3066h17.109c7.0494-1e-5 13.664-1.348 19.842-4.041 6.1782-2.693 11.564-6.3357 16.158-10.93 4.6732-4.6732 8.3558-10.099 11.049-16.277 2.693-6.2574 4.041-12.911 4.041-19.961 0-7.0495-1.348-13.662-4.041-19.84s-6.3756-11.564-11.049-16.158c-4.594-4.6732-9.98-8.3577-16.158-11.051-6.1782-2.6931-12.792-4.0391-19.842-4.0391h-60.83zm-168.15 13.227c-2.48 0-4.8299 0.48785-7.0488 1.4668-2.1537 0.91368-4.0462 2.1868-5.6777 3.8184-1.5663 1.5663-2.8394 3.4588-3.8184 5.6777-0.91368 2.1537-1.3691 4.4388-1.3691 6.8535 0 2.48 0.45546 4.7975 1.3691 6.9512 0.97894 2.1537 2.252 4.0462 3.8184 5.6777 1.6316 1.5663 3.524 2.8375 5.6777 3.8164 2.2189 0.91368 4.5688 1.3711 7.0488 1.3711s4.7975-0.45741 6.9512-1.3711c2.2189-0.97894 4.1438-2.2501 5.7754-3.8164 1.6316-1.6316 2.9047-3.5241 3.8184-5.6777 0.97895-2.1537 1.4668-4.4712 1.4668-6.9512 0-2.4147-0.48785-4.6998-1.4668-6.8535-0.91368-2.2189-2.1868-4.1114-3.8184-5.6777-1.6316-1.6316-3.5564-2.9047-5.7754-3.8184-2.1537-0.97894-4.4712-1.4668-6.9512-1.4668zm-126.19 4.5996v146.55h26.725v-59.912c0-2.741 0.5222-5.3177 1.5664-7.7324 1.0442-2.48 2.4793-4.6336 4.3066-6.4609 1.8274-1.8274 3.9809-3.2644 6.4609-4.3086s5.1234-1.5664 7.9297-1.5664c2.741 0 5.3196 0.5222 7.7344 1.5664 2.4147 1.0442 4.5359 2.4812 6.3633 4.3086s3.2624 3.9809 4.3066 6.4609c1.0442 2.4147 1.5664 4.9914 1.5664 7.7324h-0.19531v59.912h26.92v-59.912c0-6.461-1.2388-12.529-3.7188-18.207-2.4147-5.7431-5.7442-10.736-9.9863-14.979-4.1768-4.3074-9.1034-7.6693-14.781-10.084-5.6779-2.48-11.748-3.7188-18.209-3.7188-3.5242 0-6.9833 0.5222-10.377 1.5664-3.3937 0.97894-6.6888 2.6751-9.8867 5.0898v-46.305h-26.725zm-85.756 6.168c-5.8084 0-11.259 1.1092-16.35 3.3281-5.0905 2.2189-9.5596 5.255-13.41 9.1055-3.7853 3.7853-6.7869 8.222-9.0059 13.312-2.2189 5.0905-3.3301 10.541-3.3301 16.35s1.1111 11.29 3.3301 16.445c2.2189 5.0905 5.2206 9.5616 9.0059 13.412 3.8505 3.7853 8.3196 6.7869 13.41 9.0059 5.0905 2.219 10.541 3.3281 16.35 3.3281h28.096c1.9579 0 3.7856 0.35828 5.4824 1.0762 1.6968 0.7179 3.1643 1.7299 4.4043 3.0352 1.3053 1.24 2.3173 2.7094 3.0352 4.4062s1.0762 3.5245 1.0762 5.4824-0.35827 3.7836-1.0762 5.4805c-0.71789 1.6968-1.7299 3.1986-3.0352 4.5039-1.24 1.24-2.7075 2.2196-4.4043 2.9375s-3.5245 1.0762-5.4824 1.0762h-62.359v28.096h62.359c5.8084 0 11.257-1.1092 16.348-3.3281 5.1558-2.219 9.6269-5.2206 13.412-9.0059 3.8505-3.8505 6.8522-8.3216 9.0059-13.412 2.2189-5.0905 3.3281-10.539 3.3281-16.348s-1.1092-11.259-3.3281-16.35c-2.1537-5.1558-5.1553-9.6269-9.0059-13.412-3.7852-3.8505-8.2563-6.8522-13.412-9.0059-5.0905-2.2189-10.539-3.3281-16.348-3.3281h-28.096c-1.9579 0-3.7856-0.35828-5.4824-1.0762s-3.1986-1.6975-4.5039-2.9375c-1.24-1.3053-2.2177-2.8071-2.9356-4.5039-0.71789-1.7621-1.0781-3.6202-1.0781-5.5781s0.36024-3.7856 1.0781-5.4824c0.71789-1.6968 1.6956-3.1663 2.9356-4.4062 1.3053-1.3053 2.8071-2.3173 4.5039-3.0352 1.6968-0.71789 3.5245-1.0762 5.4824-1.0762h64.414v-28.096h-64.414zm299.46 31.719c-3.3937 0-6.7536 0.42306-10.082 1.2715-3.3284 0.84842-6.5607 2.0243-9.6934 3.5254-3.0674 1.4358-6.0366 3.1643-8.9082 5.1875s-5.515 4.1767-7.9297 6.4609l-10.67-12.629h-6.4609v144.79h26.922v-46.99c2.0232 1.1747 4.11 2.3163 6.2637 3.4258 2.219 1.1095 4.4393 2.1215 6.6582 3.0352 2.2842 0.84842 4.5674 1.5345 6.8516 2.0566 2.3495 0.5221 4.6994 0.7832 7.0488 0.7832 7.3747 0 14.293-1.2731 20.754-3.8184 6.5263-2.5452 12.204-6.2006 17.033-10.965 4.8947-4.8295 8.7464-10.669 11.553-17.521 2.8063-6.9179 4.209-14.684 4.209-23.299 0-8.2884-1.4027-15.828-4.209-22.615-2.8063-6.8526-6.658-12.694-11.553-17.523-4.8295-4.8295-10.507-8.5477-17.033-11.158-6.461-2.6758-13.379-4.0137-20.754-4.0137zm-101.03 3.8164v104.85h26.922v-104.85zm101.03 23.006c3.6547 0 7.1138 0.65177 10.377 1.957 3.2632 1.3053 6.1028 3.1997 8.5176 5.6797 2.4147 2.4147 4.3072 5.384 5.6777 8.9082 1.4358 3.5242 2.1524 7.5055 2.1524 11.943 0 4.2421-0.71656 8.1242-2.1524 11.648-1.3705 3.5242-3.263 6.5259-5.6777 9.0058-2.4147 2.48-5.2544 4.4049-8.5176 5.7754s-6.7222 2.0566-10.377 2.0566-7.1138-0.68612-10.377-2.0566c-3.1979-1.3705-6.0032-3.2954-8.418-5.7754-2.4147-2.48-4.3416-5.4816-5.7774-9.0058-1.3705-3.5242-2.0547-7.4064-2.0547-11.648 0-4.4379 0.68416-8.4192 2.0547-11.943 1.4358-3.5242 3.3626-6.4935 5.7774-8.9082 2.4147-2.48 5.2201-4.3744 8.418-5.6797 3.2632-1.3053 6.7222-1.957 10.377-1.957z" fill="#fcd7ff" stroke-linecap="square" stroke-miterlimit="10" style="paint-order:stroke fill markers"/><path d="m533.5 179.11v68.846l-39.789-66.961h-22.561v100.96h20.561v-68.961l39.789 68.961h22.561v-102.85zm234 0v68.846l-39.789-66.961h-22.56v100.96h20.56v-68.961l39.789 68.961h22.561v-102.85zm-576.41 0.53711c-19.689 0-39.738 13.598-39.738 38.098v64.211h22.561v-20.211h34.629v20.211h22.561v-64.211c0-24.5-20.459-38.098-40.012-38.098zm458.09 0c-19.689 0-39.738 13.598-39.738 38.098v64.211h22.561v-20.211h34.629v20.211h22.561v-64.211c0-24.5-20.459-38.098-40.012-38.098zm-597.24 1.3476v100.96h22.561v-36.885h36.508v36.885h22.561v-100.96h-22.561v42.135h-36.508v-42.135zm290.21 0v100.96h22.561v-27.193l8.4785-10.365 26.525 37.559h28.439l-39.926-56 35.961-44.961h-27.482l-31.996 39.172v-39.172zm90.74 0v100.96h22.561v-100.96zm137.57 0v100.96h22.561v-100.96zm-321.32 0.13477v100.83h22.561v-20.211h18.494l9.9453 20.211h25.568s-11.996-25.98-14.184-29.48c10.255-7.2692 16.816-19.249 16.816-32.711 0-22.481-17.5-38.635-39.514-38.635zm-58.051 20.73c8.7508 0 17.314 6.0572 17.451 17.096v22.576h-34.629v-22.576c0-11.038 7.88-17.096 17.178-17.096zm458.09 0c8.7508 0 17.314 6.0572 17.451 17.096v22.576h-34.629v-22.576c0-11.038 7.88-17.096 17.178-17.096zm-377.47 1.2109h16.58c9.7079 0 17.5 9.4037 17.5 19.365 0 9.6923-7.9288 19.365-17.5 19.365h-16.58z" fill="#a252a6" stroke-linecap="square" stroke-miterlimit="10" style="paint-order:stroke fill markers"/></svg>
