<?xml version="1.0" encoding="UTF-8"?>
<!-- Created by ERK -->
<svg width="1684.7" height="338.08" version="1.1" viewBox="0 0 1684.7 338.08" xml:space="preserve" xmlns="http://www.w3.org/2000/svg"><path d="m919.29 25.211v34.957h62.363c2.4361 0 4.7091 0.44663 6.8204 1.3398 2.1112 0.89321 3.9376 2.1514 5.4804 3.7754 1.624 1.5428 2.8842 3.3692 3.7774 5.4805s1.3398 4.3862 1.3398 6.8223c0 2.436-0.4466 4.749-1.3398 6.9414-0.8932 2.1112-2.1534 3.9795-3.7774 5.6035-1.5428 1.5428-3.3692 2.7611-5.4804 3.6543-2.1113 0.89321-4.3843 1.3398-6.8204 1.3398h-17.539c-7.2269 0-14.008 1.3798-20.342 4.1406-6.3337 2.6796-11.895 6.4162-16.686 11.207-4.7096 4.7097-8.4462 10.271-11.207 16.686-2.7608 6.3337-4.1406 13.115-4.1406 20.342v52.373h117.54v-34.955h-82.582v-17.418c0-2.436 0.44663-4.711 1.3398-6.8223s2.1115-3.9376 3.6543-5.4805c1.624-1.624 3.4903-2.8822 5.6016-3.7754 2.1112-0.89321 4.3862-1.3398 6.8223-1.3398h17.539c7.2269 0 14.006-1.3798 20.34-4.1406s11.857-6.4974 16.566-11.207c4.7908-4.7908 8.5653-10.352 11.326-16.686 2.7608-6.4149 4.1425-13.236 4.1425-20.463 0-7.2269-1.3817-14.008-4.1425-20.342-2.7609-6.3337-6.5354-11.855-11.326-16.564-4.7097-4.7908-10.233-8.5673-16.566-11.328-6.3337-2.7608-13.113-4.1406-20.34-4.1406zm554.15 0v34.957h62.361c2.436 0 4.7091 0.44663 6.8203 1.3398 2.1112 0.89321 3.9395 2.1514 5.4824 3.7754 1.624 1.5428 2.8822 3.3692 3.7754 5.4805s1.3398 4.3862 1.3398 6.8223c0 2.436-0.4466 4.749-1.3398 6.9414-0.8932 2.1112-2.1514 3.9795-3.7754 5.6035-1.5429 1.5428-3.3712 2.7611-5.4824 3.6543s-4.3843 1.3398-6.8203 1.3398h-17.539c-7.2269 0-14.006 1.3798-20.34 4.1406-6.3337 2.6796-11.897 6.4162-16.688 11.207-4.7097 4.7097-8.4442 10.271-11.205 16.686-2.7608 6.3337-4.1426 13.115-4.1426 20.342v52.373h117.54v-34.955h-82.582v-17.418c0-2.436 0.4467-4.711 1.3399-6.8223s2.1115-3.9376 3.6543-5.4805c1.624-1.624 3.4922-2.8822 5.6035-3.7754 2.1112-0.89321 4.3843-1.3398 6.8203-1.3398h17.539c7.2268 0 14.008-1.3798 20.342-4.1406 6.3336-2.7608 11.855-6.4974 16.564-11.207 4.7909-4.7908 8.5673-10.352 11.328-16.686 2.7609-6.4149 4.1407-13.236 4.1407-20.463 0-7.2269-1.3798-14.008-4.1407-20.342-2.7608-6.3337-6.5372-11.855-11.328-16.564-4.7096-4.7908-10.231-8.5673-16.564-11.328-6.3337-2.7608-13.115-4.1406-20.342-4.1406zm-166.55 20.801c-2.5245 0-4.915 0.49958-7.1738 1.4961-2.1924 0.93008-4.1185 2.2239-5.7793 3.8848-1.5945 1.5944-2.8903 3.5225-3.8867 5.7812-0.9302 2.1923-1.3965 4.5165-1.3965 6.9746 0 2.5245 0.4663 4.8838 1.3965 7.0762 0.9964 2.1923 2.2922 4.1184 3.8867 5.7793 1.6608 1.5944 3.5869 2.8902 5.7793 3.8867 2.2588 0.93008 4.6493 1.3945 7.1738 1.3945s4.8838-0.46445 7.0762-1.3945c2.2587-0.99651 4.218-2.2923 5.8789-3.8867 1.6609-1.6609 2.9566-3.587 3.8867-5.7793 0.9965-2.1923 1.4941-4.5517 1.4941-7.0762 0-2.4581-0.4976-4.7823-1.4941-6.9746-0.9301-2.2588-2.2258-4.1868-3.8867-5.7812-1.6609-1.6609-3.6202-2.9547-5.8789-3.8848-2.1924-0.99651-4.5517-1.4961-7.0762-1.4961zm-128.45 4.6836v149.18h27.205v-60.986c0-2.7902 0.5307-5.413 1.5937-7.8711 1.0629-2.5245 2.5246-4.718 4.3848-6.5781s4.0517-3.3218 6.5762-4.3848 5.2156-1.5938 8.0722-1.5938c2.7902 0 5.415 0.5308 7.8731 1.5938 2.458 1.063 4.6163 2.5246 6.4765 4.3848s3.3219 4.0536 4.3848 6.5781c1.063 2.4581 1.5937 5.0808 1.5937 7.8711h-0.1992v60.986h27.404v-60.986c0-6.577-1.2626-12.755-3.7871-18.535-2.4581-5.8462-5.8459-10.928-10.164-15.246-4.2518-4.3847-9.2671-7.8056-15.047-10.264-5.7798-2.5245-11.958-3.7871-18.535-3.7871-3.5874 0-7.1079 0.53081-10.562 1.5938-3.4545 0.99652-6.8091 2.7236-10.064 5.1816v-47.135zm-87.295 6.2793c-5.9126 0-11.461 1.128-16.643 3.3867s-9.7328 5.348-13.652 9.2676c-3.8532 3.8532-6.9092 8.3709-9.1679 13.553-2.2588 5.1819-3.3867 10.73-3.3867 16.643 0 5.9126 1.1279 11.492 3.3867 16.74 2.2587 5.1819 5.3147 9.7327 9.1679 13.652 3.9196 3.8532 8.4705 6.9092 13.652 9.168 5.1819 2.2588 10.73 3.3887 16.643 3.3887h28.6c1.993 0 3.8527 0.36493 5.5801 1.0957 1.7272 0.73078 3.2221 1.7612 4.4843 3.0898 1.3287 1.2622 2.3591 2.7571 3.0899 4.4844 0.7307 1.7273 1.0957 3.587 1.0957 5.5801 0 1.993-0.365 3.8528-1.0957 5.5801-0.7308 1.7273-1.7612 3.2553-3.0899 4.584-1.2622 1.2622-2.7571 2.2595-4.4843 2.9902-1.7274 0.73078-3.5871 1.0957-5.5801 1.0957h-63.478v28.6h63.478c5.9126 0 11.461-1.128 16.643-3.3867 5.2482-2.2588 9.7991-5.3148 13.652-9.168 3.9196-3.9196 6.9756-8.4705 9.168-13.652 2.2588-5.1819 3.3867-10.73 3.3867-16.643 0-5.9126-1.1279-11.459-3.3867-16.641-2.1924-5.2483-5.2484-9.7992-9.168-13.652-3.8532-3.9196-8.4041-6.9756-13.652-9.168-5.182-2.2588-10.73-3.3887-16.643-3.3887h-28.6c-1.993 0-3.8528-0.36493-5.5801-1.0957-1.7273-0.73078-3.2553-1.728-4.584-2.9902-1.2623-1.3287-2.2595-2.8567-2.9902-4.584-0.7308-1.7937-1.0957-3.6867-1.0957-5.6797s0.3649-3.8528 1.0957-5.5801c0.7307-1.7273 1.7279-3.2221 2.9902-4.4844 1.3287-1.3287 2.8567-2.3591 4.584-3.0898s3.5871-1.0957 5.5801-1.0957h65.57v-28.6zm304.83 32.287c-3.4547 0-6.8775 0.43128-10.266 1.2949-3.3881 0.86364-6.6763 2.0599-9.8652 3.5879-3.1224 1.4616-6.1452 3.2218-9.0684 5.2812-2.923 2.0595-5.6122 4.251-8.0703 6.5762l-10.863-12.855h-6.5761v147.38h27.404v-47.832c2.0594 1.1958 4.1846 2.3589 6.3769 3.4883 2.2587 1.1294 4.5186 2.1578 6.7774 3.0879 2.3252 0.86364 4.6494 1.5623 6.9746 2.0938 2.3916 0.53147 4.7841 0.79687 7.1758 0.79687 7.507 0 14.548-1.2958 21.125-3.8867 6.6434-2.5909 12.424-6.3104 17.34-11.16 4.9826-4.9161 8.9011-10.862 11.758-17.838 2.8567-7.042 4.2852-14.947 4.2852-23.717 0-8.4372-1.4285-16.11-4.2852-23.02-2.8567-6.9756-6.7752-12.922-11.758-17.838-4.9161-4.9161-10.696-8.704-17.34-11.361-6.577-2.7238-13.618-4.084-21.125-4.084zm-102.84 3.8848v106.73h27.404v-106.73zm102.84 23.418c3.7202 0 7.2407 0.66546 10.562 1.9941 3.3218 1.3287 6.2119 3.2548 8.67 5.7793 2.458 2.4581 4.3841 5.4809 5.7793 9.0684 1.4615 3.5874 2.1914 7.6407 2.1914 12.158 0 4.3182-0.7299 8.27-2.1914 11.857-1.3952 3.5874-3.3213 6.6435-5.7793 9.168-2.4581 2.5245-5.3482 4.4857-8.67 5.8809-3.3217 1.3951-6.8422 2.0918-10.562 2.0918-3.7204 0-7.2428-0.69668-10.564-2.0918-3.2553-1.3951-6.1122-3.3564-8.5703-5.8809s-4.4174-5.5805-5.8789-9.168c-1.3952-3.5874-2.0918-7.5392-2.0918-11.857 0-4.5175 0.6966-8.5708 2.0918-12.158 1.4615-3.5875 3.4208-6.6103 5.8789-9.0684 2.4581-2.5245 5.315-4.4506 8.5703-5.7793 3.3217-1.3287 6.8441-1.9941 10.564-1.9941z" fill="#fff" style="paint-order:stroke fill markers"/><path d="m1450.7 223.79-28.56 8e-3v58.285l-33.512-56.4h-28.838v108.96h28.56v-58.023l33.48 58.023h28.869zm234 0-28.56 8e-3v58.285l-33.512-56.4h-28.838v108.96h28.56v-58.023l33.48 58.023h28.869zm-600.97 0.54102c-10.764 0-21.596 3.6841-29.869 10.838-8.2803 7.1596-13.869 17.918-13.869 31.264v68.211h30.56v-20.211h26.629v20.211h30.561v-68.211c0-13.369-5.7118-24.13-14.074-31.279-8.3551-7.1427-19.236-10.822-29.938-10.822zm458.09 0c-10.763 4.4e-4 -21.594 3.6845-29.867 10.838-8.28 7.1594-13.871 17.918-13.871 31.264v68.211h30.562v-20.211h26.629v20.211h30.56v-68.211c0-13.369-5.7117-24.13-14.074-31.279-8.3546-7.1422-19.236-10.822-29.938-10.822zm-218.29 0.17383-0.9395 1.1738h-35.141l-26.098 31.953v-31.953l-30.562 2e-3v108.96h30.562v-29.766l4.2441-5.1895 24.686 34.955h61.809v-108.96h-28.56zm-382.95 1.1738v108.96h30.561v-36.885h28.508v36.885h30.562v-108.96h-30.562v42.139h-28.508v-42.139zm518.52 0v108.96h30.561v-108.96zm-321.32 0.13477v108.83h30.562v-20.211h12.004l9.9453 20.211h34.309l-2.6191-5.6738s-3.0056-6.5076-6.2871-13.459c-1.6407-3.4757-3.3502-7.064-4.7969-10.021-0.7508-1.5347-1.2047-2.3577-1.7051-3.2969 9.6746-8.1032 15.789-20.228 15.789-33.738 0-24.566-19.532-42.635-43.514-42.635zm183.75 4.3926v94.574l-35.648-50zm-237.8 24.34h0.012c3.4692 3e-3 6.8091 1.0948 9.2734 3.2539 2.4673 2.1616 4.1101 5.3822 4.166 9.8906v18.525h-26.629v-18.576c0-4.5793 1.4999-7.6059 3.8164-9.7461 2.3046-2.1294 5.5794-3.3477 9.3614-3.3477zm458.09 0h0.012c3.4693 3e-3 6.8091 1.0948 9.2735 3.2539 2.4672 2.1616 4.11 5.3822 4.166 9.8906v18.525h-26.629v-18.576c0-4.5794 1.4997-7.6059 3.8164-9.7461 2.3044-2.1293 5.5796-3.3477 9.3613-3.3477zm-373.47 1.209h12.58c7.0868 0 13.5 7.5029 13.5 15.365 0 3.7405-1.6395 7.6317-4.1738 10.547-2.5344 2.9152-5.918 4.8184-9.3262 4.8184h-12.58z" fill="#fff" stroke-linecap="square" stroke-miterlimit="10" style="paint-order:stroke fill markers"/><path d="m1424.2 225.8v68.846l-39.789-66.961h-22.561v100.96h20.561v-68.961l39.789 68.961h22.561v-102.85zm234 0v68.846l-39.789-66.961h-22.56v100.96h20.56v-68.961l39.789 68.961h22.561v-102.85zm-576.41 0.53711c-19.689 0-39.738 13.598-39.738 38.098v64.211h22.561v-20.211h34.629v20.211h22.56v-64.211c0-24.5-20.459-38.098-40.012-38.098zm458.09 0c-19.689 0-39.738 13.598-39.738 38.098v64.211h22.561v-20.211h34.629v20.211h22.56v-64.211c0-24.5-20.459-38.098-40.012-38.098zm-597.24 1.3476v100.96h22.561v-36.885h36.508v36.885h22.561v-100.96h-22.561v42.135h-36.508v-42.135zm290.21 0v100.96h22.56v-27.193l8.4785-10.365 26.525 37.559h28.44l-39.926-56 35.961-44.961h-27.482l-31.996 39.172v-39.172zm90.74 0v100.96h22.56v-100.96zm137.57 0v100.96h22.561v-100.96zm-321.32 0.13477v100.83h22.56v-20.211h18.494l9.9453 20.211h25.568s-11.996-25.98-14.184-29.48c10.255-7.2692 16.816-19.249 16.816-32.711 0-22.481-17.5-38.635-39.514-38.635zm-58.051 20.73c8.7508 0 17.314 6.0572 17.451 17.096v22.576h-34.629v-22.576c0-11.038 7.88-17.096 17.178-17.096zm458.09 0c8.7508 0 17.314 6.0572 17.451 17.096v22.576h-34.629v-22.576c0-11.038 7.88-17.096 17.178-17.096zm-377.47 1.2109h16.58c9.7079 0 17.5 9.4037 17.5 19.365 0 9.6923-7.9288 19.365-17.5 19.365h-16.58z" fill="#a252a6" stroke-linecap="square" stroke-miterlimit="10" style="paint-order:stroke fill markers"/><path d="m310.8 29.118v-12.056h37.494v12.172l-7.4342-9.5181h-5.0639v29.88l4.7406 2.3652h-21.763l4.8484-2.2497v-29.996h-5.7103zm81.696-10.037v30.285l4.2019 2.5959h-20.471l5.0639-2.5959v-13.556h-14.006v13.729l4.7406 2.4227h-20.148l4.3096-2.4227v-30.169l-4.8484-2.3074h19.933l-3.9865 2.4805v13.729h14.006v-13.902l-4.4174-2.3074h20.255zm8.3236-2.019h37.818v12.344l-7.8652-10.441h-12.821v13.96h7.6496l5.1716-4.1533v10.441l-4.9561-3.8649h-7.8651v13.96h13.252l7.4342-13.037v15.69h-37.818l4.7406-2.192v-30.458zm105.8 34.899h-33.185l5.2794-2.1343v-30.458l-5.2794-2.3074h23.273l-5.1716 1.9613v30.689h7.4342l7.6497-12.806zm3.9062-34.899h37.818v12.344l-7.8652-10.441h-12.821v13.96h7.6496l5.1716-4.1533v10.441l-4.9561-3.8649h-7.8651v13.96h13.252l7.4342-13.037v15.69h-37.818l4.7406-2.192v-30.458zm82.666 18.92-4.0941 2.4227v11.941c-1.4366 0.42303-2.909 0.80759-4.4174 1.1537-1.293 0.30766-2.7653 0.55762-4.4174 0.74991-1.5802 0.23074-3.1605 0.34612-4.7406 0.34612-3.2323 0-6.3568-0.42303-9.3736-1.269-2.945-0.8845-5.4589-2.192-7.5419-3.9226-2.083-1.6152-3.5196-3.538-4.3096-5.7685-0.79009-2.269-1.1851-4.6532-1.1851-7.1529 0-2.269 0.32323-4.3841 0.96967-6.3454 0.71828-1.9613 1.9035-3.7496 3.5555-5.3648 2.083-1.9998 4.6688-3.5572 7.7574-4.6725 3.1604-1.1537 6.5364-1.7883 10.128-1.9036 2.8013-0.07691 5.0639-0.01922 6.7877 0.17306 1.7957 0.19228 3.1963 0.42303 4.202 0.69222 1.1493 0.34612 2.0112 0.73068 2.5858 1.1537v11.191l-9.5891-10.326c-0.93375-0.30766-2.3344-0.40379-4.2019-0.28843-1.5802 0.07691-3.0527 0.5384-4.4174 1.3844-1.3648 0.80759-2.5858 1.9036-3.6633 3.288-1.0056 1.3844-1.7957 3.0188-2.3703 4.9032-0.57462 1.8459-0.86193 3.8841-0.86193 6.1146 0 2.192 0.28731 4.2495 0.86193 6.1723 0.64645 1.8844 1.4725 3.538 2.4781 4.9609 1.0774 1.3844 2.2985 2.4805 3.6633 3.288 1.3648 0.76913 2.8372 1.1537 4.4174 1.1537 0.64644 0 1.3648-0.07691 2.1548-0.23074 0.79011-0.19228 1.4365-0.42303 1.9393-0.69222v-10.672l-4.2019-2.4805zm-0.0804-18.92h37.818v12.344l-7.8651-10.441h-12.821v13.96h7.6496l5.1716-4.1533v10.441l-4.9561-3.8649h-7.8651v13.96h13.252l7.4342-13.037v15.69h-37.818l4.7406-2.192v-30.458zm42.586 34.899 5.3871-2.4227v-30.054l-5.3871-2.4227h12.713l19.717 19.786v-17.825l-4.5251-1.9613h14.976l-3.4478 1.7306v33.169h-7.0032l-19.717-21.286v18.747l4.6329 2.5382zm88.591-19.094c0.35914 3.6534-0.32322 6.903-2.0471 9.7488-0.71828 1.2307-1.7238 2.4227-3.0168 3.5765-1.221 1.1152-2.8013 2.1151-4.7406 2.9996-1.9393 0.88451-4.2738 1.5959-7.0032 2.1343-2.7295 0.49994-5.9258 0.71145-9.589 0.63454h-15.515l5.7103-2.4805v-29.939l-6.0336-2.5959h14.653c5.028 0 9.5172 0.5384 13.468 1.6152 1.7238 0.46149 3.376 1.0768 4.9561 1.8459 1.652 0.73068 3.1245 1.6729 4.4174 2.8266 1.2928 1.1537 2.3703 2.5189 3.2323 4.0956 0.86194 1.5767 1.3648 3.4227 1.5084 5.5378zm-20.363 15.922c0.86194-0.26919 1.9035-0.673 3.1245-1.2114 1.221-0.57685 2.3703-1.4229 3.4478-2.5382 1.0774-1.1152 1.9393-2.5766 2.5858-4.3841 0.71828-1.8459 1.0415-4.1918 0.96968-7.0376 0.21548-2.192-0.0718-4.211-0.86194-6.0569-0.35915-0.80759-0.82603-1.6152-1.4006-2.4227-0.5028-0.80759-1.1852-1.5575-2.0471-2.2497-0.86193-0.73068-1.9393-1.3844-3.2323-1.9613-1.221-0.57685-2.6576-1.0191-4.3096-1.3267-0.71829-0.11537-1.257-0.17306-1.6161-0.17306h-1.6161v29.939c0.57463 0.03846 1.1493 0.03846 1.7238 0 1.1493-0.07691 2.2266-0.26919 3.2323-0.57685zm94.597-25.555c1.4366 1.4999 2.514 3.2303 3.2323 5.1916 0.71827 1.9228 1.0774 3.9418 1.0774 6.0569 0 1.2307-0.14365 2.4805-0.43097 3.7496-0.2873 1.2307-0.71826 2.442-1.2928 3.6342-0.5028 1.1537-1.1492 2.2497-1.9393 3.288-0.79006 1.0383-1.652 1.9613-2.5858 2.7689-2.0112 1.7306-4.4174 2.9419-7.2187 3.6342-2.8013 0.69222-5.7821 1.0383-8.9426 1.0383s-6.2491-0.44225-9.2657-1.3267c-3.0168-0.88451-5.5666-2.1728-7.6496-3.8649-2.083-1.6152-3.5196-3.538-4.3096-5.7685-0.7901-2.269-1.1851-4.6532-1.1851-7.1529 0-2.2305 0.32323-4.3263 0.96967-6.2877 0.71829-1.9998 1.9035-3.8072 3.5555-5.4225 2.083-2.0383 4.6688-3.6342 7.7574-4.7879 3.1605-1.1922 6.5364-1.7883 10.128-1.7883 3.6633 0 7.0751 0.63454 10.235 1.9036 3.1605 1.2307 5.7821 2.9419 7.8652 5.134zm-18.208 26.823c1.5802 0 3.0168-0.4038 4.3096-1.2114 1.3648-0.80759 2.514-1.9036 3.4478-3.288 1.0056-1.3844 1.7957-3.0188 2.3703-4.9032 0.57463-1.9228 0.86194-3.9803 0.86194-6.1723 0-2.2305-0.28731-4.288-0.86194-6.1723-0.57462-1.9228-1.3648-3.5957-2.3703-5.0186-1.0056-1.4229-2.1908-2.5382-3.5555-3.3458-1.293-0.80759-2.7295-1.2114-4.3096-1.2114-1.5084 0-2.9808 0.4038-4.4174 1.2114-1.3648 0.80759-2.5498 1.9228-3.5555 3.3458s-1.8316 3.0958-2.478 5.0186c-0.57462 1.8844-0.86193 3.9418-0.86193 6.1723 0 2.192 0.28731 4.2495 0.86193 6.1723 0.64645 1.8844 1.4725 3.5188 2.478 4.9032 1.0774 1.3844 2.2985 2.4805 3.6633 3.288 1.4366 0.8076 2.909 1.2114 4.4174 1.2114zm22.438-32.996h37.818v12.344l-7.8652-10.441h-12.821v13.96h7.6496l5.1716-4.1533v10.441l-4.9561-3.8649h-7.8651v14.249l5.1716 2.3652h-22.303l4.7406-2.192v-30.458z" fill="#fff" style="paint-order:stroke fill markers" aria-label="the legend of"/><path d="m43.469 5.1348-5.2324 3.2832-38.236 79.127 9.3691 7.6484 73.863-56.346h126.4l-198.76 289.43 4.957 9.4316 248.12 0.375 5.3652-3.5488 31.381-73.99-9.6328-7.2402-61.01 49.584h-132.6l200.26-288.28-4.9492-9.4609zm165.42 86.162-19.143 38.686-10.797 4.0371 0.63672-8.0859zm-51.301 77.25v5.1602l-6.9394 2.2324-0.21875-5.0527zm-30.982 42.783 0.49024 8.1543-29.326 34.152 20.285-38.674z" fill="#fff" stroke-miterlimit="10" style="paint-order:stroke fill markers"/><path d="m304.8 71.271-3.8828 10.854 16.01 13.145v189.1l-15.961 12.77 3.8281 10.91h141.83l5.8789-5.8789v-102.51l-12.273-1.9688-26.479 80.34h-37.912v-76.51h19.377l17.062 23.021 11.076-3.6562v-69.123l-11.137-3.5918-17.859 24.814h-18.52v-76.508h36.756l27.936 64.158 11.973-2.4941v-80.992l-5.8789-5.8789z" fill="#fff" style="paint-order:stroke fill markers"/><path d="m460.11 71.271-3.7031 11.033 17.846 13.496v188.67l-17.691 12.377 3.5273 11.195h124.7l5.8789-5.8789v-98.428l-12.229-2.0508-27.254 78.932h-16.418v-186.76l17.166-11.264-3.3828-11.322z" fill="#fff" style="paint-order:stroke fill markers"/><path d="m594.68 70.531-3.668 11.068 20.609 15.342v185.46l-19.43 14.604 3.6875 11.047h58.578c14.046 0.48941 26.557-0.90354 37.5-4.3711l0.0117-4e-3 0.12109-0.041 4e-3 -2e-3c10.7-3.6517 20.032-8.5399 27.881-14.732v-2e-3c7.6959-6.0727 14.068-13.025 19.006-20.816l2e-3 -2e-3c5.0577-7.8114 9.0267-15.94 11.867-24.355 6.7046-19.176 9.2877-40.86 7.9238-64.932-0.55398-13.974-2.4728-26.348-5.8809-37.135-3.3386-10.566-7.5551-19.857-12.723-27.836-5.1028-7.878-11.015-14.462-17.74-19.637-6.2242-5.228-12.8-9.4796-19.711-12.682l-0.01-0.0039c-15.593-7.3457-33.223-10.961-52.644-10.961zm70.27 28.98c0.22974 0.02697 0.30631 0.02756 0.75195 0.10938 0.7376 0.13541 1.7278 0.35314 2.8496 0.6582 5.3861 1.7504 9.9145 4.181 13.736 7.3047l0.125 0.10156 0.0156 0.0137c4.2947 3.3153 7.7914 6.998 10.582 11.092l4e-3 6e-3 0.084 0.11914 6e-3 0.01c2.8447 3.9526 5.0828 8.2061 6.7461 12.828l6e-3 0.0195 0.0957 0.24023 4e-3 0.0117c2.0197 4.911 3.6496 9.8014 4.9024 14.674l-0.0117-0.0508c-2e-3 -0.0103 0.0105 0.0388 0.0117 0.0449 2.743 11.109 3.7682 23.376 3.002 36.861v0.0312l-8e-3 0.41015v0.0234c0.26126 17.909-0.94113 32.513-3.4356 43.604l-0.0215 0.0918-4e-3 0.0195c-2.3041 11.146-5.3587 19.932-8.8906 26.258-3.6951 6.6175-7.5177 11.359-11.158 14.352-4.2847 3.2613-7.9013 5.6702-10.594 7.127-2.7551 1.4542-5.6636 2.3339-8.7969 2.793z" fill="#fff" style="paint-order:stroke fill markers"/><path d="m841.84 70.896-63.879 0.0059-3.6387 11.092 22.346 16.428-53.539 179.83-26.971 18.559 3.4902 11.229h76.424l3.9297-10.805-18.764-15.744 13.938-50.385h39.748l10.908 49.264-16.303 17.451 4.4375 10.219h93.121l3.5371-11.188-22.203-15.602-60.992-206.18zm-26.795 86.787 12.615 46.742h-24.992z" fill="#fff" style="paint-order:stroke fill markers"/><path d="m85.028 307.38h147.34l61.89-50.303-30.745 72.495-246.76-0.36987 205.24-298.86h-140.95l-74.667 56.96 37.533-77.673h247.96zm153.33-262.98-65.084 76.933-1.5972 20.343 22.76-8.5071zm-74.268 113.18-20.364 6.6577 0.79858 18.494 19.565-6.2878zm-50.71 50.303-47.915 91.358 68.279-79.523-1.1979-19.973z" fill="#a252a6" style="paint-order:stroke fill markers" aria-label="Zelda"/><path d="m305.86 75.772h140.15v79.153l-29.148-66.947h-47.516v89.509h28.35l19.166-26.631v66.947l-18.367-24.781h-29.148v89.509h49.113l27.551-83.591v100.61h-140.15l17.569-14.055v-195.29z" fill="#a252a6" style="paint-order:stroke fill markers" aria-label="Zelda"/><path d="m584.17 299.54h-122.98l19.565-13.685v-195.29l-19.565-14.795h86.247l-19.166 12.576v196.77h27.551l28.35-82.112z" fill="#a252a6" style="paint-order:stroke fill markers" aria-label="Zelda"/><path d="m752.29 177.12c1.331 23.425-1.1979 44.261-7.5865 62.508-2.6619 7.8906-6.3886 15.535-11.18 22.932-4.5253 7.1509-10.382 13.562-17.569 19.233s-15.839 10.233-25.954 13.685c-10.115 3.2056-21.961 4.5618-35.537 4.0686h-57.498l21.162-15.904v-191.96l-22.36-16.644h54.304c18.634 0 35.271 3.4521 49.911 10.356 6.3886 2.959 12.511 6.9043 18.367 11.836 6.1225 4.685 11.579 10.726 16.371 18.124 4.7915 7.3974 8.7844 16.151 11.979 26.261 3.1943 10.11 5.0577 21.946 5.5901 35.508zm-75.466 102.08c3.1943-1.7261 7.0541-4.3152 11.579-7.7673 4.5253-3.6987 8.7844-9.1235 12.777-16.274 3.9929-7.1509 7.1872-16.521 9.583-28.11 2.6619-11.836 3.8598-26.877 3.5936-45.124 0.79858-14.055-0.2662-27.001-3.1943-38.837-1.331-5.1782-3.0612-10.356-5.1908-15.535-1.8634-5.1782-4.3922-9.9865-7.5865-14.425-3.1943-4.685-7.1872-8.8769-11.979-12.576-4.5253-3.6987-9.8492-6.5344-15.972-8.5071-2.6619-0.73974-4.6584-1.1096-5.9894-1.1096h-5.9894v191.96c2.1296 0.24658 4.2591 0.24658 6.3886 0 4.2591-0.49317 8.252-1.7261 11.979-3.6987z" fill="#a252a6" style="paint-order:stroke fill markers" aria-label="Zelda"/><path d="m925.99 299.54h-91.038l17.968-19.233-12.777-57.7h-49.911l-16.371 59.18 21.162 17.754h-74.268l27.95-19.233 55.501-186.42-25.155-18.494h62.289l61.491 207.87zm-131.77-90.619h41.926l-21.162-78.413z" fill="#a252a6" style="paint-order:stroke fill markers" aria-label="Zelda"/></svg>
