<?xml version="1.0" encoding="UTF-8" standalone="no"?>
<!-- Created by ERK -->

<svg
   height="2045.851"
   width="6185.3984"
   version="1.1"
   id="svg167380"
   sodipodi:docname="64dd.svg"
   inkscape:version="1.4 (86a8ad7, 2024-10-11)"
   xmlns:inkscape="http://www.inkscape.org/namespaces/inkscape"
   xmlns:sodipodi="http://sodipodi.sourceforge.net/DTD/sodipodi-0.dtd"
   xmlns="http://www.w3.org/2000/svg"
   xmlns:svg="http://www.w3.org/2000/svg">
  <defs
     id="defs167384" />
  <sodipodi:namedview
     id="namedview167382"
     pagecolor="#ffffff"
     bordercolor="#666666"
     borderopacity="1.0"
     inkscape:pageshadow="2"
     inkscape:pageopacity="0.0"
     inkscape:pagecheckerboard="true"
     showgrid="false"
     inkscape:zoom="0.28266325"
     inkscape:cx="2984.1163"
     inkscape:cy="1480.5603"
     inkscape:window-width="3840"
     inkscape:window-height="2066"
     inkscape:window-x="-11"
     inkscape:window-y="-11"
     inkscape:window-maximized="1"
     inkscape:current-layer="g2"
     inkscape:showpageshadow="2"
     inkscape:deskcolor="#d1d1d1" />
  <g
     id="g1"
     transform="matrix(11.150814,0,0,11.150814,-143.50638,2272.4979)"
     inkscape:label="N-Logo">
    <polygon
       class="st2"
       points="429.5,92.8 330.5,269.6 429.5,231.7 524.1,267.9 549.4,239.5 549.4,46.3 "
       id="polygon11"
       style="fill:#354ea2"
       transform="matrix(0.21386059,0,0,0.21386059,12.869588,-203.79659)"
       inkscape:label="N-Blue" />
    <polygon
       class="st2"
       points="121.7,728.2 235.9,677.6 121.7,455.9 "
       id="polygon13"
       style="fill:#354ea2"
       transform="matrix(0.21386059,0,0,0.21386059,12.869588,-203.79659)"
       inkscape:label="N-Blue" />
    <polygon
       class="st2"
       points="859.1,164.7 859.1,677 737.4,728.2 558.4,494.6 558.4,803.4 429.5,857.9 429.5,330.4 558.4,281 737.4,536.8 737.4,211.6 "
       id="polygon12"
       style="fill:#354ea2"
       transform="matrix(0.21386059,0,0,0.21386059,12.869588,-203.79659)"
       inkscape:label="N-Blue" />
    <polygon
       class="st3"
       points="429.5,92.8 309.6,46.2 243.4,164.7 300.7,281 330.5,269.6 "
       id="polygon14"
       style="fill:#23b057"
       transform="matrix(0.21386059,0,0,0.21386059,12.869588,-203.79659)"
       inkscape:label="N-Green" />
    <polygon
       class="st3"
       points="737.4,536.8 558.4,281 524.1,267.9 615.7,164.7 737.4,211.6 "
       id="polygon15"
       style="fill:#23b057"
       transform="matrix(0.21386059,0,0,0.21386059,12.869588,-203.79659)"
       inkscape:label="N-Green" />
    <polygon
       class="st3"
       points="300.7,281 300.7,548.8 121.7,211.6 0,164.7 0,677 121.7,728.2 121.7,455.9 300.7,803.4 429.5,857.9 429.5,330.4 "
       id="polygon16"
       style="fill:#23b057"
       transform="matrix(0.21386059,0,0,0.21386059,12.869588,-203.79659)"
       inkscape:label="N-Green" />
    <polygon
       class="st1"
       points="121.7,211.6 243.4,164.7 300.7,281 300.7,548.8 "
       id="polygon17"
       style="fill:#f01b25"
       transform="matrix(0.21386059,0,0,0.21386059,12.869588,-203.79659)"
       inkscape:label="N-Red" />
    <polygon
       class="st1"
       points="558.4,622.2 595,673.5 737.4,728.2 558.4,494.6 "
       id="polygon18"
       style="fill:#f01b25"
       transform="matrix(0.21386059,0,0,0.21386059,12.869588,-203.79659)"
       inkscape:label="N-Red" />
    <polygon
       class="st4"
       points="300.7,281 429.5,231.7 558.4,281 429.5,330.4 "
       id="polygon19"
       style="fill:#ffa623"
       transform="matrix(0.21386059,0,0,0.21386059,12.869588,-203.79659)"
       inkscape:label="N-Yellow" />
    <polygon
       class="st4"
       points="859.1,164.7 737.4,211.6 615.7,164.7 737.4,117.9 "
       id="polygon20"
       style="fill:#ffa623"
       transform="matrix(0.21386059,0,0,0.21386059,12.869588,-203.79659)"
       inkscape:label="N-Yellow" />
    <polygon
       class="st4"
       points="243.4,164.7 121.7,211.6 0,164.7 121.7,117.9 "
       id="polygon21"
       style="fill:#ffa623"
       transform="matrix(0.21386059,0,0,0.21386059,12.869588,-203.79659)"
       inkscape:label="N-Yellow" />
    <polygon
       class="st4"
       points="309.6,46.2 429.5,92.8 549.4,46.3 429.5,0 "
       id="polygon22"
       style="fill:#ffa623"
       transform="matrix(0.21386059,0,0,0.21386059,12.869588,-203.79659)"
       inkscape:label="N-Yellow" />
  </g>
  <g
     transform="matrix(1.3333333,0,0,-1.3333333,2346.4008,1961.4554)"
     id="g10"
     inkscape:label="Nintendo">
    <path
       id="path88"
       style="fill:#334fa2;fill-opacity:1;fill-rule:nonzero;stroke:none;stroke-width:0.1"
       d="m 45.523,1358.5 h 0.375 l 30,-86.33 h 67.278 v 149.55 H 97.648 v -85.8 h -0.375 l -30,85.8 H 0 v -149.55 h 45.523 z"
       inkscape:label="N" />
    <path
       id="path94"
       style="fill:#334fa2;fill-opacity:1;fill-rule:nonzero;stroke:none;stroke-width:0.1"
       d="m 170.625,1272.25 h 56.102 v 149.473 h -56.102 z"
       inkscape:label="I" />
    <path
       id="path90"
       style="fill:#334fa2;fill-opacity:1;fill-rule:nonzero;stroke:none;stroke-width:0.1"
       d="m 299.324,1358.5 h 0.375 l 30,-86.33 h 67.278 v 149.55 h -45.454 v -85.8 h -0.375 l -30.074,85.8 h -67.273 v -149.55 h 45.523 z"
       inkscape:label="N" />
    <path
       id="path96"
       style="fill:#334fa2;fill-opacity:1;fill-rule:nonzero;stroke:none;stroke-width:0.1"
       d="m 448.949,1272.17 h 56.102 v 108.9 h 35.773 v 40.65 H 413.25 v -40.65 h 35.699 z"
       inkscape:label="T" />
    <path
       id="path106"
       style="fill:#334fa2;fill-opacity:1;fill-rule:nonzero;stroke:none;stroke-width:0.1"
       d="m 670.125,1311.4 h -57.523 v 16.73 h 51.375 v 38.39 h -51.375 v 15.68 h 55.796 v 39.52 h -111 v -149.55 h 112.727 z"
       inkscape:label="E" />
    <path
       id="path92"
       style="fill:#334fa2;fill-opacity:1;fill-rule:nonzero;stroke:none;stroke-width:0.1"
       d="m 736.426,1358.5 h 0.375 l 30,-86.33 h 67.273 v 149.55 h -45.449 v -85.8 h -0.449 l -30,85.8 h -67.278 v -149.55 h 45.528 z"
       inkscape:label="N" />
    <path
       id="path98"
       style="fill:#334fa2;fill-opacity:1;fill-rule:nonzero;stroke:none;stroke-width:0.1"
       d="m 999.449,1345.38 c 0,44.25 -18.074,76.34 -74.773,76.34 h -66.449 v -149.47 h 69.824 c 43.574,0 71.398,27.97 71.398,73.13 z m -86.324,-39.31 v 81.53 h 5.477 c 9.074,0 15.074,-2.78 18.597,-8.78 3.676,-6.22 4.125,-17.55 4.125,-32.02 0,-14.4 -0.375,-25.73 -4.125,-31.95 -3.523,-6 -9.597,-8.78 -18.597,-8.78 z"
       inkscape:label="D" />
    <path
       id="path100"
       style="fill:#334fa2;fill-opacity:1;fill-rule:nonzero;stroke:none;stroke-width:0.1"
       d="m 1087.43,1268.2 c 48.89,0 73.2,32.02 73.2,78.68 0,46.64 -24.38,78.75 -73.2,78.75 -48.91,0 -73.2,-32.11 -73.2,-78.75 0,-46.58 24.37,-78.68 73.2,-78.68 z m 0,119.55 c 9,0 15.07,-5.1 15.07,-40.87 0,-36.61 -6.45,-40.81 -15.07,-40.81 -8.63,0 -15.16,4.28 -15.08,40.81 0,35.84 6.08,40.87 15.08,40.87 z"
       inkscape:label="O" />
    <path
       id="path14"
       style="fill:#334fa2;fill-opacity:1;fill-rule:nonzero;stroke:none;stroke-width:0.1"
       d="m 1199.25,1272.17 c -7.95,0 -14.32,6.46 -14.32,14.33 0,7.88 6.45,14.32 14.32,14.32 7.88,0 14.32,-6.44 14.32,-14.32 0.08,-7.95 -6.37,-14.33 -14.32,-14.33 m 0,31.73 c -9.6,0 -17.4,-7.8 -17.4,-17.4 0,-9.6 7.8,-17.4 17.4,-17.4 9.6,0 17.4,7.8 17.4,17.4 0,9.52 -7.8,17.4 -17.4,17.4 z"
       inkscape:label="Circle" />
    <path
       id="path16"
       style="fill:#334fa2;fill-opacity:1;fill-rule:nonzero;stroke:none;stroke-width:0.1"
       d="m 1196.4,1287.85 h 3.37 c 1.88,0 2.86,0.9 2.86,2.7 0,1.72 -1.06,2.4 -2.86,2.47 h -3.37 v -5.17 m 0,-10.88 h -4.05 v 19.05 h 8.17 c 3.23,0 6.68,-1.05 6.68,-4.95 0,-2.55 -1.65,-4.12 -3.97,-4.65 3.15,-0.37 3.15,-2.32 3.45,-4.95 0.14,-1.27 0.37,-3.45 1.12,-4.5 h -4.5 c -0.37,1.73 -0.53,3.38 -0.75,5.1 -0.15,1.13 -0.37,2.56 -1.73,2.63 h -4.27 z"
       inkscape:label="R" />
  </g>
  <g
     id="g5"
     inkscape:label="64">
    <path
       id="path102"
       style="fill:#f01b25;fill-opacity:1;fill-rule:nonzero;stroke:none;stroke-width:0.1"
       d="m 1229.93,1343.65 c 25.2,0 44.09,19.05 44.09,43.57 0,25.58 -17.17,39.23 -35.92,39.23 -9.75,0 -17.1,-2.4 -22.95,-7.57 h -0.6 c 3.22,11.39 12.75,21.44 36.45,22.57 4.05,0.22 6.98,0.3 9.9,0.07 l 0.15,25.13 c -2.4,0.23 -5.55,0.52 -10.65,0.23 -19.35,-0.46 -35.17,-6.16 -47.47,-17.56 -12.91,-12.07 -20.78,-30.82 -20.78,-53.02 0,-27.23 14.48,-52.65 47.78,-52.65 z m -15.38,50.77 c 1.88,4.88 6.83,8.78 13.05,8.78 10.28,0 14.1,-9.23 14.17,-17.7 0,-9.98 -4.64,-17.85 -12.37,-17.85 -10.58,-0.08 -15.15,9.98 -15.83,19.57 0,3.6 0.23,5.7 0.98,7.2 z"
       inkscape:label="6"
       transform="matrix(1.3333333,0,0,-1.3333333,2346.4008,1961.4554)" />
    <path
       id="path104"
       style="fill:#f01b25;fill-opacity:1;fill-rule:nonzero;stroke:none;stroke-width:0.1"
       d="m 1332.68,1345.6 h 30 v 26.85 h 12.67 v 24.6 h -12.67 v 68.25 h -39.83 l -40.05,-71.33 v -21.52 h 49.88 z m -21,51.45 0.14,0.37 9.83,19.88 c 4.2,8.33 7.42,15.97 11.17,24.08 h 0.68 c -0.37,-8.41 -0.82,-16.28 -0.82,-23.86 v -20.55 z"
       inkscape:label="4"
       transform="matrix(1.3333333,0,0,-1.3333333,2346.4008,1961.4554)" />
  </g>
  <g
     id="g4"
     inkscape:label="64DD"
     transform="matrix(1.3333333,0,0,-1.3333333,2346.4008,1961.4554)">
    <path
       id="path160"
       style="fill:#334fa2;fill-opacity:1;fill-rule:nonzero;stroke:none;stroke-width:0.176641"
       d="M 2462.6238,1179.9213 H 2118.7566 V 885.02252 c -44.2485,172.50058 -179.7852,294.89878 -400.5813,294.89878 h -343.8 V 664.29714 h -136.427 V 1179.999 H 936.75056 L 674.55162,712.52192 c -41.92753,114.3009 -143.02804,174.07624 -251.17654,174.07624 -74.0232,0 -129.00097,-17.9273 -173.39794,-56.84839 h -4.27824 c 24.60256,86.17081 96.74984,162.22186 275.69961,170.77303 30.82917,1.4255 52.49949,1.9501 75.07776,0.3745 v 190.1258 c -18.4537,1.7258 -41.54952,3.7484 -80.40172,1.7258 C 369.44833,1189.1472 249.97714,1145.796 156.97686,1059.9219 59.551181,968.49956 0.07382817,826.59672 0.07382817,658.97318 c 0,-206.0995 109.65313183,-398.3998 361.49984183,-398.32561 150.37631,0 270.60176,89.47753 314.9263,217.95035 H 1011.3002 V 275.79631 l 226.6481,0.0777 v 202.79808 h 136.427 v -202.8758 h 343.8 c 220.7961,0 356.3328,122.40166 400.5813,294.90226 V 275.79631 h 343.7966 c 274.0409,0 416.6256,188.55197 416.6256,427.35127 v 49.50013 c 0.071,238.80106 -142.5847,427.27359 -416.555,427.27359 z M 357.97726,442.74861 h -1.20469 c -79.19879,0 -113.92113,75.97333 -118.87414,148.20009 0,26.84768 2.10203,42.8231 7.42599,53.99918 13.80096,36.44988 50.99981,66.30223 98.24953,66.30223 77.99939,0 107.24939,-69.5277 107.62563,-133.57951 0,-75.74899 -34.9502,-134.92199 -93.22232,-134.92199 z M 1011.3002,819.69889 V 664.22295 H 853.12514 l 0.97683,2.85099 74.2493,150.59711 c 31.64879,62.92662 56.02349,120.97617 84.37613,182.02686 h 4.7958 c -3.0011,-62.92485 -6.223,-122.69842 -6.223,-179.99902 z m 706.8751,-357.00043 h -107.698 v 530.24999 h 107.698 c 84.8178,0 157.8765,-86.17611 157.8765,-265.12588 0,-178.948 -73.0587,-265.12411 -157.8765,-265.12411 z m 744.4485,0 h -107.698 v 530.24999 h 107.698 c 84.8231,0 157.8818,-86.17611 157.8818,-265.12588 0,-178.948 -73.0587,-265.12411 -157.8818,-265.12411 z"
       inkscape:label="64DD" />
    <path
       id="path20"
       style="display:inline;fill:#334fa2;fill-opacity:1;fill-rule:nonzero;stroke:none;stroke-width:1.72413"
       d="m 27795.734,3089.503 h -177.585 v 109.4823 h 485.17 V 3089.503 h -177.758 v -483.015 h -130.516 z"
       inkscape:label="T"
       transform="scale(0.1)" />
    <path
       id="path24"
       style="display:inline;fill:#334fa2;fill-opacity:1;fill-rule:nonzero;stroke:none;stroke-width:1.76637"
       d="m 28154.348,3198.9844 h 182.996 l 138.66,-407.2543 h 1.59 l 131.241,407.2543 h 182.996 v -592.4935 h -122.233 v 419.9898 h -1.59 l -145.372,-419.9898 h -100.506 l -145.549,415.5032 h -1.59 v -415.5032 h -122.233 v 592.4935 z"
       inkscape:label="M"
       transform="scale(0.1)" />
  </g>
  <g
     id="g3"
     transform="matrix(0.13333333,0,0,-0.13333333,2346.4008,1961.4554)"
     style="display:inline"
     inkscape:label="ロクヨン ディーディー (Rokuyon Dī-Dī)  64DD">
    <path
       id="path122"
       style="display:inline;fill:#f01b25;fill-opacity:1;fill-rule:nonzero;stroke:none"
       d="m 6857.27,1816.72 h -1500 v -333.75 h 0.74 V 6.25 h 1500 v 1587.73 h -0.74 z M 5691.02,1482.97 h 832.5 V 340 h -832.5 z"
       inkscape:label="64DD-1" />
    <path
       id="path154"
       style="display:inline;fill:#f01b25;fill-opacity:1;fill-rule:nonzero;stroke:none"
       d="m 8063.24,1892.5 -329.26,81.72 c -85.46,-308.24 -225.74,-684.73 -451.48,-912.74 6.76,-15 138.01,-317.261 138.01,-317.261 205.51,189.761 372.73,459.021 495,738.751 h 628.47 v -103.48 c 0,-594.021 -551.25,-989.26 -1135.46,-1043.24 0,0 47.22,-306.0195 50.97,-330.78125 C 8283.01,130.742 8877.73,613.75 8877.73,1379.49 v 437.23 h -836.99 c 7.5,25.51 15,51.01 22.5,75.78 z"
       inkscape:label="64DD-2" />
    <path
       id="path120"
       style="display:inline;fill:#f01b25;fill-opacity:1;fill-rule:nonzero;stroke:none"
       d="m 9384.77,1482.97 h 1165.43 v -405 H 9444.77 V 744.219 H 10550.2 V 340 H 9383.98 V 6.25 H 10884 v 1476.72 h 0.8 v 333.75 H 9384.77 Z"
       inkscape:label="64DD-3" />
    <path
       id="path156"
       style="display:inline;fill:#f01b25;fill-opacity:1;fill-rule:nonzero;stroke:none"
       d="m 12204.8,1653.24 c -241.6,117.74 -496.6,204.73 -759.8,257.23 -21.8,-109.49 -43.5,-218.24 -65.2,-327.74 230.9,-46.48 455.2,-121.48 666.7,-224.25 z"
       inkscape:label="64DD-4" />
    <path
       id="path128"
       style="display:inline;fill:#f01b25;fill-opacity:1;fill-rule:nonzero;stroke:none"
       d="m 11364.8,333.242 c 0,0 45.7,-295.5115 50.9,-327.77325 C 12573,62.5 12828,392.5 12925.5,1310.47 l -315,91.52 c -21,-605.271 -199.5,-893.24 -556.5,-1008.01 -171,-54.761 -434.2,-69.761 -689.2,-60.738 z"
       inkscape:label="64DD-5" />
    <path
       id="path118"
       style="display:inline;fill:#f01b25;fill-opacity:1;fill-rule:nonzero;stroke:none"
       d="m 14181,1576.72 h 947.23 v 333.75 H 14181 Z"
       inkscape:label="64DD-6" />
    <path
       id="path112"
       style="display:inline;fill:#f01b25;fill-opacity:1;fill-rule:nonzero;stroke:none"
       d="m 13934.3,993.98 h 751.4 V 779.492 c 0,-190.512 47.3,-301.523 -570,-497.262 L 14202,6.25 c 453,116.25 817.5,249.73 817.5,773.242 V 993.98 h 626.2 v 333.75 h -1711.4 z"
       inkscape:label="64DD-7" />
    <path
       id="path108"
       style="display:inline;fill:#f01b25;fill-opacity:1;fill-rule:nonzero;stroke:none"
       d="m 15333,1481.48 h 153.75 V 1945 H 15333 Z"
       inkscape:label="64DD-8" />
    <path
       id="path110"
       style="fill:#f01b25;fill-opacity:1;fill-rule:nonzero;stroke:none"
       d="m 15681.8,1481.48 h 153.75 V 1945 h -153.75 z"
       inkscape:label="64DD-9" />
    <path
       id="path126"
       style="fill:#f01b25;fill-opacity:1;fill-rule:nonzero;stroke:none;stroke-width:1.05612"
       d="m 15894.712,936.99178 56.291,-332.26169 c 167.923,9.01926 352.533,60.00029 527.215,145.49954 V 6.2499914 h 333.734 V 965.46794 c 189.045,158.28596 339.014,361.52576 402.804,594.75926 -110.998,0 -222.736,0 -333.734,0 -145.533,-353.9797 -672.009,-623.23542 -986.31,-623.23542 z"
       inkscape:label="64DD-10" />
    <path
       id="path116"
       style="display:inline;fill:#f01b25;fill-opacity:1;fill-rule:nonzero;stroke:none;stroke-width:1.14801"
       d="m 17510.252,1201.7254 h 1202.311 V 867.97133 h -1202.311"
       inkscape:label="64DD-11" />
    <path
       id="path148"
       style="display:inline;fill:#f01b25;fill-opacity:1;fill-rule:nonzero;stroke:none;stroke-width:1.24831"
       d="m 19400.235,1910.4636 h 947.218 v -333.7482 h -947.218"
       inkscape:label="64DD-12" />
    <path
       id="path140"
       style="fill:#f01b25;fill-opacity:1;fill-rule:nonzero;stroke:none;stroke-width:1.28006"
       d="m 19153.538,993.2408 h 751.395 V 778.74882 c 0,-190.50749 47.362,-301.51941 -570.011,-497.26875 L 19421.198,5.4687491 C 19874.212,121.7186 20238.773,255.22988 20238.773,778.74882 V 993.2408 h 626.205 v 333.7462 h -1711.44 z"
       inkscape:label="64DD-13" />
    <path
       id="path132"
       style="display:inline;fill:#f01b25;fill-opacity:1;fill-rule:nonzero;stroke:none;stroke-width:1.27035"
       d="m 20552.993,1944.9948 h 153.712 v -463.5126 h -153.712"
       inkscape:label="64DD-14" />
    <path
       id="path136"
       style="display:inline;fill:#f01b25;fill-opacity:1;fill-rule:nonzero;stroke:none;stroke-width:1.2917"
       d="m 20900.998,1944.9902 h 153.712 v -463.5136 h -153.712"
       inkscape:label="64DD-15" />
    <path
       id="path152"
       style="fill:#f01b25;fill-opacity:1;fill-rule:nonzero;stroke:none;stroke-width:1.37637"
       d="m 21114.892,936.99416 c 0,0 54.642,-324.76139 56.156,-332.2626 168.055,9.02073 351.8,60.0001 526.462,144.76247 V 6.2500136 h 333.769 V 964.73352 c 189.802,159.01888 339.826,362.26198 403.552,595.50578 -111.073,0 -222.834,0 -333.77,0 -145.482,-353.9859 -672.081,-623.24514 -986.169,-623.24514 z"
       inkscape:label="64DD-16" />
    <path
       id="path144"
       style="display:inline;fill:#f01b25;fill-opacity:1;fill-rule:nonzero;stroke:none;stroke-width:1.46825"
       d="m 22730.272,1200.9786 h 1202.203 V 867.2292 h -1202.203"
       inkscape:label="64DD-17" />
  </g>
  <g
     id="g2"
     style="display:inline"
     inkscape:label="専用ディスクドライブ (Sen’yō disuku doraibu) Dedicated Disc Drive / Exclusive Disc Drive"
     transform="matrix(0.13333333,0,0,-0.13333333,2346.4008,1961.4554)">
    <path
       id="path26"
       style="fill:#334fa2;fill-opacity:1;fill-rule:nonzero;stroke:none"
       d="m 14454,13054.7 259.5,-259.5 150,150 -225.8,225.8 h 501.8 v -123 c 0,-22.5 -18,-40.5 -40.5,-40.5 h -129 v -212.3 h 240 c 78,0 141.8,63.8 141.8,141.8 v 233.2 h 312 v 164.3 h -311.3 v 72.7 h 193.5 v 585.8 h -489 v 72.7 h 607.5 V 14230 H 15057 v 95.2 h -212.2 v -95.2 h -608.3 v -164.3 h 608.3 v -72.7 h -489.1 v -585.8 h 784.5 v -72.7 h -903.7 v -164.3 h 333 z m 879.8,483.8 h -276.758 v 126.012 h 276.758 z m 0,257.2 h -276.758 v 65.977 h 276.758 z m -489,0 h -276.758 v 65.977 h 276.758 z m -276.8,-131.2 h 276.758 v -126.012 H 14568 Z"
       inkscape:label="DDD-1" />
    <path
       id="path30"
       style="fill:#334fa2;fill-opacity:1;fill-rule:nonzero;stroke:none;stroke-width:1.05184"
       d="m 16167.727,13252.027 v 27.663 h 276.003 v -485.213 h 212.262 v 485.213 h 276.739 v -232.456 c 0,-22.51 -17.987,-40.496 -40.496,-40.496 h -128.956 v -212.261 h 239.925 c 78.046,0 141.788,63.741 141.788,141.788 v 1294.499 H 15954.73 v -979.473 c 0.736,-132.848 -79.519,-243.817 -173.238,-338.377 50.278,-49.437 129.061,-116.229 179.233,-165.665 133.479,134.215 207.739,315.762 207.002,504.778 z m 0,239.925 v 156.829 h 276.003 v -156.829 z m 765.74,368.985 h -276.739 v 157.566 h 276.739 z m -489.737,0 h -276.003 v 157.566 h 276.003 z m 212.262,-368.985 v 156.829 h 276.739 v -156.829 z"
       inkscape:label="DDD-2" />
    <path
       id="path54"
       style="display:inline;fill:#334fa2;fill-opacity:1;fill-rule:nonzero;stroke:none;stroke-width:1.14115"
       d="m 17903.274,14197.047 h 697.471 v -246.032 h -697.471"
       inkscape:label="DDD-3" />
    <path
       id="path164"
       style="display:inline;fill:#334fa2;fill-opacity:1;fill-rule:nonzero;stroke:none;stroke-width:1.16453"
       d="m 17721.119,13767.307 v -245.949 h 553.501 v -157.561 c 0,-140.209 35.169,-222.076 -420.046,-366.012 l 63.7,-203.21 c 333.754,85.476 602.295,183.762 602.295,569.222 v 157.561 h 461.27 v 245.949 z"
       inkscape:label="DDD-4" />
    <path
       id="path34"
       style="fill:#334fa2;fill-opacity:1;fill-rule:nonzero;stroke:none;stroke-width:1.15735"
       d="m 18751.5,14223.253 h 113.305 v -341.187 H 18751.5"
       inkscape:label="DDD-5" />
    <path
       id="path38"
       style="fill:#334fa2;fill-opacity:1;fill-rule:nonzero;stroke:none;stroke-width:1.17308"
       d="m 19008.002,14223.243 h 113.202 v -341.249 h -113.202"
       inkscape:label="DDD-6" />
    <path
       id="path58"
       style="fill:#334fa2;fill-opacity:1;fill-rule:nonzero;stroke:none;stroke-width:1.23133"
       d="m 19139.917,13235.443 c 123.748,6.772 259.564,44.205 388.484,107.249 v -548.188 h 246.02 v 707.153 c 139.51,116.237 249.837,266.213 296.258,437.245 -81.76,0 -164.259,0 -246.02,0 -106.51,-260.18 -494.256,-458.917 -725.992,-458.917 z"
       inkscape:label="DDD-7" />
    <path
       id="path62"
       style="fill:#334fa2;fill-opacity:1;fill-rule:nonzero;stroke:none;stroke-width:1.31945"
       d="m 20237.988,13037.525 c 6.069,-21.758 58.584,-227.275 62.278,-242.264 239.216,26.244 472.495,197.271 640.461,419.954 144.876,-112.456 264.814,-298.472 386.995,-477.693 l 179.313,218.25 c -130.494,174.721 -278.932,359.194 -437.266,466.465 76.528,151.605 122.313,312.05 122.313,459.828 v 245.946 h -897.094 v -245.946 h 651.017 c -0.792,-190.528 -203.195,-687.816 -708.017,-844.54 z"
       inkscape:label="DDD-8" />
    <path
       id="path82"
       style="display:inline;fill:#334fa2;fill-opacity:1;fill-rule:nonzero;stroke:none;stroke-width:1.39799"
       d="m 22077.757,13882.712 h 462.735 v -75.743 h 0.699 c 0,-438.005 -405.697,-729.024 -836.278,-768.741 12.023,-86.256 26.282,-171.771 38.305,-243.013 606.029,92.268 1044.019,447.735 1044.019,1011.754 h -0.839 v 321.817 h -616.374 c 6.012,18.733 11.184,36.627 16.357,54.661 l -242.132,59.974 c -63.049,-226.474 -165.802,-503.947 -332.302,-671.958 l 101.214,-233.24 c 150.843,140.232 273.867,338.984 364.596,544.489 z"
       inkscape:label="DDD-9" />
    <path
       id="path42"
       style="display:inline;fill:#334fa2;fill-opacity:1;fill-rule:nonzero;stroke:none;stroke-width:1.50014"
       d="m 23699.962,13467.237 c 217.52,-15.002 425.289,-100.51 624.058,-203.254 37.504,72.742 90.758,195.753 128.262,268.525 -234.022,120.746 -492.046,182.972 -752.32,185.972 v 468.014 h -246.023 v -1391.995 h 246.023 z"
       inkscape:label="DDD-10" />
    <path
       id="path66"
       style="fill:#334fa2;fill-opacity:1;fill-rule:nonzero;stroke:none;stroke-width:1.48348"
       d="m 24067.534,14223.235 h 113.19 v -341.245 h -113.19"
       inkscape:label="DDD-11" />
    <path
       id="path70"
       style="fill:#334fa2;fill-opacity:1;fill-rule:nonzero;stroke:none;stroke-width:1.49922"
       d="m 24323.945,14223.25 h 113.341 v -341.237 h -113.341"
       inkscape:label="DDD-12" />
    <path
       id="path78"
       style="display:inline;fill:#334fa2;fill-opacity:1;fill-rule:nonzero;stroke:none;stroke-width:1.58535"
       d="m 25061.213,13040.439 h -284.253 l 38.206,-245.967 h 246.047 c 522.056,0 779.992,377.218 779.992,768.752 v 243.003 h -1199.951 v -246.015 h 953.905 c -1.427,-266.989 -177.718,-519.773 -533.946,-519.773 z"
       inkscape:label="DDD-13" />
    <path
       id="path46"
       style="display:inline;fill:#334fa2;fill-opacity:1;fill-rule:nonzero;stroke:none;stroke-width:1.5785"
       d="m 24814.494,14210.494 h 915.056 v -245.978 h -915.056"
       inkscape:label="DDD-14" />
    <path
       id="path50"
       style="display:inline;fill:#334fa2;fill-opacity:1;fill-rule:nonzero;stroke:none;stroke-width:1.67071"
       d="m 26588.347,12795.266 h 245.929 v 859.497 c 173.252,136.53 312.757,318.003 398.297,531.754 h -269.987 c -177.763,-343.515 -533.959,-563.247 -927.077,-561.743 v -245.996 c 195.139,-0.768 383.261,43.489 552.838,123.75 z"
       inkscape:label="DDD-15" />
    <path
       id="path86"
       style="display:inline;fill:#334fa2;fill-opacity:1;fill-rule:nonzero;stroke:none;stroke-width:1.74856"
       d="m 28255.506,13782.989 c 0,-467.967 -275.224,-746.985 -742.439,-746.985 0,0 0,0 -38.293,0 0,0 33.747,-217.503 37.594,-241.493 680.889,0 989.16,384.735 989.16,987.744 v 441.004 h -113.307 v -314.251 h -89.176 v 218.99 h -872.182 v -245.988 h 828.643 z"
       inkscape:label="DDD-16" />
    <path
       id="path74"
       style="display:inline;fill:#334fa2;fill-opacity:1;fill-rule:nonzero;stroke:none;stroke-width:1.76641"
       d="m 28679.256,14223.239 h 113.227 v -340.511 h -113.227"
       inkscape:label="DDD-17" />
  </g>
</svg>
