<!-- Created by ERK --><svg xmlns="http://www.w3.org/2000/svg" width="963.227" height="210.8" viewBox="0 0 722.42 158.1"><path fill="#2a4da7" d="M694.08 13.59a44 44 0 0 0-3.01.101c-8.53.574-16.573 2.494-23.034 6.655s-11.363 10.552-13.655 20.203c-3.056 12.882-.887 21.585 4.607 28.378S673.383 80.6 683.82 85.543c1.959.926 5.09 2.725 7.295 5.546 2.205 2.82 3.439 6.724 1.525 11.565a.5.5 0 0 1-.041.08c-3.2 5.053-7.075 6.824-11.128 6.824-10.446 0-18.847-7.009-24.625-13.951-4.887-5.871-7.44-10.87-8.262-12.542l-4.728 35.789c.224.378 12.025 20.08 39.076 18.785 14.408-.69 24.158-6.477 30.387-14.124s8.923-17.185 9.086-25.337c.329-16.077-4.818-23.742-15.98-32.28-2.22-1.695-5.788-3.622-9.395-5.466s-7.253-3.612-9.699-5.061c-5.917-3.506-4.867-9.612-4.85-9.71.002-.026.18-2.021 1.588-4.014 1.417-2.006 4.12-3.998 8.952-3.998 11.97 0 18.915 7.043 20.607 8.962l3.14-25.116c-.404-.403-8.085-7.888-22.685-7.904zM557.97 19.8l-10.433 75.872-.01.05-.052.203c.023 15.777 11.48 28.513 27.237 28.513h62.426l12.492-104.64h-27.412l-9.574 80.098a.48.48 0 0 1-.477.422h-25.203c-3.742 0-6.81-1.314-8.803-3.596-1.992-2.282-2.888-5.506-2.399-9.226l8.962-67.698zm-33.66 0-14.388 104.64h26.752L551.063 19.8zM161.55 0c-28.35 0-52.964 15.916-65.422 39.292a.48.48 0 0 1-.873-.059L87.96 19.8H56.897L.001 124.44h29.257l14.413-28.116a.48.48 0 0 1 .428-.262h46.27a.48.48 0 0 1 .29.098l.055.043a.5.5 0 0 1 .166.236c9.467 30.012 37.524 51.765 70.67 51.765 15.66 0 30.166-4.851 42.134-13.13a.48.48 0 0 1 .68.143l14.215 22.887h30.549l-26.137-42.07a.48.48 0 0 1 .01-.523 71 71 0 0 0 5.669-9.985.48.48 0 0 1 .89.053c3.626 11.015 13.347 18.863 25.711 18.863h78.246l14.414-28.116a.48.48 0 0 1 .427-.262h42.968a.48.48 0 0 1 .45.315l10.349 28.063h36.208l10.929-79.443a.48.48 0 0 1 .476-.415h22.68c6.02.091 9.516 1.935 11.432 4.675s2.243 6.265 2.243 9.666c0 7.932-7.095 14.34-15 14.34h-22.541l28.772 51.176h30.542l-19.708-32.158a.48.48 0 0 1 .322-.722c13.698-2.493 24.342-13.44 26.297-27.908l-.007-.059c1.737-9.417-.13-20.394-5.943-28.98s-15.534-14.81-29.651-14.81H425.97l-8.798 63.976a.48.48 0 0 1-.926.103l-24.029-64.08h-31.06l-38.488 70.78a.48.48 0 0 1-.899-.285l8.42-70.496h-27.412L293.204 99.9a.48.48 0 0 1-.476.422h-25.206c-3.742 0-6.81-1.314-8.803-3.596-1.992-2.282-2.888-5.506-2.399-9.226l8.963-67.698H238.53l-4.699 34.153a.48.48 0 0 1-.937.065C224.136 22.844 195.518.003 161.55.003zm0 23.94c27.708 0 50.162 22.453 50.162 50.159 0 27.707-22.454 50.159-50.161 50.159-27.706 0-50.16-22.453-50.16-50.159s22.454-50.159 50.16-50.159M70.185 45.494a.48.48 0 0 1 .869.045l11 27.06a.48.48 0 0 1-.443.662H56.268a.48.48 0 0 1-.424-.705zm302.73 2.068a.48.48 0 0 1 .879.053l9.224 25a.48.48 0 0 1-.448.645h-22.042a.48.48 0 0 1-.428-.699z"/><path fill="#24b145" d="m156.08 25.53 47.618 73.33c4.276-7.26 6.723-15.73 6.723-24.764 0-26.991-21.875-48.867-48.868-48.867-1.855 0-3.671.097-5.472.302"/><path fill="#f7ed19" d="m132.81 34.57 53.172 81.868a49 49 0 0 0 19.113-20.144L158.99 25.289a48.64 48.64 0 0 0-26.18 9.281"/><path fill="#f06f25" d="m116.71 54.64 44.372 68.324h.467c9.818 0 18.962-2.886 26.62-7.879l-53.24-81.977a48.97 48.97 0 0 0-18.218 21.532"/><path fill="#eb222c" d="m164.11 122.911-46.103-71.005c-3.41 6.655-5.321 14.204-5.321 22.192 0 26.992 21.877 48.868 48.867 48.868.853 0 1.719-.013 2.558-.055"/></svg>