<!-- Created by ERK --><svg xmlns="http://www.w3.org/2000/svg" xmlns:xlink="http://www.w3.org/1999/xlink" xml:space="preserve" id="Layer_1" x="0" y="0" viewBox="0 0 3840 741.1"><defs id="defs16"><linearGradient xlink:href="#SVGID_1_" id="linearGradient16" x1="1.1" x2="3838.9" y1="652.6" y2="652.6" gradientUnits="userSpaceOnUse"/></defs><style id="style1" type="text/css">.st3{fill:#606060}</style><g id="g16"><linearGradient id="SVGID_1_" x1="1.08" x2="3838.92" y1="-1551.064" y2="-1551.064" gradientTransform="matrix(1 0 0 -1 0 -898.464)" gradientUnits="userSpaceOnUse"><stop id="stop1" offset="0" style="stop-color:#f1784f"/><stop id="stop2" offset=".29" style="stop-color:#e0d647"/><stop id="stop3" offset=".548" style="stop-color:#73914f"/><stop id="stop4" offset=".771" style="stop-color:#4d7bbd"/><stop id="stop5" offset="1" style="stop-color:#444044"/></linearGradient><path id="rect5" d="M1.1 564.1h3837.8v177H1.1z" style="fill:url(#linearGradient16)"/><g id="g15" style="fill:#606060;fill-opacity:1"><g id="g6" style="fill:#606060;fill-opacity:1"><g id="g5" style="fill:#606060;fill-opacity:1"><path id="path29_14_" d="M3364.9 81.6C3326.6 28.2 3270.4 0 3202.3 0s-124.4 28.2-162.6 81.6c-32.2 44.9-49.9 105.2-49.9 169.8 0 125.1 65.7 251.4 212.6 251.4S3415 376.5 3415 251.4c-.1-64.7-17.8-125-50.1-169.8m-162.6 272.3c-51.2 0-56.8-69.5-56.8-103.1 0-33.2 5.6-101.9 56.8-101.9s56.8 68.7 56.8 101.9c0 33.6-5.7 103.1-56.8 103.1" class="st3" style="fill:#606060;fill-opacity:1"/><path id="path29_13_" d="M3790 81.6C3751.8 28.2 3695.5 0 3627.4 0S3503 28.2 3464.8 81.6c-32.2 44.9-49.9 105.2-49.9 169.8 0 125.1 65.7 251.4 212.6 251.4S3840 376.5 3840 251.4c0-64.7-17.7-125-50-169.8m-162.6 272.3c-51.2 0-56.8-69.5-56.8-103.1 0-33.2 5.6-101.9 56.8-101.9s56.8 68.7 56.8 101.9c0 33.6-5.6 103.1-56.8 103.1" class="st3" style="fill:#606060;fill-opacity:1"/><path id="polygon33_7_" d="M2212.1 9.1v154.4H2411l-159.2 328.9h178.7L2640.8 9.1z" class="st3" style="fill:#606060;fill-opacity:1"/><path id="path5" d="M2895.6 238.9c60.3-22.2 100.9-63.4 100.9-110.7 0-70.8-90.9-128.2-203.1-128.2s-203.2 57.4-203.2 128.2c0 47.3 40.6 88.4 100.9 110.7-66.4 23.8-111.5 70.1-111.5 123.4 0 77.6 95.7 140.5 213.7 140.5S3007 439.9 3007 362.3c.1-53.2-45-99.5-111.4-123.4m-102.2-135.1c22.9 0 41.5 18.6 41.5 41.5s-18.6 41.5-41.5 41.5-41.5-18.6-41.5-41.5 18.6-41.5 41.5-41.5m0 284.5c-27.4 0-49.6-22.2-49.6-49.6s22.2-49.6 49.6-49.6 49.6 22.2 49.6 49.6c0 27.3-22.2 49.6-49.6 49.6" class="st3" style="fill:#606060;fill-opacity:1"/></g></g><g id="g14" style="fill:#606060;fill-opacity:1"><g id="g13" style="fill:#606060;fill-opacity:1"><g id="g8" style="fill:#606060;fill-opacity:1"><path id="path6" d="M215 9.1h36.6c.1 28.7 0 57.4 0 86.1.1 24-.6 47.9-1.5 71.9-1.6 34.6-3.8 69.2-9.5 103.4-3.9 23.6-12.1 46.3-22.2 67.9-16.5 34.8-42.4 64.2-71.6 88.9-26.1 22.9-57.2 39.6-89.9 50.9-18.5 6.4-37.6 11.3-57 14V420c23.4-3.5 45.8-11.8 66.6-22.7 24.7-13.1 47-30.7 65.8-51.4 19.4-21.4 34.8-46.2 46.5-72.5 13.8-30.3 21.2-62.9 26.2-95.7 6.3-41.6 8.9-83.7 9.9-125.8.2-14.3.1-28.5.1-42.8" class="st3" style="fill:#606060;fill-opacity:1"/><path id="path7" d="M266.4 9.2c22.5-.1 45 0 67.4-.1v483.1c-22.4 0-44.9-.1-67.3.1-.3-51.4 0-102.7-.1-154.1 0-109.6.1-219.3 0-329" class="st3" style="fill:#606060;fill-opacity:1"/><path id="path8" d="M348.8 9.1h36.4c-.4 49.1 1.3 98.3 7.1 147.1 4.8 37.9 11.5 76.1 26.6 111.4 14.3 34.1 34.9 65.9 61.8 91.5 25.7 24.5 56.8 43.3 90.5 54.1 9.4 3 19.1 5.4 28.9 6.8v72.2c-19.3-2.6-38.1-7.6-56.5-13.8-21.9-7.6-43-17.5-62.5-30.1-14.2-9.1-27.1-20-39.5-31.5-20.4-18.8-38.7-40.3-52.5-64.5-10.8-18.9-18.6-39.3-24.7-60.1-5.6-20.9-8-42.5-10.2-64-4.2-46.5-5.8-93.2-5.5-139.8.1-26.5.1-52.9.1-79.3" class="st3" style="fill:#606060;fill-opacity:1"/></g><path id="path9" d="M821.9 29.1c18.8-24 57.7-28.1 80.7-8C912 29 918.6 40 922 51.8c42.7 146.9 85.6 293.7 128.2 440.5h-75.6c-11.9-40.5-23.5-81.1-35.2-121.6-48.7-.1-97.4 0-146.1 0-11.9 40.5-23.7 81.1-35.4 121.6-25-.1-50.1 0-75.2 0C723.2 352.2 763.9 212.1 804.6 72c4.9-14.6 6.7-31 17.3-42.9m44.4 90c-17.9 60.8-35.4 121.8-53.1 182.7 35.4.2 70.8.1 106.2.1-17.7-61-35.3-121.9-53.1-182.8" class="st3" style="fill:#606060;fill-opacity:1"/><path id="path10" d="M1352.5 32.2c13.1-19 38.5-28.3 60.8-22.4 20.5 4.7 36.1 22.3 41.5 42.2 42.7 146.8 85.4 293.5 128.1 440.2-25.2.2-50.4 0-75.7.1-11.7-40.5-23.3-81.1-35.2-121.6-48.6 0-97.2-.1-145.9 0-11.6 40.6-23.6 81-35.2 121.6h-75.1c40.5-140.9 81.5-281.6 122.4-422.4 4.4-12.7 6.1-26.7 14.3-37.7m-6.1 269.6h105.8c-17.5-61.1-35.4-122-52.8-183.1-17.7 61.1-35.5 122.1-53 183.1" class="st3" style="fill:#606060;fill-opacity:1"/><path id="path11" d="M993.8 9.1h273.4v73.7h-100.6v409.5h-72.1V82.8c-33.6-.1-67.1 0-100.7 0z" class="st3" style="fill:#606060;fill-opacity:1"/><path id="path12" d="M1663.1 12.1c6.9-2.4 14.3-3.2 21.6-3 28.7.1 57.5 0 86.2 0 48.4.9 94.6 30.9 115.5 74.5 14.5 28.3 16 61.2 12.3 92.2-2.5 32.5-16.2 64.9-41.1 86.5-13.2 11.7-29.6 18.9-43.7 29.3-7.7 5.9-8.1 17.4-4.1 25.6 38.1 58.9 77.8 116.8 116.7 175.2-28.5 0-56.9-.1-85.4 0-37.3-56-74.2-112.3-111.3-168.3-10.9-16-13.9-37.1-7.3-55.3 5.1-14 17.3-24.2 30.9-29.5 25.9-9.9 51.6-25.5 65.9-50 10.9-18.4 10.4-41.1 5.4-61.3-5.8-26.2-31.2-46.7-58.2-45.8-18.6.1-37.2-.1-55.8.1-8.4-.2-16.3 7.1-16.2 15.7-.1 131.5 0 262.9 0 394.4h-72.6c-.1-141.5.1-283-.1-424.6.1-24.8 17.7-48.2 41.3-55.7" class="st3" style="fill:#606060;fill-opacity:1"/><path id="path13" d="M1964.5 9.1h76.4c0 161.1.1 322.2-.1 483.2-25.4-.1-50.9 0-76.4 0 .1-161.1.1-322.1.1-483.2" class="st3" style="fill:#606060;fill-opacity:1"/></g></g></g></g></svg>