<!-- Created by ERK --><svg xmlns="http://www.w3.org/2000/svg" xml:space="preserve" width="999.987" height="175" viewBox="0 0 264.58 46.302"><g stroke-linecap="round" stroke-linejoin="round"><g stroke="#fff" stroke-width="2.117"><path fill="#9e03ed" d="M91.743 75.502c-.09-1.492-.304-6.641-.476-11.443l-.312-8.731.854-3.572c.469-1.965.913-3.78.986-4.035.124-.43.85-.463 10.42-.463 5.656 0 10.334.09 10.394.198.121.22-.826 8.575-.99 8.74-.057.057-2.643-.188-5.747-.544s-5.79-.593-5.968-.526c-.432.161-.654 1.464-.553 3.244l.083 1.456 4.961-.084c2.728-.045 4.96-.045 4.958 0-.01.348-1.315 7.705-1.375 7.756-.043.035-1.906-.169-4.142-.454-2.79-.355-4.15-.432-4.337-.245-.188.187-.012 1.93.559 5.56.457 2.908.831 5.415.831 5.571 0 .192-1.614.284-4.99.284h-4.992z" style="paint-order:markers stroke fill" transform="translate(34.372 -39.849)"/><path fill="#f0d003" d="M64.854 78.28c.004-.11.524-4.604 1.156-9.988.694-5.91 1.055-9.908.912-10.089-.136-.173-1.544-.37-3.339-.467a489 489 0 0 1-5.417-.324l-2.315-.156v-9.808l10.253.171c5.639.094 12.664.246 15.61.337l5.358.165v5.654c0 3.311-.102 5.653-.247 5.653-.135 0-2.477-.362-5.204-.805-4.054-.658-5.02-.742-5.299-.463-.276.279-.072 2.134 1.1 10 .79 5.311 1.44 9.806 1.443 9.988.003.256-1.572.33-7.007.33-3.856 0-7.008-.089-7.004-.198" style="paint-order:markers stroke fill" transform="translate(34.372 -39.849)"/><path fill="#14a6cb" d="m19.248 74.443.452-.86.175.662c.219.83.099 1.058-.559 1.058-.503 0-.505-.028-.068-.86m198.962 3.591c-.078-.265-.616-2.15-1.196-4.186-1.633-5.743-3.524-10.825-4.068-10.93-.287-.056-1.852 1.136-4.166 3.171-2.039 1.794-3.796 3.29-3.904 3.326s-1.502-1.661-3.097-3.77c-1.682-2.226-3.083-3.836-3.337-3.836-.314 0-1.478 2.185-4.1 7.69-2.013 4.23-3.73 7.733-3.813 7.785-.178.11-9.822-1.655-9.996-1.83-.48-.479.687-2.886 7-14.438l7.155-13.097 8.468-.145 1.522 4.244c.837 2.334 1.615 4.302 1.73 4.373.509.315 1.095-.413 3.578-4.443l2.645-4.294h7.373l3.857 13.494c2.122 7.422 4.048 14.163 4.28 14.98l.423 1.487-4.137.31c-2.276.171-4.574.374-5.106.451-.782.113-.996.047-1.11-.342z" style="paint-order:markers stroke fill" transform="translate(34.372 -39.849)"/><path fill="#d26c00" d="M152.16 78.042c0-.24-.539-6.865-1.197-14.722s-1.157-14.326-1.107-14.376c.049-.05 3.929-.39 8.622-.758l8.532-.67 3.696 2.689c2.033 1.478 3.752 2.777 3.82 2.887s.265 2.286.437 4.836l.314 4.637-1.57 1.759c-2.61 2.922-3.038 3.498-2.883 3.873.081.197 1.742 1.728 3.69 3.402 1.947 1.673 3.549 3.11 3.558 3.191.018.153-7.366 3.427-7.725 3.425-.11-.001-2.372-1.846-5.027-4.1-2.654-2.255-5.038-4.1-5.297-4.101-.26-.002-.533.158-.609.355s.166 2.003.538 4.012c.37 2.01.675 3.754.675 3.875 0 .122-1.905.222-4.234.222-3.755 0-4.233-.05-4.233-.436m12.362-17.027c.802-1.13 1.377-2.212 1.336-2.513-.086-.629-5.048-3.363-5.893-3.248-.478.066-.549.352-.731 2.983-.275 3.959-.214 4.434.599 4.666.364.103 1.25.167 1.97.142l1.31-.045z" style="paint-order:markers stroke fill" transform="translate(34.372 -39.849)"/><path fill="#d52929" d="M-32.397 76.428c.143-2.038 1.464-27.849 1.464-28.611 0-.21 2.44-.295 8.554-.295h8.553l7.103 4.937.175 3.55.304 6.096.128 2.544-7.288 7.274-4.862.305c-2.674.168-5.01.4-5.192.515-.232.147-.33 1.078-.33 3.105v2.895h-8.772zm16.228-15.591c2.66-3.141 2.64-3.196-1.535-4.107-1.819-.397-3.443-.726-3.61-.732-.465-.015-.577.515-.777 3.662l-.184 2.915.764.17c.42.093.884.209 1.03.257.145.049.74.095 1.322.102 1.009.013 1.149-.093 2.99-2.267" style="paint-order:markers stroke fill" transform="translate(34.372 -39.849)"/><path fill="#0218d5" d="M122 73.145c-3.129-2.767-6.06-5.348-6.512-5.736l-.824-.705.982-6.429c.54-3.536 1.09-6.523 1.22-6.639.132-.116 2.355-1.542 4.94-3.17l4.703-2.96 11.377.364 4.559 5.636c3.412 4.219 4.538 5.789 4.475 6.242-.391 2.841-2.465 14.105-2.624 14.25-.255.233-15.671 4.226-16.21 4.199-.218-.012-2.957-2.285-6.085-5.052zm10.542-7.277c2.998-1.043 2.955-.978 2.773-4.154-.084-1.476-.241-2.78-.349-2.9-.243-.268-5.818-1.543-6.314-1.443-.445.09-2.923 5.493-2.742 5.979.108.29 4.215 3.222 4.513 3.222.051 0 1.005-.317 2.119-.705" style="paint-order:markers stroke fill" transform="translate(34.372 -39.849)"/><path fill="#02c202" d="M-2.969 75.369c-.268-3.91-1.093-27.819-.964-27.935.136-.123 10.285 1.027 10.415 1.18.046.054-.197 4.206-.539 9.227-.341 5.02-.56 9.396-.487 9.723s.271.595.438.595c.425 0 11.277-1.288 12.282-1.458l.822-.139.271 2.188.271 2.187.473 4.273s-3.314.358-3.488.358-4.325.476-9.225 1.058-9.178 1.058-9.509 1.058c-.567 0-.61-.13-.76-2.315" style="paint-order:markers stroke fill" transform="translate(34.372 -39.849)"/><path fill="#14a6cb" d="M42.447 47.618c-1.564.039-7.341.7-7.527.9-.1.107-3.247 5.282-6.992 11.5l-6.81 11.303-.755 1.317c-.514.894-1.884 3.256-1.82 3.431.083.222 1.62.565 2.172.744.378.122.748.195 3.283.66 2.021.372 4.032.69 4.469.707l.794.031 1.035-3.636c.57-2 1.163-3.801 1.319-4.003.233-.302 1.275-.332 5.975-.174 3.33.112 5.761.302 5.857.459.091.146.376 1.803.634 3.68.4 2.912.537 3.413.937 3.413.521 0 10.929-1.603 11.029-1.698.072-.069-13.024-28.416-13.216-28.608-.023-.023-.16-.03-.384-.025zm-4.524 9.922q.277 0 .57.008c1.396.036 1.965.162 2.21.486.54.712 1.754 4.723 1.573 5.193-.124.322-.458.42-1.3.38-.622-.031-2.282-.095-3.687-.142-3.437-.116-3.488-.19-2.202-3.256.55-1.313 1.119-2.46 1.263-2.549.117-.072.776-.12 1.573-.12" style="paint-order:markers stroke fill" transform="translate(34.372 -39.849)"/></g><path fill="#fff" d="M-3.858 46.366q-.043 0-.099.003c-.038.002-.08.005-.16.02a1 1 0 0 0-.31.11 3 3 0 0 0-.217.152s-.241.313-.272.39a1 1 0 0 0-.05.159c-.017.07-.02.104-.024.134-.007.06-.008.093-.01.131a6 6 0 0 0-.006.254q-.001.295.008.804c.01.68.033 1.644.064 2.805.064 2.324.164 5.446.276 8.688.224 6.484.494 13.398.633 15.426.075 1.098.08 1.647.273 2.234.096.293.336.688.705.887.369.198.656.18.838.18.169 0 .23-.011.397-.026q.25-.022.648-.062c.53-.055 1.25-.133 2.113-.229 1.727-.192 4.025-.457 6.477-.748 2.448-.291 4.709-.556 6.379-.748a432 432 0 0 1 2.581-.287c.135-.014.359-.016.14-.016.202 0 .182-.011.294-.021l.428-.041c.338-.034.771-.078 1.197-.123.852-.09 1.682-.18 1.682-.18a1.06 1.06 0 0 0 .937-1.168l-.472-4.274-.002-.013-.272-2.188-.27-2.187a1.06 1.06 0 0 0-1.226-.912l-.822.138c-.32.054-3.418.442-6.307.785a746 746 0 0 1-3.96.461c-.5.057-.904.1-1.23.135.002-.121.004-.228.009-.396.015-.522.046-1.25.09-2.127.087-1.754.227-4.1.398-6.604.171-2.513.316-4.808.414-6.486.049-.838.085-1.522.107-2.006q.017-.361.022-.576c.002-.072.003-.13.002-.193 0-.032-.001-.06-.006-.116-.003-.027-.004-.06-.018-.127a1 1 0 0 0-.04-.142l-.055-.131-.139-.207s-.115-.118-.16-.152a1 1 0 0 0-.112-.077 1.2 1.2 0 0 0-.281-.119c-.07-.02-.12-.031-.175-.043a9 9 0 0 0-.391-.068 47 47 0 0 0-1.21-.17 218 218 0 0 0-3.563-.43 216 216 0 0 0-3.561-.377 50 50 0 0 0-1.213-.105 8 8 0 0 0-.395-.02zm.062 1.06c1.228.025 10.155 1.045 10.277 1.188.046.055-.196 4.206-.538 9.227-.342 5.02-.56 9.396-.487 9.723.074.328.271.596.438.596.425 0 11.277-1.29 12.281-1.459l.822-.139.271 2.188.27 2.188.474 4.272s-3.314.358-3.488.358-4.325.476-9.225 1.058-9.179 1.059-9.51 1.059c-.567 0-.61-.13-.759-2.316-.268-3.91-1.093-27.819-.964-27.935q.013-.01.137-.008z" color="#000" style="paint-order:markers stroke fill" transform="translate(34.372 -39.849)"/></g></svg>