<!-- Created by ERK --><svg xmlns="http://www.w3.org/2000/svg" xml:space="preserve" width="2175.373" height="374.262" viewBox="0 0 575.567 99.024"><g aria-label="games" style="font-size:28.9616px;font-family:stoNe;-inkscape-font-specification:stoNe;fill:#ececec;stroke-width:.594843;stroke-linecap:round;stroke-linejoin:round;stroke-miterlimit:1;paint-order:markers fill stroke"><path d="M301.745-185.245h14.481l-1.217 2.896-5.937 14.48-1.795 4.345h-14.51l1.187-2.896h8.718l.608-1.448h-8.689l1.188-2.896zm4.576 2.896-4.75 11.585h2.896l4.75-11.585zm12.714-2.896h14.481l-1.217 2.896-5.937 14.48h-14.481l5.358-13.032h8.689l.58-1.448h-8.69zm2.81 7.24-2.984 7.24h2.896l2.983-7.24zm14.48-7.24h20.274l1.766 2.693-6.024 14.684h-5.793l5.938-14.48h-2.897l-5.937 14.48h-5.792l5.937-14.48h-2.896l-5.937 14.48h-5.792l7.124-17.32zm26.008 0h14.481l-1.159 2.896-4.286 10.137h-8.602l-.608 1.448h8.66l-1.217 2.896h-14.423l5.995-14.48zm4.633 2.896-3.012 7.24h2.868l3.04-7.24zm12.744-2.896h14.48l-1.216 2.896-1.187 2.896h-5.793l1.188-2.896h-2.897l-1.766 4.344h8.688l-4.2 10.137H372.47l2.375-5.792h5.792l-1.187 2.896h2.983l1.767-4.344h-8.689l1.217-2.897z" style="font-family:&quot;Thunderbold Demo&quot;;-inkscape-font-specification:&quot;Thunderbold Demo&quot;" transform="translate(179.8 262.547)"/></g><g aria-label="Steering wheel" style="font-size:80.5472px;font-family:stoNe;-inkscape-font-specification:stoNe;fill:#ffd42a;stroke:#ffd42a;stroke-linecap:round;stroke-linejoin:round;stroke-miterlimit:1;paint-order:markers fill stroke"><path d="M-138.436-240.618v7.512h-26.94q-2.242 0-2.242 2.163v4.76q0 2.831 3.067 4.168l17.305 7.433q4.248 1.849 4.248 8.142v10.029q0 4.011-2.32 6.332-2.517 2.438-7.198 2.438h-16.793q-4.72 0-7.355-2.163-2.635-2.202-2.635-6.017v-9.44h11.72l-.04 7.827q0 2.281 2.046 2.281h8.692q2.242 0 2.242-2.163v-4.759q0-2.989-2.714-4.13l-17.305-7.472q-4.641-1.966-4.641-8.141v-10.03q0-8.77 9.557-8.77zm35.2 0v7.512h-15.535v-7.512zm-4.169 19.783h-16.125l.04 23.598q0 2.124 2.202 2.124h.59q1.927 0 1.927-2.242v-3.972h11.366v5.545q0 3.776-2.674 5.978-2.674 2.163-7.276 2.163h-8.063q-9.439 0-9.439-8.77v-24.424h-3.775v-6.686h3.657v-13.097h11.485v13.097h16.085z" style="font-family:&quot;Ferro Rosso&quot;;-inkscape-font-specification:&quot;Ferro Rosso&quot;" transform="translate(179.8 262.547)"/><path d="M-66.58-240.618v7.512h-37.403v-7.512zm-4.484 36.144h-21.513v9.203q0 2.163 2.202 2.163h5.86q2.045 0 2.045-2.241v-5.35h11.406v4.917q0 3.776-2.714 5.978-2.713 2.163-7.276 2.163h-13.411q-4.68 0-7.158-2.477-2.36-2.282-2.36-6.293v-22.89q0-4.13 3.068-6.332 2.635-1.888 6.686-1.888h13.647q9.518 0 9.518 8.456zm-11.406-4.523v-10.697q0-2.32-1.887-2.32l-6.175.038q-2.045 0-2.045 2.36v10.62z" style="font-family:&quot;Ferro Rosso&quot;;-inkscape-font-specification:&quot;Ferro Rosso&quot;" transform="translate(179.8 262.547)"/><path d="M-29.768-240.618v7.512H-67.17v-7.512zm-4.483 36.144h-21.514v9.203q0 2.163 2.203 2.163h5.86q2.045 0 2.045-2.241v-5.35h11.406v4.917q0 3.776-2.714 5.978-2.714 2.163-7.276 2.163h-13.411q-4.68 0-7.158-2.477-2.36-2.282-2.36-6.293v-22.89q0-4.13 3.067-6.332 2.636-1.888 6.686-1.888h13.648q9.518 0 9.518 8.456zm-11.406-4.523v-10.697q0-2.32-1.888-2.32l-6.175.038q-2.045 0-2.045 2.36v10.62z" style="font-family:&quot;Ferro Rosso&quot;;-inkscape-font-specification:&quot;Ferro Rosso&quot;" transform="translate(179.8 262.547)"/><path d="M7.438-240.618v7.512h-37.796v-7.512zM3.033-205.81H-8.49v-12.94q0-.786-.118-.983-.118-.236-.512-.236-1.022 0-3.54 2.635-1.73 1.77-2.91 3.737v18.445h3.658v7.512h-18.446v-7.512h3.776v-25.682h-3.776v-6.686h14.788v5.663q1.613-1.809 4.523-3.5 3.737-2.202 6.844-2.202 3.343 0 5.27 1.809 1.966 1.77 1.966 4.759zm25.407-30.875q0 1.613-2.753 2.753t-6.922 1.14q-4.05 0-6.804-1.14-2.714-1.14-2.714-2.753 0-1.652 2.714-2.792 2.753-1.14 6.804-1.14 4.09 0 6.883 1.14 2.792 1.14 2.792 2.792m-.236 49.044h-18.8v-7.512h3.776v-25.682H9.405v-6.686h18.76v6.686h-3.658v25.682h3.658zm42.673-52.977v7.512H31.665v-7.512zm-4.838 52.977H54.516v-31.11q0-.786-.118-.983-.118-.236-.511-.236-1.495 0-4.523 3.029-2.046 2.045-2.91 3.54v18.248h3.657v7.512H31.665v-7.512h3.776v-25.682h-3.776v-6.686h14.788v5.663q1.652-1.809 4.916-3.54 4.051-2.162 7.434-2.162 3.343 0 5.27 1.809 1.966 1.77 1.966 4.759z" style="font-family:&quot;Ferro Rosso&quot;;-inkscape-font-specification:&quot;Ferro Rosso&quot;" transform="translate(179.8 262.547)"/><path d="M110.56-240.618v7.512H70.288v-7.512zm-4.011 13.097v6.686h-3.264v41.532q0 8.77-9.518 8.77h-13.45q-4.681 0-7.316-2.202-2.635-2.163-2.635-5.938v-5.546h11.366v5.978q0 2.242 2.084 2.242h5.86q2.203 0 2.203-2.163v-9.479H79.883q-4.68 0-7.197-2.477-2.32-2.282-2.32-6.293v-22.89q0-4.169 3.028-6.332 2.635-1.888 6.686-1.888zm-14.67 32.172v-24.345q0-2.32-1.927-2.32l-6.136.038q-2.084 0-2.084 2.36v24.345q0 2.163 2.242 2.163h5.86q2.045 0 2.045-2.241m175.253-45.269v7.512h-68.788v-7.512zm-4.68 13.097v6.686h-3.343l-11.563 25.682 5.585.04v7.472h-21.828v-7.472h5.545l-6.49-16.165h-.196l-7.315 16.125 5.585.04v7.472h-21.868v-7.472h5.585l-10.344-25.722h-3.46v-6.686h19.743v6.686h-3.972l6.135 15.3 6.922-15.3h-4.13v-6.686h19.744v6.686h-4.051l6.214 15.3 6.922-15.3h-4.13v-6.686z" style="font-family:&quot;Ferro Rosso&quot;;-inkscape-font-specification:&quot;Ferro Rosso&quot;" transform="translate(179.8 262.547)"/><path d="M303.433-240.618v7.512H282.59v-7.512zM298.4-187.64h-11.523v-31.11q0-.786-.118-.983-.118-.236-.512-.236-1.1 0-4.09 2.557-2.163 1.848-3.343 3.815v18.445h3.658v7.512h-18.446v-7.512h3.776v-37.953h-3.776v-7.512h14.788v18.76q1.73-1.848 4.956-3.579 4.011-2.123 7.394-2.123 3.343 0 5.27 1.809 1.966 1.77 1.966 4.759z" style="font-family:&quot;Ferro Rosso&quot;;-inkscape-font-specification:&quot;Ferro Rosso&quot;" transform="translate(179.8 262.547)"/><path d="M340.246-240.618v7.512h-37.403v-7.512zm-4.484 36.144H314.25v9.203q0 2.163 2.203 2.163h5.86q2.045 0 2.045-2.241v-5.35h11.405v4.917q0 3.776-2.713 5.978-2.714 2.163-7.276 2.163H312.36q-4.68 0-7.158-2.477-2.36-2.282-2.36-6.293v-22.89q0-4.13 3.068-6.332 2.635-1.888 6.686-1.888h13.648q9.517 0 9.517 8.456zm-11.405-4.523v-10.697q0-2.32-1.888-2.32l-6.175.038q-2.045 0-2.045 2.36v10.62z" style="font-family:&quot;Ferro Rosso&quot;;-inkscape-font-specification:&quot;Ferro Rosso&quot;" transform="translate(179.8 262.547)"/><path d="M377.059-240.618v7.512h-37.403v-7.512zm-4.484 36.144h-21.513v9.203q0 2.163 2.202 2.163h5.86q2.045 0 2.045-2.241v-5.35h11.406v4.917q0 3.776-2.714 5.978-2.714 2.163-7.276 2.163h-13.411q-4.68 0-7.158-2.477-2.36-2.282-2.36-6.293v-22.89q0-4.13 3.068-6.332 2.635-1.888 6.686-1.888h13.647q9.518 0 9.518 8.456zm-11.406-4.523v-10.697q0-2.32-1.887-2.32l-6.175.038q-2.045 0-2.045 2.36v10.62z" style="font-family:&quot;Ferro Rosso&quot;;-inkscape-font-specification:&quot;Ferro Rosso&quot;" transform="translate(179.8 262.547)"/><path d="M395.268-187.64h-18.8v-7.513h3.776v-37.953h-3.775v-7.512h15.142l-.04 45.465h3.697z" style="font-family:&quot;Ferro Rosso&quot;;-inkscape-font-specification:&quot;Ferro Rosso&quot;" transform="translate(179.8 262.547)"/></g><g transform="translate(300.34 -33.342)"><path d="M120.127 338.193c-2.415-.441-7.113-2.48-9.74-4.226-4.599-3.058-9.031-8.647-11.498-14.5-.862-2.044-.889-2.318-.889-9.048v-6.94l1.082-2.486c3.581-8.24 9.224-13.77 17.537-17.188 2.34-.963 2.452-.975 9.14-.971l6.77.004 2.569 1.105c7.662 3.298 12.484 7.768 16.02 14.856 2.092 4.193 2.304 5.44 2.168 12.716-.115 6.126-.126 6.207-1.23 8.775-1.548 3.6-4.716 8.283-7.091 10.481-3.55 3.288-7.994 5.83-11.988 6.861-2.314.597-10.66.962-12.85.561m11.112-9.544c5.52-1.76 10.668-6.99 12.636-12.83.797-2.365.883-5.93.184-7.603-.948-2.27-3.842-3.166-6.276-1.943-1.573.79-2.6 2.415-2.893 4.573-.642 4.73-3.608 7.754-8.564 8.729-3.77.741-5.864 3.057-5.331 5.896.704 3.754 4.626 4.97 10.244 3.178m-17.317-14.325c1.56-.915 2.528-2.53 2.528-4.22 0-3.844 4.173-8.218 8.41-8.817 3.652-.516 5.469-2.312 5.469-5.403 0-1.163-.226-1.643-1.331-2.827l-1.33-1.425-2.657.046c-2.936.05-6.152.76-8.211 1.81-.74.377-2.322 1.6-3.518 2.719-6.272 5.867-8.587 14.555-4.771 17.905 1.528 1.342 3.36 1.413 5.41.212" style="fill:#fc0;fill-opacity:1;stroke:#ffd42a;stroke-width:2.54937;stroke-linecap:round;stroke-linejoin:round;stroke-miterlimit:1;paint-order:markers fill stroke" transform="scale(.26458)"/><path d="M121.02 357.264c-9.842-1.509-17.15-4.413-23.901-9.498-8.977-6.762-15.04-16.35-17.477-27.634-.865-4.007-.843-15.147.037-19.191 3.167-14.546 11.725-25.717 24.788-32.354 6.96-3.536 13.13-5.01 20.953-5.008 12.865.005 24.513 4.806 33.527 13.821 6.724 6.724 10.974 14.77 12.905 24.43.9 4.502.818 13.37-.166 17.962-2.2 10.262-6.772 18.375-14.29 25.354-5.632 5.23-14.485 9.753-22.497 11.497-2.319.504-11.855.931-13.88.62m11.097-9.453c3.036-.531 7.801-2.06 10.23-3.282 10.774-5.423 18.355-15.647 20.52-27.678.7-3.886.538-11.342-.329-15.187-.774-3.434-2.383-7.458-4.17-10.43-2.954-4.913-8.523-10.426-13.692-13.553-12.535-7.586-29.559-6.646-41.494 2.293-5.242 3.925-10.728 10.928-12.846 16.397-1.882 4.858-2.404 8.345-2.23 14.895.128 4.768.303 6.317 1.023 9.04 3.776 14.266 15.347 24.918 29.86 27.487 3.643.645 9.498.653 13.128.018" style="fill:#666;fill-opacity:1;stroke:gray;stroke-width:2.54937;stroke-linecap:round;stroke-linejoin:round;stroke-miterlimit:1;paint-order:markers fill stroke" transform="scale(.26458)"/><path d="M225.452 333.543c-1.684-.282-4.276-1.227-6.432-2.344-7.734-4.01-12.525-11.894-12.525-20.61 0-10.634 7.047-19.904 17.27-22.718 3.487-.96 9.572-.824 12.952.289 7.336 2.415 12.946 8.004 15.38 15.32.788 2.368.902 3.26.909 7.109.007 3.95-.089 4.677-.935 7.108-1.267 3.642-2.612 5.905-5.074 8.538-3.608 3.857-7.629 6.099-12.667 7.063-2.331.446-6.922.572-8.878.245m8.547-3.884c.698-.349 1.688-1.268 2.2-2.042.782-1.18.932-1.77.932-3.657s-.15-2.476-.932-3.657c-2.5-3.777-8.165-3.776-10.662 0-.782 1.183-.931 1.771-.93 3.66 0 1.885.15 2.476.929 3.652 1.887 2.852 5.232 3.66 8.463 2.044m-14.895-13.879c.698-.35 1.688-1.268 2.2-2.042.782-1.181.932-1.77.932-3.657s-.15-2.476-.931-3.657c-2.5-3.777-8.166-3.776-10.663 0-.782 1.183-.931 1.77-.93 3.66 0 1.884.151 2.476.93 3.652 1.887 2.852 5.231 3.66 8.462 2.044m28.097-1.015c.698-.35 1.688-1.269 2.2-2.043.782-1.18.932-1.769.932-3.657s-.15-2.476-.932-3.657c-2.499-3.777-8.165-3.776-10.662.001-.782 1.183-.931 1.77-.93 3.659 0 1.885.15 2.477.929 3.653 1.887 2.852 5.232 3.66 8.463 2.043zm-14.004-12.791c1.242-.674 2.524-2.442 2.943-4.06 1.68-6.473-6.07-11.047-10.671-6.3-3.395 3.503-1.752 9.663 2.893 10.842 1.603.407 3.556.213 4.835-.482M16.08 333.278c-3.077-.673-5.485-1.883-8.359-4.197-4.455-3.588-7.585-8.305-8.895-13.401-1.583-6.16.137-13.855 4.342-19.433 2.888-3.83 8.884-7.743 13.042-8.51 2.347-.433 8.225-.433 10.571 0 4.103.757 9.758 4.384 12.884 8.265 3.397 4.216 5.07 9.094 5.054 14.735-.01 3.893-.606 6.376-2.412 10.066-2.276 4.652-8.223 10.084-12.739 11.638-3.716 1.278-9.76 1.654-13.488.837m8.12-4.577c.601-.37 1.406-1.323 1.79-2.115.72-1.487 1.43-5.929 1.43-8.952v-1.722l1.439-.198c.79-.109 2.962-.298 4.823-.42 3.636-.24 4.237-.427 5.663-1.756 1.483-1.383 1.788-2.8.99-4.604-1.025-2.318-3.139-3.076-9.685-3.477l-3.451-.211-.39-4.1c-.448-4.703-1.065-7.376-1.92-8.321-1.398-1.545-4.33-1.68-6.108-.281-1.56 1.227-1.855 2.478-1.855 7.863v4.904l-1.1.17c-.605.095-2.167.27-3.47.39-2.807.26-7.103 1.309-8.14 1.989-.764.5-1.308 2.131-1.181 3.538.127 1.41 1.342 3.343 2.244 3.569 1.224.307 7.1.85 9.315.86l1.9.009.203 2.116c.112 1.163.31 4.017.438 6.34.13 2.325.338 3.931.465 3.57.196-.56.275-.58.54-.143 1.023 1.697 4.098 2.195 6.06.983z" style="fill:gray;fill-opacity:1;stroke:gray;stroke-width:2.54937;stroke-linecap:round;stroke-linejoin:round;stroke-miterlimit:1;paint-order:markers fill stroke" transform="scale(.26458)"/><path d="M14.702 128.38c-4.17-.447-7.405-1.723-11.141-4.396-14.162-10.13-22.159-26.208-21.602-43.433.302-9.326 2.956-17.708 7.977-25.192 8.507-12.68 22.5-20.581 38.758-21.884 3.206-.256 8.705-.13 11.831.274 21.398 2.76 38.024 17.188 42.72 37.072.906 3.835 1.215 6.658 1.221 11.156.006 4.44-.164 6.36-.886 9.982-1.653 8.298-5.255 16.027-10.458 22.445-3.237 3.993-8.4 8.568-12.446 11.03-2.542 1.546-5.547 2.536-8.755 2.882-1.608.174-35.646.232-37.219.063m39.753-2.935c2.904-.804 4.852-1.83 8.15-4.292 10.332-7.713 17.131-19.23 19.043-32.26.378-2.572.525-8.154.285-10.75-.503-5.412-1.874-10.646-4.005-15.284-.709-1.542-2.553-4.888-2.768-5.02-.076-.048-.566.039-1.088.192-1.531.449-3.733.267-5.224-.43-2.48-1.16-4.015-3.422-4.186-6.168-.096-1.53.211-3.094.775-3.954.251-.384.216-.437-.859-1.29-1.826-1.448-5.117-3.535-7.475-4.738-5.196-2.653-10.724-4.344-17.088-5.226-2.727-.377-10.209-.428-12.924-.087-9.282 1.167-17.57 4.404-24.525 9.58C.851 46.996.8 47.055 1.048 47.44c.547.852.863 2.46.783 3.982-.065 1.252-.177 1.678-.736 2.81-1.099 2.222-3.086 3.673-5.498 4.015-1.14.16-2.708.012-3.652-.347-.653-.248-.774-.081-2.613 3.576-2.325 4.626-3.616 8.692-4.425 13.93-.327 2.117-.395 3.3-.392 6.838.003 4.887.313 7.485 1.418 11.894 2.832 11.295 9.88 21.429 19.588 28.163 2.065 1.432 3.173 2.01 5.08 2.652 3.093 1.04 2.834 1.029 23.353.993l18.807-.032zm-39.486-5.874c-1.632-.236-3.268-.79-4.513-1.53-3.58-2.129-8.353-6.517-11.131-10.233-2.551-3.414-5.02-7.885-5.762-10.435-.603-2.077.032-4.46 1.61-6.037.932-.932 1.995-1.444 3.812-1.835l1.444-.31-.981-.972c-1.9-1.88-2.824-4.662-2.42-7.277.257-1.652.779-2.863 1.84-4.265.461-.61.784-1.14.716-1.18-.068-.037-.535-.203-1.038-.367-1.172-.382-2.459-1.298-3.06-2.178-.367-.537-.487-.96-.542-1.902-.112-1.934.458-2.887 3.817-6.374 3.473-3.604 5.03-5.476 7.014-8.43 3.059-4.552 5.26-6.591 9.173-8.498 5.992-2.918 15.049-4.832 20.393-4.31 7.245.71 14.831 3.062 18.946 5.875 2.44 1.668 4.06 3.404 6.277 6.726 2.268 3.398 3.276 4.615 7.25 8.76 2.847 2.97 3.567 4.05 3.703 5.555.116 1.277-.147 2.16-.896 3.013-.816.93-2.063 1.621-3.81 2.113-.122.034.053.347.412.738a8.7 8.7 0 0 1 2.27 5.848c-.004 2.49-.751 4.325-2.52 6.183l-.964 1.014.685.115c1.537.259 2.764.635 3.4 1.043 2.621 1.682 3.68 4.863 2.556 7.688-1.372 3.453-4.172 8.149-6.624 11.11-3.683 4.445-8.96 8.693-12.148 9.775-1.688.573-4.515.813-8.744.741-2.948-.05-3.34-.092-3.674-.395-.209-.19-.375-.558-.375-.832 0-.749 4.433-21.856 4.824-22.968 1.128-3.21 3.978-5.87 7.387-6.895a22 22 0 0 0 1.125-.357c.031-.02-.264-.458-.655-.974-1.633-2.159-2.123-5.26-1.26-7.985.348-1.1 1.057-2.209 2.094-3.275.546-.561.958-1.046.914-1.076s-.56-.245-1.148-.476c-2.673-1.05-4.622-2.688-7.003-5.886-2.743-3.685-4.417-4.932-7.84-5.838-1.528-.405-2.185-.47-5.48-.543-4.117-.09-6.019.121-8.339.928-2.603.906-3.98 2.043-6.481 5.355-2.569 3.4-4.625 5.115-7.284 6.07-.49.177-.919.341-.953.366s.39.503.942 1.063c1.77 1.799 2.784 4.655 2.49 7.018-.222 1.78-1.137 3.924-2.015 4.718-.206.187-.375.394-.375.46s.399.212.886.324c2.153.497 4.626 2.147 6.008 4.009 1.59 2.14 1.699 2.517 4.182 14.45 1.261 6.065 2.294 11.253 2.294 11.53 0 .332-.16.63-.47.873-.447.352-.673.368-4.68.348-2.315-.012-4.69-.091-5.279-.176m7.626-2.432c.04-.073-.242-1.618-.625-3.431-.383-1.814-1.335-6.347-2.116-10.072-1.019-4.86-1.562-7.077-1.922-7.844-1.52-3.239-4.432-5.083-8.017-5.079-2.938.003-10.866 1.12-11.954 1.684-1.335.692-2.05 1.874-2.054 3.395-.002.964.122 1.324 1.254 3.654 2.183 4.493 4.29 7.454 7.813 10.975 2.524 2.522 5.534 4.889 7.364 5.79.634.312 1.726.671 2.427.798 1.367.248 7.712.354 7.83.13m29.26-.133c.677-.144 1.72-.493 2.317-.775 2.405-1.14 7.257-5.308 10.01-8.603 2.444-2.922 5.708-8.522 6.332-10.86.484-1.814-.351-3.606-2.033-4.365-1.735-.781-9.505-1.802-12.59-1.654-1.528.074-1.877.157-3.051.729-2.304 1.12-3.898 2.866-4.636 5.078-.187.56-.74 2.944-1.228 5.297-1.563 7.53-3.034 14.536-3.147 14.985l-.109.435 3.451-.003c2.34-.002 3.848-.087 4.683-.264M8.144 87.902c1.09-.485 2.56-1.868 3.083-2.899 1.6-3.156.31-6.92-2.914-8.502-.877-.431-1.22-.496-2.614-.496s-1.737.065-2.614.496c-4.025 1.976-4.85 7.12-1.627 10.134.968.905 1.4 1.173 2.458 1.521 1.025.338 3.19.208 4.228-.254M4.897 86.79c-.766-.767-.47-8.454.61-8.454.564 0 1.53 7.005 1.53 7.562 0 .17-.167.52-.37.779-.452.574-1.257.626-1.77.113m-3.743-3.744c-.198-.198-.357-.594-.357-.891 0-1.167 8.266-1.774 8.978-.868.486.617.512 1.323-.023 1.857-.53.53-8.116.518-8.598.036zm7.487 0c-.198-.198-7.7-.952-7.7-1.25 0-1.166 8.757-1.325 9.47-.42.485.618.466 1.055-.068 1.59-.53.53-1.22.562-1.702.08m-3.744-3.743c-.194.433-.253 17.45-.356-.892-.007-1.167 1.413-1.684 2.126-.778.485.617.825 7.458.29 7.993-.53.53-1.578-5.842-2.06-6.323m58.51 8.513c4.709-2.156 4.88-8.74.29-11.187-2.672-1.425-6.131-.656-7.874 1.75-2.542 3.51-1.084 8.246 2.985 9.701 1.295.463 3.256.35 4.598-.264M6.118 73.23c3.859-.361 6.457-1.335 8.437-3.162.605-.558 1.781-1.937 2.614-3.065 2.66-3.6 4.604-5.168 7.718-6.227 3.887-1.322 10.816-1.52 15.217-.433 3.948.974 6.042 2.483 9.119 6.571 2.883 3.831 4.873 5.218 8.56 5.963 3.84.777 7.6.663 9.734-.295 1.16-.52 1.554-.955 1.554-1.714 0-.93-.566-1.735-3.015-4.29-4.106-4.281-5.277-5.693-7.63-9.2-1.983-2.955-3.389-4.476-5.464-5.914-4.212-2.917-13.561-5.547-19.722-5.547-5.825 0-14.453 2.325-19.097 5.146-2.16 1.312-4.082 3.326-6.17 6.465-1.954 2.936-3.674 5.037-6.81 8.317-3.973 4.156-4.41 5.003-3.146 6.112 1.403 1.231 4.07 1.65 8.1 1.273m-1.67-2.842c-.513-.568-.388-1.275.574-3.255 1.406-2.893 2.319-3.699 4.18-3.69 2.148.008 3.895 1.678 3.895 3.723 0 1.478-1.393 2.198-2.273 1.176-.318-.37-.393-.614-.309-.998.159-.722-.579-1.455-1.385-1.377-.489.048-.667.213-1.21 1.126-.351.588-.822 1.51-1.048 2.05s-.534 1.12-.686 1.292c-.377.427-1.331.402-1.737-.047m55.936.047c-.191-.172-.563-.838-.827-1.481s-.738-1.566-1.055-2.05c-.466-.714-.683-.892-1.15-.937-.808-.078-1.555.665-1.408 1.4.136.683-.5 1.464-1.194 1.464-1.672 0-1.792-2.66-.191-4.26 1.547-1.546 4.125-1.498 5.472.103.727.864 2.285 4.116 2.305 4.811.03 1.062-1.173 1.647-1.952.95M29.02 118.346c-.787-.327-1.007-1.37-.412-1.965.336-.336.594-.356 4.634-.356 4.041 0 4.299.02 4.635.356.45.45.456 1.086.016 1.63-.338.417-.37.42-4.412.458-2.24.021-4.247-.034-4.46-.123m-.607-5.41c-1.432-.756-1.53-1.037-3.917-11.172-1.19-5.05-2.21-9.261-2.27-9.36-.06-.097-.455-.604-.878-1.125-.944-1.161-2.017-3.26-2.574-5.033-.365-1.164-.416-1.68-.412-4.18.004-2.751.025-2.913.587-4.546.802-2.334 1.978-4.23 3.694-5.956 1.71-1.72 3.585-2.884 5.965-3.704 1.646-.568 1.775-.584 4.634-.584s2.989.016 4.635.584c5.298 1.826 9.09 6.144 10.107 11.505.362 1.913.229 5.048-.292 6.86-.56 1.947-1.578 3.822-3.21 5.913-.24.306-1.02 3.306-2.503 9.626-2.378 10.136-2.476 10.416-3.907 11.172-.756.4-.94.415-4.83.415s-4.074-.016-4.83-.415m8.283-2.072c.246-.094.524-.315.62-.493.245-.459 3.654-15.022 3.542-15.134-.051-.05-.578.153-1.171.452-2.03 1.025-3.557 1.343-6.445 1.343s-4.415-.318-6.444-1.343c-.593-.3-1.118-.505-1.167-.456-.097.097 3.048 13.744 3.395 14.729.12.342.416.722.658.844.532.27 6.33.317 7.012.058m-.747-16.505c1.661-.349 3.85-1.415 5.248-2.557 5.99-4.893 6.038-14.288.097-19.204-3.76-3.111-8.932-3.815-13.25-1.802-4.35 2.027-6.995 5.955-7.23 10.738-.11 2.234.253 4.101 1.173 6.051 2.418 5.123 8.281 7.968 13.962 6.774m-5.095-2.505c-4.27-1.034-7.315-4.73-7.548-9.165-.16-3.035.748-5.428 2.876-7.577 3.92-3.958 10.215-3.966 14.102-.018 2.143 2.177 3.059 4.58 2.894 7.596a9.966 9.966 0 0 1-12.324 9.164m5.45-2.875c1.662-.782 2.864-1.955 3.665-3.576.648-1.31.671-1.423.671-3.239 0-1.745-.04-1.968-.567-3.08-.79-1.665-1.954-2.85-3.597-3.663-1.295-.64-1.41-.664-3.234-.664-1.826 0-1.936.023-3.248.671-1.626.804-2.788 1.998-3.597 3.696-.51 1.068-.553 1.306-.553 3.035 0 1.776.033 1.94.613 3.12.79 1.604 2.156 2.978 3.621 3.642 1.449.657 1.71.705 3.552.642 1.275-.044 1.744-.146 2.674-.584m-3.922-2.245c-.776-.827-.222-1.963 1.04-2.132.399-.054.927-.23 1.173-.39.612-.402 1.142-1.32 1.142-1.982.001-.676.64-1.323 1.305-1.323 1.732 0 1.542 2.881-.312 4.736-1.432 1.431-3.533 1.958-4.348 1.09m-3.743-3.744c-1.112-1.183.308-4.303 2.449-5.381.334-.169 1.056-.345 1.604-.393.844-.073 1.057-.029 1.397.294.828.785.19 2.148-1.004 2.15-1.082.002-2.336 1.31-2.338 2.437 0 .4-.14.676-.47.936q-.919.723-1.638-.043M-3.894 55.535c1.686-.62 3-2.266 3.206-4.015.103-.868-.211-2.7-.462-2.7-.286 0-3.816 3.86-5.355 5.854-.483.626-.55.805-.347.933.355.225 2.281.178 2.958-.072m77.365.098c.142-.09-.206-.653-1.07-1.731-1.331-1.664-4.525-5.082-4.748-5.082-.212 0-.542 1.323-.542 2.172 0 1.807 1.06 3.497 2.71 4.318.735.367 1.184.461 2.183.46.692-.002 1.352-.064 1.467-.137" style="fill:#000;stroke-width:.178264"/><path d="M56.97 474.877c-15.46-1.133-25.13-5.164-41.172-17.165-33.567-25.113-57.772-61.2-68.398-101.974-8.746-33.559-7.06-72.75 4.474-104.009 1.863-5.049 6.021-14.313 9.24-20.585 5.637-10.983 5.96-11.396 8.726-11.149 1.58.141 5.888.318 9.574.393 11.318.232 20.09-5.121 25.096-15.316 2.235-4.552 2.66-6.611 2.6-12.62-.043-4.355-.68-8.588-1.62-10.754l-1.547-3.573 4.012-3.26c6.428-5.22 19.562-13.418 29.327-18.305 24.403-12.213 50.705-19.028 78.093-20.234 43.033-1.895 84.553 9.116 117.29 31.104 5.53 3.714 11.082 7.57 12.339 8.57l2.285 1.817-1.691 4.428c-2.258 5.913-1.656 17.645 1.19 23.175 2.686 5.221 9.418 11.25 14.897 13.343 3.596 1.373 6.313 1.62 13.61 1.239l9.117-.477 4.38 8.034c6.473 11.876 11.607 25.085 15.196 39.096 4.584 17.901 5.599 27.986 5.035 50.055-.399 15.619-.922 20.908-3.027 30.602-8.17 37.614-28.668 74.142-54.815 97.676-17.669 15.903-32.091 24.883-46.344 28.855-7.067 1.97-8.823 2.015-72.767 1.877-36.04-.078-69.835-.458-75.1-.843m36.812-22.925c.957-.512 1.996-1.6 2.31-2.417.802-2.092-14.18-75.522-17.923-87.842-2.058-6.776-5.72-12.42-11.361-17.513-5.013-4.526-15-10.021-18.216-10.023-2.153 0-2.11-.532.318-3.942 8.452-11.87 7.54-30.48-2.026-41.347-2.089-2.373-3.798-4.55-3.798-4.837 0-.288 2.908-1.91 6.463-3.605 7.162-3.416 16.531-12.142 26.864-25.02 7.522-9.376 13.032-13.436 22.685-16.715 7.285-2.474 8.574-2.603 26.33-2.63 16.689-.026 19.395.198 25.488 2.107 10.706 3.354 16.83 8.089 27.488 21.249 9.987 12.332 16.037 17.593 24.897 21.65l5.523 2.528-3.445 3.977c-1.895 2.187-4.6 6.347-6.012 9.243-2.169 4.451-2.566 6.526-2.566 13.405 0 6.884.41 9.02 2.657 13.857 1.462 3.145 3.342 6.476 4.18 7.4 1.397 1.545 1.374 1.73-.285 2.269-6.71 2.18-16.323 7.838-20.624 12.14-7.076 7.075-9.608 13.431-14.592 36.623-7.463 34.735-13.027 62.798-13.027 65.706 0 4.049 2.601 4.67 19.45 4.649 25.182-.033 32.253-2.009 47.301-13.216 21.027-15.66 36.24-34.177 48.886-59.5 5.215-10.443 5.483-11.33 5.483-18.192 0-6.16-.388-7.874-2.655-11.73-4.076-6.934-9.467-10.324-20.163-12.676l-2.71-.596 3.538-3.917c1.947-2.154 4.667-6.338 6.045-9.298 2.104-4.516 2.5-6.688 2.46-13.52-.051-9.004-1.886-14.48-7.027-20.97l-2.838-3.584 4.883-1.756c5.806-2.088 11.784-7.718 12.72-11.979 1.153-5.251-.312-10.985-4.114-16.1-1.949-2.623-9.046-10.717-15.772-17.986-6.797-7.346-15.727-18.335-20.107-24.743-8.878-12.99-17.598-22.304-26.07-27.846-12.507-8.18-34.665-15.753-57.449-19.633-28.472-4.848-61.992.657-91.163 14.973-13.708 6.727-22.15 14.399-33.529 30.467-9.53 13.458-13.588 18.372-26.508 32.1-13.053 13.87-14.92 16.974-14.92 24.814 0 6.158.04 6.25 4.548 10.593 2.501 2.41 6.357 4.977 8.568 5.706l4.021 1.325-2.69 3.932c-4.3 6.29-5.688 9.53-6.648 15.533-1.624 10.16 1.146 19.869 7.932 27.796l3.275 3.826-7.154 2.105c-9.21 2.71-14.438 7.563-17.033 15.813-2.165 6.882-1.65 11.572 2.284 20.817 9.61 22.584 28.508 46.426 50.06 63.158 9.288 7.21 16.576 11.137 24.022 12.943 5.947 1.442 39.214 1.784 41.746.429m49.291-5.361c1.858-1.859 1.954-5.548.183-7.018-.913-.757-6.619-1.016-18.41-.836L107.76 439l-.915 2.604c-.725 2.063-.55 3.008.844 4.548 1.635 1.807 2.895 1.944 17.82 1.944 13.323 0 16.316-.256 17.564-1.504m-.14-18.95c1.694-.716 3.812-2.125 4.705-3.13 2.036-2.289 5.832-15.72 13.724-48.555 6.017-25.038 6.299-25.885 10.885-32.742 5.732-8.57 8.436-15.536 9.78-25.193 3.909-28.078-13.524-54.625-41.214-62.763-5.975-1.757-22.078-2.033-28.79-.494-12.602 2.89-28.253 14.465-35.245 26.067-5.794 9.614-7.797 17.036-7.82 28.976-.028 14.621 2.636 22.922 11.5 35.84 3.325 4.844 4.197 7.713 10.909 35.904 8.787 36.907 10.362 41.975 13.789 44.373 3.98 2.785 4.528 2.866 20.064 2.946 10.35.054 15.534-.306 17.713-1.228" style="fill:#333;stroke:#000;stroke-width:7.21069;stroke-linecap:round;stroke-linejoin:round;stroke-miterlimit:1;paint-order:markers fill stroke" transform="scale(.26458)"/><path d="M-25.048 210.255c-.465-.13-.89-.472-.946-.76-.056-.29.949-1.882 2.232-3.54 4.876-6.3 18.43-21.125 19.314-21.125.685 0 1.74 4.92 1.74 8.115 0 7.835-6.833 16.04-14.387 17.276-2.279.373-6.668.391-7.953.034m292.393-.049c-5.244-1.303-10.552-6.261-12.49-11.666-1.003-2.797-1.2-6.875-.488-10.077.982-4.414.959-4.415 5.361.103 9.833 10.089 18.556 20.726 17.7 21.583-.367.367-8.65.414-10.083.057" style="fill:#333;stroke:#333;stroke-width:2.54937;stroke-linecap:round;stroke-linejoin:round;stroke-miterlimit:1;paint-order:markers fill stroke" transform="scale(.26458)"/><ellipse cx="60.86" cy="78.37" rx=".672" ry=".717" style="fill:#333;fill-opacity:1;stroke:#333;stroke-width:1.99258;stroke-linecap:round;stroke-linejoin:round;stroke-miterlimit:1;stroke-opacity:1;paint-order:markers fill stroke"/><ellipse cx="64.577" cy="81.774" rx=".672" ry=".717" style="fill:#333;stroke:#333;stroke-width:1.99258;stroke-linecap:round;stroke-linejoin:round;stroke-miterlimit:1;paint-order:markers fill stroke"/><ellipse cx="61.084" cy="85.714" rx=".672" ry=".717" style="fill:#333;stroke:#333;stroke-width:1.99258;stroke-linecap:round;stroke-linejoin:round;stroke-miterlimit:1;paint-order:markers fill stroke"/><ellipse cx="57.143" cy="82.042" rx=".672" ry=".717" style="fill:#333;fill-opacity:1;stroke:#333;stroke-width:1.99258;stroke-linecap:round;stroke-linejoin:round;stroke-miterlimit:1;stroke-opacity:1;paint-order:markers fill stroke"/></g></svg>