<!-- Created by ERK --><svg xmlns="http://www.w3.org/2000/svg" viewBox="0 0 219.7 109.3"><g fill="#3f3d37" style="stroke:#fff" transform="translate(-31.705 -88.513)scale(.38651)"><rect width="24.6" height="23.62" x="-12.3" y="-11.81" rx="10.55" style="stroke:#fff" transform="rotate(-.3 59997.529 -51422.733)"/><path d="M166.57 348.02q.71 40.5.27 81.01-6.82 1.5-15.01 1.16c-7.62-.31-8.77-4.78-8.82-11.66q-.04-5.79 0-11.59c.01-.83-.47-1.19-1.26-.9l-.29-.29c-.15-.27-.43-.45-.75-.41q-9.78 1.28-17.18.54c-21.09-2.12-31.2-19.46-29.71-39.05 1.39-18.4 12.21-31.42 31.43-33.68 11.69-1.37 26.42.03 35.94 6.9q3.36 2.42 5.38 7.97zm-25.32 38.44.52-.77a1.06.99-29.9 0 0 .17-.56l.09-32.45q.37-.23.14-.86a1.03.97 89.4 0 0-.58-.6c-11.64-4.41-23.28 1.78-24.38 14.73-.69 8.15.31 16.43 7.43 20.77 4.06 2.47 9.62 2.31 14.36 2.16q.19-.01.37-.09 2.76-1.2 1.88-2.33zm60.23-41.39q.61 17.47.09 34.98-.8-.39-.28 1.17 2.18 6.56 8.97 7.65c4.27.68 10.7.76 13.5-3.25a1.03 1.01 62.8 0 0 .18-.58l-.16-48.72a1 1 0 0 1 .8-.98q9.78-2.04 16.9.13c3.32 1.01 4.52 4.74 4.52 8.22v48.56c0 6-6.94 9.34-11.81 10.93-9.86 3.21-19.31 3.46-28.94 2.75-11.46-.84-21.85-6.73-25.61-17.41q-1.55-4.39-1.66-13.36-.24-19.48.07-38.97a1 1 0 0 1 .89-.98q5.81-.62 13.8-.37c4.41.13 6.31 1.84 7.37 6.09q.52 2.08 1.37 4.14zm78.63 59.23c-6.91 1.54-21.08 2.93-21.09-7.3q-.05-30.41 0-60.82a1.01 1-4.3 0 1 .86-.99c6.81-1.01 20.96-2.8 20.9 7.02q-.19 30.56.11 61.1a1 1 0 0 1-.78.99zm55.6-68.8q-6.3 15.97-13.54 31.48-4.05 4.72-4.77 9.96c-1.4 10.1 3.68 15.47 12.26 20.32q4.63 2.61 9.27 5.24 2.64 1.5-.4 1.5h-42.56a1.02.99-22.5 0 1-.7-.28c-3.67-3.54-4.67-7.89-3.33-12.9q1.08-4.03 2.37-5.51 13.16-15.1 25.56-30.83.58-1.97-.74-1.69-1.01.21-1.3.21-11.52.03-23.54-.13c-2.76-5.51-5.18-17.85 4.75-17.86q17.6-.01 35.21.21.73.01 1.46.28z" style="stroke:#fff"/></g><path fill="#a3d845" d="M157.028 25.797q.135.086.205.225a.38.38 0 0 0 .29.208q3.718.51 7.332 2.841c16.523 10.649 15.87 35.776-2.056 44.905q-1.461.742-5.694 2.083c-8.711.85-16.53-1.917-22.332-8.626l-1.983-2.903q-8.33-15.615 1.836-29.92c4.72-5.06 9.802-8.333 16.914-8.793q1.507-.097 5.488-.02zm-11.487 34.566c1.809 1.774 4.113 3.703 6.397 1.4q7.916-7.986 15.831-15.96c4.109-4.14-.83-10.211-5.268-5.712q-6.292 6.381-12.275 12.48-.735.754-1.465-.008c-1.43-1.5-3.757-4.251-5.481-4.958-2.566-1.06-4.951 1.464-4.955 3.88-.004 2.524 5.616 7.313 7.216 8.878z" style="stroke-width:.386512;stroke:#fff"/><path fill="#52c5d9" d="M172.392 70.505c11.588-10.803 11.762-28.219.178-39.022 2.686-6.435 4.39-9.524 11.982-7.023q13.068 4.306 26.128 8.646c5.944 1.976 7.44 4.445 5.983 10.664q-3.405 14.54-6.868 29.074c-1.048 4.398-3.521 8.487-8.832 6.98-9.597-2.72-19.113-6.134-28.571-9.319zm16.77-14.134c1.214.309 5.292.703 5.462-1.218q.213-2.404 1.082-15.19c.128-1.905.472-3.397-1.859-3.525q-3.107-.17-5.635.039c-1.14.096-1.496.703-1.453 1.828q.305 7.576.865 15.14c.109 1.426-.243 2.473 1.539 2.926zm5.528 5.054a1.9 1.9 0 0 0-1.892-1.911l-3.3-.017a1.9 1.9 0 0 0-1.912 1.891l-.008 1.539a1.9 1.9 0 0 0 1.892 1.911l3.3.017a1.9 1.9 0 0 0 1.912-1.891z" style="stroke-width:.386512;stroke:#fff"/><path fill="#ffc245" d="M134.626 34.61q-10.165 14.305-1.836 29.92-2.83 4.398-5.666 8.79c-2.095 3.242-3.796 4.9-7.684 4.463-6.08-3.142-12.055-6.47-18.166-9.547q-5.164-2.96-6.486-3.602-3.954-1.928-4.251-5.883c-.136-1.793.842-3.633 1.526-5.341q2.799-5.995 5.234-12.167l.305-.661q2.257-5.071 5.99-13.818.894-2.095 2.865-3.425c2.764-1.867 4.858-1.202 7.808.375q10.165 5.427 20.361 10.896zm-27.122 7.278c3.054 2.628 7.255-.03 10.309 1.674 2.187 1.217 1.836 4.955-.692 5.519q-1.372.305-4.638.128-1.218-.066-1.233 1.205-.047 3.313-.016 6.44a.39.387 89.7 0 0 .383.382l5.129.05a.387.383 2.1 0 0 .39-.359l.085-1.28a.39.39 0 0 1 .371-.363c3.502-.15 6.482-1.491 7.414-5.19.719-2.841.653-7.097-.739-9.601-2.485-4.476-9.168-3.61-13.59-3.471q-4.402.135-3.296 4.665a.398.402 13.2 0 0 .123.201zm9.71 18.339a.877.877 0 0 0-.875-.88l-4.22-.015a.877.877 0 0 0-.881.874l-.015 4.306a.877.877 0 0 0 .874.88l4.22.015a.877.877 0 0 0 .881-.874z" style="stroke-width:.386512;stroke:#fff"/><path fill="#84b03a" d="M157.028 25.797q8.813.097 15.542 5.686c11.584 10.803 11.41 28.22-.178 39.022q-6.578 5.562-15.287 5.554 4.233-1.34 5.694-2.083c17.926-9.13 18.58-34.256 2.056-44.905q-3.614-2.33-7.332-2.84a.38.38 0 0 1-.29-.21q-.07-.138-.205-.224" style="stroke-width:.386512"/><path fill="#ea9141" d="m132.79 64.53 1.983 2.903q-2.389 3.602-4.685 7.08-1.778 2.698-3.034 3.572-3.382 2.35-7.614-.302c3.888.437 5.589-1.221 7.684-4.464q2.837-4.39 5.666-8.79" style="stroke-width:.386512"/></svg>