<!-- Created by ERK --><svg xmlns="http://www.w3.org/2000/svg" viewBox="0 0 737 184"><g fill="none" stroke-width="2"><path stroke="#804806" d="M172.54 76.5q-.09-1.34.25-3.75 1.73-12.34 7.21-53.79a.49.48-84.5 0 0-.45-.55l-4.3-.2" vector-effect="non-scaling-stroke"/><path stroke="#ffc886" d="m175.25 18.21.43-4.49a.43.43 0 0 0-.43-.47H78.07a.81.8 10.7 0 0-.75.51l-2.83 7.09a.79.79 0 0 0 .19.87l3.11 3.03" vector-effect="non-scaling-stroke"/><path stroke="#804806" d="m77.79 24.75-1.18 3.2a.81.8-58.6 0 0 .2.86l12.44 11.73" vector-effect="non-scaling-stroke"/><path stroke="#ffc886" d="M89.25 40.54q-4.77 8.97-9.42 17.99c-3.62 7.01-7.77 16.71-12.2 24.82q-20.72 37.93-41.19 76-.41.76-.69 1.61" vector-effect="non-scaling-stroke"/><path stroke="#804806" d="m25.75 160.96-.64.39a1.68 1.66 88.2 0 0-.64.69l-4.73 9.47a.34.34 0 0 0 .31.49h70.28a.57.56-87.2 0 0 .56-.51l2-22.17a.55.54 2.2 0 1 .55-.5l14.26.18a.93.92 78.5 0 1 .83.55l1.82 4" vector-effect="non-scaling-stroke"/><path stroke="#ffc886" d="m110.35 153.55-.48 6.4a.58.58 0 0 0 .44.61l1.94.48" vector-effect="non-scaling-stroke"/><path stroke="#804806" d="m112.25 161.04-.99 6.73a.43.43 0 0 0 .43.49h.41a1.31 1.3 67.1 0 1 .91.37l3.99 3.99a1.28 1.25-21.6 0 0 .91.38h40.34a.96.93 17.4 0 0 .77-.39c1.49-2.05 1-4.64 1.24-6.54q2.71-21.17 5.79-42.35" vector-effect="non-scaling-stroke"/><path stroke="#ffc886" d="m166.05 123.72 3.74 11.28" vector-effect="non-scaling-stroke"/><path stroke="#804806" d="M169.79 135q5.47 22.41 26.22 32c.83.38 1.9 1.55 2.49 1.73 3.85 1.19 7.29 2.26 11.42 2.28q11.59.07 23.17-.22c2.13-.05 5.06.49 7.71.03a.76.75-86.9 0 0 .6-.54q.49-1.82 1.96-2.92.45-.33.67-.84l15.17-35.04a.79.78 34.8 0 0-.16-.86l-4.54-4.66" vector-effect="non-scaling-stroke"/><path stroke="#ffc886" d="m254.5 125.96.41-1.24a.87.87 0 0 0-.21-.89l-5.44-5.44a.72.72 0 0 0-.86-.13q-14.06 7.75-28.8 1.63" vector-effect="non-scaling-stroke"/><path stroke="#804806" d="M219.6 119.89c-1.83-11.63.79-20.08 5.55-30.97 7.06-16.12 17.79-32.22 37.91-29.46q5.84.81 11.5 2.43a1.17 1.16 35.4 0 0 .98-.16l.65-.44a1.62 1.6 27.5 0 1 .91-.28l20.36-.01" vector-effect="non-scaling-stroke"/><path stroke="#ffc886" d="m297.46 61-44.23 100.06a.51.5 13.6 0 0 .43.7l3.84.28" vector-effect="non-scaling-stroke"/><path stroke="#804806" d="m257.5 162.04-2.56 6.48a.35.35 0 0 0 .33.48h51.74a.99.98-78 0 0 .9-.59L354.62 62.3a.82.81 11.4 0 1 .75-.49l19.84-.06" vector-effect="non-scaling-stroke"/><path stroke="#ffc886" d="m375.21 61.75-43.93 97.94a.38.38 0 0 0 .34.54l4.38.06" vector-effect="non-scaling-stroke"/><path stroke="#804806" d="m336 160.29-2.83 6.95a.37.37 0 0 0 .34.51h53.43a.76.75-78 0 0 .69-.45l25.94-58.87" vector-effect="non-scaling-stroke"/><path stroke="#ffc886" d="M413.57 108.43c-.06 14.04.13 23.83 5.47 35.32" vector-effect="non-scaling-stroke"/><path stroke="#804806" d="M419.04 143.75q5.79 18.59 23.69 25.54c1.72.67 3.06 2.34 5.6 1.54a1.2 1.19 53.4 0 1 1.03.16l1.14.77a1.65 1.64-28.4 0 0 .95.28c8.29-.18 16.34.22 24.82-2.23 16.26-4.7 32.19-16.02 43.98-28.08" vector-effect="non-scaling-stroke"/><path stroke="#ffc886" d="m520.25 141.73-8.85 18.61a.33.33 0 0 0 .27.47l4.58.48" vector-effect="non-scaling-stroke"/><path stroke="#804806" d="M516.25 161.29q-.95 3.35-3.03 6.28a.59.59 0 0 0 .49.93l50.01-.08a.71.7-77.5 0 0 .64-.41l20.6-43.01" vector-effect="non-scaling-stroke"/><path stroke="#ffc886" d="M584.96 125c-.02.64.21 1.14.1 1.75q-2.63 15.97-5.3 32.86a.55.55 0 0 0 .62.63q1.41-.21 3.08.26" vector-effect="non-scaling-stroke"/><path stroke="#804806" d="m583.46 160.5-1.05 6.21a.9.89-85.3 0 0 .88 1.04h47.6a.88.87-75.6 0 0 .77-.46L712 18.69a.29.29 0 0 0-.25-.43l-8.25-.05" vector-effect="non-scaling-stroke"/><path stroke="#ffc886" d="m703.5 18.21 2.01-4.51a.32.32 0 0 0-.29-.45h-46.47a.84.84 0 0 0-.74.44l-17.2 31.47" vector-effect="non-scaling-stroke"/><path stroke="#804806" d="m640.81 45.16 2.94-26.23a.48.47 4 0 0-.46-.52l-5.29-.2" vector-effect="non-scaling-stroke"/><path stroke="#ffc886" d="M638 18.21q-.23-2.25.47-4.37a.45.45 0 0 0-.43-.59H560.8a.64.64 0 0 0-.59.4l-2.82 7.19a.72.71 33.8 0 0 .16.78l3.99 3.88" vector-effect="non-scaling-stroke"/><path stroke="#804806" d="m561.54 25.5-.88 2.53a.77.76 30.8 0 0 .21.81l11.67 10.66" vector-effect="non-scaling-stroke"/><path stroke="#ffc886" d="M572.54 39.5q-8.48 16.71-16.97 33.42c-.22.45-.43.53-.78.83" vector-effect="non-scaling-stroke"/><path stroke="#804806" d="M554.79 73.75c1.65-17.19 3.18-34.31-10.54-47.46" vector-effect="non-scaling-stroke"/><path stroke="#ffc886" d="M544.25 26.29c-15.27-20.84-45.96-19.28-66.86-8.9q-20.14 10.02-35.1 26.93-.32.36-.79.64" vector-effect="non-scaling-stroke"/><path stroke="#804806" d="M441.5 44.96 452.74 19a.36.36 0 0 0-.32-.5l-6.92-.29" vector-effect="non-scaling-stroke"/><path stroke="#ffc886" d="m445.5 18.21 1.9-4.28a.48.48 0 0 0-.44-.68h-49.17a.78.78 0 0 0-.69.42l-2.39 4.58" vector-effect="non-scaling-stroke"/><path stroke="#804806" d="M394.71 18.25h-3.42" vector-effect="non-scaling-stroke"/><path stroke="#ffc886" d="m391.29 18.25 1.76-4.54a.34.34 0 0 0-.32-.46H290.82a.75.73-76.1 0 0-.66.41l-.95 1.84" vector-effect="non-scaling-stroke"/><path stroke="#804806" d="m289.21 15.5-2.46-.04" vector-effect="non-scaling-stroke"/><path stroke="#ffc886" d="m286.75 15.46 1.15-3.93a.46.46 0 0 0-.36-.58c-54.42-9.14-90.98 18.14-114.17 64.74-.15.3-.57.62-.83.81" vector-effect="non-scaling-stroke"/><path stroke="gray" d="m286.75 15.46-15.07 38.69a.53.52-70.8 0 1-.63.31c-18.03-5.22-31.79-3.01-42.41 13.44-8.11 12.56-21.18 38.44-9.04 51.99m34.9 6.07-14.77 33.82a1.08 1.06 3.5 0 1-.68.59c-27.48 7.5-56.79 3.78-69.26-25.37m-3.74-11.28q-.07-4.83-.29-9.73-.73-15.95 4.69-30.92 1.17-3.24 2.09-6.57m218.75-58.25-15.66 35.56a.75.75 0 0 1-.68.44h-23.78a.77.76 11.8 0 0-.7.45l-46.79 106.55a.8.79-78.1 0 1-.73.48l-45.45.31M297.46 61l3.09-7.02a.34.34 0 0 0-.31-.48h-25.48a.39.39 0 0 1-.36-.53l14.81-37.47m-113.96 2.71q-.31.77-.42 1.61-9.42 70.43-18.89 140.72a.55.54 3.6 0 1-.54.47l-43.15.03m-1.9-7.49 1.3-11.3a.45.44-86.6 0 0-.44-.5H88.06a.63.63 0 0 0-.58.39l-7.33 18.36a.82.81-78.5 0 1-.77.52l-53.63-.06m63.5-120.42 1.46-2.79a.66.65-54.5 0 0-.13-.78L77.79 24.75m367.71-6.54-62.11 141.52a.77.76-78.2 0 1-.7.46l-46.69.1m39.21-98.54 19.5-43.5m149.54 8.04c16.39 26.88-.56 71.81-17.59 95.01-18.94 25.81-55.66 53.77-89.84 39.64q-11.26-4.66-17.78-17.19m-5.47-35.32q1.5-6.85 3.01-13.81c4.29-19.72 13.03-33.8 24.92-49.66M638 18.21l-5.38 42.23q-.08.59.19.07l8-15.35m62.69-26.95-76.57 141.53a.84.84 0 0 1-.74.44l-42.73.32m1.5-35.5q3.01-13.37 4.63-26.99.05-.48-.15-.04l-29.71 62.54a.88.87-76.8 0 1-.78.49l-42.7.29m4-19.56q1.41-1.8 2.18-3.3 8.38-16.44 31.23-62.19.61-1.22 1.13-2.49m17.75-34.25 1.07-2.19a.75.74-56 0 0-.16-.87L561.54 25.5" vector-effect="non-scaling-stroke"/><path stroke="gray" d="M250.06 122.56c-9.85 4.81-26.96 8.42-35.17-1.14-12.55-14.58 1.38-43 9.87-56.14q15.27-23.67 43.3-16.57a.68.68 0 0 0 .79-.41l12.65-32.79a.46.45 14.3 0 0-.37-.62C231.59 8.76 196.4 36.04 176.9 79.42c-11.05 24.59-10.55 62.79 17.62 75.46 12.34 5.55 27.93 4.9 41.17 1.44a1.08 1.07-85.3 0 0 .72-.62l14.14-32.67a.36.36 0 0 0-.49-.47m198.63-77.87c-21.12 22.33-34.39 54.23-29.25 85.1 4.34 26.04 28.36 35.17 51.61 27.93 32.26-10.03 57.38-39.65 68.14-70.54 8.2-23.54 15.81-62.4-17.95-70.84-27.44-6.85-54.35 9.09-72.55 28.35M85.04 137.01l31.35-.02a.57.56-86.4 0 1 .56.64L114.74 156a.45.45 0 0 0 .45.5l36.18-.29a.51.5-86.1 0 0 .5-.44l18.42-137.21a.49.49 0 0 0-.49-.56H78.25a.25.25 0 0 0-.17.43l18.45 17.71a.6.59 35.5 0 1 .12.71l-63.64 118.9a.34.34 0 0 0 .3.5l42.89.02a.85.85 0 0 0 .79-.54l7.3-18.21a.81.8 10.7 0 1 .75-.51m222.63-88.2a.3.3 0 0 1 .27.42l-47.5 107.35a.3.3 0 0 0 .27.42h39.52a.3.3 0 0 0 .28-.18l47.07-107.14a.3.3 0 0 1 .28-.18h24.3a.3.3 0 0 0 .28-.18l13.6-30.9a.3.3 0 0 0-.27-.42h-92.16a.3.3 0 0 0-.28.19l-12.02 30.14a.3.3 0 0 0 .28.41l26.08.07M400.39 18a.34.34 0 0 0-.31.2l-61.51 136.82a.34.34 0 0 0 .31.48h41.03a.34.34 0 0 0 .31-.2L440.2 18.48a.34.34 0 0 0-.31-.48h-39.5" vector-effect="non-scaling-stroke"/><path stroke="gray" d="m624.76 84.96 8.25-66.42a.48.48 0 0 0-.48-.54h-71.31q-.76 0-.2.51l18.24 16.74a.82.82 0 0 1 .17.97L518.97 155.7a.38.37 13.4 0 0 .34.54l36.78.03a.74.73 12.9 0 0 .66-.41l42.64-89.74a.14.14 0 0 1 .26.08l-14.38 88.77a.46.45 4.8 0 0 .45.53h37.67a.88.86-75.3 0 0 .76-.46l73.64-136.53a.35.34-75.9 0 0-.3-.51h-36.13a.71.7-75.8 0 0-.62.37l-35.66 66.69q-.43.8-.32-.1M471.81 67.99c-9.16 12.22-15.91 30.8-16.83 45-.26 4.09.11 12.5 4.08 13.71 12.25 3.74 21.78-3.12 28.89-12.24 11.8-15.13 19.82-32.68 19.6-52.19-.04-3.05-.66-7.57-2.04-9.83-8.55-14.02-28.66 8.81-33.7 15.55M127.18 50.1 97.8 107.31a.3.29-76.4 0 0 .26.43l21.44.01a.66.65 3.5 0 0 .65-.57l7.48-56.94a.24.24 0 0 0-.45-.14" vector-effect="non-scaling-stroke"/><path stroke="#ffc886" d="M464.5 122.96c16.04 1.49 29.14-24.07 33.95-36.18q5.13-12.92 4.26-26.78" vector-effect="non-scaling-stroke"/><path stroke="gray" d="M502.71 60q-.17-3.62-2.19-6.76a1.62 1.61-20 0 0-1.56-.72c-2.62.34-5.33 1.23-7.59 2.84-18.46 13.1-27.58 32.44-31.3 54.31-.59 3.49-2.21 14.43 4.43 13.29" vector-effect="non-scaling-stroke"/><path stroke="#804806" d="M502.71 60c-11.04.06-25.77 21.24-29.95 30.24q-7.24 15.59-8.26 32.72" vector-effect="non-scaling-stroke"/><path stroke="#ffc886" d="M113 102.71q1.37.69 2.63.1a.93.9 80.4 0 0 .51-.74l.57-6.57" vector-effect="non-scaling-stroke"/><path stroke="gray" d="m116.71 95.5 2.77-18.72q.31-2.09-.66-.21l-13.13 25.64a.39.39 0 0 0 .28.56q3.61.64 7.03-.06" vector-effect="non-scaling-stroke"/><path stroke="#804806" d="M116.71 95.5q-2.37 3.34-3.71 7.21" vector-effect="non-scaling-stroke"/></g><path d="M214.89 121.42c8.21 9.56 25.32 5.95 35.17 1.14a.36.36 0 0 1 .49.47l-14.14 32.67a1.08 1.07-85.3 0 1-.72.62c-13.24 3.46-28.83 4.11-41.17-1.44-28.17-12.67-28.67-50.87-17.62-75.46 19.5-43.38 54.69-70.66 104.23-64.53a.46.45 14.3 0 1 .37.62L268.85 48.3a.68.68 0 0 1-.79.41q-28.03-7.1-43.3 16.57c-8.49 13.14-22.42 41.56-9.87 56.14m233.8-76.73c18.2-19.26 45.11-35.2 72.55-28.35 33.76 8.44 26.15 47.3 17.95 70.84-10.76 30.89-35.88 60.51-68.14 70.54-23.25 7.24-47.27-1.89-51.61-27.93-5.14-30.87 8.13-62.77 29.25-85.1m23.12 23.3c-9.16 12.22-15.91 30.8-16.83 45-.26 4.09.11 12.5 4.08 13.71 12.25 3.74 21.78-3.12 28.89-12.24 11.8-15.13 19.82-32.68 19.6-52.19-.04-3.05-.66-7.57-2.04-9.83-8.55-14.02-28.66 8.81-33.7 15.55"/><path d="m286.75 15.46 2.46.04-14.81 37.47a.39.39 0 0 0 .36.53h25.48a.34.34 0 0 1 .31.48L297.46 61l-20.36.01a1.62 1.6 27.5 0 0-.91.28l-.65.44a1.17 1.16 35.4 0 1-.98.16q-5.66-1.62-11.5-2.43c-20.12-2.76-30.85 13.34-37.91 29.46-4.76 10.89-7.38 19.34-5.55 30.97-12.14-13.55.93-39.43 9.04-51.99 10.62-16.45 24.38-18.66 42.41-13.44a.53.52-70.8 0 0 .63-.31zM84.29 137.52l-7.3 18.21a.85.85 0 0 1-.79.54l-42.89-.02a.34.34 0 0 1-.3-.5l63.64-118.9a.6.59 35.5 0 0-.12-.71L78.08 18.43a.25.25 0 0 1 .17-.43h91.55a.49.49 0 0 1 .49.56l-18.42 137.21a.51.5-86.1 0 1-.5.44l-36.18.29a.45.45 0 0 1-.45-.5l2.21-18.37a.57.56-86.4 0 0-.56-.64l-31.35.02a.81.8 10.7 0 0-.75.51m42.89-87.42L97.8 107.31a.3.29-76.4 0 0 .26.43l21.44.01a.66.65 3.5 0 0 .65-.57l7.48-56.94a.24.24 0 0 0-.45-.14"/><path d="m307.67 48.81-26.08-.07a.3.3 0 0 1-.28-.41l12.02-30.14a.3.3 0 0 1 .28-.19h92.16a.3.3 0 0 1 .27.42l-13.6 30.9a.3.3 0 0 1-.28.18h-24.3a.3.3 0 0 0-.28.18l-47.07 107.14a.3.3 0 0 1-.28.18h-39.52a.3.3 0 0 1-.27-.42l47.5-107.35a.3.3 0 0 0-.27-.42M400.39 18h39.5a.34.34 0 0 1 .31.48L380.22 155.3a.34.34 0 0 1-.31.2h-41.03a.34.34 0 0 1-.31-.48L400.08 18.2a.34.34 0 0 1 .31-.2m224.69 67.06 35.66-66.69a.71.7-75.8 0 1 .62-.37h36.13a.35.34-75.9 0 1 .3.51l-73.64 136.53a.88.86-75.3 0 1-.76.46h-37.67a.46.45 4.8 0 1-.45-.53l14.38-88.77a.14.14 0 0 0-.26-.08l-42.64 89.74a.74.73 12.9 0 1-.66.41l-36.78-.03a.38.37 13.4 0 1-.34-.54l60.46-119.48a.82.82 0 0 0-.17-.97l-18.24-16.74q-.56-.51.2-.51h71.31a.48.48 0 0 1 .48.54l-8.25 66.42q-.11.9.32.1M175.25 18.21l4.3.2a.49.48-84.5 0 1 .45.55q-5.48 41.45-7.21 53.79-.34 2.41-.25 3.75-.92 3.33-2.09 6.57-5.42 14.97-4.69 30.92.22 4.9.29 9.73-3.08 21.18-5.79 42.35c-.24 1.9.25 4.49-1.24 6.54a.96.93 17.4 0 1-.77.39h-40.34a1.28 1.25-21.6 0 1-.91-.38l-3.99-3.99a1.31 1.3 67.1 0 0-.91-.37h-.41a.43.43 0 0 1-.43-.49l.99-6.73 43.15-.03a.55.54 3.6 0 0 .54-.47q9.47-70.29 18.89-140.72.11-.84.42-1.61"/><path d="M391.29 18.25h3.42l-19.5 43.5-19.84.06a.82.81 11.4 0 0-.75.49l-46.71 106.11a.99.98-78 0 1-.9.59h-51.74a.35.35 0 0 1-.33-.48l2.56-6.48 45.45-.31a.8.79-78.1 0 0 .73-.48L350.47 54.7a.77.76 11.8 0 1 .7-.45h23.78a.75.75 0 0 0 .68-.44zm54.21-.04 6.92.29a.36.36 0 0 1 .32.5L441.5 44.96c-11.89 15.86-20.63 29.94-24.92 49.66q-1.51 6.96-3.01 13.81l-25.94 58.87a.76.75-78 0 1-.69.45h-53.43a.37.37 0 0 1-.34-.51l2.83-6.95 46.69-.1a.77.76-78.2 0 0 .7-.46zm192.5 0 5.29.2a.48.47 4 0 1 .46.52l-2.94 26.23-8 15.35q-.27.52-.19-.07zm65.5 0 8.25.05a.29.29 0 0 1 .25.43l-80.34 148.6a.88.87-75.6 0 1-.77.46h-47.6a.9.89-85.3 0 1-.88-1.04l1.05-6.21 42.73-.32a.84.84 0 0 0 .74-.44zM77.79 24.75l12.79 12.22a.66.65-54.5 0 1 .13.78l-1.46 2.79-12.44-11.73a.81.8-58.6 0 1-.2-.86zm483.75.75 11.91 10.94a.75.74-56 0 1 .16.87l-1.07 2.19-11.67-10.66a.77.76 30.8 0 1-.21-.81zm-17.29.79c13.72 13.15 12.19 30.27 10.54 47.46q-.52 1.27-1.13 2.49-22.85 45.75-31.23 62.19-.77 1.5-2.18 3.3c-11.79 12.06-27.72 23.38-43.98 28.08-8.48 2.45-16.53 2.05-24.82 2.23a1.65 1.64-28.4 0 1-.95-.28l-1.14-.77a1.2 1.19 53.4 0 0-1.03-.16c-2.54.8-3.88-.87-5.6-1.54q-17.9-6.95-23.69-25.54 6.52 12.53 17.78 17.19c34.18 14.13 70.9-13.83 89.84-39.64 17.03-23.2 33.98-68.13 17.59-95.01"/><path d="M502.71 60c-11.04.06-25.77 21.24-29.95 30.24q-7.24 15.59-8.26 32.72c-6.64 1.14-5.02-9.8-4.43-13.29 3.72-21.87 12.84-41.21 31.3-54.31 2.26-1.61 4.97-2.5 7.59-2.84a1.62 1.61-20 0 1 1.56.72q2.02 3.14 2.19 6.76m-386 35.5q-2.37 3.34-3.71 7.21-3.42.7-7.03.06a.39.39 0 0 1-.28-.56l13.13-25.64q.97-1.88.66.21zM584.96 125l-20.6 43.01a.71.7-77.5 0 1-.64.41l-50.01.08a.59.59 0 0 1-.49-.93q2.08-2.93 3.03-6.28l42.7-.29a.88.87-76.8 0 0 .78-.49l29.71-62.54q.2-.44.15.04-1.62 13.62-4.63 26.99m-330.46.96 4.54 4.66a.79.78 34.8 0 1 .16.86l-15.17 35.04q-.22.51-.67.84-1.47 1.1-1.96 2.92a.76.75-86.9 0 1-.6.54c-2.65.46-5.58-.08-7.71-.03q-11.58.29-23.17.22c-4.13-.02-7.57-1.09-11.42-2.28-.59-.18-1.66-1.35-2.49-1.73q-20.75-9.59-26.22-32c12.47 29.15 41.78 32.87 69.26 25.37a1.08 1.06 3.5 0 0 .68-.59zm-144.15 27.59-1.82-4a.93.92 78.5 0 0-.83-.55l-14.26-.18a.55.54 2.2 0 0-.55.5l-2 22.17a.57.56-87.2 0 1-.56.51H20.05a.34.34 0 0 1-.31-.49l4.73-9.47a1.68 1.66 88.2 0 1 .64-.69l.64-.39 53.63.06a.82.81-78.5 0 0 .77-.52l7.33-18.36a.63.63 0 0 1 .58-.39h23.15a.45.44-86.6 0 1 .44.5z"/><g fill="#ff900c"><path d="M469.75 12.45q28.79-15.44 60.91-9.98 4.83.82 8.77.75c34.23-.56 61.55-.23 91.69-.09q51.76.25 104.49.05a.66.66 0 0 1 .58.98l-90.48 166.8q-.24.45-.68.73c-.93.6-1.5.97-2 2.04q-2.3 4.94-5.48 9.36a.97.97 0 0 1-.79.41c-205.19.19-410.39-.59-615.59-.49-5.81 0-13.1-.53-19.69-.42a.55.55 0 0 1-.51-.77c2.86-6.48 5.65-12.95 9.07-19.21q32.85-60.17 65.79-120.29a.76.75-52.5 0 0-.11-.89L41.31 3.61a.3.3 0 0 1 .23-.5L192 3.17a.53.53 0 0 1 .52.59l-3.93 29.46q-.11.79.45.21c24.86-25.72 60.72-37.59 96.42-31.1q4.91.9 8.8.9 89.3.04 178.59.01a.57.57 0 0 1 .51.83l-3.99 8.02q-.39.78.38.36M172.54 76.5q-.09-1.34.25-3.75 1.73-12.34 7.21-53.79a.49.48-84.5 0 0-.45-.55l-4.3-.2.43-4.49a.43.43 0 0 0-.43-.47H78.07a.81.8 10.7 0 0-.75.51l-2.83 7.09a.79.79 0 0 0 .19.87l3.11 3.03-1.18 3.2a.81.8-58.6 0 0 .2.86l12.44 11.73q-4.77 8.97-9.42 17.99c-3.62 7.01-7.77 16.71-12.2 24.82q-20.72 37.93-41.19 76-.41.76-.69 1.61l-.64.39a1.68 1.66 88.2 0 0-.64.69l-4.73 9.47a.34.34 0 0 0 .31.49h70.28a.57.56-87.2 0 0 .56-.51l2-22.17a.55.54 2.2 0 1 .55-.5l14.26.18a.93.92 78.5 0 1 .83.55l1.82 4-.48 6.4a.58.58 0 0 0 .44.61l1.94.48-.99 6.73a.43.43 0 0 0 .43.49h.41a1.31 1.3 67.1 0 1 .91.37l3.99 3.99a1.28 1.25-21.6 0 0 .91.38h40.34a.96.93 17.4 0 0 .77-.39c1.49-2.05 1-4.64 1.24-6.54q2.71-21.17 5.79-42.35l3.74 11.28q5.47 22.41 26.22 32c.83.38 1.9 1.55 2.49 1.73 3.85 1.19 7.29 2.26 11.42 2.28q11.59.07 23.17-.22c2.13-.05 5.06.49 7.71.03a.76.75-86.9 0 0 .6-.54q.49-1.82 1.96-2.92.45-.33.67-.84l15.17-35.04a.79.78 34.8 0 0-.16-.86l-4.54-4.66.41-1.24a.87.87 0 0 0-.21-.89l-5.44-5.44a.72.72 0 0 0-.86-.13q-14.06 7.75-28.8 1.63c-1.83-11.63.79-20.08 5.55-30.97 7.06-16.12 17.79-32.22 37.91-29.46q5.84.81 11.5 2.43a1.17 1.16 35.4 0 0 .98-.16l.65-.44a1.62 1.6 27.5 0 1 .91-.28l20.36-.01-44.23 100.06a.51.5 13.6 0 0 .43.7l3.84.28-2.56 6.48a.35.35 0 0 0 .33.48h51.74a.99.98-78 0 0 .9-.59L354.62 62.3a.82.81 11.4 0 1 .75-.49l19.84-.06-43.93 97.94a.38.38 0 0 0 .34.54l4.38.06-2.83 6.95a.37.37 0 0 0 .34.51h53.43a.76.75-78 0 0 .69-.45l25.94-58.87c-.06 14.04.13 23.83 5.47 35.32q5.79 18.59 23.69 25.54c1.72.67 3.06 2.34 5.6 1.54a1.2 1.19 53.4 0 1 1.03.16l1.14.77a1.65 1.64-28.4 0 0 .95.28c8.29-.18 16.34.22 24.82-2.23 16.26-4.7 32.19-16.02 43.98-28.08l-8.85 18.61a.33.33 0 0 0 .27.47l4.58.48q-.95 3.35-3.03 6.28a.59.59 0 0 0 .49.93l50.01-.08a.71.7-77.5 0 0 .64-.41l20.6-43.01c-.02.64.21 1.14.1 1.75q-2.63 15.97-5.3 32.86a.55.55 0 0 0 .62.63q1.41-.21 3.08.26l-1.05 6.21a.9.89-85.3 0 0 .88 1.04h47.6a.88.87-75.6 0 0 .77-.46L712 18.69a.29.29 0 0 0-.25-.43l-8.25-.05 2.01-4.51a.32.32 0 0 0-.29-.45h-46.47a.84.84 0 0 0-.74.44l-17.2 31.47 2.94-26.23a.48.47 4 0 0-.46-.52l-5.29-.2q-.23-2.25.47-4.37a.45.45 0 0 0-.43-.59H560.8a.64.64 0 0 0-.59.4l-2.82 7.19a.72.71 33.8 0 0 .16.78l3.99 3.88-.88 2.53a.77.76 30.8 0 0 .21.81l11.67 10.66q-8.48 16.71-16.97 33.42c-.22.45-.43.53-.78.83 1.65-17.19 3.18-34.31-10.54-47.46-15.27-20.84-45.96-19.28-66.86-8.9q-20.14 10.02-35.1 26.93-.32.36-.79.64L452.74 19a.36.36 0 0 0-.32-.5l-6.92-.29 1.9-4.28a.48.48 0 0 0-.44-.68h-49.17a.78.78 0 0 0-.69.42l-2.39 4.58h-3.42l1.76-4.54a.34.34 0 0 0-.32-.46H290.82a.75.73-76.1 0 0-.66.41l-.95 1.84-2.46-.04 1.15-3.93a.46.46 0 0 0-.36-.58c-54.42-9.14-90.98 18.14-114.17 64.74-.15.3-.57.62-.83.81"/><path d="M502.71 60q.87 13.86-4.26 26.78c-4.81 12.11-17.91 37.67-33.95 36.18q1.02-17.13 8.26-32.72c4.18-9 18.91-30.18 29.95-30.24m-386 35.5-.57 6.57a.93.9 80.4 0 1-.51.74q-1.26.59-2.63-.1 1.34-3.87 3.71-7.21"/></g><g fill="#fff"><path d="m286.75 15.46-15.07 38.69a.53.52-70.8 0 1-.63.31c-18.03-5.22-31.79-3.01-42.41 13.44-8.11 12.56-21.18 38.44-9.04 51.99q14.74 6.12 28.8-1.63a.72.72 0 0 1 .86.13l5.44 5.44a.87.87 0 0 1 .21.89l-.41 1.24-14.77 33.82a1.08 1.06 3.5 0 1-.68.59c-27.48 7.5-56.79 3.78-69.26-25.37l-3.74-11.28q-.07-4.83-.29-9.73-.73-15.95 4.69-30.92 1.17-3.24 2.09-6.57c.26-.19.68-.51.83-.81 23.19-46.6 59.75-73.88 114.17-64.74a.46.46 0 0 1 .36.58zm-36.69 107.1c-9.85 4.81-26.96 8.42-35.17-1.14-12.55-14.58 1.38-43 9.87-56.14q15.27-23.67 43.3-16.57a.68.68 0 0 0 .79-.41l12.65-32.79a.46.45 14.3 0 0-.37-.62C231.59 8.76 196.4 36.04 176.9 79.42c-11.05 24.59-10.55 62.79 17.62 75.46 12.34 5.55 27.93 4.9 41.17 1.44a1.08 1.07-85.3 0 0 .72-.62l14.14-32.67a.36.36 0 0 0-.49-.47m294.19-96.27c16.39 26.88-.56 71.81-17.59 95.01-18.94 25.81-55.66 53.77-89.84 39.64q-11.26-4.66-17.78-17.19c-5.34-11.49-5.53-21.28-5.47-35.32q1.5-6.85 3.01-13.81c4.29-19.72 13.03-33.8 24.92-49.66q.47-.28.79-.64 14.96-16.91 35.1-26.93c20.9-10.38 51.59-11.94 66.86 8.9m-95.56 18.4c-21.12 22.33-34.39 54.23-29.25 85.1 4.34 26.04 28.36 35.17 51.61 27.93 32.26-10.03 57.38-39.65 68.14-70.54 8.2-23.54 15.81-62.4-17.95-70.84-27.44-6.85-54.35 9.09-72.55 28.35M175.25 18.21q-.31.77-.42 1.61-9.42 70.43-18.89 140.72a.55.54 3.6 0 1-.54.47l-43.15.03-1.94-.48a.58.58 0 0 1-.44-.61l.48-6.4 1.3-11.3a.45.44-86.6 0 0-.44-.5H88.06a.63.63 0 0 0-.58.39l-7.33 18.36a.82.81-78.5 0 1-.77.52l-53.63-.06q.28-.85.69-1.61 20.47-38.07 41.19-76c4.43-8.11 8.58-17.81 12.2-24.82q4.65-9.02 9.42-17.99l1.46-2.79a.66.65-54.5 0 0-.13-.78L77.79 24.75l-3.11-3.03a.79.79 0 0 1-.19-.87l2.83-7.09a.81.8 10.7 0 1 .75-.51h97.18a.43.43 0 0 1 .43.47zm-90.21 118.8 31.35-.02a.57.56-86.4 0 1 .56.64L114.74 156a.45.45 0 0 0 .45.5l36.18-.29a.51.5-86.1 0 0 .5-.44l18.42-137.21a.49.49 0 0 0-.49-.56H78.25a.25.25 0 0 0-.17.43l18.45 17.71a.6.59 35.5 0 1 .12.71l-63.64 118.9a.34.34 0 0 0 .3.5l42.89.02a.85.85 0 0 0 .79-.54l7.3-18.21a.81.8 10.7 0 1 .75-.51"/><path d="m391.29 18.25-15.66 35.56a.75.75 0 0 1-.68.44h-23.78a.77.76 11.8 0 0-.7.45l-46.79 106.55a.8.79-78.1 0 1-.73.48l-45.45.31-3.84-.28a.51.5 13.6 0 1-.43-.7L297.46 61l3.09-7.02a.34.34 0 0 0-.31-.48h-25.48a.39.39 0 0 1-.36-.53l14.81-37.47.95-1.84a.75.73-76.1 0 1 .66-.41h101.91a.34.34 0 0 1 .32.46zm-83.62 30.56a.3.3 0 0 1 .27.42l-47.5 107.35a.3.3 0 0 0 .27.42h39.52a.3.3 0 0 0 .28-.18l47.07-107.14a.3.3 0 0 1 .28-.18h24.3a.3.3 0 0 0 .28-.18l13.6-30.9a.3.3 0 0 0-.27-.42h-92.16a.3.3 0 0 0-.28.19l-12.02 30.14a.3.3 0 0 0 .28.41zm137.83-30.6-62.11 141.52a.77.76-78.2 0 1-.7.46l-46.69.1-4.38-.06a.38.38 0 0 1-.34-.54l43.93-97.94 19.5-43.5 2.39-4.58a.78.78 0 0 1 .69-.42h49.17a.48.48 0 0 1 .44.68zM400.39 18a.34.34 0 0 0-.31.2l-61.51 136.82a.34.34 0 0 0 .31.48h41.03a.34.34 0 0 0 .31-.2L440.2 18.48a.34.34 0 0 0-.31-.48zm237.61.21-5.38 42.23q-.08.59.19.07l8-15.35 17.2-31.47a.84.84 0 0 1 .74-.44h46.47a.32.32 0 0 1 .29.45l-2.01 4.51-76.57 141.53a.84.84 0 0 1-.74.44l-42.73.32q-1.67-.47-3.08-.26a.55.55 0 0 1-.62-.63q2.67-16.89 5.3-32.86c.11-.61-.12-1.11-.1-1.75q3.01-13.37 4.63-26.99.05-.48-.15-.04l-29.71 62.54a.88.87-76.8 0 1-.78.49l-42.7.29-4.58-.48a.33.33 0 0 1-.27-.47l8.85-18.61q1.41-1.8 2.18-3.3 8.38-16.44 31.23-62.19.61-1.22 1.13-2.49c.35-.3.56-.38.78-.83q8.49-16.71 16.97-33.42l1.07-2.19a.75.74-56 0 0-.16-.87L561.54 25.5l-3.99-3.88a.72.71 33.8 0 1-.16-.78l2.82-7.19a.64.64 0 0 1 .59-.4h77.24a.45.45 0 0 1 .43.59q-.7 2.12-.47 4.37m-13.24 66.75 8.25-66.42a.48.48 0 0 0-.48-.54h-71.31q-.76 0-.2.51l18.24 16.74a.82.82 0 0 1 .17.97L518.97 155.7a.38.37 13.4 0 0 .34.54l36.78.03a.74.73 12.9 0 0 .66-.41l42.64-89.74a.14.14 0 0 1 .26.08l-14.38 88.77a.46.45 4.8 0 0 .45.53h37.67a.88.86-75.3 0 0 .76-.46l73.64-136.53a.35.34-75.9 0 0-.3-.51h-36.13a.71.7-75.8 0 0-.62.37l-35.66 66.69q-.43.8-.32-.1M471.81 67.99c5.04-6.74 25.15-29.57 33.7-15.55 1.38 2.26 2 6.78 2.04 9.83.22 19.51-7.8 37.06-19.6 52.19-7.11 9.12-16.64 15.98-28.89 12.24-3.97-1.21-4.34-9.62-4.08-13.71.92-14.2 7.67-32.78 16.83-45m-7.31 54.97c16.04 1.49 29.14-24.07 33.95-36.18q5.13-12.92 4.26-26.78-.17-3.62-2.19-6.76a1.62 1.61-20 0 0-1.56-.72c-2.62.34-5.33 1.23-7.59 2.84-18.46 13.1-27.58 32.44-31.3 54.31-.59 3.49-2.21 14.43 4.43 13.29M127.18 50.1a.24.24 0 0 1 .45.14l-7.48 56.94a.66.65 3.5 0 1-.65.57l-21.44-.01a.3.29-76.4 0 1-.26-.43zM113 102.71q1.37.69 2.63.1a.93.9 80.4 0 0 .51-.74l.57-6.57 2.77-18.72q.31-2.09-.66-.21l-13.13 25.64a.39.39 0 0 0 .28.56q3.61.64 7.03-.06"/></g></svg>