<!-- Created by ERK --><svg xmlns="http://www.w3.org/2000/svg" xmlns:xlink="http://www.w3.org/1999/xlink" viewBox="0 0 1977 430"><defs><linearGradient id="b"><stop offset="0" style="stop-color:#58beeb;stop-opacity:1"/><stop offset="1" style="stop-color:#0098da;stop-opacity:1"/></linearGradient><linearGradient id="a"><stop offset="0" style="stop-color:#a9abae;stop-opacity:1"/><stop offset="1" style="stop-color:#666;stop-opacity:1"/></linearGradient><linearGradient xlink:href="#a" id="k" x1="19.977" x2="37.465" y1="294.144" y2="167.567" gradientUnits="userSpaceOnUse"/><linearGradient xlink:href="#a" id="j" x1="513.082" x2="490.71" y1="203.999" y2="203.75" gradientUnits="userSpaceOnUse"/><linearGradient xlink:href="#a" id="m" x1="685.026" x2="668.96" y1="347.5" y2="347.5" gradientUnits="userSpaceOnUse"/><linearGradient xlink:href="#a" id="l" x1="1141.49" x2="1044.485" y1="255.514" y2="170.477" gradientUnits="userSpaceOnUse"/><linearGradient xlink:href="#a" id="h" x1="1201.167" x2="1219.851" y1="80.866" y2="65.447" gradientUnits="userSpaceOnUse"/><linearGradient xlink:href="#a" id="g" x1="1343.138" x2="1319.585" y1="77.473" y2="59.4" gradientUnits="userSpaceOnUse"/><linearGradient xlink:href="#a" id="e" x1="1645.908" x2="1546.367" y1="209.718" y2="209.166" gradientUnits="userSpaceOnUse"/><linearGradient xlink:href="#a" id="i" x1="1758.142" x2="1843.183" y1="179.567" y2="13.919" gradientUnits="userSpaceOnUse"/><linearGradient xlink:href="#a" id="f" x1="1974.17" x2="1935.851" y1="289.82" y2="340.897" gradientUnits="userSpaceOnUse"/><linearGradient xlink:href="#b" id="c" x1="333.472" x2="333.472" y1="209.817" y2="432.204" gradientUnits="userSpaceOnUse"/><linearGradient xlink:href="#b" id="d" x1="844.086" x2="846.558" y1="199.668" y2="427.656" gradientUnits="userSpaceOnUse"/></defs><g fill="#7c919c"><path d="M1098 107.54c-1 .19-2.18.47-3.02 1.09-27.29 20.38-44.06 51.49-54.94 83.37l-53.25 3.25c2.42-73.6 42.06-151.68 122.54-162.77 21.5-2.96 42.68-2.01 63.18 6.18a1.97 1.96-79.3 0 1 1.24 1.83v61.79a.83.83 0 0 1-1.15.76c-24.01-9.96-52.33-11.25-74.6 4.5m534.38-74.11q-7.98 4.22-14.86 9.52-9.78 7.88-16.52 18.26-17.82 26.29-27.83 56.53c-8.03 15.8-11.81 32.47-13.71 50.01-22.74-.26-45.45.63-68.17.5 6.07-62.13 36.63-131.73 108.72-136.84 9.88-.7 22.24-.92 32.37 2.02m-273.92 13.32-.25-2.75-.01-6.04q0-.32-.11-.02l-.1.25a.47.46 9.7 0 1-.44.3l-.66-.01a1.23 1.22-66.8 0 0-.89.36q-5.71 5.88-10.92 12.18c-3.91 4.73-39.46 45.36-39.36 46.74a.31.31 0 0 0 .43.26q.76-.33 1.1.44-1.17-.54-1.19.6-.35 25.76.12 76-33.08 1.97-66.25 3.73-1.04.05-2.61-.04.21-39.25-.07-78.5-.01-1.75-1.5-1.79c-.25-2.13-1.49-2.68-2.53-3.97q-31.47-39.13-46.18-56.77-.38-.46-1.5-.47-.16-.65.01-1.43a.64.62-83.6 0 1 .61-.5c28.54-.2 57.07.21 85.6.07q43.1-.2 86.07-.13a.67.66 90 0 1 .66.67zm537 134.75q-1.73.29-5.15-.06-28.68-2.97-68.31-5.4-1.21-1.23-1.73-2.82l-13.51-31.99-12.54-29.13q-15.81-37.73-31.97-75.14c-.13-.29-.24-.29-.46-.46q-.15-.41-.02-.78a.71.71 0 0 1 .67-.47h67.81a.6.59 77.6 0 1 .54.35zm-1718.71-8.96q-33.87-6.16-67.46-13.71-.81-.19-1.54-.62c15.21-14.22 17.18-33.88 6.57-51.13-10.73-17.45-25.76-18.91-45.53-18.8q-33.66.17-67.44.27a.85.84 89.7 0 1-.84-.84L0 41.44v-5.75q43.56-.45 77.94-.1c45.59.47 90.06 13.73 100.85 63.96 4.98 23.18 5.35 49.98-2.04 72.99m314.02-2.78-.06 33.99q-1.18.28-1.71.25-32.13-1.58-64.21-4l-.03-164.03a.47.47 0 0 1 .47-.47h146.74a.48.47 0 0 1 .48.47l-.06 61.59a1.2 1.19 0 0 1-1.2 1.19l-79.91-.01a.5.5 0 0 0-.5.5zm178.19 36.99-67.42.25-.03-171.06a.45.44 0 0 1 .45-.44h66.54a.49.49 0 0 1 .49.49z"/><path d="M1306.18 175.06a10253 10253 0 0 1-66.25 3.73q-1.04.049-2.61-.04l.22 145.75-.01 51.63a1.39 1.39 0 0 0 1.39 1.39l66.58-.02a.74.74 0 0 0 .74-.74l-.03-105.26zM107.75 158.21q-11.63 9.671-25.99 10.01-17.94.43-79.76-.24-1.199-.009-.79.9L53 258.46l3.24 5.8 10.51 18.2 14.67 24.91a14597 14597 0 0 0 39.26 68.17q.48.83 1.07 1.53a1.2 1.2 0 0 0 .92.43l70.78.01a.15.15 0 0 0 .13-.22l-44.08-74.08-44.18-74.63a.76.76 0 0 1 .52-1.14c30.95-5.45 62.15-22.73 70.91-54.9a1671 1671 0 0 1-67.46-13.71 5.5 5.5 0 0 1-1.54-.62m41.4 145.28q.463.446.64.864-.177-.42-.64-.864m.2 2.428q-.397.364-1.08.701.683-.337 1.08-.701M424.79 200v114.75l.06 62.33a.43.43 0 0 0 .43.43h64.97a.44.45 0 0 0 .44-.45l.03-46.31.07-97.75-.08-29.25q-1.18.28-1.71.25a2460 2460 0 0 1-64.21-4m60.483 138.045c-.883.067-1.792.16-2.382.154.59.005 1.499-.087 2.382-.154M1822 176.04l6.04 15.71.27.1a.64.62 87.3 0 1 .36.34l55.54 125.56 26.11 59.27a.8.78 77.8 0 0 .72.48l62.02.01a.5.5 0 0 0 .5-.54l-.27-2.97c-.35-.29-.97-.8-1.14-1.21a2167 2167 0 0 1-19.69-51.29l-1.67-4.25-6.5-17.5-8-20.75a928 928 0 0 0-25.58-63.75l-15.25-33.75q-1.729.29-5.15-.06-28.68-2.97-68.31-5.4m-279.59-8.304c-17.046.135-34.08.612-51.12.514q-4.031 37.63.24 78.74c3.07 29.58 10.84 59.26 26.47 83.8 24.5 40.49 67.75 58.25 114.25 48.92q-3.03-4.658-8-7.25a21.7 21.7 0 0 1-4.72-3.74 238.5 238.5 0 0 1-22.28-26.93l-3-4.08q-.916.14-3.043.22 2.127-.08 3.043-.22a215.2 215.2 0 0 1-21.61-43.16q-7.37-15.15-10.45-31.24c-5.92-30.88-5.66-67.26-2.73-95.56a882 882 0 0 0-17.05-.014M668.96 206.75l-67.42.25v148.75l.08 20.56a1.18 1.17 0 0 0 1.18 1.17l66.76.01q-.949-15-.6-29.99l.33-32.75c-.19-.5-.29-.36-.29-1.01zm-.549 142.1q.01.365-.08.392-.09.029-.28-.281.19.31.28.281t.08-.392" style="fill:#8b9ea9;fill-opacity:1"/><path d="m1454.84 170.427-70.265.197-.03-134.617a.469.346 0 0 1 .468-.346h69.348a.51.386 0 0 1 .51.385z" style="stroke-width:.905625"/><path d="m1454.84 169.221-70.266.307v182.563l.083 25.234a1.23 1.436 0 0 0 1.232 1.436l69.576.012a501 501 0 0 1-.625-36.807l.342-40.195c-.198-.614-.301-.442-.301-1.24zm-.573 174.401c.01.298-.021.459-.083.482q-.094.034-.291-.346.197.38.29.346.095-.035.084-.482" style="fill:#8b9ea9;fill-opacity:1;stroke-width:1.13097"/></g><g fill="#0098da"><path d="M408.46 209c-56.38.58-114.4-2.31-170.17-13l-.03-194.91a.58.57 6.1 0 1 .7-.56l169.46 38.28a.43.43 0 0 1 .33.42v55.68a.57.56-84.9 0 1-.66.56l-96.03-16.01a.49.48-85.5 0 0-.56.48v85.48a.54.53 3 0 0 .48.53l96.05 9.23a.5.49-87.5 0 1 .45.5zm524.28-13.17q-37.94 7.6-76.5 10.34-46.66 3.32-93.45 2.83v-33.3a.53.53 0 0 1 .49-.53l95.78-9.21a.78.77-2.9 0 0 .7-.77l-.03-84.17a1.41 1.41 0 0 0-1.64-1.39l-95.04 15.84a.68.68 0 0 1-.8-.67V39.46a.69.69 0 0 1 .54-.67L932.19.52a.42.42 0 0 1 .51.41z"/><path d="M238.29 196v81.5l-.02 149.79a.56.56 0 0 0 .72.54l169.49-50.04a.37.38 81.7 0 0 .27-.36V319.3a.54.55 82.2 0 0-.69-.52l-95.84 25.65a.4.41 82.1 0 1-.51-.38l-.25-32.05c-.062-1.197-.042-2.668.003-4.264.045-1.595.114-3.315.15-5.015.037-1.7.04-3.38-.049-4.89-.02-.354-.066-.66-.097-.993v-.008l.023-51.86a.68.69 87.2 0 1 .62-.68l95.69-9.17a.75.76 87 0 0 .68-.75l-.02-25.37c-56.38.58-114.4-2.31-170.17-13m65.29 99.22" style="fill:url(#c);fill-opacity:1;stroke:none"/><path d="M932.74 195.83a609 609 0 0 1-76.5 10.34 1147 1147 0 0 1-93.45 2.83l-.22 25.48a.62.62 0 0 0 .57.62l95.62 9.17a.8.81 82.3 0 1 .67.5q.21.56.11 1.23v55q.288.2.437.508a1.3 1.3 0 0 0-.438-.508l.32 41.44q.01 2.25-2.16 1.67l-94.51-25.29a.74.75 7.7 0 0-.939.72v57.99a.75.74 8.5 0 0 .53.71l169.14 49.88a.65.66 8.3 0 0 .84-.63l-.05-123.74v-61zm-2.045 41.217c-.154.152-.388.295-.69.433.302-.138.536-.281.69-.433M860.26 248.47q.005.66-.055.665t-.185-.645q.125.65.185.645t.055-.664m69.96 46.35q.49.018.835.157t.545.4.255.644a1.36 1.36 0 0 0-.255-.644 1.26 1.26 0 0 0-.545-.4 2.5 2.5 0 0 0-.834-.157m-19.56 2.261q-1.06-.016-2.125.108 1.065-.124 2.125-.109m21.49.368c.055.016.103.114.145.274-.042-.16-.09-.258-.145-.274m-57.81 3.67" style="fill:url(#d);fill-opacity:1"/></g><g fill="#a9abae"><path d="M1632.38 33.43q-7.98 4.22-14.86 9.52-9.78 7.88-16.52 18.26-17.82 26.291-27.83 56.53 10.37-17.28 29.31-21.04 8.3-.97 15.34.47 7.86 1.57 15.55 6.32 8.67 7.6 13.35 16.56c6.86 13.16 10.26 27.33 12.11 41.97q5.32 42.01.76 83.97c-2.85 26.12-11.04 63.76-42.09 70.05q-8.36 1.51-17.19-.07-18.13-4.599-27.67-21.42a215.2 215.2 0 0 0 21.61 43.16l3 4.08a238.5 238.5 0 0 0 22.28 26.93 21.7 21.7 0 0 0 4.72 3.74q4.97 2.592 8 7.25c68.57-14.42 93.84-87.93 96.99-148.96 2.07-40.01-1.07-80.72-14.68-118.39-13.43-37.2-39.4-69.22-79.56-78.57zm2.38.57a.26.26 0 0 0 .08.44.26.26 0 0 1-.08-.44m-.442 2.025" style="fill-opacity:1;fill:url(#e)"/><path d="M1911.28 35.5a.52.52 0 0 0-.52.52l-.05 179.23a928 928 0 0 1 25.58 63.75c.98.13 1.89.143 2.792.203-.903-.06-1.813-.073-2.793-.203l8 20.75 6.5 17.5 1.672 4.25a2167 2167 0 0 0 19.69 51.29c.17.41.788.92 1.138 1.21l1.08-45.94.342-20.56.25-17.5c1.75-84.59.82-169.37.76-253.99a.51.51 0 0 0-.51-.51zm62.89 254.321a.46.46 0 0 1-.067.26.46.46 0 0 0 .067-.26m-.094.306a.46.46 0 0 1-.205.156.46.46 0 0 0 .205-.156m-.525.162a.46.46 0 0 0 .27.008.46.46 0 0 1-.27-.008m.94.172q-.005.295.052.307.058.012.178-.258-.12.27-.178.258t-.053-.307" style="fill-opacity:1;fill:url(#f)"/><path d="M1358.172 37.795q-.028-.005-.082.144l-.1.25a.47.46 9.7 0 1-.44.301l-.66-.01a1.22 1.23 23.2 0 0-.89.36 205 205 0 0 0-10.92 12.18c-3.91 4.73-39.46 45.36-39.36 46.74a.31.31 0 0 0 .43.26q.76-.329 1.1.44h14.25l36.5.03a.49.49 0 0 0 .49-.49l-.03-51.25-.25-2.75-.01-6.04q0-.16-.028-.165" style="fill-opacity:1;fill:url(#g)"/><path d="M1185.54 37.25v11l-.03 49.75a.49.49 0 0 0 .49.49l36.25-.03h13.5c-.25-2.13-1.49-2.68-2.53-3.97q-31.47-39.13-46.18-56.77-.381-.46-1.5-.47" style="fill-opacity:1;fill:url(#h)"/><path d="m1761.79 36.5-.01 39.5.01 15v14l-.02 271.99a.52.52 0 0 0 .52.52l61.69-.01a.43.43 0 0 0 .43-.42l3.41-184.49a.8.8 0 0 1 .12-.43.7.7 0 0 0 .1-.41l-6.04-15.71a7.14 7.14 0 0 1-1.73-2.82l-13.51-31.99-12.54-29.13a7454 7454 0 0 0-31.97-75.14c-.13-.29-.24-.29-.46-.46m2.465 71.289c.868.871 1.73 1.705 2.434 2.57-.705-.865-1.566-1.699-2.433-2.57m20.315 23.711q1.4 1.6 6.35 7.92-4.95-6.32-6.35-7.92" style="fill-opacity:1;fill:url(#i)"/><path d="m490.77 169.76-.06 33.99.08 29.25 8.46-.29h8l57.39.03a.62.63 0 0 0 .62-.63l-.02-61.83a.49.49 0 0 0-.49-.49h-67.5zm14.29 7.758" style="fill-opacity:1;fill:url(#j)"/><path d="M1.21 168.88a457 457 0 0 0-.42 33.62v12l-.25 10L0 362.19l-.01 15.04 64.97.31a1.2 1.21.5 0 0 1.21-1.2l.29-91.09.29-2.79-10.51-18.2-3.24-5.8zm30.956 83.108" style="fill-opacity:1;fill:url(#k)"/><path d="M1098 107.54c-1 .19-2.18.47-3.02 1.09-27.29 20.38-44.06 51.49-54.94 83.37a285 285 0 0 0-8.84 33.17q-5.44 22.57-7.16 46.08-2.56 27.19 2.02 54.75l.81 5.43q.069.479-.09.94l-.32.88q44.72 51.82 114.12 48.33 16.67-.83 32.47-7.68a.74.74 0 0 0 .45-.68v-67.39a.43.43 0 0 0-.61-.39c-41.88 18.96-81.57 3.64-101.14-37.48q-9.8-21.16-11.54-44.46a207 207 0 0 1-.42-33.5c2.76-31.11 12.52-62.53 38.21-82.46m-28.28 158.85a.61.6 65.8 0 1 .75.29.61.6 65.8 0 0-.75-.29" style="fill-opacity:1;fill:url(#l)"/><path d="m669.29 314.75-.33 32.75q-.349 14.99.6 29.99l3.44-.03 11.25.25 9-.17 51.48.14a.6.6 0 0 0 .59-.49q.59-3.19.43-6.42c-.89-18.34-.23-37.07-.29-55.49a.5.5 0 0 0-.5-.5l-59.96.01h-11.46zm15.5.23a.73.7 69.7 0 0-.25.57.73.7 69.7 0 1 .25-.57" style="fill-opacity:1;fill:url(#m)"/></g><g fill="#086f9d"><path d="m960.25 187.21-21.53 8.06.07-194.12a.42.41 8.8 0 1 .54-.39l20.39 6.37a.74.72 8.8 0 1 .52.69zm-727.54 8.54-20.8-8.34a.53.52-63.7 0 0-.64.22l-.23.37-.03-179.7a1.29 1.29 0 0 1 .91-1.23L232.14.75a.45.44 81.1 0 1 .58.43z"/><path d="M211.553 187.402a.52.53 26.3 0 0-.283.229l-.23.369-.01 109.26-.01 128.28a1.29 1.29 0 0 0 1.44 1.28c4.08-.5 8.3.6 12.04.74q3.86.15 7.54.97a.58.57 6.1 0 0 .7-.56l-.03-142.47v-89.75l-20.8-8.34a.52.53 26.3 0 0-.357-.008m.015 100.364q.058-.011.202.504-.145-.515-.202-.504m0 0q-.058.01-.029.545-.03-.536.03-.545m3.743 1.015c1.496.36 3.451.901 5.443 1.475 3.984 1.147 8.115 2.435 9.025 2.715-.91-.28-5.041-1.568-9.025-2.715-1.992-.574-3.947-1.114-5.443-1.475m15.601.61q.078-.006.188.369-.11-.375-.188-.37m0 0q-.078.004-.123.388.045-.384.123-.388M960.25 187.21l-21.53 8.06q-.59 56.84.07 113.73l-.37 118.99a.33.33 0 0 0 .36.33l20.36-1.79a1.57 1.56 87.4 0 0 1.43-1.57l-.36-104.46zm-16.04 124.202" style="fill:#0384bc;fill-opacity:1"/></g><path fill="#8b9ea9" d="M1040.04 192q-5.38 16.17-8.84 33.17-5.44 22.57-7.16 46.08-2.56 27.19 2.02 54.75l.81 5.43q.07.48-.09.94l-.32.88c-32.23-38.45-42.8-88.78-39.67-138z"/></svg>