<!-- Created by ERK --><svg xmlns="http://www.w3.org/2000/svg" xmlns:xlink="http://www.w3.org/1999/xlink" viewBox="0 0 1912 750"><defs><linearGradient id="a"><stop offset="0" style="stop-color:red;stop-opacity:1"/><stop offset="1" style="stop-color:#ff0;stop-opacity:1"/></linearGradient><linearGradient xlink:href="#a" id="b" x1="1038.411" x2="1038.411" y1="549.06" y2="10.298" gradientUnits="userSpaceOnUse"/></defs><g style="fill:url(#b);fill-opacity:1"><path d="M1747.73 23.38c1.23-.71 2.13-2.65 2.91-3.85q.3-.45.81-.3c5 1.51 13.07 4.96 18.09 4.03 6.41-1.19 11.88-6.37 18.66-5.88 2.9.21 5.55.94 8.42.76q6.71-.43 13.4-.92.53-.03 1 .21l2.39 1.22q.48.24 1 .12 27.74-6.5 55.32.31a.42.42 0 0 1 .15.75q-2.88 2.14-5.1 4.97c-2.8 3.59-.49 7.68 3.79 8.13q10.69 1.11 15.76 1.94.7.12.32.72c-2.4 3.76-5.36 8.11.8 10.54q.5.2.19.64-2.09 3.03-5.26 4.36c-3.38 1.41-9.36-.12-10.47 4.42-1.54 6.37 4.85 7.06 9.18 7.95a.79.79 0 0 1 .51 1.18c-2.75 4.54-5.69 2.12-9.49 2.55-4.75.53-15.33.26-14.04 7.59a.99.99 0 0 1-.99 1.16c-5.24-.08-6.39 4.57-11.23 5.03q-.55.05-1.04-.2-2.48-1.32-4.52.63-.43.41-.98.2c-4.52-1.71-7.61 1.32-10.58 4.18q-.4.37-.87.1-3.26-1.88-6.17.24-.41.3-.9.47c-2.57.91-6.22-.8-8.75-1.57q-.48-.14-.96.03c-4.01 1.41-7.12 4.61-11.64 3.51-5.88-1.43-14.36-1.6-16.94 4.54q-.2.48-.72.59c-6.21 1.34-12.22 1.89-18.58.39-3.86-.91-9.01-2.88-12.96-1.93-4.63 1.11-12.34 3.97-16.95 2.55-15.7-4.82-37.37-.3-53.61 2.69q-1.49.28-2.37 1.14c-5.51 5.39-14.91 11.76-16.17 19.88q-.75 4.79-3.36 8.84c-2.8 4.35-10.25 3.76-8.42 10.84q.13.5-.31.77c-4.57 2.86-2.71 5.67-4.79 9.54-2.07 3.85-4.85 5.91-2.09 10.66a.73.73 0 0 1-.18.95c-6.11 4.72-11.08 9.4-11.7 17.63-.24 3.2-.09 6.54-1.74 9.4-3.09 5.34-5.28 8.09-3.64 14.73.4 1.58-.11 2.93-1.14 4.3-4.66 6.17-9.81 14.29-10.8 22.08q-1.22 9.57-6.09 17.89c-1.68 2.86-4.67 4.82-6.83 7.64q-.33.43-.21.95c1.7 7.76-4.08 7.47-4.6 12.83q-.75 7.7-3.81 12.96c-2.04 3.49-1.67 5.52-.47 9.09.77 2.27-7.98 11.13-9.77 13.14-2.52 2.8-3.55 6.2-3.99 10.35q-.97 9.08-4.28 17.63c-1.25 3.23-3.57 5.42-4.78 8.37q-3.1 7.52-6.11 15.05-.19.48-.64.74-3.24 1.83-3.81 3.97c-1.85 6.91-3.69 13.23-7.09 19.82q-4.65 9.06-8.99 18.27c-1.99 4.23-4.87 7.76-7.32 11.83-1.93 3.2-.81 6.3.9 9.21q.29.49-.08.92-7.71 8.95-9.74 13.67c-1.52 3.55-1.75 9.62-2.05 15.7-.34 6.76-3.08 12.86-4.54 18.41q-1.34 5.14-3.14 10.12c-1.16 3.24-4.46 4.68-4.47 8.48-.02 14.42-5.03 25.81-9.36 38.55q-2.97 8.74-7.84 16.58-.25.4-.49-.01c-4.03-6.64-3.31-10.42-3.44-18.53-.12-7.56-9.42-4.67-12.86-2.12q-.42.31-.47.83-.49 4.73-4.05 7.63c-3.09 2.51-.79 8.37 2.69 7.79q1.68-.28.98 1.28c-2.94 6.58-1.8 8.29 3.3 11.57q.51.33.2.85c-2.17 3.65-7.89 12.33-6.14 15.55q.25.47-.18.76-6.61 4.55-9.49 11.87c-1.31 3.32-.36 6.98-3.2 10.1q-6.21 6.8-9.35 13.7-.22.48-.63.82l-5.13 4.2q-2.15 1.77-2.52-.99l-1.22-9.06q-.07-.51.23-.93c3.59-5.08.53-6.45.92-11.41q.04-.49.33-.88c3.91-5.19 4.4-9.16 4.07-15.94q-.24-5.07 1.33-11.19c1.14-4.43 5.97-21.26 1.24-22.4a1.57 1.57 0 0 1-1.19-1.72q1.52-12.02 4.56-23.29c1.36-5.01 5.11-10.79 5.91-15.84q1.81-11.55 4.17-22.99c1.77-8.6 6.86-18 9.25-24.57 7.87-21.59 10.26-41.25 15.19-62.16 2.64-11.2 4.69-18.36 9.16-25.6 2.71-4.39 3.26-8.22 4.12-13.07 1.35-7.57 5.24-14.08 5.76-21.68q.41-6.02 1.05-7.58c1.61-3.93 3.83-7.73 5.01-11.61 1.72-5.62 3.45-11.22 4.85-17.03q9.79-40.6 21.31-80.74.64-2.24 1.1-4.52.1-.51.6-.36c2.87.88 6.35 2.34 8.13-.65q3-5.07 6.56-9.77.29-.38.39-.86c.77-3.82-1.44-6.18-.05-10.14q7.58-21.62 15.79-43c2.77-7.21 18.83-20.91 14.39-27.3-1.78-2.56-3.79-2.58-6.84-1.97-21.26 4.28-41.45 7.1-69.2 12.59q-.52.1-.36-.41c5.5-18.03 15.16-34 19.39-52.52 1.44-6.28 8.77-3.57 8.04-11.31a1.74 1.74 0 0 1 1.56-1.89q11.05-1.07 22.06-1.28c11.88-.22 18.71.15 26.67-7.4 2.77-2.63 6.25-7.73 10.4-7.26q16.69 1.88 27.42 3.92 4.17.79 7.06-1.33.4-.29.9-.35 10.64-1.26 18.85-1.21 4.37.03 7.62-2.02c4.13-2.61 7.06 1.11 11.27-1 2.5-1.25 3.52-3.87 2.43-6.45a1.74 1.74 0 0 1 1.43-2.41c8.49-.88 19.48 5.46 26.05-1.43q.34-.36.83-.42c7.06-.89 12.73-2.26 18.2 1.57q.42.29.93.27 3.28-.17 6.04-1.99.49-.32 1.06-.16c2.71.77 5.31 1.67 8.09.53 1.61-.66 2.74-1.43 4.58-1.43 2.36 0 7.25.5 9.21-.63m-103.54 76.54c-6.67 5.81 3.02 18.35 7.9 7.74 2.72-5.91-1.61-13.22-7.9-7.74" style="fill:url(#b);fill-opacity:1"/><path d="M548.91 50.16c-4.78 1.87-6.7 5.15-4.19 10.02q.25.47-.24.68-2.59 1.08-3.73 3.68-.21.47-.63.78c-1.82 1.28-3.09 2.47-5.43 2.82-2.35.36-6.66.97-7.9 3.26q-.24.44-.73.53-2.67.49-5.31.95c-3.19.56-5.62 2.52-9.53 2.07q-.56-.06-.97.32-2.93 2.73-2.08 7.43c.95 5.31 4.47 4.79 8.81 3.6q11.29-3.09 23.01-3.82c2.16-.14 5-1.08 7.51-1.24q.94-.05.18.5c-5.95 4.34-16.56 5.64-24.69 6.97-3.94.64-7.09 2.55-10.7 4.11q-.47.2-.89-.09c-1.85-1.29-5.24 1.21-6.97 2.15q-.45.24-.9 0c-1.32-.71-2.7-1.76-4.2-1.81q-6.36-.23-10.37 3.42-3.08 2.81-5.48 3.01c-4.37.37-9.42.63-13.33 2.75-2.61 1.42-5.52 1.77-7.83 2.34q-11.91 2.95-24 .43-.51-.11-.95.16c-8.67 5.19-15.81 4.18-24.53 6.87-1.85.57-3.29.08-5.08.49q-6.18 1.4-12.51 1.71c-5.73.28-9.43 6.15-12.87 9.93q-.38.42-.38.99v4.06q0 .47-.47.57c-4.33.91-8.47 2.79-12.44 3.6-12.18 2.49-24.36 3.11-35.59 7.35q-.9.34-2.46-.63-.4-.25-.85-.12-6.41 1.91-12.76-.32-.52-.18-1.03.02-9.54 3.62-19.18 6.7c-5.36 1.71-11.49 2.34-17.26 3.89-3.2.86-5.78 3.14-8.95 4.5-2.83 1.2-4.27 2.9-6.58 4.68q-.44.34-.99.35-6.49.16-12.27 3.04-.43.21-.88.06-4.13-1.32-7.3 1.54-.39.35-.9.42c-4.95.65-13.77 1.17-17.53 3.93q-2.65 1.95-5.4 3.75-.44.28-.89.02c-3.82-2.26-8.34-2.76-9.53 2.64q-.12.53-.63.36-7.23-2.33-11.1 3.02c-1.51 2.08-1.03 4.67-1 7.13q.01.5-.26.93c-2.69 4.42-4.44 8.35-4.32 13.74q.13 5.99-2.88 11.35-.25.44-.25.96-.02 5.44-3.04 9.83-.31.45-.3 1c.28 8.96-2.65 16.42-5.73 24.28a.56.56 0 0 1-1.01.07c-4.02-7.15-10.7.2-12.16 4.61q-.17.53 0 1.05l.7 2.12q.2.58-.13 1.11-1.78 2.85-1.63 6.27.02.57-.4.95c-1.94 1.78-4.49 4.44-2.98 7.24q.23.44.1.92c-.86 3.08-2.19 9.59 2.31 10.45 3.56.68 8.18 2.33 11.34-.12q.4-.31.91-.31 4.57-.01 7.4-3.21c2.95-3.32-1.31-9.63 4.11-9.8 5.33-.17 9.76-.48 14.87-2.76q5.82-2.59 12.3-2.4c2.09.06 3.18-.58 4.71-1.77q.33-.26.74-.14l2.41.71q.48.14.91-.13 3.66-2.31 8.82-3.09 3-.45 4.82-3.17.27-.4.75-.4c2.76-.05 8.94 1.08 10.05-2.23a1.57 1.57 0 0 1 2.23-.89c4.41 2.33 6.95-1.66 9.32-4.5q.34-.41.88-.42 3.39-.05 6.62 1.02.49.16.98.01 2.6-.81 5.18-1.59c4.17-1.26 7.21.85 9.97-3.96q.24-.42.72-.45 2.88-.16 5.65-.97.57-.16 1.01-.55l3.84-3.41q.41-.37.95-.23c1.95.51 3.54 1.11 5.6.79 9.04-1.4 16.52-1.44 25.79-5.59 2.53-1.13 4.43-1.15 7.06-1.04q.59.03 1.13-.21l6.59-2.83q.51-.22 1.05-.1c4.41.98 5.62-1.42 9.14-2.32 3.65-.94 6.72-2 10.66-2.46 5.63-.64 10.37-2.75 15.95-4.11 3.75-.92 10.3-5.89 12.08.15.8 2.71 9.83 1.88 12.17 1.88 3.65 0 6.49 2.35 9.96 1.83q4.27-.63 8.56-.76.57-.02.38.51c-2.02 5.61-.38 7.73 4.94 8.65q1.77.31-.01.53c-2.87.35-5.71-.04-8.3 1.25-3.18 1.58-10.1 5.17-11.12 8.65-1.37 4.72 5.44 5.47 3.22 8.56q-.29.41-.19.89.95 4.45 5.27 5.04.73.1.27.68c-4.12 5.2-13.75 7.12-20.25 8.16q-3.8.6-6.65 3.67-.36.39-.89.35c-3.95-.29-6.11 1.59-9.64 1.91-3.93.34-7.27 1.63-11.18 2.05-1.96.21-3.24 1.58-4.95 2.09q-2.02.6-3.96 1.39c-2.94 1.18-4.51 3.87-7.77 5.2q-5.78 2.37-16.93 5.57-3.43.99-6.39 4.26-.37.41-.85.14c-1.44-.8-11.79 2.99-13.92 3.66-3.32 1.04-9.39 1.96-13.93 4.46q-.44.24-.95.22-6.08-.21-11.62 1.92c-4.47 1.73-8.93 2.09-13.28 4.29-3.25 1.64-5.64 5.29-9.67 5.91q-18.39 2.84-36.64 6.39-9.27 1.81-16.95 7.4a1.16 1.14 38.7 0 1-1.16.12l-4.66-2.12q-.65-.3-1.14.22l-4.03 4.18q-.44.46-1.03.21l-3.17-1.35q-.47-.2-.96-.04c-8.19 2.53-13.36 2.96-19.24 9.66a.89.89 0 0 1-1.17.15c-3.09-2.13-5.61-.06-8.07 1.74q-.41.3-.92.33-3.56.2-6.99-.49c-4.83-.97-9.07 1.4-9.7 6.53-.61 4.97-4.04 7.19-4.95 12.11-1.09 5.91-4.32 11.22-5.88 15.96q-4.44 13.59-7.28 27.6-.67 3.33-3.47 6.54c-2.15 2.47-2.62 4.68-3.64 7.58a.34.33 52.5 0 1-.65-.09q-.52-6.29-7.1-5.82-.53.04-.9.43c-3.79 4.05-11.21 12.7-1.16 16.11q.49.17.96-.06 3.03-1.5 4.91-4.94.49-.89 1.37-.6.47.16.36.65c-1.4 6.03-2.36 11.29-5.09 17.21q-4.28 9.29-5.51 19.51-.28 2.33-1.4 4.21c-3.29 5.55-5.12 9.3-4.68 15.86.27 4.07-2.2 6.15-2.95 9.88-.85 4.23-3.68 7.12-4.35 10.97q-2.25 13.05-7.62 22.68c-2.8 5.03-4.15 9.09-6.83 13.47q-.28.45-.25.97c.23 4.96.32 8.55-2.25 12.38q-.28.4-.76.37c-10.98-.77-7.11 10.47-10.17 16.34-4.72 9.06-6.34 18.79-10.28 27.67q-2.77 6.25-5.55 12.49-.25.56-.59.05-.35-.53-.05-1.21c4.11-9.12-7.69-13.58-10.45-4.79q-1.64 5.2-3.04 10.19a.44.44 0 0 1-.86-.14c.15-2.45.68-6.86-1.3-8.64-3.72-3.37-8.81-.14-12.08 2.25a.75.75 0 0 1-1.15-.36l-1.25-3.62q-.19-.54-.68-.83c-2.42-1.43-5.39-4.55-3.95-7.61q.21-.45.16-.95-.86-8.24.45-16.36c.8-4.97 3.11-10.26 4.82-15.59 2.01-6.3 5.38-9.39 1.27-16.37q-.25-.43-.03-.88 2.64-5.5 4.76-11.17c.68-1.81 2.03-2.74 2.88-4.38q4.59-8.89 5.36-18.85.04-.51.33-.92l3.16-4.41q.32-.45.27-.99c-.37-4.15-2.93-4.8-5.78-6.37q-.49-.27-.17-.72c3.11-4.28 4.49-11.96 6.07-17.13q.03-.1 1.3-5.61c.63-2.76 2.24-5.48 2.97-7.91 4.17-13.96 8.38-28.12 14.25-41.48a1.02 1.01 17.8 0 1 1.15-.59q6.32 1.41 7.57-4.91.09-.47.54-.67c6.31-2.72 8.82-3.74 10-11.17 1.34-8.49 4.17-14.91 6.68-22.36 2.34-6.94.19-12.47 1.73-19.04q2.5-10.64 8.16-20.01c1.5-2.48-.47-6.48-1.33-8.96q-.16-.47.04-.92 2.74-6.21 2.68-13.13 0-.48-.34-.83l-2.94-2.94q-.32-.31-.17-.74 1.26-3.49 1.63-7.14c.74-7.37 5.85-13.59 7.16-21.29q1.46-8.57 3.57-16.97.34-1.34 1.71-1.1c2.72.49 4.37-.38 5.38-3.04 1.6-4.17 12.71-25.38.27-23.85a.92.91-84.3 0 1-.98-1.2c2.03-6.06 3.58-12.38 5.89-18.27q3.43-8.74 6.5-17.59c.79-2.26.34-4.28 3-5.97q.48-.31.48-.88l.01-4.9q.01-.48.31-.85c3.95-4.77 6.3-10.65 9.69-15.9 3.51-5.44 4.31-9.8 1.13-15.39q-.25-.44-.21-.95c.23-3.17.25-7.86 2.94-9.93q2.96-2.28 7.37-2.38c5.65-.12 5.77-4.32 5.77-8.72q0-.56.48-.86l2.44-1.49q.51-.32.68-.9l1.48-4.94q.15-.52.63-.76c6.37-3.23 6.28-12.48 11.23-16.76q3.68-3.19 3.02-8.14-.06-.49.27-.86c2.64-2.85 3.32-5.57 5.3-8.81 2.89-4.73 2.26-10.15 6.58-14.26a.6.6 0 0 1 .98.65q-1.31 3.3.15 5.97c2.95 5.4 7.99.76 10.1-2.36 2.02-2.97 2.52-7.13 4.1-10.62.94-2.05 1.37-3.82 1.85-5.89a.3.29 44.6 0 1 .57 0c2.35 8.98 6.69 9.39 14.83 6.76 3.23-1.05 6.88-1.07 10.44-1.13 1.83-.03 3.33-1.13 4.96-1.37 3.68-.56 9.65-.6 12.72-2.61 3.47-2.27 8.11-1.6 12.08-1.9 4.75-.37 9.45-2.56 14.64-2.95 2.67-.21 5.09-1.03 7.72-1.4q18.14-2.51 36.37-4.35.51-.05.96.19 3.86 2.04 5.67 1.78c6.23-.89 12.8-.68 18.65-2.12 3.77-.94 7.38-2.17 11.2-2.59q15.8-1.77 31.67-2.6c3.86-.2 5.76-2.84 9.42-3.26 4.41-.51 8.72-.54 13-1.55 7.28-1.71 15.51-4.3 22.98-4.25a.88.87 3.8 0 1 .86.98q-.52 4.48 3.79 5.18c5.63.9 17.35-.06 14.72-9.33q-.15-.51.19-.92c2.23-2.6 11.25-1.43 14.52-2.09 7.12-1.41 14.18-2.82 21.23-4.53 5.4-1.32 11.23-.99 16.22-1.94q16.71-3.15 33.49-5.85 4.53-.73 7.44-.14 2.1.43-.02.79c-5.04.87-11.3.85-10.5 8.32q.67 6.26 6.77 5.86.6-.04 1.03.37l3.54 3.34q.4.38.95.39 4.06.09 4.05 4.22 0 .57-.54.78m-84.802 6.154a5.58 4.89-1.5 0 0-5.706-4.742 5.58 4.89-1.5 0 0-5.45 5.034 5.58 4.89-1.5 0 0 5.706 4.742 5.58 4.89-1.5 0 0 5.45-5.034m-72.647 3.48a5.37 4.9-19.2 0 0-6.682-2.861 5.37 4.9-19.2 0 0-3.46 6.393A5.37 4.9-19.2 0 0 388 66.187a5.37 4.9-19.2 0 0 3.46-6.393m-53.546 9.241a6.12 4.86-12.5 0 0-7.027-3.42 6.12 4.86-12.5 0 0-4.923 6.07 6.12 4.86-12.5 0 0 7.027 3.42 6.12 4.86-12.5 0 0 4.923-6.07m-73.983 20.722a6.67 5.31-10.3 0 0-7.511-4.031 6.67 5.31-10.3 0 0-5.613 6.417 6.67 5.31-10.3 0 0 7.511 4.031 6.67 5.31-10.3 0 0 5.613-6.417m-37.66 5.46a6.93 5.49-26.5 0 0-8.652-1.82 6.93 5.49-26.5 0 0-3.752 8.005 6.93 5.49-26.5 0 0 8.652 1.821 6.93 5.49-26.5 0 0 3.752-8.005m1.638 15.823c-.12-7.44-11-7.71-12.94-.28-1.87 7.17 13.05 7.7 12.94.28m108.03 17.65c-2.58 3.7-1.76 7.95 3.04 8.85 2.91.54 6.48-2.11 9.93-2.19q8.35-.2 16.31-2.81c3.63-1.19 10.58.07 8.79-6.88-.91-3.56-3.62-3.64-6.76-3.77q-12.51-.53-21.91 4.9-.43.25-.85-.02-4.96-3.24-8.55 1.92m-191 42.85c-5.9-1.92-10.88 9.94-7.76 12.79 8.13 7.42 19.53-8.94 7.76-12.79m-12.063 63.084a5.83 5.09 119.3 0 0 7.292-2.593 5.83 5.09 119.3 0 0-1.586-7.575 5.83 5.09 119.3 0 0-7.292 2.593 5.83 5.09 119.3 0 0 1.586 7.575m257.143 2.466c.67-1.67 1.55-3.09 1.53-4.8-.11-8.19-14.83-5.01-9.25 3.02q.28.39-.01.78c-1.44 1.97-4.96.58-7.26 1.33-6.34 2.1-4.11 8.98-.55 12.47 1.5 1.47 3.16 1.27 5.02.87 3.24-.71 15.96-2.32 17.17-5.8 1.62-4.67-2.51-6.34-6.25-7.11q-.66-.14-.4-.76m-21.567 20.02a6.27 5.11 4.2 0 0-5.879-5.556 6.27 5.11 4.2 0 0-6.627 4.637 6.27 5.11 4.2 0 0 5.879 5.555 6.27 5.11 4.2 0 0 6.627-4.637m18.722-.599a6.48 5.11-22.3 0 0-7.934-2.269 6.48 5.11-22.3 0 0-4.056 7.187 6.48 5.11-22.3 0 0 7.934 2.269 6.48 5.11-22.3 0 0 4.056-7.187m-268.757 26.2a5.69 4.88 105.2 0 0 6.201-4.212 5.69 4.88 105.2 0 0-3.217-6.77 5.69 4.88 105.2 0 0-6.201 4.212 5.69 4.88 105.2 0 0 3.217 6.77M103 288.73c-6.98 16.44 8.71 14.47 9.53 1.75.4-6-7.02-7.66-9.53-1.75M296.04 293a5.01 5.01 0 0 0-5.01-5.01 5.01 5.01 0 0 0-5.01 5.01 5.01 5.01 0 0 0 5.01 5.01 5.01 5.01 0 0 0 5.01-5.01m-38.172 9.522a7.86 5.15-13 0 0-8.816-3.25 7.86 5.15-13 0 0-6.5 6.786 7.86 5.15-13 0 0 8.817 3.25 7.86 5.15-13 0 0 6.5-6.786M56.241 440.394a5.09 4.74 131.3 0 0 6.92-.696 5.09 4.74 131.3 0 0-.202-6.952 5.09 4.74 131.3 0 0-6.92.696 5.09 4.74 131.3 0 0 .202 6.952m-8.257 28.555a6.8 5.36 111.9 0 0 7.51-4.31 6.8 5.36 111.9 0 0-2.438-8.308 6.8 5.36 111.9 0 0-7.51 4.31 6.8 5.36 111.9 0 0 2.438 8.308m.026 123.171a5.63 4.84 109.4 0 0 6.435-3.702 5.63 4.84 109.4 0 0-2.695-6.918 5.63 4.84 109.4 0 0-6.435 3.702 5.63 4.84 109.4 0 0 2.695 6.918" style="fill:url(#b);fill-opacity:1"/><path d="M516.19 418.75c1.6-.03 6.23-.16 5.91 1.49q-.09.49-.59.43-3.98-.48-7.97-.86c-5.63-.54-7.95 7.9-7.49 12.05q.05.51-.28.9c-3.51 4.13-5.5 7.84-2.51 12.34q.24.37-.12.63l-1.12.81q-.45.32-.57.86-1.41 5.95-3.83 11.54c-1.01 2.33-.75 3.81.29 5.93q.21.44-.13.78-8 8.02-9.29 19.26-.06.5.32.84 3.33 2.94 7.67 2.56.67-.06.34.52-3.81 6.75-2.67 14.54.07.54-.22.99-3.3 5.06-5.21 10.71c-.91 2.67-4.8 7.27-3.07 9.96q.28.43.04.89c-1.33 2.44 1.45 4.02-1.09 6.02q-.42.33-.5.85-.69 4.24-3.56 7.32-.37.41-.46.95-1.04 6.33-3.92 11.94-.85 1.65-1.03 3.7c-.54 5.83-3.95 10.44-4.15 16.49-.13 4.02-3.14 7.65-4.38 11.58q-.96 3.06-2.43 5.89-.24.45-.75.44l-4.96-.12q-.48-.01-.9.24c-4.76 2.85-6.25 9.08-.12 11.54q.69.27.48.99l-2.11 7.08q-.19.63-.83.79c-9.25 2.28-9.05-2.59-8.99-9.64.04-4.9-2.5-9.98-7.1-12.02a.8.8 0 0 1-.41-1.06c1.56-3.42 1.77-8.87-2.25-10.68-6.5-2.94-7.97 5.59-9.29 9.44q-.5 1.46-.78-.05-1-5.44 2.45-9.58.37-.46.21-1.02-1.93-6.87-8.6-5.16-.53.14-.49-.41.44-6.01 2.76-11.59.19-.46.07-.94c-1.88-7.07 3.3-10.56 2.07-16.08-.57-2.57-.44-5.99-.35-8.64q.16-4.91.67-9.79c1-9.35 5.07-20.01 8.89-28.91 3.35-7.81 7.18-15.46 5.17-23.98q-.12-.5.11-.95c6.19-12.08 11.14-21.68 16.47-36.5.51-1.39.37-2.62.42-4.09q.02-.53.51-.73c3.86-1.62 3.67-4.69 3.45-8.25q-.03-.53.47-.73c4.06-1.59 4.89-8.26 4.1-11.85q-.11-.49.13-.95c1.69-3.22 4.96-7.93 4.54-11.6q-.06-.51.2-.95c5.19-8.54 7.7-16.31 10.58-25.8 3.33-10.96 7.39-20.76 11.68-30.94 5.22-12.39 8.4-25.71 13.13-38.4 1.29-3.47 8.09-15.19 6.31-18.77q-.24-.46.04-.9 4.1-6.51 6.34-13.82c1.09-3.53 3.33-5.9 4.46-9.22.87-2.53 5.07-12.45 4.56-14.41q-.13-.51.1-.97c1.55-3 3.71-5.34 4.33-8.7.69-3.73 1.12-6.83 2.7-10.42q2.97-6.76 5.12-13.82.15-.5.66-.36c8.29 2.24 10.27-6.61 12.39-11.92.65-1.63 2.37-2.76 2.91-4.01 3.15-7.17 8.67-16.36 9.53-24.02q.05-.49.42-.83 4.01-3.72 4.86-6.84 2.9-10.51 7.21-20.52c.74-1.73.5-3.05.24-4.81q-.07-.51.23-.93c2.03-2.75 3.58-4.58 4.52-8.18.76-2.91 2.55-5.01 3.57-7.52 1.67-4.11 1.64-6.14 1.79-10.5.13-3.65 1.85-6.94 1.97-10.86q.02-.52.32-.96 4.59-6.72 5.76-14.83.08-.51.45-.86c1.71-1.6 2.77-2.91 3.2-5.38q1.29-7.42 5.7-13.57.28-.4.4-.87l.37-1.47q.17-.68.81-.4c7.69 3.43 8.98-2.98 8.93-8.58q-.01-.52.51-.52h2.97q.47 0 .86-.24 4.64-2.87 4.8-8.29.02-.87.71-.34l4.69 3.68q.44.34.98.21l2.41-.59a2.46 2.46 0 0 1 2.02.39c8.72 6.24 13.09-2.41 16.27-9.47q.46-1.03.63.09 1.09 7.44 8.92 5.16.6-.17.81-.75l4.74-12.97a.37.37 0 0 1 .69-.01c1.32 3.4 3.88 7.34 3.94 10.98.09 5.1 2.29 9.2 7.89 9.53a.85.85 0 0 1 .8.94l-.85 8.27q-.03.34-.38.36c-5.52.21-15.07-2.32-14.64 6.75.35 7.36 11.2 4.93 10.47-3.12q-.06-.67.61-.63l3.38.19q1.01.06.26.74c-.78.72-1.24 1.16-1.27 2.32q-.16 5.8-2.93 10.94-.24.45-.73.57c-4.23 1.05-4.49 3.86-7.5 6.29-3.78 3.05-5.55 7.04-6.39 11.75q-.09.51-.56.71c-9.06 3.78-7.2 18.74 1.89 13.45q4.9-2.84 5.17-9.08.03-.47.41-.75.86-.61 1.9-.85 1.37-.32.26.54c-2.72 2.11-2.03 4.62-3.18 7.14-1.6 3.51-2.39 5.61-3.46 10.16-.75 3.17-3.01 5.28-3.91 8-1.03 3.15-1.62 6.44-3 9.38q-3.92 8.37-7.65 16.81c-.95 2.16-.07 4.01-1.12 6.07q-2.48 4.84-4.58 9.86-.24.57-.72.17-4.72-4.06-8.7.75-.35.43-.37.98l-.08 2.99q-.01.63-.47 1.06c-4.3 4.13-7.61 12.04 0 14.88q.69.26.2.81-2.22 2.49-3.36 5.63-.2.55-.73.31c-4.36-1.93-8.07-.63-9.64 3.89q-3.36 9.74-8.58 18.58-.27.45-.78.59c-1.51.42-3.31-.06-4.55.3-3.79 1.09-4.85 6.64-6.28 10.92-2.15 6.42-6.07 12.35-8.51 18.24-1.66 4 2.76 6.67 6.06 6.88a.64.64 0 0 1 .57.83c-2.43 7.63-6.48 15.53-8.97 21.8q-3.86 9.71-8.55 19.72a1.77 1.77 0 0 1-2.11.94c-9.8-2.92-12.26 8.2-3.71 9.85q.63.12.39.72c-1.22 3.03-3.76 6.52-.34 9.05a1.76 1.76 0 0 1 .37 2.45q-5.61 7.75-8.67 16.77c-.61 1.83-2.15 3.11-3.4 4.45q-.36.38-.49.89-1.81 7.13-5.9 13.3-.3.45-.32.99-.14 4.32-3.06 7.48c-3.82 4.11-3.93 9.96-6.14 15.02a.9.9 0 0 1-1.61.07c-1.99-3.69-4.11-5.99-8.25-2.98-4.15 3.01-8.39 8.43-3.21 13.02q2.95 2.61 6.79 1.68a.52.52 0 0 1 .6.71q-5.37 12.82-11.41 25.29c-2.11 4.35-6.49 5.47-10.96 4.64q-.53-.1-.8.36l-.13.23q-.19.31.17.3m115.199-288.446a5.34 5.07 85.5 0 0 4.635-5.722 5.34 5.07 85.5 0 0-5.473-4.925 5.34 5.07 85.5 0 0-4.635 5.72 5.34 5.07 85.5 0 0 5.473 4.927M616.3 188.53q3.96.69 7.93.04 1.59-.26-.02-.24-3.96.04-7.9.1-.53.01-.01.1m-40.188 71.7a5.82 4.89-37.1 0 0-7.592-.39 5.82 4.89-37.1 0 0-1.692 7.41 5.82 4.89-37.1 0 0 7.592.39 5.82 4.89-37.1 0 0 1.692-7.41m-12.72 20.858a6.16 5.18 110.8 0 0 7.03-3.918 6.16 5.18 110.8 0 0-2.654-7.599 6.16 5.18 110.8 0 0-7.03 3.92 6.16 5.18 110.8 0 0 2.654 7.598m-12.446 42.569a4.65 4.65 0 0 0-2.324-6.151l-.602-.272a4.65 4.65 0 0 0-6.151 2.324l-2.115 4.685a4.65 4.65 0 0 0 2.324 6.151l.602.272a4.65 4.65 0 0 0 6.151-2.324zM532.72 348.01c5.32 3.82 9.09-6.21 9.97-9.96 1.52-6.43-6.63-8.95-9.3-3.11-1.82 4-5.7 9.46-.67 13.07m12.43 14.4c5.12.35 5.31-7.75 7.28-10.97 1.46-2.4 4.18-6.81 3.29-9.57-.96-2.98-5.78-5.74-8.16-2.54-2.33 3.13-12.07 22.42-2.41 23.08m-27.11 13.07c-.03 5.93 6.68 7.99 9.18 1.79q2.17-5.39 5.83-9.88c3.74-4.59 1.6-9.18-4.38-8.67-3.42.3-5.65 3.98-7.66 6.32-2.34 2.73-2.95 7.38-2.97 10.44m-43.243 145.6a8.25 5.6 106.5 0 0 7.712-6.32 8.25 5.6 106.5 0 0-3.026-9.5 8.25 5.6 106.5 0 0-7.712 6.32 8.25 5.6 106.5 0 0 3.026 9.5m-41.907-4.748a5.08 4.8 124.4 0 0 6.83-1.48 5.08 4.8 124.4 0 0-1.09-6.904 5.08 4.8 124.4 0 0-6.83 1.48 5.08 4.8 124.4 0 0 1.09 6.904" style="fill:url(#b);fill-opacity:1"/><path d="M765.83 551.87c-1.06.71-2.61 3.04-3.83 3.14-5.33.45-9.27 2.12-10.86 7.07q-.16.5-.65.67c-7.71 2.69-12.89-.19-19.59 3.94q-.46.29-.98.12l-2.62-.82q-.55-.17-1.09.06-3.17 1.41-5.56-.84c-2.98-2.81-5.83-.49-8.87.69-7.32 2.83-19.15-2.36-26.21-4.88-2.19-.78-9.89-1.24-10.89-3.26q-1.08-2.17-3.05-3.43-.48-.3-1.04-.31l-1.86-.04q-.6-.01-.76-.59c-1.81-6.52-10.16-8.67-13.36-15.03-2.96-5.9-3.81-11.09-8.19-17.14q-.31-.42-.33-.94c-.28-7.18-4.48-9.49-4.96-15.31q-.29-3.5-1.85-6.68-.24-.5-.25-1.05l-.09-6.48q-.01-.58-.45-.97l-2.84-2.49q-.41-.36-.33-.91 1.17-8.42 3.16-16.62c.67-2.74.42-5.3.67-8.12q.05-.51.42-.86l1.95-1.86q.38-.37.4-.89l.23-4.85q.03-.62.64-.74 3.51-.69 3.25-4.17-.05-.55.35-.94 1.14-1.11 1.22-3.36.24-7.14 4.14-14.76c1.32-2.59 1.47-5.72 3.69-8.31q.33-.38.41-.88c.79-4.72 3.76-7.29 3.09-12.48a2.08 2.08 0 0 1 .68-1.82c5.54-4.89 5.8-8.64 7.19-15.52.63-3.1 2.26-5.25 3.82-7.91 1.34-2.27 2.13-5.25 3.72-7.72 1.13-1.75 3.14-1.88 3.55-4.39q.65-3.95 2.05-7c5.18-11.28 9.8-20.79 20.32-26.32q.45-.24.65-.72 3.32-8.31 7.62-16.08c2.09-3.78 5.63-5.35 7.83-9.06 3.54-5.99 7.95-8.62 7.62-16.26q-.02-.48.26-.87 7.99-11.58 11.89-14.75 7.61-6.2 11.38-15.27.22-.53.8-.62 4.46-.72 5.58-5.07.13-.52.58-.81 6.94-4.44 12.02-10.77 1.17-1.45 3.06-2.52c3.65-2.09 5.95-5.51 8.89-8.33q4.67-4.5 5.92-11.09c.38-2 1.79-3.76 3.19-4.83 6.61-5.06 14.11-10.08 19.78-16.15 4.56-4.87 7.76-9.91 11.02-13.86q.35-.42.89-.5c5.3-.82 6.25-.54 6.86-6.18q.05-.51.54-.68l12.55-4.6q.5-.18.87-.56l2.86-2.83q.44-.43 1.06-.4c3.47.16 6.3-3.44 8.44-6.19 1.54-1.97 1.63-3.71 1.63-6.11q.01-.59.55-.81l7.84-3.13q.49-.19.78-.63c2.59-3.87 4.64-6.93 9.75-7.27 5.19-.35 5.61-4.31 7.01-8.25q.17-.47.68-.51 6.73-.45 5.75-7.14-.07-.45.35-.65 4.54-2.1 9.53-2.53.5-.05.85-.41c3.82-4 7.35-5.2 12.33-7.27 2.63-1.08 5.02-3.01 7.86-4.18 3.6-1.48 5.07-3.52 5.74-7.14q.09-.52.61-.65 4.06-1.02 5.16-5.11.16-.56.66-.86 4.59-2.71 9.86-3.41.54-.07.9-.48 5.47-6.18 13.67-6.45 1.46-.05 4.38-2.62.37-.32.86-.4 7.74-1.24 13.33-6.52.39-.37.92-.37c5.07-.06 11.49-.29 14.88-3.91q2.21-2.35 5.26-3.45c5.09-1.83 10.02-4.4 15.27-5.68q2.26-.55 3.66-2.5.29-.41.79-.42c2.17-.05 4.14.22 6.25-.45 4.62-1.47 21.05-6.63 24.43-2.08 2.78 3.74 9.32-.1 12.87-.4q4.2-.36 8.39-.8c5.73-.59 14.12-2.72 21.03-2.57q2.34.05 1.66 2.46-.14.49.15.92c3.89 5.79 9.43 5.49 14.95 2.28q.46-.27.92-.02c5 2.68 9.84 7.29 15.6 7.83q.57.05.83.56l.92 1.82q.23.46.66.74c2.97 1.88 5.3 5.16 8.91 5.67q.52.07.8.52l1.2 2q.35.56.94.84l4.19 1.95q.54.25.66.83c.62 3.03.38 5.24 3.67 6.62q.47.2.73.65c1.22 2.09 2.44 5.58 4.79 6.46q.43.17.59.6l3.94 10.92q.1.27-.18.22c-3.66-.61-6.13-1.77-8.4-4.95-3-4.2-4.42-6.59-10.26-5.61q-.48.08-.9-.17c-4.19-2.51-7.12-5.18-10.97-.07q-.32.42-.2.92l.55 2.36a.81.81 0 0 1-.77.99c-5.36.13-6.39-4.72-11.5-4.49q-.48.02-.91-.18l-4.74-2.25q-.5-.24-1.01-.04l-1.74.67q-.45.17-.92.05c-1.69-.46-5.45-2.1-6.98-1.17q-1.06.65-2.04-.11-3.01-2.33-5.39-1.27-10.11 4.5-20.66 7.75c-6.83 2.1-14.93 3.36-22.56 4.83-8.34 1.62-17.76 1.82-25.29 2.92-1.86.27-3.69 1.1-5.21 2.63-2.63 2.63-5.04 3.83-8.97 4.31q-9.19 1.13-18.31 2.63c-3.49.57-3.36 1.88-5.03 4.25q-.3.43-.8.26l-2.97-1.01q-.42-.14-.83.05c-5.99 2.92-10.48 6.26-15.22 9.18q-1.88 1.16-8.96 4.48-10.4 4.88-18.76 12.96-.36.35-.39.86c-.17 3.06-1.05 4.79-4.04 6.07-14.34 6.14-34.54 14.88-43.38 28.99q-.29.45-.81.57-5.25 1.17-7.35 6.17-.22.5-.76.6c-4.37.79-7.21 1.79-10.89 4.79-2.71 2.22-7.85 4.44-8.79 7.92q-.94 3.51-2.28 6.88-.19.48-.71.51c-8.88.52-13.68 10.25-18.58 15.87-5.81 6.66-14.71 10.68-20.15 17.87q-6.11 8.06-12.62 15.78-.3.35-.38.8l-.64 3.46q-.09.52-.59.68-8.05 2.59-11.69 9.88-.44.88.14 1.84.26.44-.09.81-6.51 6.73-12.08 14.26c-1.75 2.37-5.45 3.48-7.09 7.16q-.72 1.63-1.82 2.85-6.75 7.53-10.92 16.75c-2.22 4.91-8.02 8.21-9.94 11.45q-11.18 18.88-20.52 38.71c-1.6 3.38-1.38 7.26-3.11 10.95q-.26.54.03 1.08l1.69 3.09q.17.32-.05.59l-4.36 5.48q-.36.45-.3 1.03.37 3.67-1.28 6.97-.22.44-.7.59c-5.53 1.71-3.78 5.15-6.68 8.68q-.36.44-.29 1.01.39 3.09-1.94 5.13-.4.35-.26.87c1.48 5.67-1.85 5.62-3.19 9.55q-1.08 3.17.01 6.44.16.47.05.96c-.56 2.43-1.99 4.15-2.54 6.53-.84 3.55-3.33 6.74-3.5 10.52q-.44 10.16-3.3 19.88c-1.63 5.57-.36 10.19 3.77 14.03 1.9 1.76 3.22 4.72 6.59 4.63q11.1-.31 21.97-2.3c11.67-2.14 18.96-3.21 28.56-4.49 3.75-.49 6.92-1.63 10.49-2.72 1.79-.55 3.07.19 4.86-.34 7.65-2.26 15.67-5.41 23.59-6.26 3.29-.36 8.75-5.76 11.04-8.12 2.67-2.74 7.22-3.66 10.69-4.54 6.64-1.69 12.99-4.86 19.27-7.59q2.76-1.2 5.01-3.29c7.27-6.73 13.69-13.29 23.06-16.91 2.77-1.07 4.49-2.96 6.91-3.9q3.3-1.3 6.5-2.81c3.79-1.79 7.7-1.79 10.72-5.8 2.79-3.72 4.29-5.47 8.9-4.93q.51.06.94-.22c1.41-.92 2.34-1.86 3.96-2.43q10.4-3.63 17.52-12.16.33-.39.81-.56c6.27-2.2 11.37-6.36 16.28-11.62 2.6-2.78 6.51-3.24 9.04-4.97q2.71-1.84 4.49-2.9c4.79-2.86 7.87-6.59 10.52-11.44 2.47-4.52 13.15-5.27 14.14-10.09q1.06-5.15-4.23-6.65c-2.08-.59-5.87 1.63-7.38 2.23q-7.24 2.91-14.65 5.38-.61.2-.62-.44-.12-4.41-4.42-5.86-.46-.16-.92 0-6.38 2.1-13.03 2.78c-3.69.38-5.69 1.38-5.75 5.25q0 .58-.58.69c-4.11.78-7.77.95-11.62 2.66q-6.08 2.7-12.33 4.89-.5.18-1.01.04l-2.52-.68q-.57-.15-1.05.18c-4.05 2.75-9.47 2.17-12.08 6.49q-.31.52-.9.42-2.98-.5-5.08 1.52-.4.38-.96.45-4.29.51-8.2 2.13c-3.48 1.43-6.58.1-9.7 1.79q-3.71 2.01-7.5 3.83-.51.25-1.07.25h-3.35q-.51 0-.88.36-3.78 3.61-8.46 1.7-.49-.21-.97.05c-2.69 1.43-4.66 3.15-7.62 3.9-7.66 1.95-14.47 3.51-22.56 6.43-3.81 1.38-8.63 2.97-12.72 2.48q-.53-.06-.66-.58c-3.04-11.71-8.04-4.03-14.63-4.3q-1.18-.05-.16-.66 3.42-2.01 6.89-3.75c3.45-1.74 2.98-2.89 2.31-6.18q-1.14-5.57-7.03-6.48a.27.27 0 0 1-.1-.5q4.6-2.75 6.67-7.74.22-.54.77-.73 3.78-1.3 5.63-4.82.26-.49.78-.64c3.04-.91 6.04-.59 8.19-3.66q.28-.4.37-.89l.53-2.89q.11-.63.75-.67 6.44-.39 12.27-2.95c5.52-2.42 10.82-1.39 11.66-8.87q.06-.52.58-.54c3.79-.12 6.75-1.65 10.33-2.09q2.25-.27 4.42-.87c2.05-.57 2.58-2.29 4.54-2.95 3.54-1.19 7.2-3.15 10.96-3.16q2.35-.01 4.72.01a2.14 2.13 19.2 0 0 1.67-.8c3.02-3.8 5.91-2.67 9.67-4.16 4.58-1.82 9.32-2.8 13.37-5.67q.4-.29.9-.31c5.17-.24 10.29-.42 15.08-2.83q4.32-2.19 8.84-4.09a2.19 2.18-6.3 0 0 1.31-1.63c.75-4.32 4.1-2.41 6.46-3.05 4.94-1.35 3.61-8.34 8.83-6.74q.48.15.97.04 6.34-1.37 12.82-1.84 1.89-.14 3.7-1.15c5.83-3.25 11.25-3.86 18.58-4.58 1.85-.18 4.53.05 6.76-.87q2.22-.91 3.56-1.11c5.07-.74 9.62-2.78 14.66-3.2q3.96-.34 7.32-2.66.42-.29.94-.28 6.51.08 12.78-1.22c6.84-1.42 12.86-5.73 19.88-7.29q12.9-2.89 17.04-3.31 6.73-.7 8.72-1.36 23.36-7.78 48.04-7.97 2.4-.02 4.84.21.5.05.83.44c.96 1.14 1.64 1.62 3.24 1.29q8.52-1.73 17.18-1.95 1.07-.03.22.62-.49.39-1.07.51-.5.11-.68.6l-1.98 5.25q-.16.4-.01.82l.74 2.09q.17.46.03.94-1.58 5.61-5.65 9.72-.37.37-.9.38-4.11.02-5.59 3.85-.21.53-.73.78-2.61 1.22-4.18 3.64-.32.5-.88.67-8.57 2.68-15.17 8.78-.39.36-.91.42c-4.78.55-6.67 5.49-10.36 8.31-3.46 2.64-4.91 9.13.04 11.11 2.12.85 5.01.47 7.57.88q.9.14.09.55c-2.52 1.3-1.92 3.44-2.74 5.15-1.49 3.1-4.14 4.72-5.52 7.61q-1.06 2.21-2.07 4.44c-.88 1.95-2.19 2.83-3.6 4.38q-.34.38-.29.88.47 4.61-3.25 6.67c-4.37 2.42-7.42 4.19-9.12 9.1-1.38 3.96-2.27 7.34-5 10.69-5.43 6.69-12.2 13.45-16.56 20.8-3.59 6.02-8.38 11.46-12.29 17.32-3.81 5.72-8.71 10.2-12.99 15.56-4.49 5.63-10.58 11.77-14.78 18.76-1.99 3.32-4.88 5.99-6.98 9.35-1.95 3.11-3.71 4.84-6.16 7.16q-.39.37-.54.89-1.35 4.95-4.86 8.68-.38.4-.38.95c.04 4.04-2.88 6.43-6.1 9.33-4.06 3.64-5.75 7.52-7.75 12.3-3.01 7.22-8.2 13.48-12.88 19.66-10.06 13.32-18.48 27.23-29.31 40.08q-.33.4-.85.4h-4.6q-.57 0-1.05.3c-3.6 2.21-6.69 3.97-9.12 7.62-4.61 6.91-8.91 13-14.88 19.53q-7.48 8.19-14.24 17-1.96 2.55-5 5.17-5.27 4.55-10.52 11.09-.54.67-1.13.38-.47-.23-.27-.71c1.36-3.37 4.22-5.63.53-9.07q-2.54-2.36-5.68-.59-.44.25-.83-.09-2.53-2.21-5.38-1.73c-4.05.68-10.19 9.79-12.47 13.13a.49.49 0 0 1-.84-.49l3.87-7.9q.2-.42.12-.87-1.75-9.77 3.32-17.79c2.37-3.76 3.37-7.63 7.47-10.45q.39-.26.55-.71 1.33-3.7.93-7.64a1.75 1.74 68.7 0 1 .68-1.57c4.74-3.59 9.97-7.34 12.49-12.88q.19-.43.64-.57l2.17-.7q.49-.16.79-.59c2.1-3.02 5.88-6.19 4.27-10.35-.99-2.57 9.76-15.71 11.76-18.1q.32-.38.27-.87c-.13-1.64.08-2.8 1.27-4.09 2.86-3.09 3.75-6.75 6.2-9.71q3.19-3.83 6.5-7.53.34-.38.43-.89c1.4-7.66 5.67-10.54 10.14-16.32 2.15-2.77 2.07-5.99 5.34-8.27a2.4 2.39-18.5 0 0 1.03-2.06q-.09-2.92 2.35-4.46 7.26-4.58 8.47-12.87.48-3.29-1.2-5.28c-4.72-5.57-11.72 3.53-14.58 6.54q-2.03 2.12-4.59 3.44c-6.93 3.56-13.13 6.74-19.8 11.72-8.85 6.63-16.64 9.88-27.65 12.26q-.49.11-.94-.1l-3.74-1.76q-.52-.25-1.07-.12-2.86.67-4.32 3.1-.26.43-.75.57c-4.67 1.36-10.02 6.8-13.68 10.15q-.38.35-.88.41-7.54.97-13.03 5.72c-6.65 5.77-12.29 9.26-21 11.36-3.52.85-6.93 5.2-10.26 7.05-2.68 1.5-6.36 1.94-9.52 3.3-3.1 1.33-5.84 1.36-9.02 2.27q-.53.15-.8.63c-3.59 6.56-6.09 6.93-11.08 10.26m330.84-251.67q7.25 2.8 10.67-3.83.23-.45.69-.26c12.34 5.09 16.71-13.1 6.23-10.58q-5.12 1.23-7.85 5.69-.27.45-.78.31c-4.59-1.3-15.96.27-9.92 7.96a2.2 2.2 0 0 0 .96.71m-411.84 60.35c-1.89 4.63 2.25 8.29 6.28 6.11 3.45-1.87 9.78-13.19 12.3-16.91 1.67-2.46 2.61-5.16-.14-7.1-4.81-3.38-13.13 4.51-14.74 8.62q-1.82 4.66-3.7 9.28m308.33 10.17c-.71 2.39 1.88 7.23 5.13 6.11q4.71-1.64 9.43-3.38.47-.18.75-.61c1.87-2.92 4.92-10.93-.98-11.88-2.88-.46-13.48 6.92-14.33 9.76m-29.47 61.84c4.3 2.03 6.23-1.69 9.23-3.94 11.81-8.83-9.55-15.14-11.48-.87q-.48 3.53 2.25 4.81m-51.57-6.79q-1.46-1.77-3.63-2.51-.5-.17-1.01-.02c-3.51 1.02-10.33 4.41-10.65 8.66-.27 3.64 4.34 6.31 7.2 4.92q4.89-2.37 8.92-8.44.31-.47.72-.08c5.11 4.79 14.09.31 9.24-5.61-3.23-3.95-8.74-1.94-10.01 2.9q-.22.86-.78.18m-230.37 45.99c.87 5.95 7.61 5.22 9.65-.03q1.34-3.42 3.46-6.42c1.77-2.5.8-5.33 2.19-8.25q1.81-3.77 2.24-7.99.05-.49.33-.91c5.47-8.02-6.94-15.6-9.7-7.94-1.78 4.95-3.02 9.82-6.01 14.23-3.33 4.9-3.04 11.3-2.16 17.31m205.88 10.73 1.03.44q.47.2.95.03 10.05-3.57 18.9-9.53c4.25-2.86 5.52-11.25-2.48-10.65q-.5.03-.9.33-8.61 6.38-13.41 8.13-5.46 2-8.15 4.29-.37.32-.85.42c-3.48.68-12.28 2.71-9.23 8.27 3.26 5.96 10.35 2.08 13.2-1.5q.38-.47.94-.23m-145.71 21.84c11.36 7.65 20.28-15.43 2.02-9.88-3.93 1.19-5.59 7.48-2.02 9.88m-59.61 17.87c4.42 4.07 11.35 4.41 10.87-3.58-.4-6.6-.54-8.2-5.74-12.46q-.46-.38-.43-.97.29-4.77-4.62-5.1-.53-.04-.98.24c-7.78 4.83-4.6 16.8.9 21.87m23.923-1.965a4.49 4.49 0 0 0-.022-6.35l-.894-.887a4.49 4.49 0 0 0-6.35.022l-.62.625a4.49 4.49 0 0 0 .022 6.35l.894.887a4.49 4.49 0 0 0 6.35-.022zm251.09 1.016a5.62 5 13.6 0 0-4.287-6.18 5.62 5 13.6 0 0-6.638 3.538 5.62 5 13.6 0 0 4.286 6.18 5.62 5 13.6 0 0 6.638-3.538M701.87 527.18c-.74 6.26 10.1 7.03 14.09 6.22 10.37-2.08 11.99-15.08-.52-11.76q-.5.14-1 0c-4.15-1.11-11.94.27-12.57 5.54m228.99 20.17a5.83 5.83 0 0 0-5.83-5.83 5.83 5.83 0 0 0-5.83 5.83 5.83 5.83 0 0 0 5.83 5.83 5.83 5.83 0 0 0 5.83-5.83" style="fill:url(#b);fill-opacity:1"/><path d="m1461.76 138.98-31.17.1q-.72 0-.54-.69 4.09-15.76 8.39-26.95 1.13-2.95 3.96-7.08.3-.44.64-.03c7.15 8.59 12.32-9.24 14.28-13.24 3.07-6.24 3.63-18.84 9.14-23.05a.28.28 0 0 1 .45.2q.41 5.07-.36 10.01c-.64 4.1 1.86 7.15 6.12 6.03 4.14-1.08 5.95-10.69 7.15-14.34q.16-.48.63-.68 5.34-2.27 10.78-4.16c3.86-1.33 12.94-.63 14.96 3.14q.23.44.66.71c5.47 3.48 7.38-.59 9.43-4.71a.41.41 0 0 1 .77.26c-2.86 14.91-10.61 29.88-16.82 44.23-2.3 5.32-6.17 10.99-8.14 15.32-2.87 6.33-2.63 14.37-4.25 20.89-3.28 13.25-8.18 23.21-13.3 34.58q-.2.46-.66.65-.44.19-.62.62-3.5 8.34-7.95 16.21c-2.11 3.74-2.38 11.73 4.15 10.55q12.91-2.33 25.78-4.82 2.28-.44 3.52-.55 1.79-.15.16.6-8.15 3.78-16.93 5.65-.84.18-2.89 1.79-.43.33-.6.85-1.52 4.71-5.04 8.17-.36.36-.39.88c-.4 6.9 4.92 11.54 11.45 8.83q11.68-4.83 25.43-6.81 2.07-.29.3.82c-4.94 3.11-11.96 5.04-17.49 7.01-7.13 2.54-15.36 3.63-23.08 5.73-4.35 1.19-4.26 7.08-.61 8.89 2.85 1.41 7.78-.25 11.13-.87a.43.43 0 0 1 .33.77c-8.6 6.23-18.24 8.59-28.68 10.25q-5.18.83-7.25 2.29-4.44 3.1-4.74 9.27-.03.56-.59.62l-2.72.27q-.47.05-.77.42-3.03 3.78-.91 8.24.26.56-.29.84c-1.64.85-2.74 1.52-3.72 3.2-3.07 5.3-7.51 8.27-9.4 14.16q-.17.51-.62.8c-1.36.88-2.39 1.24-3.18 2.78q-2.34 4.58-4.48 9.24-.24.52-.17 1.1.42 3.59-2.94 4.54-.54.15-.83.64c-6.43 10.61-11.37 18.89-12.36 29.79-.42 4.7-3.53 3.18-5.69 5.31-2.31 2.28-.71 6.1-.83 9.04q-.02.55-.46.89-4.62 3.54-7.71 8.53-.26.42-.21.92.54 4.58-1.49 7.31-4.72 6.34-6.48 9.77-.28.53-.03 1.08l1.6 3.48q.23.5.03 1.01c-1.6 4.02-5.77 9.69-1.55 13.13q1.04.85.32 1.98c-4.57 7.2-7.65 14.64-10.37 22.84q-2.73 8.23-8.35 16.42-1.72 2.51-1.71 6.37 0 .53-.38.89c-4.5 4.27-4.75 11-7.07 16.04q-1.05 2.29-1.38 4.29c-.98 5.93-3.58 9.75-6.99 14.52-4.32 6.06-4.59 15.4-7.75 22.4q-4.46 9.88-9.14 19.66-.22.46-.65.73-2.52 1.5-3.49 4.28c-4.5 12.88-9.39 26.7-16.23 38.5-5.25 9.04-10.81 14.74-16.52 22q-1.83 2.33-2.83 5.33c-4.92 14.72-11.52 28.66-20.65 40.7-1.27 1.68-5.2-.57-7.45 2.68q-.72 1.05-1.26 4.6c-.79 5.25-2.83 14.88-6.79 18.64q-.35.33-.44.8-2.09 11.13-6.18 21.71a.28.28 0 0 1-.54-.08c-.44-6.01-4.54-11.31-10.2-5.36-4.26 4.49-7.14 11.9-10.24 17.37q-.29.52-.87.37-2.95-.78-5.84.11-.48.14-.68.6l-8.74 20.9a.47.47 0 0 1-.91-.18c.01-8.93 2.62-14.33 5.07-23.24 1.39-5.06 3.92-9.49 5.19-14.7q.54-2.23.43-6.35-.16-5.97 1.73-11.64.86-2.61.82-4.84c-.08-3.49-1.56-8.99 3.12-10.21q.47-.13.56-.6l1.19-6.6q.11-.63-.23-1.17-1.45-2.31.52-3.7.44-.32.54-.86 1.92-10.66 5.32-20.86c1.02-3.04 3.49-6.15 3.9-10.24q.05-.54.39-.96 4.54-5.52 1.82-12.43-.18-.45.02-.9 8.54-18.75 15.42-38.12c1.38-3.89 3.09-8.12 5.23-11.59 7.86-12.78 11.63-25.06 16.48-38.22q.68-1.82 4.51-7.7.28-.42.24-.92c-.05-.69.22-1.14.2-1.7-.47-18.74 6.05-32.2 14.07-48.58 1.96-4.01 2.26-6.83.78-10.81q-.19-.5.09-.95 4.55-7.39 12.51-18.46 4.53-6.29 5.48-14.75.06-.55.57-.76 5.78-2.39 3.23-8.31-.23-.52.29-.73c3.41-1.39 4.99-3.69 7.99-5.71 8.47-5.68 6.07-17.84 9.51-25.78 3.76-8.72 8.22-17.09 11.94-25.81 1.71-4.02 3.55-6.57 3.23-11.33-.19-2.83-.74-5.2.58-7.87 4.62-9.28 10.94-16.93 16.34-27.84q.22-.43.13-.9c-.75-3.9-3.23-5.59-7.24-4.71q-8.81 1.91-16.77 6.01-.46.24-.73.67c-1.74 2.7-3.77 4.07-7.11 4.71q-23.2 4.51-40.58 8.7-10.77 2.6-19.79 9.96-.4.31-.9.3c-5.09-.2-10.11 4.46-14.65 6.13-18.73 6.88-44.34 13.17-58.21 26.33-4.52 4.3-9.58-2.35-12.2 2.97q-2.75 5.6-8.94 7.54c-4.34 1.37-3.5 6.97-4.41 10.24-2.23 7.95-4.26 14.56-9.06 20.04q-.35.4-.35.93v6.03q0 .5-.25.93-3.24 5.48-4.54 11.73c-.78 3.75-2.81 7.3-3.03 10.72-.34 5.22-2.47 8.37-5.67 13.3-6.23 9.62-7.05 20.52-12.02 30.48-3.94 7.89-6.91 16.05-11.34 23.72-3.33 5.76-5.64 13.41-7.86 18.19q-5.75 12.37-9.87 18.63-10.81 16.44-19.61 34.02c-4.36 8.7-7.85 19.52-13.78 28.79q-2.33 3.64-4.09 7.15a.46.46 0 0 1-.86-.29q1.57-8.71 5.15-16.16 1.36-2.85-.04-5.56-.24-.46-.71-.67l-3.08-1.36q-.57-.26-.49-.87.31-2.26.14-4.46c-.38-4.95-4.94-6.01-8.74-3.45q-2.32 1.57-5.44 6.73-.29.47-.82.64-8.54 2.8-16.33 7.31a.58.58 0 0 1-.87-.44c-.35-3.18-.85-6.18-.21-9.39 1.91-9.68 5.52-17.1 9.32-25.41 1.81-3.95 1.32-7.39.28-11.35q-.13-.51.15-.95 3.76-5.9 11.08-16.47 4.2-6.06 4.8-13.82.05-.6.64-.66 5.11-.57 5.02-5.98-.01-.57.37-1l2.52-2.83q.37-.42.28-.96-.68-3.99 1.25-7.17c2.09-3.46 3.06-6.58.03-9.58a1.99 1.98 40.2 0 1-.22-2.56c2.34-3.25 4.92-6.33 6.64-9.88q4.06-8.36 7.46-17.01 1.76-4.49 4.94-8.03c3.02-3.37 2.19-6.69 4.4-10.16 3.03-4.74 2.93-9.46 6.27-14.15 1.31-1.83 1.53-3.32.51-5.2q-.24-.45.06-.86c5.33-7.26 10.74-14.89 12.38-24.21.55-3.14-.26-7.2-4.23-6.63a1.25 1.24 20.3 0 1-1-2.17c6.45-5.65 13.16-8.2 16.57-16.16 1.93-4.51-.6-7.35-5.02-7.92q-.54-.07-.99-.39l-3.33-2.35q-.38-.27-.79-.04-2.91 1.64-6.22 2.06a.62.62 0 0 1-.47-1.09q5.62-4.58 12.21-7.04 3.61-1.35 4.86-2.79c2.54-2.93 2.51-8.15-1.51-10.17q-.45-.22-.63-.69c-2.62-6.71 3.84-7 7.99-8.24q.58-.18.75-.77l1.46-5.34q.12-.44.52-.67c3.3-1.98 6.61-3.48 9.39-5.95q3.85-3.44 7.28-7.29c3.5-3.94 5.96-5.93 3.35-10.88a.64.63 64.4 0 1 .3-.88q2.76-1.19 4.44-3.69.28-.43.27-.94-.14-7.04-7.25-6.81a1.05 1.05 0 0 1-.91-1.64c3.58-5.31 7.03-7.72 6.08-14.89q-.07-.51.18-.96 6.29-11.46 9.55-24.13c.89-3.44 2.88-6.35 3.65-9.51 1.17-4.78 2.12-14.54 5.22-17.66q1.68-1.7 2.91-3.74.26-.43.24-.94-.13-4.55 2.97-7.75.39-.4.44-.96.72-7.18 3.87-13.63.21-.43.14-.91c-1.22-8.84 7.33-16.58 8.79-25.54.65-3.99.69-8.45 2.84-11.98 2.16-3.54 4.05-6.66 5.4-10.77 2.34-7.1 5.56-13.92 7.87-20.87q5.73-17.22 15.02-33.62a.48.48 0 0 1 .81-.03c2.8 4.25 5.56 2.5 9.27 1.18a1.74 1.74 0 0 1 2.32 1.56c.21 5.29-.82 9.54-3.66 13.74-4.81 7.11 8.68 18.93 13.85 5.6q1.81-4.66 3.3-9.81a.5.5 0 0 1 .97.01c2.16 8.43-3.39 19.73-7.56 26.88q-.27.47-.06.97c.9 2.17-.13 3.63.26 5.44.99 4.57 6.48 5.35 9.79 3.04q1.63-1.13 3.43-4.6 3.32-6.41 8.12-11.82c3.27-3.7 4.83-8.87 7.05-13.3a.56.56 0 0 1 1.07.24c.09 7.85-3.48 15.93-6.03 23.31-1.49 4.3 2.7 6.58 2.07 10.25q-1.63 9.62-4.32 18.96c-4.05 14.06-11.4 29.01-17.47 43.08-2.25 5.23-5.58 8.64-5.74 15.33-.05 1.78 1 4.49.28 6.39-4.03 10.61-9.71 21.73-16.3 32.09q-7.89 12.39-8.7 27.43-.03.51-.54.61c-6.54 1.25-5.02 5.26-4.23 10.03q.09.53-.38.81c-1.99 1.2-4.95 2.46-5.48 4.99-.84 3.96 2.62 6.32 6.35 6.21q5.22-.15 8.55-3.38.36-.36.87-.42c2.16-.24 3.91-1.34 5.87-1.7q6.01-1.09 10.97-4.72.44-.33.99-.22l1.2.23q.56.11 1.07-.16 6.29-3.28 11.49-8.11a2.12 2.1 34.2 0 1 2.21-.41c3.71 1.47 6.18 1.14 10.26-.08q11.81-3.51 24.05-5.01c1.8-.22 2.69-.8 3.58-2.25q.29-.46.8-.31 6.4 1.87 11.39-1.69c3.13-2.23 6.39-3.11 9.47-5.28q.4-.28.88-.32 3.3-.29 5.73-2.5.4-.37.9-.15c2.11.94 11.02-2.27 13.61-3.02 2-.58 3-1.51 4.67-2.64 2.73-1.84 7.26-.11 10.75-1.64 5.75-2.52 11.24-5.49 17.14-7.3q12.37-3.79 24.8-7.37c2.93-.85 4.39-2.49 4.93-5.65q1.12-6.59 2.45-13.13.11-.52.5-.88 4-3.62 4.52-9.05.05-.47.39-.81c2.17-2.13 5.6-14.72 4.9-17.71q-.11-.5.21-.91 6.38-8.09 7.28-18.19c.4-4.46 1.21-6.83 4.17-9.7q.39-.38.54-.91l.89-3.19a1.89 1.88-87.2 0 1 1.48-1.35l34.82-6.28a.37.37 0 0 0-.07-.74m-240.44 76.99c-10.24-.14-2.34 16.24 4.04 8.17q2.43-3.07 1.03-6.11-.2-.44.18-.72 6.96-5.07 5.27-13.41-.77-3.79-4.41-3.88c-6.55-.16-6.52 11.67-5.64 15.37q.14.59-.47.58m-16.1 43.07a2.4 2.39-34.9 0 0 2.53.45c7.91-3.32 9.37-13.77 12.23-20.89q1.26-3.15 1.16-4.94c-.34-5.8-6.97-7.64-10.29-2.91-1.67 2.39-.15 6.15-1.57 8.22-3.63 5.31-10.15 14.49-4.06 20.07m116.72 229.27c7.85 6.73 15.21-14.51 10.52-16.55q-6.6-2.86-11.6 1.85-.37.36-.49.86c-1.06 4.64-2.72 10.17 1.57 13.84m-230.09 11.54c-4.04 4.29-1.14 11.29 4.64 9.1 4.58-1.73 9.99-11.43 9.27-16.14-.81-5.31-8.2-4.03-9.69-.16q-1.78 4.6-4.22 7.2m202.07 36.96c-8.64 6.52.73 15.11 4.56 9.39q4.48-6.7 8.78-17.19c1.07-2.61 1.51-6.36-1.16-8.22-6.39-4.44-10.38 11.57-11.62 15.24q-.16.48-.56.78m-219.91 12.93c.92 3.79 5.54 4.34 8 1.8q2.06-2.11 3.58-7.75c2.19-8.17-8.31-9.33-10.38-2.8q-1.89 5.94-1.2 8.75m191.14 51.63c.81 2.46 2.8 4.52 5.49 4.54 3.95.03 5.98-6.87 7.35-9.17 3.07-5.12 5.74-10.38 8.8-15.51q2.8-4.7 2.45-10.24c-.44-7.07-8.85-5.48-10.43-.66q-2.47 7.51-6.85 12.35c-2.81 3.09-.7 6.41-4.54 9.47q-.47.38-.41.97.37 4.01-1.75 7.38-.26.41-.11.87" style="fill:url(#b);fill-opacity:1"/><path d="M1393.19 108.44c1.6-2.81 5.61-2.61 8.09-5.4 6.12-6.87 15.76-10.04 25.24-13.24 6.72-2.26 13.89-2.66 21.03-3.93q.49-.08.44.41c-.07.6-2.57.68-3.1.76-7.24 1.12-16.38 21.56-18.28 27.5q-.19.59-.44.02l-1.58-3.55q-.24-.52-.76-.73c-2.96-1.21-11.66 1.53-14.62 2.41-6.32 1.87-12.19 1.64-18.5 1.24q-.47-.03-.26-.45 1.34-2.58 2.74-5.04" style="fill:url(#b);fill-opacity:1"/><path d="M1399.98 139c.33-1.2-.32-1.7 1.18-2.4q10.52-4.92 20.86-10.44.64-.34.53.38c-.64 4.1-1.13 8.78-6 10.13q-7.9 2.19-15.72 3.31a.78.77-86.2 0 1-.85-.98" style="fill:url(#b);fill-opacity:1"/><path d="M636.38 168q.54-.96 1.62-.96.77-.01.17.47l-2.24 1.81q-.28.22-.24-.13.03-.24.17-.43.42-.57.52-.76" style="fill:url(#b);fill-opacity:1"/><path d="M949.98 521.05q1.77.36 2.05 2.13.16.98-.78.67-1.55-.5-1.88-2.2-.14-.75.61-.6" style="fill:url(#b);fill-opacity:1"/><path d="M448.93 624.74c.5-3.45 1.45-6.75.94-10.42q-.1-.72.63-.75l2.18-.1a1.39 1.39 0 0 1 1.24 2.13q-2.8 4.45-3.71 9.65a.63.61-6.2 0 1-.39.47q-1.1.43-.89-.98" style="fill:url(#b);fill-opacity:1"/></g><g fill="#fff" style="fill:#fff"><path d="M1337.73 302.48q-2.13.05-4.72.56-16.79 3.31-30.24 6.23c-14.01 3.04-21.56 4.2-30.37 12.6q-.37.36-.89.39c-4.73.3-6.26 2.83-10.04 4.12q-17.52 5.96-34.84 12.34c-9.29 3.43-19.17 7.21-25.92 13.91-3.61 3.58-7.12 4.55-11.99 4.46q-.48-.01-.79.37-3.05 3.8-7.47 5.81-.48.22-.64.72c-2.58 8.2-4.96 18.94-10.54 26.46q-.28.37-.28.84v5.16q0 .45-.25.82-4.91 7.33-4.74 16.25c.05 2.49-3.38 2.77-3.02 6.24.51 4.99-3.37 9.58-5.77 13.6-4.55 7.63-7.43 15.1-9.13 23.65q-.57 2.9-1.91 5.31-6.5 11.78-11.47 24.3c-.44 1.11-1.99 2.24-2.28 3.07q-6.66 19.14-15.2 32.78-11.54 18.42-19.12 32.98-1.22 2.34-7.04 15.41c-2.51 5.63-26.33 53.54-36.72 43.73-3.63-3.43-.23-11.86.15-16.22.22-2.46.47-4.65 1.46-7.05q2.6-6.3 4.01-13.81.29-1.53-1.27-1.58-8.77-.3-15.43 5.46-.33.29-.46.71c-2.35 7.5-13.94 14.82-15.9 2.16-2.09-13.55-1.97-22.66 2.41-35.2.96-2.74.54-6.14 2.64-8.9 4.43-5.83 1.75-10.57 2.06-17.05q.03-.51.38-.88c4.89-5.08 7.67-11.23 12.05-16.91 3.03-3.92 6.41-9.39 4.83-13.55-2.06-5.4 5.2-5.42 4.71-10.24q-.06-.58.22-1.1l4.3-7.97q.27-.5.37-1.05l.97-5.06q.08-.45-.03-.89l-.74-2.95q-.12-.49.05-.96c1.86-5.28 6.52-8.28 8.26-13.46 1.45-4.33 4.07-8.75 5.61-12.24q3.22-7.3 6.98-14.33c.87-1.62 1.36-4.52 2.16-5.61q4.43-6.03 4.84-10.42.35-3.79 2.32-5.57.35-.33.18-.77-1.28-3.3 1.08-6.09 5.25-6.19 9.09-13.33.29-.54-.3-.71c-14.95-4.36 1.46-22.88 7.4-27.31a.44.44 0 0 0-.33-.79q-4.29.65-8.78 1.09c-3.76.37-5.73 1.69-5.64 5.6q.02.49-.22.93c-1.32 2.51-3.08 4.09-4.07 6.86-2.17 6.07-6.22 7.46-11.13 10.84q-.43.29-.63.77c-2.45 5.8-3.85 11.59-8.16 16.37-4.69 5.19-9.78 10.7-13.71 16.36q-5.87 8.45-11.84 16.83c-6.57 9.23-14.3 17.64-21.78 26.29-4.53 5.24-8.36 11.57-12.88 17.26-1.47 1.86-2.04 3.67-3.09 5.78q-.23.46-.7.68c-4.35 1.98-5.14 6.4-6.76 10.27q-.19.45-.59.73c-2.39 1.68-1.79 5.33-4.18 7.67-3.58 3.53-7.02 6.3-9.36 10.88q-3.19 6.28-6.09 12.67c-.8 1.77-1.94 1.86-2.93 3.22q-12.36 17.05-24.17 34.48c-5.27 7.78-10.55 13.61-16.88 20.32-4.16 4.39-6.29 4.96-12.12 6.38q-.5.12-.8.54c-8.56 11.85-18.77 22.27-27.52 33.65q-1.84 2.39-4.36 4.68c-4.3 3.89-34.87 37.46-38 18.28q-.08-.49.16-.92l2.88-5.31q.49-.89-.28-.22-8.15 7.06-17.06 13.01c-4.29 2.87-9.39-1.14-9.12-5.62q.07-1.16 1.58-6.01 2.84-9.15 7.24-17.69.25-.47.12-.99c-1.54-6.22 1.89-14.08 4.47-19.7.5-1.09 1.75-1.83 2-3.37.91-5.76 6.07-6.57 5.28-12.84-.31-2.44.29-3.64 2.05-5.08q5.92-4.82 11.7-9.8 2.38-2.05 1.9-5.54c-.42-3.12 2.99-3.49 4.24-5.33q1.62-2.38 5.69-9.64c2.22-3.96 5.17-7.52 7.79-11.34q.3-.43.29-.95c-.07-3.76 1.96-4.49 3.79-7.05q.75-1.05 1.8-1.85.43-.33.4-.86c-.33-7.2 5.99-7.95 8.78-13.61q4.32-8.74 10.68-17.24.83-1.1-.62-.87c-1.01.17-2.07.7-2.98 1.45q-11.43 9.47-25.43 14.06c-5.01 1.64-17 2.29-19.99 5.13-2.01 1.91-6.6 3.96-7.64 6.04q-.23.46-.67.71-4.69 2.71-10.1 3.51c-4.76.71-8.27 7.96-12.97 9.98-5.78 2.48-13.79 4.52-18.7 8.25-3.82 2.91-7.06 5.06-11.88 6.53q-5.54 1.7-11.03 3.54-.5.17-.81.6-3.84 5.28-9.7 8.26-.48.24-.67.74c-2.54 6.88-10.78 2.05-14.09 10.41q-.18.46-.57.75-3.24 2.44-6.37 2.47-8.79.08-14.82 1.22-.52.1-.73.59c-1.78 4.21-5.6 2.88-9.25 3.64-3.55.74-6.38-.18-9.33-1.96q-.43-.26-.94-.21c-13.07 1.22-22.04-1.28-34.44-6.15-5.66-2.22-10.74.45-15.27-5.25q-.33-.41-.84-.54c-7.43-1.92-5.49-5.23-9.82-9.53q-3.46-3.43-7.84-5.51-.46-.21-.65-.67c-2.38-5.63-5.64-10.44-7.19-16.66q-1.1-4.4-5.48-6.14-.45-.18-.76-.56c-2.17-2.66-2.74-8.22-3.69-11.62q-.14-.51.07-.99l.53-1.18q.25-.57-.06-1.12-3.65-6.37-2.54-13.73.08-.52-.23-.95c-2.26-3.1-5.77-3.95-4.87-8.63q1.96-10.16 3.87-20.33c.66-3.55-.73-6.88-.97-10.4q-.03-.51.33-.87c2.99-3.03.74-5.38 2.01-7.89q1.77-3.51 4.92-5.65c3.85-2.62 2.96-4.79 4.28-8.56q2.14-6.11 4.34-12.2c.79-2.19 1.01-4.45 2.9-6.61q.37-.44.28-1-.49-3.17 1.42-5.62.34-.45.39-1.01.52-6.17 4.95-10.09c4.88-4.33 2.43-11.09 5.76-16.22q7.1-10.93 9.34-16.73 5.69-14.69 11.72-23.5 4.64-6.77 6.83-8.17 4.98-3.18 5.88-4.88 5.02-9.57 9.76-19.27c1.54-3.17 3.72-2.61 5.72-4.78q4.71-5.14 5.18-11.04c.23-2.84-.33-3.61 2.01-5.66 3.37-2.96 5.23-6.48 7.92-10.03 4.38-5.79 10.5-8.25 13.5-15.37 1.38-3.28 1.93-7.08 5.66-8.53q.51-.2.62-.72c1.26-5.55 5.61-7.95 10.67-9.89 5.4-2.08 5.57-7.28 11.65-9q.51-.14.85-.55l4.96-5.94q.36-.43.25-.99-.64-3.18 2.01-4.87.48-.31.62-.86 1.22-4.74 2.59-5.77c14.76-11.15 25.08-18.36 34.06-32.92q1.62-2.64 5.02-3.28.51-.1.69-.59c2.5-6.67 12.18-11.78 17.92-11.17q.58.06.82-.46l1.35-2.86q.23-.51.75-.71l4.75-1.85q.53-.21.75-.74c2.16-5.12 3.5-9.48 9.83-10.14q.5-.05.92-.34 3.88-2.67 7.31-5.87c2.28-2.12 4.43-3.02 7.14-4.29q.5-.24.45-.79-.34-3.41 1.72-6.23.29-.4.76-.54 4.74-1.46 6.43-6.13.19-.52.65-.8c4.44-2.76 9.39-3.43 13.59-5.44 5.62-2.7 11.25-5.81 17.01-8.13 5.65-2.28.01-7.27 5.63-9.46 3.62-1.42 3.83-1.57 5.62-4.9 2.23-4.14 6.36-3.95 10.18-4.61 7.66-1.33 12.83-7.96 20.32-8.83q.5-.05.87-.39c2.81-2.58 6.5-1.24 10.02-3.89q7.36-5.54 16.81-5.6c1.64-.02 3.46-.74 4.57-1.9 4.42-4.59 8.89-4.89 14.16-7.14q.54-.23.66-.8.95-4.31 5.57-4.1.59.03 1.01-.38 5.11-4.89 11.37-1.24.47.28.98.09 15.48-5.66 31.61-3.4c7.99 1.11 17.95-1.01 25.97-2.12 11.23-1.56 18.22 0 28.69 2.8 5.83 1.55 10.94 5.58 15.9 8.87q.4.27.88.27h6.66q.57 0 1.01.36l6.38 5.25q.44.36.66.89.68 1.68 2.68 1.73.55.02 1 .35c3.78 2.76 8.45 5.09 11.11 8.6 2.28 3.02 3.58 6.95 5.27 9.56q2.57 3.97 5.81 7.45.35.37.44.87 1.83 9.98 5.33 19.44c2.33 6.3-2.72 11.01-8.84 9.97q-6.46-1.09-12.34-3.86c-2.36-1.11-4.45-3.2-6.93-4.53a1.18 1.18 0 0 0-1.68.65c-.94 2.66-2.66 2.84-5.4 3.36q-7.21 1.38-11.9-4.37-.31-.38-.79-.51c-1.26-.34-2.76-.35-3.9-.82-4.53-1.87-9.26-4.34-14.28-4.42q-6.42-.11-12.63-1.79-.49-.14-.98.03c-5.07 1.74-8.75 3.04-14.96 5.47-6.44 2.53-13.36 3.28-20.14 4.41-5.18.87-11.13 3.19-17.61 3.03-6.87-.17-12.44 1.36-17.67 5.42-1.84 1.42-2.38 2.37-4.88 2.38q-10.82.03-21.2 3.13-.48.14-.79.53-3.04 3.81-7.67 5.03c-2.53.66-5.85-.24-8.26 1.31-4.82 3.1-9.3 6.69-14.84 8.6-4.35 1.49-7.13 2.54-9.29 6.52q-.26.47-.77.61c-3.93 1.04-6.79 6.34-10 11.38q-.28.44-.76.61-15.95 5.74-31.27 15.44c-4.15 2.63-7.38 4.63-10.03 8.84q-2.96 4.69-7.7 7.62c-4.34 2.68-6.37 6.16-11.44 8.17-4.32 1.71-6.57 3.29-9.62 6.09-4.81 4.42-2.47 11.69-11.75 12.27q-.51.03-.89.36c-2.55 2.18-4.74 3.93-6.87 6.69q-8.61 11.11-20.29 18.97c-4.65 3.12-10.01 10.67-12.2 15.79q-1.03 2.42-2.7 4.44c-3.57 4.32-3.74 11.75-11.06 10.58q-.61-.1-.83.48l-2.21 5.81q-.21.54-.69.86-3.46 2.29-5.6 4.89c-8.02 9.74-12.11 15.62-18.63 22.64-6.3 6.79-7.5 15.37-15.2 21.52q-2.11 1.68-3.29 3.69-7.58 12.79-14.25 26.06c-3.68 7.31-4.61 13.24-4.34 21.06.09 2.28.44 4.6-1.41 6.11-4.14 3.39-4.34 7.07-6.25 11.77-1.48 3.63-5 6.42-7.17 9.87q-.26.42-.21.91.88 7.89-4.58 13.52-.36.37-.36.9c0 3.31.57 6.7-.96 9.79-1.87 3.77-2.27 9.49-4.62 12.43q-.31.39-.33.9c-.17 6.35-1.92 11.66-2.84 17.91-1.26 8.64 7.59 7.31 13.25 6.23q18.4-3.51 37.01-5.71c3.44-.41 7.67-3.01 12.24-3.47q8.44-.85 16.38-3.92c2.39-.92 3.8-2.54 7.15-2.18q.5.06.76-.37l1.83-2.99q.28-.45.75-.72c4.58-2.62 8.63-5.44 13.85-6.75 3.84-.97 7.44-1.68 11.12-3.42 4.25-2.02 10.45-3.64 13.82-6.79 6.85-6.39 14.75-13.6 23.88-17.41 3.57-1.48 5.76-4.31 9.26-5.41 6.17-1.95 12.44-3.75 15.08-9.25q.22-.46.67-.71 8.15-4.6 16.3-9.21c3.84-2.18 10.47-1.1 11.74-5.87q.13-.5.58-.76c3.25-1.86 5.41-3.19 9.66-5.28 5.27-2.58 7.88-10.36 12.72-11.2q.55-.09.86-.54 2.13-2.99 5.95-2.19 1.4.3 1.64-1.1c.15-.84-7.7-2.98-9.05-3.72q-.47-.26-.68.24c-3.42 8.04-9.87 3.96-16.37 6.26q-5.72 2.03-11.38 4.18c-4.14 1.57-9.11 2.36-13.59 4.33q-.47.2-.69.66c-1.09 2.28-2.45 3.01-5.1 3.19q-9.33.63-17.91 4.26-1.44.61-3.06.54c-3.84-.15-8.37 2.68-11.81 4.36-2.86 1.39-12.59 4.26-15.39 3.05q-.48-.21-.86.16-2.48 2.44-4.54 2.86c-8.24 1.69-17.11 3.42-24.86 6.75-5.1 2.19-10.46 2.27-16.65 2.95-6.89.76-9.27-.08-14.19-4.73q-.37-.36-.89-.35c-5.81.04-17.16 1.84-19.68-5.04-1.43-3.92 4.76-8.38 7.7-10.08a.46.45 29.9 0 0-.23-.85c-6.02.04-11.61-1.65-9.4-9.31q.14-.47.53-.77 8.64-6.52 18.43-11.07c1.99-.92 3.52-2.58 2.85-4.75a2.3 2.29 60.7 0 1 .67-2.4c2.56-2.28 6.79-9.14 9.92-8.91 8.8.66 7.35-8.39 14.7-8.81q5.03-.29 7.91-2.49.39-.3.88-.31c7.87-.22 7.2-7.49 13.6-8.45 5.45-.81 10.62-1.26 15.7-3.82 6.67-3.36 12.91-5.9 19.67-5.96q.56-.01.91-.44 2.57-3.23 6.77-2.46.51.1 1-.07c3.37-1.17 6.48-4.45 9.91-3.96q.51.07.95-.2c4.41-2.8 7.89-3.86 13.32-3.7q4.81.14 8.93-2.49.44-.28.61-.77 1.71-4.67 5.76-7.27c1.26-.81 2.59-.6 4.06-.94q.48-.12.88-.4c2.41-1.71 4.81-1.99 7.08-3.89 2.5-2.09 6.03-4.05 9.11-3.17 3.53 1.02 9.5-.23 12.86-1.62 1.76-.73 3.77-.86 5.45-1.59 3.55-1.55 6.44-2.98 10.48-2.99 3.1-.01 7.29.51 10.18-.63 2.72-1.07 4.05-1.92 7.23-1.94 2.25-.01 4.15-.22 6.18-1.6q3.8-2.58 8.66-1.72.51.09.93-.21c6.78-4.78 15.04-1.4 22.42-4.73 4.9-2.21 9.53-4.61 14.77-5.8q9.83-2.22 22.82-4.64c1.67-.31 3.19-.12 4.64-.52 7.18-2 14.43-4.31 21.61-5.38q13.03-1.93 28.69-2.95c5.98-.39 12.11.88 16.76.86q7.77-.03 15.51-.93.51-.06.5-.57c-.03-3.03.89-4.49 3.24-6.76q4.82-4.66 3.7-11.79-.08-.51.18-.95c5.71-9.87 8.97-20.71 12.68-31.45 1.74-5.05 2.15-11.03 4.12-16.48.79-2.15 2.37-4.01 3.62-5.99q.26-.41.28-.89c.27-6.06 5.24-9.09 5.43-16.68q.06-2.49 2.25-9.72c2.24-7.44 7.52-13.84 8.97-21.6q1.02-5.49 2.6-10.84c1.19-4.05 4.1-7.89 5.78-12.29 8.93-23.37 16.43-49.52 32.27-69.4 4.92-6.18 16.76-8.82 14.86 3.59a1.5 1.5 0 0 0 1.27 1.71c5.27.75 5.39 5.83 7.59 9.83a.64.64 0 0 0 1.06.09c4.1-5.26 11.12-5.96 12.76 2.01.83 4.06 2.36 8.61 1.48 12.72q-.09.45-.06.91.04.71.5.73.31.02.47-.25c3.73-6.42 11.77-22.78 20.46-14.97q1.3 1.16 1.53 4.66 1.12 17.19-4.73 33.3c-.47 1.3.26 5.03.01 7-.75 5.87-1.03 12.29-2.06 17.65q-3.52 18.18-11.38 35c-2.1 4.5-2.65 9.59-5.45 13.74-5.18 7.67-7.88 18.1-8.44 26.76q-.16 2.47-1.15 4.48c-5.08 10.28-9.36 20.7-15.35 30.52-6.19 10.13-9.23 17.11-9.68 28.11q-.02.38-.21.71l-.28.47q-.31.51.28.42 5.01-.78 8.68-4.32.4-.38.95-.33c5.28.55 6.66-1.55 10.31-4.53 2.96-2.41 5.9-3.2 9.44-4.15q.51-.14 1.02-.01l3.52.87q.56.14.97-.26c3.63-3.44 6.83-2.16 10.61-4.32q.44-.25.93-.13 4.9 1.16 9.11-1.42c3.1-1.9 1.29-5.75 5.64-6.76q5.17-1.2 9.91.92.49.22.76.69l1.13 1.96q.29.5.74.14l2.34-1.83q.4-.31.9-.24 5.1.73 8.15-3.09.34-.43.32-.97-.13-3.06 1.39-5.73.23-.39.64-.57c3.2-1.34 9.01-2.9 11.23.85q.23.39.67.5 6.69 1.66 9.72-4.26.31-.6.98-.61 5-.08 9.84 1.23.48.13.93-.06c7.16-3.09 13.95-6.27 21.5-8.52q9.24-2.75 18.56-5.83 1.24-.41 1.43-1.69 1.01-6.67 3.17-13.03.15-.44.44-.8l2.4-2.93q.3-.38.23-.85c-.66-4.11 1.02-6.3 3.64-8.86q.44-.43.11-.94l-.68-1.09q-.27-.43-.05-.88c2.06-4.29 2.53-9.31 4.55-13.07 1.67-3.11 4.86-6.23 5.18-9.91q.64-7.26 2.6-13.31.55-1.68-1.18-1.28-10.1 2.33-20.02 4.06c-7.93 1.39-15.45-8.15-7.08-12.74 1.12-.61 2.06-.32 3.3-.71q.53-.16.51-.72c-.14-4.61 6.82-11.82 10.47-13.39q1.22-.53-.11-.52-4.07 0-14.82-.93c-5.38-.47-9.47-3.19-8.46-9.15.94-5.54 4.51-5.48 7.45-9.15 2.76-3.44 6.16-10.06 11-9.8q.56.03 1.01-.28 2.11-1.45 2.94-3.88.17-.52.65-.8 11.69-6.95 24.68-10.85 2.27-.68 6.63-3.24c4.63-2.71 9.16.36 13.87-1.18q3.49-1.14 7.01-2.17.55-.16.6-.72.26-2.67 2.75-3.69.48-.2.68-.67c2.61-6.12 7.23-9.93 10.92-15.42q1.94-2.88 3.74-3.6c6.05-2.42 10.37 2.94 9.03 8.64q-.15.67.5.45c6.87-2.35 11.56-5.09 19.05-4.68q.51.02.91-.29c3.23-2.56 10.81-7.48 12.51-.3q.14.61.52.12 4.67-6.07 8.27-12.75c3.51-6.5 11.94-7.2 13.42 1.59q.09.54.64.57c8.74.36 18.01-.68 26.77-1.14 7.71-.4 16.91-3.31 22.7-8.64q3.37-3.09 7.01-5.87.39-.3.88-.33 11.54-.82 16.21.3c1.31.32 2.6 1.29 4.27 1.53q4.78.68 9.54 1.57.5.09.95-.13c.75-.35 1.61-.81 2.46-.84 8.78-.31 16.87-.27 23.84-1.55q.47-.09.73-.5l2.05-3.34q.29-.48.84-.6 4.05-.89 8.1-.88c5.56.01 5.25-4.32 8.73-6.51 4.2-2.65 11.67-.6 16.05 1.35 1.91.86 3.14 1.01 4.56-.51q.34-.37.84-.49 15.17-3.69 30.61-1.69 1.29.17 4-1.27.46-.24.96-.12 5.14 1.26 10.49.48.47-.07.79-.42l1.81-1.99q.35-.39.88-.39h4.66q.55 0 1.02-.27c10.53-6.04 17.98 5.2 28.71-.18 5.25-2.64 9.75-4.09 15.68-3.54 7.53.71 14.6-.03 22.08-.67 2.6-.22 5.09 1.08 7.67.67q9.95-1.62 18.07-1.76c3.12-.05 7.35.9 10.68.46q4.48-.6 6.72-.26 16.64 2.49 26.04 5.53c5.93 1.91 7.93 7.02 5.71 12.84a.76.75 13.5 0 0 .63 1.02c6.57.63 29.29 2.11 16.6 15.38q-.39.41-.02.83c6.7 7.74-2.1 12.38-8.26 14.39a.39.39 0 0 0 0 .74q8.44 2.87 7.09 9.71c-.88 4.45-4.61 6.43-8.77 4.24q-.44-.23-.8.11-1.22 1.18-.93 2.51c2.04 9.3-3.62 10.05-10.62 8.21a2.23 2.22 26.5 0 0-2.31.77c-3.92 4.99-7.53 2.47-12.33 1.18q-.52-.13-.9.24c-1.91 1.89-3.15 3.6-5.93 4.25q-3.47.8-6.85 1.83-.48.15-.82.52-2.84 3.1-6.98 2.22c-3.96-.84-10.19 1.66-11.74 5.64q-.2.51-.7.75-2.05.98-4.33.59-.5-.08-.97.12c-1.78.79-3.55 1.99-5.47 1.95-2.93-.06-5.91-2.3-9.49-4.54q-.43-.27-.89-.04-5.3 2.6-11.12 3.04c-1.98.15-3.75-.66-5.98-.46q-.49.04-.73.47-1.92 3.35-5.92 3.96c-7.71 1.19-21.59 4.44-29.76.89-2.89-1.25-7.4-2.19-9.63-1.39-5.9 2.14-12 3.56-18.31 2.13-15.66-3.56-28.63-1.08-46.39 2.29q-.51.1-.77.55c-2.49 4.29-5.92 5.14-9.75 7.83q-.42.29-.61.76c-3.14 7.66-5.99 17.2-12.77 22.04q-.38.28-.37.75c.16 5.27-3.78 5.9-5.38 10.13-1.22 3.21-.11 5.76-2.24 9.1q-.28.43-.31.95c-.66 10.31-10.66 9.86-12.12 18.77-1.21 7.42-.11 12.61-5.95 18.32q-.37.36-.19.85.99 2.6 1.86 5.09c2.27 6.51-7.17 13.34-9.94 18.7-1.92 3.73-2.15 8.37-3.23 11.67-3.11 9.54-5.63 18.96-13.33 25.5q-.49.42-.16.97l.81 1.36q.24.41.12.88-1.19 4.52-4.26 8.05-.29.33-.41.76l-1.9 7.18q-.12.48 0 .96 1.17 4.54-2.84 7.12-.49.31-.29.86c2.77 7.72-4.16 14.81-9.92 20.7-1.41 1.45-3.33 4.05-3.6 6.04q-1.54 11.57-3.89 19.42c-1.32 4.42-4.84 7.96-6.58 12.2q-3.11 7.57-6.47 15.04c-.9 2-3.24 3.37-3.8 5.31-4.2 14.76-12.39 28.84-19.17 42.58-.86 1.74-.95 3.91-2.63 5.65q-.39.41-.22.94l.8 2.62q.16.5.08 1.02c-1.6 10.36-11.5 13.72-11.82 24.49q-.19 6.55-.89 13.04-.33 3.09-1.75 6.71c-2.83 7.2-4.9 15.92-8.4 23.73q-.21.48-.69.7l-.76.35q-.55.25-.54.86.17 11.49-3.5 22.4c-5 14.8-10.44 30.6-18.89 42.37q-3.02 4.21-9 5.32-.5.09-.58.59-.52 3.56-3.11 6.02-.37.35-.52.83-1.59 5.27-3.92 10.22c-1.48 3.13-5.34 4.9-8.18 6.62q-.45.27-.38.78c.86 7.34-4.53 11.85-8.53 16.92q-.31.39-.33.89c-.4 9.03-7.06 10.62-13.28 15.08-3.6 2.59-6.18 8.07-9.88 9.68-9.9 4.3-9.85-15.31-10.02-20.11q-.02-.53-.32-.97-2.41-3.5-1.45-7.89.12-.55.55-.92.98-.86 1.31-2.12.14-.52-.19-.94c-6.28-8.17 3.08-12.17 5.87-19.18q.18-.47.07-.96c-1.67-7.16 1.19-18.09 3.2-25.1q.13-.47-.15-.87l-2.45-3.47q-.34-.49-.29-1.07 1.71-18.34 5.99-36.22c1.27-5.31 5.15-10.76 5.94-15.31 2.31-13.32 3.85-26.21 9.57-38.64 13-28.29 14.6-57.52 22.93-86.11q2.54-8.71 8.38-16.28.36-.45.22-1.02l-.95-3.98q-.09-.4.08-.79c4.41-9.89 7.42-16.81 6.67-28.01q-.03-.5.2-.95c2.81-5.52 5.78-10.63 7.47-16.61 6.27-22.11 11.38-44.45 17.33-66.63a.48.48 0 0 0-.69-.54q-8.77 4.76-18.29 7.84-.53.17-.77.67c-1.08 2.23-1.59 4.23-3.58 5.91-3.09 2.63-5.07 5.84-8.4 7.96-8.99 5.7-15.94 7.78-24.29 11.59q-.46.21-.95.12c-4.04-.72-12.33.04-11.99 5.79q.03.5-.32.86l-3.33 3.45q-.38.39-.35.94c.49 8.44-6.21 15.93-12.97 20.29q-.45.28-.58.79c-1.63 5.98-1.67 8.44-7.64 11.46q-.45.23-.55.73c-1.13 5.76-1.73 10.95-7.44 14.36q-.48.29-.54.84-.43 3.61-3.61 5.22-.49.24-.76.7-4.4 7.33-4.97 15.77c-.26 3.76-3.01 6.51-5.64 8.84q-.39.36-.33.88c.93 7.81-6.09 12.93-8.83 19.68q-1.83 4.48-5.07 8.13-.36.4-.11.87c3.12 5.86-1.9 10.17-1.92 16.03q-.01 3.93 0 7.85.01.5-.26.92-3.38 5.38-6.44 10.95c-1.13 2.07-1.02 4.44-1.85 6.11-3.61 7.37-5.9 14.63-10.19 21.57-2.17 3.52-1.3 7.11-4.08 10.33-3.46 4.02-3.94 6.67-4.24 12.6q-.03.54-.4.93-2.66 2.75-2.54 6.61.01.46-.22.85c-.61 1.07-.94 2.47-1.52 3.39-3.09 4.92-7.44 10.33-8.79 16.01-1.11 4.7-1.57 9.25-3.75 13.6q-5.63 11.24-10.9 22.64c-.75 1.63-1.77 2.36-3.22 3.24q-.46.28-.62.8c-7.25 24.01-16.09 42.43-32.42 60.87q-1.6 1.81-2.37 4.11-5.51 16.51-14.32 31.43c-4.05 6.86-9.79 14.12-14.81 21.08-3.11 4.33-4.67 11.46-7.41 16.81q-.61 1.18-.88 2.49c-1.92 9.16-4.95 19.2-10.91 26.26-4.07 4.82-9.62 7.28-13.32.14a.28.28 0 0 0-.49-.01c-3.68 6.51-8.26 15.16-14.94 18.95q-.44.25-.61.73c-1.92 5.6-9.44 21.89-15.86 22.95-4.44.73-5.88-2.77-6.46-6.6-2.62-17.27.13-30.32 5.76-47.28.91-2.73 4-6.69 4-9.57.01-6.04-.44-16.07 1.58-19.41q.26-.43-.05-.82c-5.49-7.08 3-8.43 2.56-13.71-.32-3.8-2.47-5.99.77-9.48 1.76-1.89 3.49-3.12 4.17-5.75q2.42-9.33 4.92-18.63c1.4-5.24 5.9-9.33 5.46-14.95q-.32-3.99-.39-8.01-.01-.51.26-.94c7.98-12.62 12.69-28.09 18.54-44.18 1.9-5.22 6.54-11.02 9.31-16.64 5.28-10.73 7.42-23.66 13.88-33.66 1.97-3.05.17-5.28.34-8.14.73-11.61 4.86-19.28 8.03-32.72q.11-.47.44-.82c6.52-6.86 6.21-11.98 6.24-21.07q.01-.5.3-.9c5.09-6.84 9.45-14.37 14.43-21.21 3.88-5.32 3.91-10.34 4.42-15.98q.05-.58.56-.84c1.5-.77 2.13-1.63 2.25-3.41.44-6.64 6.24-12.08 12.13-14.35q.47-.18.73-.61l3.92-6.5q.33-.54.17-1.15l-.69-2.69q-.12-.47.02-.94c2.55-8.53 8.74-17.43 9.95-25.96q.07-.5.41-.87c5.64-6.01 5.74-13.18 5.33-21.23q-.03-.61.28-1.15l6.86-11.65q.36-.6-.34-.58m410-279.1c-1.96 1.13-6.85.63-9.21.63-1.84 0-2.97.77-4.58 1.43-2.78 1.14-5.38.24-8.09-.53q-.57-.16-1.06.16-2.76 1.82-6.04 1.99-.51.02-.93-.27c-5.47-3.83-11.14-2.46-18.2-1.57q-.49.06-.83.42c-6.57 6.89-17.56.55-26.05 1.43a1.74 1.74 0 0 0-1.43 2.41c1.09 2.58.07 5.2-2.43 6.45-4.21 2.11-7.14-1.61-11.27 1q-3.25 2.05-7.62 2.02-8.21-.05-18.85 1.21-.5.06-.9.35-2.89 2.12-7.06 1.33-10.73-2.04-27.42-3.92c-4.15-.47-7.63 4.63-10.4 7.26-7.96 7.55-14.79 7.18-26.67 7.4q-11.01.21-22.06 1.28a1.74 1.74 0 0 0-1.56 1.89c.73 7.74-6.6 5.03-8.04 11.31-4.23 18.52-13.89 34.49-19.39 52.52q-.16.51.36.41c27.75-5.49 47.94-8.31 69.2-12.59 3.05-.61 5.06-.59 6.84 1.97 4.44 6.39-11.62 20.09-14.39 27.3q-8.21 21.38-15.79 43c-1.39 3.96.82 6.32.05 10.14q-.1.48-.39.86-3.56 4.7-6.56 9.77c-1.78 2.99-5.26 1.53-8.13.65q-.5-.15-.6.36-.46 2.28-1.1 4.52-11.52 40.14-21.31 80.74c-1.4 5.81-3.13 11.41-4.85 17.03-1.18 3.88-3.4 7.68-5.01 11.61q-.64 1.56-1.05 7.58c-.52 7.6-4.41 14.11-5.76 21.68-.86 4.85-1.41 8.68-4.12 13.07-4.47 7.24-6.52 14.4-9.16 25.6-4.93 20.91-7.32 40.57-15.19 62.16-2.39 6.57-7.48 15.97-9.25 24.57q-2.36 11.44-4.17 22.99c-.8 5.05-4.55 10.83-5.91 15.84q-3.04 11.27-4.56 23.29a1.57 1.57 0 0 0 1.19 1.72c4.73 1.14-.1 17.97-1.24 22.4q-1.57 6.12-1.33 11.19c.33 6.78-.16 10.75-4.07 15.94q-.29.39-.33.88c-.39 4.96 2.67 6.33-.92 11.41q-.3.42-.23.93l1.22 9.06q.37 2.76 2.52.99l5.13-4.2q.41-.34.63-.82 3.14-6.9 9.35-13.7c2.84-3.12 1.89-6.78 3.2-10.1q2.88-7.32 9.49-11.87.43-.29.18-.76c-1.75-3.22 3.97-11.9 6.14-15.55q.31-.52-.2-.85c-5.1-3.28-6.24-4.99-3.3-11.57q.7-1.56-.98-1.28c-3.48.58-5.78-5.28-2.69-7.79q3.56-2.9 4.05-7.63.05-.52.47-.83c3.44-2.55 12.74-5.44 12.86 2.12.13 8.11-.59 11.89 3.44 18.53q.24.41.49.01 4.87-7.84 7.84-16.58c4.33-12.74 9.34-24.13 9.36-38.55.01-3.8 3.31-5.24 4.47-8.48q1.8-4.98 3.14-10.12c1.46-5.55 4.2-11.65 4.54-18.41.3-6.08.53-12.15 2.05-15.7q2.03-4.72 9.74-13.67.37-.43.08-.92c-1.71-2.91-2.83-6.01-.9-9.21 2.45-4.07 5.33-7.6 7.32-11.83q4.34-9.21 8.99-18.27c3.4-6.59 5.24-12.91 7.09-19.82q.57-2.14 3.81-3.97.45-.26.64-.74 3.01-7.53 6.11-15.05c1.21-2.95 3.53-5.14 4.78-8.37q3.31-8.55 4.28-17.63c.44-4.15 1.47-7.55 3.99-10.35 1.79-2.01 10.54-10.87 9.77-13.14-1.2-3.57-1.57-5.6.47-9.09q3.06-5.26 3.81-12.96c.52-5.36 6.3-5.07 4.6-12.83q-.12-.52.21-.95c2.16-2.82 5.15-4.78 6.83-7.64q4.87-8.32 6.09-17.89c.99-7.79 6.14-15.91 10.8-22.08 1.03-1.37 1.54-2.72 1.14-4.3-1.64-6.64.55-9.39 3.64-14.73 1.65-2.86 1.5-6.2 1.74-9.4.62-8.23 5.59-12.91 11.7-17.63a.73.73 0 0 0 .18-.95c-2.76-4.75.02-6.81 2.09-10.66 2.08-3.87.22-6.68 4.79-9.54q.44-.27.31-.77c-1.83-7.08 5.62-6.49 8.42-10.84q2.61-4.05 3.36-8.84c1.26-8.12 10.66-14.49 16.17-19.88q.88-.86 2.37-1.14c16.24-2.99 37.91-7.51 53.61-2.69 4.61 1.42 12.32-1.44 16.95-2.55 3.95-.95 9.1 1.02 12.96 1.93 6.36 1.5 12.37.95 18.58-.39q.52-.11.72-.59c2.58-6.14 11.06-5.97 16.94-4.54 4.52 1.1 7.63-2.1 11.64-3.51q.48-.17.96-.03c2.53.77 6.18 2.48 8.75 1.57q.49-.17.9-.47 2.91-2.12 6.17-.24.47.27.87-.1c2.97-2.86 6.06-5.89 10.58-4.18q.55.21.98-.2 2.04-1.95 4.52-.63.49.25 1.04.2c4.84-.46 5.99-5.11 11.23-5.03a.99.99 0 0 0 .99-1.16c-1.29-7.33 9.29-7.06 14.04-7.59 3.8-.43 6.74 1.99 9.49-2.55a.79.79 0 0 0-.51-1.18c-4.33-.89-10.72-1.58-9.18-7.95 1.11-4.54 7.09-3.01 10.47-4.42q3.17-1.33 5.26-4.36.31-.44-.19-.64c-6.16-2.43-3.2-6.78-.8-10.54q.38-.6-.32-.72-5.07-.83-15.76-1.94c-4.28-.45-6.59-4.54-3.79-8.13q2.22-2.83 5.1-4.97a.42.42 0 0 0-.15-.75q-27.58-6.81-55.32-.31-.52.12-1-.12l-2.39-1.22q-.47-.24-1-.21-6.69.49-13.4.92c-2.87.18-5.52-.55-8.42-.76-6.78-.49-12.25 4.69-18.66 5.88-5.02.93-13.09-2.52-18.09-4.03q-.51-.15-.81.3c-.78 1.2-1.68 3.14-2.91 3.85m-981.9 528.49c4.99-3.33 7.49-3.7 11.08-10.26q.27-.48.8-.63c3.18-.91 5.92-.94 9.02-2.27 3.16-1.36 6.84-1.8 9.52-3.3 3.33-1.85 6.74-6.2 10.26-7.05 8.71-2.1 14.35-5.59 21-11.36q5.49-4.75 13.03-5.72.5-.06.88-.41c3.66-3.35 9.01-8.79 13.68-10.15q.49-.14.75-.57 1.46-2.43 4.32-3.1.55-.13 1.07.12l3.74 1.76q.45.21.94.1c11.01-2.38 18.8-5.63 27.65-12.26 6.67-4.98 12.87-8.16 19.8-11.72q2.56-1.32 4.59-3.44c2.86-3.01 9.86-12.11 14.58-6.54q1.68 1.99 1.2 5.28-1.21 8.29-8.47 12.87-2.44 1.54-2.35 4.46a2.4 2.39-18.5 0 1-1.03 2.06c-3.27 2.28-3.19 5.5-5.34 8.27-4.47 5.78-8.74 8.66-10.14 16.32q-.09.51-.43.89-3.31 3.7-6.5 7.53c-2.45 2.96-3.34 6.62-6.2 9.71-1.19 1.29-1.4 2.45-1.27 4.09q.05.49-.27.87c-2 2.39-12.75 15.53-11.76 18.1 1.61 4.16-2.17 7.33-4.27 10.35q-.3.43-.79.59l-2.17.7q-.45.14-.64.57c-2.52 5.54-7.75 9.29-12.49 12.88a1.75 1.74 68.7 0 0-.68 1.57q.4 3.94-.93 7.64-.16.45-.55.71c-4.1 2.82-5.1 6.69-7.47 10.45q-5.07 8.02-3.32 17.79.08.45-.12.87l-3.87 7.9a.49.49 0 0 0 .84.49c2.28-3.34 8.42-12.45 12.47-13.13q2.85-.48 5.38 1.73.39.34.83.09 3.14-1.77 5.68.59c3.69 3.44.83 5.7-.53 9.07q-.2.48.27.71.59.29 1.13-.38 5.25-6.54 10.52-11.09 3.04-2.62 5-5.17 6.76-8.81 14.24-17c5.97-6.53 10.27-12.62 14.88-19.53 2.43-3.65 5.52-5.41 9.12-7.62q.48-.3 1.05-.3h4.6q.52 0 .85-.4c10.83-12.85 19.25-26.76 29.31-40.08 4.68-6.18 9.87-12.44 12.88-19.66 2-4.78 3.69-8.66 7.75-12.3 3.22-2.9 6.14-5.29 6.1-9.33q0-.55.38-.95 3.51-3.73 4.86-8.68.15-.52.54-.89c2.45-2.32 4.21-4.05 6.16-7.16 2.1-3.36 4.99-6.03 6.98-9.35 4.2-6.99 10.29-13.13 14.78-18.76 4.28-5.36 9.18-9.84 12.99-15.56 3.91-5.86 8.7-11.3 12.29-17.32 4.36-7.35 11.13-14.11 16.56-20.8 2.73-3.35 3.62-6.73 5-10.69 1.7-4.91 4.75-6.68 9.12-9.1q3.72-2.06 3.25-6.67-.05-.5.29-.88c1.41-1.55 2.72-2.43 3.6-4.38q1.01-2.23 2.07-4.44c1.38-2.89 4.03-4.51 5.52-7.61.82-1.71.22-3.85 2.74-5.15q.81-.41-.09-.55c-2.56-.41-5.45-.03-7.57-.88-4.95-1.98-3.5-8.47-.04-11.11 3.69-2.82 5.58-7.76 10.36-8.31q.52-.06.91-.42 6.6-6.1 15.17-8.78.56-.17.88-.67 1.57-2.42 4.18-3.64.52-.25.73-.78 1.48-3.83 5.59-3.85.53-.01.9-.38 4.07-4.11 5.65-9.72.14-.48-.03-.94l-.74-2.09q-.15-.42.01-.82l1.98-5.25q.18-.49.68-.6.58-.12 1.07-.51.85-.65-.22-.62-8.66.22-17.18 1.95c-1.6.33-2.28-.15-3.24-1.29q-.33-.39-.83-.44-2.44-.23-4.84-.21-24.68.19-48.04 7.97-1.99.66-8.72 1.36-4.14.42-17.04 3.31c-7.02 1.56-13.04 5.87-19.88 7.29q-6.27 1.3-12.78 1.22-.52-.01-.94.28-3.36 2.32-7.32 2.66c-5.04.42-9.59 2.46-14.66 3.2q-1.34.2-3.56 1.11c-2.23.92-4.91.69-6.76.87-7.33.72-12.75 1.33-18.58 4.58q-1.81 1.01-3.7 1.15-6.48.47-12.82 1.84-.49.11-.97-.04c-5.22-1.6-3.89 5.39-8.83 6.74-2.36.64-5.71-1.27-6.46 3.05a2.19 2.18-6.3 0 1-1.31 1.63q-4.52 1.9-8.84 4.09c-4.79 2.41-9.91 2.59-15.08 2.83q-.5.02-.9.31c-4.05 2.87-8.79 3.85-13.37 5.67-3.76 1.49-6.65.36-9.67 4.16a2.14 2.13 19.2 0 1-1.67.8q-2.37-.02-4.72-.01c-3.76.01-7.42 1.97-10.96 3.16-1.96.66-2.49 2.38-4.54 2.95q-2.17.6-4.42.87c-3.58.44-6.54 1.97-10.33 2.09q-.52.02-.58.54c-.84 7.48-6.14 6.45-11.66 8.87q-5.83 2.56-12.27 2.95-.64.04-.75.67l-.53 2.89q-.09.49-.37.89c-2.15 3.07-5.15 2.75-8.19 3.66q-.52.15-.78.64-1.85 3.52-5.63 4.82-.55.19-.77.73-2.07 4.99-6.67 7.74a.27.27 0 0 0 .1.5q5.89.91 7.03 6.48c.67 3.29 1.14 4.44-2.31 6.18q-3.47 1.74-6.89 3.75-1.02.61.16.66c6.59.27 11.59-7.41 14.63 4.3q.13.52.66.58c4.09.49 8.91-1.1 12.72-2.48 8.09-2.92 14.9-4.48 22.56-6.43 2.96-.75 4.93-2.47 7.62-3.9q.48-.26.97-.05 4.68 1.91 8.46-1.7.37-.36.88-.36h3.35q.56 0 1.07-.25 3.79-1.82 7.5-3.83c3.12-1.69 6.22-.36 9.7-1.79q3.91-1.62 8.2-2.13.56-.07.96-.45 2.1-2.02 5.08-1.52.59.1.9-.42c2.61-4.32 8.03-3.74 12.08-6.49q.48-.33 1.05-.18l2.52.68q.51.14 1.01-.04 6.25-2.19 12.33-4.89c3.85-1.71 7.51-1.88 11.62-2.66q.58-.11.58-.69c.06-3.87 2.06-4.87 5.75-5.25q6.65-.68 13.03-2.78.46-.16.92 0 4.3 1.45 4.42 5.86.01.64.62.44 7.41-2.47 14.65-5.38c1.51-.6 5.3-2.82 7.38-2.23q5.29 1.5 4.23 6.65c-.99 4.82-11.67 5.57-14.14 10.09-2.65 4.85-5.73 8.58-10.52 11.44q-1.78 1.06-4.49 2.9c-2.53 1.73-6.44 2.19-9.04 4.97-4.91 5.26-10.01 9.42-16.28 11.62q-.48.17-.81.56-7.12 8.53-17.52 12.16c-1.62.57-2.55 1.51-3.96 2.43q-.43.28-.94.22c-4.61-.54-6.11 1.21-8.9 4.93-3.02 4.01-6.93 4.01-10.72 5.8q-3.2 1.51-6.5 2.81c-2.42.94-4.14 2.83-6.91 3.9-9.37 3.62-15.79 10.18-23.06 16.91q-2.25 2.09-5.01 3.29c-6.28 2.73-12.63 5.9-19.27 7.59-3.47.88-8.02 1.8-10.69 4.54-2.29 2.36-7.75 7.76-11.04 8.12-7.92.85-15.94 4-23.59 6.26-1.79.53-3.07-.21-4.86.34-3.57 1.09-6.74 2.23-10.49 2.72-9.6 1.28-16.89 2.35-28.56 4.49q-10.87 1.99-21.97 2.3c-3.37.09-4.69-2.87-6.59-4.63-4.13-3.84-5.4-8.46-3.77-14.03q2.86-9.72 3.3-19.88c.17-3.78 2.66-6.97 3.5-10.52.55-2.38 1.98-4.1 2.54-6.53q.11-.49-.05-.96-1.09-3.27-.01-6.44c1.34-3.93 4.67-3.88 3.19-9.55q-.14-.52.26-.87 2.33-2.04 1.94-5.13-.07-.57.29-1.01c2.9-3.53 1.15-6.97 6.68-8.68q.48-.15.7-.59 1.65-3.3 1.28-6.97-.06-.58.3-1.03l4.36-5.48q.22-.27.05-.59l-1.69-3.09q-.29-.54-.03-1.08c1.73-3.69 1.51-7.57 3.11-10.95q9.34-19.83 20.52-38.71c1.92-3.24 7.72-6.54 9.94-11.45q4.17-9.22 10.92-16.75 1.1-1.22 1.82-2.85c1.64-3.68 5.34-4.79 7.09-7.16q5.57-7.53 12.08-14.26.35-.37.09-.81-.58-.96-.14-1.84 3.64-7.29 11.69-9.88.5-.16.59-.68l.64-3.46q.08-.45.38-.8 6.51-7.72 12.62-15.78c5.44-7.19 14.34-11.21 20.15-17.87 4.9-5.62 9.7-15.35 18.58-15.87q.52-.03.71-.51 1.34-3.37 2.28-6.88c.94-3.48 6.08-5.7 8.79-7.92 3.68-3 6.52-4 10.89-4.79q.54-.1.76-.6 2.1-5 7.35-6.17.52-.12.81-.57c8.84-14.11 29.04-22.85 43.38-28.99 2.99-1.28 3.87-3.01 4.04-6.07q.03-.51.39-.86 8.36-8.08 18.76-12.96 7.08-3.32 8.96-4.48c4.74-2.92 9.23-6.26 15.22-9.18q.41-.19.83-.05l2.97 1.01q.5.17.8-.26c1.67-2.37 1.54-3.68 5.03-4.25q9.12-1.5 18.31-2.63c3.93-.48 6.34-1.68 8.97-4.31a9.1 9.1 0 0 1 5.21-2.63c7.53-1.1 16.95-1.3 25.29-2.92 7.63-1.47 15.73-2.73 22.56-4.83q10.55-3.25 20.66-7.75 2.38-1.06 5.39 1.27.98.76 2.04.11c1.53-.93 5.29.71 6.98 1.17q.47.12.92-.05l1.74-.67q.51-.2 1.01.04l4.74 2.25q.43.2.91.18c5.11-.23 6.14 4.62 11.5 4.49a.81.81 0 0 0 .77-.99l-.55-2.36q-.12-.5.2-.92c3.85-5.11 6.78-2.44 10.97.07q.42.25.9.17c5.84-.98 7.26 1.41 10.26 5.61 2.27 3.18 4.74 4.34 8.4 4.95q.28.05.18-.22l-3.94-10.92q-.16-.43-.59-.6c-2.35-.88-3.57-4.37-4.79-6.46q-.26-.45-.73-.65c-3.29-1.38-3.05-3.59-3.67-6.62q-.12-.58-.66-.83l-4.19-1.95q-.59-.28-.94-.84l-1.2-2q-.28-.45-.8-.52c-3.61-.51-5.94-3.79-8.91-5.67q-.43-.28-.66-.74l-.92-1.82q-.26-.51-.83-.56c-5.76-.54-10.6-5.15-15.6-7.83q-.46-.25-.92.02c-5.52 3.21-11.06 3.51-14.95-2.28q-.29-.43-.15-.92.68-2.41-1.66-2.46c-6.91-.15-15.3 1.98-21.03 2.57q-4.19.44-8.39.8c-3.55.3-10.09 4.14-12.87.4-3.38-4.55-19.81.61-24.43 2.08-2.11.67-4.08.4-6.25.45q-.5.01-.79.42-1.4 1.95-3.66 2.5c-5.25 1.28-10.18 3.85-15.27 5.68q-3.05 1.1-5.26 3.45c-3.39 3.62-9.81 3.85-14.88 3.91q-.53 0-.92.37-5.59 5.28-13.33 6.52-.49.08-.86.4-2.92 2.57-4.38 2.62-8.2.27-13.67 6.45-.36.41-.9.48-5.27.7-9.86 3.41-.5.3-.66.86-1.1 4.09-5.16 5.11-.52.13-.61.65c-.67 3.62-2.14 5.66-5.74 7.14-2.84 1.17-5.23 3.1-7.86 4.18-4.98 2.07-8.51 3.27-12.33 7.27q-.35.36-.85.41-4.99.43-9.53 2.53-.42.2-.35.65.98 6.69-5.75 7.14-.51.04-.68.51c-1.4 3.94-1.82 7.9-7.01 8.25-5.11.34-7.16 3.4-9.75 7.27q-.29.44-.78.63l-7.84 3.13q-.54.22-.55.81c0 2.4-.09 4.14-1.63 6.11-2.14 2.75-4.97 6.35-8.44 6.19q-.62-.03-1.06.4l-2.86 2.83q-.37.38-.87.56l-12.55 4.6q-.49.17-.54.68c-.61 5.64-1.56 5.36-6.86 6.18q-.54.08-.89.5c-3.26 3.95-6.46 8.99-11.02 13.86-5.67 6.07-13.17 11.09-19.78 16.15-1.4 1.07-2.81 2.83-3.19 4.83q-1.25 6.59-5.92 11.09c-2.94 2.82-5.24 6.24-8.89 8.33q-1.89 1.07-3.06 2.52-5.08 6.33-12.02 10.77-.45.29-.58.81-1.12 4.35-5.58 5.07-.58.09-.8.62-3.77 9.07-11.38 15.27-3.9 3.17-11.89 14.75-.28.39-.26.87c.33 7.64-4.08 10.27-7.62 16.26-2.2 3.71-5.74 5.28-7.83 9.06q-4.3 7.77-7.62 16.08-.2.48-.65.72c-10.52 5.53-15.14 15.04-20.32 26.32q-1.4 3.05-2.05 7c-.41 2.51-2.42 2.64-3.55 4.39-1.59 2.47-2.38 5.45-3.72 7.72-1.56 2.66-3.19 4.81-3.82 7.91-1.39 6.88-1.65 10.63-7.19 15.52a2.08 2.08 0 0 0-.68 1.82c.67 5.19-2.3 7.76-3.09 12.48q-.08.5-.41.88c-2.22 2.59-2.37 5.72-3.69 8.31q-3.9 7.62-4.14 14.76-.08 2.25-1.22 3.36-.4.39-.35.94.26 3.48-3.25 4.17-.61.12-.64.74l-.23 4.85q-.02.52-.4.89l-1.95 1.86q-.37.35-.42.86c-.25 2.82 0 5.38-.67 8.12q-1.99 8.2-3.16 16.62-.08.55.33.91l2.84 2.49q.44.39.45.97l.09 6.48q.01.55.25 1.05 1.56 3.18 1.85 6.68c.48 5.82 4.68 8.13 4.96 15.31q.02.52.33.94c4.38 6.05 5.23 11.24 8.19 17.14 3.2 6.36 11.55 8.51 13.36 15.03q.16.58.76.59l1.86.04q.56.01 1.04.31 1.97 1.26 3.05 3.43c1 2.02 8.7 2.48 10.89 3.26 7.06 2.52 18.89 7.71 26.21 4.88 3.04-1.18 5.89-3.5 8.87-.69q2.39 2.25 5.56.84.54-.23 1.09-.06l2.62.82q.52.17.98-.12c6.7-4.13 11.88-1.25 19.59-3.94q.49-.17.65-.67c1.59-4.95 5.53-6.62 10.86-7.07 1.22-.1 2.77-2.43 3.83-3.14m695.93-412.89a.37.37 0 0 1 .07.74l-34.82 6.28a1.89 1.88-87.2 0 0-1.48 1.35l-.89 3.19q-.15.53-.54.91c-2.96 2.87-3.77 5.24-4.17 9.7q-.9 10.1-7.28 18.19-.32.41-.21.91c.7 2.99-2.73 15.58-4.9 17.71q-.34.34-.39.81-.52 5.43-4.52 9.05-.39.36-.5.88-1.33 6.54-2.45 13.13c-.54 3.16-2 4.8-4.93 5.65q-12.43 3.58-24.8 7.37c-5.9 1.81-11.39 4.78-17.14 7.3-3.49 1.53-8.02-.2-10.75 1.64-1.67 1.13-2.67 2.06-4.67 2.64-2.59.75-11.5 3.96-13.61 3.02q-.5-.22-.9.15-2.43 2.21-5.73 2.5-.48.04-.88.32c-3.08 2.17-6.34 3.05-9.47 5.28q-4.99 3.56-11.39 1.69-.51-.15-.8.31c-.89 1.45-1.78 2.03-3.58 2.25q-12.24 1.5-24.05 5.01c-4.08 1.22-6.55 1.55-10.26.08a2.12 2.1 34.2 0 0-2.21.41q-5.2 4.83-11.49 8.11-.51.27-1.07.16l-1.2-.23q-.55-.11-.99.22-4.96 3.63-10.97 4.72c-1.96.36-3.71 1.46-5.87 1.7q-.51.06-.87.42-3.33 3.23-8.55 3.38c-3.73.11-7.19-2.25-6.35-6.21.53-2.53 3.49-3.79 5.48-4.99q.47-.28.38-.81c-.79-4.77-2.31-8.78 4.23-10.03q.51-.1.54-.61.81-15.04 8.7-27.43c6.59-10.36 12.27-21.48 16.3-32.09.72-1.9-.33-4.61-.28-6.39.16-6.69 3.49-10.1 5.74-15.33 6.07-14.07 13.42-29.02 17.47-43.08q2.69-9.34 4.32-18.96c.63-3.67-3.56-5.95-2.07-10.25 2.55-7.38 6.12-15.46 6.03-23.31a.56.56 0 0 0-1.07-.24c-2.22 4.43-3.78 9.6-7.05 13.3q-4.8 5.41-8.12 11.82-1.8 3.47-3.43 4.6c-3.31 2.31-8.8 1.53-9.79-3.04-.39-1.81.64-3.27-.26-5.44q-.21-.5.06-.97c4.17-7.15 9.72-18.45 7.56-26.88a.5.5 0 0 0-.97-.01q-1.49 5.15-3.3 9.81c-5.17 13.33-18.66 1.51-13.85-5.6 2.84-4.2 3.87-8.45 3.66-13.74a1.74 1.74 0 0 0-2.32-1.56c-3.71 1.32-6.47 3.07-9.27-1.18a.48.48 0 0 0-.81.03q-9.29 16.4-15.02 33.62c-2.31 6.95-5.53 13.77-7.87 20.87-1.35 4.11-3.24 7.23-5.4 10.77-2.15 3.53-2.19 7.99-2.84 11.98-1.46 8.96-10.01 16.7-8.79 25.54q.07.48-.14.91-3.15 6.45-3.87 13.63-.05.56-.44.96-3.1 3.2-2.97 7.75.02.51-.24.94-1.23 2.04-2.91 3.74c-3.1 3.12-4.05 12.88-5.22 17.66-.77 3.16-2.76 6.07-3.65 9.51q-3.26 12.67-9.55 24.13-.25.45-.18.96c.95 7.17-2.5 9.58-6.08 14.89a1.05 1.05 0 0 0 .91 1.64q7.11-.23 7.25 6.81.01.51-.27.94-1.68 2.5-4.44 3.69a.64.63 64.4 0 0-.3.88c2.61 4.95.15 6.94-3.35 10.88q-3.43 3.85-7.28 7.29c-2.78 2.47-6.09 3.97-9.39 5.95q-.4.23-.52.67l-1.46 5.34q-.17.59-.75.77c-4.15 1.24-10.61 1.53-7.99 8.24q.18.47.63.69c4.02 2.02 4.05 7.24 1.51 10.17q-1.25 1.44-4.86 2.79-6.59 2.46-12.21 7.04a.62.62 0 0 0 .47 1.09q3.31-.42 6.22-2.06.41-.23.79.04l3.33 2.35q.45.32.99.39c4.42.57 6.95 3.41 5.02 7.92-3.41 7.96-10.12 10.51-16.57 16.16a1.25 1.24 20.3 0 0 1 2.17c3.97-.57 4.78 3.49 4.23 6.63-1.64 9.32-7.05 16.95-12.38 24.21q-.3.41-.06.86c1.02 1.88.8 3.37-.51 5.2-3.34 4.69-3.24 9.41-6.27 14.15-2.21 3.47-1.38 6.79-4.4 10.16q-3.18 3.54-4.94 8.03-3.4 8.65-7.46 17.01c-1.72 3.55-4.3 6.63-6.64 9.88a1.99 1.98 40.2 0 0 .22 2.56c3.03 3 2.06 6.12-.03 9.58q-1.93 3.18-1.25 7.17.09.54-.28.96l-2.52 2.83q-.38.43-.37 1 .09 5.41-5.02 5.98-.59.06-.64.66-.6 7.76-4.8 13.82-7.32 10.57-11.08 16.47-.28.44-.15.95c1.04 3.96 1.53 7.4-.28 11.35-3.8 8.31-7.41 15.73-9.32 25.41-.64 3.21-.14 6.21.21 9.39a.58.58 0 0 0 .87.44q7.79-4.51 16.33-7.31.53-.17.82-.64 3.12-5.16 5.44-6.73c3.8-2.56 8.36-1.5 8.74 3.45q.17 2.2-.14 4.46-.08.61.49.87l3.08 1.36q.47.21.71.67 1.4 2.71.04 5.56-3.58 7.45-5.15 16.16a.46.46 0 0 0 .86.29q1.76-3.51 4.09-7.15c5.93-9.27 9.42-20.09 13.78-28.79q8.8-17.58 19.61-34.02 4.12-6.26 9.87-18.63c2.22-4.78 4.53-12.43 7.86-18.19 4.43-7.67 7.4-15.83 11.34-23.72 4.97-9.96 5.79-20.86 12.02-30.48 3.2-4.93 5.33-8.08 5.67-13.3.22-3.42 2.25-6.97 3.03-10.72q1.3-6.25 4.54-11.73.25-.43.25-.93v-6.03q0-.53.35-.93c4.8-5.48 6.83-12.09 9.06-20.04.91-3.27.07-8.87 4.41-10.24q6.19-1.94 8.94-7.54c2.62-5.32 7.68 1.33 12.2-2.97 13.87-13.16 39.48-19.45 58.21-26.33 4.54-1.67 9.56-6.33 14.65-6.13q.5.01.9-.3 9.02-7.36 19.79-9.96 17.38-4.19 40.58-8.7c3.34-.64 5.37-2.01 7.11-4.71q.27-.43.73-.67 7.96-4.1 16.77-6.01c4.01-.88 6.49.81 7.24 4.71q.09.47-.13.9c-5.4 10.91-11.72 18.56-16.34 27.84-1.32 2.67-.77 5.04-.58 7.87.32 4.76-1.52 7.31-3.23 11.33-3.72 8.72-8.18 17.09-11.94 25.81-3.44 7.94-1.04 20.1-9.51 25.78-3 2.02-4.58 4.32-7.99 5.71q-.52.21-.29.73 2.55 5.92-3.23 8.31-.51.21-.57.76-.95 8.46-5.48 14.75-7.96 11.07-12.51 18.46-.28.45-.09.95c1.48 3.98 1.18 6.8-.78 10.81-8.02 16.38-14.54 29.84-14.07 48.58.02.56-.25 1.01-.2 1.7q.04.5-.24.92-3.83 5.88-4.51 7.7c-4.85 13.16-8.62 25.44-16.48 38.22-2.14 3.47-3.85 7.7-5.23 11.59q-6.88 19.37-15.42 38.12-.2.45-.02.9 2.72 6.91-1.82 12.43-.34.42-.39.96c-.41 4.09-2.88 7.2-3.9 10.24q-3.4 10.2-5.32 20.86-.1.54-.54.86-1.97 1.39-.52 3.7.34.54.23 1.17l-1.19 6.6q-.09.47-.56.6c-4.68 1.22-3.2 6.72-3.12 10.21q.04 2.23-.82 4.84-1.89 5.67-1.73 11.64.11 4.12-.43 6.35c-1.27 5.21-3.8 9.64-5.19 14.7-2.45 8.91-5.06 14.31-5.07 23.24a.47.47 0 0 0 .91.18l8.74-20.9q.2-.46.68-.6 2.89-.89 5.84-.11.58.15.87-.37c3.1-5.47 5.98-12.88 10.24-17.37 5.66-5.95 9.76-.65 10.2 5.36a.28.28 0 0 0 .54.08q4.09-10.58 6.18-21.71.09-.47.44-.8c3.96-3.76 6-13.39 6.79-18.64q.54-3.55 1.26-4.6c2.25-3.25 6.18-1 7.45-2.68 9.13-12.04 15.73-25.98 20.65-40.7q1-3 2.83-5.33c5.71-7.26 11.27-12.96 16.52-22 6.84-11.8 11.73-25.62 16.23-38.5q.97-2.78 3.49-4.28.43-.27.65-.73 4.68-9.78 9.14-19.66c3.16-7 3.43-16.34 7.75-22.4 3.41-4.77 6.01-8.59 6.99-14.52q.33-2 1.38-4.29c2.32-5.04 2.57-11.77 7.07-16.04q.38-.36.38-.89-.01-3.86 1.71-6.37 5.62-8.19 8.35-16.42c2.72-8.2 5.8-15.64 10.37-22.84q.72-1.13-.32-1.98c-4.22-3.44-.05-9.11 1.55-13.13q.2-.51-.03-1.01l-1.6-3.48q-.25-.55.03-1.08 1.76-3.43 6.48-9.77 2.03-2.73 1.49-7.31-.05-.5.21-.92 3.09-4.99 7.71-8.53.44-.34.46-.89c.12-2.94-1.48-6.76.83-9.04 2.16-2.13 5.27-.61 5.69-5.31.99-10.9 5.93-19.18 12.36-29.79q.29-.49.83-.64 3.36-.95 2.94-4.54-.07-.58.17-1.1 2.14-4.66 4.48-9.24c.79-1.54 1.82-1.9 3.18-2.78q.45-.29.62-.8c1.89-5.89 6.33-8.86 9.4-14.16.98-1.68 2.08-2.35 3.72-3.2q.55-.28.29-.84-2.12-4.46.91-8.24.3-.37.77-.42l2.72-.27q.56-.06.59-.62.3-6.17 4.74-9.27 2.07-1.46 7.25-2.29c10.44-1.66 20.08-4.02 28.68-10.25a.43.43 0 0 0-.33-.77c-3.35.62-8.28 2.28-11.13.87-3.65-1.81-3.74-7.7.61-8.89 7.72-2.1 15.95-3.19 23.08-5.73 5.53-1.97 12.55-3.9 17.49-7.01q1.77-1.11-.3-.82-13.75 1.98-25.43 6.81c-6.53 2.71-11.85-1.93-11.45-8.83q.03-.52.39-.88 3.52-3.46 5.04-8.17.17-.52.6-.85 2.05-1.61 2.89-1.79 8.78-1.87 16.93-5.65 1.63-.75-.16-.6-1.24.11-3.52.55-12.87 2.49-25.78 4.82c-6.53 1.18-6.26-6.81-4.15-10.55q4.45-7.87 7.95-16.21.18-.43.62-.62.46-.19.66-.65c5.12-11.37 10.02-21.33 13.3-34.58 1.62-6.52 1.38-14.56 4.25-20.89 1.97-4.33 5.84-10 8.14-15.32 6.21-14.35 13.96-29.32 16.82-44.23a.41.41 0 0 0-.77-.26c-2.05 4.12-3.96 8.19-9.43 4.71q-.43-.27-.66-.71c-2.02-3.77-11.1-4.47-14.96-3.14q-5.44 1.89-10.78 4.16-.47.2-.63.68c-1.2 3.65-3.01 13.26-7.15 14.34-4.26 1.12-6.76-1.93-6.12-6.03q.77-4.94.36-10.01a.28.28 0 0 0-.45-.2c-5.51 4.21-6.07 16.81-9.14 23.05-1.96 4-7.13 21.83-14.28 13.24q-.34-.41-.64.03-2.83 4.13-3.96 7.08-4.3 11.19-8.39 26.95-.18.69.54.69zm-68.57-30.54q-1.4 2.46-2.74 5.04-.21.42.26.45c6.31.4 12.18.63 18.5-1.24 2.96-.88 11.66-3.62 14.62-2.41q.52.21.76.73l1.58 3.55q.25.57.44-.02c1.9-5.94 11.04-26.38 18.28-27.5.53-.08 3.03-.16 3.1-.76q.05-.49-.44-.41c-7.14 1.27-14.31 1.67-21.03 3.93-9.48 3.2-19.12 6.37-25.24 13.24-2.48 2.79-6.49 2.59-8.09 5.4m107.55 24.27q-1.49 14.17-6.2 27.06c-3.04 8.29-7.1 16.04-10.14 24.3-1.29 3.51-3.76 6.34-5.3 9.76q-.55 1.22.77.97c14.16-2.69 31.2-4.97 42.38-4.82q3.75.05 7.04.77a1.01 1-75.9 0 0 1.18-.71q3.51-12.33 6.45-23.36c1.43-5.35 6.21-9.4 11.82-6.58q.85.42 1.16-.48c4.39-12.84 8.5-29.06 17.86-38.71q1.43-1.47-.58-1.09l-65.85 12.25a.73.73 0 0 0-.59.64M1399.98 139a.78.77-86.2 0 0 .85.98q7.82-1.12 15.72-3.31c4.87-1.35 5.36-6.03 6-10.13q.11-.72-.53-.38-10.34 5.52-20.86 10.44c-1.5.7-.85 1.2-1.18 2.4m124.42 72a.31.31 0 0 0 .3-.22l2.09-6.62a.31.31 0 0 0-.42-.38l-15.18 6.62a.31.31 0 0 0 .12.59zM633.94 31.9l5.08 1.09q.53.12.86-.32c1.75-2.35 2.18-5.19 4.06-7.09q4.62-4.68 11.36-3.21.48.11.69-.34c2.13-4.67 6.27-8.99 11.5-9.39q5.24-.4 7.5 5.1c2.48 6.04 6.14 12.1 7.14 18.55q.08.52.57.7c1.47.55 2.69.89 3.73 2.12q4.6 5.47 4.03 12.64-.13 1.65.22 3.45c.9 4.68-.53 6.37-2.41 10.29q-.21.43-.03.87l.52 1.29q.19.45-.03.9c-1.13 2.24-2.35 4.16-2.7 6.7q-.62 4.39-1.27 8.78c-.35 2.35-2.06 3.09-2.67 5.1q-2.73 9.04-5.77 17.98c-.58 1.71-2.23 2.86-2.28 4.73-.23 8.07-6.37 11.35-7.11 19.66-.37 4.2-4.47 9.89-6.41 13.77q-.22.44.03.86c1.41 2.38-.62 5.19-2.26 7.38q-.3.4-.28.91c.13 4.55-2.14 5.14-3.81 8.73-4.36 9.37-8.99 19-13.75 28.16-2.31 4.44-3.67 9.86-5.59 13.67-4.95 9.86-9.64 21.76-14.4 29.97q-2.3 3.97-7.73 4.04-.73.01-.73.74v2.7q0 .61-.36 1.11c-2.6 3.53-3.83 7.93-5.16 11.14q-1.76 4.27-3.15 8.68c-1.02 3.24-3.28 6.14-4.2 9.72q-.81 3.15-1.64 4.8-5.88 11.81-10.86 24.01-.19.47-.09.97.39 1.93.46 3.88c.13 3.99-2.64 5.82-2.93 9.66q-.33 4.63-3.12 8.2c-3.61 4.63-5.72 10.15-8.07 15.47-.49 1.09-1.87 2.25-2.18 3.12-2.06 5.76-4.42 10.6-7.16 16.94q-2.01 4.64-5.34 8.54-.33.39-.41.89c-1.01 6.42-4.56 12.03-6.42 16.64-5.67 14.01-11.37 28.83-19.68 41.49-2.11 3.21-3.74 6.65-5.77 9.93-2.8 4.55-6.27 3.32-10.54 2.54a1.34 1.33-7.1 0 0-1.46 1.87q1.91 4.12.06 8.33-.22.49.11.92l1.41 1.81q.38.49.4 1.11.24 9.99-3.77 19.01-.23.51-.16 1.07c.52 4.63-1.56 7.65-2.57 11.51q-1.15 4.38-3.49 8.29c-1.04 1.74-1.16 2.58-.26 4.32q.28.54.22 1.13l-1 9.67q-.05.49-.41.83c-6.02 5.57-6.46 10.83-6.46 18.87 0 5.11-3.93 7.56-5.58 11.93q-3.04 8.02-4.92 14.41c-.66 2.23-.3 3.92-1.52 6.16q-4.78 8.74-5.11 18.78-.01.51-.29.94c-2 3.05-3.37 5-4.49 8.83q-1.09 3.76-3.65 6.84-.34.4-.33.91c.06 5.57-3.68 8.68-5.21 12.97-2.76 7.77-10.83 33.89-20.56 33.53-6.89-.26-4.24-7.5-5.99-10.98q-2.7-5.39-2.14-11.31.23-2.38-.31-4.17-1.49-4.94-3.03-9.93-.17-.55-.73-.64-2.72-.43-4.14-2.79-.46-.76-.81.05-1.99 4.57-5.74 6.05c-6.78 2.69-8.35-5.85-8.44-10.4a2.07 2.06-2.5 0 0-2.21-2.02c-6.47.44-6.87-2.62-6.27-8.05q.85-7.84 1.98-15.65c.41-2.76.49-7.8 1.75-11.71 1.18-3.66.75-4.73-.27-8.15-.48-1.61 1.32-3.43 1.86-4.49q3.04-5.91 1.98-12.44c-.73-4.49.02-8.11.78-12.32.27-1.52-.67-3.02-.39-4.01q4.7-16.26 10.04-32.32c.96-2.9 1.2-5.09 3.26-7.75q.32-.41.21-.9c-1.07-4.82-1.07-8.6 1.25-13.27q4.62-9.34 9.46-18.56c3.13-5.97 4.91-12.29 7.4-18.62q.4-1.04.09-4.72-.05-.59.38-1l2.29-2.12q.41-.39.42-.96c.11-7.23 5.31-10.29 5.15-16.26q-.01-.51.21-.96c2.64-5.42 4.23-10.99 7.18-16.3q6.59-11.84 9.12-25.27.34-1.82 2.74-7.41 4.35-10.14 8.15-20.51c.9-2.48 2.67-5.15 3.53-8.22q5.71-20.67 13.83-40.5c1.55-3.8.46-8.75 2.98-11.91 2.68-3.36 3.99-6.24 5.34-10.3 2.1-6.25 5.5-10.91 6.74-17.57q1.19-6.38 4.31-11.24c2.21-3.47 2.5-6.16 3.29-9.84 1.01-4.68 3.8-8.74 5.24-13.46q2.58-8.51 5.08-17.05c1.54-5.25 3.99-10 6.15-15.07 2.43-5.69 6.85-8.42 12.57-4.46q.57.39.43-.29-.52-2.32 1.08-3.96.38-.38.43-.91.58-5.64 4.9-9.37.41-.35.57-.87c1.16-3.9 8.3-19.76 6.23-23.81q-.23-.46-.18-.96.67-5.87 6.05-8.46.41-.2.57-.64l2.34-6.75q.17-.5.59-.82 2.38-1.89.55-4.31-.33-.44-.03-.89 1.45-2.19.35-4.56-.23-.5-.21-1.05.19-3.49 2.88-5.56.43-.33.54-.87 1.29-6.33 2.31-9.34c.46-1.35 1.6-2.5 2.05-4.12 1.44-5.16 2.78-10.07 6.33-14.23q.33-.39.39-.9c.78-7.74 7.54-14.41 7.19-21.45q-.02-.49.24-.91c2.93-4.65 5.86-7.67 8.96-11.39 2.87-3.45 5.52-5.29 10.1-3.69q.52.18.72-.33c3.01-7.62 12.77-13.2 17.18-2.97q.21.51.75.62M516.02 418.45l.13-.23q.27-.46.8-.36c4.47.83 8.85-.29 10.96-4.64q6.04-12.47 11.41-25.29a.52.52 0 0 0-.6-.71q-3.84.93-6.79-1.68c-5.18-4.59-.94-10.01 3.21-13.02 4.14-3.01 6.26-.71 8.25 2.98a.9.9 0 0 0 1.61-.07c2.21-5.06 2.32-10.91 6.14-15.02q2.92-3.16 3.06-7.48.02-.54.32-.99 4.09-6.17 5.9-13.3.13-.51.49-.89c1.25-1.34 2.79-2.62 3.4-4.45q3.06-9.02 8.67-16.77a1.76 1.76 0 0 0-.37-2.45c-3.42-2.53-.88-6.02.34-9.05q.24-.6-.39-.72c-8.55-1.65-6.09-12.77 3.71-9.85a1.77 1.77 0 0 0 2.11-.94q4.69-10.01 8.55-19.72c2.49-6.27 6.54-14.17 8.97-21.8a.64.64 0 0 0-.57-.83c-3.3-.21-7.72-2.88-6.06-6.88 2.44-5.89 6.36-11.82 8.51-18.24 1.43-4.28 2.49-9.83 6.28-10.92 1.24-.36 3.04.12 4.55-.3q.51-.14.78-.59 5.22-8.84 8.58-18.58c1.57-4.52 5.28-5.82 9.64-3.89q.53.24.73-.31 1.14-3.14 3.36-5.63.49-.55-.2-.81c-7.61-2.84-4.3-10.75 0-14.88q.46-.43.47-1.06l.08-2.99q.02-.55.37-.98 3.98-4.81 8.7-.75.48.4.72-.17 2.1-5.02 4.58-9.86c1.05-2.06.17-3.91 1.12-6.07q3.73-8.44 7.65-16.81c1.38-2.94 1.97-6.23 3-9.38.9-2.72 3.16-4.83 3.91-8 1.07-4.55 1.86-6.65 3.46-10.16 1.15-2.52.46-5.03 3.18-7.14q1.11-.86-.26-.54-1.04.24-1.9.85-.38.28-.41.75-.27 6.24-5.17 9.08c-9.09 5.29-10.95-9.67-1.89-13.45q.47-.2.56-.71c.84-4.71 2.61-8.7 6.39-11.75 3.01-2.43 3.27-5.24 7.5-6.29q.49-.12.73-.57 2.77-5.14 2.93-10.94c.03-1.16.49-1.6 1.27-2.32q.75-.68-.26-.74l-3.38-.19q-.67-.04-.61.63c.73 8.05-10.12 10.48-10.47 3.12-.43-9.07 9.12-6.54 14.64-6.75q.35-.02.38-.36l.85-8.27a.85.85 0 0 0-.8-.94c-5.6-.33-7.8-4.43-7.89-9.53-.06-3.64-2.62-7.58-3.94-10.98a.37.37 0 0 0-.69.01l-4.74 12.97q-.21.58-.81.75-7.83 2.28-8.92-5.16-.17-1.12-.63-.09c-3.18 7.06-7.55 15.71-16.27 9.47a2.46 2.46 0 0 0-2.02-.39l-2.41.59q-.54.13-.98-.21l-4.69-3.68q-.69-.53-.71.34-.16 5.42-4.8 8.29-.39.24-.86.24h-2.97q-.52 0-.51.52c.05 5.6-1.24 12.01-8.93 8.58q-.64-.28-.81.4l-.37 1.47q-.12.47-.4.87-4.41 6.15-5.7 13.57c-.43 2.47-1.49 3.78-3.2 5.38q-.37.35-.45.86-1.17 8.11-5.76 14.83-.3.44-.32.96c-.12 3.92-1.84 7.21-1.97 10.86-.15 4.36-.12 6.39-1.79 10.5-1.02 2.51-2.81 4.61-3.57 7.52-.94 3.6-2.49 5.43-4.52 8.18q-.3.42-.23.93c.26 1.76.5 3.08-.24 4.81q-4.31 10.01-7.21 20.52-.85 3.12-4.86 6.84-.37.34-.42.83c-.86 7.66-6.38 16.85-9.53 24.02-.54 1.25-2.26 2.38-2.91 4.01-2.12 5.31-4.1 14.16-12.39 11.92q-.51-.14-.66.36-2.15 7.06-5.12 13.82c-1.58 3.59-2.01 6.69-2.7 10.42-.62 3.36-2.78 5.7-4.33 8.7q-.23.46-.1.97c.51 1.96-3.69 11.88-4.56 14.41-1.13 3.32-3.37 5.69-4.46 9.22q-2.24 7.31-6.34 13.82-.28.44-.04.9c1.78 3.58-5.02 15.3-6.31 18.77-4.73 12.69-7.91 26.01-13.13 38.4-4.29 10.18-8.35 19.98-11.68 30.94-2.88 9.49-5.39 17.26-10.58 25.8q-.26.44-.2.95c.42 3.67-2.85 8.38-4.54 11.6q-.24.46-.13.95c.79 3.59-.04 10.26-4.1 11.85q-.5.2-.47.73c.22 3.56.41 6.63-3.45 8.25q-.49.2-.51.73c-.05 1.47.09 2.7-.42 4.09-5.33 14.82-10.28 24.42-16.47 36.5q-.23.45-.11.95c2.01 8.52-1.82 16.17-5.17 23.98-3.82 8.9-7.89 19.56-8.89 28.91q-.51 4.88-.67 9.79c-.09 2.65-.22 6.07.35 8.64 1.23 5.52-3.95 9.01-2.07 16.08q.12.48-.07.94-2.32 5.58-2.76 11.59-.04.55.49.41 6.67-1.71 8.6 5.16.16.56-.21 1.02-3.45 4.14-2.45 9.58.28 1.51.78.05c1.32-3.85 2.79-12.38 9.29-9.44 4.02 1.81 3.81 7.26 2.25 10.68a.8.8 0 0 0 .41 1.06c4.6 2.04 7.14 7.12 7.1 12.02-.06 7.05-.26 11.92 8.99 9.64q.64-.16.83-.79l2.11-7.08q.21-.72-.48-.99c-6.13-2.46-4.64-8.69.12-11.54q.42-.25.9-.24l4.96.12q.51.01.75-.44 1.47-2.83 2.43-5.89c1.24-3.93 4.25-7.56 4.38-11.58.2-6.05 3.61-10.66 4.15-16.49q.18-2.05 1.03-3.7 2.88-5.61 3.92-11.94.09-.54.46-.95 2.87-3.08 3.56-7.32.08-.52.5-.85c2.54-2-.24-3.58 1.09-6.02q.24-.46-.04-.89c-1.73-2.69 2.16-7.29 3.07-9.96q1.91-5.65 5.21-10.71.29-.45.22-.99-1.14-7.79 2.67-14.54.33-.58-.34-.52-4.34.38-7.67-2.56-.38-.34-.32-.84 1.29-11.24 9.29-19.26.34-.34.13-.78c-1.04-2.12-1.3-3.6-.29-5.93q2.42-5.59 3.83-11.54.12-.54.57-.86l1.12-.81q.36-.26.12-.63c-2.99-4.5-1-8.21 2.51-12.34q.33-.39.28-.9c-.46-4.15 1.86-12.59 7.49-12.05q3.99.38 7.97.86.5.06.59-.43c.32-1.65-4.31-1.52-5.91-1.49q-.36.01-.17-.3m119.84-249.69q-.14.19-.17.43-.04.35.24.13l2.24-1.81q.6-.48-.17-.47-1.08 0-1.62.96-.1.19-.52.76M449.87 614.32c.51 3.67-.44 6.97-.94 10.42q-.21 1.41.89.98a.63.61-6.2 0 0 .39-.47q.91-5.2 3.71-9.65a1.39 1.39 0 0 0-1.24-2.13l-2.18.1q-.73.03-.63.75m-29.13-402.34q8.19.62 13.94 1.84c2.4.52 2.95 3.83 3.7 5.77q.18.46.67.56 5.57 1.11 11.2.88c8.14-.34 7.87 8.51 3.34 12.6q-3.64 3.28-8.4 4.64-.52.15-.71.67c-.6 1.67-.3 2.74-1.31 4.25q-2.52 3.75-5.96 6.57-.41.34-.3.85 1.13 5.52-3.6 8.46-6.93 4.32-13.19 9.51c-4.15 3.44-9.7 4.87-14.68 6.6-3.96 1.38-7.01.21-10.26 4.25q-.33.41-.85.41-4.47.06-8.65 1.3c-4.47 1.33-8.4.92-12.76 3.33-2.73 1.51-4.6 1.65-7.48 1.72q-.52.02-.93.33c-2.74 2.12-4.05 4.26-7.4 5.47q-9.13 3.26-18.4 5.97c-3.44 1.01-5.1 2.71-7.51 5.12q-.36.37-.88.45c-4.03.64-7.61 2.18-11.81 2.75q-7.99 1.09-15.91 4.42c-3.42 1.44-5.76 1.37-9.29 1.59-3.51.21-7.78 2.65-11.14 3.9-5.13 1.9-8.89 4.49-13.22 7.42q-.42.29-.93.3c-13.02.39-26.28 3.63-39.07 6.01-6.62 1.22-10.12 3.66-16 7.04q-2.84 1.63-6.39-.03-.51-.23-.94.11c-5.2 4.13-10.1 4.95-16.64 3.96-3.9-.59-7.26 3.79-9.73 6.22-2.28 2.24-4.57 2.45-7.53 2.93q-.5.09-.86.46c-3.44 3.56-8.89 2.22-13.03 2.52q-.5.04-.86.38-2.95 2.75-3.42 4.56-1.55 5.97-6.43 17.76-3.84 9.27-7.34 25.06c-1.32 5.97-4.36 11.08-6.42 16.87-1.1 3.09-4.1 6.43-4.55 9.3q-2.02 12.79-7.47 24.52-.29.64.26 1.83.21.46.04.95c-1.27 3.49-1.52 7.69-3.04 10.57-1.98 3.75-5 4.75-4.53 10.04q.61 6.85-2.46 12.65c-2.38 4.5-3.21 9.21-5.01 13.86-1.6 4.13-1.96 8.44-3.66 12.41-3.28 7.67-6.11 16.03-10.07 23.33-1.54 2.85-.48 6.17-1.85 9.25q-1.95 4.38-3.09 9.02c-1.71 6.94-3.65 11.19-6.67 17.05-1.22 2.36-3.98 2.14-6.13 3.61q-.43.29-.6.78c-4.89 13.98-9.54 29.08-18.07 41.01-3.31 4.63-8.01 8.14-13.78 4.41q-.47-.31-.82.12c-3.17 3.85-8.74 8.93-13.11 2.78-2.54-3.57-1.58-6.53-1.79-10.51a.57.57 0 0 0-.99-.35q-2.55 2.8-5.56 4.98c-6.28 4.56-10.12-1.64-10.42-7.17-.2-3.84-2.22-6.55-2.67-9.27Q4.18 584.1 8 565.49c1.49-7.24 5.21-11.44 4.97-19.35q-.02-.5-.35-.87c-4.24-4.64 1.24-9.59 3.2-13.82q.2-.43.07-.89-1.65-5.55.44-11.13.2-.52.09-1.06c-1.23-6.45 3.26-8.19 3.63-13.45.3-4.29 1.87-8 3.13-12.05 2.09-6.73 5.18-13.62 6.19-21.44.78-6.02 5.01-10.36 6.22-16.33.5-2.49.9-4.63 1.78-7.07 6.43-17.87 12.2-35.63 21.39-52.02q3.43-6.13 10.03-3.15.55.25.95-.2.4-.46.27-1.1-.11-.5.06-.98c1.9-5.34 4.6-11.65 4.87-17.31.34-7.27.25-13.36 2.9-20.33a.52.52 0 0 0-.46-.71q-5.94-.3-5.37-6.49.48-5.16 2.06-14.14c1.32-7.53 4.56-13.94 7.99-20.59 1.7-3.31.23-6.03 1.65-9.37q3.03-7.18 6.62-14.07c.96-1.84.66-5.04 1.02-6.98 1.23-6.62 2.51-12.01 3.71-19.69.8-5.16 3.48-9.33 4.33-14.25 1.87-10.77 4.47-21.5 8.73-31.59 3.62-8.6 5.54-17.18 8.33-25.8 2.45-7.58 8.32-15.09 12.43-21.98q.27-.45.12-.97c-.7-2.35-1.97-4.43-1.75-6.92q.75-8.82 3-17.39c.54-2.08 1.69-2.78 3.89-2.99 5.08-.49 6.8-3.84 9.75-7.26.98-1.13 3.51-2.19 3.99-3.4 1.74-4.34 5.05-7.09 6.79-10.93q2-4.4 3.47-9.01.15-.49.59-.75l4.98-2.99q.46-.27.37-.79c-.92-5.82 2.29-6.32 4.25-10.55 1.11-2.39 2.05-4.48 2.85-7.19 2.2-7.47 11.34-23.37 20.85-19.55q.46.18.62-.28c1.9-5.44 9.23-16.79 16.39-12.57 3.81 2.24 3.76 10.72 8.21 10.25 8.83-.92 18.26-1.76 26.29-4.76 5.24-1.96 9.81-.55 15.05-1.98q11.17-3.04 22.65-4.57 24.2-3.21 31.76-3.69c7.48-.46 16.49 1.34 23.89.25 4.88-.72 9.57-2.45 14.13-3.02q18.43-2.29 30.04-2.9 5.06-.26 8.3-2.82.4-.31.9-.33 13.1-.55 25.69-3.98 3.07-.84 7.18-1.25c3.91-.4 8.06-1.56 11.52-2.11q4.55-.71 9.05-1.65c2.78-.58 5.85-2.45 8.8-2.64q4.08-.27 8.16-.52c7.17-.44 14.27-2.45 21.26-3.97 7.78-1.69 15.23-1.71 22.82-3.15 19.39-3.67 36.89-7.8 54.43-4.06q3.35.72 4.89 2.59c4.78 5.82-3.59 12.56-8.74 14.87q-.74.33.02.62l2.92 1.11q.6.23.8.84l1.24 3.91a1.07 1.06 3.9 0 0 .58.66c5.64 2.59 6.74 6.33 2.32 11.02q-.35.37-.21.87c2.54 9.2-.15 9.45-6.52 14.61-1.09.88-2.08.96-3.37 1.33a.3.3 0 0 0 .07.59c5.89.27 23.73-.67 17.97 11.09-1.78 3.63-5.44 3.27-8.58 4.75-4.15 1.94-4.55 5.14-10.21 5.59q-.52.04-.92.36c-6.38 5-18.52 6.38-26.44 7.47-5.58.77-5.17 6.95-10.78 5.81q-.66-.14-.98.45l-1 1.87q-.26.48-.79.54c-5.88.74-7.36-.36-12.08-3.23-.63-.38-1.26-.55-1.38.4q-.06.5-.5.76c-1.66.97-3.56 1.3-4.97 2.35-5.9 4.37-9.68 1.62-15.8 3.67-11.16 3.74-24.53 6.85-35.83 4.16q-.56-.14-1.06.16-5.04 3-10.86 3.89-.56.09-.78.61c-1.22 2.86-3.22 4.57-4.31 7.44-1.98 5.17-7.03 6.19-12.11 7.27-9.02 1.91-17.97 3.82-27.12 4.97-4.83.6-8.3 3.35-12.78 3.92-10.83 1.39-23.02 2.45-33.3 6.1-6.18 2.2-15.88 4.12-22.14 1.38q-.46-.2-.94-.05-11.01 3.51-21.83 7.5c-4.05 1.5-7.99.03-11.66 1.91q-6.19 3.16-11.11 8.11-.35.36-.85.43c-4.98.76-9.7 1.3-14.52 2.9-5.28 1.76-10.31 3.8-15.77 4.32q-4.24.41-8.5.49-.51.01-.91.34c-4.45 3.57-7.25 6.89-13.92 6.3q-.57-.05-1.01.33-3.58 3.09-8.3 3.66-.49.06-.67.51-1.65 4.02-3.5 7.9c-2.27 4.74.33 9.61-1.9 14.51q-2.91 6.4-4.19 13.35-.09.49-.44.84-1.42 1.48-1.39 3.08c.13 10.27-4.17 20.69-8.82 29.66q-.29.55.33.53c9.22-.35 18.93-3.93 28.1-5.78q.48-.1.86-.41c2.47-2.07 3.75-.22 6.08-.71 2.19-.45 3.78-2.03 5.75-2.59 3.91-1.11 6.58-3.13 10.75-2.8q.52.04.89-.33l3.26-3.35q.38-.4.94-.35c4.24.38 8.59-1.76 12.2-3.8 3.59-2.02 8.12-1.37 11.96-.67 1.59.29 2.52-.18 3.99-.59q.48-.14.8-.52c4.9-5.93 8.04-4.84 14.76-6.37q.48-.11.85-.43l2.58-2.25q.43-.38 1-.36c6.57.19 15.03 1.27 21.22-.91 2.56-.89 5.31-.92 7.57-2.16 1.59-.87 2.48-1.78 4.38-2.1q15.98-2.7 31.41-7.62 2.24-.71 5.9-1.08c5.07-.52 9.16-2.98 13.71-3.97 8.91-1.95 18.01-5.04 26.67-5.97 5.41-.58 22.8-4.32 18.2 8.24q-.2.56.39.6m123.98-151.8c-2.51-4.87-.59-8.15 4.19-10.02q.54-.21.54-.78.01-4.13-4.05-4.22-.55-.01-.95-.39l-3.54-3.34q-.43-.41-1.03-.37-6.1.4-6.77-5.86c-.8-7.47 5.46-7.45 10.5-8.32q2.12-.36.02-.79-2.91-.59-7.44.14-16.78 2.7-33.49 5.85c-4.99.95-10.82.62-16.22 1.94-7.05 1.71-14.11 3.12-21.23 4.53-3.27.66-12.29-.51-14.52 2.09q-.34.41-.19.92c2.63 9.27-9.09 10.23-14.72 9.33q-4.31-.7-3.79-5.18a.88.87 3.8 0 0-.86-.98c-7.47-.05-15.7 2.54-22.98 4.25-4.28 1.01-8.59 1.04-13 1.55-3.66.42-5.56 3.06-9.42 3.26q-15.87.83-31.67 2.6c-3.82.42-7.43 1.65-11.2 2.59-5.85 1.44-12.42 1.23-18.65 2.12q-1.81.26-5.67-1.78-.45-.24-.96-.19-18.23 1.84-36.37 4.35c-2.63.37-5.05 1.19-7.72 1.4-5.19.39-9.89 2.58-14.64 2.95-3.97.3-8.61-.37-12.08 1.9-3.07 2.01-9.04 2.05-12.72 2.61-1.63.24-3.13 1.34-4.96 1.37-3.56.06-7.21.08-10.44 1.13-8.14 2.63-12.48 2.22-14.83-6.76a.3.29 44.6 0 0-.57 0c-.48 2.07-.91 3.84-1.85 5.89-1.58 3.49-2.08 7.65-4.1 10.62-2.11 3.12-7.15 7.76-10.1 2.36q-1.46-2.67-.15-5.97a.6.6 0 0 0-.98-.65c-4.32 4.11-3.69 9.53-6.58 14.26-1.98 3.24-2.66 5.96-5.3 8.81q-.33.37-.27.86.66 4.95-3.02 8.14c-4.95 4.28-4.86 13.53-11.23 16.76q-.48.24-.63.76l-1.48 4.94q-.17.58-.68.9l-2.44 1.49q-.48.3-.48.86c0 4.4-.12 8.6-5.77 8.72q-4.41.1-7.37 2.38c-2.69 2.07-2.71 6.76-2.94 9.93q-.04.51.21.95c3.18 5.59 2.38 9.95-1.13 15.39-3.39 5.25-5.74 11.13-9.69 15.9q-.3.37-.31.85l-.01 4.9q0 .57-.48.88c-2.66 1.69-2.21 3.71-3 5.97q-3.07 8.85-6.5 17.59c-2.31 5.89-3.86 12.21-5.89 18.27a.92.91-84.3 0 0 .98 1.2c12.44-1.53 1.33 19.68-.27 23.85-1.01 2.66-2.66 3.53-5.38 3.04q-1.37-.24-1.71 1.1-2.11 8.4-3.57 16.97c-1.31 7.7-6.42 13.92-7.16 21.29q-.37 3.65-1.63 7.14-.15.43.17.74l2.94 2.94q.34.35.34.83.06 6.92-2.68 13.13-.2.45-.04.92c.86 2.48 2.83 6.48 1.33 8.96q-5.66 9.37-8.16 20.01c-1.54 6.57.61 12.1-1.73 19.04-2.51 7.45-5.34 13.87-6.68 22.36-1.18 7.43-3.69 8.45-10 11.17q-.45.2-.54.67-1.25 6.32-7.57 4.91a1.02 1.01 17.8 0 0-1.15.59c-5.87 13.36-10.08 27.52-14.25 41.48-.73 2.43-2.34 5.15-2.97 7.91q-1.27 5.51-1.3 5.61c-1.58 5.17-2.96 12.85-6.07 17.13q-.32.45.17.72c2.85 1.57 5.41 2.22 5.78 6.37q.05.54-.27.99l-3.16 4.41q-.29.41-.33.92-.77 9.96-5.36 18.85c-.85 1.64-2.2 2.57-2.88 4.38q-2.12 5.67-4.76 11.17-.22.45.03.88c4.11 6.98.74 10.07-1.27 16.37-1.71 5.33-4.02 10.62-4.82 15.59q-1.31 8.12-.45 16.36.05.5-.16.95c-1.44 3.06 1.53 6.18 3.95 7.61q.49.29.68.83l1.25 3.62a.75.75 0 0 0 1.15.36c3.27-2.39 8.36-5.62 12.08-2.25 1.98 1.78 1.45 6.19 1.3 8.64a.44.44 0 0 0 .86.14q1.4-4.99 3.04-10.19c2.76-8.79 14.56-4.33 10.45 4.79q-.3.68.05 1.21.34.51.59-.05 2.78-6.24 5.55-12.49c3.94-8.88 5.56-18.61 10.28-27.67 3.06-5.87-.81-17.11 10.17-16.34q.48.03.76-.37c2.57-3.83 2.48-7.42 2.25-12.38q-.03-.52.25-.97c2.68-4.38 4.03-8.44 6.83-13.47q5.37-9.63 7.62-22.68c.67-3.85 3.5-6.74 4.35-10.97.75-3.73 3.22-5.81 2.95-9.88-.44-6.56 1.39-10.31 4.68-15.86q1.12-1.88 1.4-4.21 1.23-10.22 5.51-19.51c2.73-5.92 3.69-11.18 5.09-17.21q.11-.49-.36-.65-.88-.29-1.37.6-1.88 3.44-4.91 4.94-.47.23-.96.06c-10.05-3.41-2.63-12.06 1.16-16.11q.37-.39.9-.43 6.58-.47 7.1 5.82a.34.33 52.5 0 0 .65.09c1.02-2.9 1.49-5.11 3.64-7.58q2.8-3.21 3.47-6.54 2.84-14.01 7.28-27.6c1.56-4.74 4.79-10.05 5.88-15.96.91-4.92 4.34-7.14 4.95-12.11.63-5.13 4.87-7.5 9.7-6.53q3.43.69 6.99.49.51-.03.92-.33c2.46-1.8 4.98-3.87 8.07-1.74a.89.89 0 0 0 1.17-.15c5.88-6.7 11.05-7.13 19.24-9.66q.49-.16.96.04l3.17 1.35q.59.25 1.03-.21l4.03-4.18q.49-.52 1.14-.22l4.66 2.12a1.16 1.14 38.7 0 0 1.16-.12q7.68-5.59 16.95-7.4 18.25-3.55 36.64-6.39c4.03-.62 6.42-4.27 9.67-5.91 4.35-2.2 8.81-2.56 13.28-4.29q5.54-2.13 11.62-1.92.51.02.95-.22c4.54-2.5 10.61-3.42 13.93-4.46 2.13-.67 12.48-4.46 13.92-3.66q.48.27.85-.14 2.96-3.27 6.39-4.26 11.15-3.2 16.93-5.57c3.26-1.33 4.83-4.02 7.77-5.2q1.94-.79 3.96-1.39c1.71-.51 2.99-1.88 4.95-2.09 3.91-.42 7.25-1.71 11.18-2.05 3.53-.32 5.69-2.2 9.64-1.91q.53.04.89-.35 2.85-3.07 6.65-3.67c6.5-1.04 16.13-2.96 20.25-8.16q.46-.58-.27-.68-4.32-.59-5.27-5.04-.1-.48.19-.89c2.22-3.09-4.59-3.84-3.22-8.56 1.02-3.48 7.94-7.07 11.12-8.65 2.59-1.29 5.43-.9 8.3-1.25q1.78-.22.01-.53c-5.32-.92-6.96-3.04-4.94-8.65q.19-.53-.38-.51-4.29.13-8.56.76c-3.47.52-6.31-1.83-9.96-1.83-2.34 0-11.37.83-12.17-1.88-1.78-6.04-8.33-1.07-12.08-.15-5.58 1.36-10.32 3.47-15.95 4.11-3.94.46-7.01 1.52-10.66 2.46-3.52.9-4.73 3.3-9.14 2.32q-.54-.12-1.05.1l-6.59 2.83q-.54.24-1.13.21c-2.63-.11-4.53-.09-7.06 1.04-9.27 4.15-16.75 4.19-25.79 5.59-2.06.32-3.65-.28-5.6-.79q-.54-.14-.95.23l-3.84 3.41q-.44.39-1.01.55-2.77.81-5.65.97-.48.03-.72.45c-2.76 4.81-5.8 2.7-9.97 3.96q-2.58.78-5.18 1.59-.49.15-.98-.01-3.23-1.07-6.62-1.02-.54.01-.88.42c-2.37 2.84-4.91 6.83-9.32 4.5a1.57 1.57 0 0 0-2.23.89c-1.11 3.31-7.29 2.18-10.05 2.23q-.48 0-.75.4-1.82 2.72-4.82 3.17-5.16.78-8.82 3.09-.43.27-.91.13l-2.41-.71q-.41-.12-.74.14c-1.53 1.19-2.62 1.83-4.71 1.77q-6.48-.19-12.3 2.4c-5.11 2.28-9.54 2.59-14.87 2.76-5.42.17-1.16 6.48-4.11 9.8q-2.83 3.2-7.4 3.21-.51 0-.91.31c-3.16 2.45-7.78.8-11.34.12-4.5-.86-3.17-7.37-2.31-10.45q.13-.48-.1-.92c-1.51-2.8 1.04-5.46 2.98-7.24q.42-.38.4-.95-.15-3.42 1.63-6.27.33-.53.13-1.11l-.7-2.12q-.17-.52 0-1.05c1.46-4.41 8.14-11.76 12.16-4.61a.56.56 0 0 0 1.01-.07c3.08-7.86 6.01-15.32 5.73-24.28q-.01-.55.3-1 3.02-4.39 3.04-9.83 0-.52.25-.96 3.01-5.36 2.88-11.35c-.12-5.39 1.63-9.32 4.32-13.74q.27-.43.26-.93c-.03-2.46-.51-5.05 1-7.13q3.87-5.35 11.1-3.02.51.17.63-.36c1.19-5.4 5.71-4.9 9.53-2.64q.45.26.89-.02 2.75-1.8 5.4-3.75c3.76-2.76 12.58-3.28 17.53-3.93q.51-.07.9-.42 3.17-2.86 7.3-1.54.45.15.88-.06 5.78-2.88 12.27-3.04.55-.01.99-.35c2.31-1.78 3.75-3.48 6.58-4.68 3.17-1.36 5.75-3.64 8.95-4.5 5.77-1.55 11.9-2.18 17.26-3.89q9.64-3.08 19.18-6.7.51-.2 1.03-.02 6.35 2.23 12.76.32.45-.13.85.12 1.56.97 2.46.63c11.23-4.24 23.41-4.86 35.59-7.35 3.97-.81 8.11-2.69 12.44-3.6q.47-.1.47-.57v-4.06q0-.57.38-.99c3.44-3.78 7.14-9.65 12.87-9.93q6.33-.31 12.51-1.71c1.79-.41 3.23.08 5.08-.49 8.72-2.69 15.86-1.68 24.53-6.87q.44-.27.95-.16 12.09 2.52 24-.43c2.31-.57 5.22-.92 7.83-2.34 3.91-2.12 8.96-2.38 13.33-2.75q2.4-.2 5.48-3.01 4.01-3.65 10.37-3.42c1.5.05 2.88 1.1 4.2 1.81q.45.24.9 0c1.73-.94 5.12-3.44 6.97-2.15q.42.29.89.09c3.61-1.56 6.76-3.47 10.7-4.11 8.13-1.33 18.74-2.63 24.69-6.97q.76-.55-.18-.5c-2.51.16-5.35 1.1-7.51 1.24q-11.72.73-23.01 3.82c-4.34 1.19-7.86 1.71-8.81-3.6q-.85-4.7 2.08-7.43.41-.38.97-.32c3.91.45 6.34-1.51 9.53-2.07q2.64-.46 5.31-.95.49-.09.73-.53c1.24-2.29 5.55-2.9 7.9-3.26 2.34-.35 3.61-1.54 5.43-2.82q.42-.31.63-.78 1.14-2.6 3.73-3.68.49-.21.24-.68" style="fill:#fff"/><ellipse rx="5.58" ry="4.89" style="fill:#fff" transform="rotate(-1.5 2385.755 -17485.325)"/><ellipse rx="5.37" ry="4.9" style="fill:#fff" transform="rotate(-19.2 375.177 -1111.457)"/><ellipse rx="6.12" ry="4.86" style="fill:#fff" transform="rotate(-12.5 487.196 -1480.281)"/><ellipse rx="6.67" ry="5.31" style="fill:#fff" transform="rotate(-10.3 633.25 -1382.339)"/><ellipse rx="6.93" ry="5.49" style="fill:#fff" transform="rotate(-26.5 318.789 -418.147)"/><path d="M1644.19 99.92c6.29-5.48 10.62 1.83 7.9 7.74-4.88 10.61-14.57-1.93-7.9-7.74M214.97 110.76c1.94-7.43 12.82-7.16 12.94.28.11 7.42-14.81 6.89-12.94-.28" style="fill:#fff"/><ellipse rx="5.34" ry="5.07" style="fill:#fff" transform="rotate(85.5 247.884 403.78)"/><path d="M335.94 128.69q3.59-5.16 8.55-1.92.42.27.85.02 9.4-5.43 21.91-4.9c3.14.13 5.85.21 6.76 3.77 1.79 6.95-5.16 5.69-8.79 6.88q-7.96 2.61-16.31 2.81c-3.45.08-7.02 2.73-9.93 2.19-4.8-.9-5.62-5.15-3.04-8.85m-191 42.85c11.77 3.85.37 20.21-7.76 12.79-3.12-2.85 1.86-14.71 7.76-12.79m471.37 16.89q3.94-.06 7.9-.1 1.61-.02.02.24-3.97.65-7.93-.04-.52-.09.01-.1m605.48 26.96c-.88-3.7-.91-15.53 5.64-15.37q3.64.09 4.41 3.88 1.69 8.34-5.27 13.41-.38.28-.18.72 1.4 3.04-1.03 6.11c-6.38 8.07-14.28-8.31-4.04-8.17q.61.01.47-.58" style="fill:#fff"/><ellipse rx="5.83" ry="5.09" style="fill:#fff" transform="rotate(119.3 .664 154.507)"/><path d="M390.42 237.85c3.74.77 7.87 2.44 6.25 7.11-1.21 3.48-13.93 5.09-17.17 5.8-1.86.4-3.52.6-5.02-.87-3.56-3.49-5.79-10.37.55-12.47 2.3-.75 5.82.64 7.26-1.33q.29-.39.01-.78c-5.58-8.03 9.14-11.21 9.25-3.02.02 1.71-.86 3.13-1.53 4.8q-.26.62.4.76m814.8 21.19c-6.09-5.58.43-14.76 4.06-20.07 1.42-2.07-.1-5.83 1.57-8.22 3.32-4.73 9.95-2.89 10.29 2.91q.1 1.79-1.16 4.94c-2.86 7.12-4.32 17.57-12.23 20.89a2.4 2.39-34.9 0 1-2.53-.45" style="fill:#fff"/><ellipse rx="6.27" ry="5.11" style="fill:#fff" transform="rotate(4.2 -3318.513 5067.191)"/><ellipse rx="6.48" ry="5.11" style="fill:#fff" transform="rotate(-22.3 847.545 -837.493)"/><ellipse rx="5.82" ry="4.89" style="fill:#fff" transform="rotate(-37.1 678.713 -719.632)"/><ellipse rx="6.16" ry="5.18" style="fill:#fff" transform="rotate(110.8 187.821 332.749)"/><ellipse rx="5.69" ry="4.88" style="fill:#fff" transform="rotate(105.2 -46.02 184.45)"/><path d="M112.53 290.48c-.82 12.72-16.51 14.69-9.53-1.75 2.51-5.91 9.93-4.25 9.53 1.75m984.14 9.72a2.2 2.2 0 0 1-.96-.71c-6.04-7.69 5.33-9.26 9.92-7.96q.51.14.78-.31 2.73-4.46 7.85-5.69c10.48-2.52 6.11 15.67-6.23 10.58q-.46-.19-.69.26-3.42 6.63-10.67 3.83" style="fill:#fff"/><circle cx="291.03" cy="293" r="5.01" style="fill:#fff"/><ellipse rx="7.86" ry="5.15" style="fill:#fff" transform="rotate(-13 1460.465 -945.887)"/><rect width="9.96" height="14.44" x="-4.98" y="-7.22" rx="4.65" style="fill:#fff" transform="rotate(24.3 -479.667 1428.497)"/><path d="M532.72 348.01c-5.03-3.61-1.15-9.07.67-13.07 2.67-5.84 10.82-3.32 9.3 3.11-.88 3.75-4.65 13.78-9.97 9.96m12.43 14.4c-9.66-.66.08-19.95 2.41-23.08 2.38-3.2 7.2-.44 8.16 2.54.89 2.76-1.83 7.17-3.29 9.57-1.97 3.22-2.16 11.32-7.28 10.97m145.96 4.25c-4.03 2.18-8.17-1.48-6.28-6.11q1.88-4.62 3.7-9.28c1.61-4.11 9.93-12 14.74-8.62 2.75 1.94 1.81 4.64.14 7.1-2.52 3.72-8.85 15.04-12.3 16.91m-163.89 10.61c-2.5 6.2-9.21 4.14-9.18-1.79.02-3.06.63-7.71 2.97-10.44 2.01-2.34 4.24-6.02 7.66-6.32 5.98-.51 8.12 4.08 4.38 8.67q-3.66 4.49-5.83 9.88m471.07-.44c-3.25 1.12-5.84-3.72-5.13-6.11.85-2.84 11.45-10.22 14.33-9.76 5.9.95 2.85 8.96.98 11.88q-.28.43-.75.61-4.72 1.74-9.43 3.38m-34.6 55.73q-2.73-1.28-2.25-4.81c1.93-14.27 23.29-7.96 11.48.87-3 2.25-4.93 5.97-9.23 3.94m-50.79-6.97c1.27-4.84 6.78-6.85 10.01-2.9 4.85 5.92-4.13 10.4-9.24 5.61q-.41-.39-.72.08-4.03 6.07-8.92 8.44c-2.86 1.39-7.47-1.28-7.2-4.92.32-4.25 7.14-7.64 10.65-8.66q.51-.15 1.01.02 2.17.74 3.63 2.51.56.68.78-.18" style="fill:#fff"/><ellipse rx="5.09" ry="4.74" style="fill:#fff" transform="rotate(131.3 -68.989 231.772)"/><path d="M691.4 471.73c-2.04 5.25-8.78 5.98-9.65.03-.88-6.01-1.17-12.41 2.16-17.31 2.99-4.41 4.23-9.28 6.01-14.23 2.76-7.66 15.17-.08 9.7 7.94q-.28.42-.33.91-.43 4.22-2.24 7.99c-1.39 2.92-.42 5.75-2.19 8.25q-2.12 3-3.46 6.42" style="fill:#fff"/><ellipse rx="6.8" ry="5.36" style="fill:#fff" transform="rotate(111.9 -131.061 248.39)"/><path d="M886.69 482.72c-2.85 3.58-9.94 7.46-13.2 1.5-3.05-5.56 5.75-7.59 9.23-8.27q.48-.1.85-.42 2.69-2.29 8.15-4.29 4.8-1.75 13.41-8.13.4-.3.9-.33c8-.6 6.73 7.79 2.48 10.65q-8.85 5.96-18.9 9.53-.48.17-.95-.03l-1.03-.44q-.56-.24-.94.23m435.25 5.59c-4.29-3.67-2.63-9.2-1.57-13.84q.12-.5.49-.86 5-4.71 11.6-1.85c4.69 2.04-2.67 23.28-10.52 16.55m-225.45 20.64c-5.78 2.19-8.68-4.81-4.64-9.1q2.44-2.6 4.22-7.2c1.49-3.87 8.88-5.15 9.69.16.72 4.71-4.69 14.41-9.27 16.14m-354.57-4.62c-3.57-2.4-1.91-8.69 2.02-9.88 18.26-5.55 9.34 17.53-2.02 9.88m-59.61 17.87c-5.5-5.07-8.68-17.04-.9-21.87q.45-.28.98-.24 4.91.33 4.62 5.1-.03.59.43.97c5.2 4.26 5.34 5.86 5.74 12.46.48 7.99-6.45 7.65-10.87 3.58" style="fill:#fff"/><ellipse rx="8.25" ry="5.6" style="fill:#fff" transform="rotate(106.5 46.969 434.734)"/><ellipse rx="5.08" ry="4.8" style="fill:#fff" transform="rotate(124.4 82.87 370.945)"/><rect width="10.24" height="9.86" x="-5.12" y="-4.93" rx="4.49" style="fill:#fff" transform="rotate(44.8 -275.95 1110.412)"/><path d="M957.322 521.251a5.62 5 13.6 0 1-6.638 3.539 5.62 5 13.6 0 1-4.286-6.181 5.62 5 13.6 0 1 6.638-3.539 5.62 5 13.6 0 1 4.286 6.181m-7.342-.201q-.75-.15-.61.6.33 1.7 1.88 2.2.94.31.78-.67-.28-1.77-2.05-2.13m348.5 25.15c-3.83 5.72-13.2-2.87-4.56-9.39q.4-.3.56-.78c1.24-3.67 5.23-19.68 11.62-15.24 2.67 1.86 2.23 5.61 1.16 8.22q-4.3 10.49-8.78 17.19m-582.52-12.8c-3.99.81-14.83.04-14.09-6.22.63-5.27 8.42-6.65 12.57-5.54q.5.14 1 0c12.51-3.32 10.89 9.68.52 11.76m366.05 18.14c-2.46 2.54-7.08 1.99-8-1.8q-.69-2.81 1.2-8.75c2.07-6.53 12.57-5.37 10.38 2.8q-1.52 5.64-3.58 7.75" style="fill:#fff"/><circle cx="925.03" cy="547.35" r="5.83" style="fill:#fff"/><path d="M1270.64 605.91c-2.69-.02-4.68-2.08-5.49-4.54q-.15-.46.11-.87 2.12-3.37 1.75-7.38-.06-.59.41-.97c3.84-3.06 1.73-6.38 4.54-9.47q4.38-4.84 6.85-12.35c1.58-4.82 9.99-6.41 10.43.66q.35 5.54-2.45 10.24c-3.06 5.13-5.73 10.39-8.8 15.51-1.37 2.3-3.4 9.2-7.35 9.17" style="fill:#fff"/><ellipse rx="5.63" ry="4.84" style="fill:#fff" transform="rotate(109.4 -182.802 311.064)"/></g></svg>