<!-- Created by ERK --><svg xmlns="http://www.w3.org/2000/svg" xml:space="preserve" width="902.803" height="191.342" viewBox="0 0 722.242 153.073"><g style="display:inline" transform="translate(178.925 197.057)"><rect width="8.028" height="23.978" x="-7.994" y="-91.94" ry="0" style="fill:#000;fill-rule:evenodd;stroke-width:.8;paint-order:stroke markers fill"/><rect width="8.039" height="24.073" x="48.064" y="-92.029" ry="0" style="fill:#000;fill-rule:evenodd;stroke-width:.8;paint-order:stroke markers fill"/><path d="M-.045-99.955h16.107v8.053H-.045z" style="fill:#000;fill-rule:evenodd;stroke-width:.8;paint-order:stroke markers fill"/><path d="M16.026-91.972h8.001v7.932h-8.001zM.056-68.003h8.042v8.086H.056z" style="fill:#000;fill-rule:evenodd;stroke-width:.8;paint-order:stroke markers fill"/><path d="M-.015-91.911h7.982v15.999H-.015z" style="fill:#fff;fill-rule:evenodd;stroke-width:1.13597;paint-order:stroke markers fill"/><rect width="8.169" height="8.026" x="7.998" y="-59.947" ry="0" style="fill:#000;fill-rule:evenodd;stroke-width:.8;paint-order:stroke markers fill"/><path d="M15.964-52.001h8.332v7.949h-8.332z" style="fill:#000;fill-rule:evenodd;stroke-width:.825682;paint-order:stroke markers fill"/><path d="M24.165-51.969h8.045v7.949h-8.045z" style="fill:#000;fill-rule:evenodd;stroke-width:.811321;paint-order:stroke markers fill"/><path d="M32.111-59.872h8.029v7.998h-8.029z" style="fill:#000;fill-rule:evenodd;stroke-width:.8;paint-order:stroke markers fill"/><rect width="8.01" height="8.148" x="40.139" y="-68.003" ry="0" style="fill:#000;fill-rule:evenodd;stroke-width:.8;paint-order:stroke markers fill"/><path d="M23.976-99.921h24.181v7.948H23.976z" style="fill:#000;fill-rule:evenodd;stroke-width:.740847;paint-order:stroke markers fill"/><path d="M54.221-90.181h.113V-90h-.113z" style="fill:#000;fill-rule:evenodd;stroke-width:.8;paint-order:stroke markers fill"/><path d="M23.995-91.964h16.031v23.978H23.995z" style="fill:red;fill-opacity:1;fill-rule:evenodd;stroke-width:.8;paint-order:stroke markers fill"/><path d="M8.213-70.229H32.14v10.344H8.213z" style="fill:red;fill-opacity:1;fill-rule:evenodd;stroke-width:.8;paint-order:stroke markers fill"/><path d="M-.032-75.946h28.078v7.981H-.032z" style="fill:red;fill-opacity:1;fill-rule:evenodd;stroke-width:.8;paint-order:stroke markers fill"/><path d="M7.949-91.908h8.077v16.536H7.949z" style="fill:red;fill-opacity:1;fill-rule:evenodd;stroke-width:.8;paint-order:stroke markers fill"/><path d="M15.965-84.092h10.468v14.234H15.965z" style="fill:red;fill-opacity:1;fill-rule:evenodd;stroke-width:.8;paint-order:stroke markers fill"/><path d="M40-91.972h8.145v23.993H40zm-7.923 24.004h8.066v8.102h-8.066z" style="fill:maroon;fill-opacity:1;fill-rule:evenodd;stroke-width:.8;paint-order:stroke markers fill"/><path d="M15.937-59.931h16.206v7.978H15.937z" style="fill:maroon;fill-opacity:1;fill-rule:evenodd;stroke-width:.8;paint-order:stroke markers fill"/><path d="M7.949-91.908h9.491v17.385H7.949z" style="fill:red;fill-opacity:1;fill-rule:evenodd;stroke-width:.8;paint-order:stroke markers fill"/></g><g style="display:inline" transform="translate(259.111 197.044)"><rect width="8.028" height="23.978" x="-7.994" y="-91.94" ry="0" style="fill:#000;fill-rule:evenodd;stroke-width:.8;paint-order:stroke markers fill"/><rect width="8.039" height="24.073" x="48.064" y="-92.029" ry="0" style="fill:#000;fill-rule:evenodd;stroke-width:.8;paint-order:stroke markers fill"/><path d="M-.045-99.955h16.107v8.053H-.045z" style="fill:#000;fill-rule:evenodd;stroke-width:.8;paint-order:stroke markers fill"/><path d="M16.026-91.972h8.001v7.932h-8.001zM.056-68.003h8.042v8.086H.056z" style="fill:#000;fill-rule:evenodd;stroke-width:.8;paint-order:stroke markers fill"/><path d="M-.015-91.911h7.982v15.999H-.015z" style="fill:#fff;fill-rule:evenodd;stroke-width:1.13597;paint-order:stroke markers fill"/><rect width="8.169" height="8.026" x="7.998" y="-59.947" ry="0" style="fill:#000;fill-rule:evenodd;stroke-width:.8;paint-order:stroke markers fill"/><path d="M15.964-52.001h8.332v7.949h-8.332z" style="fill:#000;fill-rule:evenodd;stroke-width:.825682;paint-order:stroke markers fill"/><path d="M24.165-51.969h8.045v7.949h-8.045z" style="fill:#000;fill-rule:evenodd;stroke-width:.811321;paint-order:stroke markers fill"/><path d="M32.111-59.872h8.029v7.998h-8.029z" style="fill:#000;fill-rule:evenodd;stroke-width:.8;paint-order:stroke markers fill"/><rect width="8.01" height="8.148" x="40.139" y="-68.003" ry="0" style="fill:#000;fill-rule:evenodd;stroke-width:.8;paint-order:stroke markers fill"/><path d="M23.976-99.921h24.181v7.948H23.976z" style="fill:#000;fill-rule:evenodd;stroke-width:.740847;paint-order:stroke markers fill"/><path d="M54.221-90.181h.113V-90h-.113z" style="fill:#000;fill-rule:evenodd;stroke-width:.8;paint-order:stroke markers fill"/><path d="M23.995-91.964h16.031v23.978H23.995z" style="fill:red;fill-opacity:1;fill-rule:evenodd;stroke-width:.8;paint-order:stroke markers fill"/><path d="M8.013-71.494H32.14v11.609H8.013z" style="fill:red;fill-opacity:1;fill-rule:evenodd;stroke-width:.8;paint-order:stroke markers fill"/><path d="M-.032-75.946h29.209v7.981H-.032z" style="fill:red;fill-opacity:1;fill-rule:evenodd;stroke-width:.8;paint-order:stroke markers fill"/><path d="M7.949-91.908h8.077v22.618H7.949z" style="fill:red;fill-opacity:1;fill-rule:evenodd;stroke-width:.8;paint-order:stroke markers fill"/><path d="M14.622-84.092h17.044v13.234H14.622z" style="fill:red;fill-opacity:1;fill-rule:evenodd;stroke-width:.8;paint-order:stroke markers fill"/><path d="M40-91.972h8.145v23.993H40zm-7.923 24.004h8.066v8.102h-8.066z" style="fill:maroon;fill-opacity:1;fill-rule:evenodd;stroke-width:.8;paint-order:stroke markers fill"/><path d="M15.937-59.931h16.206v7.978H15.937z" style="fill:maroon;fill-opacity:1;fill-rule:evenodd;stroke-width:.8;paint-order:stroke markers fill"/></g><g style="display:inline" transform="translate(339.123 197.093)"><rect width="8.028" height="23.978" x="-7.994" y="-91.94" ry="0" style="fill:#000;fill-rule:evenodd;stroke-width:.8;paint-order:stroke markers fill"/><rect width="8.039" height="24.073" x="48.064" y="-92.029" ry="0" style="fill:#000;fill-rule:evenodd;stroke-width:.8;paint-order:stroke markers fill"/><path d="M-.045-99.955h16.107v8.053H-.045z" style="fill:#000;fill-rule:evenodd;stroke-width:.8;paint-order:stroke markers fill"/><path d="M16.026-91.972h8.001v7.932h-8.001zM.056-68.003h8.042v8.086H.056z" style="fill:#000;fill-rule:evenodd;stroke-width:.8;paint-order:stroke markers fill"/><path d="M-.015-91.911h7.982v15.999H-.015z" style="fill:#fff;fill-rule:evenodd;stroke-width:1.13597;paint-order:stroke markers fill"/><rect width="8.169" height="8.026" x="7.998" y="-59.947" ry="0" style="fill:#000;fill-rule:evenodd;stroke-width:.8;paint-order:stroke markers fill"/><path d="M15.964-52.001h8.332v7.949h-8.332z" style="fill:#000;fill-rule:evenodd;stroke-width:.825682;paint-order:stroke markers fill"/><path d="M24.165-51.969h8.045v7.949h-8.045z" style="fill:#000;fill-rule:evenodd;stroke-width:.811321;paint-order:stroke markers fill"/><path d="M32.111-59.872h8.029v7.998h-8.029z" style="fill:#000;fill-rule:evenodd;stroke-width:.8;paint-order:stroke markers fill"/><rect width="8.01" height="8.148" x="40.139" y="-68.003" ry="0" style="fill:#000;fill-rule:evenodd;stroke-width:.8;paint-order:stroke markers fill"/><path d="M23.976-99.921h24.181v7.948H23.976z" style="fill:#000;fill-rule:evenodd;stroke-width:.740847;paint-order:stroke markers fill"/><path d="M54.221-90.181h.113V-90h-.113z" style="fill:#000;fill-rule:evenodd;stroke-width:.8;paint-order:stroke markers fill"/><path d="M23.995-91.964h16.031v23.978H23.995z" style="fill:red;fill-opacity:1;fill-rule:evenodd;stroke-width:.8;paint-order:stroke markers fill"/><path d="M8.013-73.629H32.14v13.744H8.013z" style="fill:red;fill-opacity:1;fill-rule:evenodd;stroke-width:.8;paint-order:stroke markers fill"/><path d="M-.032-75.946h29.318v7.981H-.032z" style="fill:red;fill-opacity:1;fill-rule:evenodd;stroke-width:.8;paint-order:stroke markers fill"/><path d="M7.949-91.908h8.077v21.336H7.949z" style="fill:red;fill-opacity:1;fill-rule:evenodd;stroke-width:.8;paint-order:stroke markers fill"/><path d="M13.865-84.092h17.938v15.736H13.865z" style="fill:red;fill-opacity:1;fill-rule:evenodd;stroke-width:.8;paint-order:stroke markers fill"/><path d="M40-91.972h8.145v23.993H40zm-7.923 24.004h8.066v8.102h-8.066z" style="fill:maroon;fill-opacity:1;fill-rule:evenodd;stroke-width:.8;paint-order:stroke markers fill"/><path d="M15.937-59.931h16.206v7.978H15.937z" style="fill:maroon;fill-opacity:1;fill-rule:evenodd;stroke-width:.8;paint-order:stroke markers fill"/></g><g style="display:inline" transform="translate(419.111 197.073)"><rect width="8.028" height="23.978" x="-7.994" y="-91.94" ry="0" style="fill:#000;fill-rule:evenodd;stroke-width:.8;paint-order:stroke markers fill"/><rect width="8.039" height="24.073" x="48.064" y="-92.029" ry="0" style="fill:#000;fill-rule:evenodd;stroke-width:.8;paint-order:stroke markers fill"/><path d="M-.045-99.955h16.107v8.053H-.045z" style="fill:#000;fill-rule:evenodd;stroke-width:.8;paint-order:stroke markers fill"/><path d="M16.026-91.972h8.001v7.932h-8.001zM.056-68.003h8.042v8.086H.056z" style="fill:#000;fill-rule:evenodd;stroke-width:.8;paint-order:stroke markers fill"/><path d="M-.015-91.911h7.982v15.999H-.015z" style="fill:#fff;fill-rule:evenodd;stroke-width:1.13597;paint-order:stroke markers fill"/><rect width="8.169" height="8.026" x="7.998" y="-59.947" ry="0" style="fill:#000;fill-rule:evenodd;stroke-width:.8;paint-order:stroke markers fill"/><path d="M15.964-52.001h8.332v7.949h-8.332z" style="fill:#000;fill-rule:evenodd;stroke-width:.825682;paint-order:stroke markers fill"/><path d="M24.165-51.969h8.045v7.949h-8.045z" style="fill:#000;fill-rule:evenodd;stroke-width:.811321;paint-order:stroke markers fill"/><path d="M32.111-59.872h8.029v7.998h-8.029z" style="fill:#000;fill-rule:evenodd;stroke-width:.8;paint-order:stroke markers fill"/><rect width="8.01" height="8.148" x="40.139" y="-68.003" ry="0" style="fill:#000;fill-rule:evenodd;stroke-width:.8;paint-order:stroke markers fill"/><path d="M23.976-99.921h24.181v7.948H23.976z" style="fill:#000;fill-rule:evenodd;stroke-width:.740847;paint-order:stroke markers fill"/><path d="M54.221-90.181h.113V-90h-.113z" style="fill:#000;fill-rule:evenodd;stroke-width:.8;paint-order:stroke markers fill"/><path d="M23.995-91.964h16.031v23.978H23.995z" style="fill:red;fill-opacity:1;fill-rule:evenodd;stroke-width:.8;paint-order:stroke markers fill"/><path d="M8.013-72.429H32.14v12.544H8.013z" style="fill:red;fill-opacity:1;fill-rule:evenodd;stroke-width:.8;paint-order:stroke markers fill"/><path d="M-.032-75.946h31.018v7.981H-.032z" style="fill:red;fill-opacity:1;fill-rule:evenodd;stroke-width:.8;paint-order:stroke markers fill"/><path d="M7.949-91.908h8.077v22.136H7.949z" style="fill:red;fill-opacity:1;fill-rule:evenodd;stroke-width:.8;paint-order:stroke markers fill"/><path d="M11.065-84.092h21.288v13.834H11.065z" style="fill:red;fill-opacity:1;fill-rule:evenodd;stroke-width:.8;paint-order:stroke markers fill"/><path d="M40-91.972h8.145v23.993H40zm-7.923 24.004h8.066v8.102h-8.066z" style="fill:maroon;fill-opacity:1;fill-rule:evenodd;stroke-width:.8;paint-order:stroke markers fill"/><path d="M15.937-59.931h16.206v7.978H15.937z" style="fill:maroon;fill-opacity:1;fill-rule:evenodd;stroke-width:.8;paint-order:stroke markers fill"/></g><g style="display:inline" transform="translate(499.143 197.056)"><rect width="8.028" height="23.978" x="-7.994" y="-91.94" ry="0" style="fill:#000;fill-rule:evenodd;stroke-width:.8;paint-order:stroke markers fill"/><rect width="8.039" height="24.073" x="48.064" y="-92.029" ry="0" style="fill:#000;fill-rule:evenodd;stroke-width:.8;paint-order:stroke markers fill"/><path d="M-.045-99.955h16.107v8.053H-.045z" style="fill:#000;fill-rule:evenodd;stroke-width:.8;paint-order:stroke markers fill"/><path d="M16.026-91.972h8.045v7.932h-8.045z" style="fill:#000;fill-rule:evenodd;stroke-width:.802206;paint-order:stroke markers fill"/><path d="M.056-68.003h8.042v8.086H.056z" style="fill:#000;fill-rule:evenodd;stroke-width:.8;paint-order:stroke markers fill"/><path d="M-.015-91.911h7.982v15.999H-.015z" style="fill:#fff;fill-rule:evenodd;stroke-width:1.13597;paint-order:stroke markers fill"/><rect width="8.169" height="8.026" x="7.998" y="-59.947" ry="0" style="fill:#000;fill-rule:evenodd;stroke-width:.8;paint-order:stroke markers fill"/><path d="M15.964-52.001h8.332v7.949h-8.332z" style="fill:#000;fill-rule:evenodd;stroke-width:.825682;paint-order:stroke markers fill"/><path d="M24.165-51.969h8.045v7.949h-8.045z" style="fill:#000;fill-rule:evenodd;stroke-width:.811321;paint-order:stroke markers fill"/><path d="M32.111-59.923h8.029v8.049h-8.029z" style="fill:#000;fill-rule:evenodd;stroke-width:.802572;paint-order:stroke markers fill"/><rect width="8.01" height="8.148" x="40.139" y="-68.003" ry="0" style="fill:#000;fill-rule:evenodd;stroke-width:.8;paint-order:stroke markers fill"/><path d="M23.976-99.921h24.181v7.948H23.976z" style="fill:#000;fill-rule:evenodd;stroke-width:.740847;paint-order:stroke markers fill"/><path d="M54.221-90.181h.113V-90h-.113z" style="fill:#000;fill-rule:evenodd;stroke-width:.8;paint-order:stroke markers fill"/><path d="M8.013-82.816h16.072v22.931H8.013z" style="fill:red;fill-opacity:1;fill-rule:evenodd;stroke-width:.652415;paint-order:stroke markers fill"/><path d="M-.032-75.946h24.118v7.981H-.032z" style="fill:red;fill-opacity:1;fill-rule:evenodd;stroke-width:.8;paint-order:stroke markers fill"/><path d="M7.949-91.908h8.077v16.536H7.949z" style="fill:red;fill-opacity:1;fill-rule:evenodd;stroke-width:.8;paint-order:stroke markers fill"/><path d="M11.298-84.092h12.784v24.184H11.298z" style="fill:red;fill-opacity:1;fill-rule:evenodd;stroke-width:.78231;paint-order:stroke markers fill"/><path d="M40-91.972h8.145v23.993H40z" style="fill:none;fill-opacity:1;fill-rule:evenodd;stroke-width:.8;paint-order:stroke markers fill"/><path d="M23.991-68.173h16.151v8.307H23.991z" style="fill:none;fill-opacity:1;fill-rule:evenodd;stroke-width:.8;paint-order:stroke markers fill"/><path d="M15.949-59.888h8.136v7.934h-8.136z" style="fill:maroon;fill-opacity:1;fill-rule:evenodd;stroke-width:.565262;paint-order:stroke markers fill"/><path d="M23.995-91.964h16.031v23.978H23.995z" style="display:inline;fill:none;fill-opacity:1;fill-rule:evenodd;stroke-width:.8;paint-order:stroke markers fill"/><path d="M23.994-59.94h8.163v7.983h-8.163z" style="fill:none;fill-opacity:1;fill-rule:evenodd;stroke-width:3.12017;paint-order:stroke markers fill"/></g><g aria-label="FAVORITES" style="font-size:94.0495px;font-family:&quot;04b(RUS BY LYAJKA)&quot;;-inkscape-font-specification:&quot;04b(RUS BY LYAJKA)&quot;;letter-spacing:0;word-spacing:0;fill:none;stroke:none;stroke-width:8"><path d="M5.715-.176v5.533H.184v74.39h5.53v5.53h35.663v-5.53h5.531V52.083h33.196V46.55h5.53V33.02h-5.53v-5.534H46.908v-3.064h33.196V18.89h5.53V5.357h-5.53V-.176h-4zm19.064 8h47.325v8.598H38.908v19.064h33.196v8.598H38.908v27.662h-5.531v5.531H13.715v-5.53H8.184V24.421h11.064V18.89h5.531zm74.985-8v11.067H88.699v68.855h5.533v5.531h35.663v-5.53h5.53V46.55h8.598v33.195h5.532v5.531h19.066v-5.53h5.531V16.421h-5.53V10.89h-5.534V5.357h-5.533V-.176Zm13.533 8h36.258v5.533h5.533v5.534h5.533v5.53h5.531v47.325h-5.53v5.531h-3.067v-5.53h-5.532V38.55h-24.597v33.195h-5.531v5.531h-19.663v-5.53H96.7V24.421h11.065V18.89h5.533zm14.129 8.598v19.064h24.597V16.422Zm8 8h8.597v3.064h-8.597zM182.75-.176v5.533h-5.533v68.856h5.533v5.533h5.531v5.531h41.196v-5.53h5.53v-5.534h5.534v-5.531h5.531v-5.534h5.533v-5.533h5.532v-5.531h5.533V5.357h-5.533V-.176H232.54v5.533h-5.533v33.194h-3.065V5.357h-5.53V-.176zm19.064 8h8.598v5.533h5.531v38.727h13.534v-5.533h5.53V13.357h5.534V7.824h8.596v5.533h5.533v30.727h-5.533v5.531h-5.532v5.533h-5.533v5.534h-5.531v5.53h-5.533v5.534h-5.531v5.531H196.28v-5.53h-5.531v-5.534h-5.533V24.422h11.064V18.89h5.533zm74.985-8v11.067h-11.065v63.322h5.534v5.533h5.53v5.531h63.325v-5.53h5.531v-5.534h5.534V10.89h-5.534V5.357h-5.53V-.176zm13.533 8h41.791v5.533h5.531v5.534h5.534v47.322h-5.534v5.533h-5.53v5.531h-47.325v-5.53h-5.531v-5.534h-5.534V24.422H284.8V18.89h5.533zm14.129 8.598v46.726h24.598V16.422Zm8 8h8.598v30.726h-8.598zM359.783-.176v5.533h-5.531v74.39h5.531v5.53h35.662v-5.53h5.534V68.681h3.064v5.53h5.531v5.534h5.533v5.531h19.065v-5.53h5.533V49.614h-5.533V41.02h5.533V10.89h-5.533V5.358h-5.533V-.176zm19.067 8h41.789v5.533h5.533v5.534h5.533V33.02h-5.533v5.53h-5.533v13.534h5.533v5.531h5.533v14.131h-5.533v5.531h-3.065v-5.53h-5.533v-5.534h-5.531v-5.531h-5.533v-5.534h-13.531v16.598h-5.534v5.531h-19.662v-5.53h-5.531V24.421h11.064V18.89h5.534zm14.129 8.598v19.064h24.595V16.422zm8 8h8.595v3.064h-8.595zM448.3-.176v5.533h-5.53v74.39h5.53v5.53h35.663v-5.53h5.533V5.356h-5.533V-.176h-4zm19.065 8h8.598v5.533h5.533v58.39h-5.533v5.53H456.3v-5.53h-5.531V24.421h11.064V18.89h5.531zm30.727-8v5.533h-5.531v19.065h5.53v5.533h16.598v49.791h5.532v5.531h30.13v-5.53h5.532V29.954h16.597v-5.533h5.532V5.357h-5.532V-.176h-4zm19.064 8h47.324v5.533h5.532v3.065h-5.532v5.533h-16.597v49.791h-5.531v5.531H528.22v-5.53h-5.532V21.954h-11.064V18.89h5.531zm69.454-8v5.533h-5.534v74.39h5.533v5.53h74.389v-5.53h5.531V60.681H661v-5.534h-33.196v-3.064h33.195V46.55h5.531V33.02H661v-5.534h-33.196v-3.064h33.195V18.89h5.531V5.357H661V-.176h-4zm19.064 8h47.324v8.598h-33.195v19.064h33.195v8.598h-33.195v19.064h33.195v5.534h5.531v3.064H653v5.531h-58.39v-5.53h-5.533V24.421h11.067V18.89h5.53zm74.984-8v11.067h-11.064v35.66h5.533v8.597h-5.533v24.598h5.533v5.531h68.855v-5.53h5.532v-5.534h5.533V33.02h-5.533v-8.598h5.533V5.357h-5.533V-.176h-4zm13.533 8h47.323v5.533h5.533v3.065h-5.533v5.533H708.32v13.531h33.194v5.534h5.533v25.193h-5.533v5.533h-5.532v5.531h-52.855v-5.53h-5.533v-8.599h5.533v-5.533h44.258V44.084h-44.258v-5.533h-5.533V24.42h11.064v-5.53h5.533z" style="color:#000;-inkscape-font-specification:&quot;04b(RUS BY LYAJKA)&quot;;fill:#000;stroke:none;-inkscape-stroke:none" transform="scale(.95632 1.04567)"/></g><g aria-label="FAVORITES" style="font-size:94.0495px;line-height:1.25;font-family:&quot;04b(RUS BY LYAJKA)&quot;;-inkscape-font-specification:&quot;04b(RUS BY LYAJKA)&quot;;letter-spacing:0;word-spacing:0;fill:#fff;stroke-width:1.10214"><path d="M76.103 3.825H9.715v5.532H20.78v5.533h-5.533v5.532H9.715V9.357H4.183v66.388h5.532v5.533h27.662v-5.533h5.532V48.084h33.194V42.55h5.532v-5.53h-5.532v-5.532H42.909V20.422h33.194V14.89h5.532V9.357h-5.532zM164.62 14.89h-5.532V9.357h-5.532V3.825h-49.791v5.532h5.532v5.533h-5.532v5.532h-5.533V14.89H92.7v60.855h5.532v5.533h27.662v-5.533h5.532V42.551h16.597v33.194h5.533v5.533h11.064v-5.533h5.532V20.422h-5.532zm-33.194 5.532h16.597v11.065h-16.597zM253.137 9.357V3.825H236.54v5.532h-5.532v33.194h-5.532v5.533h-5.533V9.357h-5.532V3.825H186.75v5.532h11.064v5.533h-5.532v5.532h-5.532V9.357h-5.533v60.856h5.533v5.532h5.532v5.533h33.194v-5.533h5.532v-5.532h5.532v-5.532h5.533v-5.533h5.532v-5.532h5.532v-5.532h5.533V9.357Zm88.518 0h-5.533V3.825H280.8v5.532h5.532v5.533H280.8v5.532h-5.532V14.89h-5.533v55.323h5.533v5.532h5.532v5.533h55.323v-5.533h5.533v-5.532h5.532V14.89h-5.532zM308.46 59.148V20.422h16.597v38.726zM430.172 9.357h-5.532V3.825h-60.856v5.532h11.065v5.533h-5.533v5.532h-5.532V9.357h-5.532v66.388h5.532v5.533h27.662v-5.533h5.532V59.148h5.532v5.533h5.533v5.532h5.532v5.532h5.532v5.533h11.065v-5.533h5.532V53.616h-5.532v-5.532h-5.532V42.55h5.532v-5.53h5.532V14.89h-5.532zm-16.597 22.13h-16.597V20.422h16.597zm66.388-27.662H452.3v5.532h11.065v5.533h-5.532v5.532H452.3V9.357h-5.532v66.388h5.532v5.533h27.662v-5.533h5.532V9.357h-5.532zm88.517 0h-66.388v5.532h11.065v5.533h-5.532v5.532h-5.533v5.532h16.597v49.791h5.532v5.533h22.13v-5.533h5.532v-49.79h16.597v-5.533h5.532V9.357h-5.532zm-66.388 5.532h-5.532v11.065h5.532zm154.905-5.532H590.61v5.532h11.065v5.533h-5.532v5.532h-5.533V9.357h-5.532v66.388h5.532v5.533h66.388v-5.533h5.533V64.681h-5.533v-5.533h-33.194V48.084h33.194V42.55h5.533v-5.53h-5.533v-5.532h-33.194V20.422h33.194V14.89h5.533V9.357h-5.533zm88.518 0h-60.856v5.532h5.532v5.533h-5.532v5.532h-5.532V14.89h-5.533v27.66h5.533v5.533h44.258v5.532h-44.258v5.532h-5.533v16.597h5.533v5.533h60.855v-5.533h5.533v-5.532h5.532V37.02h-5.532v-5.532H712.32v-5.533h33.194v-5.532h5.532V9.357h-5.532z" style="fill:#fff" transform="scale(.95632 1.04567)"/></g></svg>