<!-- Created by ERK --><svg xmlns="http://www.w3.org/2000/svg" xmlns:xlink="http://www.w3.org/1999/xlink" viewBox="0 0 1734 409"><defs><linearGradient id="a"><stop offset="0" style="stop-color:#102aa0;stop-opacity:1"/><stop offset="1" style="stop-color:#729ad9;stop-opacity:1"/></linearGradient><linearGradient xlink:href="#a" id="b" x1="957.707" x2="1151.783" y1="-92.057" y2="-52.579" gradientUnits="userSpaceOnUse"/><linearGradient xlink:href="#a" id="c" x1="966.31" x2="966.31" y1="-59.331" y2="-255.065" gradientTransform="translate(-80.52 269.7)" gradientUnits="userSpaceOnUse"/></defs><g fill="#e8e8e8"><path d="M184.5 11.839q-.28 2.15 1 3.24.14.13.23.31l3.02 5.9 22.41 23.67q.17.19.41.26 1.3.43 1.47 1.65a1 .99-74 0 0 .35.64q6.28 5.16 11.82 11.11c1.07 1.16 2.73 1.63 3.39 3.58a.95.97 4.8 0 0 .45.54q1.76 1.03 2.18 1.56 2.96 3.78 6.61 6.88 1.34 1.14 6.92 8.08a.97.94 27.2 0 1 .22.66q-.16 5.21.21 7.41c.46 2.8-.07 5.41 0 7.51.12 3.11-.21 6.36-.13 9.26q.41 13.82-.22 27.65c-.09 1.94-1.2 3.19-2.54 4.39a1.03.97 22.9 0 1-.67.25q-38.89.05-77.77-.03c-1.69 0-2.92-.88-4.26-1.75a1 .99 12.9 0 1-.44-.7q-.38-2.66-2.87-1.88-.66-10-.08-20-.07-1.26.9-1.51a1 1.01 2.9 0 0 .7-.64q.28-.82 1.13-1.06a1.03.99 7 0 0 .57-.43c2.67-4.25.73-8.14-4.2-8.08q-23.41.29-46.8.2-4.1-.02-8.16 2.6a.97.99-8.2 0 0-.41.56c-.66 2.27-1.65 4.55-1.65 6.94q-.06 23.33-.05 46.68c0 1.86 2.8 4.42 5.01 4.37q3.4-.06 6.21-2.14a1 1 0 0 1 .67-.19q5.81.42 11.63.26c17.88-.51 35.77-.31 53.65-.31 1.65 0 3.43.69 5.35.44q2.3-.29 2.94 1.87c.62 2.09 1.07 3.92 2.63 5.59q8.35 8.89 17.83 16.71 1.1 2.45 3.64 3.83a.98.98 0 0 1 .48.58q.4 1.3 1.75 1.49a1.06 1.02 73.5 0 1 .62.35q1.62 1.91 3.55 3.53c1.11.93 1.53 2.07 2.54 3.12q5.49 5.75 11.54 10.91a.99.95 16.1 0 1 .33.57q.26 1.35 1.57 1.72a.99.97 77.3 0 1 .5.32l4.03 4.83a1.03 1.01 72.2 0 0 .68.36q.95.08 1.09 1.06a1.03 1-72.9 0 0 .3.59q2.98 2.81 5.82 5.72 1.53 1.56 1.71 3.36.18 1.84-.08 3.99c-1.11 9.41-.2 21.57-.27 28.49q-.43 42.4-.25 52.51.22 13.6-.28 22.11-2.41 1.62-4.16 3.43c-3.44 3.56-6.33 6.03-9.25 9.31q-2.14 2.4-4.44 4.56c-2.33 2.18-4.3 4.66-6.77 6.71-2.33 1.92-4.22 4.56-6.45 6.65a.32.32 0 0 1-.53-.14c-.27-.86-2.59 3.1-3.32 3.46a1.01 1.02-6.2 0 0-.54.68q-.19.86-1.11 1.13a1.01.93 10.6 0 0-.45.28l-2.14 2.29a1 1 0 0 0-.26.52q-.11.7-.79 1.03-1.27.63-1.42.78-7.9 8.02-14.08 14.23c-3.33 3.34-5.92 3.81-10.92 3.53q-4.6-.26-12.55-.29-40.71-.15-81.42.12-5.22.04-6.25-.25-2.98-.81-5.37-3.83-2.8-3.53-11.13-10.82c-.76-.67-1.4-1.69-2.36-2.66q-7.26-7.37-14.62-14.64a1.04 1.01 18.8 0 1-.29-.57q-.14-1.03-.99-1.27a.92.91 76.3 0 1-.47-.29q-1.81-1.98-3.63-3.94c-2.24-2.43-5.57-4.14-7.69-7.11-1.59-2.22-3.63-3.29-5.17-5.11q-2.34-2.77-5.21-5.04a.99.98-75.7 0 1-.37-.63l-.05-.29a.98.98 0 0 0-.79-.82q-3.34-.66-5.67-3.02a.99.99 0 0 0-.91-.28q-.65.13-1.11-.23a.22.06 35.9 0 0-.23-.09q-.08.18-.23.31-.51-21.92-.27-43.81c.09-9.13-.74-15.84 7.13-19.58q2.86-1.36 8.45-1.38 36.48-.12 72.95.25c.98 3.77 2.21 6.6 2.15 10.46q-.19 12.79.59 25.56c-.8 3.96 5.19 1.08 6.4.38l47.38-.22a1 1 0 0 0 1-1l-.03-30.41.16-14.11a.99.99 0 0 1 .52-.87q1.18-.65 1.33-1.97a1.04 1.01-14.1 0 1 .43-.7c4.6-3.21 1.39-7.82-3.42-7.85q-38.41-.26-76.83-.26a1 1 0 0 1-.65-.24l-7.43-6.42q-3.88-3.34-4.11-3.47-.06-.04-.93-1.53-.45-.76-1.13-1.35c-4.67-4.02-8.81-8.87-13.08-12.85-4.51-4.2-9.1-9.36-12.93-13.11q-4.12-4.02-8.23-8.04c-2.37-2.32-4.1-5.03-6.15-7.68a1.02 1.01-15.5 0 0-.68-.38q-.86-.09-1.26-.66a3.84 1.43 61.4 0 0-2.04-1.77q-4.36-.88-7.38-4.23-.12-.13-.27-.21l-1.2-.66a1 .98 14.2 0 1-.52-.85l-.2-7.29q-.1-44.75 0-89.51c.01-4.9.43-7.97 4.04-11.6q28.71-28.96 57.5-57.8c3.59-3.6 6.86-4.07 12.27-4.08q50.32-.07 100.65.05M61 60.739l-23 23-3.39 3.31a.99.98 68.2 0 0-.3.71l-.02 39.02v37.25l.24 14.51a.99.96 23.2 0 0 .29.69l24.89 24.8 25.48 25.51a1.03 1.03 0 0 0 .7.3q39.59.32 79.18.16c11.53-.04 17.47 6.7 14.91 18.85l.31 21.18q-.08 22.01-.02 43.99c.03 10.61-7.13 12.99-16.49 13.02q-32.71.09-65.43 0c-13.18-.04-15.15-6.03-15.08-18.4q.05-8.46-.14-16.96a1.01 1.01 0 0 0-1-.98l-46.88-.11a.99 1 .3 0 0-1 1v32.65a1.04 1.01 23.5 0 0 .29.71l50.7 50.69a1 1 0 0 0 .7.29l91.48.14a1.04 1.01-66.5 0 0 .71-.29l50.85-50.86a.96.95 67.5 0 0 .29-.71l-.06-36.43-.03-35.25.07-19.33a1.03 1.01 22.8 0 0-.3-.72l-31.41-30.95-20.4-20.02a1 1 0 0 0-.7-.29q-39.74-.09-79.48-.23c-10.66-.04-15.61-7.7-13.54-18.25l-.21-33.46.1-32.94q.02-5.96 5.94-9.77 3.26-1.54 5-1.54 37.31-.01 74.61.01c1.45 0 2.81.5 4.14.95q7.21 3.59 7.23 11.79.02 11.23.03 22.25a1 1 0 0 0 1 1h46.99a1 1 0 0 0 1-1v-32.21a1.03 1.01 22.8 0 0-.3-.72l-4.16-4.07-23.29-23.29-23.17-23.18a1.02.98-21.8 0 0-.71-.29l-91.87.02a1.04 1.01-66.5 0 0-.71.29zm421.73-47.37q-.75 4.23 2.02 6.79c1.75 1.61 2.59 2.52 4 3.66q1.31 2.18 3.36 3.57a.35.31 19.9 0 1 .16.29l-.02.18q-.02.39-.34.15-1.67-1.28-2.87-3.03-.26-.39-.87-.57-1.41-.42-.31.56l4.21 3.73a.96.93 14.6 0 1 .3.49q.37 1.34 1.72 1.64a.99.98-6.7 0 1 .69.54q1.17 2.42 3.7 3.41a1 .97-2.1 0 1 .54.49c1.36 2.84 4.29 3.85 5.73 6.72q-3.01-.85-4.43-3.64a1.04 1.03 2.5 0 0-.37-.4c-2.06-1.24-2.65-3.56-5.16-4.91q-1.67-.9-2.66-2.11c-3.73-4.59-9.44-8.94-11.83-14.18q-1.76-3.84-.13 2.93a1.05 1.02 15.9 0 0 .27.47c9.18 9.31 18.53 18.45 27.65 27.82q2.86 2.93 5.86 5.71c4.87 4.51 9.41 9.65 14.43 14.19l10.58 10.77a1 1 0 0 1 .29.7q.01 49.11-.01 98.22 0 1.47-.27 2.91l-.14.75q-.49 2.62-.52-.04-.49-47.97-.12-95.95c.04-5.25-1.44-8.23-5.72-10.87q-.22-.13-.35-.36-1.06-1.86-2.13-2.95-14.53-14.73-35.46-35.23-.08-.08-5.53-5.1-3.71-3.43-6.88-7.41c-1.83-2.3-2.58-5.13-4.81-7.61-.8-.9-.56.03-.3.26 2.81 2.53 2.01 6.11 4.99 9.07q21.74 21.63 43.36 43.38c2.65 2.66 5.72 6.84 9.24 9.78q1.95 1.64 2.19 4.17c.59 6.39.22 14.12.21 19.25q-.05 32.29.06 64.59 0 .08.49 8.52.37 6.15-1.25 12.12-7.75 9.04-16.86 16.67l-35.49 35.43c-2.85 5.3-6.82 6.59-12.98 6.6q-36.67.01-73.36.01a1 .97-64.5 0 0-.64.24c-2.72 2.31-4.95 4.97-4.96 8.83q-.05 15.85.04 32.36.01 3 1.16 5.77 1.79 4.33 1.71 11.05 1.06 3.13 4.83 1.69 11.49.61 23.36.2 1.79-.06 3.05 1.21c3.2 3.23 1.26 7.14 1.79 11.13q.82 6.26.2 34.32c-.04 1.99-.81 4.1-.68 6.27q.86 14.27 1.09 28.55c.04 2.71-2.2 4.61-4.89 4.65-3.7.07-7.66-.39-10.99-.38q-63.82.16-127.65-.11c-6.58-.02-10.91 1.98-16.56-3.09a.22.21-32.6 0 0-.21-.04l-.26.08a.18.34-4.9 0 1-.23-.36l-.39-15.2q-.21-25.72-.14-51.55.02-8.49 1.49-11.56c2.96-6.17 8.52-6.83 15.34-6.83h18.69a1 1 0 0 0 1-1l.03-191.5 2.5-3.16a.96.95-23.5 0 0 .22-.55c.23-3.79-2.46-4.56-5.74-4.5-10.23.21-21.88.64-33.11-.99q-.66-35.81-.45-71.64.05-8.01 1.63-11.08c2.93-5.72 8.11-6.57 14.59-6.57q96.04-.02 192.07 0 3.61 0 7.23 1.58m-191.19 48.91-.03 21.47a1 1 0 0 0 .96 1q12.85.44 25.03.25.87-.01 4.75 1.82c8.24 5.78 5.71 18.52 5.79 27.21l-.02 51.62.03 41.42-.01 42.71-.02 33.76q-.04 13.84-.01 27.22c.02 11.34-3.46 16.05-15.36 16.37q-10.05.28-20.12-.04a1 1 0 0 0-1.03 1v46.94a1 1 0 0 0 1 1h119.91a.99.99 0 0 0 .99-1l-.16-46.78a1 1 0 0 0-.97-1q-10.73-.24-21.63-.26c-10.23-.03-13.65-5.42-13.63-15.29q.01-11.23-.05-22.42v-13.5q.05-15.86.06-31.76c.01-9.28 4.49-14 13.84-13.98q33.09.08 66.18-.19c3.54-.03 9.53.44 14.43-.22a.96.92 17.5 0 0 .57-.28l22.75-22.82q15.01-14.02 28.55-29.59l-.38-42.66-.02-46.13a1.02.98 28.5 0 0-.18-.57q-1.31-1.89-2.95-2.71L496 60.739l-24.12-24.18a1.03.98 66.5 0 0-.71-.3l-178.62.03a1 1 0 0 0-1 1zm445.96-50.37q-.88 1.99.07 2.88.51.48.64.74c.74 1.48.92 2.89 2.03 4.13q4.15 4.6 8.68 8.85a1 1 0 0 1 .32.69q.03.72.79.83a.95.94 70.7 0 1 .55.27q3.34 3.27 6.57 6.63c1.13 1.18 3.23 2.56 4.37 4.55a1.02 1 77.8 0 0 .78.51q1.31.11 1.78 1.56a1.01.98 9.6 0 0 .36.49c4.81 3.59 7.62 7.74 12.89 13.11q.16.16.23.37.72 2.06 2.72 2.65a1.04 1.02-6.1 0 1 .58.46q.53.9.73 1.04 4.09 2.87 6.66 7.18a1 1.04-1.9 0 0 .37.36q2.9 1.61 4.87 4.34a1.02.99-12.2 0 0 .66.41q1.16.17 1.57 1.39a1 1 0 0 0 .31.45q1.21 1.01 1.75 2.48.3.82.3 3.43.06 122.25-.11 244.5c-.01 1.73-.49 3.42-.47 5.28q-3.04 3.94-4.44 5.35-11.4 11.5-23.06 22.73-.42.41-.82.52-1.02.29-.25-.44 12.66-11.93 24.68-24.52 3.05-3.2 3.34-5.35.2-1.44-1.16-.25c-.19-61.06-.36-122.11-.62-183.17q0-.3.22-.96.15-.46.14-1.12-.21-9.87-.06-23c.09-7.22-.59-20.48.24-31.26.25-3.17.37-9.55-2.03-12.35-3.94-4.59-8.5-8.51-12.65-12.88-3.62-3.8-7.91-7.87-11.73-11.23-10.78-9.53-21.14-20.52-28.77-28.33-2.98-3.05-4.04-6.37-5.75-10.17a1 .98 76.2 0 0-.96-.59q-9.68.53-21.76.41c-23.64-.23-52.37.79-79.94-.48a1.89 1.89 0 0 1-1.75-1.48q-.13-.61-1.37-.6 1.51-.29 3.06-.3 52.72-.35 105.44-.11m294.5.02q2.22 8.35 8.96 14.05-2.91.09-.11 1.88.7.44 1.17 1c3.28 3.93 7.31 6.88 10.57 10.83q1.05 1.28-.28.31-.61-.44-.92-1.07a1 1.02-4.6 0 0-.59-.51q-.95-.3-1.46-1.11c-1.84-2.89-4.64-4.27-6.84-6.87q-.91-1.07-1.98-1.98-2.46-2.11-.37.36 2.64 3.13 5.61 5.94c3.28 3.1 6.29 6.88 9.51 9.5 1.94 1.59 4.66 5.51 5.85 5.76a1.03.96-15.4 0 1 .48.25l8.2 7.72c1.69 2.21 7.78 9.46 10.04 10.45a1.04.98-.1 0 1 .5.47c1.51 3.02 4.47 4.91 5.94 6.73q1.5 1.83 3.28 4.62a.99.94 30.8 0 1 .16.56q-.51 25.95-.26 53.27c.09 9.93.34 17.9.04 27.57q-.33 10.39.57 21.15-7.27 9.23-13.79 15.15-2.67 2.42-3.24 5.98c-.56 3.49.64 5.09 3.28 7.5q4.47 4.07 8.66 8.42c1.34 1.39 3.34 2.45 4.57 4.4a1.04 1.01-60.6 0 1 .15.57q-.84 29.25-.18 58.52.22 9.77-.47 19.59a1.02 1.01 19.6 0 0 .43.9l2.02 1.39q.77.53.8-.4.03-.58-.41-.93a1.01.99 22.5 0 1-.37-.87c.31-3.72-1.26-6.48-1.27-9.82q-.09-33.56.14-67.12c.03-3.92-2.39-4.06-4.19-6.27q-2.14-2.63-4.48-5.04c-1.98-2.05-3.3-4.44-4.93-6.75l6.14 5.52a1 .99 15.9 0 1 .32.57q.28 1.56 1.82 1.99a1.03.99 78.3 0 1 .54.37q1.26 1.7 2.82 3.09 4.36 3.9.58-.57-2.3-2.73-5.43-5.3-.64-.53-1.25-1.34-2.75-3.74.5-.43l9.93 10.12a1.02 1.01 29.5 0 1 .26.91q-.91 4.22-.74 8.81c.82 21.82.15 43.85.36 65.71q0 .5 0 0l.21-49.89q0-.48.01 0 .32 27.67.04 55.44a.99.94 30.8 0 0 .16.56q1.49 2.24 3.69-.02 1.16.15 1.75-.83 14.51-.34 28.66.65.38 2.7.95 5.29.62 2.85.63 5.28.08 36.48-.07 72.97c-.01 1.7-.93 2.9-2.26 3.73a.96 1.01-4.7 0 0-.42.52q-.56 1.61-2.23 2.53c-46.11.1-92.18.21-138.27.55a.34.34 0 0 1-.24-.1l-.19-.2a.51.49-29.8 0 0-.51-.13q-3.82 1.12-7.29-.58a1.05 1 54.5 0 0-.52-.1c-12.68.98-28.75.14-37.75.13q-49.32 0-98.64.02-.08 0-8.05.48-6.59.4-13.01-1.82-.83-7.53-.62-17.61.23-10.7.06-55.14c-.05-12.28 4.28-16.39 16.3-16.42q9.68-.03 18.98-.01a.99.99 0 0 0 1-.99l.03-191.01q-.13-1.94 1.4-2.23a1.01 1.01 0 0 0 .77-.67c1.49-4.63-1.94-5.64-5.7-5.55-6.92.18-13.82-.12-20.73.02q-2.29.05-4.55-.6-2.45-.71-3.47-1.13-1.72-.73-3.92-.84-.14-36.26-.11-72.53c.02-11.74 4.99-15.46 16.28-15.47q98.5-.11 196.99.15m-188.96 51.85-.01 20.22a.99 1-.8 0 0 1.02 1q13.88-.3 28.14.54 3.96 2.68 5.77 6.32 1.29 2.57 1.3 8.07.01 11.05.03 22.1v162q-.05 14.59-.06 29.17c-.01 10.16-5.47 13.97-15.23 13.83q-10.07-.15-20.24.21a1 1 0 0 0-.96 1.01l.22 46.74a.99 1 0 0 0 .99 1q53.68.15 107.74-.07 4.5-.02 6.8-.14a.99 1-1.2 0 0 .95-1v-46.64a1 .99.6 0 0-.98-.99q-7.89-.18-15.77-.14c-8.19.04-14.56-3.65-14.52-12.72q.07-17.89-.02-35.76v-30.75c-.6-12.33 3.13-17.72 15.65-17.75q33.8-.07 67.61.03c16.71.05 13.77 14.87 13.82 25.97v28q-.05 14.65-.06 29.3c-.01 5.69-1.63 9.82-6.55 12.33-5.28 2.68-17.42 1.36-23.68 1.38a1.01 1-.3 0 0-1 1v46.92a1 1 0 0 0 1 1l114.72.1a1 1 0 0 0 1-1l.04-47.01a1 1 0 0 0-1-1q-11.35 0-21.56-.04c-11.02-.05-13.93-5.85-13.93-16.36q-.01-13.32-.06-26.62v-16.75l.01-34.53a.99.98-68.2 0 0-.3-.71q-16.73-16.42-19.65-19.77-1.4-1.6-1.81-5.99c-.1-3.72.85-6.53 3.59-9.33q8.83-9.04 17.87-17.93a.99.98 68.2 0 0 .3-.71l.02-13.35-.03-32.93v-39.25l.04-4.84a1.02.99-67.5 0 0-.28-.7q-12.87-13.47-25.96-25.53-12.24-13.26-24.7-25.16a1 .99 66.8 0 0-.69-.28l-178.58.01a1 1 0 0 0-1 1zm157.91 239.05.18-48.14.41-.91c6.32.29 3.93-8.06-1.48-8.08q-24.15-.12-51.76-.22a.5.5 0 0 0-.51.47l-.03.34a.64.63-10.9 0 1-.37.54q-4.32 1.96-4.23 6.46.63 31.27.27 46.18-.05 1.96.99 5.21a.99 1.01 8.7 0 0 .36.5c2.16 1.61 4.35.36 6.09.41q8.79.22 17.52 1.38c2.18.28 3.44 1.24 5.19 2.41a1.03 1 51.2 0 0 .88.11q2.55-.88 3.41-3.39a1.01 1-76.5 0 1 1.08-.67q11.05 1.47 20.25.73 2.47-.2 1.75-3.33m457.43-289.96q-1.08 2.54.72 4.39a1 .99 23.2 0 1 .28.69c.54 37.77.24 75.58.17 113.36 0 2.44-2.14 5.9-4.52 6.65q-1.09.35-2.22.5-3.72.51.03.42.6-.01 1.21-.15 1.14-.24.32.27c-.86.54-5.65.49-6.87.49q-29.5.03-59 .09-7.09.01-14.18.93a.99.98 65.3 0 1-.87-.33q-1.02-1.14-3.51-.57-1.95-15.09-1.23-30.33l.54-.71q1.02-.15 1.77-.72a1.01.99 78.1 0 0 .37-.58q1.19-5.36-4.12-4.96-4.51.33-8.05.22c-5.16-.15-10.14.18-10.19 6.25q-.28 36.93.09 180.92c.01 2.53 1.41 5.19.7 8.26q-.26 1.15.64 3.82-.56 2.31 1.29 3.04 7.03 1.27 14.19 1.08c4.01-.12 17.36-2.03 17.58 3.83q1.08 27.7.6 76.89c-.02 1.57-.74 3.31-2.09 3.94q-1.88.88-3.95.89c-46.9.4-98.74-.13-148.16-.08a1.02.98-26 0 1-.59-.19c-1.65-1.19-3.42-.41-4.2-2.99a1.05 1.05 0 0 0-.51-.61c-1.03-.52-1.63-1.24-1.63-2.51q.05-35.02-.03-70.04c.85-10.95 8.04-12.2 17.87-12.24q8.47-.03 16.93 0a1 1 0 0 0 1-1l.03-166.76q.42 83.05.14 166.11 0 .15.06.27.21.43.28.09.11-.53.46-.12.83 1 1.76-.17a.98.96 62 0 0 .22-.74c-1.25-10.71-.33-23.63-.33-31.63q-.02-63.46.07-126.91c.01-7.02-.85-20.34.07-30.65q.1-1.07 1.07-3.93c1.53-4.54-2.14-7.09-6.35-6.94-6.36.22-15.75-1.97-17.85 6.64q-1.2 4.91-1.03 6.92c.39 4.75.06 9.49.66 14.23.4 3.15.56 8.26-3.21 7.99-4.62-.32-9.33.29-13.97.24-19.78-.21-39.55.08-59.34-.13q-1.53-.01-3.57.79a1 1 0 0 1-.85-.06l-5.04-2.77a.99.98 9.6 0 1-.5-.7q-.4-2.14-1.47-3.99-.13-.23-.13-.5l-.15-102.79.67-5.75c4.55 4.61 3.08 10.76 3.08 16.49q-.02 47.77.13 95.54a1.01 1 17.6 0 0 .43.82l2.69 1.88a1 1 0 0 0 1.56-.66q.73-4.81.74-9.63.07-40 .25-80 .02-4.6-.34-9.19c-.15-2.05.49-3.69.29-5.64q-.32-3.09.11-6.19.36-2.56 2.94-2.72c3.16-.2 6.51-.63 9.63-.63q130.42-.12 260.84-.05 8.71 0 17.43.42c2.6.12 6.23-.42 3.29-4.14a1 .99-18 0 0-.77-.39c-2.88-.04-5.56-.81-8.19-.8-92.67.24-185.4-.55-278.07.44q-1.98.02-11.77-1.75 3.57-2.54 7.33-2.54 145.47-.02 290.94.02 3.05 0 5.38 1.06m-284.34 50.91-.02 22.81.09 33.71a1 1 0 0 0 1 1l46.88-.02a1 1 0 0 0 1-1q0-11.02.02-22.2c.01-4.27 1.12-7.04 3.78-10.05q4.23-2.99 6.71-2.99 19.6-.03 39.19.01 1.58 0 5.06 2.19 5.16 3.77 5.18 10.29.04 16.38.11 32.75v118.5l-.03 34.94q-.02 13.96-.01 27.36c.02 11.06-3.76 16.06-15.26 15.93q-9.86-.11-19.78.24a1 1 0 0 0-.96 1v46.81a1 1 0 0 0 1 1l119.71-.1a1 1 0 0 0 1-1l.22-46.57a.99 1 .6 0 0-.97-1q-10.88-.31-21.78-.38c-10.45-.06-14.19-4.99-14.18-15.29q.01-13.78-.01-27.88l-.03-37.06v-114q.03-18.72.1-37.44.01-3.09 4.25-8.12 5.34-2.18 6.44-2.18 19.97-.03 39.94.01 1.57 0 5.06 2.19 5.17 3.76 5.2 10.3.05 11.49.06 23a.99 1-.3 0 0 1 1l46.87-.33a1 .99-.6 0 0 .99-1l-.16-32.62.25-14.56-.08-35.81a1 1 0 0 0-.81-.98q-1.9-.37-3.82-.24-3.95.29-4.04.29-129.07-.02-258.16 0a1 1 0 0 0-1 1zm482.98-52.18q-1.12 3.41.27 5.18.69 2.42 2.46 4.21-.46-.22-.86-.51-1.42-1.01-.6.53 2 3.75 6.04 6.95c3.14 2.49 5.29 6.42 8.73 9.2 2.16 1.74 3.55 4.2 5.95 5.84q1.88 1.29 3.01 2.6c2.86 3.33 6.37 5.96 9.16 9.16q2.54 2.91 3.52 3.82 4.4 4.07 16.29 16.97c2.76 3 4.27 3.97 4.27 8.41q.01 23.55-.34 47.07-.02 1.79-.63 3c-1.94 3.25-5.33 2.28-8.54 2.29q-33.34.08-66.68-.08c-2.24-.01-5.17.56-8.06-.22a1 .98-8.2 0 1-.61-.45l-2.79-4.69q-.22-.37-.3-.04l-.04.2q-.27 1.16-.27-.01v-18.47a1.01 1-10.8 0 1 .64-.93q2.38-.92 2.25-3.52a.33.32.8 0 1 .36-.34l.32.03a.41.42 5.8 0 0 .44-.37c.43-4.04-1.75-6.98-5.94-6.98q-24.1.01-50.15.04-.26 0-.49.12-6.27 3.49-5.77 10.38c1.07 14.5.37 29.7.29 44.28q-.02 3.3 1.3 4.8 3.05 3.46 9.6-.42a1.05 1.01 30.6 0 1 .59-.14c7.85.59 17.21-.23 24.23-.24q23-.06 45.99.12c1.99.02 3.46 1.29 3.88 3.11 1.56 8.56 6.18 10.22 11.68 15.64q16.93 16.71 34 33.29c3.47 3.38 7.27 7.74 11.13 11.44q1.53 1.46 2 3.29c.16.63.81 4.59 1.22 4.67a.52.51 5.5 0 1 .42.5l.05 10.45q-.09 42.46-.01 84.93c.01 3.94-1.3 5.62-4.15 7.93q-5.15 4.17-10.77 10.52c-3.35 3.77-6.87 6.99-10.35 10.56q-.98.99-1.95 1.99-14.68 15.06-28.99 29.23c-1.38 1.36-3.41 2.35-4.72 4.25a1.01 1.06 8.2 0 1-.46.36c-2.72 1.07-5-.11-7.14-.1q-46.76.15-93.51-.18c-2.41-.02-4.7 1.16-7.08-1.14-5.29-5.11-9.74-10.34-15.65-15.78-3.62-3.33-6.63-6.95-10.09-10.29q-2.42-2.34-4.62-4.79c-1.72-1.91-6.12-5.15-6.65-7.46a1.01.98 12.6 0 0-.37-.57c-3.52-2.73-6.74-5.81-10.08-8.76q-1.93-1.71-3.45-3.88a.8.79-22.6 0 0-.79-.32q-.57.1-.46-.48a.8.77-61.4 0 0-.19-.69q-1.83-2.01-4.35-2.97-3.16-1.2.25.67 3.19 1.74 4.77 3.53 1.94 2.21 3.85 4.45c3.43 4.02 7.5 7.55 11.02 11.59a1.06 1-14.9 0 0 .61.33q.62.09.84.5 1.42 2.59 3.6 3.91.21.13.34.35 1.34 2.28 3.73 3.5a.96.99 3.4 0 1 .5.58l.53 1.62a.98.96 3.6 0 0 .55.61q2.19.95 3.37 3.1a1.04 1.11-1.1 0 0 .37.38q1.77 1.04 2.22 1.52c3.49 3.74 9.18 8.35 11.69 12.58q.12.19.3.32 1.39.93 2.53 2.13 2.95 3.11-.36.38-2.11-1.74-2.73-2.6-2.38-3.3-5.94-5.27c-8.43-8.82-16.19-17.34-25.52-26.15q-5.48-5.18-10.61-10.73c-2.01-.92-3.26-1.71-4.71-3.69q-1.93-2.64-5.28-3.44a1 .96-13.4 0 1-.53-.31q-1.37-1.59-3.56-.97c-.14-.92-.54-1.78-.54-2.7v-46.92c-.01-11.47 3.07-17.09 14.94-17.11q34.72-.04 69.47-.01c2.31 0 4.01.58 6.2 1.26q.79 15.83.47 31.68-.01.19.06.37l1.07 2.93c-.72 3.3 4.44 1.1 5.4.37l48.22-.09q.81 1.47.42 3.01a.99.99 0 0 1-.88.75c-13.37 1.15-27.34.48-40.78.41-2.58-.02-5.12-1.61-7.81.97a.99.98-38 0 0-.16 1.24l.87 1.41a.95.97-5 0 0 .48.41c4.73 1.86 9.24.87 13.43 1.04 4.77.19 9.88-.53 14.14-.51q10.02.07 20.04-.18c5.09-.13 8.83-2.19 9.38-7.36q.44-4.21.21-18.91c-.03-1.61.3-3.23.27-4.51q-.31-13.14-.44-26.31-.04-3.98-2.61-3.7-2.03.21-1.39 2.38a.64.64 0 0 1-.75.81q-.4-.09.06-.46a1.02 1-17.8 0 0 .38-.72l.2-3.51a.98.93-62.9 0 0-.2-.67c-2.34-3.05-4.42-2.58-7.74-2.61q-37.1-.32-74.21-.22-2.26.01-3.76-1.76-2.91-3.42-6.52-6.03-4.98-6.27-10.73-11.82-.19-.18-.43-.25c-1.5-.4-6.9-6.9-8.35-8.38-3.06-3.16-7.48-8.73-11.85-12.15q-.45-.35-.67-.69-.43-.67-.57-.79-6.7-5.93-12.91-12.38c-2.78-2.9-6.34-4.75-9.56-7.24a1.02 1.02 0 0 1-.39-.84l.25-4.71q.05-1.01.17.05c.28 2.45-.08 4.73 2.8 5.86a.99.98-53.3 0 0 .98-.15q1.56-1.24 1.56-3.01-.05-46.28.03-92.56c.01-4.71.63-7.52 4.12-11.04q27.32-27.63 56.31-56.44a1 .99 37.1 0 1 1.19-.16q.81.45 1.14-.25a.99.99 0 0 1 .7-.55l3.44-.7a.98.97 50.9 0 1 .62.07c2.9 1.38 4.88.83 7.8.84q43.38.16 86.75-.1a.99.98-62.8 0 0 .58-.19q2.74-1.97-.34-3.66-.19-.11-.42-.13-6.27-.41-18.99-.4-36.6.03-73.19.03c-2.45 0-4.64.36-7.57-.22q-3.94-.77-6.61-2.65 4.45-1.37 6.49-1.37 52.52.1 105.71-.2m-126.27 49.89-24.5 24.5-1.37 1.26a1.02 1.01 68.5 0 0-.32.74l-.01 49.04.2 24.81.01 16.39a1.04 1.01 23.5 0 0 .29.71l24.45 24.38 26.35 26.25a1 1 0 0 0 .7.29q39.89.14 79.78.2 5 .01 7.51 1.23c8.37 4.04 6.59 12.73 6.7 20.24v18q-.07 23.25-.04 46.5 0 2.44-1.79 5.5-3.82 5.41-9.96 5.49-20.05.24-70.25 0c-11.51-.06-14.72-4.71-14.81-16.16q-.08-9.89-.01-19.29a1 .99.3 0 0-1-1l-47.05.05a1 1.01 0 0 0-1 1.01l.05 32.54a1.04 1.01 23.5 0 0 .29.71l50.86 50.86a1.02.98-21.8 0 0 .71.29h91.09a1.04 1.01-66.5 0 0 .71-.29l51.55-51.86-.18-48.6v-24.25l-.04-17.79a.99.98-68.2 0 0-.3-.71l-29.58-29.25-21.79-21.63a.97.95-15.9 0 0-.48-.26c-2.88-.68-6.41-.03-8.4-.05q-35.72-.28-71.4-.34c-8.4-.02-13.99-3.83-14.01-12.97l-.18-47.17q.38-11.89.22-24.83-.04-3.51 3.04-7.25 4.12-3.75 7.71-3.75h73.38q2.34 0 4.57.86 2.43.94 4.45 1.66 3.59 5.29 3.59 7.98l.02 24.5a1 1 0 0 0 1 1h47.18a1 1 0 0 0 1-1.01l-.27-32.79-27.88-27.7-22.98-23a1.04 1.01 66.5 0 0-.71-.29l-91.52.06a1.04 1.01-66.5 0 0-.71.29z"/><path d="M629 12.319q1.24-.01 1.37.6a1.89 1.89 0 0 0 1.75 1.48c27.57 1.27 56.3.25 79.94.48q12.08.12 21.76-.41a1 .98 76.2 0 1 .96.59c1.71 3.8 2.77 7.12 5.75 10.17 7.63 7.81 17.99 18.8 28.77 28.33 3.82 3.36 8.11 7.43 11.73 11.23 4.15 4.37 8.71 8.29 12.65 12.88 2.4 2.8 2.28 9.18 2.03 12.35-.83 10.78-.15 24.04-.24 31.26q-.15 13.13.06 23 .01.66-.14 1.12-.22.66-.22.96c.26 61.06.43 122.11.62 183.17-.66 4.07-3.52 5.38-5.83 8.16-2.07 2.5-4.46 3.46-6.8 5.75-14.45 14.18-23.58 23.94-40.96 41.03q-4.54 4.47-6.69 6.18a.96.95-66.5 0 1-.55.22c-3.78.27-7.64.68-11.39.67q-56.25-.24-73.38.05-13.18.22-17.74-.11a1.08 1.03-57.9 0 0-.62.16q-2.17 1.41-4.43-.19-.16-.12-.27-.29-.44-.71-1.34-.83a1.04 1.02-17.8 0 1-.58-.29c-2.14-2.14-5.59-4.4-6.66-7.21a.97.89 11 0 0-.31-.42q-4-3.22-7.53-6.94-2.52-2.66-6.52-6.3-5.33-4.86-9.64-11.44-1.75-2.67-5.21-3.97-.24-.09-.41-.28-7.96-9.34-17.04-17.58c-3.29-3-8.01-3.57-8.62-8.9-.63-5.39-.02-12.22-.02-15.92q-.01-63.28-.25-126.55c-.01-2.57-.84-.83-.89-.23q-.76 9.85-.73 11.98c.72 51.06.5 79.93-.09 110.5q-.08-111-.09-222c0-4.76 1.28-8.31 4.83-11.86q26.14-26.17 52.27-52.34c3.99-4 6.45-7.27 10.7-8.26m-18.25 50.17q-12.47 12.42-25 24.79-.73.72 0 1.79l-.21 67.71.17 53 .08 82-.13 15.76v16.61a1.02.98-68.2 0 0 .29.71l50.85 50.84a.99.98-21.8 0 0 .71.3l91.2.03a1.04 1.01-66.5 0 0 .71-.29l50.82-50.83a.99.98 68.2 0 0 .3-.71l-.08-40.17v-149.5l.03-45.19-.02-1.57a.99.98-68.2 0 0-.3-.71l-25.66-25.17q-12.41-13.4-25.11-25.37a1 .99 66.8 0 0-.69-.28l-91.38.05a1.02.98 21.8 0 0-.71.29zm934.07-49.32q2.67 1.88 6.61 2.65c2.93.58 5.12.22 7.57.22q36.59 0 73.19-.03 12.72-.01 18.99.4.23.02.42.13 3.08 1.69.34 3.66a.99.98-62.8 0 1-.58.19q-43.37.26-86.75.1c-2.92-.01-4.9.54-7.8-.84a.98.97 50.9 0 0-.62-.07l-3.44.7a.99.99 0 0 0-.7.55q-.33.7-1.14.25a1 .99 37.1 0 0-1.19.16q-28.99 28.81-56.31 56.44c-3.49 3.52-4.11 6.33-4.12 11.04q-.08 46.28-.03 92.56 0 1.77-1.56 3.01a.99.98-53.3 0 1-.98.15c-2.88-1.13-2.52-3.41-2.8-5.86q-.12-1.06-.17-.05l-.25 4.71a1.02 1.02 0 0 0 .39.84c3.22 2.49 6.78 4.34 9.56 7.24q6.21 6.45 12.91 12.38.14.12.57.79.22.34.67.69c4.37 3.42 8.79 8.99 11.85 12.15 1.45 1.48 6.85 7.98 8.35 8.38q.24.07.43.25 5.75 5.55 10.73 11.82c-5.15-4.13-9.83-9.36-14.56-13.86-1.42-1.35-2.02-3.04-4.54-3.8a1.02 1.04-8.2 0 1-.54-.41c-3.21-4.87-8.43-9.29-11.35-12.38q-8.38-8.86-17.18-17.32-1.5-1.44-3.86-2.43-3.38-1.4-6.42-3.55-.03-51.5.01-103c0-1.63 1.8-5.37 3.33-6.92q30.4-30.6 60.97-60.94m-394.36 7.36q1.07-3.71 4.27-6.2 9.79 1.77 11.77 1.75c92.67-.99 185.4-.2 278.07-.44 2.63-.01 5.31.76 8.19.8a1 .99-18 0 1 .77.39c2.94 3.72-.69 4.26-3.29 4.14q-8.72-.42-17.43-.42-130.42-.07-260.84.05c-3.12 0-6.47.43-9.63.63q-2.58.16-2.94 2.72-.43 3.1-.11 6.19c.2 1.95-.44 3.59-.29 5.64q.36 4.59.34 9.19-.18 40-.25 80-.01 4.82-.74 9.63a1 1 0 0 1-1.56.66l-2.69-1.88a1.01 1 17.6 0 1-.43-.82q-.15-47.77-.13-95.54c0-5.73 1.47-11.88-3.08-16.49m-645.71 21.46q8.67 7.16 15.64 15.95 2.85 4.8 7.36 8.09.62.46.63 1.84c-5.02-4.54-9.56-9.68-14.43-14.19q-3-2.78-5.86-5.71c-9.12-9.37-18.47-18.51-27.65-27.82a1.05 1.02 15.9 0 1-.27-.47q-1.63-6.77.13-2.93c2.39 5.24 8.1 9.59 11.83 14.18q.99 1.21 2.66 2.11c2.51 1.35 3.1 3.67 5.16 4.91a1.04 1.03 2.5 0 1 .37.4q1.42 2.79 4.43 3.64"/><path d="M528.38 67.869q-.01-1.38-.63-1.84-4.51-3.29-7.36-8.09l16.51 16.16q1.5.44 2.93 2.42.53 52.76.18 105.51-.03 3.23-2.46 6.15-1.68-.05-1.85 1.55a1 .99-17.9 0 1-.34.65l-1.32 1.15q.76-2.17 2.31-3.9 2.91-3.27-.05-.79 1.62-5.97 1.25-12.12-.49-8.44-.49-8.52-.11-32.3-.06-64.59c.01-5.13.38-12.86-.21-19.25q-.24-2.53-2.19-4.17c-3.52-2.94-6.59-7.12-9.24-9.78q-21.62-21.75-43.36-43.38c-2.98-2.96-2.18-6.54-4.99-9.07-.26-.23-.5-1.16.3-.26 2.23 2.48 2.98 5.31 4.81 7.61q3.17 3.98 6.88 7.41 5.45 5.02 5.53 5.1 20.93 20.5 35.46 35.23 1.07 1.09 2.13 2.95.13.23.35.36c4.28 2.64 5.76 5.62 5.72 10.87q-.37 47.98.12 95.95.03 2.66.52.04l.14-.75q.27-1.44.27-2.91.02-49.11.01-98.22a1 1 0 0 0-.29-.7zm1128.91-51.09q3.48 4.92 7.96 8.96l7.5 6.58c.46 1.87 2.07 2.25 3 3.28q2.17 2.41 4.21 4.93c-5-3.14-7.85-7.7-12.44-11.12a.96.97 7.8 0 1-.33-.44c-.77-1.93-2.64-2.88-3.64-4.03q-1.79-2.06-3.8-3.95-1.77-1.79-2.46-4.21"/><path d="M1659.75 20.989q2.01 1.89 3.8 3.95c1 1.15 2.87 2.1 3.64 4.03a.96.97 7.8 0 0 .33.44c4.59 3.42 7.44 7.98 12.44 11.12q1.35 2.16 3.82 3.19a.96.98.5 0 1 .55.57q.58 1.58 2.25 2.09a1.03 1 78.5 0 1 .47.32q3.36 4.02 7.12 7.67 5.49 5.3 10.94 10.71l5.6 5.7-.27-.1q-1.29-.48-.36.53l5.89 6.37a1.02 1.02 0 0 1 .26.68q.08 26.52-.04 53.08-.01 1.31-1.9 2.69.61-1.21.63-3 .35-23.52.34-47.07c0-4.44-1.51-5.41-4.27-8.41q-11.89-12.9-16.29-16.97-.98-.91-3.52-3.82c-2.79-3.2-6.3-5.83-9.16-9.16q-1.13-1.31-3.01-2.6c-2.4-1.64-3.79-4.1-5.95-5.84-3.44-2.78-5.59-6.71-8.73-9.2q-4.04-3.2-6.04-6.95-.82-1.54.6-.53.4.29.86.51m-1471 .3q1.85.66 3.08 2.05.83.94.56-.29-.16-.74-1.05-1.11-.57-.24-.49-.61.09-.48.44-.13c1.55 1.54 12.29 13.36 13.08 13.35a1 1 0 0 1 .76.35q5.01 5.75 7.61 7.91 2.39 1.99 3.97 3.93 2.64 3.27 3.6 4.15c6.28 5.81 12.56 12.57 17.19 16.83.13.12 1.63 2.01-.31.64a.97.96 8.7 0 1-.38-.51q-.11-.36-.37-.54-1.32-.9-.28.31c1.01 1.18 5.61 4.98 5.83 5.83a.97.97 0 0 0 .29.49c2.54 2.34 3.92 4.5 3.93 8.19q.06 24.85.02 49.68 0 .16.09.03l.03-.06q.04-.05.04-.06l.19-49.61q.03-8.96.52-.02.15 2.71.09 5.62c-.29 14.7-.16 29.38-.36 44.08-.03 2.07-1.02 3.75-2.23 5.27a.33.32 39.5 0 0 .05.46c1.37 1.09-5.53 2.79-6.34 2.79-24.17-.11-48.32-.05-72.49.29a1.04 1.03 28.1 0 0-.5.15q-1.44.88-3.01.41a.99.98-6.8 0 1-.59-.46q-1.09-1.94-3.18-.67-2.76-3.49-2.25-8 2.49-.78 2.87 1.88a1 .99 12.9 0 0 .44.7c1.34.87 2.57 1.75 4.26 1.75q38.88.08 77.77.03a1.03.97 22.9 0 0 .67-.25c1.34-1.2 2.45-2.45 2.54-4.39q.63-13.83.22-27.65c-.08-2.9.25-6.15.13-9.26-.07-2.1.46-4.71 0-7.51q-.37-2.2-.21-7.41a.97.94 27.2 0 0-.22-.66q-5.58-6.94-6.92-8.08-3.65-3.1-6.61-6.88-.42-.53-2.18-1.56a.95.97 4.8 0 1-.45-.54c-.66-1.95-2.32-2.42-3.39-3.58q-5.54-5.95-11.82-11.11a1 .99-74 0 1-.35-.64q-.17-1.22-1.47-1.65-.24-.07-.41-.26zm852.21 4.69q2.35 3.03 5.46 5.12c2.4 1.62 5.38 4.86 6.94 7.28 1.9 2.96 4.98 4.36 7.01 6.44q3.2 3.27 6.65 6.36.18.16.31.35 1.23 1.78-.5.43-2.22-1.73-4.1-3.88-.44-.5-.47.01a.4.39-74 0 0 .2.38q1.56.93 2.29 2.69a1.01.99-6.2 0 0 .77.61q1.25.19 1.43 1.46a1.01 1-.7 0 0 .88.85q1.06.12 1.39 1.13a.99.96 2.2 0 0 .59.62c2.15.83 2.94 2.73 4.25 3.86q.97.84 1.95 1.65a.97.94 10.4 0 1 .3.42q.72 1.94 2.17 3.32c1.08 1.03 2.49.79 3.31 2.7l5.37 5.36q.15.15.22.34.96 2.44 3.35 3.61a1.01 1 13.4 0 1 .56.9q-.16 177.19-.33 1.79 0-1.25-1.17-2-2.06-3.44-5.65-4.89a.94.95-4.8 0 1-.49-.42c-1.65-2.79-4.2-4.48-5.95-7.05q-3.1-4.55-7.9-7.43l-8.2-7.72a1.03.96-15.4 0 0-.48-.25c-1.19-.25-3.91-4.17-5.85-5.76-3.22-2.62-6.23-6.4-9.51-9.5q-2.97-2.81-5.61-5.94-2.09-2.47.37-.36 1.07.91 1.98 1.98c2.2 2.6 5 3.98 6.84 6.87q.51.81 1.46 1.11a1 1.02-4.6 0 1 .59.51q.31.63.92 1.07 1.33.97.28-.31c-3.26-3.95-7.29-6.9-10.57-10.83q-.47-.56-1.17-1-2.8-1.79.11-1.88m108.83.3.15 102.79q0 .27.13.5 1.07 1.85 1.47 3.99a.99.98 9.6 0 0 .5.7l5.04 2.77a1 1 0 0 0 .85.06q2.04-.8 3.57-.79c19.79.21 39.56-.08 59.34.13 4.64.05 9.35-.56 13.97-.24 3.77.27 3.61-4.84 3.21-7.99-.6-4.74-.27-9.48-.66-14.23q-.17-2.01 1.03-6.92c2.1-8.61 11.49-6.42 17.85-6.64 4.21-.15 7.88 2.4 6.35 6.94q-.97 2.86-1.07 3.93c-.92 10.31-.06 23.63-.07 30.65q-.09 63.45-.07 126.91c0 8-.92 20.92.33 31.63a.98.96 62 0 1-.22.74q-.93 1.17-1.76.17-.35-.41-.46.12-.07.34-.28-.09-.06-.12-.06-.27.28-83.06-.14-166.11l-.04-25.5q.78-1.09 1.99-1.57a1 1.01-7.3 0 0 .63-.82c.77-6.52-7.74-4.86-11.45-4.86-5.87.01-10.08 1.97-9.9 8.49q.36 13.29.19 22.47-.04 2.01-2.93 4.99a1.02 1.01-69.2 0 1-.68.31c-2.9.11-5.73.95-8.45.96-22.5.08-45.19-.59-67.66.16q-4.47.15-8.94-.22-1.72-2.67-1.74-5.72-.17-37.95-.02-107.44"/><path d="M1069.8 57.989q4.8 2.88 7.9 7.43c1.75 2.57 4.3 4.26 5.95 7.05a.94.95-4.8 0 0 .49.42q3.59 1.45 5.65 4.89c.3.92.75 2.15.74 3.12q-.18 48.55.18 97.09c.01 1.55-.49 3.14-.64 4.82q-.9-10.76-.57-21.15c.3-9.67.05-17.64-.04-27.57q-.25-27.32.26-53.27a.99.94 30.8 0 0-.16-.56q-1.78-2.79-3.28-4.62c-1.47-1.82-4.43-3.71-5.94-6.73a1.04.98-.1 0 0-.5-.47c-2.26-.99-8.35-8.24-10.04-10.45"/><path d="M1081.79 67.779q3.48 2.31 6.05 5.63c1.6 2.07 3.88 3.06 3.88 6.62q-.01 51.88.07 103.75v.75c-.55 2.54-10.28 11.16-12.66 13.6-2.35 2.4-4.9 6.75-2.34 9.9 1.63 2.31 2.95 4.7 4.93 6.75q2.34 2.41 4.48 5.04c1.8 2.21 4.22 2.35 4.19 6.27q-.23 33.56-.14 67.12c.01 3.34 1.58 6.1 1.27 9.82a1.01.99 22.5 0 0 .37.87q.44.35.41.93-.03.93-.8.4l-2.02-1.39a1.02 1.01 19.6 0 1-.43-.9q.69-9.82.47-19.59-.66-29.27.18-58.52a1.04 1.01-60.6 0 0-.15-.57c-1.23-1.95-3.23-3.01-4.57-4.4q-4.19-4.35-8.66-8.42c-2.64-2.41-3.84-4.01-3.28-7.5q.57-3.56 3.24-5.98 6.52-5.92 13.79-15.15c.15-1.68.65-3.27.64-4.82q-.36-48.54-.18-97.09c.01-.97-.44-2.2-.74-3.12q1.17.75 1.17 2 .17 175.4.33-1.79a1.01 1 13.4 0 0-.56-.9q-2.39-1.17-3.35-3.61-.07-.19-.22-.34zm628.92 3 6.24 7.08a.99.97 24.6 0 1 .25.65l.09 26.52q-.07 12.46-.03 24.92c.01 4.16-2.38 7.71-6.55 8.58l-3-.25q.85-.04 1.65-.21 6.22-1.28-.12-1.58l-3.49-.17c3.21-.01 6.6.96 8.54-2.29q1.89-1.38 1.9-2.69.12-26.56.04-53.08a1.02 1.02 0 0 0-.26-.68l-5.89-6.37q-.93-1.01.36-.53zm-1170.88 5.74q1.17 3.94 1.17 5.01.01 51.24-.01 102.51-.93 2.73-3.44 4.14 2.43-2.92 2.46-6.15.35-52.75-.18-105.51m-71.62 10.26q5.8 4.05 5.79 11.25-.03 13 .04 26l-.02 40.12c.64 11.51-3.72 16.86-15.41 16.87q-33.83.04-67.65-.01c-7.9-.02-13.22-3.39-14-11.73v-42.5l.04-31q.01-5.03 5.35-8.79 3.39-1.95 5.15-1.95 38-.02 76-.01 1.24 0 4.71 1.75m-66.71 70.21 47.2-.27a1 1 0 0 0 .99-1l.02-46.19.83-1q2.27-.76 1.91-2.69c-.59-3.16-3.38-3.6-6.35-3.61q-36.15-.17-44.16.42-7.14.54-7.16 7.62-.04 22.13-.03 44.28 0 2.16 1.14 3.99c1.55 2.51 4.42-.31 5.61-1.55m328.54-65.96q1.46 3.03 1.46 4.75-.03 20.75.04 41.5v161.75c-.08 8.27 2.52 21.9-6.17 26.47q-2.86 1.5-10 1.53-32.97.12-65.95-.01c-12.19-.04-14.93-5.72-14.92-17.41q.03-19.04-.04-38.08v-65.75l.02-41.73-.02-31.02q.07-17.75.1-35.5 0-4.28 2.74-8.29c2.95-2.89 5.98-4.18 10.39-4.19q34.68-.04 69.37-.01c6.02 0 9.84 1.09 12.98 5.99m-76.83 208 .16 4.67a1 1 0 0 0 .98.96q2.7.07 4.48-1.67l47.37-.27a1 1 0 0 0 .99-1l.04-189.91q8.38-6.41 1.1-10.48-1.96-1.09-4.89-1c-11.91.34-23.78-.1-35.68.17-3.52.08-11.3-.89-14.1 1.06-3.15 2.2-4.32 4.18-4.41 8.29-.12 5.02-.59 31.79-.04 31.96a.32.32 0 0 1 .23.31c.32 48.84.76 97.63.67 146.47 0 1.94.42 4.21-.23 6.56a1.01.98 30.1 0 0 .28.99zm371.86-204.87.22 45.62v29c-.67 9.45-6.59 12.25-15.3 12.25q-33.67.02-67.34-.02c-7.17-.01-11.78-2.2-14.11-9l-.33-52.23q.07-11.13.1-22.25.01-7.14 5.94-10.79 3.32-1.7 4.56-1.7 35.52-.02 71.05-.01c7.85 0 12.62 1.7 15.21 9.13m-25.57 62.66q2.3.2 1.54-2.04l.19-43.2a1.02 1-16.9 0 1 .46-.84q7.15-4.56.88-10.03a1 .98-23.7 0 0-.66-.25q-22.84-.06-45.72.04-.07 0-3.41-.17-5.38-.27-7.9 3.48c-2.98 4.44-1.81 12.21-1.46 18.16q.47 8.16.01 33.35-.01.26-.14.48-.39.69-.27 1.21 1.27 5.31 6.32 4.84c2.89-.27 4.22-2.58 7.44-2.57q32.53.11 40.77-.05 2.6-.06 1.95-2.41m-843.29-44.79v-2q2.48-3.43-.05-6.17a1.02.99 67.9 0 0-.73-.32q-24.38-.01-45.65-.01c-5.47 0-6.22-.97-9.18 4.22-1.11 1.96-.32 4.48-.33 6.01q-.13 20.52.11 41.06 0 .21.09.4 2.89 6.44 7.02 2.33c.59-.6.74-.48 1.51-.73l73.48.05 2.27 3.7c1 2.5 1.46 4.85 3.31 6.86q3.13 3.41 6.68 6.35.89.74 2.97 2.57 3.79 3.33 6.45 7.54-9.48-7.82-17.83-16.71c-1.56-1.67-2.01-3.5-2.63-5.59q-.64-2.16-2.94-1.87c-1.92.25-3.7-.44-5.35-.44-17.88 0-35.77-.2-53.65.31q-5.82.16-11.63-.26a1 1 0 0 0-.67.19q-2.81 2.08-6.21 2.14c-2.21.05-5.01-2.51-5.01-4.37q-.01-23.35.05-46.68c0-2.39.99-4.67 1.65-6.94a.97.99-8.2 0 1 .41-.56q4.06-2.62 8.16-2.6 23.39.09 46.8-.2c4.93-.06 6.87 3.83 4.2 8.08a1.03.99 7 0 1-.57.43q-.85.24-1.13 1.06a1 1.01 2.9 0 1-.7.64q-.97.25-.9 1.51m-45.65-8.94q5.32.07 10.63.13-5.31-.06-10.63-.13"/><path d="m707.23 111.809-.02-2.28c2.02-3.33.68-5.4-3.05-5.47q-16.62-.31-33.24-.02c-3.45.06-7.83.05-10.41-.35q-3.02-.46-4.93.01a1.05 1.04-78.4 0 0-.57.38q-2.58 3.47-2.57 5.2.5 91.47.23 182.94-.01 3.17.62 6.31l-.08.5-3.05-2.89a1.01.98 30.1 0 1-.28-.99c.65-2.35.23-4.62.23-6.56.09-48.84-.35-97.63-.67-146.47a.32.32 0 0 0-.23-.31c-.55-.17-.08-26.94.04-31.96.09-4.11 1.26-6.09 4.41-8.29 2.8-1.95 10.58-.98 14.1-1.06 11.9-.27 23.77.17 35.68-.17q2.93-.09 4.89 1 7.28 4.07-1.1 10.48m293.81 42.97v-44.25q.07-1.64 1.66-2.06a.99.98 6.4 0 0 .61-.48q1.79-3.15-1.3-5.36a1 .93 61.6 0 0-.57-.19q-21.44-.33-42.92.11c-5.91.12-12.41-1.59-12.37 7.3q.11 22.38.15 44.77c.01 2.88.74 5.65 4.32 4.67a.98 1 8.7 0 0 .6-.45q.71-1.2 1.78-1.85l46.5-.17q.65 2.35-1.95 2.41-8.24.16-40.77.05c-3.22-.01-4.55 2.3-7.44 2.57q-5.05.47-6.32-4.84-.12-.52.27-1.21.13-.22.14-.48.46-25.19-.01-33.35c-.35-5.95-1.52-13.72 1.46-18.16q2.52-3.75 7.9-3.48 3.34.17 3.41.17 22.88-.1 45.72-.04a1 .98-23.7 0 1 .66.25q6.27 5.47-.88 10.03a1.02 1-16.9 0 0-.46.84zm704.71-18.46 3.49.17q6.34.3.12 1.58-.8.17-1.65.21-5.57.38-11.15.31-29.96-.39-59.94-.36-1.9 0-4.77-.68-2.25-.53-4.82-.7-.94-13.08-.49-26.32.93-1.8 2.72-2.91a1 1 0 0 0 .47-.75c.58-6.21-7.93-5.2-11.42-5.16q-19.4.21-38.8-.03c-7.95-.1-9.73 4.69-9.77 11.61q-.12 17.61.47 42.48c.1 4.04 2.75 5.39 6.43 4.34a.97.98 4.9 0 0 .62-.53l1.24-2.59 72.75-.17q3.13 2.32 5.04 5.71 2.4 4.52 5.92 8.25-4.32-3.7-7.67-8.28c-.42-1.82-1.89-3.09-3.88-3.11q-22.99-.18-45.99-.12c-7.02.01-16.38.83-24.23.24a1.05 1.01 30.6 0 0-.59.14q-6.55 3.88-9.6.42-1.32-1.5-1.3-4.8c.08-14.58.78-29.78-.29-44.28q-.5-6.89 5.77-10.38.23-.12.49-.12 26.05-.03 50.15-.04c4.19 0 6.37 2.94 5.94 6.98a.41.42 5.8 0 1-.44.37l-.32-.03a.33.32.8 0 0-.36.34q.13 2.6-2.25 3.52a1.01 1-10.8 0 0-.64.93v18.47q0 1.17.27.01l.04-.2q.08-.33.3.04l2.79 4.69a1 .98-8.2 0 0 .61.45c2.89.78 5.82.21 8.06.22q33.34.16 66.68.08"/><path d="M1571.28 107.629q2.63-5.74 6.72-5.59 9.73.36 19.43.39.17 0 .23.14a.18.15-9.6 0 1-.18.21q-9-.08-17.98.2c-8.73.27-7.85 6.59-8.1 12.99q-.03.75-.04 0l-.18-7.9q0-.23.1-.44m-1386.53 52.94q1.15.16 1.4 1.4c.64 3.16 3.14 3.97 4.67 5.78q6.41 7.6 11.91 11.3 3.17 2.13 5.21 4.32c5.61 6.01 11.68 11.05 17.29 17.34q7.22 8.09 15.27 15.36l6.2 6.11a.99.98-68.2 0 1 .3.71v106.96a1.07.99-31.4 0 1-.15.53l-2.09 3.38c-1.79 2.06-4.28 3.5-5.84 5.21q-2.08 2.26-4.08 4.62l-16.55 15.94c3.86-4.98 8.37-8.97 12.68-13.63q2.48-2.68 5.28-5.04c1.67-1.41 2.58-3.53 4.78-4.79q.15-.08.26-.22l2.14-2.52q.5-8.51.28-22.11-.18-10.11.25-52.51c.07-6.92-.84-19.08.27-28.49q.26-2.15.08-3.99-.18-1.8-1.71-3.36-2.84-2.91-5.82-5.72a1.03 1-72.9 0 1-.3-.59q-.14-.98-1.09-1.06a1.03 1.01 72.2 0 1-.68-.36l-4.03-4.83a.99.97 77.3 0 0-.5-.32q-1.31-.37-1.57-1.72a.99.95 16.1 0 0-.33-.57q-6.05-5.16-11.54-10.91c-1.01-1.05-1.43-2.19-2.54-3.12q-1.93-1.62-3.55-3.53a1.06 1.02 73.5 0 0-.62-.35q-1.35-.19-1.75-1.49a.98.98 0 0 0-.48-.58q-2.54-1.38-3.64-3.83-2.66-4.21-6.45-7.54-2.08-1.83-2.97-2.57-3.55-2.94-6.68-6.35c-1.85-2.01-2.31-4.36-3.31-6.86m1469.79 1.93q3.35 4.58 7.67 8.28l3.36 3.46q12.61 13.15 17.14 17.08 5.12 4.44 7.85 7.96a1.01.94-9.2 0 0 .54.36q3.26.84 4.94 3.82a.99.99 0 0 0 .83.51c1.31.04 6.34 5.54 8.42 7.81l5.39 5.1a.2.19 20.9 0 1 .07.15v.32a.5.52 6.3 0 0 .39.5q.9.22 1.42.86 1.18 1.46-.35.38l-.5-.34q-.8-.52-1.34-1.09-4.3-4.5-8.97-8.67-.87-.77-.42.3.18.44.69.56a.99.98 77.9 0 1 .58.38q1.56 2.13 3.71 3.69c1.17.85 1.48 2.5 2.79 3.48q4.07 3.03 6.22 5.56a1 1 0 0 1 .24.65l-.17 18.17-.05-10.45a.52.51 5.5 0 0-.42-.5c-.41-.08-1.06-4.04-1.22-4.67q-.47-1.83-2-3.29c-3.86-3.7-7.66-8.06-11.13-11.44q-17.07-16.58-34-33.29c-5.5-5.42-10.12-7.08-11.68-15.64"/><path d="M1656.29 162.529q1.68 1.32 2.59 3.23a.93.9 3.6 0 0 .38.42q2.81 1.73 4.53 4.6 1.74 2.38 3.99 4.23 1.41 1.16.52.91a1 .96-4.2 0 1-.64-.53q-.56-1.2-2.09-1.15l-3.36-3.46q-3.52-3.73-5.92-8.25"/><path d="M1663.79 170.779c2.79 1.62 4.04 3.75 6.86 5.86q1.35 1.02 8.1 7.18 1.25 1.58 7.25 7.46 20.24 19.82 24.1 23.35-1.36.14-1.77-1.05a.98.98 0 0 0-.5-.57l-2.54-1.23c-2.08-2.27-7.11-7.77-8.42-7.81a.99.99 0 0 1-.83-.51q-1.68-2.98-4.94-3.82a1.01.94-9.2 0 1-.54-.36q-2.73-3.52-7.85-7.96-4.53-3.93-17.14-17.08 1.53-.05 2.09 1.15a1 .96-4.2 0 0 .64.53q.89.25-.52-.91-2.25-1.85-3.99-4.23m-1653.75 4 .2 7.29a1 .98 14.2 0 0 .52.85l1.2.66q.15.08.27.21 3.02 3.35 7.38 4.23a3.84 1.43 61.4 0 1 2.04 1.77q.4.57 1.26.66a1.02 1.01-15.5 0 1 .68.38c2.05 2.65 3.78 5.36 6.15 7.68q4.11 4.02 8.23 8.04c3.83 3.75 8.42 8.91 12.93 13.11 4.27 3.98 8.41 8.83 13.08 12.85q.68.59 1.13 1.35.87 1.49.93 1.53.23.13 4.11 3.47l7.43 6.42a1 1 0 0 0 .65.24q38.42 0 76.83.26c4.81.03 8.02 4.64 3.42 7.85a1.04 1.01-14.1 0 0-.43.7q-.15 1.32-1.33 1.97a.99.99 0 0 0-.52.87l-.16 14.11.17-16.75c.78-.85 1.62-.94 2.34-1.74 1.95-2.19.44-4.31-2.02-4.83-7.02-1.48-15.53-.78-22.78-.97l-55.27-.15q-2.34 0-4.17-1.31c-2.89-2.07-5.55-5.86-8.18-8.25q-4.05-3.69-7.83-7.64a.29.25 67.5 0 0-.16-.08l-.3-.03a.62.62 0 0 1-.43-.25q-5.63-7.5-13.41-12.71-2.29-2.12-4.56-4.24c-1.04-.98-2.1-2.54-3.38-3.56-3.17-2.51-5.81-5.63-8.83-8.32-3.93-3.52-7.32-7.24-11.17-10.7a1.01 1 58.2 0 0-.91-.22q-1.13.27-1.7-.51a1.02 1 65.2 0 0-1.01-.38l-1.22.25q-1.87-6.91-1.18-14.11m785.75 154.75q1.36-1.19 1.16.25-.29 2.15-3.34 5.35-12.02 12.59-24.68 24.52-.77.73.25.44.4-.11.82-.52l-1.84 2.39c-3.66.51-7.45 6.32-10.21 8.92q-3.52 3.31-6.18 7.4l-3.27 3.29q-2.75 1.67-4.68 4.23a.52.52 0 0 1-.83-.02q-.49-.69-1.46.85-1.94 3.09-4.95 4.83-2.19 1.27-5.94 1.29-46.42.24-92.83-.51c-6-.1-10.21 2.33-14.86-3.4-2.87-3.53-6.69-6.5-9.72-10.04q-.54-.63-1.69-1.02-1.83-2.26-3.87-4.3c-4.24-4.24-8.18-8.63-12.76-12.52q-.93-.79-1.89-2.23c-1.1-1.66-3.34-3.53-4.26-4.48q-2.49-2.61-5.17-5.02l-14.09-13.95q-1.04-1.03-7.93-3.48l-.28-25.02c.59-30.57.81-59.44.09-110.5q-.03-2.13.73-11.98c.05-.6.88-2.34.89.23q.24 63.27.25 126.55c0 3.7-.61 10.53.02 15.92.61 5.33 5.33 5.9 8.62 8.9q9.08 8.24 17.04 17.58.17.19.41.28 3.46 1.3 5.21 3.97 4.31 6.58 9.64 11.44 4 3.64 6.52 6.3 3.53 3.72 7.53 6.94a.97.89 11 0 1 .31.42c1.07 2.81 4.52 5.07 6.66 7.21a1.04 1.02-17.8 0 0 .58.29q.9.12 1.34.83.11.17.27.29 2.26 1.6 4.43.19a1.08 1.03-57.9 0 1 .62-.16q4.56.33 17.74.11 17.13-.29 73.38-.05c3.75.01 7.61-.4 11.39-.67a.96.95-66.5 0 0 .55-.22q2.15-1.71 6.69-6.18c17.38-17.09 26.51-26.85 40.96-41.03 2.34-2.29 4.73-3.25 6.8-5.75 2.31-2.78 5.17-4.09 5.83-8.16m684.72-145.5q3.04 2.15 6.42 3.55 2.36.99 3.86 2.43 8.8 8.46 17.18 17.32c2.92 3.09 8.14 7.51 11.35 12.38a1.02 1.04-8.2 0 0 .54.41c2.52.76 3.12 2.45 4.54 3.8 4.73 4.5 9.41 9.73 14.56 13.86q3.61 2.61 6.52 6.03 1.5 1.77 3.76 1.76 37.11-.1 74.21.22c3.32.03 5.4-.44 7.74 2.61a.98.93-62.9 0 1 .2.67l-.2 3.51a1.02 1-17.8 0 1-.38.72q-.46.37-.06.46a.64.64 0 0 0 .75-.81q-.64-2.17 1.39-2.38 2.57-.28 2.61 3.7.13 13.17.44 26.31c.03 1.28-.3 2.9-.27 4.51q.23 14.7-.21 18.91c-.55 5.17-4.29 7.23-9.38 7.36q-10.02.25-20.04.18c-4.26-.02-9.37.7-14.14.51-4.19-.17-8.7.82-13.43-1.04a.95.97-5 0 1-.48-.41l-.87-1.41a.99.98-38 0 1 .16-1.24c2.69-2.58 5.23-.99 7.81-.97 13.44.07 27.41.74 40.78-.41a.99.99 0 0 0 .88-.75q.39-1.54-.42-3.01l.17-48.24q2.95-.98 2.98-4.05a1.04 1.02-67.9 0 0-.3-.73c-1.64-1.59-2.83-2.45-5.29-2.49q-38.57-.71-77.16-.47a1.02 1-23.2 0 1-.69-.27q-.81-.76-1.01-.2a.4.4 0 0 1-.57.23c-3.99-2.09-6.19-6.17-8.5-8.56-4.58-4.75-9.09-9.44-14.1-13.75-3-2.58-4.18-5.78-6.69-8.08-3-2.74-5.74-5.79-8.71-7.87-2.17-1.51-3.39-3.54-5.11-4.89q-6.99-5.48-13.05-11.95-2.68-2.86-6.51-2.71-1.17-2.22-1.28-4.75m-946.47 7.5q-.05 1.47-1.39 1.59a1.03 1 12.1 0 0-.78.49q-.82 1.39-.87.65-.03-.57-.37-.11l-2.92 3.88q-2.5 2.82-5.75 4.75-1.6.22-1.91 1.71a.97.95 74.1 0 1-.26.48l-4.33 4.56q-1.32.56-1.51 1.95a1.01.99 76.8 0 1-.42.69l-1.15.79a1.02 1.02 0 0 0-.4.59q-.31 1.26-1.54 1.89a.93.98 2.9 0 0-.42.4l-.9 1.61a.98 1.03 9 0 1-.64.49q-1.38.33-2.44 1.34 1.58-2.68 3.96-4.71c.98-1.24 5.95-5.92 6.08-6.78a.99 1-3.1 0 1 .72-.81q.81-.24.97-1.1a1 1 0 0 1 .63-.76q1.25-.47 1.04-1.61 9.11-7.63 16.86-16.67 2.96-2.48.05.79-1.55 1.73-2.31 3.9"/><path d="m521.96 202.779-.12 1.61-3.43 3.57a.26.25-40.6 0 1-.4-.03c-.14-.21-2.4 2.28-2.54 2.35q-1.24.64-.01-.75l4.33-4.56a.97.95 74.1 0 0 .26-.48q.31-1.49 1.91-1.71"/><path d="M519.44 203.509q.21 1.14-1.04 1.61a1 1 0 0 0-.63.76q-.16.86-.97 1.1a.99 1-3.1 0 0-.72.81c-.13.86-5.1 5.54-6.08 6.78q-2.53 1.27-4 3.72a1 .99-78 0 1-.73.48q-1.12.14-1.29 1.17a1 .99 79.3 0 1-.49.72q-1.97 1.12-2.95 3.12c-.82 1.76-2.56 2.12-2.6 4.15a.98.97 70.5 0 1-.35.75l-2.57 2.17.25-.51q.81-1.65-.52-.39l-2.75 2.62q-1.54.5-2.09 1.84a.97.99-.5 0 1-.52.54c-2.26 1-2.92 3.12-5.44 3.99zm1185.85 8.27 2.54 1.23a.98.98 0 0 1 .5.57q.41 1.19 1.77 1.05.35 2.08 2.13 2.44.24.05.43.2c2.87 2.34 4.58 4.8 4.58 8.77q.02 51.48.01 102.96 0 .2-.08.39l-1.63 3.89c-2.3 2.42-7.76 6.65-9.02 9.4a.99.98-4.5 0 1-.37.43q-2.58 1.62-4.4 4.14l-12.5 12.07q-4.1 2.78-7.28 6.55c-.28.33-5.39 5.42-5.46 5.42a.8.8 0 0 0-.57.26l-3.55 3.89q-2.74 3.01.55.61l.31-.23-12.78 12.65q2.77-3.77 6.32-6.86a.24.17-45.8 0 0 .05-.31c-.54-.39-6.52 5.51-7.62 6.67q-2.83 2.97-6.72 5.11-80.37.55-105.19.18-2.29-.03-4.44-2.89l-11.62-12.05q3.56 1.97 5.94 5.27.62.86 2.73 2.6 3.31 2.73.36-.38-1.14-1.2-2.53-2.13-.18-.13-.3-.32c-2.51-4.23-8.2-8.84-11.69-12.58q-.45-.48-2.22-1.52a1.04 1.11-1.1 0 1-.37-.38q-1.18-2.15-3.37-3.1a.98.96 3.6 0 1-.55-.61l-.53-1.62a.96.99 3.4 0 0-.5-.58q-2.39-1.22-3.73-3.5-.13-.22-.34-.35-2.18-1.32-3.6-3.91-.22-.41-.84-.5a1.06 1-14.9 0 1-.61-.33c-3.52-4.04-7.59-7.57-11.02-11.59q-1.91-2.24-3.85-4.45-1.58-1.79-4.77-3.53-3.41-1.87-.25-.67 2.52.96 4.35 2.97a.8.77-61.4 0 1 .19.69q-.11.58.46.48a.8.79-22.6 0 1 .79.32q1.52 2.17 3.45 3.88c3.34 2.95 6.56 6.03 10.08 8.76a1.01.98 12.6 0 1 .37.57c.53 2.31 4.93 5.55 6.65 7.46q2.2 2.45 4.62 4.79c3.46 3.34 6.47 6.96 10.09 10.29 5.91 5.44 10.36 10.67 15.65 15.78 2.38 2.3 4.67 1.12 7.08 1.14q46.75.33 93.51.18c2.14-.01 4.42 1.17 7.14.1a1.01 1.06 8.2 0 0 .46-.36c1.31-1.9 3.34-2.89 4.72-4.25q14.31-14.17 28.99-29.23.97-1 1.95-1.99c3.48-3.57 7-6.79 10.35-10.56q5.62-6.35 10.77-10.52c2.85-2.31 4.16-3.99 4.15-7.93q-.08-42.47.01-84.93l.17-18.17a1 1 0 0 0-.24-.65q-2.15-2.53-6.22-5.56c-1.31-.98-1.62-2.63-2.79-3.48q-2.15-1.56-3.71-3.69a.99.98 77.9 0 0-.58-.38q-.51-.12-.69-.56-.45-1.07.42-.3 4.67 4.17 8.97 8.67.54.57 1.34 1.09l.5.34q1.53 1.08.35-.38-.52-.64-1.42-.86a.5.52 6.3 0 1-.39-.5v-.32a.2.19 20.9 0 0-.07-.15z"/><path d="M510 214.569q-2.38 2.03-3.96 4.71l-.08.25q-3.12.98-4.02 4.36-2.08 2.21-1.4-.11.98-2 2.95-3.12a1 .99 79.3 0 0 .49-.72q.17-1.03 1.29-1.17a1 .99-78 0 0 .73-.48q1.47-2.45 4-3.72m-466 2q7.78 5.21 13.41 12.71a.62.62 0 0 0 .43.25l.3.03a.29.25 67.5 0 1 .16.08q3.78 3.95 7.83 7.64c2.63 2.39 5.29 6.18 8.18 8.25q1.83 1.31 4.17 1.31l55.27.15q-26.62.05-53.25.58-1.47.03-2.96.21a1.07 1.03-34.7 0 1-.55-.09c-2.2-1.06-4.05-1.54-5.78-3.44-1.72-1.9-3.95-3.39-5.53-5.04-3.67-3.83-7.05-7.65-11.02-11.44q-5.6-5.35-10.66-11.2"/><path d="M505.96 219.529q.08 1.49-1.32 1.7a1 1 0 0 0-.74.54c-.7 1.39 2.07-1.17 1.24-.08q-1.23 1.61-3.2 2.2.9-3.38 4.02-4.36M492 232.569q-.08.65-.41 1.24-.15.26.13.13.54-.25-.22 1.3-5.38 3.97-9.5 9.25-2.91 3.63-7.99 3.58-28.18-.27-72.46.15c-4.83.04-6.99 3.87-7.02 8.4q-.2 23.58.39 47.18.08-6.72-1.71-11.05-1.15-2.77-1.16-5.77-.09-16.51-.04-32.36c.01-3.86 2.24-6.52 4.96-8.83a1 .97-64.5 0 1 .64-.24q36.69 0 73.36-.01c6.16-.01 10.13-1.3 12.98-6.6 2.52-.87 3.18-2.99 5.44-3.99a.97.99-.5 0 0 .52-.54q.55-1.34 2.09-1.84m509.54 21.21-.08-1.5q.33-1.6-.21-3.02a1 .99 78.9 0 0-.96-.65q-17.18.4-34.36.02-10.23-.23 0-.42l2.76-.05q1.21-.03.01-.03l-17.54-.07q-2.83-.01-3.83 2.72c-.59 1.61-1.54 2.85-1.55 4.76q-.15 23.06.11 46.1.01.7.3 1.21.1.18.22.35.88 1.31.59-.24-.4-2.22-.1-4.49.07-.48.07-.86.15-82.75.32 1.11c.01 1.71-.96 3.02 1.15 4.02q2.52 1.9 4.31.25 9.9-.49 19.85-.04c2.28.11 4.04 1.8 6.67.16a.99.97-60.5 0 1 .52-.15l21.16-.13q.72 3.13-1.75 3.33-9.2.74-20.25-.73a1.01 1-76.5 0 0-1.08.67q-.86 2.51-3.41 3.39a1.03 1 51.2 0 1-.88-.11c-1.75-1.17-3.01-2.13-5.19-2.41q-8.73-1.16-17.52-1.38c-1.74-.05-3.93 1.2-6.09-.41a.99 1.01 8.7 0 1-.36-.5q-1.04-3.25-.99-5.21.36-14.91-.27-46.18-.09-4.5 4.23-6.46a.64.63-10.9 0 0 .37-.54l.03-.34a.5.5 0 0 1 .51-.47q27.61.1 51.76.22c5.41.02 7.8 8.37 1.48 8.08m-576.38 49.14q2.19 2.79 3.73 5.98.93 1.91.83 4.45c-.49 12.59.52 24.25.16 39.13a.18.08-32.8 0 1-.07.11l-.18.18a.34.34 0 0 0-.1.24l.25 27.56q.06 7.16.52.01.2-3.13.15-6.27-.15-8.61-.15-8.68.25-24.32.01-48.64-.11-10.82.42-.01.18 3.78.2 8.05.12 39.69.03 59.57-.02 4.66-1.63 6.47-1.83 2.04-4.57 2.05-69.51.14-139.01.43-1.73.01-3.13.18-4.4.51.03.52 59.35.04 118.7.04c4.19 0 9.55.37 14.33.28q.53-.01.01.07-4.33.63-8.69.14-1.19-.14-5.25-.08-8.92.14-.01.53l.26.01-15.37.04a1.02.98-60.3 0 0-.54.16q-.88.57-1.69.05a1.06 1.04 60.2 0 0-.54-.15q-47.3-.09-94.61-.04-8.79.01-11.15.23a.99.96-64.4 0 0-.51.19q-2.34 1.74-4.69.28a1.02 1.01-45.3 0 0-1.06.01q-.5.31-1.66.46-4.74-11.22-2.8-23.75l.39 15.2a.18.34-4.9 0 0 .23.36l.26-.08a.22.21-32.6 0 1 .21.04c5.65 5.07 9.98 3.07 16.56 3.09q63.83.27 127.65.11c3.33-.01 7.29.45 10.99.38 2.69-.04 4.93-1.94 4.89-4.65q-.23-14.28-1.09-28.55c-.13-2.17.64-4.28.68-6.27q.62-28.06-.2-34.32c-.53-3.99 1.41-7.9-1.79-11.13q-1.26-1.27-3.05-1.21-11.87.41-23.36-.2l1.75-2.5zm961.23.9q.76 4.63.59 9.16c-1.25 34.01-.05 60.86-.35 75.36q-.03 1.56-2.05 3.84a1.01 1 19.5 0 1-.7.33q-11.65.6-23.32.64-60.89.2-121.79.12-.11 0-5.51.3-5.16.28-10.19-1.61-.71-38.36-.11-76.93.08 35.02.03 70.04c0 1.27.6 1.99 1.63 2.51a1.05 1.05 0 0 1 .51.61c.78 2.58 2.55 1.8 4.2 2.99a1.02.98-26 0 0 .59.19c49.42-.05 101.26.48 148.16.08q2.07-.01 3.95-.89c1.35-.63 2.07-2.37 2.09-3.94q.48-49.19-.6-76.89c-.22-5.86-13.57-3.95-17.58-3.83q-7.16.19-14.19-1.08l4.35-1.81q15.95-1.1 30.29.81m-1142.96 29.51-2.14 2.52q-.11.14-.26.22c-2.2 1.26-3.11 3.38-4.78 4.79q-2.8 2.36-5.28 5.04c-4.31 4.66-8.82 8.65-12.68 13.63l-3.29 3.21q-4.39 4.37-8.91 8.59c-1.16 1.08-1.37 2.66-3.33 3.21a.99.95-74.6 0 0-.45.27l-11.77 12.22q-4.15 6.12-11.78 6.03-29.57-.38-68.8-.31c-9.24.02-19.26-1.15-28.82.05q-5.33.67-9.27-3.35c-5.08-5.17-9.86-10.22-15.3-15.4-7.01-6.68-13.71-13.69-20.39-20.7q-3.41-3.58-7.15-6.87c-1.86-1.64-3.12-4.13-5.56-5.66a.98 1.02 4.9 0 1-.41-.51c-1.1-3.12-10.25-7.57-12.77-8.53v-.75q.15-.13.23-.31a.22.06 35.9 0 1 .23.09q.46.36 1.11.23a.99.99 0 0 1 .91.28q2.33 2.36 5.67 3.02a.98.98 0 0 1 .79.82l.05.29a.99.98-75.7 0 0 .37.63q2.87 2.27 5.21 5.04c1.54 1.82 3.58 2.89 5.17 5.11 2.12 2.97 5.45 4.68 7.69 7.11q1.82 1.96 3.63 3.94a.92.91 76.3 0 0 .47.29q.85.24.99 1.27a1.04 1.01 18.8 0 0 .29.57q7.36 7.27 14.62 14.64c.96.97 1.6 1.99 2.36 2.66q8.33 7.29 11.13 10.82 2.39 3.02 5.37 3.83 1.03.29 6.25.25 40.71-.27 81.42-.12 7.95.03 12.55.29c5 .28 7.59-.19 10.92-3.53q6.18-6.21 14.08-14.23.15-.15 1.42-.78.68-.33.79-1.03a1 1 0 0 1 .26-.52l2.14-2.29a1.01.93 10.6 0 1 .45-.28q.92-.27 1.11-1.13a1.01 1.02-6.2 0 1 .54-.68c.73-.36 3.05-4.32 3.32-3.46a.32.32 0 0 0 .53.14c2.23-2.09 4.12-4.73 6.45-6.65 2.47-2.05 4.44-4.53 6.77-6.71q2.3-2.16 4.44-4.56c2.92-3.28 5.81-5.75 9.25-9.31q1.75-1.81 4.16-3.43m340.16 15.9.12.8q-4.73-3.85-8.73-8.51-1.87-2.18-3.7-3.52l-4.29-3.13q-.17-.13-.38-.17l-2.33-.5a.63.62-59.2 0 0-.55.14q-.37.32-.98.23l-1.18-2.77q6.89 2.45 7.93 3.48z"/><path d="M10.29 331.779c2.52.96 11.67 5.41 12.77 8.53a.98 1.02 4.9 0 0 .41.51c2.44 1.53 3.7 4.02 5.56 5.66q3.74 3.29 7.15 6.87c6.68 7.01 13.38 14.02 20.39 20.7 5.44 5.18 10.22 10.23 15.3 15.4q3.94 4.02 9.27 3.35c9.56-1.2 19.58-.03 28.82-.05q39.23-.07 68.8.31 7.63.09 11.78-6.03l8.96-8.22-8.25 8.76-4.69 3.98q-2.04 1.73-5.08 1.73-50.25.01-99.56.01-.67 0-3.14.43c-3.99.71-7.86-3.92-10.57-6.64q-27.09-27.16-33.51-33.75-9.84-10.11-16.43-16.1c-1.08-.98-1.24-2.4-3.42-2.19a1 1 0 0 1-.78-.27q-1.33-1.25-3.28-1.49zm1484.83 9.66q3.06 4.81 7.48 8.33a1.08 1.04 10.1 0 1 .32.44q.55 1.5 1.58 2.65c1.41 1.6 3.81 1.35 4.53 4.27a1.02.96 13.4 0 0 .37.56q2.19 1.64 3.56 4.09-5.36-4.6-9.84-9.99c-1.26-1.52-3.2-2.34-4.34-4.31a1 1 0 0 0-.49-.43q-1.4-.57-1.81-2.05a.98 1.01 6.6 0 0-.45-.59q-2.45-1.48-3.77-4.01a1.06 1.01.7 0 0-.44-.43c-3.92-1.96-5.12-5.36-10.28-5.69l-.5-1.25q2.19-.62 3.56.97a1 .96-13.4 0 0 .53.31q3.35.8 5.28 3.44c1.45 1.98 2.7 2.77 4.71 3.69"/><path d="M1495.12 341.439q5.13 5.55 10.61 10.73c9.33 8.81 17.09 17.33 25.52 26.15l11.62 12.05q-10.38-9.46-15.33-14.88-4.43-4.85-8.8-7.71-1.12-.73-5.78-6-1.37-2.45-3.56-4.09a1.02.96 13.4 0 1-.37-.56c-.72-2.92-3.12-2.67-4.53-4.27q-1.03-1.15-1.58-2.65a1.08 1.04 10.1 0 0-.32-.44q-4.42-3.52-7.48-8.33m-911.53 7.79q2.68 2.41 5.17 5.02c.92.95 3.16 2.82 4.26 4.48q.96 1.44 1.89 2.23c4.58 3.89 8.52 8.28 12.76 12.52q2.04 2.04 3.87 4.3l.17.75c-3.12-1.85-5.48-5.05-7.37-6.88q-3.95-3.82-7.88-7.65c-.61-.6-.79-1.47-1.57-2.1q-3.42-2.73-6.17-6.12l-5.01-5.75Zm1105.66 10.09q-7.58 8.66-16 16.5l-.31.23q-3.29 2.4-.55-.61l3.55-3.89a.8.8 0 0 1 .57-.26c.07 0 5.18-5.09 5.46-5.42q3.18-3.77 7.28-6.55m-921.09 2.64-16.39 16.32q2.66-4.09 6.18-7.4c2.76-2.6 6.55-8.41 10.21-8.92M205 373.989q-1.38 2.38-1.3 1.33.07-1.05-.58-.23l-2.28 2.85q-.59.73-.73-.2-.07-.53-.61 1.07l-8.96 8.22 11.77-12.22a.99.95-74.6 0 1 .45-.27c1.96-.55 2.17-2.13 3.33-3.21q4.52-4.22 8.91-8.59 2.02-.81-.11.48c-.78.47-2.37 3.13-3.29 4.07-1.39 1.45-3.59 1.64-4.37 4.2a1.03 1.05-6.4 0 1-.45.57q-1.21.7-1.78 1.93m406.54 3.79q1.15.39 1.69 1.02c3.03 3.54 6.85 6.51 9.72 10.04 4.65 5.73 8.86 3.3 14.86 3.4q46.41.75 92.83.51 3.75-.02 5.94-1.29 3.01-1.74 4.95-4.83.97-1.54 1.46-.85a.52.52 0 0 0 .83.02q1.93-2.56 4.68-4.23l-6.58 6.56q-.18.18-.15-.11l.05-.37q.1-.86-.38-.14-2.23 3.28-5.51 5.53a1.02.97 26.8 0 1-.56.17q-50.05.11-100.12.07c-2.58-.01-5.81 1.34-9.05-.15-2.74-1.26-5.53-5.54-8.49-8.05q-2.84-2.41-6-6.55zm1048.93 10.69-4.72 5.1-.44-.01q-2.34-.08-.11-.8 2.39-.77-2.7.32 3.89-2.14 6.72-5.11c1.1-1.16 7.08-7.06 7.62-6.67a.24.17-45.8 0 1-.05.31q-3.55 3.09-6.32 6.86"/></g><g fill="#133bb4" style="fill:url(#b);fill-opacity:1" transform="translate(62.124 20.896)"><path d="M314.836 254.883v13.5q-.71-2-.45-4.28a1.02 1.01 19.4 0 0-.47-.97l-1.39-.86a.92.95 62.4 0 0-.51-.15q-23.05-.35-46.12.52l.02-33.76q.52-.13.58-.76.05-.51.16.04.14.73.29-.14a1.01 1 4.5 0 1 .98-.83q26.73-.17 43.64-.02 1.35.01 1.84 1.21a.32.33 63.4 0 0 .47.15c.24-.14.62.68.62.89q.06 12.73.34 25.46m-147.78-23.25.03 35.25-.64-16.68a.99 1 89.1 0 0-1-.96l-43.51.02q-.77 0-1.97-.57a.64.64 0 0 0-.88.4l-.11.39q-.19.61-.15-.41.13-3.82-.66.06l-.31-21.18.28-.14a.52.51 77.1 0 1 .74.47q-.04 4.22.54-.28a1 1.01 4 0 1 .99-.87h42.02c.5 0 1.52.32 2.26.14a1 1.01 74.8 0 1 1.18.67zm1470.53-1.5v24.25l-.93-4.56a1.01 1 80.8 0 0-1.09-.79q-1.28.14-4 .15-20.47.11-40.95.08a.52.5 78.8 0 1-.47-.33l-.11-.27q-.4-.99-.51.07-.92 8.82-.6-.87.02-.69-.24.02l-.27.75v-18q-.07 1 .66.9a.51.52 74.8 0 0 .41-.71q-.84-1.96.18-3.93.03-.07.12.14c.06.15 41.91.13 46.39.15a1 1 0 0 1 1 .99l.07 8.41q0 .63.03 0zm-367.75-4.25.03 37.06q-24.51-1.91-48.98-.12l.03-34.94q.4-.3.55-.79.08-.25.08-.01.03 1.55.42.69a.99 1 12.7 0 1 .9-.58q21.63-.12 43.26.02 2.67.02 2.57 2.53a.97.95 30.4 0 0 .16.59l.52.79q.19.29.21-.04zm-257.75 20.5v16.75c-.65-3.02-2.17-4.89-5.53-4.92q-20-.19-39.99-.11-.67.01-1.6-.13a1 1.01 8.7 0 0-1.13.84l-.67 4.32v-28l.19-7.1q.01-.23.11-.43l.44-.89a.52.51 39 0 1 .86-.09q.46.58 1.28.57 13.24-.13 41-.05c.66 0 2.07.34 2.95.1a1 1.01 72.3 0 1 1.2.61q.44 1.16.42 1.84-.29 8.37.47 16.69m-146-19.5v30.75q-.4 3.08-1.16 1.25a1.02 1.02 0 0 0-.92-.62q-28.29-.35-42.56-.06-1.27.03-2.13-.44a1.01 1.01 0 0 0-1.47.74l-.68 4.63v-31.5c.23-2.11.17-7.95.33-8.06q.41-.29.33.2c-.43 2.6 1.44 3.36 3.67 3.35q21.24-.04 42.48.09a.99 1 79.8 0 1 .93.64q.71 1.85 1.18-.97m-147.75-5.25v41.5q-.17-3.26-1.49-1.42a.99 1 18 0 1-.81.42l-44.62-.01a.8.8 0 0 0-.74.5q-.18.42-.59.52a.65.65 0 0 0-.49.62l-.18 14.37v-35.25l.19-14.01a.81.8 81.3 0 1 .55-.75q.6-.2.3-.68a.51.51 0 0 1 .12-.67q.42-.34.55.1a.41.42 81.6 0 0 .4.29q22.15-.05 44.29-.03.99 0 1.44-1.04.17-.38.38-.02l.14.24q.28.49.31-.16zm-146 3v26l-.26 5.53q-.05 1.17-.4.06l-.16-.5a1.01 1 78.3 0 0-1.04-.69q-1.05.1-3.1.1h-39.48q-2.44 0-2.5 2.44-.42 14.72-1.86 29.07l.13-15.76.21.04q-.01 5.85.46-.1.01-.19.01-.38.15-18.66.45-37.34c.07-4.38.6-8.72.99-13.13.09-1.05.6-1.83 1.69-1.03a.96.97 64 0 0 .59.2l42.12-.02a.99 1 0 0 1 1 1.01q-.03 2.17 1.15 4.5m439.78-80.57-.02 13.35a.99.98 68.2 0 1-.3.71q-9.04 8.89-17.87 17.93c-2.74 2.8-3.69 5.61-3.59 9.33q.02-2.04-1.47-3.27a1.03 1.04 64.5 0 0-.64-.22q-84.02-.03-168.04 0-2.46 0-3.02 2.24v-21l.17-9.72q.04-2.43 2.28-2.42l46.8.12c2.33 6.8 6.94 8.99 14.11 9q33.67.04 67.34.02c8.71 0 14.63-2.8 15.3-12.25l.33-2.57a1.01 1 3.3 0 1 .99-.87zm-293.78 3.32v34.75q-.77-1.84-2.27-.71a.97.96 26 0 1-.59.2q-26.81.55-42.85.22-1.56-.03-2.01.98a.22.37 29.5 0 1-.43.25l-.2-.22q-.34-.37-.36.14l-.21 6.64v-37l.15-8.55a1 1 0 0 1 1-.98l46.24.02a.98.99 78 0 1 .9.58q.75 1.62.63 3.68m-257.12 8.66q-13.54 15.57-28.55 29.59-.19-.29-.23-.62a.65.65 0 0 0-.76-.54q-.7.14-1.39-.22-.21-.11-.45-.11l-162.17.05a1 1 0 0 0-.86.49l-.88 1.49-.03-41.42q23.37-.67 47.68-.32a.8.81 15.5 0 1 .68 1.21q-.52.89.58 2.74c.78 8.34 6.1 11.71 14 11.73q33.82.05 67.65.01c11.69-.01 16.05-5.36 15.41-16.87 13.78-.14 27.58.13 41.33-.31q2.52-.08 5.04.2a1 1 0 0 1 .88.84q.1.58.59.47a.51.51 0 0 1 .62.46zm111.14-12.89-.02 41.73q-.39-3.17-1.65-1.17a1.02.98 15.6 0 1-.85.46l-43.03-.03a1 1 0 0 0-.92.61c-2.27 5.27-.93 16.26-1.28 23.32q-.02.33-.11.02l-.25-.93q-.17-.64-.18.03l-.19 63.73-.21-.04-.08-82q-.2-24.07.63-41.93.1-2.12 1.65-4.17a1 1 0 0 1 .8-.4h43.14a1.05 1.02 64.2 0 1 .66.24q.87.76 1.89.53m-551.06-1.31c-2.07 10.55 2.88 18.21 13.54 18.25q39.74.14 79.48.23a1 1 0 0 1 .7.29l20.4 20.02q-.99.07-1.54.84a1.03 1 17.6 0 1-.82.41q-66.31-.01-132.62.01-.97 0-1.36.81a.51.51 0 0 1-.68.24q-.42-.2-.81.19l-24.89-24.8a.99.96 23.2 0 1-.29-.69l-.24-14.51.98 1.64a.25.26 53 0 0 .4.05l.19-.18a.99 1 23.2 0 1 .69-.28l45.11.05a.99 1 4.3 0 0 .99-.86q.11-.85.77-1.71m1470.29 5.29c.02 9.14 5.61 12.95 14.01 12.97q35.68.06 71.4.34c1.99.02 5.52-.63 8.4.05a.95.97 74.1 0 1 .48.26l21.79 21.63q-1.08 0-1.69-.76a1.01 1 59 0 0-1.18-.3q-1.28.56-2.42.56-65.61-.01-131.22 0c-.54 0-1.01.3-1.42.58a.99 1 43.8 0 1-1.11.03q-.57-.36-1.25-.07l-24.45-24.38a1.04 1.01 23.5 0 1-.29-.71l-.01-16.39q23.2.76 47.23.45a1 .99 85.1 0 1 1 .85zm-270.67-7 1.08 1a1.02 1.02 0 0 0 .68.26h45.84a1 1 0 0 1 1 .91l.32 3.58v40.5q.21-2.82-2.01-4.31a1.07 1.1 62.8 0 0-.55-.17q-35.95-.11-44.34.02-.9.01-.93.82a.4.41 3.3 0 1-.44.4q-.55-.05-.65.74zm388.5-101.5q1.02 2.49-2.3 2.49-67.46.03-134.92.01-1.17 0-1.67-.58a.81.8 54.9 0 0-1-.18q-.39.22-.9.22l24.87-24.9a1.01 1.04 23.5 0 1 .71-.29l91.52-.06a1.04 1.01 66.5 0 1 .71.29zm-229.58 13.5c-.15-1.39.33-13.32-2.72-11.18a.98 1.02 28.5 0 1-.57.18q-131.48-.06-262.96.09c-1.12 0-1.98-.76-1.67 1.66l.01-26.49a1 1 0 0 1 1-1q129.09-.02 258.16 0 .09 0 4.04-.29 1.92-.13 3.82.24a1 1 0 0 1 .81.98zm-393.95-11.32q-101.64.56-203.26.32-1.37 0-1.71 1.75v-26.5a1 1 0 0 1 1-1l178.58-.01a1 .99 66.8 0 1 .69.28q12.46 11.9 24.7 25.16m-293.5.18q-52.38.52-139.51.39-1.01-.01-1.59-.45a.99 1 43.8 0 0-1.26.03q-.6.51-1.4.63l25.87-25.91a1.02.98 21.8 0 1 .71-.29l91.38-.05a1 .99 66.8 0 1 .69.28q12.7 11.97 25.11 25.37m-258.51-1.15q-101.63.08-203.25.03-1.3 0-1.21 1.51l.01-24.99a1 1 0 0 1 1-1l178.62-.03a1.03.98 66.5 0 1 .71.3zm-294.5-1q-1.06 1.04-1.75 1.04-69.37.03-138.75-.04l24.04-24.16a1.01 1.04 23.5 0 1 .71-.29l91.87-.02a.98 1.02 68.2 0 1 .71.29zm578.96 74.79v33.75q.12-2.06-.63-3.68a.98.99 78 0 0-.9-.58l-46.24-.02a1 1 0 0 0-1 .98l-.15 8.55v-36.25l.4-6.31a1 1 0 0 1 1-.94h45.98a1 1 0 0 1 .99.85zm-146-1.5.02 31.02q-1.02.23-1.89-.53a1.05 1.02 64.2 0 0-.66-.24h-43.14a1 1 0 0 0-.8.4q-1.55 2.05-1.65 4.17-.83 17.86-.63 41.93l-.17-53q.27-8.35.77-16.69.37-6.03 1.9-9.47a.99 1 12.7 0 1 .92-.59q21.39.01 42.62 0 2.49 0 2.71 3m697.5-.25v34l-.32-3.58a1 1 0 0 0-1-.91h-45.84a1.02 1.02 0 0 1-.68-.26l-1.08-1v-30.75q-.02-1.75.59-1.31a.42.41 32.2 0 0 .6-.13c.55-.99 35.85-.53 45.46-.46a.99 1.03 64.8 0 1 .62.21q1.96 1.56 1.65 4.19m-257.75-.75.03 32.93-47.63.38a1.01 1 3.3 0 0-.99.87l-.33 2.57v-29l.2-11.93a1 1 0 0 1 1.11-.98q.91.1.92-.79a.8.8 0 0 1 .8-.8l44.37-.05a1.01 1 87.5 0 1 1 .92zm-991-2.75.21 33.46q-.66.86-.77 1.71a.99 1 4.3 0 1-.99.86l-45.11-.05a.99 1 23.2 0 0-.69.28l-.19.18a.25.26 53 0 1-.4-.05l-.98-1.64v-37.25q.17-1.84.72-.9.38.64.72-.02l.12-.22a.79.8 13.3 0 1 .71-.44l44.88.05a1.01 1 75.3 0 1 .88.52q.82 1.54.89 3.51m390.83-5.25q-.04 1.88.95 1.13 23.4.13 46.79.11a1 1 0 0 1 1 .98l.18 8.03.38 42.66-.86-11.13a.51.51 0 0 0-.62-.46q-.49.11-.59-.47a1 1 0 0 0-.88-.84q-2.52-.28-5.04-.2c-13.75.44-27.55.17-41.33.31zm1079.49-3.17.18 47.17-.73-4.89a1 .99 85.1 0 0-1-.85q-24.03.31-47.23-.45l-.2-24.81.22-16.04q.01-.76.64-.33.26.17.36-.18a.63.64 7.6 0 1 .59-.46q23.56-.6 47.17.84m-625.32-1.08.33 52.23-46.8-.12q-2.24-.01-2.28 2.42l-.17 9.72v-62c.03-.08.34-4.32.71-3.19q.14.43.44.09.28-.31.3.3a.8.8 0 0 0 .8.77l44.37.04a1 .99 72 0 1 .81.42q1.04 1.44 1.49-.68m-600.17-5.75c-.29 2.11.45 3.02 2.56 3.01q21.89-.08 43.7.11 2.45.02 2.5 2.35l.16 7.28v42.5q-1.1-1.85-.58-2.74a.8.81 15.5 0 0-.68-1.21q-24.31-.35-47.68.32zm166.75 92.5-22.75 22.82a.96.92 17.5 0 1-.57.28c-4.9.66-10.89.19-14.43.22q-33.09.27-66.18.19c-9.35-.02-13.83 4.7-13.84 13.98q-.01 15.9-.06 31.76-.28-12.73-.34-25.46c0-.21-.38-1.03-.62-.89a.32.33 63.4 0 1-.47-.15q-.49-1.2-1.84-1.21-16.91-.15-43.64.02a1.01 1 4.5 0 0-.98.83q-.15.87-.29.14-.11-.55-.16-.04-.06.63-.58.76l.01-42.71.88-1.49a1 1 0 0 1 .86-.49l162.17-.05q.24 0 .45.11.69.36 1.39.22a.65.65 0 0 1 .76.54q.04.33.23.62m139.67-.75v39.75q-1.18-2.33-1.15-4.5a.99 1 0 0 0-1-1.01l-42.12.02a.96.97 64 0 1-.59-.2c-1.09-.8-1.6-.02-1.69 1.03-.39 4.41-.92 8.75-.99 13.13q-.3 18.68-.45 37.34 0 .19-.01.38-.47 5.95-.46.1l.19-63.73q.01-.67.18-.03l.25.93q.09.31.11-.02c.35-7.06-.99-18.05 1.28-23.32a1 1 0 0 1 .92-.61l43.03.03a1.02.98 15.6 0 0 .85-.46q1.26-2 1.65 1.17m697.5 1.5v39.5l-.25 5.2q-.02.33-.21.04l-.52-.79a.97.95 30.4 0 1-.16-.59q.1-2.51-2.57-2.53-21.63-.14-43.26-.02a.99 1 12.7 0 0-.9.58q-.39.86-.42-.69 0-.24-.08.01-.15.49-.55.79v-44q.1-.79.65-.74a.4.41 3.3 0 0 .44-.4q.03-.81.93-.82 8.39-.13 44.34-.02a1.07 1.1 62.8 0 1 .55.17q2.22 1.49 2.01 4.31m-279.5-1q.41 4.39 1.81 5.99 2.92 3.35 19.65 19.77a.98.99 21.8 0 1 .3.71l-.01 34.53q-.76-8.32-.47-16.69.02-.68-.42-1.84a1 1.01 72.3 0 0-1.2-.61c-.88.24-2.29-.1-2.95-.1q-27.76-.08-41 .05-.82.01-1.28-.57a.52.51 39 0 0-.86.09l-.44.89q-.1.2-.11.43l-.19 7.1c-.05-11.1 2.89-25.92-13.82-25.97q-33.81-.1-67.61-.03c-12.52.03-16.25 5.42-15.65 17.75q-.47 2.82-1.18.97a.99 1 79.8 0 0-.93-.64q-21.24-.13-42.48-.09c-2.23.01-4.1-.75-3.67-3.35q.08-.49-.33-.2c-.16.11-.1 5.95-.33 8.06v-47.5q.56-2.24 3.02-2.24 84.02-.03 168.04 0a1.03 1.04 64.5 0 1 .64.22q1.49 1.23 1.47 3.27m617.33-3 29.58 29.25a.98.99 21.8 0 1 .3.71l.04 17.79-.31 6.45q-.03.63-.03 0l-.07-8.41a1 1 0 0 0-1-.99c-4.48-.02-46.33 0-46.39-.15q-.09-.21-.12-.14-1.02 1.97-.18 3.93a.51.52 74.8 0 1-.41.71q-.73.1-.66-.9c-.11-7.51 1.67-16.2-6.7-20.24q-2.51-1.22-7.51-1.23-39.89-.06-79.78-.2a1 1 0 0 1-.7-.29l-26.35-26.25q.68-.29 1.25.07a.99 1 43.8 0 0 1.11-.03c.41-.28.88-.58 1.42-.58q65.61-.01 131.22 0 1.14 0 2.42-.56a1.01 1 59 0 1 1.18.3q.61.76 1.69.76m-889.33-.25v39.5l-.25 4.52q-.03.65-.31.16l-.14-.24q-.21-.36-.38.02-.45 1.04-1.44 1.04-22.14-.02-44.29.03a.41.42 81.6 0 1-.4-.29q-.13-.44-.55-.1a.51.51 0 0 0-.12.67q.3.48-.3.68a.81.8 81.3 0 0-.55.75l-.19 14.01v-53.25l.21-6.64q.02-.51.36-.14l.2.22a.22.37 29.5 0 0 .43-.25q.45-1.01 2.01-.98 16.04.33 42.85-.22a.97.96 26 0 0 .59-.2q1.5-1.13 2.27.71m-582.92-1.5 31.41 30.95a1.03 1.01 22.8 0 1 .3.72l-.07 19.33-1.19-3.69a1 1.01 74.8 0 0-1.18-.67c-.74.18-1.76-.14-2.26-.14h-42.02a1 1.01 4 0 0-.99.87q-.58 4.5-.54.28a.52.51 77.1 0 0-.74-.47l-.28.14c2.56-12.15-3.38-18.89-14.91-18.85q-39.59.16-79.18-.16a1.03 1.03 0 0 1-.7-.3l-25.48-25.51q.39-.39.81-.19a.51.51 0 0 0 .68-.24q.39-.81 1.36-.81 66.31-.02 132.62-.01a1.03 1 17.6 0 0 .82-.41q.55-.77 1.54-.84m1451.17 120q.3.78.78.42a.51.52 50.4 0 1 .68.06q.97 1.04 2.09 1.03 21.93-.13 43.89-.02a.99 1.04 25.8 0 0 .66-.25q1.07-.94 3.08 1.11l-51.55 51.86a1.01 1.04 23.5 0 1-.71.29h-91.09a.98 1.02 68.2 0 1-.71-.29l-50.86-50.86a1.04 1.01 23.5 0 1-.29-.71l-.05-32.54a1 1.01 0 0 1 1-1.01l47.05-.05a1 .99.3 0 1 1 1q-.07 9.4.01 19.29c.09 11.45 3.3 16.1 14.81 16.16q50.2.24 70.25 0 6.14-.08 9.96-5.49m-316.72-37.69q.02 14.1.01 27.88c-.01 10.3 3.73 15.23 14.18 15.29q10.9.07 21.78.38a.99 1 .6 0 1 .97 1l-.22 46.57a1 1 0 0 1-1 1l-119.71.1a1 1 0 0 1-1-1v-46.81a1 1 0 0 1 .96-1q9.92-.35 19.78-.24c11.5.13 15.28-4.87 15.26-15.93q-.01-13.4.01-27.36 24.47-1.79 48.98.12m-955.03 5.44q.06 11.19.05 22.42c-.02 9.87 3.4 15.26 13.63 15.29q10.9.02 21.63.26a1 1 0 0 1 .97 1l.16 46.78a.99.99 0 0 1-.99 1h-119.91a1 1 0 0 1-1-1v-46.94a1 1 0 0 1 1.03-1q10.07.32 20.12.04c11.9-.32 15.38-5.03 15.36-16.37q-.03-13.38.01-27.22 23.07-.87 46.12-.52a.92.95 62.4 0 1 .51.15l1.39.86a1.02 1.01 19.4 0 1 .47.97q-.26 2.28.45 4.28m697.25-5.25q.05 13.3.06 26.62c0 10.51 2.91 16.31 13.93 16.36q10.21.04 21.56.04a1 1 0 0 1 1 1l-.04 47.01a1 1 0 0 1-1 1l-114.72-.1a1 1 0 0 1-1-1v-46.92a1 1.01 89.7 0 1 1-1c6.26-.02 18.4 1.3 23.68-1.38 4.92-2.51 6.54-6.64 6.55-12.33q.01-14.65.06-29.3l.67-4.32a1 1.01 8.7 0 1 1.13-.84q.93.14 1.6.13 19.99-.08 39.99.11c3.36.03 4.88 1.9 5.53 4.92m-146-5.5q.09 17.87.02 35.76c-.04 9.07 6.33 12.76 14.52 12.72q7.88-.04 15.77.14a1 .99.6 0 1 .98.99v46.64a1 .99 88.8 0 1-.95 1q-2.3.12-6.8.14-54.06.22-107.74.07a.99 1 0 0 1-.99-1l-.22-46.74a1 1 0 0 1 .96-1.01q10.17-.36 20.24-.21c9.76.14 15.22-3.67 15.23-13.83q.01-14.58.06-29.17l.68-4.63a1.01 1.01 0 0 1 1.47-.74q.86.47 2.13.44 14.27-.29 42.56.06a1.02 1.02 0 0 1 .92.62q.76 1.83 1.16-1.25m-293.75-7q.07 19.04.04 38.08c-.01 11.69 2.73 17.37 14.92 17.41q32.98.13 65.95.01 7.14-.03 10-1.53c8.69-4.57 6.09-18.2 6.17-26.47l.18-14.37a.65.65 0 0 1 .49-.62q.41-.1.59-.52a.8.8 0 0 1 .74-.5l44.62.01a.99 1 18 0 0 .81-.42q1.32-1.84 1.49 1.42l.08 40.17a.99.98 68.2 0 1-.3.71l-50.82 50.83a1.01 1.04 23.5 0 1-.71.29l-91.2-.03a.98.99 68.2 0 1-.71-.3l-50.85-50.84a.98 1.02 21.8 0 1-.29-.71v-16.61q1.44-14.35 1.86-29.07.06-2.44 2.5-2.44h39.48q2.05 0 3.1-.1a1.01 1 78.3 0 1 1.04.69l.16.5q.35 1.11.4-.06zm1065.25 3.75.18 48.6q-2.01-2.05-3.08-1.11a.99 1.04 25.8 0 1-.66.25q-21.96-.11-43.89.02-1.12.01-2.09-1.03a.51.52 50.4 0 0-.68-.06q-.48.36-.78-.42 1.79-3.06 1.79-5.5-.03-23.25.04-46.5l.27-.75q.26-.71.24-.02-.32 9.69.6.87.11-1.06.51-.07l.11.27a.52.5 78.8 0 0 .47.33q20.48.03 40.95-.08 2.72-.01 4-.15a1.01 1 80.8 0 1 1.09.79zm-1470.5 12.5.06 36.43a.96.95 67.5 0 1-.29.71l-50.85 50.86a1.01 1.04 23.5 0 1-.71.29l-91.48-.14a1 1 0 0 1-.7-.29l-50.7-50.69a1.04 1.01 23.5 0 1-.29-.71v-32.65a.99 1 .3 0 1 1-1l46.88.11a1.01 1.01 0 0 1 1 .98q.19 8.5.14 16.96c-.07 12.37 1.9 18.36 15.08 18.4q32.72.09 65.43 0c9.36-.03 16.52-2.41 16.49-13.02q-.06-21.98.02-43.99.79-3.88.66-.06-.04 1.02.15.41l.11-.39a.64.64 0 0 1 .88-.4q1.2.57 1.97.57l43.51-.02a.99 1 89.1 0 1 1 .96zm1212.75-214.75-.25 14.56q-22.68-.89-45.43-.86c-1.84.01-4.06.36-5.91.6a.97.98 59.2 0 1-.69-.17q-1.06-.72-1.93.08-3.49-2.19-5.06-2.19-19.97-.04-39.94-.01-1.1 0-6.44 2.18l-54.82-.21a1 .98 23.7 0 0-.66.25c-.9.79-1.77-1.22-3.08-.02q-3.48-2.19-5.06-2.19-19.59-.04-39.19-.01-2.48 0-6.71 2.99c-3.38-2.01-6.11-.99-9.35-.95q-21.71.23-43.42-.49l.02-22.81c-.31-2.42.55-1.66 1.67-1.66q131.48-.15 262.96-.09a.98 1.02 28.5 0 0 .57-.18c3.05-2.14 2.57 9.79 2.72 11.18m-393.95-11.32q13.09 12.06 25.96 25.53a.99 1.02 22.5 0 1 .28.7l-.04 4.84c-.28 2.34-1.78 1.53-3.23 1.53q-23.05.04-45.91-.15c-2.59-7.43-7.36-9.13-15.21-9.13q-35.53-.01-71.05.01-1.24 0-4.56 1.7-1.92-1.31-3.68-1.34-23.29-.4-58.38.14-14.26-.84-28.14-.54a1 .99 89.2 0 1-1.02-1l.01-20.22q.34-1.75 1.71-1.75 101.62.24 203.26-.32m-293.5.18 25.66 25.17a.98.99 21.8 0 1 .3.71l.02 1.57q-22.99-.89-49.8-.58-.23 0-.41.04-1.41.28-.26 1.14.54.4.02 1.09c-3.14-4.9-6.96-5.99-12.98-5.99q-34.69-.03-69.37.01c-4.41.01-7.44 1.3-10.39 4.19q-25.77-1.02-51.55-.17-.73-1.07 0-1.79 12.53-12.37 25-24.79.8-.12 1.4-.63a.99 1 43.8 0 1 1.26-.03q.58.44 1.59.45 87.13.13 139.51-.39m-258.51-1.15 23.81 24.13-49.78.53a.97.95 22.2 0 0-.68.28l-1.14 1.1q-3.47-1.75-4.71-1.75-38-.01-76 .01-1.76 0-5.15 1.95-.98-1.84-3.35-1.74c-18.22.75-36.66-.14-54.94.2a1.03.99 21.4 0 0-.68.28l-1.13 1.09q-3.88-1.83-4.75-1.82-12.18.19-25.03-.25a1 1 0 0 1-.96-1l.03-21.47q-.09-1.51 1.21-1.51 101.62.05 203.25-.03m-294.5-1 23.29 23.29-.05 1.12a1 .99 89.4 0 1-.92.95q-4.01.3-9.38.24-16.56-.19-41.02.04a.41.42 12 0 0-.38.25q-.08.2-.04.36c-1.33-.45-2.69-.95-4.14-.95q-37.3-.02-74.61-.01-1.74 0-5 1.54-2.7-1.27-3.82-1.27-22.77-.04-45.58-.02a1.01 1.02 68.5 0 1-.74-.32l-1.11-1.22 23-23q69.38.07 138.75.04.69 0 1.75-1.04m1470.04-.21 27.88 27.7q-1.24 0-2.05-.76a.62.63 45.3 0 0-.87 0c-.39.36-.77.55-1.35.54q-24.11-.35-48.25.54-2.02-.72-4.45-1.66-2.23-.86-4.57-.86h-73.38q-3.59 0-7.71 3.75-.67-.41-.42-.82a.41.41 0 0 0-.17-.58c-.47-.23-.6-.36-1.15-.36q-22.81.04-45.61-.04-1.45 0-1.76-.76a.64.64 0 0 0-.82-.36q-.29.11-.61.13l24.5-24.5q.51 0 .9-.22a.81.8 54.9 0 1 1 .18q.5.58 1.67.58 67.46.02 134.92-.01 3.32 0 2.3-2.49m-597.33 33.25v39.25l-.52-5.88a1.01 1 87.5 0 0-1-.92l-44.37.05a.8.8 0 0 0-.8.8q-.01.89-.92.79a1 1 0 0 0-1.11.98l-.2 11.93-.22-45.62q22.86.19 45.91.15c1.45 0 2.95.81 3.23-1.53m-436.91-3.54q-2.74 4.01-2.74 8.29-.03 17.75-.1 35.5-.22-3-2.71-3-21.23.01-42.62 0a.99 1 12.7 0 0-.92.59q-1.53 3.44-1.9 9.47-.5 8.34-.77 16.69l.21-67.71q25.78-.85 51.55.17m143.19.1-.03 45.19-.55-3.65a1 1 0 0 0-.99-.85h-45.98a1 1 0 0 0-1 .94l-.4 6.31q-.07-20.75-.04-41.5 0-1.72-1.46-4.75.52-.69-.02-1.09-1.15-.86.26-1.14.18-.04.41-.04 26.81-.31 49.8.58m661.22-1.75.16 32.62a.99 1 89.4 0 1-.99 1l-46.87.33a1 .99 89.7 0 1-1-1q-.01-11.51-.06-23-.03-6.54-5.2-10.3.87-.8 1.93-.08a.97.98 59.2 0 0 .69.17c1.85-.24 4.07-.59 5.91-.6q22.75-.03 45.43.86m-105.4-.37q-4.24 5.03-4.25 8.12-.07 18.72-.1 37.44.31-2.63-1.65-4.19a.99 1.03 64.8 0 0-.62-.21c-9.61-.07-44.91-.53-45.46.46a.42.41 32.2 0 1-.6.13q-.61-.44-.59 1.31-.07-16.37-.11-32.75-.02-6.52-5.18-10.29c1.31-1.2 2.18.81 3.08.02a1 .98 23.7 0 1 .66-.25zm-162.29-.63q21.71.72 43.42.49c3.24-.04 5.97-1.06 9.35.95-2.66 3.01-3.77 5.78-3.78 10.05q-.02 11.18-.02 22.2a1 1 0 0 1-1 1l-46.88.02a1 1 0 0 1-1-1zm525.4.64.27 32.79a1 1 0 0 1-1 1.01h-47.18a1 1 0 0 1-1-1l-.02-24.5q0-2.69-3.59-7.98 24.14-.89 48.25-.54c.58.01.96-.18 1.35-.54a.62.63 45.3 0 1 .87 0q.81.76 2.05.76m-142.63 1.55q-3.08 3.74-3.04 7.25.16 12.94-.22 24.83-23.61-1.44-47.17-.84a.63.64 7.6 0 0-.59.46q-.1.35-.36.18-.63-.43-.64.33l-.22 16.04.01-49.04a1.02 1.01 68.5 0 1 .32-.74l1.37-1.26q.32-.02.61-.13a.64.64 0 0 1 .82.36q.31.76 1.76.76 22.8.08 45.61.04c.55 0 .68.13 1.15.36a.41.41 0 0 1 .17.58q-.25.41.42.82m-622.54-2.04q-5.93 3.65-5.94 10.79-.03 11.12-.1 22.25-.45 2.12-1.49.68a1 .99 72 0 0-.81-.42l-44.37-.04a.8.8 0 0 1-.8-.77q-.02-.61-.3-.3-.3.34-.44-.09c-.37-1.13-.68 3.11-.71 3.19q-.02-11.05-.03-22.1-.01-5.5-1.3-8.07-1.81-3.64-5.77-6.32 35.09-.54 58.38-.14 1.76.03 3.68 1.34m-551.9.25q-5.34 3.76-5.35 8.79l-.04 31-.16-7.28q-.05-2.33-2.5-2.35-21.81-.19-43.7-.11c-2.11.01-2.85-.9-2.56-3.01-.08-8.69 2.45-21.43-5.79-27.21l1.13-1.09a1.03.99 21.4 0 1 .68-.28c18.28-.34 36.72.55 54.94-.2q2.37-.1 3.35 1.74m137.46-2.12q1.64.82 2.95 2.71a1.02.98 28.5 0 1 .18.57l.02 46.13-.18-8.03a1 1 0 0 0-1-.98q-23.39.02-46.79-.11-.99.75-.95-1.13-.07-13-.04-26 .01-7.2-5.79-11.25l1.14-1.1a.97.95 22.2 0 1 .68-.28zm-481.81-1.13 1.11 1.22a1.01 1.02 68.5 0 0 .74.32q22.81-.02 45.58.02 1.12 0 3.82 1.27-5.92 3.81-5.94 9.77l-.1 32.94q-.07-1.97-.89-3.51a1.01 1 75.3 0 0-.88-.52l-44.88-.05a.79.8 13.3 0 0-.71.44l-.12.22q-.34.66-.72.02-.55-.94-.72.9l.02-39.02a.99.98 68.2 0 1 .3-.71zm186.79-.71 4.16 4.07a1.03 1.01 22.8 0 1 .3.72v32.21a1 1 0 0 1-1 1h-46.99a1 1 0 0 1-1-1q-.01-11.02-.03-22.25-.02-8.2-7.23-11.79-.04-.16.04-.36a.41.42 12 0 1 .38-.25q24.46-.23 41.02-.04 5.37.06 9.38-.24a1 .99 89.4 0 0 .92-.95z" style="fill:url(#c);fill-opacity:1"/></g></svg>