<!-- Created by ERK --><svg xmlns="http://www.w3.org/2000/svg" xmlns:xlink="http://www.w3.org/1999/xlink" viewBox="0 0 1138 501"><defs><linearGradient id="a"><stop offset="0" style="stop-color:#ffff14;stop-opacity:1"/><stop offset="1" style="stop-color:#c11f1d;stop-opacity:1"/></linearGradient><linearGradient xlink:href="#a" id="b" x1="676.704" x2="676.704" y1="345.508" y2="-10.26" gradientUnits="userSpaceOnUse"/></defs><g fill="none" stroke="#7e7008" stroke-width="2"><path d="M54.44 356.58 20.93 458.97a.67.66 88.5 0 0 .87.83l53.74-21.21a.89.88-2.9 0 0 .52-.57l28.55-96.38a1.43 1.43 0 0 1 .96-.96l57.51-16.73a.61.6 84.9 0 1 .77.65l-8.83 82.86a.74.74 0 0 0 .94.79l50.61-14.73a1.05 1.05 0 0 0 .75-.95q10.76-191.43 21.28-383 .15-2.77-.01-4.08a.44.44 0 0 0-.53-.38l-62.51 13.52a.97.95 2.7 0 0-.7.63q-48.23 144.77-96.3 289.51-.36 1.07-.9 2.05a1.16 1.14 5.2 0 1-.66.54l-43.52 13.86a1.53 1.51-89.1 0 0-.98.96L6.75 371.77q-.69 1.99 1.28 1.26l45.83-17q.87-.33.58.55m202.25 24.98c11.99 5.81 20.17 1.54 28.71-7.16 8.91-9.08 16.08-19.53 23.62-29.73a.92.91-68.6 0 1 .82-.36q2.52.28 2.23 3.21-.99 10.01-2.13 19.74a.76.76 0 0 0 .87.84l33.92-5.45a1.01.99-89.5 0 0 .83-.83l52.4-333.64a.47.47 0 0 0-.55-.53l-34.65 6.24a.86.85 4.1 0 0-.66.57q-.8 2.28-1.63 7.28-9.05 54.57-18.14 109.97a1.59 1.59 0 0 1-1.7 1.32l-1.52-.13a.94.92-11.9 0 1-.74-.47c-4.15-7.55-10.66-17.61-17.63-19.45-23-6.06-40.78 12.42-52.24 30.29-27.11 42.27-37.09 93.05-39.81 141.48-1.45 25.65.8 63.63 28 76.81M801.97 95.27l6.01-40.82a.33.33 0 0 0-.49-.34l-37.77 20.95a1.19 1.17 80.8 0 0-.58.82l-3.39 18.87a1.23 1.23 0 0 1-1.06 1l-11.77 1.36a1.18 1.17-88.3 0 0-1.02.97l-4.48 26.65a1.09 1.09 0 0 0 1.08 1.27h11.62a.48.47 4.6 0 1 .47.55q-10.99 67.3-21.52 134.67c-2.29 14.66-5.06 35.05 13.62 39.18 10.6 2.34 34.38-.03 36.81-14.14q1.46-8.49 2.86-17.5a.67.66 87.2 0 0-.82-.75c-4.45 1.16-15.65 1-18.95-2.9a1.12 1.1 30.1 0 1-.25-.91q11.51-69.87 24.68-139.45a.83.83 0 0 1 .75-.67l21.32-1.65a1.83 1.83 0 0 0 1.66-1.5l4.31-23.92a.82.82 0 0 0-.81-.97l-21.73-.13a.56.55 4.4 0 1-.55-.64m4.67 173.06c2.43 18.96 7.89 29.46 29.83 25.1 11.09-2.21 23.15-11.31 30.76-19.48q1.48-1.59 3.13-.19a1.59 1.58-63.3 0 1 .51 1.55l-2.55 11.24a.47.47 0 0 0 .47.57l31.81-1.28a1.27 1.27 0 0 0 1.19-1q19.44-91.83 38.82-184.02.46-2.2.37-3.59a.51.51 0 0 0-.51-.48h-34.73a.64.64 0 0 0-.63.53q-9.61 55.74-20.57 111.23c-2.72 13.77-10.54 26.39-18.87 37.44q-5.88 7.78-14.6 10.64c-7.67 2.52-9.73-4.09-8.62-10q13.74-73.56 27.61-149.31a1.05 1.05 0 0 0-1.02-1.24q-16.76-.26-33.48.64a.67.66-86 0 0-.61.54q-14.78 76.4-27.12 153.23c-.89 5.54-1.88 12.48-1.19 17.88M992.17 115.2q-.31-1.32.07-3.2 1.49-7.42 3.1-15.3a.69.69 0 0 0-.69-.83l-29.81.63a.85.84 8.6 0 0-.77.56q-.76 2.18-1.49 5.76-18.29 90.58-36.64 181.48a.81.81 0 0 0 .8.97l32.33-.34a1.43 1.42-84.7 0 0 1.37-1.14q11.95-60.92 23.69-121.51 2.47-12.74 12.59-20.8c7.29-5.8 18.36-5.59 27.25-3.81a.53.53 0 0 0 .62-.39l8.57-36.04a.96.96 0 0 0-1.01-1.18c-9.79.72-18.77 2.13-27.42 6.96-3.93 2.19-7.13 5.69-10.39 8.95a.79.78 32.3 0 1-.82.18l-.72-.25a.99.97 3.5 0 1-.63-.7m42.82 80.42a.8.8 0 0 1 .78-.62h70.74a.87.85 15.3 0 0 .74-.41q.65-1.03 1.01-3.09c3.93-22.69 6.02-45.29.21-66.99-6.15-22.98-26.02-34.13-47.17-20.43-24.54 15.89-43 53.18-51.4 80.4-3.4 11.05-5.23 24.76-6.38 35.77-2.38 22.78-3.49 65.77 29.54 67.45 19.81 1 42.11-23.2 51.01-38.64q4.62-8.02 14.72-26.76a.4.39-76.2 0 0-.35-.59l-24.12.38a.79.78 12.4 0 0-.71.45c-5.65 11.71-13.51 25.23-23.85 33.21-8.12 6.27-16.98 4.09-18.86-6.79-2.9-16.74.43-36.92 4.09-53.34m-362.81-79.39c-.78-3.22 1.3-10.22 2.21-16.11a.47.47 0 0 0-.49-.54l-33.63 1.41a.82.81 5.8 0 0-.75.61q-.79 3.12-1.79 8.9-17.77 102.37-35.46 204.58a.59.58 1.1 0 0 .66.68q17.55-2.59 35.04-5.11 2.19-.32 2.47-1.96 12.25-72.2 24.64-144.37c1.14-6.6 20.31-28.01 27.68-28.1 8.44-.11 5.73 17.15 5.17 23.12q-1.54 16.37-4.3 32.59-9.77 57.57-22.72 114.74a.98.97 4.1 0 0 1.04 1.19l36.87-3.14a.96.96 0 0 0 .86-.8c9.18-53.13 17.77-106.29 25.64-159.62 2.24-15.19 1.65-44.13-20.07-45.61-15.18-1.03-29.8 8.22-40.19 18.6a.81.8 33 0 1-.86.18l-1.37-.51a1.07 1.04 4 0 1-.65-.73M503.69 321.06q16.21 13.75 36.82 8.36c31.2-8.15 51.83-53.43 60.59-81.22a.35.35 0 0 0-.38-.46l-32.22 3.92a.89.89 0 0 0-.73.59c-4.22 12.47-10.09 25.53-18.61 35.65-5.84 6.95-16.92 12.66-23.42 3.11-4.33-6.34-5.52-16.98-5.76-25q-.6-19.45 1.6-38.78.32-2.85 2.73-3.15 41.67-5.31 83.06-10.41a1.67 1.66-89.1 0 0 1.45-1.41c4.31-29.06 9.98-93.9-26.02-107.76-45.34-17.45-80.59 67.49-89.96 97.71-9.19 29.62-16.72 95.48 10.85 118.85M428.29 270h-2.19a.63.63 0 0 1-.63-.65l6.12-152.09a.57.56 0 0 0-.59-.58l-36.52 1.46a.62.61-89 0 0-.59.57c-1.85 29.26-1.03 59.12-1.4 88.47-.42 32.87-.38 66.89-.89 88.39q-.85 35.66-.51 55.98a.4.39 84.5 0 0 .46.39l45.6-7.49a.67.66-86.3 0 0 .52-.46l76.04-235.56a.5.49-83.8 0 0-.52-.65l-40.64 3.98a1.38 1.37-85 0 0-1.19 1.01l-42.47 156.77a.62.62 0 0 1-.6.46" vector-effect="non-scaling-stroke"/><path d="M183.53 85.05c-21.01 69.41-42.37 138.71-63.32 208.13a.5.5 0 0 0 .6.63l45.25-11.32a1.69 1.67-4.3 0 0 1.26-1.45q9.54-96.83 19.45-193.54.17-1.75.15-2.58a.89.89 0 0 0-.47-.75q-2.29-1.17-2.92.88m85.89 195.19c-1.56 9.64-9.55 58.22 10.1 56.52 22.22-1.91 38.46-41.82 41.76-60q6.16-33.92 14.5-83.86.95-5.71.26-9.33c-1.87-9.73-11.94-21.79-23.04-16.31-6.85 3.39-11.89 11.22-15.55 17.88-16.07 29.22-22.67 62-28.03 95.1m800.2-154.38c-11.58 10.29-19.57 28.11-25.63 41.93a.86.86 0 0 0 .79 1.21h38.44a.86.85-87.4 0 0 .85-.78c.52-5.8 6.09-60.6-14.45-42.36m-493.68 6.49c-17.44-10.89-42.67 51.95-46.29 61.64a.84.84 0 0 0 .9 1.13l50.67-6.53a.66.65-89.9 0 0 .57-.58c1.22-10.14 5.07-48.84-5.85-55.66" vector-effect="non-scaling-stroke"/></g><g fill="#fbdf0f" style="fill-opacity:1;fill:url(#b)"><path d="M54.44 356.58q.29-.88-.58-.55l-45.83 17q-1.97.73-1.28-1.26l15.74-45.59a1.53 1.51-89.1 0 1 .98-.96l43.52-13.86a1.16 1.14 5.2 0 0 .66-.54q.54-.98.9-2.05 48.07-144.74 96.3-289.51a.97.95 2.7 0 1 .7-.63l62.51-13.52a.44.44 0 0 1 .53.38q.16 1.31.01 4.08-10.52 191.57-21.28 383a1.05 1.05 0 0 1-.75.95l-50.61 14.73a.74.74 0 0 1-.94-.79l8.83-82.86a.61.6 84.9 0 0-.77-.65l-57.51 16.73a1.43 1.43 0 0 0-.96.96l-28.55 96.38a.89.88-2.9 0 1-.52.57L21.8 459.8a.67.66 88.5 0 1-.87-.83zM183.53 85.05c-21.01 69.41-42.37 138.71-63.32 208.13a.5.5 0 0 0 .6.63l45.25-11.32a1.69 1.67-4.3 0 0 1.26-1.45q9.54-96.83 19.45-193.54.17-1.75.15-2.58a.89.89 0 0 0-.47-.75q-2.29-1.17-2.92.88" style="fill-opacity:1;fill:url(#b)"/><path d="M256.69 381.56c-27.2-13.18-29.45-51.16-28-76.81 2.72-48.43 12.7-99.21 39.81-141.48 11.46-17.87 29.24-36.35 52.24-30.29 6.97 1.84 13.48 11.9 17.63 19.45a.94.92-11.9 0 0 .74.47l1.52.13a1.59 1.59 0 0 0 1.7-1.32q9.09-55.4 18.14-109.97.83-5 1.63-7.28a.86.85 4.1 0 1 .66-.57l34.65-6.24a.47.47 0 0 1 .55.53l-52.4 333.64a1.01.99-89.5 0 1-.83.83l-33.92 5.45a.76.76 0 0 1-.87-.84q1.14-9.73 2.13-19.74.29-2.93-2.23-3.21a.92.91-68.6 0 0-.82.36c-7.54 10.2-14.71 20.65-23.62 29.73-8.54 8.7-16.72 12.97-28.71 7.16m12.73-101.32c-1.56 9.64-9.55 58.22 10.1 56.52 22.22-1.91 38.46-41.82 41.76-60q6.16-33.92 14.5-83.86.95-5.71.26-9.33c-1.87-9.73-11.94-21.79-23.04-16.31-6.85 3.39-11.89 11.22-15.55 17.88-16.07 29.22-22.67 62-28.03 95.1" style="fill-opacity:1;fill:url(#b)"/><path d="m802.52 95.91 21.73.13a.82.82 0 0 1 .81.97l-4.31 23.92a1.83 1.83 0 0 1-1.66 1.5l-21.32 1.65a.83.83 0 0 0-.75.67q-13.17 69.58-24.68 139.45a1.12 1.1 30.1 0 0 .25.91c3.3 3.9 14.5 4.06 18.95 2.9a.67.66 87.2 0 1 .82.75q-1.4 9.01-2.86 17.5c-2.43 14.11-26.21 16.48-36.81 14.14-18.68-4.13-15.91-24.52-13.62-39.18q10.53-67.37 21.52-134.67a.48.47 4.6 0 0-.47-.55H748.5a1.09 1.09 0 0 1-1.08-1.27l4.48-26.65a1.18 1.17-88.3 0 1 1.02-.97l11.77-1.36a1.23 1.23 0 0 0 1.06-1l3.39-18.87a1.19 1.17 80.8 0 1 .58-.82l37.77-20.95a.33.33 0 0 1 .49.34l-6.01 40.82a.56.55 4.4 0 0 .55.64" style="fill-opacity:1;fill:url(#b)"/><path d="M836.47 293.43c-21.94 4.36-27.4-6.14-29.83-25.1-.69-5.4.3-12.34 1.19-17.88q12.34-76.83 27.12-153.23a.67.66-86 0 1 .61-.54q16.72-.9 33.48-.64a1.05 1.05 0 0 1 1.02 1.24q-13.87 75.75-27.61 149.31c-1.11 5.91.95 12.52 8.62 10q8.72-2.86 14.6-10.64c8.33-11.05 16.15-23.67 18.87-37.44q10.96-55.49 20.57-111.23a.64.64 0 0 1 .63-.53h34.73a.51.51 0 0 1 .51.48q.09 1.39-.37 3.59-19.38 92.19-38.82 184.02a1.27 1.27 0 0 1-1.19 1l-31.81 1.28a.47.47 0 0 1-.47-.57l2.55-11.24a1.59 1.58-63.3 0 0-.51-1.55q-1.65-1.4-3.13.19c-7.61 8.17-19.67 17.27-30.76 19.48" style="fill-opacity:1;fill:url(#b)"/><path d="m992.8 115.9.72.25a.79.78 32.3 0 0 .82-.18c3.26-3.26 6.46-6.76 10.39-8.95 8.65-4.83 17.63-6.24 27.42-6.96a.96.96 0 0 1 1.01 1.18l-8.57 36.04a.53.53 0 0 1-.62.39c-8.89-1.78-19.96-1.99-27.25 3.81q-10.12 8.06-12.59 20.8-11.74 60.59-23.69 121.51a1.43 1.42-84.7 0 1-1.37 1.14l-32.33.34a.81.81 0 0 1-.8-.97q18.35-90.9 36.64-181.48.73-3.58 1.49-5.76a.85.84 8.6 0 1 .77-.56l29.81-.63a.69.69 0 0 1 .69.83q-1.61 7.88-3.1 15.3-.38 1.88-.07 3.2a.99.97 3.5 0 0 .63.7" style="fill-opacity:1;fill:url(#b)"/><path d="M1034.99 195.62c-3.66 16.42-6.99 36.6-4.09 53.34 1.88 10.88 10.74 13.06 18.86 6.79 10.34-7.98 18.2-21.5 23.85-33.21a.79.78 12.4 0 1 .71-.45l24.12-.38a.4.39-76.2 0 1 .35.59q-10.1 18.74-14.72 26.76c-8.9 15.44-31.2 39.64-51.01 38.64-33.03-1.68-31.92-44.67-29.54-67.45 1.15-11.01 2.98-24.72 6.38-35.77 8.4-27.22 26.86-64.51 51.4-80.4 21.15-13.7 41.02-2.55 47.17 20.43 5.81 21.7 3.72 44.3-.21 66.99q-.36 2.06-1.01 3.09a.87.85 15.3 0 1-.74.41h-70.74a.8.8 0 0 0-.78.62m34.63-69.76c-11.58 10.29-19.57 28.11-25.63 41.93a.86.86 0 0 0 .79 1.21h38.44a.86.85-87.4 0 0 .85-.78c.52-5.8 6.09-60.6-14.45-42.36" style="fill-opacity:1;fill:url(#b)"/><path d="m672.83 116.96 1.37.51a.81.8 33 0 0 .86-.18c10.39-10.38 25.01-19.63 40.19-18.6 21.72 1.48 22.31 30.42 20.07 45.61-7.87 53.33-16.46 106.49-25.64 159.62a.96.96 0 0 1-.86.8l-36.87 3.14a.98.97 4.1 0 1-1.04-1.19q12.95-57.17 22.72-114.74 2.76-16.22 4.3-32.59c.56-5.97 3.27-23.23-5.17-23.12-7.37.09-26.54 21.5-27.68 28.1q-12.39 72.17-24.64 144.37-.28 1.64-2.47 1.96-17.49 2.52-35.04 5.11a.59.58 1.1 0 1-.66-.68q17.69-102.21 35.46-204.58 1-5.78 1.79-8.9a.82.81 5.8 0 1 .75-.61l33.63-1.41a.47.47 0 0 1 .49.54c-.91 5.89-2.99 12.89-2.21 16.11a1.07 1.04 4 0 0 .65.73" style="fill-opacity:1;fill:url(#b)"/><path d="M503.69 321.06c-27.57-23.37-20.04-89.23-10.85-118.85 9.37-30.22 44.62-115.16 89.96-97.71 36 13.86 30.33 78.7 26.02 107.76a1.67 1.66-89.1 0 1-1.45 1.41q-41.39 5.1-83.06 10.41-2.41.3-2.73 3.15-2.2 19.33-1.6 38.78c.24 8.02 1.43 18.66 5.76 25 6.5 9.55 17.58 3.84 23.42-3.11 8.52-10.12 14.39-23.18 18.61-35.65a.89.89 0 0 1 .73-.59l32.22-3.92a.35.35 0 0 1 .38.46c-8.76 27.79-29.39 73.07-60.59 81.22q-20.61 5.39-36.82-8.36m72.25-188.71c-17.44-10.89-42.67 51.95-46.29 61.64a.84.84 0 0 0 .9 1.13l50.67-6.53a.66.65-89.9 0 0 .57-.58c1.22-10.14 5.07-48.84-5.85-55.66" style="fill-opacity:1;fill:url(#b)"/><path d="m428.89 269.54 42.47-156.77a1.38 1.37-85 0 1 1.19-1.01l40.64-3.98a.5.49-83.8 0 1 .52.65l-76.04 235.56a.67.66-86.3 0 1-.52.46l-45.6 7.49a.4.39 84.5 0 1-.46-.39q-.34-20.32.51-55.98c.51-21.5.47-55.52.89-88.39.37-29.35-.45-59.21 1.4-88.47a.62.61-89 0 1 .59-.57l36.52-1.46a.57.56 0 0 1 .59.58l-6.12 152.09a.63.63 0 0 0 .63.65h2.19a.62.62 0 0 0 .6-.46" style="fill-opacity:1;fill:url(#b)"/></g><path d="M138.19 374.76q-12.73 47.49-25.45 94.99c-.33 1.21-.34 1.85-1.62 2.4q-33.14 14.1-66.13 28.12a.99.98-30.6 0 1-1.14-.29q-12.98-16.42-25.9-32.6c-1.88-2.35-3.73-2.04-2.18-6.13 6.01-15.94 11.3-31.92 16.52-48.21a.42.42 0 0 0-.51-.53l-4.07 1.07a1.1 1.1 0 0 1-1.19-.44L3.48 379.81a1.6 1.58 80.8 0 0-.86-.63l-1.38-.41a.57.57 0 0 1-.37-.73l19.01-54.82a1.04 1.04 0 0 1 .65-.64l43.79-14.06a1.2 1.18-87.7 0 0 .73-.68q1.19-2.95 2.17-5.89 47.46-142.69 94.77-284.66a2.64 2.63 2.9 0 1 1.95-1.75L231.35.89a.93.91 60.9 0 1 .85.25l40.99 41.92a1.51 1.44 20.7 0 1 .43.9q.15 1.35 0 4.11-3.11 55.06-6.28 109.83a.4.4 0 0 0 .73.24c10.17-15.17 25.76-30.64 45.42-29.88 12.13.46 19.44 8.25 25.22 18.03.22.37.45.5.85.48a.45.45 0 0 0 .42-.4q.08-.8.21-1.59 9.13-56.57 18.51-113.08a.78.76 89.5 0 1 .61-.63l38.88-7.09a.93.93 0 0 0 .62-.41l.18-.29a.84.83-72.7 0 1 .69-.37q2.06-.01 2.45 1.65a1.8 1.78-76 0 0 .54.91q15.43 14.15 30.81 28.3c1.27 1.17.72 2.07.46 3.51q-5.02 27.74-10.09 55.43a.52.52 0 0 0 .53.61l10.06-.3a.78.76-10 0 1 .76.52l.12.37a1.82 1.69-81.3 0 0 .51.75l25.06 21.46a.38.38 0 0 0 .61-.18l7.27-26.78a.74.73-85.4 0 1 .64-.55l47.26-4.64a.97.95 61.1 0 1 .7.21l16.61 12.92a.62.61 40.6 0 0 .82-.06c17.04-18.06 41.7-27.22 62.18-7.46 2.94 2.84 5.36 6.74 8.56 9.76q11.45 10.82 22.89 21.62a.32.32 0 0 0 .53-.18l7.39-42.47a.67.66 3.3 0 1 .62-.55q18.35-.96 36.58-1.7.11-.01 2.74-.56c2.43-.52 2.84 2.02 3.82 3.15q2.41 2.77 5.03 5.34a.62.61-38.8 0 0 .77.08c10.2-6.52 21.87-10.97 33.98-8.15 8.3 1.94 18.07 8.94 26.05 13.81a.37.37 0 0 0 .56-.25l2.41-14.06a1.58 1.55-88.7 0 1 1.33-1.29l11.8-1.6a.77.77 0 0 0 .66-.63l3.38-18.34a1.09 1.07-9.7 0 1 .54-.75l44.53-24.65a.58.58 0 0 1 .84.35l.41 1.51a1.71 1.61 15.7 0 0 .47.78l27.63 25.97a1.07 1.06-64.2 0 1 .32.93l-2.06 14.52a.72.72 0 0 0 .73.82q17.09-.43 33.45-.7c2.02-.03 17.56 15.4 20.18 17.86 1.38 1.29 2.85 3.12 4.89 4.33a.44.44 0 0 0 .66-.3l3.55-20.04a1.14 1.13 5.2 0 1 1.12-.93q20.34-.01 40.91-.01 1.26 0 1.26 1.39a1.25 1.23 22.1 0 0 .39.9l11.82 11.29a.38.38 0 0 0 .63-.2l2.5-12.85a.73.73 0 0 1 .69-.59l36.92-.85a.75.75 0 0 1 .7.45q2.28 5.11 5.94 9.37a.66.65-31.3 0 0 .76.18q14.72-6.28 30.78-5.53a1.34 1.3-21.3 0 1 .87.37l11.78 11.03a.5.49-42.6 0 0 .65.02c11.59-9.14 22.53-17.04 38.28-12.15q8.33 2.58 14.02 8.79c6.95 7.57 14.59 14.29 22.13 21.27 5.27 4.87 7.17 17.29 7.97 24.14q2.54 21.83-.1 46.22c-2.64 24.36-5.51 46.1-15.46 67.26q-18.25 38.84-58.74 51.16c-6.94 2.11-11.94 1.09-17.79-2.67-16.38-10.53-28.73-25.86-36.82-43.5a.29.29 0 0 0-.54.05l-11.83 46.76a.59.58-83.4 0 1-.55.44l-42.71.9a1.2 1.19-22.5 0 1-.88-.36l-10-9.99a.8.8 0 0 0-1.31.27l-4.08 10.42a.86.85 9.1 0 1-.75.54l-39.74 1.87a1.15 1.13-25.8 0 1-.79-.27l-13.61-11.29a1.05 1.04-46.1 0 0-1.38.03c-5.54 5.11-14.51 11.41-21.01 12.96q-8.03 1.93-16.17-3.66-12.79-8.79-23.94-19.39a.5.5 0 0 0-.82.22c-3.43 11.34-13.18 31.68-28.45 27.24-14.93-4.34-30.48-15.93-42.34-25.67a.5.5 0 0 0-.8.29l-6.59 32.48a.65.65 0 0 1-.58.51l-46.23 3.72a1.17 1.17 0 0 1-.93-.36l-14.49-15.18a.42.42 0 0 0-.71.2l-3.78 17.47a.57.56-87.2 0 1-.5.46L619.63 345a.84.83-23.6 0 1-.7-.27l-17.41-20a.61.61 0 0 0-.94.02q-8.8 10.89-19.27 19.81c-9.58 8.16-27.66 11.15-39.8 11.15q-8.99 0-15.37-6.09-9.84-9.4-18.57-19.8-2.03-2.42-5.65-5.61-7.35-6.47-11.71-15.43a.44.44 0 0 0-.8.03L463.75 374a.96.95 4.9 0 1-.72.6l-51.46 10.13a.86.85-26.5 0 1-.79-.26l-23.5-25.2a.41.41 0 0 0-.7.21l-5.6 31.48a.93.93 0 0 1-.7.74l-52.9 11.85a1.88 1.86 59.6 0 1-1.66-.44l-5.93-5.37a.89.89 0 0 0-1.3.12c-6.97 9.19-19.05 18.55-31.26 17.39-11.54-1.09-24.23-10.86-31.74-19.29a.41.41 0 0 0-.72.26l-.78 27.8a1.09 1.08 82.2 0 1-.76 1.01l-75.74 23.75a1.19 1.18 64 0 1-1.34-.47l-23.23-34.45a1.7 1.64-5.9 0 0-.82-.64l-.59-.21a.76.75 12.9 0 1-.51-.8l4.72-43.23a.34.33 83.3 0 0-.44-.35l-16.54 5.55a.85.84 88.8 0 0-.55.58m-83.75-18.18L20.93 458.97a.67.66 88.5 0 0 .87.83l53.74-21.21a.89.88-2.9 0 0 .52-.57l28.55-96.38a1.43 1.43 0 0 1 .96-.96l57.51-16.73a.61.6 84.9 0 1 .77.65l-8.83 82.86a.74.74 0 0 0 .94.79l50.61-14.73a1.05 1.05 0 0 0 .75-.95q10.76-191.43 21.28-383 .15-2.77-.01-4.08a.44.44 0 0 0-.53-.38l-62.51 13.52a.97.95 2.7 0 0-.7.63q-48.23 144.77-96.3 289.51-.36 1.07-.9 2.05a1.16 1.14 5.2 0 1-.66.54l-43.52 13.86a1.53 1.51-89.1 0 0-.98.96L6.75 371.77q-.69 1.99 1.28 1.26l45.83-17q.87-.33.58.55m202.25 24.98c11.99 5.81 20.17 1.54 28.71-7.16 8.91-9.08 16.08-19.53 23.62-29.73a.92.91-68.6 0 1 .82-.36q2.52.28 2.23 3.21-.99 10.01-2.13 19.74a.76.76 0 0 0 .87.84l33.92-5.45a1.01.99-89.5 0 0 .83-.83l52.4-333.64a.47.47 0 0 0-.55-.53l-34.65 6.24a.86.85 4.1 0 0-.66.57q-.8 2.28-1.63 7.28-9.05 54.57-18.14 109.97a1.59 1.59 0 0 1-1.7 1.32l-1.52-.13a.94.92-11.9 0 1-.74-.47c-4.15-7.55-10.66-17.61-17.63-19.45-23-6.06-40.78 12.42-52.24 30.29-27.11 42.27-37.09 93.05-39.81 141.48-1.45 25.65.8 63.63 28 76.81M801.97 95.27l6.01-40.82a.33.33 0 0 0-.49-.34l-37.77 20.95a1.19 1.17 80.8 0 0-.58.82l-3.39 18.87a1.23 1.23 0 0 1-1.06 1l-11.77 1.36a1.18 1.17-88.3 0 0-1.02.97l-4.48 26.65a1.09 1.09 0 0 0 1.08 1.27h11.62a.48.47 4.6 0 1 .47.55q-10.99 67.3-21.52 134.67c-2.29 14.66-5.06 35.05 13.62 39.18 10.6 2.34 34.38-.03 36.81-14.14q1.46-8.49 2.86-17.5a.67.66 87.2 0 0-.82-.75c-4.45 1.16-15.65 1-18.95-2.9a1.12 1.1 30.1 0 1-.25-.91q11.51-69.87 24.68-139.45a.83.83 0 0 1 .75-.67l21.32-1.65a1.83 1.83 0 0 0 1.66-1.5l4.31-23.92a.82.82 0 0 0-.81-.97l-21.73-.13a.56.55 4.4 0 1-.55-.64m4.67 173.06c2.43 18.96 7.89 29.46 29.83 25.1 11.09-2.21 23.15-11.31 30.76-19.48q1.48-1.59 3.13-.19a1.59 1.58-63.3 0 1 .51 1.55l-2.55 11.24a.47.47 0 0 0 .47.57l31.81-1.28a1.27 1.27 0 0 0 1.19-1q19.44-91.83 38.82-184.02.46-2.2.37-3.59a.51.51 0 0 0-.51-.48h-34.73a.64.64 0 0 0-.63.53q-9.61 55.74-20.57 111.23c-2.72 13.77-10.54 26.39-18.87 37.44q-5.88 7.78-14.6 10.64c-7.67 2.52-9.73-4.09-8.62-10q13.74-73.56 27.61-149.31a1.05 1.05 0 0 0-1.02-1.24q-16.76-.26-33.48.64a.67.66-86 0 0-.61.54q-14.78 76.4-27.12 153.23c-.89 5.54-1.88 12.48-1.19 17.88M992.17 115.2q-.31-1.32.07-3.2 1.49-7.42 3.1-15.3a.69.69 0 0 0-.69-.83l-29.81.63a.85.84 8.6 0 0-.77.56q-.76 2.18-1.49 5.76-18.29 90.58-36.64 181.48a.81.81 0 0 0 .8.97l32.33-.34a1.43 1.42-84.7 0 0 1.37-1.14q11.95-60.92 23.69-121.51 2.47-12.74 12.59-20.8c7.29-5.8 18.36-5.59 27.25-3.81a.53.53 0 0 0 .62-.39l8.57-36.04a.96.96 0 0 0-1.01-1.18c-9.79.72-18.77 2.13-27.42 6.96-3.93 2.19-7.13 5.69-10.39 8.95a.79.78 32.3 0 1-.82.18l-.72-.25a.99.97 3.5 0 1-.63-.7m42.82 80.42a.8.8 0 0 1 .78-.62h70.74a.87.85 15.3 0 0 .74-.41q.65-1.03 1.01-3.09c3.93-22.69 6.02-45.29.21-66.99-6.15-22.98-26.02-34.13-47.17-20.43-24.54 15.89-43 53.18-51.4 80.4-3.4 11.05-5.23 24.76-6.38 35.77-2.38 22.78-3.49 65.77 29.54 67.45 19.81 1 42.11-23.2 51.01-38.64q4.62-8.02 14.72-26.76a.4.39-76.2 0 0-.35-.59l-24.12.38a.79.78 12.4 0 0-.71.45c-5.65 11.71-13.51 25.23-23.85 33.21-8.12 6.27-16.98 4.09-18.86-6.79-2.9-16.74.43-36.92 4.09-53.34m-362.81-79.39c-.78-3.22 1.3-10.22 2.21-16.11a.47.47 0 0 0-.49-.54l-33.63 1.41a.82.81 5.8 0 0-.75.61q-.79 3.12-1.79 8.9-17.77 102.37-35.46 204.58a.59.58 1.1 0 0 .66.68q17.55-2.59 35.04-5.11 2.19-.32 2.47-1.96 12.25-72.2 24.64-144.37c1.14-6.6 20.31-28.01 27.68-28.1 8.44-.11 5.73 17.15 5.17 23.12q-1.54 16.37-4.3 32.59-9.77 57.57-22.72 114.74a.98.97 4.1 0 0 1.04 1.19l36.87-3.14a.96.96 0 0 0 .86-.8c9.18-53.13 17.77-106.29 25.64-159.62 2.24-15.19 1.65-44.13-20.07-45.61-15.18-1.03-29.8 8.22-40.19 18.6a.81.8 33 0 1-.86.18l-1.37-.51a1.07 1.04 4 0 1-.65-.73M503.69 321.06q16.21 13.75 36.82 8.36c31.2-8.15 51.83-53.43 60.59-81.22a.35.35 0 0 0-.38-.46l-32.22 3.92a.89.89 0 0 0-.73.59c-4.22 12.47-10.09 25.53-18.61 35.65-5.84 6.95-16.92 12.66-23.42 3.11-4.33-6.34-5.52-16.98-5.76-25q-.6-19.45 1.6-38.78.32-2.85 2.73-3.15 41.67-5.31 83.06-10.41a1.67 1.66-89.1 0 0 1.45-1.41c4.31-29.06 9.98-93.9-26.02-107.76-45.34-17.45-80.59 67.49-89.96 97.71-9.19 29.62-16.72 95.48 10.85 118.85M428.29 270h-2.19a.63.63 0 0 1-.63-.65l6.12-152.09a.57.56 0 0 0-.59-.58l-36.52 1.46a.62.61-89 0 0-.59.57c-1.85 29.26-1.03 59.12-1.4 88.47-.42 32.87-.38 66.89-.89 88.39q-.85 35.66-.51 55.98a.4.39 84.5 0 0 .46.39l45.6-7.49a.67.66-86.3 0 0 .52-.46l76.04-235.56a.5.49-83.8 0 0-.52-.65l-40.64 3.98a1.38 1.37-85 0 0-1.19 1.01l-42.47 156.77a.62.62 0 0 1-.6.46"/><path d="M120.21 293.18c20.95-69.42 42.31-138.72 63.32-208.13q.63-2.05 2.92-.88a.89.89 0 0 1 .47.75q.02.83-.15 2.58-9.91 96.71-19.45 193.54a1.69 1.67-4.3 0 1-1.26 1.45l-45.25 11.32a.5.5 0 0 1-.6-.63m923.78-125.39c6.06-13.82 14.05-31.64 25.63-41.93 20.54-18.24 14.97 36.56 14.45 42.36a.86.85-87.4 0 1-.85.78h-38.44a.86.86 0 0 1-.79-1.21m-514.34 26.2c3.62-9.69 28.85-72.53 46.29-61.64 10.92 6.82 7.07 45.52 5.85 55.66a.66.65-89.9 0 1-.57.58l-50.67 6.53a.84.84 0 0 1-.9-1.13M279.52 336.76c-19.65 1.7-11.66-46.88-10.1-56.52 5.36-33.1 11.96-65.88 28.03-95.1 3.66-6.66 8.7-14.49 15.55-17.88 11.1-5.48 21.17 6.58 23.04 16.31q.69 3.62-.26 9.33-8.34 49.94-14.5 83.86c-3.3 18.18-19.54 58.09-41.76 60"/></svg>