<!-- Created by ERK --><svg xmlns="http://www.w3.org/2000/svg" xmlns:xlink="http://www.w3.org/1999/xlink" width="134" height="128"><defs><linearGradient id="a"><stop offset="0" style="stop-color:#f0f0f0;stop-opacity:1"/><stop offset="1" style="stop-color:#fff;stop-opacity:1"/></linearGradient><linearGradient xlink:href="#a" id="h" x1="116.587" x2="54.702" y1="26.201" y2="113.115" gradientTransform="translate(4.5 -.063)" gradientUnits="userSpaceOnUse"/><linearGradient xlink:href="#a" id="f" x1="116.587" x2="54.702" y1="26.201" y2="113.115" gradientTransform="translate(-32.009 12.843)" gradientUnits="userSpaceOnUse"/><linearGradient xlink:href="#a" id="d" x1="116.587" x2="54.702" y1="26.201" y2="113.115" gradientTransform="translate(-66.178 15.588)" gradientUnits="userSpaceOnUse"/><filter id="e"><feGaussianBlur stdDeviation="2.909"/></filter><filter id="g"><feGaussianBlur stdDeviation="2.466"/></filter><filter id="c"><feGaussianBlur stdDeviation="3.187"/></filter><filter id="b"><feGaussianBlur stdDeviation="3.175"/></filter></defs><path d="M124.5 24.5c3.5 3-1 95.5-1 95.5l-69.5-.5L8 44l13-2" style="fill:none;fill-rule:evenodd;stroke:#000;stroke-width:3;stroke-linecap:butt;stroke-linejoin:miter;stroke-miterlimit:4;stroke-dasharray:none;stroke-opacity:1;filter:url(#b)"/><rect width="74.17" height="97.773" x="-22.581" y="31.3" rx="8.996" ry="8.996" style="opacity:.17300002;fill:#000;fill-opacity:1;fill-rule:nonzero;stroke:none;stroke-width:1;stroke-linecap:butt;stroke-linejoin:miter;stroke-miterlimit:4;stroke-dasharray:none;stroke-dashoffset:0;stroke-opacity:1;filter:url(#c)" transform="rotate(-32.363 4.335 -5.28)"/><rect width="74.17" height="97.773" x="-17.738" y="36.736" rx="8.996" ry="8.996" style="fill:url(#d);fill-opacity:1;fill-rule:nonzero;stroke:#c5c5c5;stroke-width:1;stroke-linecap:butt;stroke-linejoin:miter;stroke-miterlimit:4;stroke-dasharray:none;stroke-dashoffset:0;stroke-opacity:1" transform="rotate(-32.363)"/><rect width="74.17" height="97.773" x="10.5" y="31.149" rx="8.996" ry="8.996" style="opacity:.17307691;fill:#000;fill-opacity:1;fill-rule:nonzero;stroke:none;stroke-width:1.00000012;stroke-linecap:butt;stroke-linejoin:miter;stroke-miterlimit:4;stroke-dasharray:none;stroke-dashoffset:0;stroke-opacity:1;filter:url(#e)" transform="rotate(-16.86 2.25 -15.181)"/><rect width="47.493" height="67.383" x="-4.594" y="52.032" rx="0" ry="0" style="fill:none;fill-opacity:1;fill-rule:nonzero;stroke:#3c3c3c;stroke-width:1;stroke-linecap:butt;stroke-linejoin:miter;stroke-miterlimit:4;stroke-dasharray:none;stroke-dashoffset:0;stroke-opacity:1" transform="rotate(-32.363)"/><path d="m15.699 52.445-.64-.98.627-.409-3.732-9.564 1.264-.826c2.34 2.195 7.413 7.16 7.413 7.16l.638-.418.64.98-2.236 1.46-.64-.979.638-.417-2.268-2.124-2.09 1.365 1.165 2.846.797-.52.64.978zm1.007-6.82-3.488-3.43 1.749 4.566zm87.15 30.452.64.98.627-.41 7.26 7.259 1.264-.826c-1.07-3.024-3.579-9.665-3.579-9.665l.638-.416-.64-.98-2.236 1.462.64.979.638-.418 1.035 2.931-2.09 1.365-2.138-2.21.797-.52-.64-.979zm6.651 1.817 1.74 4.571-3.48-3.435z" style="fill:#3c3c3c;fill-opacity:1;fill-rule:nonzero;stroke:#3c3c3c;stroke-width:.1;stroke-linecap:butt;stroke-linejoin:miter;stroke-miterlimit:4;stroke-dasharray:none;stroke-dashoffset:0;stroke-opacity:1"/><rect width="74.17" height="97.773" x="16.431" y="33.992" rx="8.996" ry="8.996" style="fill:url(#f);fill-opacity:1;fill-rule:nonzero;stroke:#c5c5c5;stroke-width:1.00000012;stroke-linecap:butt;stroke-linejoin:miter;stroke-miterlimit:4;stroke-dasharray:none;stroke-dashoffset:0;stroke-opacity:1" transform="rotate(-16.86)"/><rect width="47.493" height="67.383" x="29.575" y="49.287" rx="0" ry="0" style="fill:none;fill-opacity:1;fill-rule:nonzero;stroke:#f23c3c;stroke-width:1.00000012;stroke-linecap:butt;stroke-linejoin:miter;stroke-miterlimit:4;stroke-dasharray:none;stroke-dashoffset:0;stroke-opacity:1" transform="rotate(-16.86)"/><path d="M76.92 72.482s7.417-8.22 5.605-13.914c-2.064-6.484-5.905-4.843-5.905-4.843-1.582.503-3.682 1.529-3.682 1.529L71.32 50.17l-2.741.873 1.618 5.083s-1.468.027-3.079.54c0 0-4.714 1.5-2.747 7.68 1.65 5.18 12.56 8.131 12.548 8.135" style="fill:#f23c3c;fill-opacity:1;fill-rule:evenodd;stroke:none;stroke-width:1px;stroke-linecap:butt;stroke-linejoin:miter;stroke-opacity:1"/><path d="m33.015 42.195-.355-1.114.714-.227-1.04-10.214 1.439-.458c1.667 2.74 5.23 8.88 5.23 8.88l.725-.231.355 1.114-2.545.81-.355-1.114.727-.231-1.618-2.654-2.379.757.362 3.054.907-.289.355 1.114zm2.794-6.303-2.445-4.236.465 4.867zM111.65 88.53l.354 1.114.714-.227 5.056 8.935 1.438-.458c-.224-3.2-.866-10.269-.866-10.269l.726-.231-.355-1.114-2.544.81.354 1.114.727-.231.214 3.1-2.379.758-1.47-2.701.907-.289-.355-1.114zm5.923 3.528.454 4.87-2.434-4.24z" style="fill:#f23c3c;fill-opacity:1;fill-rule:nonzero;stroke:#f23c3c;stroke-width:.10000001;stroke-linecap:butt;stroke-linejoin:miter;stroke-miterlimit:4;stroke-dasharray:none;stroke-dashoffset:0;stroke-opacity:1"/><path d="M110.23 75.172s5.188 1.162 6.059 3.897c.991 3.114-.97 3.537-.97 3.537-.76.242-1.867.423-1.867.423l.777 2.44-1.317.42-.777-2.441s-.582.397-1.356.643c0 0-2.264.72-3.209-2.247-.792-2.488 2.665-6.673 2.66-6.672" style="fill:#f23c3c;fill-opacity:1;fill-rule:evenodd;stroke:none;stroke-width:1px;stroke-linecap:butt;stroke-linejoin:miter;stroke-opacity:1"/><rect width="74.17" height="97.773" x="45.745" y="18.959" rx="8.996" ry="8.996" style="opacity:.17307691;fill:#000;fill-opacity:1;fill-rule:nonzero;stroke:none;stroke-width:1.00000012;stroke-linecap:butt;stroke-linejoin:miter;stroke-miterlimit:4;stroke-dasharray:none;stroke-dashoffset:0;stroke-opacity:1;filter:url(#g)" transform="rotate(.484 2.25 532.811)"/><rect width="74.17" height="97.773" x="52.939" y="21.086" rx="8.996" ry="8.996" style="fill:url(#h);fill-opacity:1;fill-rule:nonzero;stroke:#c5c5c5;stroke-width:1;stroke-linecap:butt;stroke-linejoin:miter;stroke-miterlimit:4;stroke-dasharray:none;stroke-dashoffset:0;stroke-opacity:1" transform="rotate(.797)"/><rect width="47.493" height="67.383" x="66.083" y="36.382" rx="0" ry="0" style="fill:none;fill-opacity:1;fill-rule:nonzero;stroke:#3c3c3c;stroke-width:1;stroke-linecap:butt;stroke-linejoin:miter;stroke-miterlimit:4;stroke-dasharray:none;stroke-dashoffset:0;stroke-opacity:1" transform="rotate(.797)"/><path d="M87.994 57.044s9.562 5.584 9.562 11.559c0 6.804-4.158 6.406-4.158 6.406-1.66 0-3.972-.34-3.972-.34v5.333H86.55V74.67s-1.407.419-3.097.419c0 0-4.948 0-4.948-6.485 0-5.437 9.502-11.559 9.49-11.559" style="fill:#3c3c3c;fill-opacity:1;fill-rule:evenodd;stroke:none;stroke-width:1px;stroke-linecap:butt;stroke-linejoin:miter;stroke-opacity:1"/><path d="M55.345 37.825v-1.17h.749L58.2 26.608h1.51C60.467 29.726 62 36.657 62 36.657h.761v1.169h-2.67v-1.17h.762l-.737-3.019H57.62l-.581 3.02h.951v1.169zm4.574-5.159-1.045-4.778-1.033 4.778z" style="fill:#3c3c3c;fill-opacity:1;fill-rule:nonzero;stroke:#3c3c3c;stroke-width:.1;stroke-linecap:butt;stroke-linejoin:miter;stroke-miterlimit:4;stroke-dasharray:none;stroke-dashoffset:0;stroke-opacity:1"/><path d="M58.75 39.958s4.593 2.682 4.593 5.551c0 3.268-1.997 3.077-1.997 3.077-.798 0-1.908-.164-1.908-.164v2.562h-1.382v-2.562s-.675.202-1.487.202c0 0-2.376 0-2.376-3.115 0-2.61 4.563-5.55 4.557-5.55" style="fill:#3c3c3c;fill-opacity:1;fill-rule:evenodd;stroke:none;stroke-width:1px;stroke-linecap:butt;stroke-linejoin:miter;stroke-opacity:1"/><path d="M116.22 105.829v1.17h.749l2.107 10.047h1.51c.757-3.117 2.29-10.048 2.29-10.048h.761v-1.17h-2.67v1.17h.762l-.737 3.02h-2.496l-.581-3.02h.951v-1.17zm4.574 5.158-1.045 4.778-1.033-4.778z" style="fill:#3c3c3c;fill-opacity:1;fill-rule:nonzero;stroke:#3c3c3c;stroke-width:.1;stroke-linecap:butt;stroke-linejoin:miter;stroke-miterlimit:4;stroke-dasharray:none;stroke-dashoffset:0;stroke-opacity:1"/><path d="M119.625 103.695s4.593-2.68 4.593-5.55c0-3.268-1.997-3.077-1.997-3.077-.798 0-1.908.163-1.908.163V92.67h-1.382v2.561s-.675-.201-1.487-.201c0 0-2.376 0-2.376 3.114 0 2.611 4.563 5.551 4.557 5.551" style="fill:#3c3c3c;fill-opacity:1;fill-rule:evenodd;stroke:none;stroke-width:1px;stroke-linecap:butt;stroke-linejoin:miter;stroke-opacity:1"/><path d="M37.422 45.622s.477-1.768 2.298-1.768c2.352 0 2.834 1.9 2.834 3.536 0 3.232-2.392 5.303-2.392 5.303s-6.54-1.391-6.54-4.64c0-3.293 3.8-2.43 3.8-2.43" style="fill:#f23c3c;fill-opacity:1;fill-rule:evenodd;stroke:none;stroke-width:1px;stroke-linecap:butt;stroke-linejoin:miter;stroke-opacity:1"/><path d="M28.962 59.635s-1.332.525-2.799.165a2.72 2.72 0 0 1-1.894-1.622c2.355.904 4.22-1.574 3.132-3.371-1.089-1.797-2.962-1.645-3.785-.164.387-2.2-1.6-3.861-3.532-2.69-1.933 1.17-1.113 3.539.837 4.323-1.405.114-2.447 1.478-1.356 3.278s4.067 1.222 4.165-1.05c0 .001.904 1.3.594 2.562-.31 1.263-1.657 2.372-1.657 2.372z" style="opacity:1;fill:#3c3c3c;fill-opacity:1;fill-rule:evenodd;stroke:none;stroke-width:1px;stroke-linecap:butt;stroke-linejoin:miter;stroke-opacity:1"/></svg>