<!-- Created by ERK --><svg xmlns="http://www.w3.org/2000/svg" xml:space="preserve" width="605.692" height="112.374" viewBox="0 0 160.256 29.732"><defs><path id="a" d="M139.469 100.201h437.363v227.483H139.469z"/></defs><g transform="translate(-29.004 -23.396)"><path d="M39.428 26.319c-.493-1.545-4.976-.877-5.876-1.069-.875-.236-1.612-.832-1.612-.832-.605-.157-1.687.827 1.492 2.484 0 0-2.629-1.216-3.233-.88-.829.85 1.068 1.964 1.068 1.964 1.455 1.187 2.671.775 2.671.775l.002 13.427.005 2.125.314.515.358.29.582.023s6.97.383 8.489-.415c7.508-3.947 2.134-10.76.618-10.797.762.224 3.31-6.293-3.256-7.624" style="fill:#80ff80;fill-opacity:1;stroke:#000;stroke-width:2;stroke-dasharray:none;stroke-opacity:0"/><ellipse cx="38.413" cy="31.214" rx="1.288" ry="1.276" style="fill:#f95;stroke-width:.79375;stroke-opacity:0"/><ellipse cx="40.137" cy="28.93" rx=".817" ry=".806" style="fill:#000;stroke-width:.79375;stroke-opacity:0"/><ellipse cx="39.095" cy="28.471" rx="1.097" ry=".884" style="fill:#80ff80;fill-opacity:1;stroke-width:.79375;stroke-opacity:0"/><path d="M39.806 26.474c-.493-1.545-5.315-1.277-6.215-1.469-.876-.236-1.613-.832-1.613-.832-.604-.157-1.687.827 1.492 2.484 0 0-2.628-1.216-3.233-.88-.828.85 1.068 1.964 1.068 1.964 1.456 1.186 2.671.775 2.671.775l.002 13.427.006 2.125.313.515.358.29.583.023s6.969.383 8.488-.415c7.509-3.948 2.135-10.76.619-10.797.76.224 3.291-7.249-4.888-7.608" style="fill:none;stroke:#000;stroke-width:.994;stroke-dasharray:none;stroke-opacity:1"/><path d="M38.983 35.938c4.059-.09 3.975 3.023 3.355 4.348l-.891 1.765c-.765 1.414-1.215 1.851-2.092 2.626l1.217-.028c.006-.062-.002-.14.008-.203.16-1.044.84-2.149 1.247-3.15" style="fill:none;fill-opacity:1;stroke:#000;stroke-width:.494003;stroke-dasharray:none;stroke-opacity:1"/><path d="M31.773 24.34c1.702 1.052 3.023 1.263 4.212 1.198 2.282-.726 3.446 1.018 3.446 1.018-2.53.426-3.627 1.344-4.926 1.77-1.775.478-4.285-1.204-4.097-2.195.962-.448.85.29 2.933.739-1.903-1.433-1.748-2.531-1.568-2.53" style="fill:#f60;fill-opacity:1;stroke:none;stroke-width:.494001;stroke-dasharray:none;stroke-opacity:1"/><path d="M41.984 31.773c-.034.71-1.273 1.66.448 3.023 0 0 .47-.47.179-1.433" style="fill:#333;fill-opacity:1;stroke:none;stroke-width:.494001;stroke-dasharray:none;stroke-opacity:1"/><path d="M42.7 33.184c.62 1.26-.67 2.282-.135 2.13 1.1-.315 2.722-2.087 2.554-4.145.05-.659-2.396-2.24-2.978.358" style="fill:#333;fill-opacity:1;stroke:none;stroke-width:.494001;stroke-dasharray:none;stroke-opacity:1"/><path d="M41.03 43.236c0 .102-.442.355-.141.44-.21.383-.323.866-.524.869-.045.076-.842.174-.842.348" style="fill:#000;fill-opacity:1;stroke:none;stroke-width:1.09493;stroke-dasharray:none;stroke-opacity:1"/></g><g aria-label="parrot" style="font-size:17.7886px;font-family:Blanka;-inkscape-font-specification:Blanka;fill:red;stroke-width:.895031"><path d="M26.691 72.789h-4.607c-.089 0-.178.089-.178.16v2.455h4.785c.32 0 2.1.089 2.1 1.654s-1.744 1.601-2.1 1.601h-4.785v8.2c0 .072.09.16.178.16h2.313c.124 0 .178-.088.178-.16v-5.567h2.116c.338 0 4.803-.054 4.803-4.234s-4.233-4.27-4.803-4.27m14.404 14.018-5.408-13.91c-.053-.143-.302-.143-.356 0l-5.39 13.91c-.053.107.018.214.178.214h2.437c.071 0 .16-.036.178-.107l2.775-7.934 2.81 7.934c.018.071.107.107.16.107h2.456c.124 0 .213-.107.16-.214m10.774-.018c-.89-1.974-1.85-3.93-2.74-5.941 1.423-.516 2.615-1.654 2.615-3.825 0-4.198-4.002-4.233-4.803-4.233h-4.607c-.089 0-.178.089-.178.16v2.42h4.785c.427 0 2.1.088 2.1 1.653 0 1.566-1.513 1.637-2.1 1.637h-4.785v8.2c0 .072.09.16.178.16h2.33c.107 0 .196-.088.196-.16v-5.585h1.53l2.597 5.639c.018.053.125.107.178.107h2.544c.142 0 .213-.107.16-.232m10.474-.195c-.89-1.975-1.85-3.931-2.74-5.942 1.424-.515 2.616-1.654 2.616-3.824 0-4.198-4.003-4.234-4.803-4.234h-4.607c-.09 0-.178.09-.178.16v2.42h4.784c.428 0 2.1.088 2.1 1.654s-1.512 1.636-2.1 1.636h-4.784v8.201c0 .071.089.16.178.16h2.33c.107 0 .196-.089.196-.16v-5.586h1.53l2.597 5.64c.017.053.124.106.178.106h2.543c.143 0 .214-.107.16-.231m8.699-6.849c0-.747-.587-1.352-1.334-1.352s-1.334.605-1.334 1.352c0 .73.587 1.334 1.334 1.334s1.334-.604 1.334-1.334m5.514-.053c0-3.54-2.294-7.098-6.83-7.098-4.608 0-6.867 3.558-6.867 7.098 0 3.558 2.26 7.133 6.867 7.133 4.536 0 6.83-3.575 6.83-7.133m-2.668.053c0 2.295-1.405 4.59-4.162 4.59-2.793 0-4.18-2.295-4.18-4.59 0-2.33 1.387-4.643 4.18-4.643 2.757 0 4.162 2.313 4.162 4.643m5.542-1.992v8.912c0 .071.07.16.195.16h2.295c.124 0 .213-.089.213-.16v-8.912Zm-2.74-2.722h8.165c.124 0 .195-.07.195-.16v-2.117c0-.07-.07-.16-.195-.16H76.69c-.107 0-.196.09-.196.16v2.117c0 .09.089.16.196.16" style="fill:red" transform="matrix(1.42452 0 0 1.23574 39.1 -85.964)"/></g><g aria-label="atocera" style="font-size:74.6667px;font-family:Blanka;-inkscape-font-specification:Blanka;white-space:pre;shape-inside:url(#a);fill:#80ff80;fill-opacity:1;stroke-width:3;stroke-opacity:0" transform="matrix(.37682 0 0 .29845 -34.145 -33.438)"><path d="m186.36 183.305-22.7-58.39c-.223-.596-1.269-.596-1.493 0l-22.624 58.39c-.224.448.075.896.747.896h10.23c.298 0 .671-.15.746-.448l11.648-33.301 11.797 33.301c.075.299.448.448.672.448h10.304c.523 0 .896-.448.672-.896m5.135-37.184v37.408c0 .299.299.672.821.672h9.632c.523 0 .896-.373.896-.672v-37.408zm-11.499-11.424h34.272c.523 0 .822-.298.822-.672v-8.885c0-.299-.299-.672-.822-.672h-34.272c-.448 0-.82.373-.82.672v8.885c0 .374.372.672.82.672m67.881 19.787c0-3.136-2.464-5.675-5.6-5.675s-5.6 2.539-5.6 5.675c0 3.061 2.464 5.6 5.6 5.6s5.6-2.539 5.6-5.6m23.147-.224c0-14.859-9.632-29.792-28.672-29.792-19.339 0-28.821 14.933-28.821 29.792 0 14.933 9.482 29.941 28.82 29.941 19.04 0 28.673-15.008 28.673-29.941m-11.2.224c0 9.632-5.899 19.264-17.472 19.264-11.723 0-17.547-9.632-17.547-19.264 0-9.781 5.824-19.488 17.547-19.488 11.573 0 17.472 9.707 17.472 19.488" style="fill:#80ff80;fill-opacity:1"/></g><path d="M10.612 28.119h1.277v-5c0-.033-.034-.075-.093-.075h-1.108a.13.13 0 0 0-.093.05l-2.293 4.9-2.411-4.9c-.009-.024-.06-.05-.084-.05H4.68c-.059 0-.084.042-.084.076v6.537c0 .033.025.075.084.075h1.11c.05 0 .092-.042.092-.075v-3.754l1.823 3.512c.009.025.06.05.084.05h1.034c.025 0 .067-.025.075-.05l1.714-3.42zm5.511-1.714a.63.63 0 1 0-1.26 0c0 .343.277.627.63.627s.63-.284.63-.627m2.604-.025c0-1.664-1.084-3.336-3.226-3.336-2.176 0-3.242 1.672-3.242 3.336 0 1.672 1.066 3.352 3.242 3.352 2.142 0 3.226-1.68 3.226-3.352m-1.26.025c0 1.078-.664 2.157-1.966 2.157-1.319 0-1.974-1.079-1.974-2.157 0-1.095.655-2.182 1.974-2.182 1.302 0 1.966 1.087 1.966 2.182m2.773-3.361h-1.101c-.05 0-.093.042-.093.076v2.625h1.286v-1.48c1.461-.075 2.545.535 2.545 2.123 0 2.065-1.73 2.149-2.545 2.115v-1.471h-1.286v2.625c0 .033.042.075.093.075h1.1c1.672 0 3.932-.485 3.932-3.344 0-2.967-2.294-3.344-3.932-3.344m7.385 5.443h-1.907v-1.505h2.637c.05 0 .093-.042.093-.075v-1.062c0-.042-.042-.075-.093-.075h-2.637v-1.513h1.907v-1.213h-3.1c-.05 0-.093.042-.093.076v6.537c0 .033.042.075.093.075h3.1zm5.611 1.137c-.42-.928-.873-1.848-1.293-2.793.672-.242 1.234-.777 1.234-1.797 0-1.973-1.89-1.99-2.268-1.99h-2.176c-.042 0-.084.042-.084.076v1.137h2.26c.202 0 .992.041.992.777s-.715.77-.992.77h-2.26v3.853c0 .033.042.075.084.075h1.1c.051 0 .093-.042.093-.075v-2.625h.723l1.226 2.65c.009.025.06.05.084.05h1.202c.067 0 .1-.05.075-.108m5.805-6.58h-1.084c-.058 0-.1.042-.1.076v4.355l-3.1-4.405c-.009-.017-.059-.026-.076-.026h-1.117c-.042 0-.084.042-.084.076v5.007h1.285v-2.825l3.092 4.405c.008.017.058.025.075.025h1.11c.058 0 .092-.042.092-.075V23.12c0-.034-.034-.076-.093-.076" style="font-size:8.69386px;font-family:Blanka;-inkscape-font-specification:Blanka;fill:#80ff80;stroke-width:.437431"/><g style="font-size:8.69386px;font-family:Blanka;-inkscape-font-specification:Blanka;fill:#fff;stroke-width:.437431"><path d="m75.104 53.316-2.643-6.799c-.026-.07-.148-.07-.174 0l-2.634 6.799c-.026.052.008.104.087.104h1.19c.036 0 .079-.017.088-.052l1.356-3.878 1.374 3.878c.008.035.052.052.078.052h1.2c.06 0 .104-.052.078-.104m5.025-.009c-.435-.965-.904-1.921-1.339-2.904.696-.252 1.278-.808 1.278-1.869 0-2.052-1.956-2.07-2.347-2.07h-2.252c-.044 0-.087.044-.087.08v1.182h2.339c.208 0 1.026.043 1.026.808s-.74.8-1.026.8h-2.339v4.008c0 .035.043.078.087.078h1.139c.052 0 .095-.043.095-.078v-2.73h.748l1.27 2.756c.008.026.06.052.086.052h1.244c.07 0 .104-.052.078-.113m4.225-1.165c-.843.035-2.634-.052-2.634-2.2 0-1.651 1.121-2.286 2.634-2.208v1.539h1.33v-2.73c0-.035-.035-.078-.095-.078h-1.13c-1.705 0-4.078.391-4.078 3.477 0 2.974 2.347 3.478 4.077 3.478h1.13c.061 0 .096-.043.096-.078v-1.2zm7.06 1.174-2.643-6.799c-.026-.07-.148-.07-.174 0l-2.635 6.799c-.026.052.01.104.087.104h1.191c.035 0 .079-.017.087-.052l1.357-3.878 1.373 3.878c.009.035.052.052.079.052h1.2c.06 0 .104-.052.078-.104m1.512-6.851h-1.139c-.052 0-.095.043-.095.078v2.73h1.33v-1.539c1.513-.078 2.634.557 2.634 2.208 0 2.148-1.79 2.235-2.634 2.2v-1.53h-1.33v2.73c0 .035.043.078.095.078h1.14c1.73 0 4.068-.504 4.068-3.478 0-3.086-2.373-3.477-4.069-3.477m7.642 5.66h-1.973V50.56h2.73c.052 0 .095-.044.095-.079v-1.104c0-.043-.043-.078-.095-.078h-2.73v-1.573h1.973v-1.261H97.36c-.052 0-.096.043-.096.078v6.799c0 .035.044.078.096.078h3.208z" style="fill:#fff" transform="matrix(.96629 0 0 .96156 -26.324 -21.635)"/></g><path d="M78.212 24.273V23.12c0-.034-.034-.076-.093-.076h-1.092c-1.671 0-3.94.485-3.94 3.344 0 2.968 2.294 3.344 3.94 3.344h1.092c.06 0 .093-.042.093-.075V25.56h-2.579v1.28h1.293v1.672c-1.461.075-2.545-.535-2.545-2.124 0-2.065 1.73-2.148 2.545-2.115zm5.536 5.359-2.554-6.537c-.025-.067-.143-.067-.168 0l-2.545 6.537c-.026.05.008.1.084.1h1.15c.034 0 .076-.017.084-.05l1.31-3.728 1.328 3.728c.009.033.05.05.076.05h1.16c.058 0 .1-.05.075-.1m6.284-1.513h1.277v-5c0-.033-.034-.075-.093-.075h-1.109a.13.13 0 0 0-.092.05l-2.294 4.9-2.41-4.9c-.01-.024-.06-.05-.085-.05h-1.125c-.06 0-.084.042-.084.076v6.537c0 .033.025.075.084.075h1.109c.05 0 .092-.042.092-.075v-3.754l1.823 3.512c.009.025.059.05.084.05h1.033c.025 0 .067-.025.076-.05l1.714-3.42zm4.838.368h-1.907v-1.505h2.638c.05 0 .093-.042.093-.075v-1.062c0-.042-.042-.075-.093-.075h-2.638v-1.513h1.907v-1.213h-3.1c-.05 0-.092.042-.092.076v6.537c0 .033.042.075.093.075h3.1zm4.108-2.467c-.478-.225-.949-.225-.99-.225-.43 0-.841-.251-.841-.736 0-.535.378-.81.84-.81.437 0 .807.225.823.701 0 .026.042.067.093.067h1.05c.059 0 .1-.041.092-.067-.017-1.136-.907-1.906-2.058-1.906-1.075 0-2.092.761-2.092 2.015 0 .778.395 1.371 1.092 1.689.488.226.941.226 1 .226.378.016.84.317.84.81 0 .443-.395.744-.84.744h-.009v1.204h.01c1.074 0 2.082-.694 2.082-1.948 0-.785-.386-1.437-1.092-1.764" style="font-size:8.69386px;font-family:Blanka;-inkscape-font-specification:Blanka;fill:#80ff80;stroke-width:.437431"/><g style="font-size:8.69386px;font-family:Blanka;-inkscape-font-specification:Blanka;fill:#fff;stroke-width:.437431"><path d="M133.83 49.3h-2.729v-1.574h1.974v-1.261h-3.209c-.052 0-.095.043-.095.078v6.799c0 .035.043.078.095.078h1.236v-2.86h2.73c.051 0 .095-.044.095-.079v-1.104c0-.043-.044-.078-.096-.078zm4.304.66a.653.653 0 0 0-.652-.66.653.653 0 0 0-.652.66.651.651 0 1 0 1.304 0m2.695-.026c0-1.73-1.121-3.47-3.338-3.47-2.252 0-3.356 1.74-3.356 3.47 0 1.739 1.104 3.486 3.356 3.486 2.217 0 3.338-1.747 3.338-3.486m-1.304.026c0 1.121-.686 2.243-2.034 2.243-1.365 0-2.043-1.122-2.043-2.243 0-1.14.678-2.27 2.043-2.27 1.348 0 2.034 1.13 2.034 2.27m6.382 3.347c-.435-.965-.904-1.921-1.34-2.904.696-.252 1.279-.808 1.279-1.869 0-2.052-1.956-2.07-2.348-2.07h-2.251c-.044 0-.087.044-.087.08v1.182h2.339c.208 0 1.025.043 1.025.808s-.739.8-1.025.8h-2.339v4.008c0 .035.043.078.087.078h1.139c.052 0 .095-.043.095-.078v-2.73h.748l1.27 2.756c.008.026.06.052.086.052h1.243c.07 0 .105-.052.079-.113" style="fill:#fff" transform="matrix(.96629 0 0 .96156 -23.734 -21.635)"/></g><path d="M122.069 25.034c0 .736-.992.736-.992.736h-1.008v-1.53h1.008s.992-.008.992.794m1.285-.075c0-1.965-2.277-1.915-2.277-1.915h-2.192c-.05 0-.093.042-.093.076v3.895h2.285s1.084-.05 1.084.736c0 .644-.664.76-1.084.76h-1v1.221h1c.454 0 2.37-.083 2.37-1.948 0 0 .041-1.036-1.026-1.396.513-.209.933-.652.933-1.43m5.603 4.674-2.554-6.537c-.025-.067-.142-.067-.168 0l-2.545 6.537c-.025.05.009.1.084.1h1.15c.034 0 .076-.017.085-.05l1.31-3.728 1.328 3.728c.008.033.05.05.075.05h1.16c.058 0 .1-.05.075-.1m1.655-4.163v4.188c0 .033.034.075.093.075h1.083c.06 0 .101-.042.101-.075v-4.188zm-1.294-1.28h3.856c.06 0 .093-.033.093-.075v-.994c0-.034-.034-.076-.093-.076h-3.856c-.05 0-.092.042-.092.076v.994c0 .042.042.076.092.076m8.015 2.215a.63.63 0 1 0-1.26 0c0 .343.277.627.63.627s.63-.284.63-.627m2.604-.025c0-1.664-1.084-3.336-3.226-3.336-2.176 0-3.243 1.672-3.243 3.336 0 1.672 1.067 3.352 3.243 3.352 2.142 0 3.226-1.68 3.226-3.352m-1.26.025c0 1.078-.664 2.157-1.966 2.157-1.319 0-1.974-1.079-1.974-2.157 0-1.095.655-2.182 1.974-2.182 1.302 0 1.966 1.087 1.966 2.182m5.418 2.098c-.814.034-2.545-.05-2.545-2.115 0-1.588 1.084-2.198 2.545-2.123v1.48h1.286V23.12c0-.034-.034-.076-.093-.076h-1.092c-1.646 0-3.94.377-3.94 3.344 0 2.86 2.268 3.344 3.94 3.344h1.092c.06 0 .093-.042.093-.075v-1.154zm4.738-.016h-1.907v-1.505h2.638c.05 0 .093-.042.093-.075v-1.062c0-.042-.042-.075-.093-.075h-2.638v-1.513h1.907v-1.213h-3.1c-.05 0-.092.042-.092.076v6.537c0 .033.042.075.093.075h3.1zm5.612 1.137c-.42-.928-.874-1.848-1.294-2.793.672-.242 1.235-.777 1.235-1.797 0-1.973-1.89-1.99-2.268-1.99h-2.176c-.042 0-.084.042-.084.076v1.137h2.26c.202 0 .991.041.991.777s-.714.77-.99.77h-2.261v3.853c0 .033.042.075.084.075h1.1c.051 0 .093-.042.093-.075v-2.625h.723l1.226 2.65c.009.025.059.05.084.05h1.201c.068 0 .101-.05.076-.108m5.519.008-2.553-6.537c-.026-.067-.143-.067-.168 0l-2.546 6.537c-.025.05.009.1.084.1h1.151c.034 0 .076-.017.084-.05l1.31-3.728 1.328 3.728c.009.033.05.05.075.05h1.16c.059 0 .1-.05.075-.1" style="font-size:8.69386px;font-family:Blanka;-inkscape-font-specification:Blanka;fill:#80ff80;stroke-width:.437431"/></svg>