<!-- Created by ERK --><svg xmlns="http://www.w3.org/2000/svg" xml:space="preserve" width="258.375" height="136.949" viewBox="0 0 68.362 36.235"><defs><path id="a" d="M139.469 100.201h437.363v227.483H139.469z"/></defs><g transform="translate(-29.004 -23.396)"><path d="M39.428 26.319c-.493-1.545-4.976-.877-5.876-1.069-.875-.236-1.612-.832-1.612-.832-.605-.157-1.687.827 1.492 2.484 0 0-2.629-1.216-3.233-.88-.829.85 1.068 1.964 1.068 1.964 1.455 1.187 2.671.775 2.671.775l.002 13.427.005 2.125.314.515.358.29.582.023s6.97.383 8.489-.415c7.508-3.947 2.134-10.76.618-10.797.762.224 3.31-6.293-3.256-7.624" style="fill:#80ff80;fill-opacity:1;stroke:#000;stroke-width:2;stroke-dasharray:none;stroke-opacity:0"/><ellipse cx="38.413" cy="31.214" rx="1.288" ry="1.276" style="fill:#f95;stroke-width:.79375;stroke-opacity:0"/><ellipse cx="40.137" cy="28.93" rx=".817" ry=".806" style="fill:#000;stroke-width:.79375;stroke-opacity:0"/><ellipse cx="39.095" cy="28.471" rx="1.097" ry=".884" style="fill:#80ff80;fill-opacity:1;stroke-width:.79375;stroke-opacity:0"/><path d="M39.806 26.474c-.493-1.545-5.315-1.277-6.215-1.469-.876-.236-1.613-.832-1.613-.832-.604-.157-1.687.827 1.492 2.484 0 0-2.628-1.216-3.233-.88-.828.85 1.068 1.964 1.068 1.964 1.456 1.186 2.671.775 2.671.775l.002 13.427.006 2.125.313.515.358.29.583.023s6.969.383 8.488-.415c7.509-3.948 2.135-10.76.619-10.797.76.224 3.291-7.249-4.888-7.608" style="fill:none;stroke:#000;stroke-width:.994;stroke-dasharray:none;stroke-opacity:1"/><path d="M38.983 35.938c4.059-.09 3.975 3.023 3.355 4.348l-.891 1.765c-.765 1.414-1.215 1.851-2.092 2.626l1.217-.028c.006-.062-.002-.14.008-.203.16-1.044.84-2.149 1.247-3.15" style="fill:none;fill-opacity:1;stroke:#000;stroke-width:.494003;stroke-dasharray:none;stroke-opacity:1"/><path d="M31.773 24.34c1.702 1.052 3.023 1.263 4.212 1.198 2.282-.726 3.446 1.018 3.446 1.018-2.53.426-3.627 1.344-4.926 1.77-1.775.478-4.285-1.204-4.097-2.195.962-.448.85.29 2.933.739-1.903-1.433-1.748-2.531-1.568-2.53" style="fill:#f60;fill-opacity:1;stroke:none;stroke-width:.494001;stroke-dasharray:none;stroke-opacity:1"/><path d="M41.984 31.773c-.034.71-1.273 1.66.448 3.023 0 0 .47-.47.179-1.433" style="fill:#333;fill-opacity:1;stroke:none;stroke-width:.494001;stroke-dasharray:none;stroke-opacity:1"/><path d="M42.7 33.184c.62 1.26-.67 2.282-.135 2.13 1.1-.315 2.722-2.087 2.554-4.145.05-.659-2.396-2.24-2.978.358" style="fill:#333;fill-opacity:1;stroke:none;stroke-width:.494001;stroke-dasharray:none;stroke-opacity:1"/><path d="M41.03 43.236c0 .102-.442.355-.141.44-.21.383-.323.866-.524.869-.045.076-.842.174-.842.348" style="fill:#000;fill-opacity:1;stroke:none;stroke-width:1.09493;stroke-dasharray:none;stroke-opacity:1"/></g><g aria-label="parrot" style="font-size:17.7886px;font-family:Blanka;-inkscape-font-specification:Blanka;fill:red;stroke-width:.895031"><path d="M26.691 72.789h-4.607c-.089 0-.178.089-.178.16v2.455h4.785c.32 0 2.1.089 2.1 1.654s-1.744 1.601-2.1 1.601h-4.785v8.2c0 .072.09.16.178.16h2.313c.124 0 .178-.088.178-.16v-5.567h2.116c.338 0 4.803-.054 4.803-4.234s-4.233-4.27-4.803-4.27m14.404 14.018-5.408-13.91c-.053-.143-.302-.143-.356 0l-5.39 13.91c-.053.107.018.214.178.214h2.437c.071 0 .16-.036.178-.107l2.775-7.934 2.81 7.934c.018.071.107.107.16.107h2.456c.124 0 .213-.107.16-.214m10.774-.018c-.89-1.974-1.85-3.93-2.74-5.941 1.423-.516 2.615-1.654 2.615-3.825 0-4.198-4.002-4.233-4.803-4.233h-4.607c-.089 0-.178.089-.178.16v2.42h4.785c.427 0 2.1.088 2.1 1.653 0 1.566-1.513 1.637-2.1 1.637h-4.785v8.2c0 .072.09.16.178.16h2.33c.107 0 .196-.088.196-.16v-5.585h1.53l2.597 5.639c.018.053.125.107.178.107h2.544c.142 0 .213-.107.16-.232m10.474-.195c-.89-1.975-1.85-3.931-2.74-5.942 1.424-.515 2.616-1.654 2.616-3.824 0-4.198-4.003-4.234-4.803-4.234h-4.607c-.09 0-.178.09-.178.16v2.42h4.784c.428 0 2.1.088 2.1 1.654s-1.512 1.636-2.1 1.636h-4.784v8.201c0 .071.089.16.178.16h2.33c.107 0 .196-.089.196-.16v-5.586h1.53l2.597 5.64c.017.053.124.106.178.106h2.543c.143 0 .214-.107.16-.231m8.699-6.849c0-.747-.587-1.352-1.334-1.352s-1.334.605-1.334 1.352c0 .73.587 1.334 1.334 1.334s1.334-.604 1.334-1.334m5.514-.053c0-3.54-2.294-7.098-6.83-7.098-4.608 0-6.867 3.558-6.867 7.098 0 3.558 2.26 7.133 6.867 7.133 4.536 0 6.83-3.575 6.83-7.133m-2.668.053c0 2.295-1.405 4.59-4.162 4.59-2.793 0-4.18-2.295-4.18-4.59 0-2.33 1.387-4.643 4.18-4.643 2.757 0 4.162 2.313 4.162 4.643m5.542-1.992v8.912c0 .071.07.16.195.16h2.295c.124 0 .213-.089.213-.16v-8.912Zm-2.74-2.722h8.165c.124 0 .195-.07.195-.16v-2.117c0-.07-.07-.16-.195-.16H76.69c-.107 0-.196.09-.196.16v2.117c0 .09.089.16.196.16" style="fill:red" transform="matrix(1.0075 0 0 .87399 -17.327 -39.82)"/></g><g aria-label="atocera" style="font-size:74.6667px;font-family:Blanka;-inkscape-font-specification:Blanka;white-space:pre;shape-inside:url(#a);fill:#80ff80;fill-opacity:1;stroke-width:3;stroke-opacity:0" transform="matrix(.37682 0 0 .29845 -34.145 -33.438)"><path d="m186.36 183.305-22.7-58.39c-.223-.596-1.269-.596-1.493 0l-22.624 58.39c-.224.448.075.896.747.896h10.23c.298 0 .671-.15.746-.448l11.648-33.301 11.797 33.301c.075.299.448.448.672.448h10.304c.523 0 .896-.448.672-.896m5.135-37.184v37.408c0 .299.299.672.821.672h9.632c.523 0 .896-.373.896-.672v-37.408zm-11.499-11.424h34.272c.523 0 .822-.298.822-.672v-8.885c0-.299-.299-.672-.822-.672h-34.272c-.448 0-.82.373-.82.672v8.885c0 .374.372.672.82.672m67.881 19.787c0-3.136-2.464-5.675-5.6-5.675s-5.6 2.539-5.6 5.675c0 3.061 2.464 5.6 5.6 5.6s5.6-2.539 5.6-5.6m23.147-.224c0-14.859-9.632-29.792-28.672-29.792-19.339 0-28.821 14.933-28.821 29.792 0 14.933 9.482 29.941 28.82 29.941 19.04 0 28.673-15.008 28.673-29.941m-11.2.224c0 9.632-5.899 19.264-17.472 19.264-11.723 0-17.547-9.632-17.547-19.264 0-9.781 5.824-19.488 17.547-19.488 11.573 0 17.472 9.707 17.472 19.488" style="fill:#80ff80;fill-opacity:1"/></g></svg>