<?xml version="1.0" encoding="UTF-8"?>
<!-- Created by ERK -->
<svg width="6911.2" height="1893.3" version="1.1" viewBox="0 0 6911.2 1893.3" xml:space="preserve" xmlns="http://www.w3.org/2000/svg"><path d="m7146-206.11h-7484.9" display="none" fill="none" stroke="#000" stroke-linecap="round" stroke-width="3.571"/><g><path d="m1891.5 946.67a944.88 944.88 0 0 0-1889.8 0 944.88 944.88 0 0 0 1889.8 0z" fill="#4d0d6a"/><path d="m1831.1 946.67a884.41 884.41 0 0 0-1768.8 0 884.41 884.41 0 0 0 1768.8 0z" fill="#fff"/><path d="m1679 569.14c-131.09-254.28-384.7-422.37-669.96-444.03-285.26-21.664-561.35 106.19-729.33 337.76-167.98 231.57-203.82 533.71-94.672 798.15l363.57-366 597.74 593.77 309.34-311.41 196.36 195.06c147.83-244.93 158.04-549.02 26.949-803.3z" fill="#6b4fb6"/><path d="m548.91 980.54 597.74 593.77 309.34-311.41 205.67 204.3c-179.07 245.97-471.99 382.62-775.52 361.8-303.53-20.818-575.05-196.19-718.86-464.3z" fill="#e38d2c"/><path d="m391.38 1610.9c6.7917-7.2656 14.679-14.509 24.389-19.713 2.6235-1.4062 5.38-2.6635 8.0874-2.5273 3.0698 0.1544 6.0764 2.1003 8.5929 4.2964 5.6106 4.8965 8.7843 11.037 13.873 16.32 3.7666 3.9111 8.5824 7.3527 14.12 7.2133 4.8056-0.121 10.155-2.9392 13.924-6.151 1.3831-1.1785 2.5535-2.4101 3.641-3.5621 6.0656-6.4257 9.5525-10.379 14.271-16.606 0.8057-1.0633 1.6473-2.1928 2.5704-3.3603 1.9786-2.5026 4.3317-5.18 5.9718-8.107 0.6121-1.0923 1.1249-2.2194 1.5809-3.3828 2.4259-6.1898 3.2428-13.408 6.1445-19.604 1.3167-2.8118 3.0626-5.4134 4.8899-7.9586 11.915-16.597 27.289-30.795 45.447-40.135 9.992-5.1399 20.827-8.8085 31.786-9.8645 12.292-1.1844 24.74 0.9181 37.323 0.7017 9.1782-0.1578 18.428-1.5493 26.782-4.9127 20.732-8.3468 35.948-28.838 53.247-41.362 3.5659 22.542-3.9528 43.994-7.5947 66.021-3.3418 20.211-3.4193 40.907-7.4023 60.805-3.3436 16.704-9.4395 32.846-14.595 49.306-3.3305 10.632-6.2688 21.398-7.5335 32.35-1.3489 11.681-0.79431 23.574-0.51194 35.422 0.7241 30.38-0.34202 60.456 0.38474 90.84 10.742 3.527 21.55 6.8478 32.419 9.9604-3.5876-33.313 6.0707-64.364 10.819-96.765 2.4901-16.992 3.6296-34.356 0.36332-51.172-1.8397-9.4712-5.0771-18.768-5.8722-28.218-1.0052-11.946 1.8929-24.135 4.8158-36.117 4.0207-16.483 8.0882-32.574 9.4351-49.227 0.9959-12.313 0.50429-24.934 3.1214-36.931 1.6648-7.6317 4.5877-15.011 8.4039-22.028 8.5474-15.716 21.576-29.61 35.7-38.911 12.863-8.4711 26.635-13.132 43.517-20.479 1.9117-0.8319 3.8633-1.6983 5.3166-1.1815 1.5453 0.5496 2.5272 2.663 3.3475 4.7258 3.9057 9.8218 4.1486 18.495 3.3475 27.37-1.0557 11.696-3.9243 23.745-6.6399 35.724-6.3608 28.06-11.881 55.736-20.011 82.726-3.989 13.244-8.6062 26.323-11.624 40.114-4.2281 19.323-5.3165 40.044 0.55301 58.512 4.3364 13.645 12.471 26.06 17.662 39.459 6.2744 16.194 8.2505 33.825 13.297 50.528 2.4496 8.108 5.6227 15.997 7.4981 24.229 1.1269 4.946 1.7852 10.015 2.8846 14.964 2.246 10.11 6.3328 19.718 8.1196 30.056 11.249 1.4026 22.523 2.5888 33.817 3.558-2.1244-26.392-12.8-50.564-19.726-75.69-4.7023-17.059-7.6762-34.557-10.974-52.013-2.9194-15.454-6.0926-30.875-7.6066-46.441-2.2222-22.848-0.86962-46.01 1.13-69.066 3.0957-35.693 7.7423-71.131 18.19-105.38 8.4567-27.722 20.714-54.664 37.866-77.837 9.5925-12.96 20.716-24.741 31.505-36.756 13.079-14.564 25.667-29.471 38.149-44.59 12.65-15.323 25.19-30.863 36.831-46.696 9.4501-12.854 18.307-25.9 27.666-39.569 12.175-17.781 25.2-36.614 24.819-57.696-0.1312-7.2496-1.8478-14.765-0.3223-21.596 1.1912-5.334 4.3594-10.25 7.4134-15.149 10.383-16.656 19.448-33.111 29.794-48.994 15.116-23.205 32.969-45.189 47.332-69.123 15.869-26.443 27.48-55.267 37.758-84.506 15.167-43.144 27.434-87.193 33.955-132.29 8.1108-56.087 7.3323-113.79-0.1164-169.87-3.9466-29.712-9.7658-58.968-16.649-88.449-3.5114-15.039-7.2998-30.137-13.771-43.798-9.34-19.717-24.269-36.444-38.864-53.669-10.515-12.41-20.857-25.08-25.909-40.098-6.2946-18.711-4.3776-41.068 5.552-59.221 6.5953-12.058 16.726-22.261 28.669-27.184 13.249-5.4612 28.728-4.425 43.682-3.5555 18.41 1.0705 36.023 1.8883 53.84 3.5555 29.566 2.7666 59.694 7.8722 89.395 5.0793 10.68-1.0043 21.305-3.0298 31.999-3.5555 9.2857-0.45642 18.624 0.21782 27.936 1.0159 25.696 2.2022 51.191 5.347 76.558 9.4642 36.122 5.8626 71.986 13.696 107.51 22.429-25.488-17.414-52.321-34.426-81.354-45.433-18.998-7.2032-38.939-11.835-58.653-17.024-20.808-5.4764-41.363-11.573-61.936-17.866-24.869-7.6074-49.763-15.503-73.257-26.553-18.205-8.5626-35.569-19.019-51.904-30.85-9.8968-7.1681-19.416-14.841-30.158-20.708-30.117-16.451-69.845-18.713-102.33-7.0435-16.023 5.7566-30.283 14.904-43.752 25.418-30.884 24.109-57.613 55.407-70.743 91.959-8.7144 24.26-11.439 50.834-9.3204 76.437 4.0632 49.105 25.942 94.637 45.458 140.52 13.298 31.264 25.5 62.69 30.258 95.978 5.5703 38.966 0.9421 80.483-15.228 116.81-10.06 22.601-24.587 43.194-43.54 58.952-8.0133 6.6626-16.818 12.461-26.309 16.37-19.016 7.8321-40.786 8.079-60.462 14.095-21.621 6.611-40.714 20.188-59.241 33.829-18.945 13.949-37.299 27.965-56.76 40.555-11.585 7.4948-23.562 14.484-35.469 21.597-26.493 15.826-52.636 32.262-76.949 51.152-29.876 23.211-56.989 50.129-81.545 79.001-26.916 31.647-50.759 65.643-73.097 100.72-12.08 18.969-23.72 38.255-33.342 58.463-8.3272 17.489-15.143 35.668-22.711 53.637-9.3739 22.256-19.902 44.187-25.837 67.359-6.9566 27.162-7.6013 56.03-15.757 83.087-3.9768 13.194-9.7396 25.957-16.879 37.625-7.2568 11.86-15.936 22.587-25.505 33.263-9.6041 10.716-20.105 21.38-24.435 34.246-2.2494 6.6839-2.8333 13.962-2.5749 21.703 0.26476 7.932 1.414 16.35 6.8052 21.335 2.9943 2.7687 7.2971 4.4783 9.748 7.7248 1.7192 2.2773 2.5271 5.3108 2.7589 8.2766 0.7933 10.154-5.1681 19.514 0.72649 29.684" fill="#4d0d6a"/><path d="m2371.8 260.32c-6.8816-0.75425-12.617-0.0926-15.357 3.4941-3.4194 4.476-2.178 13.507-1.2872 22.918 1.3573 14.339 1.9002 29.557 2.0625 44.957-2.7241 0.27881-5.401 0.54581-8.0253 0.80078-31.745 3.0842-55.884 4.3174-97.111 13.783-24.631 5.6553-55.36 14.25-80 17-20.804 2.3219-37.265 0.47635-56.826 3.7871-12.951 2.192-27.258 6.6439-34.096 16.102-8.7856 12.153-5.2364 32.57 3.7872 48.303 11.351 19.79 31.36 32.166 51.142 33.15 20.079 0.99919 39.925-9.7359 58.25-20.836 20.378-12.343 38.878-25.137 59.195-35.045 24.262-11.831 51.115-19.546 78.096-25.471 8.4426-1.8538 16.897-3.533 25.363-5.0625-2.4206 216.66-3.7862 344.64-6.5332 500.14-0.5037 28.517-1.0549 57.959-2.1425 88.033-3.0588 84.581-10.37 174.16-16.688 266.24-55.664-8.349-110.82-19.64-165.07-34.961-20.838 40.717 14.37 75.944 51.242 96.482 36.711 20.448 75.068 26.338 113.83 31.104 52.133 6.4094 105 10.786 158.21 12.533 150.48 4.9395 303.76-11.158 445.23-56.465 74.681-23.917 146.07-55.971 216.44-96.326 62.234-35.689 123.67-77.87 152.91-143.23 25.56-57.124 26.538-131.96-7.0332-182.97-15.705-23.868-38.971-42.527-63.963-56.984-36.259-20.975-76.15-33.112-117.42-40.74-74.29-13.733-153.03-12.852-223.35-13.406 87.837-40.456 188.04-63.735 258.85-139.94 29.34-31.575 53.633-72.236 52.115-112.29-1.4851-39.196-27.691-77.809-59.358-105.61-55.402-48.638-127.53-64.177-199.07-72.779-89.857-10.805-178.79-10.667-266.07-8.9629-62.134 1.2132-123.43 3.2206-189.3 9.2734-1.013 0.0931-2.026 0.18625-3.041 0.28125-1.9222-6.6364-4.7655-12.698-9.3965-17.285-4.2872-4.2469-10.107-7.2316-15.678-9.9492-21.655-10.564-39.548-17.111-67.682-25.066-7.3342-2.0738-15.364-4.2438-22.246-4.998zm320.68 90.715c54.685 0.0642 109.67 4.3127 162.89 15.139 33.398 6.7939 66.099 16.177 98.096 30.275 38.167 16.817 75.331 40.342 95.861 76.209 19.714 34.44 24.092 80.261 10.379 117.13-17.396 46.775-63.904 79.149-111.94 98.598-29.04 11.757-58.64 18.79-86.635 25.031-49.401 11.013-93.804 19.562-157.99 19.051-67.282-0.53634-156.3-11.027-177.65 17.658-2.5924 3.483-4.189 7.5426-5.9161 12.059-1.3201 3.4515-2.7169 7.1684-3.7988 11.164-2.8303 10.453-3.4992 22.81-0.3047 30.641 3.3163 8.1291 10.795 11.381 19 10.98 11.219-0.54795 23.793-7.9239 37.199-13.186 9.9853-3.9191 20.433-6.6647 28.51-8.7188 14.887-3.7861 21.716-5.2201 38.225-6.1914 8.241-0.48487 18.893-0.85372 29.805-1.1465 76.348-2.0484 165.36-0.32761 240.72 4.043 62.736 3.6388 116 9.1142 163.63 32.486 26.346 12.928 50.968 31.331 68.842 56.787 18.13 25.822 29.314 58.9 31.02 91.203 3.0487 57.754-24.208 113.03-62.562 155.21-63.524 69.859-157.48 103.79-250.26 119.12-76.206 12.585-151.61 12.612-227.4 10.828-70.041-1.649-140.4-4.8467-210.32-11.701 2.3257-138.65 15.693-280.16 27.691-421.44 9.9794-117.51 19.012-234.87 34.354-349.6 4.8589-36.338 10.351-72.414 8.7597-110.2 4.6346-0.37712 9.2709-0.75043 13.906-1.127 61.81-5.0208 123.66-10.368 185.9-10.295zm1763.5 421.77c-5.9689-0.27207-11.593 0.43545-14.902 3.4922-4.5665 4.2176-4.7267 12.906-4.8261 21.314-0.678 57.359 1.4762 101.61 3.207 149.06 2.6719 73.242 4.3345 154.09-1.9766 230.15-1.9456 23.448-4.6499 46.44-6.2421 70.623-0.2362 3.5886-0.4477 7.2039 0.4277 10.502 1.9795 7.4568 9.5175 13.294 16.986 17.332 10.656 5.7608 21.171 7.8594 32.121 11.031 10.926 3.165 22.285 7.3979 30.734-0.709 6.5722-6.3057 11.384-20.076 15.594-31.633 12.708-34.883 19.931-49.6 29.086-68.988 16.02-33.926 37.957-82.158 63.543-123.87 32.975-53.752 72.01-96.664 117.25-136.06 7.157-6.2333 14.468-12.378 22.342-17.605 21.097-14.008 46.225-21.428 73.045-22.537 14.659-0.6061 29.824 0.67369 40.822 7.8711 12.316 8.0594 19.407 23.539 25.871 38.699 20.789 48.757 35.077 94.202 46.023 142.47 9.2445 40.763 16.106 83.538 26.158 123.7 5.6424 22.545 12.291 44.268 18.598 68.49 4.3198 16.591 8.4801 34.355 13.525 46.693 5.5955 13.683 12.28 20.693 25.936 22.348 17.282 2.0945 45.728-4.3872 73.352-18.402 17.43-8.8429 34.532-20.685 39.668-31.654 3.2726-6.9896 1.6873-13.625-3.7071-18.984-7.6081-7.5591-22.794-12.582-32.123-21.566-10.769-10.371-13.736-26.021-16.904-41.334-15.598-75.38-36.043-142.61-49.379-214.21-7.9213-42.53-13.336-86.604-34.568-125.91-14.083-26.073-35.126-50.05-61.15-61.332-32.639-14.15-73.114-8.3341-108.49 5.3047-48.988 18.886-88.204 52.771-123.62 85.686-33.421 31.064-63.454 61.265-97.414 112.19-38.182 57.26-81.328 140.72-89.436 144.26-1.6594 0.7237-1.8516-1.9011-1.9844-4.8575-0.5463-12.162-0.093-29.949 1.0039-46.775 2.9769-45.65 10.702-84.23 16.242-121.83 5.7614-39.1 9.1604-77.14 10.578-125.37 0.1955-6.6485 0.3527-13.491-0.6407-20.16-1.7346-11.645-6.9787-22.764-10.588-28.451-5.1524-8.119-6.9733-5.1702-40.242-17.586-10.071-3.7583-23.023-8.9253-37.908-10.85-1.9933-0.25767-4.0202-0.45618-6.0098-0.54688zm876.85 0c-5.9688-0.27207-11.593 0.43545-14.902 3.4922-4.5665 4.2176-4.7268 12.906-4.8262 21.314-0.678 57.359 1.4762 101.61 3.207 149.06 2.6719 73.242 4.3345 154.09-1.9766 230.15-1.9456 23.448-4.648 46.44-6.2402 70.623-0.2363 3.5886-0.4497 7.2039 0.4258 10.502 1.9795 7.4568 9.5174 13.294 16.986 17.332 10.656 5.7608 21.171 7.8594 32.121 11.031 10.926 3.165 22.285 7.3979 30.734-0.709 6.5722-6.3057 11.385-20.076 15.596-31.633 12.708-34.883 19.929-49.6 29.084-68.988 16.02-33.926 37.957-82.158 63.543-123.87 32.975-53.752 72.01-96.664 117.25-136.06 7.157-6.2333 14.468-12.378 22.342-17.605 21.097-14.008 46.227-21.428 73.047-22.537 14.659-0.6061 29.822 0.67369 40.82 7.8711 12.316 8.0594 19.409 23.539 25.873 38.699 20.789 48.757 35.075 94.202 46.022 142.47 9.2445 40.763 16.108 83.538 26.16 123.7 5.6424 22.545 12.289 44.268 18.596 68.49 4.3198 16.591 8.4801 34.355 13.525 46.693 5.5955 13.683 12.28 20.693 25.936 22.348 17.282 2.0945 45.73-4.3872 73.354-18.402 17.43-8.8429 34.53-20.685 39.666-31.654 3.2726-6.9896 1.6874-13.625-3.707-18.984-7.6081-7.5591-22.792-12.582-32.121-21.566-10.769-10.371-13.738-26.021-16.906-41.334-15.598-75.38-36.043-142.61-49.379-214.21-7.9213-42.53-13.334-86.604-34.566-125.91-14.083-26.073-35.126-50.05-61.15-61.332-32.639-14.15-73.116-8.3341-108.49 5.3047-48.988 18.886-88.204 52.771-123.62 85.686-33.421 31.064-63.453 61.265-97.412 112.19-38.182 57.26-81.33 140.72-89.438 144.26-1.6594 0.7237-1.8496-1.9011-1.9824-4.8575-0.5463-12.162-0.095-29.949 1.002-46.775 2.9769-45.65 10.702-84.23 16.242-121.83 5.7614-39.1 9.1604-77.14 10.578-125.37 0.1955-6.6485 0.3547-13.491-0.6387-20.16-1.7346-11.645-6.9805-22.764-10.59-28.451-5.1523-8.119-6.9715-5.1702-40.24-17.586-10.071-3.7583-23.023-8.9253-37.908-10.85-1.9932-0.25767-4.0221-0.45618-6.0117-0.54688zm-1376 16.277c-43.723-0.10671-87.331 6.3221-129.56 18.012-65.022 17.998-126.78 48.47-178.79 90.273-51.271 41.214-93.061 93.441-125.6 152.36-24.412 44.196-43.618 92.156-41.654 142.15 1.0973 27.931 8.8012 56.495 27.213 78.154 18.687 21.983 48.404 36.852 69.783 46.754 42.425 19.648 52.024 19.735 88.262 20.99 70.302 2.435 240.86 9.2681 385.71-24.936 82.125-19.393 155.99-51.978 191.71-70.918 4.8612-2.5775 9.0158-4.9014 11.203-7.9512 3.6127-5.0371 1.8582-12.052-0.4453-15.717-4.3713-6.9543-10.723-1.843-22.391 3.9297-6.1513 3.0434-13.78 6.2708-20.951 9.2246-50.941 20.981-78.782 28.152-112.22 34.738-59.634 11.744-137.08 21.625-211.24 20.168-80.042-1.5727-156.25-16.354-223.54-49.857-30.864-15.366-59.854-34.67-65.756-81.918-2.9113-23.306-0.2062-53.409 4.5879-56.508 0.5327-0.3443 1.0929-0.3555 2.0625-0.4296 19.058-1.4591 196.95-27.385 269.45-36.484 61.82-7.7598 46.99-3.2822 197.51-28.146 21.766-3.5955 46.988-7.8049 57.646-7.4922 1.6787 0.049 2.998 0.2104 5.3614 0.068 6.2645-0.3766 19.878-2.8858 27.889-6.5899 11.577-5.3536 11.447-13.204 8.1582-19.039-2.6326-4.6707-7.2883-8.0494-12.51-10.879-3.5648-1.9316-7.3926-3.6084-9.2481-6.5293-2.0187-3.1777-1.7052-7.8284-1.2344-12.252 1.2301-11.556 3.5213-21.555 4.3379-31.879 1.7901-22.632-3.503-46.834-12.996-69.314-7.7128-18.264-18.198-35.392-33.058-46.799-13.544-10.396-30.72-16.039-48.037-20.471-33.553-8.5871-67.63-12.624-101.64-12.707zm2271.2 16.146c-3.6351 0.20705-6.8085 1.2497-9.1035 3.623-5.9701 6.1742-5.9952 21.359-5.9102 34.289 0.3759 57.274 2.898 70.294-1.125 112.2-1.228 12.793-3.0661 28.278-5.0254 43.688-9.9689 78.402-23.085 154.85-11.23 228.26 2.041 12.639 4.8216 25.188 11.27 35.787 15.9 26.134 54.095 40.407 88.807 44.732 36.329 4.5274 68.842-1.8395 100.57-13.676 90.937-33.919 175.46-112.76 225.39-183.87 16.904-24.073 29.844-47.263 52.375-80.228 2.8971-4.2388 5.9536-8.6386 9.2168-12.793 3.9911-5.0814 8.2923-9.7947 11.766-9.4688 4.0965 0.3844 7.0415 7.7781 9.0664 15.309 1.0297 3.8293 1.8205 7.6946 2.5195 11.387 4.9163 25.969 5.2382 43.406 7.3399 63.125 3.0721 28.823 9.948 62.521 15.178 94.273 7.6471 46.429 11.773 88.698 41.342 133.37 9.3697 14.155 21.296 28.55 33.592 28.797 12.308 0.2472 24.987-13.683 36.689-24.805 12.434-11.818 23.765-20.466 40.309-24.289 10.014-2.3141 21.938-2.86 26.356-10.807 3.7805-6.8004 2.064-19.02-3.6172-24.108-6.4471-5.7729-17.999-2.3605-27.389-3.8847-13.276-2.1549-22.229-14.179-28.94-26.314-6.8171-12.328-11.322-24.77-15.504-36.586-12.344-34.876-21.882-64.298-30.533-95.844-15.219-55.499-27.689-117.57-19.225-175.92 2.513-17.323 6.8711-34.317 3.3926-52.43-0.7095-3.6944-1.7446-7.4354-3.877-9.9902-4.127-4.9445-12.364-5.4444-19.873-5.9375-15.968-1.0485-28.649-2.0599-44.104 0-6.2978 0.8394-13.057 2.1875-16.965 5.9375-5.336 5.1206-5.3569 14.718-6.3008 23.721-4.082 38.935-25.425 66.753-44.738 96.254-28.808 44.005-53.096 91.752-88.297 131.42-38.093 42.927-88.965 76.394-140.69 97.797-22.992 9.5146-46.152 16.645-74.17 17.328-16.424 0.4003-34.517-1.4149-45.031-8.7969-6.8541-4.812-10.488-11.99-13.506-19.728-22.535-57.778-10.772-146.85 8.4765-218.02 8.4753-31.336 18.401-59.2 27.404-91.666 3.2306-11.649 6.342-23.89 2.3829-34.246-2.4355-6.3707-7.5455-12.03-12.51-17.016-19.063-19.146-35.961-28.391-65.697-37.252-6.6902-1.9935-14.031-3.9681-20.09-3.623zm-2316.6 40.877c33.99 0.053 68.61 4.4739 94.951 22.953 17.944 12.588 32.047 31.698 40.555 55.09 5.1664 14.205 8.2694 29.99 3.9707 42.182-1.1034 3.1294-2.6952 6.0214-4.3828 8.5606-8.6136 12.96-19.742 16.708-32.492 20.418-43.216 12.573-105.09 24.709-148.59 32.631-57.471 10.467-82.854 13.579-138.85 23.361-10.395 1.816-21.845 3.8614-33.662 5.7774-37.954 6.1536-79.7 10.967-91.371 9.8984-1.7698-0.1621-2.8489-0.4597-3.3047-1.1934-0.6405-1.0309-0.051-2.9238 0.2012-4.1679 0.032-0.1555 0.058-0.3008 0.098-0.5039 0.9195-4.6005 9.2164-38.818 25.373-67.787 25.04-44.898 68.959-77.19 110.82-100.55 26.879-14.996 52.912-26.307 80.342-34.006 30.743-8.6284 63.24-12.718 96.336-12.666z" fill="#4d0d6a"/><path transform="scale(.99983 1.0002)" d="m2375.9 1632.4v-65.978h151.42v135.2q-43.48 29.636-77.01 40.452-33.314 10.6-79.174 10.6-56.46 0-92.153-19.253-35.477-19.253-55.162-57.325-19.469-38.073-19.469-87.394 0-51.917 21.416-90.206 21.416-38.505 62.733-58.407 32.232-15.359 86.745-15.359 52.566 0 78.525 9.5182 26.175 9.5181 43.264 29.636 17.306 19.902 25.958 50.619l-94.532 16.873q-5.8407-17.955-19.902-27.473-13.845-9.5181-35.477-9.5181-32.232 0-51.484 22.497-19.036 22.281-19.036 70.737 0 51.484 19.253 73.549 19.469 22.065 54.08 22.065 16.44 0 31.367-4.7591 14.926-4.7591 34.179-16.224v-29.852zm284.03-40.452-84.149-8.8692q4.7591-22.065 13.628-34.611 9.0855-12.763 25.958-22.065 12.114-6.7059 33.314-10.383 21.2-3.6774 45.86-3.6774 39.587 0 63.598 4.5427 24.012 4.3264 40.019 18.387 11.249 9.7345 17.738 27.689 6.4897 17.738 6.4897 33.962v101.45q0 16.224 1.9469 25.526 2.1632 9.0855 9.0855 23.363h-82.635q-4.9754-8.8692-6.4896-13.412-1.5142-4.7591-3.0285-14.71-17.306 16.657-34.395 23.795-23.363 9.5181-54.297 9.5181-41.101 0-62.517-19.036-21.2-19.036-21.2-46.942 0-26.175 15.359-43.048 15.359-16.873 56.676-25.093 49.538-9.9508 64.247-13.845 14.71-4.1101 31.15-10.6 0-16.224-6.7059-22.714-6.706-6.4897-23.579-6.4897-21.632 0-32.448 6.9223-8.4365 5.408-13.628 20.334zm76.361 46.293q-18.171 6.4896-37.856 11.465-26.824 7.1386-33.962 14.061-7.3549 7.1386-7.3549 16.224 0 10.383 7.1386 17.089 7.3549 6.4897 21.416 6.4897 14.71 0 27.256-7.1386 12.763-7.1386 17.955-17.306 5.408-10.383 5.408-26.824zm139.53-120.71h82.202v33.53q17.738-20.983 35.693-29.852 18.171-8.8691 43.697-8.8691 27.473 0 43.481 9.7344 16.008 9.7345 26.175 28.987 20.767-22.497 37.856-30.501 17.089-8.2202 42.183-8.2202 36.991 0 57.758 22.065 20.767 21.848 20.767 68.574v144.29h-88.259v-130.87q0-15.575-6.057-23.146-8.8692-11.898-22.065-11.898-15.575 0-25.093 11.249-9.5182 11.249-9.5182 36.126v118.54h-88.259v-126.55q0-15.142-1.7306-20.55-2.8122-8.6528-9.7345-13.845-6.9223-5.408-16.224-5.408-15.142 0-24.877 11.465-9.7345 11.465-9.7345 37.64v117.25h-88.259zm697.42 136.72h-176.52q2.3796 21.2 11.465 31.583 12.763 14.926 33.313 14.926 12.979 0 24.661-6.4896 7.1386-4.1101 15.359-14.494l86.745 8.0039q-19.902 34.611-48.023 49.754-28.122 14.926-80.688 14.926-45.644 0-71.819-12.763-26.175-12.979-43.481-40.885-17.089-28.122-17.089-65.978 0-53.864 34.395-87.178 34.611-33.313 95.398-33.313 49.321 0 77.876 14.926 28.554 14.926 43.48 43.264 14.926 28.338 14.926 73.766zm-89.557-42.183q-2.5959-25.526-13.845-36.558-11.032-11.032-29.203-11.032-20.983 0-33.53 16.657-8.0039 10.384-10.167 30.934zm284.9-181.93h145.58q43.048 0 69.439 11.681 26.608 11.681 43.913 33.53 17.306 21.848 25.093 50.836 7.7876 28.987 7.7876 61.435 0 50.836-11.681 78.957-11.465 27.906-32.016 46.942-20.551 18.82-44.13 25.093-32.232 8.6529-58.407 8.6529h-145.58zm97.994 71.819v173.27h24.012q30.718 0 43.697-6.706 12.979-6.9222 20.334-23.795 7.3549-17.089 7.3549-55.162 0-50.403-16.44-69.006-16.44-18.604-54.513-18.604zm494.51 152.29h-176.52q2.3795 21.2 11.465 31.583 12.763 14.926 33.314 14.926 12.979 0 24.661-6.4896 7.1386-4.1101 15.359-14.494l86.745 8.0039q-19.902 34.611-48.023 49.754-28.122 14.926-80.688 14.926-45.644 0-71.819-12.763-26.175-12.979-43.48-40.885-17.089-28.122-17.089-65.978 0-53.864 34.395-87.178 34.611-33.313 95.398-33.313 49.321 0 77.876 14.926 28.554 14.926 43.481 43.264t14.926 73.766zm-89.557-42.183q-2.5959-25.526-13.845-36.558-11.032-11.032-29.203-11.032-20.983 0-33.53 16.657-8.0039 10.384-10.167 30.934zm92.369-94.532h91.72l44.562 145.58 46.076-145.58h88.908l-97.561 229.73h-78.092zm540.37 136.72h-176.52q2.3796 21.2 11.465 31.583 12.763 14.926 33.313 14.926 12.979 0 24.661-6.4896 7.1386-4.1101 15.359-14.494l86.745 8.0039q-19.902 34.611-48.023 49.754-28.122 14.926-80.688 14.926-45.644 0-71.819-12.763-26.175-12.979-43.481-40.885-17.089-28.122-17.089-65.978 0-53.864 34.395-87.178 34.611-33.313 95.398-33.313 49.321 0 77.876 14.926 28.554 14.926 43.48 43.264 14.926 28.338 14.926 73.766zm-89.557-42.183q-2.5959-25.526-13.845-36.558-11.032-11.032-29.203-11.032-20.983 0-33.53 16.657-8.0039 10.384-10.167 30.934zm133.04-181.93h88.259v317.13h-88.259zm133.69 202.91q0-52.566 35.477-86.528 35.477-34.179 95.83-34.179 69.006 0 104.27 40.019 28.338 32.232 28.338 79.39 0 52.999-35.26 86.961-35.044 33.746-97.128 33.746-55.378 0-89.557-28.122-41.966-34.828-41.966-91.288zm88.259-0.2163q0 30.718 12.33 45.428 12.547 14.71 31.367 14.71 19.036 0 31.15-14.494 12.33-14.494 12.33-46.509 0-29.852-12.33-44.346-12.33-14.71-30.501-14.71-19.253 0-31.799 14.926-12.547 14.71-12.547 44.995zm218.48 201.83v-317.13h82.418v33.962q17.089-21.416 31.367-28.987 19.252-10.167 42.615-10.167 46.076 0 71.17 35.26 25.31 35.26 25.31 87.178 0 57.325-27.473 87.61-27.473 30.069-69.439 30.069-20.334 0-37.207-6.9223-16.657-6.9223-29.852-20.55v109.67zm88.259-201.61q0 27.256 11.465 40.452 11.465 13.196 28.987 13.196 15.359 0 25.742-12.547 10.383-12.763 10.383-43.048 0-27.906-10.816-40.885-10.816-13.196-26.391-13.196-16.873 0-28.122 13.196-11.249 13.196-11.249 42.832zm207.45-115.52h82.202v33.53q17.738-20.983 35.693-29.852 18.171-8.8691 43.697-8.8691 27.473 0 43.48 9.7344 16.008 9.7345 26.175 28.987 20.767-22.497 37.856-30.501 17.089-8.2202 42.183-8.2202 36.991 0 57.758 22.065 20.767 21.848 20.767 68.574v144.29h-88.259v-130.87q0-15.575-6.057-23.146-8.8691-11.898-22.065-11.898-15.575 0-25.093 11.249t-9.5181 36.126v118.54h-88.259v-126.55q0-15.142-1.7306-20.55-2.8122-8.6528-9.7345-13.845-6.9222-5.408-16.224-5.408-15.142 0-24.877 11.465-9.7345 11.465-9.7345 37.64v117.25h-88.259zm697.42 136.72h-176.52q2.3795 21.2 11.465 31.583 12.763 14.926 33.314 14.926 12.979 0 24.661-6.4896 7.1386-4.1101 15.359-14.494l86.745 8.0039q-19.902 34.611-48.023 49.754-28.122 14.926-80.688 14.926-45.644 0-71.819-12.763-26.175-12.979-43.48-40.885-17.089-28.122-17.089-65.978 0-53.864 34.395-87.178 34.611-33.313 95.398-33.313 49.321 0 77.876 14.926 28.554 14.926 43.481 43.264t14.926 73.766zm-89.557-42.183q-2.5958-25.526-13.844-36.558-11.032-11.032-29.203-11.032-20.983 0-33.53 16.657-8.0039 10.384-10.167 30.934zm130.01-94.532h81.986v37.424q18.387-22.93 37.207-32.665 18.82-9.9507 45.86-9.9507 36.558 0 57.109 21.848 20.767 21.632 20.767 67.06v146.02h-88.475v-126.33q0-21.632-8.0039-30.501-8.0038-9.0855-22.497-9.0855-16.008 0-25.958 12.114-9.9508 12.114-9.9508 43.481v110.32h-88.043zm401.71-87.394v87.394h48.456v64.247h-48.456v81.553q0 14.71 2.8122 19.469 4.3264 7.355 15.142 7.355 9.7344 0 27.256-5.6244l6.4896 60.786q-32.664 7.1386-61.003 7.1386-32.881 0-48.456-8.4365-15.575-8.4366-23.146-25.526-7.3549-17.306-7.3549-55.811v-80.904h-32.448v-64.247h32.448v-42.183z" fill="#e38d2c" stroke-linecap="square" stroke-miterlimit="10" style="paint-order:stroke fill markers" aria-label="Game Development"/></g></svg>
