<?xml version="1.0" encoding="UTF-8"?>
<!-- Created by ERK -->
<svg width="1311.9" height="156.1" clip-rule="evenodd" fill-rule="evenodd" stroke-linejoin="round" stroke-miterlimit="1.4142" version="1.1" viewBox="0 0 1311.9 156.1" xml:space="preserve" xmlns="http://www.w3.org/2000/svg"><path d="m78.002 0h1155.1c42.905 0 78.002 35.097 78.002 77.998 0 42.905-35.096 78.002-78.002 78.002h-1155.1c-42.905 0-78.002-35.097-78.002-78.002 0-42.898 35.097-77.998 78.002-77.998" fill="#5b5652" fill-rule="nonzero"/><path d="m635.95 58.061h-12.647v36.286h13.195v-18.965c0-4.9462 3.0266-7.4248 8.5281-7.4248s6.8769 1.6512 7.149 6.3178h12.375c0-12.367-1.6512-17.041-14.85-17.041-7.9728 0-10.724 1.6512-13.746 7.6969zm-518.93 21.801h-21.235v17.418h38.172zm16.933-20.992h-38.172v17.414h20.996zm562.75 28.335c-12.639 0-14.57-1.1033-14.57-7.4286h34.649c-0.54792-17.586-0.54792-21.715-23.922-21.715-19.8 0-24.202 3.5745-24.202 19.244 0 14.574 5.7811 18.148 21.73 18.424 17.873 0 26.397-0.82747 26.397-12.647h-12.926c-0.55164 2.747-1.6475 4.1224-7.1565 4.1224m-14.842-15.118c0.55165-3.8503 1.6475-5.2294 10.444-5.2294 9.6314 0 11.003 0.55537 11.551 5.2294zm-491.64 1.3717h13.195c-1.0958-12.375-4.6741-15.398-23.091-15.398-20.899 0-25.573 3.295-25.573 18.696s4.402 18.968 23.922 18.968c20.62 0 24.746-2.747 24.746-15.673h-13.195c0 3.5782-1.3754 5.2294-11.551 5.2294-8.8002 0-10.72-2.1954-10.72-9.3481 0-6.8732 1.9196-6.8732 12.375-6.8732 7.6932 0 9.0649 0.82747 9.8923 4.3983m306.58 2.1954c0-14.846-4.3945-17.865-25.569-17.865-22.822 0-25.569 3.8466-25.569 19.24 0 15.398 3.8466 18.696 25.569 18.696 23.098 0.0037 25.569-3.8429 25.569-20.072m-37.665 0.8312c0-7.4248 1.6512-8.2449 11.271-8.2449 10.724 0 12.647 0.26837 12.647 8.2449 0 7.4248-1.3754 8.8002-11.551 8.8002-10.996 0-12.367-1.1033-12.367-8.8002m156.17-0.8312c0-14.846-4.1262-17.865-25.29-17.865-22.547 0-25.297 3.5671-25.297 18.968 0 15.67 3.8466 18.968 25.297 18.968 23.091 0.0037 25.29-3.8429 25.29-20.072m-37.389 0.8312c0-7.4248 1.6475-8.2449 11.271-8.2449 10.724 0 12.647 0.26837 12.647 8.2449 0 7.4248-1.3716 8.8002-11.547 8.8002-10.992 0-12.371-1.1033-12.371-8.8002m-315.93-0.8312c0-14.846-4.1262-17.865-25.297-17.865-22.819 0-25.569 3.5671-25.569 18.968 0 15.67 3.8541 18.968 25.569 18.968 23.098 0.0037 25.297-3.8429 25.297-20.072m-37.124 0.8312c0-7.4248 1.6475-8.2449 11.003-8.2449 10.72 0 12.647 0.26837 12.647 8.2449 0 7.4248-1.3791 8.8002-11.551 8.8002-10.727 0-12.099-1.1033-12.099-8.8002m317.86-33.826v21.171c-3.0229-4.1224-5.7736-6.3178-16.769-6.3178-17.597 0-20.899 4.6741-20.899 18.968 0 14.578 4.6778 18.693 21.723 18.693 10.724 0 14.022-2.747 16.497-7.4211v6.5899h13.202v-51.691zm-9.624 25.301c7.4211 0 9.8998 1.0996 9.8998 6.8695 0 8.8002-0.55537 9.6352-10.996 9.6352-10.451 0-13.198-0.28328-13.198-7.7044 0-8.5244 3.2987-8.8002 14.294-8.8002m-438.52-10.284v-22.424c-4.5287-1.1965-7.6373-1.6736-12.162-1.6736-23.624 0-44.378 19.803-44.378 44.374 0 25.294 20.992 44.143 44.612 44.143 4.2939 0 6.6794-0.48082 11.927-1.9158v-22.901c-5.2518 2.6166-7.8684 3.336-12.162 3.336-13.124 0-23.15-10.973-23.15-23.139 0-12.643 9.7842-23.382 22.908-23.382 4.5362 0 8.353 1.1965 12.405 3.582m188.3 0.38392h-12.371v36.286h13.198v-18.693c0-5.4978 2.747-7.4174 10.176-7.4174 6.8732 0 8.8002 2.4712 8.8002 9.3444v16.766h13.471v-19.24c0-5.222 4.1224-6.8695 10.444-6.8695 6.0495 0 8.8002 1.6512 8.8002 6.8695v19.24h13.195v-21.443c0-10.716-6.5974-15.67-18.693-15.67-10.451 0-14.302 3.8503-15.677 7.9728-2.7508-4.6741-6.5974-7.9728-17.049-7.9728-9.8998 0-12.647 3.2987-14.298 9.3481zm88.811 0h-12.371v36.286h13.195v-18.693c0-5.4978 3.2987-7.4174 9.8961-7.4174 6.8769 0 8.8002 2.1991 8.8002 9.3444v16.766h13.478v-19.24c0-5.222 3.8503-6.8695 10.176-6.8695 6.0495 0 9.0686 1.9196 9.0686 6.8695v19.24h13.198v-21.443c0-10.716-6.5974-15.67-18.693-15.67-10.448 0-14.03 3.5708-15.673 7.9728-2.7508-4.6741-6.6011-7.9728-17.049-7.9728-9.6202 0-12.095 3.2987-14.022 9.3481z" fill="#fff" fill-rule="nonzero"/><path d="m1212.8 33.859c-14.328-0.0025-24.263 2.4691-29.807 7.4141-5.5512 4.9424-8.3241 13.46-8.3203 25.557v16.371c0 12.171 2.7691 20.729 8.3203 25.674 5.5463 4.935 15.481 7.4053 29.807 7.4102h13.008c25.425 0 38.137-7.2285 38.135-21.686v-7.1934c0-7.5963-2.4947-13.22-7.4844-16.873-4.9971-3.6478-12.892-5.4727-23.684-5.4727h-10.742c-6.5676-0.0025-12.066 1.2124-16.496 3.6426v-11.279c0-2.5097 0.5763-4.0935 1.7442-4.752 1.158-0.66842 3.8031-1.0039 7.9355-1.0039h7.2676c3.3273 0.0025 5.5455 0.29923 6.6562 0.89062 1.1083 0.58892 1.6641 1.8448 1.6641 3.7656v2.1016h30.566v-5.8672c0-6.1203-2.9769-10.766-8.9258-13.939-5.9488-3.1732-14.828-4.7598-26.637-4.7598zm-64.631 0.02538a2.4228 2.4228 0 0 0-2.4278 2.4277v77.748c0 1.3418 1.0859 2.4258 2.4278 2.4258h19.4a2.4228 2.4228 0 0 0 2.4258-2.4258v-77.748a2.4228 2.4228 0 0 0-2.4258-2.4277zm68.418 48.869h5.8965c4.5424 0.0048 7.4923 0.28428 8.8516 0.83594 1.3642 0.54916 2.0468 1.8592 2.0468 3.9316v5.8594c0 2.219-0.6561 3.5975-1.9706 4.1367-1.3121 0.5566-4.2885 0.83594-8.9278 0.83594h-5.8965c-4.5448-0.0025-7.5227-0.28179-8.9316-0.83594-1.4139-0.54419-2.1197-1.9255-2.1172-4.1445v-5.8594c0-2.1395 0.7033-3.4647 2.1172-3.9766 1.4064-0.52183 4.3843-0.7832 8.9316-0.7832z" fill="#fff"/><g transform="scale(3.7273)" stroke-width=".26829"><path d="m198.04 9.001h2.695v22.365h-2.695z" fill="#64a4ea"/><path d="m202.65 9.001h2.695v22.365h-2.695z" clip-rule="evenodd" fill="#63b6f1" fill-rule="evenodd" stroke-linejoin="round" stroke-miterlimit="1.4142"/><path d="m207.26 9.001h2.695v22.365h-2.695z" clip-rule="evenodd" fill="#63d9f1" fill-rule="evenodd" stroke-linejoin="round" stroke-miterlimit="1.4142"/><path d="m211.86 9.001h2.695v22.365h-2.695z" clip-rule="evenodd" fill="#69dac6" fill-rule="evenodd" stroke-linejoin="round" stroke-miterlimit="1.4142"/><path d="m216.47 9.001h2.695v22.365h-2.695z" clip-rule="evenodd" fill="#71e2ab" fill-rule="evenodd" stroke-linejoin="round" stroke-miterlimit="1.4142"/><path d="m221.08 9.001h2.695v22.365h-2.695z" clip-rule="evenodd" fill="#6fe0ad" fill-rule="evenodd" stroke-linejoin="round" stroke-miterlimit="1.4142"/><path d="m225.69 9.001h2.695v22.365h-2.695z" clip-rule="evenodd" fill="#75ebb1" fill-rule="evenodd" stroke-linejoin="round" stroke-miterlimit="1.4142"/><path d="m230.29 9.001h2.695v22.365h-2.695z" clip-rule="evenodd" fill="#75ebad" fill-rule="evenodd" stroke-linejoin="round" stroke-miterlimit="1.4142"/><path d="m234.9 9.001h2.695v22.365h-2.695z" clip-rule="evenodd" fill="#5ee895" fill-rule="evenodd" stroke-linejoin="round" stroke-miterlimit="1.4142"/><path d="m239.51 9.001h2.695v22.365h-2.695z" clip-rule="evenodd" fill="#94d678" fill-rule="evenodd" stroke-linejoin="round" stroke-miterlimit="1.4142"/><path d="m244.12 9.001h2.695v22.365h-2.695z" clip-rule="evenodd" fill="#b6f6b0" fill-rule="evenodd" stroke-linejoin="round" stroke-miterlimit="1.4142"/><path d="m248.72 9.001h2.695v22.365h-2.695z" clip-rule="evenodd" fill="#e7fdb2" fill-rule="evenodd" stroke-linejoin="round" stroke-miterlimit="1.4142"/><path d="m253.33 9.001h2.695v22.365h-2.695z" clip-rule="evenodd" fill="#fbf598" fill-rule="evenodd" stroke-linejoin="round" stroke-miterlimit="1.4142"/><path d="m257.94 9.001h2.695v22.365h-2.695z" clip-rule="evenodd" fill="#fdf76e" fill-rule="evenodd" stroke-linejoin="round" stroke-miterlimit="1.4142"/><path d="m262.54 9.001h2.695v22.365h-2.695z" clip-rule="evenodd" fill="#e2dc6a" fill-rule="evenodd" stroke-linejoin="round" stroke-miterlimit="1.4142"/><path d="m267.15 9.001h2.695v22.365h-2.695z" clip-rule="evenodd" fill="#f4c672" fill-rule="evenodd" stroke-linejoin="round" stroke-miterlimit="1.4142"/><path d="m271.76 9.001h2.695v22.365h-2.695z" clip-rule="evenodd" fill="#f7c774" fill-rule="evenodd" stroke-linejoin="round" stroke-miterlimit="1.4142"/><path d="m276.37 9.001h2.695v22.365h-2.695z" clip-rule="evenodd" fill="#de8658" fill-rule="evenodd" stroke-linejoin="round" stroke-miterlimit="1.4142"/><path d="m280.98 9.001h2.695v22.365h-2.695z" clip-rule="evenodd" fill="#db7556" fill-rule="evenodd" stroke-linejoin="round" stroke-miterlimit="1.4142"/><path d="m285.58 9.001h2.695v22.365h-2.695z" clip-rule="evenodd" fill="#eb5e43" fill-rule="evenodd" stroke-linejoin="round" stroke-miterlimit="1.4142"/><path d="m290.19 9.001h2.695v22.365h-2.695z" clip-rule="evenodd" fill="#eb584c" fill-rule="evenodd" stroke-linejoin="round" stroke-miterlimit="1.4142"/><path d="m294.8 9.001h2.695v22.365h-2.695z" clip-rule="evenodd" fill="#e93f3a" fill-rule="evenodd" stroke-linejoin="round" stroke-miterlimit="1.4142"/><path d="m299.4 9.001h2.695v22.365h-2.695z" clip-rule="evenodd" fill="#ce2722" fill-rule="evenodd" stroke-linejoin="round" stroke-miterlimit="1.4142"/></g></svg>
