<?xml version="1.0" encoding="UTF-8"?>
<!-- Created by ERK -->
<svg width="1561.2" height="156" version="1.1" viewBox="0 0 1561.2 156" xmlns="http://www.w3.org/2000/svg">
 <path class="st0" d="m1483.2 0c42.904 0 77.999 35.096 77.999 77.999 0 42.904-35.096 77.999-77.999 77.999h-1405.2c-42.904-0.04067-77.999-35.136-77.999-77.999 0-42.904 35.096-77.999 77.999-77.999z" clip-rule="evenodd" fill="#5b5652" fill-rule="evenodd"/>
 <path class="st19" d="m77.999 30.094c-26.474 0-47.906 21.432-47.906 47.906s21.432 47.906 47.906 47.906c4.27 0 8.4181-0.56934 12.403-1.6267v-24.115c-3.66 2.074-7.8894 3.2534-12.403 3.2534-14.03-0.0407-25.417-11.468-25.417-25.417 0-13.989 11.387-25.417 25.417-25.417 4.514 0 8.7027 1.1793 12.403 3.2534v-24.116c-3.9447-1.0573-8.0927-1.6267-12.403-1.6267zm541.56 8.9061v23.424h-0.6505c-1.1794-2.1147-1.9115-3.294-4.0262-4.4734-4.1887-2.44-9.3945-2.359-14.153-2.359-6.3034 0-13.948-0.36536-19.438 3.2947-6.222 4.2294-6.3851 12.444-6.3851 19.194 0 5.8154-0.0813 14.152 4.6767 18.341 5.2867 4.636 14.316 4.5551 20.985 4.5551 4.5547 0 11.305-0.16267 15.331-2.6434 1.83-1.098 2.643-2.278 3.741-4.1082h0.81334v5.6527l15.25 0.0405v-60.919zm-356.72 16.588c-0.99276-4.1e-4 -1.9144 4e-3 -2.7379 4e-3 -6.4661 0-19.52-0.24352-25.01 3.9452-3.3754 2.562-4.9207 6.222-5.2867 10.329-0.28467 2.3587-0.28435 4.839-0.28435 7.1976 0 4.758-0.28515 10.411 1.5449 14.884 0.81334 1.9114 1.83 3.3758 3.4567 4.7584 5.856 4.9614 18.463 4.3107 25.58 4.3107 6.8727 0 20.008 0.52883 25.58-4.3107 3.294-2.8467 4.3916-6.5881 4.7576-10.777 0.20334-2.6434 0.2853-5.4091 0.24464-8.0525 0-4.636 0.24352-10.045-2.1152-14.233-0.89467-1.7487-1.9113-2.9279-3.4567-4.1074-4.8752-3.7007-15.323-3.9458-22.272-3.9491zm276.29 0c-0.99276-4.1e-4 -1.9144 4e-3 -2.7379 4e-3 -6.466 0-19.52-0.24352-25.01 3.9452-3.3754 2.562-4.9207 6.222-5.2867 10.329-0.28467 2.3587-0.28434 4.839-0.28434 7.1976 0 4.758-0.28516 10.411 1.5448 14.884 0.81334 1.9114 1.83 3.3758 3.4567 4.7584 5.856 4.9614 18.463 4.3107 25.58 4.3107 6.8727 0 20.008 0.52883 25.58-4.3107 3.294-2.8467 4.3916-6.5881 4.7576-10.777 0.20333-2.6434 0.2845-5.4091 0.24384-8.0525 0-4.636 0.24432-10.045-2.1144-14.233-0.89468-1.7487-1.9114-2.9279-3.4567-4.1074-4.8752-3.7007-15.323-3.9458-22.272-3.9491zm138.63 0c-0.99276-4.1e-4 -1.9144 4e-3 -2.7379 4e-3 -6.4661 0-19.52-0.24352-25.01 3.9452-3.3754 2.562-4.9207 6.222-5.2867 10.329-0.28467 2.3587-0.28516 4.839-0.28516 7.1976 0 4.758-0.28434 10.411 1.5457 14.884 0.81334 1.9114 1.83 3.3758 3.4567 4.7584 5.856 4.9614 18.463 4.3107 25.58 4.3107 6.8727 0 20.008 0.52883 25.58-4.3107 3.294-2.8467 4.3916-6.5881 4.7576-10.777 0.16267-2.6434 0.28451-5.4091 0.24384-8.0525 0-4.636 0.24433-10.045-2.1144-14.233-0.89467-1.7487-1.9114-2.9279-3.4567-4.1074-4.8752-3.7007-15.323-3.9458-22.273-3.9491zm-488.09 0.0389c-6.9931-5e-3 -16.641 0.23463-21.587 4.3977-5.2054 4.3514-5.1248 11.753-5.1248 17.975 0 6.3034-0.2842 14.884 5.5718 18.991 6.0187 4.1887 16.063 4.0262 23.098 4.0262 3.904 0 7.7271-0.12247 11.672-0.28514 5.2054-0.28467 10.98-1.0974 14.721-5.0419 3.5787-3.6194 3.8229-8.2965 4.0262-13.136h-16.429c-0.65067 4.27-3.0089 5.4905-7.035 6.0191-1.9927 0.28467-3.9454 0.28435-5.9382 0.28435-2.928 0-9.231-0.16299-11.508-2.359-1.9114-1.83-1.9928-5.0834-1.9928-7.5641 0-2.562 1.6e-4 -7.3201 2.1962-9.1501 2.2774-1.9114 8.2143-1.9928 11.061-1.9928 5.2054 0 12.607-0.20318 13.339 6.466h16.429c-0.0813-3.4567-0.16298-6.5474-1.5457-9.7601-0.81334-1.9114-1.8303-3.2127-3.3757-4.4734-5.7747-4.6767-17.811-4.3916-24.765-4.3916-0.86925 0-1.8143-6e-3 -2.8133-6e-3zm143.4 6e-3c-6.466 0-14.518 0.89451-17.527 7.5641h-0.73233v-6.466h-15.25v43.229h16.145v-17.813c0-10.248 0.73184-14.356 12.241-14.356 7.3201 0 10.695 1.098 10.695 8.9467v23.18h16.145v-17.812c0-9.9634 0.81351-14.356 11.956-14.356 9.9228 0 10.939 2.6435 10.939 11.956v20.171l16.186 0.0405v-20.171c0-4.3107 0.0812-8.7841-1.1795-12.973-0.65067-2.196-1.8295-3.9444-3.3749-5.571-4.5547-4.8394-11.59-5.571-17.893-5.571-7.7674 0-15.413 0.97568-18.707 9.0277-4.1887-7.6454-11.428-9.0277-19.643-9.0277zm103.62 0c-6.466 0-14.519 0.89451-17.528 7.5641h-0.73152v-6.466h-15.25v43.229h16.144v-17.813c0-10.248 0.73184-14.356 12.241-14.356 7.3201 0 10.696 1.098 10.696 8.9467v23.18h16.144v-17.812c0-9.9634 0.8135-14.356 11.956-14.356 9.9228 0 10.939 2.6435 10.939 11.956v20.171l16.186 0.0405v-20.171c0-4.3107 0.0812-8.7841-1.1795-12.973-0.65067-2.196-1.8303-3.9444-3.3757-5.571-4.5547-4.8394-11.59-5.571-17.893-5.571-7.7674 0-15.413 0.97568-18.707 9.0277-4.1887-7.6454-11.427-9.0277-19.642-9.0277zm310.49 0c-7.0354 0-13.055 0.89451-16.796 7.5641h-0.73233v-6.466h-15.25v43.188h16.145v-17.893c0-7.9301 0.28434-14.233 10.248-14.233 6.3847 0 8.4994 1.7487 8.4994 8.1334h15.169c0-0.56934 0.081-1.1788 0.081-1.7482 0-4.5547 0.0817-9.9638-2.9277-13.705-3.3754-4.1887-9.3941-4.8386-14.437-4.8386zm50.207 0.0365c-6.717 2e-3 -16.023 0.23288-20.969 3.8268-3.66 2.6434-5.1236 6.5466-5.571 10.939-0.28467 2.6434-0.28434 5.4087-0.28434 8.1334 0 4.4734-0.16267 9.6796 1.83 13.868 0.93534 1.83 2.0334 3.2937 3.66 4.5543 5.2867 4.1074 15.982 4.0262 22.367 4.0262 7.0354 0 20.374 0.28419 25.945-4.7584 3.1314-2.806 3.9445-6.0179 4.3107-10.125h-16.063c-0.20334 0.97601-0.36568 1.9924-1.0977 2.7244-1.7487 1.9114-9.1501 1.83-11.793 1.83-2.6434 0-8.7434-0.0813-10.939-1.83-2.074-1.7487-1.9928-4.5551-1.9928-7.0358h42.172c0.0813-1.464 0.081-2.9279 0.081-4.3107 0-8.7027-0.65034-17.446-10.248-20.293-5.9374-1.708-12.607-1.5449-18.707-1.5449-0.83368 0-1.7402-4e-3 -2.6998-4e-3zm-707.04 1.4277v19.154h22.57l19.155-19.154zm710.01 8.5807c2.6434 0 9.2314-3.1e-4 11.143 2.1144 1.1793 1.2607 1.2605 2.5624 1.2605 4.1891v1.0167h-26.027c0.0813-4.5954 1.7487-6.3034 6.3034-6.9541 2.3994-0.366 4.8394-0.36616 7.3201-0.36616zm-192.72 2.1072c3.9726-0.01 9.5055 0.1903 11.178 4.0334 0.81334 1.9114 0.89484 4.3514 0.97617 6.344 0 3.9447 0.0815 8.1334-4.3107 9.5161-3.0907 1.0167-7.1167 1.1795-10.411 1.1795-2.928 0-9.9634-3.1e-4 -12.159-2.359-1.9114-2.0334-1.83-5.9366-1.83-8.4986 0-1.9114 0.0813-4.27 0.81334-6.1 1.9927-4.5547 10.126-4.1082 14.153-4.1082 0.488 0 1.0234-6e-3 1.5909-7e-3zm-347.42 7e-3c3.0094 0 9.963 0.0817 12.322 2.359 1.9114 1.83 1.9928 5.0427 1.9928 7.5234 0 4.4734 0.12216 9.0281-4.9207 10.411-3.0094 0.81334-6.3034 0.81334-9.3941 0.81334-3.294 0-10.411 0-12.892-2.6434-1.708-1.83-1.6267-5.0423-1.6267-7.401 0-4.9207 0.082-9.3127 5.7349-10.411 2.8467-0.56934 5.856-0.65133 8.7841-0.65133zm276.29 0c3.0094 0 9.963 0.0817 12.322 2.359 1.9114 1.83 2.0335 5.0427 1.9928 7.5234 0 4.4734 0.12216 9.0281-4.9207 10.411-3.0094 0.81334-6.3034 0.81334-9.3941 0.81334-3.294 0-10.411 0-12.892-2.6434-1.708-1.83-1.6267-5.0423-1.6267-7.401 0-4.9207 0.0812-9.3127 5.734-10.411 2.8467-0.56934 5.8569-0.65133 8.7849-0.65133zm138.67 0c3.0094 0 9.963 0.0817 12.322 2.359 1.9114 1.83 1.9928 5.0427 1.9928 7.5234 0 4.4734 0.12216 9.0281-4.9207 10.411-3.0094 0.81334-6.3034 0.81334-9.3941 0.81334-3.294 0-10.411 0-12.892-2.6434-1.708-1.83-1.6267-5.0423-1.6267-7.401 0-4.9207 0.0812-9.3127 5.734-10.411 2.8467-0.56934 5.8569-0.65133 8.7849-0.65133zm-584.83 11.916v19.154h41.724l-19.155-19.154z" fill="#fff"/>
 <path class="st19" d="m1284.1 37.035c-1.8275-3e-3 -3.6502 0.0119-5.46 0.0119-8.8654 0-26.88-0.36616-35.258 3.0905-1.9927 0.81334-3.8226 1.993-5.3274 3.7824-4.4734 5.2054-4.5551 13.054-4.7585 20.293-0.2033 4.5954-0.2033 9.353-0.2033 14.111 0 7.8487-0.2843 16.145 0.9357 23.872 1.342 8.4181 5.5311 12.566 12.119 14.355 8.2148 2.1554 16.877 2.0334 25.254 2.0334v0.0818h8.2144c7.5234 0 24.4 0.48752 30.297-6.1818 4.392-4.88 4.4734-12.973 4.4734-19.723 0-1.9114-0.122-3.9036-0.2034-5.815h-19.358c0 2.2774-0.1221 5.3266-0.7728 7.4819-1.6267 5.124-8.4587 4.3924-11.997 4.3924h-9.8007c-4.1887 0-8.6621 0.122-12.77-0.61-1.5453-0.24401-2.8871-0.85369-4.1073-1.911-3.2127-2.9687-2.8467-13.786-2.8467-18.056 0-4.636-0.2847-15.657 3.05-18.869 2.3994-2.2367 6.5067-2.237 9.3534-2.359 2.7247-0.122 5.4087-0.12152 8.1741-0.12152 5.1647 0 10.574 0 15.738 0.81334 1.1387 0.122 2.6837 0.488 3.5377 1.4233 1.342 1.4234 1.342 5.3274 1.4234 7.4827h19.358c0-0.81334 0.082-1.7895 0.082-2.6028 0-7.1574-2e-4 -16.511-5.0427-21.391-2.2774-2.2367-4.8801-3.4165-7.7267-4.1484-5.3681-1.2505-10.896-1.4258-16.379-1.4353zm89.541 0.17474c-4.1074 0-8.1745-1.6e-4 -12.282 0.24384-5.8154 0.36601-15.535 0.61001-19.927 6.3034-3.904 5.0834-3.9849 14.112-3.9849 20.659v3.2129h18.788v-2.6028c0-4.758-0.4882-8.7027 3.9039-9.5161 5.7747-1.1794 12.078-0.81334 17.893-0.81334 2.7654 0 13.054-0.5695 15.454 1.6672 1.6267 1.4234 1.6267 3.9452 1.6267 6.1818 0 3.3347 0 5.368-2.7649 6.5474-2.9687 1.3013-6.3034 1.3012-9.3534 1.6672l-23.994 2.359c-9.1501 0.93535-18.301 2.6022-20.009 15.778-0.854 6.3034-0.7728 12.688-0.7728 19.113 0 3.0907 0.2033 6.3034 0.2033 9.3941v-0.081h75.885v-18.178h-58.032c0-3.4567 0-6.0594 3.05-7.4827 1.5047-0.69134 5.6125-1.0575 7.2392-1.1795 3.6193-0.32534 7.2383-0.69167 10.858-0.93567 4.5547-0.32533 9.0687-0.69117 13.623-1.0572 5.8967-0.44733 15.901-1.423 19.439-8.4177 2.6841-5.2054 2.7649-11.509 2.7649-17.446 0-5.8154 3e-4 -14.843-3.5377-19.357-4.5954-5.8154-12.403-5.9374-18.504-5.9374l-15.738-0.12231zm93.412 0.0405c-7.8081 0-18.016-0.122-25.62 1.4233-3.6194 0.69134-7.2387 2.3587-9.8008 5.6934-3.904 5.124-4.3111 12.729-4.3924 19.357-0.081 4.7174-0.081 9.3538-0.081 14.112 0 7.4827-0.2845 16.389 0.7728 23.75 2.2774 15.779 14.477 16.267 24.969 16.511 4.7581 0.122 9.4348 0.24384 14.193 0.24384 7.7268 0 18.016 0.122 25.62-1.4233 11.55-2.3587 14.193-11.753 14.193-24.929v-28.264c0-23.506-9.4351-25.62-25.743-26.108-4.6767-0.122-9.4343-0.36616-14.111-0.36616zm-370.44 0.97617 31.436 79.179h29.646l31.069-79.179h-21.147l-22.935 59.252h-3.7014l-23.139-59.252zm100.65 0v79.179h20.293v-79.179zm263.91 19.721c1.009-5e-3 2.0081 2e-3 2.9841 2e-3 3.904 0 7.6856 0.12232 11.508 0.12232 2.3587 0 5.6125 0.12168 7.8085 1.301 4.758 2.7247 4.107 13.298 4.1476 18.503 0 5.246 0.6509 15.697-4.1073 18.3-2.1961 1.3014-5.4083 1.3014-7.8077 1.4234l-8.3782 0.24384c-4.3107 0.122-11.061 0.12216-15.168-1.0572-1.4233-0.44733-2.6032-1.0572-3.5385-2.4805-2.196-3.2127-1.992-12.485-1.992-16.389 0-4.3107-0.1634-13.664 2.3987-16.998 0.854-1.22 1.9931-1.6673 3.1318-2.0334 2.867-0.793 5.9854-0.92277 9.0126-0.93802z" fill="#fff"/>
 <g transform="scale(.40667)" clip-rule="evenodd" fill-rule="evenodd" stroke-width="6.0466">
  <path class="st52" d="m2114 55.5h498.1v28h-498.1z" fill="#f20029"/>
  <path class="st53" d="m2114 116.6h498.1v28.1h-498.1z" fill="#fd7801"/>
  <path class="st54" d="m2114 177.8h498.1v27.9h-498.1z" fill="#f2f540"/>
  <path class="st55" d="m2114 238.8h498.1v28.1h-498.1z" fill="#48cc31"/>
  <path class="st56" d="m2114 300h498.1v28h-498.1z" fill="#14a3fd"/>
 </g>
</svg>
