<?xml version="1.0" encoding="UTF-8"?>
<!-- Created by ERK -->
<svg width="1552.7" height="156.1" version="1.1" viewBox="0 0 310.54 31.221" xml:space="preserve" xmlns="http://www.w3.org/2000/svg"><path d="m15.6 0h279.14c8.6422 0 15.6 6.9574 15.6 15.6v9.99e-4c0 8.6422-6.9574 15.6-15.6 15.6h-279.14c-8.6422 0-15.6-6.9574-15.6-15.6v-9.99e-4c0-8.6422 6.9574-15.6 15.6-15.6z" fill="#3e3632"/><path d="m17.572 5.2855c-5.6143 0-10.169 4.554-10.169 10.168 0 5.6143 4.555 10.163 10.169 10.163 1.0793 0 2.1216-0.17188 3.0979-0.48368v-5.0716c-0.84344 0.48967-1.8288 0.77248-2.8871 0.77248-3.0879 0-5.5913-2.4084-5.5913-5.3804 0-2.971 2.5023-5.3804 5.5913-5.3804 1.0573 0 2.0436 0.28281 2.8871 0.77348v-5.0786c-1.0016-0.3197-2.0466-0.48251-3.0979-0.48268m3.2089 5.6582h8.6772l-3.8804 4.0423h-4.7968zm0 8.9031h8.6772l-3.8804-4.0423h-4.7968zm13.484-4.1073c0 3.5916 2.2335 3.9873 4.3511 3.9873h3.2668c1.8338 0 3.7335-0.64257 3.7335-2.8991v-0.74151h-3.0999v0.19787c0 0.77348-0.81746 0.97135-1.7169 0.97135h-1.6339c-0.99933 0-1.6999-0.32978-1.6999-1.4161v-1.1203c0-0.92238 0.63358-1.2851 1.9667-1.2851h1.2332c1.4001 0 1.8508 0.31279 1.8508 1.1692h3.0999v-0.7575c0-1.9267-1.449-2.7831-3.8175-2.7831h-3.5996c-2.3334 0-3.9344 0.69154-3.9344 3.8704zm13.01 0.57362c0 2.7682 1.8837 3.3278 3.5177 3.3278h4.7838c1.6339 0 3.5177-0.55963 3.5177-3.3278v-2.0087c0-2.7682-1.8837-3.3278-3.5177-3.3278h-4.7838c-1.6339 0-3.5177 0.55963-3.5177 3.3278zm3.2009-1.3991c0-1.2032 0.71652-1.566 2.1835-1.566h0.76649c2.0676 0 2.4674 0.26382 2.4674 1.3841v1.1532c0 1.1193-0.39973 1.3831-2.4674 1.3831h-0.76649c-1.467 0-2.1835-0.36276-2.1835-1.565zm10.243 4.458h3.2009v-4.43c0-1.3011 0.64957-1.6309 2.0167-1.6309 1.9337 0 2.3175 0.26382 2.3175 1.3011v4.7598h3.1999v-4.6279c0-1.1033 0.63358-1.433 2.1676-1.433 1.8668 0 2.1666 0.39474 2.1666 1.549v4.512h3.1999v-4.7268c0-2.4044-1.0493-3.8045-3.9674-3.8045h-0.98234c-1.8178 0-2.5003 0.4447-3.034 1.9597-0.5996-1.3181-1.6339-1.9597-3.1509-1.9597h-1.2162c-1.567 0-2.6682 0.57562-2.8341 1.7788h-0.03298v-1.6479h-3.051zm20.356 0h3.1999v-4.43c0-1.3011 0.64957-1.6309 2.0167-1.6309 1.9337 0 2.3175 0.26382 2.3175 1.3011v4.7598h3.1999v-4.6279c0-1.1033 0.63358-1.433 2.1676-1.433 1.8668 0 2.1666 0.39474 2.1666 1.549v4.512h3.1999v-4.7268c0-2.4044-1.0493-3.8045-3.9674-3.8045h-0.98234c-1.8168 0-2.5003 0.4447-3.034 1.9597-0.5996-1.3181-1.6339-1.9597-3.1509-1.9597h-1.2162c-1.567 0-2.6672 0.57562-2.8341 1.7788h-0.03298v-1.6479h-3.051zm37.059-4.6939c0-0.93937 0.1499-1.466 1.6839-1.466h1.8837c1.2672 0 1.9337 0.27981 1.9337 1.549v0.82245c0 1.2692-0.66655 1.549-1.9337 1.549h-1.8837c-1.533 0-1.6839-0.52765-1.6839-1.466zm-3.0999 1.2522c0 2.1406 0.49966 3.5736 4.551 3.5736h0.93338c1.9327 0 2.7332-0.64257 3.0829-1.6799h0.034v1.549h3v-11.927h-3.1999v5.0736h-0.034c-0.19987-1.3181-1.55-1.6799-2.8671-1.6799h-0.94937c-4.0513 0-4.551 1.433-4.551 3.5736zm-13.86 0.38274c0 2.7682 1.8837 3.3278 3.5176 3.3278h4.7828c1.6339 0 3.5177-0.55963 3.5177-3.3278v-2.0087c0-2.7682-1.8838-3.3278-3.5177-3.3278h-4.7838c-1.6329 0-3.5176 0.55963-3.5176 3.3278zm3.1999-1.3991c0-1.2032 0.71653-1.566 2.1836-1.566h0.76749c2.0666 0 2.4664 0.26382 2.4664 1.3841v1.1532c0 1.1193-0.39973 1.3831-2.4664 1.3831h-0.76749c-1.467 0-2.1836-0.36276-2.1836-1.565zm24.083 1.3991c0 2.7682 1.8837 3.3278 3.5176 3.3278h4.7828c1.6339 0 3.5177-0.55963 3.5177-3.3278v-2.0087c0-2.7682-1.8838-3.3278-3.5177-3.3278h-4.7838c-1.6329 0-3.5176 0.55963-3.5176 3.3278zm3.1999-1.3991c0-1.2032 0.71753-1.566 2.1836-1.566h0.76749c2.0666 0 2.4664 0.26382 2.4664 1.3841v1.1532c0 1.1193-0.39973 1.3831-2.4664 1.3831h-0.76749c-1.466 0-2.1836-0.36276-2.1836-1.565zm10.369 4.5949h3.2009v-4.6449c0-1.0053 0.76649-1.4171 1.8668-1.4171 1.2832 0 1.534 0.51066 1.534 1.5809h2.7662c0.017-0.2958 0.034-0.52665 0.034-0.74051 0-2.3225-0.91739-3.3108-3.2508-3.3108-1.449 0-2.7502 0.39474-3.1169 1.7288h-0.033v-1.5969h-3.001zm10.571-3.8544c0 3.5906 2.2325 3.9853 4.3501 3.9853h2.3994c2.3175 0 4.2172-0.46069 4.2172-2.5683v-0.36276h-3c0 0.49367-0.0829 0.95536-1.8168 0.95536h-0.98334c-1.3341 0-1.9667-0.24783-1.9667-1.1372v-0.50966h7.7668v-1.4171c0-2.9151-1.3991-3.6236-4.7998-3.6236h-2.2335c-2.3344 0-3.9344 0.69154-3.9344 3.8704zm3.1999-1.516c0-1.0043 0.24983-1.1852 2.3334-1.1852 1.8668 0 2.3334 0.18088 2.3334 1.1852z" fill="#fff"/><path d="m269.64 19.581c-1.8368 0-2.3554-0.41073-2.3554-1.7508 0-1.3191 0.49667-1.7079 2.4414-1.7079h4.1932c1.9447 0 2.4414 0.38974 2.4414 1.7079 0 1.3391-0.51865 1.7508-2.3554 1.7508zm-6.8944-2.1186c0 4.0633 1.8588 5.4893 5.5973 5.4893h6.8294c3.7175 0 5.5963-0.49667 5.5963-4.3441v-1.3611c0-2.8311-0.81945-4.3651-5.4454-4.3651h-4.473c-1.8807 0-2.7881 0.40973-3.5656 1.1892v-1.8588c0-1.2322 0.69154-1.8807 2.3334-1.8807h4.2142c1.6859 0 2.3774 0.36776 2.3774 1.426h4.1492v-1.2312c0-1.9887-1.2102-3.5666-5.7702-3.5666h-4.9917c-5.1226 0-6.8514 1.3831-6.8514 6.1379zm20.655 2.1825h12.167v3.1339h4.539v-3.1339h2.3125v-3.5007h-2.3125v-9.012h-5.5323l-11.173 6.7855zm12.167-8.7522v5.2515h-8.4064v-0.04297z" fill="#fff"/><g transform="scale(.99933)" stroke-width="1.0007"><path d="m171.43 5.407h84.513v2.39h-84.512z" fill="#d12625"/><path d="m171.43 9.984h84.513v2.39h-84.512z" fill="#da6241"/><path d="m171.43 14.352h84.513v2.39h-84.512z" fill="#f1cb29"/><path d="m171.43 18.847h84.513v2.39h-84.512z" fill="#4bb249"/><path d="m171.43 23.455h84.513v2.39h-84.512z" fill="#009eda"/></g></svg>
