<?xml version="1.0" encoding="UTF-8" standalone="no"?>
<!-- Created by ERK -->

<svg
   width="440.3125"
   height="94.552727"
   viewBox="0 0 440.3125 94.552727"
   version="1.1"
   id="svg1"
   inkscape:version="1.4 (86a8ad7, 2024-10-11)"
   sodipodi:docname="cassettevision-w.svg"
   xmlns:inkscape="http://www.inkscape.org/namespaces/inkscape"
   xmlns:sodipodi="http://sodipodi.sourceforge.net/DTD/sodipodi-0.dtd"
   xmlns="http://www.w3.org/2000/svg"
   xmlns:svg="http://www.w3.org/2000/svg">
  <sodipodi:namedview
     id="namedview1"
     pagecolor="#ffffff"
     bordercolor="#000000"
     borderopacity="0.25"
     inkscape:showpageshadow="2"
     inkscape:pageopacity="0.0"
     inkscape:pagecheckerboard="true"
     inkscape:deskcolor="#d1d1d1"
     inkscape:document-units="px"
     inkscape:zoom="2.8434351"
     inkscape:cx="220.15625"
     inkscape:cy="47.301941"
     inkscape:window-width="2120"
     inkscape:window-height="1240"
     inkscape:window-x="550"
     inkscape:window-y="382"
     inkscape:window-maximized="0"
     inkscape:current-layer="svg1" />
  <defs
     id="defs1" />
  <path
     id="text27"
     style="font-stretch:expanded;font-size:29.8069px;line-height:0px;font-family:Zurich;-inkscape-font-specification:'Zurich Expanded';letter-spacing:0px;word-spacing:0px;fill:#ffffff;stroke-width:8;stroke-linecap:square;stroke-miterlimit:2;paint-order:fill markers stroke"
     inkscape:label="Epoch TV Game"
     d="m 54.37109,0 c -3.56859,0 -6.38323,0.91709 -8.44336,2.75195 -2.38768,2.12976 -3.58203,5.3519 -3.58203,9.66602 0,4.35781 1.09573,7.60266 3.28515,9.73242 C 47.58754,24.05079 50.34123,25 53.89257,25 c 3.67203,0 6.53753,-0.8689 8.59766,-2.60547 2.4394,-2.07515 3.66016,-5.31335 3.66016,-9.71484 0,-4.39058 -1.13029,-7.6609 -3.38868,-9.8125 C 60.76193,0.95587 57.96554,0 54.37109,0 Z m 139.0625,0.0332 c -3.74961,0 -6.72383,0.94451 -8.92188,2.83399 -2.57731,2.22805 -3.86523,5.59671 -3.86523,10.10742 0,8.01662 4.14528,12.02539 12.4375,12.02539 3.14622,0 6.55649,-0.57391 10.22851,-1.7207 V 11.07422 H 192.5039 v 4.62109 h 4.92578 V 19.25 c -1.44812,0.56794 -2.76244,0.85156 -3.94335,0.85156 -1.95669,0 -3.46517,-0.59468 -4.5254,-1.78515 -1.11195,-1.25601 -1.66797,-3.10155 -1.66797,-5.53711 0,-2.31543 0.46865,-4.17898 1.40821,-5.58789 1.00851,-1.48537 2.41021,-2.22657 4.20312,-2.22657 2.15495,0 3.45102,1.16194 3.89062,3.48828 h 6.6211 C 203.22637,2.83931 199.89842,0.0332 193.43359,0.0332 Z M 79.45117,0.0664 c -3.56859,0 -6.37508,1.00405 -8.41797,3.01367 -2.25838,2.23897 -3.38672,5.54808 -3.38672,9.92773 0,4.04108 1.10698,7.11004 3.32227,9.20703 1.97392,1.85671 4.61578,2.78516 7.92578,2.78516 3.19793,0 5.68526,-0.55785 7.46093,-1.67188 2.36182,-1.48536 3.6812,-4.0192 3.95704,-7.60156 h -6.75 c -0.35342,2.86152 -1.75006,4.29297 -4.18946,4.29297 -1.71533,0 -3.01141,-0.69301 -3.89062,-2.08008 -0.79302,-1.26693 -1.18946,-3.02079 -1.18946,-5.25976 0,-2.30451 0.39644,-4.11791 1.18946,-5.43946 0.88784,-1.47444 2.21031,-2.21093 3.96875,-2.21093 2.07736,0 3.28802,1.17524 3.63281,3.52343 h 6.72461 C 89.51552,2.89522 86.06254,0.0664 79.45117,0.0664 Z M 0.64648,0.42577 v 24.16406 h 17.4043 V 19.31444 H 7.0332 V 14.6289 h 9.81445 V 9.48632 H 7.0332 V 5.63476 H 17.64843 V 0.42577 Z m 20.69922,0 v 24.16406 h 6.41406 v -8.79687 h 5.68945 c 2.12047,0 3.78852,-0.66559 5.00391,-1.99805 1.29297,-1.41984 1.93945,-3.44596 1.93945,-6.07812 0,-2.76323 -0.70745,-4.7251 -2.12109,-5.88282 -1.15505,-0.93927 -2.89727,-1.4082 -5.22461,-1.4082 z m 70.60156,0 v 24.16406 h 6.49024 v -9.46875 h 8.76562 v 9.46875 h 6.51758 V 0.42577 h -6.51758 v 9.4043 H 98.4375 v -9.4043 z m 32.39844,0 v 5.30859 h 7.0996 v 18.85547 h 6.50391 V 5.73436 h 7.09766 V 0.42577 Z m 22.80078,0 8.26172,24.16406 h 7.7832 l 8.39258,-24.16406 h -6.19336 L 159.6621,17.77538 154.02538,0.42577 Z m 67.07618,0 -9.87696,24.16406 h 6.40039 l 1.53711,-4.35742 h 9.9043 l 1.43555,4.35742 h 7.11132 L 221.30859,0.42577 Z m 18.26171,0 V 24.58983 H 238.625 V 5.12694 l 6.59374,19.46289 h 4.87501 l 6.41211,-19.46289 v 19.46289 h 6.11718 V 0.42577 h -9.85351 L 248,15.40039 243.0996,0.42578 Z m 33.66211,0 v 24.16406 h 17.40429 V 19.31444 H 272.5332 V 14.6289 h 9.81445 V 9.48632 H 272.5332 V 5.63476 h 10.61523 V 0.42577 Z M 54.15039,4.89843 c 3.58582,0 5.3789,2.65958 5.3789,7.97851 0,4.81653 -1.77482,7.22461 -5.32617,7.22461 -3.49101,0 -5.23633,-2.46293 -5.23633,-7.38867 0,-2.3045 0.39953,-4.13868 1.20117,-5.50391 C 51.06442,5.669 52.39195,4.89843 54.15039,4.89843 Z M 27.75976,5.47265 h 3.62109 c 1.68086,0 2.51954,0.83482 2.51954,2.50586 0,1.7038 -0.83868,2.55468 -2.51954,2.55468 h -3.62109 z m 189.65625,0.70312 3.05273,8.78125 h -6.28515 z" />
  <path
     id="path68"
     style="font-weight:bold;font-size:70.1281px;line-height:0px;font-family:'AvantGarde LT Book';-inkscape-font-specification:'AvantGarde LT Book,  Bold';letter-spacing:0px;word-spacing:0px;fill:#ffff00;stroke-width:8;stroke-linecap:square;stroke-miterlimit:2;paint-order:fill markers stroke"
     inkscape:label="Cassette Vision"
     d="m 26.85937,40.08984 c -3.74017,0 -7.24689,0.72452 -10.51953,2.17383 -3.27265,1.44932 -6.12358,3.41277 -8.55469,5.89063 C 5.35404,50.5854 3.43576,53.43829 2.0332,56.71094 0.67739,59.93683 0,63.32575 0,66.87891 c 0,3.64666 0.70095,7.12982 2.10351,10.44921 1.40256,3.27265 3.32085,6.1707 5.75195,8.69532 2.47786,2.47786 5.35236,4.44131 8.625,5.89062 3.3194,1.44932 6.84968,2.17383 10.58985,2.17383 2.47786,0 4.93217,-0.3495 7.36328,-1.05078 2.43111,-0.74803 4.69889,-1.77688 6.80273,-3.08594 2.1506,-1.35581 4.06693,-2.99137 5.75,-4.9082 1.68308,-1.91684 3.03786,-4.06877 4.06641,-6.45313 H 39.90234 c -0.56103,0.60778 -1.23842,1.28713 -2.0332,2.03516 -0.74708,0.70313 -1.62231,1.38506 -2.61719,2.04687 l 4.21484,-6.02148 H 52.24414 V 93.5 h 9.67968 v -52 H 52.88671 L 22.74023,84.55273 C 21.90225,84.32024 21.07785,84.0168 20.26757,83.63867 18.21048,82.65688 16.38644,81.34921 14.79687,79.71289 13.2073,78.07657 11.9448,76.15828 11.00976,73.96094 10.07472,71.76359 9.60742,69.45064 9.60742,67.01953 c 0,-2.57136 0.49086,-4.95695 1.47265,-7.1543 0.9818,-2.19734 2.24429,-4.09011 3.78711,-5.67968 1.58957,-1.63633 3.39006,-2.89882 5.40039,-3.78711 2.05709,-0.88829 4.13639,-1.33203 6.24024,-1.33203 2.89863,0 5.47074,0.60866 7.71484,1.82421 2.11192,1.14396 4.05528,2.7076 5.83594,4.67969 1.84425,-2.63357 3.68901,-5.26678 5.5332,-7.90039 -1.5986,-1.56342 -3.30281,-2.88568 -5.12695,-3.93359 -2.19735,-1.26231 -4.48869,-2.17335 -6.87305,-2.73438 -2.3376,-0.60777 -4.58182,-0.91211 -6.73242,-0.91211 z m 53.39844,0.46289 c -2.19735,0 -4.23148,0.39663 -6.10156,1.19141 -1.82333,0.74803 -3.41177,1.80044 -4.76758,3.15625 -1.35581,1.30906 -2.43178,2.87589 -3.22657,4.69922 -0.74803,1.77658 -1.12304,3.69291 -1.12304,5.75 0,2.75837 0.44569,5.02615 1.33398,6.80273 0.93504,1.72983 2.03262,3.13174 3.29492,4.20703 1.30906,1.0753 2.6658,1.91762 4.06836,2.5254 1.44932,0.56102 2.6647,1.02832 3.64649,1.40234 1.58957,0.60778 2.99147,1.16932 4.20703,1.68359 1.2623,0.46752 2.31471,1.00551 3.15625,1.61328 0.84154,0.60778 1.47181,1.35586 1.89258,2.24414 0.42077,0.84154 0.63281,1.91556 0.63281,3.22461 0,0.9818 -0.21204,1.87123 -0.63281,2.66602 -0.37402,0.79479 -0.88844,1.49574 -1.54297,2.10352 -0.65453,0.56102 -1.42421,1.00476 -2.3125,1.33203 -0.84154,0.28051 -1.73098,0.41992 -2.66602,0.41992 -0.74803,0 -1.4961,-0.11585 -2.24414,-0.34961 -0.74803,-0.23376 -1.44898,-0.60877 -2.10351,-1.12305 -0.65453,-0.56102 -1.21608,-1.28554 -1.6836,-2.17383 -0.42077,-0.88829 -0.70154,-1.98586 -0.84179,-3.29492 H 63.14648 c 0.14026,2.85188 0.77053,5.28263 1.89258,7.29297 1.1688,2.01034 2.57266,3.66946 4.20898,4.97852 1.68308,1.2623 3.48356,2.1753 5.40039,2.73632 1.91684,0.60778 3.71537,0.91016 5.39844,0.91016 2.01034,0 4.02091,-0.3495 6.03125,-1.05078 1.23197,-0.40111 2.38488,-0.93316 3.45898,-1.59766 1.24515,0.75386 2.54674,1.33924 3.91016,1.73828 1.91684,0.60778 3.71732,0.91016 5.40039,0.91016 2.01034,0 4.02091,-0.3495 6.03125,-1.05078 2.01034,-0.65453 3.80887,-1.65981 5.39844,-3.01563 1.63632,-1.35581 2.94594,-3.06205 3.92773,-5.11914 0.9818,-2.10384 1.47266,-4.55815 1.47266,-7.36328 0,-2.80512 -0.51442,-5.14359 -1.54297,-7.01367 -0.98179,-1.91683 -2.19717,-3.48366 -3.64648,-4.69922 -1.44932,-1.21555 -2.94547,-2.1266 -4.48828,-2.73437 -1.54282,-0.65453 -2.85049,-1.16895 -3.92579,-1.54297 -1.30906,-0.42077 -2.50283,-0.81739 -3.57812,-1.19141 -1.0753,-0.42077 -1.98634,-0.88807 -2.73438,-1.40234 -0.74803,-0.51427 -1.33313,-1.12294 -1.7539,-1.82422 -0.37402,-0.74803 -0.56055,-1.68264 -0.56055,-2.80469 0,-1.54281 0.51442,-2.80531 1.54297,-3.78711 1.02854,-0.98179 2.29104,-1.47265 3.78711,-1.47265 0.65452,0 1.30836,0.0942 1.96289,0.28125 0.65453,0.14025 1.23963,0.44263 1.75391,0.91015 0.56102,0.42077 1.02833,1.00588 1.40234,1.75391 0.37402,0.74803 0.60767,1.7062 0.70117,2.875 h 9.81836 c -0.14026,-2.66487 -0.74892,-4.93265 -1.82422,-6.80274 -1.02854,-1.87008 -2.29104,-3.38979 -3.78711,-4.55859 -1.49606,-1.21555 -3.13162,-2.07948 -4.9082,-2.59375 -1.72983,-0.56102 -3.34183,-0.8418 -4.83789,-0.8418 -2.19735,0 -4.23148,0.39663 -6.10156,1.19141 -1.2311,0.50507 -2.35289,1.15326 -3.3711,1.93555 -1.38266,-1.04635 -2.87595,-1.81787 -4.49023,-2.28516 -1.72983,-0.56102 -3.34183,-0.8418 -4.83789,-0.8418 z m 236,0 c -2.19735,0 -4.23148,0.39858 -6.10156,1.19336 -1.82334,0.74804 -3.41178,1.79849 -4.76758,3.1543 -1.35582,1.30906 -2.43178,2.87589 -3.22657,4.69922 -0.74803,1.77658 -1.12304,3.69291 -1.12304,5.75 0,2.75837 0.44569,5.02615 1.33398,6.80273 0.93504,1.72983 2.03262,3.13369 3.29492,4.20899 1.30906,1.0753 2.6658,1.91566 4.06836,2.52344 1.44932,0.56102 2.66469,1.02832 3.64649,1.40234 1.58957,0.60778 2.99148,1.16932 4.20703,1.68359 1.2623,0.46752 2.31471,1.00551 3.15625,1.61328 0.84154,0.60778 1.47181,1.35586 1.89258,2.24414 0.42076,0.84154 0.63281,1.91556 0.63281,3.22461 0,0.9818 -0.21205,1.87123 -0.63281,2.66602 -0.37402,0.79479 -0.88844,1.49574 -1.54297,2.10352 -0.65453,0.56102 -1.42421,1.00476 -2.3125,1.33203 -0.84153,0.28051 -1.73098,0.42187 -2.66602,0.42187 -0.74803,0 -1.4961,-0.1178 -2.24414,-0.35156 -0.74803,-0.23376 -1.44898,-0.60682 -2.10351,-1.12109 -0.65453,-0.56103 -1.21608,-1.28554 -1.6836,-2.17383 -0.42076,-0.88829 -0.70153,-1.98782 -0.84179,-3.29688 h -10.09766 c 0.14025,2.85188 0.77053,5.28263 1.89258,7.29297 1.1688,2.01034 2.57266,3.66946 4.20898,4.97852 1.68308,1.2623 3.48356,2.1753 5.40039,2.73632 1.91684,0.60778 3.71537,0.91211 5.39844,0.91211 2.01034,0 4.02092,-0.35145 6.03125,-1.05273 2.01034,-0.65453 3.81082,-1.65981 5.40039,-3.01563 1.63632,-1.35581 2.94594,-3.06205 3.92774,-5.11914 0.98179,-2.10384 1.47265,-4.55815 1.47265,-7.36328 0,-2.80512 -0.51442,-5.14359 -1.54297,-7.01367 -0.98179,-1.91683 -2.19717,-3.48171 -3.64648,-4.69726 -1.44931,-1.21556 -2.94546,-2.12856 -4.48828,-2.73633 -1.54282,-0.65453 -2.85244,-1.16896 -3.92774,-1.54297 -1.30906,-0.42077 -2.50088,-0.81739 -3.57617,-1.19141 -1.0753,-0.42077 -1.98829,-0.88807 -2.73633,-1.40234 -0.74803,-0.51427 -1.33118,-1.12294 -1.75195,-1.82422 -0.37402,-0.74803 -0.56055,-1.68264 -0.56055,-2.80469 0,-1.54282 0.51247,-2.80531 1.54102,-3.78711 1.02855,-0.98179 2.29104,-1.47265 3.78711,-1.47265 0.65452,0 1.31031,0.0942 1.96484,0.28125 0.65453,0.14025 1.23768,0.44459 1.75196,0.91211 0.56102,0.42077 1.02833,1.00392 1.40234,1.75195 0.37402,0.74803 0.60962,1.7062 0.70312,2.875 h 9.81641 c -0.14026,-2.66487 -0.74697,-4.9307 -1.82227,-6.80078 -1.02854,-1.87008 -2.29104,-3.38979 -3.7871,-4.5586 -1.49607,-1.21555 -3.13358,-2.08143 -4.91016,-2.5957 -1.72983,-0.56102 -3.34183,-0.8418 -4.83789,-0.8418 z m 54.96875,0 c -3.69342,0 -7.17658,0.70096 -10.44922,2.10352 -3.27265,1.35581 -6.14909,3.25053 -8.62695,5.68164 -2.47786,2.43111 -4.44132,5.30561 -5.89063,8.625 -1.44931,3.3194 -2.17383,6.8968 -2.17383,10.73047 0,3.74017 0.70096,7.24689 2.10352,10.51953 1.44931,3.22589 3.39116,6.05327 5.82226,8.48438 2.47786,2.4311 5.35236,4.34743 8.625,5.75 3.3194,1.40256 6.84968,2.10546 10.58985,2.10546 3.74016,0 7.24688,-0.7029 10.51953,-2.10546 3.31939,-1.40257 6.19389,-3.3189 8.625,-5.75 2.47786,-2.43111 4.41775,-5.25849 5.82031,-8.48438 1.44932,-3.27264 2.17383,-6.77936 2.17383,-10.51953 0,-3.83367 -0.72451,-7.41107 -2.17383,-10.73047 -1.44931,-3.31939 -3.41276,-6.19389 -5.89062,-8.625 -2.47786,-2.43111 -5.35236,-4.32583 -8.625,-5.68164 -3.27265,-1.40256 -6.75581,-2.10352 -10.44922,-2.10352 z M 242.14648,41.5 l 36.41016,52 h 7.64062 v -52 h -9.67773 V 73.71289 L 253.96093,41.5 Z m -126,0.10547 V 93.5 h 25.41211 V 84.52344 H 125.7539 V 72.25195 h 15.53125 V 63.27539 H 125.7539 V 50.58203 h 15.80469 v -8.97656 z m 26.61133,0 v 8.97656 h 9.10742 V 93.5 h 9.60742 V 50.58203 h 9.17774 v -8.97656 z m 29.09179,0 v 8.97656 h 9.10938 V 93.5 h 9.60742 V 50.58203 h 9.17774 v -8.97656 z m 29.09376,0 V 93.5 h 25.4121 V 84.52344 H 210.55078 V 72.25195 h 15.5332 v -8.97656 h -15.5332 V 50.58203 h 15.80468 v -8.97656 z m 88.0039,0 V 93.5 h 9.60742 V 41.60547 Z m 44.63086,0 V 93.5 h 9.60742 V 41.60547 Z m 65.78708,0 V 93.5 h 9.6074 V 60.67187 h 0.1407 L 432.084,93.5 h 8.2285 V 41.60547 h -9.6074 v 32.82812 h -0.1407 L 407.8047,41.60547 Z M 79.97656,49.5293 c 0.65453,0 1.31031,0.0942 1.96484,0.28125 0.65453,0.14025 1.23768,0.44263 1.75195,0.91015 0.24083,0.18062 0.46167,0.3976 0.66797,0.63867 -0.34455,1.26628 -0.52148,2.59472 -0.52148,3.99024 0,2.75837 0.44374,5.02615 1.33203,6.80273 0.14287,0.26432 0.29672,0.50686 0.44727,0.75586 -0.8635,-0.34715 -1.66805,-0.66078 -2.34571,-0.89648 -1.30905,-0.42077 -2.50087,-0.81739 -3.57617,-1.19141 -1.0753,-0.42077 -1.98829,-0.88807 -2.73633,-1.40234 -0.74803,-0.51427 -1.33118,-1.12294 -1.75195,-1.82422 -0.37402,-0.74803 -0.56055,-1.68264 -0.56055,-2.80469 0,-1.54281 0.51247,-2.80531 1.54102,-3.78711 1.02854,-0.98179 2.29104,-1.47265 3.78711,-1.47265 z m 291.25,0 c 2.4311,0 4.69889,0.49086 6.80273,1.47265 2.1506,0.93504 4.0198,2.2211 5.60938,3.85742 1.58956,1.63633 2.82851,3.55266 3.71679,5.75 0.93505,2.19735 1.40235,4.53582 1.40235,7.01368 0,2.38435 -0.44374,4.6757 -1.33203,6.87304 -0.88829,2.1506 -2.12723,4.06693 -3.7168,5.75 -1.58957,1.63633 -3.46073,2.94595 -5.61133,3.92774 -2.10384,0.93504 -4.39323,1.40234 -6.87109,1.40234 -2.47786,0 -4.79277,-0.4673 -6.94336,-1.40234 -2.10384,-0.98179 -3.94949,-2.29141 -5.53906,-3.92774 -1.58957,-1.68307 -2.82851,-3.5994 -3.7168,-5.75 -0.88829,-2.19734 -1.33398,-4.48869 -1.33398,-6.87304 0,-2.47786 0.44569,-4.81633 1.33398,-7.01368 0.93504,-2.19734 2.19558,-4.11367 3.78516,-5.75 1.58956,-1.63632 3.43716,-2.92238 5.54101,-3.85742 2.15059,-0.98179 4.44194,-1.47265 6.87305,-1.47265 z M 51.58398,59.3457 h 0.66016 v 8.13477 h -6.35547 z m 43.00781,10.33008 c 0.51688,0.19857 1.1618,0.44826 1.58985,0.61133 1.58957,0.60778 2.99343,1.16932 4.20898,1.68359 1.26231,0.46752 2.31472,1.00551 3.15625,1.61328 0.84154,0.60778 1.47181,1.35586 1.89258,2.24414 0.42077,0.84154 0.63086,1.91556 0.63086,3.22461 0,0.9818 -0.21009,1.87123 -0.63086,2.66602 -0.37401,0.79479 -0.88844,1.49574 -1.54297,2.10352 -0.65453,0.56102 -1.42616,1.00476 -2.31445,1.33203 -0.84154,0.28051 -1.72902,0.41992 -2.66407,0.41992 -0.74803,0 -1.4961,-0.11585 -2.24414,-0.34961 -0.35222,-0.11007 -0.69389,-0.25352 -1.02539,-0.42578 0.81674,-1.97508 1.23047,-4.23838 1.23047,-6.79688 0,-2.80512 -0.51442,-5.14359 -1.54297,-7.01367 -0.2347,-0.45823 -0.48273,-0.89429 -0.74414,-1.3125 z M 90.6289,91.1543 c -0.063,0.0466 -0.1259,0.0931 -0.18945,0.13867 0.0634,-0.0456 0.12665,-0.0921 0.18945,-0.13867 z" />
</svg>
