<!-- Created by ERK --><svg xmlns="http://www.w3.org/2000/svg" xml:space="preserve" width="7249.987" height="1770.342" viewBox="0 0 1918.226 468.403"><defs><filter id="a" width="1.007" height="1.031" x="-.004" y="-.016" style="color-interpolation-filters:sRGB"><feGaussianBlur stdDeviation="2.759"/></filter></defs><g stroke="none" style="mix-blend-mode:normal;fill:#3434dd;fill-opacity:.745098;stroke:#2727cd;stroke-width:12.9;stroke-dasharray:none;stroke-opacity:.564706;filter:url(#a)" transform="translate(22.975 42.738)"><path d="M30.473-9.445C19.918-9.445 8.388-8.076.022.279c-8.37 8.359-9.749 19.898-9.749 30.475v232c0 10.554 1.367 22.084 9.723 30.45 8.359 8.37 19.9 9.75 30.477 9.75h57c10.553 0 22.084-1.368 30.451-9.723 8.37-8.36 9.748-19.9 9.748-30.477v-97.898l-63.899 49.923v47.475c0 .383-.533 1.921-1.703 3.094s-2.695 1.706-3.097 1.706c-.384 0-1.922-.532-3.094-1.702-1.173-1.17-1.707-2.696-1.707-3.098v-231c0-.384.533-1.921 1.703-3.094s2.695-1.707 3.098-1.707c.383 0 1.921.533 3.093 1.703 1.173 1.17 1.707 2.696 1.707 3.098v87.611l63.899-51.746V30.754c0-10.555-1.37-22.085-9.725-30.451-8.358-8.37-19.897-9.748-30.474-9.748Z" style="fill-opacity:.745098;stroke:none;stroke-linecap:round;stroke-opacity:1"/><path d="m122.55-9.445 41.554 33.113v105.887H117.8l46.303 36.175v237.784l64.398-49.711v-182.85h14.602v232.56l64.4-49.71V30.753c0-22.2-17.934-40.198-40.2-40.198Zm105.952 38.058h9.8c.384 0 1.922.533 3.095 1.703 1.172 1.17 1.707 2.696 1.707 3.098v96.14h-14.602z" style="fill-opacity:.745098;stroke:none;stroke-linecap:round;stroke-opacity:1"/><path d="m290.804-9.445 63.231 49.398h13.127l-5.307 363.797 64.635-49.89 4.537-311.079 70.723-5.478-70.44-46.748z" style="fill-opacity:.745098;stroke:none;stroke-linecap:round;stroke-opacity:1"/><path d="m439.098-9.445 41.554 33.113v105.887H434.35l46.302 36.175v237.784l64.399-49.711v-182.85h14.6v232.56l64.398-49.71.002-323.05c0-22.2-17.934-40.198-40.2-40.198ZM545.05 28.613h9.8c.384 0 1.92.533 3.092 1.703s1.708 2.695 1.708 3.098v96.14h-14.6zM687.972-9.445c-10.554 0-22.084 1.369-30.45 9.724-8.37 8.359-9.749 19.898-9.749 30.475v232c0 10.554 1.368 22.084 9.723 30.45 8.36 8.37 19.9 9.75 30.476 9.75h57c10.554 0 22.085-1.368 30.452-9.723 8.37-8.36 9.748-19.9 9.748-30.477v-97.898l-63.899 49.923v47.475c0 .383-.532 1.921-1.702 3.094s-2.696 1.706-3.098 1.706c-.384 0-1.922-.532-3.094-1.702-1.173-1.17-1.707-2.696-1.707-3.098v-231c0-.384.533-1.921 1.703-3.094s2.695-1.707 3.098-1.707c.383 0 1.92.533 3.093 1.703s1.707 2.696 1.707 3.098v87.611l63.899-51.746V30.754c0-10.555-1.37-22.085-9.725-30.451-8.358-8.37-19.897-9.748-30.474-9.748Zm162 0c-22.2 0-40.198 17.933-40.199 40.199v232c0 22.2 17.934 40.2 40.2 40.2h57c22.2 0 40.198-17.935 40.199-40.2v-232c0-22.2-17.934-40.2-40.2-40.2Zm28.5 45.36c.384 0 1.922.532 3.094 1.702 1.173 1.17 1.706 2.695 1.706 3.098v212.08c0 .384-.531 1.921-1.702 3.094s-2.695 1.707-3.098 1.707c-.382 0-1.919-.533-3.091-1.704s-1.708-2.693-1.71-3.097V40.715c0-.384.534-1.921 1.704-3.094s2.695-1.707 3.097-1.707" style="fill-opacity:.745098;stroke:none;stroke-linecap:round;stroke-opacity:1"/><path d="m912.715-9.445 58.072 45.369V404.14l64.398-52.153V41.146h4.801c.383 0 1.92.534 3.092 1.704s1.707 2.695 1.707 3.097v358.194l64.398-52.153V41.146h4.801c.384 0 1.921.535 3.094 1.706s1.709 2.695 1.709 3.097v358.192l64.399-52.153V40.754c0-12.447-4.801-24.512-12.63-33.86-7.852-9.376-19.309-16.34-32.572-16.34z" style="fill-opacity:.745098;stroke:none;stroke-linecap:round;stroke-opacity:1"/><path d="m1167.826-10.05 45.106 36.04v96.512h-53.5l53.5 37.125v107.707l-49.027 35.62h147.226c13.66 0 25.837-4.24 33.926-13.483 8.04-9.188 11.275-21.898 11.275-36.717v-71.338c0-11.617-2.148-21.918-7.279-30.373v-.002c-1.915-3.156-4.268-5.925-6.924-8.344 2.656-2.419 5.009-5.188 6.924-8.343v-.002c5.131-8.455 7.279-18.755 7.28-30.372V40.754c-.001-14.819-3.237-27.53-11.276-36.717-8.089-9.244-20.266-13.482-33.926-13.482h-87.945zm109.053 40.69h8.403c.382 0 1.92.534 3.091 1.704 1.173 1.17 1.707 2.694 1.707 3.097v82.26c0 .385-.533 1.921-1.703 3.094s-2.694 1.707-3.095 1.707h-8.403zm0 133.85h8.403c.382 0 1.92.533 3.091 1.703 1.173 1.17 1.707 2.695 1.707 3.098v88.24c0 .384-.533 1.922-1.703 3.094s-2.694 1.705-3.095 1.705h-8.403zM1556.217-9.445c-22.2 0-40.198 17.933-40.197 40.199v232c-.001 22.2 17.931 40.2 40.197 40.2h33.3v100.948l63.899-50.83v-219.78h-73.498V29.374c0-.383.533-1.921 1.703-3.094s2.696-1.707 3.098-1.707c.383 0 1.92.534 3.092 1.703s1.706 2.695 1.706 3.098v93.559l63.899-51.747V30.754c0-22.2-17.932-40.2-40.197-40.2zm23.701 161.908 9.6 7.5v104.184h-4.8c-.383 0-1.92-.531-3.093-1.702s-1.707-2.696-1.707-3.098zM1738.22-20.979l-64.455 53.543v270.39h195.788l-56.84-44.405h-74.493z" style="fill-opacity:.745098;stroke:none;stroke-linecap:round;stroke-opacity:1"/></g><g style="fill:#01ffff;fill-opacity:1;stroke:none;stroke-width:7.5;stroke-dasharray:none;stroke-opacity:.564706"><path d="M30.473-2.996c-9.956 0-19.43 1.386-25.893 7.84-6.464 6.455-7.857 15.933-7.857 25.91v232c0 9.956 1.383 19.43 7.837 25.892 6.456 6.464 15.936 7.858 25.913 7.858h57c9.956 0 19.43-1.384 25.892-7.838 6.464-6.455 7.858-15.936 7.858-25.912V178.08l-51 39.846v44.328c0 5.399-5.816 11.25-11.25 11.25-5.4 0-11.25-5.816-11.25-11.25v-231c0-5.4 5.816-11.25 11.25-11.25 5.399 0 11.25 5.816 11.25 11.25v74.088l51-41.299v-33.29c0-9.955-1.386-19.43-7.84-25.892-6.456-6.464-15.934-7.857-25.91-7.857zm110.521 0 29.559 23.557v115.443h-34.02l34.02 26.58v227.803l51.5-39.754v-186.13h27.5v225.884l51.5-39.754V30.753c0-18.792-14.895-33.75-33.748-33.75Zm81.059 25.16h16.25c5.399 0 11.25 5.816 11.25 11.25v102.59h-27.5Zm87.484-25.16 46.719 36.5h17.45L368.5 390.473l51.586-39.819 4.578-313.85 57.912-4.486-53.213-35.314z" style="stroke:none;stroke-linecap:round;stroke-opacity:.564706" transform="translate(22.975 42.738)"/><path d="m457.541-2.996 29.56 23.557v115.443h-34.02l34.02 26.58v227.803l51.5-39.754v-186.13H566.1v225.884l51.5-39.754.002-319.88c0-18.792-14.897-33.75-33.75-33.75Zm81.06 25.16h16.25c5.4 0 11.249 5.816 11.249 11.25v102.59h-27.498zm149.371-25.16c-9.956 0-19.43 1.386-25.892 7.84-6.464 6.455-7.857 15.933-7.857 25.91v232c0 9.956 1.383 19.43 7.837 25.892 6.456 6.464 15.936 7.858 25.912 7.858h57c9.957 0 19.43-1.384 25.893-7.838s7.857-15.936 7.857-25.912V178.08l-51 39.846v44.328c0 5.399-5.815 11.25-11.25 11.25-5.399 0-11.25-5.816-11.25-11.25v-231c0-5.4 5.816-11.25 11.25-11.25 5.4 0 11.25 5.816 11.25 11.25v74.088l51-41.299v-33.29c0-9.955-1.385-19.43-7.84-25.892-6.455-6.464-15.933-7.857-25.91-7.857zm162 0c-18.792 0-33.75 14.895-33.75 33.75v232c.001 18.792 14.896 33.75 33.75 33.75h57c18.793 0 33.75-14.896 33.75-33.75v-232c0-18.793-14.895-33.75-33.75-33.75Zm28.5 32.46c5.4 0 11.25 5.817 11.25 11.25v212.08c0 5.4-5.815 11.25-11.25 11.25-5.398 0-11.248-5.815-11.25-11.25V40.715c0-5.398 5.816-11.25 11.25-11.25" style="stroke:none;stroke-linecap:round;stroke-opacity:.564706" transform="translate(22.975 42.738)"/><path d="m931.447-2.996 45.79 35.773v357.84l51.5-41.705V34.697h11.25c5.398 0 11.248 5.816 11.247 11.25v344.67l51.5-41.705V34.697h11.25c5.4 0 11.252 5.818 11.252 11.252v344.668l51.5-41.705V40.754c0-10.754-4.235-21.492-11.125-29.719s-16.634-14.031-27.627-14.031zm255.039-.401 32.895 26.284v106.064h-39.342l39.342 27.301v114.37l-35.625 25.882h127.375c12.38 0 22.423-3.682 29.072-11.281s9.68-18.589 9.68-32.469v-71.338c0-10.818-2.01-19.888-6.344-27.027-3.027-4.988-7.272-8.87-12.403-11.692 5.131-2.821 9.376-6.703 12.403-11.691 4.333-7.14 6.343-16.208 6.343-27.026V40.754c0-13.88-3.03-24.87-9.68-32.469-6.648-7.599-16.69-11.281-29.071-11.281h-87.98zm83.943 27.588h14.852c5.398 0 11.248 5.816 11.248 11.25v82.26c0 5.4-5.815 11.25-11.248 11.25h-14.852zm0 133.85h14.852c5.398 0 11.248 5.816 11.248 11.25v88.24c0 5.4-5.815 11.25-11.248 11.25h-14.852zM1556.217-2.996c-18.792 0-33.749 14.895-33.748 33.75v232c0 18.792 14.893 33.75 33.748 33.75h39.75v94.025l51-40.568v-210.22h-72.857l21.857 17.075v113.781h-11.248c-5.4 0-11.25-5.816-11.25-11.25V29.375c0-5.399 5.816-11.25 11.25-11.25 5.399 0 11.248 5.816 11.248 11.25v80.035l51-41.299V30.754c0-18.793-14.894-33.75-33.748-33.75zm175.554-4.24-51.556 42.828v260.912h170.605l-40.328-31.506h-78.72z" style="stroke:none;stroke-linecap:round;stroke-opacity:.564706" transform="translate(22.975 42.738)"/></g><path d="M7.215 285.997c5.305 5.312 13.657 6.757 23.257 6.757h57c9.581 0 17.93-1.437 23.243-6.742s6.757-13.658 6.757-23.258v-76.986l-43.5 33.986v42.5c0 7.736-7.228 15-15 15-7.735 0-15-7.229-15-15v-231c0-7.735 7.23-15 15-15 7.736 0 15 7.23 15 15V97.48l43.5-35.226v-31.5c0-9.58-1.437-17.93-6.742-23.242S97.073.754 87.472.754h-57c-9.58 0-17.93 1.438-23.242 6.743S.472 21.154.472 30.754v232c0 9.581 1.438 17.93 6.743 23.243zM253.303 33.414c0-7.77-7.264-15-15-15h-20v121.34h35zm0 349.34v-222h-35v188.037l-44 33.963v-222l-26.878-21h26.878v-121l-22.587-18h115.588c16.91 0 30 13.15 30 30v318.037zm67.124-382 37.12 29h19.964l-5.148 353 44-33.963 4.601-315.46 50.464-3.91L428.232.754Z" style="fill:#000;fill-opacity:1;stroke:#000;stroke-width:.944827;stroke-linecap:round" transform="translate(22.975 42.738)"/><path d="M569.85 33.414c0-7.77-7.264-15-15-15h-20v121.34h35Zm0 349.34v-222h-35v188.037l-44 33.963v-222l-26.878-21h26.879v-121l-22.587-18H583.85c16.91 0 30 13.15 30 30v318.037zm94.865-96.757c5.305 5.312 13.657 6.757 23.257 6.757h57c9.581 0 17.93-1.437 23.243-6.742s6.757-13.658 6.757-23.258v-76.986l-43.5 33.986v42.5c0 7.736-7.228 15-15 15-7.735 0-15-7.229-15-15v-231c0-7.735 7.23-15 15-15 7.736 0 15 7.23 15 15V97.48l43.5-35.226v-31.5c0-9.58-1.437-17.93-6.742-23.242S754.573.754 744.972.754h-57c-9.58 0-17.93 1.438-23.242 6.743s-6.758 13.657-6.758 23.257v232c0 9.581 1.438 17.93 6.743 23.243zM936.973 30.754c0-16.85-13.09-30-30-30h-57c-16.85 0-30 13.09-30.001 30v232c0 16.85 13.09 30 30 30h57c16.85 0 30-13.09 30-30zm-73.5 9.96c0-7.735 7.228-15 15-15 7.735 0 15 7.23 15 15v212.08c0 7.736-7.23 15-15 15-7.736 0-15-7.229-15.001-15zm161.514 306.41-44 35.63V30.948L942.338.754h195.646c19.334 0 35 20.5 35.001 40v306.37l-44 35.63V45.948c0-7.771-7.265-15-15-15h-15v316.176l-44 35.63V45.948c0-7.771-7.265-15-15-15h-15z" style="fill:#000;fill-opacity:1;stroke:#000;stroke-width:.944827;stroke-linecap:round" transform="translate(22.975 42.738)"/><path d="m1197.336.472 25.794 20.611V132.7h-31.11l31.11 21.59v118.241l-27.834 20.223h115.835q35 0 35-40v-71.338q0-31.053-23.195-38.218v-1q23.194-7.165 23.196-38.218V40.754q0-40-35.001-40h-88.001Zm69.344 19.97h18.6c7.735 0 15 7.23 15 15V117.7c0 7.736-7.23 15-15 15h-18.6zm0 133.848h18.6c7.735 0 15 7.23 15 15v88.241c0 7.735-7.23 15-15 15h-18.6z" style="stroke:#000;stroke-width:.944827;stroke-linecap:round" transform="translate(22.975 42.738)"/><path d="M1643.217 348.153V143.49h-58.216l14.716 11.498v119.36h-15c-7.735 0-15-7.23-14.999-15V29.374c0-7.736 7.229-15 15-15 7.735 0 15 7.229 15 15v72.173l43.5-35.225V30.754c0-16.85-13.09-30-30-30h-57c-16.85 0-30 13.09-30 30v232c0 16.85 13.09 30 30 30h43.5v90zm165.984-79.406h-81.18V.754l-44.055 36.597v255.403h155.964z" style="fill:#000;fill-opacity:1;stroke:#000;stroke-width:.944827;stroke-linecap:round" transform="translate(22.975 42.738)"/></svg>