<!-- Created by ERK --><svg xmlns="http://www.w3.org/2000/svg" xml:space="preserve" width="3840" height="1085.333" viewBox="0 0 3840 1085.333"><path d="M7001.99 4369.61c-26.99 326.25 108.75 625.51 354.03 816.01l462.73 380.98c217.5 190.51 516.76 272.27 788.98 244.53h979.54c217.5 0 435.03-54.76 435.03-299.25 0-244.5-244.57-299.26-435.03-299.26H8498.98c-135.74 0-244.49-54.77-353.98-163.52l-381.02-326.25c-108.75-81.72-163.47-135.74-163.47-272.23v-761.99c0-108.75 81.76-217.5 163.47-272.26L8145 3117.11c108.75-81.76 217.5-135.74 353.98-163.48h1088.29c190.46 0 435.03-27.03 435.03-299.25 0-272.27-217.53-299.26-435.03-299.26h-979.54c-299.21-27-571.48 54.76-788.98 244.49l-462.73 381.01c-272.27 190.51-408.01 489.73-354.03 815.98zM14238 5185.62c-190.5 0-408 27-408 299.26 0 272.23 217.5 299.22 408 299.22h843c299.2 27.03 571.5-54.72 789-272.22 190.5-190.51 299.3-462.78 272.3-734.26l54.7-2067.74c0-190.5-81.8-354.02-272.2-354.02-163.5 0-299.3 135.74-326.3 299.26l-408-217.5c-108.7-81.76-244.5-108.75-381-81.76H14211c-244.5-26.99-489.7 54.76-707.2 217.5-217.5 190.51-354 462.77-326.3 761.99v272.27c-27 272.26 81.8 516.76 299.3 680.23 190.5 163.52 462.7 244.53 707.2 217.5h1305.8v135.78c0 462.74-108.8 543.75-543.8 543.75h-708zm-27-1305.74c-163.5 0-408-54.76-408-272.26v-408.01c0-217.5 244.5-244.49 408-244.49h680.3l680.2 353.98v135.78c0 326.25-108.8 435-435 435z" style="fill:#098a44;fill-opacity:1;fill-rule:nonzero;stroke:none" transform="matrix(.13333 0 0 -.13333 0 1085.333)"/><path d="M15867.1 3632.55v216.46c0 157.32 19.5 334.7 216.5 334.7 157.3 0 216.4-118.25 216.4-275.57V3593.5c0-59.13-19.5-118.27-59.1-176.84L15572 1960.09c-39.6-98.21-118.3-275.59-236-275.59h-275.6c-118.2 0-196.9 176.84-236 275.59l-668.8 1456c-39.6 59.14-59.2 118.28-59.2 176.87v314.64c0 137.78 59.2 275.57 216.5 275.57 196.9 0 236-176.84 236-334.7v-216.45l649.3-1475.56z" style="fill:#098a44;fill-opacity:1;fill-rule:nonzero;stroke:none" transform="matrix(.18434 0 0 -.18434 0 1085.333)"/><path d="M15218 1333.77c-107.8-15.28-230.9 15.3-307.7 92.55l-154.1 123.1c-123.1 92.54-184.7 230.91-169.4 384.99v662.19c-15.3 154.09 46.3 307.74 169.4 415.57l123.1 107.82c92.5 107.82 246.2 154.09 385 138.37h323.4c138.4 15.28 277.2-30.97 385-123.1l138.4-107.82c138.4-107.8 200.3-277.17 184.7-446.54v-277.19c0-200.35-31-261.9-231-261.9h-1108.7v-123.1c0-30.99 15.3-76.82 46.3-107.82l92.5-92.53c61.5-46.26 154.1-76.84 230.9-61.54h739c123.1 0 231-31 231-169.38 0-154.09-138.4-169.36-231-169.36zm-292.9 1062.06H15926v215.62c0 61.55 0 123.1-46.2 154.1l-138.4 123.1c-46.3 30.99-107.8 46.27-169.4 46.27h-292.5c-61.5 0-123.1 0-169.3-46.27l-123.1-92.55c-46.3-30.97-76.8-92.52-76.8-154.07z" style="fill:#098a44;fill-opacity:1;fill-rule:nonzero;stroke:none" transform="matrix(.23558 0 0 -.23558 0 1085.333)"/><path d="M5865.74 2979.88C5745 3282.85 5490 3513.12 5175 3597.85c11.99 0-448.52 157.5-666.76 230.27-194.26 84.73-411.76 108.76-618.01 84.73-338.98-48.75-630-254.22-787.5-557.23l-48.75 1623.76 108.75 35.97c36.02-23.98 72.78-60.74 108.75-72.73 24.03-12 60.79-36.02 96.76-48.75l751.53-351.76c194.21-84.73 411.71-108.75 617.96-60.74 958.52 316.48 909.77 1176.75 909.77 1188.75 0 11.99-60.74 727.5-72.73 1103.24v11.99c-36.02 194.26-157.5 375.78-315 497.27l-739.54 690.74c-11.99 0-11.99 11.99-23.98 11.99-48.75 36.02-84.77 60.78-145.51 84.77-169.49 84.76-375.74 96.76-557.22 11.99 0 0-2569.54-1393.48-2799.77-1515-169.488-121.49-278.98-303.01-291.02-509.26-48.75-326.99-72.73-399.73-194.21-497.23-218.29-84.76-363.75-291.01-375.79-533.24L0 2313.12c0-169.49 72.73-509.25 411.762-570 48.75 0 84.718-24.02 108.75-60.74 48.75-96.76 60.738-206.25 23.976-315v-24.02c0-48.75 0-411.758 181.532-570.001 35.968-60.738 290.97-570 666.71-605.98l303.01-24.02c399.77-35.98 1078.52-108.75 1345.51-133.48 84.77-12.027 169.49 0 242.27 23.992 133.47 11.988 545.23 60.738 812.22 96.75 678.75 108.758 836.25 860.238 873.01 1127.229 230.23 48.75 436.48 181.53 593.98 375.78l12.04 11.99c424.49 594.73 400.46 1055.24 290.97 1334.26m-3247.5-885c-84.72 0-666.76-48.75-933.01-48.75-35.97 0-72.73 11.99-96.71 35.98-60.79 72.77-84.77 157.5-84.77 254.26l11.99 3053.98c0 12.03-11.99 315 157.5 399.77 242.27 108.75 812.27 399.76 896.99 448.51 72.78 23.99 145.51 23.99 218.29-12.03 11.99-11.99 23.98-23.98 23.98-48.75l48.75-230.23c0-48.75 11.99-96.76 36.02-133.52-24.03 12.03-48.75 0-72.78 0l-775.51-315c-11.99 0-11.99-11.99-23.98-11.99-11.99-11.99-11.99-11.99-23.98-23.99 0 0-12.04-11.99-12.04-24.02v-47.97l12.04-2969.25c0-36.02 11.99-60.75 35.97-84.77 24.03-23.99 48.75-23.99 84.77-23.99l836.25 84.73c-36.76-194.22-291.76-278.98-339.77-302.97m315 3065.98-557.22 218.24 411.71 169.53c48.75-133.51 108.75-267.03 194.26-375.78zm-715.51-2617.5-11.99 2690.27 618.01-254.25 72.73-2363.25zM5344.49 6736.6c24.03-375.74 72.78-1090.47 72.78-1090.47 0-24.02 23.98-702.77-763.52-969.76-157.5-23.99-315 0-460.51 48.75 0 0-169.49 72.73-338.98 157.5 1042.5 351.76 993.75 1296.76 993.75 1308.75s-60.74 775.51-84.77 1200l326.99-303.01c133.52-72.74 218.29-206.25 254.26-351.76M4253.98 7863.87c169.54-84.77 279.03-242.27 303.01-424.49 24.03-424.5 84.77-1236.02 84.77-1248.01 0-36.02 35.97-800.24-860.28-1090.51-108.75-35.98-218.24-48.75-326.99-11.99-23.98 11.99-35.97 23.98-35.97 23.98s-12.04 0-12.04 12.03h-11.99c-218.24 121.49-326.99 399.73-375.74 545.24 133.52-121.49 315-157.5 484.49-96.76 424.49 108.75 545.28 521.25 545.28 727.5v11.99c0 12.03-72.78 981.76-84.77 1272.77v23.99c-23.98 84.77-72.73 169.49-145.51 230.27l96.76 48.75c96.76 35.98 230.23 35.98 338.98-24.76M460.512 1937.38c-242.274 35.98-230.282 327-230.282 338.99l133.52 2726.99c0 157.5 96.762 291.02 242.27 339.02 11.992 0 23.98 12 35.968 12 206.25 157.5 242.274 315 291.024 654.72 11.988 133.52 72.728 267.03 181.478 351.76 776.25 424.49 2279.26 1248.75 2340 1272.77 60.74 35.98 133.52 48.75 206.25 23.99 36.02-23.99 72.78-60.74 72.78-108.75 11.99-303.01 72.73-1163.25 84.72-1260.75 0-48.74-35.97-424.49-387.73-509.25-84.77-36.02-169.49-23.99-242.27 11.99-60.74 48.75-96.76 108.75-96.76 181.52v12l-61.48 243c-11.99 84.73-60.74 145.47-133.52 194.22-121.48 60.78-266.99 72.78-399.72 24.02-11.99 0-11.99 0-24.03-11.99-11.99 0-641.99-327.03-896.99-448.51-303.01-145.51-278.98-582-278.98-606.02 0 12.03-11.99-3041.99-11.99-3041.99 0-145.51 48.75-303.01 145.46-411.76 72.78-60.74 157.5-96.72 254.26-96.72 291.02 11.99 933.01 48.75 957.78 48.75h23.98c23.98 12 472.5 133.48 509.26 509.22 23.98 206.25 48.75 424.53 48.75 424.53 0 11.99 72.73 351.72 375.74 411.72 96.76 24.03 194.26 12.03 278.98-35.97 72.78-60.75 133.52-145.51 145.51-242.27 0-11.99 84.77-387.73-84.72-605.98-121.53-121.52-279.03-194.25-448.52-218.28h-11.99c-11.99 0-375.74-72.73-448.52-630-23.98-157.5-23.98-230.23-23.98-278.98 0-72.74-24.03-145.51-48.75-218.249-36.02-121.519-230.28-206.242-399.77-206.242-194.26 0-1345.51 60.742-1623.752 84.723-108.75 12.027-145.508 267.028-145.508 399.768 36.02 157.5 12.04 326.99-60.742 472.5-61.476 120.74-158.238 181.48-267.726 193.51M3066.02 216.129c-254.26 23.992-933.01 84.73-1333.52 133.48l-303.01 24.02c-145.51 11.992-278.98 157.5-375.74 302.973 399.77-23.981 1333.52-84.723 1515-84.723 254.26 11.992 545.23 133.473 606.02 363.742 23.98 84.729 48.75 169.499 48.75 254.259 0 48.75 11.99 121.49 23.98 267 48.75 363.74 230.23 424.49 266.99 436.48 230.28 24.02 436.53 121.52 594.03 291.02 0 0 0 11.99 11.99 11.99 230.23 291.01 133.47 751.48 121.48 775.51-23.98 157.5-108.75 290.97-242.22 375.74-133.52 84.76-303.01 108.75-460.51 72.73-60.74-11.99-121.53-35.97-169.49-60.74 133.47 169.49 326.99 279.02 533.24 303.01 133.47 11.99 254.26 11.99 387.73-23.99 11.99 0 11.99-12.03 24.03-12.03l108.75-35.98c157.5-72.77 290.97-194.25 387.73-339.02 145.51-218.24 303.01-702.73-218.24-1466.25-291.02-326.99-545.28-338.98-581.99-338.98h-24.03c-48.75-11.99-72.73-36.02-84.72-84.77v-23.98c-12.04-133.52-96.76-727.499-424.54-1005.741-60.74-60.75-145.46-108.758-230.23-121.527h-23.98c-12.04 0-24.03 0-36.02-11.993-36.02-2.23-72.73-2.23-121.48-2.23M4072.5 337.621c-108.75-12-230.23-36.019-363.75-48.75 218.24 278.981 351.76 618.008 387.73 969.759l642.04-12.03c-12.04-254.998-144.77-836.248-666.02-908.979M5405.23 1755.12c-266.99-303.01-509.21-303.01-521.25-303.01l-326.99 11.99c84.77 60.78 157.5 133.52 230.28 218.28 0 0 0 12 11.99 12 581.99 860.97 387.73 1443 218.24 1709.25-11.99 11.99-11.99 23.99-23.98 35.98l121.48-35.98c254.26-60.78 460.51-242.26 545.23-484.53 84.77-242.22 108.75-630.74-255-1163.98" style="fill:#da1f26;fill-opacity:1;fill-rule:nonzero;stroke:none" transform="matrix(.13333 0 0 -.13333 0 1085.333)"/></svg>