<?xml version="1.0" encoding="UTF-8"?>
<!-- Created by ERK -->
<svg width="1182.3" height="88.953" version="1.1" viewBox="0 0 312.82 23.535" xmlns="http://www.w3.org/2000/svg">
 <path d="m0.0017805 1.7563e-4h312.82v23.535h-312.82z" color="#000000" color-rendering="auto" fill="#5b5652" image-rendering="auto" shape-rendering="auto" solid-color="#000000" style="isolation:auto;mix-blend-mode:normal"/>
 <path d="m113.12 8.5656h-2.2603v6.4851h2.3584v-3.3892c0-0.88473 0.54116-1.3277 1.5241-1.3277 0.98164 0 1.2283 0.29575 1.2774 1.1301h2.2125c0-2.2112-0.29575-3.0456-2.6555-3.0456-1.4246 0-1.9154 0.29449-2.4566 1.3743zm10.861 5.209c-2.2603 0-2.6051-0.19633-2.6051-1.3277h6.1931c-0.0982-3.1438-0.0982-3.8812-4.2752-3.8812-3.5402 0-4.3268 0.63806-4.3268 3.4395 0 2.6051 1.0332 3.2432 3.8838 3.2935 3.1941 0 4.7194-0.1485 4.7194-2.2603h-2.3119c-0.0982 0.49082-0.29449 0.73623-1.2786 0.73623zm-2.6555-2.702c0.0994-0.6884 0.29575-0.93507 1.8689-0.93507 1.7204 0 1.9658 0.09942 2.064 0.93507zm-87.873 0.24541h2.3584c-0.19633-2.2125-0.83565-2.7524-4.1279-2.7524-3.734 0-4.5696 0.58898-4.5696 3.3413 0 2.7524 0.78657 3.3904 4.2752 3.3904 3.6862 0 4.4237-0.49082 4.4237-2.8014h-2.3597c0 0.63932-0.24541 0.93507-2.064 0.93507-1.5731 0-1.9167-0.39266-1.9167-1.6713 0-1.2283 0.34357-1.2283 2.2125-1.2283 1.3756 0 1.621 0.14725 1.7682 0.78657m54.798 0.3914c0-2.6529-0.78531-3.1928-4.5709-3.1928-4.0776 0-4.5684 0.68715-4.5684 3.4395 0 2.7524 0.68589 3.3413 4.5684 3.3413 4.1292 0 4.5709-0.68715 4.5709-3.5868zm-6.733 0.14976c0-1.3277 0.29575-1.475 2.0161-1.475 1.9167 0 2.2603 0.04908 2.2603 1.475 0 1.3265-0.24667 1.5731-2.064 1.5731-1.9671 0-2.2125-0.19759-2.2125-1.5731m27.914-0.14976c0-2.6529-0.73623-3.1928-4.5181-3.1928-4.031 0-4.5231 0.63806-4.5231 3.3904 0 2.8014 0.6884 3.3904 4.5218 3.3904 4.1279 0 4.5206-0.68715 4.5206-3.5868zm-6.6827 0.14976c0-1.3277 0.29575-1.475 2.0149-1.475 1.918 0 2.2615 0.04908 2.2615 1.475 0 1.3265-0.24541 1.5731-2.064 1.5731-1.9658 0-2.2112-0.19759-2.2112-1.5731zm-56.469-0.14976c0-2.6529-0.73623-3.1928-4.5206-3.1928-4.0788 0-4.5709 0.63806-4.5709 3.3904 0 2.8014 0.6884 3.3904 4.5709 3.3904 4.1279 0 4.5206-0.68715 4.5206-3.5868zm-6.6349 0.14976c0-1.3277 0.29449-1.475 1.9671-1.475 1.9155 0 2.2603 0.04908 2.2603 1.475 0 1.3265-0.24667 1.5731-2.064 1.5731-1.918 0-2.1646-0.19759-2.1646-1.5731zm56.814-6.0471v3.7843c-0.54116-0.73623-1.032-1.1289-2.9978-1.1289-3.145 0-3.7353 0.83565-3.7353 3.3904 0 2.6051 0.83565 3.3413 3.8825 3.3413 1.9167 0 2.507-0.49082 2.9487-1.3265v1.178h2.3597v-9.2387zm-1.7204 4.5231c1.3265 0 1.7695 0.19633 1.7695 1.227 0 1.5731-0.09942 1.7216-1.9658 1.7216-1.8664 0-2.3584-0.05034-2.3584-1.3756 0-1.5241 0.58898-1.5731 2.5548-1.5731m-44.724-1.7695h-2.2112v6.4851h2.3597v-3.3413c0-0.98164 0.49082-1.3252 1.8185-1.3252 1.2283 0 1.5731 0.44048 1.5731 1.67v2.9965h2.4075v-3.4382c0-0.93381 0.73623-1.2283 1.8664-1.2283 1.0823 0 1.5731 0.29449 1.5731 1.2283v3.4382h2.3584v-3.8322c0-1.9155-1.1792-2.8014-3.3413-2.8014-1.8676 0-2.556 0.6884-2.8014 1.4259-0.49208-0.83565-1.1792-1.4259-3.0481-1.4259-1.7682 0-2.2603 0.59024-2.5548 1.6713zm15.875 0h-2.2112v6.4851h2.3584v-3.3413c0-0.98164 0.58898-1.3252 1.7682-1.3252 1.2296 0 1.5731 0.39266 1.5731 1.67v2.9965h2.4088v-3.4382c0-0.93381 0.6884-1.2283 1.8185-1.2283 1.0823 0 1.621 0.34357 1.621 1.2283v3.4382h2.3597v-3.8322c0-1.9155-1.1792-2.8014-3.3413-2.8014-1.8676 0-2.507 0.63932-2.8014 1.4259-0.49082-0.83565-1.1805-1.4259-3.0481-1.4259-1.7191 0-2.1609 0.59024-2.5044 1.6713v-1.5228zm-44.768 3.5628h-3.7957v3.1136h6.8236zm3.0267-3.7504h-6.8224v3.1123h3.7529zm-7.0351-0.21395v-4.0084c-0.81048-0.21395-1.3655-0.29953-2.1747-0.29953-4.2223 0-7.9324 3.5402-7.9324 7.9324 0 4.5206 3.7529 7.8896 7.9739 7.8896 0.76769 0 1.1943-0.08558 2.1332-0.34232v-4.0939c-0.93885 0.46942-1.407 0.59653-2.1747 0.59653-2.3459 0-4.138-1.9608-4.138-4.1355 0-2.2603 1.7493-4.1795 4.0939-4.1795 0.81174 0 1.4939 0.21395 2.2188 0.64058" fill="#fff" stroke-width=".26458"/>
 <path d="m266.28 5.9389v8.9333h2.3156v-8.9333h-2.3156zm27.959 0.049093-3.2908 5.7035c-1.8097 3.1375-3.2913 5.739-3.2913 5.7805 0 0.0453 0.29103 0.075448 0.73277 0.075448h0.73123l3.1993-5.5377 3.3398-5.78 0.13953-0.24185h-1.5606zm6.9722 0.2005-6.6575 4.7697v4.3579h8.9002v2.0299h3.2799v-2.0299h2.2123v-2.605h-2.2123v-6.5226h-5.5227zm-17.043 2.1818c-0.31467-8.407e-4 -0.65744 0.003795-1.0304 0.012919-2.4402 0.05915-3.0605 0.21903-3.5161 0.90744-0.21145 0.31966-0.22944 0.40754-0.22944 1.1891 0 0.77524 0.01907 0.87092 0.22169 1.1793 0.45684 0.68966 1.2093 0.85585 3.9 0.85835 2.0312 0.001259 2.1939 0.041608 2.1461 0.52865-0.04279 0.44173-0.30858 0.51315-1.8981 0.51315-1.4964 0-1.7444-0.060132-2.0288-0.49558-0.13718-0.21017-0.1533-0.21162-1.1979-0.21032-0.58269 0-1.1103 0.032594-1.172 0.072864-0.0843 0.052857-0.0981 0.16757-0.0553 0.43563 0.16738 1.0144 0.8687 1.5279 2.2908 1.679l-0.00155 0.001033c0.64058 0.06796 3.2524 0.049091 3.9962-0.028939 1.9368-0.20262 2.505-0.69829 2.513-2.1833 0.00377-0.91368-0.22043-1.3402-0.88367-1.68l-0.48318-0.24805-2.3006-0.050126c-1.5354-0.035241-2.3644-0.085972-2.4877-0.15141-0.26305-0.14221-0.24441-0.46922 0.03876-0.65422 0.19255-0.12711 0.42388-0.14831 1.617-0.14831h1.3922l0.24184 0.23151 0.24133 0.23151 1.1162-0.022738 1.1152-0.025321 0.02533-0.28939c0.01384-0.17997-0.0504-0.43684-0.16744-0.66714-0.36339-0.71578-1.2007-0.97959-3.4034-0.98547zm-22.542 0.030489c-1.7644-0.0012585-2.189 0.091575-2.666 0.58239-0.15354 0.15983-0.30809 0.28991-0.34209 0.28991s-0.07275-0.15892-0.08785-0.35398l-0.02533-0.35347-1.1028-0.022738-1.1033-0.023771v4.5382 4.5382h2.3306v-1.6604c0-0.91242 0.03153-1.6788 0.07183-1.7027 0.03901-0.023911 0.15975 0.051716 0.26924 0.17002 0.4581 0.4883 1.2382 0.69608 2.6226 0.69608 1.8613 0 2.8482-0.29347 3.2799-0.97307 0.33103-0.52228 0.43916-1.2808 0.39636-2.7998-0.04153-1.4762-0.14115-1.801-0.69867-2.2919-0.59024-0.51976-1.1159-0.63304-2.9445-0.63304zm14.46 0.12351v1.8536c-0.04028 2.0942-0.18651 2.3648-0.73019 2.6794-0.2517 0.14599-0.43655 0.16846-1.3767 0.16846-0.89606 0-1.124-0.024911-1.309-0.14573-0.49207-0.32344-0.58033-0.42171-0.58033-2.5549v-1.9596h-2.3492v2.2893c0.00126 2.22 0.00864 2.3003 0.19741 2.7244 0.33603 0.75007 1.0531 1.2585 2.0159 1.4309 0.24667 0.04278 0.93538 0.066713 1.5307 0.049093 0.7916-0.02517 2.3044 0.11617 2.6014-0.9586 0.0252 0-0.0138 0.17709 0 0.39481v0.37776h2.2893v-6.2172c-0.04279-0.11201-0.21767-0.13178-1.1855-0.13178h-1.1038zm27 0.29662h0.36742l5.2e-4 3.8902h-5.8508l-0.00413-0.2806 5.487-3.6096zm-42.294 1.3684c1.1855 0 1.5507 0.075038 1.8376 0.38086 0.18876 0.20136 0.20154 0.27334 0.20154 1.1581 0 0.87341-0.01434 0.95903-0.19431 1.1503-0.10697 0.11327-0.35571 0.24783-0.55707 0.29817-0.44174 0.11076-2.2087 0.10448-2.6391-0.008785-0.63803-0.1699-0.90261-0.87207-0.73019-1.9343 0.14473-0.88599 0.46057-1.0444 2.0815-1.0444z" fill="#fff"/>
 <g shape-rendering="auto" stroke-width=".50253">
  <path transform="matrix(1.9443 0 0 2.0366 1548.8 -322.08)" d="m-728.97 161.39h1.276v5.06h-1.276z" color="#000000" color-rendering="auto" fill="#2fabc5" image-rendering="auto" solid-color="#000000" style="isolation:auto;mix-blend-mode:normal"/>
  <path transform="matrix(1.9443 0 0 2.0366 1548.8 -322.08)" d="m-727.28 161.39h1.276v5.06h-1.276z" color="#000000" color-rendering="auto" fill="#2ba7c1" image-rendering="auto" solid-color="#000000" style="isolation:auto;mix-blend-mode:normal"/>
  <path transform="matrix(1.9443 0 0 2.0366 1548.8 -322.08)" d="m-725.58 161.39h1.276v5.06h-1.276z" color="#000000" color-rendering="auto" fill="#2c9fb9" image-rendering="auto" solid-color="#000000" style="isolation:auto;mix-blend-mode:normal"/>
  <path transform="matrix(1.9443 0 0 2.0366 1548.8 -322.08)" d="m-723.88 161.39h1.276v5.06h-1.276z" color="#000000" color-rendering="auto" fill="#2da6c0" image-rendering="auto" solid-color="#000000" style="isolation:auto;mix-blend-mode:normal"/>
  <path transform="matrix(1.9443 0 0 2.0366 1548.8 -322.08)" d="m-722.18 161.39h1.276v5.06h-1.276z" color="#000000" color-rendering="auto" fill="#28b2c3" image-rendering="auto" solid-color="#000000" style="isolation:auto;mix-blend-mode:normal"/>
  <path transform="matrix(1.9443 0 0 2.0366 1548.8 -322.08)" d="m-720.49 161.39h1.276v5.06h-1.276z" color="#000000" color-rendering="auto" fill="#28a5a8" image-rendering="auto" solid-color="#000000" style="isolation:auto;mix-blend-mode:normal"/>
  <path transform="matrix(1.9443 0 0 2.0366 1548.8 -322.08)" d="m-718.79 161.39h1.276v5.06h-1.276z" color="#000000" color-rendering="auto" fill="#269857" image-rendering="auto" solid-color="#000000" style="isolation:auto;mix-blend-mode:normal"/>
  <path transform="matrix(1.9443 0 0 2.0366 1548.8 -322.08)" d="m-717.09 161.39h1.276v5.06h-1.276z" color="#000000" color-rendering="auto" fill="#319b58" image-rendering="auto" solid-color="#000000" style="isolation:auto;mix-blend-mode:normal"/>
  <path transform="matrix(1.9443 0 0 2.0366 1548.8 -322.08)" d="m-715.4 161.39h1.276v5.06h-1.276z" color="#000000" color-rendering="auto" fill="#309a57" image-rendering="auto" solid-color="#000000" style="isolation:auto;mix-blend-mode:normal"/>
  <path transform="matrix(1.9443 0 0 2.0366 1548.8 -322.08)" d="m-713.7 161.39h1.276v5.06h-1.276z" color="#000000" color-rendering="auto" fill="#2b9850" image-rendering="auto" solid-color="#000000" style="isolation:auto;mix-blend-mode:normal"/>
  <path transform="matrix(1.9443 0 0 2.0366 1548.8 -322.08)" d="m-712 161.39h1.276v5.06h-1.276z" color="#000000" color-rendering="auto" fill="#34a35c" image-rendering="auto" solid-color="#000000" style="isolation:auto;mix-blend-mode:normal"/>
  <path transform="matrix(1.9443 0 0 2.0366 1548.8 -322.08)" d="m-710.31 161.39h1.276v5.06h-1.276z" color="#000000" color-rendering="auto" fill="#2d974f" image-rendering="auto" solid-color="#000000" style="isolation:auto;mix-blend-mode:normal"/>
  <path transform="matrix(1.9443 0 0 2.0366 1548.8 -322.08)" d="m-708.61 161.39h1.276v5.06h-1.276z" color="#000000" color-rendering="auto" fill="#68b057" image-rendering="auto" solid-color="#000000" style="isolation:auto;mix-blend-mode:normal"/>
  <path transform="matrix(1.9443 0 0 2.0366 1548.8 -322.08)" d="m-706.91 161.39h1.276v5.06h-1.276z" color="#000000" color-rendering="auto" fill="#6faf55" image-rendering="auto" solid-color="#000000" style="isolation:auto;mix-blend-mode:normal"/>
  <path transform="matrix(1.9443 0 0 2.0366 1548.8 -322.08)" d="m-705.22 161.39h1.276v5.06h-1.276z" color="#000000" color-rendering="auto" fill="#6cae55" image-rendering="auto" solid-color="#000000" style="isolation:auto;mix-blend-mode:normal"/>
  <path transform="matrix(1.9443 0 0 2.0366 1548.8 -322.08)" d="m-703.52 161.39h1.276v5.06h-1.276z" color="#000000" color-rendering="auto" fill="#acc249" image-rendering="auto" solid-color="#000000" style="isolation:auto;mix-blend-mode:normal"/>
  <path transform="matrix(1.9443 0 0 2.0366 1548.8 -322.08)" d="m-701.82 161.39h1.276v5.06h-1.276z" color="#000000" color-rendering="auto" fill="#bac441" image-rendering="auto" solid-color="#000000" style="isolation:auto;mix-blend-mode:normal"/>
  <path transform="matrix(1.9443 0 0 2.0366 1548.8 -322.08)" d="m-700.12 161.39h1.276v5.06h-1.276z" color="#000000" color-rendering="auto" fill="#e0d640" image-rendering="auto" solid-color="#000000" style="isolation:auto;mix-blend-mode:normal"/>
  <path transform="matrix(1.9443 0 0 2.0366 1548.8 -322.08)" d="m-698.43 161.39h1.276v5.06h-1.276z" color="#000000" color-rendering="auto" fill="#dccc3d" image-rendering="auto" solid-color="#000000" style="isolation:auto;mix-blend-mode:normal"/>
  <path transform="matrix(1.9443 0 0 2.0366 1548.8 -322.08)" d="m-696.73 161.39h1.276v5.06h-1.276z" color="#000000" color-rendering="auto" fill="#ddce45" image-rendering="auto" solid-color="#000000" style="isolation:auto;mix-blend-mode:normal"/>
  <path transform="matrix(1.9443 0 0 2.0366 1548.8 -322.08)" d="m-695.03 161.39h1.276v5.06h-1.276z" color="#000000" color-rendering="auto" fill="#e2c03e" image-rendering="auto" solid-color="#000000" style="isolation:auto;mix-blend-mode:normal"/>
  <path transform="matrix(1.9443 0 0 2.0366 1548.8 -322.08)" d="m-693.34 161.39h1.276v5.06h-1.276z" color="#000000" color-rendering="auto" fill="#dc9f2d" image-rendering="auto" solid-color="#000000" style="isolation:auto;mix-blend-mode:normal"/>
  <path transform="matrix(1.9443 0 0 2.0366 1548.8 -322.08)" d="m-691.64 161.39h1.276v5.06h-1.276z" color="#000000" color-rendering="auto" fill="#e69434" image-rendering="auto" solid-color="#000000" style="isolation:auto;mix-blend-mode:normal"/>
  <path transform="matrix(1.9443 0 0 2.0366 1548.8 -322.08)" d="m-689.94 161.39h1.276v5.06h-1.276z" color="#000000" color-rendering="auto" fill="#e98f34" image-rendering="auto" solid-color="#000000" style="isolation:auto;mix-blend-mode:normal"/>
  <path transform="matrix(1.9443 0 0 2.0366 1548.8 -322.08)" d="m-688.25 161.39h1.276v5.06h-1.276z" color="#000000" color-rendering="auto" fill="#e37c20" image-rendering="auto" solid-color="#000000" style="isolation:auto;mix-blend-mode:normal"/>
  <path transform="matrix(1.9443 0 0 2.0366 1548.8 -322.08)" d="m-686.55 161.39h1.276v5.06h-1.276z" color="#000000" color-rendering="auto" fill="#ca6627" image-rendering="auto" solid-color="#000000" style="isolation:auto;mix-blend-mode:normal"/>
  <path transform="matrix(1.9443 0 0 2.0366 1548.8 -322.08)" d="m-684.85 161.39h1.276v5.06h-1.276z" color="#000000" color-rendering="auto" fill="#dd561d" image-rendering="auto" solid-color="#000000" style="isolation:auto;mix-blend-mode:normal"/>
  <path transform="matrix(1.9443 0 0 2.0366 1548.8 -322.08)" d="m-683.16 161.39h1.276v5.06h-1.276z" color="#000000" color-rendering="auto" fill="#d55522" image-rendering="auto" solid-color="#000000" style="isolation:auto;mix-blend-mode:normal"/>
  <path transform="matrix(1.9443 0 0 2.0366 1548.8 -322.08)" d="m-681.46 161.39h1.276v5.06h-1.276z" color="#000000" color-rendering="auto" fill="#d65424" image-rendering="auto" solid-color="#000000" style="isolation:auto;mix-blend-mode:normal"/>
  <path transform="matrix(1.9443 0 0 2.0366 1548.8 -322.08)" d="m-679.76 161.39h1.276v5.06h-1.276z" color="#000000" color-rendering="auto" fill="#d6481d" image-rendering="auto" solid-color="#000000" style="isolation:auto;mix-blend-mode:normal"/>
  <path transform="matrix(1.9443 0 0 2.0366 1548.8 -322.08)" d="m-678.06 161.39h1.276v5.06h-1.276z" color="#000000" color-rendering="auto" fill="#e13e28" image-rendering="auto" solid-color="#000000" style="isolation:auto;mix-blend-mode:normal"/>
  <path transform="matrix(1.9443 0 0 2.0366 1548.8 -322.08)" d="m-676.37 161.39h1.276v5.06h-1.276z" color="#000000" color-rendering="auto" fill="#dd261a" image-rendering="auto" solid-color="#000000" style="isolation:auto;mix-blend-mode:normal"/>
  <path transform="matrix(1.9443 0 0 2.0366 1548.8 -322.08)" d="m-674.67 161.39h1.276v5.06h-1.276z" color="#000000" color-rendering="auto" fill="#e92a2a" image-rendering="auto" solid-color="#000000" style="isolation:auto;mix-blend-mode:normal"/>
  <path transform="matrix(1.9443 0 0 2.0366 1548.8 -322.08)" d="m-672.97 161.39h1.276v5.06h-1.276z" color="#000000" color-rendering="auto" fill="#e22821" image-rendering="auto" solid-color="#000000" style="isolation:auto;mix-blend-mode:normal"/>
  <path transform="matrix(1.9443 0 0 2.0366 1548.8 -322.08)" d="m-671.28 161.39h1.276v5.06h-1.276z" color="#000000" color-rendering="auto" fill="#e50e10" image-rendering="auto" solid-color="#000000" style="isolation:auto;mix-blend-mode:normal"/>
  <path transform="matrix(1.9443 0 0 2.0366 1548.8 -322.08)" d="m-669.58 161.39h1.276v5.06h-1.276z" color="#000000" color-rendering="auto" fill="#e11613" image-rendering="auto" solid-color="#000000" style="isolation:auto;mix-blend-mode:normal"/>
  <path transform="matrix(1.9443 0 0 2.0366 1548.8 -322.08)" d="m-667.88 161.39h1.276v5.06h-1.276z" color="#000000" color-rendering="auto" fill="#e11413" image-rendering="auto" solid-color="#000000" style="isolation:auto;mix-blend-mode:normal"/>
 </g>
</svg>
