<!-- Created by ERK --><svg xmlns="http://www.w3.org/2000/svg" xmlns:xlink="http://www.w3.org/1999/xlink" width="1011.831" height="139.858" viewBox="0 0 55.65 7.692"><defs><radialGradient xlink:href="#a" id="c" cx="41.262" cy="8.463" r="22.89" fx="41.262" fy="8.463" gradientTransform="matrix(1 0 0 .28447 0 6.055)" gradientUnits="userSpaceOnUse"/><radialGradient xlink:href="#a" id="b" cx="40.123" cy="-1.254" r="39.111" gradientTransform="matrix(1 0 0 .2734 0 5.195)" gradientUnits="userSpaceOnUse"/></defs><radialGradient id="a" cx="40.123" cy="-1.254" r="39.111" gradientTransform="matrix(1 0 0 .2734 0 5.195)" gradientUnits="userSpaceOnUse"><stop offset="0" stop-color="#ffcf64"/><stop offset="1" stop-color="#d09236"/></radialGradient><g stroke-width=".661"><g aria-label="COLLECTIONS" style="font-size:7.26667px;font-family:&quot;Light Pixel-7&quot;;-inkscape-font-specification:&quot;Light Pixel-7&quot;;stroke:none;stroke-width:.425781"><g style="stroke:none"><path d="M17.685.683h.363V.32h3.634v.363h.363V2.5h-1.453v-.727h-1.454v4.36h1.454v-.726h1.453v1.816h-.363v.364h-3.634v-.364h-.363Zm.363.364h.364V.683h-.364z" style="color:#000;-inkscape-font-specification:&quot;Light Pixel-7&quot;;fill:#000;stroke:none;-inkscape-stroke:none" transform="translate(-17.473 -.107)"/><path d="M17.836.107v.364h-.363v6.965h.363v.363h4.059v-.363h.363V5.193h-1.88v.727h-1.026V1.986h1.027v.727h1.879V.47h-.363V.107Zm.789.426h2.844v.363h.363v1.391h-1.027v-.726h-1.88v4.785h1.88v-.727h1.027v1.39h-.363v.364h-3.207V7.01h-.364V1.26h.727Z" style="color:#000;-inkscape-font-specification:&quot;Light Pixel-7&quot;;fill:#000;stroke:none;-inkscape-stroke:none" transform="translate(-17.473 -.107)"/></g><g style="stroke:none"><path d="M22.772.683h.363V.32h3.633v.363h.364v6.54h-.364v.364h-3.633v-.364h-.363zm1.453 5.45h1.453v-4.36h-1.453Zm-1.09-5.086h.363V.683h-.363z" style="color:#000;-inkscape-font-specification:&quot;Light Pixel-7&quot;;fill:#000;stroke:none;-inkscape-stroke:none" transform="translate(-17.473 -.107)"/><path d="M22.922.107v.364h-.363v6.965h.363v.363h4.058v-.363h.364V.47h-.364V.107Zm.789.426h2.844v.363h.363V7.01h-.363v.363h-3.207V7.01h-.364V1.26h.727zm.3 1.028v4.785h1.88V1.56Zm.427.425h1.027V5.92h-1.027Z" style="color:#000;-inkscape-font-specification:&quot;Light Pixel-7&quot;;fill:#000;stroke:none;-inkscape-stroke:none" transform="translate(-17.473 -.107)"/></g><g style="stroke:none"><path d="M27.858.683h.364V.32h1.09v5.813h2.906v1.454h-4.36Zm.364.364h.363V.683h-.363z" style="color:#000;-inkscape-font-specification:&quot;Light Pixel-7&quot;;fill:#000;stroke:none;-inkscape-stroke:none" transform="translate(-17.473 -.107)"/><path d="M28.008.107v.364h-.363v7.328h4.787v-1.88h-2.907V.108Zm.789.426h.303v5.813h2.906v1.027H28.07V1.26h.727z" style="color:#000;-inkscape-font-specification:&quot;Light Pixel-7&quot;;fill:#000;stroke:none;-inkscape-stroke:none" transform="translate(-17.473 -.107)"/></g><g style="stroke:none"><path d="M32.945.683h.363V.32h1.09v5.813h2.907v1.454h-4.36zm.363.364h.364V.683h-.364z" style="color:#000;-inkscape-font-specification:&quot;Light Pixel-7&quot;;fill:#000;stroke:none;-inkscape-stroke:none" transform="translate(-17.473 -.107)"/><path d="M33.096.107v.364h-.364v7.328h4.786v-1.88H34.61V.108Zm.789.426h.3v5.813h2.907v1.027h-3.934V1.26h.727z" style="color:#000;-inkscape-font-specification:&quot;Light Pixel-7&quot;;fill:#000;stroke:none;-inkscape-stroke:none" transform="translate(-17.473 -.107)"/></g><g style="stroke:none"><path d="M38.032.683h.363V.32h3.633v.363h.364v1.09h-2.907v1.454h2.18V4.68h-2.18v1.453h2.907v1.09h-.364v.364h-3.633v-.364h-.363zm.363.364h.363V.683h-.363z" style="color:#000;-inkscape-font-specification:&quot;Light Pixel-7&quot;;fill:#000;stroke:none;-inkscape-stroke:none" transform="translate(-17.473 -.107)"/><path d="M38.182.107v.364h-.364v6.965h.364v.363h4.058v-.363h.364V5.92h-2.907V4.893h2.18v-1.88h-2.18V1.987h2.907V.471h-.364V.107Zm.789.426h2.843v.363h.364v.665H39.27v1.878h2.18v1.028h-2.18v1.879h2.907v.664h-.364v.363h-3.207V7.01h-.363V1.26h.727z" style="color:#000;-inkscape-font-specification:&quot;Light Pixel-7&quot;;fill:#000;stroke:none;-inkscape-stroke:none" transform="translate(-17.473 -.107)"/></g><g style="stroke:none"><path d="M43.118.683h.364V.32h3.633v.363h.363V2.5h-1.453v-.727h-1.453v4.36h1.453v-.726h1.453v1.816h-.363v.364h-3.633v-.364h-.364zm.364.364h.363V.683h-.363z" style="color:#000;-inkscape-font-specification:&quot;Light Pixel-7&quot;;fill:#000;stroke:none;-inkscape-stroke:none" transform="translate(-17.473 -.107)"/><path d="M43.27.107v.364h-.364v6.965h.364v.363h4.058v-.363h.363V5.193h-1.879v.727h-1.027V1.986h1.028v.727h1.878V.47h-.363V.107Zm.789.426h2.843v.363h.364v1.391h-1.028v-.726H44.36v4.785h1.88v-.727h1.027v1.39h-.364v.364h-3.207V7.01h-.363V1.26h.727z" style="color:#000;-inkscape-font-specification:&quot;Light Pixel-7&quot;;fill:#000;stroke:none;-inkscape-stroke:none" transform="translate(-17.473 -.107)"/></g><g style="stroke:none"><path d="M48.205.683h.363V.32h3.634v.363h.363v1.09h-1.453v5.814h-1.454V1.773h-1.453zm.363.364h.364V.683h-.364z" style="color:#000;-inkscape-font-specification:&quot;Light Pixel-7&quot;;fill:#000;stroke:none;-inkscape-stroke:none" transform="translate(-17.473 -.107)"/><path d="M48.355.107v.364h-.363v1.515h1.453V7.8h1.88V1.986h1.452V.471h-.363V.107Zm.79.426h2.843v.363h.364v.665h-1.454v5.812h-1.027V1.561h-1.453V1.26h.727z" style="color:#000;-inkscape-font-specification:&quot;Light Pixel-7&quot;;fill:#000;stroke:none;-inkscape-stroke:none" transform="translate(-17.473 -.107)"/></g><g style="stroke:none"><path d="M53.292.683h.363V.32h3.633v.363h.364v1.09h-1.454v4.36h1.454v1.454h-4.36V6.133h1.453v-4.36h-1.453Zm.363.364h.363V.683h-.363Z" style="color:#000;-inkscape-font-specification:&quot;Light Pixel-7&quot;;fill:#000;stroke:none;-inkscape-stroke:none" transform="translate(-17.473 -.107)"/><path d="M53.441.107v.364h-.363v1.515h1.453V5.92h-1.453v1.879h4.787v-1.88h-1.453V1.987h1.453V.471h-.363V.107Zm.79.426h2.845v.363h.363v.665h-1.453v4.785h1.453v1.027h-3.935V6.346h1.453V1.56h-1.453v-.3h.726z" style="color:#000;-inkscape-font-specification:&quot;Light Pixel-7&quot;;fill:#000;stroke:none;-inkscape-stroke:none" transform="translate(-17.473 -.107)"/></g><g style="stroke:none"><path d="M58.378.683h.364V.32h3.633v.363h.363v6.54h-.363v.364h-3.633v-.364h-.364zm1.454 5.45h1.453v-4.36h-1.453Zm-1.09-5.086h.363V.683h-.363z" style="color:#000;-inkscape-font-specification:&quot;Light Pixel-7&quot;;fill:#000;stroke:none;-inkscape-stroke:none" transform="translate(-17.473 -.107)"/><path d="M58.53.107v.364h-.364v6.965h.363v.363h4.059v-.363h.363V.47h-.363V.107Zm.788.426h2.844v.363h.363V7.01h-.363v.363h-3.207V7.01h-.363V1.26h.726zm.301 1.028v4.785h1.879V1.56Zm.426.425h1.027V5.92h-1.027z" style="color:#000;-inkscape-font-specification:&quot;Light Pixel-7&quot;;fill:#000;stroke:none;-inkscape-stroke:none" transform="translate(-17.473 -.107)"/></g><g style="stroke:none"><path d="M63.465.683h.363V.32h1.09V2.5h.364v.363h.363v.364h.363v.363h.364V.32h1.09v.363h.363v6.904h-1.453v-2.18h-.364v-.364h-.363V4.68h-.363v-.363h-.364v3.27h-1.453zm.363.364h.364V.683h-.364z" style="color:#000;-inkscape-font-specification:&quot;Light Pixel-7&quot;;fill:#000;stroke:none;-inkscape-stroke:none" transform="translate(-17.473 -.107)"/><path d="M63.615.107v.364h-.363v7.328h1.879V4.893h.3v.363h.364v.363h.363V7.8h1.88V.47h-.364V.107h-1.516v2.907h-.3V2.65h-.364v-.363h-.363V.107Zm.79.426h.3v2.18h.363v.363h.364v.363h.363v.364h.789V.533h.664v.363h.363v6.477h-1.027v-2.18h-.363V4.83h-.364v-.363h-.363v-.363h-.789v3.269h-1.027V1.26h.726z" style="color:#000;-inkscape-font-specification:&quot;Light Pixel-7&quot;;fill:#000;stroke:none;-inkscape-stroke:none" transform="translate(-17.473 -.107)"/></g><g style="stroke:none"><path d="M68.552.683h.363V.32h3.633v.363h.364V2.5h-1.454v-.727h-1.453v1.454h2.543v.363h.364v3.633h-.364v.364h-3.633v-.364h-.363V5.407h1.453v.726h1.453V4.68h-2.543v-.363h-.363zm.363.364h.363V.683h-.363z" style="color:#000;-inkscape-font-specification:&quot;Light Pixel-7&quot;;fill:#000;stroke:none;-inkscape-stroke:none" transform="translate(-17.473 -.107)"/><path d="M68.701.107v.364h-.363v4.058h.363v.364h2.545V5.92H70.22v-.727h-1.881v2.243h.363v.363h4.06v-.363h.364V3.377h-.363v-.363H70.22V1.986h1.027v.727h1.879V.47h-.363V.107Zm.79.426h2.845v.363h.363v1.391h-1.027v-.726h-1.879v1.878h2.543v.364h.363V7.01h-.363v.363h-3.209V7.01h-.363V5.62h1.029v.726h1.879v-1.88h-2.545v-.362h-.363V1.26h.726z" style="color:#000;-inkscape-font-specification:&quot;Light Pixel-7&quot;;fill:#000;stroke:none;-inkscape-stroke:none" transform="translate(-17.473 -.107)"/></g></g><g fill="url(#a)" style="fill:url(#b)" transform="translate(-18.16 -4.253)"><g aria-label="COLLECTIONS" style="font-size:7.26667px;line-height:1.25;font-family:&quot;Light Pixel-7&quot;;-inkscape-font-specification:&quot;Light Pixel-7&quot;;display:inline;fill:url(#c);stroke-width:.0851563"><path d="M18.372 4.83h.363v-.364h3.634v.363h.363v1.817h-1.453v-.727h-1.454v4.36h1.454v-.726h1.453v1.816h-.363v.364h-3.634v-.364h-.363zm.363.363h.364v-.364h-.364z"/><path d="M23.459 4.83h.363v-.364h3.633v.363h.364v6.54h-.364v.364h-3.633v-.364h-.363zm1.453 5.45h1.453V5.92h-1.453zm-1.09-5.087h.363v-.364h-.363z"/><path d="M28.545 4.83h.364v-.364h1.09v5.813h2.906v1.454h-4.36zm.364.363h.363v-.364h-.363z"/><path d="M33.632 4.83h.363v-.364h1.09v5.813h2.907v1.454h-4.36zm.363.363h.364v-.364h-.364z"/><path d="M38.719 4.83h.363v-.364h3.633v.363h.364v1.09h-2.907v1.454h2.18v1.453h-2.18v1.453h2.907v1.09h-.364v.364h-3.633v-.364h-.363zm.363.363h.363v-.364h-.363z"/><path d="M43.805 4.83h.364v-.364h3.633v.363h.363v1.817h-1.453v-.727h-1.453v4.36h1.453v-.726h1.453v1.816h-.363v.364h-3.633v-.364h-.364zm.364.363h.363v-.364h-.363z"/><path d="M48.892 4.83h.363v-.364h3.634v.363h.363v1.09h-1.453v5.814h-1.454V5.919h-1.453zm.363.363h.364v-.364h-.364z"/><path d="M53.979 4.83h.363v-.364h3.633v.363h.364v1.09h-1.454v4.36h1.454v1.454h-4.36v-1.454h1.453V5.92h-1.453zm.363.363h.363v-.364h-.363z"/><path d="M59.065 4.83h.364v-.364h3.633v.363h.363v6.54h-.363v.364h-3.633v-.364h-.364zm1.454 5.45h1.453V5.92h-1.453Zm-1.09-5.087h.363v-.364h-.363z"/><path d="M64.152 4.83h.363v-.364h1.09v2.18h.364v.363h.363v.364h.363v.363h.364v-3.27h1.09v.363h.363v6.904h-1.453v-2.18h-.364v-.364h-.363v-.363h-.363v-.363h-.364v3.27h-1.453zm.363.363h.364v-.364h-.364z"/><path d="M69.239 4.83h.363v-.364h3.633v.363h.364v1.817h-1.454v-.727h-1.453v1.454h2.543v.363h.364v3.633h-.364v.364h-3.633v-.364h-.363V9.553h1.453v.726h1.453V8.826h-2.543v-.363h-.363zm.363.363h.363v-.364h-.363z"/></g></g></g></svg>