<!-- Created by ERK --><svg xmlns="http://www.w3.org/2000/svg" width="2246.667" height="641.333" viewBox="0 0 1685 481"><path d="M1710 4806c0-3-111-369-246-813-135-445-248-820-251-834l-5-27 373-4c206-2 376-3 378-1 2 1 68 218 146 480l142 478 739 3c817 2 772 5 922-64 287-132 500-405 578-739 28-118 25-353-5-495-109-512-480-1093-911-1427-36-27-113-82-172-122-317-211-568-334-820-400-251-67-419-81-941-81-370 0-378 0-372 19 15 50 295 994 295 997 0 2-173 4-384 4-358 0-385-1-390-17C735.16 1593.531 260 35.297 260 14 260 1 394 0 1333 3c1055 3 1074 4 1187 25 331 64 646 182 875 330 112 71 471 330 577 414 248 197 471 438 756 815 295 390 469 917 489 1483 11 324-46 592-184 862-81 160-162 267-318 423-205 206-388 326-605 397l-95 31-330 8c-467 10-1975 22-1975 15" style="fill:#000;fill-opacity:1" transform="matrix(.1 0 0 -.1 0 481)"/><path d="M6970 4715v-56l68 3 67 3 3 53 3 52h-141zm182 3 3-53 68-3 67-3v111h-141z" style="fill:#909ec1;fill-opacity:1" transform="matrix(.1 0 0 -.1 0 481)"/><path d="M6328 4651c-20-50-33-92-30-95 3-4 214-6 469-6h463l10 25c5 14 13 37 16 50l6 25h-332v29c0 64 15 61-289 61h-277zm2263 55c-47-76-202-186-262-186-9 0-21-6-27-13-11-12-62-147-62-162 0-10 110 3 167 20 26 8 49 13 50 11 2-2-6-24-17-50s-20-51-20-56c0-4 46-10 103-13 104-5 173-23 216-56l25-19-54-27c-95-48-325-95-466-95h-50l-32-78c-18-43-32-84-32-92 0-10 24-12 121-6 493.87 27.437 585.84 206 730 206 122 0 124 1 143 89 20 94 20 89-3 93-17 3-12 13 33 74 28 39 68 102 88 140 41 79 100 239 91 248-4 3-167 6-364 6h-357zm-81-293q-12765 595.5 0 0m560 129c0-14-66-119-105-166l-36-44-74 38c-82 41-182 70-245 70h-40l52 55 53 54 198 1c108 0 197-4 197-8m1567 155c-48-81-132-142-247-177l-55-17-33-93c-18-51-30-95-27-98 9-9 140 30 209 62 72 33 171 102 215 150l24 26h387l-11-27c-20-54-101-162-164-221-152-143-353-222-601-238l-101-7-26-84c-21-72-23-85-10-90 8-3 55-3 105 1 360 27 668 181 868 431 91 115 176 275 215 403l6 22h-729zm-1250-144c-3-5-26-84-51-178-26-93-50-178-52-188-5-16 2-18 87-15l93 3 48 165c26 91 50 177 53 193l7 27h-91c-49 0-92-3-94-7" style="fill:#909ec1;fill-opacity:1" transform="matrix(.1 0 0 -.1 0 481)"/><path d="M9646 4543c-30-102-96-346-96-358s16-15 83-15h82l-25-20c-70-55-264-106-371-98l-40 3-29-90c-16-49-27-91-24-94 2-2 52 1 110 8 253 29 470 127 616 278 101 105 159 205 201 351l16 52h-95c-91 0-96-1-102-22-18-69-106-220-168-287-37-39-68-70-70-69-1 2 13 57 32 123s43 150 53 188l19 67h-93c-81 0-94-2-99-17m-3431-144c-14-44-25-84-25-90 0-5 94-9 235-9h236l-12-22c-23-43-107-114-171-146-77-37-167-62-261-71l-69-6-34-84c-19-47-32-86-29-89 11-12 102-13 174-3 236 35 457 171 597 370l29 41 75 1c41 1 102 4 134 8l59 6 23 67c12 36 25 76 29 87l6 21h-970zm1061 39c-8-24-24-67-35-95l-19-53h945l27 88c14 48 26 90 26 95 0 4-209 7-464 7h-464zm-1499-713c-15-36-27-68-27-70 0-3 2483-4 5518-3l5517 3 32 60c18 33 33 63 33 68 0 4-2485 7-5523 7H5804Z" style="fill:#909ec1;fill-opacity:1" transform="matrix(.1 0 0 -.1 0 481)"/><path d="M12770 3586c-165-35-272-157-273-310-1-96 43-143 159-169 115-27 141-62 86-117-57-57-180-46-259 23l-34 30-75-74c-41-40-74-80-74-89 0-27 58-80 117-107 50-23 71-27 153-26 172 1 280 45 356 145 91 120 99 273 16 338-13 11-56 29-94 41-103 30-138 79-83 115 44 29 97 29 161 0l58-27 74 75c47 46 73 79 69 88-3 8-48 29-100 46-103 35-163 39-257 18m1327 3c-170-33-278-154-281-316-2-96 43-141 169-170 85-19 113-41 100-78-17-48-58-70-128-70-67 1-112 19-160 63l-27 26-75-74c-41-41-75-82-75-92 0-23 58-80 104-102 84-39 249-40 368 0 103 34 215 175 226 284 11 116-29 175-143 209-85 25-115 45-115 75 0 31 28 54 76 62 32 5 56 0 105-20l64-26 74 74c46 46 72 79 68 88-3 8-48 29-100 46-100 33-158 38-250 21m-8102-31c-2-7-31-96-64-197-92-282-166-417-216-397-9 3-25 21-36 41-12 19-26 35-32 35-13 0-190-155-195-171-7-18 27-58 72-84 68-40 163-51 243-30 65 18 161 73 200 116 29 32 100 177 156 319 69 176 128 353 123 367-7 18-245 19-251 1m615-6c-170-56-334-193-399-332-34-73-40-169-15-259 15-56 26-74 73-122 66-65 132-90 238-92 161-2 376 127 499 299 64 89 87 161 82 249-12 174-120 263-328 271-73 3-108 0-150-14m167.557-189.346c66.688-50.312 40.72-6.54 80.72-82.54 16-31 .656-27.885.656-88.885 1-69-42.493-77.23-67.493-126.23-108.098-91.934-34.194-56.85-186.194-105.85-73-23-104.262 13.919-166.262 44.919-61 31-8.015 68.967-39.015 127.967-22 43 27.853 23.508 27.853 100.508 58.836 69.229 67.82 32.376 93.82 85.376 71.902 47.869 59.261 15.49 144.261 65.49 112.033-26.132-14.346 2.245 111.654-20.755" style="fill:#000" transform="matrix(.1 0 0 -.1 0 481)"/><path d="M6623 3376c-99-32-199-118-224-193-16-49-7-138 17-170 38-50 70-67 139-71 55-4 73 0 119 22 127 62 213 179 204 277-3 28-14 62-25 77-41 55-151 83-230 58m162-42c38-17 65-66 65-113 0-72-84-174-183-224-125-64-247-7-247 116 0 77 55 151 153 207 43 24 63 30 115 30 38 0 78-7 97-16m537 219c-29-55-293-787-288-799 7-19 218-21 233-1 15 19 303 780 303 800 0 15-13 17-120 17-103 0-121-2-128-17m334-15c-73-178-287-772-282-783 4-12 27-15 113-15 59 0 114 4 121 8 7 5 43 98 81 208 39 109 74 209 78 222 7 19 25-13 107-200 54-123 104-226 110-230 20-13 223-9 234 5 17 22 293 797 287 807-4 6-59 10-129 10h-123l-78-200c-43-110-81-200-84-200-4 0-48 89-98 198l-91 197-117 3-116 3zm867-50c-16-46-28-89-25-95 3-9 28-13 78-13 41 0 74-3 74-7s-50-139-111-301c-61-161-109-300-107-310 3-14 18-17 98-20 52-2 105 0 116 2 18 5 42 61 140 320l119 315 83 3 84 3 34 84c18 46 31 88 28 92-3 5-135 9-293 9h-288zm981 71c-3-6-71-187-149-402-101-278-140-396-133-404 14-18 211-18 226 0 6 7 29 63 52 125 24 61 45 112 49 112 3 0 24-51 45-112 22-62 43-119 49-125 15-20 276-18 283 1 3 8-22 80-56 161-34 80-60 150-58 155 2 4 32 28 68 52 114 78 177 186 168 292-6 66-25 105-67 133-33 22-41 23-252 23-147 0-220-4-225-11m237.906-176.087c62.155-20.846.995 9.24 72.541-14.448-21-62 7.086-6.065 5.476-70.144-30-16-44.846-72.926-63.462-97.543l-155.444 1.842c71 195 46.685 136.521 52.685 149.521 34.585 27.748 49.006 26.563 88.204 30.772" style="fill:#000" transform="matrix(.1 0 0 -.1 0 481)"/><path d="M9652 3378c-14-18-62-179-56-190 8-13 122-9 159 6 38 16 68 67 78 128 5 31 2 40-16 53-27 19-150 21-165 3m148-53c0-42-31-93-63-105-35-12-107-13-107-2 0 4 9 36 21 70l21 62h64c61 0 64-1 64-25m710 227c-172-58-335-196-404-342-31-67-30-215 3-288 66-147 254-213 433-153 129 43 283 162 369 285 55 78 79 145 79 222 0 125-64 221-176 264-83 32-228 37-304 12m207.572-216.41c33.45-54.647 76.034-86.21 52.459-133.36-58-118-57.572-162.229-200.572-233.229-138.873-6.911-174.158-3.89-207.95 14.132-49.934 63.967-61 116.371-52.638 174.229 6.441 44.568 49.749 103.643 228.851 209.85 77.962 5.844 127.589-4.65 179.85-31.622" style="fill:#000" transform="matrix(.1 0 0 -.1 0 481)"/><path d="M10513 3372c-96-34-190-117-214-190-16-48-7-137 17-169 38-50 70-67 139-71 55-4 73 0 119 22 73 36 146 103 180 166 50 91 26 193-55 232-56 27-127 31-186 10m172-38c38-17 65-66 65-113 0-105-163-251-279-251-91 0-151 57-151 143 0 75 58 152 155 208 41 23 62 29 113 29 38 0 78-7 97-16m352-164c-115-221-206-408-203-416 4-11 28-14 113-14 59 0 113 4 119 8s57 97 112 207l101 200v-195c1-139 5-200 13-208 13-13 106-16 123-4 6 4 76 96 155 204 79 109 145 196 147 195 1-2-20-88-47-192-35-137-46-193-38-202 14-17 234-18 244-2 11 18 173 802 168 811-3 4-63 8-134 8h-129l-138-195-138-195-5 193-5 192-125 3-125 2zm2113 383c0-10 21-111 47-225l46-207-67-172c-37-94-66-179-64-188 3-13 21-16 119-19 85-2 119 1 127 10 6 7 37 88 70 180l59 166 204 221c112 122 204 227 204 234 0 9-35 13-125 15l-126 3-94-108-95-107-12 95c-7 52-15 100-18 107-3 9-41 12-140 12-122 0-135-2-135-17m1313-67c-16-46-27-88-25-95s31-11 78-11c41 0 74-3 74-7 0-3-50-140-111-304-62-165-109-304-106-313 5-13 24-16 109-16 57 0 109 4 115 8 7 5 66 147 131 318l117 309 84 5 83 5 34 84c18 46 31 88 28 92-3 5-135 9-293 9h-288zm654 77c-25-44-298-796-294-808 6-13 39-15 244-15 131 0 243 4 249 8 18 11 87 180 80 197-4 12-28 15-135 15h-129l18 48 18 47 118 5 118 5 33 84c24 63 30 88 21 98-7 9-40 13-110 13-98 0-99 0-92 23 22 71 11 66 151 69l127 3 43 98c24 54 41 102 38 108-7 11-492 13-498 2m680-15c-8-13-103-193-211-401-157-302-194-382-185-393 15-19 208-20 231-1 9 6 59 98 112 202l95 190v-190c1-135 5-195 13-203 17-17 113-15 131 3 8 8 77 100 153 204 76 105 140 188 142 187 1-2-19-89-47-194-35-138-46-193-38-201 16-16 232-15 244 2 13 16 174 797 167 808-3 5-63 9-133 9h-128l-139-196-139-197-5 194-5 194-122 3c-118 3-123 2-136-20" style="fill:#000" transform="matrix(.1 0 0 -.1 0 481)"/><path d="M301 2908c-23-68-41-129-41-136 0-10 331-12 1636-10l1636 3 44 125c24 68 44 128 44 132s-737 8-1639 8H343z" style="fill:red" transform="matrix(.1 0 0 -.1 0 481)"/><path d="M4810 1339C4065 612 3454 14 3452 9s204-9 479-9h482l276 273c979 965 1324 1300 1319 1282-3-11-136-361-297-778-160-418-291-763-291-768s158-9 379-9h378l497 1323c273 728 496 1327 496 1330 0 4-226 7-502 7h-503zm2466 1313c-7-12-236-655-236-664 0-4 191-8 425-8s425-1 425-2c0-2-164-444-364-983S7166 12 7170 7c3-4 163-6 356-5l349 3 146 385c80 212 248 657 374 988l228 604 431-7 431-7 123 338c67 187 122 342 122 347 0 10-2447 9-2454-1m2059-1314C8590 612 7980 13 7980 8c0-4 215-8 478-8h477l800 784c440 432 800 784 802 783 1-2-132-351-296-777S9946 12 9950 7c3-4 175-6 381-5l374 3 472 1260c260 693 484 1290 497 1328l26 67h-1009zm2955 1307c-168-34-314-119-460-265-69-69-170-198-216-275-34-58-569-1535-584-1613-15-76-8-193 15-248 42-102 136-186 248-223 63-21 72-22 913-19 652 2 854 6 871 15 22 13 68 123 179 424 70 191 74 220 41 253l-26 26h-636c-703 0-705 0-705 57 0 16 23 92 51 168 28 77 109 301 180 499 76 212 139 372 154 392 14 19 45 44 68 57l42 22 689 5 689 5 129 345c70 190 131 355 134 368l6 22-858-1c-672-1-873-4-924-14m1870 12c0-2-220-597-490-1322-269-726-490-1323-490-1327s162-8 359-8h359l178 480 179 480h413c226 0 412-4 412-8 0-11.546-320-916.645-320-938 0-12 51-14 344-14h344l10 28c6 15 229 609 496 1321s486 1298 486 1303c0 4-164 8-364 8h-363l-172-471c-95-259-179-490-188-515l-15-44h-835l188 507c104 279 189 510 189 515 0 4-162 8-360 8s-360-2-360-3" style="fill:#000" transform="matrix(.1 0 0 -.1 0 481)"/><path d="M215 2568c-7-18-29-79-49-136l-35-102 1640 2 1641 3 44 124c24 68 44 127 44 132s-706 9-1636 9H229zM85 2148c-3-7-20-58-39-113S8 1927 5 1917c-7-16 74-17 1636-15l1642 3 43 128 43 127H1729c-1303 0-1641-3-1644-12" style="fill:red" transform="matrix(.1 0 0 -.1 0 481)"/></svg>