<!-- Created by ERK --><svg xmlns="http://www.w3.org/2000/svg" width="2098.251" height="447.393" viewBox="0 0 161.78 34.495"><g fill-rule="evenodd" clip-rule="evenodd"><path d="M164.316 79.901c3.527 0 6.541 1.346 8.721 3.847 2.115 2.437 3.396 6.027 3.461 10.579-.064 3.461-1.09 7.052-3.076 9.809-2.053 2.692-5.064 4.552-9.041 4.552a11.3 11.3 0 0 1-8.59-3.911c-2.244-2.5-3.592-6.091-3.592-10.45 0-4.039 1.348-7.693 3.527-10.258s5.258-4.168 8.59-4.168m-.511 3.527c-.129 0-.258 0-.385.064-1.668.064-3.205 1.154-4.295 2.821-1.154 1.73-1.859 4.103-1.859 6.859 0 .385 0 .77.062 1.218.322 4.616 2.309 8.206 4.809 9.873.514.257 1.027.513 1.539.705.514.128 1.025.257 1.539.257.129 0 .256-.064.385-.064 1.924-.128 3.461-1.41 4.551-3.27 1.092-1.859 1.668-4.231 1.668-6.475 0-.32 0-.641-.064-1.026-.32-4.167-2.18-8.014-4.744-9.873a8.7 8.7 0 0 0-1.539-.77c-.577-.191-1.091-.319-1.667-.319M25.901 85.223c-.321.257-.513.706-.513 1.603v16.285q0 .961.385 1.538c.192.32.513.513.961.513h3.591c1.602 0 3.077-1.475 4.231-3.397 1.09-1.988 1.859-4.488 1.859-6.539 0-2.5-.706-5.065-1.795-7.053-1.154-1.923-2.757-3.205-4.68-3.205h-2.692c-.578-.001-1.027.062-1.347.255m-6.796-3.59h11.604c4.103 0 6.796 1.987 8.463 4.616 1.603 2.564 2.244 5.77 2.244 8.398 0 4.488-1.154 8.142-3.077 10.642-1.987 2.501-4.744 3.847-7.95 3.847h-6.54c-.897 0-2.308.129-3.59.642-.257.064-.449.128-.641.257-1.026.513-1.924 1.282-2.373 2.436l-.064.064s.129-.192 0 0c0 0 0 .064-.064.064 0 .064 0 .064-.064.064a.58.58 0 0 1-.449.191v-.063c-.128 0-.192-.064-.256-.128s-.128-.193-.064-.321c.192-1.025.449-1.859.705-2.5.321-.706.577-1.219.898-1.667.448-.77 1.025-1.219 1.474-1.667.834-.705 1.475-1.282 1.475-3.27V85.607c0-.256 0-.513-.064-.769 0-.128-.064-.321-.064-.513-.256-.833-.77-1.411-1.603-1.539h-.064c-.064 0-.193 0-.257-.064s-.064-.128-.128-.192c-.064-.129-.128-.256-.064-.385v-.128l.064-.064a.48.48 0 0 1 .449-.32m34.107 5.77c.128.192.192.32.32.448l.385.385c.641.641 1.475 1.154 2.5 1.474a10 10 0 0 0 1.987.385c.77.063 1.539 0 2.501-.064h.256c.256.128.32.256.384.385v.128a.5.5 0 0 1-.128.32c-.064.129-.128.192-.32.192 0 0-.064.064-.129.064-.897-.064-1.025.641-1.025 1.09v7.564c0 .642.064 1.026.256 1.219.192.192.513.256 1.154.32h.064c.321 0 .705.064.705.577 0 .257-.128.448-.32.513-.128.064-.257.064-.385.064h-7.179c-.256-.064-.448-.192-.448-.577 0-.577.384-.577.705-.577h.063c.514 0 .834-.064 1.09-.257.256-.191.384-.512.384-1.09v-7.757c0-.897-.32-1.025-.576-1.154-.064 0-.064-.063-.129-.063-.705-.449-1.282-.834-1.73-1.347-.449-.513-.833-1.025-1.282-1.603-.192-.256-.192-.513-.064-.641 0-.128.064-.192.128-.256.064 0 .192-.064.256-.064.193.002.385.129.577.322m51.802 2.116h5.898c.256 0 .514 0 .77.064s.449.128.705.192c1.154.449 1.859 1.411 1.924 2.5v.064c0 .064 0 .192-.064.321 0 .064 0 .192-.064.32-.127.577-.449 1.09-1.09 1.603 0 .064-.062.064-.127.128.191.064.447.192.576.321l.578.384c.768.769 1.152 1.667 1.088 2.756 0 .32-.062.577-.127.834-.129.32-.193.577-.385.769-.705 1.282-2.309 2.116-4.553 2.116h-8.527c-.256-.063-.447-.192-.447-.513 0-.064.064-.129.064-.192 0-.064.062-.129.062-.192.064-.064.129-.064.193-.128.127-.129.449-.129.576-.129.705 0 1.09-.063 1.283-.191.064-.064.129-.386.129-.898v-7.885c0-.898-.322-1.026-.578-1.218-.064 0-.064 0-.129-.064l-.385-.192c-.256-.128-.512-.256-.896-.513q-.288-.192-.385-.385c-.064-.064-.064-.128-.129-.193 0-.128.064-.192.129-.32 0 0 .064-.064.064-.128h.191c0-.064.064-.064.064-.064.129 0 .32.064.576.128.258.128.643.32 1.154.448.516.128 1.157.257 1.862.257m2.115 6.987v2.308c0 .258 0 .578.129.834.064.192.258.32.641.32h1.668c.512 0 .832-.256 1.09-.576.256-.32.385-.77.385-1.219v-.063c0-.834-.32-1.731-.963-2.052l-.385-.192c-.191-.064-.32-.064-.512-.064h-1.154c-.191 0-.449 0-.641.129a.8.8 0 0 0-.258.575m.064-5.385c0 .064-.064.128-.064.256v1.987c0 .192 0 .385.064.449s.193.128.449.128h1.795c.32-.064.514-.192.641-.385q.193-.288.193-.769v-.257c-.064-.513-.32-1.025-.77-1.282-.129-.064-.193-.064-.32-.128h-1.539zm-23.015-1.538v.064l.577.385c.192.128.384.256.577.449.962.77 1.795 1.603 2.5 2.564.193.192.321.449.513.706.128.256.256.577.449.833.705 1.347 1.089 2.82 1.153 4.552v.897c-.064.321-.064.642-.064.897a14.8 14.8 0 0 1-1.346 4.552 13.6 13.6 0 0 1-3.014 4.167c-1.089 1.091-2.372 1.925-3.461 2.629-.192.129-.321.192-.449.192h-.193c-.064 0-.128-.063-.192-.128 0-.064-.064-.128-.064-.128v-.192c.064 0 .064-.064.064-.129.064-.128.128-.191.256-.319a12.6 12.6 0 0 0 2.436-3.143c.706-1.09 1.154-2.243 1.539-3.462.256-.897.449-1.858.578-2.82q.192-1.443.192-2.886v-.32c0-.129 0-.257-.064-.32 0-.642-.064-1.282-.128-1.924-.128-.641-.128-.641-.642-.641h-3.654c-.833 0-1.089 0-1.153.513v1.154c.064.32.064.705.064 1.089v.321c0 1.282 0 1.859 1.025 1.859.064 0 .064 0 .128.063.128 0 .192.064.32.129.128.128.32.32.32.642a.67.67 0 0 1-.32.576c-.128.064-.32.064-.449.064h-6.795c-.385 0-.769 0-.769-.641 0-.321.128-.514.256-.578.192-.128.32-.128.513-.128.449 0 .961-.128 1.282-.385.321-.191.513-.641.513-1.282v-1.153c0-.321.064-.577.064-.834 0-.256.064-.513.128-.77a9 9 0 0 1 1.667-3.654c.128-.192.321-.449.449-.641s.321-.385.513-.513a12 12 0 0 1 2.949-2.437c.128-.064.192-.128.321-.192s.256-.064.384-.064c.193-.064.321 0 .514.064.128.13.321.194.513.323m1.026 4.231-.064-.064a.5.5 0 0 0-.128-.257c-.063-.128-.128-.257-.192-.321-.257-.512-.641-.961-1.026-1.346-.192-.128-.32-.256-.449-.32-.064-.064-.064-.064-.128-.064s-.064 0-.128.064c-.128.064-.256.192-.449.32-.32.321-.641.642-.897.962a23 23 0 0 0-.641 1.026c-.064.128-.064.256-.128.385.064 0 .128-.064.192-.064h3.655c.064 0 0 0 0 0h.32c.128.064.192.064.192.064-.001-.129-.065-.257-.129-.385m49.366 5.513h4.486c.129-.064.193-.128.322-.256l1.537-1.411c.193-.192.385-.32.514-.32h.129c.062 0 .127 0 .191.063.129.064.191.257.129.449v.128c-.064 0-.064.064-.064.064v.064l-1.604 3.847s-.064.063-.064.128c-.064.128-.127.256-.191.32-.129.128-.256.192-.449.128-.127-.063-.191-.128-.32-.256l-.514-.448c-.191-.193-.191-.257-.383-.257h-9.296c-.32 0-.578-.064-.578-.514 0-.576.643-.576 1.027-.641q.673 0 .961-.192c.129-.192.193-.513.193-1.09v-7.309c0-.577-.129-.897-.322-1.026-.256-.192-.641-.256-1.09-.256h-.064c-.32 0-.705 0-.705-.641 0-.449.193-.577.449-.642h7.117c.127 0 .256 0 .449.064.127.128.256.256.256.577s-.193.513-.514.577c-.191.064-.385.064-.512.064q-.866 0-.963.192c-.127.128-.127.513-.127 1.09z" style="color:#000;fill:#000;stroke-width:1.54205;-inkscape-stroke:none" transform="translate(-15.49 -79.13)"/><path d="M164.316 79.13c-3.579 0-6.868 1.723-9.177 4.44-2.312 2.721-3.711 6.546-3.711 10.756 0 4.512 1.398 8.297 3.779 10.955l.004.004a12.07 12.07 0 0 0 9.172 4.174c4.216 0 7.483-2.011 9.652-4.855l.006-.008.006-.01c2.098-2.913 3.156-6.641 3.223-10.245v-.025c-.067-4.69-1.39-8.47-3.65-11.074-2.322-2.663-5.58-4.111-9.303-4.111zm0 1.542c3.331 0 6.1 1.243 8.14 3.582 1.967 2.268 3.203 5.665 3.269 10.07-.064 3.311-1.055 6.754-2.922 9.352-1.936 2.535-4.69 4.24-8.422 4.24h-.002a10.53 10.53 0 0 1-8.004-3.643l-.006-.006-.004-.006c-2.101-2.34-3.395-5.735-3.395-9.935 0-3.868 1.298-7.349 3.344-9.758 2.05-2.413 4.917-3.896 8.002-3.896m-145.22.19a1.26 1.26 0 0 0-1.166.831l.181-.285-.29.29v.447l.08-.342a1.12 1.12 0 0 0-.073.722c.045.182.106.285.137.348l.056.113.069.069c.033.06.06.124.148.213.423.422.718.287.79.283l-.04-.002c.533.082.777.352.977.996.018.132.035.366.035.293v.096l.023.091c.035.139.041.326.041.582v17.631c0 .911-.14 1.402-.328 1.744s-.46.59-.873.938l-.023.02-.024.023c-.393.392-1.055.916-1.58 1.805-.357.506-.63 1.053-.949 1.755l-.008.016-.006.018c-.275.69-.547 1.57-.748 2.642l.069-.201a1.065 1.065 0 0 0 .209 1.21c.002.003.026.012.029.015v.379l.748.023a1.35 1.35 0 0 0 1.045-.445l-.572.253c.016 0 .039.003.123-.006a.78.78 0 0 0 .478-.226c.05-.05.032-.078.063-.129l.01.008.177-.178.059-.152c.365-.938 1.089-1.57 2-2.025l.045-.022.04-.027c.093-.062.17-.094.397-.15l.051-.012.049-.02c1.142-.457 2.482-.588 3.305-.588h6.539c3.421 0 6.435-1.469 8.554-4.136l.004-.006.002-.004c2.054-2.67 3.239-6.494 3.239-11.114 0-2.753-.655-6.076-2.362-8.806l-.002-.002-.002-.002c-1.774-2.798-4.761-4.975-9.113-4.975h-11.61Zm.875 1.542h10.738c3.852 0 6.249 1.796 7.809 4.254 1.498 2.398 2.127 5.486 2.127 7.988 0 4.352-1.123 7.834-2.913 10.165-1.854 2.333-4.354 3.554-7.343 3.554h-6.54c-.962 0-2.433.135-3.843.692a2.7 2.7 0 0 0-.78.322 6.2 6.2 0 0 0-1.664 1.254c.05-.141.09-.368.14-.492.309-.68.543-1.142.812-1.516l.021-.031.018-.031c.369-.634.853-1.009 1.353-1.508l-.047.043c.422-.357.886-.752 1.227-1.371.34-.62.521-1.412.521-2.489v-17.63c0-.256.005-.583-.087-.956a9 9 0 0 1-.041-.328v-.115l-.034-.111c-.23-.747-.784-1.319-1.474-1.694m143.834.252a2.7 2.7 0 0 0-.547.11c-1.923.13-3.615 1.35-4.774 3.119l-.002.004-.002.002c-1.252 1.88-1.986 4.396-1.986 7.28 0 .379.002.805.068 1.3.342 4.794 2.384 8.591 5.147 10.433l.04.028.044.021c.514.257 1.049.525 1.613.736l.041.016.043.012c.513.127 1.082.28 1.725.28.384 0 .51-.065.385-.065h.025l.025-.002c2.237-.15 3.995-1.65 5.166-3.649 1.177-2.004 1.774-4.49 1.774-6.865a7 7 0 0 0-.072-1.121c-.343-4.345-2.233-8.356-5.055-10.402l-.02-.014-.021-.014a9.5 9.5 0 0 0-1.674-.838l-.018-.006-.015-.005c-.61-.202-1.22-.36-1.91-.36m-.037 1.524c-.06.03-.092.02.037.02.456 0 .874.098 1.41.275.475.182.93.413 1.361.683 2.29 1.673 4.106 5.326 4.41 9.291l.002.033.006.034c.053.316.055.58.055.9 0 2.112-.556 4.37-1.562 6.084v.002c-1.009 1.72-2.327 2.783-3.938 2.89l.05-.001c-.383 0-.51.062-.384.062-.372 0-.812-.102-1.307-.224-.43-.164-.886-.39-1.363-.627-2.223-1.496-4.14-4.856-4.447-9.266l-.002-.025-.004-.026a8 8 0 0 1-.055-1.113c0-2.625.675-4.852 1.729-6.432l.002-.002.002-.004c.992-1.518 2.328-2.42 3.68-2.472l.167-.006zm-136.52.017c-.634 0-1.217.046-1.746.366l-.043.027-.04.031c-.545.437-.802 1.198-.802 2.205v16.285c0 .735.15 1.396.508 1.942.32.52.946.88 1.61.88h3.59c2.074 0 3.678-1.75 4.892-3.77l.008-.015.007-.013c1.148-2.093 1.954-4.665 1.954-6.909 0-2.645-.733-5.313-1.89-7.423l-.007-.014-.008-.014c-1.238-2.063-3.076-3.578-5.342-3.578H27.25Zm-.002 1.541h2.693c1.577 0 2.942 1.048 4.01 2.823 1.018 1.864 1.696 4.317 1.696 6.666 0 1.851-.73 4.266-1.756 6.146-1.094 1.818-2.438 3.018-3.565 3.018h-3.59c-.226 0-.233-.027-.3-.14l-.01-.015-.01-.015c-.147-.221-.256-.571-.256-1.11V86.826c0-.75.12-.875.215-.955.131-.062.393-.134.873-.133m25.389.573c-.257 0-.287.041-.33.062h-.244l-.227.227c-.04.04-.132.298-.223.502a1.27 1.27 0 0 0 .086 1.402l.004.006.006.006c.444.572.838 1.096 1.31 1.636.538.616 1.183 1.037 1.895 1.49l.19.122h.054c.01.004.058.03.053.021-.01-.015.053.067.053.424v7.758c0 .464-.052.454-.075.47l-.002.003h-.002c-.074.056-.175.101-.625.101h-.064c-.16 0-.453-.039-.832.162-.38.201-.643.728-.643 1.188 0 .32.101.675.329.926.227.25.501.348.703.398l.091.023h7.276c.117 0 .384-.016.666-.134.5-.194.808-.715.808-1.213 0-.45-.263-.942-.61-1.147-.344-.202-.641-.199-.852-.199l-.012-.004h-.016c-.552-.06-.704-.142-.656-.094.106.107-.031-.084-.031-.674v-7.562c0-.151.043-.307.052-.322s-.098-.018.147 0l.027.002h.028c.285 0 .423-.1.513-.16l.022-.016c.08-.027.151-.013.228-.065.16-.106.216-.224.28-.332.176-.217.299-.476.304-.757v-.327l-.08-.16c-.065-.13-.336-.535-.73-.732l-.162-.082h-.465l-.026.002c-.966.064-1.695.12-2.38.064a9 9 0 0 1-1.827-.351l-.006-.002c-.911-.286-1.629-.733-2.177-1.281l-.385-.385c-.037-.037-.075-.107-.225-.332l-.04-.063-.055-.053c-.254-.255-.59-.543-1.116-.548h-.003zm48.787 1.603s-.145.031-.27.065h-.756v.585c-.013.023-.027.041-.07.127-.055.11-.123.314-.123.506v.32l.203.204.026.037c.154.292.377.492.63.66a8 8 0 0 0 .977.56h.002l.002.003.352.175c.036.028.023.037.095.073.023.01.025 0 .047.01.03.021.103.075.106.08.006.008.062.088.062.445v7.885c0 .123-.01.184-.017.273-.083.011-.144.045-.623.045-.064 0-.215-.003-.399.023-.184.027-.434.038-.726.334l.004-.004c.06-.06.137-.096.105-.08s-.175.085-.299.21l-.226.224v.267c-.029.069-.06.086-.06.245 0-.23.064-.281.048-.249-.017.033-.113.153-.113.442 0 .313.126.67.351.896.225.227.478.316.682.366l.092.021h8.619c2.391 0 4.26-.91 5.156-2.45.282-.335.4-.676.498-.917l.02-.049.011-.05c.065-.257.143-.594.147-1 .069-1.286-.425-2.44-1.309-3.325l-.055-.055-.548-.363c.329-.406.727-.794.838-1.254.08-.24.117-.487.117-.539l-.08.342c.154-.311.144-.598.144-.662v-.088l-.002-.023c-.083-1.394-1.012-2.627-2.414-3.172l-.045-.018-.047-.012c-.227-.056-.42-.12-.705-.191-.374-.094-.7-.088-.957-.088h-5.898c-.61 0-1.186-.113-1.674-.234h-.002a4.7 4.7 0 0 1-.998-.391l-.074-.037-.08-.02c-.227-.056-.38-.152-.764-.152m-17.863.51a1.4 1.4 0 0 0-.586.037c-.15.004-.315-.009-.55.107-.22.11-.285.176-.321.194l-.024.011-.021.014a12.7 12.7 0 0 0-3.038 2.51 2.6 2.6 0 0 0-.677.678c-.1.148-.275.385-.42.6a9.8 9.8 0 0 0-1.807 3.962l-.002.004c-.063.252-.144.554-.144.926 0 .129-.065.41-.065.834v1.152c0 .487-.155.633-.135.621l-.046.028-.041.033c-.107.085-.499.215-.801.215-.18 0-.561.062-.873.24-.472.254-.666.723-.666 1.236 0 .475.236 1.015.634 1.236.4.222.712.176.905.176h6.795c.129 0 .39.058.795-.144l.029-.016.03-.018c.427-.262.686-.732.685-1.234-.002-.626-.417-1.058-.545-1.185l-.086-.086-.11-.057c-.019-.01-.053-.034-.164-.09-.031-.016-.1-.02-.144-.035-.035-.025-.02-.031-.084-.062-.199-.098-.372-.088-.404-.088-.145 0-.172-.015-.19-.02-.02-.072-.064-.452-.064-1.068v-.32c0-.385.007-.804-.08-1.24l.015.15v-.885c.092-.006.117-.012.381-.012h3.533c.062.622.121 1.221.121 1.795v.322l.063.06v.259q.001 1.39-.184 2.783c-.124.926-.311 1.85-.554 2.703-.374 1.183-.796 2.26-1.446 3.262l-.015.023-.014.026a11.8 11.8 0 0 1-2.287 2.95l-.01.009-.008.01c-.053.053-.11.15-.17.22h-.377v1.284l.065.064v.06l.22.225c.035.036.087.092.186.166.1.074.272.192.557.192h.193c.38 0 .65-.168.877-.32 1.087-.703 2.413-1.561 3.572-2.721a14.4 14.4 0 0 0 3.17-4.383v-.002a15.6 15.6 0 0 0 1.416-4.787l.006-.05v-.048c0-.255.004-.522.05-.746l.015-.074v-.988l-.002-.014c-.068-1.83-.482-3.431-1.24-4.881l-.03-.057-.037-.05c-.105-.14-.224-.41-.375-.713l-.031-.063-.041-.054c-.134-.18-.276-.451-.551-.743a14.3 14.3 0 0 0-2.566-2.636 4.5 4.5 0 0 0-.663-.52l-.234-.156v-.063l-.342-.228c-.292-.197-.447-.28-.392-.225l-.131-.133-.176-.058c-.072-.024-.173-.068-.35-.104zm45.209.064-.094.024c-.2.05-.497.159-.723.43-.225.27-.306.623-.306.958 0 .475.224 1 .61 1.227.388.227.704.185.864.185h.065c.375 0 .602.083.627.102l.017.014.018.011c-.165-.11-.022-.077-.022.385v7.309c0 .372-.027.405-.043.472-.078.02-.099.04-.34.04h-.064l-.064.01c-.123.02-.431.026-.805.17a1.37 1.37 0 0 0-.586.413 1.34 1.34 0 0 0-.277.819c0 .372.167.827.502 1.058s.634.227.845.227h9.106l.025.027.022.02.498.433c.127.126.297.29.521.4l.047.024.053.018c.217.072.5.084.734.006.235-.079.391-.21.5-.319l.002-.002v-.002c.249-.248.274-.394.336-.52l.008-.015.018-.017.04-.098.016-.031v-.006l1.463-3.508h.268v-.9l-.037.238c.142-.442.04-.968-.436-1.282a1.8 1.8 0 0 0-.617-.24h-.129c-.32 0-.492.111-.646.21a2.4 2.4 0 0 0-.413.335l-1.525 1.4-.012.01c-.037.038-.02.018-.035.034h-3.457v-6.735c0-.219.004-.357.01-.49.095-.008.155-.02.309-.02.116 0 .388-.008.69-.093.268-.059.55-.176.767-.412.224-.245.34-.592.34-.907 0-.527-.357-.996-.48-1.12l-.13-.132-.176-.056a2.2 2.2 0 0 0-.69-.104zM54.844 89.65c.453.264.802.626 1.343.795l.002.002h.004a10.7 10.7 0 0 0 2.143.416h.006c.535.044 1.094-.009 1.64-.039-.155.11-.42.09-.511.233-.279.433-.3.856-.3 1.154v7.562c0 .694-.01 1.27.481 1.764l.002.002c.126.126.328.086.47.156h-4.1c.024-.016.061-.005.085-.023h.002c.488-.365.692-1.014.692-1.705v-7.758c0-.54-.096-.971-.33-1.307s-.566-.482-.67-.535l-.088-.045c-.386-.246-.596-.456-.871-.672m28.265.301c-.051.026-.087.016.041.016h.125l.037-.012.069.024.025.015v.065l.922.615c.192.128.326.219.46.351l.028.032.034.025c.92.736 1.702 1.521 2.36 2.42l.036.047.043.043c.066.065.197.29.41.582.102.215.22.533.479.875l-.067-.108c.652 1.245 1.004 2.589 1.065 4.223v.87l.015-.151c-.083.417-.08.792-.08 1.047l.006-.098a14 14 0 0 1-1.275 4.316l-.002.004-.002.004a12.9 12.9 0 0 1-2.844 3.932l-.008.008-.01.008c-.453.454-.982.75-1.49 1.13.355-.479.804-.885 1.092-1.41.75-1.165 1.223-2.381 1.615-3.622l.004-.01.004-.012c.268-.938.466-1.932.6-2.928v-.002q.198-1.492.199-2.986v-.32c0-.065.004-.158-.016-.296-.003-.026-.048-.078-.054-.11a21 21 0 0 0-.125-1.915l-.004-.037-.008-.037c-.064-.32-.015-.586-.387-.957a1.1 1.1 0 0 0-.61-.287c-.16-.022-.273-.018-.401-.018H81.74c-.416 0-.71-.04-1.127.111a1.24 1.24 0 0 0-.586.461 1.4 1.4 0 0 0-.205.616l-.006.048v1.278l.016.076c.04.203.049.553.049.937v.32c0 .642-.048 1.147.19 1.71a1.5 1.5 0 0 0 .661.726c.197.101.408.103.616.127h-5.846c.375-.068.757-.089 1.092-.343.621-.403.853-1.127.853-1.9V98.3c0-.219.065-.45.065-.834 0-.128.04-.327.103-.584l.004-.016.004-.015a8.2 8.2 0 0 1 1.523-3.34l.016-.02.014-.021c.105-.159.299-.416.449-.64a1.4 1.4 0 0 1 .299-.3l.086-.056.066-.079a11.2 11.2 0 0 1 2.76-2.279l-.045.026c.22-.11.282-.174.318-.192m47.051.078h4.381c-.155.05-.304.091-.443.297a1.4 1.4 0 0 0-.28.717c-.02.241-.02.49-.02.78v8.275h5.438l.162-.08c.22-.11.394-.27.522-.397l.693-.639-1.074 2.579-.318-.276-.01-.012c-.059-.061-.077-.106-.235-.238-.165-.138-.506-.236-.687-.236h-7.362l.032-.022.084-.125c.285-.424.324-.885.324-1.52v-7.308c0-.681-.119-1.277-.649-1.646-.175-.13-.372-.09-.558-.149m-26.63.057c.454.093.904.203 1.484.203h5.898c.256 0 .444.007.582.041.2.05.389.109.623.17.896.353 1.373 1.036 1.422 1.814v.026c0 .064-.009.03.018-.024l-.08.163v.181c0 .064-.01.03.017-.025l-.043.086-.021.093c-.09.404-.275.731-.819 1.166l-.289.233v.05l-.793.78 1.192.398c.094.032.326.188.275.137l.055.053.547.365c.622.636.89 1.262.84 2.131v.045c0 .206-.042.377-.098.603a9 9 0 0 1-.19.455l-.076.077-.055.097c-.535.973-1.824 1.715-3.877 1.715h-6.277l.027-.027c.199-.199.204-.305.237-.406.032-.102.052-.196.068-.3a5 5 0 0 0 .049-.738v-7.884c0-.541-.103-.975-.322-1.303-.154-.23-.277-.292-.395-.375zm-48.204.135.213.062h-.062c-.069-.022-.08-.062-.15-.062m5.643.129.054.002c-.091-.007-.129.092-.218.1l.006-.016c.02-.025.016-.028.054-.057.044-.01.036-.03.104-.03m46.672 0-1.22.002v.705c-.027.088-.064.18-.064.32v1.986c0 .096-.002.21.012.35s-.027.338.28.644c.248.249.609.356.993.356h1.872l.074-.016c.454-.09.893-.352 1.133-.715.238-.357.322-.774.322-1.195v-.305l-.008-.048c-.088-.701-.429-1.443-1.152-1.856l-.02-.012-.02-.01c-.22-.108-.282-.107-.316-.124l-.162-.082zm-24.424.322c-.032 0-.209-.012-.408.088-.138.069-.15.101-.184.138-.176.11-.314.22-.412.286l-.065.043-.054.054c-.32.32-.658.657-.953 1.026l-.022.027-.02.03q-.345.52-.662 1.058l-.013.023-.012.024c-.156.312-.155.44-.129.386l-.553 1.116h1.245c.164 0 .18-.035.25-.065h3.787c.027.01.06.027.086.033.09.023.234.032.234.032h.777l-.006-.778c-.002-.38-.144-.596-.208-.724l-.057-.112-.088-.087-.053-.053c-.048-.083-.06-.186-.127-.256l.133.191c-.058-.118-.12-.268-.303-.47a6.5 6.5 0 0 0-1.06-1.4l-.055-.055-.062-.043c-.1-.067-.239-.18-.426-.295-.035-.037-.043-.065-.172-.13-.2-.1-.376-.087-.408-.087M55.19 91.764h.116c.068.022.078.062.148.062zm52.71.127h1.136c.02.006.074.03.086.035.172.102.334.374.377.69v.171c0 .217-.045.314-.063.34l-.002.002-.002.004c-.01.016-.054.025-.103.037h-1.43zm-24.684.464.045.034c.3.302.552.637.75.974h-1.72l.071-.111c.209-.258.493-.548.795-.852.033-.023.033-.026.059-.045m30.84 2.106.03.025c-.011-.011-.02-.008-.032-.02zm-6.03.57c-.19 0-.613-.047-1.07.26l-.049.033-.045.041a1.58 1.58 0 0 0-.506 1.127v2.322c0 .244-.003.661.202 1.116.098.253.292.498.535.629.257.138.527.18.804.18h1.668c.77 0 1.364-.458 1.692-.864l.002-.002c.397-.497.553-1.103.553-1.7v-.064c0-1.03-.324-2.207-1.387-2.74l-.39-.193-.048-.024-.048-.017a2.3 2.3 0 0 0-.758-.104zm-.127 1.54c.03-.004.012.001.127.001h1.155c.178 0 .176 0 .248.024l.302.15.002.002c.221.11.537.725.537 1.361v.065c0 .301-.102.593-.216.736-.187.231-.235.287-.489.287h-1.629c-.015-.075-.037-.18-.037-.382zm-22.623.257h.008c.01.033-.012-.02-.004.022zm54.393 4.578s-.051.17-.086.196l-.03-.028zm-.18.41c-.055.103-.115.042-.115.266l.057-.236z" style="color:#000;fill:#000;-inkscape-stroke:none" transform="translate(-15.49 -79.13)"/><path d="M164.316 79.901c3.527 0 6.541 1.346 8.721 3.847 2.115 2.437 3.396 6.027 3.461 10.579-.064 3.461-1.09 7.052-3.076 9.809-2.053 2.692-5.064 4.552-9.041 4.552a11.3 11.3 0 0 1-8.59-3.911c-2.244-2.5-3.592-6.091-3.592-10.45 0-4.039 1.348-7.693 3.527-10.258s5.258-4.168 8.59-4.168m-.511 3.527c-.129 0-.258 0-.385.064-1.668.064-3.205 1.154-4.295 2.821-1.154 1.73-1.859 4.103-1.859 6.859 0 .385 0 .77.062 1.218.322 4.616 2.309 8.206 4.809 9.873.514.257 1.027.513 1.539.705.514.128 1.025.257 1.539.257.129 0 .256-.064.385-.064 1.924-.128 3.461-1.41 4.551-3.27 1.092-1.859 1.668-4.231 1.668-6.475 0-.32 0-.641-.064-1.026-.32-4.167-2.18-8.014-4.744-9.873a8.7 8.7 0 0 0-1.539-.77c-.577-.191-1.091-.319-1.667-.319M25.901 85.223c-.321.257-.513.706-.513 1.603v16.285q0 .961.385 1.538c.192.32.513.513.961.513h3.591c1.602 0 3.077-1.475 4.231-3.397 1.09-1.988 1.859-4.488 1.859-6.539 0-2.5-.706-5.065-1.795-7.053-1.154-1.923-2.757-3.205-4.68-3.205h-2.692c-.578-.001-1.027.062-1.347.255m-6.796-3.59h11.604c4.103 0 6.796 1.987 8.463 4.616 1.603 2.564 2.244 5.77 2.244 8.398 0 4.488-1.154 8.142-3.077 10.642-1.987 2.501-4.744 3.847-7.95 3.847h-6.54c-.897 0-2.308.129-3.59.642-.257.064-.449.128-.641.257-1.026.513-1.924 1.282-2.373 2.436l-.064.064s.129-.192 0 0c0 0 0 .064-.064.064 0 .064 0 .064-.064.064a.58.58 0 0 1-.449.191v-.063c-.128 0-.192-.064-.256-.128s-.128-.193-.064-.321c.192-1.025.449-1.859.705-2.5.321-.706.577-1.219.898-1.667.448-.77 1.025-1.219 1.474-1.667.834-.705 1.475-1.282 1.475-3.27V85.607c0-.256 0-.513-.064-.769 0-.128-.064-.321-.064-.513-.256-.833-.77-1.411-1.603-1.539h-.064c-.064 0-.193 0-.257-.064s-.064-.128-.128-.192c-.064-.129-.128-.256-.064-.385v-.128l.064-.064a.48.48 0 0 1 .449-.32m34.107 5.77c.128.192.192.32.32.448l.385.385c.641.641 1.475 1.154 2.5 1.474a10 10 0 0 0 1.987.385c.77.063 1.539 0 2.501-.064h.256c.256.128.32.256.384.385v.128a.5.5 0 0 1-.128.32c-.064.129-.128.192-.32.192 0 0-.064.064-.129.064-.897-.064-1.025.641-1.025 1.09v7.564c0 .642.064 1.026.256 1.219.192.192.513.256 1.154.32h.064c.321 0 .705.064.705.577 0 .257-.128.448-.32.513-.128.064-.257.064-.385.064h-7.179c-.256-.064-.448-.192-.448-.577 0-.577.384-.577.705-.577h.063c.514 0 .834-.064 1.09-.257.256-.191.384-.512.384-1.09v-7.757c0-.897-.32-1.025-.576-1.154-.064 0-.064-.063-.129-.063-.705-.449-1.282-.834-1.73-1.347-.449-.513-.833-1.025-1.282-1.603-.192-.256-.192-.513-.064-.641 0-.128.064-.192.128-.256.064 0 .192-.064.256-.064.193.002.385.129.577.322m51.802 2.116h5.898c.256 0 .514 0 .77.064s.449.128.705.192c1.154.449 1.859 1.411 1.924 2.5v.064c0 .064 0 .192-.064.321 0 .064 0 .192-.064.32-.127.577-.449 1.09-1.09 1.603 0 .064-.062.064-.127.128.191.064.447.192.576.321l.578.384c.768.769 1.152 1.667 1.088 2.756 0 .32-.062.577-.127.834-.129.32-.193.577-.385.769-.705 1.282-2.309 2.116-4.553 2.116h-8.527c-.256-.063-.447-.192-.447-.513 0-.064.064-.129.064-.192 0-.064.062-.129.062-.192.064-.064.129-.064.193-.128.127-.129.449-.129.576-.129.705 0 1.09-.063 1.283-.191.064-.064.129-.386.129-.898v-7.885c0-.898-.322-1.026-.578-1.218-.064 0-.064 0-.129-.064l-.385-.192c-.256-.128-.512-.256-.896-.513q-.288-.192-.385-.385c-.064-.064-.064-.128-.129-.193 0-.128.064-.192.129-.32 0 0 .064-.064.064-.128h.191c0-.064.064-.064.064-.064.129 0 .32.064.576.128.258.128.643.32 1.154.448.516.128 1.157.257 1.862.257m2.115 6.987v2.308c0 .258 0 .578.129.834.064.192.258.32.641.32h1.668c.512 0 .832-.256 1.09-.576.256-.32.385-.77.385-1.219v-.063c0-.834-.32-1.731-.963-2.052l-.385-.192c-.191-.064-.32-.064-.512-.064h-1.154c-.191 0-.449 0-.641.129a.8.8 0 0 0-.258.575m.064-5.385c0 .064-.064.128-.064.256v1.987c0 .192 0 .385.064.449s.193.128.449.128h1.795c.32-.064.514-.192.641-.385q.193-.288.193-.769v-.257c-.064-.513-.32-1.025-.77-1.282-.129-.064-.193-.064-.32-.128h-1.539zm-23.015-1.538v.064l.577.385c.192.128.384.256.577.449.962.77 1.795 1.603 2.5 2.564.193.192.321.449.513.706.128.256.256.577.449.833.705 1.347 1.089 2.82 1.153 4.552v.897c-.064.321-.064.642-.064.897a14.8 14.8 0 0 1-1.346 4.552 13.6 13.6 0 0 1-3.014 4.167c-1.089 1.091-2.372 1.925-3.461 2.629-.192.129-.321.192-.449.192h-.193c-.064 0-.128-.063-.192-.128 0-.064-.064-.128-.064-.128v-.192c.064 0 .064-.064.064-.129.064-.128.128-.191.256-.319a12.6 12.6 0 0 0 2.436-3.143c.706-1.09 1.154-2.243 1.539-3.462.256-.897.449-1.858.578-2.82q.192-1.443.192-2.886v-.32c0-.129 0-.257-.064-.32 0-.642-.064-1.282-.128-1.924-.128-.641-.128-.641-.642-.641h-3.654c-.833 0-1.089 0-1.153.513v1.154c.064.32.064.705.064 1.089v.321c0 1.282 0 1.859 1.025 1.859.064 0 .064 0 .128.063.128 0 .192.064.32.129.128.128.32.32.32.642a.67.67 0 0 1-.32.576c-.128.064-.32.064-.449.064h-6.795c-.385 0-.769 0-.769-.641 0-.321.128-.514.256-.578.192-.128.32-.128.513-.128.449 0 .961-.128 1.282-.385.321-.191.513-.641.513-1.282v-1.153c0-.321.064-.577.064-.834 0-.256.064-.513.128-.77a9 9 0 0 1 1.667-3.654c.128-.192.321-.449.449-.641s.321-.385.513-.513a12 12 0 0 1 2.949-2.437c.128-.064.192-.128.321-.192s.256-.064.384-.064c.193-.064.321 0 .514.064.128.13.321.194.513.323m1.026 4.231-.064-.064a.5.5 0 0 0-.128-.257c-.063-.128-.128-.257-.192-.321-.257-.512-.641-.961-1.026-1.346-.192-.128-.32-.256-.449-.32-.064-.064-.064-.064-.128-.064s-.064 0-.128.064c-.128.064-.256.192-.449.32-.32.321-.641.642-.897.962a23 23 0 0 0-.641 1.026c-.064.128-.064.256-.128.385.064 0 .128-.064.192-.064h3.655c.064 0 0 0 0 0h.32c.128.064.192.064.192.064-.001-.129-.065-.257-.129-.385m49.366 5.513h4.486c.129-.064.193-.128.322-.256l1.537-1.411c.193-.192.385-.32.514-.32h.129c.062 0 .127 0 .191.063.129.064.191.257.129.449v.128c-.064 0-.064.064-.064.064v.064l-1.604 3.847s-.064.063-.064.128c-.064.128-.127.256-.191.32-.129.128-.256.192-.449.128-.127-.063-.191-.128-.32-.256l-.514-.448c-.191-.193-.191-.257-.383-.257h-9.296c-.32 0-.578-.064-.578-.514 0-.576.643-.576 1.027-.641q.673 0 .961-.192c.129-.192.193-.513.193-1.09v-7.309c0-.577-.129-.897-.322-1.026-.256-.192-.641-.256-1.09-.256h-.064c-.32 0-.705 0-.705-.641 0-.449.193-.577.449-.642h7.117c.127 0 .256 0 .449.064.127.128.256.256.256.577s-.193.513-.514.577c-.191.064-.385.064-.512.064q-.866 0-.963.192c-.127.128-.127.513-.127 1.09z" style="display:inline;fill:#fff" transform="translate(-15.49 -79.13)"/></g></svg>