<!-- Created by ERK --><svg xmlns="http://www.w3.org/2000/svg" xml:space="preserve" width="1600" height="800"><path d="M578.675 197.645h168.371q56.947.001 86.836 7.88c26.758 7.137 49.687 19.809 68.777 38.008q28.634 27.313 43.575 66.86 14.936 39.553 14.938 97.543c0 33.972-4.675 63.257-14.01 87.837q-17.12 45.049-48.856 72.911-23.968 21.122-64.738 32.94c-20.334 5.82-47.514 8.724-81.54 8.724H578.674Zm92.309 69.983v272.74h68.81q38.604 0 55.735-3.934c14.945-3.37 27.346-9.076 37.21-17.128q14.782-12.077 24.129-39.746c6.224-18.446 9.342-43.59 9.342-75.42s-3.118-56.269-9.342-73.315q-9.348-25.558-26.161-39.882-16.81-14.326-42.649-19.383c-12.871-2.621-38.095-3.932-75.663-3.932z" style="display:inline;fill:#db1f26;stroke-width:.852198"/><path d="M574.961 613.698V194.287h172.085c38.16.01 67.35 2.618 87.886 8.017 27.351 7.29 50.905 20.305 70.421 38.92 19.486 18.582 34.284 41.324 44.394 68.082 10.133 26.848 15.135 59.707 15.136 98.628-.001 34.245-4.706 63.891-14.212 88.924-11.56 30.428-28.14 55.23-49.776 74.223-16.492 14.53-38.61 25.736-66.21 33.735-20.901 5.975-48.398 8.875-82.66 8.88H574.961Zm7.427-6.709h169.638c33.79.006 60.653-2.903 80.405-8.563 26.777-7.762 47.81-18.516 63.284-32.15 20.673-18.152 36.668-41.96 47.933-71.594 9.166-24.13 13.81-53.052 13.808-86.746.003-38.404-4.958-70.567-14.739-96.46-9.814-25.968-24.064-47.806-42.755-65.636-18.665-17.784-40.969-30.112-67.121-37.096-19.327-5.104-48.029-7.753-85.795-7.744H582.389v405.99zm84.88-63.27V264.271h45.126c37.703.015 62.937 1.279 76.451 4.008 17.767 3.47 32.667 10.21 44.41 20.221 11.766 10.026 20.767 23.848 27.138 41.271 6.425 17.629 9.52 42.332 9.53 74.368-.006 32.03-3.115 57.439-9.504 76.398-6.358 18.773-14.58 32.56-25.192 41.257-10.368 8.466-23.371 14.419-38.784 17.889-12.037 2.748-30.755 4.028-56.651 4.037zm7.428-6.71h65.096c25.58.01 44.014-1.334 54.837-3.833 14.463-3.266 26.26-8.727 35.618-16.362 9.103-7.41 16.962-20.119 23.07-38.235 6.06-17.936 9.186-42.812 9.178-74.44.012-31.627-3.13-55.804-9.155-72.264-6.092-16.654-14.533-29.422-25.183-38.493-10.67-9.086-24.199-15.274-40.916-18.55-12.2-2.506-37.413-3.865-74.847-3.849h-37.697zm-3.712-266.026v-3.356z"/><path d="M929.409 531.68q27.513 14.917 63.004 14.917c36.888 0 67.167-11.999 90.826-36 23.657-23.998 35.494-60.008 35.494-108.016 0-47.439-11.522-82.827-34.548-106.172-23.037-23.337-53.625-35.013-91.771-35.013s-68.901 11.818-92.242 35.44q-35.024 35.435-35.022 106.877 0 9.51.658 18.402c-1.365 26.53-4.018 96.673-59.93 111.418-23.796-33.932-35.69-76.264-35.69-126.996 0-42.159 6.963-77.547 20.898-106.165q15.592-31.615 42.571-56.749c17.988-16.746 37.685-29.171 59.104-37.268 28.483-10.92 61.34-16.38 98.56-16.38q101.05 0 161.713 56.756c40.436 37.837 60.66 90.443 60.66 157.827 0 66.829-20.069 119.113-60.198 156.854-40.134 37.74-93.774 56.605-160.934 56.605q-73.376 0-125.12-29.158c27.24-12.872 50.846-37.956 61.967-57.18" style="display:inline;fill:#8461a9;stroke-width:.852198"/><path d="M992.562 621.369c-49.45.005-91.912-9.842-127.084-29.668l-5.505-3.104 5.748-2.716c26.294-12.366 49.68-37.145 60.397-55.758l1.824-3.155 3.377 1.831c17.735 9.609 38.005 14.433 61.095 14.44 36-.046 65.005-11.561 88.052-34.88 22.815-23.121 34.555-58.236 34.553-105.78 0-46.985-11.434-81.485-33.606-103.939-22.373-22.607-51.674-33.848-88.999-33.892-37.31.044-66.784 11.419-89.473 34.321-22.5 22.737-34.08 57.471-34.078 104.64q0 9.406.651 18.177l.013.184-.01.197c-.513 9.94-1.205 26.21-4.882 43.5-3.691 17.292-10.326 35.697-23.111 49.975-8.514 9.507-19.86 17.128-34.605 21.007l-2.681.705-1.495-2.13c-24.254-34.582-36.271-77.598-36.267-128.792.002-42.488 7.007-78.334 21.219-107.53 10.57-21.43 25.019-40.69 43.298-57.719 18.29-17.029 38.413-29.742 60.318-38.02 29.023-11.127 62.392-16.647 100.011-16.646 68.112-.035 123.224 19.231 164.385 57.78 41.242 38.573 61.724 92.197 61.702 160.155.021 67.404-20.304 120.704-61.233 159.179-40.817 38.423-95.612 57.636-163.436 57.635q-.089.004-.178.003m0-6.71c66.414-.036 118.84-18.552 158.257-55.576 39.33-37.005 59.14-88.275 59.163-154.529-.024-66.807-19.991-118.394-59.619-155.494-39.729-37.126-92.421-55.697-159.041-55.73-36.823 0-69.167 5.4-97.127 16.12-20.916 7.907-40.187 20.045-57.871 36.507-17.692 16.482-31.625 35.058-41.839 55.764-13.666 28.055-20.587 62.983-20.583 104.813.004 49.174 11.269 90.1 33.605 123.013 11.895-3.657 21.025-10.001 28.246-18.029 7.737-8.617 13.187-19.208 16.998-30.277 7.604-22.031 8.664-45.778 9.338-59.08a254 254 0 0 1-.654-18.452c.002-48.083 11.765-84.606 35.965-109.11 23.994-24.343 56.032-36.604 95.014-36.56 38.967-.044 70.842 12.068 94.543 36.137 23.879 24.234 35.486 60.51 35.488 108.403 0 48.47-11.935 85.374-36.433 110.245-24.27 24.687-55.824 37.17-93.598 37.126-22.818.007-43.423-4.535-61.57-13.65-11.243 17.938-31.729 39.497-56.016 52.649 32.747 17.1 71.908 25.704 117.734 25.71"/><path d="M1117.989 422.68q-50.587-14.37-74-33.43c-27.984-22.776-41.97-50.54-41.97-83.299q.001-31.625 19.745-59.16c13.165-18.349 32.13-32.332 56.906-41.933q37.155-14.402 89.713-14.402 85.817-.001 129.196 34.354 43.37 34.356 45.556 91.71l-92.307 2.876q-5.894-31.928-25.29-45.926c-12.934-9.324-32.329-13.99-58.182-13.99q-.93 0-1.85.008c-25.809.227-46.09 5.22-60.834 14.971-9.732 6.412-14.59 14.979-14.59 25.72 0 9.803 4.56 18.192 13.687 25.156q.416.317.858.634c15.434 34.76 15.803 70.467 13.362 96.712zm92.112-64.742c33.953 8.08 59.857 16.379 77.7 24.893 21.467 10.246 38.262 24.26 50.397 42.023q18.202 26.658 18.204 65.865 0 35.544-21.81 66.574c-14.538 20.688-35.102 36.056-61.687 46.113-26.585 10.06-59.708 15.094-99.38 15.094q-86.613 0-133.026-36.242-46.428-36.244-55.455-105.64l89.656-7.671c5.397 27.21 16.346 47.193 32.858 59.956 16.511 12.761 38.785 19.135 66.819 19.135 29.692 0 52.072-5.676 67.126-17.045 15.054-11.363 22.587-24.65 22.587-39.86 0-9.767-3.166-18.074-9.482-24.933-6.325-6.854-17.358-12.813-33.107-17.892q-4.007-1.259-10.554-3.005c3.896-27.734 3.985-55.776-.846-87.365" style="fill:#fdc20f;stroke-width:.852198"/><path d="M1038.072 584.793c-31.789-24.798-50.646-60.953-56.716-107.787l-.442-3.408 96.84-8.286.602 3.04c5.308 26.743 15.97 45.91 31.618 57.997 15.698 12.125 36.964 18.317 64.404 18.33 29.204.006 50.662-5.606 64.746-16.265 14.42-10.946 21.21-23.117 21.255-37.283-.022-9.122-2.884-16.525-8.62-22.786-5.615-6.123-16.09-11.928-31.475-16.872-2.583-.81-6.056-1.8-10.385-2.956l-3.031-.808.398-2.83c1.843-13.132 2.822-26.32 2.822-39.932 0-14.851-1.168-30.211-3.666-46.55l3.68-.458-3.68.458-.762-4.986 5.387 1.282c34.113 8.124 60.218 16.46 78.487 25.171 22 10.492 39.347 24.95 51.825 43.228 12.57 18.41 18.762 41.03 18.757 67.625.01 24.32-7.497 47.204-22.388 68.373-14.935 21.272-36.19 37.13-63.388 47.408-27.199 10.286-60.8 15.35-100.814 15.354-58.281.002-103.608-12.2-135.454-37.059m4.855-5.08c30.039 23.464 73.392 35.422 130.598 35.427 39.328.002 71.973-5.002 97.944-14.833 25.97-9.838 45.845-24.714 59.988-44.816 14.187-20.205 21.222-41.701 21.231-64.776-.01-25.68-5.953-46.964-17.65-64.102-11.793-17.251-28.036-30.818-48.971-40.818-16.488-7.873-40.396-15.694-71.56-23.324 2.042 14.78 3.007 28.83 3.007 42.474 0 12.926-.866 25.485-2.498 37.951 3.044.835 5.612 1.58 7.733 2.246 16.084 5.205 27.676 11.32 34.715 18.907 6.893 7.458 10.363 16.665 10.34 27.08.045 16.252-8.232 30.654-23.919 42.433-16.024 12.08-39.327 17.823-69.508 17.826-28.63.015-51.91-6.544-69.232-19.941-16.737-12.942-27.776-32.71-33.47-58.875l-82.472 7.056c6.408 43.992 24.362 77.15 53.724 100.086zm73.949-153.834c-34.014-9.674-59.108-20.923-75.372-34.137-28.67-23.277-43.244-52.158-43.197-85.792-.012-21.717 6.818-42.143 20.341-60.985 13.58-18.943 33.217-33.381 58.558-43.191 25.357-9.83 55.769-14.674 91.177-14.676 57.722.002 101.764 11.541 131.645 35.188 29.704 23.483 45.377 55.154 46.82 94.116l.127 3.353-99.273 3.094-.536-2.902c-3.844-20.81-11.98-35.233-23.942-43.855-11.944-8.638-30.476-13.267-55.867-13.258q-.91 0-1.812.008c-25.32.22-44.782 5.125-58.682 14.326-8.886 5.941-12.988 13.193-13.064 23.008.05 8.838 3.92 16.082 12.37 22.596q.365.277.766.565l.773.554.367.828c11.46 25.816 14.747 52.035 14.748 74.609 0 8.454-.464 16.4-1.133 23.63l-.386 4.179zm1.112-3.2 1.115-3.201zm-37.852-214.741c-24.211 9.393-42.504 22.92-55.256 40.674-12.8 17.873-19.137 36.887-19.147 57.336.046 31.885 13.444 58.529 40.741 80.805 14.281 11.646 37.028 22.242 68.171 31.433.457-5.907.75-12.23.75-18.86 0-21.751-3.15-46.804-13.859-71.307q-.082-.06-.162-.122c-9.806-7.418-15.054-16.95-15.004-27.721-.075-11.664 5.538-21.548 16.11-28.426 15.594-10.306 36.694-15.386 62.991-15.618a207 207 0 0 1 1.885-.01c26.318.01 46.575 4.713 60.5 14.725 13.275 9.589 21.829 24.79 26.065 45.094l85.335-2.66c-2.197-35.916-16.846-64.296-44.124-85.95-27.957-22.16-70.045-33.522-126.749-33.52h-.019c-34.657 0-64.056 4.756-88.228 14.127"/><path d="M510.74 613.955H248.079v-71.714l179.168-43.06-179.168-42.576v-71.876h262.66v44.518H303.98l206.76 47.108v46.136l-206.76 46.947h206.76Z" style="fill:#c0bfbf;stroke-width:.852198"/><path d="M244.366 617.307v-77.65l168.359-40.46-168.36-40.008v-77.818h270.088v51.226H333.891l180.562 41.14v51.365l-180.46 40.976h180.46v51.229zm266.373-3.354v-3.356zm-258.947-159.94 189.983 45.143-189.983 45.66v65.78h255.234v-37.807H303.98l-.907-6.609 203.953-46.31v-40.905l-203.955-46.468.909-6.608 203.046-.001v-37.807H251.792Z"/><path d="m425.276 374.471-5.017-46.622q25.98-4.209 38.163-17.078c8.125-8.58 12.183-20.154 12.183-34.725q.002-23.148-10.84-34.885-10.839-11.737-25.352-11.737-9.315.001-15.856 4.937-6.54 4.94-11.378 17.241-3.223 8.419-11.466 38.367-10.569 38.528-25.98 54.069-21.676 21.854-52.854 21.854-20.065.001-37.536-10.28-17.469-10.277-26.607-29.624-9.138-19.343-9.137-46.704.001-44.68 21.679-67.263 21.682-22.582 57.871-23.716l2.33 47.918q-20.246 3.077-29.115 13.193-8.87 10.12-8.869 30.353 0 20.885 9.495 32.7 6.092 7.611 16.305 7.61 9.318.001 15.946-7.124 8.421-9.064 17.558-44.031t18.902-51.723q9.767-16.755 26.696-26.225 16.933-9.47 41.836-9.47 22.576 0 42.284 11.331 19.712 11.334 29.294 32.053 9.584 20.725 9.585 51.64.001 45.006-23.023 69.125-23.02 24.125-67.097 28.816" style="fill:#c0bfbf;stroke-width:.852198"/><path d="m416.231 325.091 3.373-.547c16.802-2.723 28.621-8.16 35.995-15.957 7.42-7.846 11.278-18.508 11.292-32.542.004-14.992-3.534-25.787-9.978-32.735-6.764-7.25-13.98-10.492-22.501-10.532-5.492.02-9.777 1.391-13.474 4.157-3.551 2.649-7.174 7.89-10.25 15.762-2.052 5.343-5.893 18.164-11.373 38.077-7.143 25.951-15.843 44.38-26.817 55.5-15.003 15.191-33.863 23.014-55.62 22.971-14.082.01-27.38-3.64-39.563-10.822-12.305-7.23-21.674-17.712-27.996-31.12-6.338-13.424-9.433-29.446-9.435-48.02.004-30.241 7.322-53.534 22.589-69.461 15.088-15.773 35.607-24.13 60.547-24.871l3.677-.114 2.634 54.201-3.236.493c-12.966 1.975-21.689 6.101-26.821 11.967-5.159 5.85-8.076 15.195-8.066 28.27-.003 13.484 3.077 23.64 8.791 30.733 3.546 4.31 7.521 6.151 13.295 6.22 5.134-.046 9.183-1.789 13.102-5.925 2.298-2.438 5.12-7.37 7.95-14.52 2.855-7.156 5.814-16.551 8.839-28.125 6.139-23.462 12.466-40.883 19.23-52.516 6.78-11.646 16.172-20.89 28.026-27.513 11.994-6.71 26.682-9.977 43.792-9.974 15.741-.008 30.605 3.986 44.278 11.857 13.787 7.914 24.095 19.222 30.726 33.59 6.64 14.368 9.869 32.012 9.872 52.934.004 30.49-7.803 54.419-23.924 71.314-16.048 16.84-39.46 26.78-69.476 29.958l-3.764.4zm9.046 49.379 3.695-.325zm3.323-3.776c26.86-3.466 46.963-12.577 60.96-27.233 14.578-15.263 22.117-37.412 22.122-66.931.004-20.302-3.161-37.084-9.299-50.348-6.145-13.257-15.367-23.319-27.86-30.515-12.603-7.234-25.93-10.797-40.291-10.807-16.093.005-29.297 3.05-39.88 8.968-10.72 6.003-19.124 14.245-25.366 24.936-6.253 10.711-12.53 27.77-18.573 50.93-3.068 11.738-6.08 21.336-9.078 28.858-3.02 7.528-5.933 12.958-9.251 16.561-4.914 5.363-11.5 8.365-18.79 8.32-7.84.069-14.736-3.16-19.31-8.992-6.95-8.665-10.2-20.311-10.204-34.672.01-13.904 3.005-24.794 9.672-32.436 6.168-7.024 15.732-11.541 28.174-13.872l-2.023-41.622c-21.549 1.402-38.438 8.805-51.522 22.38-13.633 14.183-20.772 35.733-20.768 65.064-.002 17.906 2.994 33.022 8.838 45.386 5.864 12.387 14.23 21.656 25.217 28.13 11.11 6.527 22.84 9.727 35.51 9.736 19.81-.042 36.19-6.79 50.09-20.738 9.572-9.6 18.195-27.215 25.14-52.64 5.514-20.013 9.315-32.77 11.572-38.68 3.364-8.503 7.327-14.754 12.496-18.693 5.023-3.813 11.31-5.736 18.237-5.716 10.83-.041 20.518 4.544 28.202 12.941 8.015 8.703 11.698 21.163 11.705 37.036.012 15.107-4.247 27.591-13.076 36.904-8.302 8.765-20.77 14.54-36.962 17.61z"/></svg>