<!-- Created by ERK --><svg xmlns="http://www.w3.org/2000/svg" xmlns:xlink="http://www.w3.org/1999/xlink" width="681.648" height="112.242"><defs><linearGradient id="a"><stop offset="0" style="stop-color:#6e0002;stop-opacity:1"/><stop offset="1" style="stop-color:#fd190e;stop-opacity:1"/></linearGradient><linearGradient xlink:href="#a" id="c" x1="103.646" x2="103.646" y1="943.54" y2="1017.192" gradientUnits="userSpaceOnUse"/><linearGradient xlink:href="#a" id="d" x1="103.646" x2="103.646" y1="943.54" y2="1017.192" gradientUnits="userSpaceOnUse"/><linearGradient xlink:href="#a" id="e" x1="103.646" x2="103.646" y1="943.54" y2="1017.192" gradientUnits="userSpaceOnUse"/><linearGradient xlink:href="#a" id="f" x1="103.646" x2="103.646" y1="943.54" y2="1017.192" gradientUnits="userSpaceOnUse"/><linearGradient xlink:href="#a" id="g" x1="103.646" x2="103.646" y1="943.54" y2="1017.192" gradientUnits="userSpaceOnUse"/><linearGradient xlink:href="#a" id="h" x1="103.646" x2="103.646" y1="943.54" y2="1017.192" gradientUnits="userSpaceOnUse"/><linearGradient xlink:href="#a" id="i" x1="103.646" x2="103.646" y1="943.54" y2="1017.192" gradientUnits="userSpaceOnUse"/><linearGradient xlink:href="#a" id="b" x1="103.646" x2="103.646" y1="943.54" y2="1017.192" gradientUnits="userSpaceOnUse"/></defs><g style="font-size:72px;font-style:normal;font-variant:normal;font-weight:700;font-stretch:normal;text-align:start;line-height:100%;writing-mode:lr-tb;text-anchor:start;fill:url(#b);fill-opacity:1;stroke:none;font-family:&quot;Descent ][ Logo&quot;;-inkscape-font-specification:&quot;Descent ][ Logo Bold&quot;" transform="translate(205.617 -1222.766)scale(1.3045)"><path d="M-120 943.54h17.79v37.968h16.839v-3.515l-13.781-13.852V943.54h4.71l34.383 34.312v3.621l-13.816 13.746H-120z" style="fill:url(#c);fill-opacity:1"/><path d="M-53.344 943.54h17.79v38.074h23.906l13.64 13.605h-55.336zm20.848 20.601h13.676l13.816 13.711h-27.492zm0-20.601h7.031l17.192 17.156h-24.223z" style="fill:url(#d);fill-opacity:1"/><path d="M63.797 960.696H8.39l17.156-17.156h21.058zm-2.32 19.02-15.504 15.503H25.688L8.39 977.852h20.918l-.07-2.707-10.864-10.969 29.426-.035 13.64 13.746z" style="fill:url(#e);fill-opacity:1"/><path d="M123.316 960.696h-52.77l17.157-17.156h18.457zm-52.664 3.445h16.102l13.746 13.746h29.777l-17.332 17.332H88.02l-17.403-17.402z" style="fill:url(#f);fill-opacity:1"/><path d="M136.64 943.54h17.79v38.074h23.906l13.64 13.605h-55.335zm20.848 20.601h13.676l13.816 13.711h-27.492zm0-20.601h7.032l17.19 17.156h-24.222z" style="fill:url(#g);fill-opacity:1"/><path d="m198.375 943.54 17.79 17.754v33.925h-17.79zm20.848 17.156 17.191 17.156h3.727V943.54l17.824 17.754v33.925h-21.41l-17.332-17.367z" style="fill:url(#h);fill-opacity:1"/><path d="m292.84 1017.192-17.79-17.79v-35.26h17.79zm34.453-56.531h-62.824V943.54h45.738z" style="fill:url(#i);fill-opacity:1"/></g></svg>