<!-- Created by ERK --><svg xmlns="http://www.w3.org/2000/svg" xmlns:xlink="http://www.w3.org/1999/xlink" xml:space="preserve" width="320mm" height="180mm" viewBox="0 0 320 180"><defs><linearGradient id="c"><stop offset="0" style="stop-color:#272727;stop-opacity:1"/><stop offset="1" style="stop-color:#000;stop-opacity:1"/></linearGradient><linearGradient id="b"><stop offset="0" style="stop-color:red;stop-opacity:1"/><stop offset="1" style="stop-color:#3b0000;stop-opacity:1"/></linearGradient><linearGradient id="g"><stop offset="0" style="stop-color:#fff;stop-opacity:.70214395"/><stop offset="1" style="stop-color:#fff;stop-opacity:0"/></linearGradient><linearGradient id="f"><stop offset="0" style="stop-color:red;stop-opacity:1"/><stop offset="1" style="stop-color:red;stop-opacity:0"/></linearGradient><linearGradient id="a"><stop offset="0" style="stop-color:#2c2c2c;stop-opacity:1"/><stop offset="1" style="stop-color:#fff;stop-opacity:1"/></linearGradient><linearGradient xlink:href="#a" id="k" x1="84.832" x2="129.536" y1="145.647" y2="145.647" gradientTransform="matrix(1.11502 0 0 1 -42.012 -47.735)" gradientUnits="userSpaceOnUse"/><linearGradient xlink:href="#b" id="m" x1="58.184" x2="69.023" y1="162.218" y2="163.182" gradientTransform="translate(-29.684 -48.454)" gradientUnits="userSpaceOnUse"/><linearGradient xlink:href="#c" id="l" x1="80.184" x2="134.184" y1="194.718" y2="194.718" gradientTransform="translate(-29.684 -47.454)" gradientUnits="userSpaceOnUse"/><radialGradient xlink:href="#f" id="h" cx="107.184" cy="85.718" r="32" fx="107.184" fy="85.718" gradientTransform="matrix(1.10792 0 0 1.0527 -41.653 -52.855)" gradientUnits="userSpaceOnUse"/><radialGradient xlink:href="#g" id="i" cx="98.359" cy="77.902" r="8.017" fx="98.359" fy="77.902" gradientTransform="translate(-6.264 -5.622)" gradientUnits="userSpaceOnUse"/><filter id="j" width="1.002" height="1.002" x="-.001" y="-.001" style="color-interpolation-filters:sRGB"><feGaussianBlur stdDeviation=".007"/></filter></defs><g transform="translate(82.5 2.368)"><text xml:space="preserve" x="19.637" y="115.234" style="font-size:30.342px;line-height:0;font-family:&quot;namco regular&quot;;-inkscape-font-specification:&quot;namco regular, &quot;;text-align:start;letter-spacing:0;word-spacing:0;writing-mode:lr-tb;direction:ltr;text-anchor:start;display:inline;fill:#000;fill-opacity:1;stroke:#000;stroke-width:1;stroke-linecap:round;stroke-linejoin:round;stroke-miterlimit:2.3;stroke-dasharray:none;stroke-opacity:1;paint-order:stroke fill markers" transform="scale(.71443 1.39971)"><tspan x="19.637" y="115.234" style="font-style:normal;font-variant:normal;font-weight:400;font-stretch:normal;font-family:&quot;New Super Mario Font U&quot;;-inkscape-font-specification:&quot;New Super Mario Font U&quot;;fill:#000;stroke:#000;stroke-width:1;stroke-dasharray:none;stroke-opacity:1">EMULATORS</tspan></text><text xml:space="preserve" x="18.896" y="114.856" style="font-size:30.342px;line-height:0;font-family:&quot;namco regular&quot;;-inkscape-font-specification:&quot;namco regular, &quot;;text-align:start;letter-spacing:0;word-spacing:0;writing-mode:lr-tb;direction:ltr;text-anchor:start;display:inline;fill:#b50000;fill-opacity:1;stroke:none;stroke-width:.529167;stroke-linecap:round;stroke-linejoin:round;stroke-miterlimit:2.3;stroke-opacity:1;paint-order:stroke fill markers" transform="scale(.71443 1.39971)"><tspan x="18.896" y="114.856" style="font-style:normal;font-variant:normal;font-weight:400;font-stretch:normal;font-family:&quot;New Super Mario Font U&quot;;-inkscape-font-specification:&quot;New Super Mario Font U&quot;;fill:#b50000;fill-opacity:1;stroke:none;stroke-width:.529167;stroke-opacity:1">EMULATORS</tspan></text><circle cx="77.5" cy="38.265" r="38" style="fill:maroon;fill-opacity:1;stroke:#000;stroke-width:.529167;stroke-linecap:round;stroke-linejoin:round;stroke-miterlimit:2.3;stroke-opacity:1;paint-order:stroke fill markers"/><ellipse cx="77.098" cy="37.381" rx="35.453" ry="33.687" style="fill:url(#h);stroke-width:.680729;stroke-linecap:round;stroke-linejoin:round;stroke-miterlimit:2.3;paint-order:stroke fill markers"/><circle cx="92.094" cy="72.28" r="8" style="fill:url(#i);stroke-width:.218096;stroke-linecap:round;stroke-linejoin:round;stroke-miterlimit:2.3;paint-order:stroke fill markers;filter:url(#j)" transform="translate(-171.229 -158.166)scale(2.61283)"/><path d="M77.5 76.265a42.37 38 0 0 1-6-.424v44.423h12V75.841a42.37 38 0 0 1-6 .424" style="fill:url(#k);stroke:#000;stroke-width:.503424;stroke-linecap:round;stroke-linejoin:round;stroke-miterlimit:2.3;paint-order:stroke fill markers"/><rect width="153" height="54" x="1" y="120.265" ry="9.627" style="fill:url(#l);fill-opacity:1;stroke:#000;stroke-width:2;stroke-linecap:round;stroke-linejoin:round;stroke-miterlimit:2.3;stroke-dasharray:none;stroke-opacity:1;paint-order:stroke fill markers"/><rect width="137" height="38" x="9" y="128.265" ry="4.006" style="fill:#4d4d4d;fill-opacity:1;stroke-width:.52805;stroke-linecap:round;stroke-linejoin:round;stroke-miterlimit:2.3;paint-order:stroke fill markers"/><path d="M28.713 108.265A5.7 5.7 0 0 0 23 113.977v5.287h22v-5.287a5.7 5.7 0 0 0-5.713-5.712z" style="fill:url(#m);fill-opacity:1;stroke:none;stroke-width:.5;stroke-linecap:round;stroke-linejoin:round;stroke-miterlimit:2.3;stroke-dasharray:none;stroke-opacity:1;paint-order:stroke fill markers"/><path d="M15.998 134.314q10.49 2.427 10.49 2.717l-1.017 7.279q-4.953-2.572-5.324-2.862 0 .187-1.09 4.707h.074q2.212-.27 4.805-.85l.074.29q-.434 4.812-.656 6.554l-4.075-1.141q.064 2.364.064 3.567v.726l.074.29q1.355-.29 5.472-.871.138 1.286.508 6.429-.074 0-.074.145-9.6-.996-9.76-1.286l-1.534-8.564q1.747-15.947 1.969-17.13m16.13-.02q2.996.415 2.996.746 1.154 6.076 1.408 7.756h.064q.275-1.161 2.106-6.387h.063q2.869.353 2.869.767l1.725 23.122q0 .208-4.53.996l-.064-.25q-.254-10.534-.254-12.877h-.063l-2.615 4.5h-.063q-.127-.124-1.789-5.495h-.063q-2.043 11.654-2.234 12.38h-.127q-3.651-3.235-4.149-3.878v-.125q4.53-20.861 4.72-21.255m12.353.02q4.382 1.805 4.382 2.074-.286 10.265-.56 17.565.423 0 3.175.56 1.058-18.394 1.196-18.394 3.884 1.244 3.884 1.513-1.196 19.867-1.344 20.199-.593.954-1.969 3.463-6.287-.374-6.287-.83l-2.614-5.951v-7.341q0-4.252.074-12.712.063 0 .063-.146m18.48-.02q0 .145.064.145.075 4.21.223 18.83h.063l6.32-4.355q0 .145.073.145l-.211 10.41q0 .27-9.833 1.825-.223-2.178-2.086-25.88.837-.27 5.388-1.12m11.93.103q5.874 1.66 6.478 1.95 0 .166 4.043 23.744-.423.311-4.88 1.203-.307-2.032-.688-6.284-3.81.685-3.81 1.203l-.688 4.79h-.074q-4.499-1.617-4.499-1.949 3.589-21.981 4.118-24.657m2.053 14.35h2.297l-.847-6.573q-.984 0-.984.747-.159 1.513-.466 5.827m24.44-14.432.064.27q-.276 7.92-.413 7.92h-.064q-4.371-.684-4.869-.808v18.394q0 .498-1.99.664 0 .145-2.254.539l-.074-.27q.487-16.465.624-19.451-1.672.518-4.932 1.327-.963-7.05-.963-7.238 0-.27 14.871-1.347m5.758 0q4.636 2.384 4.732 2.758 0 .207 2.243 8.295-1.979 12.981-2.243 13.914l-4.795 2.012q-3.864-4.19-4.107-4.77-.127-2.924-.445-16.445 3.652-4.77 4.615-5.764m.826 7.154-1.98 4.023q.255 6.263.255 7.652.074 0 1.28 1.742 1.599-.684 1.599-.995l1.217-8.15q-.487-2.903-.826-2.903zm14.68-7.154q.234.497 4.542 6.511v.124q-.879 7.093-1.154 8.109l-2.234 2.53q3.97 5.62 4.001 5.848-1.407 1.327-4.34 3.857-3.397-9.104-3.397-9.311h-.127q-.074 5.33-.074 7.32-.042.933-.201.933h-3.186q-.222 0-.678-11.571-.211-2.53-.613-11.696 1.227-.519 7.462-2.654m-2.92 5.847v.125q0 1.265.073 9.041h.064q2.583-1.182 2.583-1.596l.603-5.31zm17.517-5.847q3.81 3.774 3.916 3.774 0 .332-1.587 5.993h-.075q-.127 0-3.651-3.38l-1.196 3.131q3.037 2.862 7.377 7.3-1.969 6.864-2.794 9.124l-5.98 1.037q-4.097-5.413-4.33-5.6v-.144q0-.581 1.662-5.33h.138q.656.767 4.117 4.417l1.397-3.11q-6.361-6.346-7.049-7.176v-.124q2.022-7.714 2.202-7.818 5.26-2.094 5.853-2.094" aria-label="EMULATORS" style="font-size:30.342px;line-height:0;font-family:&quot;New Super Mario Font U&quot;;-inkscape-font-specification:&quot;New Super Mario Font U&quot;;letter-spacing:0;word-spacing:0;stroke:#000;stroke-linecap:round;stroke-linejoin:round;stroke-miterlimit:2.3;paint-order:stroke fill markers"/><path d="M15.469 133.785q10.49 2.427 10.49 2.717l-1.017 7.279q-4.954-2.572-5.324-2.862 0 .187-1.09 4.707h.074q2.212-.27 4.805-.85l.074.29q-.434 4.811-.656 6.553l-4.075-1.14q.063 2.364.063 3.567v.725l.075.29q1.354-.29 5.472-.87.137 1.286.508 6.428-.074 0-.074.146-9.6-.996-9.76-1.286l-1.534-8.565q1.746-15.947 1.969-17.129m16.13-.02q2.996.414 2.996.746 1.154 6.076 1.408 7.756h.063q.276-1.161 2.107-6.387h.063q2.869.352 2.869.767l1.725 23.122q0 .208-4.53.996l-.064-.25q-.254-10.534-.254-12.877h-.063l-2.615 4.5h-.063q-.127-.125-1.789-5.496h-.063q-2.043 11.655-2.234 12.38h-.127q-3.652-3.234-4.149-3.877v-.125q4.53-20.861 4.72-21.255m12.353.02q4.382 1.804 4.382 2.074-.286 10.265-.561 17.565.423 0 3.175.56 1.059-18.395 1.196-18.395 3.885 1.245 3.885 1.514-1.196 19.867-1.344 20.198-.593.954-1.969 3.464-6.287-.374-6.287-.83l-2.615-5.952v-7.34q0-4.252.074-12.713.064 0 .064-.145m18.48-.02q0 .145.064.145.074 4.21.223 18.83h.063l6.32-4.356q0 .146.073.146l-.212 10.41q0 .27-9.833 1.825-.222-2.178-2.085-25.88.836-.27 5.388-1.12m11.93.103q5.874 1.66 6.477 1.95 0 .166 4.044 23.744-.424.31-4.88 1.203-.307-2.033-.688-6.284-3.81.685-3.81 1.203l-.688 4.79h-.074q-4.499-1.617-4.499-1.949 3.588-21.982 4.118-24.657m2.053 14.35h2.297l-.847-6.573q-.984 0-.984.746-.159 1.514-.466 5.828m24.44-14.433.064.27q-.276 7.922-.413 7.922h-.064q-4.371-.685-4.869-.81v18.395q0 .498-1.99.663 0 .146-2.254.54l-.074-.27q.487-16.465.624-19.452-1.672.519-4.932 1.328-.963-7.051-.963-7.238 0-.27 14.871-1.348m5.758 0q4.636 2.385 4.731 2.758 0 .208 2.244 8.295-1.979 12.982-2.244 13.915l-4.794 2.012q-3.864-4.19-4.107-4.77-.127-2.924-.445-16.445 3.652-4.77 4.615-5.765m.826 7.155-1.98 4.023q.254 6.262.254 7.652.074 0 1.281 1.742 1.598-.685 1.598-.996l1.218-8.15q-.487-2.903-.826-2.903zm14.68-7.155q.233.498 4.541 6.512v.124q-.878 7.092-1.153 8.109l-2.234 2.53q3.97 5.62 4.001 5.847-1.407 1.328-4.34 3.858-3.397-9.104-3.397-9.311h-.127q-.074 5.329-.074 7.32-.043.933-.201.933h-3.186q-.223 0-.678-11.571-.211-2.53-.614-11.696 1.228-.519 7.463-2.655m-2.92 5.848v.125q0 1.265.073 9.041h.064q2.582-1.182 2.582-1.597l.604-5.308zm17.517-5.848q3.81 3.775 3.916 3.775 0 .331-1.588 5.993h-.074q-.127 0-3.651-3.38l-1.196 3.13q3.037 2.863 7.377 7.3-1.969 6.864-2.794 9.125l-5.98 1.037q-4.097-5.413-4.33-5.6v-.145q0-.58 1.662-5.33h.138q.656.768 4.117 4.418l1.397-3.11q-6.361-6.346-7.05-7.176v-.124q2.023-7.714 2.202-7.818 5.261-2.095 5.854-2.095" aria-label="EMULATORS" style="font-size:30.342px;line-height:0;font-family:&quot;New Super Mario Font U&quot;;-inkscape-font-specification:&quot;New Super Mario Font U&quot;;letter-spacing:0;word-spacing:0;fill:#b50000;stroke-width:.529167;stroke-linecap:round;stroke-linejoin:round;stroke-miterlimit:2.3;paint-order:stroke fill markers"/></g></svg>