<!-- Created by ERK --><svg xmlns="http://www.w3.org/2000/svg" viewBox="0 0 280 309.12"><title>exa-logo-white</title><g data-name="Layer 2"><g data-name="Layer 1"><path d="M1.581 272.489h277.233v35.313H1.581z" style="fill:#fff;stroke:none"/><path fill="#db0004" d="M207.41 187.79a1.68 1.68 0 0 0-1.31-.64H30.43a1.68 1.68 0 0 1-1.31-2.71l45.18-57.77a1.65 1.65 0 0 1 2.61 0l6.26 8.07a1.65 1.65 0 0 0 2.61 0l6.77-8.66a1.7 1.7 0 0 0 0-2.07L59.89 81.93a1.68 1.68 0 0 1 1.31-2.71h58.85a1.68 1.68 0 0 0 1.31-2.71l-8.31-10.72a1.65 1.65 0 0 0-1.31-.64h-79.5a1.67 1.67 0 0 0-1.3 2.71l35 44.74a1.67 1.67 0 0 1 0 2.07L.36 198.51a1.67 1.67 0 0 0 1.3 2.71h212.82a1.68 1.68 0 0 0 1.31-2.71ZM278.34 0h-15.29a1.65 1.65 0 0 0-1.31.64L129 170.37a1.68 1.68 0 0 0 1.31 2.71h13.52a1.67 1.67 0 0 0 1.31-.63l33.08-42.3a1.65 1.65 0 0 1 2.61 0l54.65 70.43a1.68 1.68 0 0 0 1.31.64h13.48a1.68 1.68 0 0 0 1.31-2.71l-62.36-80.36a1.71 1.71 0 0 1 0-2.08l72.88-93.18a1.66 1.66 0 0 1 3 1v90.72a1.66 1.66 0 0 1-1.66 1.67h-53.95a1.68 1.68 0 0 0-1.3 2.72l8.38 10.72a1.64 1.64 0 0 0 1.3.63h45.53a1.67 1.67 0 0 1 1.66 1.68v67.47a1.67 1.67 0 0 0 1.66 1.67h11.62a1.66 1.66 0 0 0 1.66-1.67V1.68A1.67 1.67 0 0 0 278.34 0m-135 81.81a1.67 1.67 0 0 1 0 2.07l-67.67 86.49a1.68 1.68 0 0 0 1.33 2.71h13.5a1.67 1.67 0 0 0 1.31-.63l59.85-76.53a1.65 1.65 0 0 1 2.61 0l6.37 8.22a1.65 1.65 0 0 0 2.61 0l6.75-8.66a1.68 1.68 0 0 0 0-2.07l-7.36-9.49a1.68 1.68 0 0 1 0-2.07l44.9-57.42a1.67 1.67 0 0 0-1.3-2.71h-13.51a1.64 1.64 0 0 0-1.3.63l-37.11 47.46a1.66 1.66 0 0 1-2.62 0l-20-25.73a1.68 1.68 0 0 0-1.31-.64h-13.45a1.67 1.67 0 0 0-1.3 2.71Z"/><path d="M20.49 222.23a1.86 1.86 0 0 0-2-1.33H7.72a1.89 1.89 0 0 0-2 1.33l-3.48 9.18a18.9 18.9 0 0 0-1.56 6.46v10.67c0 1 .44 1.46 1.44 1.46H8c1 0 1.44-.44 1.44-1.46v-5.65h7.09v5.65c0 1 .48 1.46 1.56 1.46h6.01c1 0 1.44-.44 1.44-1.46v-10.67a18.9 18.9 0 0 0-1.54-6.46ZM9.8 235.53l1.88-6.14c.2-.49.44-.69.76-.69h1c.32 0 .57.2.77.69l1.88 6.14Zm55.52-1.42c1.68-.72 2.24-2.34 2.24-4.6v-1.86c0-4-1.88-6.75-7.89-6.75H46.33c-1 0-1.44.44-1.44 1.45v26.19c0 1 .44 1.46 1.44 1.46h6.17c1 0 1.44-.44 1.44-1.46v-7.92h5.61c1.12 0 1.52.53 1.52 1.74v6.18c0 1 .44 1.46 1.44 1.46h6.21c1 0 1.44-.44 1.44-1.46V240c0-3.42-1.92-5.56-4.84-5.89m-6.61-2.66c0 1.09-.36 1.9-1.77 1.9h-3v-5.18h3c1.41 0 1.77.81 1.77 1.9Zm49.35-10.55h-9.78c-6.73 0-9.85 2.62-9.85 8.28v12.57c0 5.62 3.12 8.25 9.85 8.25h9.78c1 0 1.44-.44 1.44-1.46v-4.81c0-1-.44-1.45-1.44-1.45H100c-1.68 0-2.44-.61-2.44-1.94v-9.62c0-1.38.76-2 2.44-2h8.06c1 0 1.44-.45 1.44-1.46v-4.89c0-1.03-.44-1.47-1.44-1.47m39.65 1.33a1.86 1.86 0 0 0-2-1.33h-10.78a1.88 1.88 0 0 0-2 1.33l-3.48 9.18a18.9 18.9 0 0 0-1.56 6.46v10.67c0 1 .44 1.46 1.44 1.46h5.88c1 0 1.45-.44 1.45-1.46v-5.65h7.08v5.65c0 1 .49 1.46 1.57 1.46h6c1 0 1.45-.44 1.45-1.46v-10.67a18.8 18.8 0 0 0-1.57-6.46ZM137 235.53l1.88-6.14c.2-.49.44-.69.76-.69h1c.32 0 .56.2.76.69l1.88 6.14Zm50-14.63h-13.5c-1 0-1.44.44-1.44 1.45v26.19c0 1 .44 1.46 1.44 1.46H187c6.72 0 9.85-2.63 9.85-8.25v-12.61c.05-5.62-3.08-8.24-9.8-8.24Zm.8 19.48c0 1.37-.6 2-1.89 2h-4.71v-13.76h4.8c1.29 0 1.89.6 1.89 1.94Zm46.42-19.48h-17.01c-1 0-1.44.44-1.44 1.45v4.89c0 1 .44 1.46 1.44 1.46h4v13.58h-4c-1 0-1.44.44-1.44 1.45v4.81c0 1 .44 1.46 1.44 1.46h17.06c1 0 1.44-.44 1.44-1.46v-4.81c0-1-.44-1.45-1.44-1.45h-3.89V228.7h3.89c1 0 1.44-.45 1.44-1.46v-4.89c0-1.01-.44-1.45-1.44-1.45Zm40.06 1.33a1.87 1.87 0 0 0-2-1.33h-10.73a1.88 1.88 0 0 0-2 1.33l-3.55 9.18a18.9 18.9 0 0 0-1.56 6.46v10.67c0 1 .44 1.46 1.44 1.46h5.89c1 0 1.44-.44 1.44-1.46v-5.65h7.09v5.65c0 1 .48 1.46 1.56 1.46h6.05c1 0 1.44-.44 1.44-1.46v-10.67a18.9 18.9 0 0 0-1.56-6.46Zm-10.7 13.3 1.88-6.14c.2-.49.44-.69.77-.69h1c.32 0 .56.2.76.69l1.88 6.14Z" class="cls-1"/><path fill="currentColor" d="M35.91 285.58c-1.77 0-2.07.49-2.07 1.13v6.63c0 .66.3 1.15 2.07 1.15S38 294 38 293.34v-6.63c0-.64-.29-1.13-2.09-1.13m59.18 0h-1.85v3.15h1.85c.86 0 1.08-.49 1.08-1.16v-.83c0-.67-.17-1.16-1.08-1.16m43 0c-1.78 0-2.07.49-2.07 1.13v6.63c0 .66.29 1.15 2.07 1.15s2.07-.49 2.07-1.15v-6.63c.05-.64-.22-1.13-2.02-1.13Zm139.92-14.67H1.94A1.93 1.93 0 0 0 0 272.84v34.34a1.94 1.94 0 0 0 1.94 1.94h276.12a1.94 1.94 0 0 0 1.94-1.94v-34.34a1.93 1.93 0 0 0-1.94-1.93ZM24.49 289.1c0 2.86-1.33 4.8-5.81 4.8h-2.84v4.1c0 .62-.27.89-.88.89h-3.82c-.62 0-.89-.27-.89-.89v-16c0-.61.27-.88.89-.88h7.54c4.48 0 5.81 1.94 5.81 4.8Zm19.06 5.12c0 3-1.48 5-7.64 5s-7.66-2-7.66-5v-8.39c0-3 1.51-5.05 7.66-5.05s7.64 2 7.64 5.05Zm21.89-2.63a7.5 7.5 0 0 1-.45 3.05L63.76 298c-.17.49-.46.89-1 .89H59.5a1.06 1.06 0 0 1-1.13-.74l-1.13-4c-.1-.32-.25-.41-.45-.41h-.22c-.19 0-.34.09-.44.41l-1.16 4a1 1 0 0 1-1 .74h-3.28a1.16 1.16 0 0 1-1.09-.89l-1.23-3.4a7.7 7.7 0 0 1-.44-3V282c0-.61.27-.88.89-.88h3.79c.61 0 .88.27.88.88v9.07l1.43-3.07a1.27 1.27 0 0 1 1.31-.76h1a1.27 1.27 0 0 1 1.31.76l1.46 3.1V282c0-.61.24-.88.88-.88h3.67c.62 0 .89.27.89.88Zm17.85-6.68c0 .62-.27.89-.89.89h-6.79v1.9h4.8c.61 0 .89.27.89.88v2.64c0 .61-.28.88-.89.88h-4.8v2.12h6.79c.62 0 .89.27.89.89V298c0 .62-.27.89-.89.89H71c-.62 0-.89-.27-.89-.89v-16c0-.61.27-.88.89-.88h11.4c.62 0 .89.27.89.88ZM103.21 298c0 .62-.27.89-.88.89h-3.82c-.62 0-.89-.27-.89-.89v-3.77c0-.74-.24-1.06-.93-1.06h-3.45V298c0 .62-.27.89-.89.89h-3.79c-.62 0-.89-.27-.89-.89v-16c0-.61.27-.88.89-.88h8.2c3.69 0 4.85 1.67 4.85 4.11v1.13c0 1.38-.34 2.37-1.38 2.81a3.27 3.27 0 0 1 3 3.57ZM127 285c0 .62-.27.89-.89.89h-3.61V298c0 .62-.27.89-.89.89h-4c-.61 0-.88-.27-.88-.89v-12.1h-3.62c-.62 0-.89-.27-.89-.89v-3c0-.61.27-.88.89-.88h13c.62 0 .89.27.89.88Zm18.76 9.21c0 3-1.48 5-7.63 5s-7.66-2-7.66-5v-8.39c0-3 1.5-5.05 7.66-5.05s7.63 2 7.63 5.05Zm24.18-9.21c0 .62-.28.89-.89.89h-3.62V298c0 .62-.27.89-.89.89h-4c-.61 0-.88-.27-.88-.89v-12.1h-3.62c-.62 0-.89-.27-.89-.89v-3c0-.61.27-.88.89-.88h13c.61 0 .89.27.89.88Zm19.15 13c0 .62-.27.89-.88.89h-3.82c-.62 0-.89-.27-.89-.89v-5.47h-4.11V298c0 .62-.27.89-.89.89h-3.81c-.62 0-.89-.27-.89-.89v-16c0-.61.27-.88.89-.88h3.81c.62 0 .89.27.89.88v5.35h4.11V282c0-.61.27-.88.89-.88h3.82c.61 0 .88.27.88.88Zm18.08-13.08c0 .62-.27.89-.89.89h-6.8v1.9h4.81c.61 0 .88.27.88.88v2.64c0 .61-.27.88-.88.88h-4.81v2.12h6.8c.62 0 .89.27.89.89V298c0 .62-.27.89-.89.89h-11.42c-.62 0-.89-.27-.89-.89v-16c0-.61.27-.88.89-.88h11.42c.62 0 .89.27.89.88Zm23.62 0c0 .62-.27.89-.89.89h-6.79v1.9h4.8c.62 0 .89.27.89.88v2.64c0 .61-.27.88-.89.88h-4.8v2.12h6.79c.62 0 .89.27.89.89V298c0 .62-.27.89-.89.89h-11.42c-.62 0-.89-.27-.89-.89v-16c0-.61.27-.88.89-.88h11.42c.62 0 .89.27.89.88Zm19.36-1a4 4 0 0 1-.94 3l-2 2.71 2 2.66a4 4 0 0 1 .94 3V298c0 .62-.27.89-.89.89h-3.74c-.62 0-.89-.27-.89-.89v-2.44a1.62 1.62 0 0 0-.22-1l-1.09-1.56c-.19-.3-.32-.42-.59-.42h-.34c-.27 0-.4.12-.59.42l-1.11 1.55a1.56 1.56 0 0 0-.22 1V298c0 .62-.27.89-.89.89h-3.74c-.62 0-.89-.27-.89-.89v-2.63a4 4 0 0 1 .94-3l2-2.69-2-2.68a3.92 3.92 0 0 1-.94-3v-2c0-.61.27-.88.89-.88h3.79c.62 0 .89.27.89.88v1.7a1.74 1.74 0 0 0 .22 1l1.08 1.55c.17.27.32.42.59.42h.3c.27 0 .39-.15.59-.42l1.11-1.55a1.74 1.74 0 0 0 .22-1V282c0-.61.27-.88.89-.88h3.74c.62 0 .89.27.89.88Zm19.6 14.08c0 .62-.27.89-.89.89h-3.72c-.66 0-1-.27-1-.89v-3.45h-4.36V298c0 .62-.27.89-.88.89h-3.62c-.62 0-.89-.27-.89-.89v-6.5a11.5 11.5 0 0 1 1-3.94l2.14-5.59a1.16 1.16 0 0 1 1.26-.81h6.62a1.13 1.13 0 0 1 1.23.81l2.15 5.59a11.5 11.5 0 0 1 1 3.94Zm-7.44-12.09h-.62c-.19 0-.34.12-.46.42l-1.16 3.74h3.87l-1.16-3.74c-.13-.33-.27-.43-.47-.43ZM18 285.75h-2.21v3.72H18c1 0 1.16-.57 1.16-1.21V287c.01-.68-.16-1.25-1.16-1.25" style="fill:#000"/></g></g></svg>