<?xml version="1.0" encoding="UTF-8"?>
<!-- Created by ERK -->
<svg width="1600" height="800" version="1.1" xml:space="preserve" xmlns="http://www.w3.org/2000/svg"><path d="m578.68 197.64h168.37q56.947 1e-3 86.836 7.88c26.758 7.137 49.687 19.809 68.777 38.008q28.634 27.313 43.575 66.86 14.936 39.553 14.938 97.543c0 33.972-4.675 63.257-14.01 87.837q-17.12 45.049-48.856 72.911-23.968 21.122-64.738 32.94c-20.334 5.82-47.514 8.724-81.54 8.724h-173.35zm92.309 69.983v272.74h68.81q38.604 0 55.735-3.934c14.945-3.37 27.346-9.076 37.21-17.128q14.782-12.077 24.129-39.746c6.224-18.446 9.342-43.59 9.342-75.42s-3.118-56.269-9.342-73.315q-9.348-25.558-26.161-39.882-16.81-14.326-42.649-19.383c-12.871-2.621-38.095-3.932-75.663-3.932z" fill="#db1f26" stroke-width=".8522"/><path d="M574.961 613.698V194.287h172.085c38.16.01 67.35 2.618 87.886 8.017 27.351 7.29 50.905 20.305 70.421 38.92 19.486 18.582 34.284 41.324 44.394 68.082 10.133 26.848 15.135 59.707 15.136 98.628-.001 34.245-4.706 63.891-14.212 88.924-11.56 30.428-28.14 55.23-49.776 74.223-16.492 14.53-38.61 25.736-66.21 33.735-20.901 5.975-48.398 8.875-82.66 8.88H574.961Zm7.427-6.709h169.638c33.79.006 60.653-2.903 80.405-8.563 26.777-7.762 47.81-18.516 63.284-32.15 20.673-18.152 36.668-41.96 47.933-71.594 9.166-24.13 13.81-53.052 13.808-86.746.003-38.404-4.958-70.567-14.739-96.46-9.814-25.968-24.064-47.806-42.755-65.636-18.665-17.784-40.969-30.112-67.121-37.096-19.327-5.104-48.029-7.753-85.795-7.744H582.389v405.99zm84.88-63.27V264.271h45.126c37.703.015 62.937 1.279 76.451 4.008 17.767 3.47 32.667 10.21 44.41 20.221 11.766 10.026 20.767 23.848 27.138 41.271 6.425 17.629 9.52 42.332 9.53 74.368-.006 32.03-3.115 57.439-9.504 76.398-6.358 18.773-14.58 32.56-25.192 41.257-10.368 8.466-23.371 14.419-38.784 17.889-12.037 2.748-30.755 4.028-56.651 4.037zm7.428-6.71h65.096c25.58.01 44.014-1.334 54.837-3.833 14.463-3.266 26.26-8.727 35.618-16.362 9.103-7.41 16.962-20.119 23.07-38.235 6.06-17.936 9.186-42.812 9.178-74.44.012-31.627-3.13-55.804-9.155-72.264-6.092-16.654-14.533-29.422-25.183-38.493-10.67-9.086-24.199-15.274-40.916-18.55-12.2-2.506-37.413-3.865-74.847-3.849h-37.697zm-3.712-266.026v-3.356z"/><path d="m929.41 531.68q27.513 14.917 63.004 14.917c36.888 0 67.167-11.999 90.826-36 23.657-23.998 35.494-60.008 35.494-108.02 0-47.439-11.522-82.827-34.548-106.17-23.037-23.337-53.625-35.013-91.771-35.013s-68.901 11.818-92.242 35.44q-35.024 35.435-35.022 106.88 0 9.51 0.658 18.402c-1.365 26.53-4.018 96.673-59.93 111.42-23.796-33.932-35.69-76.264-35.69-127 0-42.159 6.963-77.547 20.898-106.16q15.592-31.615 42.571-56.749c17.988-16.746 37.685-29.171 59.104-37.268 28.483-10.92 61.34-16.38 98.56-16.38q101.05 0 161.71 56.756c40.436 37.837 60.66 90.443 60.66 157.83 0 66.829-20.069 119.11-60.198 156.85-40.134 37.74-93.774 56.605-160.93 56.605q-73.376 0-125.12-29.158c27.24-12.872 50.846-37.956 61.967-57.18" fill="#8461a9" stroke-width=".8522"/><path d="M992.562 621.369c-49.45.005-91.912-9.842-127.084-29.668l-5.505-3.104 5.748-2.716c26.294-12.366 49.68-37.145 60.397-55.758l1.824-3.155 3.377 1.831c17.735 9.609 38.005 14.433 61.095 14.44 36-.046 65.005-11.561 88.052-34.88 22.815-23.121 34.555-58.236 34.553-105.78 0-46.985-11.434-81.485-33.606-103.939-22.373-22.607-51.674-33.848-88.999-33.892-37.31.044-66.784 11.419-89.473 34.321-22.5 22.737-34.08 57.471-34.078 104.64q0 9.406.651 18.177l.013.184-.01.197c-.513 9.94-1.205 26.21-4.882 43.5-3.691 17.292-10.326 35.697-23.111 49.975-8.514 9.507-19.86 17.128-34.605 21.007l-2.681.705-1.495-2.13c-24.254-34.582-36.271-77.598-36.267-128.792.002-42.488 7.007-78.334 21.219-107.53 10.57-21.43 25.019-40.69 43.298-57.719 18.29-17.029 38.413-29.742 60.318-38.02 29.023-11.127 62.392-16.647 100.011-16.646 68.112-.035 123.224 19.231 164.385 57.78 41.242 38.573 61.724 92.197 61.702 160.155.021 67.404-20.304 120.704-61.233 159.179-40.817 38.423-95.612 57.636-163.436 57.635q-.089.004-.178.003m0-6.71c66.414-.036 118.84-18.552 158.257-55.576 39.33-37.005 59.14-88.275 59.163-154.529-.024-66.807-19.991-118.394-59.619-155.494-39.729-37.126-92.421-55.697-159.041-55.73-36.823 0-69.167 5.4-97.127 16.12-20.916 7.907-40.187 20.045-57.871 36.507-17.692 16.482-31.625 35.058-41.839 55.764-13.666 28.055-20.587 62.983-20.583 104.813.004 49.174 11.269 90.1 33.605 123.013 11.895-3.657 21.025-10.001 28.246-18.029 7.737-8.617 13.187-19.208 16.998-30.277 7.604-22.031 8.664-45.778 9.338-59.08a254 254 0 0 1-.654-18.452c.002-48.083 11.765-84.606 35.965-109.11 23.994-24.343 56.032-36.604 95.014-36.56 38.967-.044 70.842 12.068 94.543 36.137 23.879 24.234 35.486 60.51 35.488 108.403 0 48.47-11.935 85.374-36.433 110.245-24.27 24.687-55.824 37.17-93.598 37.126-22.818.007-43.423-4.535-61.57-13.65-11.243 17.938-31.729 39.497-56.016 52.649 32.747 17.1 71.908 25.704 117.734 25.71"/><path d="M1117.989 422.68q-50.587-14.37-74-33.43c-27.984-22.776-41.97-50.54-41.97-83.299q.001-31.625 19.745-59.16c13.165-18.349 32.13-32.332 56.906-41.933q37.155-14.402 89.713-14.402 85.817-.001 129.196 34.354 43.37 34.356 45.556 91.71l-92.307 2.876q-5.894-31.928-25.29-45.926c-12.934-9.324-32.329-13.99-58.182-13.99q-.93 0-1.85.008c-25.809.227-46.09 5.22-60.834 14.971-9.732 6.412-14.59 14.979-14.59 25.72 0 9.803 4.56 18.192 13.687 25.156q.416.317.858.634c15.434 34.76 15.803 70.467 13.362 96.712zm92.112-64.742c33.953 8.08 59.857 16.379 77.7 24.893 21.467 10.246 38.262 24.26 50.397 42.023q18.202 26.658 18.204 65.865 0 35.544-21.81 66.574c-14.538 20.688-35.102 36.056-61.687 46.113-26.585 10.06-59.708 15.094-99.38 15.094q-86.613 0-133.026-36.242-46.428-36.244-55.455-105.64l89.656-7.671c5.397 27.21 16.346 47.193 32.858 59.956 16.511 12.761 38.785 19.135 66.819 19.135 29.692 0 52.072-5.676 67.126-17.045 15.054-11.363 22.587-24.65 22.587-39.86 0-9.767-3.166-18.074-9.482-24.933-6.325-6.854-17.358-12.813-33.107-17.892q-4.007-1.259-10.554-3.005c3.896-27.734 3.985-55.776-.846-87.365" fill="#fdc20f" stroke-width=".8522"/><path d="M1038.072 584.793c-31.789-24.798-50.646-60.953-56.716-107.787l-.442-3.408 96.84-8.286.602 3.04c5.308 26.743 15.97 45.91 31.618 57.997 15.698 12.125 36.964 18.317 64.404 18.33 29.204.006 50.662-5.606 64.746-16.265 14.42-10.946 21.21-23.117 21.255-37.283-.022-9.122-2.884-16.525-8.62-22.786-5.615-6.123-16.09-11.928-31.475-16.872-2.583-.81-6.056-1.8-10.385-2.956l-3.031-.808.398-2.83c1.843-13.132 2.822-26.32 2.822-39.932 0-14.851-1.168-30.211-3.666-46.55l3.68-.458-3.68.458-.762-4.986 5.387 1.282c34.113 8.124 60.218 16.46 78.487 25.171 22 10.492 39.347 24.95 51.825 43.228 12.57 18.41 18.762 41.03 18.757 67.625.01 24.32-7.497 47.204-22.388 68.373-14.935 21.272-36.19 37.13-63.388 47.408-27.199 10.286-60.8 15.35-100.814 15.354-58.281.002-103.608-12.2-135.454-37.059m4.855-5.08c30.039 23.464 73.392 35.422 130.598 35.427 39.328.002 71.973-5.002 97.944-14.833 25.97-9.838 45.845-24.714 59.988-44.816 14.187-20.205 21.222-41.701 21.231-64.776-.01-25.68-5.953-46.964-17.65-64.102-11.793-17.251-28.036-30.818-48.971-40.818-16.488-7.873-40.396-15.694-71.56-23.324 2.042 14.78 3.007 28.83 3.007 42.474 0 12.926-.866 25.485-2.498 37.951 3.044.835 5.612 1.58 7.733 2.246 16.084 5.205 27.676 11.32 34.715 18.907 6.893 7.458 10.363 16.665 10.34 27.08.045 16.252-8.232 30.654-23.919 42.433-16.024 12.08-39.327 17.823-69.508 17.826-28.63.015-51.91-6.544-69.232-19.941-16.737-12.942-27.776-32.71-33.47-58.875l-82.472 7.056c6.408 43.992 24.362 77.15 53.724 100.086zm73.949-153.834c-34.014-9.674-59.108-20.923-75.372-34.137-28.67-23.277-43.244-52.158-43.197-85.792-.012-21.717 6.818-42.143 20.341-60.985 13.58-18.943 33.217-33.381 58.558-43.191 25.357-9.83 55.769-14.674 91.177-14.676 57.722.002 101.764 11.541 131.645 35.188 29.704 23.483 45.377 55.154 46.82 94.116l.127 3.353-99.273 3.094-.536-2.902c-3.844-20.81-11.98-35.233-23.942-43.855-11.944-8.638-30.476-13.267-55.867-13.258q-.91 0-1.812.008c-25.32.22-44.782 5.125-58.682 14.326-8.886 5.941-12.988 13.193-13.064 23.008.05 8.838 3.92 16.082 12.37 22.596q.365.277.766.565l.773.554.367.828c11.46 25.816 14.747 52.035 14.748 74.609 0 8.454-.464 16.4-1.133 23.63l-.386 4.179zm1.112-3.2 1.115-3.201zm-37.852-214.741c-24.211 9.393-42.504 22.92-55.256 40.674-12.8 17.873-19.137 36.887-19.147 57.336.046 31.885 13.444 58.529 40.741 80.805 14.281 11.646 37.028 22.242 68.171 31.433.457-5.907.75-12.23.75-18.86 0-21.751-3.15-46.804-13.859-71.307q-.082-.06-.162-.122c-9.806-7.418-15.054-16.95-15.004-27.721-.075-11.664 5.538-21.548 16.11-28.426 15.594-10.306 36.694-15.386 62.991-15.618a207 207 0 0 1 1.885-.01c26.318.01 46.575 4.713 60.5 14.725 13.275 9.589 21.829 24.79 26.065 45.094l85.335-2.66c-2.197-35.916-16.846-64.296-44.124-85.95-27.957-22.16-70.045-33.522-126.749-33.52h-.019c-34.657 0-64.056 4.756-88.228 14.127"/><path d="m512.61 547.74q0 28.492-17.777 45.782-17.899 17.29-49.8 17.29-31.658 0-49.556-16.681-18.02-16.803-18.02-43.834 0-27.639 17.655-44.077 17.655-16.559 49.921-16.559h5.4792v97.286q22.404-1.4611 33.24-12.298 10.837-10.958 10.837-26.909 0-12.054-6.088-21.673-6.2098-9.7408-17.533-10.228v-23.743q19.969 2.6787 30.805 18.142 10.837 15.342 10.837 37.502zm-80.118-33.849q-18.629 2.8005-27.883 12.541-9.2537 9.7408-9.2537 23.865 0 13.759 9.2537 23.621 9.132 9.8625 27.883 12.541zm77.074-198.1v28.979l-75.613 52.844 75.613 53.087v28.979l-93.998-68.551-84.501 61.732v-28.857l65.994-46.147-65.994-46.39v-28.857l84.501 61.976zm-132.11-70.499q0-27.639 17.655-44.077 17.655-16.559 49.921-16.559 32.145 0 49.921 16.559 17.655 16.438 17.655 44.077 0 27.518-17.655 44.077-17.777 16.438-49.921 16.438-32.266 0-49.921-16.438-17.655-16.559-17.655-44.077zm117.13 0q0-16.438-12.42-26.665-12.541-10.228-37.137-10.228-24.717 0-37.137 10.228-12.541 10.228-12.541 26.665t12.541 26.665q12.42 10.228 37.137 10.228 24.595 0 37.137-10.228 12.42-10.228 12.42-26.665z" fill="#c0bfbf" stroke-linecap="square" stroke-miterlimit="10" style="paint-order:stroke fill markers"/><path transform="matrix(0 -1 1 0 0 0)" d="m-178.15 445.03c0-22.621-5.9272-41.154-18.316-54.365-12.195-13.09-29.016-19.713-48.818-19.713-19.735 0-36.55 6.6285-48.818 19.709l-8e-3 0.01-0.01 8e-3c-12.304 13.215-18.18 31.737-18.18 54.352 0 22.538 5.8818 41.049 18.166 54.334l0.0156 0.0176 0.0156 0.0156c12.269 13.08 29.083 19.709 48.818 19.709 19.809 0 36.636-6.626 48.832-19.725 12.371-13.281 18.303-31.806 18.303-54.352zm-6.5 0c0 21.43-5.519 38.069-16.559 49.92-10.958 11.77-25.65 17.656-44.076 17.656-18.345 0-33.039-5.8862-44.078-17.656-10.958-11.851-16.438-28.49-16.438-49.92 0-21.511 5.4791-38.152 16.438-49.922 11.04-11.77 25.733-17.656 44.078-17.656 18.426 0 33.118 5.8862 44.076 17.656 11.04 11.77 16.559 28.411 16.559 49.922zm-23.742 0c0-16.478-3.41-28.857-10.229-37.137-6.8186-8.3608-15.706-12.543-26.664-12.543s-19.847 4.1821-26.666 12.543c-6.8186 8.2797-10.229 20.659-10.229 37.137 0 16.397 3.41 28.776 10.229 37.137 6.8185 8.2797 15.708 12.418 26.666 12.418s19.846-4.1383 26.664-12.418c6.8186-8.3608 10.229-20.74 10.229-37.137zm-6.5 0c0 15.49-3.2606 26.269-8.7598 33.018-5.7292 6.9495-12.319 10.037-21.633 10.037s-15.906-3.0876-21.635-10.037c-5.4991-6.7486-8.7598-17.528-8.7598-33.018 0-15.582 3.2727-26.36 8.7461-33.006l0.02-0.0234c5.7407-7.0392 12.324-10.148 21.629-10.148 9.3053 0 15.886 3.1093 21.627 10.148l0.02 0.0234c5.4734 6.6462 8.7461 17.424 8.7461 33.006zm-88.08 71.031-73.549-100.49 66.746-91.004h-45.061l-43 61.17-42.775-61.17h-45.041l66.482 91.004-73.289 100.49h45.143l49.697-70.781 49.469 70.781zm-12.812-6.5h-28.978l-52.844-75.611-53.088 75.611h-28.979l68.551-93.998-61.732-84.502h28.857l46.146 65.994 46.391-65.994h28.857l-61.977 84.502zm-167.37-64.531c0-22.621-5.9272-41.154-18.316-54.365-12.195-13.09-29.018-19.713-48.82-19.713-19.465 0-36.198 6.8028-48.586 20.088l-2e-3 2e-3c-12.424 13.331-18.426 31.742-18.426 53.988 0 22.442 6.248 40.994 19.115 54.314l8e-3 8e-3 8e-3 0.01c12.771 13.131 30.095 19.744 50.441 19.744 15.823 0 29.802-3.9483 41.23-12.014l6e-3 -4e-3c11.698-8.2 18.866-20.47 20.85-35.26l0.98828-7.3652h-37.4l-0.26757 6.2207c-0.24676 5.737-2.2022 9.1229-7.2188 12.324-5.3739 3.3993-11.249 5.0762-18.187 5.0762-9.1541 0-16.144-2.8382-22.324-8.9434-4.7056-4.7111-7.9716-12.02-9.5332-22.133h96.436zm-6.5 0v5.4785h-97.285c0.97408 14.936 5.0724 26.016 12.297 33.24 7.3056 7.2244 16.274 10.836 26.908 10.836 8.0361 0 15.261-2.0292 21.674-6.0879 6.4939-4.1398 9.9038-9.9841 10.229-17.533h23.742c-1.7858 13.312-7.8336 23.58-18.143 30.805-10.228 7.2244-22.728 10.838-37.502 10.838-18.995 0-34.255-5.9261-45.781-17.777-11.527-11.932-17.289-28.531-17.289-49.799 0-21.105 5.559-37.624 16.68-49.557 11.202-12.014 25.814-18.021 43.834-18.021 18.426 0 33.12 5.8862 44.078 17.656 11.04 11.77 16.559 28.411 16.559 49.922zm-24.23-12.543c-1.867-12.42-6.0472-21.714-12.541-27.883s-14.449-9.2539-23.865-9.2539c-9.1726 0-17.046 3.0848-23.621 9.2539-6.575 6.088-10.755 15.382-12.541 27.883zm-7.9902-6.498h-56.637c1.9764-7.5169 5.0569-12.95 9.0156-16.615l0.0156-0.0137 0.0156-0.0156c5.4751-5.1372 11.458-7.4922 19.174-7.4922 7.9966 0 14.032 2.3762 19.389 7.4648 3.9303 3.7338 7.0131 9.1938 9.0273 16.672z" stroke-linecap="square" stroke-miterlimit="10" style="paint-order:stroke fill markers"/></svg>
