<?xml version="1.0" encoding="UTF-8"?>
<!-- Created by ERK -->
<svg width="711.22" height="241.25" version="1.1" viewBox="0 60 711.22 241.25" xml:space="preserve" xmlns="http://www.w3.org/2000/svg"><title>Microsoft Windows Millenium Edition Logo</title><filter id="shadow"><feGaussianBlur stdDeviation=".5"/></filter><g transform="matrix(2.4046 -.11992 -.081764 2.6191 760.24 -398.86)" stroke-width="4.6928"><path d="m-224.37 257.04 24.924-60.007c-10.934-12.112-24.534-18.049-40.865-17.739l-25.083 60.561c15.313-2.032 28.903 3.7402 41.025 17.185z"/><path d="m-241.73 179.3-9.2214 0.54437-3.1254 7.6587 9.2214-0.86349z"/><path d="m-245.4 187.97-9.1464 0.62415-3.1958 7.6587 9.2918-0.85879z"/><path d="m-248.99 196.72-9.137 0.53967-3.2099 7.5883 9.2965-0.70862z"/><path d="m-252.58 205.47-9.2261 0.54906-3.1207 7.579 9.2214-0.78371z"/><path d="m-256.17 214.06-9.2214 0.54907-3.1301 7.5836 9.2965-0.78371z"/><path d="m-259.85 222.97-9.2261 0.55375-3.1207 7.6587 9.2214-0.7837z"/><path d="m-263.53 231.73-9.1417 0.55376-3.2005 7.6493 9.2918-0.86348z"/><path d="m-260.63 178.9-2.8955 6.9595 8.5175-0.70392 2.8955-6.8703z"/><path d="m-258.6 193.98 2.8157-6.875-8.5175 0.61946-2.8955 6.9548z" fill="#e5360c"/><path d="m-262.13 202.42 2.8955-6.9548-8.5926 0.69924-2.8157 6.875z" fill="#e5360c"/><path d="m-271.42 204.93-2.9706 6.9548 8.6771-0.70393 2.811-6.9548z"/><path d="m-275.17 213.75-2.811 6.9501 8.5926-0.68516 2.8204-6.9642z" fill="#0c47a4"/><path d="m-278.69 222.2-2.811 6.9501 8.602-0.70393 2.8861-6.9548z" fill="#0c47a4"/><path d="m-276.57 237.19 2.8861-6.875-8.5081 0.61945-2.8955 6.8797z"/><path d="m-261.02 175.08-7.1894 0.31442-2.5764 6.1758 7.2645-0.3989z"/><path d="m-271.89 184.29-2.5764 6.096 7.2645-0.38951 2.5107-6.0209z" fill="#e5360c"/><path d="m-275.4 192.66-2.5013 6.1711 7.2645-0.3895 2.5013-6.0209z" fill="#fe0000"/><path d="m-271.81 201.17-7.2645 0.22995-2.5013 6.1758 7.2739-0.38482z"/><path d="m-282.75 210.32-2.5764 6.1711 7.3443-0.38481 2.4966-6.0913z" fill="#0c47a4"/><path d="m-286.19 218.76-2.5013 6.0162 7.1894-0.30503 2.5764-6.096z" fill="#0c47a4"/><path d="m-285.09 233.22 2.5013-6.096-7.1894 0.30972-2.5764 6.0819z"/><path d="m-275.4 172.81-1.7927 4.3784 5.7769-0.23934 1.8771-4.4488z"/><path d="m-279.07 181.64-1.7974 4.3737 5.7816-0.22525 1.8771-4.4582z" fill="#e5360c"/><path d="m-282.59 190-1.7974 4.3784 5.8661-0.15955 1.8678-4.6084z" fill="#e5360c"/><path d="m-280.32 198.44-5.8661 0.31442-1.8724 4.3784 5.8661-0.14548z"/><path d="m-289.86 207.58-1.8724 4.4582 5.9412-0.23464 1.7974-4.538z" fill="#0c47a4"/><path d="m-293.37 216.03-1.802 4.4535 5.8661-0.23465 1.7927-4.5333z" fill="#0c47a4"/><path d="m-297.04 224.77-1.8068 4.4582 5.8614-0.23465 1.8771-4.5286z"/><path d="m-277.98 170.23 1.5627-3.7543-4.4535 0.62884-1.4876 3.6698z"/><path d="m-284.55 175.94-1.5627 3.6792 4.4488-0.54906 1.5627-3.8247z" fill="#e5360c"/><path d="m-288.06 184.38-1.5627 3.6698 4.4535-0.54437 1.6425-3.8247z" fill="#e5360c"/><path d="m-291.66 193.13-1.5627 3.6792 4.3737-0.54906 1.6425-3.8341z"/><path d="m-295.33 201.96-1.4782 3.6651 4.369-0.53967 1.5674-3.7496z" fill="#0c47a4"/><path d="m-298.85 210.39-1.4782 3.6698 4.369-0.54437 1.5627-3.8294z" fill="#0c47a4"/><path d="m-302.52 219.15-1.4078 3.5994 4.3784-0.47867 1.5627-3.8247z"/><path d="m-286.19 162.57-1.0887 2.5013 3.3507-0.0798 1.1779-2.7359z"/><path d="m-289.78 171.32-1.0934 2.5811 3.285-0.0798 1.0887-2.7312z" fill="#e5360c"/><path d="m-293.29 179.68-1.0184 2.5811h3.2005l1.0934-2.7359z" fill="#e5360c"/><path d="m-296.89 188.44-1.0887 2.5717h3.2803l1.1685-2.7359z"/><path d="m-300.56 197.34-1.0934 2.5013 3.2803-0.0751 1.0887-2.5764z" fill="#0c47a4"/><path d="m-304.08 205.79-1.0934 2.5764 3.285-0.0751 1.1638-2.6655z" fill="#0c47a4"/><path d="m-307.75 214.54-1.0184 2.5858 3.285-0.0892 1.0934-2.7359z"/><path d="m-236.41 208.59 7.9684-19.142c-3.9044-1.3328-9.0666-1.8724-15.468-1.7223l-7.8981 19.072c5.8614-0.23933 11.024 0.3989 15.397 1.7927z" fill="#e5360c"/><path d="m-210.08 198.6c-3.5947-3.6745-7.8183-6.2509-12.657-7.8183l-8.128 19.616 5.4672 2.2666c2.1024 0.8541 4.5286 2.5811 7.3396 5.2372z" fill="#0c6d3b"/><path d="m-220.39 223.38c-3.5994-3.6041-7.8934-6.0256-12.816-7.349l-7.8136 18.828c4.5286 1.5674 8.7568 4.1438 12.821 7.579z" fill="#fcd844"/><path d="m-246.41 232.82 7.5742-18.283c-4.7679-1.5627-9.916-2.1869-15.388-1.7974l-7.7338 18.527c4.6084-0.24872 9.7658 0.30973 15.547 1.5533z" fill="#0c47a4"/></g><g transform="matrix(.53087 0 0 .53087 -318.89 375.69)" stroke-width="1.8837"><path transform="matrix(1.8837 0 0 1.8837 600.68 -707.68)" d="m278.99 276.64c0.34395-0.2186 4.1563-0.4011 8.4719-0.4055 8.2052-0.01 9.2758 0.2479 9.765 2.3368 0.13423 0.5732 0.24404-1.1854 0.24404-3.9079 0-2.7226-0.11527-4.4811-0.25615-3.908-0.49704 2.0221-1.2068 2.3448-5.1579 2.3448-3.7017 0-3.8441-0.046-3.8441-1.2405 0-0.9298 1.173-2.2022 4.6831-5.0803l4.6831-3.8398-0.0205-3.1264-0.0205-3.1263-0.81029 1.9535c-0.55367 1.3349-2.1541 3.0239-5.0534 5.3332l-4.2431 3.3797-0.54604-1.6218c-1.1545-3.4289-4.7206-4.6092-7.2546-2.4011-1.6219 1.4132-2.3689 5.2236-2.324 11.854 0.0234 3.4564 0.14288 4.1462 0.544 3.1411 0.28269-0.7084 0.7954-1.4668 1.1394-1.6855zm-0.43113-4.6272c-0.5462-1.721 0.21138-4.5406 1.4538-5.4108 3.0542-2.1393 6.5512-0.088 7.0256 4.121l0.26794 2.3772h-4.2011c-3.8018 0-4.2339-0.1034-4.5462-1.0874zm15.713-16.586c1.7271-0.7843 2.3274-1.4391 3.0474-3.3244 1.2937-3.3874 0.17883-6.3637-2.9886-7.9784l-1.6885-0.8608 1.4329 1.3461c3.26 3.0626 0.72191 9.2118-3.8022 9.2118-0.94159 0-1.0176-0.3892-1.0176-5.2106 0-2.8658-0.12477-5.2106-0.27727-5.2106-0.15249 0-1.0988 0.3433-2.103 0.7629-1.2409 0.5185-2.07 1.3476-2.5886 2.5885-1.0064 2.4086-0.9653 3.1962 0.30346 5.8171 1.7249 3.5631 5.6064 4.7091 9.6819 2.8584zm-8.664-2.6478c-1.9409-1.9409-0.7938-5.7317 1.7345-5.7317 0.72441 0 0.87083 0.5695 0.87083 3.3869 0 3.7285-0.64292 4.3071-2.6053 2.3448zm5.102-13.434c5.5221-0.1394 5.8832-0.2156 6.6641-1.4074 0.88938-1.3574 0.65759-2.8815-0.63479-4.1738-1.1045-1.1045-1.8816-0.9776-1.1535 0.1884 0.33424 0.5352 0.46082 1.3559 0.2813 1.8237-0.27332 0.7123-1.2189 0.8506-5.8139 0.8506h-5.4874l-0.0834-1.6934-0.0834-1.6935-0.21016 1.6935c-0.18563 1.4958-0.40386 1.7006-1.8706 1.7551-0.91324 0.034-1.8363 0.034-2.0512 0-0.91363-0.1443-0.28782 0.8601 0.86252 1.3842 0.68931 0.3141 1.6858 1.3033 2.2145 2.1983 0.93696 1.5862 0.96832 1.5969 1.2443 0.4244 0.27221-1.1565 0.5077-1.2085 6.1216-1.3501zm0.53316-9.4922c4.8235 0 5.1834 0.074 5.7132 1.1723 0.46229 0.9586 0.57045 0.4596 0.593-2.7355 0.0245-3.4768-0.0449-3.7642-0.62978-2.6053-0.60877 1.2063-0.96457 1.3123-4.8121 1.4329-3.4301 0.1075-4.3787-0.044-5.4386-0.868-1.171-0.9104-1.2222-1.1135-0.58208-2.3096 0.79848-1.4919 0.45086-2.9448-0.7046-2.9448-1.0406 0-1.9954 1.874-1.5959 3.1324 0.17611 0.5549 0.92415 1.4839 1.6623 2.0646l1.3421 1.0557h-1.6334c-1.9104 0-1.8784-0.1123-0.76296 2.6755 0.78472 1.9612 0.91139 2.0649 1.2858 1.0526 0.38694-1.046 0.76784-1.1228 5.5631-1.1228zm2.8725-10.611c4.209-1.7587 5.0991-7.9489 1.545-10.745-1.8208-1.4323-2.6795-1.3283-1.2855 0.1557 2.5824 2.7488 0.74208 7.7863-3.1658 8.6657l-1.954 0.4397v-5.1557c0-5.0177-0.0318-5.1557-1.1867-5.1557-1.7742 0-3.3477 1.338-4.0398 3.4351-1.9797 5.9987 3.9586 10.92 10.087 8.3598zm-8.5077-2.9369c-0.57316-0.5732-1.0421-1.6283-1.0421-2.3448 0-1.4403 1.6471-3.3869 2.8658-3.3869 0.61458 0 0.78159 0.7237 0.78159 3.3869 0 3.7285-0.64292 4.3071-2.6053 2.3448zm-2.272-18.164c2.2526-1.7579 4.2368-3.197 4.4092-3.1978 0.91977 0 7.6688 6.6095 8.6601 8.4871l1.1577 2.1929-0.0184-4.1685c-0.0133-3.0163-0.1486-3.8444-0.48959-2.996-0.25918 0.6448-0.69016 1.1723-0.95773 1.1723-0.62405 0-6.8419-5.245-6.8419-5.7714 0-0.5495 5.8597-5.1621 6.5638-5.1669 0.31443 0 0.82613 0.5237 1.1371 1.1685 0.44878 0.9305 0.56421 0.1512 0.55955-3.7776-5e-3 -3.8574-0.11919-4.6404-0.51921-3.5472-0.28946 0.7911-2.6635 3.1324-5.4434 5.3683l-4.9301 3.9653-3.6826-3.2728c-2.0254-1.8001-4.1193-4.0986-4.653-5.1078l-0.97043-1.8348 0.01 4.1684c7e-3 3.0099 0.14098 3.8426 0.48124 2.9961 0.25918-0.6448 0.82184-1.1724 1.2503-1.1724 0.90913 0 5.9334 4.1715 5.9899 4.9733 0.0506 0.7178-4.8049 4.4058-5.8007 4.4058-0.4265 0-1.0299-0.5276-1.3409-1.1724-0.44632-0.9255-0.57044-0.02-0.58924 4.2987l-0.0238 5.4711 0.97318-2.143c0.67665-1.49 2.2212-3.1169 5.0689-5.3392zm11.078-19.065c5.3803-2.7823 4.1753-11.605-1.8109-13.258-3.9302-1.0852-8.1142 1.4737-8.8536 5.4147-0.49304 2.6281 0.94585 6.1605 3.0614 7.5156 1.9733 1.264 5.4984 1.4158 7.603 0.3274zm-6.6968-2.401c-2.0899-0.468-3.1518-1.6899-3.1518-3.6265 0-4.5462 10.684-6.2687 12.196-1.9662 1.2745 3.628-3.8013 6.7669-9.044 5.5927z"/><path transform="translate(1190,6)" d="m217.14-149.07c-12.794-3.2224-22.391-12.225-30.347-28.469-8.1278-16.594-10.567-27.156-11.15-48.28-0.53759-19.48 0.82441-30.036 5.8822-45.586 10.066-30.949 28.359-46.567 50.927-43.481 17.213 2.354 34.524 24.733 40.003 43.709 5.7035 19.755 5.5983 44.14 2.5255 63.632-6.2204 28.777-17.634 47.578-33.586 55.323-7.204 3.4978-17.545 4.8415-24.254 3.1516zm22.58-13.652c4.8022-3.3941 9.8878-12.16 12.051-20.771 3.8061-15.152 4.5647-48.028 1.5918-68.982-2.9605-20.867-10.53-40.47-18.143-46.987-10.927-9.3528-23.609-5.1688-30.574 10.087-4.4062 9.6506-6.3707 20.439-6.9876 38.375-1.2987 37.757 6.8896 72.874 20.064 86.049 6.5918 6.5918 14.667 7.4104 21.997 2.2298zm-272.48 10.744c-0.0825-1.1369-0.195-2.6241-0.25-3.3048-0.05964-0.73815 1.8065-1.5104 4.624-1.9134 10.754-1.5383 14.551-7.5883 15.834-25.232 1.175-16.159 1.1371-220.66-0.04388-236.8-1.0396-14.206-2.2941-18.196-6.9545-22.117-2.5393-2.1366-4.2447-2.7033-8.136-2.7033-2.7078 0-4.9567-0.3375-4.9976-0.75s-0.2559-1.7157-0.47785-2.8959c-0.22194-1.1803 0.18305-2.6328 0.89998-3.2278 0.90779-0.7534 18.259-1.0127 57.156-0.85406l55.852 0.22777 0.6676 2.5c0.36718 1.375 0.99347 16.562 1.3918 33.75l0.72416 31.25h-2.5244c-2.8451 0-2.4385 1.5395-5.1479-19.488-2.5558-19.835-7.4535-30.303-15.182-32.45-2.1538-0.59811-14.019-1.0534-27.535-1.0566l-23.75-6e-3v124.15l19.25-0.32646c22.328-0.37866 25.612-1.308 29.421-8.3265 2.4822-4.5737 5.3292-17.306 5.3292-23.833 0-6.4057 1.0487-10.667 2.625-10.667 1.1481 0 1.375 8.1577 1.375 49.441 0 35.196-0.32032 49.639-1.1118 50.128-1.8762 1.1595-2.5867-1.3435-3.2932-11.6-1.1337-16.46-4.2358-24.497-11.049-28.624-2.6314-1.594-5.7371-1.8892-22.831-2.1704l-19.786-0.32549 0.2855 63.325c0.32032 71.048 0.048056 68.437 7.3898 70.86 5.7835 1.9087 39.658 0.79883 45.133-1.4788 9.769-4.0636 16.723-17.634 25.268-49.306 3.0336-11.245 3.4972-12.25 5.6499-12.25 1.5728 0 2.3399 0.57634 2.3294 1.75-0.0087 0.9625-2.466 16.355-5.4607 34.206-2.9947 17.851-5.3174 32.584-5.1615 32.739 0.74996 0.74996 4.854-4.2873 8.8646-10.88 15.33-25.201 34.107-57.326 34.107-58.353 0-0.66569-5.1852-10.83-11.523-22.586-6.3374-11.757-14.099-26.377-17.248-32.488-6.6672-12.942-11.091-18.001-17.155-19.623-4.4549-1.1915-6.252-3.8188-3.9301-5.7458 0.83432-0.69242 9.4791-0.96289 25.147-0.78677l23.875 0.2684 0.31643 2.75c0.25156 2.1863-0.0923 2.75-1.6774 2.75-1.0966 0-2.9265 1.1857-4.0664 2.6349-3.434 4.3656-2.7235 9.0252 3.0596 20.067 6.0826 11.613 16.789 29.307 17.715 29.277 0.91347-0.0299 14.397-23.113 18.095-30.979 1.681-3.575 3.055-8.075 3.0533-10-4e-3 -4.9429-3.2876-9.9084-7.0494-10.661-2.5814-0.51629-3.0059-1.0142-2.7494-3.2249l0.30333-2.6143h39l0.29971 2.5768c0.25918 2.2283-0.23619 2.7374-3.6623 3.7639-4.9846 1.4934-11.774 8.8429-18.737 20.281-23.292 38.265-24.708 40.906-23.435 43.707 0.66785 1.4692 7.4058 14.146 14.973 28.171s16.159 30.127 19.092 35.783c6.1061 11.775 10.336 16.647 15.901 18.314 4.0074 1.2006 5.8349 4.0358 3.7155 5.764-0.65676 0.53554-12.257 0.87172-27.147 0.78677l-26-0.14833-0.30469-2.6284c-0.26538-2.2893 0.13951-2.7118 3.1379-3.2743 1.8934-0.35521 4.6644-1.8676 6.1578-3.361 4.5267-4.5267 3.3925-8.3578-10.643-35.948-6.7915-13.351-12.573-24.268-12.848-24.262-0.275 7e-3 -5.5208 8.441-11.657 18.743-11.504 19.313-16.343 29.743-16.343 35.228 0 3.9069 4.5164 8.7558 8.9884 9.6502 2.6491 0.52983 3.0726 1.0169 2.8149 3.238l-0.30333 2.6143-149.5 0.63431z" fill="#e5360c" stroke-width="1.8837"/><path transform="translate(1190,6)" d="m405.55-448.05c-4.8644 0-13.639 0.29376-19.5 0.65235l-10.656 0.65234v2.7363c0 2.3204 0.51689 2.8344 3.3984 3.375 10.433 1.9572 12.786 11.981 9.1738 39.084-0.12925 0.96967-1.6789 10.705-2.0547 13.244-4.5613 30.814-24.459 159.37-24.93 160.76-0.60188 1.7664-1.3337-2.6747-14.02-85-5.3354-34.624-7.2421-47.584-9.3848-62.189-3.6559-24.92-5.1785-37.418-5.1602-45.783 0.0315-14.38 3.1489-20.527 10.412-20.527 2.1842 0 2.5644-0.44617 2.5644-3v-3h-50v2.9219c0 2.4036 0.50936 3.0312 2.875 3.5508 8.3966 1.8442 11.812 11.693 18.164 52.381l2.9004 18.576 1.0586 6.7773-9.5234 68.088c-5.2377 37.449-9.659 68.223-9.8242 68.389-0.21395 0.21393-12.091-77.155-20.494-132.37-2.1785-14.314-3.8075-24.182-5.3125-34.316-3.7762-25.427-3.9487-35.195-0.73046-41.686 1.989-4.0113 3.0113-4.9682 6.1367-5.7402 3.2292-0.79772 3.75-1.3185 3.75-3.75v-2.8242h-47l0.0371 2.75c0.0293 2.2241 0.83171 3.1325 4.1973 4.75 4.7192 2.2681 6.8851 5.7998 9.1992 15 0.4318 1.7167 7.0437 44.559 11.215 71.01 3.8469 24.395 5.0531 31.054 10.344 65.49 11.027 71.775 20.316 131.96 20.641 133.75 0.52438 2.8844 0.95798 3.25 3.8633 3.25 3.2367 0 3.2815-0.0646 3.9785-5.75 0.38772-3.1625 3.3231-24.425 6.5215-47.25 3.1984-22.825 8.4345-60.321 11.637-83.324 3.3118-23.79 6.1316-41.038 6.5391-40 0.39399 1.0033 6.5946 40.074 13.779 86.824 7.1847 46.75 13.292 86.012 13.574 87.25 0.75231 3.3042 4.1704 2.9543 4.8848-0.5 0.31281-1.5125 3.9688-24.8 8.123-51.75 24.495-158.91 28.308-183.15 28.979-185.28 0.0101-0.0321 0.22254-1.4093 0.43555-2.7871-0.21661 1.4012-0.42531 2.7545-0.43555 2.7871 4.1104-1.1537 2.431-0.68168 6.5645-1.8418 0.49499 0.6207 1.185 1.1583 1.498 1.7637 3.1199 6.0332 3.5544 22.77 3.1738 122.18-0.28281 73.879-0.67835 99.096-1.5996 101.89-1.9115 5.8066-5.7308 9.6894-10.238 10.41-3.2709 0.52303-3.9102 1.013-3.9102 2.998v2.3711h82v-3c0-2.739-0.29285-3-3.3652-3-3.8918 0-7.9952-2.8645-10.193-7.1152-2.9264-5.6591-3.5155-24.518-3.2266-103.38l0.28515-78 6.1035 15.5c3.3569 8.525 20.653 53.206 38.434 99.289 25.171 65.237 32.676 83.721 33.896 83.486 1.4059-0.27053 1.5921-8.9475 1.8066-84.287 0.44412-155.93 0.41276-154.34 3.0195-159.22 2.3975-4.487 6.4912-7.2715 10.691-7.2715 2.053 0 2.5488-0.48702 2.5488-2.5v-2.5h-42v2.5c0 2.1202 0.46449 2.5 3.0508 2.5 5.0305 0 8.9176 2.6951 11.287 7.8223 2.1582 4.6699 2.1638 4.8451 2.3672 90.678 0.11582 48.883-0.16979 85.137-0.66015 84-1.4098-3.2682-68.724-180.8-69.48-183.24-1.202-3.885-2.0218-4.6794-16.998-4.6836-4.04-1e-3 -8.5394 0.0324-15.039 0.10547l-28.686 0.32226 0.54688-2.75c0.30072-1.5128 1.0374-5.6048 1.6387-9.0918 1.5534-9.0095 4.6299-18.454 6.9863-21.449 1.1099-1.411 3.5856-3.0824 5.502-3.7148 3.0764-1.0153 3.4844-1.5505 3.4844-4.5723v-3.4238zm186.54 44.139c-20.704 0.58339-34.883 13.383-46.17 41.381-4.0549 10.058-4.1893 11.054-1.6621 12.406 1.6081 0.86064 2.5449-0.0563 6.9238-6.7793 5.8438-8.9721 10.969-13.934 18.432-17.846 4.5608-2.3909 6.4512-2.773 13.785-2.7852 7.5701-0.0125 9.0878 0.31097 13.865 2.957 6.3591 3.5222 11.075 8.9723 14.793 17.094 2.2659 4.9493 2.7858 7.6951 3.1562 16.686 0.70781 17.179-2.7541 29.282-11.527 40.303-5.1774 6.5037-16.429 14.17-25.029 17.055-5.6536 1.8964-6.8077 2.666-7.0625 4.707-0.28817 2.3078 0.047 2.478 6.1797 3.1348 14.738 1.5783 29.771 12.659 36.561 26.947 5.8729 12.36 7.5644 20.656 7.5644 37.102 0 11.056-0.39252 15.156-1.8711 19.5-5.1987 15.272-14.392 26.564-24.127 29.633-8.6916 2.7398-15.924 1.1063-28.793-6.502-15.087-8.9197-20.707-9.1007-25.752-0.82617-2.4732 4.0562-2.4529 6.0387 0.11523 11.344 2.3209 4.7943 6.9402 8.1188 13.879 9.9902 6.2045 1.6734 25.097 1.6357 33.127-0.0664 27.791-5.8913 48.006-29.674 54.449-64.061 1.2736-6.7971 1.5669-12.485 1.2109-23.49-0.53783-16.627-1.9085-22.741-7.7793-34.734-4.5728-9.342-13.499-19.215-21.541-23.824-2.7046-1.5501-5.0746-2.9314-5.2656-3.0703-0.19096-0.13891 2.5242-3.5466 6.0332-7.5723 13.717-15.736 20.209-28.573 22.301-44.094 0.82225-6.1006-1.0692-18.781-3.7637-25.227-7.8667-18.817-20.33-28.481-37.803-29.316-1.4393-0.0688-2.8483-0.0838-4.2285-0.0449zm-163.36 10.02c1.0832 0.13329 2.4156 0.75728 4.1641 1.8379 4.0958 2.5314 7.764 7.8243 11.506 16.598l2.9473 6.9062 0.0195 95c0.0127 61.709-0.34873 97.27-1.0312 101.48-1.2048 7.4257-3.757 12.168-7.457 13.854-6.0825 2.7714-10.368 0.95013-14.176-6.0254-1.7065-3.126-1.8027-9.1766-1.8027-112.8 0-100.89 0.13376-109.79 1.6992-113.25 0.96905-2.1389 1.8766-3.2965 3.125-3.5606 0.31211-0.066 0.64479-0.0757 1.0059-0.0312zm197.67 84.842v2.5c0 1.8782 0.52714 2.5 2.1152 2.5 3.8314 0 9.8999 4.3163 13.299 9.457 1.834 2.7739 5.1426 8.643 7.3516 13.043 2.2089 4.4 9.4649 18.039 16.125 30.309 6.6601 12.27 12.109 22.456 12.109 22.635 0 0.61055-31.873 54.035-36.725 61.557-3.2506 5.0396-6.0555 8.1561-8.5527 9.5-2.5925 1.3952-3.7168 2.6804-3.7188 4.25l-4e-3 2.25h38v-2.3887c0-1.447-0.37182-2.1373-1.7285-2.6113h-2e-3c-0.45274-0.158-1.0141-0.29151-1.709-0.42187-0.55902-0.10488-1.1128-0.271-1.6523-0.49024h-2e-3c-2.1605-0.87837-4.107-2.6067-5.3789-4.6445-0.63593-1.0189-1.103-2.1162-1.3438-3.2226-0.1204-0.55324-0.1836-1.1084-0.1836-1.6582 0-5.3962 5.4445-17.006 16.791-35.809 4.4178-7.3209 8.3658-13.645 10.186-16.35 0.60656-0.90151 0.97665-1.4001 1.0488-1.4004 1.1021-5e-3 24.828 47.681 25.494 51.24 0.38544 2.0589 0.4148 4.8856 0.0644 6.2812-0.44789 1.7845-2.6518 3.8654-5.0723 5.1758-0.96783 0.52381-1.9724 0.92489-2.9121 1.1348-0.47012 0.10489-0.92337 0.16136-1.3496 0.16211-0.64962 1e-3 -1.1279 0.0823-1.4726 0.28516-0.11492 0.0676-0.21625 0.14996-0.30274 0.24609-0.34596 0.38451-0.47461 1.0083-0.47461 1.9707v2.5h54v-2.2637c0-1.8168-0.99578-2.6195-5.0312-4.0527-3.6829-1.308-6.2446-3.2258-9.2461-7.6387-1.2006-1.7651-2.4709-3.9291-3.9121-6.6133-0.72061-1.3421-1.4845-2.8145-2.3027-4.4316-2.3655-4.675-11.098-21.054-19.404-36.398-8.3067-15.345-15.104-28.353-15.104-28.906 0-1.5772 25.787-44.431 31.217-51.877 3.9625-5.4341 9.2195-9.6405 13.053-10.607 0.54685-0.13779 1.0658-0.21094 1.5469-0.21094 0.65135 0 1.1836-1.125 1.1836-2.5v-2.5h-40v2.5c0 1.8094 0.53813 2.5 1.9453 2.5 1.0693 0 3.1379 1.0276 4.5976 2.2832 3.6662 3.1535 4.3139 9.4792 1.6777 16.396-1.9311 5.0674-19.082 34.819-19.689 34.156-0.64838-0.7071-3.8582-6.0304-7.4473-12.213-3.5891-6.1825-7.5576-13.224-9.7246-17.367-5.5639-10.637-6.4397-14.79-4.1699-19.771 0.18319-0.40207 0.41738-0.77932 0.6914-1.125 0.82206-1.0365 2.01-1.7872 3.3086-2.0469 0.80037-0.16007 1.3966-0.35867 1.8281-0.64062 0.71819-0.46992 0.98242-1.1705 0.98242-2.2969v-2.375h-25z" fill="#0e0e0c" stroke-width="1.8837"/></g></svg>
