<?xml version="1.0" encoding="UTF-8"?>
<!-- Created by ERK -->
<svg width="1876.3" height="872.57" version="1.1" viewBox="0 0 1876.3 872.57" xml:space="preserve" xmlns="http://www.w3.org/2000/svg"><path d="m1580.9 1.9179c-11.35 8.7402-22.762 17.451-33.236 27.244-21.136 19.505-40.207 41.074-60.217 61.699-13.253 13.798-26.928 27.195-41.116 40.029-11.569 10.597-23.333 20.98-35.019 31.449-2.995-22.78-7.3812-45.369-12.928-67.662-2.2543-8.8505-4.9062-17.59-7.4328-26.365-2.8397-10.018-5.062-20.195-7.45-30.326-0.6372-2.4685-1.7123-4.7998-2.5187-7.2345-2.8171-8.505-2.7111-12.232-8.6465-1.6988-1.084 1.9237-9.7009 14.478-14.466 21.667-10.471 15.085-20.417 30.535-29.662 46.4-9.4122 15.795-18.616 31.739-29.075 46.805-0.8899 1.2839-1.7838 2.5648-2.6982 3.8314-4.4194-10.597-8.4228-21.402-11.17-32.564-0.8515-3.1715-1.7004-6.3436-2.5545-9.5144-8.2931 12.976-17.219 25.511-26.957 37.458-6.681 8.2169-13.487 16.34-20.634 24.157-4.4924 4.8496-9.1833 9.5306-14.26 13.771-0.3927 0.4702-0.5257-0.65731-0.7823-0.95205-3.8293-7.9179-7.3052-16.044-9.6962-24.523-0.2231-0.87256-0.5237-1.9034-0.7343-2.7992-1.0223-4.001-1.606-7.8887-2.1057-11.97-0.3596-2.9784-0.7273-5.9558-1.0917-8.9337-7.977 5.7604-15.472 12.328-21.442 20.192-7.4674 9.4906-13.446 20.077-20.685 29.691-0.6182-6.6141-0.8677-13.227-0.7405-19.91 0.1046-6.1067 0.5786-12.212 1.2732-18.284 0.425-3.8643 0.3293-7.7614 0.5013-11.641 0.091-3.1583 0.1826-6.3165 0.2726-9.4748-4.0637 5.6797-8.461 11.119-12.31 16.951-1.7355 2.761-3.4487 5.5376-5.3625 8.1816-12.764 18.036-29.303 33.115-41.853 51.356-0.6501 0.94078-1.2849 1.8919-1.9101 2.8493-7.4332-23.729-10.961-48.387-16.09-72.655-2.654-12.739-7.5292-28.39-9.9852-37.729-2.456-9.3394-1.2892-10.805-6.8765-0.68634-5.5873 10.118-5.3777 9.4593-8.0029 14.224-11.895 21.72-22.557 44.097-32.257 66.88-6.7478 15.638-12.799 31.618-19.864 47.092-1.3182 2.873-2.6653 5.7328-4.0664 8.5664-2.9702-10.418-6.0413-20.864-8.1172-31.441-1.1234-5.7748-2.0232-11.828-2.3554-17.806-0.27062-5.2054-0.36792-10.536-0.57067-15.795-0.0783-2.3395-0.15672-4.6791-0.23604-7.0186-6.4956 9.9369-13.537 19.616-18.479 30.463-4.3452 9.4174-7.8598 19.183-11.832 28.758-2.2845 5.4549-4.7451 10.897-7.6663 16.111-5.5529 10.025-12.298 19.407-20.181 27.732-2.4311-14.599-5.9466-29.136-12.032-42.679-4.0437-9.5062-8.4645-18.942-11.884-28.628-2.6356-7.4511-5.0281-14.939-7.2148-22.54-2.3469-8.1273-4.5201-16.369-6.7419-24.556-0.71857-2.3184-1.8087-4.4997-2.6695-6.767-1.5204-3.7229-3.0398-7.4462-4.5613-11.169-1.1802 5.1907-2.4724 10.291-3.812 15.457-1.2128 4.8008-1.3903 9.7605-2.4466 14.589-3.7039 19.479-11.41 37.941-19.804 55.779-4.9918 10.718-10.408 21.243-14.885 32.194-3.8661 9.5181-7.0225 19.4-8.4121 29.605-12.453-18.025-24.45-36.362-36.31-54.779-1.3384-1.9403-4.4694-2.3444-6.1132-0.56897-1.5688 1.5866-1.2891 3.9888-1.6686 6.0126-0.72115 5.5055-1.9113 11.05-3.7931 16.332-2.634 7.6705-6.1776 15.127-9.2967 22.661-1.4628 3.5075-2.8156 7.1354-4.586 10.434-1.5229 2.8169-3.6124 5.5062-6.6074 6.8438-4.9979 2.2498-10.886 1.4712-15.681-0.92504-2.8361-1.3203-5.3893-2.9736-7.8616-4.905-0.79597-0.64489-1.7919-1.4576-2.6242-2.2182-2.7384-2.4568-5.203-5.1205-7.5661-7.8557-4.9869-5.8379-9.6572-11.991-15.358-17.173-7.4758-6.8952-16.196-12.39-23.09-19.923-2.7414-2.9746-5.0571-6.3466-6.6966-10.052-1.8421-4.0855-3.4137-8.2855-5.1921-12.399-1.3988-3.3667-2.7975-6.7334-4.1964-10.1-2.5746 20.016-4.9036 40.081-5.9653 60.242-1.3012 22.689-1.4556 45.447-0.44877 68.152-5.6849-1.6482-10.658-5.0745-15.299-8.5704-10.616-8.0848-19.964-17.703-30.741-25.586-5.9305-4.5382-12.076-8.9862-16.818-14.851-2.2786-2.7686-4.1099-6.0635-5.3568-9.4804-1.3178-3.6552-2.4973-7.3571-3.8226-11.01-1.0453-3.0014-2.0901-6.0029-3.1371-9.0036-1.5924 7.1766-3.5406 14.269-5.1088 21.45-2.2075 9.5771-2.0485 19.456-2.7396 29.205-0.33671 4.596-0.77876 9.142-1.7882 13.617-0.82225 3.7574-2.2468 7.5383-3.8728 11.091-4.513 9.749-10.765 18.537-15.787 28.011-2.2214 4.178-4.2222 8.4888-5.7226 12.982-4.8672-1.746-8.8238-5.282-12.428-8.8132-5.4886-5.4428-10.891-11.131-17.563-15.152-6.5117-4.1227-13.004-8.1806-19.332-12.69-6.3446-4.5204-9.3406-6.2043-16.435-9.2629-5.4101-2.3324-10.307-3.4781-15.494-6.4202-7.7937-4.1124-14.363-10.072-21.266-15.463-1.5125-1.1538-2.9578-2.4367-4.6084-3.3828-2.6161-1.1023-5.8884 1.3559-5.5059 4.1836 2.333 54.03 1.656 108.15-0.78906 162.17-3.9-3.1434-7.4926-6.6557-11.519-9.6452-7.008-5.5339-14.176-10.827-20.956-16.61-8.7498-7.2129-17.395-14.638-27.052-20.632-5.4929-2.4504-10.985-4.9029-16.479-7.3516 2.986 4.9842 5.6476 10.115 8.4512 15.195 1.8089 2.9601 4.0938 5.5977 5.8562 8.5894 7.544 11.953 12.608 25.343 18.027 38.39 3.6307 8.8373 7.5125 17.581 11.934 26.054 2.2298 4.3482 4.5494 8.6512 6.9642 12.9-2.6001 0.74335-5.3407 1.4101-7.9731 1.9585-9.9739 2.1241-20.233 3.1073-30.384 4.3235-12.901 1.4663-25.846 3.3269-38.233 7.3518-10.738 3.2888-21.41 7.083-32.289 9.7276-9.7903 2.3711-19.7 4.2988-29.632 5.7736-22.332 3.3572-44.838 4.7545-67.373 6.1268-2.5582 0.18585-5.1401 0.21483-7.6752 0.60895-2.0594 0.46273-4.0698 1.1545-6.0377 1.9008-2.4212 1.3205-2.729 5.2712-0.375 6.8106 1.8932 0.98629 3.8188 1.9459 5.8223 2.6868 2.604 0.79663 5.331 1.1502 7.8689 2.1721 6.0332 2.1521 11.581 5.5067 16.786 9.11 8.9313 6.2586 17.532 13.178 27.085 18.533 11.312 6.5913 23.207 12.233 33.732 20.106 1.0522 0.78355 2.1525 1.6473 3.1901 2.507-25.491 17.028-50.165 35.266-74.065 54.459-2.4854 1.5856-3.3019 5.5238-1.1721 7.7245 1.5909 1.7941 4.2387 1.8554 6.4129 1.35 14.517-2.0964 29.109-3.4494 43.784-4.0418 12.413-0.50184 24.997-0.44634 37.413 0.143 1.0724 0.0455 2.1441 0.10452 3.2156 0.1683-9.3061 19.937-13.187 41.756-19.756 62.629-2.9812 9.3836-6.6091 18.744-11.683 27.309-1.3582 2.286-2.8045 4.4998-4.3264 6.6051-2.8209 3.9779-6.1548 7.5564-8.9833 11.528-2.8166 3.7683-5.6507 7.5234-8.4777 11.284 7.9997-2.8317 16.196-5.1866 23.899-8.7896 6.7738-3.1562 13.577-6.2503 20.289-9.5398 21.728-10.553 42.954-22.255 62.812-36.044 2.4535 41.125 1.7315 82.471-2.1894 123.47-0.76534 8.0579-1.6406 16.129-2.498 24.182 0.0367 0.68304 0.79413 1.1584 1.4237 0.89016 0.90263-0.52663 1.564-1.4136 2.3745-2.0803 6.1922-5.7955 12.738-11.424 17.336-18.643 6.9275-10.382 11.04-22.25 16.111-33.571 5.0709-11.222 11.695-21.622 17.708-32.364 3.9396-6.8539 7.8448-13.75 12.451-20.186 4.9511 11.686 12.899 21.707 19.309 32.576 2.6407 4.4743 4.922 9.1761 6.4993 14.135 2.7815 8.3481 4.6654 16.99 7.997 25.153 1.75 4.6566 3.5021 9.3123 5.2498 13.97 1.9904-9.8151 4.3732-19.579 5.4238-29.554 0.3024-2.3556 0.78197-4.6884 1.4454-6.969 0.33364-1.1322 0.80323-2.4813 1.31-3.6542 3.626-8.6533 8.9114-16.453 13.885-24.364 4.4749-6.9688 9.0518-13.868 13.462-20.878 9.0249 17.817 22.071 33.101 32.867 49.807 4.9363 7.6744 9.3767 15.768 12.477 24.406 2.6242 6.9169 5.4441 13.759 8.1753 20.635 1.9328-9.6136 3.5516-19.287 4.9112-28.997 2.2131-14.138 6.0251-27.958 10.554-41.527 3.7752-11.442 7.78-22.992 8.7364-35.087 0.42487-4.6402 0.52126-9.2227 1.5673-13.792 0.75432-3.5475 2.5474-6.7563 4.6303-9.6866 4.2708-6.0183 9.4334-11.44 12.85-18.036 3.3651-6.2451 4.6243-13.312 5.9126-20.21 0.59802-3.2019 1.2144-6.4086 2.0797-9.4873 0.7908-2.84 1.7754-5.6522 3.2803-8.2 3.0391 4.1676 5.6228 8.7912 7.9707 13.385 4.9214 9.6587 9.365 19.682 16.017 28.324 5.7145 7.4296 12.799 13.679 18.874 20.75 3.6004 4.1836 6.9261 8.7376 8.9102 13.963 1.217 3.0022 1.8227 6.1904 2.349 9.2982 1.1479 6.1799 2.2979 12.359 3.4439 18.54 2.8399-8.1624 6.1-16.175 8.8733-24.358 4.2529-12.898 4.9144-26.649 4.4466-40.125-0.39513-11.567-1.5935-23.162-2.1012-34.677-0.26659-6.4104-0.33785-12.823 0.1645-19.187 0.19738-2.6178 0.53086-5.4443 0.93706-7.9756 0.13435-0.47531 0.14572-1.4568 0.35319-1.6311 15.73 20.89 33.096 40.533 51.743 58.864 1.7825 2.4903 5.9239 3.0693 8.0495 0.71015 1.5724-1.4964 1.5118-3.8101 1.609-5.8101 1.7483-24.563 4.2615-49.08 7.6481-73.468 7.2998 9.7238 12.71 20.685 18.425 31.394 4.6684 8.8668 9.6026 17.635 15.601 25.684 5.2419 7.2074 10.962 14.18 15.96 21.492 4.4814 6.5623 8.4475 13.463 10.798 21.078 0.77608 2.4078 1.3067 4.8519 1.7969 7.2829 0.79046 3.2375 2.0876 6.3211 3.0583 9.505 0.96059 2.8931 1.9212 5.7861 2.8818 8.6792 1.6238-5.5711 3.5676-11.039 5.4043-16.541 1.1652-4.0948 1.5821-8.3502 2.4744-12.505 5.8506-31.412 13.139-62.646 16.491-94.48 0.0363-0.70526 0.60494 0.7187 0.87086 0.93189 18.682 27.669 37.174 55.591 58.792 81.099 18.004 21.418 37.164 41.809 55.032 63.339 1.5756 1.2897 3.3937 2.241 5.1133 3.3086 2.1107 0.91506 4.6259-1.2864 4.0957-3.4961-1.5264-14.206-3.9967-28.308-7.4377-42.176-5.5322-23.079-12.74-45.81-17.199-69.111-1.0056-5.3524-1.8938-10.727-2.5274-16.092 3.316 0.67743 6.5461 1.5727 9.7238 2.5916 13.209 4.2975 25.675 10.836 38.903 15.231 10.837 4.8123 18.643 4.7037 30.846 4.0576-1.1352-11.078-1.1148-13.44-10.304-33.051-5.144-9.1496-11.32-17.691-16.321-26.891 23.031 11.901 47.979 19.527 73.103 25.58 20.414 4.9145 41.032 8.9276 61.548 13.395-2.4917-9.1608-5.3241-18.356-10.181-26.578-9.8054-17.36-24.647-31.121-35.704-47.57-1.6808-2.5105-3.2674-5.0856-4.7072-7.7422 14.835 5.7151 30.576 8.4333 46.192 11.029 10.527 1.7669 21.072 3.4976 31.331 6.2367 8.9142 2.3674 17.646 5.577 25.687 10.131 4.0653 2.2924 7.9123 4.9444 11.888 7.3858 0.9667 0.60995 1.9331 1.2205 2.8996 1.8309-0.9834-8.1457-1.8034-16.264-2.1716-24.488-0.6589-13.979 0.026-28.09 1.646-41.94 1.8876-16.241 5.0747-32.251 9.1358-48.066 0.1788-0.70804 0.3622-1.4148 0.5499-2.1206 5.1417 9.5377 12.512 17.631 17.906 27.01 1.8111 3.1467 3.4134 6.7348 4.4467 10.215 1.8837 8.2307 1.9897 8.9786 8.9735 2.2016 1.4981-1.7689 2.8458-3.6598 4.3752-5.4043 15.355-18.465 34.013-33.996 48.32-53.362 4.3611-5.9188 8.0308-12.306 12.221-18.34 0.6142-0.8424 1.2473-1.6718 1.9115-2.4752 2.2063 18.847 8.6098 36.954 16.772 53.999 8.7276 18.342 20.542 35.041 29.506 53.243 1.9972 4.0555 3.2104 6.9041 5.4199 1.2266 1.3508-3.4712 4.0356-6.2678 6.1875-9.3105 12.815-18.667 28.217-35.472 42.605-52.972 10.258-12.366 19.957-25.224 28.569-38.795 7.2906-11.343 14.165-22.926 21.475-34.251 3.7453 25.401 13.27 49.622 25.4 72.133 10.738 19.952 23.61 38.655 36.975 56.919 1.8816 2.6051 3.7629 5.2105 5.6451 7.8153 1.7542-42.06 3.1042-84.14 3.7383-126.23 12.076 11.961 22.067 25.787 33.568 38.27 19.846 21.844 41.947 41.46 63.333 61.743 2.0566 1.9323 4.1132 3.8647 6.1699 5.797-2.0326-22.807-3.6652-45.646-4.2609-68.533-0.538-19.235-0.4863-38.487 0.1691-57.719 16.135 14.878 29.657 32.574 46.907 46.312 16.709 13.411 35.735 23.549 55.054 32.638 5.6002 2.6359 11.221 5.2288 16.833 7.8405-6.5366-19.056-13.102-38.133-18.109-57.662-1.9404-7.7013-3.822-15.576-4.9037-23.419-0.521-3.7855-0.8995-7.605-1.0221-11.339-0.1576-4.4254-0.021-8.8642 0.5353-13.209 0.1773-0.31802-0.111-1.5051 0.4462-1.1714 14.578 6.4406 28.847 14.092 44.416 18.02 8.5261 2.1562 17.374 2.8511 26.165 2.4566 10.234-0.45925 3.855-5.1747 3.1489-8.1182-2.3574-9.8275-2.0298-19.188-1.9826-29.271 0.019-2.6958 0.1234-5.398 0.3841-7.9652 0.6491-6.5455 2.5536-12.878 3.5538-19.367 0.9919-5.6341 1.6313-11.339 1.6423-17.065 0.068-2.7586 0.1256-5.442 0.3512-8.1251 0.06-0.56722 0.1247-1.3875 0.2083-1.961-0.1447-0.81267 0.8219-0.62309 1.3357-0.84189 10.034-2.3954 20.218-4.1591 30.395-5.3283 10.238-1.184 20.572-1.5434 30.886-2.1838 2.2407-0.13031 4.4815-0.26101 6.7223-0.39196-6.0737-3.3976-12.284-6.5389-18.428-9.8066-3.3726-1.7356-6.6999-3.8453-9.5844-6.4277-7.5154-6.5355-12.787-15.105-18.219-23.336-4.3979-6.7906-8.9627-13.508-14.344-19.567-4.1072-4.6715-8.625-9.0046-13.626-12.714 12.568-17.456 24.582-35.304 38.324-51.891 4.2196-5.1123 8.7173-10.084 13.248-14.959 1.8752-2.0383 3.7524-4.0748 5.6252-6.1152-11.182-0.6771-22.486-1.2706-33.597 0.52965-18.506 2.7374-36.121 9.7558-52.529 18.565-0.7034 0.45531 0.2342-0.8163 0.305-1.1757 5.6531-12.044 10.898-24.47 13.17-37.652 1.1022-6.5279 1.4076-13.154 1.6558-19.76-9.1158 4.8528-18.389 9.4337-28.006 13.269-15.867 6.4219-32.199 11.605-48.134 17.844 15.897-23.893 30.236-48.885 41.973-75.078 1.0909-2.4346 5.2393-11.823 2.5135-12.48-2.1386-0.73995-9.9249 6.4802-11.633 7.7423-26.395 19.499-53.722 37.937-83.186 52.556-13.211 6.559-26.872 12.307-40.877 16.852 6.495-12.612 15.055-24.129 22.407-36.282 5.0096-8.2951 9.5234-16.975 14.667-25.132 4.2483-6.6962 8.9965-13.154 14.876-18.52 3.8362-3.5549 7.8756-6.8811 11.78-10.36 1.7686-1.5455 3.5368-3.0913 5.3046-4.6377-9.9689 1.4742-20.023 2.472-29.873 4.6543-7.7864 1.7696-15.346 4.4348-22.71 7.4997-20.567 8.641-39.326 20.877-59.199 30.912-5.3965 2.7199-10.899 5.2706-16.528 7.5026-0.566 0.23953-1.296 0.66712-0.9628-0.29708 2.7572-30.293 8.7793-60.31 17.766-89.419 1.6361-5.4158 3.2709-10.832 4.908-16.247l-2.4765 1.918z"/><path d="m600.55 309.17c-5.3895 19.503-21.787 35.327-26.385 55.19-14.385-1.0116-21.892-14.098-32.437-22.368-6.7141-5.2656-14.66-8.5792-21.49-13.786-4.8808-3.721-8.8775-7.3104-14.283-9.8492-4.0846-1.9185-9.1082-3.7084-13.492-5.153-11.061-3.6455-20.043-12.087-28.991-19.057 2.2711 56.134 1.3567 112.34-1.4217 168.44-6.1113-1.9032-10.629-6.4356-15.402-10.556-5.541-4.7837-11.427-9.013-17.133-13.498-11.654-9.1611-22.557-19.391-35.094-27.42 13.099 16.866 19.396 37.109 27.855 56.344 5.3635 12.195 11.596 23.984 18.359 35.452-23.642 8.687-49.407 7.3524-73.571 13.112-10.263 2.4463-20.238 6.1724-30.385 9.2323-37.87 11.42-78.146 13.561-117.25 15.864 17.667 3.1022 30.209 15.562 44.52 25.069 17.269 11.472 37.115 18.646 52.007 33.724-26.816 17.642-52.743 36.515-77.78 56.619 30.908-4.3675 61.962-5.3505 93.163-2.9492-20.372 35.894-17.554 80.56-46.147 112.65 33.369-14.893 66.258-31.6 95.7-53.416 3.558 48.724 2.6948 97.392-2.5896 146.01 13.66-12.608 18.24-30.372 25.952-46.469 3.8754-8.0889 8.5415-15.757 13.014-23.541 7.0947-12.347 13.703-24.985 23.362-35.619 3.9168 19.196 19.486 33.852 26.964 51.313 3.429 8.0067 5.1565 16.603 8.0814 25.341 0.8686-5.236 1.0759-9.634 2.1069-14.014 1.7622-7.4862 5.9307-14.919 10.21-21.965 8.5039-14.001 17.446-26.474 25.734-40.675 12.056 31.603 39.453 53.974 50.499 86.024 2.5987-20.705 6.9441-35.541 12.345-51.884 3.1128-9.4192 6.5764-19.339 7.797-29.732 0.83747-7.1308 0.61913-14.484 2.9615-20.88 3.5086-9.5799 12.763-17.01 17.386-26.374 6.8712-13.916 3.5151-32.101 16.173-43.898 12.634 13.194 17.245 31.914 27.936 46.368 10.906 14.744 28.139 25.05 31.588 44.784 14.45-37.642-5.4587-80.889 8.0978-119.1 17.401 24.246 36.749 46.819 58.044 67.718 2.0197-29.284 5.2154-58.439 9.587-87.467 17.59 17.013 25.166 40.561 38.315 60.605 12.595 19.2 30.305 35.184 34.247 59.213 7.0741-40.668 17.584-80.881 19.855-122.27 19.37 28.269 37.863 57.33 59.17 84.168 19.824 24.97 42.084 48.017 62.488 72.52-5.1695-43.588-23.491-84.317-27.13-128.16 28.32 2.5234 51.15 22.523 79.899 23.665-3.5004-25.614-25.908-43.853-32.559-68.579 41.656 26.321 91.064 34.771 138.32 44.914-9.9591-33.255-43.63-52.199-53.461-85.906 38.219 21.619 85.146 12.951 122.19 36.905-4.2355-42.476 3.7888-85.392 16.142-125.91 1.4774 22.491 21.719 35.09 28.022 55.337 17.12-22.046 40.216-39.714 55.677-63.287 5.6875-8.6714 10.342-18.142 19.927-23.433 0.7407 41.546 24.162 78.312 44.359 113.11 11.834-18.381 26.293-34.627 40.318-51.285 8.9799-10.666 17.782-21.501 25.774-32.896 13.842-19.738 25.254-41.158 39.307-60.778 1.9492 50.291 29.628 97.072 58.321 136.48 1.6647-40.599 2.7431-81.214 3.2352-121.84 14.648 11.571 25.667 26.612 37.78 40.646 19.594 22.701 42.05 42.766 63.806 63.287-3.47-41.198-4.2425-82.443-2.3176-123.73 19.131 14.799 33.554 34.782 51.741 50.512 18.331 15.855 40.486 27.388 62.354 37.48-5.2323-15.245-10.079-30.509-14.063-46.169-4.8192-18.943-8.3767-38.466-3.5067-57.803 23.691 9.4744 45.523 24.295 72.565 23.123-1.0675-16.201-4.0333-32.864-0.188-49.066 1.2123-5.1079 2.2265-11.17 2.975-16.034 1.3177-8.5638-0.026-15.513 2.0374-26.3 17.336-4.4889 34.945-7.1851 52.828-8.0885-16.596-8.5093-24.21-24.093-33.988-38.306-7.3166-10.635-15.845-20.502-26.928-27.308 17.034-23.378 32.786-47.803 52.547-69.059-31.462-1.3156-61.036 12.534-87.033 28.785 9.3029-20.461 21.156-40.472 22.613-63.532-27.743 14.256-58.345 21.175-86.359 34.747 19.725-27.578 37.2-56.835 51.536-87.577-41.658 30.482-86.342 59.265-136.73 72.867 6.5356-17.993 18.357-32.852 28.106-48.995 9.836-16.287 17.563-33.881 32.556-46.657-42.561 5.8842-76.807 38.478-116.96 50.952 2.3449-33.66 8.4444-66.61 18.299-98.848-19.822 15.222-37.224 33.207-54.399 51.352-14.409 15.222-28.658 30.555-43.58 45.222-21.728 21.357-44.885 41.301-67.502 61.684-2.7011-26.393-9.4498-62.099-16.621-87.577-2.7657-9.8259-5.5943-18.131-9.1071-33.176-1.8788-8.0472-3.9535-18.023-4.9395-19.541-0.3622-0.5575-0.5775 0.026-0.8266 0.6193-1.564 3.7252-4.461 7.848-7.2278 11.808-8.4432 12.085-15.673 22.655-22.707 33.854-16.214 25.815-31.386 54.973-50.338 79.302-5.4731-13-11.058-25.99-14.597-39.697-9.3237 13.917-19.787 26.948-30.633 39.697-9.4829 11.147-19.258 22.079-31.205 30.703-7.6084-14.955-14.805-30.418-16.735-47.328-17.604 14.47-25.615 36.807-41.69 52.688-3.0337-18.096-3.3747-36.229-1.023-54.397-15.792 27.178-41.974 46.339-56.269 74.634-14.666-37.97-16.499-79.423-28.831-118.08-15.532 27.169-28.926 55.447-40.936 84.323-8.6122 20.707-16.512 41.721-27.731 61.223-5.9929-22.784-14.364-45.199-14.908-69.059-10.295 15.643-15.073 33.844-22.999 50.654-8.1451 17.274-19.615 33.08-33.952 45.714-2.051-14.283-4.4919-28.786-9.3093-42.428-3.2907-9.3188-7.6902-18.236-11.5-27.38-8.0185-19.247-13.423-39.499-18.721-59.602-2.8225 26.718-13.242 50.817-24.669 74.634-10.942 22.806-22.808 45.354-20.718 71.931-15.099-21.377-29.651-43.14-43.764-65.181-1.8836 14.682-8.0086 26.094-13.502 39.504-2.8067 6.8519-5.4484 14.225-11.174 18.227-3.554 2.484-8.2961 3.669-12.803 3.4918-3.9317-0.1546-7.6847-1.3457-11.174-3.0263-6.2029-2.9877-11.572-7.5224-16.295-12.57-5.5287-5.9086-10.173-12.52-15.83-18.157-11.714-11.673-27.767-19.166-34.305-35.872-4.2116 37.235-5.3004 74.559-3.2663 111.97-8.6111 0.22-16.33-4.1322-23.271-9.1492-9.8667-7.132-18.161-15.608-27.58-23.112-11.525-9.1819-24.733-16.909-29.591-31.806-3.6928 14.56-1.3023 31.788-5.4586 46.829z" fill="#d1b85f"/><path d="m1298 231.75c-5.9029 0.016-11.782 0.39016-17.1 2.4141-4.6022 1.7517-8.7854 4.739-12.529 8.252-5.6111 5.2651-10.241 11.709-12.232 18.865-3.0179 10.843 0.02 23.321 5.4532 33.627 3.9554 7.5028 9.1836 13.854 15.625 19.264 4.9672 4.1712 10.654 7.7811 16.945 8.8594 7.585 1.3002 16.043-1.0808 22.254-6.041 7.2302-5.7741 11.416-15.042 15.264-22.082 2.252-4.1205 4.3874-7.4788 4.4843-15.059 0.019-1.5214-0.042-3.2124 0.3399-3.1348 0.2632 0.053 0.7377 0.94646 1.1894 1.8184 7.1277 13.758 8.6384 22.191 11.736 32.219 3.7893 12.266 9.9548 26.918 15.945 38.789 4.8814 9.673 9.6454 17.498 13.51 31.391 1.9212 6.907 3.6197 15.314 9.1348 14.326 0.2898-0.052 0.5901-0.12927 0.8613-0.23437 3.1503-1.2212 2.3769-6.1296 1.3516-10.281-2.1968-8.8951-5.5477-14.317-8.5488-20.506-4.668-9.6263-8.4901-21.108-12.803-32.098-6.1738-15.732-13.354-30.455-17.998-46.078-2.6909-9.0526-4.5295-18.408-7.1074-27.77-1.3246-4.8104-2.8452-9.6221-5.6875-13.586-4.2565-5.936-11.48-9.9691-18.734-11.643-5.1027-1.1772-10.221-1.1882-15.465-1.2578-1.9527-0.026-3.921-0.0597-5.8886-0.0547zm7.1172 8.2246c6.1392 0.1181 12.341 1.6489 17.797 4.7305 2.5133 1.4196 4.8685 3.1684 6.3555 5.4785 1.4991 2.329 2.116 5.228 2.4102 8.1074 0.912 8.9279-1.2819 17.663-4.3829 25.859-3.098 8.1888-7.1019 15.84-12.93 22.789-2.5994 3.0995-5.5608 6.0602-9.1915 7.2188-2.8627 0.9134-6.1386 0.70647-9.2128 0.0137-6.159-1.3889-11.5-4.7334-16.217-8.8262-5.6627-4.9133-10.427-10.905-13.367-17.678-1.6794-3.8688-2.7655-7.9919-3.0703-12.283-0.4264-6.0021 0.6744-12.333 3.7285-17.312 3.8023-6.1989 10.635-10.303 17.529-13.367 4.7258-2.1005 9.4792-3.7121 14.463-4.3828 2.0021-0.2694 4.0414-0.38705 6.0879-0.34765zm168.51 10.889c-1.1295 2e-3 -2.3096 0.56998-3.4043 1.1621-2.1551 1.1657-3.9776 2.422-5.5371 3.9668-3.4261 3.394-5.5819 8.1873-7.6035 12.887-3.1857 7.4052-6.0407 14.574-9.2461 21.689-1.1109 2.4662-2.2643 4.9271-3.4453 7.3809-5.0992-3.9161-10.012-7.9571-15.215-11.891-6.066-4.586-12.527-9.0264-18.252-13.23-3.3312-2.4464-6.4128-4.8117-10.277-8.1504-3.3774-2.918-7.3522-6.5796-10.418-4.7852-1.1113 0.6505-2.1033 2.0169-2.5313 3.2949-1.6804 5.0175 5.3298 8.6607 10.838 12.195 8.2803 5.3136 13.167 10.382 19.408 14.992 5.3221 3.9311 11.627 7.5284 17.545 11.383 1.7896 1.1656 3.5442 2.3544 5.2753 3.5606-1.2724 2.539-2.5601 5.0716-3.8476 7.5976-2.6375 5.1743-5.2733 10.323-7.6211 15.652-2.9739 6.751-5.4848 13.794-8.3984 20.389-1.7499 3.9608-3.6453 7.7592-5.3575 12.111-1.1224 2.8528-2.1651 5.9437-0.8222 8.6426 0.8882 1.7848 2.8194 3.3977 4.6289 3.3945 1.719 0 3.3273-1.465 4.3203-3.2891 0.6618-1.2157 1.05-2.5911 1.4258-3.9238 2.8179-9.995 4.927-17.521 8.2461-25.504 2.7461-6.6052 6.3205-13.523 9.4648-20.473 1.5138-3.3456 2.9283-6.698 4.332-10.035 3.9537 2.8912 7.8665 5.8307 11.896 8.7344 10.877 7.8372 22.609 15.415 32.707 22.791 3.3896 2.4758 6.5951 4.9287 10.625 8.1348 3.1214 2.4834 6.7383 5.4188 9.6621 3.7539 0.7772-0.4426 1.5047-1.2113 1.9238-1.9727 2.1764-3.9537-3.9848-7.7374-9.002-11.119-9.3147-6.2784-14.688-11.165-21.25-15.938-9.8461-7.1608-22.367-14.065-33.318-21.871-0.015-0.011-0.032-0.0222-0.047-0.0332 1.1109-2.5485 2.2566-5.078 3.4766-7.5781 2.5898-5.3075 5.5186-10.481 8.1386-15.826 2.2648-4.6202 4.2983-9.3675 6.8789-13.76 1.5612-2.6572 3.3224-5.1846 6.1133-7.0176 0.945-0.6207 2.008-1.1617 2.3926-2.0508 0.694-1.6046-0.8215-4.3441-2.5977-5.0605-0.3601-0.14528-0.7309-0.20589-1.1074-0.20508zm-306.86 36.549c-6.3987-0.0617-12.317 0.50603-15.695 2.1602-1.0747 0.5261-1.8934 1.1623-2.7148 1.8691-3.95 3.3984-7.9859 8.4312-10.525 13.904-2.1506 4.6348-3.2288 9.5857-2.3145 14.25 1.083 5.5236 4.9587 10.644 9.6016 13.879 7.9914 5.5672 18.257 5.5444 28.594 5.1133 8.3786-0.3494 16.804-0.96644 23.377 2.8184 6.1581 3.546 10.69 10.956 12.078 18.459 0.6873 3.7164 0.6027 7.4567-0.205 10.926-1.9419 8.3408-8.0666 15.12-14.482 21.918-6.6429 7.0386-13.598 14.097-20.527 17.846-4.1402 2.2397-8.2717 3.299-13.867 6.0644-2.773 1.3704-5.9057 3.1594-8.5371 3.9434-4.0381 1.2032-3.6307 7.0497 0.5352 7.6816 4.2863 0.6503 7.4444-1.3037 10.834-2.7852 2.4666-1.0781 5.0552-1.9068 7.6504-2.7812 5.3635-1.8074 10.754-3.8123 15.365-6.8535 6.3663-4.1981 11.251-10.371 16.344-16.502 6.2044-7.4694 12.718-14.878 15.434-23.715 2.5071-8.1592 1.7756-17.535-1.7402-26.066-3.3952-8.2388-9.387-15.689-16.879-18.75-7.5417-3.081-16.604-1.7145-25.379-0.94921-7.224 0.6299-14.253 0.85198-20.793-2.166-3.2589-1.5038-6.3973-3.8106-7.8008-6.9043-1.3498-2.9756-1.0956-6.6795 0-10.021 1.7194-5.2447 5.5109-9.6017 10.102-12.051 5.3113-2.8336 11.693-3.1134 18.029-2.4375 5.9958 0.6396 11.951 2.135 16.904 3.25 4.6475 1.0462 7.7425-4.6684 4.3261-7.9883-1.3639-1.3253-11.043-3.1807-21.23-3.8574-2.1634-0.14367-4.3495-0.23333-6.4825-0.2539zm-55.398 13.154c-2.1076-6e-3 -4.2186 1.3937-4.2168 4.207-0.034 11.833 1.048 24.989 0.5528 38.35-0.6428 17.337-3.9418 35.02-4.1915 49.586-0.1926 11.238 1.4298 20.618-0.4296 38.393-0.1409 1.3469-0.301 2.7422-0.7813 2.8027-0.4277 0.054-1.1087-0.9495-1.7598-1.9004-5.2872-7.7216-8.611-11.913-12.014-17.271-5.8287-9.1784-11.89-21.78-19.984-29.99-1.4462-1.4668-2.9585-2.7936-5.1914-3.8106-1.7524-0.7981-3.9484-1.406-4.9922-0.77734-1.4016 0.8445-0.7241 3.9182-0.2559 6.7812 1.993 12.188 0.1802 20.558 0.01 28.889-0.1473 7.0515 0.8792 14.076-0.08 24.451-0.1025 1.1091-0.2278 2.2559-0.5586 2.5527-0.5886 0.5281-1.8267-1.6351-2.9511-3.5918-5.5349-9.6327-8.2833-14.241-11.602-19.734-5.5275-9.1505-12.638-20.757-20.203-32.338-9.3548-14.32-19.404-28.6-28.426-37.623-2.8348-2.8326-7.1997 1.167-4.625 4.2363 7.6569 9.124 14.372 18.633 21.066 28.137 7.986 11.338 15.94 22.67 23.389 34.803 5.8104 9.464 11.313 19.415 16.232 28.398 1.7251 3.1501 3.3783 6.1809 6.1934 9.6543 1.8675 2.3042 4.2469 4.803 6.0039 4.6758 2.2793-0.1649 3.5114-4.7479 4.2695-8.8984 2.1403-11.718 0.4955-19.98 0-27.869-0.4293-6.8346 1e-4 -13.39-0.2402-24.143-0.036-1.5754-0.085-3.2395 0.414-3.5117 0.582-0.3172 1.9104 1.2572 3.0996 2.7168 6.0887 7.4734 8.5201 11.931 11.986 17.371 3.1993 5.0212 7.2809 10.88 10.85 16.18 2.251 3.3431 4.298 6.4644 7.4394 9.7793 1.5956 1.6837 3.4733 3.4178 5.2695 3.3438 1.9946-0.082 3.888-2.3947 4.7188-5.0098 0.3555-1.119 0.5157-2.2925 0.6562-3.4277 0.9367-7.5636 0.9762-13.372 1.0313-19.357 0.1164-12.634 0.3074-26.06 0.8203-41.697 0.869-26.498 2.663-59.351 2.6934-70.123 0.018-2.8133-2.0858-4.2264-4.1934-4.2324zm-188.88 65.666c-5.9511-0.061-11.838 0.64319-14.9 4.5586-1.2919 1.6517-2.0801 3.8741-2.6738 6.0879-1.9336 7.209-1.795 14.319-1.9062 21.574-0.14541 9.4816-0.71897 19.213 1.3223 28.271 1.9205 8.5229 6.1568 16.451 10.352 24.535 5.3662 10.342 10.664 20.94 18.719 28.459 6.2887 5.8706 14.256 9.8654 22.387 14.178 1.4941 0.7925 2.9954 1.5945 4.5742 2.1289 5.6175 1.9014 12.24 0.40174 17.383-2.6934 4.6593-2.8043 8.1029-6.9175 10.879-11.395 4.3631-7.0369 7.0746-14.974 8.7051-23.184 3.1855-16.038 2.2454-33.118-4.1738-48.199-5.1464-12.091-13.817-22.897-24.088-30.4-12.225-8.9303-26.714-13.181-44.031-13.855-0.84476-0.033-1.6967-0.0584-2.5469-0.0664zm5.5508 5.6445c2.1162 0.062 4.2688 0.3298 6.3555 0.6543 0.53383 0.083 1.0629 0.16967 1.5879 0.26367 4.7248 0.8451 9.0828 2.2711 13.359 4.084 9.6717 4.0998 18.93 10.172 25.963 18.164 7.777 8.8377 12.83 20.025 14.957 31.682 1.4896 8.1643 1.5447 16.56 0.45117 24.535-1.1104 8.0979-3.4026 15.764-7.7793 23.67-3.4125 6.1643-8.0951 12.474-13.867 13.607-5.1717 1.0157-11.218-2.1238-16.502-5.5293-9.2876-5.9856-16.213-12.792-22.439-20.795-4.8327-6.2117-9.2442-13.144-12.105-20.43-4.8673-12.394-5.2509-25.809-6.7832-39.822-0.82884-7.5797-1.9925-15.336 1.4004-21.807 1.2942-2.4684 3.251-4.7493 5.5957-6.1758 2.8529-1.7357 6.2796-2.2046 9.8066-2.1016zm-106.79 33.254c-2.6058-0.026-5.0922-0.0138-7.2656 0.0332-6.5007 0.1431-10.202 0.60862-14.002 0.94922-0.73779 0.066-1.4803 0.12816-2.0742 0.25586-1.9039 0.4094-2.2915 1.5006-2.5586 3.1797-0.12708 0.7989-0.22941 1.7314-0.0664 2.6602 0.19014 1.0832 0.73774 2.1616 1.2676 3.2051 4.3143 8.4974 7.456 14.658 10.816 20.375 3.5378 6.0189 7.3178 11.547 12.746 22.965 5.436 11.435 12.524 28.778 17.924 41 3.8508 8.7164 6.8426 14.829 9.3144 19.771 0.43987 0.8796 0.8644 1.7229 1.2695 2.5996 1.3695 2.9638 2.5304 6.3182 4.291 7.9336 2.8204 2.5878 7.1793 0.71039 10.275-0.0371 0.54339-0.1311 1.0485-0.22637 1.9512-1.0176 2.9808-2.6126 10.303-12.804 15.938-20.324 3.7605-5.0196 6.769-8.849 8.9785-13.396 3.5384-7.2825 5.0291-16.404 4.9883-25.342-0.0463-10.138-2.0632-20.039-6.9375-28.574-1.0771-1.886-2.2935-3.7063-3.4805-5.543-5.311-8.2182-10.028-16.785-18.678-22.111-11.516-7.0906-30.005-8.4347-44.695-8.582zm7.207 5.3496c1.3394 0 2.6756 0.0172 3.9844 0.0742 11.454 0.4968 20.822 3.5783 28.502 8.9473 10.533 7.3643 17.89 19.034 21.949 31.758 4.0188 12.598 4.8056 26.23 0.17773 38.223-3.0744 7.9672-8.5395 15.211-13.217 21.682-2.7446 3.7973-5.218 7.3281-9.582 11.41-0.78228 0.7318-1.6248 1.4825-2.332 1.3027-0.527-0.134-0.97841-0.78423-1.3867-1.4277-2.5875-4.0775-3.4358-7.8924-4.8086-11.66-2.4688-6.7759-6.6324-13.401-10.031-20.344-5.1225-10.464-8.5082-21.652-12.82-31.691-6.2384-14.525-14.418-26.65-24.559-42.93-0.0773-0.1241-0.15377-0.24854-0.23047-0.36914-0.69036-1.0859-1.3224-1.8692-0.35937-2.3535 0.65299-0.3284 2.0389-0.51927 2.8555-0.63867 1.105-0.1618 1.1678-0.19219 1.3828-0.24219 1.5543-0.362 11.098-1.7124 20.475-1.7402zm-69.211 11.398c-1.0091-0.10463-2.0168 0.11397-2.875 0.82032-1.0238 0.8426-1.8345 2.3807-1.9082 4.0254-0.12694 2.8347 1.9389 5.9898 3.7598 9.0644 5.6265 9.5009 8.902 18.222 12.232 27.752 3.7239 10.656 7.5164 22.323 11.938 31.742 3.2861 7.001 6.9203 12.759 10.643 22.848 1.2684 3.4377 2.5461 7.3785 1.9316 8.3691-0.92378 1.4892-6.1265-3.6878-10.592-7.3848-7.5303-6.2346-12.963-8.2596-18.4-11.643-9.5636-5.9501-19.139-16.104-28.541-25.537-7.0435-7.0668-13.99-13.729-19.717-20.842-6.0004-7.4538-10.661-15.403-19.902-22.533-1.8914-1.4593-3.9749-2.8848-5.6484-2.4414-1.8312 0.4851-3.1715 3.2073-3.6426 5.6621-1.3978 7.2832 4.8591 12.213 9.291 17.684 7.1159 8.7836 9.5268 18.963 13.551 29.072 4.3263 10.87 10.517 21.66 15.646 30.729 4.1394 7.318 7.5885 13.515 12.066 25.074 1.91 4.9304 4.0074 10.836 6.7871 9.7363 1.2242-0.4843 2.581-2.3272 3.2051-4.1289 1.2411-3.5832-0.4165-7.0029-1.8867-10.225-5.5378-12.135-8.4363-21.475-16.023-35.727-6.5307-12.267-16.534-28.171-14.746-30.309 0.0765-0.091 0.17359-0.15686 0.42188-0.0352 2.2346 1.0982 16.633 17.445 28.055 28.008 10.581 9.7858 18.607 14.607 26.982 19.486 7.0555 4.1105 14.359 8.2625 24.145 14.254 3.7446 2.2928 7.8532 4.8546 10.297 3.0176 1.2116-0.9108 2.0128-2.9028 2.3066-4.793 0.54929-3.5331-0.67853-6.7098-1.9531-9.75-3.6251-8.6469-7.6307-16.188-12.035-25.592-5.172-11.043-10.892-24.654-13.734-31.844-1.3353-3.3778-2.0367-5.3394-2.7402-7.4238-4.8344-14.323-9.8392-34.478-17.908-36.93-0.33144-0.1007-0.66755-0.17216-1.0039-0.20704zm-106.88 25.539c-0.24922-0.0159-0.49975 3e-3 -0.75196 0.0645-0.81704 0.1998-1.6458 0.83473-2.2207 1.5488-2.224 2.7626-0.63665 6.7161 0.92969 10.434 6.9755 16.555 13.515 28.416 19.9 42.197 5.7804 12.476 11.435 26.527 18.305 38.062 3.0929 5.1934 6.4319 9.8765 9.291 16.59 1.7798 4.1792 3.3729 9.1454 7.3613 9.2695 0.69793 0.022 1.4692-0.10548 2.0332-0.39648 2.2537-1.1628 1.1987-4.952 0.0254-8.2773-4.2928-12.167-10.151-18.126-15.068-26.27-2.9592-4.9006-5.5771-10.593-8.2031-16.275-7.2599-15.71-14.578-31.353-19.418-46.494-1.7476-5.4667-3.1714-10.869-7.416-16.613-1.3651-1.8474-3.0231-3.7284-4.7676-3.8398zm-26.518 6.4004c-2.4962 0-4.9924 1.6728-4.9356 5.0195 0.13248 7.7863 0.0103 16.29-0.31836 25.273-0.7461 20.393-2.5564 43.262-4.8594 65.836-1.113 10.909-2.3407 21.749-2.2266 31.824 0.0512 4.5188 0.37195 8.8855-2.3808 14.111-0.73931 1.4035-1.6999 2.8681-2.5703 2.8555-0.93633-0.014-1.7673-1.7369-2.5703-3.2363-2.1193-3.9574-4.0398-6.3504-5.9863-9.123-3.5034-4.9901-7.0898-11.216-10.396-16.658-3.2242-5.307-6.1835-9.8693-11.039-15.645-2.8847-3.4309-6.439-7.2889-8.8848-7.1016-3.3913 0.2596-4.6504 8.2979-5.5371 14.768-1.1887 8.6736-1.7069 14.526-2.6133 20.982-0.97528 6.9469-2.4005 14.593-3.3125 22.512-0.15768 1.3692-0.29949 2.7465-0.86328 3.8379-0.56549 1.0946-1.5547 1.9011-2.7051 1.4883-1.9131-0.6865-4.2724-4.7474-6.2051-7.998-6.7987-11.435-8.3308-12.851-11.658-16.619-4.3896-4.9707-11.902-14.033-19.404-23.473-13.392-16.851-26.753-34.907-33.617-41.326-3.5669-3.3375-8.645 1.8775-5.2129 5.3535 7.0699 7.1642 13.466 14.619 19.629 22.268 6.0736 7.5382 11.92 15.266 17.959 23.094 5.9574 7.7222 12.102 15.54 17.559 22.902 5.4797 7.3934 10.267 14.327 17.588 23.037 1.6812 2.0002 3.496 4.0926 5.0664 4.3144 2.7761 0.3919 4.7872-5.0667 6.2852-9.9453 3.9236-12.779 4.319-21.578 5.0664-30.398 0.47053-5.5527 1.0801-11.113 1.9766-19.299 0.22009-2.0097 0.45801-4.178 1.2754-4.5898 1.0369-0.5224 3.0079 1.782 4.6504 3.8594 4.9507 6.2618 6.9216 10.467 9.7949 15.354 2.9136 4.955 6.7541 10.612 10.166 15.42 2.8062 3.9548 5.3223 7.3368 8.3008 12.721 2.1205 3.8331 4.4767 8.6803 6.5527 8.6035 2.0953-0.078 3.9048-5.1721 5.3145-9.5332 2.6559-8.2166 3.8874-13.832 4.8594-19.982 2.1175-13.4 3.0082-29.339 4.2441-44.6 1.0544-13.019 2.3596-25.543 3.4648-38.062 1.2405-14.051 2.2299-28.096 2.4805-42.824 0.0568-3.3468-2.4394-5.0195-4.9356-5.0195z"/><path d="m272.65 237.25-255.32 89.191 73.893 211.53 258.66-90.359-22.627-64.77-165.7 57.879-5.3457-15.31 128.49-44.879-18.377-52.611-128.49 44.881-5.8047-16.609 162.35-56.711z" stroke="#000" stroke-linecap="round" stroke-width="5"/><path d="m258.5 252.81-255.32 89.191 73.893 211.53 258.66-90.359-22.627-64.77-165.7 57.879-5.3457-15.31 128.49-44.879-18.377-52.611-128.49 44.881-5.8047-16.609 162.35-56.711z" fill="#a5403b" stroke="#000" stroke-linecap="round" stroke-width="5"/><path d="m222.69 367.4c-4.5572-4.1339-9.3598-8.7532-14.988-12.425-3.7491-2.4461-7.8646-4.4719-12.289-4.1439-3.325 0.2465-6.8244 1.8225-8.645 4.5011-1.6854 2.4797-1.9321 5.9044-1.286 8.9308 1.0386 4.8649 4.3841 8.7003 7.7733 12.246 8.9958 9.4108 18.299 16.78 29.434 24.815 2.693 1.9433 5.4931 3.9257 6.4793 6.6861 0.72207 2.0213 0.47163 4.4597 0.0886 6.8167-1.3707 8.4338-4.4394 15.826-7.2464 23.292-4.721 12.558-8.7019 25.328-9.239 39.972-0.27212 7.4189 0.33972 15.319 5.3922 20.073 2.2194 2.0885 5.2956 3.5702 8.3852 3.6121 4.6952 0.064 9.4214-3.1973 11.794-7.3087 2.1269-3.6858 2.3619-8.055 2.6262-12.158 0.86371-13.408 2.0402-23.98 3.8582-39.685 0.25929-2.2399 0.53164-4.5844 0.8734-6.6596 0.67962-4.1268 1.6338-7.1891 4.2709-10.585 1.0158-1.3082 2.2814-2.666 3.5191-2.7077 1.2951-0.044 2.5599 1.3535 3.8247 2.6377 7.2811 7.3927 14.562 11.039 21.468 15.953 5.0135 3.567 9.8296 7.8016 16.302 10.547 5.7087 2.4212 12.706 3.6839 17.123 0.2782 2.1881-1.6872 3.7428-4.5202 4.0875-7.4345 0.55334-4.6785-2.0118-9.5662-5.9118-12.404-0.96916-0.7051-2.0208-1.2836-3.066-1.8292-5.201-2.7149-10.245-4.6145-15.043-7.3574-4.824-2.7576-9.3999-6.3675-14.222-9.189-3.6296-2.1237-7.3985-3.8008-10.97-6.489-4.2787-3.2209-8.2735-7.8934-8.5037-12.684-0.1755-3.6527 1.8378-7.374 3.6508-11.057 3.635-7.3836 6.4652-14.612 10.996-20.593 3.2617-4.3061 7.4048-7.9656 10.878-12.812 3.9575-5.5229 7.0444-12.587 4.7401-18.557-1.1367-2.9452-3.5853-5.6242-6.4936-6.8633-4.3771-1.8648-9.7954-0.4678-14.074 2.033-4.459 2.6061-7.6807 6.411-10.321 10.634-3.8196 6.1089-6.423 13.092-8.4446 19.704-1.5669 5.1246-2.7843 10.026-5.1606 15.794-1.0185 2.4725-2.2498 5.1045-4.007 5.8875-2.7593 1.2294-6.8153-2.1004-10.076-4.8514-2.9336-2.4752-5.2233-4.4819-7.5785-6.6183z" fill="#48636e" stroke="#000" stroke-linecap="round" stroke-width="5"/><path d="m321.54 333.02a47.777 44.951 77.28 0 0-6.3457 0.9297 47.777 44.951 77.28 0 0 21.039 93.209 47.777 44.951 77.28 0 0-14.693-94.139zm4.1738 17.186a27.676 30.349 0 0 1 0 60.697 27.676 30.349 0 0 1 0-60.697z" fill="#48636e" stroke="#000" stroke-linecap="round" stroke-width="5"/><path d="m367.56 320.34c-1.089 1.7555-2.1173 3.4293-3.3352 5.2025-1.1961 1.7414-2.5752 3.5786-2.2125 5.6516 0.16703 0.9546 0.70341 1.9592 1.2967 2.4758 2.2363 1.9472 5.2811-3.0389 7.8021-7.0781 4.9217-7.8857 7.8467-12.162 7.7854-19.036-0.0278-3.1116-0.6676-6.7554-2.6532-8.9245-2.6343-2.8778-7.6373-3.16-12.181-2.0503-2.5476 0.6223-4.9506 1.6822-5.6683 3.9799-0.57699 1.8474-0.0644 4.4949 1.6884 5.3064 1.1614 0.5378 2.8674 0.2695 3.618-0.7236 0.76102-1.0067 0.54021-2.7582 1.3266-3.4974 0.65971-0.6201 2.0282-0.5277 3.1356-0.1206 2.5498 0.9374 3.7154 3.5434 3.9798 6.0301 0.49708 4.6739-2.1896 8.9259-4.5828 12.784z"/><path d="m417.28 304.66c2.4478-0.2936 4.6719 0.1795 5.2628 1.728 0.39947 1.0469 0.0524 2.5853 0.62839 3.6918 0.72252 1.3881 2.8976 2.0963 4.3987 1.6495 2.3892-0.7111 3.0716-4.3482 2.435-7.0693-1.0535-4.5037-5.7198-6.498-10.211-6.9909-6.5668-0.7206-12.76 1.7681-16.967 6.2839-4.1585 4.4642-6.3755 10.909-5.8912 16.888 0.53306 6.5804 4.3386 12.596 9.0592 17.478 4.1807 4.3242 9.079 7.7599 15.561 7.8639 2.8755 0.046 6.0626-0.5634 7.699 0.7421 1.7244 1.3756 1.727 4.8775 1.6697 7.9773-0.0688 3.7205-0.22413 6.8619-1.5287 9.6618-2.0499 4.3998-6.9377 7.9565-12.454 9.0614-0.99049 0.1984-2.0012 0.3177-2.9332 0.4057-2.8423 0.2681-4.9519 0.244-6.3505-0.9395-0.34601-0.2929-0.6485-0.6567-0.93604-1.0341-1.1381-1.494-2.0421-3.2017-4.0622-2.2917-0.40732 0.1834-0.86003 0.4733-1.1679 0.8858-1.0531 1.4107-0.41143 4.2552 1.3508 6.1645 1.9083 2.0676 5.1308 3.0387 8.3006 3.4696 7.0227 0.9544 13.788-0.7428 18.273-5.117 2.8792-2.8079 4.819-6.7187 6.1237-10.605 1.2203-3.6345 1.8849-7.2472 2.4043-11.487 0.50751-4.1426 0.87648-8.8842-1.6029-11.354-1.4108-1.4053-3.7439-2.0749-6.0108-2.5379-5.3972-1.1025-10.419-1.0342-15.227-3.0722-5.3284-2.2586-10.394-7.1041-11.487-12.823-1.0828-5.6627 1.7281-12.182 6.5451-15.74 2.1711-1.6038 4.7497-2.6062 7.1188-2.8903z"/></svg>
