<!-- Created by ERK --><svg xmlns="http://www.w3.org/2000/svg" xml:space="preserve" width="711.22" height="241.25" viewBox="0 60 711.22 241.25"><title>Microsoft Windows Millenium Edition Logo</title><g stroke-width="4.693"><path d="m199.703 301.26 64.839-160.153c-25.302-30.412-57.519-44.33-96.814-41.56L102.462 261.17c36.988-7.158 69.194 6.33 97.244 40.09zM164.316 99.733l-22.219 2.531-8.141 20.434 22.244-3.367zm-9.534 23.147-22.044 2.732-8.311 20.442 22.413-3.363zm-9.348 23.348-22.015 2.51-8.339 20.259 22.412-2.97zm-9.348 23.348-22.23 2.544-8.124 20.225 22.238-3.159zm-9.335 22.928-22.218 2.544-8.147 20.238 22.418-3.168zm-9.577 23.778-22.23 2.557-8.13 20.433 22.237-3.159zm-9.565 23.385-22.028 2.546-8.321 20.418 22.413-3.376zm11.293-138.715-7.532 18.575 20.539-2.865 7.524-18.342z"/><path fill="#e5360c" d="m122.55 140.204 7.333-18.344-20.532 2.644-7.531 18.563zm-9.178 22.529 7.53-18.563-20.718 2.862-7.333 18.344z"/><path d="m90.828 170.42-7.712 18.572 20.922-2.884 7.328-18.552z"/><path fill="#0c47a4" d="m81.09 193.971-7.328 18.54 20.717-2.825 7.352-18.578zm-9.156 22.554-7.328 18.54 20.742-2.876 7.509-18.561z"/><path d="m75.806 255.53 7.502-18.352-20.509 2.643-7.525 18.366zm42.47-164.536-17.313 1.685-6.7 16.484 17.5-1.916z"/><path fill="#e5360c" d="m91.385 116.419-6.694 16.275 17.5-1.891 6.53-16.07z"/><path fill="#fe0000" d="m82.26 138.762-6.519 16.462 17.5-1.89 6.507-16.07z"/><path d="m90.197 160.62-17.487 1.473-6.52 16.475 17.523-1.88z"/><path fill="#0c47a4" d="m63.143 185.896-6.7 16.472 17.692-1.888 6.5-16.254zm-8.963 22.518-6.506 16.057 17.313-1.66 6.694-16.276z"/><path d="m55.644 246.154 6.513-16.265-17.313 1.673L38.15 247.8zm28.24-159.381-4.67 11.682 13.912-1.32 4.877-11.876z"/><path fill="#e5360c" d="m74.337 110.34-4.68 11.67 13.92-1.283 4.88-11.902zm-9.148 22.317-4.68 11.683 14.119-1.121 4.868-12.294z"/><path d="m69.957 154.49-14.131 1.527-4.86 11.692 14.117-1.084z"/><path fill="#0c47a4" d="m46.27 179.573-4.867 11.9 14.306-1.326 4.693-12.101zm-9.131 22.552-4.697 11.88 14.125-1.318 4.681-12.088z"/><path d="m27.6 225.456-4.71 11.893 14.114-1.317 4.884-12.086zM77.89 80.325l4.065-10.02-10.76 2.18-3.877 9.79z"/><path fill="#e5360c" d="m61.626 96.068-4.059 9.823 10.742-1.971 4.07-10.205zm-9.131 22.526-4.057 9.799 10.753-1.96 4.262-10.214z"/><path d="m43.123 141.943-4.058 9.823 10.562-1.962 4.263-10.24z"/><path fill="#0c47a4" d="m33.576 165.51-3.854 9.776 10.55-1.937 4.076-10.009zm-9.153 22.5-3.855 9.79 10.55-1.95 4.071-10.217z"/><path d="m14.882 211.394-3.68 9.596 10.568-1.779 4.07-10.204zM58.775 61.247l-2.822 6.682 8.063-.611 3.056-7.307z"/><path fill="#e5360c" d="m49.427 84.595-2.84 6.89 7.906-.602 2.84-7.284zm-9.123 22.316-2.66 6.883 7.696-.384 2.852-7.297z"/><path d="m30.93 130.286-2.827 6.866 7.887-.393 3.034-7.306z"/><path fill="#0c47a4" d="m21.378 154.036-2.834 6.683 7.894-.59 2.829-6.879zm-9.155 22.554-2.84 6.879 7.905-.59 3.017-7.122z"/><path d="m2.683 199.947-2.66 6.895 7.906-.628 2.853-7.297z"/><path fill="#e5360c" d="m174.713 175.808 20.726-51.09c-9.28-3.023-21.648-3.817-37.053-2.656l-20.551 50.899c14.113-1.33 26.475-.278 36.877 2.848z"/><path fill="#0c6d3b" d="M238.843 146.486c-8.343-9.193-18.288-15.434-29.795-18.959l-21.149 52.35 12.961 5.282c4.986 1.985 10.679 6.217 17.22 12.836z"/><path fill="#fcd844" d="M212.026 212.624c-8.36-9.008-18.488-14.835-30.217-17.711l-20.328 50.25c10.762 3.561 20.718 9.802 30.21 18.312z"/><path fill="#0c47a4" d="m148.686 240.468 19.708-48.793c-11.337-3.521-23.665-4.539-36.855-2.862l-20.112 49.451c11.102-1.204 23.458-.36 37.258 2.204z"/></g><g stroke-width="1.884"><path fill="#fff" d="M278.983 276.644c.344-.219 4.156-.401 8.472-.406 8.205-.01 9.276.248 9.765 2.337.134.573.244-1.185.244-3.908s-.115-4.48-.256-3.908c-.497 2.022-1.207 2.345-5.158 2.345-3.702 0-3.844-.046-3.844-1.24 0-.93 1.173-2.203 4.683-5.08l4.683-3.84-.02-3.127-.021-3.126-.81 1.953c-.554 1.335-2.154 3.024-5.054 5.333l-4.243 3.38-.546-1.622c-1.154-3.429-4.72-4.609-7.254-2.4-1.622 1.412-2.37 5.223-2.324 11.853.023 3.457.142 4.146.544 3.141.282-.708.795-1.466 1.139-1.685m-.431-4.627c-.546-1.721.211-4.54 1.454-5.411 3.054-2.14 6.55-.088 7.025 4.12l.268 2.378h-4.2c-3.803 0-4.235-.103-4.547-1.087m15.713-16.586c1.727-.785 2.327-1.44 3.047-3.325 1.294-3.387.179-6.363-2.988-7.978l-1.689-.86 1.433 1.345c3.26 3.063.722 9.212-3.802 9.212-.942 0-1.018-.39-1.018-5.21 0-2.866-.125-5.211-.277-5.211s-1.099.343-2.103.763c-1.241.518-2.07 1.347-2.589 2.588-1.006 2.409-.965 3.196.304 5.817 1.725 3.563 5.606 4.71 9.682 2.859m-8.664-2.648c-1.941-1.941-.794-5.732 1.734-5.732.725 0 .871.57.871 3.387 0 3.729-.643 4.307-2.605 2.345m5.102-13.434c5.522-.14 5.883-.216 6.664-1.408.89-1.357.657-2.881-.635-4.173-1.104-1.105-1.881-.978-1.153.188.334.535.46 1.356.28 1.824-.272.712-1.218.85-5.813.85h-5.487l-.084-1.693-.083-1.694-.21 1.694c-.186 1.496-.404 1.7-1.87 1.755-.914.034-1.837.034-2.052 0-.914-.144-.288.86.862 1.384.69.314 1.686 1.304 2.215 2.199.937 1.586.968 1.596 1.244.424.272-1.157.508-1.209 6.122-1.35m.533-9.492c4.823 0 5.183.074 5.713 1.172.462.959.57.46.593-2.736.025-3.476-.045-3.764-.63-2.605-.608 1.206-.964 1.312-4.812 1.433-3.43.108-4.378-.044-5.438-.868-1.171-.91-1.223-1.113-.582-2.31.798-1.491.45-2.944-.705-2.944-1.04 0-1.995 1.874-1.596 3.132.176.555.924 1.484 1.662 2.065l1.343 1.055h-1.634c-1.91 0-1.878-.112-.763 2.676.785 1.961.912 2.065 1.286 1.052.387-1.046.768-1.122 5.563-1.122m2.872-10.611c4.21-1.759 5.1-7.95 1.545-10.745-1.82-1.433-2.679-1.329-1.285.155 2.582 2.75.742 7.787-3.166 8.666l-1.954.44v-5.156c0-5.018-.032-5.156-1.187-5.156-1.774 0-3.347 1.338-4.04 3.435-1.979 6 3.96 10.92 10.088 8.36zm-8.507-2.937c-.573-.573-1.042-1.629-1.042-2.345 0-1.44 1.647-3.387 2.865-3.387.615 0 .782.724.782 3.387 0 3.728-.643 4.307-2.605 2.345m-2.272-18.164c2.252-1.758 4.237-3.197 4.409-3.198.92 0 7.669 6.61 8.66 8.487l1.158 2.193-.019-4.169c-.013-3.016-.148-3.844-.49-2.996-.258.645-.69 1.173-.957 1.173-.624 0-6.842-5.245-6.842-5.772 0-.55 5.86-5.162 6.564-5.167.314 0 .826.524 1.137 1.169.449.93.564.151.56-3.778-.005-3.857-.12-4.64-.52-3.547-.29.791-2.663 3.133-5.443 5.368l-4.93 3.966-3.683-3.273c-2.025-1.8-4.119-4.099-4.653-5.108l-.97-1.835.01 4.169c.007 3.01.14 3.842.481 2.996.26-.645.822-1.173 1.25-1.173.91 0 5.934 4.172 5.99 4.974.05.718-4.805 4.406-5.8 4.406-.427 0-1.03-.528-1.341-1.173-.447-.925-.57-.02-.59 4.299l-.023 5.471.973-2.143c.676-1.49 2.221-3.117 5.069-5.34m11.078-19.065c5.38-2.783 4.175-11.605-1.811-13.258-3.93-1.085-8.114 1.473-8.854 5.414-.493 2.629.946 6.161 3.062 7.516 1.973 1.264 5.498 1.416 7.603.327zm-6.697-2.401c-2.09-.468-3.152-1.69-3.152-3.627 0-4.546 10.684-6.268 12.196-1.966 1.275 3.628-3.801 6.767-9.044 5.593"/><path fill="#e5360c" d="M428.118 299.738c-6.792-1.71-11.886-6.49-16.11-15.113-4.315-8.81-5.61-14.416-5.92-25.63-.284-10.342.439-15.946 3.124-24.2 5.343-16.43 15.055-24.722 27.035-23.083 9.138 1.25 18.328 13.13 21.237 23.203 3.027 10.488 2.972 23.433 1.34 33.78-3.302 15.278-9.361 25.259-17.83 29.37-3.824 1.857-9.314 2.57-12.875 1.673zm11.987-7.247c2.55-1.802 5.25-6.455 6.398-11.027 2.02-8.043 2.423-25.496.845-36.62-1.572-11.078-5.59-21.484-9.632-24.944-5.8-4.965-12.533-2.744-16.23 5.355-2.34 5.123-3.382 10.85-3.71 20.372-.69 20.044 3.658 38.686 10.651 45.68 3.5 3.5 7.787 3.935 11.678 1.184m-144.651 5.704c-.044-.604-.104-1.393-.133-1.755-.031-.392.96-.802 2.455-1.016 5.709-.816 7.725-4.028 8.406-13.394.624-8.579.603-117.142-.023-125.71-.552-7.542-1.218-9.66-3.692-11.742-1.348-1.134-2.254-1.435-4.32-1.435-1.437 0-2.63-.179-2.653-.398s-.135-.91-.253-1.537.097-1.398.477-1.714c.482-.4 9.694-.537 30.343-.453l29.65.12.354 1.328c.195.73.528 8.792.74 17.917l.384 16.59h-1.34c-1.51 0-1.295.817-2.733-10.346-1.357-10.53-3.957-16.087-8.06-17.227-1.143-.317-7.442-.56-14.617-.56l-12.609-.004v65.907l10.22-.173c11.853-.2 13.596-.694 15.618-4.42 1.318-2.428 2.83-9.187 2.83-12.652 0-3.4.556-5.663 1.393-5.663.61 0 .73 4.33.73 26.247 0 18.684-.17 26.351-.59 26.611-.996.616-1.373-.713-1.749-6.158-.601-8.738-2.248-13.005-5.865-15.196-1.397-.846-3.046-1.003-12.12-1.152l-10.504-.173.151 33.618c.17 37.717.026 36.33 3.923 37.617 3.07 1.013 21.054.424 23.96-.785 5.186-2.157 8.878-9.361 13.414-26.175 1.61-5.97 1.857-6.503 3-6.503.834 0 1.242.306 1.236.929-.004.51-1.309 8.682-2.899 18.159s-2.823 17.298-2.74 17.38c.398.398 2.577-2.276 4.706-5.776 8.138-13.378 18.106-30.433 18.106-30.978 0-.353-2.752-5.75-6.117-11.99-3.364-6.241-7.484-14.003-9.156-17.247-3.54-6.87-5.888-9.556-9.107-10.417-2.365-.633-3.32-2.027-2.087-3.05.443-.368 5.033-.512 13.35-.418l12.675.142.168 1.46c.133 1.16-.05 1.46-.89 1.46-.583 0-1.554.63-2.16 1.399-1.823 2.318-1.445 4.791 1.625 10.653 3.229 6.165 8.912 15.558 9.404 15.542.485-.016 7.643-12.27 9.606-16.446.893-1.897 1.622-4.286 1.621-5.308-.002-2.624-1.745-5.26-3.742-5.66-1.37-.274-1.596-.538-1.46-1.712l.161-1.388h20.704l.16 1.368c.137 1.183-.126 1.453-1.945 1.998-2.646.793-6.25 4.695-9.947 10.767-12.365 20.314-13.117 21.716-12.44 23.203.354.78 3.93 7.51 7.948 14.955s8.578 15.993 10.135 18.996c3.242 6.25 5.487 8.837 8.442 9.722 2.127.638 3.097 2.143 1.972 3.06-.349.284-6.507.463-14.411.418l-13.803-.079-.162-1.395c-.14-1.216.074-1.44 1.666-1.738 1.005-.189 2.476-.992 3.269-1.785 2.403-2.403 1.801-4.437-5.65-19.083-3.605-7.088-6.675-12.884-6.82-12.88-.147.003-2.932 4.48-6.189 9.95-6.107 10.252-8.676 15.79-8.676 18.701 0 2.074 2.398 4.648 4.772 5.123 1.406.281 1.63.54 1.494 1.72l-.161 1.387-79.365.337z"/><path fill="#fff" d="M528.14 141.019c-2.583 0-7.24.156-10.352.346l-5.657.347v1.452c0 1.232.274 1.505 1.804 1.792 5.538 1.039 6.788 6.36 4.87 20.748-.069.515-.891 5.683-1.09 7.031-2.422 16.358-12.985 84.605-13.235 85.343-.32.938-.708-1.42-7.443-45.124-2.833-18.38-3.845-25.261-4.982-33.014-1.941-13.23-2.75-19.864-2.74-24.305.017-7.634 1.672-10.897 5.528-10.897 1.16 0 1.361-.237 1.361-1.593v-1.593h-26.543v1.552c0 1.276.27 1.609 1.526 1.885 4.457.979 6.27 6.207 9.643 27.807l1.54 9.862.561 3.597-5.055 36.146c-2.781 19.88-5.128 36.218-5.216 36.306-.113.114-6.419-40.96-10.88-70.271-1.156-7.6-2.02-12.838-2.82-18.218-2.004-13.498-2.096-18.684-.388-22.13 1.056-2.129 1.6-2.637 3.258-3.047 1.715-.423 1.991-.7 1.991-1.99v-1.5h-24.95l.019 1.46c.015 1.18.441 1.663 2.228 2.522 2.505 1.204 3.655 3.079 4.884 7.963.229.911 3.739 23.655 5.953 37.697 2.043 12.95 2.683 16.485 5.492 34.766 5.854 38.104 10.785 70.054 10.957 71.004.279 1.532.509 1.726 2.051 1.726 1.719 0 1.742-.035 2.112-3.053.206-1.679 1.764-12.966 3.462-25.083s4.478-32.023 6.178-44.235c1.758-12.629 3.255-21.785 3.472-21.234.209.532 3.5 21.274 7.314 46.092s7.057 45.661 7.206 46.318c.4 1.754 2.214 1.569 2.594-.265.166-.803 2.107-13.166 4.312-27.473 13.004-84.36 15.028-97.229 15.384-98.36v.001l3.485-.978c.263.33.629.615.795.936 1.656 3.203 1.887 12.088 1.685 64.862-.15 39.22-.36 52.607-.85 54.09-1.014 3.083-3.042 5.144-5.434 5.527-1.737.277-2.076.537-2.076 1.591v1.259h43.531v-1.593c0-1.454-.155-1.592-1.786-1.592-2.066 0-4.245-1.521-5.411-3.778-1.554-3.004-1.867-13.015-1.713-54.88l.151-41.409 3.24 8.229c1.782 4.525 10.964 28.245 20.404 52.71 13.362 34.632 17.346 44.444 17.994 44.32.746-.144.845-4.75.96-44.746.235-82.779.218-81.934 1.602-84.525 1.273-2.382 3.446-3.86 5.676-3.86 1.09 0 1.353-.259 1.353-1.327v-1.328h-22.297v1.328c0 1.125.247 1.327 1.62 1.327 2.67 0 4.734 1.43 5.992 4.152 1.145 2.48 1.148 2.572 1.256 48.139.062 25.95-.09 45.196-.35 44.593-.748-1.735-36.484-95.982-36.885-97.277-.638-2.062-1.073-2.484-9.024-2.486-2.144 0-4.533.017-7.983.056l-15.229.17.29-1.46c.16-.802.551-2.975.87-4.826.825-4.783 2.458-9.796 3.71-11.386.588-.75 1.903-1.637 2.92-1.972 1.633-.54 1.85-.824 1.85-2.428v-1.817zm99.028 23.432c-10.991.31-18.518 7.105-24.51 21.968-2.153 5.34-2.224 5.868-.883 6.586.854.457 1.352-.03 3.676-3.599 3.102-4.763 5.823-7.397 9.785-9.474 2.421-1.27 3.425-1.472 7.318-1.479 4.019-.006 4.825.166 7.36 1.57 3.377 1.87 5.88 4.763 7.854 9.075 1.203 2.627 1.479 4.085 1.675 8.858.376 9.12-1.462 15.545-6.119 21.396-2.748 3.452-8.722 7.522-13.287 9.054-3.001 1.006-3.614 1.415-3.75 2.498-.152 1.226.026 1.316 3.281 1.665 7.824.838 15.805 6.72 19.41 14.305 3.117 6.562 4.015 10.966 4.015 19.696 0 5.87-.208 8.046-.993 10.352-2.76 8.108-7.64 14.102-12.809 15.732-4.614 1.454-8.453.587-15.285-3.452-8.01-4.735-10.993-4.831-13.67-.439-1.314 2.154-1.303 3.206.06 6.022 1.232 2.546 3.685 4.31 7.368 5.304 3.294.888 13.324.868 17.586-.035 14.754-3.128 25.485-15.753 28.906-34.008.676-3.609.832-6.628.643-12.47-.286-8.827-1.014-12.073-4.13-18.44-2.428-4.96-7.166-10.2-11.436-12.647-1.435-.823-2.694-1.556-2.795-1.63s1.34-1.883 3.203-4.02c7.282-8.354 10.728-15.169 11.839-23.408.436-3.239-.568-9.97-1.998-13.392-4.176-9.99-10.793-15.12-20.069-15.563a30 30 0 0 0-2.245-.024zm-86.723 5.32c.575.07 1.283.401 2.21.975 2.175 1.344 4.122 4.154 6.109 8.811l1.565 3.667.01 50.432c.007 32.76-.185 51.638-.547 53.873-.64 3.942-1.995 6.46-3.96 7.355-3.228 1.47-5.503.504-7.525-3.199-.906-1.66-.957-4.872-.957-59.882 0-53.56.071-58.284.902-60.121.515-1.136.997-1.75 1.66-1.89a1.6 1.6 0 0 1 .533-.017zm104.937 45.04v1.327c0 .997.28 1.327 1.123 1.327 2.034 0 5.256 2.291 7.06 5.02.974 1.473 2.73 4.588 3.903 6.924s5.025 9.577 8.56 16.09 6.429 11.922 6.429 12.017c0 .324-16.92 28.685-19.497 32.678-1.725 2.676-3.214 4.33-4.54 5.044-1.376.74-1.973 1.423-1.974 2.256l-.002 1.194h20.173v-1.268c0-.768-.198-1.134-.918-1.386h-.001a6.4 6.4 0 0 0-.907-.224 4.6 4.6 0 0 1-.877-.26h-.001c-1.147-.466-2.18-1.384-2.856-2.466a5.5 5.5 0 0 1-.713-1.71 4 4 0 0 1-.098-.88c0-2.866 2.89-9.029 8.914-19.01 2.345-3.887 4.441-7.245 5.407-8.68.322-.48.519-.744.557-.744.585-.003 13.18 25.312 13.534 27.202.205 1.093.22 2.593.034 3.334-.237.948-1.407 2.052-2.692 2.748a6.2 6.2 0 0 1-1.546.602q-.376.085-.717.086c-.345.001-.598.044-.781.152a.7.7 0 0 0-.161.13c-.184.205-.252.536-.252 1.047v1.327h28.667v-1.202c0-.964-.529-1.39-2.671-2.151-1.955-.695-3.315-1.713-4.909-4.055-.637-.938-1.311-2.086-2.076-3.511a110 110 0 0 1-1.223-2.353c-1.256-2.482-5.891-11.177-10.3-19.322-4.41-8.147-8.019-15.052-8.019-15.346 0-.837 13.69-23.587 16.572-27.54 2.104-2.885 4.894-5.118 6.93-5.63q.436-.112.82-.113c.347 0 .63-.597.63-1.327v-1.327h-21.236v1.327c0 .96.286 1.327 1.033 1.327.568 0 1.666.546 2.44 1.212 1.947 1.674 2.29 5.033.891 8.705-1.025 2.69-10.13 18.484-10.452 18.132-.344-.375-2.048-3.201-3.953-6.484-1.906-3.282-4.013-7.02-5.163-9.22-2.954-5.646-3.419-7.85-2.214-10.495q.148-.321.367-.597a3.03 3.03 0 0 1 1.757-1.087c.425-.085.741-.19.97-.34.382-.25.522-.621.522-1.22v-1.26h-13.272z"/></g></svg>