<!-- Created by ERK --><svg xmlns="http://www.w3.org/2000/svg" width="3779.805" height="684.9" viewBox="0 0 1000.073 181.213"><g style="display:inline"><path d="M689.8 532v-12.7l10.6-6.9c30.6-19.6 48.9-52.8 48.9-88.8s-18.2-69.1-48.8-88.8l-10.6-6.9v-222c0-23.2-18.9-42.2-42.1-42.2H164.3c-23.2 0-42.2 18.9-42.2 42.2V328l-10.6 6.9c-30.7 19.6-48.9 52.8-48.9 88.8s18.3 69.1 48.8 88.8l10.6 6.9v80.1l-21.8 1.4c-21.3 1.4-37.8 18.9-37.8 40.1 0 22.4 18.1 40.5 40.4 40.5h215.1c10.2-39 45.8-67.7 87.9-67.7s77.8 28.8 87.9 67.7h215.1c22.4 0 40.4-18.1 40.4-40.5 0-21.2-16.6-38.7-37.9-40.1l-21.8-1.4v-21.9z" class="st1" style="fill:#fdbc1a;fill-opacity:1" transform="translate(-7.805 -7.805)scale(.26458)"/><path d="M137.186 42.28c7.462 0 14.473 2.884 19.738 8.176 5.292 5.292 8.176 12.277 8.176 19.764 0 7.462-2.884 14.473-8.176 19.738-5.291 5.292-12.303 8.176-19.738 8.176s-14.472-2.884-19.737-8.176c-5.292-5.291-8.176-12.303-8.176-19.738 0-7.46 2.884-14.472 8.176-19.764 5.238-5.265 12.276-8.176 19.737-8.176m0-6.164c-18.811 0-34.078 15.266-34.078 34.078s15.267 34.078 34.078 34.078 34.105-15.266 34.105-34.078-15.266-34.078-34.105-34.078"/><circle cx="460.7" cy="294.8" r="31.1" transform="translate(-7.805 -7.805)scale(.26458)"/><path d="M62.045 42.28c7.461 0 14.472 2.884 19.738 8.176 5.291 5.292 8.175 12.277 8.175 19.764 0 7.462-2.884 14.473-8.175 19.738-5.292 5.292-12.303 8.176-19.738 8.176s-14.473-2.884-19.738-8.176c-5.292-5.291-8.176-12.303-8.176-19.738 0-7.46 2.884-14.472 8.176-19.764 5.239-5.265 12.277-8.176 19.738-8.176m0-6.164c-18.812 0-34.079 15.266-34.079 34.078s15.267 34.078 34.079 34.078 34.078-15.266 34.078-34.078-15.266-34.078-34.078-34.078"/><circle cx="351.2" cy="294.8" r="31.1" transform="translate(-7.805 -7.805)scale(.26458)"/><path d="M180.79 145.071V132.98c9.445-6.06 15.795-16.59 15.795-28.655s-6.297-22.622-15.795-28.654V20.214c.053-9.551-7.673-17.304-17.225-17.304h-127.9c-9.55 0-17.303 7.726-17.303 17.304v55.404C8.916 81.677 2.566 92.234 2.566 104.272c0 12.065 6.324 22.622 15.796 28.655v12.091c-8.81.582-15.796 7.779-15.796 16.722 0 9.313 7.541 16.827 16.801 16.827h62.257c0-9.895 8.017-17.912 17.912-17.912 9.896 0 17.913 8.017 17.913 17.912h62.23c9.313 0 16.8-7.54 16.8-16.827.106-8.89-6.879-16.14-15.69-16.669m-.98 27.41h-56.938c-2.698-10.318-12.117-17.911-23.256-17.911-11.14 0-20.585 7.62-23.257 17.912H19.42c-5.926 0-10.689-4.79-10.689-10.716 0-5.609 4.392-10.24 10.001-10.61l5.768-.37V129.54l-2.804-1.826C13.6 122.53 8.784 113.744 8.784 104.22s4.842-18.282 12.912-23.495L24.5 78.9V20.214c0-6.138 5.001-11.165 11.166-11.165h127.9c6.138 0 11.138 5 11.138 11.165v58.764l2.805 1.826c8.096 5.186 12.938 13.97 12.938 23.495s-4.842 18.282-12.938 23.495l-2.805 1.825v21.193l5.768.37c5.636.371 10.028 5.002 10.028 10.61-.026 5.9-4.815 10.69-10.69 10.69M269.028 60.14h-51.964v118.427h51.964c9.87 0 17.86-7.99 17.86-17.86V78.053c.026-9.895-8.017-17.912-17.86-17.912m11.748 100.568c0 6.482-5.265 11.747-11.748 11.747h-45.852V66.252h45.826c6.482 0 11.747 5.265 11.747 11.747zm114.459-40.826-30.057-20.135V91.81a3.02 3.02 0 0 1 3.572-2.99c1.508.265 2.54 1.667 2.54 3.176v6.508l31.856 21.405V78.026c0-9.87-7.99-17.86-17.86-17.86h-34.105c-9.869 0-17.859 7.99-17.859 17.86v26.008c0 5.953 2.963 11.536 7.911 14.843l30.057 20.135v7.938c0 1.878-1.667 3.307-3.572 2.99-1.508-.239-2.54-1.668-2.54-3.176v-6.508l-31.856-21.405v41.857c0 9.869 7.99 17.86 17.86 17.86h34.104c9.87 0 17.86-7.991 17.86-17.86v-23.23 5.741-8.44c0-6.006-2.964-11.589-7.911-14.896m1.799 17.594v23.23c0 6.483-5.265 11.748-11.748 11.748h-34.105c-6.482 0-11.747-5.265-11.747-11.747v-30.321l19.606 13.15v3.254c0 4.604 3.227 8.493 7.672 9.234.503.08.98.132 1.509.132 2.196 0 4.26-.794 5.953-2.196a9.16 9.16 0 0 0 3.228-7.011v-11.192l-2.7-1.826-30.03-20.108a11.78 11.78 0 0 1-5.212-9.763V78.026c0-6.483 5.266-11.748 11.748-11.748h34.105c6.482 0 11.747 5.265 11.747 11.748V108.4l-19.605-13.15v-3.254c0-4.63-3.228-8.494-7.673-9.234a9.4 9.4 0 0 0-1.508-.133c-2.197 0-4.26.794-5.954 2.196a9.16 9.16 0 0 0-3.228 7.012v11.192l2.7 1.825 30.056 20.135a11.78 11.78 0 0 1 5.212 9.763zm347.795-17.594-30.057-20.135V91.81a3.02 3.02 0 0 1 3.572-2.99c1.508.265 2.54 1.667 2.54 3.176v6.508l31.856 21.405V78.026c0-9.87-7.99-17.86-17.86-17.86h-34.13c-9.869 0-17.86 7.99-17.86 17.86v26.008c0 5.953 2.964 11.536 7.912 14.843l30.056 20.135v7.938c0 1.878-1.667 3.307-3.572 2.99-1.508-.239-2.54-1.668-2.54-3.176v-6.508L682.89 118.85v41.857c0 9.869 7.99 17.86 17.859 17.86h34.105c9.869 0 17.86-7.991 17.86-17.86v-23.23 5.741-8.44c0-6.006-2.938-11.589-7.885-14.896m1.772 17.594v23.23c0 6.483-5.265 11.748-11.747 11.748h-34.105c-6.482 0-11.748-5.265-11.748-11.747v-30.321l19.606 13.15v3.254c0 4.604 3.228 8.493 7.673 9.234a9.6 9.6 0 0 0 1.508.132c2.196 0 4.26-.794 5.953-2.196a9.16 9.16 0 0 0 3.228-7.011v-11.192l-2.699-1.826-30.056-20.135a11.78 11.78 0 0 1-5.213-9.763V78c0-6.482 5.266-11.747 11.748-11.747h34.105c6.482 0 11.747 5.265 11.747 11.747v30.4l-19.579-13.15v-3.254c0-4.63-3.228-8.494-7.673-9.234a10 10 0 0 0-1.508-.133c-2.196 0-4.26.794-5.953 2.196a9.16 9.16 0 0 0-3.228 7.012v11.192l2.699 1.825 30.056 20.135a11.78 11.78 0 0 1 5.213 9.763zm-153.723-17.593-30.056-20.135V91.81a3.02 3.02 0 0 1 3.572-2.99c1.508.265 2.54 1.667 2.54 3.176v6.508l31.855 21.405V78.026c0-9.87-7.99-17.86-17.859-17.86h-34.105c-9.869 0-17.86 7.99-17.86 17.86v26.008c0 5.953 2.964 11.536 7.912 14.843l30.057 20.135v7.938c0 1.878-1.667 3.307-3.572 2.99-1.508-.239-2.54-1.668-2.54-3.176v-6.508l-31.856-21.405v41.857c0 9.869 7.99 17.86 17.86 17.86h34.104c9.869 0 17.86-7.991 17.86-17.86v-23.23 5.741-8.44c0-6.006-2.99-11.589-7.912-14.896m1.8 17.594v23.23c0 6.483-5.266 11.748-11.748 11.748h-34.131c-6.483 0-11.748-5.265-11.748-11.747v-30.321l19.606 13.15v3.254c0 4.604 3.228 8.493 7.673 9.234.502.08 1.005.132 1.508.132 2.196 0 4.26-.794 5.953-2.196a9.16 9.16 0 0 0 3.228-7.011v-11.192l-2.699-1.826-30.056-20.135a11.78 11.78 0 0 1-5.213-9.763V78c0-6.482 5.265-11.747 11.748-11.747h34.105c6.482 0 11.747 5.265 11.747 11.747v30.4l-19.58-13.149v-3.254c0-4.63-3.227-8.494-7.672-9.234a10 10 0 0 0-1.508-.133c-2.196 0-4.26.794-5.953 2.196a9.16 9.16 0 0 0-3.228 7.012v11.192l2.699 1.825 30.056 20.135a11.78 11.78 0 0 1 5.212 9.763zM294.931 60.14v118.427h31.856V60.14Zm25.77 112.342h-19.605V66.252H320.7zM805.55 60.14h-47.386v28.628h15.53v89.8h31.856v-89.8h15.531V60.14Zm9.34 22.516h-15.53v89.826h-19.606V82.656h-15.532V66.278h50.615z"/><path d="M251.222 82.656h-8.414v73.501h8.414a9.937 9.937 0 0 0 9.948-9.948V92.604c0-5.477-4.445-9.948-9.948-9.948m3.81 63.5a3.82 3.82 0 0 1-3.837 3.836h-2.301V88.768h2.301a3.82 3.82 0 0 1 3.837 3.836zM478.26 60.14h-31.855v30.93l-6.112 6.111V60.14h-31.856v118.427h31.856v-37.015l6.112 6.112v30.93h31.856V134.46l-15.081-15.08 15.08-15.081zm-6.111 41.619-17.621 17.621 17.621 17.621v35.48h-19.606v-27.33l-18.362-18.363v45.667h-19.605V66.252h19.605v45.667l18.362-18.362V66.252h19.606zM644.578 60.14v51.885h-6.112V60.14H606.61v65.829c0 9.868 7.99 17.858 17.86 17.858h20.108v6.112h-31.856v28.575h45.826c9.869 0 17.86-7.99 17.86-17.859V60.113h-31.83zm25.69 100.568c0 6.482-5.264 11.747-11.747 11.747h-39.74v-16.324h31.882v-18.389h-26.22c-6.482 0-11.747-5.265-11.747-11.747V66.25H632.3v51.885h18.389V66.252h19.605zm187.908-71.94h23.363V60.14H826.32v118.427h55.219V150.02h-23.363v-16.325h23.363v-28.628h-23.363Zm17.224 22.436v16.378h-23.362v28.575H875.4v16.298h-42.968V66.252H875.4v16.377h-23.362v28.549zM979.726 60.14h-24.342c-4.498 0-8.599 1.693-11.774 4.418a17.88 17.88 0 0 0-11.774-4.418h-42.201v118.427h31.856V91.863a3.054 3.054 0 0 1 3.069-3.069c1.72 0 3.07 1.376 3.07 3.07v86.756h31.855V91.837c0-1.72 1.376-3.07 3.07-3.07a3.055 3.055 0 0 1 3.068 3.07v86.757h31.856V78.052c.132-9.895-7.884-17.912-17.753-17.912m11.747 112.342h-19.606V92.18c0-4.683-3.333-8.864-7.99-9.446-5.636-.74-10.425 3.651-10.425 9.128v80.619h-19.579V92.18c0-4.683-3.333-8.864-7.99-9.446-5.636-.74-10.425 3.651-10.425 9.128v80.619h-19.605V66.252h36.062c3.017 0 5.821 1.164 7.859 3.042 1.772 1.614 3.042 5.795 3.598 7.726.08.291.476.291.555 0 .556-1.984 1.826-6.112 3.572-7.726 2.117-1.905 4.842-3.042 7.858-3.042H979.7c6.482 0 11.748 5.265 11.748 11.747z"/><path d="M2806.9 681.4c24.5 0 44.4-19.9 44.4-44.4v-98c0-14.8-7.4-28.6-19.7-36.9L2718 426l-10.2-6.9v-42.3c0-10.1 4.5-19.9 12.2-26.5 6.4-5.4 14.3-8.3 22.5-8.3 1.9 0 3.7.1 5.7.5 16.8 2.8 29 17.4 29 34.9v12.3l74 49.7V324.6c0-24.5-19.9-44.4-44.4-44.4H2678c-24.5 0-44.4 19.9-44.4 44.4v98.3c0 14.8 7.4 28.6 19.7 36.9l113.6 76.1 10.2 6.9v42.3c0 10.1-4.5 19.9-12.2 26.5-6.4 5.4-14.3 8.3-22.5 8.3-1.9 0-3.7-.2-5.7-.5-16.8-2.8-29-17.4-29-34.9V572l-74.1-49.7V637c0 24.5 19.9 44.4 44.4 44.4zm-574.2 0c24.5 0 44.4-19.9 44.4-44.4v-98c0-14.8-7.4-28.6-19.7-36.9L2143.8 426l-10.2-6.9v-42.3c0-10.1 4.5-19.9 12.2-26.5 6.4-5.4 14.3-8.3 22.5-8.3 1.9 0 3.7.1 5.7.5 16.8 2.8 29 17.4 29 34.9v12.3l74 49.7V324.6c0-24.5-19.9-44.4-44.4-44.4h-128.9c-24.5 0-44.4 19.9-44.4 44.4v98.3c0 14.8 7.4 28.6 19.7 36.9l113.6 76.1 10.2 6.9v42.3c0 10.1-4.5 19.9-12.2 26.5-6.4 5.4-14.3 8.3-22.5 8.3-1.9 0-3.7-.2-5.7-.5-16.8-2.8-29-17.4-29-34.9V572l-74.1-49.7V637c0 24.5 19.9 44.4 44.4 44.4zm330.1-44.5v-357h-74.1V476h-69.5V279.9h-74.1v225.7c0 24.5 19.9 44.4 44.4 44.4h99.2v69.5h-120.4v61.7h150.2c24.5.2 44.3-19.8 44.3-44.3m-815.4-156.2 66.6-66.6V279.9h-74.2v103.2l-69.4 69.6V279.9h-74.1v401.5h74.1V508.6l69.4 69.6v103.2h74.2V547.3zm-580-200.8h74.1v401.4h-74.1zm318.2 401.5c24.5 0 44.4-19.9 44.4-44.4v-98c0-14.8-7.4-28.6-19.7-36.9L1396.7 426l-10.2-6.9v-42.3c0-10.1 4.5-19.9 12.2-26.5 6.4-5.4 14.3-8.3 22.5-8.3 1.9 0 3.7.1 5.7.5 16.8 2.8 29 17.4 29 34.9v12.3l74.1 49.7V324.6c0-24.5-19.9-44.4-44.4-44.4h-128.9c-24.5 0-44.4 19.9-44.4 44.4v98.3c0 14.8 7.4 28.6 19.7 36.9l113.6 76.1 10.2 6.9v42.3c0 10.1-4.5 19.9-12.2 26.5-6.4 5.4-14.3 8.3-22.5 8.3-1.9 0-3.7-.2-5.7-.5-16.8-2.8-29-17.4-29-34.9V572l-74.1-49.7V637c0 24.5 19.9 44.4 44.4 44.4zm-394.9-44.5V324.5c0-24.5-19.9-44.4-44.4-44.4H873v401.4h173.2c24.5-.1 44.5-20.1 44.5-44.6m-74.1-55c0 20.8-16.8 37.6-37.6 37.6h-31.8V341.9H979c20.8 0 37.6 16.8 37.6 37.6zm2686.1-204v303.5h74.1V324.5c0-24.5-19.9-44.4-44.4-44.4h-92c-11.4 0-22 4.4-29.7 11.5-6.8 6.1-11.5 21.8-13.5 29.2-.3 1.1-1.8 1.1-2.1 0-2.1-7.5-7-23.2-13.6-29.2-8-7.2-18.3-11.5-29.7-11.5h-136.3v401.4h74.1V376.6c0-20.7 18.1-37.2 39.4-34.5 17.5 2.3 30.2 18 30.2 35.7v303.5h74.1V376.6c0-20.7 18.1-37.2 39.4-34.5 17.3 2.3 30 18.1 30 35.8m-651.8-36h58.5v-62h-191.2v62h58.5v339.5h74.2zm198.9 0h88.3v-62h-162.4v401.5h162.4v-61.8h-88.3V511.5h88.3v-61.7h-88.3z" class="st1" style="fill:#fdbc1a;fill-opacity:1" transform="translate(-7.805 -7.805)scale(.26458)"/><path d="M1450.9 122c-.4 45.1 35.8 82.1 81 82.6 30.2-.1 57.9-17.2 71.6-44.2l.3-.7h-35.6c-9.7 9.6-22.6 15-36.2 15.1-29.1-.8-52.3-25.1-51.5-54.3.8-28.1 23.4-50.8 51.5-51.5 13.4 0 26.4 5.4 35.8 14.9l36 .1-.3-.7c-13.7-27-41.4-44-71.6-44.1-45 .6-81.3 37.5-81 82.8m154.6.4c.9 44.8 37.9 80.4 82.6 79.5 44.8-.9 80.4-37.9 79.5-82.6-.9-44.2-36.9-79.5-80.9-79.6-45.3.5-81.6 37.5-81.2 82.7m29.3 0c.6-28.6 24.3-51.3 52.9-50.7s51.3 24.3 50.7 52.9c-.6 28.2-23.6 50.7-51.8 50.7-28.9-.3-52-24.1-51.8-52.9m635.3-82v162.8h82v-31.3h-51.3v-32.6h51.3V108h-51.3V71.7h51.3V40.4Zm-1231.5 0h-24.2l-112 162.8h34.8s17.3-25.3 17.5-25.6h54.9v25.6h29.5V40.4Zm-62.2 105.3 33.1-48.3v51.2h-35c.6-1 1.9-2.9 1.9-2.9m966.7-105.3h-34.3s-47.8 110.5-48.5 112.3c-.8-1.8-48.7-112.3-48.7-112.3H1777v162.9h30.6v-81c.5-.1 3-.7 3.4-.8l35.5 81.8h27.3s35.3-81 35.4-81.7c.5.1 3 .7 3.4.8v81h30.6v-163zm225.2 0H2138v109.9c.2 11.6-9.2 21.3-20.8 21.5-11.5.2-21.3-9.1-21.5-20.8V40.4H2065v109.9c-.5 28.7 22.4 52.2 51 52.7 28.7.5 52.2-22.4 52.7-51V40.5Zm193.6.1h-.5v163.4h30.7v-86c1.6 2.6 50.7 85.4 50.7 85.4h34.6s-34.7-58.5-35.2-59.4c.7-.2 2.1-.8 2.1-.8 27.4-10.2 41.4-40.9 31.1-68.2-7.6-20.2-26.6-33.8-48.1-34.5zm65.6 31.3c11.6.4 20.8 9.9 20.7 21.7.2 11.6-9 21.3-20.7 21.6h-35.3V71.9l33.3-.1zm-474.2-31.3h-.4v162.8h30.7v-58h22c28.9-.6 52-24.5 51.4-53.4-.5-28.2-23.2-50.9-51.4-51.4zm52.2 31.3c11.6.2 21 9.8 20.8 21.6-.2 11.3-9.4 20.5-20.8 20.7h-22V71.8Zm255.4-31.3h-83.4v31.2h26.6v131.6h30.7V71.8h26.7V40.5Zm-859.8 0s-32.7 63.6-33.4 65.2c-.8-1.5-33.4-65.2-33.4-65.2h-32.5l50.5 100-.1 62.8h30.8l.1-62.9c.1 0 50.5-99.9 50.5-99.9zm-107.7 0h-30.2v162.8h72.3V172h-41.6V40.5Zm-40.1 0h-28.8v162.8h29.1V40.5Zm-38.6 0h-34.3s-47.8 110.4-48.5 112.2l-48.7-112.2h-34.6v162.8h30.6v-81c.5-.1 3-.7 3.4-.8.3.7 35.5 81.7 35.5 81.7h27.3l35.5-81.7c.5.1 3 .7 3.4.8v81h30.6V40.5Zm-276.1 0h-83.9v162.8h31.2v-64.1H939V108h-53.1V70.5H939v-30z" style="fill:#fff" transform="translate(-7.805 -7.805)scale(.26458)"/></g></svg>