<!-- Created by ERK --><svg xmlns="http://www.w3.org/2000/svg" width="395.408" height="188.083" viewBox="0 0 104.618 49.764"><path d="M50.206 12.65h.025c.584-1.04 1.483-1.053 1.483-1.053h2.333l.002 10.741c0 .581-.434 1.204-1.008 1.238v.025h4.315v-.025c-.58-.034-1.015-.661-1.015-1.238l.003-10.741 1.95-.005a1.08 1.08 0 0 1 1.078 1.058h.024l.716-2.407h-9.188zm21.476 7.363c0 1.389 1.13 2.59 2.525 2.59 1.391 0 2.526-1.217 2.526-2.607v-8.483c0-.584-.433-1.209-1.007-1.24v-.026l4.31-.004v.03c-.572.031-1.008.656-1.008 1.24v8.243c0 2.653-2.146 4.2-4.812 4.2-2.66 0-4.83-1.547-4.83-4.2l.003-8.243c0-.584-.434-1.208-1.01-1.24v-.03h4.311v.03c-.577.035-1.01.66-1.01 1.24zm-48.489-2.935h3.045c.578 0 1.117.433 1.146 1.005h.028V15.73h-4.219l-.002-4.132h4.07c.58 0 1.12.43 1.15 1.002h.027l-.004-2.356-8.542.004v.026c.575.032 1.006.656 1.006 1.24v10.825c0 .581-.43 1.208-1.006 1.241v.026h4.31v-.026c-.576-.033-1.011-.66-1.011-1.241Zm8.819 2.935c0 1.389 1.13 2.59 2.524 2.59 1.393 0 2.527-1.217 2.527-2.607v-8.483c0-.584-.433-1.209-1.01-1.24v-.026l4.313-.004v.03c-.576.031-1.012.656-1.012 1.24v8.243c0 2.653-2.145 4.2-4.807 4.2-2.666 0-4.834-1.547-4.834-4.2l.005-8.243c0-.584-.435-1.208-1.007-1.24v-.03h4.307v.03c-.574.035-1.008.66-1.008 1.24zm35.24-7.606c-.723-1.194-2.372-1.05-2.372-1.05-2.697 0-2.57 2.103-2.57 2.103s-.185 1.056 1.17 1.776l2.697 1.464c2.603 1.428 2.294 3.458 2.294 3.458s.118 3.79-5.326 3.79c0 0-1.582.05-2.478-.293l-.766-2.456h.027c.83 1.223 3.239 1.4 3.239 1.4 3.059-.138 3.08-2.263 3.08-2.263s.138-.915-1.06-1.578l-2.683-1.465c-2.802-1.53-2.482-3.592-2.482-3.592s-.066-3.73 4.75-3.73c0 0 2.163.058 2.508.403v2.032zm-21.015-6.81a2.64 2.64 0 0 0 1.872.774 2.647 2.647 0 0 0 2.653-2.644 2.65 2.65 0 0 0-2.653-2.642s-2.043-.193-2.962 2.412l.003-1.956C45.834.65 46.893 0 48.11 0a3.733 3.733 0 0 1 3.742 3.727 3.737 3.737 0 0 1-3.742 3.73 3.72 3.72 0 0 1-2.643-1.093L44.18 4.922a1.94 1.94 0 0 0-1.37-.565 1.935 1.935 0 0 0-1.941 1.93c0 1.071.868 1.937 1.94 1.937 0 0 1.434.191 2.34-1.58l.002 1.567a3.04 3.04 0 0 1-2.341 1.098 3.03 3.03 0 0 1-3.033-3.022 3.025 3.025 0 0 1 3.033-3.016c.833 0 1.59.334 2.14.885zm.69 5.888c0-.584-.434-1.183-1.009-1.213v-.025h4.304v.025c-.572.033-1.007.632-1.007 1.212v10.849c0 .582.435 1.209 1.007 1.243v.025h-4.304v-.025c.575-.034 1.008-.661 1.008-1.243Zm-2.703.028c0-.584.433-1.208 1.008-1.24v-.026h-4.31v.026c.577.032 1.007.656 1.007 1.24l.004 13.562s-.049 2.395-1.93 3.773l.004.026c.372-.062 4.22-.79 4.22-4.602z" style="fill:#e60012;stroke-width:.572558"/><g fill="#545454"><path d="M47.487 169.509v12.942H2.836V169.51h10.206v-50.476h-8.93v-15.53h91.852v32.356H76.828v-16.826H37.281v19.414h28.066v15.531H37.28v15.531zm65.062-1.294v-50.476h-8.93v-14.236h34.01l21.65 45.169 22.593-45.17h36.563v14.237h-8.93l-.013 50.463 7.667.026v14.223h-40.823v-14.236l7.654-.013-.051-30.337-22.07 44.586h-10.614l-23.333-45.686c-.154 10.043-.026 21.393-.064 31.437 2.551.013 5.103.013 7.654.026v14.223H103.62v-14.236zm114.816-32.356h39.548v14.236h-39.548zm90.743-12.879c-4.86.726-7.03 5.786-6.736 10.303l-15.118-.013v-28.473h88.026v17.692c-8.343 2.446-14.352 8.193-19.404 15.7-8.152 13.136-11.443 28.9-11.214 44.25-9.848 0-19.697.051-29.533-.026 1.684-11.183 4.146-22.365 8.739-32.719 3.572-6.717 9.9-14.91 16.916-20.332 3.024-2.369 5.633-4.504 9.517-6.355z" style="fill:#fff" transform="translate(-.75 -.172)scale(.26458)"/><path fill="none" stroke="#545454" stroke-width="3" d="M284.198 99.567h112.546v87.666H284.198Z" opacity=".98" style="stroke:#fff" transform="translate(-.75 -.172)scale(.26458)"/></g></svg>