<?xml version="1.0" encoding="UTF-8"?>
<!-- Created by ERK -->
<svg width="5091.1" height="1216.5" version="1.2" viewBox=".001 -1 5091.1 1216.5" xml:space="preserve" xmlns="http://www.w3.org/2000/svg">
    
    
    
    
    
<g transform="translate(0 121.45)"><path d="m964.96 235.09c97.47-163.6 231.77-265.69 299.87-228.42 67.95 37.443 44.001 200.41-53.712 363.88-97.551 163.6-231.78 265.68-299.73 228.39-68.148-37.416-44.046-200.39 53.541-363.85z" fill="#034693" stroke-width="8.9834"/><path d="m528.6 235.09c97.542-163.59 231.8-265.69 299.87-228.41 67.95 37.443 44.001 200.41-53.712 363.88-97.533 163.6-231.79 265.68-299.73 228.38-68.094-37.416-44.001-200.39 53.568-363.85z" fill="#00916d" stroke-width="8.9834"/><path d="m92.263 235.09c97.533-163.59 231.8-265.69 299.89-228.41 67.95 37.443 44.001 200.41-53.712 363.88-97.551 163.6-231.8 265.68-299.73 228.38-68.112-37.416-44.019-200.39 53.55-363.85z" fill="#d60700" stroke-width="8.9834"/><g transform="translate(2925.6 -1580.7)" fill="#fff"><path class="st0" d="m2120.5 2004.2-1.4-6.3-0.1-0.3c-1-4.4-2.5-11.8-5.2-24-6.6-30.7-29.7-37.6-29.7-37.6 85.6-47.9 81.4-136.5 81.4-142.4 0-87.6-81.8-157.9-149.6-157.9h-91.3c-29.6 0-54.7 21.4-59.4 50.6l-74.6 462h104.7l29.6-182.8h47c19.7 0 36.7 13.8 40.8 32.9l32.4 150h106.5zm-133.2-142.3h-45.7l19.7-123h43.1c20.5 0 40.7 20.5 45.2 44.9 6.8 36.5-21.3 78.1-62.3 78.1z"/><path class="st0" d="m1612.8 1633.9c-28.8 0-57.9 15.3-71.7 48.2l-192.8 466.1h111.9l39.9-96.4h118.1l8.6 96.4h103.8l-39.4-443.1c-4-45.8-41.1-71.2-78.4-71.2zm-69.7 314.5 54.4-131.4 11.7 131.4z"/><path class="st0" d="m1362.5 1635.7h-218.6c-29.9 0-55.2 21.7-59.6 51.2l-58.9 392.2c-5.4 36.3 22.8 69.1 59.6 69.1h200.6l15.4-103.5h-165.7l14.7-97.9h139.2l15.2-103.5h-139l15.7-104.5h166.1z"/><path class="st0" d="m981 1740.4s-69.1-132.4-199-132.4c-161.2 0-267.7 161.6-273.4 281.9-9.7 206.3 153 269.1 223.9 269.1 142.5 0 220.9-130.2 251.4-232 9.6-32.2-14.5-64.5-48.1-64.5h-161.6l-42.9 103.5h120.6c-26.5 47.5-73.9 82.5-129.6 82.5-28.2 0-113-25.6-107.1-150.3 4-83.7 70.1-186.3 166.9-186.3 64.2 0 106.9 76.5 106.9 76.5z"/></g><g transform="translate(1506.9 -965.18)" fill="#fff"><path class="st0" d="m1759.3 1020.1h-218.6c-29.9 0-55.2 21.7-59.6 51.2l-58.9 392.2c-5.4 36.3 22.8 69.1 59.6 69.1h200.6l15.4-103.5h-165.7l14.7-97.9h139.2l15.2-103.5h-139l15.7-104.5h166.1z"/><path class="st0" d="m1263.6 1060.7-120.8 253.4-40.8-234c-6.9-40-39.1-60-71.3-60-32.8 0-65.5 20.6-71.7 61.6l-67.8 450.9h104.5l37.2-246.6 35.6 204c4.9 27.9 28.2 43.2 51.7 43.2 18.5 0 37.2-9.4 46.8-29.7l94.9-199.4-34.3 228.5h104.6l64.8-431.2c7.5-49.4-31.8-81.3-71.1-81.3-24.4 0-49 12.4-62.3 40.6z"/><path class="st0" d="m720.8 1018.3c-28.9 0-57.9 15.3-71.7 48.2l-192.8 466.1h111.9l39.9-96.4h118.1l8.6 96.4h103.8l-39.4-443.1c-4.1-45.7-41.1-71.2-78.4-71.2zm-69.9 314.6 54.4-131.4 11.7 131.4z"/><path class="st0" d="m472.8 1124.9s-69.1-132.4-199-132.4c-161.2 0-267.7 161.6-273.4 281.9-9.7 206.3 153 269.1 223.9 269.1 142.5 0 220.9-130.2 251.4-232 9.6-32.2-14.5-64.5-48.1-64.5h-161.6l-42.8 103.4h120.6c-26.5 47.5-73.9 82.5-129.6 82.5-28.2 0-113-25.6-107.1-150.3 4-83.7 70.1-186.3 166.9-186.3 64.2 0 106.9 76.5 106.9 76.5z"/></g></g><g transform="matrix(1.0224 0 0 1.0226 -341.99 -1135.7)" stroke-width=".97801"><path transform="translate(2.2959e-6)" d="m2762.5 2117.1c23.255 39.584 65.862 63.755 111.77 63.408l1365.2-10.336c76.964-0.5827 147.77-42.181 185.75-109.13l3.2301-5.6919c22.652-39.933 22.282-88.917-0.9738-128.5-23.255-39.584-65.862-63.755-111.77-63.408l-1365.2 10.338c-76.962 0.5808-147.77 42.179-185.75 109.12l-3.23 5.697c-22.651 39.93-22.28 88.914 0.975 128.5z" fill="#fff"/><path d="m3955.1 1908.6c-2.6879-6e-4 -5.0068 1.8853-5.5515 4.5133l-7.0683 34.019c-0.7318 3.52 1.9544 6.8217 5.5496 6.8186h19.3c2.6869 0 5.0057-1.8843 5.5515-4.5133l7.0683-34.017c0.7309-3.519-1.9555-6.8231-5.5496-6.8225zm38.601 0c-2.6879-6e-4 -5.0049 1.8853-5.5496 4.5133l-7.0683 34.019c-0.7318 3.52 1.9544 6.8217 5.5496 6.8186h19.3c2.6869 0 5.0057-1.8843 5.5515-4.5133l7.0683-34.017c0.7309-3.519-1.9574-6.8231-5.5515-6.8225zm-806.37 0c-2.7525-5e-4 -5.1059 1.9757-5.5859 4.6833l-5.9947 34.017c-0.6138 3.4709 2.0571 6.6539 5.5821 6.6524h17.27c2.7512 0 5.1058-1.9727 5.5821-4.6813l5.9985-34.019c0.6126-3.47-2.0583-6.653-5.5821-6.6525zm36.459 0c-2.7524-6e-4 -5.1059 1.9757-5.5859 4.6833l-5.9947 34.017c-0.6137 3.471 2.0571 6.6539 5.5821 6.6524h17.27c2.7512 0 5.1057-1.9728 5.582-4.6813l5.9986-34.019c0.6125-3.47-2.0584-6.6531-5.5821-6.6525zm634.66 5.6708c-5.8813 0-10.785 4.4926-11.298 10.35l-2.5714 29.33h-62.322c-5.505 0-10.213 3.9529-11.168 9.3704l-3.6679 20.788c-1.2225 6.9428 4.1181 13.308 11.168 13.309h62.19l-2.9687 34.009h-83.71c-5.5024 0-10.21 3.953-11.168 9.3704l-3.664 20.788c-1.225 6.9429 4.1169 13.308 11.164 13.309h83.567l-4.539 51.925c-0.5799 6.6269 4.6433 12.327 11.298 12.327h34.213c5.88 1e-4 10.784-4.4936 11.298-10.35l4.7109-53.902h80.602c5.5038 0 10.212-3.9523 11.168-9.3704l3.6622-20.788c1.2264-6.9421-4.1135-13.307-11.162-13.309h-80.461l2.9706-34.009h68.861c5.503 0 10.211-3.9524 11.168-9.3704l3.6622-20.788c1.2255-6.9423-4.1144-13.307-11.162-13.309h-68.729l2.3994-27.357c0.5787-6.6244-4.6445-12.324-11.298-12.323zm-271.91 0.8155c-3.8403 0.091-7.4233 2.1362-9.4429 5.4951l-107.28 178.54c-9.0803 15.117 1.8053 34.358 19.438 34.359h207.4c22.123-2e-4 38.359-20.782 33.007-42.243l-20.916-83.888c-1.4042-5.6421-6.8506-9.3052-12.605-8.4803l-33.85 4.8418c-6.653 0.9532-11.022 7.4494-9.3971 13.97l16.618 66.67h-129.09l88.96-148.06c4.2287-7.0346-0.1883-16.092-8.333-17.092l-32.856-4.0319c-0.5553-0.069-1.1076-0.095-1.6563-0.082zm-529.38 2.9682c-5.4586 0-10.141 3.8895-11.141 9.2538l-5.9604 31.906c-4.927 26.364-26.565 46.376-53.234 49.232-5.0216 0.5377-9.0831 4.332-9.9626 9.3073l-5.2726 29.935c-1.2111 6.8597 3.9883 13.176 10.95 13.307 38.69 0.7294 74.851-19.164 94.949-52.232h44.731l-5.8591 33.241c-3.9332 22.306-23.315 38.568-45.965 38.568h-59.798c-5.5117 0-10.227 3.9638-11.172 9.3933l-5.2611 30.237c-1.2078 6.9353 4.1318 13.282 11.172 13.282h65.061c48.33-2e-4 89.684-34.698 98.078-82.292l7.481-42.428h44.689c5.5019 0 10.21-3.9531 11.168-9.3704l4.6632-26.459c1.2243-6.9426-4.1163-13.308-11.168-13.309h-131.5l5.2554-28.151c1.3012-6.9766-4.0503-13.421-11.147-13.42zm974.3 9.4505c-5.6526 0-10.442 4.1614-11.229 9.7581l-3.7214 26.455c-0.9605 6.8242 4.3371 12.919 11.229 12.919h147.28v7.5597c-3e-4 12.524-10.152 22.677-22.676 22.677h-18.601l0.9895-5.5924c1.223-6.9444-4.1176-13.309-11.168-13.309h-30.701c-5.5032-5e-4 -10.211 3.9507-11.168 9.3704l-8.3425 47.31c-3.6628 20.773-21.711 35.917-42.804 35.917h-25.832c-5.5042 0-10.211 3.9506-11.166 9.3742l-5.3299 30.237c-1.2248 6.9427 4.1158 13.309 11.168 13.309h31.16c45.941-1e-4 85.497-32.431 94.504-77.482h24.38c35.926 2e-4 67.371-24.127 76.669-58.827l14.847-55.403c1.9273-7.2015-3.4989-14.273-10.956-14.271zm-784.69 73.695c-5.5041 0-10.212 3.9498-11.168 9.3704l-5.3299 30.233c-1.2246 6.9441 4.116 13.309 11.168 13.309h235.87c5.5005 3e-4 10.208-3.9509 11.162-9.3703l5.3319-30.239c1.2261-6.9402-4.1157-13.304-11.164-13.303z"/></g></svg>
