<!-- Created by ERK --><svg xmlns="http://www.w3.org/2000/svg" viewBox="0 0 983 292"><path d="M83.664 36.756Q62.345 36.255 43.42 48.73c-19.01 12.54-28.47 31.87-26.53 55.1 1.77 21.37 18.28 37.45 38.61 41.69q5.159 1.08 14.62.83a1076 1076 0 0 1 41.76-.31.76.75 12 0 0 .69-.44l8.54-18.97a.34.34 0 0 1 .64.09l3.01 18.84a.6.61 85.1 0 0 .61.51q105.9-.34 211.81-.34c14.74 0 24.23-1.89 34.26-11.79a.5.5 0 0 1 .7.01c13.85 13.94 35.06 17.72 52.34 7.77a44 44 0 0 1 3.32-1.73q.55-.26.45.34l-.81 5.09a.5.5 0 0 0 .49.58h43.5a.8.81 4.7 0 0 .79-.68l1-6.58a.81.81 0 0 1 .61-.67q3.41-.86 5.73-3.47a1.05 1.03 20.1 0 1 .79-.36q58.45.04 116.9-.02c16.59-.01 32.53-1.51 44.97-13.95a.46.45 51.1 0 1 .71.08l8.42 13.44a.99.98 73.8 0 0 .83.46h129.05a.48.48 0 0 0 .48-.48l.12-15.98q.01-1.991 1.58-.76L805.05 134a1.24 1.22 63.2 0 0 .74.25h159.96a.5.5 0 0 0 .5-.5V51.04a.51.51 0 0 0-.51-.51q-76.24-.07-152.48-.01c-4.92.01-13.91.47-20.96.05a.52.52 0 0 0-.55.52l.04 16.63a.42.42 0 0 1-.68.34l-21.52-16.97a2.69 2.76 64.8 0 0-1.7-.59h-91.23a1.08 1.1 14.2 0 0-.96.58l-10.75 20.44a.46.46 0 0 1-.8.01l-11.66-20.2a1.66 1.68 75.2 0 0-1.45-.83H513.06a.27.28 16 0 1-.23-.42l6.77-10.77a.36.36 0 0 0-.3-.55q-53.019-.03-105.75.01c-16.42.01-23.77 3.69-36.39 13.03a.55.56 49.9 0 1-.74-.06c-7.67-8.04-14.19-13.02-25.93-13.02q-93.81.03-187.69.03a.73.72 8.8 0 0-.69.5l-5.34 16.6a.43.42 49.6 0 1-.82-.07l-2.68-16.56a.55.56 85.8 0 0-.55-.47h-40.24a.73.73 0 0 0-.68.47l-.95 2.47a.58.58 0 0 1-.74.34q-13.654-4.974-26.446-5.274m-1.768 13.773c6.517-.035 13.115 1.055 19.434 3.4a.6.6 0 0 1 .38.651l-2.27 14.6a.47.46 13.2 0 1-.61.37C82.9 64.29 62.48 67.6 52.06 81.77c-7.33 9.96-7.81 27.25 5.36 33 4.59 2 11.14.86 16.26.41a.61.6 1.2 0 0 .54-.51l.98-6.36a.87.88 3.6 0 0-.88-1.01l-10.76.13a.6.6 0 0 1-.6-.69l2.01-13.65a.7.69 4.3 0 1 .69-.59H94.5a.57.57 0 0 1 .56.66l-4.03 25.95a.271.271 0 0 0 .52.15l29.18-66.05a.93.92 11.6 0 1 .85-.55l18.73.07a.69.69 0 0 1 .68.58l10.25 61.45a.34.34 0 0 0 .66.05l20.19-61.76a.68.67 8.9 0 1 .64-.46l14.89.1a.84.83 85.4 0 1 .81.69l7.47 40.86a.4.39 51.7 0 0 .75.09l17.61-41.25a.72.72 0 0 1 .68-.44l18.6.12a.56.57 89.5 0 1 .56.54l3.21 77.28a.64.64 0 0 1-.64.67h-14.81a.66.66 0 0 1-.66-.64l-2.04-46.58q-.02-.52-.33-.09-.61.85-1.42 2.73a26102 26102 0 0 1-19.14 44.32.62.61 11.8 0 1-.56.36l-10.16-.14a.53.54 84.5 0 1-.51-.42l-8.57-41.72q-.34-1.64-.85-.05l-13.33 41.79a.68.67 8.9 0 1-.64.46l-26.52-.01a.7.7 0 0 1-.69-.58l-3.93-22.21a.56.55 85 0 0-.54-.46l-17.49-.02a.92.9 12 0 0-.83.53l-10.22 22.2a.97.99 13.1 0 1-.9.57l-15.64-.06a.42.42 0 0 1-.38-.6l1.69-3.58q.35-.73-.39-.4a184 184 0 0 1-5.49 2.37c-20.39 8.39-48.43-1.19-51.43-25.23-3.964-31.818 22.767-53.106 51.006-53.26m411.554 1.96a.37.37 0 0 1 .31.57 5658 5658 0 0 0-27.689 43.91 11.1 11.1 0 0 0-1.61 4.46q-1.969 14.69-4.31 29.27a.63.62 4.3 0 1-.62.53l-15.28.08a.48.48 0 0 1-.48-.56l5.87-36.12a1.76 1.77 36.6 0 0-.15-1.05l-18.76-40.6a.34.33 77.5 0 1 .3-.48h17.64a.64.63 79.1 0 1 .59.41l9.61 24.64q.28.72.69.06l15.34-24.62a1 1.02 16.5 0 1 .85-.47zm-241.959.01h44.18a.31.31 0 0 1 .3.36l-2.54 16.38a.31.31 0 0 1-.31.26h-27.88a.31.31 0 0 0-.31.27l-1.92 13.44a.31.31 0 0 0 .31.35h24.1a.31.31 0 0 1 .31.36l-2.48 16.32a.31.31 0 0 1-.31.26h-24.09a.31.31 0 0 0-.3.26l-2.29 13.38a.31.31 0 0 0 .31.36h27.7a.31.31 0 0 1 .31.36l-2.72 16.13a.31.31 0 0 1-.3.26h-44.5a.31.31 0 0 1-.3-.36l12.43-78.13a.31.31 0 0 1 .3-.26m69.52.72q14.09.05 27.05.02c7.67-.02 12.36 1.97 17.37 7.34 8.95 9.6 5.29 21.62-3.2 29.79a.87.86 45.2 0 0 0 1.25c14.51 14.03 5.35 32.97-11.31 38.46q-3.63 1.19-9.93 1.19-16.11-.01-32.17-.06a.43.43 0 0 1-.43-.5q6-38.04 12.09-76.02.07-.46.02-.88a.52.52 0 0 1 .51-.59m94.142.15a33.4 40.43 13.2 0 1 23.286 46.987 33.4 40.43 13.2 0 1-41.75 31.735 33.4 40.43 13.2 0 1-23.286-46.988 33.4 40.43 13.2 0 1 41.75-31.735m118.293 10.845q3.09-.04 6.366.185c1.64.11 1.69.75 2.4 1.91q13.05 21.47 26.01 43.07a.29.28 29.9 0 0 .529-.14V65.03a.49.49 0 0 1 .49-.49q19.161-.111 38.25-.03 12.35.05 22.13 7.06a.2.2 0 0 0 .29-.27l-3.81-6.14q-.41-.66.37-.66h17.02a.9.9 0 0 1 .78.45l20.32 35.02a.4.4 0 0 0 .7-.01q9.3-16.9 18.72-33.96c1.12-2.02 1.79-1.51 3.76-1.49q6.83.07 13.16-.13.96-.03.48.81l-31.28 54.05a.95.95 0 0 1-.8.47l-9.5.06a1.08 1.09 74.3 0 1-.95-.53l-20.41-33.76q-.96-1.58-.82.26.1 1.32.3 3.7c2.08 23.72-16.72 30.34-36.2 30.36q-22.43.02-44.87-.1a.91.89 75 0 1-.78-.46l-22.44-39.68a.37.37 0 0 0-.65 0l-15.17 27.26a.46.46 0 0 0 .4.68H533a.5.5 0 0 1 .5.5v11.12a.63.63 0 0 1-.63.63h-38.09a.33.33 0 0 1-.29-.5l32.19-54.19a1.04 1.03 11.8 0 1 .77-.5 66 66 0 0 1 5.995-.345m229.735.015a1.69 1.72 64.4 0 1 1.05.36l41.06 32.19a.44.44 0 0 0 .71-.35V65.08a.61.61 0 0 1 .6-.61l13.36-.05a.54.53 89.5 0 1 .54.54v54.01a.54.55 87.1 0 1-.49.54c-2.93.31-9.63 1.08-12.35-1.14a4711 4711 0 0 0-39.29-31.66q-.641-.52-.64.31l.07 31.96a.77.77 0 0 1-.77.77h-25.87a.87.86 75 0 1-.75-.44l-22.54-39.94q-.261-.45-.51 0l-15.02 27.23a.44.44 0 0 0 .38.65h14.51a.49.49 0 0 1 .49.49l.09 11.07a.61.6 85.6 0 1-.51.6c-4.11.61-8.66-.01-12.08.12q-13.02.5-26.04.02a.29.29 0 0 1-.24-.44l32.1-54.25a1.21 1.2 15.2 0 1 1.04-.59l12.57.02a1.2 1.19 74.3 0 1 1.02.58l26.95 44.5a.26.26 0 0 0 .48-.14l-.15-44.22a.72.72 0 0 1 .72-.72zm130.64.01 57.86.03a.57.57 0 0 1 .57.57v11.6a.57.57 0 0 1-.57.57l-41.81-.02a.57.57 0 0 0-.57.56l-.07 6.62a.57.57 0 0 0 .57.58h24.13a.57.57 0 0 1 .57.57v11.11a.57.57 0 0 1-.57.57h-24.06a.57.57 0 0 0-.57.57l-.07 8.61a.57.57 0 0 0 .57.57h42.62a.57.57 0 0 1 .57.56l.12 11.61a.57.57 0 0 1-.57.58h-58.72a.57.57 0 0 1-.57-.57V64.81a.57.57 0 0 1 .57-.57m-22.07.07c15.32.1 16.72 5.87 16.31 19.86a.6.6 0 0 1-.6.58h-15.04a.56.56 0 0 1-.56-.57l.2-6.14a.77.77 0 0 0-.77-.79h-29.54a.5.5 0 0 0-.5.5v28a.5.5 0 0 0 .5.5h29.56a.57.57 0 0 0 .57-.56l.17-7.51a.51.51 0 0 1 .52-.5l14.8.31a.65.65 0 0 1 .63.61q.51 8.6-.7 13.14c-2.17 8.12-10.56 8.01-17.55 8.05a853 853 0 0 1-33.56-.48c-6.75-.23-10.14-4.07-10.54-10.65a269 269 0 0 1 0-32.94c.39-6.36 3.82-10.95 10.41-11.16q12.62-.39 35.69-.25m-459.842 4.112a16.74 24.96 14 0 0-22.281 20.168 16.74 24.96 14 0 0 10.205 28.27 16.74 24.96 14 0 0 22.281-20.17 16.74 24.96 14 0 0-10.205-28.268m-69.586 1.164c-2.642-.029-5.367.158-7.392.193a.23.25 6.1 0 0-.23.201l-2.4 13.71a.43.43 0 0 0 .4.5c6.76.39 14.71.9 18.01-3.33 2.57-3.3 2.62-8.14-1.49-10.17-1.694-.83-4.255-1.075-6.898-1.104M584.98 77.01a.47.47 0 0 0-.47.47l-.02 28.48a.58.58 0 0 0 .54.58q9.95.61 19.95-.15c11.51-.87 18.92-5.47 16.62-18.52-1.38-7.87-7.98-10.85-15.35-10.86q-10.74-.03-21.27 0m-458.015 1.21a.31.31 0 0 0-.315.17l-6.27 13.67a.31.31 0 0 0 .28.44h8.93a.31.31 0 0 0 .31-.37l-2.67-13.67a.31.31 0 0 0-.265-.24m209.107 22.089c-2.107.059-4.12.182-5.812.242a.72.72 0 0 0-.66.51c-1.26 4.12-1.72 10.239-2.26 14.609a.46.47 4.6 0 0 .44.52q11.19.5 17.21-.43c5-.78 8.97-5.82 6.65-10.81-2.054-4.418-9.245-4.818-15.568-4.641m135.873 16.101c4.2 0 7.785 3.257 7.785 7.678 0 4.457-3.585 7.725-7.785 7.725-4.236 0-7.814-3.268-7.814-7.725 0-4.421 3.578-7.678 7.814-7.678m0 1.285c-3.519 0-6.273 2.742-6.273 6.393 0 3.71 2.754 6.44 6.273 6.44 3.49 0 6.237-2.73 6.237-6.44 0-3.65-2.748-6.393-6.237-6.393m-2.963 1.971h3.37c2.103 0 3.142.77 3.142 2.527 0 1.59-.998 2.277-2.3 2.444l2.52 3.908h-1.505l-2.348-3.854h-1.535v3.854h-1.344zm1.344 1.14v2.743h1.602c1.14 0 2.162-.071 2.162-1.445 0-1.1-.998-1.297-1.936-1.297z" style="display:inline;fill:#1f00cc;fill-opacity:1;stroke:none;stroke-opacity:1"/><path d="M572.537 137.826v84.082h42.484V201.11h11.39v20.8H766.27c14.337.015 29.236.034 33.687 0l.236-.003.237-.01c.398-.016.799-.098 1.197-.125v.137h42.482V208.46l13.668 13.447h85.39c4.727 0 10.15-.879 15.06-4.58s7.726-10.04 8.2-15.213l.06-.654v-22.22l-.08-.759c-.007-.06-.037-.124-.044-.183h.194v-40.473H855.25l-11.14 7.07v-7.07h-42.483v.16c-.565-.018-1.151-.16-1.711-.16h-44.01l-.33.016c-4.889.225-9.704.846-14.828 4.049-5.124 3.202-9.36 10.677-9.36 16.83v.064c.005.905-.003.917 0 1.795l-12.94-22.754h-31.62l-18.004 30.094v-30.094H626.41v20.8h-11.389v-20.8zm14.309 14.309h13.867v20.799h40.006v-20.8h13.797v55.468h-13.797V186.8h-40.006v20.8h-13.867Zm108.095 0h15.184l31.547 55.467H725.24l-22.674-40.284-16.015 28.565h16.015v11.719H661.66l4.992-8.182zm61.293 0h43.682q9.914 0 10.676 6.586v15.322h-13.658V163.99h-37.717v32.031h37.855v-11.716h13.59l.069 15.183q.625 5.062-5.061 7.073-2.428.901-5.824 1.04-8.875.07-46.108 0-7.486 0-8.04-8.042.138-10.124 0-40.838-.001-6.102 10.536-6.586m59.702 0h13.867v18.789l29.605-18.79h22.81l-32.587 22.257 33.765 33.21h-19.76l-25.792-25.376-8.041 5.27v20.107h-13.867zm81.886 0h54.426v11.855h-51.445v10.192h42.293q8.46 0 9.084 5.824v20.8q-.624 6.796-9.014 6.796h-55.951v-11.58h51.236v-10.124h-40.629q-10.539-.554-10.539-7.07v-20.107q0-6.102 10.54-6.586m-87.17 67.838-.21.078c.03-.01.061-.036.091-.047.04-.015.08-.017.12-.031" style="display:inline;-inkscape-font-specification:GAMECUBEN;fill:#1f00cc;fill-opacity:1;stroke-linecap:square;stroke-miterlimit:23;paint-order:stroke markers fill"/><path d="M640.718 186.8v20.8h13.797v-55.466h-13.797v20.8h-40.005v-20.8h-13.867v55.467h13.867v-20.8Zm84.521 20.8-22.672-40.282-16.016 28.565h16.016v11.718h-40.906l4.992-8.182 28.288-47.285h15.184l31.546 55.467zm71.695-43.61h-37.717v32.032h37.856v-11.717h13.589l.07 15.184q.623 5.061-5.062 7.072-2.427.901-5.824 1.04-8.875.069-46.107 0-7.488 0-8.042-8.043.138-10.123 0-40.837 0-6.102 10.538-6.587h43.68q9.915 0 10.678 6.587v15.322h-13.66zm32.868 23.504 8.043-5.27 25.792 25.377h19.76L849.63 174.39l32.587-22.256h-22.81l-29.606 18.79v-18.79h-13.867v55.467h13.867zm113.364 20.107h-55.952v-11.579h51.237v-10.123h-40.63q-10.538-.554-10.538-7.072v-20.106q0-6.102 10.539-6.587h54.427v11.856h-51.446v10.192h42.294q8.458 0 9.082 5.824v20.8q-.624 6.795-9.013 6.795" style="display:inline;-inkscape-font-specification:GAMECUBEN;fill:#fff;stroke-linecap:square;stroke-miterlimit:23;paint-order:stroke markers fill"/><path d="M909.8 106.75h42.62a.57.57 0 0 1 .57.56l.12 11.61a.57.57 0 0 1-.57.58h-58.72a.57.57 0 0 1-.57-.57V64.81a.57.57 0 0 1 .57-.57l57.86.03a.57.57 0 0 1 .57.57v11.6a.57.57 0 0 1-.57.57l-41.81-.02a.57.57 0 0 0-.57.56l-.07 6.62a.57.57 0 0 0 .57.58h24.13a.57.57 0 0 1 .57.57v11.11a.57.57 0 0 1-.57.57h-24.06a.57.57 0 0 0-.57.57l-.07 8.61a.57.57 0 0 0 .57.57m-68.05-.5h29.56a.57.57 0 0 0 .57-.56l.17-7.51a.51.51 0 0 1 .52-.5l14.8.31a.65.65 0 0 1 .63.61q.51 8.6-.7 13.14c-2.17 8.12-10.56 8.01-17.55 8.05q-16.79.09-33.56-.48c-6.75-.23-10.14-4.07-10.54-10.65q-1.01-16.49 0-32.94c.39-6.36 3.82-10.95 10.41-11.16q12.62-.39 35.69-.25c15.32.1 16.72 5.87 16.31 19.86a.6.6 0 0 1-.6.58h-15.04a.56.56 0 0 1-.56-.57l.2-6.14a.77.77 0 0 0-.77-.79h-29.54a.5.5 0 0 0-.5.5v28a.5.5 0 0 0 .5.5m-139.03 1h14.51a.49.49 0 0 1 .49.49l.09 11.07a.61.6 85.6 0 1-.51.6c-4.11.61-8.66-.01-12.08.12q-13.02.5-26.04.02a.29.29 0 0 1-.24-.44l32.1-54.25a1.21 1.2 15.2 0 1 1.04-.59l12.57.02a1.2 1.19 74.3 0 1 1.02.58l26.95 44.5a.26.26 0 0 0 .48-.14l-.15-44.22a.72.72 0 0 1 .72-.72l9.51-.06a1.69 1.72 64.4 0 1 1.05.36l41.06 32.19a.44.44 0 0 0 .71-.35V65.08a.61.61 0 0 1 .6-.61l13.36-.05a.54.53 89.5 0 1 .54.54v54.01a.54.55 87.1 0 1-.49.54c-2.93.31-9.63 1.08-12.35-1.14q-19.38-15.79-39.29-31.66-.64-.52-.64.31l.07 31.96a.77.77 0 0 1-.77.77h-25.87a.87.86 75 0 1-.75-.44l-22.54-39.94q-.26-.45-.51 0l-15.02 27.23a.44.44 0 0 0 .38.65m-65.07-21.51q.1 1.32.3 3.7c2.08 23.72-16.72 30.34-36.2 30.36q-22.43.02-44.87-.1a.91.89 75 0 1-.78-.46l-22.44-39.68a.37.37 0 0 0-.65 0l-15.17 27.26a.46.46 0 0 0 .4.68H533a.5.5 0 0 1 .5.5v11.12a.63.63 0 0 1-.63.63h-38.09a.33.33 0 0 1-.29-.5l32.19-54.19a1.04 1.03 11.8 0 1 .77-.5q5.81-.61 12.36-.16c1.64.11 1.69.75 2.4 1.91q13.05 21.47 26.01 43.07a.29.28 29.9 0 0 .53-.14V65.03a.49.49 0 0 1 .49-.49q19.16-.11 38.25-.03 12.35.05 22.13 7.06a.2.2 0 0 0 .29-.27l-3.81-6.14q-.41-.66.37-.66h17.02a.9.9 0 0 1 .78.45l20.32 35.02a.4.4 0 0 0 .7-.01q9.3-16.9 18.72-33.96c1.12-2.02 1.79-1.51 3.76-1.49q6.83.07 13.16-.13.96-.03.48.81l-31.28 54.05a.95.95 0 0 1-.8.47l-9.5.06a1.08 1.09 74.3 0 1-.95-.53l-20.41-33.76q-.96-1.58-.82.26m-53.14-8.26-.02 28.48a.58.58 0 0 0 .54.58q9.95.61 19.95-.15c11.51-.87 18.92-5.47 16.62-18.52-1.38-7.87-7.98-10.85-15.35-10.86q-10.74-.03-21.27 0a.47.47 0 0 0-.47.47M320.48 54.69q.07-.46.02-.88a.52.52 0 0 1 .51-.59q14.09.05 27.05.02c7.67-.02 12.36 1.97 17.37 7.34 8.95 9.6 5.29 21.62-3.2 29.79a.87.86 45.2 0 0 0 1.25c14.51 14.03 5.35 32.97-11.31 38.46q-3.63 1.19-9.93 1.19-16.11-.01-32.17-.06a.43.43 0 0 1-.43-.5q6-38.04 12.09-76.02m14.22 15.29-2.4 13.71a.43.43 0 0 0 .4.5c6.76.39 14.71.9 18.01-3.33 2.57-3.3 2.62-8.14-1.49-10.17-3.39-1.66-10.24-.98-14.29-.91a.23.25 6.1 0 0-.23.2m-5.1 31.08c-1.26 4.12-1.72 10.24-2.26 14.61a.46.47 4.6 0 0 .44.52q11.19.5 17.21-.43c5-.78 8.97-5.82 6.65-10.81-2.74-5.89-14.61-4.64-21.38-4.4a.72.72 0 0 0-.66.51m119.89-7.48-18.76-40.6a.34.33 77.5 0 1 .3-.48h17.64a.64.63 79.1 0 1 .59.41l9.61 24.64q.28.72.69.06l15.34-24.62a1 1.02 16.5 0 1 .85-.47l17.7-.03a.37.37 0 0 1 .31.57q-13.97 21.93-27.69 43.91-1.29 2.06-1.61 4.46-1.97 14.69-4.31 29.27a.63.62 4.3 0 1-.62.53l-15.28.08a.48.48 0 0 1-.48-.56l5.87-36.12a1.76 1.77 36.6 0 0-.15-1.05m-52.802 38.512a33.4 40.43 13.2 0 1-23.285-46.989 33.4 40.43 13.2 0 1 41.75-31.735 33.4 40.43 13.2 0 1 23.285 46.989 33.4 40.43 13.2 0 1-41.75 31.735m3.144-15.233a16.74 24.96 14 0 0 22.28-20.17 16.74 24.96 14 0 0-10.204-28.268 16.74 24.96 14 0 0-22.28 20.17 16.74 24.96 14 0 0 10.204 28.268M258.57 114.5h27.7a.31.31 0 0 1 .31.36l-2.72 16.13a.31.31 0 0 1-.3.26h-44.5a.31.31 0 0 1-.3-.36l12.43-78.13a.31.31 0 0 1 .3-.26h44.18a.31.31 0 0 1 .3.36l-2.54 16.38a.31.31 0 0 1-.31.26h-27.88a.31.31 0 0 0-.31.27l-1.92 13.44a.31.31 0 0 0 .31.35h24.1a.31.31 0 0 1 .31.36l-2.48 16.32a.31.31 0 0 1-.31.26h-24.09a.31.31 0 0 0-.3.26l-2.29 13.38a.31.31 0 0 0 .31.36m-80.1-25.43q-.34-1.64-.85-.05l-13.33 41.79a.68.67 8.9 0 1-.64.46l-26.52-.01a.7.7 0 0 1-.69-.58l-3.93-22.21a.56.55 85 0 0-.54-.46l-17.49-.02a.92.9 12 0 0-.83.53l-10.22 22.2a.97.99 13.1 0 1-.9.57l-15.64-.06a.42.42 0 0 1-.38-.6l1.69-3.58q.35-.73-.39-.4-2.75 1.24-5.49 2.37c-20.39 8.39-48.43-1.19-51.43-25.23-4.88-39.16 36.74-62.37 70.44-49.86a.6.6 0 0 1 .38.65l-2.27 14.6a.47.46 13.2 0 1-.61.37C82.9 64.29 62.48 67.6 52.06 81.77c-7.33 9.96-7.81 27.25 5.36 33 4.59 2 11.14.86 16.26.41a.61.6 1.2 0 0 .54-.51l.98-6.36a.87.88 3.6 0 0-.88-1.01l-10.76.13a.6.6 0 0 1-.6-.69l2.01-13.65a.7.69 4.3 0 1 .69-.59H94.5a.57.57 0 0 1 .56.66l-4.03 25.95a.27.27 0 0 0 .52.15l29.18-66.05a.93.92 11.6 0 1 .85-.55l18.73.07a.69.69 0 0 1 .68.58l10.25 61.45a.34.34 0 0 0 .66.05l20.19-61.76a.68.67 8.9 0 1 .64-.46l14.89.1a.84.83 85.4 0 1 .81.69l7.47 40.86a.4.39 51.7 0 0 .75.09l17.61-41.25a.72.72 0 0 1 .68-.44l18.6.12a.56.57 89.5 0 1 .56.54l3.21 77.28a.64.64 0 0 1-.64.67h-14.81a.66.66 0 0 1-.66-.64l-2.04-46.58q-.02-.52-.33-.09-.61.85-1.42 2.73-9.55 22.17-19.14 44.32a.62.61 11.8 0 1-.56.36l-10.16-.14a.53.54 84.5 0 1-.51-.42zm-51.24-10.61a.31.31 0 0 0-.58-.07l-6.27 13.67a.31.31 0 0 0 .28.44h8.93a.31.31 0 0 0 .31-.37z" style="display:inline;fill:#fff"/><path d="M471.945 130.528c3.49 0 6.237-2.73 6.237-6.44 0-3.651-2.748-6.394-6.237-6.394-3.519 0-6.274 2.743-6.274 6.393 0 3.711 2.755 6.441 6.274 6.441m-7.815-6.44c0-4.422 3.579-7.678 7.815-7.678 4.2 0 7.785 3.256 7.785 7.677 0 4.457-3.585 7.726-7.785 7.726-4.236 0-7.815-3.269-7.815-7.726m7.797-.537c1.141 0 2.163-.072 2.163-1.446 0-1.1-.998-1.297-1.936-1.297h-1.828v2.743zm-1.601 4.994h-1.344v-8.878h3.37c2.102 0 3.142.77 3.142 2.527 0 1.59-.998 2.277-2.3 2.444l2.521 3.907h-1.506l-2.348-3.853h-1.535z" style="display:inline;fill:#fff;fill-opacity:1;fill-rule:nonzero;stroke:none;stroke-width:.336424"/></svg>