<!-- Created by ERK --><svg xmlns="http://www.w3.org/2000/svg" viewBox="0 0 983 292"><path d="m103.521 154.102-1.285 1.058-5.734 4.715-2.389-2.145-18.896 14.34c-1.802-3.24-5.122-5.416-8.686-6.254-4.427-.99-8.87-1.912-13.304-2.878q-5.313-1.143-10.625-2.288c-1.05 5.261-1.982 10.547-3.13 15.788-1.855 8.012-5.431 15.661-10.708 21.996-3.321 4.072-7.438 7.375-11.239 10.974q-3.312 3.042-6.627 6.082 16.027 7.904 32.051 15.813c4.833-4.44 10.034-8.559 14.07-13.782a80 80 0 0 0 2.946-3.908h1.97c-4.242 7.181-10.706 12.704-17.41 17.512-5.2 3.692-10.379 7.416-15.57 11.125q17.215 8.724 34.428 17.453c6.134-4.755 12.43-9.375 17.789-15.027 8.478-8.733 15.17-19.341 18.666-31.043.656-.046 1.318-.006 1.976-.02v11.272h83.438c1.894 5.428 3.66 10.903 5.662 16.29 2.977 6.45 10.963 9.932 17.748 7.956 1.21-.294 2.333-.885 3.436-1.414l47.482-3.299c2.943 4.293 5.89 8.583 8.83 12.877l19.18-11.73 10.508 5.142c2.54-3.584 5.11-7.146 7.638-10.738v16.474h35.487v-21.64c3.417 4.636 6.294 9.634 9.425 14.46l1.168 1.848q15.265-9.333 30.528-18.67c-1.582-2.518-3.156-5.042-4.744-7.556h68.845q5.736 6.051 11.47 12.105c6.516-2.737 13.073-5.395 19.433-8.488v27.617h35.486v-50.79c3.955-3.313 7.743-6.834 11.277-10.59a12.6 12.6 0 0 0 3.16-1.55q.496 5.107.989 10.215l29.322-.968c-.039 3.339.167 6.699-.242 10.021-.524 3.543-2.42 6.818-5.168 9.104-4.406 3.83-9.929 5.941-15.072 8.554l-8.926 4.346 25.48 25.545c6.468-3.752 13.285-7.02 19.088-11.8 7.937-6.394 14.309-14.893 17.567-24.597 7.533-5.36 14.835-11.08 21.498-17.503a153 153 0 0 0 7.011-7.163c3.98-1.57 6.71-5.36 7.912-9.357.97-3.616-.149-7.622-2.66-10.363-1.911-2.165-3.937-4.225-5.877-6.366l-5.636-6.066c-3.168.793-6.318 1.676-9.5 2.393l-74.99 1.847c-6.148-4.573-12.231-9.23-18.358-13.83-4.035 5.24-7.817 10.68-12.094 15.729-5.608 6.505-12.325 12.163-19.406 16.87-4.824 3.224-10.071 6.132-15.375 8.665-.435.104-1.373.98-1.162.05v-5.55h-87.42c.054-.724-.107-1.548.076-2.211l11.365-9.408c-6.268-6.519-12.12-13.538-19.408-18.977-3.829-2.903-7.892-5.474-11.812-8.25l-8.297 6.295-2.881-1.98-6.813 6.109c-3.278-2.126-7.27-2.989-11.146-2.816h-19.6v18.033h-32.31v25.467c-4.53-5.116-9.568-9.737-14.424-14.534l-6.543 4.11a296 296 0 0 0 1.957-5.918c3.373-2.94 4.891-7.854 3.598-12.162-1.032-3.935-4.016-7.096-7.516-9.03-1.862-1.105-4.041-1.433-6.055-2.166l-19.048-5.945c-2.476 9.324-4.701 18.724-7.844 27.86a231 231 0 0 1-4.113 11.234 256 256 0 0 1-3.979 9.496c-.277.776-.439.849-.355-.115v-15.092h-85.985c-.245-.743.53-.936 1.002-1.293l11.098-7.3c-7.128-7.504-13.964-15.337-21.92-21.997-3.24-2.78-6.519-5.516-9.777-8.273m673.04.664-1.21.918c-2.018 1.522-4.032 3.081-6.054 4.578-1.054-.355-2.15.126-2.889.88l-25.03 17.64 5.165 4.052-4.828 3.3c-2.534-1.644-5.474-2.478-8.213-3.704l-18.22-7.493q-.368 1.47-.733 2.938c-4.012-4.808-8.187-9.547-13.18-13.37-3.65-2.785-7.618-5.12-11.494-7.564-1.133-.58-2.425.01-3.27.819-2.24 1.489-4.43 3.078-6.668 4.564-1.185.079-1.941 1.117-2.927 1.645-2.794 1.923-5.606 3.88-8.375 5.77-3.44-3.509-8.53-4.913-13.34-4.774-6.66-.043-13.32-.002-19.98-.018v89.242H670.8v-28.148c4.353 1.732 8.537 3.568 12.803 5.523.32.303 1.702.39 1.04.891l-1.384 1.498 31.763 18.58c5.74-6.746 11.774-13.296 16.6-20.754a117.7 117.7 0 0 0 12.697-25.299q.736-.683 1.366-1.466a79 79 0 0 1 3.464 4.453c6.838 9.485 11.597 20.284 15.371 31.303.965 2.765 1.946 5.523 2.92 8.285.967.42 2.061.665 3.063.2 5.96-1.81 11.942-3.573 17.91-5.366 1.517 3.74 4.539 6.858 8.315 8.336 4.557 1.928 10.098 1.76 14.279-1.014.467-.35.927-.682 1.543-.621 15.185-1.578 30.21-6.383 42.857-15.063 8.247 6.618 16.49 13.238 24.738 19.854 8.25-4.847 16.541-9.671 24.231-15.387a185 185 0 0 0 9.709-7.605 260 260 0 0 1 10.795 8.785c5.698 4.91 11.086 10.14 16.58 15.265l28.26-21.545c-8.07-7.409-16.036-14.952-24.643-21.744a324 324 0 0 0-7.58-5.884 206 206 0 0 0 4.986-7.088c4.643-2.584 7.627-8.095 6.801-13.41-.456-3.435-2.365-6.573-5.04-8.743-3.627-3.32-7.32-6.569-10.97-9.865-3.611.768-7.144 1.687-10.771 2.34l-54.69 2.117 2.02 14.483-14.492-9.286c-2.787 5.634-5.364 11.374-8.29 16.938-3.446 6.257-8.293 11.83-14.402 15.603-3.242 2.054-6.763 3.652-10.42 4.813l22.366-20.063c-9.404-7.76-18.435-16.085-28.86-22.494-4.242-2.536-8.616-4.843-12.923-7.265l-5.667 6.275c-4.911-4.63-10.056-9.02-15.511-13q-2.538-1.927-5.074-3.855m-421.668 15.193q6.103 4.186 11.847 10.305l-4.666 3.863q-6.462-6.44-11.847-10.627zm-251.493.965a141 141 0 0 1 11.848 11.271l-5.385 3.543q-5.743-6.763-10.77-11.271zm673.16 0q4.667 3.542 11.489 9.984l-4.668 3.863q-6.463-6.44-11.488-10.304zm-87.421.644q6.103 3.865 11.847 10.627l-4.666 3.221q-4.667-5.475-11.847-10.627zm-369.787 2.577h7.539q3.948.644.716 2.576v15.457h33.03v7.086h-33.03v44.761h-8.255v-44.761h-32.313v-7.086h32.313zm-226.002.322q5.744 5.153 11.488 11.594l-4.668 3.54q-6.463-6.76-11.488-11.591zm251.132.322q6.105 4.186 11.848 9.66l-4.309 4.188q-6.462-6.12-11.847-9.985zm168.02.645 6.822 5.152q2.872 1.932-2.513 2.898-6.822 8.05-17.592 16.422v43.797h-8.258v-37.678q-12.564 8.695-29.438 15.78l-6.103-6.44q37.695-14.17 57.082-39.931m-459.004.322 8.975 1.932q2.872.644-.717 2.576a98.6 98.6 0 0 1-5.385 13.847h53.133v7.084H88.682q-3.231 25.12-26.926 43.475l-8.258-4.188q24.773-17.71 26.209-39.287H52.422a57.2 57.2 0 0 1-11.848 14.813l-7.181-3.541q15.796-14.492 20.105-36.711m181.664 0 8.256 2.576q3.232 1.93-.717 2.897-6.821 22.863-18.31 45.083l37.338-1.609q-7.54-9.017-11.848-13.203l7.18-4.508q12.206 11.916 23.335 28.016l-7.898 4.83-5.744-8.371-60.315 4.185q-2.154 3.22-3.23 0l-2.871-8.373 15.078-.322q12.925-25.118 19.746-51.201m532.781 0q5.385 4.507 11.489 10.947l-5.385 3.543q-5.385-6.441-11.129-10.95zm-119.013 1.61h7.18q4.308.322 1.077 2.575v20.288q17.591 4.508 35.542 12.238l-4.307 7.406q-19.028-8.695-31.235-11.594v33.492h-8.257zm31.234 0q6.103 4.185 12.207 10.948l-4.668 3.221q-6.104-6.762-12.207-10.95zm-72.342 3.542 5.385 5.795q1.077 1.289-1.795.967-10.77 12.559-25.85 23.508l-6.103-5.153q.718 24.476-23.336 38l-6.103-6.119q21.181-10.304 21.183-28.982v-13.848h7.54q3.229.322.716 2.254v8.373q12.925-8.693 19.746-17.066l-58.52 1.931-.716-7.406 65.34-1.611zm197.998.643q7.54 4.186 19.028 13.847l-6.82 6.12q-9.695-8.052-18.311-13.204zm123.323.322 5.744 5.152q2.513 2.255-1.436 2.899-6.821 10.627-14.361 19.644 15.438 10.627 30.517 24.475l-7.181 5.473q-15.08-14.17-29.08-23.83-14.002 13.524-31.951 24.152l-6.823-5.475q38.056-22.22 48.826-44.44l-39.132 2.255-1.077-7.729 41.645-1.61zm-168.38 6.764q17.952 20.288 25.49 42.83l-9.692 2.896q-8.976-25.44-23.336-40.574zm-35.902 3.863 8.618 3.543q2.871 1.61-.72 2.898-6.46 20.289-20.822 37.034l-8.257-4.83q15.796-17.069 21.181-38.645m136.248 4.188 7.54 4.83q-19.029 35.423-63.905 37.355-1.795 4.185-3.59.643l-2.873-8.371q46.673-.967 62.828-34.457m-72.005.12.57.338a169 169 0 0 1 6.17 3.83c7.221 4.679 13.726 10.335 20.34 15.811-3.35.73-6.754 1.2-10.168 1.508-1.333.113-2.898.23-4.325.295-2.03.106-3.991.149-6.054.185-2.822-6.61-6.216-12.97-10.084-19.027zm106.234 7.176-.906.805c-6.048 5.31-12.744 10.115-19.588 14.463a221 221 0 0 1-4.13 2.57c4.445-5.116 8.137-10.845 11.245-16.857.329-.482 1.174-.158 1.715-.309zm-779.908 1.397h80.058v7.086H115.43zm252.568 0h80.06v7.086h-80.06zm-67.316.644 7.898 3.866q2.154 1.61-1.435 2.254-5.385 10.626-13.643 22.218l-7.898-3.863q8.975-11.593 15.078-24.475m44.16 0q12.924 12.238 19.387 22.543l-7.899 4.83q-7.54-11.915-18.31-22.22z" style="-inkscape-font-specification:GAMECUBEN;display:inline;fill:#1f00cc;stroke:none;stroke-linecap:square;stroke-miterlimit:3.2;paint-order:stroke markers fill"/><path d="M83.664 36.756Q62.345 36.255 43.42 48.73c-19.01 12.54-28.47 31.87-26.53 55.1 1.77 21.37 18.28 37.45 38.61 41.69q5.159 1.08 14.62.83a1076 1076 0 0 1 41.76-.31.76.75 12 0 0 .69-.44l8.54-18.97a.34.34 0 0 1 .64.09l3.01 18.84a.6.61 85.1 0 0 .61.51q105.9-.34 211.81-.34c14.74 0 24.23-1.89 34.26-11.79a.5.5 0 0 1 .7.01c13.85 13.94 35.06 17.72 52.34 7.77a44 44 0 0 1 3.32-1.73q.55-.26.45.34l-.81 5.09a.5.5 0 0 0 .49.58h43.5a.8.81 4.7 0 0 .79-.68l1-6.58a.81.81 0 0 1 .61-.67q3.41-.86 5.73-3.47a1.05 1.03 20.1 0 1 .79-.36q58.45.04 116.9-.02c16.59-.01 32.53-1.51 44.97-13.95a.46.45 51.1 0 1 .71.08l8.42 13.44a.99.98 73.8 0 0 .83.46h129.05a.48.48 0 0 0 .48-.48l.12-15.98q.01-1.991 1.58-.76L805.05 134a1.24 1.22 63.2 0 0 .74.25h159.96a.5.5 0 0 0 .5-.5V51.04a.51.51 0 0 0-.51-.51q-76.24-.07-152.48-.01c-4.92.01-13.91.47-20.96.05a.52.52 0 0 0-.55.52l.04 16.63a.42.42 0 0 1-.68.34l-21.52-16.97a2.69 2.76 64.8 0 0-1.7-.59h-91.23a1.08 1.1 14.2 0 0-.96.58l-10.75 20.44a.46.46 0 0 1-.8.01l-11.66-20.2a1.66 1.68 75.2 0 0-1.45-.83H513.06a.27.28 16 0 1-.23-.42l6.77-10.77a.36.36 0 0 0-.3-.55q-53.019-.03-105.75.01c-16.42.01-23.77 3.69-36.39 13.03a.55.56 49.9 0 1-.74-.06c-7.67-8.04-14.19-13.02-25.93-13.02q-93.81.03-187.69.03a.73.72 8.8 0 0-.69.5l-5.34 16.6a.43.42 49.6 0 1-.82-.07l-2.68-16.56a.55.56 85.8 0 0-.55-.47h-40.24a.73.73 0 0 0-.68.47l-.95 2.47a.58.58 0 0 1-.74.34q-13.654-4.974-26.446-5.274m-1.768 13.773c6.517-.035 13.115 1.055 19.434 3.4a.6.6 0 0 1 .38.651l-2.27 14.6a.47.46 13.2 0 1-.61.37C82.9 64.29 62.48 67.6 52.06 81.77c-7.33 9.96-7.81 27.25 5.36 33 4.59 2 11.14.86 16.26.41a.61.6 1.2 0 0 .54-.51l.98-6.36a.87.88 3.6 0 0-.88-1.01l-10.76.13a.6.6 0 0 1-.6-.69l2.01-13.65a.7.69 4.3 0 1 .69-.59H94.5a.57.57 0 0 1 .56.66l-4.03 25.95a.271.271 0 0 0 .52.15l29.18-66.05a.93.92 11.6 0 1 .85-.55l18.73.07a.69.69 0 0 1 .68.58l10.25 61.45a.34.34 0 0 0 .66.05l20.19-61.76a.68.67 8.9 0 1 .64-.46l14.89.1a.84.83 85.4 0 1 .81.69l7.47 40.86a.4.39 51.7 0 0 .75.09l17.61-41.25a.72.72 0 0 1 .68-.44l18.6.12a.56.57 89.5 0 1 .56.54l3.21 77.28a.64.64 0 0 1-.64.67h-14.81a.66.66 0 0 1-.66-.64l-2.04-46.58q-.02-.52-.33-.09-.61.85-1.42 2.73a26101 26101 0 0 1-19.14 44.32.62.61 11.8 0 1-.56.36l-10.16-.139a.53.54 84.5 0 1-.51-.422l-8.57-41.719q-.34-1.64-.85-.05l-13.33 41.79a.68.67 8.9 0 1-.64.46l-26.52-.01a.7.7 0 0 1-.69-.58l-3.93-22.21a.56.55 85 0 0-.54-.46l-17.49-.02a.92.9 12 0 0-.83.53l-10.22 22.2a.97.99 13.1 0 1-.9.569l-15.64-.059a.42.42 0 0 1-.38-.6l1.69-3.58q.35-.73-.39-.4a184 184 0 0 1-5.49 2.37c-20.39 8.39-48.43-1.191-51.43-25.231-3.964-31.818 22.767-53.106 51.006-53.26M493.45 52.49a.37.37 0 0 1 .31.57 5658 5658 0 0 0-27.689 43.91 11.1 11.1 0 0 0-1.61 4.46q-1.969 14.69-4.31 29.27a.63.62 4.3 0 1-.62.53l-15.28.08a.48.48 0 0 1-.48-.56l5.87-36.12a1.76 1.77 36.6 0 0-.15-1.05l-18.76-40.6a.34.33 77.5 0 1 .3-.48h17.64a.64.63 79.1 0 1 .59.41l9.61 24.64q.28.72.69.06l15.34-24.62a1 1.02 16.5 0 1 .85-.47Zm-241.959.01h44.18a.31.31 0 0 1 .3.36l-2.54 16.38a.31.31 0 0 1-.31.26h-27.88a.31.31 0 0 0-.31.27l-1.92 13.44a.31.31 0 0 0 .31.35h24.1a.31.31 0 0 1 .31.36l-2.48 16.32a.31.31 0 0 1-.31.26h-24.09a.31.31 0 0 0-.3.26l-2.29 13.38a.31.31 0 0 0 .31.36h27.7a.31.31 0 0 1 .31.36l-2.72 16.13a.31.31 0 0 1-.3.26h-44.5a.31.31 0 0 1-.3-.36l12.43-78.13a.31.31 0 0 1 .3-.26m69.52.72q14.09.05 27.05.02c7.67-.02 12.36 1.97 17.37 7.34 8.95 9.6 5.29 21.62-3.2 29.79a.87.86 45.2 0 0 0 1.25c14.51 14.03 5.35 32.97-11.31 38.46q-3.63 1.19-9.93 1.19-16.11-.01-32.17-.06a.43.43 0 0 1-.43-.5q6-38.04 12.09-76.02.07-.46.02-.88a.52.52 0 0 1 .51-.59m94.142.15a33.4 40.43 13.2 0 1 23.285 46.987 33.4 40.43 13.2 0 1-41.75 31.735 33.4 40.43 13.2 0 1-23.285-46.988 33.4 40.43 13.2 0 1 41.75-31.735m118.293 10.845q3.09-.04 6.366.185c1.64.11 1.69.75 2.4 1.91q13.05 21.47 26.01 43.07a.29.28 29.9 0 0 .529-.14V65.03a.49.49 0 0 1 .49-.49q19.161-.111 38.25-.03 12.35.05 22.13 7.06a.2.2 0 0 0 .29-.27l-3.81-6.14q-.41-.66.37-.66h17.02a.9.9 0 0 1 .78.45l20.32 35.02a.4.4 0 0 0 .7-.01q9.3-16.9 18.72-33.96c1.12-2.02 1.79-1.51 3.76-1.49q6.83.07 13.16-.13.96-.03.48.81l-31.28 54.05a.95.95 0 0 1-.8.47l-9.5.06a1.08 1.09 74.3 0 1-.95-.53l-20.41-33.76q-.96-1.58-.82.26.1 1.32.3 3.7c2.08 23.72-16.72 30.34-36.2 30.36q-22.43.02-44.87-.1a.91.89 75 0 1-.78-.46l-22.44-39.68a.37.37 0 0 0-.65 0l-15.17 27.26a.46.46 0 0 0 .4.68H533a.5.5 0 0 1 .5.5v11.12a.63.63 0 0 1-.63.63h-38.09a.33.33 0 0 1-.29-.5l32.19-54.19a1.04 1.03 11.8 0 1 .77-.5 66 66 0 0 1 5.995-.345m229.735.015a1.69 1.72 64.4 0 1 1.05.36l41.06 32.19a.44.44 0 0 0 .71-.35V65.08a.61.61 0 0 1 .6-.61l13.36-.05a.54.53 89.5 0 1 .54.54v54.01a.54.55 87.1 0 1-.49.54c-2.93.31-9.63 1.08-12.35-1.14a4711 4711 0 0 0-39.29-31.66q-.641-.52-.64.31l.07 31.96a.77.77 0 0 1-.77.77h-25.87a.87.86 75 0 1-.75-.44l-22.54-39.94q-.261-.45-.51 0l-15.02 27.23a.44.44 0 0 0 .38.65h14.51a.49.49 0 0 1 .49.49l.09 11.07a.61.6 85.6 0 1-.51.6c-4.11.61-8.66-.01-12.08.12q-13.02.5-26.04.02a.29.29 0 0 1-.24-.44l32.1-54.25a1.21 1.2 15.2 0 1 1.04-.59l12.57.02a1.2 1.19 74.3 0 1 1.02.58l26.95 44.5a.26.26 0 0 0 .48-.14l-.15-44.22a.72.72 0 0 1 .72-.72zm130.64.01 57.86.03a.57.57 0 0 1 .57.57v11.6a.57.57 0 0 1-.57.57l-41.81-.02a.57.57 0 0 0-.57.56l-.07 6.62a.57.57 0 0 0 .57.58h24.13a.57.57 0 0 1 .57.57v11.11a.57.57 0 0 1-.57.57h-24.06a.57.57 0 0 0-.57.57l-.07 8.61a.57.57 0 0 0 .57.57h42.62a.57.57 0 0 1 .57.56l.12 11.61a.57.57 0 0 1-.57.58h-58.72a.57.57 0 0 1-.57-.57V64.81a.57.57 0 0 1 .57-.57m-22.07.07c15.32.1 16.72 5.87 16.31 19.86a.6.6 0 0 1-.6.58h-15.04a.56.56 0 0 1-.56-.57l.2-6.14a.77.77 0 0 0-.77-.79h-29.54a.5.5 0 0 0-.5.5v28a.5.5 0 0 0 .5.5h29.56a.57.57 0 0 0 .57-.56l.17-7.51a.51.51 0 0 1 .52-.5l14.8.31a.65.65 0 0 1 .63.61q.51 8.6-.7 13.14c-2.17 8.12-10.56 8.01-17.55 8.05a853 853 0 0 1-33.56-.48c-6.75-.23-10.14-4.07-10.54-10.65a269 269 0 0 1 0-32.94c.39-6.36 3.82-10.95 10.41-11.16q12.62-.39 35.69-.25m-459.842 4.112a16.74 24.96 14 0 0-22.281 20.168 16.74 24.96 14 0 0 10.205 28.27 16.74 24.96 14 0 0 22.281-20.17 16.74 24.96 14 0 0-10.205-28.268m-69.586 1.164c-2.642-.029-5.367.158-7.392.193a.23.25 6.1 0 0-.23.201l-2.4 13.71a.43.43 0 0 0 .4.5c6.76.39 14.71.9 18.01-3.33 2.57-3.3 2.62-8.14-1.49-10.17-1.694-.83-4.255-1.075-6.898-1.104M584.98 77.01a.47.47 0 0 0-.47.47l-.02 28.48a.58.58 0 0 0 .54.58q9.95.61 19.95-.15c11.51-.87 18.92-5.47 16.62-18.52-1.38-7.87-7.98-10.85-15.35-10.86q-10.74-.03-21.27 0m-458.015 1.21a.31.31 0 0 0-.315.17l-6.27 13.67a.31.31 0 0 0 .28.44h8.93a.31.31 0 0 0 .31-.37l-2.67-13.67a.31.31 0 0 0-.265-.24m209.107 22.089c-2.107.058-4.12.182-5.812.242a.72.72 0 0 0-.66.51c-1.26 4.12-1.72 10.239-2.26 14.609a.46.47 4.6 0 0 .44.52q11.19.5 17.21-.43c5-.78 8.97-5.82 6.65-10.81-2.054-4.418-9.245-4.818-15.568-4.641m135.873 16.101c4.2 0 7.785 3.257 7.785 7.678 0 4.457-3.585 7.724-7.785 7.724-4.236 0-7.814-3.267-7.814-7.724 0-4.421 3.578-7.678 7.814-7.678m0 1.285c-3.519 0-6.273 2.742-6.273 6.393 0 3.71 2.754 6.44 6.273 6.44 3.49 0 6.237-2.73 6.237-6.44 0-3.65-2.748-6.393-6.237-6.393m-2.963 1.971h3.37c2.103 0 3.142.77 3.142 2.527 0 1.59-.998 2.277-2.3 2.444l2.52 3.908h-1.505l-2.348-3.854h-1.535v3.854h-1.344zm1.344 1.14v2.743h1.602c1.14 0 2.162-.071 2.162-1.445 0-1.1-.998-1.297-1.936-1.297z" style="display:inline;fill:#1f00cc;fill-opacity:1;stroke:none;stroke-opacity:1"/><path d="M909.8 106.75h42.62a.57.57 0 0 1 .57.56l.12 11.61a.57.57 0 0 1-.57.58h-58.72a.57.57 0 0 1-.57-.57V64.81a.57.57 0 0 1 .57-.57l57.86.03a.57.57 0 0 1 .57.57v11.6a.57.57 0 0 1-.57.57l-41.81-.02a.57.57 0 0 0-.57.56l-.07 6.62a.57.57 0 0 0 .57.58h24.13a.57.57 0 0 1 .57.57v11.11a.57.57 0 0 1-.57.57h-24.06a.57.57 0 0 0-.57.57l-.07 8.61a.57.57 0 0 0 .57.57m-68.05-.5h29.56a.57.57 0 0 0 .57-.56l.17-7.51a.51.51 0 0 1 .52-.5l14.8.31a.65.65 0 0 1 .63.61q.51 8.6-.7 13.14c-2.17 8.12-10.56 8.01-17.55 8.05q-16.79.09-33.56-.48c-6.75-.23-10.14-4.07-10.54-10.65q-1.01-16.49 0-32.94c.39-6.36 3.82-10.95 10.41-11.16q12.62-.39 35.69-.25c15.32.1 16.72 5.87 16.31 19.86a.6.6 0 0 1-.6.58h-15.04a.56.56 0 0 1-.56-.57l.2-6.14a.77.77 0 0 0-.77-.79h-29.54a.5.5 0 0 0-.5.5v28a.5.5 0 0 0 .5.5m-139.03 1h14.51a.49.49 0 0 1 .49.49l.09 11.07a.61.6 85.6 0 1-.51.6c-4.11.61-8.66-.01-12.08.12q-13.02.5-26.04.02a.29.29 0 0 1-.24-.44l32.1-54.25a1.21 1.2 15.2 0 1 1.04-.59l12.57.02a1.2 1.19 74.3 0 1 1.02.58l26.95 44.5a.26.26 0 0 0 .48-.14l-.15-44.22a.72.72 0 0 1 .72-.72l9.51-.06a1.69 1.72 64.4 0 1 1.05.36l41.06 32.19a.44.44 0 0 0 .71-.35V65.08a.61.61 0 0 1 .6-.61l13.36-.05a.54.53 89.5 0 1 .54.54v54.01a.54.55 87.1 0 1-.49.54c-2.93.31-9.63 1.08-12.35-1.14q-19.38-15.79-39.29-31.66-.64-.52-.64.31l.07 31.96a.77.77 0 0 1-.77.77h-25.87a.87.86 75 0 1-.75-.44l-22.54-39.94q-.26-.45-.51 0l-15.02 27.23a.44.44 0 0 0 .38.65m-65.07-21.51q.1 1.32.3 3.7c2.08 23.72-16.72 30.34-36.2 30.36q-22.43.02-44.87-.1a.91.89 75 0 1-.78-.46l-22.44-39.68a.37.37 0 0 0-.65 0l-15.17 27.26a.46.46 0 0 0 .4.68H533a.5.5 0 0 1 .5.5v11.12a.63.63 0 0 1-.63.63h-38.09a.33.33 0 0 1-.29-.5l32.19-54.19a1.04 1.03 11.8 0 1 .77-.5q5.81-.61 12.36-.16c1.64.11 1.69.75 2.4 1.91q13.05 21.47 26.01 43.07a.29.28 29.9 0 0 .53-.14V65.03a.49.49 0 0 1 .49-.49q19.16-.11 38.25-.03 12.35.05 22.13 7.06a.2.2 0 0 0 .29-.27l-3.81-6.14q-.41-.66.37-.66h17.02a.9.9 0 0 1 .78.45l20.32 35.02a.4.4 0 0 0 .7-.01q9.3-16.9 18.72-33.96c1.12-2.02 1.79-1.51 3.76-1.49q6.83.07 13.16-.13.96-.03.48.81l-31.28 54.05a.95.95 0 0 1-.8.47l-9.5.06a1.08 1.09 74.3 0 1-.95-.53l-20.41-33.76q-.96-1.58-.82.26m-53.14-8.26-.02 28.48a.58.58 0 0 0 .54.58q9.95.61 19.95-.15c11.51-.87 18.92-5.47 16.62-18.52-1.38-7.87-7.98-10.85-15.35-10.86q-10.74-.03-21.27 0a.47.47 0 0 0-.47.47M320.48 54.69q.07-.46.02-.88a.52.52 0 0 1 .51-.59q14.09.05 27.05.02c7.67-.02 12.36 1.97 17.37 7.34 8.95 9.6 5.29 21.62-3.2 29.79a.87.86 45.2 0 0 0 1.25c14.51 14.03 5.35 32.97-11.31 38.46q-3.63 1.19-9.93 1.19-16.11-.01-32.17-.06a.43.43 0 0 1-.43-.5q6-38.04 12.09-76.02m14.22 15.29-2.4 13.71a.43.43 0 0 0 .4.5c6.76.39 14.71.9 18.01-3.33 2.57-3.3 2.62-8.14-1.49-10.17-3.39-1.66-10.24-.98-14.29-.91a.23.25 6.1 0 0-.23.2m-5.1 31.08c-1.26 4.12-1.72 10.24-2.26 14.61a.46.47 4.6 0 0 .44.52q11.19.5 17.21-.43c5-.78 8.97-5.82 6.65-10.81-2.74-5.89-14.61-4.64-21.38-4.4a.72.72 0 0 0-.66.51m119.89-7.48-18.76-40.6a.34.33 77.5 0 1 .3-.48h17.64a.64.63 79.1 0 1 .59.41l9.61 24.64q.28.72.69.06l15.34-24.62a1 1.02 16.5 0 1 .85-.47l17.7-.03a.37.37 0 0 1 .31.57q-13.97 21.93-27.69 43.91-1.29 2.06-1.61 4.46-1.97 14.69-4.31 29.27a.63.62 4.3 0 1-.62.53l-15.28.08a.48.48 0 0 1-.48-.56l5.87-36.12a1.76 1.77 36.6 0 0-.15-1.05m-52.802 38.512a33.4 40.43 13.2 0 1-23.285-46.989 33.4 40.43 13.2 0 1 41.75-31.735 33.4 40.43 13.2 0 1 23.285 46.989 33.4 40.43 13.2 0 1-41.75 31.735m3.144-15.233a16.74 24.96 14 0 0 22.28-20.17 16.74 24.96 14 0 0-10.204-28.268 16.74 24.96 14 0 0-22.28 20.17 16.74 24.96 14 0 0 10.204 28.268M258.57 114.5h27.7a.31.31 0 0 1 .31.36l-2.72 16.13a.31.31 0 0 1-.3.26h-44.5a.31.31 0 0 1-.3-.36l12.43-78.13a.31.31 0 0 1 .3-.26h44.18a.31.31 0 0 1 .3.36l-2.54 16.38a.31.31 0 0 1-.31.26h-27.88a.31.31 0 0 0-.31.27l-1.92 13.44a.31.31 0 0 0 .31.35h24.1a.31.31 0 0 1 .31.36l-2.48 16.32a.31.31 0 0 1-.31.26h-24.09a.31.31 0 0 0-.3.26l-2.29 13.38a.31.31 0 0 0 .31.36m-80.1-25.43q-.34-1.64-.85-.05l-13.33 41.79a.68.67 8.9 0 1-.64.46l-26.52-.01a.7.7 0 0 1-.69-.58l-3.93-22.21a.56.55 85 0 0-.54-.46l-17.49-.02a.92.9 12 0 0-.83.53l-10.22 22.2a.97.99 13.1 0 1-.9.57l-15.64-.06a.42.42 0 0 1-.38-.6l1.69-3.58q.35-.73-.39-.4-2.75 1.24-5.49 2.37c-20.39 8.39-48.43-1.19-51.43-25.23-4.88-39.16 36.74-62.37 70.44-49.86a.6.6 0 0 1 .38.65l-2.27 14.6a.47.46 13.2 0 1-.61.37C82.9 64.29 62.48 67.6 52.06 81.77c-7.33 9.96-7.81 27.25 5.36 33 4.59 2 11.14.86 16.26.41a.61.6 1.2 0 0 .54-.51l.98-6.36a.87.88 3.6 0 0-.88-1.01l-10.76.13a.6.6 0 0 1-.6-.69l2.01-13.65a.7.69 4.3 0 1 .69-.59H94.5a.57.57 0 0 1 .56.66l-4.03 25.95a.27.27 0 0 0 .52.15l29.18-66.05a.93.92 11.6 0 1 .85-.55l18.73.07a.69.69 0 0 1 .68.58l10.25 61.45a.34.34 0 0 0 .66.05l20.19-61.76a.68.67 8.9 0 1 .64-.46l14.89.1a.84.83 85.4 0 1 .81.69l7.47 40.86a.4.39 51.7 0 0 .75.09l17.61-41.25a.72.72 0 0 1 .68-.44l18.6.12a.56.57 89.5 0 1 .56.54l3.21 77.28a.64.64 0 0 1-.64.67h-14.81a.66.66 0 0 1-.66-.64l-2.04-46.58q-.02-.52-.33-.09-.61.85-1.42 2.73-9.55 22.17-19.14 44.32a.62.61 11.8 0 1-.56.36l-10.16-.14a.53.54 84.5 0 1-.51-.42zm-51.24-10.61a.31.31 0 0 0-.58-.07l-6.27 13.67a.31.31 0 0 0 .28.44h8.93a.31.31 0 0 0 .31-.37z" style="display:inline;fill:#fff"/><path d="M103.71 204.955v7.48H83.99q-3.06 26.521-25.502 45.902l-7.82-4.42q23.46-18.7 24.821-41.482H49.648q-4.42 8.84-11.221 15.64l-6.8-3.74q14.96-15.3 19.04-38.762l8.501 2.04q2.72.68-.68 2.72-2.04 7.481-5.1 14.622zm-15.3-20.742q5.44 5.44 10.88 12.241l-4.42 3.74q-6.12-7.14-10.88-12.24zm9.52-3.74q5.78 5.44 11.22 11.9l-5.1 3.741q-5.44-7.14-10.2-11.9zm11.392 43.863v-7.48h75.824v7.48zm80.415 15.64 14.281-.34q12.24-26.521 18.701-54.063l7.82 2.72q3.06 2.04-.68 3.06-6.46 24.142-17.34 47.603l35.361-1.7q-7.14-9.52-11.22-13.94l6.8-4.76q11.56 12.58 22.101 29.58l-7.48 5.101-5.44-8.84-57.123 4.42q-2.04 3.4-3.06 0zm136.859-22.44q12.24 12.92 18.36 23.8l-7.48 5.1q-7.14-12.58-17.34-23.46zm-16.321-14.622h31.282v7.48h-31.282v47.263h-7.82v-47.262h-30.602v-7.48h30.601v-19.042h7.14q3.741.68.68 2.72zm-18.021 18.701q2.04 1.7-1.36 2.38-5.1 11.221-12.92 23.462l-7.481-4.08q8.5-12.241 14.28-25.842zm41.142-22.44q-6.12-6.461-11.22-10.541l4.08-4.08q5.78 4.42 11.22 10.2zm9.52-4.761q-6.12-6.8-11.22-11.22l4.42-3.74q5.78 4.42 11.22 10.88zm5.612 29.922v-7.48h75.824v7.48zm82.796 3.06q35.701-14.961 54.062-42.163l6.46 5.44q2.721 2.04-2.38 3.06-6.46 8.501-16.66 17.342v46.242h-7.82v-39.782q-11.901 9.18-27.882 16.661zm117.477-9.86q.68 25.84-22.101 40.121l-5.78-6.46q20.06-10.88 20.06-30.602v-14.62h7.14q3.061.34.681 2.38v8.84q12.24-9.18 18.701-18.02l-55.423 2.04-.68-7.821 61.883-1.7 2.38-.68 5.1 6.12q1.02 1.36-1.7 1.02-10.2 13.26-24.48 24.821zm103.197 14.62q-18.021-9.18-29.582-12.24v35.361h-7.82v-68.003h6.8q4.08.34 1.02 2.72v21.42q16.66 4.761 33.662 12.922zm-.68-29.922q-5.78-7.14-11.561-11.56l4.42-3.4q5.78 4.42 11.56 11.56zm8.16-6.46q-4.42-5.78-11.22-11.22l4.42-3.4q5.78 4.08 11.22 11.22zm61.034 3.4q17.001 21.421 24.142 45.223l-9.18 3.06q-8.501-26.862-22.102-42.843zm-25.841 7.82q2.72 1.7-.68 3.06-6.12 21.422-19.721 39.103l-7.82-5.1q14.96-18.021 20.06-40.803zm40.802-26.52q4.42 3.74 10.88 10.54l-4.42 4.08q-6.12-6.8-10.88-10.88zm-8.16 5.1q5.1 4.76 10.88 11.56l-5.1 3.74q-5.1-6.8-10.54-11.56zm95.376 27.2q-18.021 37.403-60.523 39.443-1.7 4.42-3.4.68l-2.72-8.84q44.202-1.02 59.503-36.382zm-47.943 0q-9.18-8.5-17.34-13.94l5.78-7.14q7.14 4.42 18.02 14.62zm95.717 8.501q14.62 11.221 28.901 25.842l-6.8 5.78q-14.281-14.96-27.542-25.161-13.26 14.28-30.261 25.501l-6.46-5.78q36.041-23.461 46.242-46.923l-37.062 2.38-1.02-8.16 39.442-1.7 4.08-1.02 5.44 5.44q2.38 2.38-1.36 3.06-6.46 11.22-13.6 20.741" style="-inkscape-font-specification:GAMECUBEN;display:inline;fill:#fff;stroke-linecap:square;stroke-miterlimit:3.2;paint-order:stroke markers fill" transform="scale(1.05586 .9471)"/><path d="M471.945 130.528c3.49 0 6.237-2.73 6.237-6.44 0-3.651-2.748-6.394-6.237-6.394-3.519 0-6.274 2.743-6.274 6.393 0 3.711 2.755 6.441 6.274 6.441m-7.815-6.44c0-4.422 3.579-7.678 7.815-7.678 4.2 0 7.785 3.256 7.785 7.677 0 4.457-3.585 7.726-7.785 7.726-4.236 0-7.815-3.269-7.815-7.726m7.797-.537c1.141 0 2.163-.072 2.163-1.446 0-1.1-.998-1.297-1.936-1.297h-1.828v2.743zm-1.601 4.994h-1.344v-8.878h3.37c2.102 0 3.142.77 3.142 2.527 0 1.59-.998 2.277-2.3 2.444l2.521 3.907h-1.506l-2.348-3.853h-1.535z" style="display:inline;fill:#fff;fill-opacity:1;fill-rule:nonzero;stroke:none;stroke-width:.336424"/></svg>