<?xml version="1.0" encoding="UTF-8"?>
<!-- Created by ERK -->
<svg width="1926.3" height="292.7" version="1.1" viewBox="0 0 1926.3 292.7" xml:space="preserve" xmlns="http://www.w3.org/2000/svg" xmlns:xlink="http://www.w3.org/1999/xlink"><defs><linearGradient id="linearGradient413"><stop stop-color="#4b62a8" offset="0"/><stop stop-color="#6077bd" offset=".25"/><stop stop-color="#879ee4" offset=".49701"/><stop stop-color="#abc0ff" offset=".75"/><stop stop-color="#d9e2ff" offset="1"/></linearGradient><linearGradient id="linearGradient401"><stop stop-color="#3b5298" offset="0"/><stop stop-color="#6077bd" offset=".25192"/><stop stop-color="#839ae0" offset=".49701"/><stop stop-color="#bfceff" offset=".74808"/><stop stop-color="#e9f0ff" offset="1"/></linearGradient><linearGradient id="linearGradient398" x1="284.31" x2="284.31" y1="41.471" y2="283.36" gradientUnits="userSpaceOnUse"><stop stop-color="#344b91" offset="0"/><stop stop-color="#4d64aa" offset=".25021"/><stop stop-color="#8ea5eb" offset=".49787"/><stop stop-color="#bacbff" offset=".75064"/><stop stop-color="#ecf0ff" offset="1"/></linearGradient><linearGradient id="linearGradient403" x1="494.3" x2="494.3" y1="39.582" y2="279.58" gradientUnits="userSpaceOnUse" xlink:href="#linearGradient401"/><linearGradient id="linearGradient408" x1="715.04" x2="715.04" y1="53.096" y2="262.57" gradientUnits="userSpaceOnUse"><stop stop-color="#3a5197" offset="0"/><stop stop-color="#5c73b9" offset=".25021"/><stop stop-color="#8198de" offset=".49787"/><stop stop-color="#b4c6ff" offset=".75406"/><stop stop-color="#e4ecff" stop-opacity=".99608" offset="1"/></linearGradient><linearGradient id="linearGradient414" x1="944.33" x2="944.33" y1="39.582" y2="279.58" gradientUnits="userSpaceOnUse" xlink:href="#linearGradient413"/><linearGradient id="linearGradient419" x1="1173.3" x2="1173.3" y1="39.582" y2="279.58" gradientUnits="userSpaceOnUse"><stop stop-color="#677ec4" offset="0"/><stop stop-color="#8198de" offset=".25"/><stop stop-color="#98aff5" offset=".5"/><stop stop-color="#bcccff" offset=".75"/><stop stop-color="#dfe7ff" offset="1"/></linearGradient><linearGradient id="linearGradient441" x1="494.3" x2="494.3" y1="39.582" y2="279.58" gradientTransform="translate(1122.5)" gradientUnits="userSpaceOnUse" xlink:href="#linearGradient401"/><linearGradient id="linearGradient2" x1="1804.4" x2="1804.4" y1="39.582" y2="262.57" gradientUnits="userSpaceOnUse"><stop stop-color="#88a2f3" stop-opacity=".99216" offset="0"/><stop stop-color="#9bb2f8" offset=".25"/><stop stop-color="#abc0ff" offset=".5"/><stop stop-color="#bcccff" offset=".75"/><stop stop-color="#c8d6ff" offset="1"/></linearGradient><linearGradient id="linearGradient7" x1="1982.7" x2="1982.7" y1="28.619" y2="279.58" gradientUnits="userSpaceOnUse"><stop stop-color="#98aff5" offset="0"/><stop stop-color="#98aff5" offset=".25"/><stop stop-color="#a9beff" offset=".5"/><stop stop-color="#beceff" offset=".75"/><stop stop-color="#d0dcff" offset="1"/></linearGradient></defs><path d="m1984.3-3.9918h-2154.3m2154.3 302.36v-302.36m-2154.3 302.36h2154.3m-2154.3-302.36v302.36" display="none" fill="none" stroke="#000" stroke-linecap="round" stroke-width="3.571"/><g transform="translate(-171.87 -5.7773)"><path d="m1951.3 28.619-69.121 32.418 36.9 78.701v139.84h56.141v-67.039h61.689l46.17-46.35v-81.598l-52.789-45.01h-48.342l-27.699 21.455zm2.9492 60.982h47.791l46.978 44.965-42.58 44.5h-52.189z" fill="url(#linearGradient7)"/><path d="m1976.8 24.463 5.1699 15.119h48.342l5.5684-15.119z" fill="#fff" fill-opacity=".99216"/><path d="m2035.9 24.463-5.5684 15.119 52.789 45.01 15.109-6.9766z" fill="#c0d0ff"/><path d="m2098.2 77.615-15.109 6.9766v81.598l15.109 6.2441z" fill="#91a8ef" fill-opacity=".99216"/><path d="m2083.1 166.19 15.109 6.2441-55 55.225-6.2793-15.119z" fill="#5a71b8"/><path d="m1975.2 212.54h61.689l6.2793 15.119h-52.85z" fill="#475ea5"/><path d="m1975.2 212.54 15.119 15.119v67.041l-15.119-15.121z" fill="#4e65ab" fill-opacity=".96863"/><path d="m1919.1 279.58-15.109 15.121h86.369l-15.119-15.121z" fill="#5d74ba"/><path d="m1919.1 139.74-15.109 3.3691v151.59l15.109-15.121z" fill="#d1e0ff" fill-opacity=".98431"/><path d="m1862.1 53.768 41.9 89.34 15.109-3.3691-36.9-78.701z" fill="#b3c2ef" fill-opacity=".99608"/><path d="m1964.4 5.7773-102.33 47.99 20.109 7.2695 69.121-32.418z" fill="#fff" fill-opacity=".99216"/><path d="m1964.4 5.7773-13.1 22.842 2.9492 32.418 12.56-28.848z" fill="#5a71b7"/><path d="m1976.8 24.463-9.9688 7.7266-12.56 28.848 27.699-21.455z" fill="#bdcdff" fill-opacity=".99608"/><path d="m1954.3 89.602 15.119 15.117h26.602l6.0703-15.117z" fill="#5e75bb"/><path d="m2002.1 89.602-6.0703 15.117 31.68 30.316 21.369-0.46875z" fill="#92a9ef" fill-opacity=".99608"/><path d="m2049 134.57-21.369 0.46875-27.67 28.912 6.4589 15.119z" fill="#e8edff"/><path d="m1969.4 163.95-15.119 15.119h52.189l-6.4589-15.119z" fill="#d2daff"/><path d="m1954.3 89.602v89.465l15.119-15.119v-59.229z" fill="#4e65ab"/></g><g transform="translate(-171.87 -5.7773)"><path d="m1747.3 39.582 5.4707 222.99h56.26l52.35-192.77z" fill="url(#linearGradient2)"/><path d="m1731.7 19.807 15.609 19.775 114.08 30.221 18.58-10.717z" fill="#fff"/><path d="m1880 59.086-18.58 10.717-52.35 192.77 11.559 15.121z" fill="#395097" fill-opacity=".99608"/><path d="m1752.8 262.57-14.75 15.121h82.568l-11.559-15.121z" fill="#6e85ce"/><path d="m1731.7 19.807 6.3301 257.88 14.75-15.121-5.4707-222.99z" fill="#e2eaff" fill-opacity=".98039"/></g><g transform="translate(950.65 -5.7773)"><path transform="translate(-1122.5)" d="m1659.9 39.582v100.16h-62.889v-99.281l-79.018 12.639 52.287 226.48h37.797v-62.689l49.133-49.131v94.811h45.354l13.07-222.99z" fill="url(#linearGradient441)"/><path d="m522.27 24.463 15.117 15.119h55.734l16.031-15.119z" fill="#fff" fill-opacity=".98824"/><path d="m609.15 24.463-16.031 15.119-13.07 222.99 14.258 15.121z" fill="#152c72"/><path d="m534.7 262.57-15.119 15.121h74.73l-14.258-15.121z" fill="#2c4289" fill-opacity=".96471"/><path d="m534.7 167.76v94.811l-15.119 15.121v-73.432z" fill="#c6d4ff"/><path d="m534.7 167.76-15.119 36.5-18.896 18.9-15.117-6.2695z" fill="#2a4188" fill-opacity=".99608"/><path d="m485.57 216.89v62.689l15.117 15.121v-71.541z" fill="#12296f"/><path d="m447.77 279.58-12.025 15.121h64.939l-15.117-15.121z" fill="#2b4388" fill-opacity=".99216"/><path d="m377.11 40.725 19.369 83.896h0.26757v1.1582l38.998 168.92 12.025-15.121-52.287-226.48z" fill="#c8d5ff" fill-opacity=".99608"/><path d="m489.62 22.727-112.51 17.998 18.373 12.371 79.018-12.639z" fill="#fff"/><path d="m489.62 22.727-15.117 17.73v99.281l15.117-15.117z" fill="#162d73" fill-opacity=".87059"/><path d="m489.62 124.62-15.117 15.117h62.889l-15.117-15.117z" fill="#9bb2f8" fill-opacity=".99608"/><path d="m522.27 24.463v100.16l15.117 15.117v-100.16z" fill="#c6d3ff" fill-opacity=".96471"/></g><g transform="translate(274.12 -5.7773)"><path d="m906.85 39.582-60.773 63.383v35.072l135.91 56.611-26.982 33.961h-31.029l-36.492-38.641-51.117 38.641 54.834 50.969h85.041l66.912-58.48v-31.129l-119.18-73.881 39.719-35.328 50.648 45.799 37.949-41.967-57.488-45.01z" fill="url(#linearGradient414)"/><path d="m900.4 24.463 6.4473 15.119h87.957l5.2129-15.119z" fill="#6980c6" fill-opacity=".99216"/><path d="m1e3 24.463-5.2129 15.119 57.488 45.01 22.1-1.8984z" fill="#5067ad"/><path d="m1074.4 82.693-22.1 1.8984-37.949 41.967 1.0801 21.354z" fill="#10276d"/><path d="m963.7 80.76-0.084 20.307 51.813 46.846-1.0801-21.354z" fill="#2e458b"/><path d="m963.7 80.76-39.719 35.328 25.189-2.1738 14.445-12.848z" fill="#193077" fill-opacity=".99608"/><path d="m949.17 113.91-25.189 2.1738 119.18 73.881 15.119-8.4219z" fill="#e9eeff" fill-opacity=".99608"/><path d="m1058.3 181.55v46.422l-15.119-6.8711v-31.129z" fill="#193076"/><path d="m1043.2 221.1-66.912 58.48 5.6738 15.121 76.357-66.73z" fill="#0f266d" fill-opacity=".99608"/><path d="m891.2 279.58-5.9414 15.121h96.656l-5.6738-15.121z" fill="#2d458b" fill-opacity=".99216"/><path d="m812.88 227.42 72.383 67.281 5.9414-15.121-54.834-50.969z" fill="#4b62a9" fill-opacity=".99608"/><path d="m889.18 169.73-76.297 57.684 23.49 1.1914 51.117-38.641z" fill="#fff" fill-opacity=".99608"/><path d="m889.18 169.73 41.32 43.754-6.5176 15.121-36.492-38.641z" fill="#667dc3" fill-opacity=".99608"/><path d="m930.5 213.49h17.213l7.2988 15.121h-31.029z" fill="#e8edff"/><path d="m981.99 194.65-26.982 33.961-7.2988-15.121 9.998-12.58z" fill="#fff" fill-opacity=".99608"/><path d="m846.08 138.04-15.119 10.08 126.75 52.791 24.283-6.2598z" fill="#172e74"/><path d="m830.96 96.889v51.229l15.119-10.08v-35.072z" fill="#e7ecff" fill-opacity=".99608"/><path d="m900.4 24.463-69.445 72.426 15.119 6.0762 60.773-63.383z" fill="#fff"/></g><g transform="translate(-171.87 -5.7773)"><path d="m1074 39.582v92.047l73.93-25.039-18.539 172.99h72.32v-186.63l70.91-23.143v-30.221z" fill="url(#linearGradient419)"/><path d="m1058.8 24.463 15.119 15.119h198.62l15.119-15.119z" fill="#fff"/><path d="m1287.7 24.463-15.119 15.119v30.221l15.119 10.971z" fill="#536ab0"/><path d="m1272.6 69.803-70.91 23.143 15.119 10.969 70.91-23.141z" fill="#455ca3" fill-opacity=".99608"/><path d="m1201.7 92.945v186.63l15.119 15.121v-190.79z" fill="#1c3379"/><path d="m1129.4 279.58-16.83 15.121h104.27l-15.119-15.121z" fill="#445ba2" fill-opacity=".99608"/><path d="m1147.9 106.59-17.549 21.906-17.82 166.2 16.83-15.121z" fill="#eff3ff"/><path d="m1147.9 106.59-73.93 25.039-15.119 21.082 71.5-24.215z" fill="#465da3" fill-opacity=".95686"/><path d="m1058.8 24.463v128.25l15.119-21.082v-92.047z" fill="#c1d0ff"/></g><g transform="translate(-171.87 -5.7773)"><path d="m906.85 39.582-60.773 63.383v35.072l135.91 56.611-26.982 33.961h-31.029l-36.492-38.641-51.117 38.641 54.834 50.969h85.041l66.912-58.48v-31.129l-119.18-73.881 39.719-35.328 50.648 45.799 37.949-41.967-57.488-45.01z" fill="url(#linearGradient414)"/><path d="m900.4 24.463 6.4473 15.119h87.957l5.2129-15.119z" fill="#6980c6" fill-opacity=".99216"/><path d="m1e3 24.463-5.2129 15.119 57.488 45.01 22.1-1.8984z" fill="#5067ad"/><path d="m1074.4 82.693-22.1 1.8984-37.949 41.967 1.0801 21.354z" fill="#10276d"/><path d="m963.7 80.76-0.084 20.307 51.813 46.846-1.0801-21.354z" fill="#2e458b"/><path d="m963.7 80.76-39.719 35.328 25.189-2.1738 14.445-12.848z" fill="#193077" fill-opacity=".99608"/><path d="m949.17 113.91-25.189 2.1738 119.18 73.881 15.119-8.4219z" fill="#e9eeff" fill-opacity=".99608"/><path d="m1058.3 181.55v46.422l-15.119-6.8711v-31.129z" fill="#193076"/><path d="m1043.2 221.1-66.912 58.48 5.6738 15.121 76.357-66.73z" fill="#0f266d" fill-opacity=".99608"/><path d="m891.2 279.58-5.9414 15.121h96.656l-5.6738-15.121z" fill="#2d458b" fill-opacity=".99216"/><path d="m812.88 227.42 72.383 67.281 5.9414-15.121-54.834-50.969z" fill="#4b62a9" fill-opacity=".99608"/><path d="m889.18 169.73-76.297 57.684 23.49 1.1914 51.117-38.641z" fill="#fff" fill-opacity=".99608"/><path d="m889.18 169.73 41.32 43.754-6.5176 15.121-36.492-38.641z" fill="#667dc3" fill-opacity=".99608"/><path d="m930.5 213.49h17.213l7.2988 15.121h-31.029z" fill="#e8edff"/><path d="m981.99 194.65-26.982 33.961-7.2988-15.121 9.998-12.58z" fill="#fff" fill-opacity=".99608"/><path d="m846.08 138.04-15.119 10.08 126.75 52.791 24.283-6.2598z" fill="#172e74"/><path d="m830.96 96.889v51.229l15.119-10.08v-35.072z" fill="#e7ecff" fill-opacity=".99608"/><path d="m900.4 24.463-69.445 72.426 15.119 6.0762 60.773-63.383z" fill="#fff"/></g><g transform="translate(-171.87 -5.7773)"><path d="m699.33 53.096-83.045 73.463v68.09l68.082 67.92h62.098l67.336-67.92v-78.561l-62.098-62.992zm38.578 36.732 44.844 60.26-61.682 62.451-46.311-57.172z" fill="url(#linearGradient408)"/><path d="m693.6 37.979 5.7266 15.117h52.373l6.3262-15.117z" fill="#c6d4ff"/><path d="m758.03 37.979-6.3262 15.117 62.098 62.992 15.117-6.1992z" fill="#97aef4"/><path d="m828.92 109.89-15.117 6.1992v78.561l15.117 6.2207z" fill="#2a4187"/><path d="m813.8 194.65 15.117 6.2207-76.152 76.82-6.3008-15.121z" fill="#0a2168"/><path d="m684.37 262.57-6.252 15.121h74.65l-6.3008-15.121z" fill="#2c4288" fill-opacity=".94902"/><path d="m616.28 194.65 68.082 67.92-6.252 15.121-76.949-76.771z" fill="#98aff4"/><path d="m601.16 119.75v81.17l15.119-6.2695v-68.09z" fill="#c3d1fb" fill-opacity=".98824"/><path d="m603.7 117.5-0.19336 3.2988 12.775 5.7559 83.045-73.463-5.7266-15.117z" fill="#fff" fill-opacity=".99608"/><path d="m737.91 89.828-1.4844 23.328 26.449 35.545 19.879 1.3867z" fill="#2b4288"/><path d="m762.87 148.7 19.879 1.3867-61.682 62.451 1.1133-22.641z" fill="#fff" fill-opacity=".99608"/><path d="m674.76 155.37 20.158 0.86718 27.266 33.664-1.1133 22.641z" fill="#98aff5"/><path d="m737.91 89.828-63.148 65.539 20.158 0.86718 41.506-43.078z" fill="#162d73"/></g><g transform="translate(-171.87 -5.7773)"><path d="m537.39 39.582v100.16h-62.889v-99.281l-79.018 12.639 52.287 226.48h37.797v-62.689l49.133-49.131v94.811h45.354l13.07-222.99z" fill="url(#linearGradient403)"/><path d="m522.27 24.463 15.117 15.119h55.734l16.031-15.119z" fill="#fff" fill-opacity=".98824"/><path d="m609.15 24.463-16.031 15.119-13.07 222.99 14.258 15.121z" fill="#152c72"/><path d="m534.7 262.57-15.119 15.121h74.73l-14.258-15.121z" fill="#2c4289" fill-opacity=".96471"/><path d="m534.7 167.76v94.811l-15.119 15.121v-73.432z" fill="#c6d4ff"/><path d="m534.7 167.76-15.119 36.5-18.896 18.9-15.117-6.2695z" fill="#2a4188" fill-opacity=".99608"/><path d="m485.57 216.89v62.689l15.117 15.121v-71.541z" fill="#12296f"/><path d="m447.77 279.58-12.025 15.121h64.939l-15.117-15.121z" fill="#2b4388" fill-opacity=".99216"/><path d="m377.11 40.725 19.369 83.896h0.26757v1.1582l38.998 168.92 12.025-15.121-52.287-226.48z" fill="#c8d5ff" fill-opacity=".99608"/><path d="m489.62 22.727-112.51 17.998 18.373 12.371 79.018-12.639z" fill="#fff"/><path d="m489.62 22.727-15.117 17.73v99.281l15.117-15.117z" fill="#162d73" fill-opacity=".87059"/><path d="m489.62 124.62-15.117 15.117h62.889l-15.117-15.117z" fill="#9bb2f8" fill-opacity=".99608"/><path d="m522.27 24.463v100.16l15.117 15.117v-100.16z" fill="#c6d3ff" fill-opacity=".96471"/></g><g transform="translate(-171.87 -5.7773)"><path d="m288.74 41.471-101.76 96.566v77.691l67.631 67.631h69.1l57.916-51.061v-92.561h-77.199v45.35h46.695v30.24h-62.453l-41.217-41.217v-47.553l54.236-51.469 32.656 34.412h30.273v-42.516l-21.213-25.516z" fill="url(#linearGradient398)"/><path d="m282.71 26.352 6.0312 15.119h54.666l7.0918-15.119z" fill="#a0b7fc" fill-opacity=".99608"/><path d="m350.5 26.352-7.0918 15.119 21.213 25.516 15.117-5.4629z" fill="#6c84ca" fill-opacity=".99608"/><path d="m379.74 61.523-15.117 5.4629v42.516l15.117 15.119z" fill="#445ba1"/><path d="m334.35 109.5-6.4941 15.119h51.885l-15.117-15.119z" fill="#233b82" fill-opacity=".96863"/><path d="m301.69 75.09-0.5586 21.373 26.721 28.158 6.4941-15.119z" fill="#687fc6" fill-opacity=".99216"/><path d="m301.69 75.09-54.236 51.469 15.117 6.4941 38.561-36.59z" fill="#2a4188" fill-opacity=".99608"/><path d="m247.46 126.56v47.553l15.117-6.2617v-34.797z" fill="#253c82"/><path d="m262.57 167.85-15.117 6.2617 41.217 41.217 3.3809-18z" fill="#9eb5fb"/><path d="m292.05 197.33-3.3809 18h62.453l-13.012-18z" fill="#687fc5" fill-opacity=".99216"/><path d="m351.12 185.09-13.012 12.24 13.012 18z" fill="#364d94" fill-opacity=".99608"/><path transform="translate(1.7855 -818.37)" d="m302.64 1003.5-12.377 12.24h46.061l13.012-12.24z" fill="#20377e" fill-opacity=".99216"/><path d="m292.05 124.62v72.707l12.377-12.24v-45.35z" fill="#fff"/><path d="m292.05 124.62h104.43l0.0508 0.2168-14.9 14.9h-77.199z" fill="#d1dfff"/><path d="m396.53 124.84-14.9 14.9v92.561l15.117 6.8203v-113.34z" fill="#253c82"/><path d="m381.63 232.3-57.916 51.061 5.7129 15.119 67.32-59.359z" fill="#2a4187" fill-opacity=".98039"/><path d="m254.61 283.36-6.2617 15.119h81.074l-5.7129-15.119z" fill="#41589e"/><path d="m186.98 215.73-15.117 6.2598 76.486 76.49 6.2617-15.119z" fill="#9eb4fa"/><path d="m171.87 131.54v90.447l15.117-6.2598v-77.691z" fill="#c2d1ff"/><path d="m282.71 26.352-110.85 105.19 15.117 6.4961 101.76-96.566z" fill="#fff" fill-opacity=".99608"/></g></svg>
