<!-- Created by ERK --><svg xmlns="http://www.w3.org/2000/svg" xml:space="preserve" width="75.386" height="91.985"><path d="M7.766 91.692a6.7 6.7 0 0 1-2.04.293q-1.314 0-2.368-.407a5.2 5.2 0 0 1-1.804-1.138 5 5 0 0 1-1.151-1.758A6.1 6.1 0 0 1 0 86.426q0-1.246.391-2.27a5 5 0 0 1 1.113-1.759 4.9 4.9 0 0 1 1.754-1.135 6.3 6.3 0 0 1 2.309-.402q.645 0 1.2.095.555.093 1.025.273a4.9 4.9 0 0 1 1.626 1.005l-.419.67a.43.43 0 0 1-.255.193q-.154.042-.345-.072a11 11 0 0 1-.417-.259 4 4 0 0 0-.574-.292 4.7 4.7 0 0 0-1.886-.337 4.4 4.4 0 0 0-1.664.299 3.5 3.5 0 0 0-1.268.858 3.8 3.8 0 0 0-.806 1.352 5.3 5.3 0 0 0-.28 1.782q0 1.023.292 1.833.293.809.836 1.374a3.6 3.6 0 0 0 1.318.863 4.8 4.8 0 0 0 1.738.296 5.2 5.2 0 0 0 1.93-.368q.28-.12.569-.27v-2.4H6.494a.33.33 0 0 1-.232-.083.28.28 0 0 1-.088-.207v-.834h3.342v4.177a6.1 6.1 0 0 1-1.75.884m13.149-5.267q0-1.002-.273-1.8a3.8 3.8 0 0 0-.775-1.348 3.4 3.4 0 0 0-1.215-.847 4.1 4.1 0 0 0-1.594-.296q-.874 0-1.588.296a3.4 3.4 0 0 0-1.219.847 3.8 3.8 0 0 0-.779 1.348 5.6 5.6 0 0 0-.273 1.8q0 1.002.273 1.796.275.794.779 1.344a3.4 3.4 0 0 0 1.219.843 4.2 4.2 0 0 0 1.588.293 4.2 4.2 0 0 0 1.594-.293 3.3 3.3 0 0 0 1.215-.843 3.8 3.8 0 0 0 .775-1.344q.273-.795.273-1.796m1.51 0q.001 1.222-.386 2.244a5.15 5.15 0 0 1-1.093 1.757 4.9 4.9 0 0 1-1.698 1.144 5.7 5.7 0 0 1-2.19.406q-1.2 0-2.188-.406a4.9 4.9 0 0 1-1.694-1.144 5.15 5.15 0 0 1-1.093-1.757 6.3 6.3 0 0 1-.387-2.244q0-1.223.387-2.245a5.2 5.2 0 0 1 1.093-1.762 4.9 4.9 0 0 1 1.694-1.15 5.7 5.7 0 0 1 2.188-.41q1.198 0 2.19.41a4.9 4.9 0 0 1 1.698 1.15q.705.742 1.093 1.762.388 1.023.387 2.245m9.793 5.267a6.7 6.7 0 0 1-2.04.293q-1.314 0-2.368-.407a5.2 5.2 0 0 1-1.804-1.138 5 5 0 0 1-1.15-1.758 6.1 6.1 0 0 1-.403-2.256q0-1.246.39-2.27a5 5 0 0 1 1.114-1.759 4.9 4.9 0 0 1 1.753-1.135 6.3 6.3 0 0 1 2.31-.402q.645 0 1.2.095.554.093 1.025.273a4.9 4.9 0 0 1 1.625 1.005l-.419.67a.43.43 0 0 1-.254.193q-.155.042-.346-.072a11 11 0 0 1-.417-.259 4 4 0 0 0-.573-.292 4.7 4.7 0 0 0-1.887-.337 4.4 4.4 0 0 0-1.664.299 3.5 3.5 0 0 0-1.268.858 3.8 3.8 0 0 0-.805 1.352 5.3 5.3 0 0 0-.28 1.781q0 1.024.292 1.834.291.808.836 1.374a3.6 3.6 0 0 0 1.317.863 4.8 4.8 0 0 0 1.739.296 5.2 5.2 0 0 0 1.929-.368q.28-.12.57-.27v-2.4h-1.694a.33.33 0 0 1-.232-.083.28.28 0 0 1-.087-.207v-.834h3.342v4.177a6.1 6.1 0 0 1-1.751.884m4.313-.667a.96.96 0 0 1 .57-.88.9.9 0 0 1 .372-.076.98.98 0 0 1 .881.585.94.94 0 0 1 0 .747 1 1 0 0 1-.205.3.96.96 0 0 1-.676.273 1 1 0 0 1-.372-.072.9.9 0 0 1-.3-.2.94.94 0 0 1-.27-.677m12.022-1.411a.28.28 0 0 1 .212.1l.585.63a4.7 4.7 0 0 1-1.621 1.208q-.954.432-2.306.432-1.17 0-2.126-.407a4.7 4.7 0 0 1-1.632-1.139 5.15 5.15 0 0 1-1.048-1.757 6.6 6.6 0 0 1-.372-2.256q0-1.23.386-2.256a5.2 5.2 0 0 1 1.09-1.761 4.9 4.9 0 0 1 1.682-1.144q.98-.405 2.166-.405 1.16 0 2.049.371a5.2 5.2 0 0 1 1.565 1.01l-.486.676a.4.4 0 0 1-.118.125.34.34 0 0 1-.194.05q-.136 0-.334-.149a5 5 0 0 0-.517-.329 4 4 0 0 0-.796-.33 4 4 0 0 0-1.177-.149 3.9 3.9 0 0 0-1.542.292 3.35 3.35 0 0 0-1.204.847 3.9 3.9 0 0 0-.786 1.352 5.4 5.4 0 0 0-.282 1.8q0 1.016.294 1.815.291.798.797 1.348.504.55 1.192.838a3.8 3.8 0 0 0 1.484.29q.487 0 .879-.058.39-.057.72-.178t.616-.307q.283-.186.565-.445a.4.4 0 0 1 .259-.114m11.341-3.189q0-1.002-.273-1.8a3.8 3.8 0 0 0-.775-1.348 3.4 3.4 0 0 0-1.215-.847 4.1 4.1 0 0 0-1.594-.296q-.874 0-1.588.296a3.4 3.4 0 0 0-1.22.847 3.8 3.8 0 0 0-.778 1.348 5.6 5.6 0 0 0-.273 1.8q0 1.002.273 1.796.275.794.779 1.344a3.4 3.4 0 0 0 1.219.843 4.2 4.2 0 0 0 1.588.293 4.2 4.2 0 0 0 1.594-.293 3.3 3.3 0 0 0 1.215-.843 3.8 3.8 0 0 0 .775-1.344q.273-.795.273-1.796m1.51 0q.001 1.222-.386 2.244a5.15 5.15 0 0 1-1.093 1.757 4.9 4.9 0 0 1-1.698 1.144 5.7 5.7 0 0 1-2.19.406q-1.2 0-2.188-.406a4.9 4.9 0 0 1-1.694-1.144 5.15 5.15 0 0 1-1.093-1.757 6.3 6.3 0 0 1-.387-2.244q0-1.223.387-2.245a5.2 5.2 0 0 1 1.093-1.762 4.9 4.9 0 0 1 1.694-1.15 5.7 5.7 0 0 1 2.188-.41q1.198 0 2.19.41a4.9 4.9 0 0 1 1.698 1.15q.705.742 1.093 1.762.388 1.023.387 2.245m8.184 1.888.168.397a10 10 0 0 1 .16-.405q.083-.201.18-.383l3.693-6.69q.09-.176.2-.214a1 1 0 0 1 .308-.037h1.087v10.881h-1.292v-7.996a8 8 0 0 1 .03-.714l-3.73 6.805q-.173.34-.53.341h-.213q-.356 0-.53-.34l-3.813-6.829a8 8 0 0 1 .046.737v7.996h-1.292v-10.88h1.086a1 1 0 0 1 .304.036q.106.038.204.214l3.76 6.697q.09.182.175.384" style="fill:#000;fill-opacity:1;fill-rule:nonzero;stroke:none;stroke-width:1.33333"/><path d="M22.462 46.053h-8.77a1.24 1.24 0 0 0-1.24 1.247s.003 0 .003.008h-.003v6.257h.003l-.003.005c0 .686.552 1.25 1.24 1.25h8.77v4.174H11.519v-.01A3.235 3.235 0 0 1 8.28 55.75V45.11a3.233 3.233 0 0 1 3.239-3.223h10.943zm3.166-11.62a3.28 3.28 0 0 1-3.282 3.284H8.27v-4.23h11.867c.698 0 1.258-.571 1.258-1.266V18.237c0-.697-.56-1.262-1.258-1.262H13.76a1.26 1.26 0 0 0-1.258 1.262v6.364a1.26 1.26 0 0 0 1.258 1.266h5.095v4.23h-7.303a3.277 3.277 0 0 1-3.281-3.281V16.024a3.28 3.28 0 0 1 3.281-3.283h10.794a3.283 3.283 0 0 1 3.282 3.283zm41.474 24.552H62.93v-12.93H60a1.24 1.24 0 0 0-1.242 1.246v11.684h-4.17v-12.93h-2.933a1.243 1.243 0 0 0-1.242 1.246v11.695h-4.17V45.112a3.23 3.23 0 0 1 3.235-3.224h17.623zm.01-24.552a3.28 3.28 0 0 1-3.281 3.284H49.755v-4.23h11.867c.7 0 1.264-.571 1.264-1.266V18.237a1.26 1.26 0 0 0-1.264-1.262h-6.376a1.26 1.26 0 0 0-1.255 1.262v6.364c0 .699.564 1.266 1.255 1.266h5.092v4.23h-7.3a3.28 3.28 0 0 1-3.283-3.281V16.024a3.28 3.28 0 0 1 3.284-3.283H63.83a3.284 3.284 0 0 1 3.281 3.283zM42.13 18.248v6.353a1.25 1.25 0 0 1-1.248 1.267h-6.375a1.26 1.26 0 0 1-1.26-1.267v-6.364c0-.697.56-1.261 1.26-1.261h6.375a1.25 1.25 0 0 1 1.248 1.261zm.96-5.505H32.295a3.28 3.28 0 0 0-3.279 3.282v10.792a3.277 3.277 0 0 0 3.279 3.282H43.09a3.283 3.283 0 0 0 3.28-3.282V16.025a3.284 3.284 0 0 0-3.28-3.282m-4.356 34.565v6.257a1.244 1.244 0 0 1-1.238 1.25c-.006 0-.008-.007-.014-.007v.007h-6.256v-.007s-.007.007-.014.007a1.244 1.244 0 0 1-1.24-1.25V47.3c0-.688.552-1.247 1.24-1.247h6.284a1.24 1.24 0 0 1 1.238 1.247zm.937-5.421H29.036A3.23 3.23 0 0 0 25.8 45.11v10.64a3.233 3.233 0 0 0 3.236 3.233h10.635a3.233 3.233 0 0 0 3.232-3.233V45.11a3.23 3.23 0 0 0-3.232-3.224" style="fill:#000;fill-opacity:1;fill-rule:evenodd;stroke:none;stroke-width:1.33333"/><path d="M73.783 66.252c0 1.075-.433 2.04-1.137 2.745a3.86 3.86 0 0 1-2.743 1.135H5.483a3.876 3.876 0 0 1-3.88-3.88V5.482A3.87 3.87 0 0 1 2.74 2.738a3.87 3.87 0 0 1 2.743-1.136h64.42a3.87 3.87 0 0 1 2.743 1.136 3.86 3.86 0 0 1 1.137 2.742zm-.005-64.647A5.46 5.46 0 0 0 69.903 0H5.483a5.46 5.46 0 0 0-3.875 1.605A5.46 5.46 0 0 0 0 5.481v60.77c0 1.513.615 2.889 1.608 3.878a5.47 5.47 0 0 0 3.875 1.607h64.42a5.47 5.47 0 0 0 3.875-1.607 5.47 5.47 0 0 0 1.608-3.877V5.482a5.47 5.47 0 0 0-1.608-3.877" style="fill:#000;fill-opacity:1;fill-rule:nonzero;stroke:none;stroke-width:1.33333"/></svg>