<!-- Created by ERK --><svg xmlns="http://www.w3.org/2000/svg" width="787.321" height="179.476" viewBox="0 0 1231.827 280.805"><g transform="translate(2.347 2.347)"><path d="M371.948 106.612v57.268h-9.973v-25.258H344.28v25.258h-10.215v-57.268h10.215v22.602h17.696v-22.602zm109.362 60.486-11.903-30.886-17.454 28.15h-10.937l24.37-40.298-2.733-7.96h-9.492v-9.492h16.246l18.663 48.581 8.201-2.736 2.737 9.415zm109.126-12.548h28.314v9.249h-38.367v-57.108h10.053zm142.253-47.859h.805v9.413h-20.593v13.349h16.648v9.253h-16.648v25.174h-10.214v-57.19zm80.385 22.683v9.733h-26.865v-9.733zm60.083 25.176h28.316v9.249h-38.369v-57.108h10.053zm117.589-47.859h.885v57.271h-9.978v-57.27zm122.371 0h.806v9.413h-20.591v13.349h16.646v9.253h-16.646v25.174h-10.217v-57.19zm114.017 47.939v9.25h-36.035v-57.19h34.99v9.33h-24.935v13.27h21.636v9.415h-21.636v15.925z" style="fill:#fb7e14;stroke-width:.183"/><circle cx="138.056" cy="138.056" r="130.233" style="opacity:.98;fill:none;stroke:#fb7e14;stroke-width:15.6458;stroke-linecap:round;stroke-linejoin:round"/><path fill="#fb7e14" d="m168.797 173.865 5.847 19.65-33.974 11.6-20.33-61.86-31.197 57.352H66.025l44.84-87.305-5.563-15.782h-14.21V78.826h28.41l33.973 100.519z"/></g><path d="m52.418 132.385 1.004 1.642-14.336 23.144h7.187l10.41-19.203q5.228 9.6 10.453 19.203H74.3q-7.153-11.572-14.304-23.146 6.668-10.917 13.338-21.832h-7.135l-9.51 18.02-9.508-18.02h-7.1l12.337 20.191zm126.137-20.606c-4.488.07-9.25 1.41-12.32 4.864-2.409 2.642-3.24 6.378-2.86 9.868.194 2.87 1.388 5.832 3.868 7.459 3.332 2.342 7.525 2.549 11.418 3.126 2.57.35 5.427.554 7.393 2.46 2.228 2.15 2.636 5.772 1.397 8.535-1.21 2.64-4.1 3.983-6.85 4.342-3.93.486-7.996.107-11.75-1.166a15 15 0 0 1-2.685-1.256l-3.871 3.805c3.946 2.872 8.972 3.58 13.729 3.755 4.775.181 9.842-.62 13.769-3.519 2.683-1.985 4.526-5.129 4.646-8.496.097-3.059-.148-6.384-2.002-8.94-2.148-2.794-5.76-3.802-9.088-4.338-2.688-.422-5.414-.625-8.08-1.175-2.758-.645-5.342-2.78-5.763-5.69-.614-3.614 1.99-7.2 5.384-8.288 2.699-.915 5.617-.632 8.399-.336 1.832.23 3.66.727 5.228 1.728l3.621-3.557c-3.974-2.621-8.924-3.238-13.584-3.181zm25.824 45.392h6.59v-20.31h19.89v20.31h6.553v-44.978h-6.553v19.715h-19.89v-19.716h-6.59z" style="fill:#fff;stroke-width:.661" transform="translate(2.347 2.347)"/></svg>