<!-- Created by ERK --><svg xmlns="http://www.w3.org/2000/svg" width="348.042" height="219.016" viewBox="0 0 92.086 57.948"><path fill="#470135" d="m74.115 56.31-.026-1.667h-.794v-1.138l-.926-.873c-.476-.503-1.032-.9-1.191-.9h-.265v-.794h-.794v-.794h-1.322v-.794h-5.82v.794h-1.588v.794h-1.322v.794h-5.028v-.794h-1.588v-.794h-2.646v.794h-1.588v.794h-7.144v-.794h-1.588v-.794h-3.44v.794h-1.349l-.132.397-.159.397h-4.18v-.794h-.53v-.794h-.794v-.794h-.794v-.794h-.794v-.794h-1.588v-.794h-2.064l-.159-.397-.132-.397h-3.758l-.132.397-.159.397h-1.296l-.132.397-.159.397h-.74v.794H17.2v.74l-.423.159-.397.159.159.265.159.265h-1.614v.794h-1.588v.794h-3.44v-.794H8.468v-.794H6.88v-.794h-.794v-.291c0-.159-.476-.767-1.058-1.323L3.97 46.704h2.91v-.794h1.588v-.794h1.588v-.794h.794v-.794h.794v-.794h.53v-1.322h.794v-6.614h-.794v-1.322h-.53v-1.588h-.794V30.3h-.794v-.794h-.794v-.794h-.265c-.159 0-.556-.291-.9-.661s-.741-.661-.926-.661H6.88v-.794H5.558v-.794H3.97v-.794H2.382v-.794H0l.529-.529c.291-.291.661-.529.794-.529h.265v-.794h.794v-.794h.794v-.794h.794v-.794h.794v-.794h.794v-.265c0-.344 1.508-1.852 1.852-1.852h.265v-.794h.794v-2.646h-.794v-.794h-.794v-.794h-.794l.529-.529c.291-.291.661-.529.794-.529h.265v-.794h.794v-.794h.794v-.794h.794v-.794h.794v-.794h.794v-.265c0-.344 1.508-1.852 1.852-1.852h.265v-.794h.794v-.794h.794v-.794h.794V1.72h.794V.926h.767l.106-.45.132-.476.026 1.27.026 1.244h.794v1.588h.794v.794h.265c.159 0 .556.291.9.661l.609.661h1.402v.794h1.322v.794h1.588V8.6h5.556v-.794h.794v-.794h.794v-.794h4.234v.794h.794v.794h.794V8.6h5.556v-.794h.794v-.794h.794v-.794h3.44v.794h.794v.794h.794V8.6h.794v.794h2.646V8.6h.794v-.794h.794l.026-3.096.026-3.122.132.476.106.45h.767v.794h.794v.794h.794v.794h.265c.159 0 .556.291.9.661s.741.661.926.661h.291v.794h.53v.794h.794V8.6h.794v.794h.794v.794h.794v3.704h.794v.794h.794v.794h.794v.74l.344.132.317.132-.317.026-.344.026v.794h-.794v.794h-.794v.794h-.794v5.556h.794v.794h.794v.794h.794v.794h2.382V24.21h-.53v-1.058h.53V21.3h-.53v-1.322h2.116v-2.064l.397-.159.397-.132v-2.408h-.794v-2.91h.794v-1.826l-.45-.106-.476-.132.476-.026.45-.026V8.601h.53v1.561l.476.106.45.132-.45.026-.476.026v1.852h.794v2.91h-.794v2.408l.397.132.397.159v2.858h1.852v-1.058h-.794v-1.8l.397-.159.397-.132.053-1.535.053-1.535.079 1.455.106 1.455.503.45.503.476h.82v-5.556h-.794V11.8l.741-.079.714-.079.079-.609.079-.582h-.82V8.599h.794V7.541h-.794v-.53h.794V5.953h-.794V4.895h.794V2.513h.53v2.382h.794v1.058h-.794v1.058h.794v.53h-.794v1.058h.794v1.852h-.82l.079.609.079.582.741.079.714.079v1.032h-.794v5.556h.82l.503-.476.503-.45.106-1.455.079-1.455.053 1.535.053 1.535.397.132.397.159v1.8h-.794v1.058h1.852v-2.858l.397-.159.397-.132v-2.408h-.794v-2.91h.794v-1.826l-.45-.106-.476-.132.476-.026.45-.026V8.6h.53v1.561l.476.106.45.132-.45.026-.476.026v1.852h.794v2.91h-.794v2.408l.397.132.397.159v2.064h2.116v1.322h-.794v1.614l.397.132.397.159v.952l-.397.159-.397.132v3.546l1.296 1.27c.741.714 1.455 1.296 1.587 1.296h.291v.794h.794v1.588h.794v1.588h.794v4.234h-.794v1.27l-.397.159-.397.132v1.349h-.794v.794h-.794v.794h-.794v.794h-.794v.794h-.794v.265c0 .344-1.508 1.852-1.852 1.852h-.265v.794h-.794v.794h-.794v.794h-.794v.794h-.794v.794h-.794v.265c0 .344-1.508 1.852-1.852 1.852h-.265v.794h-.794v.794h-.794v.794h-.794v.794h-.794v.794h-.767l-.106.476-.132.45-.026-1.64zm-3.201-31.168v-.926h-1.058v1.852h1.058zm15.346 0v-.926h-1.058v1.852h1.058zm-15.346-2.91v-.926h-1.058v1.852h1.058zm15.293-.079.079-.847h-1.085v1.878l.476-.079.45-.079.079-.873zM44.985 55.966v-.265h2.116v.53h-2.116z"/><g fill="#540a3b"><path d="m74.115 56.31-.026-1.667h-.794v-1.138l-.926-.873c-.476-.503-1.032-.9-1.191-.9h-.265v-.794h-.794v-.794h-1.322v-.794h-5.82v.794h-1.588v.794h-1.322v.794h-5.028v-.794h-1.588v-.794h-2.646v.794h-1.588v.794h-7.144v-.794h-1.588v-.794h-3.44v.794h-1.349l-.132.397-.159.397h-4.18v-.794h-.53v-.794h-.794v-.794h-.794v-.794h-.794v-.794h-1.588v-.794h-2.064l-.159-.397-.132-.397h-3.758l-.132.397-.159.397h-1.296l-.132.397-.159.397h-.74v.794H17.2v.74l-.423.159-.397.159.159.265.159.265h-1.614v.794h-1.588v.794h-3.44v-.794H8.468v-.794H6.88v-.794h-.794v-.291c0-.159-.476-.767-1.058-1.323L3.97 46.704h2.91v-.794h1.588v-.794h1.588v-.794h.794v-.794h.794v-.794h.53v-1.322h.794v-6.614h-.794v-1.322h-.53v-1.588h-.794V30.3h-.794v-.794h-.794v-.794h-.265c-.159 0-.556-.291-.9-.661s-.741-.661-.926-.661H6.88v-.794H5.558v-.794H3.97v-.794H2.382v-.794H0l.529-.529c.291-.291.661-.529.794-.529h.265v-.794h.794v-.794h.794v-.794h.794v-.794h.794v-.794h.794v-.265c0-.344 1.508-1.852 1.852-1.852h.265v-.794h.794v-2.646h-.794v-.794h-.794v-.794h-.794l.529-.529c.291-.291.661-.529.794-.529h.265v-.794h.794v-.794h.794v-.794h.794v-.794h.794v-.794h.794v-.265c0-.344 1.508-1.852 1.852-1.852h.265v-.794h.794v-.794h.794v-.794h.794V1.72h.794V.926h.767l.106-.45.132-.476.026 1.27.026 1.244h.794v1.588h.794v.794h.265c.159 0 .556.291.9.661l.609.661h1.402v.794h1.322v.794h1.588V8.6h5.556v-.794h.794v-.794h.794v-.794h4.234v.794h.794v.794h.794V8.6h5.556v-.794h.794v-.794h.794v-.794h3.44v.794h.794v.794h.794V8.6h.794v.794h2.646V8.6h.794v-.794h.794l.026-3.096.026-3.122.132.476.106.45h.767v.794h.794v.794h.794v.794h.265c.159 0 .556.291.9.661s.741.661.926.661h.291v.794h.53v.794h.794V8.6h.794v.794h.794v.794h.794v3.704h.794v.794h.794v.794h.794v.74l.344.132.317.132-.317.026-.344.026v.794h-.794v.794h-.794v.794h-.794v5.556h.794v.794h.794v.794h.794v.794h2.382V24.21h-.53v-1.058h.53V21.3h-.53v-1.322h2.116v-2.064l.397-.159.397-.132v-2.408h-.794v-2.91h.794v-1.826l-.45-.106-.476-.132.476-.026.45-.026V8.601h.53v1.561l.476.106.45.132-.45.026-.476.026v1.852h.794v2.91h-.794v2.408l.397.132.397.159v2.858h1.852v-1.058h-.794v-1.8l.397-.159.397-.132.053-1.535.053-1.535.079 1.455.106 1.455.503.45.503.476h.82v-5.556h-.794V11.8l.741-.079.714-.079.079-.609.079-.582h-.82V8.599h.794V7.541h-.794v-.53h.794V5.953h-.794V4.895h.794V2.513h.53v2.382h.794v1.058h-.794v1.058h.794v.53h-.794v1.058h.794v1.852h-.82l.079.609.079.582.741.079.714.079v1.032h-.794v5.556h.82l.503-.476.503-.45.106-1.455.079-1.455.053 1.535.053 1.535.397.132.397.159v1.8h-.794v1.058h1.852v-2.858l.397-.159.397-.132v-2.408h-.794v-2.91h.794v-1.826l-.45-.106-.476-.132.476-.026.45-.026V8.6h.53v1.561l.476.106.45.132-.45.026-.476.026v1.852h.794v2.91h-.794v2.408l.397.132.397.159v2.064h2.116v1.322h-.794v1.614l.397.132.397.159v.952l-.397.159-.397.132v3.546l1.296 1.27c.741.714 1.455 1.296 1.587 1.296h.291v.794h.794v1.588h.794v1.588h.794v4.234h-.794v1.27l-.397.159-.397.132v1.349h-.794v.794h-.794v.794h-.794v.794h-.794v.794h-.794v.265c0 .344-1.508 1.852-1.852 1.852h-.265v.794h-.794v.794h-.794v.794h-.794v.794h-.794v.794h-.794v.265c0 .344-1.508 1.852-1.852 1.852h-.265v.794h-.794v.794h-.794v.794h-.794v.794h-.794v.794h-.767l-.106.476-.132.45-.026-1.64zM37.153 35.99l.132-.397h1.349v-.265c0-.132.132-.265.265-.265.159 0 .503-.238.794-.529s.529-.635.529-.794v-.265h.794v-.794h.794v-.794h.794v-.53h-2.937l-.132-.397-.159-.397h-.74v-.794h-1.322l-.026-.45-.026-.476-.265.794-.291.767.317.106.291.106v1.27h-.74l-.132.529-.132.529h-.767l-.688-.609-.714-.609v-1.138l.317-.185.317-.185-.529-.212c-.265-.106-.714-.212-.952-.212l-.476-.026v.794h-.794v.794H28.85v.53h.794v.794h.794v.794h.794v.794h.794v.794h.794v.794h1.588v.53H37l.159-.397zm-25.056-9.657-.132-1.058.291-.185c.185-.106.529-.159.794-.132l.45.079v-.556h.979l.344.661.344.661h.714v.794h9.26v-.794h.53v-.794h2.382v-.476l-1.64-.106a60 60 0 0 0-3.704.026l-2.064.079.159.238.132.238-.159.291-.185.265-.344-.45-.317-.45.132-.503.106-.476h1.006v-4.498h.794v.53h.794v1.64l.529-.132.529-.132v1.561l.423.159.423.159.265-.423.238-.45h.767v-.794h.53v-.794h.794v-.53h-2.116v-.794h-1.588v-.794h-.794v-.794h-.794v-1.058l.476-.026.45-.026-.45-.132-.476-.106v-1.032h.794v-.794h1.534l.159-.397.132-.397H25.7l.397-.37c.212-.212.37-.503.37-.661v-.291h-2.116v-.794h-.714l-.185 1.085-.159 1.058.159.291.185.265-.847-.185-.82-.185v.582h-.794v-2.91h.794v-.53h-1.429c-.794 0-1.614-.079-1.852-.159l-.423-.159v.846h.794v4.762h-1.588v-1.058h.53v-1.322h-.53v-.794h-.794v-.794h-.53v3.704l-.847.37-.873.37 1.535.026 1.508.026v.794h-.794v2.382h-.794v1.058l-.529.529c-.291.291-.661.529-.794.529h-.265l.026-2.117c.053-1.164.026-2.17-.053-2.223-.053-.053-1.032-.026-2.143.026l-2.064.159v.45h1.322v4.498h-.794v.794h-.794v.291c0 .185-.212.476-.45.661l-.476.344.397.026h.423l.45.529c.238.291.45.661.45.794v.265h.794v.794h.873l-.159-1.058zm19.844.265.159-.82 3.334.079 3.334.079.079.741.079.714h2.884v-5.292h.794v-1.322h-1.349l-.132-.397-.159-.397h-1.218l-.132.37-.159.37-1.587.106-1.561.079-.291-.476-.291-.45.291-.556.291-.556.82.159.847.159.079.265.106.265h1.27v-.794h1.588V15.22h.794v-.794h2.382v-.53h-1.058v-.503l-.37.132-.37.132-.423-.582-.397-.582-.397.317-.37.317-2.223-.079-2.196-.079-.079-.609-.106-.635.503-.344.476-.37-1.773-.026h-1.799v2.116h-3.174v-.794h-.317c-.397 0-1.535.714-2.196 1.429l-.503.476.45.265.45.238v1.826h.265c.159 0 .265-.106.265-.265v-.265h1.588v3.704h2.858l.159-.397.132-.397h.82v2.646h-1.614l-.132-.397-.159-.397h-2.064v-.794h-1.322v7.408h2.672l.159-.794zm28.919.397v-.397h.794v-5.292h-.53v1.826l-.212.106c-.106.079-.503.079-.926 0l-.714-.132v-1.561l.397-.132.397-.159V19.72h.794v-1.322h.74l.106-.661.132-.661h-1.534l-.132-.397-.159-.397h-.74v-1.058h-.53v-.794h2.91v-.53h-.476c-.265 0-.556-.079-.661-.159l-.159-.159.159-.37.132-.37h.74v-.344c0-.185-.159-.661-.317-1.058l-.344-.714-.344.132c-.212.079-.794.132-1.323.159l-.979.026.661.185.661.185.079 1.032.079 1.058.423.317.45.344h-.423c-.238 0-.609-.079-.847-.159l-.423-.159v-.74h-.794l-.159-.661-.159-.661h-.767l-.132-.397-.159-.397h-.688l-.185 1.27-.185 1.244-.291.185-.317.212h-3.836v-.794h-.794v.45c0 .238-.159.847-.317 1.349l-.344.926.344.106.317.132v4.446h-1.588v-4.762l.344-.026.317-.026-.317-.132-.344-.132v-.503c0-.265-.185-.979-.45-1.587l-.423-1.111.317-.503c.397-.635.344-.688-.688-.9l-.82-.159-.106 2.328-.079 2.355.159.265.185.265-.132 2.858-.159 2.858-.741.159-.767.159v2.566h.74l.159.344.159.317.159-.317.159-.344h.74v-.794h.794V22.9h.794v-.794h1.588v1.588h-.794v2.116h.794v-.291c0-.185.291-.582.661-.926l.661-.609v-1.878h.794v-3.704h1.058v3.704h-.794v.265c0 .397.873 1.323 1.217 1.323.185 0 .397.159.476.344l.159.317.159-.317.159-.344h.74v-4.498h.794v4.498h-.794v.794h-.794v.794h-.794v.794h-.82l.159.265.159.265h1.244l.159-.397.132-.397h1.349v-.794h.794v-.794h.794v.265c0 .159.476.714 1.058 1.296.582.556 1.058 1.164 1.058 1.323v.291h.794v-.397zm10.054-1.852v-.926h-1.058v1.852h1.058zm15.346 0v-.926h-1.058v1.852h1.058zm-15.346-2.91v-.926h-1.058v1.852h1.058zm15.293-.079.079-.847h-1.085v1.878l.476-.079.45-.079.079-.873zM25.67 15.857v-.397l-.37-.397c-.212-.212-.503-.37-.635-.37-.291 0-.582.635-.582 1.217v.37h1.588zm-11.906-1.032v-.397h.53v-2.064l-.45-.185c-.265-.106-1.032-.238-1.72-.317l-1.27-.106v.556h.53v2.116h.794v.794h1.588v-.397z"/><path d="M34.137 34.667v-.397h-.53v-.794h-.794v-1.322h.265c.159 0 .265.132.265.265v.265h.794v.794h3.174v-.794h.53v-.794h1.058v1.588h-.794v.794h-.794v.794h-3.174v-.397zm-2.381-10.981v-1.587H38.9v3.174h-7.144Zm.899-8.599-.159-.397h-2.064v-1.058h9.79v.794h-2.116v1.058h-5.318zm19.738.926v-1.587h3.174v.794h-.582l.159.397.132.397-.291.661-.291.661-.291.026c-.159 0-.688.053-1.138.132l-.873.106zm-7.329 38.444a12.4 12.4 0 0 1 1.984 0l.979.106h-3.968z"/></g><g fill="#6e0252"><path d="m74.115 56.31-.026-1.667h-.794v-1.138l-.926-.873c-.476-.503-1.032-.9-1.191-.9h-.265v-.794h-.794v-.794h-1.322v-.794h-5.82v.794h-1.588v.794h-1.322v.794h-5.028v-.794h-1.588v-.794h-2.646v.794h-1.588v.794h-7.144v-.794h-1.588v-.794h-3.44v.794h-1.349l-.132.397-.159.397h-4.18v-.794h-.53v-.794h-.794v-.794h-.794v-.794h-.794v-.794h-1.588v-.794h-2.064l-.159-.397-.132-.397h-3.758l-.132.397-.159.397h-1.296l-.132.397-.159.397h-.74v.794H17.2v.74l-.423.159-.397.159.159.265.159.265h-1.614v.794h-1.588v.794h-3.44v-.794H8.468v-.794H6.88v-.794h-.794v-.291c0-.159-.476-.767-1.058-1.323L3.97 46.704h2.91v-.794h1.588v-.794h1.588v-.794h.794v-.794h.794v-.794h.53v-1.322h.794v-6.614h-.794v-1.322h-.53v-1.588h-.794V30.3h-.794v-.794h-.794v-.794h-.265c-.159 0-.556-.291-.9-.661s-.741-.661-.926-.661H6.88v-.794H5.558v-.794H3.97v-.794H2.382v-.794H0l.529-.529c.291-.291.661-.529.794-.529h.265v-.794h.794v-.794h.794v-.794h.794v-.794h.794v-.794h.794v-.265c0-.344 1.508-1.852 1.852-1.852h.265v-.794h.794v-2.646h-.794v-.794h-.794v-.794h-.794l.529-.529c.291-.291.661-.529.794-.529h.265v-.794h.794v-.794h.794v-.794h.794v-.794h.794v-.794h.794v-.265c0-.344 1.508-1.852 1.852-1.852h.265v-.794h.794v-.794h.794v-.794h.794V1.72h.794V.926h.767l.106-.45.132-.476.026 1.27.026 1.244h.794v1.588h.794v.794h.265c.159 0 .556.291.9.661l.609.661h1.402v.794h1.322v.794h1.588V8.6h5.556v-.794h.794v-.794h.794v-.794h4.234v.794h.794v.794h.794V8.6h5.556v-.794h.794v-.794h.794v-.794h3.44v.794h.794v.794h.794V8.6h.794v.794h2.646V8.6h.794v-.794h.794l.026-3.096.026-3.122.132.476.106.45h.767v.794h.794v.794h.794v.794h.265c.159 0 .556.291.9.661s.741.661.926.661h.291v.794h.53v.794h.794V8.6h.794v.794h.794v.794h.794v3.704h.794v.794h.794v.794h.794v.74l.344.132.317.132-.317.026-.344.026v.794h-.794v.794h-.794v.794h-.794v5.556h.794v.794h.794v.794h.794v.794h2.382V24.21h-.53v-1.058h.53V21.3h-.53v-1.322h2.116v-2.064l.397-.159.397-.132v-2.408h-.794v-2.91h.794v-1.826l-.45-.106-.476-.132.476-.026.45-.026V8.601h.53v1.561l.476.106.45.132-.45.026-.476.026v1.852h.794v2.91h-.794v2.408l.397.132.397.159v2.858h1.852v-1.058h-.794v-1.8l.397-.159.397-.132.053-1.535.053-1.535.079 1.455.106 1.455.503.45.503.476h.82v-5.556h-.794V11.8l.741-.079.714-.079.079-.609.079-.582h-.82V8.599h.794V7.541h-.794v-.53h.794V5.953h-.794V4.895h.794V2.513h.53v2.382h.794v1.058h-.794v1.058h.794v.53h-.794v1.058h.794v1.852h-.82l.079.609.079.582.741.079.714.079v1.032h-.794v5.556h.82l.503-.476.503-.45.106-1.455.079-1.455.053 1.535.053 1.535.397.132.397.159v1.8h-.794v1.058h1.852v-2.858l.397-.159.397-.132v-2.408h-.794v-2.91h.794v-1.826l-.45-.106-.476-.132.476-.026.45-.026V8.6h.53v1.561l.476.106.45.132-.45.026-.476.026v1.852h.794v2.91h-.794v2.408l.397.132.397.159v2.064h2.116v1.322h-.794v1.614l.397.132.397.159v.952l-.397.159-.397.132v3.546l1.296 1.27c.741.714 1.455 1.296 1.587 1.296h.291v.794h.794v1.588h.794v1.588h.794v4.234h-.794v1.27l-.397.159-.397.132v1.349h-.794v.794h-.794v.794h-.794v.794h-.794v.794h-.794v.265c0 .344-1.508 1.852-1.852 1.852h-.265v.794h-.794v.794h-.794v.794h-.794v.794h-.794v.794h-.794v.265c0 .344-1.508 1.852-1.852 1.852h-.265v.794h-.794v.794h-.794v.794h-.794v.794h-.794v.794h-.767l-.106.476-.132.45-.026-1.64zM37.047 36.122v-.265h1.852v-.291c0-.185.291-.582.661-.926s.661-.741.661-.9v-.265h.794v-.794h.794v-.794h.794v-.53h-2.937l-.132-.397-.159-.397h-.74v-.794h-1.322v-.794h-2.937l-.132.397-.159.397h-1.27v.794h-.794v.794h-3.174v.53h.794v.794h.794v.794h.794v.794h.794v.794h.794v.794h1.588v.53h2.646v-.265Zm-24.871-9.525v-.794h.291c.37 0 1.032-.661 1.032-1.032v-.291h.979l.344.661.344.661h.714v.794h9.26v-.794h.53v-.794h2.382v-.53h-2.91v-2.382h.794v-.794h.53v-.794h.794v-.53h-2.116v-.794h-1.588v-.794h-.794v-.794h-.794v-.794h4.762v-.159c0-.291-1.799-1.958-2.117-1.958h-.265v.53h-.794v.794h-1.588v-.794h.794v-.794h1.534l.159-.397.132-.397h1.112l.397-.37c.212-.212.37-.503.37-.661v-.291h-2.116v-.794h-.794v1.138l-.952.873c-.503.503-1.058.9-1.191.9h-.238v-2.91h.794v-.794h-3.704v.794h.794v4.498h-1.588v-.794h.794v-1.322h-.794V13.1h-.794v-.794h-.794v-.794h-.794v.794h.794v3.704h-1.322v.794h2.91v.794h-.794v2.382h-.794v1.058l-.529.529c-.291.291-.635.529-.794.529h-.265v-2.91h.794v-.265c0-.132-.238-.503-.529-.794l-.529-.529H9.743l.106.344.132.317.688.079.714.079v4.472h-.794v.794h-.794v.291c0 .185-.212.476-.45.661l-.476.344.397.026h.423l.45.529c.238.291.45.661.45.794v.265h.794v.794h.794v-.794zm19.764 0 .159-.82 3.334.079 3.334.079.079.741.079.714h2.884v-5.292h.794v-1.322h-1.349l-.132-.397-.159-.397h-1.27v.53h-3.174V19.19h1.588v.53h1.322v-.794h1.588v-3.704h.794v-.794h2.382v-.53h-.794v-.794h-.794v-.794h-.794v-.794h-.794v1.588h-4.498v-1.588h.794v-.794h-3.704v2.382h-3.174v-.794h-.794v-.794h-.794v1.322l-.529.529c-.291.291-.635.529-.794.529h-.265v2.116h.794v.794h.794v-.794h1.588v3.704h2.858l.159-.397.132-.397h.82v2.382h-1.852v-.53h-2.116v-.794h-1.588v7.408h2.937l.159-.794zm16.695.476a.83.83 0 0 0-.423-.423l-.317-.106v.846h.846zm12.224-.079v-.397h.794v-5.292h-.794v1.588h-1.588v-1.349l.397-.132.397-.159v-1.534h.794v-1.322h.794v-.794h.794v-.794h-2.382v-.794h-.794v-.794h-.53v-.794h2.91v-.238c0-.132-.185-.291-.397-.397-.212-.079-.397-.265-.397-.423v-.265h.794v-1.588h-.794v-.794h-5.292v2.858l-.423.159c-.238.079-1.244.159-2.249.159h-1.826v-.794h-.794v1.322h-.794v.794h-.794v-3.704h.794v-.794h-2.884l-.079 2.196-.079 2.17-.714.079-.741.079v.767h1.588v5.292h-1.588v3.174h.74l.159.344.159.317.159-.317.159-.344h.74v-.794h.794v-.794h.794v-.794h1.588v1.588h-.794v2.116h.794v-.291c0-.185.291-.582.661-.926l.661-.609v-1.878h.794v-3.704h1.058v3.704h-.794v.265c0 .397.873 1.323 1.217 1.323.185 0 .397.159.476.344l.159.317.159-.317.159-.344h.74v-4.498h.794v4.498h-.794v.794h-.794v.794h-.794v.794h-.82l.159.265.159.265h1.244l.159-.397.132-.397h1.349v-.794h.794v-.53h.291c.37 0 2.619 2.249 2.619 2.619v.291h.794v-.397zm10.054-1.852v-.926h-1.058v1.852h1.058zm15.346 0v-.926h-1.058v1.852h1.058zm-15.346-2.91v-.926h-1.058v1.852h1.058zm15.293-.079.079-.847H85.2v1.878l.476-.079.45-.079.079-.873zm-72.443-7.329v-.397h.53v-1.852l-.529-.529-.529-.529h-2.646v.794h.794v2.116h.794v.794h1.588v-.397z"/><path d="M34.137 34.667v-.397h-.53v-.794h-.794v-1.322h.265c.159 0 .265.132.265.265v.265h.794v.794h3.174v-.53h.794v-.794h.794v1.322h-.794v.794h-.794v.794h-3.174zm-2.911-2.249v-.529h.794v1.058h-.794z"/><path d="m34.851 32.338-.714-.609v-1.164h.794v-.794h1.588v.794h.794v1.322h-.74l-.132.529-.132.529h-.767l-.688-.609zm4.577-.053v-.423l.476.079.45.079-.053.265c-.026.159-.238.291-.45.344l-.423.079zM32.761 52.87c.476-.053 1.191-.053 1.587 0l.714.106h-3.174Zm12.038 0a20 20 0 0 1 2.514 0l1.244.079h-5.028zm12.304 0c.476-.053 1.191-.053 1.587 0l.714.106H56.23z"/></g><g fill="#7c0f54"><path d="M56.362 50.436c0-.159.132-.344.265-.423l.265-.159v-1.032h-.265a.266.266 0 0 1-.265-.265c0-.132-.238-.503-.529-.794s-.635-.529-.794-.529h-.265v-.794h-1.588v-.794h.794v-.53h.794v-6.8l-.026-6.826-.767-.661-.794-.635v-.688h.794v-.53h3.174v.53h.794v1.058h.74l.132.344.106.317.556-.503.556-.503.741.476.714.476.106-.291.106-.317h.74v.53h.794v.794h.53v-2.91h.74l.132-.397.159-.37.794.106c.45.053.926.159 1.085.265l.265.159v1.006l.397.397.397.397v.397c0 .556.106.529 1.191-.159l.926-.609v-1.191h1.058v.767l1.217.185 1.244.185.106.476.132.503h4.974V30.3h1.322v-.53h1.588v-.794h.794v.794h-.794v.794h-.794v.794h-.291c-.159 0-.82.529-1.482 1.191l-1.191 1.191h-.74v.53h-1.588v.794h-3.174v-.794h-1.588v-.291c0-.159-.159-.45-.37-.635l-.344-.37-1.111.026h-1.085v.74h-2.116v.714l-.661.714-.635.688h-1.878v-.794h-.794v-.794h-.794v-2.116h-.794v.794h-.53v2.725l.847.767c.45.397.926.741 1.058.741h.212v.794h1.058v.794h1.322v.794h1.322v.794h2.646v.503l.979.079 1.005.079.079.476.079.45h-.82v1.218l-.714.635-.741.635-.714-.079-.741-.079v.846h-2.646v-.794h-1.322v-.794h-.794v-.82l-.37-.397-.397-.37h-.82v-1.588h-.53v8.466h-.265c-.132 0-.503.238-.794.529l-.529.529v.794h-1.588v-.238zm-11.51-.82-.185-.794h-.476v-.794h-.794v-.794h-.794v-.794h-1.588v-.794h.979l.185-1.032a10 10 0 0 1 .317-1.455l.159-.423h-2.964v-.794l-1.376-.053a89 89 0 0 0-2.143-.053l-.767-.026-.37-.503-.37-.529.132-.45.159-.45-.423-.159-.397-.132v-.82h.794v.794h2.937l.397-.397.397-.397h1.826v-.53l.661-.159.661-.159v-.424l.794-.185.794-.185v-.265c0-.132.159-.423.37-.635l.397-.37h.82v-.794h.53v-.794h.265c.159 0 .503-.238.794-.529l.529-.529v-1.032l.37-.212.397-.212.106-.926c.053-.503.238-1.191.423-1.508l.317-.609h1.006l.317.926.344.926h.688v.794h.794v1.27l.397.159.397.132v2.698l-.37.132-.397.159-.159.767-.185.767h-.476v.794h-.794l-.053.344c0 .159-.053.45-.079.582-.053.159-.079.397-.106.582l-.026.291-.529-.132-.503-.132-.423.423c-.238.238-.609.423-.82.423h-.37v8.202h-.794v.794h-.794v.794h-.74l-.185-.794Z"/><path d="M70.914 49.086v-.529h1.322v-.53h1.588v-.661l1.191-.529 1.191-.503v-.688H77v-.794h.53v-.794h.794v-.53h.794v-.794h.74l.159-1.402.185-1.402-.185-.45-.159-.45h-1.534v.503l-.503.159-.529.159-.079.45-.079.45-1.191-.079c-.661-.053-1.402-.132-1.64-.212l-.476-.132v-.767h-1.588v-.53h-.794v-.794h-1.322v-1.058h4.498v-.794h2.09l.159-.265.159-.265h1.322l.132-.397.159-.397h.979l.952-.926c.503-.529.926-1.058.926-1.191v-.265h.794v-.794h.476l.159-.661.159-.661h.794v.794h.291c.37 0 1.032.661 1.032 1.032v.291h.794v.794h.794v1.588h.794l.159.688.185.661-.185 1.191-.159 1.191-.397.397c-.212.238-.397.556-.397.767v.344l-.397.159-.397.132v1.349h-.794v.291c0 .37-2.249 2.619-2.619 2.619h-.291v.794H81.5v.794h-1.296l-.291.529-.291.529H78.59v.53h-1.534l-.159.397-.132.397h-2.143v.794h-3.704v-.529zm12.091-.899-.159-.397.397-.317.397-.317.291.291.317.317h-.634v.794h-.238c-.132 0-.291-.159-.37-.37zm-71.622-1.35v-.397H9.928l-.317-.661-.291-.661h.74v-.846l.397.317.423.344-.132.37-.132.344h1.561v-.794h1.112l1.402-1.455 1.376-1.455h.608v-1.588h.794v-2.09l.265-.159.265-.159v-5.82l.291-.529.265-.529 1.296 1.27c1.376 1.376 2.593 2.434 2.778 2.461h1.19v.794h2.116v.82l-.397.132-.397.159v1.218l-.397.159-.397.132v1.349h-.794v.74l-.661.159-.661.159-.159.661-.159.661h-.476v.794h-.265c-.132 0-.9.635-1.667 1.429l-1.429 1.455-.688.159-.714.185v.476h-2.143l-.132.397-.159.397h-2.858zm17.462 0v-.397h-.291c-.37 0-2.619-2.249-2.619-2.619v-.291h-.794v-.74l.661-.159.661-.159v-.265c0-.159.132-.265.265-.265.159 0 .503-.238.794-.529l.529-.529v-5.028h1.058v.582l.741-.185.767-.159.317.397.344.397-.159.503-.159.503.159.45.159.423h.74v.794h.794v.74l.397.159.397.132v1.349h.53v2.382h-.53v1.322h-.794v.794h-.794v.794h-3.174v-.397zm5.345-9.789-.212-.423-.582-.053-.582-.026v-.688h-.423c-.476 0-.979-.45-1.244-1.111l-.159-.476h-.556v-.794h-.794v-.53h-.794v.794h-.794v-.265c0-.132-.238-.503-.529-.794s-.635-.529-.794-.529h-.265v-1.058h.794v-.53h.794v-.794h.37c.212 0 .476.132.556.265l.159.265h2.619v-.53h.74l.159-.397.132-.397h1.349v-.794h3.174v.794h2.064l.291.794.265.794H42.6v-.794h.794v.794h.794v.53h.794v1.058h-.794v.53h-.794v.794H42.6v-.53h-.714l-.344.661-.344.661h-.714v.794h-.265c-.132 0-.503.238-.794.529s-.529.661-.529.794v.265h-1.588v.794h-2.884l-.238-.397zm2.858-.926v-.265H38.9v-.291c0-.185.291-.582.661-.926s.661-.741.661-.9v-.265h.794v-.794h.794v-.794h.794v-.53h-2.937l-.132-.397-.159-.397h-.74v-.794h-1.322v-.794h-2.937l-.132.397-.159.397h-1.27v.794h-.794v.794h-3.174v.53h.794v.794h.794v.794h.794v.794h.794v.794h.794v.794h1.588v.53h2.646v-.265z"/><path d="M35.116 31.994c-.106-.106-.185-.529-.185-.952v-.741h1.614l-.079.873-.079.847-.529.079-.556.079zm10.398-.37v-.529h1.058v1.058h-1.058zM38.74 28.29c-.106-.291-.397-.714-.661-.952l-.476-.476h-4.55l-.609.661-.609.661h-2.99v-.794h-.794v-1.322h-1.852l-.529.529-.529.529v.767l-2.037-.106c-1.138-.053-3.069-.185-4.313-.265l-2.249-.185-.714-.291-.741-.317v-.661h-.794v-.794h-.53v.794h-.794v1.322h-.794v.794h-.794v-.794h-.794v-.53h-.794v-.794h-.794v-.291c0-.185-.212-.476-.476-.661l-.45-.344.582-.529c.317-.317.714-.556.873-.556h.265v-.794h.794v-3.704h-.794v-.794h-.794v-1.058h.794v-.53h.767c.423 0 .952-.053 1.164-.159l.37-.132-.132-.661-.106-.635h-.476v-.794h-.794v-2.116h-.794v-.794h.794v-.794h3.174v.53h1.058v-.794h1.322v.794h.238c.132 0 .37-.185.556-.397.185-.212.503-.397.688-.397h.37V9.9l2.514.053 2.54.079.132.212c.079.106.37.212.661.212h.503v.794h2.17l.132.529.132.529h.74v.265c0 .159.132.265.265.265h.265v-1.322h.794v-.794h.82l.397.37c.212.212.37.503.37.661v.291h2.116v-1.322h.794v-.794h3.968v.794h.794v.794h-.794v-.794h-3.704v2.382h-3.174v-.794h-.794v-.794h-.794v1.322l-.529.529c-.291.291-.661.529-.794.529h-.265v2.116h.794v.794h.794v-.794h1.588v3.704h2.858l.159-.397.132-.397h.82v2.382h-1.852v-.53h-2.116v-.794H28.84v7.408h2.937l.159-.794.159-.82 3.334.079 3.334.079.079.741.079.714h2.884v-5.292h.794v-1.322h.74l.106.82.132.82-.344.132-.344.132-.185 2.328-.159 2.355-.37.132-.37.132v.82h-.847c-.476 0-1.138.079-1.455.159l-.609.159-.159-.476zm-26.564-1.693v-.794h.291c.37 0 1.032-.661 1.032-1.032v-.291h.979l.344.661.344.661h.714v.794h9.26v-.794h.53v-.794h2.382v-.53h-2.91v-2.382h.794v-.794h.53v-.794h.794v-.53h-2.116v-.794h-1.588v-.794h-.794v-.794h-.794v-.794h4.762v-.159c0-.291-1.799-1.958-2.117-1.958h-.265v.53h-.794v.794h-1.588v-.794h.794v-.794h1.534l.159-.397.132-.397h1.112l.397-.37c.212-.212.37-.503.37-.661v-.291h-2.116v-.794h-.794v1.138l-.952.873c-.503.503-1.058.9-1.191.9h-.238v-2.91h.794v-.794h-3.704v.794h.794v4.498h-1.588v-.794h.794v-1.322h-.794V13.1h-.794v-.794h-.794v-.794h-.794v.794h.794v3.704h-1.322v.794h2.91v.794h-.794v2.382h-.794v1.058l-.529.529c-.291.291-.635.529-.794.529h-.265v-2.91h.794v-.265c0-.132-.238-.503-.529-.794l-.529-.529H9.743l.106.344.132.317.688.079.714.079v4.472h-.794v.794h-.794v.291c0 .185-.212.476-.45.661l-.476.344.397.026h.423l.45.529c.238.291.45.661.45.794v.265h.794v.794h.794v-.794zm1.587-11.774v-.397h.53v-1.852l-.529-.529-.529-.529h-2.646v.794h.794v2.116h.794v.794h1.588v-.397zM47.895 27.92v-.529h.794v1.058h-.794zm4.498-.133v-.397h-.794v-.794h.794v-.794h.794v-.53h.794v-.794h-2.116v.794h-.794v.794h-.794v.794h-.794v.265c0 .159-.106.265-.265.265-.344 0-1.323-.979-1.323-1.323v-.265h.794v-2.116h-.794v.794h-.794v-.794h.794v-.794h.794v-.794h1.588v1.588h-.794v2.116h.794v-.291c0-.185.291-.582.661-.926l.661-.609v-1.878h.794v-3.704h1.058v3.704h-.794v.291c0 .185.291.582.661.926s.661.741.661.9v.265h.794v-.794h.794v-4.498h.794v4.498h-.794v.794h-.794v.794h-.794v.794h-.82l.159.265.159.265h1.244l.159-.397.132-.397h1.349v-.794h.794v-.53h.291c.37 0 2.619 2.249 2.619 2.619v.291h.794v-.794h.794v-5.292h-.794v1.588h-1.588v-1.349l.397-.132.397-.159v-1.534h.794v-1.322h.794v-.794h.794v-.794h-2.382v-.82l1.005.079.979.079.291-.37.291-.37.582.582.556.556-.317.529-.344.529h-.661v.794h-.794v1.402l-.45.344-.476.344.476.026h.45v.794h.794v5.001l-.926.952c-.952.926-1.455 1.164-1.455.661v-.265h-.794v-.794h-.794v-.794h-.794v-.794h-.53v.794h-.74l-.159.397-.132.397h-.767l-.106.291-.106.291-1.032.37c-.582.185-1.217.37-1.376.37h-.344zm-5.133-.317c-.079-.079-.159-.317-.159-.529v-.344h.794v.37c0 .212-.106.45-.238.529l-.212.132z"/><path d="M45.514 25.777c0-.185-.291-.582-.661-.926l-.661-.609v-2.937h.794v-.794h.53v-3.704h-.53v-.794h-.74l-.159-.397-.132-.397h-.661c-.344 0-.82.079-1.058.159l-.423.159v3.652h-.265a.285.285 0 0 0-.265.265v.265h1.322v.794h-1.588v-.53h-1.322v.53h-3.174v-1.322h1.588v.53h1.322v-.794h1.588v-3.704h.794v-.794h2.382v-.53h-.794v-.794h-.794v-.794h-.794v-.794h-.794v1.588h-4.498v-1.588h.794v.53h2.91v-.794h.794v-.53h.82l.397.37.37.397v.82h.794v.794h.794v.53h.794v.794h.53v-3.704h.794V9.93h3.174v.794h.794v1.058l.503.503.503.503 1.746.106 1.746.106v-2.408l.212-.317.185-.317 2.99-.079 2.963-.079v.661h.53v1.058h.794v1.588h-.794v-1.588h-.794v-.794h-5.292v2.858l-.423.159c-.238.079-1.244.159-2.249.159h-1.826v-.794h-.794v1.322h-.794v.794h-.794v-3.704h.794v-.794h-2.884l-.079 2.196-.079 2.17-.714.079-.741.079v.767h1.588v5.292h-1.588v3.174h.74l.132.344.132.317.265-.37.265-.37.45.185.45.159-.635.661c-.317.37-.767.661-.926.661h-.344v-.291zm23.839-.821-.026-1.005h.846l-.265.344c-.132.159-.317.609-.397.979l-.106.661zm2.566.397-.476-.106v-1.032h1.058v.661c0 .37-.026.635-.053.635-.053-.026-.291-.079-.529-.159zm-.476-3.651v-.397h1.058v.794h-1.058zm5.292-.661v-.529h2.382v1.058h-2.382zm6.879-1.588v-.529h1.058v1.058h-1.058zm-11.906-2.117v-.794h.53v1.588h-.53Z"/><path d="M52.393 16.013v-1.587h3.174v.794h-.794v.794h-.794v.794h-.794v.794h-.794v-1.587zm24.606-1.19v-1.984h-.794v-.979l.926-.159.926-.159.926.159.926.159v.979h-.794v3.968h-2.116zm-44.45.132v-.265h-2.116v-1.058h9.79v.794h-2.116v.794h-5.556v-.265zm26.194-1.587v-.265h-.794v-1.588h1.588v2.116h-.794v-.265zm18.733-5.742L77 7.52v-.503h.794V5.959H77V4.901h.794V2.519h.53v2.382h.794v1.058h-.794v1.058h.794v.265c0 .159-.106.265-.238.265s-.397.053-.609.106a1.64 1.64 0 0 1-.794-.026z"/></g><g fill="#941d5e"><path d="m44.852 49.616-.185-.794h-.476v-.794h-.794v-.794h-.794v-.794h-1.588v-.794h.82l.397-.37.37-.397v-2.143h-2.91v-.794H37.31v-.714l-.952-.291-.952-.291-.397.159-.397.159.159-.529.185-.556-.423-.159-.397-.132v-.82h.794v.794h2.937l.397-.397.397-.397h1.826v-.53l.661-.159.661-.159v-.424l.794-.185.794-.185v-.265c0-.132.159-.423.37-.635l.397-.37h.82v-.794h.53v-.794h.265c.159 0 .503-.238.794-.529l.529-.529v-1.085l.397-.132.397-.159v-1.27h.794v-1.588h.794v.794h.794v.794h.794v.794h.794v1.27l.397.159.397.132v2.698l-.37.132-.397.159-.159.767-.185.767h-.476v.794h-.794v.53h-.794v.794h-.794v.767l-.582.185c-.344.106-.688.317-.794.476l-.212.291v7.541h-.53v.794h-.794v.794h-.74l-.185-.794zm12.303-.133v-.661h-.794v-.265c0-.132-.238-.503-.529-.794s-.635-.529-.794-.529h-.265v-.794h-1.588v-.794h.794v-.53h.794v-6.8l-.026-6.826-.767-.661-.794-.635v-.688h.794v-.53h3.174v.794h.794v.794h.794v.661l.661.503.661.503v.714h-.53v2.725l.847.767c.45.397.926.741 1.058.741.106 0 .212.132.212.265 0 .159.238.503.529.794l.529.529h1.322v.794h1.322v.794h2.382v.794h2.382v.794h-.952l-.317.317-.317.317v.952h-.291c-.159 0-.45.185-.661.397l-.397.397H66.15v.53h-2.116v-.53h-1.588v-.794h-.794v-.82l-.37-.397-.397-.37h-.82v-1.588h-.503l-.079 4.048-.079 4.075-.847.82c-.45.476-.952.847-1.111.847h-.291zm13.759-.264v-.397h1.322v-.794h1.588v-.794h1.588v-.794h.794v-.794H77v-.794h.53v-.794h.794v-.53h.794v-.794h.794v-1.588h.794v-1.588h-.794v-.53h-1.588v.503l-.503.159-.503.159-.132.529-.159.529-.529-.265-.529-.291h-2.143v-.794h-1.588v-.53h-.794v-.794h-1.322v-1.058h4.498v-.794h2.09l.159-.265.159-.265h1.322l.132-.397.159-.397h.979l.952-.926c.503-.529.926-1.058.926-1.191v-.265h.794v-.794h.476l.159-.661.159-.661h.794v.794h.291c.37 0 1.032.661 1.032 1.032v.291h.794v.794h.794v1.588h.794v3.968h-.53l-.159.635-.159.661-.37.132-.37.132v1.349h-.794v.291c0 .37-2.249 2.619-2.619 2.619h-.291v.794h-.794v.794H80.15l-.132.397-.159.397h-1.534v.794h-1.27l-.159.397-.132.397h-2.143v.794h-3.704v-.397zm-59.531-2.382v-.397H9.928l-.317-.661-.291-.661h.74v-.846l.397.317.423.344-.132.37-.132.344h1.561v-.794h1.112l1.402-1.455 1.376-1.455h.608v-1.588h.794v-2.09l.265-.159.265-.159v-5.82l.291-.556.291-.529 1.138 1.191c.635.661 1.455 1.402 1.826 1.64l.688.45v.74h.291c.159 0 .45.185.661.397l.397.397h2.355v.265c0 .159-.185.344-.397.423l-.397.159v1.218l-.397.159-.397.132v1.349h-.794v.74l-.661.159-.661.159-.159.661-.159.661h-.476v.794h-.265c-.132 0-.9.635-1.667 1.429l-1.429 1.455-.688.159-.714.185v.476h-2.143l-.132.397-.159.397h-2.858z"/><path d="m34.19 37.048-.212-.423-.582-.053-.582-.026v-.688h-.794v-.794h-.265c-.344 0-1.323-.979-1.323-1.323v-.265h-.794v-.53h-.794v.53h-.291c-.37 0-1.826-1.455-1.826-1.826v-.291h.265c.159 0 .265.132.265.265v.265h.794v-.265a.266.266 0 0 0-.265-.265h-.265v-.794h.53v-.794h.794v.794h2.91v.238c0 .344-.714.556-1.879.556h-1.032v.53h.794v.794h.794v.794h.794v.794h.794v.794h.794v.794h1.588v.53h2.646v-.53H38.9v-.291c0-.185.291-.582.661-.926s.661-.741.661-.9v-.265h.794v-.794h.794v-.794h.794v-.53H39.8l-.45-.529c-.238-.291-.45-.661-.45-.794v-.265h.74l.159.397.132.397h2.672v-.794h.794v.794h.794v.53h.794v1.058h-.794v.53h-.794v.794h-.794v-.53h-.714l-.344.661-.344.661h-.714v.794h-.265c-.132 0-.503.238-.794.529s-.529.661-.529.794v.265h-1.588v.794h-2.884zm28.257-1.588v-.397h-.794v-.794h-.794v-3.174h.794v-.53h.794v.53h.794v.794h.53v-2.91h.291c.185 0 .45-.185.635-.45l.317-.423.556.556c.317.317.582.714.582.847v.265h.82l.397.37.37.397v.82h.794v1.058l-.529.529-.529.529h-1.852v.979l-.661.714-.635.688h-1.878v-.397Zm9.79-.793v-.397h-1.588v-.291c0-.185-.291-.582-.661-.926l-.661-.609v-2.143h.53v-1.322h1.058v.265c0 .132.212.503.45.794l.45.529h1.218v.53h5.556v-.794h1.322v-.53h1.588v-.794h.794v.794h-.794v.794h-.794v.794h-.291c-.159 0-.82.529-1.482 1.191l-1.191 1.191h-.74v.53h-1.588v.794h-3.174v-.397zm-47.096-3.043v-.529h.794v1.058h-.794Zm-13.758-3.837v-.397h-.794v-.53h-.794v-.794h.794v.53h.794v.794h.794v-1.588h.291c.37 0 1.032-.661 1.032-1.032v-.291h.979l.344.661.344.661h.714v.794h9.26v-.794h.794v-.53h2.116v-.794h-2.91v-2.382h.794v-.794h.794v-.53h.794v-1.058h-2.382v-.53h-1.588v-.794h-.794v-.794h-.794v-.794h4.762v-.212c0-.106-.344-.503-.794-.847l-.767-.661-.026-.317v-.344h-.846l.106-.317.132-.344.609-.079c.661-.106 1.323-.635 1.323-1.085v-.291h-2.116v-.794h-.794v1.138l-.952.873c-.503.503-1.058.9-1.191.9h-.238v-2.91h.794v-.794h-3.704v.794h.794v4.498h-1.588v-.794h.794v-1.322h-.794v-.794h-.794v-.794h-.794v-.794h-.794v.794h.794v3.704h-1.588v.794h3.174v.794h-.794v2.382h-.794v1.058l-.529.529c-.291.291-.582.529-.661.529s-.132-.661-.132-1.455v-1.455h.265c.423 0 .317-.476-.265-1.058l-.529-.529H9.794v-.794h3.968v-.794h-1.588v-.794h-.794v-.794h-.794v-2.116h-.794v-.794h.794v-.794h3.174v.794h1.322v-.794h.794v.794h.794v.794h.794v.265c0 .159.132.265.265.265h.265v-1.322h-.53v-.794h.794v-.794h3.704v.794h.794v.794h.794v-.794h.794v.794h2.382v.794h.794v.265c0 .159.132.265.265.265h.265v-1.322h.794v-.794h.794v.794h.794v.53h2.116v-1.322h.794V9.93h3.968v.794h.794v.794h-.794v-.794h-3.704v2.382h-3.174v-.794h-.794v-.794h-.794v1.322l-.529.529c-.291.291-.635.529-.794.529h-.265v2.116h.794v.794h.794v-.794h1.588v3.704h-1.588v7.672h2.91l.159-.661.159-.661h6.826v1.322h2.91v-5.292h.794v-1.322h.74l.106.82.132.82-.344.132-.317.106-.185 2.275-.212 2.275-.476.476-.503.503h-2.566l-.423-.476c-.265-.265-.45-.609-.45-.767v-.238h-2.646l-2.646.026v.265c0 .159-.238.476-.529.741l-.529.45h-2.91v-.794h-.794v-1.322h-1.878l-.609.661-.609.661h-8.44l-.714-.317-.714-.344v-.661h-.794v-.794h-.53v.794h-.794v1.322h-.794v.794h-.794v-.397zm2.381-12.965v-.397h.794v-2.116h-.82l-.132-.397-.159-.397h-2.858v.794h.794v2.116h.794v.794h1.588v-.397zm38.629 12.965v-.397h-.794v-.794h.794v-.794h.794v-.53h.794v-.794h-.794v-.794h-.794v.794h-.53v.794h-.794v.846l-.317-.106a.83.83 0 0 1-.423-.423l-.106-.317h.846v-1.058h.53v-2.116h.794v.794h.265c.344 0 1.323.979 1.323 1.323v.265h.794v-.794h.794v-4.498h.794v4.498h-.794v.794h-.794v.794h-.794v.794h-.82l.159.265.159.265h1.244l.159-.397.132-.397h1.349v-.794h.794v-.53h.291c.37 0 2.619 2.249 2.619 2.619v.291h.794v-.794h.794v-5.292h-.794v1.588h-1.588v-1.349l.397-.132.397-.159v-1.534h.794v-1.322h.794v-.794h.794v-.794h.794v.794h-.794v.794h-.794v1.402l-.45.344-.476.344.476.026h.45v.794h.794v5.001l-.926.952c-.952.926-1.455 1.164-1.455.661v-.265h-.794v-.794h-.794v-.794h-.794v-.794h-.53v.794h-.794v.53h-1.588v.794h-1.322v.794h-1.058zm-5.133-.317c-.079-.079-.159-.317-.159-.529v-.344h.794V26.2c0-.503.132-.503.9.026l.635.397.185-.265c.079-.159.265-.291.423-.291h.238v.794h-.794v.53h-.74l-.159-.397c-.079-.212-.265-.397-.423-.397h-.265v.37c0 .212-.106.45-.238.529l-.212.132zm36.618-1.27v-.397h.794v.794h-.794Z"/><path d="M45.514 25.777c0-.185-.291-.582-.661-.926l-.661-.609v-2.937h.794v-.794h.53v-3.704h-.53v-.794h-.74l-.159-.397-.132-.397h-.661c-.344 0-.82.079-1.058.159l-.423.159v3.652h-.265a.285.285 0 0 0-.265.265v.265h1.322v.794h-1.588v-.794h-1.322v-.503l.609-.079.582-.079.079-1.905.079-1.931h.767v-.794h2.382v-.53h-.794v-.794h-.794v-.794h-.794v-.794h-.794v1.588h-4.498v-1.588h.794v.53h2.91v-.53h.794v-.794h.82l.397.37.37.397v.82h.794v.794h.794v.53h.794v.794h.53v-3.704h.794v-.794h3.174v.794h.794v.794h-.794v1.322h.794v-.53h.37c.212 0 .423.106.476.238l.079.238 1.799.106 1.773.106v-2.276h.794v-.794h5.292v.794h.794v.794h.794v1.588h-.794v-1.588h-.794v-.794h-5.292v2.858l-.423.159c-.238.079-1.244.159-2.249.159h-1.826v-.794h-.794v1.322h-.794v.794h-.794v-3.704h.794v-.794h-2.884l-.079 2.196-.079 2.17-.714.079-.741.079v.767h1.322v5.292h-1.322v3.174h.74l.132.344.132.317.265-.37.265-.37.45.185.45.159-.635.661c-.317.37-.767.661-.926.661h-.344v-.291zm-36.883-.53-.529-.503.582-.529c.317-.291.688-.529.847-.529h.265v-.794h.794v-3.704h-.794v-.794h-.794V17.6h.74l.159.397.132.397h1.349v4.498h-.794v.794h-.794v.291c0 .185-.212.476-.45.661l-.476.344.476.026h.45v.794l-.317-.026c-.185 0-.582-.238-.847-.529zm23.389-1.561v-1.587h6.88v3.174h-6.88zm39.423 1.191v-.397h.794v.794h-.794zm12.171 0v-.397h1.058v.794h-1.058zm-68.527-.794v-.397h.794v-.794h.794v-.794h.794v-.794h.794v-.794h.794v3.968h-3.968v-.397Zm5.556 0v-.397h.53v-4.498h.794v.53h.794v1.588h.794v1.588h.794v1.588h-3.704v-.397zm62.442-.793v-.397h1.588v.794h-1.588zm-11.642-1.588v-.397h.794v.794h-.794zm12.356.212a.56.56 0 0 1-.185-.397v-.212h1.058v.794h-.344c-.212 0-.45-.079-.529-.185m-6.8-1.006v-.397h2.116v.794h-2.116zm3.704-.026v-.423l.423.159c.238.079.767.159 1.191.159h.767v.53h-2.382v-.423zm-9.26-1.429v-.529h.74l.159.423c.238.609.212.635-.37.635h-.529zm3.122.344-.476-.106v-1.773l.397-.159.397-.132.053-1.535.053-1.535.079 1.455.106 1.455.529.476.503.476v1.561l-.582-.026c-.344-.026-.82-.079-1.058-.159zm5.345-.608v-.767l.503-.476.529-.476.106-1.455.079-1.455.053 1.535.053 1.535.397.132.397.159v1.746l-.582.159c-.344.079-.82.159-1.058.159h-.476v-.794Z"/><path d="M33.449 18.024c-.079-.212-.106-.714-.053-1.138l.079-.741 2.328-.079 2.302-.079v2.408h-4.524zm50.165 0v-.423h1.112l-.106.344-.132.317-.423.079-.45.079zm-61.648-2.407v-.397h.794v-.53h1.588v.53h-.794v.794h-1.588zm37.306 0v-.397h-.53v-.794h2.91v-.238c0-.132-.185-.291-.397-.397-.212-.079-.397-.265-.397-.423v-.265h.794v.53h.794v1.058h-.794v.53h-1.349l-.132.397-.159.397h-.74zm11.642-2.911v-.397h.794v-1.826l-.45-.106-.476-.132.476-.026.45-.026V8.605h.53v1.561l.476.106.45.132-.503.026-.503.026.159 1.323.159 1.323h-1.561v-.397z"/></g><g fill="#a03655"><path d="m44.826 49.483-.159-.661h-.476v-.794h-.794v-.794h-.794v-.794h-1.588v-.794h.82l.397-.37.37-.397v-2.143h-2.91v-.794H37.31v-.794h-.291c-.159 0-.45-.185-.661-.397l-.397-.397h-1.032v-.794h2.937l.397-.397.397-.397h1.826v-.53l.661-.159.661-.159v-.424l.794-.185.794-.185v-.265c0-.132.159-.423.37-.635l.397-.37h.82v-.794h.53v-.794h.265c.159 0 .503-.238.794-.529l.529-.529v-1.085l.397-.132.397-.159v-1.27h.794v-1.588h.794v.794h.794v.794h.794v.794h.794v1.27l.397.159.397.132v2.698l-.37.132-.397.159-.159.767-.185.767h-.265c-.344 0-1.005.688-1.005 1.032v.291h-.794v.794h-.794v.794h-1.588v8.466h-.53v.794h-1.058v.265c0 .159-.106.265-.265.265h-.265l-.159-.661zm12.329 0v-.661h-.794v-.265c0-.132-.238-.503-.529-.794s-.635-.529-.794-.529h-.265v-.794h-1.588v-.794h.794v-.53h.794v-6.8l-.026-6.826-.767-.661-.794-.635v-.688h.794v-.53h3.174v.794h.794v.794h.794v.661l.661.503.661.503v.714h-.53v2.725l.847.767c.45.397.926.741 1.058.741.106 0 .212.132.212.265 0 .159.238.503.529.794l.529.529h1.322v.794h1.322v.794h2.382v.794h2.116v.661l-.582.265-.609.265-.079.609-.079.582h-.265c-.159 0-.45.185-.661.397l-.397.397h-1.032v.53h-2.116v-.53h-1.588v-.794h-.794v-.82l-.37-.397-.397-.37h-.82v-1.588h-.503l-.079 4.048-.079 4.075-.847.82c-.45.476-.952.847-1.111.847h-.291v-.661zm13.759-.264v-.397h1.588v-.794h1.322v-.794h1.588v-.794h.794v-.794H77v-.794h1.322V43.53h.794v-.794h.794v-1.588h.794V39.56h-.794v-.53h-1.588v.45l-1.058.185-1.058.159v.53h-2.382v-.794h-1.588v-1.322H70.12V37.18h4.498v-.794h2.09l.159-.265.159-.265h1.322l.132-.397.159-.397h.979l.952-.926c.503-.529.926-1.058.926-1.191v-.265h.794v-.794h.476l.159-.661.159-.661h.794v.794h.291c.37 0 1.032.661 1.032 1.032v.291h.794v.794h.794v1.588h.794V38l-.397.397-.397.397v1.508l-.397.159-.397.132v1.349h-.794v.291c0 .37-2.249 2.619-2.619 2.619h-.291v.794h-.794v.794h-1.349l-.132.397-.159.397h-1.534v.794h-1.27l-.159.397-.132.397h-2.143v.794h-3.704zm-59.531-2.382v-.397h-1.112l.106-.317.132-.344.82-.079.847-.079v-.767h1.138l.556-.609.582-.635.714-.185.714-.159v-1.322h.794v-1.588h.794v-2.143l.397-.132.397-.159V31.44l.185-.159.159-.185 1.296 1.323c.688.714 1.27 1.429 1.27 1.561v.291h1.058v.794h.291c.159 0 .45.185.661.397l.397.397h2.355v.265c0 .159-.185.344-.397.423l-.397.159v1.218l-.397.159-.397.132v1.349h-.794v.74l-.661.159-.661.159-.159.661-.159.661h-.476v.794h-.265c-.132 0-.9.635-1.667 1.429l-1.429 1.455-.688.159-.714.185v.476H14.53l-.132.397-.159.397h-2.858v-.397zm17.462 0v-.397h-.291c-.37 0-2.619-2.249-2.619-2.619v-.291h-.794v-.74l.661-.159.661-.159v-.265c0-.159.132-.265.265-.265.159 0 .503-.238.794-.529l.529-.529v-5.028h.82l.397.37.37.397v.82h.794v.794h.794v.53h.794v.794h.794v.74l.397.159.397.132v1.349h.53v2.382h-.53v1.322h-.794v.794h-.794v.794h-3.174v-.397z"/><path d="m34.19 37.048-.212-.423-.582-.053-.582-.026v-.688h-.794v-.794h-.265c-.344 0-1.323-.979-1.323-1.323v-.265h-.794v-.53h.794v.53h.794v.794h.794v.794h.794v.794h1.588v.53h2.646v-.53H38.9v.794h-1.588v.794h-2.884zm28.257-1.588v-.397h-.794v-.794h-.794v-3.174h.794v-.53h.794v.53h.794v.794h.53v-2.91h.291c.185 0 .45-.185.635-.45l.317-.423.556.556c.317.317.582.714.582.847v.265h.82l.397.37.37.397v.82h.794v1.058l-.529.529-.529.529h-1.852v.979l-.661.714-.635.688h-1.878v-.397Zm2.805-2.646.053-.688-.582.185c-.291.106-.609.212-.661.265-.132.132.609.873.9.9h.265l.026-.661zm6.985 1.853v-.397h-1.588v-.291c0-.185-.291-.582-.661-.926l-.661-.609v-2.143h.53v-1.322h1.058v.265c0 .132.212.503.45.794l.45.529h1.218v.53h5.556v-.53h1.322v-.794h1.588v-.794h.794v.794h-.794v.794h-.794v.794h-.291c-.159 0-.82.529-1.482 1.191l-1.191 1.191h-.74v.53h-1.588v.794h-3.174v-.397zm-44.186-8.07v-.794h-2.116v-.53h2.116v-1.058h-2.91v-2.116h.794v-.794h.794v-.53h.794v-1.058h-2.382v-.794h-1.322v-.53h-1.058v-.794h-.794v-.794h4.762v-.212c0-.106-.344-.503-.794-.847l-.767-.661-.026-.317v-.344h-.846l.106-.317.132-.344.609-.079c.661-.106 1.323-.635 1.323-1.085v-.291H24.35v-.794h-.794v1.138l-.952.873c-.503.503-1.058.9-1.191.9h-.238v-2.91h.794v-.794h-3.704v.794h.794v4.498h-1.588v-.53h.794v-1.588h-.794v-.794h-.794v-.794h-.794v-.794h-.794v.794h.794v3.704h-1.588v.794h3.174v.794h-.794v2.382h-.794v1.058l-.529.529c-.291.291-.582.529-.661.529s-.132-.661-.132-1.455v-1.455h.265c.423 0 .317-.476-.265-1.058l-.529-.529H9.796v.794h-.794V17.6h.794v-.794h3.968v-.794h-1.588v-.794h-.794v-.794h-.794v-2.116h-.794v-.794h.794v-.794h3.174v.794h1.322v-.794h.794v.794h.794v.794h.794v.794h.794v-1.588h-.794v-.794h.794v-.794h3.704v.794h.794v.794h.794v-.794h.794v.794h2.382v.794h.794v.265c0 .159.132.265.265.265h.265v-1.322h.794v-.794h.794v.794h.794v.53h2.116v-1.322h.794V9.93h3.968v.794h.794v.794h-.794v-.794h-3.704v2.382h-3.174v-.794h-.794v-.794h-.794v1.322l-.529.529c-.291.291-.635.529-.794.529h-.265v2.116h.794v.794h1.058v-.794h1.322v3.704h-1.588v7.672h-.794v-.794ZM13.763 14.823v-.397h.794V12.31h-.82l-.132-.397-.159-.397h-2.858v.794h.794v2.116h.794v.794h1.588z"/><path d="m44.667 24.639-.476-.344v-2.99h.794v-.794h.794v-3.704h-.794v-.794h-.74l-.159-.397-.132-.397h-.661c-.344 0-.82.079-1.058.159l-.423.159v3.386h-.53v-3.704h.53v-.794h2.382v-.53H43.4v-.794h-.794v-.794h-.794v-.794h-.794v1.588H36.52v-1.588h.794v.53h2.91v-.53h.794v-.794h.794v.794h.794v.794h.794v.794h.794v.53h.794v.794h.53v-3.704h.794v-.794h3.174v.794h.794v.794h-.794v1.322h.794v-.53h.37c.212 0 .423.106.476.238l.079.238 1.799.106 1.773.106v-2.276h.794v-.794h5.292v.794h.794v.794h.794v1.588h-.794v-1.588h-.794v-.794h-5.292v2.858l-.423.159c-.238.079-1.244.159-2.249.159h-1.826v-.794h-.794v1.322h-.794v.794h-.794v-3.704h.794v-.794h-2.884l-.079 2.196-.079 2.17-.714.079-.741.079v.767h1.322v5.292h-1.322v3.174h.265c.159 0 .265.132.265.265 0 .344-.291.317-.847-.106zm26.247-10.451v-.556h1.614l-.079.476-.079.45-.741.079-.714.079v-.529zm0-1.482v-.397h.794v-1.826l-.45-.106-.476-.132.476-.026.45-.026V8.605h.53v1.667c0 .9.079 1.905.159 2.249l.159.582h-1.64v-.397zm12.885-.899.159-1.296-.503-.132-.503-.132.476-.026.45-.026V8.607h.53v1.561l.476.106.45.132-.45.026-.476.026v1.852h.794v.794h-1.561l.159-1.296z"/></g><g fill="#ad2c65"><path d="m44.826 49.483-.159-.661h-.476v-.794h-.794v-.794h-.794v-.794h-1.588v-.794h.82l.397-.37.37-.397v-2.143h-2.91v-.794H37.31v-.794h-.291c-.159 0-.45-.185-.661-.397l-.397-.397h-1.032v-.794h2.937l.397-.397.397-.397h1.826v-.53l.661-.159.661-.159v-.424l.794-.185.794-.185v-.476h.794v-.794h.794v-.794h.794v-.291c0-.185.291-.582.661-.926l.661-.609v-1.112l.397-.132.397-.159v-1.27h.794v-1.588h.794v.794h.794v.794h.794v.794h.794v1.27l.397.159.397.132v2.698l-.37.132-.397.159-.159.767-.185.767h-.265c-.344 0-1.005.688-1.005 1.032v.291h-.794v.794h-.794v.794h-1.588v8.466h-.53v.794h-1.058v.265c0 .159-.106.265-.265.265h-.265l-.159-.661zm12.329 0v-.661h-.794v-.265c0-.132-.238-.503-.529-.794s-.635-.529-.794-.529h-.265v-.794h-1.588v-.794h.794v-.53h.794v-13.52l-.661-.609c-.37-.344-.661-.741-.661-.926v-.291h.53v-.794h3.174v.794h.794v.794h.794v.661l.661.503c.37.265.661.609.661.714v.238h-.794v3.174h.265c.159 0 .503.238.794.529s.529.661.529.794v.265h.291c.185 0 .582.291.926.661l.609.661h1.349v.794h1.322v.794h2.382v.794h2.116v.661l-.582.265-.609.265-.079.609-.079.582h-.265c-.159 0-.45.185-.661.397l-.397.397H66.15v.53h-1.878l-.609-.661-.609-.661h-1.402v-.82l-.37-.397-.397-.37h-.82v-1.588h-.794v8.256l-.767.767c-.423.423-.9.767-1.058.767h-.291v-.661zm13.759-.264v-.397h1.588v-.794h1.322v-.794h1.588v-.794h.794v-.794H77v-.794h1.322V43.53h.794v-.794h.794v-1.588h.794V39.56h-.794v-.794h-1.588v.714l-1.058.185-1.058.159v.53h-2.382v-.794h-1.588v-1.27l-.794-.185-.794-.185v-.212c0-.317 1.032-.529 2.593-.529h1.376v-.794h2.09l.159-.265.159-.265h1.322l.132-.397.159-.397h.979l.952-.926c.503-.529.926-1.058.926-1.191v-.265h.794v-.794h.476l.159-.661.159-.661h.794v.794h.291c.37 0 1.032.661 1.032 1.032v.291h.794v.794h.794v1.588h.794v2.937l-.397.397-.397.397v1.508l-.397.159-.397.132v1.349H85.2v.291c0 .37-2.249 2.619-2.619 2.619h-.291v.794h-.794v.794h-1.349l-.132.397-.159.397h-1.534v.794h-1.27l-.159.397-.132.397h-2.143v.794h-3.704v-.397zm-59.531-2.382v-.397h-1.112l.106-.317.132-.344.82-.079.847-.079v-.767h1.138l.556-.609.582-.635.714-.185.714-.159v-1.322h.794v-1.588h.794v-2.143l.397-.132.397-.159V31.44l.185-.159.159-.185 1.296 1.323c.688.714 1.27 1.429 1.27 1.561v.291h.794v.794h.82l.397.397.397.397h2.355v.265c0 .159-.185.344-.397.423l-.397.159v1.218l-.397.159-.397.132v1.349h-.794v.74l-.661.159-.661.159-.159.661-.159.661h-.476v.794h-.265c-.132 0-.9.635-1.667 1.429l-1.429 1.455-.688.159-.714.185v.476h-2.143l-.132.397-.159.397h-2.858v-.397zm17.462 0v-.397h-.291c-.37 0-2.619-2.249-2.619-2.619v-.291h-.794v-.74l.661-.159.661-.159v-.265c0-.159.132-.265.265-.265.159 0 .503-.238.794-.529l.529-.529v-5.028h.794v.794h.794v.794h.794v.794h.794v.53h.794v.794h.794v.74l.397.159.397.132v1.349h.53v2.382h-.53v1.322h-.794v.794h-.794v.794h-3.174v-.397z"/><path d="m34.19 37.048-.212-.423-.582-.053-.582-.026v-.688h-.794v-.794h-.265c-.344 0-1.323-.979-1.323-1.323v-.265h-.794v-.53h.794v.53h.794v.794h.794v.794h.794v.794h1.322v.794h3.174v-.794h1.588v.794H37.31v.794h-2.884l-.238-.397Zm38.047-2.381v-.397h-1.588v-.291c0-.185-.291-.582-.661-.926l-.661-.609v-1.878h.794v-1.588h.794v.265c0 .132.212.503.45.794l.45.529h1.218v.794h5.318l.132-.397.159-.397h1.27v-.794H81.5v-.794h.794v.794H81.5v.794h-.794v.794h-.291c-.159 0-.82.529-1.482 1.191l-1.191 1.191h-.74v.53h-1.588v.794H72.24v-.397zM41.28 33.185c0-.37.661-1.032 1.032-1.032h.291v.53h.794v.794h-.794v-.53h-.794v.265c0 .159-.106.265-.265.265h-.265v-.291zm-6.164-1.191c-.106-.106-.185-.476-.185-.82v-.609h1.614l-.079.741-.079.714-.529.079-.556.079zm-7.594-1.217c0-.132.132-.212.265-.212h.265v-.794h.794v.794h2.91v.556l-2.117-.079-2.117-.079zm4.498-.608c0-.079.212-.37.45-.661l.45-.529h1.218v-.794h3.174v.794h1.032l.132.238.159.238-.423.159c-.238.079-.529.159-.661.159h-.238v-.794h-2.937l-.132.397-.159.397h-1.27v.53h-.397c-.212 0-.397-.053-.397-.132zm-20.637-2.382v-.397h.794v-1.322h.794v1.322h-.794v.794h-.794zm36.512 0v-.397h.794v.794h-.794zm12.171 0v-.397h.794v-.794h.794v-5.292h-.794v1.588h-1.588v-1.376l.529-.132.529-.132v-1.27h.265c.159 0 .265.132.265.265v.265h.794v.794h.794v5.001l-.926.952c-.529.503-1.058.926-1.191.926h-.265zM47.26 27.47c-.079-.079-.159-.317-.159-.529v-.344h.794v-.846l.317.106c.159.053.37.265.423.423l.106.317h-.846v.37c0 .212-.106.45-.238.529l-.212.132zm-19.209-.873v-.794h-2.116v-.53h2.116v-1.058h-2.91v-2.116h.794v-.794h.794v-.53h.794v-1.058h-2.382v-.794h-1.322v-.53h-1.058v-.794h-.794v-.794h4.762v-.212c0-.106-.344-.503-.794-.847l-.767-.661-.026-.317v-.344h-.846l.106-.317.132-.344.609-.079c.661-.106 1.323-.635 1.323-1.085v-.291H24.35v-.794h-.794v1.138l-.952.873c-.503.503-1.058.9-1.191.9h-.238v-2.91h.794v-.794h-3.704v.794h.794v2.91h-.794v-.53h-.794v-.794h-.794v-.794h-.794v-.794h-.794v.794h.794v3.704h-1.588v.794h3.174v.794h-.794v2.382h-.794v1.058l-.529.529c-.291.291-.582.529-.661.529s-.132-.661-.132-1.455v-1.455h.53v-.794h-.53v-1.112l-.82.159c-.45.079-1.535.159-2.381.159H9.797v.794h-.794v-.794h.794v-.794h3.968v-.794h-1.588v-.794h-.794v-.794h-.794v-2.116h-.794v-.794h.794v-.794h3.174v.794h1.322v-.794h.794v.794h.794v.794h.794v.794h.794v-1.588h-.794v-.794h.794v-.794h3.704v.794h.794v.794h.794v-.794h.794v.794h2.382v.794h.794v.265c0 .159.132.265.265.265h.265v-1.322h.794v-.794h.794v.794h.794v.794h2.382v-1.588h.53v-.794h3.968v.794h.794v.794h-.794v.794h2.91v-.794h.794v-.794h.794v.794h.794v.794h.794v.794h.794v.53h.794v.794h.53v-3.704h.794v4.498h-1.322v.794h1.322v5.292h-1.322v3.122l.344.132.317.106-.185.185-.159.185-.556-.344-.556-.344v-3.043h.794v-.794h.794v-3.704h-.794v-.794h-.74l-.159-.397-.132-.397h-.661c-.344 0-.82.079-1.058.159l-.423.159v3.386h-.53V15.22h.53v-.794h2.382v-.53h-.794v-.794h-.794v-.794h-.794v-.794h-.794v1.588h-4.498v-1.588h.794v-.794h-3.704v2.382h-3.174v-.794h-.794v-.794h-.794v1.322l-.529.529c-.291.291-.635.529-.794.529h-.265v2.116h.794v.794h1.058v-.794h1.322v3.704h-1.588v7.672h-.794v-.794ZM13.763 14.823v-.397h.794V12.31h-.82l-.132-.397-.159-.397h-2.858v.794h.794v2.116h.794v.794h1.588z"/><path d="M41.81 24.745v-2.646h.794v5.292h-.794zm13.017 1.534.132-.344.688-.079.714-.079v-.503h.794v.794h-.794v.53h-1.64l.106-.317zm16.616-.079v-.397h.794v.794h-.794zm-20.981-.318a.56.56 0 0 1-.185-.397v-.212h.794v.794h-.212a.56.56 0 0 1-.397-.185m-41.461-.344v-.265h.794v.53h-.794Zm39.688-.793v-1.058h-.794v.794h-.794v-.794h.794v-.794h.794v-.794h1.588v1.588h-.794v2.116h-.794zm5.292.132v-.397h-.794v-.794h-.794v.794h-.53v-2.382h.53v.794h.265c.344 0 1.323.979 1.323 1.323v.265h.794v.794h-.794ZM32.02 23.554v-1.455h6.614v2.91H32.02zm-16.669.397c0-.132.132-.265.265-.265h.265v-.794h.794v-.794h.794v-.794h.794v-.265c0-.132.132-.265.265-.265h.265v3.44h-3.44v-.265zm39.423 0v-.265h.794v-4.498h.794v4.498h-.794v.53h-.794zM9.795 23.29v-.397h.794v-3.968h-.265a.266.266 0 0 1-.265-.265v-.265h1.322v4.498h-.794v.794h-.794v-.397zm59.002.158c0-.132.185-.317.423-.397l.423-.159.238.159.238.132-.132.265-.159.238h-1.032zm2.699-.079.132-.344.688-.079.714-.079v.82h-1.64zm11.589-.079v-.397h1.322v.794h-1.322zm2.91-2.884v-.423h1.322v.265c0 .159-.106.265-.238.265s-.423.079-.661.159l-.423.159v-.423zm-37.306-2.144v-2.249h1.588v4.498h-1.588zm12.356 1.27c-.106-.079-.185-.397-.185-.661v-.476h.794v-.794h.794v-.794h.794v.794h-.794v.794h-.794v1.322h-.212a.56.56 0 0 1-.397-.185m15.954-1.534v-.397h.794v.794h-.794zm1.323 0v-.397h.794v.794h-.794zm-44.926-.847.079-1.005 2.196-.079 2.17-.079v2.143h-4.524l.079-.979zm-.582-2.328v-.397h-2.382v-.53h9.79v.53h-2.116v.794h-5.292zm15.875-1.455v-1.852h.794v-.794h-2.91v-.794h2.91v.794h.794v.794h-.794v1.322h.794v-.53h.37c.212 0 .423.106.476.238l.079.238 1.799.106 1.773.106V10.72h.794v-.794h5.292v.794h.794v.794h.794v1.588h-.794v-1.588h-.794v-.794h-5.292v2.858l-.423.159c-.238.079-1.244.159-2.249.159H51.07v-.794h-.794v1.322h-.794v.794h-.794v-1.852z"/><path d="M61.336 13.923c-.582-.582-.609-.82-.079-.82h.397v.53h.794v.794l-.317-.026c-.185 0-.556-.212-.794-.476zm9.578-1.217v-.397h.53v.794h-.53zm5.291-.635v-.212l.926-.159.926-.159.926.159.926.159v.45h-3.704zm7.277-1.614-.529-.238h.476l.45-.026V8.605h.53v1.588l.476.026h.45l-.529.238c-.291.132-.582.238-.661.238s-.37-.106-.661-.238z"/></g><g fill="#b53e5d"><path d="m44.826 49.483-.159-.661h-.476v-.794h-.794v-.794h-.794v-.794h-.794v-.37c0-.212.185-.556.397-.794l.397-.397v-2.143h-2.91v-.794h-2.382v-.794h-.265c-.132 0-.503-.212-.794-.45l-.529-.45v-.688h2.143l.397-.397.397-.397h1.826v-.53l.661-.159.661-.159v-.424l.794-.185.794-.185v-.476h.794v-.794h.794v-.794h.794v-.291c0-.185.291-.582.661-.926l.661-.609v-1.112l.397-.132.397-.159v-1.27h.794v-1.588h.794v.794h.794v.794h.794v.794h.794v1.27l.397.159.397.132v2.698l-.37.132-.397.159-.159.767-.185.767h-.265c-.344 0-1.005.688-1.005 1.032v.291h-.794v.794h-.794v.794h-1.588v8.466h-1.322l-.159.661-.159.661h-.476l-.159-.661zm12.329 0v-.661h-.794v-.265c0-.132-.238-.503-.529-.794s-.635-.529-.794-.529h-.265v-.794h-.794v-1.322h.794v-13.52l-.661-.609c-.37-.344-.661-.741-.661-.926v-.291h.53v-.794h3.174v.794h.794v.794h.794v.661l.661.503c.37.265.661.609.661.714v.238h-.794v3.174h.265c.159 0 .503.238.794.529s.529.661.529.794v.265h.291c.185 0 .582.291.926.661l.609.661h1.349v.794h1.322v.794h2.382v.794h2.116v.74l-.45.159a9 9 0 0 0-1.058.503l-.609.317v1.218l-.794.159-.794.159v.45h-1.878l-.609-.661c-.344-.37-.741-.661-.926-.661h-.291v-.74l-.661-.159-.661-.159-.159-.661-.159-.661h-.74v-.794h-.794v8.256l-.767.767c-.423.423-.9.767-1.058.767h-.291v-.661zm15.505-.555c-.079-.238-.159-.529-.159-.661v-.238h1.322v-.794h1.588v-.794h.794v-.794h.794v-.794h1.322v-1.322h.794v-.794h.794v-1.588h.794v-1.588h-.794v-.794h-1.588v.714l-1.058.185-1.058.159v.53h-2.382v-.794h-.291c-.185 0-.582-.291-.926-.661l-.582-.635-.688-.185c-1.508-.37-.423-.9 1.905-.9h1.376v-.794h2.09l.159-.265.159-.265h1.322l.132-.397.159-.397h.979l.952-.926c.503-.529.926-1.058.926-1.191v-.265h.794v-.794h.476l.159-.661.159-.661h.794v.794h.291c.37 0 1.032.661 1.032 1.032v.291h.794v.794h.794v1.588h.794V38l-.397.397-.397.397v1.508l-.397.159-.397.132v1.349h-1.032l-1.349 1.323-1.323 1.349v1.032h-.794v.794h-1.349l-.132.397-.159.397h-1.534v.794h-1.27l-.159.397-.132.397h-2.937v.53h-1.006zm-61.277-2.091v-.397h-1.112l.106-.317.132-.344.82-.079.847-.079v-.767h2.382v-.291c0-.185.291-.582.661-.926l.661-.609v-1.085h.794v-1.588h.794v-2.143l.397-.132.397-.159v-6.482l.185-.159.159-.185 1.296 1.323c.688.714 1.27 1.429 1.27 1.561v.291h.794v.794h.82l.397.397.397.397h2.355v.265c0 .159-.185.344-.397.423l-.397.159v1.218l-.397.159-.397.132v1.349h-.794v.74l-.661.159-.661.159-.159.661-.159.661h-1.27v.794h-.238c-.132 0-.688.397-1.191.9l-.952.873v1.085l-.794.185-.794.185v.476h-2.143l-.132.397-.159.397h-2.858v-.397zm17.462-.238v-.635l-.397-.159-.397-.132v-.82l-.317-.026a3 3 0 0 0-.688 0l-.317.053-.397-.397c-.212-.212-.397-.503-.397-.661v-.291h-.794v-.794h2.116v-1.349l.397-.132.397-.159v-5.238h.794v.794h.794v.794h.794v.794h.794v.53h.794v.794h.794v1.402l.661.609.661.609v2.143h-.53v1.322h-.794v.794h-.794v.794h-3.174v-.635z"/><path d="M62.447 35.46v-.397h-.794v-.794h-.794v-2.91h.794v-.794h.794v.794h.794v.53h.794v-2.672l.503-.529.503-.556.556.556c.317.317.556.688.556.82v.265h.794v.794h.794v.794h.794v1.058l-.529.529-.529.529h-1.852v.979l-.661.714-.635.688h-1.878v-.397Zm2.805-2.646.053-.688-.582.185c-.291.106-.609.212-.661.265-.132.132.609.873.9.9h.265l.026-.661zm7.779 1.853v-.397h-2.382v-.291c0-.185-.291-.582-.661-.926l-.661-.609v-1.878h.794v-1.588h.794v.265c0 .132.212.503.45.794l.45.529h1.218v.794h5.318l.132-.397.159-.397h1.27v1.032l-.926.952-.952.926h-1.826v.794h-.794v.794h-2.382v-.397zm-44.98-10.055v-.397h-2.91v-2.116h.794v-.794h.794v-.53h.794v-1.058h-2.382v-.794h-1.058l-.529-.529-.503-.503.185-.106c.106-.053.926-.265 1.852-.45l1.64-.344v-.608l-.794-.635-.767-.661-.026-.476v-.476l.661-.609c.37-.344.661-.741.661-.926v-.291h-2.116v-.794h-.794v1.138l-.952.873c-.503.503-1.058.9-1.191.9h-.238v-2.91h.794v-.794h-3.704v.794h.794v2.91h-.794v-.53h-.794v-.794h-.794v-.794h-.794v-.794h-.794v.794h.794v3.704h-1.614l.079.476.079.45 1.455.159c.794.079 1.323.159 1.191.185-.159.026-.476.397-.741.82l-.45.767.053.503v1.244l-.053.741-.397-.317-.397-.317v1.376h-.53v-2.91h.53v-.794h-.53v-1.006l-1.984.132-1.984.159v-.873h3.228l-.132-.582-.159-.582.132-.609.159-.609h.74v-2.116h-.82l-.132-.397-.159-.397h-2.858v.794h-.794v-.794h.794v-.794h3.174v.794h1.322v-.794h.794v.794h.794v.794h.794v.794h.794v-1.588h-.794v-.794h.794v-.794h3.704v.794h.794v.794h.794v-.794h.794v.794h2.382v.794h.794v.265c0 .159.132.265.265.265h.265v-1.322h.794v-.794h.794v.794h.794v.794h2.382v-1.588h.53v-.794h3.968v.794h.794v.794h-.794v.794h2.91v-.794h.794v-.794h.794v.794h.794v.794h.794v.794h.794v.53h.794v.794h.53v-3.704h.794v4.498h-1.349l-.397-.37c-.212-.212-.37-.503-.37-.661v-.291H43.4v-.794h-.794v-.794h-.794v-.794h-.794v1.588H36.52v-1.588h.794v-.794H33.61v2.382h-3.174v-.794h-.794v-.794h-.794v1.322l-.529.529c-.291.291-.635.529-.794.529h-.265v2.116h.794v.794h1.058v-.53h1.006l.159.423c.079.238.159 1.005.159 1.72v1.296h-1.588v5.292h-.794v-.397zm46.038-5.794v-.9l.397-.159.397-.132.053-1.535.053-1.535.079 1.455.106 1.455.529.476.503.476v1.296H74.09v-.9zm3.254-5.106c-.185-.053-.344-.238-.344-.37v-.238h2.116v.238c0 .45-1.058.661-1.773.37zm-.344-4.419v-.635l.529-.132.529-.132.529.132.529.132v1.27h-2.116z"/></g><g fill="#b83169"><path d="m44.932 49.033-.079-1.138-.714.079-.741.079v-.82h-.794v-.794h-.794v-.37c0-.212.185-.556.397-.794l.397-.397v-2.143h-2.91v-.794h-1.588v-.794h-1.322l-.529-.45-.529-.45v-.688h2.143l.397-.397.397-.397h1.826v-.53l.661-.159.661-.159v-.424l.794-.185.794-.185v-.476h.794v-.794h.794v-.794h.794v-.291c0-.185.291-.582.661-.926l.661-.609v-1.112l.397-.132.397-.159v-1.27h.794v-1.588h.794v.794h.794v.794h.794v.794h.794v1.27l.397.159.397.132v2.698l-.37.132-.397.159-.159.767-.185.767h-.265c-.344 0-1.005.688-1.005 1.032v.291h-1.588v.794h-.794v.794h-.794v8.466h-1.322l-.159.661-.159.661h-.45l-.079-1.111zm12.223-.291v-.609l-.873-.847-.873-.847h-1.428v-1.322h.794v-13.52l-.661-.609c-.37-.344-.661-.741-.661-.926v-.291h.53v-.794h3.174v.794h.794v.794h.794v.661l.661.503c.37.265.661.609.661.714v.238h-.794v3.174h.265c.159 0 .503.238.794.529s.529.661.529.794v.265h.291c.185 0 .582.291.926.661l.609.661h1.349v.82l.37.397.397.37h2.937v.794h2.116v.74l-.45.159a9 9 0 0 0-1.058.503l-.609.317v.661h-.291c-.185 0-.582.291-.926.661l-.609.661h-1.64l-.609-.661c-.344-.37-.741-.661-.926-.661h-.291v-.74l-.661-.159-.661-.159-.159-.661-.159-.661h-.74v-.794h-.794v7.672h-.291c-.185 0-.582.291-.926.661-.767.82-.9.82-.9.053zm15.505.186c-.079-.238-.159-.529-.159-.661v-.238h2.064l.317-.397c.185-.212.503-.397.688-.397h.37l.529-.529c.291-.291.529-.635.529-.794v-.265h.794v-.291c0-.37.661-1.032 1.032-1.032h.291v-.794h.794v-2.382h.794V39.56h-.794v-.794h-2.01l-.45.529-.45.529h-.794v.53h-1.588v-.794h-1.402l-.609-.661-.582-.635-.688-.185c-1.561-.37-.423-.9 2.037-.9h1.508v-.53h2.116v-.794h1.349l.132-.397.159-.397h.979l.952-.926c.503-.529.926-1.058.926-1.191v-.265h.794v-.53h.794v-.714h1.428l.344.344c.185.185.344.45.344.609v.291h.794v.794h.794v1.588h.794v3.174h-.53l-.159.661-.159.661h-.74v1.588h-.794v.291c0 .37-3.043 3.413-3.413 3.413h-.291v.794H80.7v.794h-1.588v.794h-.794v.794h-2.143l-.397.397-.397.397H73.82v.53h-1.006l-.159-.423zm-61.277-2.091v-.397h-1.112l.106-.317.132-.344 1.217-.079 1.244-.079v-.45l.794-.185.794-.185v-.265c0-.159.291-.556.661-.9l.661-.609v-1.085h.794v-1.588h.794v-1.349l.397-.132.397-.159v-7.276l.185-.159.159-.185 1.296 1.323c.688.714 1.27 1.429 1.27 1.561v.291h.794v.794h.82l.397.397.397.397h2.355v.556l-.45.159c-.265.106-.635.317-.794.503l-.344.344v2.143h-1.588v.82l-.37.397-.397.37h-.82v.794h-.53v.794h-.265c-.132 0-.741.476-1.323 1.058s-1.164 1.058-1.323 1.058h-.265v.794h-1.588v.794h-1.349l-.132.397-.159.397H11.38v-.397zm17.462-.238v-.635l-.397-.159-.397-.132v-.82l-.317-.026a3 3 0 0 0-.688 0l-.317.053-.397-.397c-.212-.212-.397-.503-.397-.661v-.291h-.794v-.794h2.01l.45-.529.45-.529v-5.82h.794v.794h.794v.794h.794v.794h.794v.53h.794v.794h.794v1.402l.661.609.661.609v2.143h-.53v1.322h-.794v.794h-.794v.794h-3.174v-.635z"/><path d="M62.447 35.46v-.397h-.794v-1.588h-.794v-2.116h.794v-.794h.794v.794h.794v.291c0 .37 1.455 1.826 1.826 1.826h.291v.794h-.45l-.159.794-.159.794h-2.143zm-27.516-.793v-.397h-.53v-.794h2.619l.159.265.159.265-.397.159-.423.159v.74H34.93zm38.1 0v-.397h-1.058l-1.032-1.058c-.556-.582-1.164-1.058-1.323-1.058h-.291v-1.588h.794v-1.588h.794v.265c0 .132.212.503.45.794l.45.529h1.218v.794h5.318l.132-.397.159-.397h1.27v1.032l-.926.952-.952.926h-1.826v.794h-.794v.794h-2.382v-.397zm-44.186-2.249v-.265h.794v.53h-.794zm6.086-1.191v-.661h1.322v.238c0 .132-.079.423-.159.661l-.159.423h-1.006v-.661zm-6.086-.397v-.265h2.91v.53h-2.91zm10.848 0v-.265h2.91v.53h-2.91Zm-10.848-2.91v-.265h2.91v.53h-2.91zm10.054 0v-.265h2.91v.53h-2.91zm-22.754-.794v-.265h8.996v.53h-8.996zm15.875-.397v-.661h6.614v1.322h-.53v-.794h-5.292v.794h-.794v-.661zm10.054-1.984v-2.646h.53v5.292h-.53zM9.795 26.332v-.265h.794v.53h-.794zm16.14-.794v-.265h1.826l.159.265.159.265h-2.143zm2.116-.926v-.397h-2.91v-2.116h.794v-.794h.794v-.53h.794v-1.058h-2.382v-.794h-1.058l-.529-.529-.503-.503.185-.106c.106-.053.926-.265 1.852-.45l1.64-.344v-.608l-.794-.635-.767-.661-.026-.476v-.476l.661-.609c.37-.344.661-.741.661-.926v-.291h-2.116v-.794h-.794v-.794h.794v.794h2.382v.794h.794v.265c0 .159.132.265.265.265h.265v-1.322h.794v-.794h.794v.794h.794v.794h2.382v-1.588h.53v-.794h3.968v.794h.794v.794h-.794v.794h2.91v-.794h.794v-.794h.794v.794h.794v.794h.794v.794h.794v.53h.794v.794h.53v-3.704h.794v4.498h-1.349l-.397-.37c-.212-.212-.37-.503-.37-.661v-.291h-.794v-.794h-.794v-.794h-.794v-.794h-.794v1.588h-4.498v-1.588h.794v-.794h-3.704v2.382h-3.174v-.794h-.794v-.794h-.794v1.322l-.529.529c-.291.291-.635.529-.794.529h-.265v2.116h.794v.794h1.058v-.53h1.006l.159.423c.079.238.159 1.005.159 1.72v1.296h-1.588v5.292h-.794v-.397z"/><path d="M32.02 23.686v-1.323h6.614v2.646H32.02zm19.844-.396v-1.191h.53v1.058h.476l-.291.661c-.185.37-.397.661-.503.661h-.212v-1.191zm-36.513.714c0-.106.37-.423.794-.661.45-.265.794-.582.794-.741v-.238h.794v-.794h.53v-.794h.53v3.44h-3.44v-.212zm5.292-.053v-.265h.794v-4.498h.265c.159 0 .265.132.265.265v.265h.794v1.852h.794v1.588h.53v1.058h-3.44v-.265Zm65.352-.661v-.397h.238c.45 0 1.085.317 1.085.556v.238h-1.322zm-2.91-.133v-.265h1.322v.53h-1.322zm-23.231-1.111c-.185-.185-.317-.423-.317-.529v-.212h.794v-1.322h.265c.159 0 .265.132.265.265v.265h.794v.794h-.794v1.058h-.344c-.185 0-.476-.132-.661-.317zm-45.296-1.402v-1.455h.53v-.794h-.53v-1.006l-1.984.132-1.984.159v-.873h3.228l-.159-.609-.132-.609.159-.582.132-.582h.74v-2.116h-.82l-.132-.397-.159-.397h-2.858v.794h-.794v-.794h.794v-.794h3.174v.794h1.322v-.794h.794v.794h.794v.794h.794v.794h.794v-1.588h-.794v-.794h.794v-.794h3.704v.794h-3.704v.794h.794v2.91h-.794v-.53h-.794v-.794h-.794v-.794h-.794v-.794h-.794v.794h.794v3.704h-1.614l.079.476.079.45 1.455.159c.794.079 1.323.159 1.191.185-.159.026-.476.397-.741.82l-.45.767.053.503v1.244l-.053.741-.397-.317-.397-.317v1.376h-.53v-1.455zm38.1-.397v-1.852h.53v3.704h-.53Z"/><path d="m10.88 20.3-.026-1.138-.397-.132c-.212-.106-.397-.265-.397-.397v-.238h1.322l-.026.741a10.4 10.4 0 0 1-.238 1.508l-.212.794zm21.934.608v-.397h-2.382v-.53h3.174v-.794h.53v2.116h-1.322v-.397zm12.171 0v-.397h.794v-3.704h-.794v-.794h1.322v5.292h-1.322zm32.014.133v-.265h2.116v.53h-2.116zM36.518 19.85v-.661h1.588v.794h1.322v.53h-2.91v-.661zm4.762.397v-.265h1.322v.53H41.28zm7.515-1.35c.106-.873.265-1.773.344-1.984l.132-.397.317.106.291.106.079 1.879.079 1.905h-1.428l.185-1.614zm-9.102.556v-.265h1.322v.53h-1.322zm34.396-.661v-.926h.556l.238-.582.238-.609v.397l.026.423.529.45.529.45v1.322h-2.116v-.926Zm5.821.291v-.661l.423-.397c.45-.476.635-.503 1.27-.265l.423.159v1.8H79.91zm-38.63-1.879v-1.72h.53v3.44h-.53zm-6.085.423v-.503l-.529-.132-.529-.132v-.582h3.704v1.852h-2.646Zm17.463-1.481v-1.455h2.91v.53h-.794v.794h-.794v.794h-.794v.794h-.53v-1.455zm-35.19-.397v-.265h.794v-.794h.53v1.322H17.47v-.265zm4.763 0c0-.132.132-.265.265-.265h.265v-.794h1.588v.53h-.794v.794h-1.322v-.265zm37.041-.132v-.397h-.265a.266.266 0 0 1-.265-.265v-.265h2.91v.53h-1.349l-.132.397-.159.397h-.74zm-26.458-.768v-.423h-2.382v-.53h9.79v.53h-2.01l-.265.265-.265.265-2.434.159-2.434.185zm16.166-.317a72 72 0 0 0-.185-1.799l-.185-1.217h.873v-.794h-2.91v-.794h2.91v.794h.794v.794h-.794v1.322h.794v-.53h.37c.212 0 .423.106.476.238l.079.238 1.799.106 1.773.106V10.72h.794v-.794h5.292v.794h.794v.794h.794v.794h-.794v-.794h-.794v-.794h-5.292v2.858l-.423.159c-.238.079-1.244.159-2.249.159H51.07v-.794h-.794v1.322H49.27l-.132.344-.132.317-.026-.556z"/><path d="M58.743 13.368v-.265h-.794v-1.588h1.322v2.116h-.265a.266.266 0 0 1-.265-.265zm17.462-1.297v-.212l.926-.159.926-.159 1.005.185.979.159-1.058.185c-.582.132-1.455.212-1.905.212l-.873.026zm-4.894-1.614-.529-.238h.476l.45-.026V8.605h.53v2.116l-.185-.026c-.132 0-.45-.106-.741-.238zm5.688-1.164v-.635l.529-.132.529-.132.529.132.529.132v1.138l-.265-.397-.238-.37-.185.45-.159.45h-1.27v-.635z"/></g><path fill="#c3554f" d="M44.985 48.875v-.741l-.529-.45c-.291-.238-.661-.45-.794-.45h-.265v-.794h-1.588v-.37c0-.212.185-.556.397-.794.212-.212.397-.529.397-.688v-.291l.397-.132.397-.159v-1.218l.397-.159c.212-.079.397-.265.397-.423v-.265h-6.086v-.794h-1.322l-.529-.45-.529-.45v-.688h2.143l.397-.397.397-.397h1.826v-.53l.661-.159.661-.159v-.424l.794-.185.794-.185v-.476h.794v-.794h.794v-.794h.794v-.291c0-.185.291-.582.661-.926l.661-.609v-1.112l.397-.132.397-.159v-1.27h.794v-1.588h.794v.794h.794v.794h.794v.794h.794v1.27l.397.159.397.132v2.698l-.37.132-.397.159-.159.767-.185.767h-.74v.476l-.661.159-.661.159v.53h-.794v.794h-.794v.794h-.794v.794h-.53v7.672h-.74l-.159.397c-.079.212-.265.397-.423.397h-.265v-.741zm12.17-.133v-.609l-.873-.847-.873-.847h-1.428v-1.322h.794v-13.52l-.661-.609c-.37-.344-.661-.741-.661-.926v-.291h.53v-.794h3.174v.794h.794v.794h.794v.661l.661.503c.37.265.661.609.661.714v.238h-.794v3.174h.265c.159 0 .503.238.794.529s.529.661.529.794v.265h.291c.185 0 .582.291.926.661l.609.661h1.349v.82l.37.397.397.37h2.143v.794h2.382v.714l-.476.423c-.265.265-.635.45-.794.45h-.317v.794h-.291c-.159 0-.45.185-.661.397l-.397.397H63.8l-.397-.397c-.212-.212-.503-.397-.661-.397h-.291v-.74l-.661-.159-.661-.159-.159-.661-.159-.661h-.74v-.794h-.794v7.672h-.291c-.185 0-.582.291-.926.661-.767.82-.9.82-.9.053zm15.876-.317v-.397h1.534l.317-.397c.185-.212.503-.397.688-.397h.37l.529-.529c.291-.291.529-.635.529-.794v-.265h.794v-.291c0-.37.661-1.032 1.032-1.032h.291v-.794h.794v-1.588h.794v-2.382h-.794v-.794h-2.01l-.45.529-.45.529h-.794v.53h-1.588v-.794h-1.402l-.609-.661-.582-.635-.688-.185c-1.561-.37-.423-.9 2.037-.9h1.508v-.53h2.116v-.794h1.349l.132-.397.159-.397h.979l.952-.926c.503-.529.926-1.058.926-1.191v-.265h.794v-.53h.794v-.794h.238c.106 0 .45.291.714.661l.503.661h.661v.794h.794v.794h.794v1.588h.794v2.382h-.53l-.159.661-.159.661h-.74v1.588h-.794v.291c0 .37-3.043 3.413-3.413 3.413h-.291v.794H80.7v.794h-1.588v.794h-.794v.794h-2.143l-.397.397-.397.397h-2.355v-.397Zm-43.392-1.588v-.397h-.265c-.317 0-1.323-.847-1.323-1.111 0-.291-1.535-1.799-1.852-1.799h-.265v-.794h1.218l.45-.529.45-.529v-5.82h.794v.794h.794v.794h.794v.794h.794v.53h.794v.794h.794v1.349l.397.397.397.397v3.148h-.794v.794h-.794v.794h-.794v.794H29.64v-.397zm-19.262-.714.132-.344 1.217-.079 1.244-.079v-.45l.794-.185.794-.185v-.265c0-.344 1.482-1.799 1.826-1.799h.291v-1.588h.794v-2.143l.397-.132.397-.159v-7.276l.185-.159.159-.185 1.296 1.323c.688.714 1.27 1.429 1.27 1.561v.291h.794v.794h.82l.397.397.397.397h2.355v.556l-.45.159c-.265.106-.635.317-.794.503l-.344.344v2.143H22.76v.82l-.37.397-.397.37h-.82v.794h-.53v.794h-.265c-.159 0-.741.476-1.323 1.058s-1.164 1.058-1.323 1.058h-.265v.794h-1.588v.794h-5.61l.106-.317zm23.813-9.075-.212-.423-.582-.053-.582-.026v-.688h1.322v.794h3.174v-.794h.794v.794h-.794v.794h-2.884l-.238-.397Zm38.841-2.381v-.397h-1.058l-1.032-1.058c-.556-.582-1.164-1.058-1.323-1.058h-.291v-1.588h.794v-1.588h.794v.265c0 .132.212.503.45.794l.45.529h1.218v.794h5.318l.132-.397.159-.397h1.27v1.032l-.926.952-.952.926h-1.826v.794H74.62v.794h-1.588v-.397zm-38.63-.794v-.423l1.323.079 1.323.079.079.265.053.265-1.376.079-1.402.079zm42.598-17.41v-.344l1.058-.053 1.058-.079v.82h-2.116zm-32.464-1.64c-.185-.212-.344-.503-.344-.661v-.265h-.794v-.794h-.794v-.794h-.794v-.794h-.794v1.588h-4.498v-1.588h.794v-.794h-3.704v2.382h-3.174v-.794h-.794v-.794h-.794v1.322l-.556.556-.556.556-.767-.82-.741-.82h-1.878v-.794h-.794v-.794h.794v.794h2.382v.794h.794v.265c0 .159.132.265.265.265h.265v-1.322h.794v-.794h.794v.794h.794v.794h2.382v-1.588h.53v-.794h3.968v.794h.794v.794h-.794v.794h2.91v-.794h.794v-.794h.794v.794h.794v.794h.794v.794h.794v.53h.794v.794h.53v-3.704h.794v4.498h-.714l-.741-.026-.317-.37zm39.264-.318c-.106-.079-.185-.317-.185-.529v-.344h1.296l.185.291.185.291-.37.238c-.45.265-.873.291-1.111.053m-65.537-.344v-.265h-.794v-.794h-.794v-.794h-.794v-.794h-.794v.794h-1.349l-.132-.397-.159-.397h-2.858v.794h-.794v-.794h.794v-.794h3.174v.794h1.322v-.794h.794v.794h.794v.794h.794v.794h.794v-1.588h-.794v-.794h.794v-.794h3.704v.794H18.26v.794h.794v2.91h-.794v-.265zm31.221-.661v-.397h-.794v-1.588h.794v-.794h-2.91v-.794h2.91v.794h.794v.794h-.794v1.322h.794v-.53h.37c.212 0 .423.106.476.238l.079.238 1.799.106 1.773.106v-2.276h.794v-.794h5.292v.794h.794v.794h.794v.794h-.794v-.794h-.794v-.794h-5.292v2.858l-.423.159c-.238.079-1.244.159-2.249.159H51.07v-.794h-.794v.794h-.794v-.397zm27.516-8.334v-.265h.794V2.519h.53v2.382h.794v.53h-2.116v-.265Z"/><path fill="#c86d38" d="M44.985 48.875v-.741l-.529-.45c-.291-.238-.661-.45-.794-.45h-.265v-.794h-1.322v-.265c0-.132.132-.265.265-.265h.265v-1.614l.397-.132.397-.159v-1.218l.397-.159c.212-.079.397-.265.397-.423v-.265h-6.086v-.794h-1.322l-.529-.45c-.291-.265-.529-.556-.529-.661v-.212h2.937l.132-.397.159-.397h2.064v-.794h.794v-.74l.794-.185.794-.185v-.476h.794v-.794h.794v-.794h.794v-.291c0-.185.291-.582.661-.926l.661-.609v-1.112l.397-.132.397-.159v-1.27h.794v-1.588h.794v.794h.794v.794h.794v.794h.794v1.27l.397.159.397.132v2.698l-.397.132-.397.159v.767l-.317-.053a4 4 0 0 0-.794 0l-.476.026v1.218l-.529.45c-.291.238-.661.45-.794.45h-.265v.794H47.9v.794h-.794v.794h-.794v7.408l-.45.529c-.265.291-.556.529-.661.529h-.212v-.741Zm12.17-.133v-.609l-.873-.847-.873-.847h-1.164v-.265c0-.132.132-.265.265-.265h.265V31.595l-.661-.609c-.37-.344-.661-.741-.661-.926v-.291h.53v-.794h3.174v.794h.794v.794h.794v.661l.661.503c.37.265.661.609.661.714v.238h-.794v3.174h.265c.159 0 .503.238.794.529s.529.661.529.794v.265h.291c.185 0 .582.291.926.661l.609.661h1.349v.82l.37.397.397.37h2.143v.794h2.382v.714l-.476.423c-.265.265-.635.45-.794.45h-.317v.794h-.291c-.159 0-.45.185-.661.397l-.397.397H63.8l-.397-.397c-.212-.212-.503-.397-.661-.397h-.291v-.82l-.37-.397-.397-.37h-.82v-.794h-.794v-.794h-.794v7.672h-.291c-.185 0-.582.291-.926.661-.767.82-.9.82-.9.053zm15.876-.317v-.397h1.534l.317-.397c.185-.212.503-.397.688-.397h.37l.529-.529c.291-.291.529-.635.529-.794v-.265h.794v-.291c0-.37.661-1.032 1.032-1.032h.291v-.794h.794v-1.588h.794v-2.382h-.794v-.794h-2.01l-.45.529-.45.529h-.794v.53h-1.588v-.794h-1.402l-.609-.661-.582-.635-.688-.185-.688-.159v-.476h3.995l.132-.397.159-.397h2.064v-.794h1.349l.132-.397.159-.397h.979l.952-.926c.503-.529.926-1.058.926-1.191v-.265h.794v-.53h.794v-.794h.238c.106 0 .45.291.714.661l.503.661h.661v.794h.794v.794h.794v1.588h.794v2.116h-.794v1.588h-.794v1.588h-.794v.291c0 .37-3.043 3.413-3.413 3.413h-.291v.794h-.794v.794h-1.588v.794h-1.588v.53l-.714.159c-.397.106-.9.344-1.085.556l-.344.344h-2.355v-.397zm-43.392-1.588v-.397h-.265c-.317 0-1.323-.847-1.323-1.111 0-.291-1.535-1.799-1.852-1.799h-.265v-.794h1.218l.45-.529.45-.529v-5.82h.794v.794h.794v.794h.794v.794h.794v.291c0 .159.159.45.37.661l.397.37h.82v1.588h.53v3.704h-.53v.794h-.794v.794h-.794v.794h-1.588v-.397zm-19.262-.714.132-.344 1.217-.079 1.244-.079v-.45l.794-.185.794-.185v-.265c0-.344 1.482-1.799 1.826-1.799h.291v-1.588h.794v-2.143l.397-.132.397-.159v-7.276l.185-.159.159-.185 1.296 1.323c.688.714 1.27 1.429 1.27 1.561v.291h.794v.794h.82l.397.397.397.397h2.355v.556l-.45.159c-.265.106-.635.317-.794.503l-.344.344v1.296l-.661.159-.661.159-.185.741c-.212.847-.688 1.376-1.244 1.376h-.423v.794h-.53v.794h-.265c-.159 0-.741.476-1.323 1.058s-1.164 1.058-1.323 1.058h-.265v.794H15.88v.794h-5.61l.106-.317zm54.822-14.102-.503-.661h-.661v-2.143l.503-.529.503-.556.556.556c.317.317.556.688.556.82v.265h.794v.794h.794v.794h.397c.529 0 .503.159-.132.794l-.529.529h-1.773l-.503-.661zm-31.856-2.646v-.397h.794v-.794h3.174v.794h1.032l.132.238.159.238-.423.159c-.238.079-.529.159-.661.159h-.238v-.794h-2.937l-.132.397-.159.397h-.74zM60.066 16.41v-.423l1.005.079.979.079v.53l-.979.079-1.005.079zm-41.804-2.249v-.265h-.794v-.794h-.794v-.794h-.794v-.794h-.794v.794h-1.322v-.794h1.322v-.794h.794v.794h.794v.794h.794v.794h.794v-1.588h-.794v-.794h.794v-.794h3.704v.794h-3.704v.794h.794v2.91h-.794v-.265zm8.731-1.058-.661-.767-.979-.026h-1.005v-.794h-.794v-.794h.794v.794h2.382v.794h.794v.265c0 .159.132.265.265.265h.265v-1.322h.794v-.794h.794v.794h.794v.794h2.382v-1.588h.53v2.382h-2.91v-.794h-.794v-.794h-.794v1.322l-.529.529c-.291.291-.556.529-.609.529s-.37-.344-.714-.794zm22.49.397v-.397h-.794v-1.588h.794v-.794h-2.91v-.794h2.91v.794h.794v.794h-.794v1.322h.794v-.53h.37c.212 0 .423.106.476.238l.079.238 1.799.106 1.773.106v-2.276h.794v-.794h5.292v.794h.794v.794h.794v.794h-.794v-.794h-.794v-.794h-5.292v2.382h-.794v.53H51.07v-.53h-.794v.794h-.794v-.397zm-12.965-1.191v-.794h.794v-.794h-3.704v-.794h3.704v.794h.794v.794h-.794v.794h2.91v-.794h.794v-.794h.794v.794h.794v.794h.794v.794h-.794v-.794h-.794v-.794h-.794v1.588h-4.498Z"/><path fill="#bf4474" d="M73.031 21.041v-.265h.926c.503 0 1.005 0 1.111-.026.106 0 .238.106.291.265l.106.291h-2.434Zm7.672 0v-.265h2.382v.53h-2.382zm-11.906-.794v-.265h1.322v.53h-1.322Zm5.768-.715a4.5 4.5 0 0 1 1.191 0l.582.106h-2.382zm5.874-.899-.317-.582.344-.212c.476-.291.794-.291 1.244 0l.37.212-.106.503-.079.503-.582.079-.582.079-.291-.582zm-2.778-6.588-.185-.291.132-.132.132-.159 1.164.265 1.138.265-.714.026c-.37.026-.873.106-1.085.185l-.397.132zm-6.35-1.588-.529-.238h.476l.45-.026V9.135h.53v1.588l-.185-.026c-.132 0-.45-.106-.741-.238z"/><path fill="#d3674f" d="M44.985 48.875v-.741l-.529-.45c-.291-.238-.661-.45-.794-.45h-.265v-.794h-1.322v-.265c0-.132.132-.265.265-.265h.265v-1.614l.397-.132.397-.159v-1.218l.397-.159c.212-.079.397-.265.397-.423v-.265h-6.086v-.794h-1.322l-.529-.45c-.291-.265-.529-.556-.529-.661v-.212h2.937l.132-.397.159-.397h2.064v-.794h.794v-.74l.794-.185.794-.185v-.476h.794v-.794h.794v-.794h.794v-.265c0-.132.212-.503.45-.794l.45-.529h.688v-.794h.53v-2.116h.794v-1.588h.794v.794h.794v.794h.794v.794h.794v1.322h.53v2.196l-.661.609c-.37.344-.661.741-.661.9v.265h-.794v1.218l-.529.45c-.291.238-.661.45-.794.45h-.265v.794h-.794v.794h-.794v.794h-.794v7.408l-.45.529c-.265.291-.556.529-.661.529h-.212v-.741zm12.17-.133v-.609l-.873-.847-.873-.847h-1.164v-.265c0-.132.132-.265.265-.265h.265V31.595l-.661-.609c-.37-.344-.661-.741-.661-.926v-.291h.53v-.794h3.174v.794h.794v.794h.794v.661l.661.503c.37.265.661.609.661.714v.238h-.794v3.174h.265c.159 0 .503.238.794.529s.529.661.529.794c0 .159.106.265.265.265.132 0 .503.212.794.45l.529.45v.688h.794v.53l.661.159.661.159v.476h2.382v.794h2.382v.344c0 .185-.132.476-.317.661l-.317.317h-.952v1.058h-.291c-.159 0-.45.185-.661.397l-.397.397h-2.592l-.397-.397c-.212-.212-.503-.397-.661-.397h-.291v-.82l-.37-.397-.397-.37h-.82v-.794h-.794v-.794h-.794v7.672h-.291c-.185 0-.582.291-.926.661-.767.82-.9.82-.9.053zm-46.778-2.619.132-.344 1.217-.079 1.244-.079v-.45l.794-.185.794-.185v-.265c0-.344 1.482-1.799 1.826-1.799h.291v-1.588h.794v-2.143l.397-.132.397-.159v-6.826h.265c.159 0 .344.185.423.397l.159.397h1.164l.45.529c.238.291.45.661.45.794v.265h.767l.079.741.079.714 1.931.079 1.905.079v.53l-.45.159c-.265.106-.635.317-.794.503l-.344.344v1.296l-.661.159-.661.159-.185.741c-.212.847-.688 1.376-1.244 1.376h-.423v.794h-.53v.794h-.265c-.159 0-.741.476-1.323 1.058s-1.164 1.058-1.323 1.058h-.265v.794h-1.588v.794h-5.61l.106-.317zm26.935-16.748v-.397h-2.91v-.794h2.91v.794h1.032l.132.238.159.238-.423.159c-.238.079-.529.159-.661.159h-.238zm37.332-10.901c0-.423.106-.979.212-1.244l.212-.529.159.661c.106.344.185.9.185 1.244v.582h-.794ZM49.483 13.5v-.397h-.794v-1.588h.794v-.794h-2.91v-.794h2.91v.794h.794v.794h-.794v1.322h.794v-.53h.37c.212 0 .423.106.476.238l.079.238 1.799.106 1.773.106v-2.276h.794v-.794h5.292v.794h-5.292v2.382h-.794v.53H51.07v-.53h-.794v.794h-.794v-.397zm27.516-.132v-.265h1.322v.53h-1.322zm.715-1.244a.56.56 0 0 1-.185-.397v-.212h.794v.794h-.212a.56.56 0 0 1-.397-.185m6.164-2.46V8.606h.53v1.588l.476.026h.45l-.529.238c-.291.132-.609.238-.714.238l-.212.026z"/><g fill="#dc7d3c"><path d="M44.985 48.875v-.741l-.529-.45c-.291-.238-.661-.45-.794-.45h-.265v-.794h-1.322v-.265c0-.132.132-.265.265-.265h.265v-1.614l.397-.132.397-.159v-1.218l.397-.159c.212-.079.397-.265.397-.423v-.265h-6.086v-.794h-1.322l-.529-.45c-.291-.265-.529-.556-.529-.661v-.212h2.937l.132-.397.159-.397h2.064v-.794h.794v-.74l.794-.185.794-.185v-.476h.794v-.794h.794v-.794h.794v-.265c0-.132.212-.503.45-.794l.45-.529h.688v-.794h.53v-2.116h.794v-1.588h.794v.794h.794v.794h.794v.794h.53v1.322h.794v2.196l-.661.609c-.37.344-.661.741-.661.9v.265h-.794v1.218l-.529.45c-.291.238-.661.45-.794.45h-.265v.794h-.794v.794h-.794v.794h-.794v7.408l-.45.529c-.265.291-.556.529-.661.529h-.212v-.741zm12.17-.133v-.609l-.873-.847-.873-.847h-1.164v-.265c0-.132.132-.265.265-.265h.265V31.595l-.661-.609c-.37-.344-.661-.741-.661-.926v-.291h.53v-.794h3.174v.794h.794v.794h.794v.661l.661.503c.37.265.661.609.661.714v.238h-.794v3.174h.265c.159 0 .503.238.794.529s.529.661.529.794c0 .159.106.265.265.265.132 0 .503.212.794.45l.529.45v.688h.794v.53l.661.159.661.159v.476h2.382v.794h2.382v.344c0 .185-.132.476-.317.661l-.317.317h-.952v1.058h-.794v.53h-3.704v-.53h-.794v-.82l-.37-.397-.397-.37h-.82v-.794h-.794v-.794h-.794v7.672h-.291c-.185 0-.582.291-.926.661-.767.82-.9.82-.9.053zm15.876-.317v-.397h1.534l.317-.397c.185-.212.503-.397.688-.397h.37l.529-.529c.291-.291.529-.635.529-.794v-.265h.794v-.291c0-.37.661-1.032 1.032-1.032h.291v-.794h.794v-1.588h.794v-2.382h-.794v-.794h-2.01l-.45.529-.45.529h-.794v.53h-1.588v-.794h-1.402l-.609-.661-.582-.635-.688-.185-.688-.159v-.476h3.995l.132-.397.159-.397h2.064v-.794h1.349l.132-.397.159-.397h.979l.952-.926c.503-.529.926-1.058.926-1.191v-.265h.794v-.53h.794v-.794h.238c.106 0 .45.291.714.661l.503.661h.661v.794h.794v.794h.794v1.588h.794v2.116h-.794v1.588h-.794v1.588h-.794v.53h-.794v.794h-.794v.82l-.37.397-.397.37h-.82v.794h-.53v.794H80.7v.794h-1.588v.794h-1.588v.53l-.714.159c-.397.106-.9.344-1.085.556l-.344.344h-2.355v-.397zm-43.392-1.588v-.397h-.265c-.317 0-1.323-.847-1.323-1.111 0-.291-1.535-1.799-1.852-1.799h-.265v-.794h1.218l.45-.529.45-.529v-5.82h.794v.794h.794v.794h.794v.794h.794v.794h.53l.159.661.159.661h.74v.794h.53v3.704h-.53v.794h-.794v.794h-.794v.794H29.64v-.397zm-19.262-.714.132-.344 1.217-.079 1.244-.079v-.45l.794-.185.794-.185v-.476h.794v-.794h.794v-.794h.53v-1.588h.794v-2.143l.397-.132.397-.159v-6.826h.265c.159 0 .344.185.423.397l.159.397h1.164l.45.529c.238.291.45.661.45.794v.265h.767l.079.741.079.714 1.931.079 1.905.079v.53l-.45.159c-.265.106-.635.317-.794.503l-.344.344v1.296l-.661.159-.661.159-.185.741c-.212.847-.688 1.376-1.244 1.376h-.423v.794h-.53v.794h-.265c-.159 0-.741.476-1.323 1.058s-1.164 1.058-1.323 1.058h-.265v.794H15.88v.794h-5.61l.106-.317zm23.945-8.863a.56.56 0 0 1-.185-.397v-.212h3.174v-.794h.794v.794h-.794v.794H34.48l-.159-.185z"/><path d="M62.447 34.667v-.397h-.794v-.794h-.794V31.36h.794v-.794h.794v.794h.794v.291c0 .37 1.455 1.826 1.826 1.826h.291v.794h-.53v.794h-2.382v-.397zm10.584 0v-.397h-1.058l-1.032-1.058c-.556-.582-1.164-1.058-1.323-1.058h-.291v-1.588h.794v-1.588h.794v.265c0 .132.212.503.45.794l.45.529h1.218v.794h3.043c1.667 0 3.043.053 3.043.132 0 .053-.423.529-.926 1.058l-.952.926h-1.032v.794h-1.588v.794h-1.588v-.397zm-38.63-6.086v-.397h2.91v.794h-2.91zm46.302-10.186v-.794h.794v1.588h-.794zm-70.114-1.191v-.423l1.455.079 1.455.079v.53l-1.455.079-1.455.079zm7.435-3.36-.37-.582.317-.106.291-.106v-1.534h-.794v-.794h.794v-.794h3.704v.794h-3.704v.794h.53v2.91h-.212c-.106 0-.344-.265-.556-.582m53.419.317v-.265h.794v.53h-.794zm-21.96-.661v-.397h-.794v-1.588h.794v-.794h-2.91v-.794h2.91v.794h.794v.794h-.794v1.588h.794v.794h-.794zm2.116-.132v-.265h3.174v-2.382h.794v-.794h5.292v.794h-5.292v2.382h-.794v.53h-3.174zm-15.081-1.059v-.794h.794v-.794h.794v.794h-.794v.794h2.91v-.794h.794v-.794h.794v.794h.794v.794h-.794v-.794h-.794v1.588h-4.498Zm-6.085.265v-.265h-.794v-.794h-.794v-.794h.794v.794h.794v.794h2.382v-1.588h.53v2.116h-2.91v-.265zm-20.638-.662v-.397h.794v-.794h2.91v.794h-2.91v.794h-.794zm3.969 0v-.397h1.322v.794h-1.322zm10.583 0v-.397h-.794v-.794h.794v.794h2.116v.794h-2.116zm37.306 0v-.397h-.53v-.794h.53v.794h.794v.794h-.794zm10.002-1.322-.132-.132.132-.661.106-.661h.476v1.588h-.212a.57.57 0 0 1-.37-.132z"/></g><path fill="#c66770" d="M77.528 9.293v-.661l.291-.185.291-.159.265.265.265.265-.185.556-.159.556h-.767v-.635zm-.052-1.667L77 7.52v-.503h2.116v.265c0 .159-.106.265-.238.265s-.397.053-.609.106a1.64 1.64 0 0 1-.794-.026z"/><g fill="#e78d36"><path d="M44.985 48.875v-.741l-.529-.45c-.291-.238-.661-.45-.794-.45h-.265v-.794h-1.322v-.265c0-.132.132-.265.265-.265h.265v-1.614l.397-.132.397-.159v-1.218l.397-.159.397-.132v-.82h-6.086v-.53h-1.322l-.529-.45c-.291-.265-.529-.556-.529-.661v-.212h2.937l.132-.397.159-.397h2.064v-.794h.794v-.74l.794-.185.794-.185v-.476h.794v-.794h.794v-.794h.794v-.265c0-.132.212-.503.45-.794l.45-.529h.688v-.794h.53v-2.116h.794v-1.588h.794v.794h.794v.794h.794v.794h.53v1.322h.794v2.196l-.661.609c-.37.344-.661.741-.661.9v.265h-.265c-.132 0-.503.238-.794.529l-.529.529v1.058h-.794v.794h-.794v.794h-.794v.794h-.794v7.408l-.45.529c-.265.291-.556.529-.661.529h-.212v-.741zm12.17-.133v-.609l-.873-.847-.873-.847h-.582c-.688 0-.714-.159-.185-.688l.397-.397V31.358h-.688l-.45-.529c-.238-.291-.45-.661-.45-.794v-.265h1.322v-.794h2.382v1.588h1.588v.661l.661.503c.37.265.661.609.661.714v.238h-.794v3.174h.265c.344 0 1.323.979 1.323 1.323v.265h.794v1.27l.794.185.794.185v.476l.635.159.661.159.132.37.132.37h2.143v.53l.661.159.661.159v1.006l-.45.026c-.265.026-.582.026-.714 0l-.212-.053.132.423.159.397-.132.397-.159.397h-3.652v-.53h-.794v-.423c0-.212-.159-.556-.317-.767-.767-.794-1.27-1.482-1.27-1.72v-.265h-1.588v7.672h-.291c-.185 0-.582.291-.926.661-.767.82-.9.82-.9.053zm16.854-.105a.56.56 0 0 1-.185-.397v-.212h.37c.185 0 .503-.185.688-.397s.503-.397.688-.397h.37l.529-.529c.291-.291.529-.635.529-.794v-.265h.794v-.291c0-.37.661-1.032 1.032-1.032h.291v-.74l.529-.132.529-.132v-1.376h.53v-2.382h-.794v-.794h-2.143l-.132.397-.159.397h-3.44l-.794-.794-.794-.794h-1.8v-.53h3.995l.132-.397.159-.397h2.064v-.794h1.349l.132-.397.159-.397h.582l.556-.026.661-.767.635-.794h1.218v-1.322h.794v-.794h.238c.106 0 .45.291.714.661l.503.661h.661v.794h.794v.794h.794v1.588h.53v2.116h-.53v1.588h-.794v1.588h-.794v.53h-.794v.794h-.794v.82l-.37.397-.397.37h-.82v.794h-.53v.794H80.7v.794h-1.588v.794h-1.588v.53l-.714.159c-.397.106-.9.344-1.085.556l-.344.344h-.609c-.317 0-.688-.079-.767-.185zm-44.37-2.196v-.794h-1.588v-.265c0-.344-1.508-1.852-1.852-1.852h-.265v-.794h1.191l.609-.635.582-.635V36.65h1.322v.794h.794v.794h.794v.794h.53l.159.661.159.661h.74v.794h.53v3.704h-.53v.794h-.794v.794h-.794v.794h-1.588v-.794zm-17.463-.212c0-.344 1.005-1.085 1.72-1.27l.661-.159v-.476h.794v-.794h.794v-.794h.53v-1.588h.794v-2.143l.397-.132.397-.159v-6.826h.212c.265 0 1.111 1.005 1.111 1.323v.265h1.588v.794h.767l.079.741.079.714 1.931.079 1.905.079v.53l-.45.159c-.265.106-.635.317-.794.503l-.344.344v1.296l-.661.159-.661.159v.53h-.82l-.132.397-.159.397h-.74v1.588h-1.322l-.159.714-.185.714-.767.741c-.423.397-.873.741-1.005.741h-.265v.794h-1.588v.794h-3.704v-.212Zm60.855-11.562v-.397h-1.058l-1.032-1.058c-.556-.582-1.164-1.058-1.323-1.058h-.291v-1.588h.794v-.794h1.27l.159.397.132.397h1.349v.794h3.043c1.667 0 3.043.053 3.043.132 0 .053-.423.529-.926 1.058l-.952.926h-1.032v.794h-1.588v.794h-1.588z"/><path d="m62.262 34.428-.609-.291v-.661h-.794V31.36h.794v-.794h.794v.794h.794v.291c0 .37 1.455 1.826 1.826 1.826h.291v.291c0 .185-.212.476-.45.661l-.476.344-.794-.026c-.423 0-1.058-.132-1.376-.317zm2.937-2.407-.503-.661h-.661v-2.382h2.116v.794h.794v.794h.794v.794h.397c.529 0 .503.159-.132.794l-.529.529h-1.773zM11.383 17.204v-.423l1.138.079 1.111.079v.53l-1.111.079-1.138.079zm6.641-3.36-.37-.582.317-.106.291-.106v-1.534h.53v2.91h-.212c-.106 0-.344-.265-.556-.582m27.754-1.27v-1.852h.53v3.704h-.53Zm5.821.794v-.265h3.174v.53h-3.174zm-14.816-1.191v-.661h.53v.794h3.174v.53h-3.704v-.661zm-26.194-1.058v-.397h2.91v.794h-2.91zm23.019-.794v-.397h1.296q2.143 0 2.143.556v.238h-3.44zm12.964 0v-.397h2.91v.794h-2.91zm31.221-1.058v-.661h.53v1.322h-.53Z"/></g><path fill="#eea03d" d="M44.376 47.631c-.238-.212-.529-.397-.688-.397h-.291V45.62l1.005.079.979.079v2.064l-.291.106-.317.106zm19.262-3.916c.291-.212.926-.45 1.429-.529l.873-.185-.159.423c-.079.238-.159.476-.159.529s-.556.106-1.244.106h-1.244l.503-.344zm-34.793-2.169v-.397h-.53v-4.498h1.322v.794h.794v1.058l.529.529c.291.291.661.529.794.529h.265v.794h.53v.794h-.53v.794h-3.174zm27.517 0v-.397h-.794V31.095h-1.349l-.397-.37c-.212-.212-.37-.503-.37-.661v-.291h1.322v-.794h2.382v1.588h.794v.291c0 .185.291.582.661.9l.635.609.079 2.09.079 2.064.741.079.714.079v.767h.794v1.27l.661.159c.37.106.9.37 1.191.609l.529.45v.688h-.794v.53h-2.382v-.794h-.794v-.794h-.794v-.265a.266.266 0 0 0-.265-.265h-.265v2.116H58l-.159.397-.132.397H56.36v-.397zm25.056-1.376c-.106-.079-.185-.397-.185-.661v-.476h-.53v-1.058h-2.01l-.635.794-.661.767-1.667.026h-1.693l-.794-.794-.794-.794h-.74v-.53h2.937l.132-.397.159-.397h2.037l.344-.344c.185-.185.556-.423.82-.529l.45-.159v-.556h.609l.582-.026.661-.767.635-.794h1.218v-.794h.265c.159 0 .344.185.423.397l.159.397h.74v1.588h.794v3.174h-.794v.53h-.794v.794h-.794v.794h-.344c-.212 0-.45-.079-.529-.185zm-38.815-.741v-.397h-1.588v-.794h1.588v-.794h1.588v-1.058h.53l.159-.661.159-.661h1.534v-1.588h.794v-.794h.53v-2.116h.794v-1.588h.794v1.588h.794v.794h1.322v1.322h.794v2.196l-.661.609c-.37.344-.661.741-.661.9v.265h-.265c-.132 0-.503.238-.794.529s-.529.661-.529.794v.265h-1.588v.794h-1.27l-.159.397-.132.397h-3.731v-.397Zm28.152-6.403-.635-.582v-2.672h1.27l.159.397.132.397h1.349v.794h.794v.53h1.588v.794h-.794v.74l-1.614.106-1.64.079zm-5.927-2.857v-1.191h1.322v2.382h-1.322ZM30.433 12.574v-.265h2.382v-1.588h.53v2.116h-2.91v-.265zm3.175-2.249v-.397h2.91v.794h-2.91Z"/><path fill="#efaf46" d="M74.009 48.637a.56.56 0 0 1-.185-.397v-.212h.37c.185 0 .503-.185.688-.397l.317-.397h.952l.159-.397.132-.397h1.878v-.794h1.588v-.794h.794v1.588h-1.588v.794h-1.588v.53l-.714.159c-.397.106-.9.344-1.085.556l-.344.344h-.609c-.317 0-.688-.079-.767-.185zm-29.157-1.482-.529-.714h-.926v-.794h1.878l.132.37c.079.212.106.714.053 1.111l-.079.714-.529-.688zm11.51-5.609v-.397h-.794V31.095h-1.349l-.397-.37c-.212-.212-.37-.503-.37-.661v-.291h1.322v-.794h2.382v1.588h.794v.291c0 .185.317.582.688.926l.661.635-.397.423-.423.397v2.143l.609.635.582.635h1.191v1.588h.794v.476l.661.159c.714.185 1.72.926 1.72 1.27v.212h-.794v.794H60.86v-.794h-.794v-.794h-.794v-.265a.266.266 0 0 0-.265-.265h-.265v2.116h-.74l-.159.397-.132.397h-1.349zm25.135-1.985v-.794h-.794v-.794H78.56l-.132.397-.159.397h-1.534v.794h-2.698l-.794-.794-.794-.794h-.74v-.53h2.937l.132-.397.159-.397h2.037l.344-.344c.185-.185.556-.423.82-.529l.45-.159v-.556h.609l.582-.026.661-.767.635-.794h1.218v-.794h.265c.159 0 .344.185.423.397l.159.397h.74v1.588h.794v3.174h-.794v.53h-.794v.794h-.794v.794h-.794v-.794zm-38.894-.396v-.397h-1.322v-.53h1.322v-.794h1.588v-.794h.794v-1.588h1.588v-.53h.794v-1.667l.661-.609c.37-.344.661-.741.661-.9 0-.132.106-.265.238-.265h.212l-.132-.661-.106-.661h.582v.794h.794v.794h1.322V33.5l.397.132.397.159v1.085l-.661.609c-.37.344-.661.741-.661.9v.265h-.265c-.132 0-.503.238-.794.529s-.529.661-.529.794v.265h-1.588v.53h-1.322v.794h-3.968v-.397zM71.39 32.92c-.265-.265-.476-.609-.476-.767v-.265h-.794v-2.116h1.058l.529.529c.291.291.529.661.529.794v.265h1.588v.53h1.588v.794h-.794v.794l-1.376-.026-1.402-.026-.45-.503zm-36.989-4.339v-.397h2.116v.794h-2.116zM25.009 11.78l.159-.265h1.296v.53H24.85zm-14.42-.661v-.397h2.382v.794h-2.382zm7.673-.794v-.397h3.704v.794h-3.704zm28.839 0v-.397h2.382v.794h-2.382zm8.467 0v-.397h5.292v.794h-5.292Z"/><path fill="#f5bc4b" d="M57.155 48.742v-.609l-.794-.767-.794-.767v-.952h.794v.794h2.382v1.508l-.661.714c-.794.847-.926.847-.926.079zm-27.516-2.698v-.397h-.794v-.794h3.174v.794h-.794v.794h-1.588v-.397zm-.794-4.498v-.397h-.53v-4.498h.53v.794h.794v.794h.291c.185 0 .582.291.926.661s.741.661.9.661h.265v.794h.53v.794h-.53v.794h-3.174v-.397zm27.517 0v-.397h-.794V31.095h-1.349l-.397-.37c-.212-.212-.37-.503-.37-.661v-.291h1.322v-.794h2.382v1.588h.794v.291c0 .185.317.582.688.926l.661.635-.397.423-.423.397v2.143l.609.635.582.635h1.191v1.588h.794v.476l.661.159c.714.185 1.72.926 1.72 1.27v.212h-.794v.794H60.86v-.794h-.794v-.794h-.53v-.794h-1.058v2.116l-.45.529-.45.529H56.36v-.397zm25.135-1.985v-.794h-.794v-.794H78.56l-.132.397-.159.397h-1.534v.794h-2.698l-.794-.794-.794-.794h-.74v-.53h2.937l.132-.397.159-.397h2.858v-.265c0-.132.212-.476.476-.741l.503-.503.82-.159.794-.159.317.37c.185.212.423.397.556.397h.238v-2.116h.794v-.794h.238c.132 0 .423.291.661.661l.423.635v1.085h.794v2.937l-.37.397c-.212.212-.503.37-.661.37h-.291v.794h-.794v.794h-.794v-.794z"/><path fill="#fac950" d="m12.229 46.123.132-.344 1.323-.079 1.323-.079.159.423.159.397h-3.201l.106-.317zm31.168-.079v-.397h.794v.794h-.794zM18.262 42.34v-.397h-.794v-1.588h.794v-8.466h.212c.265 0 1.111 1.005 1.111 1.323v.265h.794v.794h.794v.794h.74l.159.397.132.397h1.085l.529.529.529.529v1.006l-.397.159-.397.132v.291c0 .397-.661 1.058-1.058 1.058h-.291l-.132.397-.159.397h-.74v.794h-.794v.265c0 .132-.212.503-.45.794l-.45.529h-1.218v-.397zm10.583-.794v-.397h-.53v-4.498h.53v.794h.794v.794h.265c.344 0 1.323.847 1.323 1.138 0 .317.714.979 1.032.979h.291v.794h-.794v.794h-2.91zm27.517 0v-.397h-.794V30.565h2.382v.291c0 .185.317.582.688.926l.661.635-.397.423-.423.397v2.143l.609.635.582.635h1.191v1.588h.794v.794h1.322l.529.45c.291.265.529.556.529.661v.212h-.794v.794h-2.382v-.794h-.794v-.794h-.53v-.794h-1.058v2.116l-.45.529-.45.529h-1.218v-.397zm25.135-1.985v-.794h-.794v-.794H78.56l-.132.397-.159.397h-1.534v.794h-2.698l-.794-.794-.794-.794h-.74v-.53h2.937l.132-.397.159-.397h2.858v-.582l.767.106.767.079.529-.503.556-.476.529.185.556.159v-2.143h.794v-.794h.238c.132 0 .423.291.661.661l.423.635v1.085h.794v2.91h-.794v.794h-.53v.794h-.794v.794h-.794v-.794zm-38.894-.396v-.397h-1.322v-.53h1.322v-.794h1.588v-.794h.794v-1.588h1.588v-.53h.794v-1.667l.661-.609c.37-.344.661-.741.661-.9 0-.132.106-.265.238-.265h.212l-.132-.661-.106-.661h.582v.794h.794v.794h.53v.794h.794V33.5l.397.132.397.159v1.085l-.661.609c-.37.344-.661.741-.661.9v.265h-.265c-.132 0-.503.238-.794.529s-.529.661-.529.794v.265h-1.588v.53h-1.588v.794h-3.704v-.397zm19.05-6.694c0-.556.079-1.111.185-1.191l.159-.185.635.688.609.661v1.032h-1.588zm9.737.449c-.265-.265-.476-.609-.476-.767v-.265h-.794v-2.116h1.058l.529.529c.291.291.529.661.529.794v.265h1.588v.794h1.322v.265c0 .159-.106.265-.265.265h-.265v.794l-1.376-.026-1.402-.026-.45-.503ZM11.383 17.072v-.265h1.588v.53h-1.588z"/><path fill="#fed253" d="M29.639 46.044v-.397h-.265a.266.266 0 0 1-.265-.265v-.265h2.646v.265c0 .159-.106.265-.265.265h-.265v.794h-1.588v-.397zm48.948.132v-.265h1.322v.53h-1.322Zm-14.552-2.381v-.265h1.322v.53h-1.322zm-45.826-1.508c-.053-.873-.106-1.005-.344-1.376l-.238-.397.317-.106.317-.106v-8.414h.212c.265 0 1.111 1.005 1.111 1.323v.265h.794v.794h.794v.794h.74l.159.397.132.397h1.218l.317.979c.159.556.265 1.058.185 1.111-.053.053-.556.106-1.085.132l-1.005.026.053 1.138.053 1.111h-.767v.794h-.794v.265c0 .132-.212.503-.45.794l-.45.529H18.26l-.053-.45zm38.153-.741v-.397h-.794v-2.328l.212-.106.212-.079-.185-2.249c-.106-1.244-.212-3.043-.212-4.022l-.026-1.799h2.382v.291c0 .185.317.582.688.926l.661.635-.397.423-.423.397v2.143l.609.635c.317.344.714.635.9.635h.317l-.106.344a6.6 6.6 0 0 0-.238 1.058l-.132.714.185.026c.106 0 .794.079 1.561.132l1.376.106.556.45c.291.265.529.556.529.661v.212h-.794v.794h-2.382v-.794h-.794v-.794h-.53v-.794h-1.058v2.116l-.45.529-.45.529h-1.218v-.397zm-27.252-.133v-.265h-.794V36.65h.53v.794h.794v.794h.265c.344 0 1.323.847 1.323 1.138 0 .317.714.979 1.032.979h.291v.794h-.794v.53h-2.646zm52.387-1.852v-.794h-.794v-.794H78.56l-.132.397-.159.397h-1.534v.794h-2.698l-.794-.794-.794-.794h-.74v-.53h2.884l.291.529c.159.291.397.529.529.529h.265v-.714l.476-.423.503-.45h1.138v-.846l.767.106.767.079.529-.503.556-.476.529.185.556.159v-2.143h.794v-.794h.238c.132 0 .423.291.661.661l.423.635v1.085h.794v2.91h-.794v.794h-.53v.794h-.794v.794h-.794zm-38.894-.396v-.397h-1.322v-.53h1.322v-.794h1.376l.423.556.45.529.45-.159.45-.185-.053-.556c0-.317 0-1.032.026-1.561l.053-1.005h.794v-.53h.794v-1.667l.661-.609c.37-.344.661-.741.661-.9 0-.132.106-.265.238-.265h.212l-.132-.661-.106-.661h.582v.794h.794v.794h.53v.794h.794v1.349l.397.132.397.159v1.085l-.661.609c-.37.344-.661.741-.661.9v.265h-.265c-.344 0-1.323.979-1.323 1.323v.265h-1.588v.53h-1.588v.794h-3.704zm-7.672-2.249v-.265h1.588v.53h-1.588zm26.987-4.049v-.609l.661-.053.661-.053v1.322h-1.322v-.609zm9.472.053-.476-.503v-1.058h2.91v.794h1.322v.265c0 .159-.106.265-.265.265h-.265v.794l-1.376-.026-1.402-.026-.45-.503Zm-6.562-2.751v-1.191h.53v.794h.794v1.588H64.83v-1.191zM51.599 13.368v-.265h2.382v.53h-2.382zm-14.287-.794v-.265h3.174v.53h-3.174zm-2.778-2.117-.159-.265h2.143v.53h-1.826z"/><path fill="#fff4d8" d="m28.977 38.768-.159-.265.159-.265c.079-.132.265-.265.423-.265h.238v1.058H29.4a.5.5 0 0 1-.423-.265zm-9.921-3.308v-1.191h.794v.794h.794v1.588h-1.588zm29.633-1.587v-.397h-.794v-1.218l.529-.45c.609-.503 1.058-.582 1.058-.185v.265h.794v1.588h-.794v.794h-.794zm22.225-2.117v-.397h1.322v.794h-1.322z"/><path fill="#fefbf3" d="M19.056 35.46v-.926h.265c.159 0 .265.132.265.265v.265h.794v1.322h-1.322v-.926zm62.441-.396v-.794h1.588v1.588h-1.588zm-32.808-1.191v-.397h-.794v-1.218l.529-.45c.291-.238.661-.45.794-.45h.265v.794h.476l-.265 1.058-.265 1.058h-.74v-.397Zm7.673-1.852v-.661h-.794v-.794h1.588v.794h.794v1.322h-1.588z"/></svg>