<?xml version="1.0" encoding="UTF-8" standalone="no"?>
<!-- Created by ERK -->

<svg
   width="1200mm"
   height="440mm"
   viewBox="0 0 1200 440"
   version="1.1"
   id="svg1"
   inkscape:version="1.4 (86a8ad7, 2024-10-11)"
   sodipodi:docname="hikaru.svg"
   xmlns:inkscape="http://www.inkscape.org/namespaces/inkscape"
   xmlns:sodipodi="http://sodipodi.sourceforge.net/DTD/sodipodi-0.dtd"
   xmlns="http://www.w3.org/2000/svg"
   xmlns:svg="http://www.w3.org/2000/svg">
  <sodipodi:namedview
     id="namedview1"
     pagecolor="#ffffff"
     bordercolor="#000000"
     borderopacity="0.25"
     inkscape:showpageshadow="2"
     inkscape:pageopacity="0.0"
     inkscape:pagecheckerboard="true"
     inkscape:deskcolor="#d1d1d1"
     inkscape:document-units="mm"
     inkscape:zoom="0.41179679"
     inkscape:cx="2289.9644"
     inkscape:cy="943.42649"
     inkscape:window-width="3840"
     inkscape:window-height="2066"
     inkscape:window-x="-11"
     inkscape:window-y="-11"
     inkscape:window-maximized="1"
     inkscape:current-layer="g31" />
  <defs
     id="defs1" />
  <g
     id="g31"
     transform="matrix(0.26458333,0,0,0.26458333,92.158653,10.886409)"
     inkscape:label="Outline"
     style="display:none">
    <g
       id="g11"
       style="display:none"
       inkscape:label="OutlineOuter">
      <path
         class="st0"
         d="m 482,1538.9 c -8.2,0 -14.8,-6.6 -14.8,-14.8 V 1246.9 H 249 v 277.2 c 0,8.2 -6.6,14.8 -14.8,14.8 H 29.5 c -8.2,0 -14.8,-6.6 -14.8,-14.8 V 792.3 c 0,-8.2 6.6,-14.8 14.8,-14.8 h 204.8 c 8.2,0 14.8,6.6 14.8,14.8 v 260 H 467.5 V 792.2 c 0,-8.2 6.6,-14.8 14.8,-14.8 h 204.5 c 8.2,0 14.8,6.6 14.8,14.8 v 731.9 c 0,8.2 -6.6,14.8 -14.8,14.8 z"
         id="path1"
         style="display:inline;fill:#ffffff;stroke:none" />
      <path
         class="st0"
         d="m 686.7,792.2 v 9.8 712.3 9.7 H 677 491.8 482 v -9.7 -282.2 H 234.2 v 282.2 9.7 H 224.5 39.3 29.6 v -9.7 -712.3 -9.7 h 9.7 185.3 9.7 v 9.7 265 h 247.9 v -265.1 -9.7 h 9.7 185.2 9.6 m 0,-29.6 H 677.1 492 482.3 c -16.3,0 -29.5,13.2 -29.5,29.5 v 9.7 235.6 H 263.9 V 802 792.3 c 0,-16.3 -13.2,-29.5 -29.5,-29.5 H 224.7 39.3 29.6 C 13.2,762.7 0,776 0,792.3 v 9.7 712.3 9.7 c 0,16.3 13.2,29.5 29.5,29.5 h 9.7 185.2 9.7 c 16.3,0 29.5,-13.2 29.5,-29.5 v -9.7 -252.6 h 188.7 v 252.6 9.7 c 0,16.3 13.2,29.5 29.5,29.5 h 9.7 185.5 9.7 c 16.3,0 29.5,-13.2 29.5,-29.5 v -9.7 -712.3 -9.8 c 0.1,-16.3 -13.2,-29.6 -29.5,-29.6 z"
         id="path2"
         style="display:inline;fill:#ffffff;stroke:none" />
      <path
         class="st0"
         d="m 788.1,1538.8 c -8.2,0 -14.8,-6.6 -14.8,-14.8 V 792.2 c 0,-8.2 6.6,-14.8 14.8,-14.8 h 204.7 c 8.2,0 14.8,6.6 14.8,14.8 V 1524 c 0,8.2 -6.6,14.8 -14.8,14.8 z"
         id="path3"
         style="display:inline;fill:#ffffff;stroke:none" />
      <path
         class="st0"
         d="m 992.8,792.2 v 9.8 712.2 9.7 h -9.7 -185.2 -9.7 v -9.7 -712.3 -9.7 h 9.7 185.3 9.6 m 0,-29.6 h -9.6 -185.3 -9.7 c -16.3,0 -29.5,13.2 -29.5,29.5 v 9.7 712.3 9.7 c 0,16.3 13.2,29.5 29.5,29.5 h 9.7 185.2 9.7 c 16.3,0 29.5,-13.2 29.5,-29.5 v -9.7 -712.1 -9.8 c 0.1,-16.3 -13.2,-29.6 -29.5,-29.6 z"
         id="path4"
         style="display:inline;fill:#ffffff;stroke:none" />
      <path
         class="st0"
         d="m 1525.4,1539.1 c -4.6,0 -8.9,-2.1 -11.7,-5.8 l -3,-3.8 -196.8,-254.5 v 249.2 c 0,8.2 -6.6,14.8 -14.8,14.8 h -204.7 c -8.2,0 -14.8,-6.6 -14.8,-14.8 V 792.3 c 0,-8.2 6.6,-14.8 14.8,-14.8 h 204.7 c 8.2,0 14.8,6.6 14.8,14.8 v 233.2 l 181.6,-238.4 3,-3.9 c 2.8,-3.6 7.1,-5.8 11.7,-5.8 h 255.5 c 5.7,0 11,3.3 13.4,8.5 2.4,5.2 1.6,11.3 -2.1,15.7 l -13.6,16.1 -270.2,321.7 272.2,330.6 260.4,-676.9 2.5,-6.4 c 2.2,-5.7 7.7,-9.4 13.8,-9.4 h 215.7 c 6.1,0 11.5,3.7 13.8,9.4 0,0 2.5,6.4 2.5,6.5 l 268.3,712.3 5,13.3 c 1.7,4.5 1.1,9.6 -1.7,13.6 -2.8,4 -7.3,6.4 -12.1,6.4 h -218.7 c -6.3,0 -11.9,-4 -14,-10 l -2.3,-6.6 -150,-429.5 -154.3,429.8 -2.4,6.6 c -2.1,5.8 -7.7,9.7 -13.9,9.7 h -184.9 c -0.8,0.1 -1.6,0.2 -2.4,0.2 h -265.3 z"
         id="path5"
         style="display:inline;fill:#ffffff;stroke:none" />
      <path
         class="st0"
         d="m 2257.8,792.2 2.5,6.3 268.3,712.3 5,13.3 h -14.2 -197.5 -7 l -2.3,-6.6 -163.7,-468.9 -168.4,469 -2.4,6.5 h -6.9 -180.5 l 0.2,0.2 h -20.8 -239.9 -4.8 l -3,-3.8 -223.3,-288.7 v 282.7 9.7 h -9.7 -185.2 -9.7 v -9.7 -712.5 -9.7 h 9.7 185.2 9.7 v 9.7 267.2 l 208.2,-273.2 3,-3.8 h 4.8 229.6 21.1 l -13.6,16.1 -278.2,331.1 296.2,359.6 269.5,-700.6 2.5,-6.3 h 6.7 202.1 6.8 m 0,-29.5 h -6.8 -202.2 -6.7 c -12.2,0 -23.1,7.5 -27.5,18.8 l -2.5,6.3 c 0,0 0,0.1 -0.1,0.1 l -251.3,653.3 -248.3,-301.6 262.3,-312.3 13.6,-16.1 c 7.4,-8.8 9,-21.1 4.2,-31.5 -4.8,-10.4 -15.3,-17.1 -26.8,-17.1 h -21.1 -229.6 -4.8 c -9.2,0 -17.8,4.3 -23.4,11.5 l -3,3.8 c 0,0 -0.1,0.1 -0.1,0.1 L 1328.6,981.5 V 802 792.3 c 0,-16.3 -13.2,-29.5 -29.5,-29.5 h -9.7 -185.2 -9.7 c -16.3,0 -29.5,13.2 -29.5,29.5 v 9.7 712.4 9.7 c 0,16.3 13.2,29.5 29.5,29.5 h 9.7 185.2 9.7 c 16.3,0 29.5,-13.2 29.5,-29.5 v -9.7 -196.2 l 170.4,220.3 2.9,3.8 c 5.6,7.3 14.2,11.5 23.4,11.5 h 4.8 239.9 20.8 c 1.1,0 2.3,-0.1 3.4,-0.2 h 177 6.9 c 12.4,0 23.5,-7.8 27.8,-19.4 l 2.4,-6.5 c 0,0 0,-0.1 0,-0.1 l 140.2,-390.5 136.2,390.1 2.2,6.5 c 4.1,11.9 15.3,19.9 27.9,19.9 h 7 197.5 14.2 c 9.7,0 18.8,-4.8 24.3,-12.7 5.5,-8 6.8,-18.2 3.3,-27.2 l -5,-13.3 -268.3,-712.3 c 0,-0.1 -0.1,-0.2 -0.1,-0.3 l -2.5,-6.3 c -4.3,-11.4 -15.2,-18.9 -27.4,-18.9 z"
         id="path6"
         style="display:inline;fill:#ffffff;stroke:none" />
      <path
         class="st0"
         d="m 2933.3,1539 c -5.1,0 -9.8,-2.6 -12.5,-6.9 l -2.9,-4.5 -131.4,-205.9 V 1524 c 0,8.2 -6.6,14.8 -14.8,14.8 H 2567 c -8.2,0 -14.8,-6.6 -14.8,-14.8 V 792.2 c 0,-8.2 6.6,-14.8 14.8,-14.8 h 286.5 c 38.1,0 73.4,4.7 105,13.9 33.5,9.7 62.8,24.5 87.1,44.1 25.8,20.8 45.7,46.8 59.2,77.4 13.9,31.5 20.9,67.9 20.9,108.4 0,27 -3.8,53.1 -11.2,77.5 -7.7,25.1 -19,47.9 -33.6,67.8 -23.9,32.4 -56,56.3 -93.9,70.2 l 201.7,262.8 12.1,15.7 c 3.4,4.5 4,10.5 1.5,15.5 -2.5,5 -7.6,8.2 -13.2,8.2 h -255.8 z m -146.6,-442.2 c 31.3,-0.5 53.4,-4.5 69.2,-12.6 19.5,-10 28.2,-25.9 28.2,-51.6 0,-25.8 -8.7,-41.7 -28.2,-51.6 -15.9,-8.1 -38,-12.1 -69.2,-12.6 z"
         id="path7"
         style="display:inline;fill:#ffffff;stroke:none" />
      <path
         class="st0"
         d="m 2853.7,792.2 c 36.6,0 70.5,4.4 100.8,13.3 31.7,9.2 59.3,23.1 81.9,41.4 23.9,19.3 42.4,43.5 54.9,71.9 13.1,29.6 19.7,64.1 19.7,102.4 0,25.6 -3.5,50.2 -10.5,73.3 -7.2,23.4 -17.7,44.7 -31.4,63.3 -26.2,35.5 -62.8,60 -106.6,71.1 l 214.6,279.6 12.1,15.8 h -19.9 -230.6 -5.4 l -2.9,-4.5 -158.6,-248.6 v 243.2 9.7 h -9.7 -185.2 -9.7 v -9.7 -712.5 -9.7 h 9.7 276.8 m -81.8,319.4 h 8.2 c 37.1,0 63.4,-4.5 82.5,-14.3 24.4,-12.5 36.2,-33.7 36.2,-64.8 0,-31.2 -11.8,-52.4 -36.2,-64.8 -19.2,-9.7 -45.4,-14.3 -82.5,-14.3 h -8.2 v 158.2 m 81.8,-349 h -276.8 -9.7 c -16.3,0 -29.5,13.2 -29.5,29.5 v 9.7 712.3 9.7 c 0,16.3 13.2,29.5 29.5,29.5 h 9.7 185.2 9.7 c 16.3,0 29.5,-13.2 29.5,-29.5 v -9.7 -142 l 104.1,163.2 2.8,4.5 c 5.4,8.6 14.8,13.8 25,13.8 h 5.4 230.6 19.9 c 11.3,0 21.5,-6.4 26.5,-16.5 5,-10.1 3.8,-22.1 -3.1,-31.1 l -12.1,-15.8 -190,-247.5 c 32.7,-15.3 60.7,-38.3 82.4,-67.7 15.6,-21.3 27.7,-45.5 35.9,-72.2 0,0 0,-0.1 0,-0.1 7.8,-25.8 11.8,-53.4 11.8,-81.8 0,-42.5 -7.5,-81 -22.2,-114.3 -14.4,-32.7 -35.8,-60.6 -63.4,-82.9 -25.7,-20.8 -56.8,-36.6 -92.2,-46.8 -32.9,-9.4 -69.5,-14.3 -109,-14.3 z m -52.2,318.8 v -97.8 c 20.9,1.3 36.6,4.8 47.8,10.4 10.4,5.3 20.1,13.6 20.1,38.4 0,24.8 -9.7,33.1 -20.2,38.5 -11.1,5.7 -26.8,9.2 -47.7,10.5 z"
         id="path8"
         style="display:inline;fill:#ffffff;stroke:none" />
      <path
         class="st0"
         d="m 3488.8,1557.8 c -47.2,0 -93.6,-6.5 -134.1,-18.7 -48.5,-14.7 -88.7,-37.4 -119.4,-67.6 -35.5,-34.6 -58.6,-76.9 -70.6,-129.2 -10.4,-45.9 -11.3,-94.2 -11.3,-139.7 V 792.2 c 0,-8.2 6.6,-14.8 14.8,-14.8 h 204.7 c 8.2,0 14.8,6.6 14.8,14.8 V 1177 c 0,41.5 1.2,88.6 16,121.4 14.9,32.9 41.1,47.6 85.1,47.6 44.1,0 70.3,-14.7 85.1,-47.6 14.8,-33.1 16,-80 16,-121.5 V 792.2 c 0,-8.2 6.6,-14.8 14.8,-14.8 h 204.9 c 8.2,0 14.8,6.6 14.8,14.8 v 410.4 c 0,45.5 -0.9,93.7 -11.4,139.7 -12,52.4 -35.1,94.6 -70.7,129.3 -30.4,30 -70.5,52.7 -119.2,67.5 -40.7,12.2 -87.1,18.7 -134.3,18.7 z"
         id="path9"
         style="display:inline;fill:#ffffff;stroke:none" />
      <path
         class="st0"
         d="m 3809.5,792.2 v 9.8 400.5 c 0,44.7 -0.9,92.1 -11,136.4 -11.3,49.5 -33.1,89.4 -66.6,122 -28.8,28.5 -66.9,49.9 -113.2,64 -39.1,11.8 -84,18.1 -129.9,18.1 -45.9,0 -90.8,-6.3 -129.9,-18.1 -46.3,-14 -84.4,-35.5 -113.3,-64 -33.5,-32.6 -55.2,-72.5 -66.6,-122 -10,-44.2 -10.9,-91.6 -10.9,-136.4 v -400.6 -9.7 h 9.7 185.2 9.7 v 9.7 375.1 c 0,43 1.3,91.9 17.3,127.5 17.3,38.4 48.5,56.3 98.6,56.3 50,0 81.3,-17.9 98.6,-56.3 16,-35.6 17.3,-84.5 17.3,-127.5 v -375.1 -9.7 h 9.7 185.2 9.7 0.4 m 0,-29.6 h -0.2 -9.7 -185.2 -9.7 c -16.3,0 -29.5,13.2 -29.5,29.5 v 9.7 375.2 c 0,39.9 -1.1,85 -14.8,115.4 -6.1,13.6 -14,22.9 -24.7,29 -11.6,6.6 -27,9.9 -46.9,9.9 -19.9,0 -35.3,-3.2 -46.9,-9.9 -10.7,-6.1 -18.6,-15.4 -24.8,-29.1 -13.6,-30.2 -14.7,-75.4 -14.7,-115.4 v -375 -9.7 c 0,-16.3 -13.2,-29.5 -29.5,-29.5 h -9.7 -185.2 -9.7 c -16.3,0 -29.5,13.2 -29.5,29.5 v 9.7 400.6 c 0,46.3 0.9,95.5 11.7,142.9 12.6,55.2 37.1,99.9 74.7,136.6 32.4,31.9 74.6,55.8 125.4,71.1 41.9,12.7 89.8,19.4 138.4,19.4 48.6,0 96.5,-6.7 138.4,-19.4 0,0 0,0 0.1,0 51,-15.5 93.1,-39.4 125.3,-71.1 37.6,-36.7 62.1,-81.3 74.7,-136.5 10.9,-47.5 11.8,-96.6 11.8,-142.9 V 802 792.2 c -0.3,-16.3 -13.5,-29.6 -29.8,-29.6 z"
         id="path10"
         style="display:inline;fill:#ffffff;stroke:none" />
    </g>
    <g
       id="g20"
       style="display:inline"
       inkscape:label="OutlineInner">
      <polygon
         class="st1"
         points="487.1,1072 487.1,797.1 682,797.1 682,1519.3 487.1,1519.3 487.1,1227.3 229.4,1227.3 229.4,1519.3 34.5,1519.3 34.5,797.1 229.4,797.1 229.4,1072 "
         id="polygon11"
         style="fill:#034693;stroke:none" />
      <path
         class="st0"
         d="m 677.2,802 v 712.3 H 492 v -292 H 224.6 v 292 H 39.3 V 802 h 185.2 v 274.9 H 491.9 V 802 h 185.3 m 9.7,-9.8 H 677.2 492 482.3 v 9.7 265.1 h -248 V 802 792.3 H 224.6 39.3 29.6 v 9.7 712.3 9.7 h 9.7 185.2 9.7 v -9.7 -282.2 H 482 v 282.2 9.7 h 9.7 185.3 9.7 v -9.7 -712.3 -9.8 z"
         id="path11"
         style="fill:#ffffff;stroke:none" />
      <rect
         x="793.09998"
         y="797.09998"
         class="st1"
         width="195"
         height="722.20001"
         id="rect12"
         style="fill:#034693;stroke:none" />
      <path
         class="st0"
         d="m 983.2,802 v 712.3 H 797.9 V 802 h 185.3 m 9.7,-9.8 h -9.7 -185.3 -9.7 v 9.7 712.3 9.7 h 9.7 185.2 9.7 V 1514.2 802 Z"
         id="path12"
         style="fill:#ffffff;stroke:none" />
      <polygon
         class="st1"
         points="1294.2,1083.7 1512.7,797.1 1755.2,797.1 1467.6,1139.3 1780.5,1519.4 1527.7,1519.4 1294.2,1217.4 1294.2,1519.4 1099.2,1519.4 1099.2,797.1 1294.2,797.1 "
         id="polygon13"
         style="display:inline;fill:#034693;stroke:none" />
      <path
         class="st0"
         d="m 1744.6,802 -283.5,337.3 309,375.1 h -239.9 l -239,-309 h -1.9 v 309 H 1104.1 V 802 h 185.2 v 293.8 h 1.9 L 1515.1,802 h 229.5 m 21.1,-9.8 h -21.1 -229.6 -4.8 l -3,3.8 -208.1,273.2 V 802 792.3 h -9.7 -185.2 -9.7 v 9.7 712.4 9.7 h 9.7 185.2 9.7 v -9.7 -282.7 l 223.3,288.7 3,3.8 h 4.8 239.9 20.8 l -13.2,-16 -303.7,-368.8 278.1,-331.1 z"
         id="path13"
         style="display:inline;fill:#ffffff;stroke:none" />
      <polygon
         class="st1"
         points="1974.7,1519.3 1767.7,1519.3 2045.4,797.1 2254.4,797.1 2526.4,1519.3 2318.3,1519.3 2148.9,1034 "
         id="polygon14"
         style="fill:#034693;stroke:none" />
      <path
         class="st0"
         d="m 2251,802 268.3,712.3 H 2321.8 L 2149.9,1022 h -2 l -176.7,492.3 H 1774.7 L 2048.7,802 H 2251 m 6.8,-9.8 h -6.8 -202.2 -6.7 l -2.5,6.3 -274,712.3 -5.1,13.3 h 14.3 196.5 6.9 l 2.4,-6.5 168.4,-469 163.7,468.9 2.3,6.6 h 7 197.5 14.2 l -5,-13.3 -268.3,-712.3 z"
         id="path14"
         style="fill:#ffffff;stroke:none" />
      <path
         class="st1"
         d="M 2936.1,1519.3 2767,1254.4 v 264.9 H 2572 V 797.1 h 281.7 c 74,0 136.2,18.5 179.6,53.7 23.3,18.8 41.3,42.4 53.5,70.1 12.8,29 19.3,62.8 19.3,100.4 0,51 -14.2,97.2 -41,133.6 -26.9,36.5 -65.2,60.9 -111.2,70.9 l 225.4,293.5 H 2936.1 Z M 2780,1116.4 c 57.6,0 123.6,-9.6 123.6,-84 0,-74.4 -66.1,-84 -123.6,-84 h -13 v 167.9 z"
         id="path15"
         style="fill:#034693;stroke:none" />
      <path
         class="st0"
         d="m 2853.7,802 c 140.8,0 247.5,67 247.5,219.2 0,98.3 -54.7,183.2 -156,201.2 l 224.1,291.9 h -230.6 l -174.9,-274 h -1.9 v 274 H 2576.7 V 802 h 277 m -91.6,319.3 h 17.9 c 60.5,0 128.5,-11.3 128.5,-88.8 0,-77.5 -68,-88.8 -128.5,-88.8 h -17.9 v 177.6 m 91.6,-329.1 h -276.8 -9.7 v 9.7 712.3 9.7 h 9.7 185.2 9.7 v -9.7 -243.2 l 158.6,248.6 2.9,4.5 h 5.4 230.6 19.9 l -12.1,-15.8 -214.6,-279.6 c 43.8,-11.1 80.4,-35.5 106.6,-71.1 13.7,-18.6 24.2,-39.9 31.4,-63.3 7,-23 10.5,-47.7 10.5,-73.3 0,-38.3 -6.6,-72.8 -19.7,-102.4 -12.5,-28.4 -31,-52.6 -54.9,-71.9 -22.6,-18.3 -50.2,-32.3 -81.9,-41.4 -30.4,-8.7 -64.2,-13.1 -100.8,-13.1 z m -81.8,161.2 h 8.2 c 37.1,0 63.3,4.5 82.5,14.3 24.4,12.4 36.2,33.6 36.2,64.8 0,31.1 -11.8,52.3 -36.2,64.8 -19.1,9.7 -45.4,14.3 -82.5,14.3 h -8.2 z"
         id="path16"
         style="fill:#ffffff;stroke:none" />
      <path
         class="st1"
         d="m 3488.6,1538.2 c -45.4,0 -89.8,-6.2 -128.4,-17.9 -45.5,-13.8 -82.9,-35 -111.3,-62.8 -32.8,-31.9 -54.2,-71 -65.3,-119.5 -10,-43.7 -10.8,-90.8 -10.8,-135.3 V 797.1 h 195 v 380 c 0,43.5 1.4,92.9 17.8,129.6 17.9,39.9 51.6,59.2 103,59.2 51.4,0 85.1,-19.4 103,-59.2 16.4,-36.5 17.8,-86.1 17.8,-129.6 v -380 h 194.8 v 405.5 c 0,44.4 -0.9,91.5 -10.9,135.3 -11.1,48.5 -32.5,87.6 -65.3,119.5 -28.4,27.9 -65.8,49 -111.3,62.8 -38.3,11.8 -82.7,18 -128.1,18 z"
         id="path17"
         style="fill:#034693;stroke:none" />
      <path
         class="st0"
         d="m 3799.5,802 v 400.6 c 0,91.7 -3.8,182.3 -74.6,251.4 -59.6,58.6 -153.1,79.4 -236.2,79.4 -83.1,0 -176.7,-20.8 -236.2,-79.4 -70.9,-68.9 -74.6,-159.7 -74.6,-251.4 V 802 h 185.2 v 375.1 c 0,92.5 6.7,193.7 125.6,193.7 118.9,0 125.6,-101.1 125.6,-193.7 V 802 h 185.2 m 9.8,-9.8 h -9.7 -185.2 -9.7 v 9.7 375.1 c 0,43 -1.4,91.9 -17.3,127.5 -17.2,38.4 -48.5,56.3 -98.6,56.3 -50,0 -81.2,-17.9 -98.6,-56.3 -16,-35.6 -17.3,-84.5 -17.3,-127.5 v -375.1 -9.7 h -9.7 -185.2 -9.7 v 9.7 400.6 c 0,44.8 0.9,92.2 10.9,136.4 11.3,49.5 33.1,89.4 66.6,122 28.9,28.5 67,50 113.3,64 39.1,11.8 84,18.1 129.9,18.1 45.9,0 90.8,-6.3 129.9,-18.1 46.3,-14.1 84.4,-35.5 113.2,-64 33.5,-32.6 55.2,-72.5 66.6,-122 10.1,-44.3 11,-91.7 11,-136.4 V 802 792.2 Z"
         id="path18"
         style="fill:#ffffff;stroke:none" />
    </g>
    <g
       id="g30"
       inkscape:label="SegaOutline"
       style="display:inline">
      <path
         class="st0"
         d="M 2760,123.3 C 2737.4,51.4 2669.4,0 2591.4,0 2513.3,0 2445.5,51.4 2422.8,123.3 l -59.6,176.8 V 10.2 h -312.3 c -55.5,0 -106.8,22.6 -145.9,59.6 V 10.2 h -320.6 c -59.6,0 -113,24.7 -152.1,65.8 V 10.2 h -304.1 c -129.5,0 -236.3,106.8 -236.3,236.3 0,61.7 24.7,119.2 63.7,160.4 H 891.9 V 682.3 H 1196 c 86.2,0 160.3,-45.3 203.4,-115.1 35,67.7 104.8,115.1 187,115.1 h 322.7 v -59.6 c 37,37 88.3,59.6 145.9,59.6 h 892 z"
         id="path20"
         style="display:inline;fill:#ffffff;stroke:none" />
    </g>
  </g>
  <g
     id="g22"
     inkscape:label="HIKARU_Shadow"
     style="display:inline"
     transform="translate(-1.0583333)">
    <path
       id="polygon39"
       style="display:inline;fill:#000000;fill-opacity:0.80137;stroke-width:0.264583;stroke:none"
       class="st1"
       inkscape:label="HIKARU"
       d="m 105.732,223.08224 v 188.46292 h 49.02698 v -77.25834 h 70.74969 v 77.25834 H 274.5093 V 223.08224 h -49.02698 v 72.73406 h -70.74969 v -72.73406 z m 200.71281,0 V 411.54516 H 355.4718 V 223.08224 Z m 81.01521,0 v 188.48927 h 49.00115 v -81.75625 h 0.50228 l 63.23542,81.75625 h 63.47365 l -81.75625,-99.2451 75.00937,-89.24417 h -60.72187 l -59.24032,77.73479 h -0.50228 v -77.73479 z m 249.92531,0 -72.49584,188.46292 h 51.99063 l 46.75219,-130.25459 h 0.52917 l 45.48198,130.25459 h 52.2552 L 690.91075,223.08224 Z m 139.70002,0 v 188.46292 h 49.00112 v -72.49584 h 0.50282 l 46.27523,72.49584 h 61.01331 l -59.29352,-77.23198 c 26.80229,-4.7625 41.275,-27.22594 41.275,-53.23449 0,-40.26956 -28.23104,-57.99645 -65.48438,-57.99645 z m 159.06779,0 v 105.99198 c 0,24.26229 0.97885,48.28656 19.73781,66.51635 15.74271,15.50458 40.50752,21.00802 62.49455,21.00802 21.9869,0 46.7257,-5.50344 62.4949,-21.00802 18.7325,-18.28271 19.7378,-42.25406 19.7378,-66.51635 V 223.08224 h -49.0006 v 99.2451 c 0,24.50042 -1.7731,51.25011 -33.2321,51.25011 -31.45911,0 -33.23171,-26.77615 -33.23171,-51.25011 v -99.2451 z m -110.01396,37.49125 h 4.73615 c 16.00729,0 33.99895,2.99 33.99895,23.49521 0,20.50521 -17.99166,23.49521 -33.99895,23.49521 h -4.73615 z" />
    <path
       id="path21"
       style="display:inline;fill:#000000;fill-opacity:0.80137;stroke-width:0.264583;stroke:none"
       class="st1"
       d="m 780.44585,23.401407 c -15.74271,0 -28.81334,10.318751 -32.62334,24.473958 L 708.16137,164.23881 V 78.85797 h -59.82219 v 21.19302 h 39.15833 v 57.62646 H 638.5496 c -11.98563,0 -21.19302,-9.79 -21.19302,-21.19354 V 68.512865 c 0,-11.985625 9.78948,-21.193538 21.19302,-21.193538 h 70.14093 V 26.152661 h -70.69645 c -23.36271,0 -42.41292,19.050206 -42.41292,42.412914 v 67.971565 c 0,23.36271 19.05021,42.4124 42.41292,42.4124 h 87.52438 L 769.57158,51.182657 c 1.64042,-4.894792 5.97937,-8.149373 11.42979,-8.149373 5.45042,0 9.7894,3.254581 11.42981,8.149373 l 35.90425,106.573853 h -56.54175 v 21.14032 h 85.9105 L 813.59785,48.404532 c -4.33917,-14.128749 -17.40929,-25.003125 -33.152,-25.003125 z m -386.60948,2.724899 c -27.72833,0 -50.00624,22.304374 -50.00624,50.006249 0,27.701875 22.30437,50.006245 50.00624,50.006245 h 17.4098 c 1.64041,0 2.69853,1.08511 2.69853,2.69907 0.0265,1.64041 -1.08447,2.75125 -2.19572,2.75125 h -67.91885 v 21.19354 h 67.9452 c 13.0175,0 23.91844,-10.90094 23.91844,-23.91844 0,-13.0175 -10.90094,-23.91844 -23.91844,-23.91844 h -17.40979 c -15.76917,0 -28.8127,-13.0176 -28.8127,-28.813225 0,-15.795625 13.04353,-28.813228 28.8127,-28.813228 h 67.44239 V 26.126306 Z m 120.72959,0 c -23.36271,0 -42.41292,19.050206 -42.41292,42.412914 v 67.97156 c 0,23.36271 19.05021,42.4124 42.41292,42.4124 h 72.84 v -21.19302 h -72.84 c -11.98563,0 -21.19302,-9.78948 -21.19302,-21.19302 V 68.53922 c 0,-11.985625 9.78947,-21.193022 21.19302,-21.193022 h 72.84 V 26.126306 Z m 266.3827,21.722188 c -2.69875,0 -5.45073,2.196145 -6.53552,4.33927 L 730.91553,178.89683 h 25.00315 l 15.2404,-45.11146 v 19.05 l 0.55552,-0.0264 h 49.47708 L 787.48366,52.743285 c -1.08479,-2.69875 -3.25416,-4.894791 -6.535,-4.894791 z m -387.11229,4.365625 c -13.0175,0 -23.91791,10.900936 -23.91791,23.918436 0,13.0175 10.90041,23.918435 23.91791,23.918435 h 17.4098 c 15.76916,0 28.81323,13.01761 28.81323,28.81323 0,15.79563 -13.01761,28.81323 -28.81323,28.81323 h -67.41604 v 21.19302 h 67.9452 c 27.72834,0 50.00625,-22.30437 50.00625,-50.00625 0,-27.70187 -22.30437,-50.00625 -50.00625,-50.00625 h -17.40979 c -1.64042,0 -2.69854,-1.085102 -2.69854,-2.69906 -0.0265,-1.11125 1.08458,-2.195732 2.16937,-2.195732 h 67.97156 V 52.214119 Z m 120.70323,0 c -9.26041,0 -16.32511,7.091143 -16.32511,16.325101 v 31.53813 h 73.95105 V 78.85797 h -52.70479 c 0,-2.69875 2.19604,-4.894792 4.89479,-4.894792 h 62.52125 V 52.214119 Z m 123.42813,0 c -9.26042,0 -16.32511,7.091143 -16.32511,16.325101 v 67.97156 c 0,9.26042 7.09115,16.32459 16.32511,16.32459 h 44.05312 v -47.88959 h -33.70802 v 21.19302 h 12.515 v 4.8948 h -12.515 c -2.69875,0 -4.89479,-2.19605 -4.89479,-4.8948 V 78.328803 c 0,-2.69875 2.19604,-4.894792 4.89479,-4.894792 h 60.35135 V 52.24099 Z M 498.24138,105.5013 v 31.53865 c 0,9.26042 7.09062,16.32458 16.32458,16.32458 h 72.84 v -21.21937 h -63.07677 c -2.72521,-0.55563 -4.86844,-2.72563 -4.86844,-5.45083 h 52.73167 V 105.5013 Z m 282.20447,1.64073 7.09054,21.74855 h -14.68437 z"
       inkscape:label="SEGA" />
  </g>
  <g
     id="g48"
     inkscape:label="HIKARU"
     transform="matrix(0.26458333,0,0,0.26458333,92.158653,10.886409)"
     style="display:inline">
    <path
       id="path19"
       style="fill:#034693;stroke:none"
       class="st1"
       inkscape:label="HIKARU"
       d="M 39.300782,802.00001 V 1514.3008 H 224.59961 v -292 h 267.4004 v 292 H 677.19923 V 802.00001 H 491.9004 V 1076.9004 H 224.5 V 802.00001 Z m 758.599618,0 V 1514.3008 H 983.19923 V 802.00001 Z m 306.1992,0 v 712.40039 h 185.2012 v -309 h 1.8984 l 239,309 h 239.9004 l -309,-375.0996 283.5,-337.30079 h -229.5 l -223.9004,293.80079 h -1.8984 V 802.00001 Z m 944.5996,0 -274,712.30079 h 196.5 L 2147.9004,1022 h 2 l 171.9004,492.3008 h 197.5 L 2251,802.00001 Z m 528.0001,0 v 712.30079 h 185.2011 v -274 h 1.9004 l 174.8985,274 h 230.6015 l -224.1015,-291.9004 c 101.3,-18 156,-102.9012 156,-201.2012 0,-152.19994 -106.7,-219.19919 -247.5,-219.19919 z m 601.2011,0 v 400.59959 c 0,91.7 3.6996,182.5004 74.5996,251.4004 59.5,58.6 153.0993,79.4004 236.1993,79.4004 83.1,0 176.6011,-20.8004 236.2011,-79.4004 70.8,-69.1 74.5996,-159.7004 74.5996,-251.4004 V 802.00001 h -185.1992 v 375.09959 c 0,92.6 -6.7015,193.7012 -125.6015,193.7012 -118.9,0 -125.5996,-101.2012 -125.5996,-193.7012 V 802.00001 Z M 2762.0996,943.69923 H 2780 c 60.5,0 128.5,11.30079 128.5,88.80077 0,77.5 -68,88.8008 -128.5,88.8008 h -17.9004 z" />
    <path
       id="path22"
       style="fill:#034693;stroke:none"
       class="st1"
       d="m 2589.4004,47.300782 c -59.5,0 -108.9008,39.000001 -123.3008,92.499998 L 2316.1992,579.59962 V 256.90039 H 2090.0996 V 337 h 148 v 217.80079 h -185 c -45.3,0 -80.0996,-37.00157 -80.0996,-80.10157 V 217.80078 c 0,-45.3 36.9996,-80.10156 80.0996,-80.10156 h 265.0996 V 57.699219 H 2051 C 1962.7,57.699219 1890.6992,129.7 1890.6992,218 v 256.9004 c 0,88.3 72.0008,160.29883 160.3008,160.29883 h 330.8008 l 166.5,-482.89845 c 6.2,-18.5 22.5992,-30.80078 43.1992,-30.80078 20.6,0 36.9993,12.30078 43.1993,30.80078 l 135.7011,402.79884 h -213.7011 v 79.90039 h 324.7011 L 2714.6993,141.80078 c -16.4,-53.399997 -65.7989,-94.499998 -125.2989,-94.499998 z M 1128.1992,57.59961 c -104.8,0 -188.99997,84.3 -188.99997,189 0,104.7 84.29997,189 188.99997,189 H 1194 c 6.2,0 10.1992,4.10118 10.1992,10.20118 0.1,6.2 -4.0988,10.39843 -8.2988,10.39843 H 939.19923 v 80.10157 H 1196 c 49.2,0 90.4004,-41.20039 90.4004,-90.40039 0,-49.2 -41.2004,-90.4004 -90.4004,-90.4004 h -65.8008 c -59.6,0 -108.8984,-49.20039 -108.8984,-108.90039 0,-59.7 49.2984,-108.90039 108.8984,-108.90039 h 254.9004 V 57.59961 Z m 456.3008,0 c -88.3,0 -160.3008,72.00078 -160.3008,160.30078 v 256.9004 c 0,88.3 72.0008,160.29883 160.3008,160.29883 h 275.3008 V 555.00001 H 1584.5 c -45.3,0 -80.0996,-36.99961 -80.0996,-80.09961 V 217.90039 c 0,-45.3 36.9996,-80.09961 80.0996,-80.09961 h 275.3008 V 57.59961 Z m 1006.8008,82.09961 c -10.2,0 -20.6012,8.30039 -24.7012,16.40039 l -164.4004,478.9004 h 94.5001 l 57.6015,-170.5 v 72 l 2.0996,-0.0996 h 187 L 2616,158.19922 c -4.1,-10.2 -12.2992,-18.5 -24.6992,-18.5 z m -1463.1016,16.5 c -49.2,0 -90.3984,41.20039 -90.3984,90.40039 0,49.2 41.1984,90.40039 90.3984,90.40039 H 1194 c 59.6,0 108.9004,49.2004 108.9004,108.9004 0,59.7 -49.2004,108.90039 -108.9004,108.90039 H 939.19923 V 634.9004 H 1196 c 104.8,0 189,-84.3 189,-189 0,-104.7 -84.3,-189.00001 -189,-189.00001 h -65.8008 c -6.2,0 -10.1992,-4.10117 -10.1992,-10.20117 -0.1,-4.2 4.0992,-8.29883 8.1992,-8.29883 h 256.9004 v -82.20117 z m 456.2012,0 c -35,0 -61.7012,26.80117 -61.7012,61.70117 v 119.19922 h 279.5 V 256.90039 H 1603 c 0,-10.2 8.3,-18.5 18.5,-18.5 h 236.3008 v -82.20117 z m 466.5,0 c -35,0 -61.7012,26.80117 -61.7012,61.70117 v 256.9004 c 0,35 26.8012,61.69922 61.7012,61.69922 h 166.5 V 355.5 H 2090 v 80.09961 h 47.3008 v 18.50001 H 2090 c -10.2,0 -18.5,-8.30001 -18.5,-18.50001 V 254.90039 c 0,-10.2 8.3,-18.5 18.5,-18.5 h 228.0996 v -80.09961 z m -528.0996,201.40039 v 119.20118 c 0,35 26.7992,61.69922 61.6992,61.69922 h 275.3008 v -80.19922 h -238.4004 c -10.3,-2.1 -18.4004,-10.30157 -18.4004,-20.60157 h 199.3008 v -80.09961 z m 1066.5996,6.20118 26.7989,82.19922 h -55.5 z"
       inkscape:label="SEGA" />
  </g>
</svg>
