<!-- Created by ERK --><svg xmlns="http://www.w3.org/2000/svg" xml:space="preserve" width="2072.1" height="561.02" viewBox="0 0 2072.1 561.02"><g fill="#0000ed"><path d="M-854.11 106.68v27.932h137.03a120.6 120.6 0 0 0 77.014-27.932h-214.05z" style="paint-order:normal" transform="translate(1937.4 106.58)"/><path d="M1222.16 373.22v27.83h-194.43v-27.83zm0-53.39v27.93h-194.43v-27.93zm-55.46-213.25v27.93h-83.402v-27.93zm83.29 0v27.934h90.041a121 121 0 0 0 .885-13.918 121 121 0 0 0-.967-14.016zm-222.26-53.289v27.934h306.43a120.6 120.6 0 0 0-13.896-27.934h-292.54zm0-53.291v27.932h269.73A120.6 120.6 0 0 0 1220.333 0zm138.97 294.478h-83.402v-27.93h83.402zm83.29-134.511v.002h-166.7v27.932h237.04a120.6 120.6 0 0 0 13.832-27.934z"/></g><path d="M0 401.05v-27.83h194.43v27.83zm0-53.29v-27.93h194.43v27.93zm55.468-53.29v-27.93h83.402v27.93zm0-53.29v-27.93h83.402v27.93zm0-53.28v-27.94h83.402v27.94zm0-53.39v-27.93h83.402v27.93zM0 53.288h194.43V81.22H0zM0 0h194.43v27.932H0zm222.17 347.76H521.2a99.2 99.2 0 0 0 11.094-27.932h-310.12zm275.75-134.51H277.73v27.932h243.46c-6.34-10.698-14.165-20.107-23.277-27.932zm-220.19-53.29v27.932h220.19c9.311-7.825 17.135-17.235 23.277-27.932zM521.2 53.288H222.17V81.22h310.12c-2.575-9.905-6.339-19.314-11.093-27.932zM429.28 0H222.17v27.932H500.7A105.15 105.15 0 0 0 429.286 0zM277.73 106.58h83.3v27.932h-83.3zm166.7 27.93h87.163c2.476-8.914 3.764-18.324 3.764-27.932H444.43zm-166.7 159.96v-27.93h83.3v27.93zm166.7-27.93v27.932h90.927c0-9.608-1.288-19.017-3.764-27.932zM222.17 400.85l207.11.297c27.734 0 52.793-10.697 71.513-27.932h-278.62zm333.4.2v-27.83h138.86v27.83zm0-53.29v-27.93h138.86v27.93zm55.46-53.29v-27.93h83.4v27.93zm0-53.29v-27.93h83.4v27.93zM742.67 81.22l-9.61-27.932H555.57V81.22zm-18.42-53.288L714.64 0H555.57v27.932zM861.03 401.05v-27.83H1000v27.83zm0-53.29v-27.93H1000v27.93zm0-53.29v-27.93h83.4v27.93zm0-53.29v-27.93h83.4v27.93zm0-78.94v25.66h83.4v-27.94H785.56l-7.83 22.59-7.82-22.59H611.03v27.94h83.4v-25.66l8.82 25.66h148.97zm83.4-27.73v-27.93H803.98l-9.61 27.93zM1000 0H840.93l-9.61 27.932H1000zM787.34 373.22h-19.21l9.6 27.63zm-37.84-53.39 9.81 27.93h36.85l9.9-27.93zm-18.72-53.29 9.81 27.93h74.29l9.8-27.93zm-18.42-53.29 9.61 27.93H833.6l9.51-27.93zM611.03 106.58v27.93h150.06l-9.6-27.93zM822.4 53.288l-9.5 27.932H1000V53.288z" style="fill:#fff"/><path fill="#00f" d="M1561.7 0a200.57 200.57 0 0 0-101.67 27.932h283.03V0h-81.896v26.664A200.57 200.57 0 0 0 1561.697 0zm-135.78 53.291a200.6 200.6 0 0 0-25.141 27.934h342.29V53.291zm-41.24 53.289a200.6 200.6 0 0 0-12.119 27.934h89.82a119.4 119.4 0 0 1 25.836-27.934zm250.12 0a119.4 119.4 0 0 1 26.057 27.934h82.203V106.58zm-269.29 53.389a201 201 0 0 0-3.932 27.932h81.482a119.4 119.4 0 0 1 6.569-27.932zm295.66 0v27.932h81.896v-27.932zm-299.41 53.291a201 201 0 0 0 3.559 27.932h84.262a119.4 119.4 0 0 1-6.422-27.932zm10.77 53.28a200.6 200.6 0 0 0 12.061 27.932h103.66a119.4 119.4 0 0 1-25.92-27.932zm288.54 0a119.4 119.4 0 0 1-25.949 27.932h60.814l-34.77-27.93v-.002zm-260.35 53.29a200.6 200.6 0 0 0 24.998 27.932h271.56a200.6 200.6 0 0 0 25.316-27.932h-158.65a119 119 0 0 1-2.25.098 119 119 0 0 1-1.953-.098zm59.35 53.39a200.57 200.57 0 0 0 98.873 27.834h4.652a200.57 200.57 0 0 0 99.482-27.834z"/><path fill="green" d="M1826.3 106.58v27.934h83.4V106.58zm0 53.39v27.932h83.4V159.97zm0 53.29v27.932h83.4V213.26zm0 53.29v27.932h83.4V266.55zm0 53.28v27.932h83.4V319.83zm0 53.29v27.934h83.4V373.12zm-5.6 53.29a101.81 78.744 0 0 1-21.494 27.934h99.633a185.21 159.96 0 0 0 8.354-27.934zm-96.3 53.39v27.932h137.72a185.21 159.96 0 0 0 23.236-27.932h-160.95zm0 53.29v27.934h.01a185.21 159.96 0 0 0 104.56-27.934zm347.7-426.51a134.66 133.27 0 0 0-82.213 27.934h82.213zm-107.7 53.38a134.66 133.27 0 0 0-16.23 27.932h123.84V159.96zm-24.1 53.29a134.66 133.27 0 0 0-2.853 26.279h-.01v.26a134.66 133.27 0 0 0 0 .054 134.66 133.27 0 0 0 0 .04v1.298h83.398v-1.652h.015a51.259 51.95 0 0 1 7.29-26.279zm-2.9 53.29v27.932h83.398V266.54zm0 53.29v27.932h83.398V319.83zm0 53.29v27.934h83.398V373.12z"/></svg>