<!-- Created by ERK --><svg xmlns="http://www.w3.org/2000/svg" width="3549.333" height="585.333" viewBox="0 0 2662 439"><path d="M70.2 4.7c-.6 2.7-1.8 8.8-2.6 13.8-4.6 26.2-6.8 39.2-8.6 50-1.1 6.6-2.2 13.3-2.6 15-.3 1.6-3.2 19-6.5 38.5s-6.6 39.1-7.5 43.5c-.8 4.4-2.1 12.5-2.9 18s-2.1 13.6-2.9 18-2.6 15.6-4 25c-1.5 9.3-3.3 20.8-4.1 25.4-.8 4.7-1.1 8.9-.7 9.3.5.5 27.5.7 60.2.6l59.4-.3.8-3c.8-3 1.9-8.9 5.7-32.5 1.2-6.9 2.8-16.3 3.6-21s2.2-12.6 3-17.5c.8-5 2.6-15.8 3.9-24 1.4-8.3 6-35.7 10.1-61 4.2-25.3 9.1-55.4 11.1-67 1.9-11.5 3.7-24.2 4.1-28.2l.6-7.3H71.2zm1298-2.6c-1.9 3-13 29.2-15.7 36.9-1.2 3.6-4.9 13.2-8.3 21.5-3.3 8.2-8.5 21.5-11.5 29.5-3.1 8-9.2 23.9-13.7 35.5-4.6 11.5-9.7 24.8-11.5 29.5-3.9 10.2-11.2 28.3-13 32.5-.7 1.6-1.8 4.3-2.3 6-.6 1.6-4 10.6-7.7 20-6.6 17-17.5 46.1-17.5 47 0 .3 24.9.5 55.4.5h55.4l5.5-16.8c3-9.2 8.8-26.8 12.7-39.2 4-12.4 8-24.8 9-27.5 2.3-6.1 6.9-21.5 10.5-35 8.2-30.7 9.1-31.4 7.9-5.9-.9 18.9-.7 119.3.2 122.6.5 1.7 3.9 1.8 54.1 1.8h53.5l-.6-3.8c-.3-2-1-12-1.6-22.2s-1.5-24.6-2-32c-.6-7.4-1.7-23.4-2.5-35.5s-1.9-28.8-2.5-37c-.5-8.3-1.4-22.2-2-31s-2-27.5-3-41.5c-1.1-14-2.2-30.5-2.5-36.5-.8-14.5-1.3-19.4-2-20.6-.4-.5-28.1-.9-71.8-.9h-71.2zm478 15.6c-1.1 2.1-2.5 8.5-4.6 21.3-.9 5.2-2.5 14.7-3.6 21-1.2 6.3-3.4 19.1-5.1 28.5-2.5 14.6-3.7 20.9-6.5 34.2-.4 2.3-.5 2.3-20.9 2.3-23.4 0-21.7-.7-23.3 10.1-1.1 7.2-5 31.7-8.7 54.9-1.4 8.5-2.6 18-2.8 21l-.2 5.5 19.8.3 19.7.2v3.8c0 2-1.2 11.4-2.6 20.9-1.5 9.4-2.4 17.9-2.1 18.7.6 1.4 6.5 1.6 54.7 1.6h54l1-2.3c.5-1.2 2.3-10.6 4-20.9 1.6-10.3 3.3-19.4 3.6-20.2.5-1.4 3.5-1.6 20.9-1.6 11.2 0 20.6-.3 20.9-.8.4-.6 6.3-34.1 8.6-49.2.5-3 1.8-11.6 3-19 1.1-7.4 2.4-15.6 2.7-18.3l.6-4.7H1937l.5-2.3c.2-1.2 2-11.7 3.9-23.2 1.9-11.6 4.4-26.4 5.6-33s3.2-18.5 4.6-26.5c1.3-8 2.8-16.4 3.3-18.7.4-2.3.6-4.5.3-4.8s-24.7-.5-54.3-.5c-50.3 0-53.9.1-54.7 1.7m175.5 1.5c-.3 1.8-1.7 10-3.1 18.3-1.4 8.2-3 17.5-3.6 20.5-.5 3-1.9 11.3-3 18.5-1.1 7.1-2.3 14.5-2.6 16.2l-.5 3.3h52.5c28.9 0 52.7-.4 53-.8.6-1 4.7-24.2 8.2-46.2 1.3-8.5 3.1-19.1 3.8-23.5.8-4.4 1.2-8.3 1-8.7-.3-.5-24.1-.8-52.8-.8h-52.3zm497.8 94.2c-18 2.8-42 12.6-57.7 23.5-13.9 9.6-32.9 29.4-40.7 42.3-4.4 7.3-9.2 16.4-12.7 23.8-1.9 4.1-3.9 8.4-4.4 9.5-3.9 8.3-12.6 38.2-13.2 45l-.3 4 132.2.3c128.4.2 132.3.2 134.2-1.7 4.8-4.8 6.3-45.2 2.3-63.1-6.5-28.9-19.1-48.1-42.4-64-4.7-3.3-8.9-6-9.2-6s-3.4-1.4-6.8-3c-21-10.2-55.1-14.6-81.3-10.6m32 69.7c2.5.7 5.8 2.9 8.6 5.8 6.4 6.3 9.2 15.6 8.7 28.1-.2 6.4-.7 9.1-2 10.3-1.5 1.5-4.8 1.7-29.1 1.7-32.2 0-30.8.4-28.8-9.3 5.2-25.2 24.3-41.6 42.6-36.6m-1637.7-69c-10.1.8-17.8 2.3-26.8 5.2-3.6 1.1-6.7 2.1-7 2.2-5.3 1.2-23.5 10.5-32.7 16.6-8.1 5.5-22.2 18.9-30 28.4-5.9 7.2-13.3 18-13.3 19.4 0 .5-.4 1.1-.8 1.3-2.2.9-14.3 26.5-18.7 39.3-3.2 9.5-9.5 33.8-8.9 34.6.3.5 59.6.9 133.9.9 126.2 0 133.4-.1 133.9-1.8.3-.9 1.2-6.7 2.2-12.7 3.2-20.8.4-49.7-6.4-66-10.5-25.4-25.2-41.4-48.7-53-18.1-8.9-32.7-12.9-52.5-14.4-13.2-1-12.7-1-24.2 0m21.7 69c11.7 2.9 18.9 15.9 18.7 33.6-.2 13.4 2.6 12.3-31.6 12.3-31.8 0-30.6.2-30.6-5.3.1-3.4 3.6-13.1 7.2-19.9 5.6-10.5 15.2-18.5 25.2-20.9 4.6-1 6.2-1 11.1.2m326-69.4c-1.1.2-5.6 1.1-10 1.9-7.3 1.4-10 2.3-22 7.2-7 2.9-20.8 12.8-26.5 18.9-8 8.7-9.5 10.8-14.5 20.5-7.3 13.9-7.5 12.9-2.9-15.7 1.3-8.2 2.4-16.4 2.4-18.2V125h-104.8l-.7 2.7c-.4 1.6-2 10.2-3.5 19.3-1.6 9.1-5.2 30-8 46.5s-5.5 32.7-6 36-1.8 11.5-3 18.3c-1.1 6.7-1.8 12.7-1.5 13.2.7 1.2 106.5 1.4 108 .2.6-.4 2.3-3.4 4-6.6 8.7-17.4 26.7-29.5 53.7-36.1 5.7-1.4 14.2-2.8 19.1-3.2 4.8-.3 9.1-1.1 9.6-1.7.9-1.2 2.7-8.6 3.6-15.1.8-6.1 8.4-53.3 9.4-59 .5-2.8 1.5-9.4 2.2-14.8 1.1-8.4 1.1-10-.2-10.8-1.4-.9-4.8-1-8.4-.2M657 120c-17 2.2-33.4 7.3-46 14.2-7.3 4-15.4 9.2-17.6 11.3-.6.5-3.9 3.5-7.3 6.5-7 6.2-18 20.3-23.4 30-10.4 18.8-15.4 48.6-11.2 67 2.1 9.2 3.3 11.7 5.8 12.4 3.7 1 166.7.7 166.7-.3 0-.5-2.4-3-5.2-5.6-6.1-5.3-19.5-12.1-31.8-16-17.1-5.5-30.8-14.7-32.6-21.9-1.5-6.2 2.7-12 11.8-16.2 5.5-2.5 7.7-2.9 18-3.2 17.5-.6 34.2 3.8 52.5 13.9 4 2.1 7.8 3.9 8.6 3.9 1.8 0 2.7-4.3 2.7-12.3 0-3.4.4-11.1 1-17.1.5-6.1 1.4-19.6 2.1-30 .9-15.9.9-19.1-.3-20.2-3.3-3.4-32.1-12-49.8-15-10.5-1.8-35.3-2.6-44-1.4m1038 2.7c-14.4 1-35.7 5.8-45 10.2-11.6 5.4-25.1 15.2-39.8 28.9-16.7 15.3-30.2 33.8-40.7 55.5-6.8 13.9-13.3 32-14.2 39.8l-.6 4.9h119.1l5.6-11.5c11-22.4 25.7-32.6 47.1-32.8 9.5-.1 16.4 1.7 21.8 5.5 2 1.5 3.2 1.7 3.9 1 .6-.6 1.9-5.9 3-11.9 2.4-13.5 6.2-35.2 8.9-50.3 1.2-6.3 2.3-14 2.6-17.1.5-5.5.4-5.7-2.8-8.2-14.6-10.9-39.7-16.1-68.9-14m-1334.2 3.4c-31.7 7.7-61.1 36.7-81.7 80.6-10.1 21.5-19.4 49.5-17.8 53.6.6 1.6 4.6 1.7 52.1 1.7h51.4l1.5-3.3c.8-1.7 2.4-5.5 3.5-8.4 5.2-13.8 13.6-24.8 21.6-28.4 9-4 20.5-2.9 25.8 2.5 5.1 5 6.9 10.6 8.2 24.5l1.1 12.6 49.4.3c33 .1 49.8-.1 50.6-.8 1.6-1.3 4.4-16.8 14-75.5 4.1-25.3 7.9-48.2 8.5-50.8.5-2.7 1-5.9 1-7.3V125h-45.5c-52.3 0-46.8-1.3-48.5 11.2-1.9 13.8-3 17.8-4.9 17.8-.9 0-7.5-4-14.6-8.8-21.9-14.9-36.2-20.2-56-20.7-9.2-.2-13.8.1-19.7 1.6m1642.3 5.1c-.7 3.5-3.6 20.9-6.6 38.8s-6.6 38.8-8 46.5c-3.4 19.3-6.5 39.6-6.5 42.8v2.7h104l.9-2.3c.4-1.2 1.6-6.9 2.5-12.7s3-18.6 4.6-28.5c5.4-32.6 12.9-79.6 14.3-89.8l.6-3.7h-104.7zm121.3-4.8c-.5 1.2 1 12.9 5.1 41.1.8 5.5 2.9 20.6 4.5 33.5 5.2 39.3 7.8 56.8 9 59 1.1 2 1.9 2 48 2 25.8 0 47.1-.3 47.3-.8.4-.7.1-8.9-2.8-68.7-2.5-51-3.4-65.5-4-66.5-.4-.6-20.8-1-53.6-1-44.3 0-53.1.2-53.5 1.4m186.5 1.3c-3.2 8.2-6.3 16.7-8.9 23.8-1.5 4.4-4.5 12.5-6.5 18-3.7 9.9-8.2 22.8-22.9 64.5-4.1 11.8-7.6 22.8-7.8 24.5l-.3 3 47.5.3c26.1.1 48.5 0 49.6-.3 3-.7 4.3-3.2 17.3-32.5 6.2-14 12.1-27.3 13.1-29.5s4.4-9.9 7.5-17c3.2-7.2 10-22.4 15.1-34 5.2-11.5 9.4-21.5 9.4-22.2 0-1-11.4-1.3-56-1.3h-56zM21.6 295.6c-.6 1.5-4.9 26-6.7 38.4-.5 3.6-1.8 11.4-2.8 17.5-1 6-2.4 14.6-3.1 19-.6 4.4-1.8 11.4-2.5 15.5s-1.6 10-2 13c-.3 3-1.5 10.1-2.5 15.8-1.1 5.7-2 11.4-2 12.8v2.4l109.7-.2 109.8-.3 1.2-6c1.5-7.8 3.8-21 6.2-36.5 7-43.2 8.1-51.4 7.6-53.1-.6-1.8-2.2-1.9-49.2-1.9h-48.6l.6-5.3c.4-2.8 1.6-11 2.7-18 1.1-7.1 1.8-13.2 1.5-13.8-.4-.5-24.1-.9-60-.9-53 0-59.3.2-59.9 1.6m233.7-.4c-1.3 2-1.6 39.8-.4 50.6 3.3 29.7 15.7 58.6 31.4 72.8 16.6 15.1 39.4 21.9 61.7 18.5 15.9-2.4 37.1-11.4 51.8-21.8 7.7-5.5 9.8-5.2 8.8 1-.4 2.3-1 6.3-1.3 9l-.6 4.7h46.1c25.4 0 46.3-.3 46.5-.7.6-1.1 5.7-29.3 10.6-58.8l6-36c4.5-27.1 6.1-38.9 5.3-39.7-.4-.4-23.3-.7-50.7-.6l-49.9.3-1.2 3.5c-.7 1.9-2.6 8-4.4 13.5-3.8 12.1-8.8 21.4-14.7 27.2-6.1 6.1-11.2 8.3-19.8 8.3-12.1 0-18.8-4.8-22.2-15.8-1.7-5.4-1.9-11.9-1-32.7l.2-4-50.7-.3c-39.9-.2-50.8.1-51.5 1M588 295c0 1.9 5 4.2 19.7 9.1 27 9.1 39.7 16.8 44.8 27.4 2.1 4.3 2.6 6.3 2.1 9.1-1 5-6.5 10.6-13.8 14-6 2.8-7 2.9-19.8 2.8-13.9 0-19.8-1.1-34.4-6.3-7.8-2.7-26.6-13-34.1-18.6-3.3-2.5-6.5-4.5-7.2-4.5-1.7 0-3 4.8-5.3 19.5-1.1 7.1-3.1 19.4-4.5 27.2-3.1 17.6-5.5 35.5-4.8 36.6 1.2 1.9 23.3 11.3 37.8 16 23.7 7.7 38.7 10.1 62 10.1 20.5-.1 29.7-1.5 46.4-7 19.8-6.7 34.3-15.6 48.7-29.9 23.9-23.7 35.6-61.4 28.4-91.3-1.1-4.6-2-9.2-2-10.2s-1-2.6-2.2-3.4c-2-1.4-11.4-1.6-82-1.6-51.3 0-79.8.3-79.8 1m181.9 1.7c-1.6 3.9-.4 35.7 1.6 46.2 5.1 26.1 15.9 46.9 32.6 62.6 5.4 5 19.1 15.5 20.3 15.5.3 0 2.3 1.1 4.4 2.4 6.2 3.9 23 9.7 35.6 12.3 10.2 2 14.7 2.4 31.5 2.4 21.2 0 20.7 0 34.3-2.6 16-3 24-5.5 34.5-10.5 29.1-13.8 49.6-38.1 61.3-72.5 3.5-10.2 7.1-26.2 6.3-28.2-.4-1.1-9.2-1.3-49.1-1.1l-48.7.3-2 8c-4.1 15.4-10.9 25.1-21.3 30.2-4.8 2.3-7 2.8-13.8 2.8-7.4 0-8.4-.3-11.8-2.9-10-7.6-12.8-26.7-8.1-55.3.8-5 1.2-9.9.9-10.7-.5-1.4-6.5-1.6-54-1.6H771zm284.7-1.9c-.9 1.4-16.1 91.6-22.2 131.4l-.6 3.8h106l1.5-6.8c1.4-6.2 3.3-16.3 5.8-30.7.6-3.3 1.9-10.3 2.9-15.5s3-16.5 4.5-25c1.4-8.5 3-17.8 3.6-20.5 3.7-19.8 5.9-32.6 5.9-34.8V294h-53.4c-29.4 0-53.7.4-54 .8m496-.1c-1.2 1.2-.4 36.4 1 44.8 2.3 12.9 7.2 28.3 12.6 39 5.6 11.3 7.4 13.8 17.2 24.9 12.5 14.1 32.9 26.8 48.1 30.2 11.2 2.5 36.1 3 48 .9 14.2-2.4 29.8-8.2 38.8-14.4 6.4-4.3 5.2.6 16.2-69.3 1.4-9.1 1.9-16.8 1.2-16.8-.2 0-4.4 1.3-9.3 3-7.4 2.5-10.5 3-18.4 3-11.3 0-15.2-1-21.7-5.3-8.4-5.6-14-17.5-15.2-32.7l-.6-7.5-58.6-.3c-32.2-.1-58.9.1-59.3.5m248.4 1.5c-.5 1.3-2.1 9.3-3.4 17.8-5.7 35.5-6.6 41-8 51.1-.9 5.8-2.3 14.6-3.2 19.5-4 22.6-6.7 43.1-5.9 44.5.8 1.2 107.2 1.2 108-.1.6-1 3.8-18.8 8.1-44.5 1.3-8.3 4.3-25.8 6.5-39 5.7-33.6 8-49.5 7.3-50.6-.3-.5-23.1-.9-54.5-.9H1800zm177.1-.5c-.5 1-1.7 6.5-2.6 12.3-2.6 15.9-9.2 55.4-11.5 68.5-2.4 14.3-6.9 42.5-7.5 47.7l-.7 5.8h106.1l.6-3.3c.3-1.7 1.4-8.4 2.5-14.7s3.1-18.7 4.5-27.5 4.1-25.4 6-37c1.8-11.6 3.6-22.8 4-25 3.1-20 4.1-27.6 3.7-28-.3-.3-23.8-.5-52.3-.5-48.3 0-51.9.1-52.8 1.7m171.5 0c-.4.9-.2 3.9.3 6.7s1.4 9.1 2.1 14.1c.6 4.9 1.8 13.3 2.5 18.5 1.4 9.2 5 35.7 8 59 .9 6.3 2.2 15.3 3 20s1.7 10.2 2 12.3l.6 3.7 61.1-.2 61-.3 1.9-3.5c2.3-4.3 23.8-51.1 30.9-67.5 6.2-14.3 9.3-21.3 19.9-44.8 4.5-9.8 8.1-18.3 8.1-18.8 0-1.5-95.3-1.2-97.2.3-.8.7-3.2 6.5-5.3 12.8-2 6.3-4.1 11.9-4.6 12.4-.5.6-.9-3.9-.9-11.7 0-11.5-.2-12.7-1.9-13.7-1.3-.6-17.7-1-46.4-1-40.7 0-44.5.1-45.1 1.7m238.7-.9c-1.3.8-2.2 20.5-1.4 32.7 1.3 22.3 9.9 47.5 21.6 63.4 18.6 25.3 44.6 39.7 83.1 46.2 8.1 1.3 43.3.7 49.9-1 2.2-.5 6.6-1.2 9.8-1.5 6.9-.7 23.8-6.1 31.7-10.1 25.5-12.8 45-34.1 55.6-60.6 6-15.1 11.4-33.6 11.4-39.3 0-1.5-4.2-1.6-49.2-1.4l-49.1.3-2.1 8c-2.8 10.4-6.8 17.6-13.1 23.3-9 8.1-18.6 11-28.1 8.3-6-1.6-8.7-4.2-11.8-11.1-3.8-8.5-4.5-20.8-2.1-40.3 1-8 1.5-15.3 1.2-16.1-.6-1.4-6.4-1.6-53.4-1.6-29 0-53.4.4-54 .8m-1133.5 2.4c-.8 1.3-3.5 7.7-6.1 14.3-2.5 6.6-7.6 19.6-11.3 29-7.1 18.3-11.6 29.8-16.9 44-1.9 4.9-4.3 11.2-5.4 14-5.9 15.1-11.1 29.2-11.1 30.3 0 1 12.5 1.2 60.7 1l60.7-.3 3.2-10c1.8-5.5 6-19 9.4-30s6.6-20.6 7.2-21.3c.8-.9 10-1.2 39.6-1.2 35.1 0 38.6.2 39.7 1.7 1 1.3 1.1 8.6.7 31.5l-.5 29.8h59.1c38.1 0 59.3-.4 59.7-1 .3-.5-.1-10.8-.9-22.7-.8-12-1.7-26.8-2.1-32.8-.3-6.1-1-16.6-1.5-23.5-.6-6.9-1.5-19.9-2-29-.6-9.1-1.3-18.6-1.6-21.3l-.7-4.7h-278.5z"/><path d="m1696.233 347.345-7.333-1.797 12.347-32.706c13.852-36.69 63.809-164.774 98.725-253.118l23.043-58.302 97.177-.748 97.177-.748 1.71 17.812c1.91 19.883 17.392 246.5 20.418 298.846l1.942 33.603-69.875-.897c-38.431-.494-70.94-1.968-72.24-3.276s-2.365-43.944-2.365-94.746v-92.367l-5.088 17.957c-8.555 30.188-50.87 162.681-53.648 167.98-2.38 4.536-8.442 4.946-68.633 4.64-36.313-.186-69.324-1.145-73.357-2.133z" style="fill:red;stroke:#1a1a1a;stroke-width:2.84402" transform="scale(.75)"/><path d="M2012.488 351.458c-72.539-.973-106.612-2.084-112.545-3.672-1.29-.345-1.808-.792-2.192-1.895-1.505-4.316-2.328-45.454-2.374-118.637l-.036-56.583-2.302 7.852c-11.789 40.227-50.501 161.035-53.465 166.843-2.632 5.16-7.414 5.661-54.11 5.665-49.276.003-84.624-.991-91.417-2.573-5.893-1.371-6.967-1.697-6.967-2.113 0-2.538 73.743-192.119 129.24-332.257L1821.809.23l7.81-.3c4.296-.165 45.64-.53 91.875-.81 46.236-.282 87.012-.631 90.614-.777l6.548-.266.269 2c.769 5.718 2.36 24.656 4.183 49.807 3.907 53.901 15.11 219.603 17.314 256.122 2.197 36.386 2.681 45.285 2.48 45.612-.118.191-.981.313-1.919.272s-13.76-.236-28.495-.433zm-115.406 221.869c-.168-.273-.076-12.933.207-28.133.56-30.258.407-50.949-.393-52.864-.278-.664-.874-1.348-1.324-1.521-2.393-.918-13.431-1.173-50.522-1.166-41.797.008-52.728.298-53.843 1.426-1 1.012-3.963 9.786-12.217 36.187-9.94 31.794-14.166 45.044-14.455 45.334-.127.126-33.247.338-73.6.47-70.682.232-86.846.028-87.984-1.11-.724-.724 2.514-9.767 16.868-47.119 4.222-10.987 11.089-28.863 15.258-39.723 14.873-38.736 30.882-79.511 33.432-85.146.757-1.674 1.922-3.909 2.59-4.966l1.213-1.921h371.28l.254 1.27c.874 4.37 1.669 14.09 3.522 43.072.512 8.002 1.229 18.395 1.594 23.095.74 9.533 1.279 17.693 3.946 59.816 2.407 38.02 3.012 50.98 2.406 51.585-.903.903-20.229 1.245-88.895 1.576-48.953.236-69.12.189-69.337-.162z" style="fill:red;stroke:#1a1a1a;stroke-width:.461898" transform="scale(.75)"/></svg>