<!-- Created by ERK --><svg xmlns="http://www.w3.org/2000/svg" width="3549.333" height="585.333" viewBox="0 0 2662 439"><path d="M70.2 4.7c-.6 2.7-1.8 8.8-2.6 13.8-4.6 26.2-6.8 39.2-8.6 50-1.1 6.6-2.2 13.3-2.6 15-.3 1.6-3.2 19-6.5 38.5s-6.6 39.1-7.5 43.5c-.8 4.4-2.1 12.5-2.9 18s-2.1 13.6-2.9 18-2.6 15.6-4 25c-1.5 9.3-3.3 20.8-4.1 25.4-.8 4.7-1.1 8.9-.7 9.3.5.5 27.5.7 60.2.6l59.4-.3.8-3c.8-3 1.9-8.9 5.7-32.5 1.2-6.9 2.8-16.3 3.6-21s2.2-12.6 3-17.5c.8-5 2.6-15.8 3.9-24 1.4-8.3 6-35.7 10.1-61 4.2-25.3 9.1-55.4 11.1-67 1.9-11.5 3.7-24.2 4.1-28.2l.6-7.3H71.2zm1298-2.6c-1.9 3-13 29.2-15.7 36.9-1.2 3.6-4.9 13.2-8.3 21.5-3.3 8.2-8.5 21.5-11.5 29.5-3.1 8-9.2 23.9-13.7 35.5-4.6 11.5-9.7 24.8-11.5 29.5-3.9 10.2-11.2 28.3-13 32.5-.7 1.6-1.8 4.3-2.3 6-.6 1.6-4 10.6-7.7 20-6.6 17-17.5 46.1-17.5 47 0 .3 24.9.5 55.4.5h55.4l5.5-16.8c3-9.2 8.8-26.8 12.7-39.2 4-12.4 8-24.8 9-27.5 2.3-6.1 6.9-21.5 10.5-35 8.2-30.7 9.1-31.4 7.9-5.9-.9 18.9-.7 119.3.2 122.6.5 1.7 3.9 1.8 54.1 1.8h53.5l-.6-3.8c-.3-2-1-12-1.6-22.2s-1.5-24.6-2-32c-.6-7.4-1.7-23.4-2.5-35.5s-1.9-28.8-2.5-37c-.5-8.3-1.4-22.2-2-31s-2-27.5-3-41.5c-1.1-14-2.2-30.5-2.5-36.5-.8-14.5-1.3-19.4-2-20.6-.4-.5-28.1-.9-71.8-.9h-71.2zm478 15.6c-1.1 2.1-2.5 8.5-4.6 21.3-.9 5.2-2.5 14.7-3.6 21-1.2 6.3-3.4 19.1-5.1 28.5-2.5 14.6-3.7 20.9-6.5 34.2-.4 2.3-.5 2.3-20.9 2.3-23.4 0-21.7-.7-23.3 10.1-1.1 7.2-5 31.7-8.7 54.9-1.4 8.5-2.6 18-2.8 21l-.2 5.5 19.8.3 19.7.2v3.8c0 2-1.2 11.4-2.6 20.9-1.5 9.4-2.4 17.9-2.1 18.7.6 1.4 6.5 1.6 54.7 1.6h54l1-2.3c.5-1.2 2.3-10.6 4-20.9 1.6-10.3 3.3-19.4 3.6-20.2.5-1.4 3.5-1.6 20.9-1.6 11.2 0 20.6-.3 20.9-.8.4-.6 6.3-34.1 8.6-49.2.5-3 1.8-11.6 3-19 1.1-7.4 2.4-15.6 2.7-18.3l.6-4.7H1937l.5-2.3c.2-1.2 2-11.7 3.9-23.2 1.9-11.6 4.4-26.4 5.6-33s3.2-18.5 4.6-26.5c1.3-8 2.8-16.4 3.3-18.7.4-2.3.6-4.5.3-4.8s-24.7-.5-54.3-.5c-50.3 0-53.9.1-54.7 1.7m175.5 1.5c-.3 1.8-1.7 10-3.1 18.3-1.4 8.2-3 17.5-3.6 20.5-.5 3-1.9 11.3-3 18.5-1.1 7.1-2.3 14.5-2.6 16.2l-.5 3.3h52.5c28.9 0 52.7-.4 53-.8.6-1 4.7-24.2 8.2-46.2 1.3-8.5 3.1-19.1 3.8-23.5.8-4.4 1.2-8.3 1-8.7-.3-.5-24.1-.8-52.8-.8h-52.3zm497.8 94.2c-18 2.8-42 12.6-57.7 23.5-13.9 9.6-32.9 29.4-40.7 42.3-4.4 7.3-9.2 16.4-12.7 23.8-1.9 4.1-3.9 8.4-4.4 9.5-3.9 8.3-12.6 38.2-13.2 45l-.3 4 132.2.3c128.4.2 132.3.2 134.2-1.7 4.8-4.8 6.3-45.2 2.3-63.1-6.5-28.9-19.1-48.1-42.4-64-4.7-3.3-8.9-6-9.2-6s-3.4-1.4-6.8-3c-21-10.2-55.1-14.6-81.3-10.6m32 69.7c2.5.7 5.8 2.9 8.6 5.8 6.4 6.3 9.2 15.6 8.7 28.1-.2 6.4-.7 9.1-2 10.3-1.5 1.5-4.8 1.7-29.1 1.7-32.2 0-30.8.4-28.8-9.3 5.2-25.2 24.3-41.6 42.6-36.6m-1637.7-69c-10.1.8-17.8 2.3-26.8 5.2-3.6 1.1-6.7 2.1-7 2.2-5.3 1.2-23.5 10.5-32.7 16.6-8.1 5.5-22.2 18.9-30 28.4-5.9 7.2-13.3 18-13.3 19.4 0 .5-.4 1.1-.8 1.3-2.2.9-14.3 26.5-18.7 39.3-3.2 9.5-9.5 33.8-8.9 34.6.3.5 59.6.9 133.9.9 126.2 0 133.4-.1 133.9-1.8.3-.9 1.2-6.7 2.2-12.7 3.2-20.8.4-49.7-6.4-66-10.5-25.4-25.2-41.4-48.7-53-18.1-8.9-32.7-12.9-52.5-14.4-13.2-1-12.7-1-24.2 0m21.7 69c11.7 2.9 18.9 15.9 18.7 33.6-.2 13.4 2.6 12.3-31.6 12.3-31.8 0-30.6.2-30.6-5.3.1-3.4 3.6-13.1 7.2-19.9 5.6-10.5 15.2-18.5 25.2-20.9 4.6-1 6.2-1 11.1.2m326-69.4c-1.1.2-5.6 1.1-10 1.9-7.3 1.4-10 2.3-22 7.2-7 2.9-20.8 12.8-26.5 18.9-8 8.7-9.5 10.8-14.5 20.5-7.3 13.9-7.5 12.9-2.9-15.7 1.3-8.2 2.4-16.4 2.4-18.2V125h-104.8l-.7 2.7c-.4 1.6-2 10.2-3.5 19.3-1.6 9.1-5.2 30-8 46.5s-5.5 32.7-6 36-1.8 11.5-3 18.3c-1.1 6.7-1.8 12.7-1.5 13.2.7 1.2 106.5 1.4 108 .2.6-.4 2.3-3.4 4-6.6 8.7-17.4 26.7-29.5 53.7-36.1 5.7-1.4 14.2-2.8 19.1-3.2 4.8-.3 9.1-1.1 9.6-1.7.9-1.2 2.7-8.6 3.6-15.1.8-6.1 8.4-53.3 9.4-59 .5-2.8 1.5-9.4 2.2-14.8 1.1-8.4 1.1-10-.2-10.8-1.4-.9-4.8-1-8.4-.2M657 120c-17 2.2-33.4 7.3-46 14.2-7.3 4-15.4 9.2-17.6 11.3-.6.5-3.9 3.5-7.3 6.5-7 6.2-18 20.3-23.4 30-10.4 18.8-15.4 48.6-11.2 67 2.1 9.2 3.3 11.7 5.8 12.4 3.7 1 166.7.7 166.7-.3 0-.5-2.4-3-5.2-5.6-6.1-5.3-19.5-12.1-31.8-16-17.1-5.5-30.8-14.7-32.6-21.9-1.5-6.2 2.7-12 11.8-16.2 5.5-2.5 7.7-2.9 18-3.2 17.5-.6 34.2 3.8 52.5 13.9 4 2.1 7.8 3.9 8.6 3.9 1.8 0 2.7-4.3 2.7-12.3 0-3.4.4-11.1 1-17.1.5-6.1 1.4-19.6 2.1-30 .9-15.9.9-19.1-.3-20.2-3.3-3.4-32.1-12-49.8-15-10.5-1.8-35.3-2.6-44-1.4m1038 2.7c-14.4 1-35.7 5.8-45 10.2-11.6 5.4-25.1 15.2-39.8 28.9-16.7 15.3-30.2 33.8-40.7 55.5-6.8 13.9-13.3 32-14.2 39.8l-.6 4.9h119.1l5.6-11.5c11-22.4 25.7-32.6 47.1-32.8 9.5-.1 16.4 1.7 21.8 5.5 2 1.5 3.2 1.7 3.9 1 .6-.6 1.9-5.9 3-11.9 2.4-13.5 6.2-35.2 8.9-50.3 1.2-6.3 2.3-14 2.6-17.1.5-5.5.4-5.7-2.8-8.2-14.6-10.9-39.7-16.1-68.9-14m-1334.2 3.4c-31.7 7.7-61.1 36.7-81.7 80.6-10.1 21.5-19.4 49.5-17.8 53.6.6 1.6 4.6 1.7 52.1 1.7h51.4l1.5-3.3c.8-1.7 2.4-5.5 3.5-8.4 5.2-13.8 13.6-24.8 21.6-28.4 9-4 20.5-2.9 25.8 2.5 5.1 5 6.9 10.6 8.2 24.5l1.1 12.6 49.4.3c33 .1 49.8-.1 50.6-.8 1.6-1.3 4.4-16.8 14-75.5 4.1-25.3 7.9-48.2 8.5-50.8.5-2.7 1-5.9 1-7.3V125h-45.5c-52.3 0-46.8-1.3-48.5 11.2-1.9 13.8-3 17.8-4.9 17.8-.9 0-7.5-4-14.6-8.8-21.9-14.9-36.2-20.2-56-20.7-9.2-.2-13.8.1-19.7 1.6m1642.3 5.1c-.7 3.5-3.6 20.9-6.6 38.8s-6.6 38.8-8 46.5c-3.4 19.3-6.5 39.6-6.5 42.8v2.7h104l.9-2.3c.4-1.2 1.6-6.9 2.5-12.7s3-18.6 4.6-28.5c5.4-32.6 12.9-79.6 14.3-89.8l.6-3.7h-104.7zm121.3-4.8c-.5 1.2 1 12.9 5.1 41.1.8 5.5 2.9 20.6 4.5 33.5 5.2 39.3 7.8 56.8 9 59 1.1 2 1.9 2 48 2 25.8 0 47.1-.3 47.3-.8.4-.7.1-8.9-2.8-68.7-2.5-51-3.4-65.5-4-66.5-.4-.6-20.8-1-53.6-1-44.3 0-53.1.2-53.5 1.4m186.5 1.3c-3.2 8.2-6.3 16.7-8.9 23.8-1.5 4.4-4.5 12.5-6.5 18-3.7 9.9-8.2 22.8-22.9 64.5-4.1 11.8-7.6 22.8-7.8 24.5l-.3 3 47.5.3c26.1.1 48.5 0 49.6-.3 3-.7 4.3-3.2 17.3-32.5 6.2-14 12.1-27.3 13.1-29.5s4.4-9.9 7.5-17c3.2-7.2 10-22.4 15.1-34 5.2-11.5 9.4-21.5 9.4-22.2 0-1-11.4-1.3-56-1.3h-56zM21.6 295.6c-.6 1.5-4.9 26-6.7 38.4-.5 3.6-1.8 11.4-2.8 17.5-1 6-2.4 14.6-3.1 19-.6 4.4-1.8 11.4-2.5 15.5s-1.6 10-2 13c-.3 3-1.5 10.1-2.5 15.8-1.1 5.7-2 11.4-2 12.8v2.4l109.7-.2 109.8-.3 1.2-6c1.5-7.8 3.8-21 6.2-36.5 7-43.2 8.1-51.4 7.6-53.1-.6-1.8-2.2-1.9-49.2-1.9h-48.6l.6-5.3c.4-2.8 1.6-11 2.7-18 1.1-7.1 1.8-13.2 1.5-13.8-.4-.5-24.1-.9-60-.9-53 0-59.3.2-59.9 1.6m233.7-.4c-1.3 2-1.6 39.8-.4 50.6 3.3 29.7 15.7 58.6 31.4 72.8 16.6 15.1 39.4 21.9 61.7 18.5 15.9-2.4 37.1-11.4 51.8-21.8 7.7-5.5 9.8-5.2 8.8 1-.4 2.3-1 6.3-1.3 9l-.6 4.7h46.1c25.4 0 46.3-.3 46.5-.7.6-1.1 5.7-29.3 10.6-58.8l6-36c4.5-27.1 6.1-38.9 5.3-39.7-.4-.4-23.3-.7-50.7-.6l-49.9.3-1.2 3.5c-.7 1.9-2.6 8-4.4 13.5-3.8 12.1-8.8 21.4-14.7 27.2-6.1 6.1-11.2 8.3-19.8 8.3-12.1 0-18.8-4.8-22.2-15.8-1.7-5.4-1.9-11.9-1-32.7l.2-4-50.7-.3c-39.9-.2-50.8.1-51.5 1M588 295c0 1.9 5 4.2 19.7 9.1 27 9.1 39.7 16.8 44.8 27.4 2.1 4.3 2.6 6.3 2.1 9.1-1 5-6.5 10.6-13.8 14-6 2.8-7 2.9-19.8 2.8-13.9 0-19.8-1.1-34.4-6.3-7.8-2.7-26.6-13-34.1-18.6-3.3-2.5-6.5-4.5-7.2-4.5-1.7 0-3 4.8-5.3 19.5-1.1 7.1-3.1 19.4-4.5 27.2-3.1 17.6-5.5 35.5-4.8 36.6 1.2 1.9 23.3 11.3 37.8 16 23.7 7.7 38.7 10.1 62 10.1 20.5-.1 29.7-1.5 46.4-7 19.8-6.7 34.3-15.6 48.7-29.9 23.9-23.7 35.6-61.4 28.4-91.3-1.1-4.6-2-9.2-2-10.2s-1-2.6-2.2-3.4c-2-1.4-11.4-1.6-82-1.6-51.3 0-79.8.3-79.8 1m181.9 1.7c-1.6 3.9-.4 35.7 1.6 46.2 5.1 26.1 15.9 46.9 32.6 62.6 5.4 5 19.1 15.5 20.3 15.5.3 0 2.3 1.1 4.4 2.4 6.2 3.9 23 9.7 35.6 12.3 10.2 2 14.7 2.4 31.5 2.4 21.2 0 20.7 0 34.3-2.6 16-3 24-5.5 34.5-10.5 29.1-13.8 49.6-38.1 61.3-72.5 3.5-10.2 7.1-26.2 6.3-28.2-.4-1.1-9.2-1.3-49.1-1.1l-48.7.3-2 8c-4.1 15.4-10.9 25.1-21.3 30.2-4.8 2.3-7 2.8-13.8 2.8-7.4 0-8.4-.3-11.8-2.9-10-7.6-12.8-26.7-8.1-55.3.8-5 1.2-9.9.9-10.7-.5-1.4-6.5-1.6-54-1.6H771zm284.7-1.9c-.9 1.4-16.1 91.6-22.2 131.4l-.6 3.8h106l1.5-6.8c1.4-6.2 3.3-16.3 5.8-30.7.6-3.3 1.9-10.3 2.9-15.5s3-16.5 4.5-25c1.4-8.5 3-17.8 3.6-20.5 3.7-19.8 5.9-32.6 5.9-34.8V294h-53.4c-29.4 0-53.7.4-54 .8m496-.1c-1.2 1.2-.4 36.4 1 44.8 2.3 12.9 7.2 28.3 12.6 39 5.6 11.3 7.4 13.8 17.2 24.9 12.5 14.1 32.9 26.8 48.1 30.2 11.2 2.5 36.1 3 48 .9 14.2-2.4 29.8-8.2 38.8-14.4 6.4-4.3 5.2.6 16.2-69.3 1.4-9.1 1.9-16.8 1.2-16.8-.2 0-4.4 1.3-9.3 3-7.4 2.5-10.5 3-18.4 3-11.3 0-15.2-1-21.7-5.3-8.4-5.6-14-17.5-15.2-32.7l-.6-7.5-58.6-.3c-32.2-.1-58.9.1-59.3.5m248.4 1.5c-.5 1.3-2.1 9.3-3.4 17.8-5.7 35.5-6.6 41-8 51.1-.9 5.8-2.3 14.6-3.2 19.5-4 22.6-6.7 43.1-5.9 44.5.8 1.2 107.2 1.2 108-.1.6-1 3.8-18.8 8.1-44.5 1.3-8.3 4.3-25.8 6.5-39 5.7-33.6 8-49.5 7.3-50.6-.3-.5-23.1-.9-54.5-.9H1800zm177.1-.5c-.5 1-1.7 6.5-2.6 12.3-2.6 15.9-9.2 55.4-11.5 68.5-2.4 14.3-6.9 42.5-7.5 47.7l-.7 5.8h106.1l.6-3.3c.3-1.7 1.4-8.4 2.5-14.7s3.1-18.7 4.5-27.5 4.1-25.4 6-37c1.8-11.6 3.6-22.8 4-25 3.1-20 4.1-27.6 3.7-28-.3-.3-23.8-.5-52.3-.5-48.3 0-51.9.1-52.8 1.7m171.5 0c-.4.9-.2 3.9.3 6.7s1.4 9.1 2.1 14.1c.6 4.9 1.8 13.3 2.5 18.5 1.4 9.2 5 35.7 8 59 .9 6.3 2.2 15.3 3 20s1.7 10.2 2 12.3l.6 3.7 61.1-.2 61-.3 1.9-3.5c2.3-4.3 23.8-51.1 30.9-67.5 6.2-14.3 9.3-21.3 19.9-44.8 4.5-9.8 8.1-18.3 8.1-18.8 0-1.5-95.3-1.2-97.2.3-.8.7-3.2 6.5-5.3 12.8-2 6.3-4.1 11.9-4.6 12.4-.5.6-.9-3.9-.9-11.7 0-11.5-.2-12.7-1.9-13.7-1.3-.6-17.7-1-46.4-1-40.7 0-44.5.1-45.1 1.7m238.7-.9c-1.3.8-2.2 20.5-1.4 32.7 1.3 22.3 9.9 47.5 21.6 63.4 18.6 25.3 44.6 39.7 83.1 46.2 8.1 1.3 43.3.7 49.9-1 2.2-.5 6.6-1.2 9.8-1.5 6.9-.7 23.8-6.1 31.7-10.1 25.5-12.8 45-34.1 55.6-60.6 6-15.1 11.4-33.6 11.4-39.3 0-1.5-4.2-1.6-49.2-1.4l-49.1.3-2.1 8c-2.8 10.4-6.8 17.6-13.1 23.3-9 8.1-18.6 11-28.1 8.3-6-1.6-8.7-4.2-11.8-11.1-3.8-8.5-4.5-20.8-2.1-40.3 1-8 1.5-15.3 1.2-16.1-.6-1.4-6.4-1.6-53.4-1.6-29 0-53.4.4-54 .8m-1133.5 2.4c-.8 1.3-3.5 7.7-6.1 14.3-2.5 6.6-7.6 19.6-11.3 29-7.1 18.3-11.6 29.8-16.9 44-1.9 4.9-4.3 11.2-5.4 14-5.9 15.1-11.1 29.2-11.1 30.3 0 1 12.5 1.2 60.7 1l60.7-.3 3.2-10c1.8-5.5 6-19 9.4-30s6.6-20.6 7.2-21.3c.8-.9 10-1.2 39.6-1.2 35.1 0 38.6.2 39.7 1.7 1 1.3 1.1 8.6.7 31.5l-.5 29.8h59.1c38.1 0 59.3-.4 59.7-1 .3-.5-.1-10.8-.9-22.7-.8-12-1.7-26.8-2.1-32.8-.3-6.1-1-16.6-1.5-23.5-.6-6.9-1.5-19.9-2-29-.6-9.1-1.3-18.6-1.6-21.3l-.7-4.7h-278.5z"/><path d="m1696.233 347.345-7.333-1.797 12.347-32.706c13.852-36.69 63.809-164.774 98.725-253.118l23.043-58.302 97.177-.748 97.177-.748 1.71 17.812c1.91 19.883 17.392 246.5 20.418 298.846l1.942 33.603-69.875-.897c-38.431-.494-70.94-1.968-72.24-3.276s-2.365-43.944-2.365-94.746v-92.367l-5.088 17.957c-8.555 30.188-50.87 162.681-53.648 167.98-2.38 4.536-8.442 4.946-68.633 4.64-36.313-.186-69.324-1.145-73.357-2.133z" style="fill:red;stroke:#1a1a1a;stroke-width:2.84402" transform="scale(.75)"/><path d="M2012.488 351.458c-72.539-.973-106.612-2.084-112.545-3.672-1.29-.345-1.808-.792-2.192-1.895-1.505-4.316-2.328-45.454-2.374-118.637l-.036-56.583-2.302 7.852c-11.789 40.227-50.501 161.035-53.465 166.843-2.632 5.16-7.414 5.661-54.11 5.665-49.276.003-84.624-.991-91.417-2.573-5.893-1.371-6.967-1.697-6.967-2.113 0-2.538 73.743-192.119 129.24-332.257L1821.809.23l7.81-.3c4.296-.165 45.64-.53 91.875-.81 46.236-.282 87.012-.631 90.614-.777l6.548-.266.269 2c.769 5.718 2.36 24.656 4.183 49.807 3.907 53.901 15.11 219.603 17.314 256.122 2.197 36.386 2.681 45.285 2.48 45.612-.118.191-.981.313-1.919.272s-13.76-.236-28.495-.433zm-115.406 221.869c-.168-.273-.076-12.933.207-28.133.56-30.258.407-50.949-.393-52.864-.278-.664-.874-1.348-1.324-1.521-2.393-.918-13.431-1.173-50.522-1.166-41.797.008-52.728.298-53.843 1.426-1 1.012-3.963 9.786-12.217 36.187-9.94 31.794-14.166 45.044-14.455 45.334-.127.126-33.247.338-73.6.47-70.682.232-86.846.028-87.984-1.11-.724-.724 2.514-9.767 16.868-47.119 4.222-10.987 11.089-28.863 15.258-39.723 14.873-38.736 30.882-79.511 33.432-85.146.757-1.674 1.922-3.909 2.59-4.966l1.213-1.921h371.28l.254 1.27c.874 4.37 1.669 14.09 3.522 43.072.512 8.002 1.229 18.395 1.594 23.095.74 9.533 1.279 17.693 3.946 59.816 2.407 38.02 3.012 50.98 2.406 51.585-.903.903-20.229 1.245-88.895 1.576-48.953.236-69.12.189-69.337-.162z" style="fill:red;stroke:#1a1a1a;stroke-width:.461898" transform="scale(.75)"/><path d="M-.992 572.814c0-.839 21.988-137.547 25.94-161.277 1.3-7.807 3.108-15.398 4.018-16.87 1.343-2.171 16.418-2.676 79.96-2.676 43.068 0 78.846.541 79.507 1.203.661.661-.158 10.257-1.82 21.323s-3.022 21.9-3.022 24.076c0 3.857 1.576 3.968 64.009 4.478l64.008.524-.336 11.909c-.301 10.7-15.033 106.096-17.7 114.62-1.022 3.267-9.811 3.473-147.825 3.473-80.707 0-146.74-.352-146.74-.783zm37.71-227.966c0-8.391 49.578-306.047 55.868-335.42L94.606 0h159.692l-1.775 15.382c-1.776 15.395-49.219 303.874-53.205 323.517l-2.115 10.42H36.718Zm312.256 1.31c-1.878-4.894 2.523-21.22 12.522-46.458 17.388-43.884 35.708-72.664 62.463-98.124 30.587-29.108 59.035-39.63 94.417-34.921 21.635 2.879 34.214 7.997 61.026 24.827 11.95 7.502 22.09 12.642 23.048 11.683.941-.941 2.768-8.41 4.06-16.597 1.37-8.67 3.642-15.922 5.442-17.367 2.318-1.86 17.896-2.48 62.255-2.48 56.921 0 59.164.143 59.164 3.792 0 5.619-25.386 156.326-28.28 167.89l-2.484 9.923-66.89.523-66.892.522-.906-6.476c-5.018-35.861-6.995-41.193-17.338-46.752-6.977-3.75-26.39-2.088-32.965 2.821-8.973 6.7-16.242 17.14-23.4 33.606l-6.849 15.756-68.58.522c-61.66.47-68.705.198-69.813-2.69zm70.804 233.62c-17.806-5.757-28-11.972-40.694-24.814-18.61-18.825-31.605-47.163-37.768-82.354-3.262-18.623-3.941-72.942-.971-77.642 1.549-2.451 9.168-3.102 43.138-3.685 22.691-.39 53.009-.08 67.372.69l26.116 1.398-.289 23.129c-.248 19.83.274 24.09 3.656 29.866 6.698 11.44 13.443 15.097 27.775 15.056 11.089-.032 13.522-.773 20.191-6.147 10.275-8.282 17.986-21.277 25.55-43.057l6.335-18.242 18.613-1.578c21.71-1.84 113.941-1.009 115.995 1.046.769.768-.167 11.92-2.08 24.782-4.395 29.558-24.544 147.26-26.003 151.898-1.01 3.21-5.769 3.473-62.77 3.473h-61.676l1.245-11.908c.816-7.814.525-11.909-.849-11.909-1.151 0-8.619 3.961-16.595 8.803-16.874 10.243-34.163 17.824-50.143 21.986-15.42 4.017-42.456 3.636-56.148-.79zm318.116-237.902c-4.677-10.832-5.634-40.192-1.9-58.253 4.399-21.267 10.286-35.71 21.2-52.008 36.681-54.78 100.162-80.952 171.676-70.779 19.721 2.806 51.721 11.24 64.293 16.945l10.703 4.858-1.199 15.361c-.66 8.45-2.287 31.752-3.616 51.783-1.646 24.805-3.186 36.716-4.828 37.346-1.325.508-8.534-2.157-16.019-5.924-22.837-11.494-38.858-15.647-61.243-15.877-17.003-.174-21.222.462-29.427 4.434-12.285 5.947-17.442 15.122-13.1 23.308 4.071 7.678 22.512 18.902 43.47 26.46 20.125 7.256 41.022 19.025 45.347 25.539l2.822 4.25H741.107Zm59.982 238.579c-19.97-3.718-48.326-12.603-71.452-22.386-16.633-7.037-17.905-7.983-18.475-13.752-1.102-11.142 15.544-107.669 18.567-107.669.427 0 7.044 4.055 14.704 9.01 20.382 13.185 44.793 24.33 60.625 27.678 19.525 4.13 41.686 3.82 51.686-.723 9.162-4.161 18.774-14.564 18.774-20.318 0-6.712-7.37-18.71-15.127-24.627-8.08-6.163-33.648-17.669-54.546-24.547-7.21-2.373-14.766-5.527-16.793-7.009-3.237-2.366-1.396-2.864 15.091-4.078 10.328-.76 58.715-1.08 107.527-.712 75.629.57 89.188 1.11 91.715 3.646 1.631 1.638 4.41 11.358 6.175 21.6 12.189 70.742-35.496 137.964-114.195 160.984-19.757 5.779-70.451 7.34-94.276 2.903zm368.174 3.074c-17.345-2.016-43.914-10.008-59.695-17.959-35.705-17.987-64.508-54.822-75.203-96.173-4.31-16.66-7.694-63.52-5.283-73.127l1.323-5.271h63.198c34.758 0 67.414.578 72.567 1.284l9.37 1.284-1.65 12.113c-.908 6.662-1.65 22.384-1.65 34.938 0 19.195.653 24.087 4.106 30.764 5.47 10.58 14.778 15.436 27.047 14.116 21.456-2.309 36.167-18.066 43.29-46.369l2.124-8.435h131.394l-1.187 10.019c-1.76 14.858-13.382 47.03-23.35 64.638-10.433 18.427-35.274 44.308-51.891 54.064-26.749 15.705-56.568 23.549-94.815 24.94-13.645.497-31.508.125-39.695-.826zM1034.599 348.2c-1.42-1.42 2.676-18.992 9.332-40.034 15.568-49.209 45.825-94.27 81.11-120.794 15.765-11.85 44.006-25.364 63.834-30.544 65.898-17.218 145.62 6.205 178.646 52.486 18.139 25.419 26.131 48.907 28.1 82.574 1.316 22.514-1.978 53.366-5.97 55.906-2.655 1.69-353.367 2.092-355.052.407zm227.712-44.202 7.939-1.428-.108-16.817c-.086-13.404-1.009-18.545-4.546-25.33-10.901-20.913-36.166-21.814-55.982-1.997-7.303 7.302-17.354 27.294-19.084 37.959-1.124 6.923-1.037 7.027 6.542 7.809 13.619 1.405 57.057 1.275 65.239-.196zm151.835 39.738c0-8.09 25.956-163.453 28.993-173.542.97-3.223 6.116-3.474 71.371-3.474 42.84 0 70.325.733 70.325 1.876 0 1.032-1.799 14.119-3.998 29.082-2.198 14.963-3.646 27.556-3.217 27.986s3.676-4.396 7.215-10.723c13.25-23.686 32.082-41.076 56.566-52.235 12.693-5.785 36.537-11.864 46.538-11.864 5.806 0 6.058.352 6.048 8.435-.01 8.633-14.108 100.178-18.019 117.006-2.14 9.212-2.288 9.348-11.42 10.508-50.667 6.439-85.538 24.665-100.783 52.676l-5.362 9.852h-144.258zm-37.711 225.104c0-9.263 28.072-172.91 29.996-174.864 1.205-1.224 28.928-2.235 72.316-2.636l70.363-.652v5.746c0 7.602-27.589 162.208-30.994 173.69-.956 3.223-6.095 3.473-71.356 3.473h-70.325zm801.73 10.817c-22.597-4.127-46.406-18.198-67.782-40.056-18.486-18.902-30.818-42.052-38.326-71.947-4.051-16.132-4.924-24.436-4.924-46.868v-27.263l9.209-1.262c11.98-1.642 98.51-1.613 127.244.042l22.329 1.287v7.01c0 19.849 11.945 41.77 26.532 48.692 9.38 4.45 31.541 4.2 46.737-.53 6.652-2.07 12.513-3.088 13.024-2.261 1.738 2.812-12.923 95.99-16.643 105.773-2.562 6.74-18.171 15.808-38.886 22.59-13.298 4.355-20.233 5.3-42.673 5.823-14.737.343-30.865-.12-35.841-1.03zM2073.088 344.73c0-6.906 10.839-37.584 19.697-55.753 21.283-43.65 60.276-85.966 99.643-108.133 26.362-14.845 81.376-22.092 116.847-15.393 18.817 3.553 44.753 15.167 46.556 20.846 1.557 4.906-16.446 109.756-19.343 112.653-.662.662-5.32-.789-10.352-3.225-7.945-3.846-11.56-4.323-27.492-3.626-15.474.677-19.773 1.64-27.478 6.155-11.934 6.994-23.165 19.953-32.213 37.172l-7.3 13.893h-158.565zm352.792 3.111c-20.23-.77-18.928 1.873-14.414-29.286 1.582-10.916 2.904-22.304 2.939-25.306l.062-5.458h-53.21l.989-8.435c3.323-28.333 16.706-107.685 18.456-109.436 1.177-1.177 13.745-2.436 28.665-2.872l26.57-.777 4.934-26.073c2.714-14.34 8.304-45.466 12.423-69.168 4.119-23.701 8.199-44.244 9.067-45.65 1.226-1.987 16.713-2.671 69.63-3.076 39.31-.3 69.24.255 70.866 1.315 2.374 1.55 1.017 12.454-8.713 69.988-6.34 37.483-11.944 69.268-12.454 70.632-.715 1.914 5.643 2.481 27.778 2.481h28.704l-3.701 24.314c-2.035 13.372-6.372 39.816-9.637 58.764-3.264 18.948-5.936 35.248-5.936 36.222s-11.44 1.771-25.422 1.771c-17.344 0-26.418.788-28.556 2.481-2.049 1.622-4.663 11.387-7.553 28.217-2.431 14.154-4.86 26.882-5.398 28.283-.768 2-12.538 2.46-54.85 2.139-29.63-.225-61.687-.706-71.24-1.07zm-54.375 222.738c-1.302-3.392.823-18.624 15.084-108.129 5.479-34.386 10.848-64.53 11.93-66.985l1.97-4.466h60.287c33.157 0 65.811.577 72.564 1.283l12.278 1.283-1.244 9.137c-4.072 29.905-27.266 164.277-28.875 167.284-1.813 3.388-6.293 3.611-72.385 3.611-61.22 0-70.603-.395-71.61-3.018zm272.085-234.657c.764-7.369 7.355-48.23 14.646-90.803l13.259-77.406 70.222-.522 70.222-.522-1.342 10.446c-2.785 21.685-26.99 168.657-28.062 170.391-.641 1.038-30.866 1.813-70.726 1.813h-69.606zm-38.585 234.121c0-5.111 27.369-169.691 28.869-173.6.76-1.981 4.509-3.749 9.514-4.487 10.542-1.554 129.58-.383 131.25 1.291 1.228 1.23-5.261 44.997-20.045 135.197l-7.4 45.153h-71.094c-67.002 0-71.094-.204-71.094-3.554zm73.436-443.322c0-2.723 15.399-95.84 16.98-102.68l1.096-4.738 69.856 1.454c38.422.799 70.155 1.74 70.519 2.091s-3.209 23.712-7.94 51.912l-8.6 51.273-8.931 1.341c-16.387 2.461-132.98 1.889-132.98-.653zm178.781 218.913c-1.084-2.027-4.239-19.667-7.009-39.2-11.544-81.398-18.626-136.64-17.706-138.127 1.473-2.384 141.175-2 142.653.392 1.498 2.423 6.363 85.699 8.205 140.428l1.352 40.192h-62.761c-59.116 0-62.876-.214-64.734-3.685zm26.068 199.68c-9.71-64.14-20.744-150.529-19.399-151.878 2.05-2.055 99.145-2.935 112.265-1.017l10.916 1.596.993 15.859.992 15.858 3.795-9.924c9.392-24.56 6.822-22.049 24.06-23.506 19.43-1.642 105.67-1.346 111.347.383 4.097 1.248 3.843 2.184-7.625 28.085-22.376 50.541-54.724 122.07-62.158 137.445l-7.437 15.382h-163.468zm137.122-202.834c1.201-7.405 24.08-73.758 47.086-136.56l14.36-39.2h75.166c46.528 0 75.167.724 75.167 1.9 0 2.762-74.399 169.911-78.232 175.762l-3.235 4.937h-131.422zm167.026-.604c5.406-30.072 22.121-72.587 40.382-102.712 8.984-14.82 37.072-44.25 53.308-55.855 15.408-11.012 40.755-22.948 61.253-28.844 13.493-3.881 20.258-4.54 45.614-4.44 46.045.18 77.128 9.163 106.147 30.68 25.829 19.15 40.619 41.209 49.86 74.364 7.118 25.533 6.192 83.602-1.455 91.249-2.633 2.633-24.663 3-179.724 3H3186.1zm235.672-40.53c.993-1.451 1.47-9.381 1.063-17.622-1.549-31.277-21.278-47.12-45.878-36.842-14.926 6.236-30.36 29.036-32.499 48.006l-.96 8.513 7.686.933c4.228.513 21.433.645 38.235.293 22.608-.475 31.018-1.327 32.353-3.28zm-125.422 277.157c-10.37-2.653-27.34-8.982-37.71-14.064-16.063-7.873-21.501-11.92-36.718-27.332-13.666-13.84-19.561-21.589-25.089-32.977-9.463-19.495-14.903-37.567-17.76-58.993-2.199-16.503-1.41-49.243 1.253-51.91 1.77-1.772 116.455-2.857 131.523-1.243l12.615 1.35-1.652 17.192c-3 31.21-2.026 48.013 3.42 59.004 6.024 12.158 11.451 15.124 26.027 14.225 19.983-1.233 34.511-15.305 42.275-40.948l3.668-12.113h65.066c35.786 0 65.478.67 65.982 1.489.504.818-1.058 9.08-3.471 18.359-11.685 44.934-28.155 73.06-56.5 96.487-31.863 26.334-66.535 36.567-123.31 36.392-25.874-.08-33.76-.862-49.619-4.918z" style="fill:#fff;stroke:#1a1a1a;stroke-width:1.98477" transform="scale(.75)"/></svg>