<?xml version="1.0" encoding="UTF-8"?>
<!-- Created by ERK -->
<svg width="252" height="147" version="1.1" viewBox="0 0 252 147" xmlns="http://www.w3.org/2000/svg" xmlns:xlink="http://www.w3.org/1999/xlink">
 <defs>
  <linearGradient id="linearGradient2" x1="72.5" x2="72.5" y1="-250" gradientTransform="matrix(0 .99999 -.99999 0 .99999 .99999)" gradientUnits="userSpaceOnUse">
   <stop stop-color="#9e9ea6" offset="0"/>
   <stop stop-color="#f1f1f1" offset=".45238"/>
   <stop stop-color="#c7bdbd" offset=".99123"/>
   <stop stop-color="#fff" offset="1"/>
  </linearGradient>
  <linearGradient id="linearGradient7" x1="72.501" x2="72.501" y1="-251" y2="1" gradientTransform="matrix(0 .99999 -.99999 0 .99999 .99999)" gradientUnits="userSpaceOnUse">
   <stop stop-color="#b5b5be" offset="0"/>
   <stop stop-color="#fff" offset="1"/>
  </linearGradient>
 </defs>
 <path d="m252 0v147h-252v-147z" fill="url(#linearGradient7)"/>
 <path d="m251 0.99999-0.00274 145h-250v-145z" fill="url(#linearGradient2)"/>
 <path d="m18 5.9999a12 12 0 0 0-12 12v111a12 12 0 0 0 12 12h216a12 12 0 0 0 12-12v-111a12 12 0 0 0-12-12zm14.623 11h10.725c4.2827 0 7.8266 3.44 7.8319 7.7226a7.7335 7.7335 0 0 1-4.6679 7.1112l4.9257 10.166h-7.9901l-2.1855-4.8163a1.0146 1.0146 0 0 0-0.92382-0.59569 1.0146 1.0146 0 0 0-1.0137 1.0137v4.3984h-6.7011zm49.999 0h7.7323v25h-10.311a9.7945 9.7945 0 1 1 2.5781-19.244zm58.247 0h4.123v7.2167h-1.2871c-1.9932 0-3.3516 1.2878-3.6094 3.6074 0 0-0.2618 5.9715-0.26953 6.121a8.5047 8.5047 0 0 1-8.4921 8.0546h-3.8672v-7.2167h1.0312c1.9931 0 3.3497-1.0301 3.6074-3.6074 0 0 0.26376-5.9715 0.27149-6.121a8.5047 8.5047 0 0 1 8.4921-8.0546zm4.8964 0h7.7323v5.412h3.8672a5.9275 5.9275 0 0 1 5.9276 5.9276v13.66h-7.7323v-11.855a1.0312 1.0312 0 0 0-2.0625 0v11.855h-7.7323zm60.052 0h5.9276v12.309l3.4121-5.0917h8.2128l-3.9199 6.1327 4.9238 11.65h-8.2479l-1.5664-4-1.0293-2.6289a0.92387 0.92387 0 0 0-0.86131-0.58788 0.92386 0.92386 0 0 0-0.92382 0.92382v6.2929h-5.9276zm-93.813 4.6386c5.6933 0 10.309 4.6747 10.309 10.439s-4.6152 10.438-10.309 10.438c-5.6933 0-10.311-4.6727-10.311-10.438 0-5.7651 4.6172-10.439 10.311-10.439zm82.407 0a10.444 10.444 0 0 1 10.195 12.371h-7.4706a3.0933 3.0933 0 0 0-6.0097 1.0312 3.0935 3.0935 0 0 0 5.9061 1.2891h6.8515a10.444 10.444 0 1 1-9.4726-14.691zm-141.17 0.77343h10.051a5.9275 5.9275 0 0 1 5.9276 5.9276v13.66h-11.984a6.0567 6.0567 0 0 1 0-12.113c0.11254 0 0.22511 0.0038 0.33594 0.0098a0.019579 0.019579 0 0 0 0-2e-3 0.019579 0.019579 0 0 0-2e-3 -2e-3 0.019579 0.019579 0 0 0 0-2e-3 0.019579 0.019579 0 0 0 0-2e-3 0.019579 0.019579 0 0 0 0-2e-3h1.8574a0.77344 0.77344 0 0 0 0-1.5469h-6.1854zm39.176 0h8.246v19.588h-8.246zm74.226 0h10.053a5.9275 5.9275 0 0 1 5.9276 5.9276v13.66h-11.984a6.0567 6.0567 0 0 1 0-12.113c0.11255 0 0.22511 0.0038 0.33593 0.0098a0.019579 0.019579 0 0 0-2e-3 -2e-3 0.019579 0.019579 0 0 0 0-2e-3 0.019579 0.019579 0 0 0-2e-3 -2e-3 0.019579 0.019579 0 0 0 0-2e-3 0.019579 0.019579 0 0 0 0-2e-3h1.8574a0.77344 0.77344 0 0 0 0-1.5469h-6.1855zm-126.1 4.8964a3.0933 3.0933 0 0 0-2.8398 2.0332 3.0029 3.0029 0 0 0-0.12109 0.42968 3.0951 3.0951 0 0 0 3.0293 3.7227 3.0933 3.0933 0 1 0-0.06641-6.1854 3.0933 3.0933 0 0 1-2e-3 0zm18.625 4.6405a3.1359 3.1359 0 0 0-0.54296 0.04687 3.0945 3.0945 0 0 0-2.5508 3.0449 3.0928 3.0928 0 0 0 6.1854 0 3.0526 3.0526 0 0 0-0.12891-0.88671 3.0935 3.0935 0 0 0-2.9629-2.2051zm52.743 0a3.0928 3.0928 0 0 0-0.0371 2e-3 3.0928 3.0928 0 0 0 0.12891 6.1835 3.0931 3.0931 0 0 0 3.0918-3.0938 3.0928 3.0928 0 0 0-3.1836-3.0918zm60.657 0a3.1359 3.1359 0 0 0-0.54297 0.04687 3.0945 3.0945 0 0 0-2.5488 3.0449 3.0928 3.0928 0 0 0 6.1855 0 3.0526 3.0526 0 0 0-0.13085-0.88671 3.0935 3.0935 0 0 0-2.9629-2.2051zm-91.919 2e-3a3.0926 3.0926 0 0 0-3.1836 3.0898 3.0931 3.0931 0 0 0 3.0918 3.0938 3.0926 3.0926 0 0 0 0.0918-6.1835zm-71.651 19.049h234v50.999h-234zm108.97 60.737c2.4991 0 4.2546 0.0698 5.2676 0.21094 1.5609 0.21587 2.6336 0.65266 3.2148 1.3086 0.5812 0.64761 0.87108 1.7428 0.87108 3.2871 0 0.14115-3e-3 0.4086-0.0117 0.79882h-5.0194c-0.0166-0.47325-0.0586-0.79829-0.125-0.97265-0.0581-0.17436-0.17868-0.31588-0.36133-0.42381-0.22416-0.13285-0.61899-0.21484-1.1836-0.24805-0.56459-0.0415-1.7593-0.0625-3.5859-0.0625-2.2002 0-3.5419 0.0698-4.0234 0.21094-0.48155 0.13284-0.72264 0.51205-0.72264 1.1348 0 0.5978 0.24108 0.96285 0.72264 1.0957 0.39853 0.10794 2.2292 0.21092 5.4921 0.31055 2.7482 0.083 4.5842 0.18259 5.5058 0.29883 0.92991 0.10794 1.6688 0.31925 2.2168 0.63476 0.62271 0.37362 1.0629 0.88899 1.3203 1.5449 0.25739 0.64762 0.38477 1.5822 0.38477 2.8027 0 1.6024-0.21475 2.7938-0.64649 3.5742-0.3238 0.57289-0.77622 1.0009-1.3574 1.2832-0.57289 0.2823-1.3835 0.47263-2.4297 0.57226-1.1209 0.0996-3.2082 0.15039-6.2636 0.15039-2.5573 0-4.4454-0.0683-5.6659-0.20117-1.2205-0.13284-2.1395-0.36856-2.7539-0.70898-0.63932-0.36531-1.083-0.8475-1.332-1.4453-0.24078-0.59781-0.36133-1.506-0.36133-2.7266v-0.79687h5.0194c-8e-3 0.83857 0.16108 1.3784 0.50976 1.6191 0.24908 0.15776 0.56875 0.25195 0.95897 0.28515 0.39853 0.0249 1.644 0.0459 3.7363 0.0625 2.192-8e-3 3.5092-0.0205 3.9492-0.0371 0.44003-0.0249 0.78752-0.0913 1.0449-0.19921 0.38192-0.15775 0.57421-0.58577 0.57421-1.2832 0-0.50646-0.13812-0.84175-0.4121-1.0078-0.26569-0.17436-0.81425-0.27051-1.6445-0.2871-0.63931 0-1.9912-0.0488-4.0586-0.14844-2.1172-0.0996-3.4954-0.15917-4.1348-0.17578-1.2454-0.0415-2.2044-0.15671-2.877-0.34766-0.66422-0.19926-1.183-0.51893-1.5566-0.95897-0.63932-0.73064-0.95898-1.9517-0.95898-3.6621 0-1.918 0.36506-3.2718 1.0957-4.0606 0.55628-0.61441 1.4104-1.0039 2.5645-1.1699 1.1541-0.17436 3.5001-0.26172 7.037-0.26172zm34.215 0.0625c4.0518 0 6.6212 0.22352 7.7089 0.67188 0.79706 0.32379 1.3525 0.83575 1.668 1.5332 0.27399 0.631 0.4121 1.4729 0.4121 2.5273 0 1.3451-0.22546 2.2919-0.67382 2.8398-0.44833 0.53967-1.2604 0.85055-2.4394 0.93358 0.99632 0.17436 1.6723 0.38227 2.0293 0.62304 0.46495 0.3072 0.7934 0.73862 0.98435 1.2949 0.19927 0.55628 0.29883 1.3337 0.29883 2.3301 0 1.4032-0.23768 2.4198-0.71093 3.0508-0.34041 0.44834-0.82063 0.789-1.4434 1.0215-0.6227 0.22418-1.4997 0.38132-2.6289 0.47265-0.83027 0.0664-2.5648 0.0996-5.205 0.0996-2.6735 0-4.485-0.0366-5.4315-0.11133-0.94651-0.0664-1.7464-0.22549-2.4023-0.4746-0.78047-0.2989-1.3378-0.75472-1.6699-1.3691-0.3238-0.6144-0.48436-1.5105-0.48436-2.6894 0-1.0628 0.11176-1.8822 0.33594-2.4551 0.23247-0.57288 0.6185-1.0043 1.1582-1.2949 0.34041-0.18265 0.94656-0.34859 1.8184-0.49804-0.87178-0.0581-1.5165-0.22065-1.9316-0.48633-0.78876-0.52307-1.1816-1.6182-1.1816-3.2871 0-1.4447 0.26548-2.4998 0.79686-3.1641 0.33212-0.40683 0.77232-0.71235 1.3203-0.91991 0.54799-0.20757 1.3357-0.35789 2.3652-0.44922 1.4032-0.13285 3.1728-0.19922 5.3065-0.19922zm23.139 0c3.2381 0 5.5264 0.0996 6.8632 0.29883 1.5194 0.21587 2.5726 0.87277 3.1621 1.9688 0.29889 0.54798 0.4824 1.1576 0.54882 1.8301 0.0664 0.67251 0.0996 2.2045 0.0996 4.5956 0 1.8764-0.0122 3.0765-0.0371 3.5996-0.0166 0.51476-0.0708 1.0214-0.16211 1.5195-0.22417 1.2703-0.87229 2.1874-1.9434 2.752-0.44003 0.23248-0.96224 0.4072-1.5684 0.52344-0.59779 0.10793-1.4485 0.18113-2.5527 0.22265-1.3285 0.0581-2.794 0.0879-4.3964 0.0879-3.2464 0-5.5381-0.0996-6.8749-0.29882-1.5194-0.22418-2.5746-0.87913-3.1641-1.9668-0.2989-0.55628-0.48045-1.1712-0.54687-1.8438-0.0664-0.68083-0.0996-2.288-0.0996-4.8202 0-1.727 7e-3 -2.8485 0.0234-3.3633 0.0249-0.52308 0.0845-1.0297 0.17579-1.5195 0.22418-1.2786 0.87033-2.1957 1.9414-2.752 0.44005-0.24077 0.95883-0.4155 1.5566-0.52343 0.6061-0.10794 1.4621-0.18114 2.5664-0.22266 1.3036-0.0581 2.7726-0.0879 4.4082-0.0879zm-112.33 0.19922h20.574v4.334h-7.5585v12.666h-5.4433v-12.666h-7.5722zm21.77 0h12.518c2.9392 8e-3 4.698 0.0415 5.2792 0.0996 0.5812 0.0498 1.142 0.24013 1.6816 0.57226 0.64761 0.39023 1.0912 0.93 1.332 1.6191 0.24078 0.68082 0.36133 1.757 0.36133 3.2266 0 1.2371-0.0786 2.1454-0.23633 2.7266-0.14946 0.58118-0.43594 1.0458-0.85937 1.3945-0.45666 0.37363-1.1448 0.63229-2.0664 0.77344 1.0877 0.083 1.8685 0.3939 2.3418 0.93358 0.27399 0.3238 0.44676 0.71863 0.52148 1.1836 0.0747 0.45665 0.11328 1.4191 0.11328 2.8887v1.582h-5.1074v-0.90819c0-0.94651-0.0366-1.619-0.11132-2.0176-0.0664-0.40684-0.19575-0.71967-0.38672-0.93554-0.19096-0.19926-0.45646-0.32323-0.79687-0.37305-0.33211-0.0581-1.0325-0.0879-2.1035-0.0879h-7.2987v4.3222h-5.1815zm66.894 3.6113c-1.9346 0-3.1434 0.0839-3.625 0.25-0.47326 0.16605-0.70898 0.5799-0.70898 1.2441 0 0.69743 0.22011 1.1167 0.66015 1.2578 0.44004 0.13285 1.7763 0.19922 4.0098 0.19922 1.9761 0 3.164-7e-3 3.5625-0.0234 0.39853-0.0249 0.72504-0.0967 0.98241-0.21289 0.33212-0.14945 0.5-0.55988 0.5-1.2324 0-0.39852-0.0752-0.69721-0.22461-0.89647-0.14945-0.20757-0.39054-0.34031-0.72264-0.39843-0.61441-0.11624-2.0922-0.1792-4.4336-0.1875zm23.352 0.61132c-2.358 0-3.7938 0.15373-4.3086 0.46093-0.33211 0.19927-0.56101 0.56773-0.68554 1.1074-0.12454 0.53967-0.1875 1.4167-0.1875 2.6289 0 1.4032 0.0718 2.3744 0.2129 2.9141 0.14944 0.53137 0.43592 0.89106 0.85936 1.082 0.29889 0.13284 0.63954 0.2202 1.0215 0.26171 0.39023 0.0332 1.4102 0.0664 3.0625 0.0996 2.1172-0.0415 3.3383-0.0781 3.6621-0.11132 0.92991-0.0996 1.5239-0.39489 1.7812-0.88476 0.25739-0.49816 0.38477-1.5933 0.38477-3.2871 0-1.345-0.0732-2.2831-0.22266-2.8144-0.14114-0.53968-0.42421-0.90473-0.84764-1.0957-0.31551-0.14114-0.67714-0.2285-1.084-0.26171-0.39852-0.0332-1.6142-0.0664-3.6484-0.0996zm-85.063 0.0234v4.1856h7.2851c1.2703-0.0249 2.0268-0.0459 2.2676-0.0625 0.24908-0.0249 0.4604-0.0913 0.63476-0.19922 0.22418-0.14114 0.38132-0.34906 0.47265-0.62303 0.0913-0.28231 0.13672-0.70493 0.13672-1.2695 0-0.55627-0.0542-0.97209-0.1621-1.2461-0.0996-0.27399-0.27777-0.47312-0.53516-0.59766-0.18266-0.083-0.40276-0.13183-0.66015-0.14843-0.24908-0.0166-0.9704-0.0307-2.166-0.0391zm40.533 1.707h9.3651v5.0937h-9.3651zm21.703 4.2598c-2.5324 0-3.9945 0.0664-4.3848 0.19922-0.24908 0.083-0.4238 0.23138-0.52343 0.44726-0.0996 0.20756-0.14843 0.5326-0.14843 0.97264 0 0.46496 0.0576 0.79145 0.17382 0.98241 0.11624 0.19097 0.34513 0.32909 0.68554 0.41211 0.38192 0.0996 1.6152 0.14843 3.6992 0.14843 2.2667 0 3.7688-0.0488 4.5078-0.14843 0.39852-0.0581 0.6728-0.19087 0.82225-0.39844 0.14945-0.21586 0.22461-0.58628 0.22461-1.1094 0-0.42343-0.0542-0.7309-0.16211-0.92186-0.10794-0.19097-0.30706-0.32371-0.59765-0.39843-0.274-0.083-1.7064-0.14403-4.2968-0.18555z" stroke-width=".99999"/>
 <path d="m162 58.999h48.999v21h-48.999z" fill="#3f43ad" stroke-width=".99999"/>
 <path d="m101 58.999h48.999v21h-48.999z" fill="#00ab84" stroke-width=".99999"/>
 <path d="m40 58.999h48.999v21h-48.999z" fill="#ee3340" stroke-width=".99999"/>
 <path d="m68.345 85.971c-2.0806 0.0049-3.5535 0.07321-4.418 0.20508-0.94259 0.14166-1.5449 0.60725-1.8086 1.3984-0.21978 0.66906-0.33008 1.8004-0.33008 3.3926 0 1.348 0.04881 2.3046 0.14648 2.8711 0.10256 0.56655 0.30169 1.0058 0.59961 1.3184 0.22465 0.23931 0.48137 0.41501 0.76953 0.52734 0.28816 0.11233 0.68153 0.19335 1.1797 0.24219 0.28813 0.02442 0.88941 0.0498 1.8027 0.07422 0.91819 0.02442 1.7537 0.03516 2.5059 0.03516 1.5286 0 2.6277-0.05564 3.2969-0.16797 0.67395-0.11722 1.1562-0.33196 1.4492-0.64453 0.28327-0.29302 0.48142-0.75473 0.59375-1.3848 0.11721-0.63486 0.17578-1.568 0.17578-2.7988 0-0.96215-0.03612-1.7586-0.10938-2.3887-0.05861-0.49816-0.13962-0.88275-0.24219-1.1563-0.10256-0.27838-0.25581-0.5185-0.46094-0.71875-0.3224-0.31746-0.8358-0.52927-1.5391-0.63672-0.69839-0.11233-1.9019-0.16797-3.6113-0.16797zm95.18 0c-1.812 0-3.1873 0.06931-4.125 0.21094-0.97189 0.1416-1.5742 0.64137-1.8086 1.4961-0.19536 0.72286-0.29297 1.8815-0.29297 3.4785 0 1.6752 0.12982 2.8299 0.38868 3.4648 0.25886 0.63005 0.76055 1.0224 1.5078 1.1738 0.78634 0.15629 2.2983 0.23438 4.5352 0.23438 1.7241 0 2.9237-0.06833 3.5977-0.20508 0.83029-0.17093 1.3252-0.6287 1.4863-1.3711 0.0733-0.34193 0.12791-0.96661 0.16211-1.875h-1.2969c-0.0196 0.7961-0.0615 1.2812-0.125 1.457-0.0684 0.20024-0.19234 0.35251-0.37304 0.45508-0.18071 0.09768-0.45695 0.16991-0.82812 0.21875-0.19047 0.02442-0.6356 0.05273-1.334 0.08203-0.69353 0.02442-1.2538 0.03516-1.6836 0.03516-1.4066 0-2.4891-0.03904-3.2461-0.11719-0.41513-0.03907-0.72066-0.14352-0.91602-0.31445-0.19046-0.17582-0.3115-0.45597-0.36523-0.8418-0.0342-0.24425-0.0693-0.69226-0.10352-1.3418-0.0342-0.64954-0.0508-1.1796-0.0508-1.5898 0-0.86932 0.0429-1.5468 0.13086-2.0352 0.0928-0.48839 0.23531-0.81051 0.42578-0.9668 0.20026-0.15629 0.62974-0.26952 1.2891-0.33789 0.65932-0.07326 1.6452-0.10938 2.959-0.10938 1.812 0 2.9657 0.10054 3.459 0.30078 0.26862 0.10744 0.44821 0.26362 0.54101 0.46875 0.0928 0.20023 0.14062 0.53895 0.14062 1.0176 0 0.05861 1e-3 0.17281 6e-3 0.34375h1.2383c-0.01-0.86933-0.0517-1.4521-0.125-1.75-0.0733-0.31746-0.24604-0.59663-0.51953-0.83594-0.26862-0.2442-0.58781-0.40721-0.95899-0.49024-0.74726-0.17094-1.9859-0.25586-3.7148-0.25586zm41.363 0c-1.7338 0-2.953 0.09175-3.6562 0.27734-0.83026 0.21973-1.3378 0.7859-1.5234 1.6992-0.15141 0.73746-0.22657 1.7643-0.22657 3.0781 0 1.1672 0.0459 2.0721 0.13868 2.7168 0.1514 1.0891 0.71657 1.7558 1.6934 2 0.78632 0.19047 2.0328 0.28711 3.7422 0.28711 1.2649 0 2.2693-0.03807 3.0117-0.11133 0.74235-0.07326 1.2792-0.19039 1.6113-0.35156 0.57628-0.27353 0.93747-0.81722 1.084-1.6328 0.13675-0.76679 0.20508-1.8239 0.20508-3.1719 0-1.011-0.0332-1.7811-0.10157-2.3086-0.0684-0.53232-0.18551-0.93939-0.35156-1.2227-0.31259-0.54209-0.81042-0.88376-1.4941-1.0254-0.78146-0.15628-2.1597-0.23438-4.1328-0.23438zm-164.86 0.0293v9.998h1.334v-8.7617h0.58594l5.6406 8.7617h1.084l5.582-8.7617h0.55664v8.7617h1.334v-9.998h-2.6816l-5.3398 8.4746-5.4297-8.4746zm39.93 0v9.998h7.0039c1.3333 0 2.287-0.04881 2.8633-0.14648 1.1136-0.19046 1.8417-0.83762 2.1836-1.9414 0.21978-0.71799 0.33008-1.6882 0.33008-2.9141 0-0.98165-0.04197-1.746-0.125-2.293-0.08303-0.5519-0.22358-0.99309-0.42383-1.3203-0.39073-0.64465-0.95977-1.042-1.707-1.1934-0.62026-0.12698-1.696-0.18945-3.2246-0.18945zm18.027 0v9.998l9.8106 2e-3v-1.1738h-8.4766v-3.4277h8.1094v-1.1719h-8.1094v-3.0547h8.4688v-1.1719zm15.117 0v9.998h9.2305v-1.1719h-7.8965v-8.8262zm22.43 0v9.998h1.334v-8.7617h0.58593l5.6406 8.7617h1.084l5.582-8.7617h0.55663v8.7617h1.334v-9.998h-2.6816l-5.3398 8.4746-5.4297-8.4746zm56.139 0-3.5527 3.3828 0.80664 0.89453 3.2168-3.0254h0.46876v8.7461h1.2949v-9.998zm13.271 1.1426c1.2747 0 2.2206 0.02635 2.8359 0.08008 0.7375 0.05861 1.2128 0.20502 1.4277 0.43945 0.16118 0.18068 0.2783 0.56041 0.35156 1.1367 0.0781 0.57633 0.11719 1.3894 0.11719 2.4395 0 1.7191-0.17277 2.7509-0.51953 3.0977-0.18561 0.18559-0.59556 0.32127-1.2305 0.4043-0.63006 0.07815-1.5954 0.11719-2.8945 0.11719-2.1636 0-3.4198-0.18448-3.7715-0.55078-0.31745-0.3224-0.47656-1.3697-0.47656-3.1426 0-0.73259 0.0322-1.4324 0.0957-2.1016 0.0733-0.74723 0.21382-1.2285 0.42382-1.4434 0.18071-0.17582 0.53797-0.29882 1.0703-0.36719 0.5372-0.07326 1.3933-0.10938 2.5703-0.10938zm-137.36 0.0293c1.3773 0.0049 2.3075 0.01758 2.791 0.03711 0.48349 0.01465 0.91886 0.05077 1.3047 0.10938 0.65931 0.10257 1.0371 0.42761 1.1348 0.97461 0.09768 0.53726 0.14648 1.4616 0.14648 2.7754 0 1.0745-0.05564 1.9256-0.16797 2.5508-0.10742 0.58118-0.44908 0.9199-1.0254 1.0176-0.73259 0.13186-1.9059 0.19726-3.5176 0.19726-1.1331 0-2.1257-0.02928-2.9805-0.08789-0.51768-0.03419-0.89741-0.08299-1.1367-0.14648-0.23931-0.06349-0.42184-0.16501-0.54883-0.30664-0.16117-0.17094-0.2744-0.50867-0.33789-1.0117-0.05861-0.50793-0.08789-1.3142-0.08789-2.418 0-1.0745 0.05759-1.8905 0.16992-2.4473 0.06838-0.34676 0.18551-0.59469 0.35156-0.74609 0.17094-0.15628 0.44718-0.26658 0.82813-0.33008 0.65446-0.11233 1.6794-0.16797 3.0762-0.16797zm13.713 0h5.5449c1.0208 0 1.6581 0.0098 1.9121 0.0293 0.42978 0.03907 0.76849 0.1074 1.0176 0.20508 0.24908 0.0928 0.45016 0.23336 0.60156 0.42383 0.40537 0.49813 0.60742 1.5348 0.60742 3.1074 0 1.2112-0.11713 2.1063-0.35156 2.6875-0.2344 0.58121-0.62194 0.93552-1.1641 1.0625-0.27838 0.06837-0.5351 0.11035-0.76953 0.125-0.22953 0.0098-0.82499 0.01367-1.7871 0.01367h-5.6113zm93.83 3.1602v1.2969h4.9883v-1.2969z" stroke-width=".99999" style="font-feature-settings:normal;font-variant-alternates:normal;font-variant-caps:normal;font-variant-ligatures:normal;font-variant-numeric:normal;font-variant-position:normal;paint-order:normal;shape-padding:0;text-decoration-color:#000000;text-decoration-line:none;text-decoration-style:solid;text-indent:0;text-orientation:mixed;text-transform:none;white-space:normal"/>
</svg>
