<!-- Created by ERK --><svg xmlns="http://www.w3.org/2000/svg" width="4663.204" height="506.53"><g style="display:inline"><path d="M-3.46 632.541h754.989v128.205H-3.46z" style="fill:#000;fill-opacity:1;stroke:#000;stroke-width:4.10045147;stroke-linecap:round;stroke-linejoin:miter;stroke-miterlimit:4;stroke-opacity:0;stroke-dasharray:none;stroke-dashoffset:0;display:inline" transform="translate(6.885 -254.302)"/><path d="M-3.46 266.074h754.989v357.711H-3.46z" style="fill:#000;fill-opacity:1;stroke:#000;stroke-width:6.84927702;stroke-linecap:round;stroke-linejoin:miter;stroke-miterlimit:4;stroke-opacity:0;stroke-dasharray:none;stroke-dashoffset:0" transform="translate(6.885 -254.302)"/><path d="M221.233 300.217v277.257H34.816z" style="fill:red;fill-opacity:1;stroke:#000;stroke-width:.78196591000000004px;stroke-linecap:butt;stroke-linejoin:miter;stroke-opacity:0;display:inline" transform="translate(6.885 -254.302)"/><path d="M418.693 305.746h90.049v274.097h-90.049z" style="fill:#0a0;fill-opacity:1;stroke:#000;stroke-width:5.22118664;stroke-linecap:round;stroke-linejoin:miter;stroke-miterlimit:4;stroke-opacity:0;stroke-dasharray:none;stroke-dashoffset:0;display:inline" transform="translate(6.885 -254.302)"/><path d="M528.13 305.876c-.964-.028-2.036-.053-3.244-.072l-.553 93.902c.072.002.147-.002.219 0v-.292a43 43 0 0 1 4.647-.34l18.906-92.025c-7.377-.896-14.325-.994-19.976-1.173zm34.672 2.609-26.546 91.002c2.364.325 4.682.843 6.91 1.533l43.603-86.525a133.6 133.6 0 0 0-23.967-6.01zm38.542 12.117L549.2 403.38a44 44 0 0 1 5.037 2.871l66.986-73.702a135 135 0 0 0-19.879-11.947zm32.41 22.24-74.942 66.889a44 44 0 0 1 4.988 5.085l88.18-51.34a136.7 136.7 0 0 0-18.226-20.634zm25.062 31.17-91.756 45.233a44 44 0 0 1 2.823 5.134l100.735-24.235a135.7 135.7 0 0 0-11.802-26.133zm15.573 40.05-102.657 15.013a44 44 0 0 1 2.068 9.952h103.606a137 137 0 0 0-3.017-24.965zM573.8 447.25c-2.127 22.275-20.802 39.685-43.506 39.685-1.953 0-3.857-.139-5.742-.389v-1.898c-.072.002-.147-.002-.22 0v94.814c7.776-.056 11.787-.38 17.836-.38 73.315 0 133.007-58.636 135.238-131.832z" style="fill:#0a0;fill-opacity:1;stroke:#000;stroke-width:5.15488958;stroke-linecap:round;stroke-linejoin:miter;stroke-miterlimit:4;stroke-opacity:0;stroke-dasharray:none;stroke-dashoffset:0;display:inline" transform="translate(6.885 -254.302)"/><path d="M377.233 300.217v277.257H190.816z" style="fill:red;fill-opacity:1;stroke:#000;stroke-width:.78196591000000004px;stroke-linecap:butt;stroke-linejoin:miter;stroke-opacity:0;display:inline" transform="translate(6.885 -254.302)"/><path d="m814.273 612.887 188.962-313.89q13.497-26.904 26.994-26.904h134.972v41.702l8.999-14.797q13.496-26.905 26.994-26.905h161.967v340.794h-107.978V343.84l-161.967 269.048H985.238l161.967-269.048h-53.989q-8.999 0-17.996 8.968L922.25 612.887zm692.858-134.524v62.778h251.949v71.746h-359.926V388.68q0-8.967 4.499-17.936l49.49-89.683q4.499-8.968 17.996-8.968h287.94v71.746h-215.955q-8.998 0-13.497 8.968l-22.496 53.81h251.949l-35.993 71.746zm395.92 62.778h179.962v-62.778h-71.985l35.993-71.746h143.97v188.334q0 17.936-17.996 17.936h-359.926q-17.996 0-17.996-17.936V388.68q0-8.97 4.498-17.937l49.49-89.683q4.5-8.968 17.997-8.968h305.937v71.746h-233.952q-8.999 0-13.497 8.968l-22.496 53.81zm773.841 71.746h-125.974l-49.49-71.746h-130.474l-35.992-65.02v136.766h-107.978V272.093h206.957q13.498 0 26.995 26.905zm-225.404-143.492-80.534-116.588q-8.997-8.968-17.996-8.968h-17.996v125.556z" style="font-size:69.468849180000007px;font-style:normal;font-weight:400;fill:#fff;fill-opacity:1;stroke:#000;stroke-width:30.67700005;stroke-linecap:butt;stroke-linejoin:miter;stroke-miterlimit:4;stroke-opacity:1;stroke-dasharray:none;font-family:NiseMegaDrive;stroke-dashoffset:0" transform="translate(6.885 -254.302)"/><path d="M2892.215 545.262h130.614q9.33 0 13.995-8.425l39.65-85.182 2.333-9.361-2.333-9.36-39.65-84.247q-4.665-9.36-13.995-9.36h-130.614zM2780.259 264.44h312.542q13.994 0 23.324 18.721l72.305 149.771 2.332 9.361-2.332 9.36-72.305 149.772q-9.33 18.72-23.324 18.721H2780.26zm447.821 0h298.548q13.994 0 23.324 18.721l48.98 102.968 2.332 9.36-2.332 9.361-72.304 84.246 74.636 131.05H3489.31l-107.29-177.853h55.978q9.33 0 13.994-4.68l37.318-42.123-18.659-46.804q-4.665-9.36-13.994-9.36h-116.62v280.82H3228.08zm522.459 355.706h-111.956V264.441h111.956zm149.273-238.697 111.955 163.812 111.955-163.812V264.44h111.956v131.05q0 18.72-4.665 28.082l-125.95 196.574h-186.592l-125.95-196.574q-4.664-9.36-4.664-28.082V264.44h111.955zm485.14 98.287v65.525h261.229v74.885h-373.185V386.13q0-9.36 4.665-18.722l51.313-93.606q4.664-9.36 18.659-9.361h298.548v74.886H4422.27q-9.33 0-13.994 9.36l-23.325 56.164h261.23l-37.32 74.886z" style="font-size:72.267700199999993px;font-style:normal;font-weight:400;fill:#fff;fill-opacity:1;stroke:#000;stroke-width:30.67700005;stroke-linecap:butt;stroke-linejoin:miter;stroke-miterlimit:4;stroke-opacity:1;stroke-dasharray:none;font-family:NiseMegaDrive;stroke-dashoffset:0" transform="translate(6.885 -254.302)"/><path d="M845.766 473.135q-.27 6.634 3.618 14.527 3.886 7.894 15.165 13.672 11.279 5.775 33.183 6.058 5.923.236 17.16-1.845 11.235-2.08 20.694-9.3 9.459-7.218 10.05-22.398-.435-13.485-9.69-19.395-9.258-5.91-22.133-8.154l-29.622-6.138q-4.137-.575-8.337-2.73-4.2-2.154-4.528-7.975.419-6.855 6.961-9.617 6.544-2.76 14.198-2.658 16.044.535 20.503 5.995 4.46 5.46 4.38 9.42h24.375q.075-6.544-4.088-14.168t-14.507-13.153-28.801-5.794q-19.49.267-29.641 5.641-10.152 5.375-13.73 12.65-3.578 7.278-3.348 13.254.572 16.321 11.934 22.071t26.66 8.047l13.034 2.57q9.817 1.73 15.827 4.317t6.178 8.386q-.46 7.95-8.188 10.705-7.73 2.757-17.203 2.57-16.144-.501-21.116-6.138-4.973-5.638-4.613-10.42zm208.707-70.941h-89.375V504.68h92.253v-18.128h-67.37v-26.549h59.245v-18.128h-59.245v-21.553h64.492zm80.739 64.518h28.268q-4.76 14.991-14.6 19.037-9.838 4.047-14.853 3.515-13.542.42-24.164-7.137-10.62-7.555-11.214-28.119.482-19.537 10.643-28.262t24.227-8.564q13.436.678 20.016 6.922 6.58 6.246 6.56 9.92h25.39q-.592-7.312-6.15-15.235t-17.096-13.492-30.074-5.815h-.339q-20.358.231-33.446 7.877-13.09 7.645-19.379 19.93t-6.25 26.434q.745 26.96 16.948 40.323 16.203 13.365 38.911 13.346 16.32-.384 24.862-5.424 8.543-5.04 13.055-10.134l2.539 12.846h16.927v-55.24h-50.781zm100.268 16.843h44.857l7.786 21.125h27.591l-42.825-102.486h-29.284l-43.333 102.486h26.745zm22.344-58.237h.338l15.065 40.537h-30.976zm193.14 33.4v45.962h25.39V402.194h-25.39v38.825h-47.396v-38.825h-25.39V504.68h25.39v-45.962zm73.746-56.524h-25.39V504.68h25.39zm80.631 64.518h28.269q-4.76 14.991-14.6 19.037-9.84 4.047-14.853 3.515-13.542.42-24.164-7.137-10.622-7.555-11.214-28.119.48-19.537 10.643-28.262 10.161-8.725 24.227-8.564 13.436.678 20.016 6.922 6.58 6.246 6.56 9.92h25.39q-.592-7.312-6.15-15.235t-17.097-13.492-30.073-5.815h-.339q-20.357.231-33.447 7.877-13.089 7.645-19.378 19.93-6.29 12.285-6.25 26.434.745 26.96 16.948 40.323 16.202 13.365 38.91 13.346 16.32-.384 24.863-5.424t13.055-10.134l2.539 12.846h16.927v-55.24h-50.782zm146.479-7.994v45.962h25.391V402.194h-25.39v38.825h-47.396v-38.825h-25.39V504.68h25.39v-45.962zm151.839 18.128 12.187 9.706a31.8 31.8 0 0 1-6.982 2.106q-3.524.624-6.729.606-11.06.45-21.645-7.154-10.585-7.605-11.362-28.673.777-21.067 11.362-28.672t21.645-7.155q11.062-.45 21.646 7.155t11.362 28.672q-.033 7.155-1.523 12.597-1.492 5.442-4.063 9.385l-12.864-10.135zm57.383 23.695-13.203-10.563q5.68-5.95 9.14-14.952 3.459-9 3.555-21.589-.635-23.714-11.567-35.367t-24.544-15.289-22.288-3.299q-8.675-.337-22.287 3.299t-24.544 15.289-11.567 35.367q.635 23.715 11.567 35.367 10.932 11.653 24.544 15.29 13.613 3.635 22.287 3.298 5.534.107 13.923-1.285 8.39-1.391 17.223-5.566l14.388 11.561zm117.026-98.347h-25.899v67.515q.1 9.372-5.734 14.435-5.835 5.063-18.81 5.12-9.13.054-15.277-4.924t-6.39-15.63v-66.516h-25.898v67.943q.195 7.708 2.39 13.917 2.196 6.21 7.09 10.92 8.473 7.427 19.169 10.01 10.695 2.582 19.424 2.408 23.227.12 36.457-9.153t13.478-29.386zm50.724 81.361h44.857l7.787 21.125h27.591l-42.826-102.486h-29.284l-43.333 102.486h26.745zm22.344-58.237h.339l15.065 40.537h-30.977zm99.644-23.124h-25.39V504.68h85.82v-18.556h-60.43zm101.45 0h-25.39V504.68h25.39zm75.215 18.128h36.732v-18.128h-98.854v18.128h36.732v84.358h25.39zm108.899 45.962 40.625-64.09h-28.777l-24.036 44.534-25.221-44.534h-29.961l41.979 63.804v38.682h25.39zm205.888-30.546q-.6-7.817-6.119-16.124-5.519-8.308-16.877-14.095-11.358-5.786-29.478-6.037-24.042.022-39.673 13.614-15.63 13.59-16.186 40.484.438 26.595 15.636 40.18 15.198 13.587 39.884 13.632 22.821-.276 35.928-10.563 13.108-10.286 16.885-27.263h-25.39q-2.365 9.448-9.332 14.346-6.966 4.897-17.583 4.924-15.991-.46-23.126-10.58-7.137-10.122-7.004-24.39.74-21.256 10.495-28.78t19.635-7.048q15.266.531 20.567 6.548 5.3 6.018 6.347 11.152zm13.993 17.699q.635 23.715 11.567 35.367 10.932 11.653 24.544 15.29 13.612 3.635 22.287 3.298 8.676.337 22.288-3.299t24.544-15.289q10.932-11.652 11.567-35.367-.636-23.714-11.567-35.367-10.933-11.653-24.544-15.289t-22.288-3.299q-8.675-.337-22.287 3.299t-24.544 15.289-11.567 35.367m25.39 0q.778-21.067 11.363-28.672t21.645-7.155q11.062-.45 21.646 7.155t11.362 28.672q-.778 21.067-11.362 28.673-10.585 7.605-21.646 7.154-11.061.45-21.645-7.154-10.585-7.605-11.363-28.673m228.238-51.243h-36.732l-21.667 80.79h-.338l-22.006-80.79h-37.07V504.68h23.698v-85.643h.339l22.174 85.643h24.883l22.682-85.643h.339v85.643h23.698zm49.603 65.516h29.115q16.144-.346 24.57-6.412 8.423-6.065 11.403-13.676 2.979-7.612 2.79-12.598-.155-15.26-10.05-23.962-9.898-8.703-27.698-8.868h-55.52V504.68h25.39zm0-17.699v-30.117h20.143q11.728-.054 17.076 3.318 5.348 3.373 5.268 10.813.592 3.996-2.37 9.706t-16.588 6.28zm185.01-47.817h-25.899v67.515q.1 9.372-5.734 14.435-5.835 5.063-18.81 5.12-9.131.054-15.277-4.924-6.147-4.979-6.39-15.63v-66.516h-25.898v67.943q.195 7.708 2.39 13.917 2.196 6.21 7.089 10.92 8.475 7.427 19.17 10.01 10.695 2.582 19.424 2.408 23.226.12 36.456-9.153t13.479-29.386zm76.623 18.128h36.731v-18.128h-98.854v18.128h36.732v84.358h25.39zm141.228-18.128h-89.375V504.68h92.253v-18.128h-67.37v-26.549h59.245v-18.128h-59.245v-21.553h64.492zm23.695 102.486h24.882v-40.11h26.237q13.569-.097 16.949 4.461 3.38 4.56 2.856 14.952c.011 5.18.247 9.343.72 12.49q.708 4.72 1.988 8.207h28.1v-2.712q-3.894-.995-4.74-5.228t-.677-15.184q-.027-13.827-3.957-18.77-3.93-4.941-11.447-7.208 9.061-2.715 13.901-9.26 4.84-6.543 4.888-15.148.19-4.716-2.733-11.445-2.924-6.73-11.235-11.985t-24.287-5.546h-61.445zm24.882-57.38v-27.406h31.654q10.887.33 14.473 4.674 3.585 4.345 3.3 8.743c.011 5.017-1.615 8.615-4.866 10.795q-4.877 3.27-14.769 3.193zm188.401 32.544h-.338l-26.068-77.65h-27.253L3686.6 504.68h24.205l41.303-102.486H3725.7zm92.418-77.65h-25.39V504.68h25.39zM3815.3 504.68h52.644q19.878-.383 30.908-9.03 11.028-8.646 15.372-20.956t4.163-23.683q.222-10.071-3.712-21.284t-14.695-19.19q-10.761-7.979-31.02-8.343h-53.66zm24.883-84.786h24.375q5.633-.236 12.056 1.75t11.04 9.013q4.618 7.029 4.834 21.924.211 13.202-6.051 23.516-6.264 10.312-21.54 10.884h-24.714zm186.819-17.7h-89.375V504.68h92.253v-18.128h-67.37v-26.549h59.244v-18.128h-59.244v-21.553h64.492zm18.278 51.243q.634 23.715 11.566 35.367 10.932 11.653 24.545 15.29 13.611 3.635 22.287 3.298 8.675.337 22.287-3.299t24.545-15.289 11.566-35.367q-.635-23.714-11.566-35.367-10.933-11.653-24.545-15.289t-22.287-3.299q-8.676-.337-22.287 3.299-13.613 3.636-24.545 15.289-10.932 11.654-11.567 35.367m25.39 0q.778-21.067 11.362-28.672 10.585-7.605 21.646-7.155 11.061-.45 21.645 7.155 10.585 7.605 11.363 28.672-.778 21.067-11.363 28.673t-21.645 7.154q-11.061.45-21.646-7.154-10.584-7.605-11.362-28.673m168.655 13.275h28.268q-4.76 14.991-14.6 19.037-9.838 4.047-14.853 3.515-13.542.42-24.164-7.137-10.62-7.555-11.214-28.119.482-19.537 10.643-28.262t24.227-8.564q13.436.678 20.016 6.922 6.58 6.246 6.56 9.92h25.39q-.592-7.312-6.15-15.235t-17.096-13.492-30.074-5.815h-.339q-20.358.231-33.446 7.877-13.09 7.645-19.379 19.93t-6.25 26.434q.745 26.96 16.948 40.323 16.203 13.365 38.911 13.346 16.32-.384 24.862-5.424 8.543-5.04 13.055-10.134l2.539 12.846h16.927v-55.24h-50.781zm100.268 16.843h44.857l7.786 21.125h27.591l-42.825-102.486h-29.284l-43.333 102.486h26.744zm22.344-58.237h.338l15.065 40.537h-30.976zm190.881-23.124h-36.732l-21.667 80.79h-.338l-22.006-80.79h-37.07V504.68h23.698v-85.643h.339l22.174 85.643h24.883l22.682-85.643h.339v85.643h23.698zm113.588 0h-89.375V504.68h92.252v-18.128h-67.37v-26.549h59.245v-18.128h-59.245v-21.553h64.493z" style="font-size:155.4413147px;font-style:normal;font-variant:normal;font-weight:700;font-stretch:normal;line-height:125%;letter-spacing:0;word-spacing:0;fill:red;fill-opacity:1;stroke:none;font-family:Helvetica LT Std;-inkscape-font-specification:Helvetica LT Std Bold"/><path d="m14.635 724.898 35.257-58.567q2.52-5.02 5.037-5.02h25.184v7.781l1.679-2.76q2.519-5.02 5.037-5.02h30.22v63.586H96.902v-50.2l-30.22 50.2H46.535l30.22-50.2H66.682q-1.68 0-3.358 1.673l-28.542 48.527zm129.277-25.1v11.713h47.01v13.387h-67.157v-41.833q0-1.674.84-3.347l9.233-16.734q.84-1.673 3.358-1.673h53.725v13.387h-40.294q-1.678 0-2.518 1.673l-4.197 10.04h47.01l-6.716 13.387zm73.872 11.713h33.578v-11.713h-13.431l6.716-13.387h26.862v35.14q0 3.347-3.358 3.347h-67.156q-3.358 0-3.358-3.347v-38.486q0-1.674.84-3.347l9.233-16.734q.84-1.673 3.358-1.673h57.083v13.387H224.5q-1.68 0-2.519 1.673l-4.197 10.04zm144.387 13.387h-23.505l-9.234-13.387h-24.345l-6.715-12.131v25.518h-20.147v-63.587h38.615q2.519 0 5.037 5.02zm-42.057-26.773-15.027-21.754q-1.679-1.673-3.357-1.673h-3.358v23.427z" style="font-size:69.46884918px;font-style:normal;font-weight:400;fill:#fff;fill-opacity:1;stroke:none;display:inline;font-family:NiseMegaDrive" transform="translate(6.885 -254.302)"/><path d="M398.347 712.28h24.37q1.74 0 2.611-1.572l7.399-15.893.435-1.747-.435-1.747-7.399-15.719q-.87-1.746-2.61-1.746h-24.371zm-20.89-52.397h58.316q2.61 0 4.352 3.494l13.49 27.944.436 1.747-.435 1.747-13.491 27.945q-1.74 3.492-4.352 3.493h-58.316zm83.557 0h55.704q2.61 0 4.352 3.494l9.139 19.212.435 1.746-.435 1.747-13.49 15.719 13.925 24.452h-20.889l-20.019-33.185h10.445q1.74 0 2.611-.873l6.963-7.86-3.481-8.733q-.87-1.746-2.612-1.746h-21.76v52.397h-20.888zm97.482 66.37h-20.889v-66.37h20.89zm27.852-44.538 20.89 30.565 20.889-30.565v-21.832h20.889v24.452q0 3.494-.87 5.24l-23.501 36.678H589.83l-23.5-36.678q-.87-1.746-.87-5.24v-24.452h20.888zm90.52 18.34v12.225h48.741v13.973h-69.63v-43.664q0-1.748.87-3.493l9.574-17.466q.87-1.746 3.482-1.747h55.704v13.973h-41.778q-1.74 0-2.611 1.746l-4.352 10.48h48.741l-6.963 13.972z" style="font-size:72.2677002px;font-style:normal;font-weight:400;fill:#fff;fill-opacity:1;stroke:none;display:inline;font-family:NiseMegaDrive" transform="translate(6.885 -254.302)"/><path d="M683.041 319.031h-7.352v-28.965h-10.635v-6.224h28.622v6.224H683.04zm48.783 0h-6.863v-29.406h-.098l-6.566 29.406h-7.205l-6.421-29.406h-.097v29.406h-6.863v-35.189h10.733l6.372 27.74h.099l6.273-27.74h10.636z" style="font-size:49.01107025px;font-style:normal;font-variant:normal;font-weight:700;font-stretch:normal;line-height:125%;letter-spacing:0;word-spacing:0;fill:#fff;fill-opacity:1;stroke:none;font-family:Helvetica LT;-inkscape-font-specification:Helvetica LT Bold"/></g></svg>