<!-- Created by ERK --><svg xmlns="http://www.w3.org/2000/svg" viewBox="0 0 414.692 74.376"><radialGradient id="a" cx="204.331" cy="39.13" r="143.035" gradientUnits="userSpaceOnUse"><stop offset="0" stop-color="#aebadc"/><stop offset=".235" stop-color="#b2bdde"/><stop offset=".453" stop-color="#bdc7e2"/><stop offset=".662" stop-color="#d0d7ea"/><stop offset=".867" stop-color="#eaedf6"/><stop offset="1" stop-color="#fff"/></radialGradient><linearGradient id="b" x1="204.352" x2="204.352" y1="72.547" y2="51.741" gradientUnits="userSpaceOnUse"><stop offset="0" stop-color="#fff"/><stop offset=".421" stop-color="#faf0c2"/><stop offset="1" stop-color="#f4dc72"/></linearGradient><linearGradient id="c" x1="2.228" x2="406.471" y1="62.144" y2="62.144" gradientUnits="userSpaceOnUse"><stop offset="0" stop-color="#fff"/><stop offset=".084" stop-color="#fefefc"/><stop offset=".151" stop-color="#fafbf2"/><stop offset=".214" stop-color="#f4f7e1"/><stop offset=".273" stop-color="#ecf0c9"/><stop offset=".329" stop-color="#e1e8aa"/><stop offset=".384" stop-color="#d3de84"/><stop offset=".436" stop-color="#c3d258"/><stop offset=".48" stop-color="#b4c62d"/><stop offset=".49" stop-color="#b8c939"/><stop offset=".537" stop-color="#c9d667"/><stop offset=".586" stop-color="#d7e190"/><stop offset=".638" stop-color="#e4eab2"/><stop offset=".693" stop-color="#eef2ce"/><stop offset=".751" stop-color="#f5f8e4"/><stop offset=".816" stop-color="#fbfcf3"/><stop offset=".891" stop-color="#fefefc"/><stop offset="1" stop-color="#fff"/></linearGradient><path fill="url(#a)" d="M406.212 49.108a10 10 0 0 1-.055.833 12 12 0 0 1-.345 1.801H2.891a11.5 11.5 0 0 1-.369-1.801c-.408-3.33.753-6.543 3.414-9.185 3.531-3.484 7.667-5.746 12.014-7.565 9.26-3.891 18.904-5.765 28.674-6.136 11.464-.426 22.945-.137 34.425-.055 15.294.118 218.826-.642 229.624-.443 12.006.226 24.02.081 36.026-.027 12.422-.118 24.758.67 36.866 4.118 6.34 1.81 12.461 4.326 17.821 8.841 2.833 2.379 4.968 5.257 4.826 9.619"/><path fill="url(#b)" stroke="url(#c)" stroke-miterlimit="10" d="M405.812 51.741c-.447 1.602-1.216 3.041-2.127 4.407-2.621 3.946-6.278 6.217-10.06 8.289-6.749 3.692-13.984 5.095-21.282 6.335-12.43 2.109-24.938 1.566-37.415 1.638-28.093.154-56.186.091-84.271.109h-46.463v.018c-37.604 0-75.2.027-112.795-.009-13.246-.018-26.492-.009-39.73-.353-11.119-.29-22.16-1.629-32.746-5.927-4.026-1.629-7.957-3.647-11.222-6.941a23 23 0 0 1-3.414-4.362 13.7 13.7 0 0 1-1.397-3.204z"/><path d="M408.533 37.845c-6.83-4.99-14.63-7.77-22.71-9.77-15.43-3.81-31.15-4.68-46.98-4.55-15.3.12-30.61.28-45.91.03-13.76-.22-173.272.62-192.762.49-14.63-.09-29.26-.41-43.87.06-12.45.41-24.74 2.48-36.54 6.78-5.54 2.01-10.81 4.51-15.31 8.36-3.39 2.92-4.87 6.47-4.35 10.15.25 1.83 1 3.7 2.25 5.53 1.22 1.77 2.73 3.41 4.35 4.82 4.16 3.64 9.17 5.87 14.3 7.67 13.49 4.75 27.56 6.23 41.73 6.55 16.87.38 33.75.37 50.63.39 47.91.04 95.82.01 143.74.01v-.02h59.21c35.79-.02-28.268.05 7.532-.12 15.9-.08 31.84.52 47.68-1.81 9.3-1.37 18.52-2.92 27.12-7 4.82-2.29 9.48-4.8 12.82-9.16 1.58-2.06 2.83-4.27 3.15-6.86.04-.3.06-.61.07-.92.18-4.82-2.54-8-6.15-10.63m-64.38-9.12c12.54.11 24.99 1.15 37.13 4.52 5.99 1.66 11.75 3.93 16.57 8.03 3.08 2.62 4.5 5.37 4.3 8.12-.18 2.48-1.68 4.95-4.47 7.33-5.55 4.73-12.24 6.96-19.08 8.82-10.42 2.83-21.09 4.1-31.86 4.14-56.83.22-13.802.33-70.642.47-43.42.11-86.85.32-130.27.27-26.61-.03-53.22-.29-79.83-.81-13.02-.24-25.91-2.11-38.08-7.02-4.02-1.63-7.83-4.15-11.19-6.91-2.26-1.85-3.41-4.04-3.51-6.29-.11-2.44 1.02-4.95 3.31-7.18 4.78-4.63 10.81-6.99 17.03-8.82 8.85-2.6 17.95-4 27.13-4.21 17.01-.38 34.03-.23 51.03-.58"/><path d="M390.083 44.375c-2.49-2.13-5.38-3.97-8.38-5.24-8.22-3.51-16.96-4.94-25.82-5.33-8.49-.36-17-.45-25.51-.45-114.42-.03-130.351-.02-244.771-.02-6.26 0-12.53-.14-18.79.07-10.34.35-20.61 1.32-30.46 4.86-4.08 1.47-7.98 3.19-10.94 6.48-1.42 1.58-2.09 3.11-1.99 4.65.07 1.34.72 2.68 1.95 4.08 2.93 3.33 6.54 5.68 10.75 7.15 7.76 2.71 15.8 4.04 23.97 4.38 8.43.36 16.87.47 25.31.47 57.24.04 114.48.02 171.73.02h25.52c53.3-.01 8.111.02 61.411-.06 10.81-.01 21.6-.63 32.11-3.62 5.41-1.54 10.37-3.77 14.19-8.01 1.36-1.5 2.12-2.98 2.23-4.41.16-1.75-.65-3.43-2.51-5.02m-76.93-6.44c.67-.09 1.12-.21 1.58-.21 11.42-.01 22.85-.03 34.28.01 3.44 0 5.57 2.21 5.4 5.64h-41.12c-.05-.75-.12-1.34-.14-1.94-.01-1.14 0-2.28 0-3.5m-103.271-.18q14.67-.12 29.34 0c3.08.02 5.13 2.45 4.94 5.59h-39.34c.06-3.38 1.95-5.57 5.06-5.59m-46.43-.02c3.95-.07 7.89-.02 11.84-.02h24.4v5.62h-41.49c-.36-3.21 1.81-5.55 5.25-5.6m-45.82.13h35.1v5.5h-35.1zm-59.4.02c.64-.06 1.17-.16 1.69-.16 15.44-.01 30.88-.02 46.32 0 3.56.01 5.71 2.21 5.55 5.66h-53.56zm-22.64 17.52c-3.34.02-6.32-2.76-6.55-6.01-.03-.15-.03-.31-.03-.47.03-3.39 3-6.31 6.45-6.33 3.6-.02 6.6 2.9 6.58 6.41 0 .13-.01.26-.02.39-.23 3.24-3.14 5.99-6.43 6.01m32.33 6.03h-9.69v-16.28h9.69zm21.88.03h-9.64v-16.24h9.64zm22.04-.04h-9.93v-16.2h9.93zm40.86.03c-.71.04-1.42.12-2.15.12-8.51.01-17.01.02-25.52 0-5.15-.01-7.48-2.38-7.46-7.48.01-1.56 0-3.12 0-4.7v-4.18h9.78c.51 1.89 2.03 2.11 3.79 2.1 5.71-.05 11.43-.02 17.15-.02h2.84v5.13h-23.38c-.36 2.75.33 3.62 2.74 3.63 6.54.03 13.07.01 19.6.01h2.61zm47.07-6.51c-.21 3.6-3.13 6.55-6.78 6.6-5.37.09-10.74.04-16.11.04-4.02 0-8.03.03-12.04-.02-4.31-.04-6.83-2.61-6.85-6.86v-9.65h9.94v7.59c.01 3.12.3 3.42 3.35 3.42h15.09c.41 0 .82.01 1.23-.02 1.16-.08 2.14-.65 1.83-1.87-.17-.67-1.18-1.55-1.86-1.59-3.05-.18-6.12-.09-9.18-.09h-2.7v-4.77c.11-.09.22-.25.31-.25 6.05 0 12.1-.18 18.13.09 1.4.06 2.66.77 3.64 1.83 1.33 1.44 2.13 3.53 2 5.55m14.77 6.49h-9.83v-16.23h9.83zm29.68-.02h-9.73c-.06-1.51-.13-2.97-.21-4.72h-17.65v-6.63h17.71v-4.87h9.88zm66.132-19.053v.853h-33.338v-.853c0-2.561 2.106-4.667 4.667-4.667h24.005c2.56 0 4.666 2.106 4.666 4.667m0 13.886v.853c0 2.561-2.106 4.61-4.667 4.61h-24.005c-2.561 0-4.667-2.049-4.667-4.61V45.036h7.285v9.447c0 .967.797 1.764 1.764 1.764zm12.699 5.167h-9.78v-16.22h9.78zm31.52-6.33c-.05 3.44-2.24 6.29-5.61 6.37-8.01.2-16.03.06-24.3.06v-5.31c.89-.05 1.68-.13 2.47-.13 4.9-.01 9.79.01 14.7-.01 2.27-.02 2.78-.52 2.8-2.75.01-1.3.02-2.6.02-3.92 0-1.36-.01-2.74-.01-4.17h10.01c0 1.36.01 2.75 0 4.14v.03c-.02 1.89-.05 3.79-.08 5.69m25.66.32c-3.35.01-6.32-2.75-6.56-6.01q-.03-.21-.03-.42c-.03-3.42 3.04-6.39 6.57-6.38 3.56.01 6.54 2.98 6.47 6.47 0 .11-.01.22-.02.33-.23 3.26-3.12 5.99-6.43 6.01"/><path d="M242.17 3.52A5.06 5.06 0 0 0 237.357 0a5.06 5.06 0 0 0-4.811 3.52l-1.707 5.041V.298h-8.918c-1.584 0-3.051.65-4.166 1.702V.298h-9.158c-1.701 0-3.222.71-4.347 1.878V.298h-8.674c-3.696 0-6.747 3.051-6.747 6.748 0 1.76.709 3.403 1.819 4.576h-1.819v7.863h8.684c2.469 0 4.576-1.286 5.808-3.286.998 1.936 2.993 3.286 5.34 3.286h9.207v-1.702a5.85 5.85 0 0 0 4.165 1.702H247.5z" class="st0" style="display:inline;fill:#fff;stroke-width:.0488945"/><path d="M237.3 1.354c-1.702 0-3.106 1.115-3.521 2.64l-4.283 12.557V7.334h-6.454v2.288h4.224v6.225h-5.276a2.294 2.294 0 0 1-2.288-2.288V6.224a2.294 2.294 0 0 1 2.288-2.288h7.57V1.648h-7.633a4.586 4.586 0 0 0-4.577 4.576v7.335a4.586 4.586 0 0 0 4.577 4.576h9.446l4.753-13.788a1.27 1.27 0 0 1 1.227-.88c.587 0 1.056.352 1.227.88l3.873 11.505h-6.093v2.288h9.276l-4.758-14.087c-.469-1.525-1.877-2.699-3.579-2.699m-28.697.294a4.586 4.586 0 0 0-4.577 4.576v7.335a4.586 4.586 0 0 0 4.577 4.576h7.862v-2.283l-7.862-.005a2.294 2.294 0 0 1-2.288-2.289V6.224a2.294 2.294 0 0 1 2.288-2.288h7.862V1.648Zm-13.03.01a5.39 5.39 0 0 0-5.403 5.402 5.39 5.39 0 0 0 5.403 5.403h1.877a.28.28 0 0 1 .294.294c.005.156-.113.273-.23.273h-7.335v2.294h7.335c1.408 0 2.586-1.174 2.586-2.587a2.607 2.607 0 0 0-2.586-2.586h-1.883a3.125 3.125 0 0 1-3.105-3.105c0-1.697 1.409-3.105 3.105-3.105h7.276V1.658Zm41.78 2.346c-.293 0-.587.235-.709.47l-4.694 13.67h2.7l1.642-4.87v2.06l.068-.01h5.34l-3.638-10.791c-.122-.294-.352-.529-.709-.529m-41.776.455c-1.408 0-2.586 1.174-2.586 2.587a2.607 2.607 0 0 0 2.586 2.586h1.878a3.125 3.125 0 0 1 3.105 3.105c0 1.697-1.408 3.105-3.105 3.105h-7.27v2.288h7.334a5.39 5.39 0 0 0 5.402-5.403 5.384 5.384 0 0 0-5.402-5.393h-1.883a.28.28 0 0 1-.293-.293c.005-.118.117-.235.234-.235h7.335V4.46Zm13.026 0c-.997 0-1.76.763-1.76 1.76v3.404h7.98V7.334h-5.692c0-.293.235-.528.528-.528h6.748V4.46Zm13.319.005c-.998 0-1.76.763-1.76 1.76v7.335c0 .997.762 1.76 1.76 1.76h4.752v-5.173h-3.637v2.293h1.35v.528h-1.35a.526.526 0 0 1-.528-.528V7.28c0-.293.234-.528.528-.528h6.513V4.464Zm-15.08 5.75v3.398c0 .998.764 1.76 1.761 1.76h7.862v-2.288h-6.806c-.288-.054-.528-.293-.528-.582h5.691v-2.288zm30.457.176.763 2.347h-1.589z" class="st1" style="fill:#034693;stroke-width:.0488945"/></svg>