<?xml version="1.0" encoding="UTF-8"?>
<!-- Created by ERK -->
<svg width="3839" height="1055.8" version="1.1" viewBox="0 0 3839 1055.8" xmlns="http://www.w3.org/2000/svg">
 <path class="st0" d="m1030.2 0.043318c-78.498-0.84187-194.06 10.01-199.42 83.637-5.1017 71.888 97.241 89.048 164.49 104.66 65.549 15.305 126.92 20.718 126.92 43.443 0 15.924-21.643 28.446-78.998 24.117-68.95-5.1017-127.54-23.963-186.13-53.027l-38.805 63.848c64.931 25.354 149.96 45.761 226.64 46.998 91.212 1.546 194.02-13.141 196.34-91.213 2.3191-65.395-65.24-88.274-183.97-111.31-57.819-11.286-107.14-18.243-107.14-36.949 0-20.871 39.732-26.127 96.16-20.098 53.336 5.5655 103.58 19.633 150.42 39.576l35.557-58.438c-37.876-14.378-115.95-32.93-186.91-34.939-4.8601-0.14493-9.9288-0.25247-15.162-0.30859zm1335.9 0.10742c-81.473 0-134.04 5.5654-178.72 13.141v290.95h100.18v-246.74c36.176-7.1115 72.816-7.2668 86.42-6.6484 39.731 1.7006 62.149 7.8852 80.082 20.717 18.552 13.141 23.498 42.359-0.4648 62.611-17.933 15.151-54.418 26.899-136.05 14.531l-11.44 18.861 154.13 136.82h136.51l-136.97-118.58c32.929-4.3287 82.864-17.469 106.83-48.697 23.808-31.229 20.716-77.144-25.199-103.43-42.669-24.581-124.3-33.547-175.31-33.547zm436.05 0.13477c-81.627 0-134.66 5.5673-179.33 13.143v290.95h100.18v-106.67c31.074 5.1017 69.878 8.194 103.43 7.8848 82.091-0.77297 143-19.943 170.67-50.244 39.732-42.823 26.438-94.614-19.014-121.51-40.814-24.117-117.18-33.549-175.93-33.549zm-932.29 8.9219-179.8 295.13h76.68l36.795-60.447h207.31l35.711 60.447h122.44l-179.8-295.13zm-592.77 0.037109v295.13h100.18v-118.58h194.02v118.58h100.18v-295.13h-100.18v112.86h-194.02v-112.86zm1519 41.682c5.9834-0.03865 10.872 0.06806 14.273 0.22266 40.041 1.7006 63.384 8.5036 80.699 20.717 17.933 12.368 23.964 42.822-0.4629 62.92-17.315 14.223-42.67 19.17-82.557 19.17-29.528-0.15459-59.983-5.5654-84.719-11.131v-85.027c27.016-5.3336 54.816-6.7551 72.766-6.8711zm-887.25 20.273 67.715 114.56h-137.59z" fill="#d02026" stroke-width="1.546"/>
 <path d="m1755.3 449.29v145.2h111.9v460.8h199.01v-606zm379.91 0v145.2h273.61l-0.1016-145.2zm325.91 0v209.4c0 11.7-9.599 21.299-21.299 21.299h-193.31c-61.402 0-111.3 50.001-111.3 111.3v264h522.01v-145.1h-322.91v-63.1c0-11.7 9.599-21.301 21.299-21.301h190.31c61.402 0 111.3-50.001 111.3-111.3v-153.9c0-29.7-11.6-57.701-32.6-78.701-21.001-21-49-32.6-78.701-32.6zm376.31 0c-61.402 0-111.3 49.901-111.3 111.3v383.4c0 61.4 50.002 111.3 111.3 111.3h299.41c61.402 0 111.3-49.899 111.2-111.2v-383.5c0-61.4-50.002-111.3-111.3-111.3h-159.3v145.2h50.3c11.7 0 21.301 9.6008 21.301 21.301v273c0 11.7-9.6011 21.301-21.301 21.301h-81.301c-11.7 0-21.301-9.6008-21.301-21.301v-439.5zm590.92 0c-61.402 0-111.3 49.901-111.3 111.3v383.4c0 61.4 50.002 111.3 111.3 111.3h299.41c61.402 0 111.3-49.899 111.2-111.2v-383.5c0-61.4-50.002-111.3-111.3-111.3h-159.3v145.2h50.3c11.7 0 21.301 9.6008 21.301 21.301v273c0 11.7-9.6011 21.301-21.301 21.301h-81.301c-11.7 0-21.301-9.6008-21.301-21.301v-439.5zm-3428.4 0.6992v605.8h196.1v-605.8zm253.11 0v124.8h16.702c17 0 30.8 13.801 30.8 30.801v450.2h196.1v-503.3c-0.1-56.6-46.001-102.5-102.6-102.5zm282.91 0v124.8h34.2c17 0 30.802 13.801 30.802 30.801v450.2h196.1v-503.3c0-56.6-45.901-102.5-102.5-102.5zm351.51 0v124.8h200.81l91.801-124.8zm353.91 0-352.61 479c-38.701 52.5-1.2004 126.7 64.101 126.7h89.502l359.21-490.1c35.201-48 0.9004-115.6-58.601-115.6zm937.52 42.9h186.2v57.9h-186.2zm-379.91 0.10001h223.51v518.7h-111.6v-460.9h-111.9zm705.82 0h41.101c18.1 0 35 7.0008 47.8 19.801 12.8 12.8 19.801 29.701 19.801 47.801v153.8c0 37.3-30.3 67.6-67.601 67.6h-190.31c-35.901 0-65.002 29.2-65.002 65v106.8h322.91v57.9h-434.61v-220.3c0-37.3 30.3-67.6 67.601-67.6h193.31c35.901 0 65.002-29.2 65.002-65zm332.61 0h44.001v395.8c0 35.9 29.201 65 65.002 65h81.301c35.901 0 65.002-29.2 65.002-65v-273c0-35.9-29.201-65-65.002-65h-6.5998v-57.801h115.7c37.301 0 67.601 30.302 67.601 67.602v383.5c0 37.3-30.3 67.6-67.601 67.6h-299.41c-37.301 0-67.601-30.3-67.601-67.6v-383.5c0-37.3 30.3-67.602 67.601-67.602zm591.02 0h44.001v395.8c0 35.9 29.201 65 65.002 65h81.301c35.901 0 65.002-29.2 65.002-65v-273c0-35.9-29.201-65-65.002-65h-6.5997v-57.801h115.7c37.301 0 67.601 30.302 67.601 67.602v383.5c0 37.3-30.3 67.6-67.601 67.6h-299.41c-37.301 0-67.601-30.3-67.601-67.6v-383.5c0-37.3 30.3-67.602 67.601-67.602zm-1977.6 188.1v145.2h252.11v-145.2zm-255.31 249.9-91.903 124.8h271.51v-124.8z" fill="#fff"/>
</svg>
