<?xml version="1.0" encoding="UTF-8"?>
<!-- Created by ERK -->
<svg width="3839" height="1019.4" version="1.1" viewBox="0 0 3839 1019.4" xmlns="http://www.w3.org/2000/svg">
 <path class="st0" d="m1030.2 0.043318c-78.498-0.84187-194.06 10.01-199.42 83.637-5.1017 71.888 97.241 89.048 164.49 104.66 65.549 15.305 126.92 20.718 126.92 43.443 0 15.924-21.643 28.446-78.998 24.117-68.95-5.1017-127.54-23.963-186.13-53.027l-38.805 63.848c64.931 25.354 149.96 45.761 226.64 46.998 91.212 1.546 194.02-13.141 196.34-91.213 2.3191-65.395-65.24-88.274-183.97-111.31-57.819-11.286-107.14-18.243-107.14-36.949 0-20.871 39.732-26.127 96.16-20.098 53.336 5.5655 103.58 19.633 150.42 39.576l35.557-58.438c-37.876-14.378-115.95-32.93-186.91-34.939-4.8601-0.14493-9.9288-0.25247-15.162-0.30859zm1335.9 0.10742c-81.473 0-134.04 5.5654-178.72 13.141v290.95h100.18v-246.74c36.176-7.1115 72.816-7.2668 86.42-6.6484 39.731 1.7006 62.149 7.8852 80.082 20.717 18.552 13.141 23.498 42.359-0.4648 62.611-17.933 15.151-54.418 26.899-136.05 14.531l-11.44 18.861 154.13 136.82h136.51l-136.97-118.58c32.929-4.3287 82.864-17.469 106.83-48.697 23.808-31.229 20.716-77.144-25.199-103.43-42.669-24.581-124.3-33.547-175.31-33.547zm436.05 0.13477c-81.627 0-134.66 5.5673-179.33 13.143v290.95h100.18v-106.67c31.074 5.1017 69.878 8.194 103.43 7.8848 82.091-0.77297 143-19.943 170.67-50.244 39.732-42.823 26.438-94.614-19.014-121.51-40.814-24.117-117.18-33.549-175.93-33.549zm-932.29 8.9219-179.8 295.13h76.68l36.795-60.447h207.31l35.711 60.447h122.44l-179.8-295.13zm-592.77 0.037109v295.13h100.18v-118.58h194.02v118.58h100.18v-295.13h-100.18v112.86h-194.02v-112.86zm1519 41.682c5.9834-0.03865 10.872 0.06806 14.273 0.22266 40.041 1.7006 63.384 8.5036 80.699 20.717 17.933 12.368 23.964 42.822-0.4629 62.92-17.315 14.223-42.67 19.17-82.557 19.17-29.528-0.15459-59.983-5.5654-84.719-11.131v-85.027c27.016-5.3336 54.816-6.7551 72.766-6.8711zm-887.25 20.273 67.715 114.56h-137.59z" fill="#d02026" stroke-width="1.546"/>
 <path d="m1685.6 449.29v136.5h257.1v-136.5zm306.3 0v196.9c0 11-9 20-20 20h-181.7c-57.7 0-104.6 46.9-104.6 104.6v248.2h490.6v-136.6h-303.5v-59.299c0-11 9-20 20-20h178.9c57.7 0 104.6-46.902 104.6-104.6v-144.6c0-28-10.8-54.2-30.6-74-19.8-19.7-46.1-30.6-74-30.6zm248.3 0v353.8h184v-217.3h305.7v-136.5zm658.2 0c-57.7 0-104.6 46.9-104.6 104.6v360.5c0 57.7 46.9 104.6 104.6 104.6h281.4c57.7 0 104.6-47 104.6-104.6v-360.5c0-57.7-46.9-104.6-104.6-104.6h-149.8v136.5h47.301c11 0 20 9 20 20v256.7c0 11-9 20-20 20h-76.4c-11 0-20-9-20-20v-413.2zm554.6 0c-57.7 0-104.6 46.9-104.6 104.6v360.5c0 57.7 46.9 104.6 104.6 104.6h281.4c57.7 0 104.6-47 104.6-104.6v-360.5c0-57.7-46.9-104.6-104.6-104.6h-149.8v136.5h47.301c11 0 20 9 20 20v256.7c0 11-9 20-20 20h-76.4c-11 0-20-9-20-20v-413.2zm-3453 0.69922v569.4h184.3v-569.4zm237.8 0v117.3h15.699c16 0 28.9 13 28.9 28.9v423.2h184.3v-473.1c0.1-53.2-43.099-96.301-96.299-96.301zm266.1 0v117.3h32.199c16 0 28.9 13 28.9 28.9v423.2h184.3v-473.1c0-53.2-43.2-96.301-96.4-96.301zm330.3 0v117.3h188.8l86.301-117.3zm332.7 0-331.4 450.3c-36.3 49.4-1.1008 119.1 60.199 119.1h84.102l337.7-460.7c33.1-45.1 0.8004-108.7-55.1-108.7zm559.7 40.301h175.1v54.4h-175.1zm554.6 0h407.6v54.4h-305.7v217.4h-101.9zm617.2 0h41.4v372.3c0 33.7 27.4 61.1 61.1 61.1h76.4c33.7 0 61.1-27.4 61.1-61.1v-256.7c0-33.7-27.4-61.1-61.1-61.1h-6.2012v-54.4h108.7c35 0 63.5 28.5 63.5 63.5v360.4c0 35.1-28.5 63.6-63.5 63.6h-281.4c-35 0-63.5-28.6-63.5-63.6v-360.5c0-35 28.5-63.5 63.5-63.5zm554.6 0h41.4v372.3c0 33.7 27.4 61.1 61.1 61.1h76.4c33.7 0 61.1-27.4 61.1-61.1v-256.7c0-33.7-27.4-61.1-61.1-61.1h-6.2012v-54.4h108.7c35 0 63.5 28.5 63.5 63.5v360.4c0 35.1-28.5 63.6-63.5 63.6h-281.4c-35 0-63.5-28.6-63.5-63.6v-360.5c0-35 28.5-63.5 63.5-63.5zm-1420 0.0996h38.699c16.9 0 32.9 6.5996 44.9 18.6s18.6 27.9 18.6 44.9v144.6c0 35-28.6 63.5-63.6 63.5h-178.9c-33.7 0-61.1 27.402-61.1 61.102v100.4h303.5v54.4h-408.4v-207.1c0-35 28.5-63.5 63.5-63.5h181.7c33.7 0 61.1-27.4 61.1-61.1zm440.3 175.9v136.9h49.799c11 0 19.9 8.9004 19.9 19.9v39.5c0 11-8.9004 19.898-19.9 19.898h-283v136.5h385.3c57.6 0 104.5-46.898 104.4-104.4v-143.9c0-57.6-46.8-104.4-104.4-104.4zm-1109.5 0.90039v136.4h237v-136.4zm1150.5 40h111.1c35 0 63.4 28.5 63.4 63.4v143.9c0 35-28.5 63.4-63.4 63.4h-344.2v-54.299h241.9c33.7 0 61-27.4 61-61v-39.5c0-33.6-27.4-61-61-61h-8.7988zm-1390.5 194.9-86.301 117.3h255.2v-117.3z"/>
</svg>
