<?xml version="1.0" encoding="UTF-8"?>
<!-- Created by ERK -->
<svg width="3839" height="1024.9" version="1.1" viewBox="0 0 3839 1024.9" xmlns="http://www.w3.org/2000/svg">
 <path class="st0" d="m1030.2 0.043318c-78.498-0.84187-194.06 10.01-199.42 83.637-5.1017 71.888 97.241 89.048 164.49 104.66 65.549 15.305 126.92 20.718 126.92 43.443 0 15.924-21.643 28.446-78.998 24.117-68.95-5.1017-127.54-23.963-186.13-53.027l-38.805 63.848c64.931 25.354 149.96 45.761 226.64 46.998 91.212 1.546 194.02-13.141 196.34-91.213 2.3191-65.395-65.24-88.274-183.97-111.31-57.819-11.286-107.14-18.243-107.14-36.949 0-20.871 39.732-26.127 96.16-20.098 53.336 5.5655 103.58 19.633 150.42 39.576l35.557-58.438c-37.876-14.378-115.95-32.93-186.91-34.939-4.8601-0.14493-9.9288-0.25247-15.162-0.30859zm1335.9 0.10742c-81.473 0-134.04 5.5654-178.72 13.141v290.95h100.18v-246.74c36.176-7.1115 72.816-7.2668 86.42-6.6484 39.731 1.7006 62.149 7.8852 80.082 20.717 18.552 13.141 23.498 42.359-0.4648 62.611-17.933 15.151-54.418 26.899-136.05 14.531l-11.44 18.861 154.13 136.82h136.51l-136.97-118.58c32.929-4.3287 82.864-17.469 106.83-48.697 23.808-31.229 20.716-77.144-25.199-103.43-42.669-24.581-124.3-33.547-175.31-33.547zm436.05 0.13477c-81.627 0-134.66 5.5673-179.33 13.143v290.95h100.18v-106.67c31.074 5.1017 69.878 8.194 103.43 7.8848 82.091-0.77297 143-19.943 170.67-50.244 39.732-42.823 26.438-94.614-19.014-121.51-40.814-24.117-117.18-33.549-175.93-33.549zm-932.29 8.9219-179.8 295.13h76.68l36.795-60.447h207.31l35.711 60.447h122.44l-179.8-295.13zm-592.77 0.037109v295.13h100.18v-118.58h194.02v118.58h100.18v-295.13h-100.18v112.86h-194.02v-112.86zm1519 41.682c5.9834-0.03865 10.872 0.06806 14.273 0.22266 40.041 1.7006 63.384 8.5036 80.699 20.717 17.933 12.368 23.964 42.822-0.4629 62.92-17.315 14.223-42.67 19.17-82.557 19.17-29.528-0.15459-59.983-5.5654-84.719-11.131v-85.027c27.016-5.3336 54.816-6.7551 72.766-6.8711zm-887.25 20.273 67.715 114.56h-137.59z" fill="#d02026" stroke-width="1.546"/>
 <path d="m1665.8 449.29v137.8h256.19v-137.8zm305.79 0v198.9c0 11.1-8.9994 20.1-20.099 20.1h-183.9v138.2h183.9c11.1 0 20.099 9.0016 20.099 20.102v39.898c0 11.1-8.9994 20.102-20.099 20.102h-285.69v137.8h388.99c58.098 0 105.4-47.3 105.3-105.4v-96.898c0-34.7-16.799-65.501-42.698-84.701 25.899-19.2 42.698-49.999 42.698-84.699v-98c0-58.1-47.299-105.4-105.4-105.4zm253.19 0v357.2h185.79v-219.4h308.59v-137.8zm664.58 0c-58.198 0-105.6 47.4-105.6 105.6v363.9c0 58.2 47.398 105.6 105.6 105.6h284.09c58.198 0 105.6-47.3 105.7-105.6v-363.9c0-58.2-47.398-105.6-105.6-105.6h-151.2v137.8h47.698c11.1 0 20.201 9.0992 20.201 20.199v259.1c0 11.1-9.1009 20.201-20.201 20.201h-77.197c-11.1 0-20.201-9.1012-20.201-20.201v-417.1zm559.89 0c-58.198 0-105.6 47.4-105.6 105.6v363.9c0 58.2 47.4 105.6 105.6 105.6h284.09c58.198 0 105.6-47.3 105.7-105.6v-363.9c0-58.2-47.398-105.6-105.6-105.6h-151.2v137.8h47.698c11.1 0 20.199 9.0992 20.199 20.199v259.1c0 11.1-9.099 20.201-20.199 20.201h-77.197c-11.1 0-20.201-9.1012-20.201-20.201v-417.1zm-3449.2 0.69922v574.9h186.09v-574.9zm240.19 0v118.4h15.8c16.1 0 29.198 13.101 29.198 29.201v427.2h186.1v-477.6c0-53.6-43.6-97.201-97.298-97.201zm268.49 0v118.4h32.499c16.1 0 29.2 13.101 29.2 29.201v427.2h186.09v-477.6c0-53.6-43.6-97.201-97.298-97.201zm333.59 0v118.4h190.5l87.197-118.4zm335.79 0-334.59 454.6c-36.699 49.9-1.0992 120.3 60.799 120.3h84.998l340.89-465.1c33.399-45.6 0.9004-109.7-55.598-109.7h-96.498zm834.88 40.701h41.698c35.299 0 63.998 28.7 63.998 64v98c0 35.3-28.699 64-63.998 64v41.4c35.299 0 63.998 28.7 63.998 64v96.898c0 35.3-28.699 64-63.998 64h-347.59v-54.799h244.29c33.999 0 61.598-27.7 61.598-61.6v-39.9c0-34-27.699-61.6-61.598-61.6h-142.4v-55.4h142.4c33.999 0 61.598-27.7 61.598-61.6zm876.38 0h41.798v375.6c0 33.9 27.601 61.6 61.6 61.6h77.197c33.899 0 61.598-27.6 61.598-61.6v-259.1c0-33.9-27.599-61.6-61.598-61.6h-6.3007v-54.9h109.8c35.399 0 64.198 28.799 64.198 64.199v363.9c0 35.4-28.798 64.199-64.198 64.199h-284.09c-35.399 0-64.2-28.799-64.2-64.199v-363.9c0-35.4 28.8-64.199 64.2-64.199zm559.89 0h41.798v375.6c0 33.9 27.599 61.6 61.598 61.6h77.199c33.899 0 61.598-27.6 61.598-61.6v-259.1c0-33.9-27.599-61.6-61.598-61.6h-6.3006v-54.9h109.8c35.399 0 64.198 28.799 64.198 64.199v363.9c0 35.4-28.798 64.199-64.198 64.199h-284.09c-35.399 0-64.2-28.799-64.2-64.199v-363.9c0-35.4 28.8-64.199 64.2-64.199zm-1742.1 0.0996h173.3v54.9h-173.3zm558.99 0h411.49v54.9h-308.59v219.4h-102.9zm194 177.5v138.2h50.3c11.1 0 20.099 9.0016 20.099 20.102v39.898c0 11.1-8.9994 20.102-20.099 20.102h-285.69v137.8h388.99c58.098 0 105.4-47.3 105.4-105.4v-145.3c0-58.1-47.297-105.4-105.4-105.4zm-1083.3 1v137.8h239.29v-137.8zm1124.7 40.4h112.1c35.299 0 63.998 28.7 63.998 64v145.3c0 35.3-28.699 64-63.998 64h-347.49v-54.799h244.29c33.999 0 61.598-27.7 61.598-61.6v-39.9c0-34-27.699-61.6-61.598-61.6h-8.9002zm-1367 196.7-87.197 118.5h257.69v-118.5z"/>
</svg>
