<?xml version="1.0" encoding="UTF-8"?>
<!-- Created by ERK -->
<svg width="3839" height="1128.2" version="1.1" viewBox="0 0 3839 1128.2" xmlns="http://www.w3.org/2000/svg">
 <path class="st0" d="m1030.2 0.25391c-78.498-0.84187-194.06 10.01-199.42 83.637-5.1017 71.888 97.241 89.048 164.49 104.66 65.549 15.305 126.92 20.718 126.92 43.443 0 15.924-21.643 28.446-78.998 24.117-68.95-5.1017-127.54-23.963-186.13-53.027l-38.805 63.848c64.931 25.354 149.96 45.761 226.64 46.998 91.212 1.546 194.02-13.141 196.34-91.213 2.3191-65.395-65.24-88.274-183.97-111.31-57.819-11.286-107.14-18.243-107.14-36.949 0-20.871 39.732-26.127 96.16-20.098 53.336 5.5655 103.58 19.633 150.42 39.576l35.557-58.438c-37.876-14.378-115.95-32.93-186.91-34.939-4.8601-0.14493-9.9288-0.25247-15.162-0.30859zm1335.9 0.10742c-81.473 0-134.04 5.5654-178.72 13.141v290.95h100.18v-246.74c36.176-7.1115 72.816-7.2668 86.42-6.6484 39.731 1.7006 62.149 7.8852 80.082 20.717 18.552 13.141 23.498 42.359-0.4648 62.611-17.933 15.151-54.418 26.899-136.05 14.531l-11.44 18.861 154.13 136.82h136.51l-136.97-118.58c32.929-4.3287 82.864-17.469 106.83-48.697 23.808-31.229 20.716-77.144-25.199-103.43-42.669-24.581-124.3-33.547-175.31-33.547zm436.05 0.13477c-81.627 0-134.66 5.5673-179.33 13.143v290.95h100.18v-106.67c31.074 5.1017 69.878 8.194 103.43 7.8848 82.091-0.77297 143-19.943 170.67-50.244 39.732-42.823 26.438-94.614-19.014-121.51-40.814-24.117-117.18-33.549-175.93-33.549zm-932.29 8.9219-179.8 295.13h76.68l36.795-60.447h207.31l35.711 60.447h122.44l-179.8-295.13zm-592.77 0.037109v295.13h100.18v-118.58h194.02v118.58h100.18v-295.13h-100.18v112.86h-194.02v-112.86zm1519 41.682c5.9834-0.03865 10.872 0.06806 14.273 0.22266 40.041 1.7006 63.384 8.5036 80.699 20.717 17.933 12.368 23.964 42.822-0.4629 62.92-17.315 14.223-42.67 19.17-82.557 19.17-29.528-0.15459-59.983-5.5654-84.719-11.131v-85.027c27.016-5.3336 54.816-6.7551 72.766-6.8711zm-887.25 20.273 67.715 114.56h-137.59z" fill="#d02026" stroke-width="1.546"/>
 <path d="m1964.4 449.5v162.5h240.1l75-162.5zm368.7 0-313.1 678.2h244.4l251.4-544.6c13.5-29.3 11.199-62.999-6.2012-90.199s-46.999-43.4-79.299-43.4zm385.1 0c-68.6 0-124.5 55.8-124.5 124.5v429.2c0 68.6 55.8 124.5 124.5 124.5h335c68.6 0 124.5-55.9 124.5-124.5v-429.2c0-68.6-55.8-124.5-124.5-124.5h-178.3v162.5h56.299c13.1 0 23.801 10.701 23.801 23.801v305.6c0 13.1-10.701 23.799-23.801 23.799h-91c-13.1 0-23.799-10.699-23.799-23.799v-491.9zm661.3 0c-68.6 0-124.5 55.8-124.5 124.5v429.2c0 68.6 55.8 124.5 124.5 124.5h335c68.6 0 124.5-55.9 124.5-124.5v-429.2c0-68.6-55.8-124.5-124.5-124.5h-178.3v162.5h56.301c13.1 0 23.801 10.701 23.801 23.801v305.6c0 13.1-10.701 23.799-23.801 23.799h-91c-13.1 0-23.801-10.699-23.801-23.799v-491.9zm-3379.5 0.80078v677.9h219.4v-677.9zm283.2 0v139.7h18.701c19 0 34.4 15.4 34.4 34.4v503.8h219.4v-563.2c0-63.3-51.299-114.7-114.7-114.7zm316.7 0v139.7h38.299c19 0 34.4 15.4 34.4 34.4v503.8h219.4v-563.2c0.1-63.3-51.299-114.7-114.7-114.7zm393.3 0v139.7h224.7l102.8-139.7zm396.1 0-394.6 536.1c-43.3 58.8-1.2988 141.8 71.701 141.8h100.2l402-548.5c39.4-53.7 1.0004-129.4-65.6-129.4zm623.9 48h189.9l-29.9 64.799h-160zm351.1 0h66c15.8 0 29.699 7.5984 38.199 20.898 8.5 13.3 9.6 29.1 3 43.4l-238.3 516.2h-136.8zm559.3 0h129.5c41.8 0 75.701 33.999 75.701 75.699v429.3c0 41.8-34.001 75.699-75.701 75.699h-335c-41.8 0-75.699-33.999-75.699-75.699v-429.2c0-41.8 33.999-75.699 75.699-75.699h49.201v443c0 40.1 32.599 72.699 72.699 72.699h91c40.1 0 72.699-32.599 72.699-72.699v-305.6c0-40.1-32.599-72.701-72.699-72.701h-7.4004zm661.4 0h129.5c41.8 0 75.699 33.999 75.699 75.699v429.3c0 41.8-33.999 75.699-75.699 75.699h-335c-41.8 0-75.699-33.999-75.699-75.699v-429.2c0-41.8 33.999-75.699 75.699-75.699h49.199v443c0 40.1 32.601 72.699 72.701 72.699h91c40.1 0 72.699-32.599 72.699-72.699v-305.6c0-40.1-32.599-72.701-72.699-72.701h-7.4004zm-1961.3 210.6v162.5h282.2v-162.5zm-285.7 279.7-102.8 139.6h303.8v-139.6z" fill="#fff"/>
</svg>
