<?xml version="1.0" encoding="UTF-8"?>
<!-- Created by ERK -->
<svg width="3839" height="1109.1" version="1.1" viewBox="0 0 3839 1109.1" xml:space="preserve" xmlns="http://www.w3.org/2000/svg"><path class="st0" d="m1030.2 0.043318c-78.498-0.84187-194.06 10.01-199.42 83.637-5.1017 71.888 97.241 89.048 164.49 104.66 65.549 15.305 126.92 20.718 126.92 43.443 0 15.924-21.643 28.446-78.998 24.117-68.95-5.1017-127.54-23.963-186.13-53.027l-38.805 63.848c64.931 25.354 149.96 45.761 226.64 46.998 91.212 1.546 194.02-13.141 196.34-91.213 2.3191-65.395-65.24-88.274-183.97-111.31-57.819-11.286-107.14-18.243-107.14-36.949 0-20.871 39.732-26.127 96.16-20.098 53.336 5.5655 103.58 19.633 150.42 39.576l35.557-58.438c-37.876-14.378-115.95-32.93-186.91-34.939-4.8601-0.14493-9.9288-0.25247-15.162-0.30859zm1335.9 0.10742c-81.473 0-134.04 5.5654-178.72 13.141v290.95h100.18v-246.74c36.176-7.1115 72.816-7.2668 86.42-6.6484 39.731 1.7006 62.149 7.8852 80.082 20.717 18.552 13.141 23.498 42.359-0.4648 62.611-17.933 15.151-54.418 26.899-136.05 14.531l-11.44 18.861 154.13 136.82h136.51l-136.97-118.58c32.929-4.3287 82.864-17.469 106.83-48.697 23.808-31.229 20.716-77.144-25.199-103.43-42.669-24.581-124.3-33.547-175.31-33.547zm436.05 0.13477c-81.627 0-134.66 5.5673-179.33 13.143v290.95h100.18v-106.67c31.074 5.1017 69.878 8.194 103.43 7.8848 82.091-0.77297 143-19.943 170.67-50.244 39.732-42.823 26.438-94.614-19.014-121.51-40.814-24.117-117.18-33.549-175.93-33.549zm-932.29 8.9219-179.8 295.13h76.68l36.795-60.447h207.31l35.711 60.447h122.44l-179.8-295.13zm-592.77 0.037109v295.13h100.18v-118.58h194.02v118.58h100.18v-295.13h-100.18v112.86h-194.02v-112.86zm1519 41.682c5.9834-0.03865 10.872 0.06806 14.273 0.22266 40.041 1.7006 63.384 8.5036 80.699 20.717 17.933 12.368 23.964 42.822-0.4629 62.92-17.315 14.223-42.67 19.17-82.557 19.17-29.528-0.15459-59.983-5.5654-84.719-11.131v-85.027c27.016-5.3336 54.816-6.7551 72.766-6.8711zm-887.25 20.273 67.715 114.56h-137.59z" fill="#d02026" stroke-width="1.546"/><path d="m3237.8 447.99v659.69h213.49v-659.69zm387.73 0s-49.776 146.19-75.062 229.19c-6.6296 11.346-18.879 18.639-32.459 18.659h-17.184v123.89h17.184c13.58 0.0198 25.829 7.313 32.459 18.659 25.639 82.896 75.062 269.29 75.062 269.29h213.49l-76.645-278.63c-9.5531-29.086-22.753-52.681-49.536-71.269 25.37-15.929 41.042-43.461 49.536-71.269l76.645-238.52zm-1569 1.2873c-45.294 0-82.164 36.87-82.164 82.164v140.94c0 23.589 9.9112 44.799 25.769 59.765-28.742 22.102-47.376 56.889-47.376 95.939v158.68c0 66.702 54.214 120.92 120.92 120.92h326.28c66.702 0 120.92-54.214 120.82-120.82v-158.78c0-39.05-18.534-73.837-47.376-95.939 15.858-15.065 25.769-36.276 25.769-59.765v-140.94c0-45.294-36.87-82.164-82.164-82.164h-180.18v157.78h33.698c12.686 0 23.092 10.308 23.092 23.094v28.644c0 12.686-10.306 23.092-23.092 23.092h-67.396c-12.785 0-23.192-10.306-23.192-23.092v-209.52zm660.18 0c-66.702 0-120.92 54.214-120.92 120.92v416.57c0 66.702 54.214 120.92 120.92 120.92h325.28c66.702 0 120.92-54.214 120.92-120.82v-416.67c0-66.702-54.214-120.92-120.92-120.92h-173.15v157.78h54.61c12.686 0 23.094 10.308 23.094 23.094v296.64c0 12.686-10.308 23.092-23.094 23.092h-88.308c-12.686 0-23.094-10.306-23.094-23.092v-477.52zm-2716.7 0.09873v659.69h213.49v-659.69zm275.63 0v135.88h18.138c18.534 0 33.499 14.967 33.499 33.501v490.21h213.49v-547.99c0-61.647-49.952-111.6-111.6-111.6zm308.14 0v135.88h37.266c18.534 0 33.501 14.967 33.501 33.501v490.21h213.49v-547.99c0-61.647-49.954-111.6-111.6-111.6zm382.67 0v135.88h218.64l100-135.88zm385.45 0-383.96 521.63c-42.122 57.188-1.2881 137.96 69.775 137.96h97.526l391.09-533.72c38.356-52.232 0.9906-125.87-63.828-125.87zm932.24 47.277h132.81c19.228 0 34.788 15.659 34.788 34.788v140.94c0 19.228-15.659 34.788-34.788 34.788h-17.046v47.475c40.537 0 73.441 32.905 73.441 73.441v158.68c0 40.537-32.905 73.441-73.441 73.441h-326.28c-40.537 0-73.441-32.905-73.441-73.441v-158.78c0-40.537 32.905-73.441 73.441-73.441v-47.275h-17.046c-19.228 0-34.788-15.661-34.788-34.79v-140.94c0-19.228 15.659-34.788 34.788-34.788h75.919v162.05c0 38.951 31.618 70.567 70.569 70.567h67.396c38.951 0 70.567-31.616 70.567-70.567v-28.644c0-34.293-24.481-62.837-56.89-69.279zm432.52 0h47.97v430.14c0 38.951 31.616 70.567 70.567 70.567h88.308c38.951 0 70.569-31.616 70.569-70.567v-296.64c0-38.951-31.618-70.567-70.569-70.567h-7.2339v-62.837h125.67c40.537 0 73.443 32.905 73.443 73.441v416.67c0 40.537-32.907 73.441-73.443 73.441h-325.28c-40.537 0-73.441-32.905-73.441-73.441v-416.67c0-40.537 32.905-73.441 73.441-73.441zm-1136.7 204.27v158.08h274.54v-158.08zm612.21 94.255c-38.951 0-70.668 31.717-70.668 70.667v60.853c0 38.951 31.717 70.667 70.668 70.667h89.2c38.951 0 70.665-31.617 70.665-70.667v-60.853c0-38.951-31.714-70.667-70.665-70.667zm0 47.475h89.2c12.785 0 23.19 10.407 23.19 23.193v60.853c0 12.785-10.405 23.193-23.19 23.193h-89.2c-12.785 0-23.192-10.407-23.192-23.193v-60.853c0-12.785 10.407-23.193 23.192-23.193zm-890.22 130.43-100.1 135.88h295.65v-135.88z"/></svg>
