<?xml version="1.0" encoding="UTF-8"?>
<!-- Created by ERK -->
<svg width="3839" height="1115" version="1.1" viewBox="0 0 3839 1115" xmlns="http://www.w3.org/2000/svg">
 <path class="st0" d="m1030.2 0.043318c-78.498-0.84187-194.06 10.01-199.42 83.637-5.1017 71.888 97.241 89.048 164.49 104.66 65.549 15.305 126.92 20.718 126.92 43.443 0 15.924-21.643 28.446-78.998 24.117-68.95-5.1017-127.54-23.963-186.13-53.027l-38.805 63.848c64.931 25.354 149.96 45.761 226.64 46.998 91.212 1.546 194.02-13.141 196.34-91.213 2.3191-65.395-65.24-88.274-183.97-111.31-57.819-11.286-107.14-18.243-107.14-36.949 0-20.871 39.732-26.127 96.16-20.098 53.336 5.5655 103.58 19.633 150.42 39.576l35.557-58.438c-37.876-14.378-115.95-32.93-186.91-34.939-4.8601-0.14493-9.9288-0.25247-15.162-0.30859zm1335.9 0.10742c-81.473 0-134.04 5.5654-178.72 13.141v290.95h100.18v-246.74c36.176-7.1115 72.816-7.2668 86.42-6.6484 39.731 1.7006 62.149 7.8852 80.082 20.717 18.552 13.141 23.498 42.359-0.4648 62.611-17.933 15.151-54.418 26.899-136.05 14.531l-11.44 18.861 154.13 136.82h136.51l-136.97-118.58c32.929-4.3287 82.864-17.469 106.83-48.697 23.808-31.229 20.716-77.144-25.199-103.43-42.669-24.581-124.3-33.547-175.31-33.547zm436.05 0.13477c-81.627 0-134.66 5.5673-179.33 13.143v290.95h100.18v-106.67c31.074 5.1017 69.878 8.194 103.43 7.8848 82.091-0.77297 143-19.943 170.67-50.244 39.732-42.823 26.438-94.614-19.014-121.51-40.814-24.117-117.18-33.549-175.93-33.549zm-932.29 8.9219-179.8 295.13h76.68l36.795-60.447h207.31l35.711 60.447h122.44l-179.8-295.13zm-592.77 0.037109v295.13h100.18v-118.58h194.02v118.58h100.18v-295.13h-100.18v112.86h-194.02v-112.86zm1519 41.682c5.9834-0.03865 10.872 0.06806 14.273 0.22266 40.041 1.7006 63.384 8.5036 80.699 20.717 17.933 12.368 23.964 42.822-0.4629 62.92-17.315 14.223-42.67 19.17-82.557 19.17-29.528-0.15459-59.983-5.5654-84.719-11.131v-85.027c27.016-5.3336 54.816-6.7551 72.766-6.8711zm-887.25 20.273 67.715 114.56h-137.59z" fill="#d02026" stroke-width="1.546"/>
 <path d="m2074.9 449.29c-45.7 0-82.9 37.2-82.9 82.9v142.2c0 23.8 10 45.201 26 60.301-29 22.3-47.801 57.399-47.801 96.799v160.1c0 67.3 54.7 122 122 122h329.2c67.3 0 122-54.7 121.9-121.9v-160.2c0-39.4-18.701-74.499-47.801-96.799 16-15.2 26-36.601 26-60.301v-142.2c0-45.7-37.2-82.9-82.9-82.9h-181.8v159.2h34c12.8 0 23.299 10.401 23.299 23.301v28.9c0 12.8-10.399 23.299-23.299 23.299h-68c-12.9 0-23.4-10.399-23.4-23.299v-211.4zm666.1 0c-67.3 0-122 54.7-122 122v420.3c0 67.3 54.7 122 122 122h328.2c67.3 0 122-54.7 122-121.9v-420.4c0-67.3-54.7-122-122-122h-174.7v159.2h55.1c12.8 0 23.301 10.401 23.301 23.301v299.3c0 12.8-10.401 23.299-23.301 23.299h-89.1c-12.8 0-23.301-10.399-23.301-23.299v-481.8zm647.8 0c-67.3 0-122 54.7-122 122v420.3c0 67.3 54.7 122 122 122h328.2c67.3 0 122-54.7 122-121.9v-420.4c0-67.3-54.7-122-122-122h-174.7v159.2h55.1c12.8 0 23.299 10.401 23.299 23.301v299.3c0 12.8-10.399 23.299-23.299 23.299h-89.1c-12.8 0-23.301-10.399-23.301-23.299v-481.8zm-3388.8 0.1v665.6h215.4v-665.6zm278.1 0v137.1h18.301c18.7 0 33.799 15.101 33.799 33.801v494.6h215.4v-552.9c0-62.2-50.4-112.6-112.6-112.6zm310.9 0v137.1h37.6c18.7 0 33.801 15.101 33.801 33.801v494.6h215.4v-552.9c0-62.2-50.402-112.6-112.6-112.6zm386.1 0v137.1h220.6l100.9-137.1zm388.9 0-387.4 526.3c-42.5 57.7-1.2996 139.2 70.4 139.2h98.4l394.6-538.5c38.7-52.7 0.9996-127-64.4-127zm940.6 47.701h134c19.4 0 35.1 15.8 35.1 35.1v142.2c0 19.4-15.8 35.1-35.1 35.1h-17.199v47.9c40.9 0 74.1 33.2 74.1 74.1v160.1c0 40.9-33.2 74.1-74.1 74.1h-329.2c-40.9 0-74.1-33.2-74.1-74.1v-160.2c0-40.9 33.2-74.1 74.1-74.1v-47.699h-17.199c-19.4 0-35.1-15.802-35.1-35.102v-142.2c0-19.4 15.8-35.1 35.1-35.1h76.6v163.5c0 39.3 31.901 71.199 71.201 71.199h68c39.3 0 71.199-31.899 71.199-71.199v-28.9c0-34.6-24.7-63.4-57.4-69.9zm436.4 0h48.4v434c0 39.3 31.899 71.199 71.199 71.199h89.1c39.3 0 71.201-31.899 71.201-71.199v-299.3c0-39.3-31.901-71.199-71.201-71.199h-7.2988v-63.4h126.8c40.9 0 74.102 33.2 74.102 74.1v420.4c0 40.9-33.202 74.1-74.102 74.1h-328.2c-40.9 0-74.1-33.2-74.1-74.1v-420.4c0-40.9 33.2-74.1 74.1-74.1zm647.8 0h48.398v434c0 39.3 31.901 71.199 71.201 71.199h89.1c39.3 0 71.199-31.899 71.199-71.199v-299.3c0-39.3-31.899-71.199-71.199-71.199h-7.3008v-63.4h126.8c40.9 0 74.1 33.2 74.1 74.1v420.4c0 40.9-33.2 74.1-74.1 74.1h-328.2c-40.9 0-74.102-33.2-74.102-74.1v-420.4c0-40.9 33.202-74.1 74.102-74.1zm-1794.7 206.1v159.5h277v-159.5zm617.7 95.1c-39.3 0-71.301 32.001-71.301 71.301v61.398c0 39.3 32.001 71.301 71.301 71.301h90c39.3 0 71.299-31.901 71.299-71.301v-61.398c0-39.3-31.999-71.301-71.299-71.301zm0 47.9h90c12.9 0 23.398 10.5 23.398 23.4v61.398c0 12.9-10.498 23.4-23.398 23.4h-90c-12.9 0-23.4-10.5-23.4-23.4v-61.398c0-12.9 10.5-23.4 23.4-23.4zm-898.2 131.6-101 137.1h298.3v-137.1z"/>
</svg>
