<?xml version="1.0" encoding="UTF-8" standalone="no"?>
<!-- Created by ERK -->

<svg
   height="2045.851"
   width="6185.3984"
   version="1.1"
   id="svg167380"
   sodipodi:docname="n64dd-w.svg"
   inkscape:version="1.4 (86a8ad7, 2024-10-11)"
   xmlns:inkscape="http://www.inkscape.org/namespaces/inkscape"
   xmlns:sodipodi="http://sodipodi.sourceforge.net/DTD/sodipodi-0.dtd"
   xmlns="http://www.w3.org/2000/svg"
   xmlns:svg="http://www.w3.org/2000/svg">
  <defs
     id="defs167384" />
  <sodipodi:namedview
     id="namedview167382"
     pagecolor="#ffffff"
     bordercolor="#666666"
     borderopacity="1.0"
     inkscape:pageshadow="2"
     inkscape:pageopacity="0.0"
     inkscape:pagecheckerboard="true"
     showgrid="false"
     inkscape:zoom="0.17978076"
     inkscape:cx="3092.6557"
     inkscape:cy="1023.4688"
     inkscape:window-width="1916"
     inkscape:window-height="1003"
     inkscape:window-x="0"
     inkscape:window-y="1041"
     inkscape:window-maximized="0"
     inkscape:current-layer="svg167380"
     inkscape:showpageshadow="2"
     inkscape:deskcolor="#d1d1d1" />
  <g
     id="g1"
     transform="matrix(11.150814,0,0,11.150814,-143.50638,2272.4979)"
     inkscape:label="N-Logo">
    <polygon
       class="st2"
       points="429.5,92.8 330.5,269.6 429.5,231.7 524.1,267.9 549.4,239.5 549.4,46.3 "
       id="polygon11"
       style="fill:#354ea2"
       transform="matrix(0.21386059,0,0,0.21386059,12.869588,-203.79659)"
       inkscape:label="N-Blue" />
    <polygon
       class="st2"
       points="121.7,728.2 235.9,677.6 121.7,455.9 "
       id="polygon13"
       style="fill:#354ea2"
       transform="matrix(0.21386059,0,0,0.21386059,12.869588,-203.79659)"
       inkscape:label="N-Blue" />
    <polygon
       class="st2"
       points="859.1,164.7 859.1,677 737.4,728.2 558.4,494.6 558.4,803.4 429.5,857.9 429.5,330.4 558.4,281 737.4,536.8 737.4,211.6 "
       id="polygon12"
       style="fill:#354ea2"
       transform="matrix(0.21386059,0,0,0.21386059,12.869588,-203.79659)"
       inkscape:label="N-Blue" />
    <polygon
       class="st3"
       points="429.5,92.8 309.6,46.2 243.4,164.7 300.7,281 330.5,269.6 "
       id="polygon14"
       style="fill:#23b057"
       transform="matrix(0.21386059,0,0,0.21386059,12.869588,-203.79659)"
       inkscape:label="N-Green" />
    <polygon
       class="st3"
       points="737.4,536.8 558.4,281 524.1,267.9 615.7,164.7 737.4,211.6 "
       id="polygon15"
       style="fill:#23b057"
       transform="matrix(0.21386059,0,0,0.21386059,12.869588,-203.79659)"
       inkscape:label="N-Green" />
    <polygon
       class="st3"
       points="300.7,281 300.7,548.8 121.7,211.6 0,164.7 0,677 121.7,728.2 121.7,455.9 300.7,803.4 429.5,857.9 429.5,330.4 "
       id="polygon16"
       style="fill:#23b057"
       transform="matrix(0.21386059,0,0,0.21386059,12.869588,-203.79659)"
       inkscape:label="N-Green" />
    <polygon
       class="st1"
       points="121.7,211.6 243.4,164.7 300.7,281 300.7,548.8 "
       id="polygon17"
       style="fill:#f01b25"
       transform="matrix(0.21386059,0,0,0.21386059,12.869588,-203.79659)"
       inkscape:label="N-Red" />
    <polygon
       class="st1"
       points="558.4,622.2 595,673.5 737.4,728.2 558.4,494.6 "
       id="polygon18"
       style="fill:#f01b25"
       transform="matrix(0.21386059,0,0,0.21386059,12.869588,-203.79659)"
       inkscape:label="N-Red" />
    <polygon
       class="st4"
       points="300.7,281 429.5,231.7 558.4,281 429.5,330.4 "
       id="polygon19"
       style="fill:#ffa623"
       transform="matrix(0.21386059,0,0,0.21386059,12.869588,-203.79659)"
       inkscape:label="N-Yellow" />
    <polygon
       class="st4"
       points="859.1,164.7 737.4,211.6 615.7,164.7 737.4,117.9 "
       id="polygon20"
       style="fill:#ffa623"
       transform="matrix(0.21386059,0,0,0.21386059,12.869588,-203.79659)"
       inkscape:label="N-Yellow" />
    <polygon
       class="st4"
       points="243.4,164.7 121.7,211.6 0,164.7 121.7,117.9 "
       id="polygon21"
       style="fill:#ffa623"
       transform="matrix(0.21386059,0,0,0.21386059,12.869588,-203.79659)"
       inkscape:label="N-Yellow" />
    <polygon
       class="st4"
       points="309.6,46.2 429.5,92.8 549.4,46.3 429.5,0 "
       id="polygon22"
       style="fill:#ffa623"
       transform="matrix(0.21386059,0,0,0.21386059,12.869588,-203.79659)"
       inkscape:label="N-Yellow" />
  </g>
  <g
     transform="matrix(1.3333333,0,0,-1.3333333,3349.0054,1961.4554)"
     id="g10"
     inkscape:label="Nintendo">
    <path
       id="path88"
       style="fill:#bfbfbf;fill-opacity:1;fill-rule:nonzero;stroke:none;stroke-width:0.1"
       d="m 45.523,1358.5 h 0.375 l 30,-86.33 h 67.278 v 149.55 H 97.648 v -85.8 h -0.375 l -30,85.8 H 0 v -149.55 h 45.523 z"
       inkscape:label="N" />
    <path
       id="path94"
       style="fill:#bfbfbf;fill-opacity:1;fill-rule:nonzero;stroke:none;stroke-width:0.1"
       d="m 170.625,1272.25 h 56.102 v 149.473 h -56.102 z"
       inkscape:label="I" />
    <path
       id="path90"
       style="fill:#bfbfbf;fill-opacity:1;fill-rule:nonzero;stroke:none;stroke-width:0.1"
       d="m 299.324,1358.5 h 0.375 l 30,-86.33 h 67.278 v 149.55 h -45.454 v -85.8 h -0.375 l -30.074,85.8 h -67.273 v -149.55 h 45.523 z"
       inkscape:label="N" />
    <path
       id="path96"
       style="fill:#bfbfbf;fill-opacity:1;fill-rule:nonzero;stroke:none;stroke-width:0.1"
       d="m 448.949,1272.17 h 56.102 v 108.9 h 35.773 v 40.65 H 413.25 v -40.65 h 35.699 z"
       inkscape:label="T" />
    <path
       id="path106"
       style="fill:#bfbfbf;fill-opacity:1;fill-rule:nonzero;stroke:none;stroke-width:0.1"
       d="m 670.125,1311.4 h -57.523 v 16.73 h 51.375 v 38.39 h -51.375 v 15.68 h 55.796 v 39.52 h -111 v -149.55 h 112.727 z"
       inkscape:label="E" />
    <path
       id="path92"
       style="fill:#bfbfbf;fill-opacity:1;fill-rule:nonzero;stroke:none;stroke-width:0.1"
       d="m 736.426,1358.5 h 0.375 l 30,-86.33 h 67.273 v 149.55 h -45.449 v -85.8 h -0.449 l -30,85.8 h -67.278 v -149.55 h 45.528 z"
       inkscape:label="N" />
    <path
       id="path98"
       style="fill:#bfbfbf;fill-opacity:1;fill-rule:nonzero;stroke:none;stroke-width:0.1"
       d="m 999.449,1345.38 c 0,44.25 -18.074,76.34 -74.773,76.34 h -66.449 v -149.47 h 69.824 c 43.574,0 71.398,27.97 71.398,73.13 z m -86.324,-39.31 v 81.53 h 5.477 c 9.074,0 15.074,-2.78 18.597,-8.78 3.676,-6.22 4.125,-17.55 4.125,-32.02 0,-14.4 -0.375,-25.73 -4.125,-31.95 -3.523,-6 -9.597,-8.78 -18.597,-8.78 z"
       inkscape:label="D" />
    <path
       id="path100"
       style="fill:#bfbfbf;fill-opacity:1;fill-rule:nonzero;stroke:none;stroke-width:0.1"
       d="m 1087.43,1268.2 c 48.89,0 73.2,32.02 73.2,78.68 0,46.64 -24.38,78.75 -73.2,78.75 -48.91,0 -73.2,-32.11 -73.2,-78.75 0,-46.58 24.37,-78.68 73.2,-78.68 z m 0,119.55 c 9,0 15.07,-5.1 15.07,-40.87 0,-36.61 -6.45,-40.81 -15.07,-40.81 -8.63,0 -15.16,4.28 -15.08,40.81 0,35.84 6.08,40.87 15.08,40.87 z"
       inkscape:label="O" />
    <path
       id="path14"
       style="fill:#bfbfbf;fill-opacity:1;fill-rule:nonzero;stroke:none;stroke-width:0.1"
       d="m 1199.25,1272.17 c -7.95,0 -14.32,6.46 -14.32,14.33 0,7.88 6.45,14.32 14.32,14.32 7.88,0 14.32,-6.44 14.32,-14.32 0.08,-7.95 -6.37,-14.33 -14.32,-14.33 m 0,31.73 c -9.6,0 -17.4,-7.8 -17.4,-17.4 0,-9.6 7.8,-17.4 17.4,-17.4 9.6,0 17.4,7.8 17.4,17.4 0,9.52 -7.8,17.4 -17.4,17.4 z"
       inkscape:label="Circle" />
    <path
       id="path16"
       style="fill:#b2b2b2;fill-opacity:1;fill-rule:nonzero;stroke:none;stroke-width:0.1"
       d="m 1196.4,1287.85 h 3.37 c 1.88,0 2.86,0.9 2.86,2.7 0,1.72 -1.06,2.4 -2.86,2.47 h -3.37 v -5.17 m 0,-10.88 h -4.05 v 19.05 h 8.17 c 3.23,0 6.68,-1.05 6.68,-4.95 0,-2.55 -1.65,-4.12 -3.97,-4.65 3.15,-0.37 3.15,-2.32 3.45,-4.95 0.14,-1.27 0.37,-3.45 1.12,-4.5 h -4.5 c -0.37,1.73 -0.53,3.38 -0.75,5.1 -0.15,1.13 -0.37,2.56 -1.73,2.63 h -4.27 z"
       inkscape:label="R" />
  </g>
  <g
     id="g5"
     inkscape:label="64"
     transform="translate(1002.6046)">
    <path
       id="path102"
       style="fill:#f01b25;fill-opacity:1;fill-rule:nonzero;stroke:none;stroke-width:0.1"
       d="m 1229.93,1343.65 c 25.2,0 44.09,19.05 44.09,43.57 0,25.58 -17.17,39.23 -35.92,39.23 -9.75,0 -17.1,-2.4 -22.95,-7.57 h -0.6 c 3.22,11.39 12.75,21.44 36.45,22.57 4.05,0.22 6.98,0.3 9.9,0.07 l 0.15,25.13 c -2.4,0.23 -5.55,0.52 -10.65,0.23 -19.35,-0.46 -35.17,-6.16 -47.47,-17.56 -12.91,-12.07 -20.78,-30.82 -20.78,-53.02 0,-27.23 14.48,-52.65 47.78,-52.65 z m -15.38,50.77 c 1.88,4.88 6.83,8.78 13.05,8.78 10.28,0 14.1,-9.23 14.17,-17.7 0,-9.98 -4.64,-17.85 -12.37,-17.85 -10.58,-0.08 -15.15,9.98 -15.83,19.57 0,3.6 0.23,5.7 0.98,7.2 z"
       inkscape:label="6"
       transform="matrix(1.3333333,0,0,-1.3333333,2346.4008,1961.4554)" />
    <path
       id="path104"
       style="fill:#f01b25;fill-opacity:1;fill-rule:nonzero;stroke:none;stroke-width:0.1"
       d="m 1332.68,1345.6 h 30 v 26.85 h 12.67 v 24.6 h -12.67 v 68.25 h -39.83 l -40.05,-71.33 v -21.52 h 49.88 z m -21,51.45 0.14,0.37 9.83,19.88 c 4.2,8.33 7.42,15.97 11.17,24.08 h 0.68 c -0.37,-8.41 -0.82,-16.28 -0.82,-23.86 v -20.55 z"
       inkscape:label="4"
       transform="matrix(1.3333333,0,0,-1.3333333,2346.4008,1961.4554)" />
  </g>
  <g
     id="g4"
     inkscape:label="64DD"
     transform="matrix(1.3333333,0,0,-1.3333333,2346.4008,1961.4554)"
     style="fill:#cbcbca;fill-opacity:1">
    <path
       id="path160"
       style="fill:#bfbfbf;fill-opacity:1;fill-rule:nonzero;stroke:none;stroke-width:0.176641"
       d="M 2462.6238,1179.9213 H 2118.7566 V 885.02252 c -44.2485,172.50058 -179.7852,294.89878 -400.5813,294.89878 h -343.8 V 664.29714 h -136.427 V 1179.999 H 936.75056 L 674.55162,712.52192 c -41.92753,114.3009 -143.02804,174.07624 -251.17654,174.07624 -74.0232,0 -129.00097,-17.9273 -173.39794,-56.84839 h -4.27824 c 24.60256,86.17081 96.74984,162.22186 275.69961,170.77303 30.82917,1.4255 52.49949,1.9501 75.07776,0.3745 v 190.1258 c -18.4537,1.7258 -41.54952,3.7484 -80.40172,1.7258 C 369.44833,1189.1472 249.97714,1145.796 156.97686,1059.9219 59.551181,968.49956 0.07382817,826.59672 0.07382817,658.97318 c 0,-206.0995 109.65313183,-398.3998 361.49984183,-398.32561 150.37631,0 270.60176,89.47753 314.9263,217.95035 H 1011.3002 V 275.79631 l 226.6481,0.0777 v 202.79808 h 136.427 v -202.8758 h 343.8 c 220.7961,0 356.3328,122.40166 400.5813,294.90226 V 275.79631 h 343.7966 c 274.0409,0 416.6256,188.55197 416.6256,427.35127 v 49.50013 c 0.071,238.80106 -142.5847,427.27359 -416.555,427.27359 z M 357.97726,442.74861 h -1.20469 c -79.19879,0 -113.92113,75.97333 -118.87414,148.20009 0,26.84768 2.10203,42.8231 7.42599,53.99918 13.80096,36.44988 50.99981,66.30223 98.24953,66.30223 77.99939,0 107.24939,-69.5277 107.62563,-133.57951 0,-75.74899 -34.9502,-134.92199 -93.22232,-134.92199 z M 1011.3002,819.69889 V 664.22295 H 853.12514 l 0.97683,2.85099 74.2493,150.59711 c 31.64879,62.92662 56.02349,120.97617 84.37613,182.02686 h 4.7958 c -3.0011,-62.92485 -6.223,-122.69842 -6.223,-179.99902 z m 706.8751,-357.00043 h -107.698 v 530.24999 h 107.698 c 84.8178,0 157.8765,-86.17611 157.8765,-265.12588 0,-178.948 -73.0587,-265.12411 -157.8765,-265.12411 z m 744.4485,0 h -107.698 v 530.24999 h 107.698 c 84.8231,0 157.8818,-86.17611 157.8818,-265.12588 0,-178.948 -73.0587,-265.12411 -157.8818,-265.12411 z"
       inkscape:label="64DD" />
    <path
       id="path20"
       style="display:inline;fill:#bfbfbf;fill-opacity:1;fill-rule:nonzero;stroke:none;stroke-width:1.72413"
       d="m 27795.734,3089.503 h -177.585 v 109.4823 h 485.17 V 3089.503 h -177.758 v -483.015 h -130.516 z"
       inkscape:label="T"
       transform="scale(0.1)" />
    <path
       id="path24"
       style="display:inline;fill:#bfbfbf;fill-opacity:1;fill-rule:nonzero;stroke:none;stroke-width:1.76637"
       d="m 28154.348,3198.9844 h 182.996 l 138.66,-407.2543 h 1.59 l 131.241,407.2543 h 182.996 v -592.4935 h -122.233 v 419.9898 h -1.59 l -145.372,-419.9898 h -100.506 l -145.549,415.5032 h -1.59 v -415.5032 h -122.233 v 592.4935 z"
       inkscape:label="M"
       transform="scale(0.1)" />
  </g>
</svg>
