<?xml version="1.0" encoding="UTF-8" standalone="no"?>
<!-- Created by ERK -->

<svg
   width="3635.0273mm"
   height="736.97052mm"
   viewBox="0 0 3635.0273 736.9705"
   version="1.1"
   id="svg1"
   inkscape:version="1.4 (86a8ad7, 2024-10-11)"
   xml:space="preserve"
   sodipodi:docname="namco3xx-w.svg"
   xmlns:inkscape="http://www.inkscape.org/namespaces/inkscape"
   xmlns:sodipodi="http://sodipodi.sourceforge.net/DTD/sodipodi-0.dtd"
   xmlns="http://www.w3.org/2000/svg"
   xmlns:svg="http://www.w3.org/2000/svg"><sodipodi:namedview
     id="namedview1"
     pagecolor="#ffffff"
     bordercolor="#000000"
     borderopacity="0.25"
     inkscape:showpageshadow="2"
     inkscape:pageopacity="0.0"
     inkscape:pagecheckerboard="true"
     inkscape:deskcolor="#d1d1d1"
     inkscape:document-units="mm"
     inkscape:zoom="0.13413977"
     inkscape:cx="7108.2574"
     inkscape:cy="1666.1725"
     inkscape:window-width="3840"
     inkscape:window-height="2066"
     inkscape:window-x="-11"
     inkscape:window-y="-11"
     inkscape:window-maximized="1"
     inkscape:current-layer="svg1"
     showgrid="false" /><defs
     id="defs1"><marker
       id="DistanceX"
       orient="auto"
       refX="0"
       refY="0"
       style="overflow:visible"><path
         d="M 3,-3 -3,3 M 0,-5 V 5"
         style="stroke:#000000;stroke-width:0.5"
         id="path1" /></marker><pattern
       id="Hatch"
       patternUnits="userSpaceOnUse"
       width="8"
       height="8"
       x="0"
       y="0"><path
         d="M8 4 l-4,4"
         stroke="#000000"
         stroke-width="0.25"
         linecap="square"
         id="path2" /><path
         d="M6 2 l-4,4"
         stroke="#000000"
         stroke-width="0.25"
         linecap="square"
         id="path3" /><path
         d="M4 0 l-4,4"
         stroke="#000000"
         stroke-width="0.25"
         linecap="square"
         id="path4" /></pattern><symbol
       id="*Model_Space" /><symbol
       id="*Paper_Space" /><symbol
       id="*Paper_Space0" /><marker
       id="DistanceX-0"
       orient="auto"
       refX="0"
       refY="0"
       style="overflow:visible"><path
         d="M 3,-3 -3,3 M 0,-5 V 5"
         style="stroke:#000000;stroke-width:0.5"
         id="path1-9" /></marker><pattern
       id="Hatch-4"
       patternUnits="userSpaceOnUse"
       width="8"
       height="8"
       x="0"
       y="0"><path
         d="M8 4 l-4,4"
         stroke="#000000"
         stroke-width="0.25"
         linecap="square"
         id="path2-8" /><path
         d="M6 2 l-4,4"
         stroke="#000000"
         stroke-width="0.25"
         linecap="square"
         id="path3-8" /><path
         d="M4 0 l-4,4"
         stroke="#000000"
         stroke-width="0.25"
         linecap="square"
         id="path4-2" /></pattern><symbol
       id="*Model_Space-4" /><symbol
       id="*Paper_Space-5" /><symbol
       id="*Paper_Space0-5" /><marker
       id="DistanceX-02"
       orient="auto"
       refX="0"
       refY="0"
       style="overflow:visible"><path
         d="M 3,-3 -3,3 M 0,-5 V 5"
         style="stroke:#000000;stroke-width:0.5"
         id="path1-4" /></marker><pattern
       id="Hatch-8"
       patternUnits="userSpaceOnUse"
       width="8"
       height="8"
       x="0"
       y="0"><path
         d="M8 4 l-4,4"
         stroke="#000000"
         stroke-width="0.25"
         linecap="square"
         id="path2-6" /><path
         d="M6 2 l-4,4"
         stroke="#000000"
         stroke-width="0.25"
         linecap="square"
         id="path3-5" /><path
         d="M4 0 l-4,4"
         stroke="#000000"
         stroke-width="0.25"
         linecap="square"
         id="path4-0" /></pattern><symbol
       id="*Model_Space-9" /><symbol
       id="*Paper_Space-0" /><symbol
       id="*Paper_Space0-0" /><marker
       id="DistanceX-2"
       orient="auto"
       refX="0"
       refY="0"
       style="overflow:visible"><path
         d="M 3,-3 -3,3 M 0,-5 V 5"
         style="stroke:#000000;stroke-width:0.5"
         id="path1-6" /></marker><pattern
       id="Hatch-0"
       patternUnits="userSpaceOnUse"
       width="8"
       height="8"
       x="0"
       y="0"><path
         d="M8 4 l-4,4"
         stroke="#000000"
         stroke-width="0.25"
         linecap="square"
         id="path2-1" /><path
         d="M6 2 l-4,4"
         stroke="#000000"
         stroke-width="0.25"
         linecap="square"
         id="path3-6" /><path
         d="M4 0 l-4,4"
         stroke="#000000"
         stroke-width="0.25"
         linecap="square"
         id="path4-5" /></pattern><symbol
       id="*Model_Space-7" /><symbol
       id="*Paper_Space-54" /><symbol
       id="*Paper_Space0-1" /><marker
       id="DistanceX-4"
       orient="auto"
       refX="0"
       refY="0"
       style="overflow:visible"><path
         d="M 3,-3 -3,3 M 0,-5 V 5"
         style="stroke:#000000;stroke-width:0.5"
         id="path1-3" /></marker><pattern
       id="Hatch-9"
       patternUnits="userSpaceOnUse"
       width="8"
       height="8"
       x="0"
       y="0"><path
         d="M8 4 l-4,4"
         stroke="#000000"
         stroke-width="0.25"
         linecap="square"
         id="path2-88" /><path
         d="M6 2 l-4,4"
         stroke="#000000"
         stroke-width="0.25"
         linecap="square"
         id="path3-0" /><path
         d="M4 0 l-4,4"
         stroke="#000000"
         stroke-width="0.25"
         linecap="square"
         id="path4-8" /></pattern><symbol
       id="*Model_Space-77" /><symbol
       id="*Paper_Space-8" /><symbol
       id="*Paper_Space0-3" /><marker
       id="DistanceX-7"
       orient="auto"
       refX="0"
       refY="0"
       style="overflow:visible"><path
         d="M 3,-3 -3,3 M 0,-5 V 5"
         style="stroke:#000000;stroke-width:0.5"
         id="path1-2" /></marker><pattern
       id="Hatch-2"
       patternUnits="userSpaceOnUse"
       width="8"
       height="8"
       x="0"
       y="0"><path
         d="M8 4 l-4,4"
         stroke="#000000"
         stroke-width="0.25"
         linecap="square"
         id="path2-82" /><path
         d="M6 2 l-4,4"
         stroke="#000000"
         stroke-width="0.25"
         linecap="square"
         id="path3-89" /><path
         d="M4 0 l-4,4"
         stroke="#000000"
         stroke-width="0.25"
         linecap="square"
         id="path4-07" /></pattern><symbol
       id="*Model_Space-8" /><symbol
       id="*Paper_Space-1" /><symbol
       id="*Paper_Space0-58" /><marker
       id="DistanceX-25"
       orient="auto"
       refX="0"
       refY="0"
       style="overflow:visible"><path
         d="M 3,-3 -3,3 M 0,-5 V 5"
         style="stroke:#000000;stroke-width:0.5"
         id="path1-36" /></marker><pattern
       id="Hatch-1"
       patternUnits="userSpaceOnUse"
       width="8"
       height="8"
       x="0"
       y="0"><path
         d="M8 4 l-4,4"
         stroke="#000000"
         stroke-width="0.25"
         linecap="square"
         id="path2-86" /><path
         d="M6 2 l-4,4"
         stroke="#000000"
         stroke-width="0.25"
         linecap="square"
         id="path3-2" /><path
         d="M4 0 l-4,4"
         stroke="#000000"
         stroke-width="0.25"
         linecap="square"
         id="path4-1" /></pattern><symbol
       id="*Model_Space-46" /><symbol
       id="*Paper_Space-2" /><symbol
       id="*Paper_Space0-9" /><marker
       id="DistanceX-5"
       orient="auto"
       refX="0"
       refY="0"
       style="overflow:visible"><path
         d="M 3,-3 -3,3 M 0,-5 V 5"
         style="stroke:#000000;stroke-width:0.5"
         id="path1-7" /></marker><pattern
       id="Hatch-98"
       patternUnits="userSpaceOnUse"
       width="8"
       height="8"
       x="0"
       y="0"><path
         d="M8 4 l-4,4"
         stroke="#000000"
         stroke-width="0.25"
         linecap="square"
         id="path2-3" /><path
         d="M6 2 l-4,4"
         stroke="#000000"
         stroke-width="0.25"
         linecap="square"
         id="path3-02" /><path
         d="M4 0 l-4,4"
         stroke="#000000"
         stroke-width="0.25"
         linecap="square"
         id="path4-23" /></pattern><symbol
       id="*Model_Space-6" /><symbol
       id="*Paper_Space-7" /><symbol
       id="*Paper_Space0-15" /><marker
       id="DistanceX-52"
       orient="auto"
       refX="0"
       refY="0"
       style="overflow:visible"><path
         d="M 3,-3 -3,3 M 0,-5 V 5"
         style="stroke:#000000;stroke-width:0.5"
         id="path1-8" /></marker><pattern
       id="Hatch-07"
       patternUnits="userSpaceOnUse"
       width="8"
       height="8"
       x="0"
       y="0"><path
         d="M8 4 l-4,4"
         stroke="#000000"
         stroke-width="0.25"
         linecap="square"
         id="path2-2" /><path
         d="M6 2 l-4,4"
         stroke="#000000"
         stroke-width="0.25"
         linecap="square"
         id="path3-25" /><path
         d="M4 0 l-4,4"
         stroke="#000000"
         stroke-width="0.25"
         linecap="square"
         id="path4-9" /></pattern><symbol
       id="*Model_Space-1" /><symbol
       id="*Paper_Space-08" /><symbol
       id="*Paper_Space0-50" /><marker
       id="DistanceX-58"
       orient="auto"
       refX="0"
       refY="0"
       style="overflow:visible"><path
         d="M 3,-3 -3,3 M 0,-5 V 5"
         style="stroke:#000000;stroke-width:0.5"
         id="path1-61" /></marker><pattern
       id="Hatch-5"
       patternUnits="userSpaceOnUse"
       width="8"
       height="8"
       x="0"
       y="0"><path
         d="M8 4 l-4,4"
         stroke="#000000"
         stroke-width="0.25"
         linecap="square"
         id="path2-5" /><path
         d="M6 2 l-4,4"
         stroke="#000000"
         stroke-width="0.25"
         linecap="square"
         id="path3-1" /><path
         d="M4 0 l-4,4"
         stroke="#000000"
         stroke-width="0.25"
         linecap="square"
         id="path4-96" /></pattern><symbol
       id="*Model_Space-45" /><symbol
       id="*Paper_Space-4" /><symbol
       id="*Paper_Space0-2" /><marker
       id="DistanceX-45"
       orient="auto"
       refX="0"
       refY="0"
       style="overflow:visible"><path
         d="M 3,-3 -3,3 M 0,-5 V 5"
         style="stroke:#000000;stroke-width:0.5"
         id="path1-62" /></marker><pattern
       id="Hatch-53"
       patternUnits="userSpaceOnUse"
       width="8"
       height="8"
       x="0"
       y="0"><path
         d="M8 4 l-4,4"
         stroke="#000000"
         stroke-width="0.25"
         linecap="square"
         id="path2-56" /><path
         d="M6 2 l-4,4"
         stroke="#000000"
         stroke-width="0.25"
         linecap="square"
         id="path3-61" /><path
         d="M4 0 l-4,4"
         stroke="#000000"
         stroke-width="0.25"
         linecap="square"
         id="path4-4" /></pattern><symbol
       id="*Model_Space-462" /><symbol
       id="*Paper_Space-6" /><symbol
       id="*Paper_Space0-8" /><marker
       id="DistanceX-09"
       orient="auto"
       refX="0"
       refY="0"
       style="overflow:visible"><path
         d="M 3,-3 -3,3 M 0,-5 V 5"
         style="stroke:#000000;stroke-width:0.5"
         id="path1-48" /></marker><pattern
       id="Hatch-82"
       patternUnits="userSpaceOnUse"
       width="8"
       height="8"
       x="0"
       y="0"><path
         d="M8 4 l-4,4"
         stroke="#000000"
         stroke-width="0.25"
         linecap="square"
         id="path2-4" /><path
         d="M6 2 l-4,4"
         stroke="#000000"
         stroke-width="0.25"
         linecap="square"
         id="path3-55" /><path
         d="M4 0 l-4,4"
         stroke="#000000"
         stroke-width="0.25"
         linecap="square"
         id="path4-17" /></pattern><symbol
       id="*Model_Space-11" /><symbol
       id="*Paper_Space-52" /><symbol
       id="*Paper_Space0-7" /><marker
       id="DistanceX-094"
       orient="auto"
       refX="0"
       refY="0"
       style="overflow:visible"><path
         d="M 3,-3 -3,3 M 0,-5 V 5"
         style="stroke:#000000;stroke-width:0.5"
         id="path1-88" /></marker><pattern
       id="Hatch-24"
       patternUnits="userSpaceOnUse"
       width="8"
       height="8"
       x="0"
       y="0"><path
         d="M8 4 l-4,4"
         stroke="#000000"
         stroke-width="0.25"
         linecap="square"
         id="path2-55" /><path
         d="M6 2 l-4,4"
         stroke="#000000"
         stroke-width="0.25"
         linecap="square"
         id="path3-17" /><path
         d="M4 0 l-4,4"
         stroke="#000000"
         stroke-width="0.25"
         linecap="square"
         id="path4-11" /></pattern><symbol
       id="*Model_Space-5" /><symbol
       id="*Paper_Space-27" /><symbol
       id="*Paper_Space0-6" /><marker
       id="DistanceX-0948"
       orient="auto"
       refX="0"
       refY="0"
       style="overflow:visible"><path
         d="M 3,-3 -3,3 M 0,-5 V 5"
         style="stroke:#000000;stroke-width:0.5"
         id="path1-82" /></marker><pattern
       id="Hatch-45"
       patternUnits="userSpaceOnUse"
       width="8"
       height="8"
       x="0"
       y="0"><path
         d="M8 4 l-4,4"
         stroke="#000000"
         stroke-width="0.25"
         linecap="square"
         id="path2-51" /><path
         d="M6 2 l-4,4"
         stroke="#000000"
         stroke-width="0.25"
         linecap="square"
         id="path3-7" /><path
         d="M4 0 l-4,4"
         stroke="#000000"
         stroke-width="0.25"
         linecap="square"
         id="path4-115" /></pattern><symbol
       id="*Model_Space-2" /><symbol
       id="*Paper_Space-76" /><symbol
       id="*Paper_Space0-14" /><marker
       id="DistanceX-76"
       orient="auto"
       refX="0"
       refY="0"
       style="overflow:visible"><path
         d="M 3,-3 -3,3 M 0,-5 V 5"
         style="stroke:#000000;stroke-width:0.5"
         id="path1-1" /></marker><pattern
       id="Hatch-89"
       patternUnits="userSpaceOnUse"
       width="8"
       height="8"
       x="0"
       y="0"><path
         d="M8 4 l-4,4"
         stroke="#000000"
         stroke-width="0.25"
         linecap="square"
         id="path2-27" /><path
         d="M6 2 l-4,4"
         stroke="#000000"
         stroke-width="0.25"
         linecap="square"
         id="path3-9" /><path
         d="M4 0 l-4,4"
         stroke="#000000"
         stroke-width="0.25"
         linecap="square"
         id="path4-54" /></pattern><symbol
       id="*Model_Space-3" /><symbol
       id="*Paper_Space-12" /><symbol
       id="*Paper_Space0-33" /><marker
       id="DistanceX-44"
       orient="auto"
       refX="0"
       refY="0"
       style="overflow:visible"><path
         d="M 3,-3 -3,3 M 0,-5 V 5"
         style="stroke:#000000;stroke-width:0.5"
         id="path1-60" /></marker><pattern
       id="Hatch-6"
       patternUnits="userSpaceOnUse"
       width="8"
       height="8"
       x="0"
       y="0"><path
         d="M8 4 l-4,4"
         stroke="#000000"
         stroke-width="0.25"
         linecap="square"
         id="path2-61" /><path
         d="M6 2 l-4,4"
         stroke="#000000"
         stroke-width="0.25"
         linecap="square"
         id="path3-84" /><path
         d="M4 0 l-4,4"
         stroke="#000000"
         stroke-width="0.25"
         linecap="square"
         id="path4-963" /></pattern><symbol
       id="*Model_Space-78" /><symbol
       id="*Paper_Space-82" /><symbol
       id="*Paper_Space0-91" /></defs><g
     id="g129"
     inkscape:label="copyR"
     style="display:none"
     transform="translate(-168.21661,-153.18471)"><path
       id="path104"
       style="display:inline;fill:#ffffff;stroke-width:0.264583;stroke-linecap:round"
       d="m 3726.6846,6.4603271 c -46.3347,0 -84.0616,37.7130209 -84.0791,84.0475909 v 0.003 0.004 c 0.019,46.334562 37.7444,84.047592 84.0791,84.047592 46.3343,0 84.0621,-37.71303 84.0793,-84.047592 v -0.004 -0.003 c -0.019,-46.33457 -37.745,-84.0475909 -84.0793,-84.0475909 z"
       inkscape:label="Circle1Outline"
       transform="translate(168.21661,153.1847)" /><path
       d="m 14346.192,-1294.5718 a 289.43202,289.43202 0 0 0 -578.864,0 289.43202,289.43202 0 0 0 578.864,0 z"
       style="display:inline;fill:#a51e23;fill-opacity:1;stroke:none;stroke-width:3.571;stroke-linecap:round"
       id="path65"
       inkscape:label="Circle1"
       transform="matrix(0.26458333,0,0,0.26458333,175.7168,586.21758)" /><path
       d="m 14295.064,-1294.5718 c -0.101,-131.5404 -106.764,-238.1213 -238.304,-238.1213 -131.54,0 -238.203,106.5809 -238.304,238.1213 0.101,131.5404 106.764,238.1213 238.304,238.1213 131.54,0 238.203,-106.5809 238.304,-238.1213 z"
       style="display:inline;fill:#ffffff;stroke:none;stroke-width:3.571;stroke-linecap:round"
       id="path64"
       transform="matrix(0.26458333,0,0,0.26458333,175.7168,586.21758)"
       inkscape:label="Circle2"
       sodipodi:nodetypes="cscsc" /><path
       id="path79"
       style="display:inline;fill:#a51e23;fill-opacity:1;stroke:none;stroke-width:3.571;stroke-linecap:round"
       d="m 13984.3,-1137.64 v -128.5 l 51.677,-9e-4 c 13.03,-8e-4 25.077,6.7393 35.197,15.1105 14.971,12.3853 25.723,28.3407 34.008,45.3707 10.49,21.5603 17.026,44.8428 22.641,68.0208 h 53.993 c -8.06,-33.0124 -19.471,-66.1614 -38.797,-94.5682 -12.071,-17.7425 -27.229,-33.6351 -48.816,-39.9737 v -3.3215 c 15.626,-2.1558 31.064,-7.3749 44.364,-16.1512 9.203,-6.0728 17.383,-13.8486 23.295,-23.1199 7.692,-12.0625 11.542,-26.6564 11.472,-41.1321 -0.09,-17.8502 -6.152,-35.5207 -16.719,-49.9316 -8.485,-11.5714 -19.876,-21.0413 -32.619,-26.9023 -7.521,-3.4597 -15.514,-5.6619 -23.827,-7.4271 -17.539,-3.7244 -36.501,-5.5028 -52.372,-5.5031 l -112.7,-4e-4 v 308.03 z m 106.531,-260.4369 c 4.925,2.3534 9.183,5.0867 13.767,8.958 1.242,1.0492 2.508,2.1819 3.736,3.4745 6.523,6.8639 11.979,18.2376 11.979,29.7389 0,11.8279 -5.771,23.7906 -14.18,31.8754 -4.733,4.5515 -10.303,7.8739 -15.302,10.2959 -9.729,4.7145 -17.294,6.0177 -29.726,6.016 h -76.806 v -96.37 h 76.806 c 14.068,0 22.597,2.6084 29.727,6.0153 z"
       inkscape:label="R"
       sodipodi:nodetypes="cccssccsccsscsssccccssssssccccs"
       transform="matrix(0.26458333,0,0,0.26458333,175.7168,586.21758)" /></g><g
     id="g3"
     inkscape:label="namco"
     style="display:inline"><g
       inkscape:label="namcoOutline"
       id="g49"
       transform="matrix(0.26458333,0,0,0.26458333,7.5001913,433.03288)"
       style="display:inline"><path
         id="path94"
         style="fill:#ffffff;stroke-width:3.77953;stroke-linecap:round"
         d="M -28.34718,-1636.5376 V 268.34327 H 644.34225 V -1043.1451 H 1698.854 V 268.34327 h 661.3867 l 0.023,-1375.74027 c 0.011,-140.3227 -55.7467,-274.9363 -154.9688,-374.1582 -99.2217,-99.2217 -233.8336,-154.9826 -374.1504,-154.9824 z"
         inkscape:label="n" /><path
         id="path96"
         style="fill:#ffffff;stroke-width:3.77953;stroke-linecap:round"
         d="m 2692.9126,-1636.5376 v 551.8105 h 1625.1973 v 83.1485 H 3089.7935 c -140.3325,1e-4 -274.9442,55.76273 -374.166,154.98436 -99.2217,99.22156 -154.9798,233.8331 -154.9981,374.15037 v 211.66015 c 0.019,140.31637 55.776,274.930439 154.9981,374.15237 99.2219,99.22179 233.8338,154.97481 374.166,154.97462 h 1889.705 l 0.045,-1375.73247 c 0.042,-140.3316 -55.7409,-274.9461 -154.961,-374.166 -99.2213,-99.2214 -233.8356,-154.9826 -374.1582,-154.9824 z m 561.3869,1186.77146 H 4318.1099 V -268.3501 H 3254.2995 Z"
         inkscape:label="a" /><path
         id="path98"
         style="fill:#ffffff;stroke-linecap:round"
         d="M 5259.2154,-1636.5357 V 268.34521 h 680.3105 V -1043.145 h 548.0293 V 268.34521 H 7160.315 V -1043.145 h 548.0293 V 268.34521 H 8381.106 V -1107.4009 c 0,-140.3215 -55.759,-274.9349 -154.9804,-374.1563 -99.2216,-99.2216 -233.8345,-154.9786 -374.1543,-154.9785 z"
         inkscape:label="m" /><path
         id="path100"
         style="fill:#ffffff;stroke-linecap:round"
         d="m 9174.8014,-1636.5357 c -140.3191,-1e-4 -274.9307,55.7569 -374.1524,154.9785 -99.2215,99.2216 -154.9781,233.8334 -154.9805,374.1543 v 846.61334 c 0,140.32078 55.7592,274.932935 154.9805,374.1543 99.2217,99.22158 233.8333,154.97862 374.1524,154.97851 H 10849.696 V -325.03957 H 9325.985 V -1043.145 h 1519.41 v -593.3907 z"
         inkscape:label="c" /><path
         id="path102"
         style="fill:#ffffff;stroke-linecap:round"
         d="M 13181.098,-1636.5376 H 11639.1 l 0.887,0.01 c -286.321,-6.7177 -536.771,243.7291 -530.063,530.0098 v -0.8848 846.61329 -0.79688 c -6.041,286.795097 243.135,535.97136 529.952,529.92188 l -0.797,0.008 H 13181.1 l -0.886,-0.01 c 286.282,6.71833 536.731,-243.731191 529.992,-530.01368 v 0.89063 -846.61334 0.8184 c 6.208,-286.6008 -243.204,-536.1055 -529.918,-529.9454 z m -1390.904,593.3926 h 1239.711 v 718.10543 h -1239.711 z"
         inkscape:label="o" /></g><g
       inkscape:label="namco"
       id="g83"
       transform="matrix(0.26458333,0,0,0.26458333,7.5001913,433.03288)"
       style="display:inline"><path
         id="path127"
         style="fill:#a51e23;fill-opacity:1;stroke:none;stroke-width:0.944827;stroke-linecap:round"
         d="m 178.21641,163.21763 v 483.9999 H 336.19912 V 300.21888 h 299.00562 v 346.99865 h 154.99292 l 0.005,-353.99974 c 0.003,-34.47838 -13.69245,-67.54439 -38.07222,-91.92413 -24.37977,-24.37974 -57.4458,-38.07611 -91.92286,-38.07606 z"
         sodipodi:nodetypes="ccccccccscc"
         inkscape:label="n"
         transform="matrix(3.7795276,0,0,3.7795276,-664.1265,-2215.6255)" /><path
         d="M 898.21603,163.21744 V 289.2175 h 430.00107 v 42.00002 H 993.22446 c -34.48156,3e-5 -67.54786,13.6965 -91.92763,38.07623 -24.37976,24.37973 -38.07592,57.44543 -38.08042,91.92359 v 56.0002 c 0.005,34.47811 13.70066,67.54437 38.08042,91.9241 24.37977,24.37973 57.44607,38.07576 91.92763,38.07571 h 489.98534 l 0.01,-353.99959 c 0.01,-34.47838 -13.6909,-67.54436 -38.0707,-91.9241 -24.3797,-24.37974 -57.4452,-38.07627 -91.9239,-38.07622 z m 128.53457,294.00014 h 301.4665 v 67.99998 h -301.4665 z"
         style="fill:#a51e23;fill-opacity:1;stroke:none;stroke-width:0.944827;stroke-linecap:round"
         id="path128"
         inkscape:label="a"
         transform="matrix(3.7795276,0,0,3.7795276,-664.1265,-2215.6255)" /><path
         id="path41"
         style="fill:#a51e23;fill-opacity:1;stroke:none;stroke-width:3.571;stroke-linecap:round"
         d="M 5297.01,-1598.74 V 230.551 h 604.72 V -1080.94 h 623.62 V 230.551 h 597.17 V -1080.94 h 623.62 V 230.551 h 597.17 v -1337.9518 c 0,-130.3119 -51.7674,-255.2858 -143.9112,-347.4297 -92.1439,-92.1438 -217.1178,-143.9097 -347.4281,-143.9096 z"
         inkscape:label="m"
         sodipodi:nodetypes="ccccccccccccscc" /><path
         id="path51"
         style="fill:#a51e23;fill-opacity:1;stroke:none;stroke-width:3.571;stroke-linecap:round"
         d="m 10807.6,-1598.74 -1632.7984,-10e-5 c -130.3095,-10e-5 -255.2834,51.7658 -347.4273,143.9096 -92.1438,92.1439 -143.9097,217.1178 -143.912,347.4297 v 846.6136 c 0,130.3109 51.7682,255.2847903 143.912,347.428649 92.1439,92.143861 217.1178,143.909741 347.4273,143.909641 L 10811.9,230.551 V -287.244 H 9288.19 v -793.696 h 1519.41 z"
         inkscape:label="c"
         sodipodi:nodetypes="ccsccsccccccc" /><path
         d="m 11639.1,-1598.7408 c -263.418,-6.1803 -497.563,227.9657 -491.392,491.3399 v 846.61329 c -5.564,264.1376351 227.208,496.90951 491.369,491.33789 H 13181.1 c 263.375,6.18076 497.521,-227.9643564 491.321,-491.33789 v -846.61329 c 5.716,-263.8832 -227.319,-497.0119 -491.321,-491.3399 z m 113.299,517.8008 H 13067.7 v 793.69536 h -1315.301 z"
         style="fill:#a51e23;fill-opacity:1;stroke:none;stroke-width:3.571;stroke-linecap:round"
         id="path129"
         inkscape:label="o" /></g></g><g
     id="g379"
     inkscape:label="system3xx_v1"
     style="display:inline"><g
       id="g303"
       inkscape:label="system3xx_v1Outline"
       style="display:inline"
       transform="translate(-168.21661,-153.1847)"><path
         id="path287"
         style="fill:#ffffff;stroke-linecap:round"
         d="m 235.71688,673.71288 c -15.97486,-1e-5 -31.4731,4.34301 -44.93576,14.56035 -13.6911,10.3907 -22.56451,25.85746 -22.56451,42.9395 v 23.00015 c 0,17.32534 9.52572,33.01779 22.49836,42.8904 12.74248,9.69744 28.80111,14.60942 45.00191,14.60945 h 118.49974 v 17.00413 H 169.21654 v 60.99989 h 194.50028 c 15.97484,3e-5 31.4731,-4.34145 44.93576,-14.5588 13.6911,-10.39069 22.56396,-25.85901 22.56399,-42.94105 v -24.00422 c -3e-5,-17.3253 -9.5252,-33.01574 -22.49785,-42.88834 -12.74247,-9.69743 -28.80108,-14.60951 -45.0019,-14.60944 H 245.21656 v -17 h 185.00007 v -60.00202 z"
         inkscape:label="s" /><path
         id="path288"
         style="fill:#ffffff;stroke-linecap:round"
         d="m 432.21703,673.71288 v 86.50377 c 4e-5,37.19035 30.309,67.50033 67.49975,67.50027 h 25.00003 v 61.99983 h 76.00001 v -62.50213 h 25.00003 c 37.19008,-5e-5 67.49962,-30.30938 67.49975,-67.49975 v -86.00199 h -76.00001 v 77.00409 H 508.21704 v -77.00409 z"
         inkscape:label="y" /><path
         id="path289"
         style="fill:#ffffff;stroke-linecap:round"
         d="m 765.21686,673.71288 c -15.97486,-1e-5 -31.4731,4.34301 -44.93576,14.56035 -13.6911,10.3907 -22.56451,25.85746 -22.56451,42.9395 v 23.00015 c 0,17.32534 9.52572,33.01779 22.49836,42.8904 12.74248,9.69744 28.80111,14.60942 45.00191,14.60945 H 883.7166 v 17.00413 H 698.71704 v 60.99989 H 893.2168 c 15.97484,3e-5 31.4731,-4.34145 44.93576,-14.5588 13.6911,-10.39069 22.56396,-25.85901 22.56399,-42.94105 v -24.00422 c -3e-5,-17.3253 -9.5252,-33.01574 -22.49785,-42.88834 -12.74247,-9.69743 -28.80108,-14.60951 -45.0019,-14.60944 H 774.71705 v -17 h 184.99956 v -60.00202 z"
         inkscape:label="s" /><path
         id="path290"
         style="fill:#ffffff;stroke-linecap:round"
         d="m 961.71856,673.71288 v 77.00202 h 91.99804 v 139.00185 h 77.0004 V 750.7149 h 91.9996 v -77.00202 z"
         inkscape:label="t" /><path
         id="path291"
         style="fill:#ffffff;stroke-linecap:round"
         d="m 1295.6951,673.71288 c -37.1907,-1e-5 -67.5005,30.30922 -67.4998,67.49976 V 822.217 c -7e-4,37.19044 30.3091,67.49978 67.4998,67.49975 h 193.5003 v -60.99989 h -185.043 v -17.00207 h 185.043 v -70.50215 c 0,-37.19041 -30.3102,-67.49977 -67.5003,-67.49976 z m 8.4573,62.0019 h 108.2834 v 15.00012 h -108.2834 z"
         inkscape:label="e" /><path
         id="path293"
         style="fill:#ffffff;stroke-linecap:round"
         d="m 1491.2149,673.71288 v 216.00387 h 76.0021 v -139.0158 h 62.498 v 139.0158 h 76.4997 v -139.0158 h 60.4981 v 139.0158 h 78.5002 V 751.21461 c 8e-4,-18.79357 -5.4936,-36.99086 -17.6367,-52.26709 -12.2809,-15.44931 -30.2271,-25.23465 -49.8636,-25.23464 z"
         inkscape:label="m" /><g
         id="g302"
         inkscape:label="3xxOutline"
         style="display:inline"><path
           id="path436"
           style="display:inline;fill:#ffffff;stroke-linecap:square;paint-order:stroke fill markers"
           d="m 1780.0624,520.09177 v 60.87484 h 185.0001 v 17.12918 h -126.0001 v 60.87122 h 126.0001 v 17.12661 h -185.0001 v 60.8769 h 194.9375 c 39.6271,2.2e-4 67.9374,-27.6716 67.9374,-57.93755 v -24.0037 c 0,-9.61575 -3.108,-18.63363 -7.8786,-26.49813 4.7711,-7.86484 7.8786,-16.88182 7.8786,-26.49812 v -24.0037 c 0,-30.26681 -28.3112,-57.93783 -67.9374,-57.93755 z"
           transform="translate(168.21661,153.1847)"
           inkscape:label="3" /><path
           id="path444"
           style="display:inline;fill:#ffffff;stroke-linecap:square;paint-order:stroke fill markers"
           d="m 2042.2697,520.09177 v 80.93769 c 0,17.49226 9.5971,33.29081 22.6678,43.23819 12.8279,9.76236 28.9775,14.69932 45.2619,14.69936 h 116.5934 v 15.08177 h -184.4921 v 62.92174 h 193.9375 c 16.0495,4e-5 31.6553,-4.37081 45.1972,-14.6482 13.7842,-10.46147 22.7304,-26.0553 22.7423,-43.28315 v -0.004 -24.0037 -0.002 c -0.01,-17.48974 -9.6039,-33.28677 -22.6756,-43.23457 -12.8278,-9.76244 -28.9756,-14.6994 -45.2639,-14.69936 h -116.6053 v -13.09946 h 184.4942 v -63.90411 z"
           transform="translate(168.21661,153.1847)"
           inkscape:label="5" /><path
           id="path442"
           style="display:inline;fill:#ffffff;stroke-linecap:square;paint-order:stroke fill markers"
           d="m 2310.1112,520.09177 v 116.37481 h 77.8753 V 597.9666 h 106.1228 v 139.00392 h 77.8753 v -158.9412 c 0,-17.23273 -8.9531,-32.82795 -22.7366,-43.28883 -13.5418,-10.27745 -29.1495,-14.64872 -45.2008,-14.64872 z"
           transform="translate(168.21661,153.1847)"
           inkscape:label="7" /><path
           id="path297"
           style="fill:#ffffff;stroke-linecap:round"
           d="m 2834.2637,673.71288 v 169.00416 0.99787 46.00184 h 76.0134 v -46.00184 -0.99787 -169.00416 z"
           inkscape:label="!" /><path
           id="path440"
           style="fill:#ffffff;stroke-linecap:square;paint-order:stroke fill markers"
           d="m 2839.0624,520.09177 v 60.87484 h 185 v 17.12918 h -126 v 60.87122 h 126 v 17.12661 h -185 v 60.8769 h 194.9374 c 39.6271,2.2e-4 67.9375,-27.6716 67.9375,-57.93755 v -24.0037 c 0,-9.61575 -3.108,-18.63363 -7.8786,-26.49813 4.7711,-7.86484 7.8786,-16.88182 7.8786,-26.49812 v -24.0037 c 0,-30.26681 -28.3113,-57.93783 -67.9375,-57.93755 z"
           transform="translate(168.21661,153.1847)"
           inkscape:label="3" /><path
           id="path438"
           style="fill:#ffffff;stroke-linecap:square;paint-order:stroke fill markers"
           d="m 3273.3165,673.27543 v 148.9413 c -2e-4,37.42679 30.5106,67.93749 67.9374,67.93746 h 127 c 37.4269,3e-5 67.9378,-30.51065 67.9375,-67.93746 v -34.00361 c 3e-4,-37.42683 -30.5106,-67.93801 -67.9375,-67.93797 l -118.0625,0.002 v -47.00179 z m 76.8749,123.87875 h 105.623 v 16.12511 h -105.623 z"
           inkscape:label="6" /><path
           id="path302"
           style="display:inline;fill:#ffffff;stroke-linecap:round"
           d="M 3799.2637,889.71675 V 741.21263 c 3e-4,-37.19035 -30.3099,-67.49978 -67.5002,-67.49975 h -127 c -37.1905,-3e-5 -67.5001,30.30939 -67.4998,67.49975 v 34.00413 c -3e-4,37.19039 30.3093,67.4998 67.4998,67.49976 l 118.5002,-0.002 v 47.00178 z m -76,-123.00386 h -106.4999 v -17 h 106.4999 z"
           inkscape:label="9" /></g></g><g
       id="g378"
       style="display:inline"
       inkscape:label="system3xx_v1"
       transform="translate(-168.21661,-153.1847)"><path
         id="path338"
         style="display:inline;fill:#a51e23;fill-opacity:1;stroke:none;stroke-width:0.944827;stroke-linecap:round"
         d="m 175.7168,754.21375 c 0,14.47114 8.26069,28.33748 19.54022,36.92157 11.27952,8.58409 25.79096,13.07848 40.45982,13.07851 l 125.99992,3e-5 V 836.2176 H 176.7168 v 45.99992 l 186.99997,3e-5 c 14.66326,3e-5 28.2954,-3.84635 40.40121,-13.03393 12.1058,-9.18755 19.59882,-22.46815 19.59884,-36.96602 v -24.00378 c -2e-5,-14.47111 -8.26071,-28.33745 -19.54024,-36.92154 -11.27952,-8.58408 -25.79096,-13.07848 -40.45981,-13.07841 l -125.99989,6e-5 V 726.2139 h 184.99984 v -45.00007 l -186.99988,-2e-5 c -14.66328,-10e-6 -28.29541,3.84637 -40.40122,13.03394 -12.10581,9.18756 -19.59882,22.46815 -19.59882,36.96601 z"
         sodipodi:nodetypes="csccccccsccsccccccscc"
         inkscape:label="s" /><path
         id="path339"
         style="display:inline;fill:#a51e23;fill-opacity:1;stroke:none;stroke-width:0.944827;stroke-linecap:round"
         d="m 624.71736,758.21764 v -77.00381 h 60.99968 l -1.2e-4,78.50081 c -1.1e-4,33.13708 -26.86304,59.99999 -59.99979,60.00004 l -32.50106,6e-5 v 62.50278 h -60.99969 v -62.00007 l -32.49918,6e-5 c -33.13749,6e-5 -60.0004,-26.86286 -60.00044,-59.99991 l -4e-5,-79.00377 h 61.00101 v 77.00381 z"
         sodipodi:nodetypes="ccccccccccccccc"
         inkscape:label="y" /><path
         id="path340"
         style="display:inline;fill:#a51e23;fill-opacity:1;stroke:none;stroke-width:0.944827;stroke-linecap:round"
         d="m 705.21641,754.21375 c 0,14.47114 8.26069,28.33748 19.54022,36.92157 11.27952,8.58409 25.79096,13.07848 40.45982,13.07851 l 125.99992,3e-5 V 836.2176 H 706.21641 v 45.99992 l 186.99997,3e-5 c 14.66326,3e-5 28.2954,-3.84635 40.40121,-13.03393 12.1058,-9.18755 19.59882,-22.46815 19.59884,-36.96602 v -24.00378 c -2e-5,-14.47111 -8.26071,-28.33745 -19.54024,-36.92154 -11.27952,-8.58408 -25.79096,-13.07848 -40.45981,-13.07841 l -125.99989,6e-5 V 726.2139 h 184.99984 v -45.00007 l -186.99988,-2e-5 c -14.66328,-10e-6 -28.29541,3.84637 -40.40122,13.03394 -12.10581,9.18756 -19.59882,22.46815 -19.59882,36.96601 z"
         sodipodi:nodetypes="csccccccsccsccccccscc"
         inkscape:label="s" /><path
         d="m 969.21784,681.21372 v 62.00035 h 91.99856 v 139.0034 h 61.9998 v -139.0034 h 92.0011 v -62.00035 z"
         style="display:inline;fill:#a51e23;fill-opacity:1;stroke:none;stroke-width:0.944827;stroke-linecap:round"
         id="path347"
         inkscape:label="t"
         sodipodi:nodetypes="ccccccccc" /><path
         d="m 1295.6951,681.21372 c -33.1375,-10e-6 -60.0006,26.8628 -60,59.99995 v 81.00384 c -6e-4,33.13703 26.8625,59.99999 60,59.99996 h 185.9995 l 4e-4,-45.99978 h -185.0418 v -32.00373 h 185.0414 v -63.00029 c 0,-33.13715 -26.8627,-59.99996 -59.9995,-59.99995 z m 0.9581,47.00023 h 123.2824 v 30.00023 h -123.2824 z"
         style="display:inline;fill:#a51e23;fill-opacity:1;stroke:none;stroke-width:0.944827;stroke-linecap:round"
         id="path354"
         inkscape:label="e"
         sodipodi:nodetypes="sccscccccsssccccc" /><path
         id="path361"
         style="display:inline;fill:#a51e23;fill-opacity:1;stroke:none;stroke-width:0.944827;stroke-linecap:round"
         d="m 1498.7155,681.21383 5e-4,201.00369 h 61.0018 V 743.202 h 77.4991 v 139.01552 h 61.4998 V 743.202 h 75.4988 v 139.01552 h 63.5 l 6e-4,-131.0037 c 7e-4,-17.3632 -4.9658,-33.71059 -16.007,-47.60053 -11.0413,-13.88994 -26.8362,-22.39949 -43.9927,-22.39948 z"
         sodipodi:nodetypes="ccccccccccccscc"
         inkscape:label="m" /><g
         id="g377"
         inkscape:label="3xx"
         style="display:inline"><path
           id="path393"
           style="display:inline;fill:#a51e23;fill-opacity:1;stroke-width:0.944827;stroke-linecap:round"
           d="m 1788.0002,528.02883 v 44.99984 h 185 v 33.00367 h -126 v 44.99617 l 126,6e-4 v 33.0031 h -185 v 45.00089 l 186.9999,-5e-4 c 35.9843,2e-4 60,-24.77139 60,-50.00009 v -24.0037 c 0,-9.5577 -3.648,-18.8157 -9.3447,-26.4981 v 0 0 c 5.6967,-7.6824 9.3447,-16.94046 9.3447,-26.49813 v -24.0037 c 0,-25.22955 -24.0166,-50.0003 -60,-50.00005 z"
           sodipodi:nodetypes="cccccccccccsscccsccc"
           inkscape:label="3"
           transform="translate(168.21661,153.1847)" /><path
           id="path398"
           style="display:inline;fill:#a51e23;fill-opacity:1;stroke:none;stroke-width:0.944827;stroke-linecap:round"
           d="m 2050.207,528.02913 h 245.9831 v 48.02876 h -184.4939 v 28.97505 l 124.5373,-3e-5 c 14.6668,-4e-5 29.1784,4.49433 40.4579,13.07844 11.2797,8.58411 19.5402,22.4504 19.5459,36.92151 v 24.00004 c -0.01,14.49784 -7.4987,27.77842 -19.6044,36.96602 -12.106,9.1876 -25.7381,13.03396 -40.3994,13.03393 l -186.0001,-3e-5 v -47.04609 h 184.494 v -30.95757 l -124.533,-3e-5 c -14.6624,-3e-5 -29.1738,-4.4944 -40.4535,-13.07851 -11.2794,-8.58411 -19.5403,-22.4504 -19.5371,-36.92157 z"
           sodipodi:nodetypes="ccccccsccsccccccscc"
           inkscape:label="5"
           transform="translate(168.21661,153.1847)" /><path
           id="path401"
           style="display:inline;fill:#a51e23;fill-opacity:1;stroke-width:0.944827;stroke-linecap:round"
           d="M 2318.0482,528.02927 V 628.529 h 61.9998 v -38.49974 -5.1e-4 l 121.9998,5.1e-4 v 139.00376 h 61.9998 V 578.0288 c 0,-14.4978 -7.493,-27.7781 -19.5988,-36.9657 -12.1058,-9.1876 -25.7378,-13.03383 -40.4011,-13.03383 z"
           sodipodi:nodetypes="ccccccccsssc"
           inkscape:label="7"
           transform="translate(168.21661,153.1847)" /><path
           id="path374"
           style="display:inline;fill:#a51e23;fill-opacity:1;stroke:none;stroke-width:0.944827;stroke-linecap:round"
           d="m 2841.7645,681.21372 v 155.00035 h 61.0128 V 681.21372 Z m 0,169.00363 v 32.00012 h 61.0128 v -32.00012 z"
           inkscape:label="!" /><path
           id="path403"
           style="display:inline;fill:#a51e23;fill-opacity:1;stroke-width:0.944827;stroke-linecap:round"
           d="m 2846.9996,528.02883 v 44.99984 h 185 v 33.00367 h -126 v 44.99617 l 126,6e-4 v 33.0031 h -185 v 45.00089 l 186.9999,-5e-4 c 35.9843,2e-4 60,-24.77139 60,-50.00009 v -24.0037 c 0,-9.5577 -3.648,-18.8157 -9.3447,-26.4981 v 0 0 c 5.6967,-7.6824 9.3447,-16.94046 9.3447,-26.49813 v -24.0037 c 0,-25.22955 -24.0166,-50.0003 -60,-50.00005 z"
           sodipodi:nodetypes="cccccccccccsscccsccc"
           inkscape:label="3"
           transform="translate(168.21661,153.1847)" /><path
           id="path402"
           style="display:inline;fill:#a51e23;fill-opacity:1;stroke:none;stroke-width:0.944827;stroke-linecap:round"
           d="m 3463.7527,821.21757 v -32.00003 h -121.4993 v 32.00003 z M 3281.2538,681.21383 h 60.9996 v 47.00006 l 126,-5e-5 c 33.1372,-4e-5 60.0001,26.86287 59.9998,59.99992 v 34.00388 c 3e-4,33.13702 -26.8626,59.99994 -59.9998,59.99991 h -127 c -33.137,3e-5 -59.9999,-26.86289 -59.9997,-59.99991 z"
           sodipodi:nodetypes="ccccccccccccccc"
           inkscape:label="6" /><path
           id="path404"
           style="display:inline;fill:#a51e23;fill-opacity:1;stroke:none;stroke-width:0.944827;stroke-linecap:round"
           d="m 3441.048,589.02914 v 32 h 121.4993 v -32 z m 182.4989,140.0037 h -60.9996 v -47.0001 l -126,10e-5 c -33.1372,0 -60.0001,-26.8629 -59.9998,-59.9999 v -34.0039 c -3e-4,-33.137 26.8626,-59.9999 59.9998,-59.9999 h 127 c 33.137,0 59.9999,26.8629 59.9997,59.9999 z"
           sodipodi:nodetypes="ccccccccccccccc"
           inkscape:label="9"
           transform="translate(168.21661,153.1847)" /></g></g></g></svg>
