<?xml version="1.0" encoding="UTF-8" standalone="no"?>
<!-- Created by ERK -->

<svg
   width="5681.0117mm"
   height="504.06445mm"
   viewBox="0 0 5681.0117 504.06444"
   version="1.1"
   id="svg1"
   inkscape:version="1.4 (86a8ad7, 2024-10-11)"
   xml:space="preserve"
   sodipodi:docname="namcoNB2-w.svg"
   xmlns:inkscape="http://www.inkscape.org/namespaces/inkscape"
   xmlns:sodipodi="http://sodipodi.sourceforge.net/DTD/sodipodi-0.dtd"
   xmlns="http://www.w3.org/2000/svg"
   xmlns:svg="http://www.w3.org/2000/svg"><sodipodi:namedview
     id="namedview1"
     pagecolor="#ffffff"
     bordercolor="#000000"
     borderopacity="0.25"
     inkscape:showpageshadow="2"
     inkscape:pageopacity="0.0"
     inkscape:pagecheckerboard="true"
     inkscape:deskcolor="#d1d1d1"
     inkscape:document-units="mm"
     inkscape:zoom="0.067069885"
     inkscape:cx="9825.5722"
     inkscape:cy="1125.6915"
     inkscape:window-width="3840"
     inkscape:window-height="2066"
     inkscape:window-x="-11"
     inkscape:window-y="-11"
     inkscape:window-maximized="1"
     inkscape:current-layer="svg1"
     showgrid="false" /><defs
     id="defs1"><marker
       id="DistanceX"
       orient="auto"
       refX="0"
       refY="0"
       style="overflow:visible"><path
         d="M 3,-3 -3,3 M 0,-5 V 5"
         style="stroke:#000000;stroke-width:0.5"
         id="path1" /></marker><pattern
       id="Hatch"
       patternUnits="userSpaceOnUse"
       width="8"
       height="8"
       x="0"
       y="0"><path
         d="M8 4 l-4,4"
         stroke="#000000"
         stroke-width="0.25"
         linecap="square"
         id="path2" /><path
         d="M6 2 l-4,4"
         stroke="#000000"
         stroke-width="0.25"
         linecap="square"
         id="path3" /><path
         d="M4 0 l-4,4"
         stroke="#000000"
         stroke-width="0.25"
         linecap="square"
         id="path4" /></pattern><symbol
       id="*Model_Space" /><symbol
       id="*Paper_Space" /><symbol
       id="*Paper_Space0" /><marker
       id="DistanceX-0"
       orient="auto"
       refX="0"
       refY="0"
       style="overflow:visible"><path
         d="M 3,-3 -3,3 M 0,-5 V 5"
         style="stroke:#000000;stroke-width:0.5"
         id="path1-9" /></marker><pattern
       id="Hatch-4"
       patternUnits="userSpaceOnUse"
       width="8"
       height="8"
       x="0"
       y="0"><path
         d="M8 4 l-4,4"
         stroke="#000000"
         stroke-width="0.25"
         linecap="square"
         id="path2-8" /><path
         d="M6 2 l-4,4"
         stroke="#000000"
         stroke-width="0.25"
         linecap="square"
         id="path3-8" /><path
         d="M4 0 l-4,4"
         stroke="#000000"
         stroke-width="0.25"
         linecap="square"
         id="path4-2" /></pattern><symbol
       id="*Model_Space-4" /><symbol
       id="*Paper_Space-5" /><symbol
       id="*Paper_Space0-5" /><marker
       id="DistanceX-02"
       orient="auto"
       refX="0"
       refY="0"
       style="overflow:visible"><path
         d="M 3,-3 -3,3 M 0,-5 V 5"
         style="stroke:#000000;stroke-width:0.5"
         id="path1-4" /></marker><pattern
       id="Hatch-8"
       patternUnits="userSpaceOnUse"
       width="8"
       height="8"
       x="0"
       y="0"><path
         d="M8 4 l-4,4"
         stroke="#000000"
         stroke-width="0.25"
         linecap="square"
         id="path2-6" /><path
         d="M6 2 l-4,4"
         stroke="#000000"
         stroke-width="0.25"
         linecap="square"
         id="path3-5" /><path
         d="M4 0 l-4,4"
         stroke="#000000"
         stroke-width="0.25"
         linecap="square"
         id="path4-0" /></pattern><symbol
       id="*Model_Space-9" /><symbol
       id="*Paper_Space-0" /><symbol
       id="*Paper_Space0-0" /><marker
       id="DistanceX-2"
       orient="auto"
       refX="0"
       refY="0"
       style="overflow:visible"><path
         d="M 3,-3 -3,3 M 0,-5 V 5"
         style="stroke:#000000;stroke-width:0.5"
         id="path1-6" /></marker><pattern
       id="Hatch-0"
       patternUnits="userSpaceOnUse"
       width="8"
       height="8"
       x="0"
       y="0"><path
         d="M8 4 l-4,4"
         stroke="#000000"
         stroke-width="0.25"
         linecap="square"
         id="path2-1" /><path
         d="M6 2 l-4,4"
         stroke="#000000"
         stroke-width="0.25"
         linecap="square"
         id="path3-6" /><path
         d="M4 0 l-4,4"
         stroke="#000000"
         stroke-width="0.25"
         linecap="square"
         id="path4-5" /></pattern><symbol
       id="*Model_Space-7" /><symbol
       id="*Paper_Space-54" /><symbol
       id="*Paper_Space0-1" /><marker
       id="DistanceX-4"
       orient="auto"
       refX="0"
       refY="0"
       style="overflow:visible"><path
         d="M 3,-3 -3,3 M 0,-5 V 5"
         style="stroke:#000000;stroke-width:0.5"
         id="path1-3" /></marker><pattern
       id="Hatch-9"
       patternUnits="userSpaceOnUse"
       width="8"
       height="8"
       x="0"
       y="0"><path
         d="M8 4 l-4,4"
         stroke="#000000"
         stroke-width="0.25"
         linecap="square"
         id="path2-88" /><path
         d="M6 2 l-4,4"
         stroke="#000000"
         stroke-width="0.25"
         linecap="square"
         id="path3-0" /><path
         d="M4 0 l-4,4"
         stroke="#000000"
         stroke-width="0.25"
         linecap="square"
         id="path4-8" /></pattern><symbol
       id="*Model_Space-77" /><symbol
       id="*Paper_Space-8" /><symbol
       id="*Paper_Space0-3" /><marker
       id="DistanceX-7"
       orient="auto"
       refX="0"
       refY="0"
       style="overflow:visible"><path
         d="M 3,-3 -3,3 M 0,-5 V 5"
         style="stroke:#000000;stroke-width:0.5"
         id="path1-2" /></marker><pattern
       id="Hatch-2"
       patternUnits="userSpaceOnUse"
       width="8"
       height="8"
       x="0"
       y="0"><path
         d="M8 4 l-4,4"
         stroke="#000000"
         stroke-width="0.25"
         linecap="square"
         id="path2-82" /><path
         d="M6 2 l-4,4"
         stroke="#000000"
         stroke-width="0.25"
         linecap="square"
         id="path3-89" /><path
         d="M4 0 l-4,4"
         stroke="#000000"
         stroke-width="0.25"
         linecap="square"
         id="path4-07" /></pattern><symbol
       id="*Model_Space-8" /><symbol
       id="*Paper_Space-1" /><symbol
       id="*Paper_Space0-58" /><marker
       id="DistanceX-25"
       orient="auto"
       refX="0"
       refY="0"
       style="overflow:visible"><path
         d="M 3,-3 -3,3 M 0,-5 V 5"
         style="stroke:#000000;stroke-width:0.5"
         id="path1-36" /></marker><pattern
       id="Hatch-1"
       patternUnits="userSpaceOnUse"
       width="8"
       height="8"
       x="0"
       y="0"><path
         d="M8 4 l-4,4"
         stroke="#000000"
         stroke-width="0.25"
         linecap="square"
         id="path2-86" /><path
         d="M6 2 l-4,4"
         stroke="#000000"
         stroke-width="0.25"
         linecap="square"
         id="path3-2" /><path
         d="M4 0 l-4,4"
         stroke="#000000"
         stroke-width="0.25"
         linecap="square"
         id="path4-1" /></pattern><symbol
       id="*Model_Space-46" /><symbol
       id="*Paper_Space-2" /><symbol
       id="*Paper_Space0-9" /><marker
       id="DistanceX-5"
       orient="auto"
       refX="0"
       refY="0"
       style="overflow:visible"><path
         d="M 3,-3 -3,3 M 0,-5 V 5"
         style="stroke:#000000;stroke-width:0.5"
         id="path1-7" /></marker><pattern
       id="Hatch-98"
       patternUnits="userSpaceOnUse"
       width="8"
       height="8"
       x="0"
       y="0"><path
         d="M8 4 l-4,4"
         stroke="#000000"
         stroke-width="0.25"
         linecap="square"
         id="path2-3" /><path
         d="M6 2 l-4,4"
         stroke="#000000"
         stroke-width="0.25"
         linecap="square"
         id="path3-02" /><path
         d="M4 0 l-4,4"
         stroke="#000000"
         stroke-width="0.25"
         linecap="square"
         id="path4-23" /></pattern><symbol
       id="*Model_Space-6" /><symbol
       id="*Paper_Space-7" /><symbol
       id="*Paper_Space0-15" /><marker
       id="DistanceX-52"
       orient="auto"
       refX="0"
       refY="0"
       style="overflow:visible"><path
         d="M 3,-3 -3,3 M 0,-5 V 5"
         style="stroke:#000000;stroke-width:0.5"
         id="path1-8" /></marker><pattern
       id="Hatch-07"
       patternUnits="userSpaceOnUse"
       width="8"
       height="8"
       x="0"
       y="0"><path
         d="M8 4 l-4,4"
         stroke="#000000"
         stroke-width="0.25"
         linecap="square"
         id="path2-2" /><path
         d="M6 2 l-4,4"
         stroke="#000000"
         stroke-width="0.25"
         linecap="square"
         id="path3-25" /><path
         d="M4 0 l-4,4"
         stroke="#000000"
         stroke-width="0.25"
         linecap="square"
         id="path4-9" /></pattern><symbol
       id="*Model_Space-1" /><symbol
       id="*Paper_Space-08" /><symbol
       id="*Paper_Space0-50" /><marker
       id="DistanceX-58"
       orient="auto"
       refX="0"
       refY="0"
       style="overflow:visible"><path
         d="M 3,-3 -3,3 M 0,-5 V 5"
         style="stroke:#000000;stroke-width:0.5"
         id="path1-61" /></marker><pattern
       id="Hatch-5"
       patternUnits="userSpaceOnUse"
       width="8"
       height="8"
       x="0"
       y="0"><path
         d="M8 4 l-4,4"
         stroke="#000000"
         stroke-width="0.25"
         linecap="square"
         id="path2-5" /><path
         d="M6 2 l-4,4"
         stroke="#000000"
         stroke-width="0.25"
         linecap="square"
         id="path3-1" /><path
         d="M4 0 l-4,4"
         stroke="#000000"
         stroke-width="0.25"
         linecap="square"
         id="path4-96" /></pattern><symbol
       id="*Model_Space-45" /><symbol
       id="*Paper_Space-4" /><symbol
       id="*Paper_Space0-2" /><marker
       id="DistanceX-45"
       orient="auto"
       refX="0"
       refY="0"
       style="overflow:visible"><path
         d="M 3,-3 -3,3 M 0,-5 V 5"
         style="stroke:#000000;stroke-width:0.5"
         id="path1-62" /></marker><pattern
       id="Hatch-53"
       patternUnits="userSpaceOnUse"
       width="8"
       height="8"
       x="0"
       y="0"><path
         d="M8 4 l-4,4"
         stroke="#000000"
         stroke-width="0.25"
         linecap="square"
         id="path2-56" /><path
         d="M6 2 l-4,4"
         stroke="#000000"
         stroke-width="0.25"
         linecap="square"
         id="path3-61" /><path
         d="M4 0 l-4,4"
         stroke="#000000"
         stroke-width="0.25"
         linecap="square"
         id="path4-4" /></pattern><symbol
       id="*Model_Space-462" /><symbol
       id="*Paper_Space-6" /><symbol
       id="*Paper_Space0-8" /><marker
       id="DistanceX-09"
       orient="auto"
       refX="0"
       refY="0"
       style="overflow:visible"><path
         d="M 3,-3 -3,3 M 0,-5 V 5"
         style="stroke:#000000;stroke-width:0.5"
         id="path1-48" /></marker><pattern
       id="Hatch-82"
       patternUnits="userSpaceOnUse"
       width="8"
       height="8"
       x="0"
       y="0"><path
         d="M8 4 l-4,4"
         stroke="#000000"
         stroke-width="0.25"
         linecap="square"
         id="path2-4" /><path
         d="M6 2 l-4,4"
         stroke="#000000"
         stroke-width="0.25"
         linecap="square"
         id="path3-55" /><path
         d="M4 0 l-4,4"
         stroke="#000000"
         stroke-width="0.25"
         linecap="square"
         id="path4-17" /></pattern><symbol
       id="*Model_Space-11" /><symbol
       id="*Paper_Space-52" /><symbol
       id="*Paper_Space0-7" /><marker
       id="DistanceX-094"
       orient="auto"
       refX="0"
       refY="0"
       style="overflow:visible"><path
         d="M 3,-3 -3,3 M 0,-5 V 5"
         style="stroke:#000000;stroke-width:0.5"
         id="path1-88" /></marker><pattern
       id="Hatch-24"
       patternUnits="userSpaceOnUse"
       width="8"
       height="8"
       x="0"
       y="0"><path
         d="M8 4 l-4,4"
         stroke="#000000"
         stroke-width="0.25"
         linecap="square"
         id="path2-55" /><path
         d="M6 2 l-4,4"
         stroke="#000000"
         stroke-width="0.25"
         linecap="square"
         id="path3-17" /><path
         d="M4 0 l-4,4"
         stroke="#000000"
         stroke-width="0.25"
         linecap="square"
         id="path4-11" /></pattern><symbol
       id="*Model_Space-5" /><symbol
       id="*Paper_Space-27" /><symbol
       id="*Paper_Space0-6" /><marker
       id="DistanceX-0948"
       orient="auto"
       refX="0"
       refY="0"
       style="overflow:visible"><path
         d="M 3,-3 -3,3 M 0,-5 V 5"
         style="stroke:#000000;stroke-width:0.5"
         id="path1-82" /></marker><pattern
       id="Hatch-45"
       patternUnits="userSpaceOnUse"
       width="8"
       height="8"
       x="0"
       y="0"><path
         d="M8 4 l-4,4"
         stroke="#000000"
         stroke-width="0.25"
         linecap="square"
         id="path2-51" /><path
         d="M6 2 l-4,4"
         stroke="#000000"
         stroke-width="0.25"
         linecap="square"
         id="path3-7" /><path
         d="M4 0 l-4,4"
         stroke="#000000"
         stroke-width="0.25"
         linecap="square"
         id="path4-115" /></pattern><symbol
       id="*Model_Space-2" /><symbol
       id="*Paper_Space-76" /><symbol
       id="*Paper_Space0-14" /><marker
       id="DistanceX-76"
       orient="auto"
       refX="0"
       refY="0"
       style="overflow:visible"><path
         d="M 3,-3 -3,3 M 0,-5 V 5"
         style="stroke:#000000;stroke-width:0.5"
         id="path1-1" /></marker><pattern
       id="Hatch-89"
       patternUnits="userSpaceOnUse"
       width="8"
       height="8"
       x="0"
       y="0"><path
         d="M8 4 l-4,4"
         stroke="#000000"
         stroke-width="0.25"
         linecap="square"
         id="path2-27" /><path
         d="M6 2 l-4,4"
         stroke="#000000"
         stroke-width="0.25"
         linecap="square"
         id="path3-9" /><path
         d="M4 0 l-4,4"
         stroke="#000000"
         stroke-width="0.25"
         linecap="square"
         id="path4-54" /></pattern><symbol
       id="*Model_Space-3" /><symbol
       id="*Paper_Space-12" /><symbol
       id="*Paper_Space0-33" /><marker
       id="DistanceX-44"
       orient="auto"
       refX="0"
       refY="0"
       style="overflow:visible"><path
         d="M 3,-3 -3,3 M 0,-5 V 5"
         style="stroke:#000000;stroke-width:0.5"
         id="path1-60" /></marker><pattern
       id="Hatch-6"
       patternUnits="userSpaceOnUse"
       width="8"
       height="8"
       x="0"
       y="0"><path
         d="M8 4 l-4,4"
         stroke="#000000"
         stroke-width="0.25"
         linecap="square"
         id="path2-61" /><path
         d="M6 2 l-4,4"
         stroke="#000000"
         stroke-width="0.25"
         linecap="square"
         id="path3-84" /><path
         d="M4 0 l-4,4"
         stroke="#000000"
         stroke-width="0.25"
         linecap="square"
         id="path4-963" /></pattern><symbol
       id="*Model_Space-78" /><symbol
       id="*Paper_Space-82" /><symbol
       id="*Paper_Space0-91" /></defs><g
     id="g3"
     inkscape:label="namco"
     style="display:inline"><g
       inkscape:label="namcoOutline"
       id="g49"
       transform="matrix(0.26458333,0,0,0.26458333,7.5001913,433.03288)"
       style="display:inline"><path
         id="path94"
         style="fill:#ffffff;stroke-width:3.77953;stroke-linecap:round"
         d="M -28.34718,-1636.5376 V 268.34327 H 644.34225 V -1043.1451 H 1698.854 V 268.34327 h 661.3867 l 0.023,-1375.74027 c 0.011,-140.3227 -55.7467,-274.9363 -154.9688,-374.1582 -99.2217,-99.2217 -233.8336,-154.9826 -374.1504,-154.9824 z"
         inkscape:label="n" /><path
         id="path96"
         style="fill:#ffffff;stroke-width:3.77953;stroke-linecap:round"
         d="m 2692.9126,-1636.5376 v 551.8105 h 1625.1973 v 83.1485 H 3089.7935 c -140.3325,1e-4 -274.9442,55.76273 -374.166,154.98436 -99.2217,99.22156 -154.9798,233.8331 -154.9981,374.15037 v 211.66015 c 0.019,140.31637 55.776,274.930439 154.9981,374.15237 99.2219,99.22179 233.8338,154.97481 374.166,154.97462 h 1889.705 l 0.045,-1375.73247 c 0.042,-140.3316 -55.7409,-274.9461 -154.961,-374.166 -99.2213,-99.2214 -233.8356,-154.9826 -374.1582,-154.9824 z m 561.3869,1186.77146 H 4318.1099 V -268.3501 H 3254.2995 Z"
         inkscape:label="a" /><path
         id="path98"
         style="fill:#ffffff;stroke-linecap:round"
         d="M 5259.2154,-1636.5357 V 268.34521 h 680.3105 V -1043.145 h 548.0293 V 268.34521 H 7160.315 V -1043.145 h 548.0293 V 268.34521 H 8381.106 V -1107.4009 c 0,-140.3215 -55.759,-274.9349 -154.9804,-374.1563 -99.2216,-99.2216 -233.8345,-154.9786 -374.1543,-154.9785 z"
         inkscape:label="m" /><path
         id="path100"
         style="fill:#ffffff;stroke-linecap:round"
         d="m 9174.8014,-1636.5357 c -140.3191,-1e-4 -274.9307,55.7569 -374.1524,154.9785 -99.2215,99.2216 -154.9781,233.8334 -154.9805,374.1543 v 846.61334 c 0,140.32078 55.7592,274.932935 154.9805,374.1543 99.2217,99.22158 233.8333,154.97862 374.1524,154.97851 H 10849.696 V -325.03957 H 9325.985 V -1043.145 h 1519.41 v -593.3907 z"
         inkscape:label="c" /><path
         id="path102"
         style="fill:#ffffff;stroke-linecap:round"
         d="M 13181.098,-1636.5376 H 11639.1 l 0.887,0.01 c -286.321,-6.7177 -536.771,243.7291 -530.063,530.0098 v -0.8848 846.61329 -0.79688 c -6.041,286.795097 243.135,535.97136 529.952,529.92188 l -0.797,0.008 H 13181.1 l -0.886,-0.01 c 286.282,6.71833 536.731,-243.731191 529.992,-530.01368 v 0.89063 -846.61334 0.8184 c 6.208,-286.6008 -243.204,-536.1055 -529.918,-529.9454 z m -1390.904,593.3926 h 1239.711 v 718.10543 h -1239.711 z"
         inkscape:label="o" /></g><g
       inkscape:label="namco"
       id="g83"
       transform="matrix(0.26458333,0,0,0.26458333,7.5001913,433.03288)"
       style="display:inline"><path
         id="path127"
         style="fill:#a51e23;fill-opacity:1;stroke:none;stroke-width:0.944827;stroke-linecap:round"
         d="m 178.21641,163.21763 v 483.9999 H 336.19912 V 300.21888 h 299.00562 v 346.99865 h 154.99292 l 0.005,-353.99974 c 0.003,-34.47838 -13.69245,-67.54439 -38.07222,-91.92413 -24.37977,-24.37974 -57.4458,-38.07611 -91.92286,-38.07606 z"
         sodipodi:nodetypes="ccccccccscc"
         inkscape:label="n"
         transform="matrix(3.7795276,0,0,3.7795276,-664.1265,-2215.6255)" /><path
         d="M 898.21603,163.21744 V 289.2175 h 430.00107 v 42.00002 H 993.22446 c -34.48156,3e-5 -67.54786,13.6965 -91.92763,38.07623 -24.37976,24.37973 -38.07592,57.44543 -38.08042,91.92359 v 56.0002 c 0.005,34.47811 13.70066,67.54437 38.08042,91.9241 24.37977,24.37973 57.44607,38.07576 91.92763,38.07571 h 489.98534 l 0.01,-353.99959 c 0.01,-34.47838 -13.6909,-67.54436 -38.0707,-91.9241 -24.3797,-24.37974 -57.4452,-38.07627 -91.9239,-38.07622 z m 128.53457,294.00014 h 301.4665 v 67.99998 h -301.4665 z"
         style="fill:#a51e23;fill-opacity:1;stroke:none;stroke-width:0.944827;stroke-linecap:round"
         id="path128"
         inkscape:label="a"
         transform="matrix(3.7795276,0,0,3.7795276,-664.1265,-2215.6255)" /><path
         id="path41"
         style="fill:#a51e23;fill-opacity:1;stroke:none;stroke-width:3.571;stroke-linecap:round"
         d="M 5297.01,-1598.74 V 230.551 h 604.72 V -1080.94 h 623.62 V 230.551 h 597.17 V -1080.94 h 623.62 V 230.551 h 597.17 v -1337.9518 c 0,-130.3119 -51.7674,-255.2858 -143.9112,-347.4297 -92.1439,-92.1438 -217.1178,-143.9097 -347.4281,-143.9096 z"
         inkscape:label="m"
         sodipodi:nodetypes="ccccccccccccscc" /><path
         id="path51"
         style="fill:#a51e23;fill-opacity:1;stroke:none;stroke-width:3.571;stroke-linecap:round"
         d="m 10807.6,-1598.74 -1632.7984,-10e-5 c -130.3095,-10e-5 -255.2834,51.7658 -347.4273,143.9096 -92.1438,92.1439 -143.9097,217.1178 -143.912,347.4297 v 846.6136 c 0,130.3109 51.7682,255.2847903 143.912,347.428649 92.1439,92.143861 217.1178,143.909741 347.4273,143.909641 L 10811.9,230.551 V -287.244 H 9288.19 v -793.696 h 1519.41 z"
         inkscape:label="c"
         sodipodi:nodetypes="ccsccsccccccc" /><path
         d="m 11639.1,-1598.7408 c -263.418,-6.1803 -497.563,227.9657 -491.392,491.3399 v 846.61329 c -5.564,264.1376351 227.208,496.90951 491.369,491.33789 H 13181.1 c 263.375,6.18076 497.521,-227.9643564 491.321,-491.33789 v -846.61329 c 5.716,-263.8832 -227.319,-497.0119 -491.321,-491.3399 z m 113.299,517.8008 H 13067.7 v 793.69536 h -1315.301 z"
         style="fill:#a51e23;fill-opacity:1;stroke:none;stroke-width:3.571;stroke-linecap:round"
         id="path129"
         inkscape:label="o" /></g></g><g
     id="g13"
     inkscape:label="NB"
     style="display:inline"><g
       id="g53"
       inkscape:label="NBOutline"
       transform="translate(-2551.2128,-153.1847)"
       style="display:inline"><path
         id="path106"
         style="fill:#ffffff;stroke-linecap:round"
         d="m 6551.2245,153.217 v 503.99973 h 128.002 V 339.93946 l 176.0957,317.27727 h 155.9042 V 153.217 H 6883.2228 V 470.49996 L 6707.1018,153.217 Z"
         inkscape:label="N" /><path
         id="path108"
         style="fill:#ffffff;stroke-linecap:round"
         d="m 7086.2089,153.217 v 503.99973 h 330.0098 c 35.5547,3e-5 69.6919,-12.02302 96.7248,-36.00969 27.1593,-24.09901 43.2703,-57.94106 43.2692,-93.99013 V 505.6973 c 0,-23.60212 -9.7799,-46.76281 -23.4414,-64.53715 -10.9524,-14.2495 -25.017,-26.26118 -40.828,-35.90995 15.5102,-9.36031 29.2109,-20.85655 40.8362,-35.98282 14.5236,-18.89738 23.4343,-41.23844 23.4332,-64.52887 v -21.52169 c 0,-36.20841 -16.8202,-70.54622 -43.3301,-94.04284 -26.3785,-23.37987 -61.0725,-35.95702 -96.6639,-35.95698 z m 127.9999,101.99998 h 170 c 9.5909,1e-4 19.4966,4.2571 27.5332,13.80639 8.0325,9.54449 12.3772,22.68328 12.4669,35.76371 v 0.28887 c -0.1785,12.77237 -3.4429,23.72895 -11.2443,33.82429 -7.5704,9.79664 -17.8266,15.31636 -28.7538,15.31638 h -169.9999 z m 0,200.99962 h 170 c 10.5492,10e-6 21.8565,6.41819 28.715,15.26987 7.0868,9.14603 11.1036,21.37461 11.2815,33.84961 v 0.31419 c -0.089,13.07088 -4.4446,26.22971 -12.4649,35.76164 -8.0239,9.53637 -17.944,13.80485 -27.5332,13.80485 h -169.9943 z"
         inkscape:label="B" /></g><path
       id="path97"
       style="display:inline;fill:#ffffff;stroke-linecap:round"
       d="M 5221.4353,0.03306858 V 115.03122 l 293.5743,0.002 c 21.0993,3.1e-4 37.9963,16.89584 38.0003,38.00181 v 2.99827 c -0.01,21.1069 -16.9025,37.99986 -38.0003,37.99975 h -160.0098 c -33.3982,4e-5 -71.4509,13.46534 -98.9899,41.00421 -27.539,27.5389 -41.0045,65.59323 -41.0042,98.99603 v 169.99996 h 455.0022 V 399.03301 h -327.0002 v -59.99996 c 0,-16.68689 13.3117,-29.99965 30.0039,-29.99972 h 167.9923 c 33.4063,5e-5 71.4592,-13.46687 98.9981,-41.00576 27.539,-27.5389 41.0054,-65.59078 41.0099,-98.99241 v -0.002 -28.99978 c 0,-33.40379 -13.4712,-71.455958 -41.0099,-98.994475 -27.5389,-27.538874 -65.5918,-41.00579912 -98.9981,-41.00576642 z"
       inkscape:label="NB2Outline" /><g
       id="g115"
       inkscape:label="NB"
       transform="translate(-2551.2128,-153.1847)"
       style="display:inline"><path
         d="m 6561.2238,163.21743 v 483.99991 h 108.0027 V 301.31442 l 191.9821,345.90292 h 140.0173 V 163.21743 H 6893.2232 V 509.12035 L 6701.2147,163.21743 Z"
         style="display:inline;fill:#a51e23;fill-opacity:1;stroke:none;stroke-width:0.944827;stroke-linecap:round"
         id="path113"
         inkscape:label="N" /><path
         d="m 7096.2087,163.21743 v 483.99991 h 320.0094 c 33.321,3e-5 64.9281,-11.16422 90.0891,-33.48994 25.1609,-22.32573 39.9071,-53.4332 39.9061,-86.50997 V 505.6973 c 0,-20.73875 -8.9074,-42.22853 -21.3703,-58.44346 -12.463,-16.21494 -29.3729,-29.7096 -48.6342,-39.53609 v -5.00021 c 19.2663,-9.82912 35.2316,-22.0968 48.6409,-39.54436 13.4093,-17.44756 21.3646,-37.70322 21.3636,-58.43519 v -21.52065 c 0,-33.08137 -15.517,-64.89285 -39.9629,-86.56009 -24.4462,-21.66725 -56.8028,-33.43985 -90.0323,-33.43982 z m 108.0007,81.99964 179.9993,5.2e-4 c 12.6373,1.4e-4 25.4295,5.77502 35.1855,17.36742 9.756,11.5924 14.7103,26.9266 14.8146,42.13282 v 0.49868 c -0.2026,14.50113 -4.1515,27.91854 -13.332,39.79861 v 0 c -9.1805,11.88008 -22.333,19.20242 -36.666,19.20244 h -179.9993 z m 0,201.00065 h 179.9994 c 14.3084,2e-5 28.039,8.06814 36.6205,19.14354 8.5817,11.0754 13.1743,25.35455 13.3759,39.85648 v 0.49971 c -0.1031,15.20234 -5.068,30.55092 -14.8131,42.13283 -9.7451,11.58193 -22.5454,17.36742 -35.1859,17.36742 H 7204.214 Z"
         style="display:inline;fill:#a51e23;fill-opacity:1;stroke:none;stroke-width:0.944827;stroke-linecap:round"
         id="path114"
         inkscape:label="B" /></g><path
       id="path54-5"
       style="display:inline;fill:#a51e23;fill-opacity:1;stroke:none;stroke-width:0.944827;stroke-linecap:round"
       d="m 5660.0056,409.03286 -327.0001,1.6e-4 v -69.99989 c 0,-22.09129 17.9085,-39.99989 40.004,-39.99998 h 167.9921 c 30.6453,4e-5 66.5437,-12.692 91.9278,-38.07608 25.3842,-25.38408 38.0762,-61.28258 38.0803,-91.92384 V 140.0334 c 0,-30.6415 -12.6961,-66.540019 -38.0803,-91.924089 -25.3841,-25.38407 -61.2825,-38.07614 -91.9278,-38.07611 l -309.5665,3e-5 v 94.998649 l 283.5753,5e-4 c 26.5047,3.9e-4 47.9952,21.49075 48.0002,48.00019 v 3.00019 c -0.01,26.50986 -21.4955,48.00022 -48.0001,48.00008 h -160.01 c -30.6363,3e-5 -66.5347,12.69207 -91.9189,38.07615 -25.3841,25.38408 -38.0762,61.28259 -38.076,91.92391 l 10e-5,159.99992 h 435.0015 z"
       sodipodi:nodetypes="cccccsccsccccccccscccc"
       inkscape:label="NB2" /></g></svg>
