<?xml version="1.0" encoding="UTF-8" standalone="no"?>
<!-- Created by ERK -->

<svg
   width="3635.0273mm"
   height="736.97052mm"
   viewBox="0 0 3635.0273 736.9705"
   version="1.1"
   id="svg1"
   inkscape:version="1.4 (86a8ad7, 2024-10-11)"
   xml:space="preserve"
   sodipodi:docname="namco3xx.svg"
   xmlns:inkscape="http://www.inkscape.org/namespaces/inkscape"
   xmlns:sodipodi="http://sodipodi.sourceforge.net/DTD/sodipodi-0.dtd"
   xmlns="http://www.w3.org/2000/svg"
   xmlns:svg="http://www.w3.org/2000/svg"><sodipodi:namedview
     id="namedview1"
     pagecolor="#ffffff"
     bordercolor="#000000"
     borderopacity="0.25"
     inkscape:showpageshadow="2"
     inkscape:pageopacity="0.0"
     inkscape:pagecheckerboard="true"
     inkscape:deskcolor="#d1d1d1"
     inkscape:document-units="mm"
     inkscape:zoom="0.13413977"
     inkscape:cx="6944.2493"
     inkscape:cy="1770.5413"
     inkscape:window-width="3840"
     inkscape:window-height="2066"
     inkscape:window-x="-11"
     inkscape:window-y="-11"
     inkscape:window-maximized="1"
     inkscape:current-layer="svg1"
     showgrid="false" /><defs
     id="defs1"><marker
       id="DistanceX"
       orient="auto"
       refX="0"
       refY="0"
       style="overflow:visible"><path
         d="M 3,-3 -3,3 M 0,-5 V 5"
         style="stroke:#000000;stroke-width:0.5"
         id="path1" /></marker><pattern
       id="Hatch"
       patternUnits="userSpaceOnUse"
       width="8"
       height="8"
       x="0"
       y="0"><path
         d="M8 4 l-4,4"
         stroke="#000000"
         stroke-width="0.25"
         linecap="square"
         id="path2" /><path
         d="M6 2 l-4,4"
         stroke="#000000"
         stroke-width="0.25"
         linecap="square"
         id="path3" /><path
         d="M4 0 l-4,4"
         stroke="#000000"
         stroke-width="0.25"
         linecap="square"
         id="path4" /></pattern><symbol
       id="*Model_Space" /><symbol
       id="*Paper_Space" /><symbol
       id="*Paper_Space0" /><marker
       id="DistanceX-0"
       orient="auto"
       refX="0"
       refY="0"
       style="overflow:visible"><path
         d="M 3,-3 -3,3 M 0,-5 V 5"
         style="stroke:#000000;stroke-width:0.5"
         id="path1-9" /></marker><pattern
       id="Hatch-4"
       patternUnits="userSpaceOnUse"
       width="8"
       height="8"
       x="0"
       y="0"><path
         d="M8 4 l-4,4"
         stroke="#000000"
         stroke-width="0.25"
         linecap="square"
         id="path2-8" /><path
         d="M6 2 l-4,4"
         stroke="#000000"
         stroke-width="0.25"
         linecap="square"
         id="path3-8" /><path
         d="M4 0 l-4,4"
         stroke="#000000"
         stroke-width="0.25"
         linecap="square"
         id="path4-2" /></pattern><symbol
       id="*Model_Space-4" /><symbol
       id="*Paper_Space-5" /><symbol
       id="*Paper_Space0-5" /><marker
       id="DistanceX-02"
       orient="auto"
       refX="0"
       refY="0"
       style="overflow:visible"><path
         d="M 3,-3 -3,3 M 0,-5 V 5"
         style="stroke:#000000;stroke-width:0.5"
         id="path1-4" /></marker><pattern
       id="Hatch-8"
       patternUnits="userSpaceOnUse"
       width="8"
       height="8"
       x="0"
       y="0"><path
         d="M8 4 l-4,4"
         stroke="#000000"
         stroke-width="0.25"
         linecap="square"
         id="path2-6" /><path
         d="M6 2 l-4,4"
         stroke="#000000"
         stroke-width="0.25"
         linecap="square"
         id="path3-5" /><path
         d="M4 0 l-4,4"
         stroke="#000000"
         stroke-width="0.25"
         linecap="square"
         id="path4-0" /></pattern><symbol
       id="*Model_Space-9" /><symbol
       id="*Paper_Space-0" /><symbol
       id="*Paper_Space0-0" /><marker
       id="DistanceX-2"
       orient="auto"
       refX="0"
       refY="0"
       style="overflow:visible"><path
         d="M 3,-3 -3,3 M 0,-5 V 5"
         style="stroke:#000000;stroke-width:0.5"
         id="path1-6" /></marker><pattern
       id="Hatch-0"
       patternUnits="userSpaceOnUse"
       width="8"
       height="8"
       x="0"
       y="0"><path
         d="M8 4 l-4,4"
         stroke="#000000"
         stroke-width="0.25"
         linecap="square"
         id="path2-1" /><path
         d="M6 2 l-4,4"
         stroke="#000000"
         stroke-width="0.25"
         linecap="square"
         id="path3-6" /><path
         d="M4 0 l-4,4"
         stroke="#000000"
         stroke-width="0.25"
         linecap="square"
         id="path4-5" /></pattern><symbol
       id="*Model_Space-7" /><symbol
       id="*Paper_Space-54" /><symbol
       id="*Paper_Space0-1" /><marker
       id="DistanceX-4"
       orient="auto"
       refX="0"
       refY="0"
       style="overflow:visible"><path
         d="M 3,-3 -3,3 M 0,-5 V 5"
         style="stroke:#000000;stroke-width:0.5"
         id="path1-3" /></marker><pattern
       id="Hatch-9"
       patternUnits="userSpaceOnUse"
       width="8"
       height="8"
       x="0"
       y="0"><path
         d="M8 4 l-4,4"
         stroke="#000000"
         stroke-width="0.25"
         linecap="square"
         id="path2-88" /><path
         d="M6 2 l-4,4"
         stroke="#000000"
         stroke-width="0.25"
         linecap="square"
         id="path3-0" /><path
         d="M4 0 l-4,4"
         stroke="#000000"
         stroke-width="0.25"
         linecap="square"
         id="path4-8" /></pattern><symbol
       id="*Model_Space-77" /><symbol
       id="*Paper_Space-8" /><symbol
       id="*Paper_Space0-3" /><marker
       id="DistanceX-7"
       orient="auto"
       refX="0"
       refY="0"
       style="overflow:visible"><path
         d="M 3,-3 -3,3 M 0,-5 V 5"
         style="stroke:#000000;stroke-width:0.5"
         id="path1-2" /></marker><pattern
       id="Hatch-2"
       patternUnits="userSpaceOnUse"
       width="8"
       height="8"
       x="0"
       y="0"><path
         d="M8 4 l-4,4"
         stroke="#000000"
         stroke-width="0.25"
         linecap="square"
         id="path2-82" /><path
         d="M6 2 l-4,4"
         stroke="#000000"
         stroke-width="0.25"
         linecap="square"
         id="path3-89" /><path
         d="M4 0 l-4,4"
         stroke="#000000"
         stroke-width="0.25"
         linecap="square"
         id="path4-07" /></pattern><symbol
       id="*Model_Space-8" /><symbol
       id="*Paper_Space-1" /><symbol
       id="*Paper_Space0-58" /><marker
       id="DistanceX-25"
       orient="auto"
       refX="0"
       refY="0"
       style="overflow:visible"><path
         d="M 3,-3 -3,3 M 0,-5 V 5"
         style="stroke:#000000;stroke-width:0.5"
         id="path1-36" /></marker><pattern
       id="Hatch-1"
       patternUnits="userSpaceOnUse"
       width="8"
       height="8"
       x="0"
       y="0"><path
         d="M8 4 l-4,4"
         stroke="#000000"
         stroke-width="0.25"
         linecap="square"
         id="path2-86" /><path
         d="M6 2 l-4,4"
         stroke="#000000"
         stroke-width="0.25"
         linecap="square"
         id="path3-2" /><path
         d="M4 0 l-4,4"
         stroke="#000000"
         stroke-width="0.25"
         linecap="square"
         id="path4-1" /></pattern><symbol
       id="*Model_Space-46" /><symbol
       id="*Paper_Space-2" /><symbol
       id="*Paper_Space0-9" /><marker
       id="DistanceX-5"
       orient="auto"
       refX="0"
       refY="0"
       style="overflow:visible"><path
         d="M 3,-3 -3,3 M 0,-5 V 5"
         style="stroke:#000000;stroke-width:0.5"
         id="path1-7" /></marker><pattern
       id="Hatch-98"
       patternUnits="userSpaceOnUse"
       width="8"
       height="8"
       x="0"
       y="0"><path
         d="M8 4 l-4,4"
         stroke="#000000"
         stroke-width="0.25"
         linecap="square"
         id="path2-3" /><path
         d="M6 2 l-4,4"
         stroke="#000000"
         stroke-width="0.25"
         linecap="square"
         id="path3-02" /><path
         d="M4 0 l-4,4"
         stroke="#000000"
         stroke-width="0.25"
         linecap="square"
         id="path4-23" /></pattern><symbol
       id="*Model_Space-6" /><symbol
       id="*Paper_Space-7" /><symbol
       id="*Paper_Space0-15" /><marker
       id="DistanceX-52"
       orient="auto"
       refX="0"
       refY="0"
       style="overflow:visible"><path
         d="M 3,-3 -3,3 M 0,-5 V 5"
         style="stroke:#000000;stroke-width:0.5"
         id="path1-8" /></marker><pattern
       id="Hatch-07"
       patternUnits="userSpaceOnUse"
       width="8"
       height="8"
       x="0"
       y="0"><path
         d="M8 4 l-4,4"
         stroke="#000000"
         stroke-width="0.25"
         linecap="square"
         id="path2-2" /><path
         d="M6 2 l-4,4"
         stroke="#000000"
         stroke-width="0.25"
         linecap="square"
         id="path3-25" /><path
         d="M4 0 l-4,4"
         stroke="#000000"
         stroke-width="0.25"
         linecap="square"
         id="path4-9" /></pattern><symbol
       id="*Model_Space-1" /><symbol
       id="*Paper_Space-08" /><symbol
       id="*Paper_Space0-50" /><marker
       id="DistanceX-58"
       orient="auto"
       refX="0"
       refY="0"
       style="overflow:visible"><path
         d="M 3,-3 -3,3 M 0,-5 V 5"
         style="stroke:#000000;stroke-width:0.5"
         id="path1-61" /></marker><pattern
       id="Hatch-5"
       patternUnits="userSpaceOnUse"
       width="8"
       height="8"
       x="0"
       y="0"><path
         d="M8 4 l-4,4"
         stroke="#000000"
         stroke-width="0.25"
         linecap="square"
         id="path2-5" /><path
         d="M6 2 l-4,4"
         stroke="#000000"
         stroke-width="0.25"
         linecap="square"
         id="path3-1" /><path
         d="M4 0 l-4,4"
         stroke="#000000"
         stroke-width="0.25"
         linecap="square"
         id="path4-96" /></pattern><symbol
       id="*Model_Space-45" /><symbol
       id="*Paper_Space-4" /><symbol
       id="*Paper_Space0-2" /><marker
       id="DistanceX-45"
       orient="auto"
       refX="0"
       refY="0"
       style="overflow:visible"><path
         d="M 3,-3 -3,3 M 0,-5 V 5"
         style="stroke:#000000;stroke-width:0.5"
         id="path1-62" /></marker><pattern
       id="Hatch-53"
       patternUnits="userSpaceOnUse"
       width="8"
       height="8"
       x="0"
       y="0"><path
         d="M8 4 l-4,4"
         stroke="#000000"
         stroke-width="0.25"
         linecap="square"
         id="path2-56" /><path
         d="M6 2 l-4,4"
         stroke="#000000"
         stroke-width="0.25"
         linecap="square"
         id="path3-61" /><path
         d="M4 0 l-4,4"
         stroke="#000000"
         stroke-width="0.25"
         linecap="square"
         id="path4-4" /></pattern><symbol
       id="*Model_Space-462" /><symbol
       id="*Paper_Space-6" /><symbol
       id="*Paper_Space0-8" /><marker
       id="DistanceX-09"
       orient="auto"
       refX="0"
       refY="0"
       style="overflow:visible"><path
         d="M 3,-3 -3,3 M 0,-5 V 5"
         style="stroke:#000000;stroke-width:0.5"
         id="path1-48" /></marker><pattern
       id="Hatch-82"
       patternUnits="userSpaceOnUse"
       width="8"
       height="8"
       x="0"
       y="0"><path
         d="M8 4 l-4,4"
         stroke="#000000"
         stroke-width="0.25"
         linecap="square"
         id="path2-4" /><path
         d="M6 2 l-4,4"
         stroke="#000000"
         stroke-width="0.25"
         linecap="square"
         id="path3-55" /><path
         d="M4 0 l-4,4"
         stroke="#000000"
         stroke-width="0.25"
         linecap="square"
         id="path4-17" /></pattern><symbol
       id="*Model_Space-11" /><symbol
       id="*Paper_Space-52" /><symbol
       id="*Paper_Space0-7" /><marker
       id="DistanceX-094"
       orient="auto"
       refX="0"
       refY="0"
       style="overflow:visible"><path
         d="M 3,-3 -3,3 M 0,-5 V 5"
         style="stroke:#000000;stroke-width:0.5"
         id="path1-88" /></marker><pattern
       id="Hatch-24"
       patternUnits="userSpaceOnUse"
       width="8"
       height="8"
       x="0"
       y="0"><path
         d="M8 4 l-4,4"
         stroke="#000000"
         stroke-width="0.25"
         linecap="square"
         id="path2-55" /><path
         d="M6 2 l-4,4"
         stroke="#000000"
         stroke-width="0.25"
         linecap="square"
         id="path3-17" /><path
         d="M4 0 l-4,4"
         stroke="#000000"
         stroke-width="0.25"
         linecap="square"
         id="path4-11" /></pattern><symbol
       id="*Model_Space-5" /><symbol
       id="*Paper_Space-27" /><symbol
       id="*Paper_Space0-6" /><marker
       id="DistanceX-0948"
       orient="auto"
       refX="0"
       refY="0"
       style="overflow:visible"><path
         d="M 3,-3 -3,3 M 0,-5 V 5"
         style="stroke:#000000;stroke-width:0.5"
         id="path1-82" /></marker><pattern
       id="Hatch-45"
       patternUnits="userSpaceOnUse"
       width="8"
       height="8"
       x="0"
       y="0"><path
         d="M8 4 l-4,4"
         stroke="#000000"
         stroke-width="0.25"
         linecap="square"
         id="path2-51" /><path
         d="M6 2 l-4,4"
         stroke="#000000"
         stroke-width="0.25"
         linecap="square"
         id="path3-7" /><path
         d="M4 0 l-4,4"
         stroke="#000000"
         stroke-width="0.25"
         linecap="square"
         id="path4-115" /></pattern><symbol
       id="*Model_Space-2" /><symbol
       id="*Paper_Space-76" /><symbol
       id="*Paper_Space0-14" /><marker
       id="DistanceX-76"
       orient="auto"
       refX="0"
       refY="0"
       style="overflow:visible"><path
         d="M 3,-3 -3,3 M 0,-5 V 5"
         style="stroke:#000000;stroke-width:0.5"
         id="path1-1" /></marker><pattern
       id="Hatch-89"
       patternUnits="userSpaceOnUse"
       width="8"
       height="8"
       x="0"
       y="0"><path
         d="M8 4 l-4,4"
         stroke="#000000"
         stroke-width="0.25"
         linecap="square"
         id="path2-27" /><path
         d="M6 2 l-4,4"
         stroke="#000000"
         stroke-width="0.25"
         linecap="square"
         id="path3-9" /><path
         d="M4 0 l-4,4"
         stroke="#000000"
         stroke-width="0.25"
         linecap="square"
         id="path4-54" /></pattern><symbol
       id="*Model_Space-3" /><symbol
       id="*Paper_Space-12" /><symbol
       id="*Paper_Space0-33" /><marker
       id="DistanceX-44"
       orient="auto"
       refX="0"
       refY="0"
       style="overflow:visible"><path
         d="M 3,-3 -3,3 M 0,-5 V 5"
         style="stroke:#000000;stroke-width:0.5"
         id="path1-60" /></marker><pattern
       id="Hatch-6"
       patternUnits="userSpaceOnUse"
       width="8"
       height="8"
       x="0"
       y="0"><path
         d="M8 4 l-4,4"
         stroke="#000000"
         stroke-width="0.25"
         linecap="square"
         id="path2-61" /><path
         d="M6 2 l-4,4"
         stroke="#000000"
         stroke-width="0.25"
         linecap="square"
         id="path3-84" /><path
         d="M4 0 l-4,4"
         stroke="#000000"
         stroke-width="0.25"
         linecap="square"
         id="path4-963" /></pattern><symbol
       id="*Model_Space-78" /><symbol
       id="*Paper_Space-82" /><symbol
       id="*Paper_Space0-91" /></defs><g
     id="g129"
     inkscape:label="copyR"
     style="display:none"
     transform="translate(-168.21661,-153.18471)"><path
       d="m 3808.5554,95.802448 a 76.578888,76.578888 0 0 0 -153.1577,0 76.578888,76.578888 0 0 0 153.1577,0 z"
       style="display:inline;fill:#000000;fill-opacity:0.80315;stroke:none;stroke-width:0.944827;stroke-linecap:round"
       id="path10"
       inkscape:label="Circle1Shadow"
       transform="translate(168.21661,153.1847)" /><path
       d="m 14346.192,-1294.5718 a 289.43202,289.43202 0 0 0 -578.864,0 289.43202,289.43202 0 0 0 578.864,0 z"
       style="display:inline;fill:#a51e23;fill-opacity:1;stroke:none;stroke-width:3.571;stroke-linecap:round"
       id="path65"
       inkscape:label="Circle1"
       transform="matrix(0.26458333,0,0,0.26458333,175.7168,586.21758)" /><path
       d="m 14295.064,-1294.5718 c -0.101,-131.5404 -106.764,-238.1213 -238.304,-238.1213 -131.54,0 -238.203,106.5809 -238.304,238.1213 0.101,131.5404 106.764,238.1213 238.304,238.1213 131.54,0 238.203,-106.5809 238.304,-238.1213 z"
       style="display:inline;fill:#ffffff;stroke:none;stroke-width:3.571;stroke-linecap:round"
       id="path64"
       transform="matrix(0.26458333,0,0,0.26458333,175.7168,586.21758)"
       inkscape:label="Circle2"
       sodipodi:nodetypes="cscsc" /><path
       id="path79"
       style="display:inline;fill:#a51e23;fill-opacity:1;stroke:none;stroke-width:3.571;stroke-linecap:round"
       d="m 13984.3,-1137.64 v -128.5 l 51.677,-9e-4 c 13.03,-8e-4 25.077,6.7393 35.197,15.1105 14.971,12.3853 25.723,28.3407 34.008,45.3707 10.49,21.5603 17.026,44.8428 22.641,68.0208 h 53.993 c -8.06,-33.0124 -19.471,-66.1614 -38.797,-94.5682 -12.071,-17.7425 -27.229,-33.6351 -48.816,-39.9737 v -3.3215 c 15.626,-2.1558 31.064,-7.3749 44.364,-16.1512 9.203,-6.0728 17.383,-13.8486 23.295,-23.1199 7.692,-12.0625 11.542,-26.6564 11.472,-41.1321 -0.09,-17.8502 -6.152,-35.5207 -16.719,-49.9316 -8.485,-11.5714 -19.876,-21.0413 -32.619,-26.9023 -7.521,-3.4597 -15.514,-5.6619 -23.827,-7.4271 -17.539,-3.7244 -36.501,-5.5028 -52.372,-5.5031 l -112.7,-4e-4 v 308.03 z m 106.531,-260.4369 c 4.925,2.3534 9.183,5.0867 13.767,8.958 1.242,1.0492 2.508,2.1819 3.736,3.4745 6.523,6.8639 11.979,18.2376 11.979,29.7389 0,11.8279 -5.771,23.7906 -14.18,31.8754 -4.733,4.5515 -10.303,7.8739 -15.302,10.2959 -9.729,4.7145 -17.294,6.0177 -29.726,6.016 h -76.806 v -96.37 h 76.806 c 14.068,0 22.597,2.6084 29.727,6.0153 z"
       inkscape:label="R"
       sodipodi:nodetypes="cccssccsccsscsssccccssssssccccs"
       transform="matrix(0.26458333,0,0,0.26458333,175.7168,586.21758)" /></g><g
     id="g3"
     inkscape:label="namco"
     style="display:inline"><g
       inkscape:label="namcoShadow"
       id="g9"
       transform="matrix(0.26458333,0,0,0.26458333,17.500791,443.03304)"
       style="display:inline;fill:#000000;fill-opacity:0.80315"><path
         id="path5"
         style="fill:#000000;fill-opacity:0.80315;stroke:none;stroke-width:0.944827;stroke-linecap:round"
         d="m 178.21641,163.21763 v 483.9999 H 336.19912 V 300.21888 h 299.00562 v 346.99865 h 154.99292 l 0.005,-353.99974 c 0.003,-34.47838 -13.69245,-67.54439 -38.07222,-91.92413 -24.37977,-24.37974 -57.4458,-38.07611 -91.92286,-38.07606 z"
         sodipodi:nodetypes="ccccccccscc"
         inkscape:label="n"
         transform="matrix(3.7795276,0,0,3.7795276,-664.1265,-2215.6255)" /><path
         d="M 898.21603,163.21744 V 289.2175 h 430.00107 v 42.00002 H 993.22446 c -34.48156,3e-5 -67.54786,13.6965 -91.92763,38.07623 -24.37976,24.37973 -38.07592,57.44543 -38.08042,91.92359 v 56.0002 c 0.005,34.47811 13.70066,67.54437 38.08042,91.9241 24.37977,24.37973 57.44607,38.07576 91.92763,38.07571 h 489.98534 l 0.01,-353.99959 c 0.01,-34.47838 -13.6909,-67.54436 -38.0707,-91.9241 -24.3797,-24.37974 -57.4452,-38.07627 -91.9239,-38.07622 z m 128.53457,294.00014 h 301.4665 v 67.99998 h -301.4665 z"
         style="fill:#000000;fill-opacity:0.80315;stroke:none;stroke-width:0.944827;stroke-linecap:round"
         id="path6"
         inkscape:label="a"
         transform="matrix(3.7795276,0,0,3.7795276,-664.1265,-2215.6255)" /><path
         id="path7"
         style="fill:#000000;fill-opacity:0.80315;stroke:none;stroke-width:3.571;stroke-linecap:round"
         d="M 5297.01,-1598.74 V 230.551 h 604.72 V -1080.94 h 623.62 V 230.551 h 597.17 V -1080.94 h 623.62 V 230.551 h 597.17 v -1337.9518 c 0,-130.3119 -51.7674,-255.2858 -143.9112,-347.4297 -92.1439,-92.1438 -217.1178,-143.9097 -347.4281,-143.9096 z"
         inkscape:label="m"
         sodipodi:nodetypes="ccccccccccccscc" /><path
         id="path8"
         style="fill:#000000;fill-opacity:0.80315;stroke:none;stroke-width:3.571;stroke-linecap:round"
         d="m 10807.6,-1598.74 -1632.7984,-10e-5 c -130.3095,-10e-5 -255.2834,51.7658 -347.4273,143.9096 -92.1438,92.1439 -143.9097,217.1178 -143.912,347.4297 v 846.6136 c 0,130.3109 51.7682,255.2847903 143.912,347.428649 92.1439,92.143861 217.1178,143.909741 347.4273,143.909641 L 10811.9,230.551 V -287.244 H 9288.19 v -793.696 h 1519.41 z"
         inkscape:label="c"
         sodipodi:nodetypes="ccsccsccccccc" /><path
         d="m 11639.1,-1598.7408 c -263.418,-6.1803 -497.563,227.9657 -491.392,491.3399 v 846.61329 c -5.564,264.1376351 227.208,496.90951 491.369,491.33789 H 13181.1 c 263.375,6.18076 497.521,-227.9643564 491.321,-491.33789 v -846.61329 c 5.716,-263.8832 -227.319,-497.0119 -491.321,-491.3399 z m 113.299,517.8008 H 13067.7 v 793.69536 h -1315.301 z"
         style="fill:#000000;fill-opacity:0.80315;stroke:none;stroke-width:3.571;stroke-linecap:round"
         id="path9"
         inkscape:label="o" /></g><g
       inkscape:label="namco"
       id="g83"
       transform="matrix(0.26458333,0,0,0.26458333,7.5001913,433.03288)"
       style="display:inline"><path
         id="path127"
         style="fill:#a51e23;fill-opacity:1;stroke:none;stroke-width:0.944827;stroke-linecap:round"
         d="m 178.21641,163.21763 v 483.9999 H 336.19912 V 300.21888 h 299.00562 v 346.99865 h 154.99292 l 0.005,-353.99974 c 0.003,-34.47838 -13.69245,-67.54439 -38.07222,-91.92413 -24.37977,-24.37974 -57.4458,-38.07611 -91.92286,-38.07606 z"
         sodipodi:nodetypes="ccccccccscc"
         inkscape:label="n"
         transform="matrix(3.7795276,0,0,3.7795276,-664.1265,-2215.6255)" /><path
         d="M 898.21603,163.21744 V 289.2175 h 430.00107 v 42.00002 H 993.22446 c -34.48156,3e-5 -67.54786,13.6965 -91.92763,38.07623 -24.37976,24.37973 -38.07592,57.44543 -38.08042,91.92359 v 56.0002 c 0.005,34.47811 13.70066,67.54437 38.08042,91.9241 24.37977,24.37973 57.44607,38.07576 91.92763,38.07571 h 489.98534 l 0.01,-353.99959 c 0.01,-34.47838 -13.6909,-67.54436 -38.0707,-91.9241 -24.3797,-24.37974 -57.4452,-38.07627 -91.9239,-38.07622 z m 128.53457,294.00014 h 301.4665 v 67.99998 h -301.4665 z"
         style="fill:#a51e23;fill-opacity:1;stroke:none;stroke-width:0.944827;stroke-linecap:round"
         id="path128"
         inkscape:label="a"
         transform="matrix(3.7795276,0,0,3.7795276,-664.1265,-2215.6255)" /><path
         id="path41"
         style="fill:#a51e23;fill-opacity:1;stroke:none;stroke-width:3.571;stroke-linecap:round"
         d="M 5297.01,-1598.74 V 230.551 h 604.72 V -1080.94 h 623.62 V 230.551 h 597.17 V -1080.94 h 623.62 V 230.551 h 597.17 v -1337.9518 c 0,-130.3119 -51.7674,-255.2858 -143.9112,-347.4297 -92.1439,-92.1438 -217.1178,-143.9097 -347.4281,-143.9096 z"
         inkscape:label="m"
         sodipodi:nodetypes="ccccccccccccscc" /><path
         id="path51"
         style="fill:#a51e23;fill-opacity:1;stroke:none;stroke-width:3.571;stroke-linecap:round"
         d="m 10807.6,-1598.74 -1632.7984,-10e-5 c -130.3095,-10e-5 -255.2834,51.7658 -347.4273,143.9096 -92.1438,92.1439 -143.9097,217.1178 -143.912,347.4297 v 846.6136 c 0,130.3109 51.7682,255.2847903 143.912,347.428649 92.1439,92.143861 217.1178,143.909741 347.4273,143.909641 L 10811.9,230.551 V -287.244 H 9288.19 v -793.696 h 1519.41 z"
         inkscape:label="c"
         sodipodi:nodetypes="ccsccsccccccc" /><path
         d="m 11639.1,-1598.7408 c -263.418,-6.1803 -497.563,227.9657 -491.392,491.3399 v 846.61329 c -5.564,264.1376351 227.208,496.90951 491.369,491.33789 H 13181.1 c 263.375,6.18076 497.521,-227.9643564 491.321,-491.33789 v -846.61329 c 5.716,-263.8832 -227.319,-497.0119 -491.321,-491.3399 z m 113.299,517.8008 H 13067.7 v 793.69536 h -1315.301 z"
         style="fill:#a51e23;fill-opacity:1;stroke:none;stroke-width:3.571;stroke-linecap:round"
         id="path129"
         inkscape:label="o" /></g></g><g
     id="g379"
     inkscape:label="system3xx_v1"
     style="display:inline"><g
       id="g338"
       style="display:inline;fill:#000000;fill-opacity:0.80315"
       inkscape:label="system3xx_v1Shadow"
       transform="translate(-160.71971,-145.6855)"><path
         id="path303"
         style="fill:#000000;fill-opacity:0.80315;stroke:none;stroke-width:0.944827;stroke-linecap:round"
         d="m 175.7168,754.21375 c 0,14.47114 8.26069,28.33748 19.54022,36.92157 11.27952,8.58409 25.79096,13.07848 40.45982,13.07851 l 125.99992,3e-5 V 836.2176 H 176.7168 v 45.99992 l 186.99997,3e-5 c 14.66326,3e-5 28.2954,-3.84635 40.40121,-13.03393 12.1058,-9.18755 19.59882,-22.46815 19.59884,-36.96602 v -24.00378 c -2e-5,-14.47111 -8.26071,-28.33745 -19.54024,-36.92154 -11.27952,-8.58408 -25.79096,-13.07848 -40.45981,-13.07841 l -125.99989,6e-5 V 726.2139 h 184.99984 v -45.00007 l -186.99988,-2e-5 c -14.66328,-10e-6 -28.29541,3.84637 -40.40122,13.03394 -12.10581,9.18756 -19.59882,22.46815 -19.59882,36.96601 z"
         sodipodi:nodetypes="csccccccsccsccccccscc"
         inkscape:label="s" /><path
         id="path304"
         style="fill:#000000;fill-opacity:0.80315;stroke:none;stroke-width:0.944827;stroke-linecap:round"
         d="m 624.71736,758.21764 v -77.00381 h 60.99968 l -1.2e-4,78.50081 c -1.1e-4,33.13708 -26.86304,59.99999 -59.99979,60.00004 l -32.50106,6e-5 v 62.50278 h -60.99969 v -62.00007 l -32.49918,6e-5 c -33.13749,6e-5 -60.0004,-26.86286 -60.00044,-59.99991 l -4e-5,-79.00377 h 61.00101 v 77.00381 z"
         sodipodi:nodetypes="ccccccccccccccc"
         inkscape:label="y" /><path
         id="path305"
         style="fill:#000000;fill-opacity:0.80315;stroke:none;stroke-width:0.944827;stroke-linecap:round"
         d="m 705.21641,754.21375 c 0,14.47114 8.26069,28.33748 19.54022,36.92157 11.27952,8.58409 25.79096,13.07848 40.45982,13.07851 l 125.99992,3e-5 V 836.2176 H 706.21641 v 45.99992 l 186.99997,3e-5 c 14.66326,3e-5 28.2954,-3.84635 40.40121,-13.03393 12.1058,-9.18755 19.59882,-22.46815 19.59884,-36.96602 v -24.00378 c -2e-5,-14.47111 -8.26071,-28.33745 -19.54024,-36.92154 -11.27952,-8.58408 -25.79096,-13.07848 -40.45981,-13.07841 l -125.99989,6e-5 V 726.2139 h 184.99984 v -45.00007 l -186.99988,-2e-5 c -14.66328,-10e-6 -28.29541,3.84637 -40.40122,13.03394 -12.10581,9.18756 -19.59882,22.46815 -19.59882,36.96601 z"
         sodipodi:nodetypes="csccccccsccsccccccscc"
         inkscape:label="s" /><path
         d="m 969.21784,681.21372 v 62.00035 h 91.99856 v 139.0034 h 61.9998 v -139.0034 h 92.0011 v -62.00035 z"
         style="fill:#000000;fill-opacity:0.80315;stroke:none;stroke-width:0.944827;stroke-linecap:round"
         id="path307"
         inkscape:label="t" /><path
         d="m 1295.6951,681.21372 c -33.1375,-10e-6 -60.0006,26.8628 -60,59.99995 v 81.00384 c -6e-4,33.13703 26.8625,59.99999 60,59.99996 h 185.9995 v -45.99978 h -185.0414 v -32.00373 h 185.0414 v -63.00029 c 0,-33.13715 -26.8627,-59.99996 -59.9995,-59.99995 z m 0.9581,47.00023 h 123.2824 v 30.00023 h -123.2824 z"
         style="fill:#000000;fill-opacity:0.80315;stroke:none;stroke-width:0.944827;stroke-linecap:round"
         id="path314"
         inkscape:label="e" /><path
         id="path321"
         style="fill:#000000;fill-opacity:0.80315;stroke:none;stroke-width:0.944827;stroke-linecap:round"
         d="m 1498.7155,681.21383 v 201.00369 h 61.0023 V 743.202 h 77.4991 v 139.01552 h 61.4998 V 743.202 h 75.4988 v 139.01552 h 63.5 l 6e-4,-131.0037 c 7e-4,-17.3632 -4.9658,-33.71059 -16.007,-47.60053 -11.0413,-13.88994 -26.8362,-22.39949 -43.9927,-22.39948 z"
         sodipodi:nodetypes="ccccccccccccscc"
         inkscape:label="m" /><g
         id="g337"
         inkscape:label="3xxShadow"
         style="display:inline"
         transform="translate(-5.2884987,-5.2916052)"><path
           id="path426"
           style="display:inline;fill:#000000;fill-opacity:0.803922;stroke-width:0.944827;stroke-linecap:round"
           d="m 1795,535.52784 v 44.99984 h 185 v 33.00367 h -126 v 44.99617 l 126,6e-4 v 33.0031 h -185 v 45.00089 l 186.9999,-5e-4 c 35.9843,2e-4 60,-24.77139 60,-50.00009 v -24.0037 c 0,-9.5577 -3.648,-18.8157 -9.3447,-26.4981 v 0 0 c 5.6967,-7.6824 9.3447,-16.94046 9.3447,-26.49813 v -24.0037 c 0,-25.22955 -24.0166,-50.0003 -60,-50.00005 z"
           sodipodi:nodetypes="cccccccccccsscccsccc"
           inkscape:label="3"
           transform="translate(166.00821,150.97711)" /><path
           id="path427"
           style="display:inline;fill:#000000;fill-opacity:0.803922;stroke:none;stroke-width:0.944827;stroke-linecap:round"
           d="m 2057.2068,535.52839 h 245.9831 v 48.02876 H 2118.696 v 28.97505 l 124.5373,-3e-5 c 14.6668,-4e-5 29.1784,4.49433 40.4579,13.07844 11.2797,8.58411 19.5402,22.4504 19.5459,36.92151 v 24.00004 c -0.01,14.49784 -7.4987,27.77842 -19.6044,36.96602 -12.106,9.1876 -25.7381,13.03396 -40.3994,13.03393 l -186.0001,-3e-5 v -47.04609 h 184.494 v -30.95757 l -124.533,-3e-5 c -14.6624,-3e-5 -29.1738,-4.4944 -40.4535,-13.07851 -11.2794,-8.58411 -19.5403,-22.4504 -19.5371,-36.92157 z"
           sodipodi:nodetypes="ccccccsccsccccccscc"
           inkscape:label="5"
           transform="translate(166.00821,150.97711)" /><path
           id="path428"
           style="display:inline;fill:#000000;fill-opacity:0.803922;stroke-width:0.944827;stroke-linecap:round"
           d="m 2325.048,535.52836 v 100.49973 h 61.9998 v -38.49974 -5.1e-4 l 121.9998,5.1e-4 v 139.00376 h 61.9998 V 585.52789 c 0,-14.4978 -7.493,-27.7781 -19.5988,-36.9657 -12.1058,-9.1876 -25.7378,-13.03383 -40.4011,-13.03383 z"
           sodipodi:nodetypes="ccccccccsssc"
           inkscape:label="7"
           transform="translate(166.00821,150.97711)" /><path
           id="path333"
           style="display:inline;fill:#000000;fill-opacity:0.80315;stroke:none;stroke-width:0.944827;stroke-linecap:round"
           d="m 2847.0562,686.50539 v 155.00035 h 61.0128 V 686.50539 Z m 0,169.00363 v 32.00012 h 61.0128 v -32.00012 z"
           inkscape:label="!" /><path
           id="path429"
           style="display:inline;fill:#000000;fill-opacity:0.803922;stroke-width:0.944827;stroke-linecap:round"
           d="m 2853.9994,535.52784 v 44.99984 h 185 v 33.00367 h -126 v 44.99617 l 126,6e-4 v 33.0031 h -185 v 45.00089 l 186.9999,-5e-4 c 35.9843,2e-4 60,-24.77139 60,-50.00009 v -24.0037 c 0,-9.5577 -3.648,-18.8157 -9.3447,-26.4981 v 0 0 c 5.6967,-7.6824 9.3447,-16.94046 9.3447,-26.49813 v -24.0037 c 0,-25.22955 -24.0166,-50.0003 -60,-50.00005 z"
           sodipodi:nodetypes="cccccccccccsscccsccc"
           inkscape:label="3"
           transform="translate(166.00821,150.97711)" /><path
           id="path430"
           style="display:inline;fill:#000000;fill-opacity:0.803922;stroke:none;stroke-width:0.944827;stroke-linecap:round"
           d="M 3302.5359,675.53213 V 643.5321 h -121.4993 v 32.00003 z M 3120.037,535.52839 h 60.9996 v 47.00006 l 126,-5e-5 c 33.1372,-4e-5 60.0001,26.86287 59.9998,59.99992 v 34.00388 c 3e-4,33.13702 -26.8626,59.99994 -59.9998,59.99991 h -127 c -33.137,3e-5 -59.9999,-26.86289 -59.9997,-59.99991 z"
           sodipodi:nodetypes="ccccccccccccccc"
           inkscape:label="6"
           transform="translate(166.00821,150.97711)" /><path
           id="path337"
           style="display:inline;fill:#000000;fill-opacity:0.80315;stroke:none;stroke-width:0.944827;stroke-linecap:round"
           d="m 3614.5563,747.50548 v 32.00003 h 121.4993 v -32.00003 z m 182.4989,140.00374 h -60.9996 v -47.00006 l -126,5e-5 c -33.1372,4e-5 -60.0001,-26.86287 -59.9998,-59.99992 v -34.00388 c -3e-4,-33.13702 26.8626,-59.99994 59.9998,-59.99991 h 127 c 33.137,-3e-5 59.9999,26.86289 59.9997,59.99991 z"
           sodipodi:nodetypes="ccccccccccccccc"
           inkscape:label="9" /></g></g><g
       id="g378"
       style="display:inline"
       inkscape:label="system3xx_v1"
       transform="translate(-168.21661,-153.1847)"><path
         id="path338"
         style="display:inline;fill:#a51e23;fill-opacity:1;stroke:none;stroke-width:0.944827;stroke-linecap:round"
         d="m 175.7168,754.21375 c 0,14.47114 8.26069,28.33748 19.54022,36.92157 11.27952,8.58409 25.79096,13.07848 40.45982,13.07851 l 125.99992,3e-5 V 836.2176 H 176.7168 v 45.99992 l 186.99997,3e-5 c 14.66326,3e-5 28.2954,-3.84635 40.40121,-13.03393 12.1058,-9.18755 19.59882,-22.46815 19.59884,-36.96602 v -24.00378 c -2e-5,-14.47111 -8.26071,-28.33745 -19.54024,-36.92154 -11.27952,-8.58408 -25.79096,-13.07848 -40.45981,-13.07841 l -125.99989,6e-5 V 726.2139 h 184.99984 v -45.00007 l -186.99988,-2e-5 c -14.66328,-10e-6 -28.29541,3.84637 -40.40122,13.03394 -12.10581,9.18756 -19.59882,22.46815 -19.59882,36.96601 z"
         sodipodi:nodetypes="csccccccsccsccccccscc"
         inkscape:label="s" /><path
         id="path339"
         style="display:inline;fill:#a51e23;fill-opacity:1;stroke:none;stroke-width:0.944827;stroke-linecap:round"
         d="m 624.71736,758.21764 v -77.00381 h 60.99968 l -1.2e-4,78.50081 c -1.1e-4,33.13708 -26.86304,59.99999 -59.99979,60.00004 l -32.50106,6e-5 v 62.50278 h -60.99969 v -62.00007 l -32.49918,6e-5 c -33.13749,6e-5 -60.0004,-26.86286 -60.00044,-59.99991 l -4e-5,-79.00377 h 61.00101 v 77.00381 z"
         sodipodi:nodetypes="ccccccccccccccc"
         inkscape:label="y" /><path
         id="path340"
         style="display:inline;fill:#a51e23;fill-opacity:1;stroke:none;stroke-width:0.944827;stroke-linecap:round"
         d="m 705.21641,754.21375 c 0,14.47114 8.26069,28.33748 19.54022,36.92157 11.27952,8.58409 25.79096,13.07848 40.45982,13.07851 l 125.99992,3e-5 V 836.2176 H 706.21641 v 45.99992 l 186.99997,3e-5 c 14.66326,3e-5 28.2954,-3.84635 40.40121,-13.03393 12.1058,-9.18755 19.59882,-22.46815 19.59884,-36.96602 v -24.00378 c -2e-5,-14.47111 -8.26071,-28.33745 -19.54024,-36.92154 -11.27952,-8.58408 -25.79096,-13.07848 -40.45981,-13.07841 l -125.99989,6e-5 V 726.2139 h 184.99984 v -45.00007 l -186.99988,-2e-5 c -14.66328,-10e-6 -28.29541,3.84637 -40.40122,13.03394 -12.10581,9.18756 -19.59882,22.46815 -19.59882,36.96601 z"
         sodipodi:nodetypes="csccccccsccsccccccscc"
         inkscape:label="s" /><path
         d="m 969.21784,681.21372 v 62.00035 h 91.99856 v 139.0034 h 61.9998 v -139.0034 h 92.0011 v -62.00035 z"
         style="display:inline;fill:#a51e23;fill-opacity:1;stroke:none;stroke-width:0.944827;stroke-linecap:round"
         id="path347"
         inkscape:label="t"
         sodipodi:nodetypes="ccccccccc" /><path
         d="m 1295.6951,681.21372 c -33.1375,-10e-6 -60.0006,26.8628 -60,59.99995 v 81.00384 c -6e-4,33.13703 26.8625,59.99999 60,59.99996 h 185.9995 l 4e-4,-45.99978 h -185.0418 v -32.00373 h 185.0414 v -63.00029 c 0,-33.13715 -26.8627,-59.99996 -59.9995,-59.99995 z m 0.9581,47.00023 h 123.2824 v 30.00023 h -123.2824 z"
         style="display:inline;fill:#a51e23;fill-opacity:1;stroke:none;stroke-width:0.944827;stroke-linecap:round"
         id="path354"
         inkscape:label="e"
         sodipodi:nodetypes="sccscccccsssccccc" /><path
         id="path361"
         style="display:inline;fill:#a51e23;fill-opacity:1;stroke:none;stroke-width:0.944827;stroke-linecap:round"
         d="m 1498.7155,681.21383 5e-4,201.00369 h 61.0018 V 743.202 h 77.4991 v 139.01552 h 61.4998 V 743.202 h 75.4988 v 139.01552 h 63.5 l 6e-4,-131.0037 c 7e-4,-17.3632 -4.9658,-33.71059 -16.007,-47.60053 -11.0413,-13.88994 -26.8362,-22.39949 -43.9927,-22.39948 z"
         sodipodi:nodetypes="ccccccccccccscc"
         inkscape:label="m" /><g
         id="g377"
         inkscape:label="3xx"
         style="display:inline"><path
           id="path393"
           style="display:inline;fill:#a51e23;fill-opacity:1;stroke-width:0.944827;stroke-linecap:round"
           d="m 1788.0002,528.02883 v 44.99984 h 185 v 33.00367 h -126 v 44.99617 l 126,6e-4 v 33.0031 h -185 v 45.00089 l 186.9999,-5e-4 c 35.9843,2e-4 60,-24.77139 60,-50.00009 v -24.0037 c 0,-9.5577 -3.648,-18.8157 -9.3447,-26.4981 v 0 0 c 5.6967,-7.6824 9.3447,-16.94046 9.3447,-26.49813 v -24.0037 c 0,-25.22955 -24.0166,-50.0003 -60,-50.00005 z"
           sodipodi:nodetypes="cccccccccccsscccsccc"
           inkscape:label="3"
           transform="translate(168.21661,153.1847)" /><path
           id="path398"
           style="display:inline;fill:#a51e23;fill-opacity:1;stroke:none;stroke-width:0.944827;stroke-linecap:round"
           d="m 2050.207,528.02913 h 245.9831 v 48.02876 h -184.4939 v 28.97505 l 124.5373,-3e-5 c 14.6668,-4e-5 29.1784,4.49433 40.4579,13.07844 11.2797,8.58411 19.5402,22.4504 19.5459,36.92151 v 24.00004 c -0.01,14.49784 -7.4987,27.77842 -19.6044,36.96602 -12.106,9.1876 -25.7381,13.03396 -40.3994,13.03393 l -186.0001,-3e-5 v -47.04609 h 184.494 v -30.95757 l -124.533,-3e-5 c -14.6624,-3e-5 -29.1738,-4.4944 -40.4535,-13.07851 -11.2794,-8.58411 -19.5403,-22.4504 -19.5371,-36.92157 z"
           sodipodi:nodetypes="ccccccsccsccccccscc"
           inkscape:label="5"
           transform="translate(168.21661,153.1847)" /><path
           id="path401"
           style="display:inline;fill:#a51e23;fill-opacity:1;stroke-width:0.944827;stroke-linecap:round"
           d="M 2318.0482,528.02927 V 628.529 h 61.9998 v -38.49974 -5.1e-4 l 121.9998,5.1e-4 v 139.00376 h 61.9998 V 578.0288 c 0,-14.4978 -7.493,-27.7781 -19.5988,-36.9657 -12.1058,-9.1876 -25.7378,-13.03383 -40.4011,-13.03383 z"
           sodipodi:nodetypes="ccccccccsssc"
           inkscape:label="7"
           transform="translate(168.21661,153.1847)" /><path
           id="path374"
           style="display:inline;fill:#a51e23;fill-opacity:1;stroke:none;stroke-width:0.944827;stroke-linecap:round"
           d="m 2841.7645,681.21372 v 155.00035 h 61.0128 V 681.21372 Z m 0,169.00363 v 32.00012 h 61.0128 v -32.00012 z"
           inkscape:label="!" /><path
           id="path403"
           style="display:inline;fill:#a51e23;fill-opacity:1;stroke-width:0.944827;stroke-linecap:round"
           d="m 2846.9996,528.02883 v 44.99984 h 185 v 33.00367 h -126 v 44.99617 l 126,6e-4 v 33.0031 h -185 v 45.00089 l 186.9999,-5e-4 c 35.9843,2e-4 60,-24.77139 60,-50.00009 v -24.0037 c 0,-9.5577 -3.648,-18.8157 -9.3447,-26.4981 v 0 0 c 5.6967,-7.6824 9.3447,-16.94046 9.3447,-26.49813 v -24.0037 c 0,-25.22955 -24.0166,-50.0003 -60,-50.00005 z"
           sodipodi:nodetypes="cccccccccccsscccsccc"
           inkscape:label="3"
           transform="translate(168.21661,153.1847)" /><path
           id="path402"
           style="display:inline;fill:#a51e23;fill-opacity:1;stroke:none;stroke-width:0.944827;stroke-linecap:round"
           d="m 3463.7527,821.21757 v -32.00003 h -121.4993 v 32.00003 z M 3281.2538,681.21383 h 60.9996 v 47.00006 l 126,-5e-5 c 33.1372,-4e-5 60.0001,26.86287 59.9998,59.99992 v 34.00388 c 3e-4,33.13702 -26.8626,59.99994 -59.9998,59.99991 h -127 c -33.137,3e-5 -59.9999,-26.86289 -59.9997,-59.99991 z"
           sodipodi:nodetypes="ccccccccccccccc"
           inkscape:label="6" /><path
           id="path404"
           style="display:inline;fill:#a51e23;fill-opacity:1;stroke:none;stroke-width:0.944827;stroke-linecap:round"
           d="m 3441.048,589.02914 v 32 h 121.4993 v -32 z m 182.4989,140.0037 h -60.9996 v -47.0001 l -126,10e-5 c -33.1372,0 -60.0001,-26.8629 -59.9998,-59.9999 v -34.0039 c -3e-4,-33.137 26.8626,-59.9999 59.9998,-59.9999 h 127 c 33.137,0 59.9999,26.8629 59.9997,59.9999 z"
           sodipodi:nodetypes="ccccccccccccccc"
           inkscape:label="9"
           transform="translate(168.21661,153.1847)" /></g></g></g></svg>
