<?xml version="1.0" encoding="UTF-8" standalone="no"?>
<!-- Created by ERK -->

<svg
   width="3635.0273mm"
   height="504.06445mm"
   viewBox="0 0 3635.0273 504.06444"
   version="1.1"
   id="svg1"
   inkscape:version="1.4 (86a8ad7, 2024-10-11)"
   xml:space="preserve"
   sodipodi:docname="namco.svg"
   xmlns:inkscape="http://www.inkscape.org/namespaces/inkscape"
   xmlns:sodipodi="http://sodipodi.sourceforge.net/DTD/sodipodi-0.dtd"
   xmlns="http://www.w3.org/2000/svg"
   xmlns:svg="http://www.w3.org/2000/svg"><sodipodi:namedview
     id="namedview1"
     pagecolor="#ffffff"
     bordercolor="#000000"
     borderopacity="0.25"
     inkscape:showpageshadow="2"
     inkscape:pageopacity="0.0"
     inkscape:pagecheckerboard="true"
     inkscape:deskcolor="#d1d1d1"
     inkscape:document-units="mm"
     inkscape:zoom="0.094851141"
     inkscape:cx="7095.3285"
     inkscape:cy="1070.0978"
     inkscape:window-width="3840"
     inkscape:window-height="2066"
     inkscape:window-x="-11"
     inkscape:window-y="-11"
     inkscape:window-maximized="1"
     inkscape:current-layer="svg1"
     showgrid="false" /><defs
     id="defs1"><marker
       id="DistanceX"
       orient="auto"
       refX="0"
       refY="0"
       style="overflow:visible"><path
         d="M 3,-3 -3,3 M 0,-5 V 5"
         style="stroke:#000000;stroke-width:0.5"
         id="path1" /></marker><pattern
       id="Hatch"
       patternUnits="userSpaceOnUse"
       width="8"
       height="8"
       x="0"
       y="0"><path
         d="M8 4 l-4,4"
         stroke="#000000"
         stroke-width="0.25"
         linecap="square"
         id="path2" /><path
         d="M6 2 l-4,4"
         stroke="#000000"
         stroke-width="0.25"
         linecap="square"
         id="path3" /><path
         d="M4 0 l-4,4"
         stroke="#000000"
         stroke-width="0.25"
         linecap="square"
         id="path4" /></pattern><symbol
       id="*Model_Space" /><symbol
       id="*Paper_Space" /><symbol
       id="*Paper_Space0" /><marker
       id="DistanceX-0"
       orient="auto"
       refX="0"
       refY="0"
       style="overflow:visible"><path
         d="M 3,-3 -3,3 M 0,-5 V 5"
         style="stroke:#000000;stroke-width:0.5"
         id="path1-9" /></marker><pattern
       id="Hatch-4"
       patternUnits="userSpaceOnUse"
       width="8"
       height="8"
       x="0"
       y="0"><path
         d="M8 4 l-4,4"
         stroke="#000000"
         stroke-width="0.25"
         linecap="square"
         id="path2-8" /><path
         d="M6 2 l-4,4"
         stroke="#000000"
         stroke-width="0.25"
         linecap="square"
         id="path3-8" /><path
         d="M4 0 l-4,4"
         stroke="#000000"
         stroke-width="0.25"
         linecap="square"
         id="path4-2" /></pattern><symbol
       id="*Model_Space-4" /><symbol
       id="*Paper_Space-5" /><symbol
       id="*Paper_Space0-5" /><marker
       id="DistanceX-02"
       orient="auto"
       refX="0"
       refY="0"
       style="overflow:visible"><path
         d="M 3,-3 -3,3 M 0,-5 V 5"
         style="stroke:#000000;stroke-width:0.5"
         id="path1-4" /></marker><pattern
       id="Hatch-8"
       patternUnits="userSpaceOnUse"
       width="8"
       height="8"
       x="0"
       y="0"><path
         d="M8 4 l-4,4"
         stroke="#000000"
         stroke-width="0.25"
         linecap="square"
         id="path2-6" /><path
         d="M6 2 l-4,4"
         stroke="#000000"
         stroke-width="0.25"
         linecap="square"
         id="path3-5" /><path
         d="M4 0 l-4,4"
         stroke="#000000"
         stroke-width="0.25"
         linecap="square"
         id="path4-0" /></pattern><symbol
       id="*Model_Space-9" /><symbol
       id="*Paper_Space-0" /><symbol
       id="*Paper_Space0-0" /><marker
       id="DistanceX-2"
       orient="auto"
       refX="0"
       refY="0"
       style="overflow:visible"><path
         d="M 3,-3 -3,3 M 0,-5 V 5"
         style="stroke:#000000;stroke-width:0.5"
         id="path1-6" /></marker><pattern
       id="Hatch-0"
       patternUnits="userSpaceOnUse"
       width="8"
       height="8"
       x="0"
       y="0"><path
         d="M8 4 l-4,4"
         stroke="#000000"
         stroke-width="0.25"
         linecap="square"
         id="path2-1" /><path
         d="M6 2 l-4,4"
         stroke="#000000"
         stroke-width="0.25"
         linecap="square"
         id="path3-6" /><path
         d="M4 0 l-4,4"
         stroke="#000000"
         stroke-width="0.25"
         linecap="square"
         id="path4-5" /></pattern><symbol
       id="*Model_Space-7" /><symbol
       id="*Paper_Space-54" /><symbol
       id="*Paper_Space0-1" /><marker
       id="DistanceX-4"
       orient="auto"
       refX="0"
       refY="0"
       style="overflow:visible"><path
         d="M 3,-3 -3,3 M 0,-5 V 5"
         style="stroke:#000000;stroke-width:0.5"
         id="path1-3" /></marker><pattern
       id="Hatch-9"
       patternUnits="userSpaceOnUse"
       width="8"
       height="8"
       x="0"
       y="0"><path
         d="M8 4 l-4,4"
         stroke="#000000"
         stroke-width="0.25"
         linecap="square"
         id="path2-88" /><path
         d="M6 2 l-4,4"
         stroke="#000000"
         stroke-width="0.25"
         linecap="square"
         id="path3-0" /><path
         d="M4 0 l-4,4"
         stroke="#000000"
         stroke-width="0.25"
         linecap="square"
         id="path4-8" /></pattern><symbol
       id="*Model_Space-77" /><symbol
       id="*Paper_Space-8" /><symbol
       id="*Paper_Space0-3" /><marker
       id="DistanceX-7"
       orient="auto"
       refX="0"
       refY="0"
       style="overflow:visible"><path
         d="M 3,-3 -3,3 M 0,-5 V 5"
         style="stroke:#000000;stroke-width:0.5"
         id="path1-2" /></marker><pattern
       id="Hatch-2"
       patternUnits="userSpaceOnUse"
       width="8"
       height="8"
       x="0"
       y="0"><path
         d="M8 4 l-4,4"
         stroke="#000000"
         stroke-width="0.25"
         linecap="square"
         id="path2-82" /><path
         d="M6 2 l-4,4"
         stroke="#000000"
         stroke-width="0.25"
         linecap="square"
         id="path3-89" /><path
         d="M4 0 l-4,4"
         stroke="#000000"
         stroke-width="0.25"
         linecap="square"
         id="path4-07" /></pattern><symbol
       id="*Model_Space-8" /><symbol
       id="*Paper_Space-1" /><symbol
       id="*Paper_Space0-58" /><marker
       id="DistanceX-25"
       orient="auto"
       refX="0"
       refY="0"
       style="overflow:visible"><path
         d="M 3,-3 -3,3 M 0,-5 V 5"
         style="stroke:#000000;stroke-width:0.5"
         id="path1-36" /></marker><pattern
       id="Hatch-1"
       patternUnits="userSpaceOnUse"
       width="8"
       height="8"
       x="0"
       y="0"><path
         d="M8 4 l-4,4"
         stroke="#000000"
         stroke-width="0.25"
         linecap="square"
         id="path2-86" /><path
         d="M6 2 l-4,4"
         stroke="#000000"
         stroke-width="0.25"
         linecap="square"
         id="path3-2" /><path
         d="M4 0 l-4,4"
         stroke="#000000"
         stroke-width="0.25"
         linecap="square"
         id="path4-1" /></pattern><symbol
       id="*Model_Space-46" /><symbol
       id="*Paper_Space-2" /><symbol
       id="*Paper_Space0-9" /><marker
       id="DistanceX-5"
       orient="auto"
       refX="0"
       refY="0"
       style="overflow:visible"><path
         d="M 3,-3 -3,3 M 0,-5 V 5"
         style="stroke:#000000;stroke-width:0.5"
         id="path1-7" /></marker><pattern
       id="Hatch-98"
       patternUnits="userSpaceOnUse"
       width="8"
       height="8"
       x="0"
       y="0"><path
         d="M8 4 l-4,4"
         stroke="#000000"
         stroke-width="0.25"
         linecap="square"
         id="path2-3" /><path
         d="M6 2 l-4,4"
         stroke="#000000"
         stroke-width="0.25"
         linecap="square"
         id="path3-02" /><path
         d="M4 0 l-4,4"
         stroke="#000000"
         stroke-width="0.25"
         linecap="square"
         id="path4-23" /></pattern><symbol
       id="*Model_Space-6" /><symbol
       id="*Paper_Space-7" /><symbol
       id="*Paper_Space0-15" /><marker
       id="DistanceX-52"
       orient="auto"
       refX="0"
       refY="0"
       style="overflow:visible"><path
         d="M 3,-3 -3,3 M 0,-5 V 5"
         style="stroke:#000000;stroke-width:0.5"
         id="path1-8" /></marker><pattern
       id="Hatch-07"
       patternUnits="userSpaceOnUse"
       width="8"
       height="8"
       x="0"
       y="0"><path
         d="M8 4 l-4,4"
         stroke="#000000"
         stroke-width="0.25"
         linecap="square"
         id="path2-2" /><path
         d="M6 2 l-4,4"
         stroke="#000000"
         stroke-width="0.25"
         linecap="square"
         id="path3-25" /><path
         d="M4 0 l-4,4"
         stroke="#000000"
         stroke-width="0.25"
         linecap="square"
         id="path4-9" /></pattern><symbol
       id="*Model_Space-1" /><symbol
       id="*Paper_Space-08" /><symbol
       id="*Paper_Space0-50" /><marker
       id="DistanceX-58"
       orient="auto"
       refX="0"
       refY="0"
       style="overflow:visible"><path
         d="M 3,-3 -3,3 M 0,-5 V 5"
         style="stroke:#000000;stroke-width:0.5"
         id="path1-61" /></marker><pattern
       id="Hatch-5"
       patternUnits="userSpaceOnUse"
       width="8"
       height="8"
       x="0"
       y="0"><path
         d="M8 4 l-4,4"
         stroke="#000000"
         stroke-width="0.25"
         linecap="square"
         id="path2-5" /><path
         d="M6 2 l-4,4"
         stroke="#000000"
         stroke-width="0.25"
         linecap="square"
         id="path3-1" /><path
         d="M4 0 l-4,4"
         stroke="#000000"
         stroke-width="0.25"
         linecap="square"
         id="path4-96" /></pattern><symbol
       id="*Model_Space-45" /><symbol
       id="*Paper_Space-4" /><symbol
       id="*Paper_Space0-2" /><marker
       id="DistanceX-45"
       orient="auto"
       refX="0"
       refY="0"
       style="overflow:visible"><path
         d="M 3,-3 -3,3 M 0,-5 V 5"
         style="stroke:#000000;stroke-width:0.5"
         id="path1-62" /></marker><pattern
       id="Hatch-53"
       patternUnits="userSpaceOnUse"
       width="8"
       height="8"
       x="0"
       y="0"><path
         d="M8 4 l-4,4"
         stroke="#000000"
         stroke-width="0.25"
         linecap="square"
         id="path2-56" /><path
         d="M6 2 l-4,4"
         stroke="#000000"
         stroke-width="0.25"
         linecap="square"
         id="path3-61" /><path
         d="M4 0 l-4,4"
         stroke="#000000"
         stroke-width="0.25"
         linecap="square"
         id="path4-4" /></pattern><symbol
       id="*Model_Space-462" /><symbol
       id="*Paper_Space-6" /><symbol
       id="*Paper_Space0-8" /><marker
       id="DistanceX-09"
       orient="auto"
       refX="0"
       refY="0"
       style="overflow:visible"><path
         d="M 3,-3 -3,3 M 0,-5 V 5"
         style="stroke:#000000;stroke-width:0.5"
         id="path1-48" /></marker><pattern
       id="Hatch-82"
       patternUnits="userSpaceOnUse"
       width="8"
       height="8"
       x="0"
       y="0"><path
         d="M8 4 l-4,4"
         stroke="#000000"
         stroke-width="0.25"
         linecap="square"
         id="path2-4" /><path
         d="M6 2 l-4,4"
         stroke="#000000"
         stroke-width="0.25"
         linecap="square"
         id="path3-55" /><path
         d="M4 0 l-4,4"
         stroke="#000000"
         stroke-width="0.25"
         linecap="square"
         id="path4-17" /></pattern><symbol
       id="*Model_Space-11" /><symbol
       id="*Paper_Space-52" /><symbol
       id="*Paper_Space0-7" /><marker
       id="DistanceX-094"
       orient="auto"
       refX="0"
       refY="0"
       style="overflow:visible"><path
         d="M 3,-3 -3,3 M 0,-5 V 5"
         style="stroke:#000000;stroke-width:0.5"
         id="path1-88" /></marker><pattern
       id="Hatch-24"
       patternUnits="userSpaceOnUse"
       width="8"
       height="8"
       x="0"
       y="0"><path
         d="M8 4 l-4,4"
         stroke="#000000"
         stroke-width="0.25"
         linecap="square"
         id="path2-55" /><path
         d="M6 2 l-4,4"
         stroke="#000000"
         stroke-width="0.25"
         linecap="square"
         id="path3-17" /><path
         d="M4 0 l-4,4"
         stroke="#000000"
         stroke-width="0.25"
         linecap="square"
         id="path4-11" /></pattern><symbol
       id="*Model_Space-5" /><symbol
       id="*Paper_Space-27" /><symbol
       id="*Paper_Space0-6" /><marker
       id="DistanceX-0948"
       orient="auto"
       refX="0"
       refY="0"
       style="overflow:visible"><path
         d="M 3,-3 -3,3 M 0,-5 V 5"
         style="stroke:#000000;stroke-width:0.5"
         id="path1-82" /></marker><pattern
       id="Hatch-45"
       patternUnits="userSpaceOnUse"
       width="8"
       height="8"
       x="0"
       y="0"><path
         d="M8 4 l-4,4"
         stroke="#000000"
         stroke-width="0.25"
         linecap="square"
         id="path2-51" /><path
         d="M6 2 l-4,4"
         stroke="#000000"
         stroke-width="0.25"
         linecap="square"
         id="path3-7" /><path
         d="M4 0 l-4,4"
         stroke="#000000"
         stroke-width="0.25"
         linecap="square"
         id="path4-115" /></pattern><symbol
       id="*Model_Space-2" /><symbol
       id="*Paper_Space-76" /><symbol
       id="*Paper_Space0-14" /><marker
       id="DistanceX-76"
       orient="auto"
       refX="0"
       refY="0"
       style="overflow:visible"><path
         d="M 3,-3 -3,3 M 0,-5 V 5"
         style="stroke:#000000;stroke-width:0.5"
         id="path1-1" /></marker><pattern
       id="Hatch-89"
       patternUnits="userSpaceOnUse"
       width="8"
       height="8"
       x="0"
       y="0"><path
         d="M8 4 l-4,4"
         stroke="#000000"
         stroke-width="0.25"
         linecap="square"
         id="path2-27" /><path
         d="M6 2 l-4,4"
         stroke="#000000"
         stroke-width="0.25"
         linecap="square"
         id="path3-9" /><path
         d="M4 0 l-4,4"
         stroke="#000000"
         stroke-width="0.25"
         linecap="square"
         id="path4-54" /></pattern><symbol
       id="*Model_Space-3" /><symbol
       id="*Paper_Space-12" /><symbol
       id="*Paper_Space0-33" /><marker
       id="DistanceX-44"
       orient="auto"
       refX="0"
       refY="0"
       style="overflow:visible"><path
         d="M 3,-3 -3,3 M 0,-5 V 5"
         style="stroke:#000000;stroke-width:0.5"
         id="path1-60" /></marker><pattern
       id="Hatch-6"
       patternUnits="userSpaceOnUse"
       width="8"
       height="8"
       x="0"
       y="0"><path
         d="M8 4 l-4,4"
         stroke="#000000"
         stroke-width="0.25"
         linecap="square"
         id="path2-61" /><path
         d="M6 2 l-4,4"
         stroke="#000000"
         stroke-width="0.25"
         linecap="square"
         id="path3-84" /><path
         d="M4 0 l-4,4"
         stroke="#000000"
         stroke-width="0.25"
         linecap="square"
         id="path4-963" /></pattern><symbol
       id="*Model_Space-78" /><symbol
       id="*Paper_Space-82" /><symbol
       id="*Paper_Space0-91" /></defs><g
     id="g129"
     inkscape:label="copyR"
     style="display:none"
     transform="translate(-168.21661,-153.1847)"><path
       d="m 3808.5554,95.802448 a 76.578888,76.578888 0 0 0 -153.1577,0 76.578888,76.578888 0 0 0 153.1577,0 z"
       style="display:inline;fill:#000000;fill-opacity:0.80315;stroke:none;stroke-width:0.944827;stroke-linecap:round"
       id="path10"
       inkscape:label="Circle1Shadow"
       transform="translate(168.21661,153.1847)" /><path
       d="m 14346.192,-1294.5718 a 289.43202,289.43202 0 0 0 -578.864,0 289.43202,289.43202 0 0 0 578.864,0 z"
       style="display:inline;fill:#a51e23;fill-opacity:1;stroke:none;stroke-width:3.571;stroke-linecap:round"
       id="path65"
       inkscape:label="Circle1"
       transform="matrix(0.26458333,0,0,0.26458333,175.7168,586.21758)" /><path
       d="m 14295.064,-1294.5718 c -0.101,-131.5404 -106.764,-238.1213 -238.304,-238.1213 -131.54,0 -238.203,106.5809 -238.304,238.1213 0.101,131.5404 106.764,238.1213 238.304,238.1213 131.54,0 238.203,-106.5809 238.304,-238.1213 z"
       style="display:inline;fill:#ffffff;stroke:none;stroke-width:3.571;stroke-linecap:round"
       id="path64"
       transform="matrix(0.26458333,0,0,0.26458333,175.7168,586.21758)"
       inkscape:label="Circle2"
       sodipodi:nodetypes="cscsc" /><path
       id="path79"
       style="display:inline;fill:#a51e23;fill-opacity:1;stroke:none;stroke-width:3.571;stroke-linecap:round"
       d="m 13984.3,-1137.64 v -128.5 l 51.677,-9e-4 c 13.03,-8e-4 25.077,6.7393 35.197,15.1105 14.971,12.3853 25.723,28.3407 34.008,45.3707 10.49,21.5603 17.026,44.8428 22.641,68.0208 h 53.993 c -8.06,-33.0124 -19.471,-66.1614 -38.797,-94.5682 -12.071,-17.7425 -27.229,-33.6351 -48.816,-39.9737 v -3.3215 c 15.626,-2.1558 31.064,-7.3749 44.364,-16.1512 9.203,-6.0728 17.383,-13.8486 23.295,-23.1199 7.692,-12.0625 11.542,-26.6564 11.472,-41.1321 -0.09,-17.8502 -6.152,-35.5207 -16.719,-49.9316 -8.485,-11.5714 -19.876,-21.0413 -32.619,-26.9023 -7.521,-3.4597 -15.514,-5.6619 -23.827,-7.4271 -17.539,-3.7244 -36.501,-5.5028 -52.372,-5.5031 l -112.7,-4e-4 v 308.03 z m 106.531,-260.4369 c 4.925,2.3534 9.183,5.0867 13.767,8.958 1.242,1.0492 2.508,2.1819 3.736,3.4745 6.523,6.8639 11.979,18.2376 11.979,29.7389 0,11.8279 -5.771,23.7906 -14.18,31.8754 -4.733,4.5515 -10.303,7.8739 -15.302,10.2959 -9.729,4.7145 -17.294,6.0177 -29.726,6.016 h -76.806 v -96.37 h 76.806 c 14.068,0 22.597,2.6084 29.727,6.0153 z"
       inkscape:label="R"
       sodipodi:nodetypes="cccssccsccsscsssccccssssssccccs"
       transform="matrix(0.26458333,0,0,0.26458333,175.7168,586.21758)" /></g><g
     id="g3"
     inkscape:label="namco"
     style="display:inline"><g
       inkscape:label="namcoShadow"
       id="g9"
       transform="matrix(0.26458333,0,0,0.26458333,17.500791,443.03304)"
       style="display:inline;fill:#000000;fill-opacity:0.80315"><path
         id="path5"
         style="fill:#000000;fill-opacity:0.80315;stroke:none;stroke-width:0.944827;stroke-linecap:round"
         d="m 178.21641,163.21763 v 483.9999 H 336.19912 V 300.21888 h 299.00562 v 346.99865 h 154.99292 l 0.005,-353.99974 c 0.003,-34.47838 -13.69245,-67.54439 -38.07222,-91.92413 -24.37977,-24.37974 -57.4458,-38.07611 -91.92286,-38.07606 z"
         sodipodi:nodetypes="ccccccccscc"
         inkscape:label="n"
         transform="matrix(3.7795276,0,0,3.7795276,-664.1265,-2215.6255)" /><path
         d="M 898.21603,163.21744 V 289.2175 h 430.00107 v 42.00002 H 993.22446 c -34.48156,3e-5 -67.54786,13.6965 -91.92763,38.07623 -24.37976,24.37973 -38.07592,57.44543 -38.08042,91.92359 v 56.0002 c 0.005,34.47811 13.70066,67.54437 38.08042,91.9241 24.37977,24.37973 57.44607,38.07576 91.92763,38.07571 h 489.98534 l 0.01,-353.99959 c 0.01,-34.47838 -13.6909,-67.54436 -38.0707,-91.9241 -24.3797,-24.37974 -57.4452,-38.07627 -91.9239,-38.07622 z m 128.53457,294.00014 h 301.4665 v 67.99998 h -301.4665 z"
         style="fill:#000000;fill-opacity:0.80315;stroke:none;stroke-width:0.944827;stroke-linecap:round"
         id="path6"
         inkscape:label="a"
         transform="matrix(3.7795276,0,0,3.7795276,-664.1265,-2215.6255)" /><path
         id="path7"
         style="fill:#000000;fill-opacity:0.80315;stroke:none;stroke-width:3.571;stroke-linecap:round"
         d="M 5297.01,-1598.74 V 230.551 h 604.72 V -1080.94 h 623.62 V 230.551 h 597.17 V -1080.94 h 623.62 V 230.551 h 597.17 v -1337.9518 c 0,-130.3119 -51.7674,-255.2858 -143.9112,-347.4297 -92.1439,-92.1438 -217.1178,-143.9097 -347.4281,-143.9096 z"
         inkscape:label="m"
         sodipodi:nodetypes="ccccccccccccscc" /><path
         id="path8"
         style="fill:#000000;fill-opacity:0.80315;stroke:none;stroke-width:3.571;stroke-linecap:round"
         d="m 10807.6,-1598.74 -1632.7984,-10e-5 c -130.3095,-10e-5 -255.2834,51.7658 -347.4273,143.9096 -92.1438,92.1439 -143.9097,217.1178 -143.912,347.4297 v 846.6136 c 0,130.3109 51.7682,255.2847903 143.912,347.428649 92.1439,92.143861 217.1178,143.909741 347.4273,143.909641 L 10811.9,230.551 V -287.244 H 9288.19 v -793.696 h 1519.41 z"
         inkscape:label="c"
         sodipodi:nodetypes="ccsccsccccccc" /><path
         d="m 11639.1,-1598.7408 c -263.418,-6.1803 -497.563,227.9657 -491.392,491.3399 v 846.61329 c -5.564,264.1376351 227.208,496.90951 491.369,491.33789 H 13181.1 c 263.375,6.18076 497.521,-227.9643564 491.321,-491.33789 v -846.61329 c 5.716,-263.8832 -227.319,-497.0119 -491.321,-491.3399 z m 113.299,517.8008 H 13067.7 v 793.69536 h -1315.301 z"
         style="fill:#000000;fill-opacity:0.80315;stroke:none;stroke-width:3.571;stroke-linecap:round"
         id="path9"
         inkscape:label="o" /></g><g
       inkscape:label="namco"
       id="g83"
       transform="matrix(0.26458333,0,0,0.26458333,7.5001913,433.03288)"
       style="display:inline"><path
         id="path127"
         style="fill:#a51e23;fill-opacity:1;stroke:none;stroke-width:0.944827;stroke-linecap:round"
         d="m 178.21641,163.21763 v 483.9999 H 336.19912 V 300.21888 h 299.00562 v 346.99865 h 154.99292 l 0.005,-353.99974 c 0.003,-34.47838 -13.69245,-67.54439 -38.07222,-91.92413 -24.37977,-24.37974 -57.4458,-38.07611 -91.92286,-38.07606 z"
         sodipodi:nodetypes="ccccccccscc"
         inkscape:label="n"
         transform="matrix(3.7795276,0,0,3.7795276,-664.1265,-2215.6255)" /><path
         d="M 898.21603,163.21744 V 289.2175 h 430.00107 v 42.00002 H 993.22446 c -34.48156,3e-5 -67.54786,13.6965 -91.92763,38.07623 -24.37976,24.37973 -38.07592,57.44543 -38.08042,91.92359 v 56.0002 c 0.005,34.47811 13.70066,67.54437 38.08042,91.9241 24.37977,24.37973 57.44607,38.07576 91.92763,38.07571 h 489.98534 l 0.01,-353.99959 c 0.01,-34.47838 -13.6909,-67.54436 -38.0707,-91.9241 -24.3797,-24.37974 -57.4452,-38.07627 -91.9239,-38.07622 z m 128.53457,294.00014 h 301.4665 v 67.99998 h -301.4665 z"
         style="fill:#a51e23;fill-opacity:1;stroke:none;stroke-width:0.944827;stroke-linecap:round"
         id="path128"
         inkscape:label="a"
         transform="matrix(3.7795276,0,0,3.7795276,-664.1265,-2215.6255)" /><path
         id="path41"
         style="fill:#a51e23;fill-opacity:1;stroke:none;stroke-width:3.571;stroke-linecap:round"
         d="M 5297.01,-1598.74 V 230.551 h 604.72 V -1080.94 h 623.62 V 230.551 h 597.17 V -1080.94 h 623.62 V 230.551 h 597.17 v -1337.9518 c 0,-130.3119 -51.7674,-255.2858 -143.9112,-347.4297 -92.1439,-92.1438 -217.1178,-143.9097 -347.4281,-143.9096 z"
         inkscape:label="m"
         sodipodi:nodetypes="ccccccccccccscc" /><path
         id="path51"
         style="fill:#a51e23;fill-opacity:1;stroke:none;stroke-width:3.571;stroke-linecap:round"
         d="m 10807.6,-1598.74 -1632.7984,-10e-5 c -130.3095,-10e-5 -255.2834,51.7658 -347.4273,143.9096 -92.1438,92.1439 -143.9097,217.1178 -143.912,347.4297 v 846.6136 c 0,130.3109 51.7682,255.2847903 143.912,347.428649 92.1439,92.143861 217.1178,143.909741 347.4273,143.909641 L 10811.9,230.551 V -287.244 H 9288.19 v -793.696 h 1519.41 z"
         inkscape:label="c"
         sodipodi:nodetypes="ccsccsccccccc" /><path
         d="m 11639.1,-1598.7408 c -263.418,-6.1803 -497.563,227.9657 -491.392,491.3399 v 846.61329 c -5.564,264.1376351 227.208,496.90951 491.369,491.33789 H 13181.1 c 263.375,6.18076 497.521,-227.9643564 491.321,-491.33789 v -846.61329 c 5.716,-263.8832 -227.319,-497.0119 -491.321,-491.3399 z m 113.299,517.8008 H 13067.7 v 793.69536 h -1315.301 z"
         style="fill:#a51e23;fill-opacity:1;stroke:none;stroke-width:3.571;stroke-linecap:round"
         id="path129"
         inkscape:label="o" /></g></g></svg>
