<?xml version="1.0" encoding="UTF-8"?>
<!-- Created by ERK -->
<svg width="1200mm" height="402mm" version="1.1" viewBox="0 0 1200 402" xmlns="http://www.w3.org/2000/svg">
 <path d="m837.01 208.23h-710.88c-60.087 0.3175-96.573-39.952-96.573-89.641 0-49.689 36.804-89.323 96.573-89.641h710.88c59.769 0 96.573 39.952 96.573 89.641 0 49.689-36.777 89.641-96.573 89.641z" fill="#fff" stroke-width=".26458"/>
 <path d="m178.67 140.6-48.128-77.999h-34.951v111.65h34.581v-77.999l48.445 77.999h34.581v-111.65h-34.528zm273.66-40.587v-11.033h-18.256v-15.081h-33.655v15.081h-18.256v11.033h18.256v74.242h33.655v-74.242zm-219.9 74.242h33.655v-74.242h-33.655zm0-89.006h33.655v-22.939h-33.655zm588.22 9.7367c-27.04 0-49.054 18.574-49.054 41.831 0 22.939 22.013 41.831 49.054 41.831s49.054-18.574 49.054-41.831c6e-5 -23.257-21.352-41.831-49.054-41.831zm13.547 57.256c0 11.959-6.9321 16.669-13.838 16.669-6.6146 0-13.838-5.0271-13.838-16.669v-31.459c0-11.642 6.9321-16.669 13.838-16.669 6.6146 0 13.838 4.7096 13.838 16.669zm-106.34-48.445c-5.3446-3.1485-11.033-5.9531-18.891-6.6146-24.209-2.196-42.783 19.182-42.783 39 0 25.797 19.817 35.56 22.939 36.804 11.324 5.3446 25.797 5.3446 38.682-2.831v4.4185h33.073v-111.65h-33.046c0.0265-0.3175 0.0265 23.601 0.0265 40.878zm0 33.046v13.203c0 11.324-7.8581 14.473-13.203 14.473s-13.203-3.1485-13.203-14.473v-26.405c0-11.642 7.8581-14.473 13.203-14.473s13.203 2.831 13.203 14.473zm-383.14-40.27c-11.033 0.3175-20.426 5.0271-26.723 11.324v-7.8581h-33.338v74.242h33.338v-48.763c0-6.6146 6.932-13.547 16.06-13.547 9.1281 0 15.399 7.2231 15.399 13.547v48.763h33.338v-40.27c0-29.58-25.453-37.756-38.074-37.439zm273.05 0c-11.033 0.3175-20.426 5.0271-26.723 11.324v-7.8581h-33.338v74.242h33.311v-48.763c0-6.6146 6.9321-13.547 16.06-13.547 9.1281 0 15.399 7.2231 15.399 13.547v48.763h33.338v-40.27c-0.29104-29.58-25.797-37.756-38.047-37.439zm-70.776 40.905c0-22.939-22.331-42.148-49.715-42.148-27.358 0-49.371 18.574-49.371 41.831 0 22.939 22.013 41.831 49.371 41.831 22.648 0 41.831-12.885 47.81-30.533h-33.338v4.4185c0 13.547-8.8106 16.669-13.838 16.669-5.0271 0-14.155-3.1485-14.155-16.669v-15.399zm-60.695-26.114c2.5135-4.7096 7.5406-6.6146 11.959-6.9321 4.4185 0 9.1281 2.196 11.959 6.9321 2.196 3.7835 2.196 8.1756 2.196 14.473h-28.019c-0.60854-6.6146-0.60854-10.689 1.905-14.473zm397.27-34.925c0-3.7835-2.831-5.3446-8.1756-5.3446h-7.5406v19.182h4.7096v-7.8581h2.1961l3.7835 7.8581h5.0271l-4.101-8.4931c2.54-0.9525 4.101-2.831 4.101-5.3446zm-8.8106 2.831h-2.1961v-5.6621h1.905c2.831 0 4.101 0.92604 4.101 2.831 0.26461 2.2225-1.2965 2.831-3.81 2.831zm0-15.743a17.242 17.242 0 0 0-17.304 17.304c0 9.4456 7.8581 17.304 17.304 17.304s17.304-7.8581 17.304-17.304a17.259 17.259 0 0 0-17.304-17.304zm0 31.141c-7.5406 0-13.838-6.2971-13.838-13.838 0-7.5406 6.2971-13.838 13.838-13.838 7.5406 0 13.838 6.2971 13.838 13.838-0.0265 7.5671-5.9796 13.838-13.838 13.838zm-37.439-94.668h-711.52c-75.168-0.3175-125.81 54.107-125.81 118.9 0 64.796 50.324 118.27 126.13 118.27h711.2c75.486 0 126.13-53.472 126.13-118.27-0.291-65.114-50.959-119.22-126.13-118.9zm-0.31747 208.23h-710.88c-60.087 0.3175-96.573-39.952-96.573-89.641 0-49.689 36.804-89.323 96.573-89.641h710.88c59.769 0 96.573 39.952 96.573 89.641 0 49.689-36.777 89.641-96.573 89.641zm0.31747-208.23h-711.52c-75.168-0.3175-125.81 54.107-125.81 118.9 0 64.796 50.324 118.27 126.13 118.27h711.2c75.486 0 126.13-53.472 126.13-118.27-0.291-65.114-50.959-119.22-126.13-118.9zm-0.31747 208.23h-710.88c-60.087 0.3175-96.573-39.952-96.573-89.641 0-49.689 36.804-89.323 96.573-89.641h710.88c59.769 0 96.573 39.952 96.573 89.641 0 49.689-36.777 89.641-96.573 89.641zm0.31747-208.23h-711.52c-75.168-0.3175-125.81 54.107-125.81 118.9 0 64.796 50.324 118.27 126.13 118.27h711.2c75.486 0 126.13-53.472 126.13-118.27-0.291-65.114-50.959-119.22-126.13-118.9zm-0.31747 208.23h-710.88c-60.087 0.3175-96.573-39.952-96.573-89.641 0-49.689 36.804-89.323 96.573-89.641h710.88c59.769 0 96.573 39.952 96.573 89.641 0 49.689-36.777 89.641-96.573 89.641z" fill="#e31e26" stroke-width=".26458"/>
 <g transform="translate(102.51 -12.382)" fill="#fff" stroke-width=".17988">
  <path d="m77.019 295.52v-9.9472h-43.836v27.647a11.5 11.5 0 0 0 11.512 11.512h32.324v-9.9472h-29.212a3.0937 3.0937 0 0 1-3.0939-3.0939 3.0937 3.0937 0 0 1 3.0939-3.0939h27.503v-6.9073h-27.503a3.0937 3.0937 0 0 1-3.0939-3.0939 3.0937 3.0937 0 0 1 3.0939-3.0939z"/>
  <path d="m126.83 285.57h-41.642v39.141h12.627v-26.226a2.8865 2.8865 0 0 1 2.878-2.878h21.639a2.8865 2.8865 0 0 1 2.878 2.878v26.226h12.412v-28.367a10.797 10.797 0 0 0-10.793-10.775z"/>
  <path d="m189.77 285.57h-47.056v9.8393h13.851a2.7329 2.7329 0 0 1 2.7341 2.7342v26.568h13.905v-26.568a2.7329 2.7329 0 0 1 2.7341-2.7342h13.851v-9.8393z"/>
  <path d="m239.5 295.52v-9.9472h-43.836v27.647a11.5 11.5 0 0 0 11.512 11.512h32.324v-9.9472h-29.212a3.0937 3.0937 0 0 1-3.0939-3.0939 3.0937 3.0937 0 0 1 3.0939-3.0939h27.503v-6.9073h-27.503a3.0937 3.0937 0 0 1-3.0939-3.0939 3.0937 3.0937 0 0 1 3.0939-3.0939z"/>
  <path d="m290.37 309.28a12.933 12.933 0 0 0 5.864-10.865c0-7.0872-5.5942-12.843-12.537-12.843h-36.677v39.141h13.059v-7.6268a2.4297 2.4297 0 0 1 2.4284-2.4284h17.79a2.4297 2.4297 0 0 1 2.4283 2.4284v7.6088h12.466v-7.375c-0.036-1.9067-0.84545-5.4143-4.8207-8.0405zm-27.809-4.443a2.4297 2.4297 0 0 1-2.4283-2.4284v-4.9826a2.4297 2.4297 0 0 1 2.4283-2.4284h17.79a2.4297 2.4297 0 0 1 2.4284 2.4284v4.9826a2.4297 2.4297 0 0 1-2.4284 2.4284z"/>
  <path d="m347.41 285.57h-47.074v9.8393h13.851a2.7329 2.7329 0 0 1 2.7341 2.7342v26.568h13.905v-26.568a2.7329 2.7329 0 0 1 2.7341-2.7342h13.851z"/>
  <path d="m388.82 285.57h-24.535a11.615 11.615 0 0 0-11.62 11.62v27.521h12.807v-9.6414h22.161v9.6414h12.807v-27.521a11.615 11.615 0 0 0-11.62-11.62zm-23.294 19.247v-6.2058a3.2166 3.2166 0 0 1 3.2198-3.2198h15.685a3.2166 3.2166 0 0 1 3.2198 3.2198v6.2058z"/>
  <rect x="409.16" y="285.57" width="13.257" height="39.141"/>
  <path d="m472.19 285.57h-41.642v39.141h12.627v-26.226a2.8865 2.8865 0 0 1 2.8781-2.878h21.639a2.8865 2.8865 0 0 1 2.878 2.878v26.226h12.412v-28.367a10.797 10.797 0 0 0-10.793-10.775z"/>
  <path d="m548.24 285.57h-56.967v39.141h11.548v-26.334a2.7713 2.7713 0 0 1 2.7701-2.7701h9.8752a2.7713 2.7713 0 0 1 2.7701 2.7701v26.334h13.041v-26.334a2.7713 2.7713 0 0 1 2.7701-2.7701h9.8752a2.7713 2.7713 0 0 1 2.7701 2.7701v26.334h13.041v-27.665a11.5 11.5 0 0 0-11.494-11.476z"/>
  <path d="m610.81 295.52v-9.9472h-43.836v27.647a11.5 11.5 0 0 0 11.512 11.512h32.324v-9.9472h-29.212a3.0937 3.0937 0 0 1-3.0939-3.0939 3.0937 3.0937 0 0 1 3.0939-3.0939h27.503v-6.9073h-27.503a3.0937 3.0937 0 0 1-3.0939-3.0939 3.0937 3.0937 0 0 1 3.0939-3.0939z"/>
  <path d="m660.16 285.57h-41.642v39.141h12.627v-26.226a2.8865 2.8865 0 0 1 2.8781-2.878h21.639a2.8865 2.8865 0 0 1 2.878 2.878v26.226h12.412v-28.367a10.797 10.797 0 0 0-10.793-10.775z"/>
  <path d="m723.73 285.57h-47.074v9.8393h13.851a2.7329 2.7329 0 0 1 2.7341 2.7342v26.568h13.905v-26.568a2.7329 2.7329 0 0 1 2.7342-2.7342h13.851z"/>
  <path d="m248.14 356.03h-17.97c-2.1405 0-3.8494-0.86341-3.8494-2.8061 0-1.7088 1.7088-3.2198 3.2018-3.2198h31.443v-9.8932h-34.429c-6.8354 0-12.412 5.3784-12.412 11.386 0 8.5801 5.9899 11.818 13.473 11.818h17.97c2.1405 0 3.8494 0.86344 3.8494 2.8061 0 1.7088-1.7088 3.2198-3.2018 3.2198h-31.874v9.8933h35.274c6.4216 0 12.178-4.7308 12.178-11.386 0.036-7.9506-6.1698-11.818-13.653-11.818z"/>
  <path d="m313.79 340.11h-11.836v14.606a2.9517 2.9517 0 0 1-2.95 2.95h-17.574a2.9517 2.9517 0 0 1-2.95-2.95v-14.606h-12.394v16.387a11.208 11.208 0 0 0 11.206 11.206h5.9v11.548h13.689v-11.548h6.0079a11.208 11.208 0 0 0 11.206-11.206v-16.387z"/>
  <path d="m353.35 356.01h-18.383c-2.1405 0-3.6335-0.86342-3.6335-2.8061 0-1.7268 1.2951-3.2198 3.004-3.2198h31.443v-9.8933h-34.429c-6.4216 0-11.764 5.3783-11.764 11.386 0 8.5981 5.5582 11.836 13.041 11.836h18.383c1.9247 0 3.8494 0.86342 3.8494 2.8061 0 1.7268-1.2951 3.2198-3.004 3.2198h-32.306v9.8933h35.274c5.7741 0 11.764-4.7308 11.764-11.386 0.018-7.9686-6.4036-11.836-13.239-11.836z"/>
  <path d="m417.62 340.1h-47.074v9.8393h13.851a2.7329 2.7329 0 0 1 2.7342 2.7341v26.568h13.905v-26.568a2.7329 2.7329 0 0 1 2.7341-2.7341h13.851z"/>
  <path d="m466.42 350.04v-9.9472h-43.836v27.647a11.5 11.5 0 0 0 11.512 11.512h32.324v-9.9472h-29.212a3.0937 3.0937 0 0 1-3.0939-3.0939 3.0937 3.0937 0 0 1 3.0939-3.0939h27.503v-6.9073h-27.503a3.0937 3.0937 0 0 1-3.0939-3.0939 3.0937 3.0937 0 0 1 3.0939-3.0939z"/>
  <path d="m531.14 340.11h-56.967v39.141h11.548v-26.334a2.7713 2.7713 0 0 1 2.7701-2.7701h9.8753a2.7713 2.7713 0 0 1 2.7701 2.7701v26.334h13.041v-26.334a2.7713 2.7713 0 0 1 2.7701-2.7701h9.8753a2.7713 2.7713 0 0 1 2.7701 2.7701v26.334h13.041v-27.665a11.5 11.5 0 0 0-11.494-11.476z"/>
  <path d="m558.44 340.11v1.7088h-4.4969v11.962h-1.9247v-11.962h-4.4969v-1.7088z"/>
  <path d="m559.94 340.11h2.5723l3.8494 11.548 3.8493-11.548h2.5723v13.689h-1.7088v-11.548l-3.8494 11.548h-1.9247l-3.8494-11.548v11.548h-1.7088z"/>
 </g>
 <g transform="matrix(1.534 0 0 1.5326 -683.82 -370.24)">
  <path d="m993.55 477.9v-3.2974h234.28v6.5948h-234.28z" fill="#f00" stroke="#f00" stroke-width=".40259"/>
  <g transform="matrix(1 0 0 1 234.49 344.01)" fill="#fff" stroke-width=".24954">
   <path d="m759.77 141.66v17.9h5.1852v-10.835l3.0639 10.835h2.1213l3.0639-10.835v10.835h5.1852v-17.9h-7.0709l-2.2438 9.1855-2.2345-9.1855z"/>
   <path d="m780.04 141.66v17.9h10.606v-4.0039h-4.9496v-3.0618h4.2426v-4.0039h-4.2426v-2.8267h4.9496v-4.0039z"/>
   <path d="m792.06 141.66v17.9h8.2491c4.7138 0 4.7139-4.2395 4.7139-4.2395v-9.4212s-3.8e-4 -4.2396-6.1283-4.2396zm5.4209 4.0039c1.8855 0 2.366 0.4667 2.357 2.8267v4.2395c0 2.3553-0.47145 2.8262-2.357 2.8262z"/>
   <path d="m806.68 141.66v17.9h5.6565v-17.9z"/>
   <path d="m817.05 141.66-3.5352 17.9h5.6565l0.47129-3.2975h2.5926l0.47129 3.2975h5.6565l-3.5352-17.9zm3.8819 3.7683 0.83199 6.8306h-1.65z"/>
   <path d="m834.72 141.66v17.9h10.606v-4.0039h-4.9491v-3.0618h4.2421v-4.0039h-4.2421v-2.8267h4.9491v-4.0039z"/>
   <path d="m846.51 141.66v17.9h5.1852v-9.6568l3.5352 9.6568h5.1852v-17.9h-5.1852v8.9504l-3.0639-8.9504z"/>
   <path d="m862.06 141.66v17.9h5.657v-7.0657h2.3564v7.0657h5.657v-17.9h-5.657v6.8306h-2.3564v-6.8306z"/>
   <path d="m880.45 141.66-3.5352 17.9h5.6565l0.47129-3.2975h2.5926l0.47129 3.2975h5.6565l-3.5352-17.9zm3.8912 3.7683 0.8227 6.8306h-1.65z"/>
   <path d="m892.7 141.66v17.9h5.1852v-9.6568l3.5352 9.6568h5.1852v-17.9h-5.1852v8.9504l-3.0639-8.9504z"/>
   <path d="m912.27 141.66c-2.3569 0-4.2426 2.1199-4.2426 4.4752v9.1855c0 2.3553 1.8858 4.4752 4.2426 4.4752h4.4783c2.3569 0 4.2421-2.1199 4.2421-4.4752v-2.5906h-5.1852c0 2.3553 3.6e-4 3.0618-1.0532 3.0618-1.0677 0-1.0682-0.70654-1.0682-3.0618v-4.2395c0-2.3553 3.1e-4 -3.0624 1.0609-3.0624 1.0606 0 1.0604 0.70706 1.0604 3.0624h5.1852c-0.0401-0.49932 0-2.3554 0-2.3554 0-2.3553-1.8852-4.4752-4.2421-4.4752z"/>
   <path d="m922.4 141.66v17.9h10.606v-4.0039h-4.9496v-3.0618h4.2421v-4.0039h-4.2421v-2.8267h4.9496v-4.0039z"/>
   <path d="m934.19 141.66v17.9h5.1852v-10.599l3.0639 10.599h2.1213l3.0639-10.835v10.835h5.1852v-17.9h-6.8353l-2.4676 9.1855-2.4815-9.1855z"/>
   <path d="m954.45 141.66v17.9h10.606v-4.0039h-4.9491v-3.0618h4.2421v-4.0039h-4.2421v-2.8267h4.9491v-4.0039z"/>
   <path d="m966.24 141.66v17.9h5.1852v-9.6568l3.5352 9.6568h5.1852v-17.9h-5.1852v8.9504l-3.0639-8.9504z"/>
   <path d="m981.32 141.66v4.0039h3.0639v13.896h5.657v-13.896h3.0639v-4.0039z"/>
   <path d="m814.69 72.176-53.737 53.701h12.256l37.71-37.685v37.685h6.5991l37.71-37.685v37.685h9.4274v-53.701h-6.5991l-36.768 36.743v-36.743z"/>
   <path d="m880.68 72.176c-5.8922 0-10.37 7.3012-10.37 13.189v5.6529c0 5.8882 4.4777 13.189 10.37 13.189h19.798c4.7138 0 5.6565 3.2976 5.6565 5.6529s-0.94272 5.6529-5.6565 5.6529h-30.168v10.363h34.882c5.8922 0 10.37-7.3017 10.37-13.19v-5.6524c0-5.8882-4.4782-13.19-10.37-13.19h-19.798c-4.7138 0-5.6565-3.2971-5.6565-5.6524s0.94272-5.6529 5.6565-5.6529h30.168v-10.363z"/>
   <path d="m920.28 72.176v40.511c0 7.0659 3.0639 13.19 11.313 13.19h24.512c8.2492 0 11.313-6.124 11.313-13.19v-40.511h-10.37v36.507c0 5.8882-3.535 7.7727-7.0704 7.7727h-12.256c-3.5354 0-7.0704-1.8844-7.0704-7.7727v-36.507z"/>
   <path d="m987.22 72.176-15.084 15.074v5.6524h11.313v32.974h9.4279v-53.701z"/>
  </g>
 </g>
</svg>
