<!-- Created by ERK --><svg xmlns="http://www.w3.org/2000/svg" xmlns:xlink="http://www.w3.org/1999/xlink" width="3839" height="1526.605" viewBox="0 0 1015.735 403.914"><defs><linearGradient xlink:href="#a" id="b" x1="283.501" x2="283.501" y1="49.798" y2="131.809" gradientUnits="userSpaceOnUse"/><linearGradient id="a"><stop offset="0" style="stop-color:#ffe793;stop-opacity:1"/><stop offset="1" style="stop-color:#ff941b;stop-opacity:1"/></linearGradient><filter id="c" width="1.507" height="1.533" x="-.254" y="-.267" style="color-interpolation-filters:sRGB"><feFlood flood-color="#000" flood-opacity=".498" result="flood"/><feGaussianBlur in="SourceGraphic" result="blur" stdDeviation="1"/><feOffset in="blur" result="offset"/><feComposite in="flood" in2="offset" operator="in" result="comp1"/><feComposite in="SourceGraphic" in2="comp1" result="fbSourceGraphic"/><feColorMatrix in="fbSourceGraphic" result="fbSourceGraphicAlpha" values="0 0 0 -1 0 0 0 0 -1 0 0 0 0 -1 0 0 0 0 1 0"/><feFlood flood-color="#000" flood-opacity=".498" result="flood"/><feGaussianBlur in="fbSourceGraphic" result="blur" stdDeviation="1"/><feOffset in="blur" result="offset"/><feComposite in="flood" in2="offset" operator="in" result="comp1"/><feComposite in="fbSourceGraphic" in2="comp1" result="fbSourceGraphic"/><feColorMatrix in="fbSourceGraphic" result="fbSourceGraphicAlpha" values="0 0 0 -1 0 0 0 0 -1 0 0 0 0 -1 0 0 0 0 1 0"/><feFlood flood-color="#000" flood-opacity=".498" result="flood"/><feGaussianBlur in="fbSourceGraphic" result="blur" stdDeviation="5"/><feOffset in="blur" result="offset"/><feComposite in="flood" in2="offset" operator="in" result="comp1"/><feComposite in="fbSourceGraphic" in2="comp1" result="fbSourceGraphic"/><feColorMatrix in="fbSourceGraphic" result="fbSourceGraphicAlpha" values="0 0 0 -1 0 0 0 0 -1 0 0 0 0 -1 0 0 0 0 1 0"/><feFlood flood-color="#000" flood-opacity=".498" result="flood"/><feGaussianBlur in="fbSourceGraphic" result="blur" stdDeviation=".1"/><feOffset in="blur" result="offset"/><feComposite in="flood" in2="offset" operator="in" result="comp1"/><feComposite in="fbSourceGraphic" in2="comp1" result="comp2"/></filter></defs><path d="M3261.2 787H574.4c-227.1 1.2-365-151-365-338.8s139.1-337.6 365-338.8h2686.8c225.9 0 365 151 365 338.8s-139 338.8-365 338.8" class="st0" style="fill:#fff" transform="translate(0 .001)scale(.26458)"/><path d="M773 531.4 591.1 236.6H459v422h130.7V363.8l183.1 294.8h130.7v-422H773ZM1807.3 378v-41.7h-69v-57h-127.2v57h-69V378h69v280.6h127.2V378ZM976.2 658.6h127.2V378H976.2Zm0-336.4h127.2v-86.7H976.2ZM3199.4 359c-102.2 0-185.4 70.2-185.4 158.1 0 86.7 83.2 158.1 185.4 158.1s185.4-70.2 185.4-158.1S3304.1 359 3199.4 359m51.2 216.4c0 45.2-26.2 63-52.3 63-25 0-52.3-19-52.3-63V456.5c0-44 26.2-63 52.3-63 25 0 52.3 17.8 52.3 63zm-401.9-183.1c-20.2-11.9-41.7-22.5-71.4-25-91.5-8.3-161.7 72.5-161.7 147.4 0 97.5 74.9 134.4 86.7 139.1 42.8 20.2 97.5 20.2 146.2-10.7v16.7h125v-422h-124.9c.1-1.2.1 89.2.1 154.5m0 124.9v49.9c0 42.8-29.7 54.7-49.9 54.7s-49.9-11.9-49.9-54.7v-99.8c0-44 29.7-54.7 49.9-54.7s49.9 10.7 49.9 54.7zM1400.6 365c-41.7 1.2-77.2 19-101 42.8v-29.7h-126v280.6h126V474.4c0-25 26.2-51.2 60.7-51.2s58.2 27.3 58.2 51.2v184.3h126V506.5c0-111.8-96.2-142.7-143.9-141.5m1032 0c-41.7 1.2-77.2 19-101 42.8v-29.7h-126v280.6h125.9V474.4c0-25 26.2-51.2 60.7-51.2s58.2 27.3 58.2 51.2v184.3h126V506.5c-1.1-111.8-97.5-142.7-143.8-141.5m-267.5 154.6c0-86.7-84.4-159.3-187.9-159.3-103.4 0-186.6 70.2-186.6 158.1 0 86.7 83.2 158.1 186.6 158.1 85.6 0 158.1-48.7 180.7-115.4h-126v16.7c0 51.2-33.3 63-52.3 63s-53.5-11.9-53.5-63v-58.2zm-229.4-98.7c9.5-17.8 28.5-25 45.2-26.2 16.7 0 34.5 8.3 45.2 26.2 8.3 14.3 8.3 30.9 8.3 54.7h-105.9c-2.3-25-2.3-40.4 7.2-54.7m1501.5-132c0-14.3-10.7-20.2-30.9-20.2h-28.5v72.5h17.8v-29.7h8.3l14.3 29.7h19l-15.5-32.1c9.6-3.6 15.5-10.7 15.5-20.2m-33.3 10.7h-8.3v-21.4h7.2c10.7 0 15.5 3.5 15.5 10.7 1 8.4-4.9 10.7-14.4 10.7m0-59.5c-35.7 0-65.4 28.5-65.4 65.4 0 35.7 29.7 65.4 65.4 65.4s65.4-29.7 65.4-65.4c0-36.9-29.8-65.4-65.4-65.4m0 117.7c-28.5 0-52.3-23.8-52.3-52.3s23.8-52.3 52.3-52.3 52.3 23.8 52.3 52.3c-.1 28.6-22.6 52.3-52.3 52.3M3262.4 0H573.2C289.1-1.2 97.7 204.5 97.7 449.4s190.2 447 476.7 447h2688c285.3 0 476.7-202.1 476.7-447C3738 203.3 3546.5-1.2 3262.4 0m-1.2 787H574.4c-227.1 1.2-365-151-365-338.8s139.1-337.6 365-338.8h2686.8c225.9 0 365 151 365 338.8s-139 338.8-365 338.8m1.2-787H573.2C289.1-1.2 97.7 204.5 97.7 449.4s190.2 447 476.7 447h2688c285.3 0 476.7-202.1 476.7-447C3738 203.3 3546.5-1.2 3262.4 0m-1.2 787H574.4c-227.1 1.2-365-151-365-338.8s139.1-337.6 365-338.8h2686.8c225.9 0 365 151 365 338.8s-139 338.8-365 338.8m1.2-787H573.2C289.1-1.2 97.7 204.5 97.7 449.4s190.2 447 476.7 447h2688c285.3 0 476.7-202.1 476.7-447C3738 203.3 3546.5-1.2 3262.4 0m-1.2 787H574.4c-227.1 1.2-365-151-365-338.8s139.1-337.6 365-338.8h2686.8c225.9 0 365 151 365 338.8s-139 338.8-365 338.8" class="st1" style="fill:#e31e26" transform="translate(0 .001)scale(.26458)"/><path d="M1429.8 1137.6s.3.2 0 0c19.5-12.6 32.6-35 32.6-60.4 0-39.4-31.1-71.4-69.7-71.4h-203.9v217.6h72.6V1181c0-7.5 6.1-13.5 13.5-13.5h98.9c7.5 0 13.5 6.1 13.5 13.5v42.3h69.3v-41c-.2-10.6-4.7-30.1-26.8-44.7m-154.6-24.7c-7.5 0-13.5-6.1-13.5-13.5v-27.7c0-7.5 6.1-13.5 13.5-13.5h98.9c7.5 0 13.5 6.1 13.5 13.5v27.7c0 7.5-6.1 13.5-13.5 13.5zm701.9-107.1h-136.4c-35.7 0-64.6 28.9-64.6 64.6v153h71.2v-53.6h123.2v53.6h71.2v-153c0-35.7-28.9-64.6-64.6-64.6m-129.5 107v-34.5c0-9.9 8-17.9 17.9-17.9h87.2c9.9 0 17.9 8 17.9 17.9v34.5zm242.6-107h73.7v217.6h-73.7zm350.4 0h-231.5v217.6h70.2v-145.8c0-8.8 7.2-16 16-16h120.3c8.8 0 16 7.2 16 16v145.8h69v-157.7c-.1-33.1-26.9-59.9-60-59.9m422.8 0h-316.7v217.6h64.2V1077c0-8.5 6.9-15.4 15.4-15.4h54.9c8.5 0 15.4 6.9 15.4 15.4v146.4h72.5V1077c0-8.5 6.9-15.4 15.4-15.4h54.9c8.5 0 15.4 6.9 15.4 15.4v146.4h72.5v-153.8c-.1-35.3-28.7-63.8-63.9-63.8m622.2 0h-231.5v217.6h70.2v-145.8c0-8.8 7.2-16 16-16h120.3c8.8 0 16 7.2 16 16v145.8h69v-157.7c-.1-33.1-26.9-59.9-60-59.9m-2965 0H289.1v217.6h70.2v-145.8c0-8.8 7.2-16 16-16h120.3c8.8 0 16 7.2 16 16v145.8h69v-157.7c-.1-33.1-26.9-59.9-60-59.9m-276.9 55.3v-55.3H0v153.7c0 35.4 28.6 64 64 64h179.7v-55.3H81.3c-9.5 0-17.2-7.7-17.2-17.2s7.7-17.2 17.2-17.2h152.9v-38.4H81.3c-9.5 0-17.2-7.7-17.2-17.2s7.7-17.2 17.2-17.2zm903.3 0v-55.3H903.3v153.7c0 35.4 28.6 64 64 64H1147v-55.3H984.6c-9.5 0-17.2-7.7-17.2-17.2s7.7-17.2 17.2-17.2h152.9v-38.4H984.6c-9.5 0-17.2-7.7-17.2-17.2s7.7-17.2 17.2-17.2zm2064.2 0v-55.3h-243.7v153.7c0 35.4 28.6 64 64 64h179.7v-55.3h-162.4c-9.5 0-17.2-7.7-17.2-17.2s7.7-17.2 17.2-17.2h152.9v-38.4h-152.9c-9.5 0-17.2-7.7-17.2-17.2s7.7-17.2 17.2-17.2zm627.8-55.3h-261.7v54.7h77c8.4 0 15.2 6.8 15.2 15.2v147.7h77.3v-147.7c0-8.4 6.8-15.2 15.2-15.2h77zm-2092.1 0h-261.7v54.7h77c8.4 0 15.2 6.8 15.2 15.2v147.7h77.3v-147.7c0-8.4 6.8-15.2 15.2-15.2h77zm-876.4 0H608.9v54.7h77c8.4 0 15.2 6.8 15.2 15.2v147.7h77.3v-147.7c0-8.4 6.8-15.2 15.2-15.2h77v-54.7zm909.4 391.6h-102.2c-11.9 0-20.2-4.8-20.2-15.6 0-9.6 7.2-17.9 16.7-17.9H1849v-55h-191.4c-35.7 0-65.4 29.9-65.4 63.3 0 47.8 30.9 65.8 72.5 65.8h102.2c10.7 0 21.4 4.8 21.4 15.6 0 9.6-7.2 17.9-16.7 17.9H1592v55h196.1c32.1 0 65.4-26.3 65.4-63.3.1-44.3-35.6-65.8-73.6-65.8m-584.9.1h-99.9c-11.9 0-21.4-4.8-21.4-15.6 0-9.5 9.5-17.9 17.8-17.9h174.8v-55h-191.4c-38 0-69 29.9-69 63.3 0 47.7 33.3 65.7 74.9 65.7h99.9c11.9 0 21.4 4.8 21.4 15.6 0 9.5-9.5 17.9-17.8 17.9h-177.2v55h196.1c35.7 0 67.7-26.3 67.7-63.3.2-44.2-34.3-65.7-75.9-65.7m1573.3-88.5h-316.7v217.6h64.2v-146.4c0-8.5 6.9-15.4 15.4-15.4h54.9c8.5 0 15.4 6.9 15.4 15.4v146.4h72.5v-146.4c0-8.5 6.9-15.4 15.4-15.4h54.9c8.5 0 15.4 6.9 15.4 15.4v146.4h72.5v-153.8c-.1-35.3-28.7-63.8-63.9-63.8m-1208.3 0h-65.8v81.2c0 9.1-7.4 16.4-16.4 16.4h-97.7c-9.1 0-16.4-7.4-16.4-16.4V1309h-68.9v91.1c0 34.4 27.9 62.3 62.3 62.3h32.8v64.2h76.1v-64.2h33.4c34.4 0 62.3-27.9 62.3-62.3V1309Zm848.5 55.2v-55.3h-243.7v153.7c0 35.4 28.6 64 64 64h179.7v-55.3h-162.4c-9.5 0-17.2-7.7-17.2-17.2s7.7-17.2 17.2-17.2H2399v-38.4h-152.9c-9.5 0-17.2-7.7-17.2-17.2s7.7-17.2 17.2-17.2zm511.6-55.2v9.5h-25v66.5h-10.7v-66.5h-25v-9.5zm8.3 0h14.3l21.4 64.2 21.4-64.2h14.3v76.1h-9.5v-64.2l-21.4 64.2h-10.7l-21.4-64.2v64.2h-9.5zm-791.2-.1h-261.7v54.7h77c8.4 0 15.2 6.8 15.2 15.2v147.7h77.3v-147.7c0-8.4 6.8-15.2 15.2-15.2h77z" class="st0" style="fill:#fff" transform="translate(0 .001)scale(.26458)"/><path d="m283.59 54.144 12.6 24.669 25.816 3.431-19.567 19.606 4.714 25.613-24.693-12.551-22.903 12.398 4.307-27.363-18.87-17.95 27.356-4.36z" style="fill:url(#b);fill-opacity:1;stroke:url(#b);stroke-width:5;stroke-linecap:round;stroke-linejoin:round;stroke-dasharray:none;paint-order:fill markers stroke;filter:url(#c)" transform="translate(183.494 110.664)scale(1.14417)"/></svg>