<?xml version="1.0" encoding="UTF-8"?>
<!-- Created by ERK -->
<svg width="1280mm" height="325.02mm" version="1.1" viewBox="0 0 1280 325.02" xml:space="preserve" xmlns="http://www.w3.org/2000/svg"><path d="m1232 47.519c18.777 4e-6 34 15.222 33.999 34v195.5c3e-4 18.778-15.222 34-33.999 34h-1184c-18.778-5e-5 -34-15.222-34-34v-195.5c-1e-6 -18.778 15.222-34 34-34l51.003-3e-6v-14l-51.003 5e-6c-26.51 5e-6 -48 21.49-48 48v195.5c-5.4e-7 26.51 21.49 48 48 48h1184c26.509 1.3e-4 48-21.49 48-48v-195.5c-6e-4 -26.51-21.491-48-48-48l-774.82-3.27e-4v14z"/><g transform="translate(0 -.00029016)"><path d="m122.5 108.76-14.75-13.745h53l-14.75 13.745v135.79c0 18.026-14.685 32.6-32.711 32.464l-33.289 4e-5 19.611-25.612 14.355 15.633c5.1781-2.2245 8.534-7.3189 8.534-12.955z"/><path d="m260.5 238.02h-91.75l14.75-13.745v-115.51l-14.75-13.745h91.75v31l-17.387-17.255h-36.114v46.255h26l12.5-13.641v42.283l-12.5-13.641h-26v54.255h36.114l17.387-17.255z"/><path d="m269.5 95.02 14.751 13.745v115.51l-14.751 13.744h53.001c9.396 1e-5 17.882-0.73211 25.918-3.6323 10.283-3.7113 19.827-10.972 26.63-20.361 2.5556-3.5271 4.7241-7.3546 6.5769-11.352 11.743-25.338 10.803-57.518-4.409-80.456-7.0986-10.704-17.305-19.394-28.798-23.566-8.0832-2.934-16.803-3.6324-25.918-3.6323zm38.251 13.745h5.0508c4.347 3e-5 8.9991 0.29559 13.592 1.1328 6.1665 1.124 12.227 3.2241 16.994 6.8208 9.8325 7.4173 14.17 21.199 16.197 34.114 1.6842 10.73 1.774 20.862 0 31.374-1.9218 11.388-6.0309 23.224-13.547 31.511-1.2402 1.3673-2.573 2.6383-4.0571 3.7222-4.3619 3.1856-10.03 4.7577-15.587 5.702-4.5983 0.78146-9.1199 1.1327-13.592 1.1328l-5.0508 5.1e-4z" stroke-linecap="round" stroke-width=".94483"/><path d="m405.25 224.27v-115.51l-14.748-13.745h52.999l-14.751 13.745v115.51l14.751 13.745h-52.999z"/></g><g transform="translate(0 -.00029016)"><path d="m612.97 238.02 0.22489-13.745-45.94-57.755v57.755l14.751 13.745h-53.001l14.751-13.745v-115.51l-14.751-13.745h53.001l-14.751 13.745v49.813l50.789-49.813-14.748-13.745h44.627l-61.116 59.939 66.069 83.061z"/><path d="m759.1 108.76v145.32l-78.534-126.04v96.114l14.343 13.86h-44.183l11.84-13.71v-115.54l-11.84-13.745h38.5l53.872 89.658v-75.913l-14.748-13.745h45.498z"/><path d="m798.25 224.27v-115.51l-14.751-13.745h52.999l-14.748 13.745v115.51l14.748 13.745h-52.999z"/><path d="m869.25 227.98c-11.076-6.5863-20.295-16.441-26.119-28.033-8.5601-17.038-9.7866-37.83-3.9818-56.176 4.3906-13.876 12.804-26.352 24.265-35.009 11.29-8.5279 25.538-13.349 39.646-13.745 12.661-0.35505 25.209 2.8543 36.41 8.5l-6.5e-4 33-24.646-24.648c-3.3059-2.3904-7.3387-3.0923-11.375-3.107-3.7003-0.0134-7.4038 0.5507-10.784 1.8646-6.4695 2.5142-11.757 7.7739-15.956 13.566-5.0431 6.9579-8.5143 14.685-10.585 22.822-3.7007 14.542-2.9282 30.395 1.9192 44.919 2.7806 8.3315 6.902 16.226 13.204 22.154 4.7105 4.4307 10.639 7.7628 17.019 9.0521 8.1932 1.6559 17.13-0.0576 23.706-5.1222l-4.1e-4 -43.999-14.748-13.745h53.499l-14.751 13.745 2.4e-4 53.499c-22.816 13.724-53.76 14.115-76.721 0.46287z"/><path d="m1038.2 238.02 14.75-13.745v-54.255h-49.501v54.255l14.751 13.745h-52.999l14.751-13.745v-115.51l-14.751-13.745h52.999l-14.751 13.745v46.255h49.501v-46.255l-14.75-13.745h53.001l-14.75 13.745v115.51l14.75 13.745z"/><path d="m1136.8 224.27v-116.26h-21.251l-18 18v-31h101.5v31l-18-18h-21.249v116.26l14.999 13.745h-52.999z"/></g><g transform="translate(3.2461 -.00029016)"><path d="m99.774 7.8988c-2.3612 0-5.6698 1.2145-7.5703 2.6231-1.9012 1.4082-4.6491 4.6177-4.6491 9.0417 0 4.424 2.6855 7.8639 2.6855 7.8639 1.3772 1.7067 4.8429 5.2876 4.8429 5.2876 0.0786 0.08378 0.12567 0.19375 0.12567 0.31418 0 0.26706-0.21469 0.487-0.48135 0.487l-31.654 1.49e-4v14l38.047-2.81e-4c5.1728-4.1e-5 8.0573-2.8168 8.848-3.6071 0.78546-0.78547 3.4033-3.7332 3.4033-8.618 0-4.8796-2.2251-7.4031-3.1781-8.5495-0.84829-1.0263-4.2302-4.5863-4.9372-5.3247-0.0857-0.07338-0.13539-0.18038-0.13615-0.29324 0-0.1728 0.0995-0.3299 0.25134-0.38226h18.324v26.775h14.089v-26.707h17.105v-12.911zm122.88 16.22-8.6438 0.0058s-0.23041-0.06802-0.23041-0.32989l-6e-3 -4.3612c0-0.26182 0.23041-0.32989 0.23041-0.32989h7.9268c0.92122 0 2.785 0.4608 2.785 2.5916 0 2.1308-2.0624 2.4241-2.0624 2.4241m11.403 9.3716c-2.3564-0.01048-2.5236-0.94738-2.5236-1.0835 0-0.24088 0.29283-0.39273 0.29283-0.39273 0.88496-0.42415 2.6911-1.8328 2.6911-1.8328 3.8327-2.984 4.2935-7.0781 4.2935-9.2717 0-2.1993-0.33029-6.0892-4.2617-9.4973-3.9322-3.4085-8.9112-3.5133-8.9112-3.5133h-27.68v39.392c0 0.12568 0.11561 0.22558 0.24129 0.22558h15.408v-11.042c0-0.19898 0.29848 0 0.29848 0l8.0263 8.0577c2.8531 2.8845 7.5703 2.984 7.5703 2.984h23.691v-14.025h-19.136zm-58.573-2.4837h-5.796c-0.2147 0-0.35045-0.23041-0.35045-0.45034 0-0.08379 3.0835-10.021 3.0835-10.021 0.10997-0.37178 0.14099-0.38266 0.16234-0.38266h6e-3c0.021 0 0.0524 0.0109 0.16232 0.38266 0 0 3.0835 9.9372 3.0835 10.021 0 0.21993-0.14097 0.45034-0.35043 0.45034m7.8007-22.759c-0.0568-0.20094-0.23644-0.34251-0.44509-0.35084h-21.282c-0.20947 0.010484-0.3875 0.15185-0.44511 0.34561 0 0-11.754 38.848-11.754 38.921 0 0.19375 0.15709 0.35084 0.35044 0.35084h14.068c0.1152-0.03624 0.19858-0.14662 0.22476-0.26706l1.639-5.2405c0.0539-0.12981 0.17893-0.21591 0.31942-0.21993h12.974c0.14142 0.0096 0.26613 0.09609 0.32466 0.22517l1.6757 5.2352c0.0257 0.12085 0.10955 0.23041 0.21952 0.2723l13.843-0.0058c0.19346 5e-3 0.35224-0.15209 0.35083-0.34561 0-0.06282-12.063-38.921-12.063-38.921"/><path d="m344.99 31.009h-5.7951c-0.20421 0-0.35082-0.23038-0.35082-0.4503 0-0.07817 3.0836-10.02 3.0836-10.02 0.10996-0.37176 0.12043-0.38264 0.16231-0.38264h6e-3c0.0467 0 0.0524 0.0109 0.16192 0.38264 0 0 3.0836 9.9417 3.0836 10.02 0 0.21992-0.15708 0.4503-0.35042 0.4503m7.8158-22.747c-0.0589-0.20118-0.23607-0.34499-0.44506-0.3613h-21.281c-0.2072 0.016509-0.38347 0.15754-0.44506 0.35606 0 0-11.763 38.834-11.763 38.908 0 0.19333 0.15184 0.35041 0.35082 0.35041h14.067c0.11304-0.04713 0.19541-0.14708 0.21992-0.26704l1.6385-5.2349c0.0514-0.13256 0.17727-0.22142 0.3194-0.22555l12.978-0.01007c0.14097 0.0104 0.26704 0.10996 0.3194 0.23562l1.6751 5.2349c0.0262 0.12083 0.10996 0.23039 0.21992 0.27228l13.842-0.0058c0.19333 0 0.35605-0.14661 0.35605-0.34035 0-0.0681-12.051-38.913-12.051-38.913m40.102 15.856-8.6436 0.0058s-0.22998-0.06802-0.22998-0.32988l-6e-3 -4.3608c0-0.2618 0.23039-0.32987 0.23039-0.32987h7.9258c0.92155 0 2.7852 0.46077 2.7852 2.5915 0 2.1307-2.0626 2.4239-2.0626 2.4239m41.442-3.3765h19.585l-4.6e-4 -12.842h-25.181c-2.3554 0-5.6695 1.2148-7.5698 2.6229-1.9003 1.4081-4.6488 4.6174-4.6488 9.0411s2.6857 7.8634 2.6857 7.8634c1.3767 1.7066 4.8426 5.2614 4.8426 5.2614 0.0785 0.08378 0.12566 0.19333 0.12566 0.3194 0 0.26664-0.21467 0.48132-0.48171 0.48132h-19.396c-2.3611-0.01048-2.5234-0.94732-2.5234-1.0835 0-0.24086 0.29322-0.3927 0.29322-0.3927 0.8849-0.42412 2.6905-1.8326 2.6905-1.8326 3.8324-2.9838 4.2936-7.0776 4.2936-9.2711 0-2.1992-0.33027-6.0888-4.2618-9.4966-3.9315-3.4083-8.9102-3.5025-8.9102-3.5025h-27.679v39.379c0 0.12527 0.1152 0.22475 0.24086 0.22475h15.407v-11.046c0-0.19333 0.29805 0 0.29805 0l8.0257 8.0624c2.8532 2.8843 7.5702 2.9838 7.5702 2.9838l30.343-0.0058c5.1777 0 8.0571-2.8162 8.8474-3.6016 0.78542-0.79064 3.4083-3.7378 3.4083-8.6222 0-4.8792-2.2302-7.3764-3.1831-8.5227-0.84785-1.0263-4.23-4.6074-4.9368-5.3509-0.0863-0.07049-0.13632-0.17613-0.13614-0.28758 0-0.1732 0.0995-0.33512 0.25133-0.38264m-122.51 26.772c0.10472 0 0.17802-0.0733 0.20944-0.1885 0 0 11.921-39.154 11.921-39.191 0-0.10471-0.0628-0.21951-0.16232-0.22998h-14.695c-0.0733 0-0.12044 0.057618-0.13615 0.13614 0 0.00578-3.0418 10.182-3.0418 10.187-0.021 0.08378-0.0628 0.13614-0.13614 0.13614-0.0733 0-0.13613-0.0733-0.14661-0.13614l-3.1827-10.193c-0.0105-0.068514-0.0628-0.1309-0.13614-0.1309l-16.229-0.00578c-0.0479 0.013125-0.0867 0.048043-0.10473 0.094252l-2.8532 10.229c-0.0157 0.08901-0.0628 0.14137-0.14138 0.14137-0.0688-0.0017-0.12645-0.05233-0.13613-0.12043l-3.0261-10.219c-7e-3 -0.064139-0.0566-0.11546-0.12042-0.12566h-15.664c-0.12839 0.00165-0.23127 0.10682-0.23038 0.23522 0 0.020967 6e-3 0.062818 6e-3 0.062818l12.099 39.128c0.0315 0.1152 0.10472 0.1885 0.20945 0.1885l13.01 0.0058c0.0782-0.0104 0.15709-0.09949 0.17763-0.19374 6e-3 0 4.5284-14.559 4.5284-14.559 0.0262-0.08902 0.0628-0.14097 0.13614-0.14097 0.0785 0 0.12083 0.06241 0.14137 0.13573l4.4132 14.627c0.0264 0.0757 0.0979 0.12616 0.17802 0.12567h13.114"/></g></svg>
