<!-- Created by ERK --><svg xmlns="http://www.w3.org/2000/svg" width="720" height="360"><g style="fill:#fff"><path d="M179.857 47.72c-50.9.002-92.173 41.132-92.173 91.854 0 50.725 41.274 91.828 92.173 91.828 50.902 0 92.149-41.103 92.149-91.828 0-50.722-41.246-91.852-92.147-91.853zm.002 34.786c31.63 0 57.27 25.551 57.27 57.07s-25.64 57.07-57.27 57.07c-31.629 0-57.27-25.55-57.27-57.07 0-31.519 25.641-57.07 57.27-57.07" style="display:inline;overflow:visible;stroke-width:0;marker:none;fill:#fff" transform="translate(18.94 22.517)"/><path d="M280.447 53.212v173.4h34.701l-.002-76.872 44.434 76.877 42.44-.006-39.603-69.156c17.275-9.422 28.465-27.745 28.465-48.752 0-30.643-24.936-55.493-55.686-55.493-.382 0-.763.019-1.144.03v-.029H315.15zm34.701 34.025h17.703c28.51.003 28.51 44.033 0 44.044h-17.703z" style="color:#000;display:inline;overflow:visible;visibility:visible;fill:#fff;fill-opacity:1;fill-rule:nonzero;stroke:none;stroke-width:4.97612;marker:none" transform="translate(18.94 22.517)"/><path d="M402.033 53.214h34.894V226.62h-34.894z" style="color:#000;display:inline;overflow:visible;visibility:visible;fill:#fff;fill-opacity:1;fill-rule:nonzero;stroke:none;stroke-width:0;marker:none" transform="translate(18.94 22.517)"/><path d="M536.84 48.54c-50.448 0-91.356 40.764-91.356 91.036s40.908 91.008 91.356 91.008c30.559 0 57.632-14.95 74.209-37.91l-28.195-20.006c-10.312 14.203-27.078 23.453-46.014 23.453-31.348 0-56.742-25.306-56.742-56.545s25.394-56.574 56.742-56.574c18.626 0 35.166 8.941 45.515 22.752L610.2 85.309c-16.643-22.315-43.314-36.77-73.36-36.77" style="display:inline;overflow:visible;stroke-width:0;marker:none;fill:#fff" transform="translate(18.94 22.517)"/></g><path d="M805.394 956.617h607.636v-35.001H881.407l148.194-196.075H980.05Z" style="color:#000;display:inline;overflow:visible;visibility:visible;fill:#e41c1c;fill-opacity:1;fill-rule:nonzero;stroke:none;stroke-width:0;marker:none" transform="matrix(.93788 0 0 .93462 -680.308 -604.311)"/></svg>