<?xml version="1.0" encoding="UTF-8"?>
<!-- Created by ERK -->
<svg width="1380" height="295" version="1.1" viewBox="0 0 1380 295" xml:space="preserve" xmlns="http://www.w3.org/2000/svg" xmlns:xlink="http://www.w3.org/1999/xlink"><path d="m21 277h794v-256h-794z" fill="#3a454b"/><path d="m670.15 21h-156.23l-132.54 256h156.23z" fill="#9c2249"/><path d="m15 15v268h806v-268zm8 8h790v252h-790z" stroke-linecap="square" stroke-miterlimit="10" style="paint-order:fill markers stroke"/><path d="m78.445 61.282-25.382 192.37h37.406l3.3-37.405h17.446l3.301 37.405h37.407l-25.383-192.37h-46.759zm17.915 125.58 6.132-69.468 6.133 69.468z"/><polygon transform="translate(21 -83)" points="200.39 221.23 189.7 144.28 136.27 144.28 136.27 336.66 173.67 336.66 173.67 240.47 187.03 336.66 213.75 336.66 227.11 240.47 227.11 336.66 264.52 336.66 264.52 144.28 211.08 144.28"/><path d="m365.9 253.66c14.068 0 23.82-9.618 23.82-23.499v-62.668c-0.16-18.877-53.437-40.078-53.437-40.078v-32.061c0-2.953 2.392-5.345 5.344-5.345 2.953 0 5.344 2.392 5.344 5.345l0.041 32.061h42.708v-43.298c0-13.879-9.751-23.499-23.82-23.499h-48.547c-14.067 0-23.82 9.619-23.82 23.499v51.982c0.173 18.865 53.437 40.078 53.437 40.078v42.752c0 2.95-2.391 5.342-5.344 5.342-2.952 0-5.344-2.392-5.344-5.342l-0.04-42.752h-42.71v53.984c0 13.881 9.752 23.499 23.82 23.499z"/><polygon transform="translate(21 -83)" points="435.52 336.66 435.52 176.34 454.22 176.34 454.22 144.28 371.39 144.28 371.39 176.34 392.77 176.34 392.77 336.66"/><path d="m552.93 160.14c14.066 0 23.818-9.619 23.818-23.499v-51.86c0-13.879-9.752-23.499-23.818-23.499h-72.369v192.37h42.752v-75.251h0.147c9.39 0 10.539 6.452 10.539 15.777v59.474h42.75v-70.017c-1e-3 -13.88-9.753-23.499-23.819-23.499zm-29.618-67.238h0.147c9.39 0 10.539 6.453 10.539 15.777v17.422c0 9.326-1.31 15.923-10.686 15.923z"/><path d="m604.8 61.282-25.383 192.37h37.407l3.3-37.405h17.445l3.301 37.405h37.408l-25.387-192.37h-46.755zm17.914 125.58 6.133-69.468 6.133 69.468z"/><path d="m683.63 253.66h72.366c14.068 0 23.82-9.618 23.82-23.499v-145.38c0-13.879-9.752-23.499-23.82-23.499h-72.366zm42.749-31.621v-129.13h0.146c9.392 0 10.541 6.453 10.541 15.777v97.577c0 9.325-1.149 15.777-10.541 15.777h-0.146z"/><path d="m1085.2 92.404c-25.934 2e-3 -48.23 9.9996-65.615 29.359 0 3e-3 0 7e-3 -0.01 0.0102v4e-3c-17.349 19.191-26.107 42.749-26.107 69.82 0 19.504 4.7469 34.967 14.953 45.527l0.012 0.0137 0.014 0.0136c10.197 10.391 24.36 15.57 41.256 15.57 17.301 0 33.2-5.1422 47.096-15.229 13.915-10.1 24.148-24.039 30.561-41.369l2.4472-6.6133h-34.002l-1.1778 3.3223c-3.4968 9.8463-8.7 17.212-15.65 22.545-6.8933 5.1542-14.964 7.7246-24.887 7.7246-9.8372 0-15.97-2.5904-20.033-7.4863-3.9889-5.1096-6.4414-13.618-6.4414-25.85 0-12.203 2.0559-23.367 6.1231-33.609 4.161-10.13 10.278-18.24 18.496-24.623v-6e-3c8.1999-6.394 17.419-9.5039 28.373-9.5039 8.8003 0 14.882 1.9989 19.027 5.5078 4.1629 3.5238 6.1952 8.0543 6.1952 15.002 0 1.3544-0.1216 3.069-0.3808 5.0898l-0.709 5.5469h33.281l0.6465-4.2031c0.4543-2.9531 0.6816-5.9158 0.6816-8.8769 0-13.825-4.8306-25.73-14.314-34.52-9.6239-8.9192-23.227-13.167-39.824-13.168zm71.852 4.752 7.0586 150.81h29.564l44.131-88.063 2.4629 88.063h30.451l76.996-150.81h-34.604l-43.051 87.305-2.2753-87.305h-32.192l-41.752 86.791-2.0879-86.791zm-271.37 0.7461-33.43 149.32h31.902l11.49-51.08h32.502c16.133 0 30.212-5.6571 41.211-16.725 10.96-11.028 16.674-24.938 16.674-40.641 0-11.545-3.3216-21.586-10.041-29.154-6.823-7.8194-16.656-11.723-28.176-11.723zm25.359 28.867h29.373c6.315 0 10.238 1.4854 12.576 3.7227s3.7285 5.6476 3.7285 11.504c0 7.2631-2.2566 12.983-7.166 18.168-4.6827 4.946-11.111 7.5195-20.432 7.5195h-27.127z" fill="#9c2249" stroke-linecap="square" stroke-miterlimit="10" style="paint-order:fill markers stroke"/></svg>
