<?xml version="1.0" encoding="UTF-8"?>
<!-- Created by ERK -->
<svg width="1217" height="322.8" version="1.1" viewBox="0 0 1217 322.8" xml:space="preserve" xmlns="http://www.w3.org/2000/svg" xmlns:xlink="http://www.w3.org/1999/xlink"><defs><linearGradient id="linearGradient10"><stop stop-color="#fe041d" offset="0"/><stop stop-color="#ff5b04" offset="1"/></linearGradient><linearGradient id="linearGradient11" x1="1004.9" x2="1004.9" y1="-.00023733" y2="247.94" gradientTransform="translate(11.27 13.41)" gradientUnits="userSpaceOnUse" xlink:href="#linearGradient10"/><filter id="filter5" x="-.040651" y="-.058593" width="1.0813" height="1.1172" color-interpolation-filters="sRGB"><feGaussianBlur stdDeviation="6.0038821"/></filter><filter id="filter6" x="-.015628" y="-.099139" width="1.0313" height="1.1983" color-interpolation-filters="sRGB"><feGaussianBlur stdDeviation="5.1118471"/></filter><filter id="filter9" x="-.014368" y="-.22344" width="1.0287" height="1.4469" color-interpolation-filters="sRGB"><feGaussianBlur stdDeviation="4.9833918"/></filter></defs><path d="m419.33 97.548c-3.9125-1.9e-5 -7.2524 2.8071-7.8984 6.6367l-15.449 91.623c-1.324 7.8506 4.6319 15.48 11.109 19.457s14.672 6.0332 22.74 6.0332h46.471c9.6812-2e-5 18.143-1.3744 27.35-5.8945 9.2068-4.5201 16.267-11.688 17.781-20.67l5.4863-32.527c1.3234-7.8506-4.6319-15.48-11.109-19.457s-14.672-6.0332-22.74-6.0332h-68.564l5.6016-33.215c0.52537-3.115-1.8954-5.9531-5.0781-5.9531zm315.5 0c-3.9124-1.9e-5 -7.2529 2.8071-7.8984 6.6367l-18.744 111.16c-0.52517 3.115 1.8956 5.9531 5.0781 5.9531h5.6973c3.9128-1e-5 7.2526-2.8071 7.8984-6.6367l18.744-111.16c0.52562-3.115-1.894-5.9531-5.0762-5.9531zm51.617 0c-3.9127-1.9e-5 -7.2526 2.8071-7.8984 6.6367l-18.744 111.16c-0.52553 3.115 1.8933 5.9531 5.0762 5.9531h5.6992c3.9124-2e-5 7.251-2.8071 7.8965-6.6367l18.746-111.16c0.52527-3.1151-1.8956-5.9532-5.0781-5.9531zm-747.56 2.8398c-4.1922 1e-5 -7.769 3.0062-8.4609 7.1094l-18.076 107.19c-0.58364 3.4612 2.1064 6.6133 5.6426 6.6133h6.959c2.7947-6e-5 5.1813-2.0048 5.6426-4.7402l5.9004-34.996h82.967c10.478-1e-5 19.802-1.7459 29.467-6.959 9.6648-5.213 16.83-13.277 18.488-23.109l3.8418-22.789c1.5377-9.1203-6.2652-17.638-13.965-21.887-7.6997-4.249-17.273-6.4296-26.654-6.4297zm171.68 6.2441c-4.4713 2e-5 -8.2874 3.2053-9.0254 7.582l-0.14453 0.84961c-0.75838 4.4995 2.7393 8.5977 7.3359 8.5976h4.3457c4.4713-1e-5 8.2893-3.2072 9.0273-7.584l0.14258-0.84766c0.75837-4.4994-2.7374-8.5976-7.334-8.5976zm-162.68 7.3789h75.9c6.3778 0 11.971 0.90365 18.268 4.1836 6.2969 3.2799 10.993 8.4572 9.9414 14.691l-3.0293 17.967c-1.0957 6.498-8.0031 11.284-13.945 13.625-5.9422 2.3406-12.926 3.4609-19.904 3.4609h-76.324zm157.99 21.57c-3.9125 1e-5 -7.2524 2.807-7.8984 6.6367l-12.33 73.127c-0.52563 3.115 1.894 5.9531 5.0762 5.9531h5.6992c3.9123-2e-5 7.251-2.8071 7.8965-6.6367l12.332-73.127c0.52547-3.1151-1.8954-5.9532-5.0781-5.9531zm416.8 1.1348c-3.9124 1e-5 -7.253 2.8071-7.8984 6.6367l-0.26953 1.6035c-0.52532 3.115 1.8955 5.9512 5.0781 5.9512h34.717c2.55 0 4.7885 0.36206 7.3066 1.6738 2.5182 1.3117 4.3988 3.3834 3.9785 5.877l-0.92969 5.5059h-74.381c-8.3183 0-15.506 1.0197-23.627 4.6582-4.0608 1.8192-6.8635 3.4947-10.078 6.6777-3.2147 3.183-5.1428 6.6786-5.7852 10.488l-2.5176 14.93c-1.0888 6.4547 4.0614 12.631 9.4394 15.791 5.3782 3.16 12.133 4.789 18.768 4.7891h61.262c8.318-1e-5 15.505-1.0197 23.627-4.6582 4.0607-1.8192 6.8634-3.4948 10.078-6.6777 3.2146-3.183 5.1443-6.6786 5.7871-10.488l7.1113-42.178c1.0884-6.4547-4.0614-12.631-9.4395-15.791-5.3782-3.16-12.134-4.789-18.77-4.7891zm-334.98 2e-3c-9.2908 1e-5 -17.623 1.6275-26.109 6.3359-8.4863 4.7084-14.725 11.942-16.201 20.695l-8.7012 51.596c-0.52543 3.115 1.8954 5.9532 5.0781 5.9531h5.7031c3.9106 3e-5 7.2486-2.8036 7.8965-6.6309l8.5508-50.492c0.75905-4.4846 4.8462-8.3362 8.877-10.316 4.0309-1.9802 8.8492-2.9492 13.686-2.9492h47.254c3.821 0 7.1788 0.54079 10.957 2.5098s6.5993 5.0816 5.9648 8.8262l-8.9902 53.098c-0.5279 3.116 1.8924 5.955 5.0762 5.9551h5.6953c3.9123-2e-5 7.253-2.8071 7.8984-6.6367l8.9238-52.924c1.2499-7.4121-3.7557-14.83-9.7344-18.871-5.9788-4.0409-13.677-6.1484-21.295-6.1484zm134.42 14.189h69.318c3.8199 0 7.175 0.54151 10.953 2.5078 3.778 1.9663 6.6018 5.075 5.9707 8.8184l-5.1504 30.555c-1.43 8.4779-10.836 13.75-19.746 13.75h-51.893c-3.8202 1e-5 -7.175-0.54151-10.953-2.5078-3.778-1.9663-6.6022-5.075-5.9707-8.8184zm157.62 27.248h82.529l-3.5078 20.795c-0.8461 5.0186-7.0269 7.5879-12.41 7.5879h-68.334c-5.4031 1e-5 -12.172-3.4149-11.283-8.6856l1.7226-10.217c0.81315-4.8232 6.3556-9.4805 11.283-9.4805z" fill="#0ff" fill-opacity=".50138" filter="url(#filter6)" style="mix-blend-mode:normal"/><path d="m1152.7 14.423c-4.61-0.0562-9.2383 0.06743-13.861 0.20312-24.222 0.71092-48.274 1.7709-72.242 3.9062-21.656 1.9294-43.244 4.7369-64.738 8.6758 0.01-0.41108-0.022-0.81182-0.1015-1.1973-0.2237-1.0824-0.8307-2.041-1.7207-2.6641-1.446-1.0123-3.6389-1.1394-5.168-0.36719-1.3402 0.67685-2.1713 2.0442-2.9941 3.3887-0.6493 1.061-1.2933 2.1069-1.9336 3.1426-0.9316 0.18957-1.8637 0.38215-2.7949 0.57617-28.066 5.8477-55.961 13.733-81.693 25.145-15.764 6.9905-30.715 15.303-46.502 23.961-2.1797 1.1954-4.3769 2.3976-5.7773 4.3242-0.8868 1.2202-1.4542 2.7315-1.418 4.3242 0.025 1.0924 0.33361 2.2226 1.0703 2.9316 0.7035 0.67714 1.7978 0.96933 2.8379 0.9707 0.8434 1e-3 1.6508-0.18879 2.3711-0.57031 0.08-0.0424 0.15938-0.08608 0.23828-0.13086 13.748-7.7903 27.535-15.122 41.812-21.504 21.256-9.5004 43.602-16.895 66.238-22.797 5.0582-1.3189 10.131-2.5645 15.217-3.7441-0.5428 0.8755-1.0844 1.7535-1.625 2.6328-8.3377 13.562-16.463 27.805-24.631 41.863-6.9974 12.043-14.026 23.95-20.83 36.018-2.6425 4.6863-5.2512 9.3958-7.8398 14.119-5.1846 1.7816-10.33 3.7178-15.404 5.8203-14.365 5.9514-28.174 13.247-40.779 22.227-7.6339 5.438-14.826 11.492-22.371 17-2.3848 1.7408-4.805 3.4276-6.7774 5.7344-1.1776 1.3772-2.1963 2.9744-2.334 4.7402-0.1507 1.9333 0.75448 4.0676 2.334 5.293 1.1155 0.86546 2.5675 1.2785 3.9297 1.1992 1.6809-0.0978 3.2251-0.94405 4.7461-1.7793 4.9339-2.7094 9.6275-5.3036 14.342-8.0059 4.4092-2.5273 8.8371-5.1496 13.447-7.4316 4.2164-2.0871 8.5863-3.8912 13.145-4.9961 1.54-0.3733 3.1015-0.66619 4.7031-0.6875 0.2947-4e-3 0.58933 2e-3 0.89063 0.0488 0.9549 0.14718 1.9627 0.70646 2.5 1.3594 0.1374 0.16699 0.2444 0.34026 0.3418 0.60742 0.3984 1.0927 0.6422 3.7595 0.1914 6.418-0.1967 1.1603-0.52579 2.319-0.87109 3.4219-2.2173 7.0833-5.1056 11.871-8.0195 17.104-5.9618 10.706-12.031 23.282-18.098 34.969-1.2076 2.3261-2.4146 4.616-3.4805 7.0195-0.7577 1.7087-1.444 3.475-1.4824 5.3652-0.046 2.251 0.82772 4.6785 2.7031 6.0566 1.5869 1.1661 3.8917 1.5807 5.5801 0.86524 1.3088-0.55456 2.2473-1.789 3.1387-3.0293 5.7043-7.937 9.4763-16.15 13.428-24.4 3.157-6.5915 6.4288-13.206 9.3125-20.031 0.8991-2.1282 1.7611-4.2766 2.6523-6.3945 5.1624-12.269 11.324-23.509 17.303-34.879 4.611-8.7686 9.1122-17.614 13.881-26.611 7.6213-2.5608 15.35-4.8054 23.07-7.0098 5.178-1.4784 10.353-2.9394 15.646-4.0957 3.4643-0.75669 6.9796-1.382 10.488-1.4492 1.4427-0.0277 2.8837 0.0391 4.3516-0.12695 0.8127-0.092 1.6337-0.25602 2.3105-0.6836 0.8153-0.51508 1.4208-1.4138 1.6211-2.3906 0.2801-1.3652-0.23299-2.8832-1.1797-3.8535-0.9442-0.96777-2.3184-1.3901-3.6856-1.6582-3.5032-0.68707-6.9525-0.35871-10.373 0.14648-5.2077 0.76913-10.35 1.9477-15.434 3.3164-6.6472 1.7897-13.192 3.9042-19.803 5.8125 14.356-26.901 28.559-48.743 43.902-75.248 3.5896-6.2007 7.2411-12.656 10.107-17.697 4.0882-0.84947 8.1844-1.6633 12.287-2.4473 25.677-4.907 51.624-8.6312 77.715-10.562 20.147-1.4913 40.382-1.913 60.523-2.416 6.1795-0.15433 12.351-0.31681 18.584 0.03711 2.4949 0.14166 4.9989 0.3663 7.3516 1.1172 0.8706 0.27787 1.7195 0.62721 2.625 0.81836 1.3656 0.28825 2.8584 0.21475 4.1269-0.44726 1.1422-0.59612 2.1033-1.6685 2.3262-2.9023 0.2434-1.3479-0.3939-2.8885-1.4258-3.7988-0.7207-0.63581-1.6341-0.96482-2.5508-1.2656-3.8505-1.2634-7.7595-2.0273-11.703-2.5312-4.546-0.58097-9.138-0.81684-13.748-0.87305zm-90.707 39.26c-1.1125-0.01537-2.1889 0.19566-3.1758 0.69531-2.0551 1.0405-3.726 3.3277-4.1679 5.6641-0.1412 0.7467-0.1568 1.4979-0.1113 2.1641 0.2668 3.9113 2.6356 4.8731 5.1992 5.873 1.2221 0.47667 2.4879 0.96264 3.4101 1.7695 1.6126 1.4109 2.1738 3.8033 2.791 6.0762 1.2586 4.6347 2.7518 8.7699 4.0411 13.014 3.5184 11.58 5.5139 23.971 7.791 36.299 0.253 1.3698 0.5086 2.739 0.7636 4.1074-0.056 0.0441-0.1117 0.0887-0.1679 0.13281-19.282 15.142-38.438 30.453-57.219 46.199-13.394 11.229-26.597 22.679-39.482 34.5-3.0973 2.8413-6.1765 5.7031-9.416 8.375-2.1585 1.7803-4.3871 3.4767-5.9258 5.9434-0.9983 1.6003-1.7063 3.5257-1.3633 5.2539 0.2757 1.3885 1.2297 2.6496 2.1699 3.7891 0.3287 0.39833 0.65532 0.78131 1.041 1.1191 1.1512 1.0085 2.8257 1.6115 4.3398 1.4648 1.5001-0.1453 2.843-1.0255 4.0781-1.9805 3.3736-2.6085 5.9373-5.7738 8.6133-8.8574 10.17-11.718 21.946-22.277 33.801-32.604 12.953-11.284 26-22.291 39.299-33.037 7.4069-5.9855 14.892-11.889 22.438-17.723 1.9053 11.696 3.4831 23.335 5.6719 34.832 1.4184 7.4502 3.0929 14.841 5.1758 22.348 1.6612 5.9872 3.5821 12.049 7.8769 16.533 1.5912 1.6612 3.508 3.1063 5.7852 3.5977 2.3966 0.51708 5.1924-0.0228 6.9707-1.7305 1.923-1.8467 2.6561-5.0598 1.7422-7.5137-0.7726-2.0744-2.7207-3.6054-4.9473-4.2852-0.7892-0.2409-1.6143-0.37511-2.1621-0.85938-0.4051-0.35815-0.6594-0.90838-0.9062-1.4531-1.7105-3.7747-3.0689-7.3081-4.2754-11.053-2.741-8.508-4.6924-18.11-6.3047-26.16-1.8961-9.4678-3.3239-16.79-5.666-31.131 3.1563-2.4029 6.3205-4.7935 9.4941-7.1738 11.324-8.4934 22.751-16.847 34.217-25.119 13.199-9.5233 26.451-18.939 39.639-28.582 1.2318-0.90073 2.4635-1.8041 3.8398-2.4727 0.6064-0.29462 1.2393-0.54299 1.8926-0.68555 0.936-0.20423 1.9107-0.18945 2.8867-0.11914 1.2496 0.09 2.5022 0.27031 3.6992 0.05859 1.121-0.19831 2.193-0.74051 3.1563-1.4141 2.1708-1.5178 3.7871-3.6976 4.4961-6.334 0.6553-2.4365 0.5362-5.2638-0.9707-7.0957-1.113-1.353-2.983-2.1628-4.7871-2.3203-2.1845-0.19078-4.271 0.57602-6.2852 1.4434-8.2383 3.5474-15.258 8.7768-22.344 13.934-10.978 7.9891-22.116 15.804-33.049 23.881-12.81 9.4632-25.339 19.287-37.871 29.104-0.036 0.0279-0.07 0.0561-0.1054 0.084-1.1707-7.0159-2.5054-14.559-4.0176-21.621-1.4494-6.7683-3.0633-13.094-4.0918-19.844-1.2047-7.9071-1.6078-16.395-7.8613-22.41-2.635-2.5344-6.3071-4.6297-9.6446-4.6758zm-142.46 96.971c-4.2886 7.924-8.5806 15.841-12.877 23.75-1.013-4.067-4.4452-7.0514-8.3203-8.2266-3.1929-0.9682-6.6864-0.70815-9.9512-0.5 10.337-5.0598 20.528-10.535 31.148-15.023z" fill="url(#linearGradient11)" filter="url(#filter5)"/><path d="m1178.3 309.27c2.9484 0.57525 7.323 1.4446 11.193 1.5577 1.2296 0.0359 2.4082-5e-3 3.5906-0.0379 3.2235-0.0908 6.4753-0.13083 9.5404-2.1765 1.2498-0.83416 2.4126-1.8318 2.4125-3.156-1e-4 -1.1433-1.141-2.0774-2.0835-2.7246-2.5437-1.7469-5.8399-2.2202-8.8825-2.6078-6.5181-0.83053-12.982-2.5382-19.527-3.4698-32.337-4.6028-60.082-7.153-97.43-10.457-77.335-6.842-154.79-12.375-232.29-16.96-77.059-4.5589-154.18-8.2398-231.34-10.488-36.783-1.0715-73.588-1.3255-110.39-1.4287-8.3746-0.0235-16.75 0.0129-25.123 0.18426-20.178 0.41308-40.36 0.94824-60.514 2.0342-5.7427 0.30944-11.958 0.80172-17.206 1.2766-16.239 1.4695-21.866 3.3021-25.564 5.5407-0.5619 0.3401-1.0794 0.68957-1.4418 1.1823-0.5781 0.78598-0.7618 1.9365-0.4948 2.7945 0.4905 1.5762 2.8183 2.0764 4.4302 2.7056 7.9878 3.118 16.724 3.942 25.232 5.0111 9.2922 1.1676 18.69 1.4438 28.055 1.5152 5.6814 0.0433 11.268 0.5593 17.032-0.6597 1.112-0.23521 2.2312-0.52766 2.9902-1.3589 0.4095-0.44856 0.7142-1.054 0.7824-1.5808 0.27473-2.1194-4.9957-3.3883-7.3047-3.6709-3.5376-0.43303-7.1006-0.70957-10.664-0.77362-6.0234-0.10827-7.874-0.13005-11.208-0.4951-0.89332-0.0978-1.3356-0.23091-2.1045-0.90007-0.39783-0.50209-0.39208-0.91176 0.4428-0.90859 141.46-3.5607 283.04 1.0598 424.39 7.1964 52.374 2.2738 104.67 6.2699 156.89 10.971 46.5 4.1871 92.998 8.7632 139.22 15.346 12.521 1.7833 24.954 4.1142 37.373 6.5373" fill="#0ff" fill-opacity=".50416" filter="url(#filter9)"/><path d="m419.33 97.548c-3.9125-1.9e-5 -7.2524 2.8071-7.8984 6.6367l-15.449 91.623c-1.324 7.8506 4.6319 15.48 11.109 19.457s14.672 6.0332 22.74 6.0332h46.471c9.6812-2e-5 18.143-1.3744 27.35-5.8945 9.2068-4.5201 16.267-11.688 17.781-20.67l5.4863-32.527c1.3234-7.8506-4.6319-15.48-11.109-19.457s-14.672-6.0332-22.74-6.0332h-68.564l5.6016-33.215c0.52537-3.115-1.8954-5.9531-5.0781-5.9531zm315.5 0c-3.9124-1.9e-5 -7.2529 2.8071-7.8984 6.6367l-18.744 111.16c-0.52517 3.115 1.8956 5.9531 5.0781 5.9531h5.6973c3.9128-1e-5 7.2526-2.8071 7.8984-6.6367l18.744-111.16c0.52562-3.115-1.894-5.9531-5.0762-5.9531zm51.617 0c-3.9127-1.9e-5 -7.2526 2.8071-7.8984 6.6367l-18.744 111.16c-0.52553 3.115 1.8933 5.9531 5.0762 5.9531h5.6992c3.9124-2e-5 7.251-2.8071 7.8965-6.6367l18.746-111.16c0.52527-3.1151-1.8956-5.9532-5.0781-5.9531zm-747.56 2.8398c-4.1922 1e-5 -7.769 3.0062-8.4609 7.1094l-18.076 107.19c-0.58364 3.4612 2.1064 6.6133 5.6426 6.6133h6.959c2.7947-6e-5 5.1813-2.0048 5.6426-4.7402l5.9004-34.996h82.967c10.478-1e-5 19.802-1.7459 29.467-6.959 9.6648-5.213 16.83-13.277 18.488-23.109l3.8418-22.789c1.5377-9.1203-6.2652-17.638-13.965-21.887-7.6997-4.249-17.273-6.4296-26.654-6.4297zm171.68 6.2441c-4.4713 2e-5 -8.2874 3.2053-9.0254 7.582l-0.14453 0.84961c-0.75838 4.4995 2.7393 8.5977 7.3359 8.5976h4.3457c4.4713-1e-5 8.2893-3.2072 9.0273-7.584l0.14258-0.84766c0.75837-4.4994-2.7374-8.5976-7.334-8.5976zm-162.68 7.3789h75.9c6.3778 0 11.971 0.90365 18.268 4.1836 6.2969 3.2799 10.993 8.4572 9.9414 14.691l-3.0293 17.967c-1.0957 6.498-8.0031 11.284-13.945 13.625-5.9422 2.3406-12.926 3.4609-19.904 3.4609h-76.324zm157.99 21.57c-3.9125 1e-5 -7.2524 2.807-7.8984 6.6367l-12.33 73.127c-0.52563 3.115 1.894 5.9531 5.0762 5.9531h5.6992c3.9123-2e-5 7.251-2.8071 7.8965-6.6367l12.332-73.127c0.52547-3.1151-1.8954-5.9532-5.0781-5.9531zm416.8 1.1348c-3.9124 1e-5 -7.253 2.8071-7.8984 6.6367l-0.26953 1.6035c-0.52532 3.115 1.8955 5.9512 5.0781 5.9512h34.717c2.55 0 4.7885 0.36206 7.3066 1.6738 2.5182 1.3117 4.3988 3.3834 3.9785 5.877l-0.92969 5.5059h-74.381c-8.3183 0-15.506 1.0197-23.627 4.6582-4.0608 1.8192-6.8635 3.4947-10.078 6.6777-3.2147 3.183-5.1428 6.6786-5.7852 10.488l-2.5176 14.93c-1.0888 6.4547 4.0614 12.631 9.4394 15.791 5.3782 3.16 12.133 4.789 18.768 4.7891h61.262c8.318-1e-5 15.505-1.0197 23.627-4.6582 4.0607-1.8192 6.8634-3.4948 10.078-6.6777 3.2146-3.183 5.1443-6.6786 5.7871-10.488l7.1113-42.178c1.0884-6.4547-4.0614-12.631-9.4395-15.791-5.3782-3.16-12.134-4.789-18.77-4.7891zm-334.98 2e-3c-9.2908 1e-5 -17.623 1.6275-26.109 6.3359-8.4863 4.7084-14.725 11.942-16.201 20.695l-8.7012 51.596c-0.52543 3.115 1.8954 5.9532 5.0781 5.9531h5.7031c3.9106 3e-5 7.2486-2.8036 7.8965-6.6309l8.5508-50.492c0.75905-4.4846 4.8462-8.3362 8.877-10.316 4.0309-1.9802 8.8492-2.9492 13.686-2.9492h47.254c3.821 0 7.1788 0.54079 10.957 2.5098s6.5993 5.0816 5.9648 8.8262l-8.9902 53.098c-0.5279 3.116 1.8924 5.955 5.0762 5.9551h5.6953c3.9123-2e-5 7.253-2.8071 7.8984-6.6367l8.9238-52.924c1.2499-7.4121-3.7557-14.83-9.7344-18.871-5.9788-4.0409-13.677-6.1484-21.295-6.1484zm134.42 14.189h69.318c3.8199 0 7.175 0.54151 10.953 2.5078 3.778 1.9663 6.6018 5.075 5.9707 8.8184l-5.1504 30.555c-1.43 8.4779-10.836 13.75-19.746 13.75h-51.893c-3.8202 1e-5 -7.175-0.54151-10.953-2.5078-3.778-1.9663-6.6022-5.075-5.9707-8.8184zm157.62 27.248h82.529l-3.5078 20.795c-0.8461 5.0186-7.0269 7.5879-12.41 7.5879h-68.334c-5.4031 1e-5 -12.172-3.4149-11.283-8.6856l1.7226-10.217c0.81315-4.8232 6.3556-9.4805 11.283-9.4805z" fill="#fff"/><path d="m1152.7 14.423c-4.61-0.0562-9.2383 0.06743-13.861 0.20312-24.222 0.71092-48.274 1.7709-72.242 3.9062-21.656 1.9294-43.244 4.7369-64.738 8.6758 0.01-0.41108-0.022-0.81182-0.1015-1.1973-0.2237-1.0824-0.8307-2.041-1.7207-2.6641-1.446-1.0123-3.6389-1.1394-5.168-0.36719-1.3402 0.67685-2.1713 2.0442-2.9941 3.3887-0.6493 1.061-1.2933 2.1069-1.9336 3.1426-0.9316 0.18957-1.8637 0.38215-2.7949 0.57617-28.066 5.8477-55.961 13.733-81.693 25.145-15.764 6.9905-30.715 15.303-46.502 23.961-2.1797 1.1954-4.3769 2.3976-5.7773 4.3242-0.8868 1.2202-1.4542 2.7315-1.418 4.3242 0.025 1.0924 0.33361 2.2226 1.0703 2.9316 0.7035 0.67714 1.7978 0.96933 2.8379 0.9707 0.8434 1e-3 1.6508-0.18879 2.3711-0.57031 0.08-0.0424 0.15938-0.08608 0.23828-0.13086 13.748-7.7903 27.535-15.122 41.812-21.504 21.256-9.5004 43.602-16.895 66.238-22.797 5.0582-1.3189 10.131-2.5645 15.217-3.7441-0.5428 0.8755-1.0844 1.7535-1.625 2.6328-8.3377 13.562-16.463 27.805-24.631 41.863-6.9974 12.043-14.026 23.95-20.83 36.018-2.6425 4.6863-5.2512 9.3958-7.8398 14.119-5.1846 1.7816-10.33 3.7178-15.404 5.8203-14.365 5.9514-28.174 13.247-40.779 22.227-7.6339 5.438-14.826 11.492-22.371 17-2.3848 1.7408-4.805 3.4276-6.7774 5.7344-1.1776 1.3772-2.1963 2.9744-2.334 4.7402-0.1507 1.9333 0.75448 4.0676 2.334 5.293 1.1155 0.86546 2.5675 1.2785 3.9297 1.1992 1.6809-0.0978 3.2251-0.94405 4.7461-1.7793 4.9339-2.7094 9.6275-5.3036 14.342-8.0059 4.4092-2.5273 8.8371-5.1496 13.447-7.4316 4.2164-2.0871 8.5863-3.8912 13.145-4.9961 1.54-0.3733 3.1015-0.66619 4.7031-0.6875 0.2947-4e-3 0.58933 2e-3 0.89063 0.0488 0.9549 0.14718 1.9627 0.70646 2.5 1.3594 0.1374 0.16699 0.2444 0.34026 0.3418 0.60742 0.3984 1.0927 0.6422 3.7595 0.1914 6.418-0.1967 1.1603-0.52579 2.319-0.87109 3.4219-2.2173 7.0833-5.1056 11.871-8.0195 17.104-5.9618 10.706-12.031 23.282-18.098 34.969-1.2076 2.3261-2.4146 4.616-3.4805 7.0195-0.7577 1.7087-1.444 3.475-1.4824 5.3652-0.046 2.251 0.82772 4.6785 2.7031 6.0566 1.5869 1.1661 3.8917 1.5807 5.5801 0.86524 1.3088-0.55456 2.2473-1.789 3.1387-3.0293 5.7043-7.937 9.4763-16.15 13.428-24.4 3.157-6.5915 6.4288-13.206 9.3125-20.031 0.8991-2.1282 1.7611-4.2766 2.6523-6.3945 5.1624-12.269 11.324-23.509 17.303-34.879 4.611-8.7686 9.1122-17.614 13.881-26.611 7.6213-2.5608 15.35-4.8054 23.07-7.0098 5.178-1.4784 10.353-2.9394 15.646-4.0957 3.4643-0.75669 6.9796-1.382 10.488-1.4492 1.4427-0.0277 2.8837 0.0391 4.3516-0.12695 0.8127-0.092 1.6337-0.25602 2.3105-0.6836 0.8153-0.51508 1.4208-1.4138 1.6211-2.3906 0.2801-1.3652-0.23299-2.8832-1.1797-3.8535-0.9442-0.96777-2.3184-1.3901-3.6856-1.6582-3.5032-0.68707-6.9525-0.35871-10.373 0.14648-5.2077 0.76913-10.35 1.9477-15.434 3.3164-6.6472 1.7897-13.192 3.9042-19.803 5.8125 14.356-26.901 28.559-48.743 43.902-75.248 3.5896-6.2007 7.2411-12.656 10.107-17.697 4.0882-0.84947 8.1844-1.6633 12.287-2.4473 25.677-4.907 51.624-8.6312 77.715-10.562 20.147-1.4913 40.382-1.913 60.523-2.416 6.1795-0.15433 12.351-0.31681 18.584 0.03711 2.4949 0.14166 4.9989 0.3663 7.3516 1.1172 0.8706 0.27787 1.7195 0.62721 2.625 0.81836 1.3656 0.28825 2.8584 0.21475 4.1269-0.44726 1.1422-0.59612 2.1033-1.6685 2.3262-2.9023 0.2434-1.3479-0.3939-2.8885-1.4258-3.7988-0.7207-0.63581-1.6341-0.96482-2.5508-1.2656-3.8505-1.2634-7.7595-2.0273-11.703-2.5312-4.546-0.58097-9.138-0.81684-13.748-0.87305zm-90.707 39.26c-1.1125-0.01537-2.1889 0.19566-3.1758 0.69531-2.0551 1.0405-3.726 3.3277-4.1679 5.6641-0.1412 0.7467-0.1568 1.4979-0.1113 2.1641 0.2668 3.9113 2.6356 4.8731 5.1992 5.873 1.2221 0.47667 2.4879 0.96264 3.4101 1.7695 1.6126 1.4109 2.1738 3.8033 2.791 6.0762 1.2586 4.6347 2.7518 8.7699 4.0411 13.014 3.5184 11.58 5.5139 23.971 7.791 36.299 0.253 1.3698 0.5086 2.739 0.7636 4.1074-0.056 0.0441-0.1117 0.0887-0.1679 0.13281-19.282 15.142-38.438 30.453-57.219 46.199-13.394 11.229-26.597 22.679-39.482 34.5-3.0973 2.8413-6.1765 5.7031-9.416 8.375-2.1585 1.7803-4.3871 3.4767-5.9258 5.9434-0.9983 1.6003-1.7063 3.5257-1.3633 5.2539 0.2757 1.3885 1.2297 2.6496 2.1699 3.7891 0.3287 0.39833 0.65532 0.78131 1.041 1.1191 1.1512 1.0085 2.8257 1.6115 4.3398 1.4648 1.5001-0.1453 2.843-1.0255 4.0781-1.9805 3.3736-2.6085 5.9373-5.7738 8.6133-8.8574 10.17-11.718 21.946-22.277 33.801-32.604 12.953-11.284 26-22.291 39.299-33.037 7.4069-5.9855 14.892-11.889 22.438-17.723 1.9053 11.696 3.4831 23.335 5.6719 34.832 1.4184 7.4502 3.0929 14.841 5.1758 22.348 1.6612 5.9872 3.5821 12.049 7.8769 16.533 1.5912 1.6612 3.508 3.1063 5.7852 3.5977 2.3966 0.51708 5.1924-0.0228 6.9707-1.7305 1.923-1.8467 2.6561-5.0598 1.7422-7.5137-0.7726-2.0744-2.7207-3.6054-4.9473-4.2852-0.7892-0.2409-1.6143-0.37511-2.1621-0.85938-0.4051-0.35815-0.6594-0.90838-0.9062-1.4531-1.7105-3.7747-3.0689-7.3081-4.2754-11.053-2.741-8.508-4.6924-18.11-6.3047-26.16-1.8961-9.4678-3.3239-16.79-5.666-31.131 3.1563-2.4029 6.3205-4.7935 9.4941-7.1738 11.324-8.4934 22.751-16.847 34.217-25.119 13.199-9.5233 26.451-18.939 39.639-28.582 1.2318-0.90073 2.4635-1.8041 3.8398-2.4727 0.6064-0.29462 1.2393-0.54299 1.8926-0.68555 0.936-0.20423 1.9107-0.18945 2.8867-0.11914 1.2496 0.09 2.5022 0.27031 3.6992 0.05859 1.121-0.19831 2.193-0.74051 3.1563-1.4141 2.1708-1.5178 3.7871-3.6976 4.4961-6.334 0.6553-2.4365 0.5362-5.2638-0.9707-7.0957-1.113-1.353-2.983-2.1628-4.7871-2.3203-2.1845-0.19078-4.271 0.57602-6.2852 1.4434-8.2383 3.5474-15.258 8.7768-22.344 13.934-10.978 7.9891-22.116 15.804-33.049 23.881-12.81 9.4632-25.339 19.287-37.871 29.104-0.036 0.0279-0.07 0.0561-0.1054 0.084-1.1707-7.0159-2.5054-14.559-4.0176-21.621-1.4494-6.7683-3.0633-13.094-4.0918-19.844-1.2047-7.9071-1.6078-16.395-7.8613-22.41-2.635-2.5344-6.3071-4.6297-9.6446-4.6758zm-142.46 96.971c-4.2886 7.924-8.5806 15.841-12.877 23.75-1.013-4.067-4.4452-7.0514-8.3203-8.2266-3.1929-0.9682-6.6864-0.70815-9.9512-0.5 10.337-5.0598 20.528-10.535 31.148-15.023z" fill="url(#linearGradient11)"/><path d="m1178.3 309.27c2.9484 0.57525 7.323 1.4446 11.193 1.5577 1.2296 0.0359 2.4082-5e-3 3.5906-0.0379 3.2235-0.0908 6.4753-0.13083 9.5404-2.1765 1.2498-0.83416 2.4126-1.8318 2.4125-3.156-1e-4 -1.1433-1.141-2.0774-2.0835-2.7246-2.5437-1.7469-5.8399-2.2202-8.8825-2.6078-6.5181-0.83053-12.982-2.5382-19.527-3.4698-32.337-4.6028-60.082-7.153-97.43-10.457-77.335-6.842-154.79-12.375-232.29-16.96-77.059-4.5589-154.18-8.2398-231.34-10.488-36.783-1.0715-73.588-1.3255-110.39-1.4287-8.3746-0.0235-16.75 0.0129-25.123 0.18426-20.178 0.41308-40.36 0.94824-60.514 2.0342-5.7427 0.30944-11.958 0.80172-17.206 1.2766-16.239 1.4695-21.866 3.3021-25.564 5.5407-0.5619 0.3401-1.0794 0.68957-1.4418 1.1823-0.5781 0.78598-0.7618 1.9365-0.4948 2.7945 0.4905 1.5762 2.8183 2.0764 4.4302 2.7056 7.9878 3.118 16.724 3.942 25.232 5.0111 9.2922 1.1676 18.69 1.4438 28.055 1.5152 5.6814 0.0433 11.268 0.5593 17.032-0.6597 1.112-0.23521 2.2312-0.52766 2.9902-1.3589 0.4095-0.44856 0.7142-1.054 0.7824-1.5808 0.27473-2.1194-4.9957-3.3883-7.3047-3.6709-3.5376-0.43303-7.1006-0.70957-10.664-0.77362-6.0234-0.10827-7.874-0.13005-11.208-0.4951-0.89332-0.0978-1.3356-0.23091-2.1045-0.90007-0.39783-0.50209-0.39208-0.91176 0.4428-0.90859 141.46-3.5607 283.04 1.0598 424.39 7.1964 52.374 2.2738 104.67 6.2699 156.89 10.971 46.5 4.1871 92.998 8.7632 139.22 15.346 12.521 1.7833 24.954 4.1142 37.373 6.5373" fill="#fff"/></svg>
