<!-- Created by ERK --><svg xmlns="http://www.w3.org/2000/svg" xml:space="preserve" id="Layer_1" x="0" y="0" viewBox="0 0 3839 1262.6"><style id="style1" type="text/css">.st0{fill:#f6bf16}.st1{fill:#943f95}</style><g id="g6"><path id="rect1" d="M0 0h3839v1262.6H0z"/><g id="g5"><g id="g2"><path id="rect2" d="M969.6 550.6H1123v405.2H969.6z" class="st0" style="fill:#f6bf16;fill-opacity:1"/><circle id="circle2" cx="1046.3" cy="374.6" r="91.8" class="st0" style="fill:#f6bf16;fill-opacity:1"/></g><g id="g3"><path id="rect3" d="M2664.9 306.9h153.4v405.2h-153.4z" class="st1" style="fill:#943f95;fill-opacity:1" transform="matrix(-1 0 0 -1 5483.215 1018.892)"/><circle id="circle3" cx="2741.6" cy="888.1" r="91.8" class="st1" style="fill:#943f95;fill-opacity:1"/></g><path id="path3" d="M613.7 307.4v-.6H306.9v648.9h153.4V733.2h140.8c148 0 222-106.6 218.8-213.2 3.1-103.4-66.7-206.6-206.2-212.6m-37.7 300H460.3V432.6H576c58.3 0 87.4 43.7 87.4 87.4s-29.1 87.4-87.4 87.4" style="fill:#62b947;fill-opacity:1"/><path id="path4" d="M2309 307.4v-.6h-306.8v648.9h153.4V733.2h140.8c148 0 222-106.6 218.8-213.2 3.1-103.4-66.8-206.6-206.2-212.6m-37.7 300h-115.7V432.6h115.7c58.3 0 87.4 43.7 87.4 87.4s-29.2 87.4-87.4 87.4" style="fill:#e61d32;fill-opacity:1"/><path id="polygon4" d="M3393.1 671.2 3161 306.9h-126.4v648.9h139.1V611.4l219.4 344.4h139V306.9h-139z" style="fill:#0f9ad6;fill-opacity:1"/><path id="path5" d="M1492.8 733.2h140.8c148 0 222-106.6 218.8-213.2 3-103.5-66.8-206.6-206.2-212.6v-.6h-306.8v648.9h153.4zm0-300.6h115.7c58.3 0 87.4 43.7 87.4 87.4s-29.1 87.4-87.4 87.4h-115.7z" style="fill:#f38020;fill-opacity:1"/></g></g></svg>