<!-- Created by ERK --><svg xmlns="http://www.w3.org/2000/svg" xml:space="preserve" width="5207.1" height="2286.6" viewBox="0 0 5207.1 2286.6"><path d="M2556.622 108.939c-27.187.362-54.209 3.648-81.226 6.402-73.29 7.82-146.503 17.802-218.32 34.688-22.28 5.185-44.424 10.907-67.118 14.093-16.859 2.295-34.037 3.376-50.603 7.665a155 155 0 0 0-40.367 16.388c-3.003 1.577-5.992 3.672-9.498 3.788-4.06-.095-7.844-1.71-11.7-2.788-7.879-2.5-15.951-4.81-24.276-4.98-13.275-.538-26.375 2.513-39.008 6.304-11.878 3.53-23.64 7.418-35.875 9.572-8.816 1.603-17.799 2.474-26.763 2.005-13.527-.62-27.01-3.056-40.57-4.014-12.28-.979-24.709-.471-36.796 1.984-14.198 2.865-27.985 8.175-40.097 16.168-8.088 5.332-15.252 11.987-21.43 19.434-1.563 1.842-3.114 3.699-4.808 5.423-3.643-2.175-6.95-4.859-10.546-7.108-13.589-8.948-28.62-15.725-44.378-19.811-17.61-4.655-35.902-6.076-54.065-6.098-13.315-.032-26.625.538-39.912 1.354-20.386 1.408-40.86 4.2-60.265 10.83-17.896 6.184-34.5 15.76-49.415 27.367-12.846 9.906-24.526 21.209-35.928 32.719-2.52 2.407-5.005 5.036-8.273 6.418-2.979-1.535-5.306-4.045-7.597-6.44-10.891-11.726-21.734-23.65-34.486-33.415-8.81-6.818-18.656-12.412-29.32-15.74-6.777-2.121-13.814-3.248-20.823-4.3-29.528-4.051-59.4-3.921-89.144-4.065-29.074.249-58.05 3.972-86.47 10-14.137 3.107-28.2 7.349-40.831 14.562-11.1 6.205-21.35 13.768-31.784 20.999-14.44 10.286-28.513 21.458-39.69 35.334-6.761 8.403-11.96 18.025-15.448 28.223-3.683 10.306-6.657 20.847-10.202 31.199-14.003 42.497-28.969 84.669-43.783 126.891-31.196 88.706-62.8 177.277-92.728 266.412-5.394 16.2-10.476 32.52-14.5 49.122-1.123 4.199-2.231 8.713-5.457 11.85-3.206 3.28-6.994 5.913-10.401 8.973-8.65 7.516-16.099 16.505-21.314 26.74-6.33 12.313-10.158 25.68-14.424 38.793-14.766 45.855-30.035 91.544-45.474 137.172-26.928 79.776-54.286 159.408-81.87 238.958-28.803 83.096-57.85 166.103-87.198 249.017-21.56 60.877-43.261 121.707-65.232 182.44-7.66 21.097-15.295 42.201-23.183 63.213-6.7 17.718-13.623 35.364-21.067 52.779-3.33 7.511-6.057 15.579-5.715 23.902.355 8.498 4.069 16.424 8.54 23.507 18.705 29.333 41.816 55.793 68.003 78.672 25.17 21.935 52.93 40.755 81.876 57.327 9.621 5.329 20.07 9.702 31.14 10.578 12.501 1.065 24.993-1.517 36.88-5.207 16.78-5.178 32.71-12.648 48.905-19.35 49.679-21.006 99.222-42.35 148.07-65.23 116.886-54.571 230.486-116.567 337.611-188.56 39.523-26.575 78.146-54.5 115.575-83.954 27.273-21.57 53.81-44.236 77.594-69.657 25.477-27.315 47.657-57.908 64.131-91.494 7.436-14.985 13.26-30.714 20.84-45.632 11.301 2.337 21.91 7.436 31.245 14.159 4.36 3.06 8.734 6.48 12.802 9.946.806.674 1.594 1.37 2.39 2.057-2.506 9.085-7.414 17.25-12.427 25.143-5.346 8.325-10.963 16.492-15.712 25.182-11.056 19.566-20.024 40.2-29.856 60.385-28.066 58.717-57.612 116.688-88.146 174.167-31.995 60.32-64.665 120.273-97.055 180.376-10.457 19.434-20.665 39.131-27.879 60.04-2.804 8.333-5.653 16.893-5.54 25.792.01 5.64 1.519 11.267 4.43 16.106 2.801 4.782 6.752 8.786 11.128 12.144 5.782 4.632 11.881 8.848 17.842 13.242 34.995 25.286 70.93 49.286 105.042 75.787 5.407 4.183 11.066 8.184 17.465 10.707 8.621 3.434 18.054 4.275 27.26 3.905 15.534-.66 30.579-4.965 45.458-9.144 32.984-9.262 65.518-20.07 97.734-31.714 35.081-12.685 69.815-26.303 104.494-40.04 9.225-3.774 18.332-8.462 25.394-15.64 8.166-8.202 13.766-18.5 18.75-28.84 4.443-9.31 7.836-19.206 9.264-29.441.147-.921.298-1.841.48-2.756 5.584 1.936 10.352 5.742 14.076 10.272 2.819 3.324 5.335 7.142 7.904 10.761 4.838 6.809 9.835 13.708 16.489 18.874 5.142 3.813 11.804 5.667 18.158 4.574 6.434-.986 12.128-4.365 18.056-6.804 20.055-8.758 40.736-16.034 61.582-22.734 25.745-8.372 51.65-16.358 76.803-26.426 6.44-2.487 12.873-5.265 19.734-6.419 4.618-.797 9.26-2.245 12.974-5.206 4.169-3.168 6.82-7.88 8.54-12.743 3.573-10.076 6.202-20.483 10.273-30.382 2.428-5.863 5.736-11.403 10.05-16.076 5.212 6.532 8.292 14.417 13.002 21.281 4.037 6.189 8.948 12.159 15.62 15.61 5.74 2.94 12.525 3.53 18.767 2.036 5.64-1.218 11.071-3.21 16.637-4.708 89.791-26.478 180.211-50.85 270.284-76.383 38.31-10.866 76.555-22.018 114.67-33.52 12.147-3.643 24.371-7.025 36.618-10.316 6.988-2.106 13.461-6.22 17.867-12.096 5.08-6.445 8.382-14.039 11.548-21.547 4.207-10.468 7.154-21.44 11.187-31.894 2.267-5.875 4.86-11.668 8.286-16.967a27 27 0 0 1 1.868-2.466c4.083 1.263 7.708 3.648 11.169 6.1 8.807 6.578 15.299 15.62 21.477 24.578 7.218 10.447 14.399 21.099 23.785 29.762 6.123 5.727 13.217 10.806 21.45 12.898 6.852 1.72 14.04 1.014 20.853-.525 22.456-4.983 44.765-10.66 66.931-16.829 30.663-8.487 61.057-17.937 91.547-26.986 25.526-7.617 51.11-15.029 76.862-21.82 6.43-1.712 12.86-3.424 19.234-5.328-4.39 9.74-9.467 19.144-14.355 28.637-11.818 22.626-23.808 45.163-35.415 67.898-22.047 42.972-43.475 86.262-64.207 129.88-5.75 12.244-11.442 24.525-16.497 37.074-1.807 4.809-3.285 10.111-1.964 15.233 1.378 5.342 5.755 9.775 11.096 11.181 6.049 1.822 12.499.867 18.51-.615 10.973-2.846 20.741-8.81 30.415-14.514 21.253-12.497 42.166-25.558 63.132-38.526 45.855-28.491 91.481-57.35 137.072-86.27 29.787-18.891 59.484-37.925 89.244-56.857 7.093-4.448 14.17-8.99 21.772-12.531.977-.409 1.959-.81 2.975-1.114 1.079 3.03 1.28 6.273 1.913 9.408 4.14 25.745 7 51.704 9.018 77.696 1.871 24.568 2.77 49.18 2.473 73.824-.042 7.96-.4 15.932.081 23.884.38 4.42 1.92 9.02 5.446 11.921 4.125 3.562 10.25 4.436 15.279 2.408 6.642-2.192 12.34-6.404 17.915-10.5 9.29-7.117 17.847-15.125 26.682-22.763 41.557-36.609 82.62-73.792 123.251-111.438 18.297-17.027 36.516-34.152 54.183-51.837 4.769-4.842 9.428-9.795 13.856-14.952 7.218 11.51 16.106 21.835 24.315 32.619 11.302 14.597 22.258 29.524 33.098 44.494 21.507 29.81 42.315 60.117 62.893 90.574 19.718 29.218 39.05 58.693 58.39 88.162 5.48 7.87 11.45 15.417 18.043 22.386 3.942 4.081 8.497 8.018 14.157 9.354 4.723 1.17 9.968.355 13.928-2.541 5.216-3.678 8.202-9.696 9.792-15.73 1.823-6.837 1.63-13.965 1.773-20.977.396-13.66 1.606-27.288 2.741-40.923 3.124-35.442 6.9-70.8 10.6-106.19 5.556-52.751 11.335-105.481 16.255-158.294 1.484-16.294 2.815-32.6 4.058-48.915 20.654 15.233 41.424 30.32 61.657 46.116 34.802 26.974 68.574 55.24 101.446 84.503 10.315 9.12 20.505 18.387 31.1 27.18 5.232 4.203 10.582 8.382 16.637 11.342 6.69 3.063 14.703 3.31 21.43.22 5.029-2.235 9.26-6.47 10.962-11.763 2.17-6.232 1.398-12.917 1.359-19.38-.83-43.018-1.205-86.043-1.695-129.065-.084-7.926-.177-15.85-.266-23.777 51.491 26.847 103.386 52.941 156.022 77.482 36.376 17.085 72.76 34.104 108.756 51.975 20.063 9.914 40 20.083 60.07 29.98 12.624 6.136 25.362 12.127 38.619 16.78 4.55 1.509 9.514 2.73 14.273 1.478 5.74-1.682 10.045-7.664 9.286-13.688-.439-5.538-3.536-10.345-6.44-14.909-6.124-9.378-12.978-18.25-19.362-27.447-28.002-39.468-55.026-79.617-82.274-119.612-43.5-63.968-86.825-128.06-131.8-191.01-5.935-8.315-11.973-16.56-17.85-24.915-.8-.811.65-.36 1.127-.454 24.017.462 48.044.408 72.057 1.14 48.937 1.26 97.811 4.026 146.658 7.182 27.165 1.714 54.322 3.675 81.53 4.576 9.675.25 19.39.391 29.026-.625 5.214-.756 10.564-2.951 13.73-7.348 3.448-4.746 3.877-11.495.933-16.592-2.931-5.692-7.76-10.063-12.47-14.268-8.87-7.649-18.624-14.164-28.06-21.074-45.399-32.609-90.407-65.764-136.19-97.831-13.512-9.49-27.16-18.791-41.033-27.747-5.713-3.718-11.31-7.48-16.722-11.672 6.063-1.348 11.887-3.546 17.619-5.901 8.015-3.215 16.052-6.386 24.259-9.086 22.683-7.748 45.78-14.314 68.82-20.799 58.368-16.275 117.239-30.755 175.854-46.178 12.766-3.402 25.533-6.81 38.2-10.566 6.595-1.965 13.11-4.181 19.657-6.294 5.199-1.506 10.669-1.586 15.922-2.84 4.953-1.114 9.917-2.788 14.023-5.852 5.023-4.02 7.486-11.176 5.422-17.357-1.532-4.833-5.554-8.595-10.227-10.391-4.12-1.7-8.464-2.76-12.66-4.251-25.505-8.369-50.766-17.461-76.181-26.097-48.508-16.688-97.19-32.872-146.106-48.309-33.08-10.518-66.135-21.092-99.013-32.24-11.472-3.853-23.233-7.39-35.401-7.942-3.483-.158-6.97-.069-10.453.051 9.977-8.617 18.882-18.366 28.066-27.8 32.897-34.365 64.734-69.723 96.887-104.78 31.496-34.422 63.054-68.83 95.973-101.914 8.726-8.743 17.638-17.303 26.189-26.22 4.154-4.415 8.29-8.905 11.666-13.956 2.488-3.938 3.952-8.914 2.457-13.486-1.561-4.855-6.104-8.463-11.114-9.19-5.807-1.165-11.74-.258-17.574.177-18.866 1.804-37.483 5.41-56.213 8.172-49.19 7.632-98.601 13.82-148.136 18.914-27.944 2.94-55.933 5.498-83.821 8.941-5.71.749-11.41 1.59-17.103 2.33 2.06-5.486 4.64-10.782 6.945-16.136 16.867-37.916 34.513-75.495 53.295-112.486 13.48-26.616 27.453-52.974 41.152-79.486a4435 4435 0 0 0 38.19-75.286c6.648-13.359 13.273-26.76 20.896-39.61 2.39-4.242 5.31-8.405 6.022-13.336.572-3.493-.415-7.215-2.788-9.865-2.556-3.007-6.54-4.71-10.484-4.432-5.214.176-10.02 2.446-14.751 4.419-10.307 4.565-20.197 9.993-30.282 15.014a10923 10923 0 0 0-87.578 45.056c-3.206 1.612-6.399 3.273-9.748 4.575 2.735-5.752 6.13-11.154 9.353-16.638 13.29-22.246 25.422-45.152 38.244-67.665 2.189-3.737 4.774-7.337 6.697-11.27 3.419-7.482 3.726-16.63-.292-23.948-3.686-6.692-11.023-11.108-18.635-11.427-8.407-.714-16.719 1.217-24.903 2.87-16.962 3.597-33.998 6.95-51 10.27-38.967 7.547-78.005 14.722-116.964 22.318-14.635 2.846-29.256 5.796-43.882 8.695-2.676.51-5.362.98-8.068 1.308 4.795-7.825 10.426-15.09 15.532-22.707 5.108-7.46 9.763-15.25 13.503-23.49 2.46-5.255 4.747-10.822 4.834-16.708-.017-5.212-2.463-10.405-6.673-13.53-4.924-3.807-11.384-4.871-17.465-4.605-6.556.255-12.996 1.623-19.49 2.455-159.617 23.537-319.257 46.883-478.864 70.446-132.429 19.561-264.857 39.16-397.23 59.084-57.11 8.624-114.207 17.3-171.266 26.245-21.485 3.384-42.963 6.81-64.39 10.54-7.812 1.378-15.6 2.897-23.427 4.185-6.296.71-12.627-.178-18.939.078-6.317.158-12.778 1.354-18.232 4.696-6.033 3.56-10.726 8.975-14.46 14.827-4.317 6.523-8.232 13.299-12.332 19.958-7.822 13.01-15.526 26.219-20.846 40.486-1.886 5.257-3.028 10.745-3.879 16.253-.521 2.705-1.782 5.261-3.694 7.254-.459.92-.654.144-.845-.462-1.669-4.465-2.936-8.996-4.033-13.658-1.476-6.417-2.409-13.161-3.275-19.761-1.382-10.585-2.67-21.269-5.99-31.462-2.964-9.485-7.678-18.321-12.97-26.694-9.107-14.241-20.222-27.03-30.924-40.067-5.207-6.287-10.45-12.547-15.894-18.631 7.552-7.714 15.3-15.24 22.583-23.211 10.853-11.794 20.903-24.543 28.03-38.973 10.7-21.355 15.922-45.128 17.329-68.877 1.964-33.953-3.925-68.425-17.634-99.584-10.869-24.656-26.784-47.254-47.284-64.843-13.58-11.723-28.82-21.478-44.973-29.255-20.783-9.876-43.337-15.862-66.214-18.136-10.656-1.106-21.376-1.489-32.086-1.4zm1247.404 1577.096c.442.485-.059 1.39-.662 1.375-.691.324-1.156-.358-1.193-.983.192-.853 1.027-.522 1.645-.425l.109.016z" style="display:inline;stroke-width:1.10302"/><path fill="#fff" d="M1327.672 233.8c-30.44-.195-61.688 4.373-82.99 8.741-32.163 6.596-41.647 12.737-64.132 28.323-16.904 11.718-41.157 28.773-53.215 49.063-5.588 9.403-8.558 19.501-12.58 32.178-24.46 77.102-87.851 249.613-137.248 395.94-6.439 19.074-12.64 37.703-17.024 55.44-1.62 6.558-2.993 12.994-6.514 18.102-3.3 4.788-8.488 8.411-13.21 12.41-5.997 5.077-11.243 10.76-15.447 17.126-7.6 11.508-11.8 25.251-17.735 43.838-44.564 139.554-186.984 552.116-285.737 824.12-12.732 35.069-24.738 67.8-37.25 97.192-3.431 8.057-6.9 15.864-6.268 23.518.611 7.408 5.064 14.674 9.689 21.663 35.616 53.823 81.418 91.235 135.02 123.163 9.574 5.702 19.396 11.23 29.856 13.19 10.918 2.046 22.53.205 33.861-2.985 12.947-3.646 25.525-9.054 40.761-15.523 110.031-46.718 358.636-148.753 590.755-326.229 32.896-25.15 65.459-51.815 92.657-80.486 28.873-30.436 51.7-63.131 67.742-97.671 5.986-12.889 11.027-26.034 18.406-40.607 1.057-2.087 2.162-4.204 3.901-5.056 1.711-.838 4.037-.452 6.285 0 20.853 4.191 35.017 13.989 51.36 27.595 2.553 2.125 5.158 4.343 5.635 7.152.275 1.617-.156 3.43-.65 5.201-4.532 16.232-14.425 28.876-22.896 42.31-10.407 16.505-18.665 34.201-26.682 51.144-58.347 123.285-104.035 206.684-191.01 367.548-11.296 20.894-23.29 43.093-31.135 66.098-2.653 7.778-4.832 15.65-4.63 21.858.35 10.74 7.82 16.51 15.654 22.354 34.607 25.813 76.34 53.068 116.358 83.974 5.12 3.955 10.214 7.97 15.98 10.463 6.839 2.955 14.624 3.77 22.213 3.587 12.683-.304 24.817-3.394 36.85-6.682 69.035-18.866 134.755-44.276 202.756-71.123 8.923-3.523 17.885-7.07 24.968-13.1 7.864-6.695 13.412-16.448 17.967-25.633 4.102-8.27 7.398-16.077 9.22-26.634.987-5.72 1.541-12.245 5.148-14.377 3.156-1.865 8.649-.365 13.25 1.709 16.765 7.555 21.717 22.734 33.329 35.46 2.95 3.232 6.328 6.306 10.057 7.186 4.826 1.138 10.238-1.4 15.545-3.78 50.868-22.802 92.164-31.034 143.062-51.222 6.125-2.43 12.39-5.033 18.836-6.513 4.458-1.024 9.003-1.51 11.988-4.079 2.564-2.207 3.978-5.95 5.247-9.626 6.477-18.769 9.16-35.787 24.231-50.455 1.896-1.845 3.988-3.654 6.06-3.586 1.962.064 3.905 1.808 5.617 3.586 8.525 8.852 11.3 18.538 18.072 27.831 3.308 4.54 7.57 8.986 12.512 10.307 4.72 1.261 10.06-.327 15.365-1.898 135.748-40.202 248.852-68.979 379.372-108.18 14.995-4.503 30.22-9.144 45.336-13.092 4.461-1.164 8.912-2.269 12.555-4.649 4.88-3.188 8.308-8.666 11.104-14.147 9.856-19.315 11.86-38.662 23.7-58.784 2.487-4.227 5.408-8.488 9.306-9.523 3.443-.913 7.647.69 11.471 2.598 27.489 13.712 35.28 43.127 57.138 62.331 4.81 4.226 10.3 7.957 16.232 9.09 5.751 1.1 11.917-.243 17.964-1.607 82.197-18.547 142.168-41.2 233.112-65.21 10.386-2.741 21.175-5.501 29.822-8.947 2.107-.84 4.086-1.72 5.177-1.352 1.821.616 1.165 4.715.011 8.817-.887 3.14-2.069 6.284-3.684 10.009-11.05 25.475-42.416 78.19-104.524 206.716-8.082 16.727-16.686 34.737-24.156 52.135-2.655 6.184-5.168 12.292-3.493 15.463 2.225 4.215 11.85 3.241 20.951-.112 5.492-2.023 10.793-4.912 18.62-9.468 51.08-29.74 209.738-130.51 276.603-173.34 8.983-5.754 16.309-10.462 24.005-15.185 4.818-2.956 9.782-5.919 15.797-8.62 4.106-1.844 8.702-3.566 12.035-2.06 2.549 1.15 4.359 4.19 5.498 7.463.834 2.395 1.309 4.915 1.883 8.274 3.894 22.785 12.35 84.132 12.194 147.374-.021 8.5-.198 17.033-.242 25.183-.028 5.13 0 10.108 2.26 11.545 2.302 1.463 6.92-.742 11.428-3.541 7.124-4.423 13.974-10.331 21.667-17.04 57.21-49.905 160.974-144.177 192.885-177.422 4.427-4.612 7.47-8.05 10.661-11.865 2.842-3.396 5.8-7.091 8.196-7.136 2.535-.047 4.443 3.99 6.82 8.069 5.177 8.882 12.581 17.958 20.341 27.856 58.917 75.151 138.418 197.772 157.632 227.101 2.646 4.038 4.15 6.307 9.892 13.504 4.75 5.953 12.4 15.276 17.995 16.466 5.795 1.233 9.387-6.257 10.623-13.349.817-4.692.603-9.211.79-16.22 1.402-52.482 25.33-244.572 32.689-341.252.55-7.237 1.009-13.94 1.876-23.955.25-2.88.533-6.036 1.836-6.663 1.219-.586 3.33 1.037 5.6 2.755 9.702 7.347 22.301 16.424 34.267 25.247 93.236 68.752 148.014 122.083 168.982 139.268a143 143 0 0 0 8.282 6.31c4.98 3.547 8.76 6.038 14.642 5.348 3.383-.396 7.463-1.845 9.11-5.918 1.217-3.007 1.108-7.444.997-12.811-.754-36.476-1.584-115.894-1.962-155.195-.05-5.148-.09-9.607-.317-13.71-.094-1.696-.218-3.33.356-4.004.936-1.1 3.736.364 6.492 1.804 160.06 83.631 173.35 83.268 310.853 152.67 16.051 8.1 33.795 17.151 51.13 24.287 7.51 3.091 14.944 5.823 17.487 4.734 4.052-1.736-4.324-13.18-12.943-25.145a2663 2663 0 0 1-19.882-27.962c-48.288-68.847-127.233-188.142-193.095-281.093a3404 3404 0 0 0-25.427-35.431c-3.303-4.537-6.613-9.056-8.529-15.623-.64-2.196-1.125-4.621-.328-5.907.968-1.561 3.827-1.443 6.858-1.344 13.558.439 30.562.463 47.244.665 130.145 1.575 240.7 13.973 280.597 12.477 7.007-.262 11.835-.953 14.167-2.563 5.378-3.714-2.517-12.315-16.524-23.048-5.425-4.157-11.765-8.633-19.63-14.263-42.606-30.502-129.924-94.866-170.78-121.398-5.828-3.785-10.71-6.8-17.528-11.677-7.583-5.425-17.56-13.155-19.541-17.256-2.509-5.192 7.798-4.57 17.43-6.638 7.916-1.7 15.376-5.216 25.295-9.065 68.627-26.63 254.974-69.2 305.37-85.288 7.6-2.426 12.108-4.25 16.844-5.273 6.486-1.4 13.403-1.298 20.37-4.467 1.043-.474 2.087-1.022 2.849-1.84 1.134-1.216 1.642-3.03 1.457-4.436-.406-3.087-4.151-4.214-8.268-5.509-15.764-4.96-36.984-12.385-56.184-19.048-149.15-51.763-176.461-57.587-269.203-88.886-12.339-4.164-25.836-8.779-39.486-8.69-7.429.048-14.903 1.489-21.737-3.156-1.89-1.285-3.731-3.034-3.962-4.609-.332-2.258 2.646-4.155 5.614-6.342 7.848-5.78 15.63-13.58 23.756-21.92 62.264-63.92 144.561-159.575 209.44-223.649 8.673-8.564 17.035-16.565 24.214-24.67 4.188-4.727 7.974-9.49 6.723-11.694-1.175-2.07-6.788-1.885-12.607-1.442-13.884 1.058-28.939 3.584-43.34 5.895-109.852 17.63-181.69 22.764-235.76 28.914-7.798.886-15.227 1.794-22.596 2.88-8.842 1.303-17.597 2.863-20.471-.425-3.312-3.787 1.176-14.003 5.462-23.656 55.19-124.322 76.867-155.394 134.524-271.696 6.72-13.558 13.93-28.276 21.483-41.047 3.186-5.386 6.432-10.427 5.417-12.08-1.805-2.935-17.06 4.82-29.719 11.262-62.534 31.82-61.732 31.566-99.273 51.022-4.593 2.38-9.76 5.056-15.396 6.791-4.66 1.435-9.639 2.227-12.018.588-3.396-2.338-1.496-9.626 1.816-16.799 2.353-5.097 5.42-10.137 8.368-15.073 19.9-33.32 34.444-61.948 42.197-74.238 1.527-2.42 2.79-4.207 3.68-6.12 2.922-6.29 1.795-13.943-2.609-17.446-3.072-2.443-7.74-2.864-12.704-2.531-5.534.37-11.436 1.679-17.816 3.042-45.955 9.816-116.733 22.474-174.21 33.77a3791 3791 0 0 0-25.24 5.047c-12.01 2.445-24.492 5.046-30.491 3.853-10.348-2.058-1.407-15.403 5.432-25.233 10.236-14.712 15.764-21.55 22.531-35.705 2.47-5.164 5.104-11.303 4.025-15.1-1.135-3.99-6.372-5.393-12.262-5.244-3.339.085-6.888.668-27.301 3.7-131.304 19.5-960.289 140.282-1097.659 164.074-20.558 3.56-25.625 4.948-31.159 5.383-8.205.644-17.434-.808-24.324.612-10.06 2.074-15.13 10.273-21.35 20.41-10.959 17.856-25.488 41.725-29.379 56.438-2.247 8.5-.944 13.944-8.336 22.433-3.097 3.556-7.721 7.648-11.232 7.158-3.676-.513-6.132-6.048-8.084-11.361-9.56-26.028-7.03-46.772-13.913-66.863-7.09-20.697-24.168-40.703-38.959-58.583-6.42-7.761-12.41-15.122-19.83-23.226-1.179-1.287-2.394-2.594-2.829-3.943-1.056-3.283 2.512-6.82 5.922-10.214 21.316-21.207 36.503-36.766 46.95-56.929 17.806-34.365 21.84-82.103 11.893-125.214-7.955-34.477-24.849-65.995-48.351-89.098-8.488-8.344-17.837-15.59-27.167-21.728-58.14-38.248-115.542-33.47-173.858-27.558-78.087 7.917-157.81 17.867-235.285 35.77-24.564 5.676-48.904 12.153-73.839 15.534-11.32 1.535-22.764 2.432-33.987 4.294-16.723 2.775-32.957 7.691-48.374 16.296-5.072 2.831-10.056 6.062-15.277 6.975-8.784 1.535-18.24-3.49-27.641-5.86-21.968-5.54-43.636 3.409-65.337 9.512-13.853 3.896-27.72 6.633-41.599 6.798-20.953.25-41.929-5.36-63.477-4.531-18.79.723-38.013 6.342-53.125 16.022-7.602 4.87-14.164 10.766-20.683 18.743-3.177 3.887-6.343 8.268-10.035 9.182-4.663 1.153-10.165-3.225-15.66-7.068-37.115-25.95-73.966-27.436-113.026-26.238-26.008.797-52.998 2.784-76.56 10.338-29.192 9.357-53.122 27.259-79.268 53.644-7.04 7.105-14.242 14.826-21.272 14.555-6.63-.255-13.106-7.619-19.47-14.555-17.373-18.932-33.913-34.68-53.291-41.171-4.667-1.564-9.5-2.591-14.588-3.459-24.669-4.208-55.38-4.68-77.758-4.825l-12.218-.078z" style="display:inline;stroke-width:1.10302"/><path d="M1291.493 283.182c-15.528.647-48.65 2.807-75.124 11.759-16.969 5.737-31.205 14.265-40.501 27.11-4.715 6.514-8.158 14.138-11.355 21.903-6.253 15.189-11.564 30.917-16.956 46.55-40.685 117.968-86.006 230.531-123.725 343.028-4.856 14.483-9.586 28.965-14.03 43.752-1.163 3.873-2.307 7.767-3.384 11.846-2.507 9.488-4.654 19.977-5.251 28.128-.407 5.556-.094 10.025-.697 16.73-.55 6.127-1.867 14.122-5.679 19.274-3.444 4.655-8.924 6.989-14.627 6.751-4.514-.188-9.167-1.988-12.752 0-.972.54-1.866 1.357-2.625 2.25-1.697 1.997-2.725 4.374-3.75 6.751-104.199 241.561-181.04 491.34-266.225 738.03-15.168 43.927-30.6 87.756-45.953 131.932-8.2 23.59-16.376 47.278-26.682 69.67-2.757 5.99-5.667 11.888-7.412 18.53-1.104 4.2-1.742 8.699-.741 12.6 1.515 5.904 6.785 10.44 11.908 14.94 34.73 30.51 62.713 59.442 97.103 85.702 4.717 3.602 9.554 7.153 14.884 9.693 8.273 3.94 17.735 5.445 27 5.538 22.296.225 43.453-7.718 64.384-15.923 119.645-46.898 231.921-102.324 341.44-164.769 89.969-51.3 178.071-107.34 258.051-174.398 34.718-29.109 67.904-60.296 92.475-98.624 14.653-22.857 26.24-48.254 34.855-72.697 5.547-15.74 9.861-31.084 10.062-50.931.044-4.365-.11-8.949 2.24-11.198 1.919-1.836 5.508-2.116 9.056-1.746 5.822.606 11.532 2.96 16.863 5.194 39.755 16.664 58.351 26.734 99.473 44.561 5.61 2.433 11.641 5.01 16.244 8.94 3.474 2.967 6.136 6.705 5.531 10.236-.375 2.195-2.012 4.31-3.519 6.399-3.443 4.774-6.212 9.415-8.958 14.077-96.385 163.61-165.971 352.933-263.952 522.731-2.993 5.187-6.012 10.356-7.592 16.197-1.723 6.368-1.734 13.536.759 19.486 1.922 4.587 5.332 8.451 8.857 12.148 27.286 28.61 61.428 47.18 97.157 64.046 6.24 2.946 12.529 5.84 19.1 6.946 7.467 1.256 15.3.205 23.069-.992 71.29-10.99 137.315-34.333 200.882-67.32 5.552-2.882 11.086-5.837 15.658-9.866 6.8-5.994 11.473-14.364 15.44-22.793 14.356-30.498 19.486-61.766 32.098-94.301 1.307-3.373 2.695-6.76 4.615-9.047 1.463-1.742 3.235-2.847 5.149-2.81 4.107.08 8.869 5.416 13.25 10.462 21.94 25.264 34.345 43.272 50.214 67.997 1.207 1.881 2.434 3.8 4.185 4.882 1.575.974 3.574 1.268 5.6 1.369 4.674.232 9.491-.567 14.194-1.414 35.805-6.449 64.907-15.688 96.154-29.185 4.868-2.102 9.789-4.308 14.306-7.103 8.037-4.973 14.8-11.81 20.726-18.947 18.679-22.5 29.042-47.998 39.894-78.92 1.119-3.188 2.242-6.433 4.733-7.79 2.07-1.13 5.084-.954 7.575-.092 4.925 1.704 7.81 6.09 10.77 10.405 11.84 17.258 24.898 33.38 42.996 41.689 4.559 2.093 9.437 3.69 14.384 4.542 9.812 1.692 19.896.455 29.902-.946 109.284-15.305 209.53-50.326 317.416-77.37 8.796-2.205 17.644-4.357 25.127-8.841 7.95-4.764 14.359-12.16 20.009-20.009 22.857-31.76 33.26-70.952 43.146-106.05 3.26-11.573 6.464-22.702 11.24-35.63.751-2.032 1.54-4.108 2.46-5.952 2.427-4.865 5.76-8.111 12.338-9.56 5.96-1.314 14.588-1.153 19.274.126.989.27 1.802.59 2.583.952 3.329 1.544 6.073 3.864 7.215 6.736 1.529 3.844.187 8.678-.38 13.302-.453 3.701-.41 7.268.38 10.643 1.338 5.71 4.818 10.869 8.362 15.962 20.663 29.702 43.47 57.16 75.253 73.353 3.634 1.852 7.385 3.556 11.232 4.264 6.233 1.146 12.721-.32 19.376-1.833 210.191-47.774 586.111-140.69 650.737-157.6 9.503-2.486 12.274-3.328 15.394-4.023 6.863-1.529 15.414-2.343 25.079-6.818 2.42-1.121 4.91-2.471 5.22-3.697.49-1.94-4.477-3.57-8.917-4.785-15.222-4.169-24.25-3.482-34.58-2.827-14.616.925-31.84 1.785-48.584 5.27-10.914 2.272-21.624 5.66-33.22 9.051-76.946 22.502-192.84 45.126-222.026 53.11-4.142 1.132-6.54 1.97-8.929 2.698-2.561.78-5.115 1.433-6.91.382-1.562-.915-2.55-3.12-3.236-5.178-1.893-5.67-1.502-10.212-.323-16.827.244-1.37.521-2.83 1.294-3.237.888-.467 2.428.452 3.884.971 2.824 1.007 5.329.506 7.766 0 29.506-6.12 49.04-12.839 88.347-20.937 4.852-1 10.006-2.02 14.685-3.862 4.21-1.656 8.035-3.975 8.616-5.297 1.084-2.47-9.17-1.451-18.58-.364a1063 1063 0 0 0-12.11 1.477c-22.423 2.853-29.958 4.307-49.5 8.248-3.502.706-7.39 1.491-11.49 2.5-11.157 2.742-23.895 7.13-25.47.113-.35-1.56-.148-3.685.202-5.776.469-2.802 1.204-5.543 2.005-8.598 5.873-22.413 15.263-61.695 26.63-112.52 1.533-6.847 3.1-13.904 4.826-20.672 1.122-4.4 2.31-8.677 4.435-9.673 3.24-1.52 8.657 4.589 13.11 10.27 14.123 18.013 18.567 31.735 25.348 46.326 7.927 17.053 19.047 35.294 29.937 53.973 2.337 4.008 4.663 8.036 8.086 10.488 3.798 2.722 8.948 3.504 14.198 3.52 11.35.032 23.166-3.515 34.789-6.837 99.223-28.367 184.226-40.342 262.143-54.176 11.251-1.998 22.353-4.034 36.14-15.103 3.976-3.192 8.175-7.136 6.73-9.072-.757-1.015-3.068-1.477-5.5-1.767-5.88-.7-12.473-.393-18.796-.064-48.266 2.51-80.936 6.237-104.465 10.883-3.412.673-6.631 1.366-10.922 2.642-5.326 1.584-12.304 4.067-16.756 2.426-2.835-1.044-4.647-3.761-5.37-6.783-.468-1.949-.483-4.023-.37-6.386.743-15.64 7.068-43.877 10.249-55.452.526-1.912.965-3.37 1.365-5.017.875-3.609 1.558-8.127 3.067-10.866 1.575-2.857 4.05-3.778 6.666-4.677 19.5-6.702 46.882-12.21 75.144-17.734 3.371-.66 6.754-1.319 9.845-2.582 1.903-.778 3.695-1.785 4.564-3.465.843-1.628.82-3.89 0-5.574-1.038-2.133-3.355-3.343-5.85-3.919-5.16-1.19-11.085.331-16.675 1.713-47.607 11.766-70.91 13.355-119.788 22.272-4.979.908-10.223 1.892-12.634-.743-1.723-1.883-2-5.613-1.486-8.919 1.424-9.173 8.932-15.081 17.32-18.293 5.876-2.251 12.184-3.178 18.384-4.093 46.946-6.93 87.626-13.16 147.21-31.763 4.358-1.36 8.819-2.788 9.484-5.507.745-3.045-3.269-7.71-8.364-8.898-1.94-.453-4.038-.402-6.075-.373-11.54.162-21.111-.412-29.642.432-2.306.228-4.537.56-6.631.848-10.135 1.392-17.094 1.745-29.755 4.625-6.485 1.476-14.467 3.614-18.408 1.022-1.53-1.006-2.451-2.725-3.156-4.384-4.027-9.472-1.023-17.004 1.436-24.22.47-1.383.922-2.754 1.675-3.746 2.094-2.761 6.523-2.596 11.202-2.726 9.976-.279 21.089-1.905 32.083-3.579 82.795-12.606 158.878-27.927 185.847-35.53 5.63-1.587 9.118-2.837 12.55-4.474 12.398-5.913 24.07-16.863 19.648-19.935-2.426-1.686-9.696-.999-15.961-.726-9.54.416-16.746-.126-24.305 1.089-7.706 1.237-15.777 4.3-23.807 6.803-10.532 3.284-20.994 5.608-30.922 7.696-72.696 15.295-116.787 18.014-222.611 40.791-14.599 3.142-30.372 6.666-45.424 10.79-12.722 3.484-24.929 7.397-27.01.856-1.048-3.293.47-9.236 2.747-13.928 2.79-5.749 6.718-9.62 11.223-13.29 4.752-3.87 10.146-7.513 16.024-9.091 3.658-.982 7.503-1.164 13.564-1.787 39.826-4.095 175.314-27.219 293.028-51.027 15.153-3.065 30.013-6.141 43.133-7.463 3.422-.344 6.725-.57 8.932-2.82 1.366-1.393 2.312-3.561 2.1-5.458-.303-2.7-2.95-4.848-6.075-5.657-2.424-.628-5.136-.45-9.808.117-32.018 3.883-156.066 25.984-193.811 34.332-5.206 1.152-8.77 2.042-12.675 2.956-3.291.77-6.826 1.557-8.567.163-1.867-1.494-1.675-5.492-1.26-9.237 1.288-11.62 4.725-20.797 7.156-27.225.444-1.174.855-2.256 1.271-3.391 1.468-4 3.01-8.656 5.85-9.274.692-.151 1.462-.062 2.254-.014 5.61.334 12.335-1.443 19.525-3.218 63.7-15.721 163.92-31.2 164.405-31.273 3.24-1.082 27.81-2.316 31.318-11.848.533-1.447.58-3.084.22-4.231-.773-2.457-3.416-2.672-6.84-2.398-2.285.182-4.918.582-10.088 1.457-33.616 5.69-174.498 31.465-209.519 38.068-7.231 1.363-9.95 1.909-12.753 2.555-9.955 2.293-20.981 5.844-21.274-1.98-.125-3.37 1.742-8.854 3.579-13.08 2.201-5.064 4.358-8.322 8.024-9.889 1.631-.697 3.56-1.059 5.484-1.42 38.054-7.15 74.12-14.096 110.238-19.999 50.83-8.308 101.765-14.549 156.287-20.838 23.66-2.73 47.998-5.468 68.871-7.15 3.735-.3 7.358-.567 10.597-.998 11.048-1.471 17.628-4.854 36.876-12.36 11.808-4.604 28.384-10.761 24.893-16.151-.905-1.397-3.159-2.743-5.402-3.86-13.094-6.51-25.854-5.182-38.59-3.472-25.586 3.436-51.077 8.416-76.792 12.734-67.646 11.361-136.84 18.15-202.977 27.013-18.932 2.538-37.615 5.245-58.33 5.789-5.192.136-10.512.136-14.276-3.473-2.842-2.725-4.796-7.507-3.8-10.42 1.288-3.771 7.524-4.409 13.457-5.016 93.048-9.52 111.714-11.559 226.78-33.814 15.594-3.016 32.958-6.404 45.744-9.3 20.725-4.692 29.427-8.094 22.673-11.682-5.17-2.747-19.394-5.602-33.176-2.988-7.593 1.44-15.053 4.542-23.03 7.355-57.317 20.217-141.374 25.611-214.063 35.387-50.87 6.842-96.176 15.83-146.69 24.862-15.854 2.836-32.22 5.675-46.457 4.747-5.543-.362-10.762-1.294-17.28-5.65-8.124-5.43-18.264-16.18-16.216-19.317.576-.884 2.121-1.163 3.645-1.43 8.308-1.456 15.996-2.552 23.78-3.642 35.356-4.952 72.69-9.796 108.19-14.345 102.5-13.133 189.697-23.8 297.65-47.381 16.892-3.69 34.292-7.695 50.772-10.829 38.212-7.267 71.463-9.844 123.78-20.536a1178 1178 0 0 0 29.328-6.4c24.015-5.553 49.729-12.238 59.465-16.663a29 29 0 0 0 4.775-2.707c4.818-3.325 6.892-5.918 1.734-7.31-3.688-.995-11.074-1.377-17.547-.378-2.62.405-5.09 1.035-7.401 1.58-15.095 3.551-23.45 3.42-36.995 4.583-21.609 1.856-56.423 7.007-83.127 11.427-10.687 1.769-20.074 3.42-29.69 3.915-1.508.078-3.022.127-4.67-.143-3.85-.632-8.432-3.007-9.249-6.749-.233-1.07-.159-2.252-.125-3.33.17-5.465-.708-8.277.95-10.905 1.235-1.956 3.876-3.811 6.861-5.027 4.29-1.747 9.292-2.174 14.035-2.648 39.38-3.932 60.865-11.061 87.785-16.913 14.294-3.107 30.12-5.854 44.258-21.146 5.08-5.493 9.94-12.605 8.36-15.51-1.676-3.082-10.597-1.432-18.687 0-62.544 11.073-75.405 9.172-137.392 24.417-7.372 1.814-15.44 3.87-22.336 1.5-4.084-1.401-7.757-4.355-10.919-6.964-6.354-5.245-10.643-9.103-17.703-18.953-3.345-4.666-7.31-10.677-8.956-14.029-1.537-3.131-1.048-3.942 3.285-4.262 1.734-.128 4.082-.178 7.074-.238 17.286-.35 56.046-1.056 76.199-3.944 4.186-.6 7.57-1.294 11.237-2.108 13.145-2.92 29.94-7.389 55.545-7.674 14.138-.157 30.964.961 35.602-9.28.67-1.479 1.086-3.194.984-4.426-.38-4.583-7.928-2.467-15.982-1.689-5.399.522-11.025.442-17.195.561-46.322.89-123.262 12.942-194.561 23.502-25.57 3.787-50.417 7.382-82.095 7.835-6.016.085-12.277.058-14.08-3-.825-1.4-.715-3.435-.599-5.279.702-11.171 1.622-15.31 3.783-17.089 1.188-.978 2.751-1.243 6.746-1.899 24.692-4.054 142.3-23.047 206.33-24.507 10.005-.228 18.702-.028 27.36-.331 15.575-.546 31.024-2.723 42.4-5.135 19.865-4.213 27.309-9.145 51.654-9.013 3.321.018 6.958.13 12.48.231 9.228.17 23.72.31 32.625.144 2.682-.05 4.857-.128 7.542-.375.386-.036.782-.075 1.145-.209.74-.273 1.338-.94 1.941-1.778 2.168-3.01 4.398-8.212 2.193-9.028-.603-.224-1.539-.118-2.503-.03-4.318.4-9.203.476-14.115.521-38.328.353-78.359-1.183-95.581 1.983-4.69.862-7.688 2.073-11.4 3.18-16.062 4.787-45.486 7.627-63.982 9.504-4.155.421-7.758.795-13.08 1.197-18.889 1.428-59.425 3.227-92.767-.919-4.455-.554-8.783-1.214-12.343-2.552-2.073-.78-3.885-1.788-4.339-3.071-.756-2.14 2.265-5.042 5.039-7.525 6.629-5.934 11.847-9.471 17.377-12.9 29.753-18.45 68.5-33.74 107.499-44.791 22.925-6.496 45.937-11.528 67.366-12.183 11.752-.36 23.029.597 36.891-7.456 3.76-2.184 7.711-5.032 7.542-7.594-.143-2.16-3.215-4.117-6.706-5.086-2.646-.735-5.533-.902-8.283-1.05-21.122-1.136-34.139-1.146-48.436-.672-44.07 1.461-100.298 7.523-153.364 15.408-29.38 4.366-57.79 9.29-84.3 13.256-6.799 1.017-13.474 1.971-21.887-.144-3.418-.86-7.123-2.225-7.796-4.952-.231-.939-.104-2.038 0-3.067.539-5.572.257-9.062 3.104-15.073.519-1.095 1.141-2.273 1.905-3.09 2.157-2.303 5.445-1.718 8.84-1.467 8.644.64 17.979-.892 27.28-2.422 86.79-14.277 170.615-28.42 252.283-40.85 20.048-3.052 39.967-6.001 61.98-9.745 3.752-.639 7.565-1.3 10.351-2.684 3.543-1.76 5.427-4.689 10.35-8.817 4.198-3.519 10.604-7.909 6.518-9.584-3.475-1.424-14.538-.886-23.491-.369-36.607 2.114-37.955 3.861-43.276 5.68-8.729 2.984-28.149 6.16-47.474 9.257-2.505.4-5.009.8-6.33-.615-1.965-2.106-1.317-8.226-.57-13.57 1.932-13.823 4.526-22.456 4.984-32.585.715-15.852-3.803-35.368-13.836-49.626-8.706-12.371-21.565-20.784-31.163-32.138-2.447-2.893-4.681-5.978-3.478-10.731.218-.862.549-1.78 1.117-2.568 1.76-2.443 5.791-3.654 9.898-4.097 2.457-.265 4.94-.255 8.485-.355 25.236-.715 104.237-7.04 163.5-15.035 42.001-5.667 74.083-12.172 107.135-20.959 13.245-3.521 26.647-7.409 42.02-12.168 3.41-1.056 6.918-2.155 7.986-5.514.815-2.565.208-6.448-2.127-7.447-1.64-.702-4.133.019-7.617.875-23.465 5.77-91.877 17.701-243.933 39.34-20.975 2.985-43.543 6.155-66.136 9.009-19.087 2.41-38.195 4.596-53.704.59-6.1-1.575-11.643-4.108-19.631-8.18-4.766-2.428-10.402-5.404-10.264-7.448.137-2.035 5.994-3.146 11.9-4.237 54.987-10.16 114.24-18.601 122.766-27.793 1.717-1.85 1.38-3.731-1.28-4.666-9.535-3.352-48.908 5.45-74.956 9.847-19.597 3.309-31.652 4.124-51.59 6.31-133.013 14.587-616.874 90.194-771.33 112.321-21.613 3.096-36.776 5.144-45.108 5.204-7.108.05-9.245-1.347-13.853-10.254-.748-1.446-1.562-3.09-1.186-4.344.78-2.596 6.67-3.509 12.65-4.45 16.131-2.538 32.927-5.277 54.253-8.763 10.599-1.732 22.317-3.65 43.928-6.851 134.237-19.888 650.174-89.348 743.633-107.715 17.117-3.365 20.061-5.015 24.012-6.141 11.292-3.22 30.809-2.161 46.671-3.416 10.76-.85 19.837-2.764 29.593-1.83 5.954.57 12.16 2.201 18-1.83 2.03-1.402 4.016-3.488 3.967-4.882-.074-2.074-4.655-2.617-8.848-3.05-19.136-1.98-30.183-1.687-42.712-.61-18.51 1.59-40.256 4.888-62.57 8.262-308.658 46.657-726.183 107.424-905.832 136.112-20.99 3.352-38.733 6.266-55.87 8.913-7.568 1.17-15.019 2.287-20.136 6.523-4.553 3.769-7.259 10.006-9.987 16.134-24.828 55.756-51.547 102.438-77.98 154.036-1.564 3.053-3.127 6.122-5.735 8.452-4.877 4.355-13.41 6.122-18.85 3.073-2.71-1.519-4.651-4.23-6.53-6.915-23.803-33.99-37.611-63.493-66.903-98.388-3.45-4.11-7.115-8.295-8.674-13.045-.795-2.42-1.042-4.988-.518-7.189 1.725-7.238 11.807-10.51 20.688-11.71 5.349-.723 10.263-.695 14.053-2.733 6.285-3.38 9.479-12.443 10.93-21.078 3.03-18.045-1.55-34.222-8.979-48.794-11.799-23.148-30.783-42.245-50.424-60.569-4.407-4.11-8.847-8.183-10.596-14.156-.781-2.669-1.025-5.718 0-7.901 1.56-3.322 6.058-4.641 10.267-6.255 23.226-8.91 37.639-26.826 46.75-47.08 11.324-25.175 14.456-53.962 11.747-81.625-3.18-32.474-14.412-63.396-34.937-90.29-13.652-17.889-31.416-33.995-50.929-40.688-4.7-1.612-9.501-2.678-14.324-3.468-23.386-3.826-47.274-1.147-75.791 3.197-15.738 2.398-32.884 5.302-47.748 7.196-27.125 3.457-46.64 3.55-68.635 5.418-48.153 4.091-108.193 16.691-163.048 30.29-18.255 4.524-35.937 9.159-53.975 11.49-15.772 2.04-31.82 2.318-47.996 4.957-12.808 2.09-25.7 5.659-35.63 13.787-6.488 5.309-11.712 12.562-20.091 14.802-3.558.951-7.685.999-10.573-.705-3.555-2.096-5.232-6.845-8.106-10.22-5.281-6.202-14.604-7.766-22.909-7.05-7.079.612-13.417 2.882-19.736 5.287-15.497 5.9-30.876 12.622-47.236 16.716-14.367 3.594-29.49 5.163-43.937 2.359-11.486-2.23-22.545-7.224-34.032-8.11-20.37-1.573-42.088 9.774-56.636 25.327-14.028 14.997-21.39 33.905-19.15 56.672.373 3.79 1.012 7.689-1.199 9.888-2.661 2.648-9.452 2.834-11.985.3-2.357-2.357-1.03-7.067-1.199-11.087-.266-6.374-4.288-11.012-8.329-15.598-14.747-16.739-29.737-32.778-47.867-43.292-41.297-23.949-98.886-19.234-146.933-4.693-18.164 5.497-34.965 12.398-51.505 20.875-24.655 12.635-48.733 28.77-58.966 58.188-1.46 4.2-2.64 8.67-6.137 10.109-2.827 1.163-7.17.347-9.387-1.805-2.498-2.425-2.299-6.545-2.527-10.47-.82-14.123-7.176-25.711-16.607-35.018-11.536-11.386-27.674-19.36-40.987-23.828-11.031-3.702-20.124-4.998-38.798-6.137-21.001-1.281-54.12-2.365-70.183-2.653-18.133-.324-20.564-.584-31.106-.145z" style="display:inline;stroke-width:1.10302"/><path fill="#fff" d="M1343.776 417.877c-5.458 1.284-10.062 3.306-14.17 6.33-3.61 2.659-6.838 6.092-9.647 9.647-7.807 9.883-12.385 20.717-18.39 33.162-2.65 5.495-5.58 11.304-3.918 16.28 1.767 5.29 8.728 9.637 14.771 9.947 8.01.413 14.408-6.264 20.801-11.153 5.644-4.317 11.284-7.242 17.786-10.853 5.59-3.104 11.818-6.715 12.963-12.36.946-4.66-.222-8.612.603-13.149.385-2.12 2.898-4.876 4.22-6.748 3.304-4.676 2.868-12.129-.301-16.58-4.803-6.747-15.881-6.603-24.721-4.523zm283.31 189.807a36.546 97.756 16.456 0 0 55.385-187.502 36.546 97.756 16.456 0 0-55.385 187.502m728.676-281.292c-10.511 2.978-22.34 10.537-28.014 20.053-.882 1.48-1.616 3.008-2.135 4.63-1.334 4.167-1.253 8.959.948 10.856 2.59 2.232 8.117.457 12.903-1.132 17.887-5.94 25.425-9.287 44.119-15.943 2.419-.861 5.024-1.778 7.367-3.189 2.977-1.793 5.53-4.386 5.557-6.9.035-3.193-4.003-6.26-7.922-8.15-7.224-3.48-14.044-2.959-20.825-2.263-3.94.404-7.867.867-11.998 2.037zm-22.17 150.276c-14.346 2.158-26.1 4.087-33.265 5.017-1.085.14-2.065.258-2.81.7-1.783 1.06-2.212 3.982-2.184 6.901.07 7.145 2.882 14.267 5.687 16.134.71.473 1.42.609 2.395.69 4.926.413 16.63-.56 25.384-2.524 11.09-2.489 17.449-6.567 24.582-7.832 2.048-.363 4.16-.495 6.11-.7 10.76-1.132 16.583-4.512 18.338-9.115 1.104-2.896.597-6.276.208-10.334-.08-.834-.155-1.696-1.221-2.25-4.406-2.291-25.74.681-43.224 3.313m240.127-188.286c-3.607 2.286-5.881 5.107-8.283 8.66-1.215 1.797-2.462 3.78-3.577 6.024-3.39 6.823-5.55 16.042-.941 21.29 2.653 3.02 7.55 4.725 11.484 4.312 5.032-.53 8.49-4.527 12.576-8.409 4.206-3.995 9.075-7.868 11.655-13.004 3.129-6.23 2.89-14.317-.979-18.964a10.5 10.5 0 0 0-3.12-2.556c-5.43-2.888-13.546-.691-18.815 2.648zM1490.786 739.65c-27.166-25.607-39.21-58.824-43.64-79.866-3.163-15.027-2.444-23.846-4.789-38.162-.46-2.803-1.036-5.817-3.537-6.95-1.964-.891-5.114-.622-7.943 0-5.637 1.235-10.001 3.865-14.562 6.192-22.965 11.716-50.889 15.748-77.37 19.056-14.657 1.831-28.87 3.44-43.686 6.04-9.279 1.628-18.792 3.645-26.26 8.564-10.876 7.165-17.408 20.488-22.573 33.304-9.473 23.499-14.353 45.288-19.415 71.177-.974 4.977-1.954 10.105-1.324 14.12.82 5.234 4.375 8.577 9.946 8.984 6.406.467 15.479-2.95 23.1-4.866 2.944-.74 5.672-1.258 8.952-1.695 21.028-2.803 64.758-2.336 101.111 1.55 32.299 3.45 58.775 9.6 81.94 26.133 13.713 9.788 26.266 23.216 34.79 37.178 5.492 8.995 9.313 18.211 15.955 28.661 2.42 3.81 5.217 7.783 8.384 8.526 4.268 1.002 9.21-3.864 13.68-8.526 14.516-15.143 24.039-28.12 34.418-39.461 16.249-17.755 34.595-31.502 69.125-44.055 4.055-1.474 8.333-2.932 8.104-5.194-.152-1.507-2.305-3.371-4.448-4.621-5.53-3.226-10.988-2.363-16.458-1.78-11.171 1.193-22.39 1.219-33.807.445-18.091-1.225-36.68-4.456-52.489-10.76-14.715-5.867-27.022-14.396-37.204-23.993zm702.281-72.083c-26.858.93-44.873.72-53.042-.854-1.508-.29-2.68-.628-3.769-.919-3.9-1.042-6.732-1.49-13.628-4.178-4.723-1.842-11.353-4.734-14.744-2.684a4 4 0 0 0-1.385 1.411c-1.033 1.771-.845 4.508-.235 6.99 1.265 5.15 4.347 9.2 7.862 12.698 4.488 4.468 9.68 8.04 18.457 7.801 5.085-.138 11.373-1.555 11.365 1.672-.001.568-.199 1.281-.412 1.981-5.114 16.752-19.841 26.347-34.644 33.826-22.426 11.332-45.023 17.803-68.657 25.836-8.44 2.869-17.011 5.936-23.018 12.502-5.311 5.805-8.617 14.345-7.5 21.91.969 6.568 5.274 12.402 9.583 17.676 19.956 24.425 40.018 36.87 65.84 65.84 3.733 4.188 7.586 8.721 10.417 8.526 3.183-.22 5.072-6.418 7.804-12.375 1.422-3.101 3.072-6.137 5.48-9.927 17.044-26.828 72.075-91.438 105.894-125.821 18.03-18.333 30.03-28.07 61.197-50.313 4.214-3.008 8.779-6.244 12.57-10.165 6.078-6.289 10.167-14.34 6.863-15.908-1.888-.895-6.187.324-10.208 1.436-16.813 4.653-28.755 7.446-42.086 9.316-16.262 2.282-34.589 3.19-50.005 3.723zm312.706-59.883c-4.448 5.337-10.23 9.693-16.476 13.177-14.017 7.818-30.376 11.244-44.786 15.35-6.121 1.745-11.891 3.612-18.918 6.832-3.855 1.766-8.089 3.94-8.677 6.82-.6 2.945 2.608 6.628 5.443 9.883 6.921 7.946 11.616 13.344 18.634 20.279 2.407 2.38 5.089 4.94 7.863 5.242 3.195.349 6.514-2.298 9.736-4.868 18.743-14.952 34.203-27.317 50.146-38.676 13.536-9.644 27.42-18.562 46.463-27.054 4.364-1.946 9-3.87 10.15-6.984 1.29-3.487-1.79-8.468-4.518-13.034-12.277-20.558-17.427-32.742-27.197-54.388-1.275-2.826-2.63-5.814-4.218-8.69-2.13-3.858-4.682-7.515-6.794-7.286-2.285.247-4.057 5.041-4.42 9.863-.176 2.327-.024 4.66.127 6.869 1.037 15.304 1.93 24.647.174 35.925-1.576 10.123-5.286 21.807-12.731 30.74zm-1305.721 414.04c-9.4 5.404-17.308 12.075-23.741 19.405-5.722 6.52-10.277 13.561-13.24 23.844-1.777 6.163-2.982 13.492.684 16.334 2.304 1.787 6.532 1.801 10.209.318 2.187-.883 4.18-2.295 6.074-3.62 13.872-9.701 22.563-14.733 32.342-19.983 12.724-6.83 27.292-14.032 45.429-23.741 5.32-2.848 10.946-5.912 11.186-10.045.182-3.145-2.753-6.91-6.489-9.313-2.135-1.374-4.532-2.303-6.992-3.027-17.833-5.245-38.95.338-55.462 9.829zm-91.098 322.898c-11.955 3.634-26.1 9.418-33.243 16.051a21.6 21.6 0 0 0-2.76 3.074c-1.79 2.437-3.112 5.373-4.282 8.063-7.362 16.921-8.69 24.087-17.653 50.425-2.385 7.007-5.31 15.37-2.853 19.068 1.788 2.693 6.43 2.91 10.796 1.908 2.46-.566 4.833-1.519 7.253-2.557 17.486-7.504 37.452-19.47 52.65-32.099 12.975-10.781 22.477-22.046 34.898-37.465 1.818-2.258 3.7-4.604 5.01-7.243 2.84-5.724 2.993-12.825-.012-17.158-4.172-6.026-14.438-6.704-22.925-6.514-10.307.231-17.988 1.744-26.883 4.448zm1893.508-701.575c-5.717.916-10.548 3.013-14.972 6.82-4.262 3.67-8.146 8.928-7.486 13.975.68 5.205 6.195 10.185 11.646 11.479 7.91 1.877 15.687-4.015 21.293-10.48 2.725-3.142 4.937-6.42 5.157-10.315.203-3.579-1.276-7.68-3.992-9.815-3.016-2.37-7.557-2.319-11.645-1.664zm-70.372 234.546c-5.254-2.836-16.015 2.807-23.46 11.825-10.378 12.571-14.313 31.698-7.439 35.858 5.703 3.452 18.847-3.4 26.703-14.495 8.648-12.216 10.886-29.577 4.196-33.188m213.324-332.483c-.959 3.128 3.396 9.12 7.174 14.348 12.212 16.9 18.4 25.815 28.032 42.552 1.283 2.23 2.627 4.599 4.294 6.783 2.492 3.264 5.704 6.114 8.543 5.883 2.917-.238 5.44-3.73 7.725-7.289 1.288-2.007 2.5-4.035 3.766-6.25 8.13-14.227 18.444-36.165 26.628-49.203 1.242-1.978 2.435-3.752 3.187-5.639 1.193-2.992 1.277-6.27-.219-8.141-1.477-1.848-4.496-2.322-7.642-2.385-2.47-.05-5.02.154-7.768.366-18.88 1.457-47.195 3.297-61.906 4.832-2.17.226-4.045.446-5.945.83-2.612.527-5.272 1.364-5.869 3.313m-52.504 249.106c-9.114 5.52-9.363 7.972-6.382 12.505.998 1.518 2.358 3.27 3.538 5.098 6.31 9.773 7.48 21.74 9.872 26.904.446.962.934 1.688 1.484 2.39 1.446 1.845 3.321 3.521 5.825.346 1.164-1.477 2.465-4.004 3.826-6.748 7.965-16.051 18.016-39.514 21.864-46.948.796-1.536 1.326-2.388 1.39-3.36.198-3.07-4.281-7.335-11.418-5.218-1.281.38-2.648.966-4.842 1.986-5.998 2.787-18.178 8.816-25.158 13.044zm358.15-159.464c-15.857 2.145-29.075 5.924-42.747 9.957-7.982 2.355-16.119 4.796-22.645 11.994-2.3 2.538-4.402 5.667-3.928 8.135.572 2.988 4.916 5.007 9.011 6.192 11.539 3.337 21.112.05 30.733-2.08 12.274-2.716 24.623-3.545 38.357-8.55 6.02-2.194 12.308-5.19 13.633-10.534.997-4.017-.81-9.36-3.928-12.342-4.5-4.302-11.731-3.686-18.485-2.772zm-120.119 206.331c-2.667.995-5.166 2.092-6.499 4.124-1.762 2.688-1.485 7.013-.184 10.177 4.506 10.952 21.29 7.995 33.434 11.12 7.882 2.027 13.808 6.616 21.472 7.872 2.646.434 5.499.47 7.894-.048 12.13-2.622 12.534-19.457 16.918-36.215 1.899-7.258 4.544-14.5 2.147-17.178-2.672-2.984-11.609-.294-19.19 2.027-20.807 6.369-31.396 9.956-49.773 15.99-2.041.67-4.18 1.371-6.219 2.132zM3710.05 575.52c-5.163-.219-10.012-.18-14.532 1.434-4.185 1.494-8.087 4.34-11.264 7.472-4.469 4.405-7.5 9.378-9.268 16.602-1.017 4.153-1.616 9.05.445 10.922 2.105 1.911 6.984.667 11.144-.67 11.557-3.711 17.565-8.136 27.773-13.802 5.647-3.135 12.579-6.65 12.283-11.977-.101-1.84-1.066-3.896-2.39-5.423-3.327-3.841-8.923-4.333-14.193-4.557zm-106.773 341.462c-17.478 47.198-22.473 59.7-27.336 74.846a385 385 0 0 0-2.18 7.018c-1.666 5.545-3.482 12.028-2.214 15.324 1.848 4.806 10.252 2.835 17.966 1.024 39.884-9.364 61.27-14.452 81.378-18.93 2.609-.581 5.196-1.152 8.053-1.89 3.69-.951 7.83-2.181 8.39-4.938.586-2.893-2.77-7.466-5.212-10.983-.767-1.106-1.445-2.107-3.226-4.15-9.216-10.57-47.976-49.017-57.058-57.585-1.341-1.265-2.035-1.879-3.583-3.259-2.134-1.903-5.892-5.263-8.642-6.042-1.126-.32-2.083-.205-3.012 1.24-.965 1.5-1.9 4.434-2.966 7.354q-.177.486-.358.97zM2059.05 1352.123c2.074-3.374 4.979-7.875 7.972-11.958 2.164-2.95 4.374-5.683 5.654-8.472 2.127-4.633 1.69-9.424-.086-14.148-.89-2.372-2.118-4.727-3.43-6.346-1.328-1.64-2.743-2.525-4.458-2.143-4.162.926-10.095 9.31-16.9 16.721-6.287 6.847-13.32 12.863-17.914 16.463-1.906 1.494-3.392 2.572-3.312 4.439.103 2.406 2.81 6.123 4.989 9.264 3.061 4.415 5.077 7.692 8.73 11.937 1.819 2.115 4.044 4.47 6.236 3.92.736-.184 1.47-.697 2.07-1.34.732-.785 1.267-1.764 1.759-2.67 4.021-7.406 5.128-9.872 8.69-15.667m207.478-124.973c-10.854 9.185-25.893 21.254-31.48 32.583-.99 2.007-1.683 3.991 1.276 4.524 8.826 1.59 50.141-9.73 56.427-18.69 1.75-2.494.786-4.806-.442-7.022-5.41-9.77-15.916-17.68-23.144-13.4-.904.536-1.756 1.261-2.636 2.006zm275.645-27.244c-13.125-8.227-33.95-21.45-41.925-26.201-1.566-.933-2.637-1.54-3.81-1.929-4.584-1.522-10.73.261-14.437 3.523-5.258 4.626-5.614 12.225-6.35 19.697-1.514 15.389-4.64 30.237-13.689 40.365-12.622 14.126-36.766 19.068-56.494 18.518-12.514-.348-23.252-2.904-37.701.861-6.255 1.63-13.205 4.444-13.987 8.416-.75 3.811 4.178 8.688 8.826 12.937 11.596 10.6 21.457 17.295 27.344 27.9 5.288 9.526 7.37 22.204 9.006 33.912 9.677 69.224 3.79 104.522-9.006 207.257-.92 7.393-1.877 15.135 0 14.928 1.3-.143 3.959-4.097 6.565-7.985 89.025-132.814 116.004-187.436 182.891-302.127 3.601-6.175 7.317-12.523 5.494-18.203-1.738-5.41-8.505-10.213-12.577-13.036-7.993-5.54-5.61-3.454-30.149-18.835zm470.768-100.816c5.338-4.397 14.278-10.602 24.175-12.115 2.162-.331 4.37-.438 6.524-.556 8.47-.462 16.111-1.091 25.027-1.683 1.662-.11 3.368-.22 5.017-.744 4.888-1.553 9.267-6.752 10.629-10.909 1.114-3.402.209-6.105-1.45-8.988-4.089-7.107-12.755-15.31-22.935-19.515-3.874-1.601-7.966-2.623-11.016-1.153-2.395 1.154-4.148 3.844-6.021 6.276-4.79 6.222-10.37 10.762-16.21 15.229-27.561 21.084-60.88 40.53-89.745 54.47-18.015 8.701-34.296 15.257-59.847 22.22-3.258.887-6.666 1.78-9.783 3.179-3.601 1.615-6.814 3.903-7.009 6.37-.214 2.718 3.237 5.653 6.502 8.414 14.686 12.417 25.641 21.317 34.375 33.242 10.325 14.097 17.542 32.42 20.128 52.829 2.96 23.362-.151 49.456.259 70.915.065 3.399.218 6.68.405 9.305.445 6.264 1.08 8.777 1.935 9.75.214.245.442.392.833-.078 1.568-1.88 5.76-13.66 9.688-25.66 2.969-9.068 5.788-18.263 8.74-27.67 19.718-62.809 45.433-135.075 55.997-160.731 1.689-4.104 2.99-7.014 4.012-9.401 2.008-4.69 2.933-7.357 9.77-12.99zm241.341-29.34c-8.583.13-19.727.544-33.835.045-2.107-.074-4.279-.17-6.38.092-4.833.6-9.29 3.08-10.078 6.088-.816 3.111 2.296 6.787 5.607 10.648 1.55 1.809 3.145 3.659 5.103 6.202 11.945 15.518 37.404 56.842 45.078 66.564 1.574 1.994 2.4 2.658 3.273 3.404 3.07 2.624 6.725 6.26 9.159 5.802 2.663-.502 3.864-5.903 4.98-10.955 7.034-31.862 10.658-49.86 15.934-74.196.97-4.478 1.997-9.17-1.53-11.63-2.603-1.817-7.689-2.417-11.873-2.384-1.206.01-2.336.071-3.469.118-6.262.26-12.583.06-21.969.203z" style="display:inline"/><g style="display:inline"><path fill="#ed5900" d="M3155.23 1696.706c-10.787-2.271-27.657 3.343-40.018 7.982-13.836 5.193-22.023 9.164-28.382 14.786-7.94 7.02-13.029 16.615-18.18 26.585-30.27 58.575-62.694 130.112-86.69 177.652-3.199 6.337-6.247 12.247-8.858 18.204-3.91 8.92-6.838 17.944-3.529 17.47 1.43-.205 4.028-2.186 6.764-4.184 6.094-4.45 12.88-8.981 20.266-13.773 56.139-36.424 146.867-87.881 239.94-149.956 12.475-8.32 24.993-16.83 38.707-24.167 8.325-4.453 17.09-8.474 22.14-7.707 6.174.937 6.79 9.033 7.433 16.79 5.22 62.947 12.218 103.582 18.074 149.084.727 5.65 1.437 11.374 1.802 17.095.346 5.41.384 10.816 1.968 11.396 1.666.61 5.043-4.12 8.62-8.58 4.135-5.154 8.539-9.95 13.903-15.501 38.789-40.146 127.83-119.854 169.788-155.78 6.268-5.367 11.485-9.757 15.637-13.572 6.099-5.604 9.9-9.969 13.644-10.32 4.162-.39 8.254 4.18 12.013 9.176 4.504 5.984 8.531 12.576 13.015 19.72 32.544 51.837 89.113 132.616 121.222 186.652 5.396 9.082 10.102 17.408 14.986 25.924 11.265 19.64 23.482 40.285 29.797 30.686 5.677-8.63 6.584-41.702 7.577-63.332.66-14.367 1.356-23.687 2.052-33.042 5.212-70.115 10.346-142.235 18.886-196.911 2.97-19.019 6.354-35.926 11.068-67.746.622-4.194 1.266-8.647 2.166-13.117 1.272-6.316 3.053-12.665 6.397-14.26 3.84-1.833 9.738 2.597 15.457 6.94 67.414 51.2 109.887 90.357 152.051 123.858 13.808 10.97 27.581 21.335 50.565 39.596 6.519 5.18 13.779 10.995 16.545 7.622 1.066-1.3 1.465-3.966 1.627-6.706.219-3.685.011-7.504-.179-12.053-1.39-33.395-1.762-106.201-1.02-134.988.108-4.152.238-7.388.532-11.354.313-4.23.811-9.288 2.918-10.582.613-.376 1.363-.433 1.963-.511 2.738-.356 2.34-1.146 11.994 4.28 2.854 1.603 6.587 3.75 16.076 8.549 43.815 22.155 210.356 100.835 265.64 130.674 8.524 4.6 14.403 8.04 20.302 11.336 10.055 5.619 20.169 10.822 20.888 6.57.317-1.875-1.193-5.591-3.113-9.19-2.632-4.935-6.033-9.65-11.207-16.963-38.039-53.761-171.916-247.892-220.88-304.367-8.274-9.544-14.123-15.155-17.975-20.571-8.025-11.282-7.386-21.716-3.24-24.814 1.862-1.392 4.432-1.303 11.047-.906 38.2 2.289 211.283 14.823 274.453 21.062 9.76.964 16.896 1.778 23.847 2.837 11.954 1.821 23.361 4.369 23.109.996-.16-2.141-5.022-6.67-10.393-10.828-4.852-3.757-10.12-7.213-15.968-10.952-46.163-29.508-128.524-76.613-220.46-140.16-5.793-4.004-11.624-8.074-11.236-11.087.411-3.191 7.8-5.198 15.106-7.165 145.202-39.104 258.493-63.051 334.06-82.657 10.065-2.612 19.461-5.146 28.918-7.045 14.105-2.831 28.345-4.25 28.269-6.847-.072-2.456-12.946-5.965-25.806-9.687-6.127-1.774-12.25-3.596-20.356-5.926-55.933-16.081-206.198-56.361-325.214-83.161-3.185-.718-6.348-1.425-6.967-2.8-.507-1.127.695-2.702 2.404-5.023 2.945-3.998 7.393-10.208 12.392-16.956 37.41-50.509 105.667-131.182 175.622-206.287 9.466-10.163 18.963-20.225 27.37-30.383 5.77-6.973 11.027-13.991 9.723-17.331-1.534-3.929-12.14-2.771-23.164-1.556-10.232 1.127-20.824 2.305-31.369 3.46-74.26 8.128-146.183 15.118-199.833 27.373-7.435 1.698-14.518 3.496-21.399 3.461-6.058-.03-11.958-1.484-13.56-4.962-1.61-3.499 1.132-9.048 3.692-14.331 12.667-26.146 20.88-45.8 30.758-66.46 28.296-59.18 70.262-126.616 96.768-187.988 3.36-7.778 6.47-15.457 8.763-23.11 2.543-8.492 4.078-16.948 1.233-18.699-3.098-1.906-11.39 4.143-19.483 9.8-5.365 3.75-10.643 7.328-16.3 11.229-42.383 29.23-106.07 76.626-160.07 117.284-21.41 16.12-41.296 31.18-62.599 45.174-7.43 4.881-15.031 9.633-21.95 15.591-7.513 6.47-14.22 14.363-21.342 19.976-7.543 5.945-15.55 9.333-27.44 14.33-4.355 1.831-9.23 3.877-9.451 6.266-.217 2.354 4.082 5.04 8.785 6.415 3.934 1.15 8.15 1.383 12.214 1.572 28.204 1.313 49.164.527 62.751.07 2.145-.073 4.107-.137 6.109-.214 3.753-.142 7.648-.328 10.142-1.016 4.485-1.24 4.44-4.107 4.878-6.827 1.582-9.833 9.476-17.733 17.073-25.074 7.413-7.161 14.544-13.79 24.004-15.252 3.411-.528 7.125-.384 10.671 0 6.047.655 11.608 2.008 12.277 5.878.707 4.095-4.06 11.006-8.232 17.4-10.99 16.84-17.852 30.099-23.213 45.069-10.835 30.257-15.53 67.506-30.475 97.839-2.055 4.17-4.304 8.21-6.982 11.928-4.623 6.419-10.527 11.88-9.399 13.597 1.106 1.68 8.953-.228 16.762-2.083 101.784-24.176 196.91-39.152 230.641-44.925 4.47-.765 7.862-1.369 11.17-1.464 4.812-.139 9.445.8 9.225 2.947-.129 1.264-1.94 2.948-3.732 4.621-73.527 68.629-116.92 119.876-170.824 173.67-13.713 13.683-28.107 27.53-43.34 43.505-2.383 2.499-4.787 5.05-7.65 7.298-7.47 5.865-18.073 9.675-9.945 14.903 6.061 3.9 22.54 8.587 34.22 12.112 4.022 1.214 7.475 2.29 11.315 3.491 23.408 7.32 61.198 19.271 98.382 31.34 18.717 6.073 37.278 12.177 66.085 21.859 4.942 1.661 10.186 3.428 9.948 4.775-.224 1.27-5.313 2.168-9.958 2.985-75.93 13.362-33.007 5.244-111.394 23.662-11.414 2.682-25.4 5.926-41.27 10.056-30.08 7.827-66.924 18.834-78.454 22.719-2.575.867-3.888 1.38-5.497 1.931-6.381 2.188-17.436 4.996-17.292 10.643.106 4.196 6.394 9.959 12.662 14.96 5.162 4.118 10.309 7.72 15.661 11.454 37.038 25.843 83.891 58.016 105.395 68.1 3.19 1.496 5.823 2.506 11.054 5.727 7.42 4.57 20.07 13.591 25.767 19.724 1.978 2.13 3.118 3.912 2.143 5.08-1.291 1.545-6.287 2.016-11.153 2.424-58.224 4.885-97.932.846-136.554-.425-21.255-.7-42.184-.561-75.109 2.395-6.472.581-13.407 1.27-14.03 4.62-.396 2.135 1.774 5.351 4.031 8.512 12.623 17.674 27.994 33.62 39.838 47.457 5.555 6.49 10.334 12.516 15.354 19.054 30.642 39.92 70.23 98.958 89.47 118.84 2.844 2.94 5.245 5.024 6.81 8.113 2.18 4.3 2.742 10.547 1.165 12.854-2.255 3.3-8.882-1.45-15.275-5.074-3.799-2.153-7.515-3.908-11.698-5.81-30.61-13.913-86.225-35.643-162.608-69.425-11.95-5.286-24.41-10.867-25.518-6.748-.632 2.353 2.439 7.871 4.674 13.854 1.187 3.178 2.139 6.487 3.087 9.536 6.753 21.699 13.38 30.207 26.226 108.283 1.133 6.89 2.315 14.322 3.738 21.752.33 1.724.673 3.448.468 4.535-.962 5.096-13.992-3.842-42.173-25.408-39.562-30.276-108.986-85.438-165-119.865-9.159-5.629-17.958-10.703-21.7-7.563-2.806 2.355-2.766 9.332-3.227 16.466-.342 5.288-.96 10.662-1.53 15.816-4.367 39.437-6.03 66.024-8.983 92.636-4 36.052-10.365 72.152-16.36 125.446-.733 6.508-1.46 13.272-3.495 19.277-1.651 4.871-4.164 9.243-7.362 9.224-2.364-.015-5.103-2.428-7.49-4.863-6.907-7.044-10.873-14.27-15.13-21.161-3.036-4.918-6.22-9.666-9.337-14.435-21.045-32.219-38.965-65.447-56.835-91.399-2.513-3.65-5.026-7.156-7.95-10.185-2.93-3.034-6.273-5.589-9.285-5.251-2.717.304-5.164 2.962-7.732 5.696-5.034 5.358-10.534 11.007-16.57 17.104-45.557 46.01-121.73 117.505-147.937 144.959-4.476 4.69-7.494 8.093-10.57 11.39-6.6 7.076-13.462 13.66-17.076 13.987-1.052.095-1.828-.34-2.54-1.027-3.248-3.138-5.142-11.527-6.533-19.37-.872-4.908-1.546-9.603-2.263-14.64-4.59-32.25-10.918-78.541-13.939-102.173-.485-3.793-.884-7.003-1.834-10.39-1.89-6.744-5.96-14.192-11.53-17.05-4.913-2.519-10.994-1.466-18.007 1.411-14.245 5.844-32.335 19.215-46.568 29.47-40.749 29.361-49.863 33.185-71.843 48.08-10.427 7.065-23.75 16.623-40.27 27.489-2.508 1.65-5.09 3.33-7.853 4.377-6.67 2.528-14.397 1.376-18.006-2.886-2.808-3.315-3.122-8.512-1.621-14.11 2.55-9.505 10.334-20.164 12.746-20.674 2.55-.541-.899 10.244 18.372-44.076a2.013 2.013 0 0 0-1.482-2.642z"/><path fill="#ff0" d="M4110.224 730.803c4.173-6.394 8.94-13.306 8.232-17.399-.669-3.87-6.23-5.224-12.276-5.878-3.547-.384-7.26-.528-10.671 0-9.461 1.463-16.592 8.091-24.004 15.252-7.598 7.34-15.491 15.24-17.074 25.074-.437 2.72-.392 5.587-4.878 6.826a197.5 197.5 0 0 1 45.895 1.447c3.975-7.946 8.757-16.095 14.777-25.321z"/><path fill="#f5e848" d="M4072.06 933.626c-2.168 3.4-6.54 5.57-11.324 7.993-27.505 13.938-68.662 36.286-74.527 44.401-1.591 2.201-.586 3.355 1.655 4.161 10.581 3.807 48.714-.146 71.258 1.971 4.625.434 8.594 1.124 5.51 6.539-9.64 16.926-88.19 80.017-108 104.244-4.467 5.464-5.947 8.95-.28 13.02 20.213 14.511 131.315 36.43 149.427 50.512 4.406 3.427 3.304 6.39-4.942 8.897-32.085 9.756-172.325 12.62-200.33 24.626-9.889 4.24-5.78 9.62.589 15.69 37.034 35.291 150.507 93.92 140.072 103.9-10.895 10.422-156.937-32.218-186.608-28.225-10.205 1.374-6.643 8.264-1.186 16.498 33.249 50.163 136.819 150.165 114.163 151.003-18.247.674-118.376-62.981-142.841-68.646-5.999-1.389-7.45.708-7.9 5.25-1.97 19.865 15.22 86.516 32.209 127.85 3.21 7.81 6.412 14.718-2.297 9.776-23.583-13.382-134.513-113.655-165.265-128.634-8.235-4.014-10.717-1.91-12.603 6.31-9.05 39.461-4.354 219.854-24.766 189.72-9.608-14.183-24.778-75.011-45.16-78.956-4.894-.948-10.09 1.385-17.056 7.062-29.947 24.407-92.627 110.622-136.123 145.323-6.815 5.435-13.158 9.606-17.173 9.684-7.301.14-6.898-13.257-11.585-56.252a6671 6671 0 0 1-261.824 69.399 2.013 2.013 0 0 1 1.482 2.642c-19.27 54.32-15.822 43.535-18.372 44.076-2.412.512-10.197 11.169-12.746 20.676-1.5 5.597-1.187 10.794 1.621 14.11 3.609 4.261 11.337 5.414 18.006 2.885 2.763-1.047 5.345-2.727 7.853-4.377 16.521-10.866 29.844-20.423 40.27-27.49 21.98-14.893 31.094-18.718 71.843-48.079 14.233-10.255 32.324-23.625 46.568-29.47 7.014-2.877 13.095-3.93 18.007-1.41 5.57 2.857 9.64 10.305 11.53 17.05.95 3.386 1.35 6.596 1.834 10.39 3.021 23.631 9.35 69.92 13.94 102.172.716 5.037 1.39 9.732 2.262 14.64 1.391 7.842 3.285 16.231 6.533 19.37.712.686 1.488 1.122 2.54 1.027 3.613-.327 10.476-6.911 17.076-13.987 3.076-3.297 6.094-6.701 10.57-11.39 26.206-27.453 102.376-98.948 147.937-144.96 6.037-6.096 11.537-11.745 16.57-17.104 2.568-2.734 5.015-5.392 7.732-5.696 3.012-.337 6.355 2.218 9.285 5.251 2.925 3.03 5.437 6.536 7.95 10.186 17.87 25.952 35.79 59.18 56.835 91.398 3.116 4.77 6.3 9.518 9.338 14.436 4.255 6.892 8.222 14.118 15.129 21.162 2.387 2.435 5.126 4.848 7.49 4.862 3.198.02 5.71-4.352 7.362-9.224 2.035-6.005 2.762-12.768 3.494-19.276 5.996-53.29 12.362-89.389 16.361-125.447 2.953-26.612 4.616-53.198 8.983-92.636.57-5.154 1.188-10.528 1.53-15.816.46-7.133.42-14.11 3.227-16.466 3.742-3.14 12.542 1.935 21.7 7.563 56.016 34.425 125.435 89.587 165 119.865 28.182 21.566 41.21 30.504 42.173 25.408.205-1.086-.138-2.81-.468-4.535-1.422-7.43-2.604-14.862-3.738-21.752-12.846-78.076-19.473-86.585-26.226-108.284-.948-3.048-1.9-6.357-3.087-9.535-2.235-5.983-5.306-11.501-4.674-13.854 1.108-4.12 13.567 1.461 25.519 6.747 76.377 33.782 131.987 55.512 162.607 69.426 4.183 1.901 7.9 3.656 11.698 5.81 6.394 3.623 13.02 8.373 15.275 5.074 1.577-2.308 1.015-8.555-1.165-12.855-1.565-3.088-3.965-5.173-6.81-8.113-19.24-19.884-58.828-78.923-89.47-118.84-5.02-6.538-9.799-12.565-15.354-19.054-11.844-13.837-27.215-29.782-39.838-47.456-2.257-3.161-4.427-6.378-4.03-8.513.622-3.348 7.558-4.038 14.03-4.62 32.925-2.956 53.853-3.094 75.108-2.395 38.626 1.271 78.333 5.31 136.554.426 4.866-.408 9.862-.879 11.153-2.425.975-1.168-.165-2.95-2.143-5.08-5.697-6.133-18.346-15.154-25.767-19.724-5.23-3.22-7.863-4.23-11.054-5.727-21.504-10.084-68.357-42.257-105.395-68.1-5.352-3.734-10.499-7.336-15.66-11.454-6.268-5.002-12.556-10.764-12.663-14.96-.143-5.648 10.91-8.456 17.292-10.643 1.61-.552 2.922-1.064 5.497-1.932 11.53-3.884 48.374-14.89 78.455-22.719 15.869-4.13 29.855-7.374 41.27-10.056 78.386-18.417 35.464-10.299 111.393-23.662 4.645-.817 9.734-1.715 9.959-2.984.238-1.348-5.007-3.114-9.95-4.776-28.805-9.681-47.367-15.785-66.083-21.86-37.185-12.068-74.975-24.019-98.383-31.338a1142 1142 0 0 0-11.315-3.491c-11.68-3.526-28.159-8.214-34.22-12.112-8.127-5.229 2.475-9.04 9.944-14.903 2.865-2.25 5.268-4.8 7.651-7.3 15.233-15.973 29.626-29.82 43.34-43.503 53.909-53.791 97.298-105.044 170.824-173.67 1.793-1.674 3.603-3.357 3.732-4.621.22-2.148-4.413-3.086-9.226-2.948-3.307.096-6.698.7-11.169 1.465-31.034 5.312-114.052 18.416-206.419 39.31-17.206 8.485-2.178 31.383-9.007 42.09z"/><path fill="#f7c02f" d="M1319.73 295.21a261.5 261.5 0 0 0-120.803 25.684 39.07 39.07 0 0 0-19.974 22.356l-156.177 447.76c-2.934 8.41 4.474 16.788 13.182 14.91l99.575-21.49a54.86 54.86 0 0 0 41.178-38.555l33.77-118.233a17.265 17.265 0 0 1 15.844-12.506 429 429 0 0 0 82.093-11.625 375.7 375.7 0 0 0 88.916-33.924 127.58 127.58 0 0 0 64.156-84.015l19.14-83.618a57.35 57.35 0 0 0-4.092-37.38 101 101 0 0 0-10.911-17.923 121.27 121.27 0 0 0-83.136-47.068 773 773 0 0 0-62.76-4.375zm-15.61 66.744 61.642 1.4c11.86.27 21.01 10.531 19.925 22.345l-7.047 76.823a28.94 28.94 0 0 1-18.027 24.208l-92.914 37.326c-17.09 6.866-34.106-10.035-27.356-27.168l49.375-125.37a15.11 15.11 0 0 1 14.402-9.567zm401.082 319.533c-4.318-4.236-11.691-5.281-14.002-11.191-1.636-4.185-.733-10.81 2.88-12.364 1.309-.563 2.974-.46 4.572-.508a23.6 23.6 0 0 0 6.55-1.126c8.8-2.834 15.836-10.695 20.379-19.537 1.95-3.796 3.441-7.772 3.218-11.686-.193-3.373-1.659-6.7-3.218-9.94-4.315-8.97-9.34-17.285-12.878-25.89-2.24-5.446-3.883-11.008-7.501-16.696-3.096-4.867-7.638-9.826-12.316-2.964-4.59 10.242-10.332 19.971-17.646 28.87-12.23 14.88-28.859 27.44-47.713 29.185-15.379 1.425-32.24-4.346-43.034-15.152-9.672-9.683-14.475-23.41-17.15-37.109-3.636-18.606-3.35-37.164-1.248-55.508 1.938-16.913 5.421-33.643 9.979-50.207 7.354-26.726 17.506-53.018 33.55-75.476 7.476-10.466 16.232-20.099 27.218-27.219 7.487-4.852 16.01-8.536 24.729-8.756 8.71-.22 17.615 3.018 24.895 8.17 10.157 7.19 17.148 18.11 21.344 29.68 5.036 13.89 6.046 28.72 6.277 43.432a407.5 407.5 0 0 1-6.05 76.823c-1.256 7.195-2.707 14.394-4.47 21.509-.308 9.12 9.793 13.664 18.475 16.35 12.545 3.883 22.127 3.888 37.957 5.066 8.333.62 18.397 1.564 23.755-.437 3.909-1.46 5.315-4.488 6.995-8.385 4.9-11.36 12.128-30.114 14.883-40.191 3.23-14.883 6.141-29.869 8.812-45.145 5.745-32.863 10.373-67.067.579-98.701-7.207-23.275-22.222-45.16-41.948-59.283-19.98-14.306-44.792-20.65-69.624-23.735-30.522-3.792-61.073-2.658-90.194 6.33-28.348 8.749-55.342 24.941-74.37 47.074-13.144 15.29-22.488 33.412-30.856 52.388-11.111 25.2-20.502 51.902-27.458 75.927-10.97 37.885-15.887 69.113-19.139 97.779-1.904 16.79-3.238 32.7-3.07 56.58.038 5.361.152 11.123.85 16.805 3.175 25.821 18.429 49.956 38.442 66.342 24.25 19.855 55.49 28.333 86.837 30.994 27.662 2.348 55.408.169 80.837-9.156 14.502-5.317 28.249-12.958 40.914-22.303 4.943-5.61 4.212-15.488-1.041-20.642zm210.235-411.525c-20.463-.399-20.144 3.426-26.812 6.851-3.596 1.848-9.224 3.58-13.406 6.559-5.53 3.94-8.53 10.06-11.244 16.216-11.09 25.151-17.414 50.898-22.292 77.474-5.096 27.763-8.615 56.43-15.256 82.826-3.151 12.526-7.006 24.541-9.933 38.71-1.161 5.62-2.176 11.581 0 15.852 2.301 4.516 8.17 7.145 13.73 9.61 11.632 5.158 21.913 9.598 30.996 16.385 4.893 3.655 9.438 7.991 12.956 13.739 1.518 2.479 2.844 5.22 5.052 6.39 3.225 1.706 8.329.058 11.59-2.675 3.396-2.846 4.793-6.869 6.24-10.699 6.86-18.154 14.828-31.97 23.496-52.756 1.081-2.594 2.174-5.297 3.898-7.384 1.704-2.062 4.023-3.522 6.55-3.94 2.83-.47 5.92.369 8.38 1.915 1.946 1.225 3.496 2.894 4.919 4.522 9.784 11.196 13.516 20.476 24.382 37.688 1.576 2.495 3.301 5.158 4.871 7.863 1.95 3.358 3.658 6.782 6.365 8.916 4.617 3.638 12.14 3.524 18.687 2.006 12.537-2.905 21.504-10.954 32.082-16.294 4.556-2.301 9.41-4.1 14.423-5.675 3.312-1.04 6.692-1.984 10.111-1.612 3.51.382 7.059 2.15 9.368 4.759 3.071 3.468 3.95 8.423 4.461 13.238.607 5.72.695 11.241 3.569 16.208 1.581 2.734 4.007 5.3 6.691 6.216 4.902 1.675 10.669-2.15 14.776-7.401 3.44-4.398 5.717-9.796 7.861-14.957 14.875-35.81 23.35-60.206 31.125-89.735 2.385-9.058 4.704-18.6 7.096-28.048 11.336-44.79 24.306-87.519 38.107-134.987 1.94-6.677 3.898-13.446 6.348-19.974 2.453-6.539 5.4-12.835 4.065-19.336-.807-3.927-3.177-7.929-6.488-10.091-3.633-2.373-8.401-2.53-12.974-2.235-12.584.812-23.694 5.042-34.708 10.38-6.347 3.076-12.663 6.52-17.729 11.029-5.613 4.994-9.692 11.293-12.762 19.292-6.265 16.325-8.326 39.727-12.152 55.989-1.122 4.769-2.396 8.923-3.56 12.527-6.51 20.142-9.6 23.048-22.826 51.993-2.428 5.312-5.197 11.502-10.005 17.447-.752.93-1.554 1.854-2.804 2.512-2.895 1.525-8.195 1.626-10.056-.708-.87-1.09-.988-2.712-1.082-4.37-.62-10.924-.177-23.384.757-33.673 1.622-17.883 4.722-29.214 6.91-38.888 2.423-10.706 3.73-19.38 12.718-44.576 3.17-8.884 7.294-19.822 8.872-27.328 1.598-7.595.59-11.675-3.749-13.259-3.886-1.418-10.443-.834-16.543 0-16.158 2.21-29.102 6.175-42.167 11.933-6.409 2.824-12.847 6.08-18.813 10.401-4.888 3.54-9.46 7.795-12.002 12.888-3.262 6.535-3.183 14.45-3.568 22.313-1.073 21.897-5.748 43.388-11.029 61.954-4.764 16.748-10.02 31.116-22.503 52.118-3.414 5.743-7.369 11.984-10.12 11.774-2.945-.223-4.51-7.838-5.019-15.269-.226-3.311-.242-6.587-.237-9.673.035-20.856 1.033-33.123 2.929-48.34 1.752-14.07 4.272-30.662 9.11-45.374 2.604-7.917 5.88-15.29 6.686-23.99.61-6.594-.196-13.95-4.191-18.401-5.314-5.92-16.27-6.698-24.146-6.852zm511.691-77.852c-97.342 18.095-159 26.555-177.31 32.173-2.428.744-4.094 1.44-6.063 2.293-2.871 1.244-6.388 2.824-9.828 6.156-4.512 4.37-8.892 11.75-12.36 19.245-4.01 8.664-6.802 17.479-9.557 27.01-22.408 77.541-42.359 202.547-88.775 300.275-3.364 7.082-6.867 14.021-6.404 21.165.412 6.363 3.972 12.888 8.888 17.577 5.502 5.249 12.704 8.197 20.052 9.333 3.508.542 7.049.671 11.396.495 30.023-1.213 98.506-16.952 147.286-24.313 11.098-1.675 21.176-2.916 31.74-6.33 4.572-1.477 9.236-3.361 12.286-6.73 2.712-2.996 4.148-7.165 5.46-11.197 6.42-19.715 9.904-36.157 13.57-59.382.702-4.45 1.412-9.15 0-11.672-2.19-3.913-9.482-2.585-16.3-1.188-22.792 4.672-40.266 10.125-58.36 12.86-8.364 1.264-16.86 1.948-27.986 0-5.646-.988-11.97-2.654-13.349-6.55-.324-.917-.375-1.958-.398-2.996-.108-4.935.412-9.8 1.08-15.083 1.281-10.141 3.104-21.819 7.548-30.157 3.839-7.202 9.633-11.911 17.368-16.618 8.059-4.903 18.224-9.804 27.683-12.28 17.507-4.583 32.592-.86 50.851-.34 8.547.242 17.79-.216 23.203-5.307 3.81-3.583 5.725-9.46 7.552-14.951 4.98-14.97 9.31-27.084 11.937-44.07.766-4.957 1.388-10.33-.765-13.305-3.017-4.167-11.48-3.623-18.554-2.1-11.34 2.44-19.109 7.4-28.117 10.27-9.055 2.886-19.362 3.662-29.647 5.135-10.397 1.49-20.772 3.691-30.413 0-3.796-1.453-7.478-3.82-9.755-6.947-4.745-6.516-3.385-16.33-1.125-24.934 1.844-7.02 4.286-13.234 7.937-18.747 5.731-8.654 14.439-15.578 23.812-21.309 7.141-4.364 14.668-8.036 22.538-9.48 2.603-.478 5.242-.712 7.888-.89 15.812-1.065 31.845-.126 48.29-.17 2.747-.01 5.507-.041 8.016-.772 5.488-1.599 9.778-6.527 13.379-11.463 12.123-16.618 16.442-33.319 26.346-53.143 4.141-8.289 9.259-17.122 5.9-24.088-2.258-4.682-8.346-8.52-14.794-7.817-.716.078-1.437.212-2.156.346zm172.292-15.298c-5.469-.145-16.344.476-37.108 2.288-12.577 1.097-28.782 2.632-43.962 5.418-11.582 2.125-22.567 4.979-31.861 11.263-5.417 3.662-10.26 8.49-13.837 14.066-2.15 3.352-3.843 6.974-5.457 10.648-11.845 26.963-19.448 56.749-25.682 82.992-9.248 38.93-15.482 70.062-24.79 112.1-10.074 45.498-23.747 103.774-43.84 147.274-2.484 5.376-5.066 10.527-5.335 16.39-.257 5.592 1.588 11.833 4.658 15.761 7.162 9.165 20.988 5.739 32.098 3.04 3.415-.83 6.575-1.59 9.479-2.305 14.834-3.654 23-6.114 30.66-9.003a144 144 0 0 0 7.77-3.173c13.88-6.196 17.9-11.61 21.055-18.504 3.45-7.538 5.862-16.846 7.831-24.843 2.578-10.468 4.396-18.69 6.8-32.483.426-2.45.872-5.076 1.393-7.9 1.759-9.518 4.383-21.277 8.46-28.092 2.288-3.825 5.034-6.094 8.391-6.666 4.276-.728 9.543 1.297 13.515 4.58 7.056 5.835 10.022 15.648 13.654 24.626 3.652 9.028 7.979 17.212 12.137 25.58 5.562 11.194 10.824 22.718 18.205 33.206 3.293 4.68 7.009 9.153 11.758 12.137 6.513 4.093 14.969 5.385 22.754 4.371 7.728-1.006 14.793-4.286 21.998-6.721 11.827-3.998 24.033-5.718 35.651-12.441 4.4-2.546 8.716-5.81 10.24-9.983 1.769-4.843-.223-10.91-2.654-16.385-6.911-15.564-17.364-26.343-27.309-38.485-12.475-15.23-24.15-32.606-37.166-46.075-6.677-6.909-13.707-12.788-18.964-23.713-1.38-2.87-2.64-6.089-1.517-7.831 1.02-1.582 4-1.948 6.827-2.41 16.513-2.704 27.766-8.71 38.988-16.385 15.194-10.39 30.33-23.84 41.182-39.78 14.367-21.103 21.22-46.575 21.916-72.57.663-24.756-4.257-49.986-28.353-66.392-21.126-14.384-56.993-21.988-56.554-28.43.174-2.559 6.082-4.934-3.031-5.176zm-36.698 77.702c6.515.044 12.765 1.302 19.438 3.003 7.716 1.967 15.999 4.526 20.29 10.218 3.679 4.881 4.421 12.066 4.284 19.003-.25 12.688-3.446 24.549-10.136 34.155-4.9 7.036-11.675 12.862-18.154 18.747-6.744 6.124-13.164 12.312-22.005 15.923-7.961 3.253-17.885 4.416-24.456.554-7.826-4.601-10.895-16.335-11.82-26.636-.51-5.659-.37-10.885.512-15.998 1.644-9.527 5.872-18.655 7.833-28.782 1.243-6.42 1.575-13.243 4.802-18.293 4.356-6.814 13.989-10.399 22.782-11.504a50 50 0 0 1 6.629-.39z"/><path fill="#f88f00" d="M1308.931 792.45c-13.711-.025-27.48.72-41.236 2.312-44.196 5.117-88.243 18.982-128.05 31.823-41.135 13.269-77.74 25.445-129.67 42.167-1.15.37-2.307.743-3.443 1.094-9.086 2.81-16.795 4.265-25.245 8.568-1.599.814-3.225 1.73-4.64 2.915-3.845 3.218-6.138 8.42-8.391 13.8-9.724 23.213-18.694 49.781-29.032 80.185-80.31 236.19-243.249 703.814-280.696 811.81-5.414 15.618-8.204 23.715-9.871 31.864-2.035 9.945-2.4 19.967 2.298 23.64 4.828 3.774 15 .845 24.898-2.075 129.77-38.28 212.783-74.99 304.676-120.207 89.998-44.283 188.506-96.722 279.34-157.732 78.462-52.71 151.19-111.824 194.34-197.573 18.033-35.842 30.9-76.338 22.327-113.666-5.263-22.918-18.612-44.64-36.13-61.269-11.713-11.118-25.29-19.96-40.387-25.111-16.105-5.497-33.94-6.795-50.194-7.385-11.943-.434-23.031-.486-36.781.549-1.937.146-3.927.312-5.858.213-3.668-.188-7.127-1.337-6.909-3.283.159-1.416 2.267-3.254 6.017-4.99 3.324-1.537 7.938-2.995 12.78-4.82 33.876-12.778 78.882-43.626 109.567-81.564 6.511-8.05 12.378-16.42 17.98-24.734 20.72-30.746 37.832-60.736 43.262-97.072 5.74-38.413-1.577-83.915-28.394-109.147-14.36-13.51-34.31-21.208-54.091-26.852-19.21-5.48-38.258-9.027-57.572-11.155-13.524-1.49-27.177-2.286-40.889-2.311zm-53.75 121.918c7.718-.074 15.408.551 23.069 2.406 13.7 3.317 27.306 10.566 35.792 20.82 10.613 12.824 13.217 30.346 9.61 45.316-4.39 18.22-17.98 32.662-34.958 46.5-27.165 22.14-63.009 42.737-91.625 58.179-32.612 17.596-55.84 28.494-95.791 44.299-6.366 2.519-13.157 5.163-20.139 7.68-16.907 6.097-34.931 11.455-39.008 5.306-2.134-3.217-.446-9.586 1.316-16.025 10.73-39.215 24.257-81.052 38.757-120.053 2.13-5.73 4.281-11.397 6.398-17.192 2.84-7.773 5.62-15.773 10.263-22.508 5.368-7.785 13.226-13.88 21.27-19.104 20.817-13.52 42.882-21.213 68.956-26.811 13.592-2.918 28.272-5.266 42.852-7.028 7.775-.939 15.521-1.71 23.239-1.783zm-99.22 337.016c9.647.077 19.19 1.14 27.408 5.34 11.313 5.782 20.113 17.509 24.156 29.899 8.524 26.112-4.074 55.164-20.302 78.425-24.373 34.933-56.933 56.8-90.516 80.974-10.021 7.214-20.133 14.633-29.385 21.193-46.453 32.94-71.198 44.23-116.523 66.59-6.298 3.106-12.993 6.428-20.738 8.333-6.988 1.72-14.83 2.286-17.153-1.133-1.884-2.774-.138-8.17 1.605-13.76 2.818-9.042 5.626-18.594 8.236-27.682 21.878-76.17 29.946-119.854 50.719-181.546 1.849-5.492 3.799-11.126 7.07-15.745 4.97-7.02 12.992-11.697 21.211-15.427 10.539-4.783 21.404-8.013 31.798-10.927 16.679-4.675 32.141-8.533 52.24-13.496 20.424-5.044 45.635-11.228 70.178-11.033z"/><path fill="#532bb2" d="M2124.57 1078.905a325.948 317.234 0 0 0-651.896 0 325.948 317.234 0 0 0 651.896 0"/><path fill="#3811a2" d="M1609.68 884.277c-10.046 14.469-25.55 30.93-38.017 48.424-24.233 34.003-36.996 71.91-44.194 111.195-8.185 44.677-9.176 91.142 3.176 136.024 18.181 66.072 65.27 128.734 130.135 154.776 14.294 5.739 29.45 9.7 44.74 12.846 60.64 12.473 123.384 12.11 173.35-.23 11.8-2.914 22.887-6.496 33.848-10.59 46.42-17.34 90.556-43.877 111.074-85.35 4.6-9.295 8.012-19.34 11.949-29.078 2.936-7.262 6.163-14.352 9.406-21.473 10.678-23.448 21.525-47.231 27.51-72.12 15.263-63.49-1.125-134.17-36.915-193.414-20.072-33.223-46.246-62.847-72.776-83.052-25.727-19.594-51.79-30.33-96.616-37.416-10.017-1.584-20.97-2.985-32.528-3.58-52.298-2.695-116.953 11.118-102.572 15.331 6.649 1.948 30.185 1.844 49.971 2.795 27.86 1.338 48.286 4.764 69.533 11.452 28.45 8.956 58.372 23.758 82.915 45.04 46.078 39.955 73.194 102.745 68.506 163.368-6.108 78.95-66.157 154.224-140.922 182.66-61.4 23.354-132.726 15.111-188.815-15.85-51.148-28.234-89.63-75.36-105.056-137.172-1.723-6.904-3.158-13.99 0-19.296 2.215-3.72 6.688-6.566 8.732-10.338 2.602-4.805 1.262-11.116 0-17.236-3.138-15.21-5.798-29.253-3.203-42.711 3.484-18.077 16.447-35.097 27.608-50.47 8.675-11.948 16.262-22.9 24.523-36.864 1.198-2.025 2.41-4.114 3.073-6.356 1.396-4.72.358-10.119-3.368-13.355-3.174-2.758-8.298-3.947-11.45-2.04-1.478.894-2.523 2.47-3.634 4.07z"/><path fill="#5939b0" d="M1810.871 745.87c-3.103-.224-6.256-.623-8.566-2.067-6.008-3.756-6.315-14.577-3.642-22.628 3.687-11.102 13.042-16.936 22.552-22.142 7.433-4.07 14.96-7.756 22.63-10.104-2.412 6.672 1.678 15.047.497 21.835-2.105 12.087-20.925 19.144-11.84 34.565-7.026.607-14.185 1.079-21.63.541z"/><path fill="#fff" d="M1844.293 710.761c-2.105 12.087-20.925 19.144-11.84 34.566 14.79-1.279 28.983-3.157 43.987 2.522 3.847 1.456 7.747 3.409 11.152 2.416 3.348-.976 6.217-4.802 7.111-8.682 1.58-6.86-3.016-13.894-1.778-19.764 1.203-5.699 7.905-10.3 9.697-16.647 1.28-4.529.058-9.946-2.678-13.486-5.086-6.582-15.405-6.674-24.715-6.527-10.808.17-20.258.664-29.497 3.205q-.97.267-1.938.563c-2.41 6.671 1.68 15.046.498 21.834z"/><path fill="#240c6f" d="M1982.17 727.262c-2.302-1.968-3.516-4.443-6.98-7.732-5.236-4.969-15.61-11.795-25.026-15.608-7.772-3.147-14.89-4.241-23.852-4.88-3.654-.262-7.615-.447-9.821 1.45-2.345 2.017-2.706 6.387-2.339 10.29.421 4.468 1.799 8.326 1.37 12.004-.452 3.874-2.907 7.549-4.643 11.847-2.532 6.268-3.534 13.863-.312 18.552 2.655 3.865 8.18 5.756 13.424 7.327 10.256 3.074 19.438 4.926 28.198 9.977 4.695 2.707 9.27 6.333 14.632 6.548 2.878.115 5.983-.752 8.597.312.79.321 1.536.82 2.191 1.403.644.573 1.2 1.23 1.718 1.918-1.689-9.961-2.827-21.033 1.164-30.676 1.033-2.496 2.41-4.896 2.51-7.583.187-5.001-4.044-10.996 5.743-11.11-2.454-1.342-4.828-2.545-6.574-4.038z"/><path fill="#fff" d="M1983.935 786.186c2.92 1.953 7.615 2.118 10.445 0 1.292-.967 2.195-2.41 2.665-3.972.383-1.276.478-2.63.563-3.858.667-9.541.818-11.351 1.043-15.663.249-4.777.59-12.624.185-19.034-.072-1.133-.167-2.221-.454-3.229-.962-3.366-4.076-5.834-7.356-7.807a65 65 0 0 0-2.34-1.331c-9.787.114-5.556 6.108-5.743 11.11-.1 2.686-1.477 5.087-2.51 7.583-3.99 9.642-2.853 20.714-1.164 30.676 1.47 1.952 2.64 4.17 4.666 5.525"/><path fill="#b08cfa" d="M1751.75 894.061a53.4 53.4 0 0 0-20.478-3.597c-8.618.197-17.144 2.514-25.676 2.317-9.382-.217-18.77-3.475-28.174-3.13-8.019.293-16.05 3.206-22.976 7.51-12 7.459-20.68 19.094-26.851 32.15-8.915 18.858-12.595 40.676-7.89 59.99 3.786 15.543 13.001 29.465 23.379 42.712 8.587 10.962 17.969 21.463 29.382 27.574 16.684 8.933 37.708 8.482 58.806 3.429 4.84-1.16 9.684-2.56 11.569-6.983 1.026-2.408 1.174-5.711 2.843-6.784 1.376-.885 3.785-.254 6.066 0 8.712.967 15.551-3.588 21.394-8.897 11.565-10.508 19.226-23.97 25.52-38.107 6.005-13.487 10.767-27.59 10.171-42.555-.28-7.058-1.753-14.309-5.462-19.9-4.406-6.64-11.966-10.943-18.104-16.516-7.583-6.885-12.996-15.709-20.819-21.976-3.777-3.026-8.116-5.455-12.699-7.236z"/><path fill="#fff" d="M1722.078 1027.063a62.666 61.866 74.721 0 0-33.027-120.902 62.666 61.866 74.721 0 0 33.027 120.902"/><path fill="#fde743" d="M1835.91 640.675c1.05-2.943 1.065-5.688-1.164-8.287-2.395-2.793-7.382-5.417-8.274-3.526-.35.741-.07 2.176 0 3.526.19 3.646-1.148 6.666-3.039 9.03-2.299 2.872-5.415 4.773-10.397 5.1-3.162.208-7.075-.219-7.35 0-.362.287 5.539 1.684 8.81 3.918 3.304 2.256 3.928 5.365 3.64 9.03-.238 3.031-1.1 6.442.393 8.043 1.059 1.136 3.303 1.361 5.493 1.57 20.159 1.922 35.66 2.484 52.453 3.924 20.719 1.776 43.402 4.888 63.748 12.163 13.353 4.774 25.698 11.34 39.741 15.323 6.161 1.747 12.65 2.997 18.687 0 1.573-.782 3.117-1.852 3.53-3.356.463-1.68-.482-3.903 0-5.44.456-1.448 2.176-2.288 3.898-3.323 2.846-1.711 5.694-3.955 5.74-6.226.044-2.219-2.586-4.464-5.235-6.408-7.647-5.612-15.44-8.707-19.193-14.229-3.433-5.052-3.481-12.136-3.437-21.59.031-6.531.105-14.193-2.81-14.838-2.22-.492-6.177 3.09-10.048 5.604-4.97 3.228-9.8 4.698-14.235 3.938-4.332-.742-8.286-3.612-12.015-7.987-6.321-7.417-11.994-19.161-16.822-17.755-3.415.994-6.407 8.567-9.916 14.176-4.05 6.473-8.788 10.331-14.513 13.71-5.21 3.074-11.236 5.75-17.588 4.551-5.525-1.043-11.297-5.018-15.397-3.544-4.226 1.52-6.676 8.828-10.555 12.403-3.822 3.521-9.032 3.42-15.7 3.298-5.122-.092-11.104-.198-12.007-2.77-.78-2.223 2.227-6.285 3.562-10.028"/><path fill="#f19107" d="M2006.105 688.37c-1.72 1.035-3.441 1.875-3.896 3.322-.483 1.538.462 3.76 0 5.44-.414 1.505-1.958 2.575-3.531 3.357a17 17 0 0 1-5.1 1.592c4.6 6.766 9.337 17.16 16.934 20.49 5.856 2.565 13.412.933 20.54-1.02 18.092-4.958 33.435-11.984 49.53-16.462 8.72-2.426 17.66-4.105 27.242-7.575 2.533-.917 5.111-1.96 6.264-4.079 1.743-3.206.224-8.875-2.914-10.926-1.648-1.077-3.744-1.156-5.827-1.165-9.361-.043-18.455 1.302-26.645 1.91-8.53.635-16.08.47-27.823.429-3.439-.012-7.238-.013-7.918-1.926-.447-1.256.45-3.335 1.498-5.137 4.242-7.293 10.958-10.034 17.12-13.27 9.411-4.939 17.532-11.03 28.68-16.478 4.01-1.96 8.412-3.837 9.416-7.277.925-3.171-1.038-7.67-3.852-10.273-4.425-4.092-10.954-3.494-16.907-3.424-16.34.19-28.357-3.604-47.161-4.12-7.257-.2-15.524.089-17.978-3.25-3.07-4.174 2.952-14.02 8.448-21.227 7.6-9.97 14.195-14.893 17.328-26.426 1.44-5.3 2.148-11.995-.433-14.513-3.001-2.928-10.448-.212-16.679 2.6-10.135 4.573-17.05 9.397-23.827 13.646-8.2 5.142-16.197 9.443-29.676 14.946-5.853 2.39-12.74 5.007-14.296 1.95-.771-1.515-.235-4.422 0-7.149.89-10.36-2.585-18.111-6.282-26.426-1.232-2.77-2.488-5.604-3.249-8.447-2.229-8.325-.215-16.738-3.899-26.21-1.666-4.284-4.496-8.784-7.798-9.098-3.046-.29-6.494 2.983-9.098 6.282-5.184 6.568-7.023 13.234-8.88 20.144-4.507 16.762-9.128 34.958-23.201 48.097-2.408 2.248-5.093 4.349-7.893 4.604-3.308.302-6.777-1.971-9.865-4.385-7.725-6.036-13.069-12.948-18.197-19.95-3.591-4.904-7.076-9.85-13.373-13.373-1.594-.892-3.368-1.692-4.603-1.315-1.747.532-2.416 3.417-2.85 6.138-2.352 14.748 2.213 24.72-1.79 36.627-1.477 4.392-4.12 9.048-7.988 10.917-3.81 1.84-8.809.977-13.313-.533-6.967-2.335-12.75-6.219-18.638-8.786-9.495-4.14-19.26-4.86-30.886-12.248-4.334-2.755-8.926-6.436-11.182-5.326-2.34 1.153-2.167 7.462-1.331 12.781 1.698 10.81 6.13 17.525 10.384 23.963 5.611 8.494 10.912 16.505 20.501 27.692 3.025 3.528 6.477 7.372 5.592 9.319-.88 1.936-6.052 1.993-10.65 1.863-15.976-.452-25.02-3.17-37.543 1.332-2.437.876-5.006 2.025-6.124 3.994-1.396 2.458-.527 6.193 1.065 9.07 2.84 5.13 7.98 7.529 12.78 10.1 8.812 4.72 16.479 10.023 26.36 14.112 4.11 1.7 8.6 3.19 12.249 2.13 4.042-1.175 7.05-5.482 10.384-9.053 8.146-8.724 18.246-13.052 28.725-17.29-2.19-.208-4.434-.433-5.493-1.569-1.493-1.601-.631-5.012-.393-8.043.288-3.665-.336-6.774-3.64-9.03-3.271-2.234-9.172-3.631-8.81-3.918-2.605-4.053-1.035-8.633 1.56-12.477 4.33-6.411 11.513-10.772 19.226-5.18.893-1.89 5.88.733 8.275 3.526 2.228 2.6 2.213 5.345 1.163 8.288-.406 1.138-.966 2.306-1.528 3.443 5.498-6.196 14.674-10.265 16.848-19.227.952-3.923.562-8.784 2.649-10.912 2.66-2.711 9.342-.983 14.196 1.801 5.514 3.163 8.667 7.69 13.243 9.429 5.41 2.056 12.808.213 19.069-2.437 4.657-1.97 8.685-4.387 11.793-8.09 3.523-4.197 5.864-10.047 10.551-12.31 3.897-1.88 9.415-1.283 13.44 1.005 4.274 2.429 6.865 6.762 9.798 10.426 2.35 2.935 4.919 5.44 8.165 8.039 1.878 1.504 3.982 3.038 5.904 3.015 2.848-.036 5.296-3.495 8.039-5.653 4.125-3.246 8.917-3.542 14.193-4.145 2.812-.321 5.762-.73 7.874.341 2.925 1.482 4.242 5.801 4.757 9.825.856 6.677-.496 12.542.724 18.1 1.595 7.261 7.583 14 13.273 19.594 2.39 2.35 4.73 4.499 7.198 6.86 1.589 1.52 3.232 3.128 3.662 5.25.878 4.33-3.288 10.796-7.94 7.115-.045 2.272-2.894 4.515-5.74 6.227z"/><path fill="#f88f00" d="M2125.673 876.6c-5.114 8.65-9.478 16.849-12.745 26.094-1.393 3.945-2.587 8.08-2.596 12.116-.015 7.037 3.573 13.772 6.83 20.495 9.131 18.848 15.66 37.608 20.638 56.936 10.023 38.923 13.753 80.156 8.17 121.685-2.842 21.13-8.094 42.334-14.426 60.354-3.52 10.015-7.372 19.047-13.51 31.01-.924 1.8-1.9 3.665-2.313 5.568-.972 4.474 1.16 9.152 4.477 11.453 2.52 1.748 5.72 2.125 8.963 2.344 5.956.402 12.052.27 16.849-2.383 4.003-2.214 7.101-6.184 9.87-10.21 4.902-7.126 8.774-14.428 12.254-21.944 9.805-21.17 16.503-44.033 24.679-66.358 7.438-20.31 16.099-40.174 25.436-59.173 9.33-18.989 19.337-37.111 32.92-55.319 6.742-9.039 14.367-18.098 23.553-21.6 3.12-1.188 6.42-1.736 9.663-1.591 3.619.161 7.167 1.184 10.356 3.222 6.126 3.918 10.922 11.588 13.17 19.178 3.081 10.407 1.371 20.663-1.317 31.872-5.393 22.483-14.726 48.797-18.737 61.181-2.274 7.02-2.84 9.565-8.488 23.042-3.645 8.695-9.405 21.94-11.595 33.048-2.138 10.841-.877 19.649 4.817 22.315 3.808 1.783 9.597.82 15.266 0 34.774-5.03 64.994-4.675 90.948-22.315 6.014-4.087 11.8-9.141 15.396-15.291 4.386-7.501 5.517-16.634 7.192-25.469 3.695-19.487 10.04-37.532 17.465-55.695 10.269-25.118 22.601-50.458 36.76-71.867 8.933-13.51 18.594-25.453 30.971-39.67 1.706-1.96 3.463-3.962 5.57-5.443 3.674-2.584 8.412-3.583 11.637-2.264 3.942 1.612 5.623 6.69 6.983 11.434 1.945 6.786 3.234 12.89 3.949 18.947 3.606 30.586-7.457 59.926-17.7 100.838-1.3 5.188-2.585 10.56-4.222 15.856-1.822 5.895-4.08 11.693-4.154 18.105-.092 8.09 3.292 17.157 9.018 21.616 8.693 6.77 22.786 2.918 35.56 0 20.77-4.745 38.055-7.023 55.746-15.346 4.94-2.324 9.91-5.118 13.392-9.012 5.46-6.105 7.263-14.914 9.223-23.57 14.4-63.595 37.288-118.905 54.383-177.839 12.706-43.797 22.212-89.595 24.987-135.936 1.927-32.183.609-64.626-9.908-95.475-6.364-18.668-16.095-36.752-31.979-48.489-11.405-8.427-25.981-13.582-39.688-12.815-15.254.855-29.431 9.045-43.024 17.405-19.66 12.092-38.095 24.54-54.907 38.619-10.782 9.028-20.897 18.728-34.738 25.429-11.412 5.524-25.357 9.01-35.286 3.826-5.615-2.932-9.946-8.637-14.352-14.03-5.862-7.172-11.856-13.79-19.254-18.493-15.057-9.57-35.926-11.192-53.927-6.695-18.753 4.684-34.392 16.009-49.487 27.487-32.705 24.87-62.845 50.463-92.071 81.038-33.703 35.257-66.19 77.137-86.667 111.78zm840.5-336.443c-.23.018-.459.047-.69.075-9.498 1.21-21.056 3.877-31.982 5.8-13.046 2.296-25.192 3.532-38.556 4.397-4.84.313-9.84.577-13.801 2.654-4.148 2.175-7.158 6.338-10.01 10.683-10.005 15.247-18.06 32.75-26.267 50.248-63.578 135.55-136.223 270.802-172.666 369.081-5.208 14.044-9.676 27.333-15.26 40.105-6.292 14.395-14.004 28.133-20.862 41.385-3.601 6.959-6.967 13.783-9.5 22.445-1.282 4.38-2.35 9.228-.656 12.305 2.101 3.814 8.447 4.908 14.283 5.022 5.888.115 11.259-.767 16.568-1.65 42.51-7.076 80.955-14.298 120.074-23.828 43.247-10.534 87.32-23.89 130.851-38.533 22.979-7.73 45.807-15.817 66.72-27.067 40.111-21.576 73.177-54.778 96.824-98.47 13.546-25.03 24.002-53.5 14.766-77.72-6.739-17.67-23.96-33.078-39.25-42.323-14.707-8.893-27.627-12.084-54.753-9.217-7.224.764-15.454 1.957-14.772.642.45-.868 4.79-2.831 8.67-4.496 10.948-4.696 18.236-7.02 25.694-9.957 40.667-16.02 86.343-50.338 115.596-96.003 11.398-17.795 20.302-37.311 23.667-52.68 3.068-14.009 1.535-24.571-12.54-42.379-7.905-10-19.765-22.286-30.225-27.01-6.276-2.835-12.048-2.947-17.855-2.157-7.595 1.033-15.25 3.61-22.639 6.388-3.065 1.153-6.084 2.34-9.182 3.309-15.805 4.946-33.65 4.21-49.642 4.011-9.516-.118-18.376-.046-29.616-1.075-4.501-.412-9.383-1-11.317-3.572-2.197-2.92-.591-8.398 1.706-13.372.917-1.984 1.944-3.887 1.33-5.21-.584-1.259-2.65-1.992-4.712-1.834zm16.246 64.414c3.935-.026 8.17.553 13.289 1.142 8.891 1.024 20.446 2.079 29.184 6.782 6.375 3.431 11.25 8.803 13.273 14.14 3.077 8.121-.448 16.163-4.96 23.804-6.22 10.536-14.317 20.312-24.422 28.814-11.6 9.759-25.85 17.838-39.226 23.344-12.303 5.065-23.867 7.953-39.93 10.298-2.204.322-4.492.632-6.728.468-3.824-.282-7.495-1.956-9.533-4.5-3.785-4.725-1.94-12.45 1.13-19.385 1.564-3.532 3.447-6.859 5.236-10.033 12.59-22.333 20.648-37.067 33.355-56.159a80 80 0 0 1 1.44-2.11c4.467-6.261 10.736-11.452 16.415-14.112 3.914-1.834 7.545-2.466 11.478-2.493zm-71.676 232.517c12.78.359 25.096 2.313 35.527 8.143 6.824 3.814 12.843 9.288 15.356 16.817 2.279 6.823 1.68 15.333-.592 22.232-2.001 6.078-5.299 10.904-9.169 15.651-9.163 11.24-21.533 22.033-34.342 31.178-15.033 10.733-30.673 19.197-47.33 26.886-9.957 4.595-20.277 8.913-29.85 12.943-11.036 4.647-21.08 8.912-35.557 11.95-4.708.988-9.885 1.846-12.2 0-2.787-2.223-1.424-8.367.564-14.305 1.603-4.786 3.612-9.438 5.479-13.811 12.88-30.168 19.05-47.117 29.859-72.72 1.675-3.967 3.462-8.143 5.575-12.103 3.676-6.888 8.342-13.125 14.335-17.7 4.38-3.343 9.468-5.798 14.72-7.801 15.195-5.795 31.768-7.807 47.625-7.362zm354.9-303.88c-6.853 1.65-13.979 3.381-18.273 8-2.832 3.044-4.433 7.345-6.054 11.678-53.079 141.914-127.178 318.993-160.632 415.441-4.162 11.999-7.695 22.75-10.36 33.25-2.563 10.104-4.324 19.976.885 23.06 3.234 1.915 9.154 1.213 14.766.464 20.745-2.77 37.268-6.192 53.86-9.044 46.201-7.943 92.946-11.476 149.128-18.05 7.164-.838 14.48-1.726 21.138-3.553 7.707-2.115 14.53-5.489 19.609-10.697 7.067-7.246 10.76-18.043 13.756-28.046 5.225-17.441 8.337-32.466 13.667-51.916.782-2.85 1.61-5.797 1.988-8.814.822-6.57-.498-13.475-4.533-16.683-4.23-3.362-11.444-2.663-18.146-1.696-13.97 2.016-25.718 5.196-37.203 7.682-10.04 2.174-19.877 3.818-32.206 5.688-1.818.276-3.69.557-5.547.51-4.12-.104-8.167-1.823-9.792-4.606-2.045-3.504-.253-8.695 1.396-13.604 6.801-20.241 11.191-35.694 17.19-53.587.99-2.953 2.025-5.973 3.443-8.867 3.707-7.565 10.038-14.272 17.279-17.669 2.095-.983 4.266-1.69 6.579-2.342 10.509-2.965 23.931-4.82 36.425-6.106a782 782 0 0 1 10.51-.995c15.515-1.38 30.138-2.489 46.167-5.523 2.612-.494 5.262-1.04 7.845-1.806 5.417-1.606 10.54-4.181 13.601-8.356 2.54-3.464 3.658-8.028 4.901-12.338 6.74-23.36 17.134-39.207 24.997-67.489 1.252-4.503 2.44-9.322.321-11.456-1.792-1.804-5.948-1.688-9.58-1.447-4.745.315-8.595.844-12.572 1.447-13.898 2.107-29.335 5.11-43.717 7.335-3.137.485-6.223.933-9.303 1.38-13.596 1.973-27.055 3.92-42.651 2.741-3.229-.244-6.549-.622-8.58-2.027-5.094-3.525-2.07-13.512.815-22.103 7.465-22.237 13.992-35.128 22.068-52.822 1.332-2.919 2.706-5.968 4.893-8.077 2.884-2.78 7.182-3.924 11.418-4.978 25.928-6.45 49.528-9.538 74.972-13.046 3.923-.54 7.89-1.091 11.889-1.606 10.058-1.293 20.317-2.354 28.626-7.149 8.851-5.108 15.491-14.454 20.552-23.874 6.312-11.75 10.168-23.613 14.75-37.06 1.896-5.563 3.917-11.396 1.888-15.852-1.924-4.228-7.495-7.217-13.129-8.065-1.731-.26-3.469-.32-5.16-.306-8.636.067-16.065 2.01-23.8 3.522-6.004 1.173-12.192 2.085-18.32 3.003-46.264 6.929-89.058 14.147-181.766 36.46zm540.479-78.501c-9.513-.492-32.118 3.14-51.223 5.183-18.362 1.963-33.491 2.456-49.207 5.203-16.172 2.826-32.967 8.04-49.83 10.478-15.718 2.273-31.494 2.135-47.276 4.216-14.547 1.918-29.097 5.72-42.458 10.537-10.382 3.743-20.046 8.1-29.74 15.52-3.275 2.506-6.554 5.363-8.803 8.608-2.693 3.885-3.913 8.329-5.121 12.758-5.988 21.954-11.734 43.588-18.258 65.636-19.39 65.534-45.634 134.723-65.574 191.594-16.753 47.782-29.056 86.86-52.572 155.78-2.818 8.26-5.798 16.952-9.908 24.669-2.703 5.076-5.895 9.732-4.457 13.062 1.176 2.721 5.444 4.556 9.936 5.526 5.16 1.113 10.615 1.083 15.636 1.034 40.82-.4 52.964-2.117 80.186-11.595 6.843-2.383 14.638-5.257 20.57-9.736 3.731-2.817 6.727-6.27 9.028-10.297 1.793-3.138 3.164-6.625 4.695-10.947 10.499-29.644 28.467-98.595 33.165-119.909.708-3.21 1.115-5.34 2.282-7.107 1.783-2.701 5.341-4.557 8.395-4.367 3.19.199 5.83 2.629 8.372 5.022 17.938 16.893 30.968 31.917 46.878 50.508 13.943 16.294 30.1 35.327 39.345 45.816 2.233 2.534 4.063 4.568 7.473 6.524 4.11 2.356 10.514 4.598 16.672 5.362 2.505.31 4.968.376 7.713.45 15.956.432 41.406 1.13 56.185-3.682 2.294-.747 4.331-1.627 6.145-2.99 3.176-2.387 5.667-6.258 9.278-7.531 2.003-.707 4.35-.613 6.595-.565 10.61.23 18.91-.522 31.277-.943 5.96-.204 12.864-.33 14.602-3.768 1.524-3.017-.927-8.58-3.296-12.812-2.61-4.661-5.12-7.706-7.717-11.717-3.542-5.47-7.248-12.736-13.01-15.791-3.03-1.607-6.629-2.05-10.175-2.37-15.48-1.399-29.973-.48-45.597 0-19.176.59-40.056.517-55.96 0-3.542-.115-6.836-.252-12.03-1.172-.865-.153-1.783-.328-2.488-.793-2.108-1.39-2.314-5.38-2.251-9.233.312-19.207 7.293-35.082 20.634-40.187 5.052-1.934 11.016-2.323 15.94-6.211 2.841-2.245 5.336-5.655 4.864-8.592-.351-2.187-2.349-4.11-4.244-6.002-7.885-7.867-14.022-15.148-19.425-23.618-4.1-6.426-7.78-13.537-14.15-18.387-3.095-2.357-6.826-4.18-9.867-5.737-.647-.332-1.262-.65-1.784-1.099-2.245-1.927-2.753-6.231-3.102-10.214-.388-4.438-.579-8.476 1.004-11.663.302-.607.669-1.185 1.183-1.659 1.93-1.777 5.947-2.108 7.258-4.076.976-1.465.451-3.839.235-6.124-.752-7.927 2.214-14.806 6.928-20.092a31.9 31.9 0 0 1 9.662-7.355c3.384-1.675 7.133-2.791 10.836-3.86 26.027-7.513 49.773-12.667 75.478-17.752 5.865-1.16 11.833-2.317 17.773-3.598 24.174-5.214 47.914-12.498 66.746-27.994 15.634-12.864 27.883-31.387 31.453-51.25 3.705-20.607-1.934-42.656-13.404-60.934-7.63-12.16-17.84-22.65-29.815-28.875-5.499-2.858-11.371-4.817-17.4-7.78-3.22-1.581-6.483-3.448-8.187-6.04-1.547-2.352-1.809-5.301.41-9.225 1.853-3.28 5.439-7.242 4.082-7.747-.15-.056-.363-.068-.582-.08zM3690.79 537.43c9.987-.247 19.873.738 29.816 2.802 10.437 2.168 20.938 5.523 28.423 13.437 4.04 4.272 7.201 9.873 5.868 15.924-1.557 7.066-9.244 14.745-15.675 20.864-15.759 14.996-23.965 20.62-34.284 27.104a620 620 0 0 1-8.844 5.452c-15.498 9.372-23.395 13.078-70.649 31.294-.478.184-.961.37-1.446.54-3.875 1.37-7.908 1.818-9.093.169-.84-1.168-.25-3.388.241-5.257 3.641-13.848 1.818-8.37 2.56-10.853 1.33-4.453 10.916-34.52 19.234-66.35 2.071-7.926 4.064-15.962 7.135-21.042 3.825-6.326 9.323-8.07 14.995-9.523 10.233-2.62 21.033-4.296 31.72-4.56zm-1959.557 902.493c-2.338 5.66-6.103 13.937-9.66 21.674-32.021 69.635-47.274 95.609-67.164 133.069-38.608 72.697-94.692 188.649-135.153 269.831-15.017 30.136-27.881 55.484-48.23 101.103-7.663 17.18-16.386 37.233-9.566 41.084 4.728 2.669 16.923-2.445 28.394-6.968 67.17-26.479 109.565-32.663 162.376-54.2 12.244-4.993 25.048-10.812 34.262-20.035 8.44-8.45 13.868-19.76 19.637-30.577 4.7-8.815 9.628-17.304 14.397-25.496 37.07-63.68 64.558-109.458 105.919-205.007 2.616-6.044 5.288-12.288 8.274-11.994 2.36.232 4.918 4.55 6.491 9.177.966 2.84 1.562 5.798 2.12 8.6 3.657 18.36 5.714 30.074 6.97 44.647.322 3.755.592 7.7.83 11.204 1.101 16.241 1.51 23.027 2.134 31.323 1.581 21.01 4.554 51.707 6.87 83.162.324 4.409.636 8.832 1.65 13.1 1.89 7.963 6.225 15.382 12.409 18.196 6.41 2.916 14.81.884 22.882-1.265 25.49-6.785 47.71-14.722 65.871-29.99 9.142-7.685 17.256-17.228 23.441-24.897 4.126-5.115 7.394-9.396 11.016-16.12 4.4-8.169 9.324-19.943 13.898-30.889 33.24-79.557 47.967-115.331 83.7-193.26 4.854-10.585 10.095-21.949 16.968-31.24 4.933-6.669 10.707-12.27 13.726-10.538 2.75 1.577 3.214 9.236 3.489 16 .662 16.3.222 27.399 0 39.467-.704 38.161.761 86.016 0 124.807-.446 22.676-1.652 42.25-.234 71.198.188 3.83.421 7.825.133 11.769-.416 5.687-1.918 11.27.1 13.568 2.449 2.786 10.076.74 16.849-1.067 45.454-12.13 52.386-13.51 102.27-26.75 7.097-1.883 15.063-4.006 20.377-5.344 10.476-2.637 10.642-2.22 10.712-4.01.05-1.282.05-3.699.014-6.124-.044-2.887-.143-5.785-.177-9.423-.249-26.383 2.896-91.633 7.055-150.176 2.052-28.878 4.35-56.126 6.22-78.82 11.172-135.55 7.074-108.722 16.411-197.76 1.237-11.794 2.71-25.62 2.807-40.845.05-7.714-.253-15.787-5.105-21.48-2.935-3.446-7.536-6.02-11.853-6.208-6.168-.268-11.756 4.34-17.672 7.3-10.016 5.01-20.975 5.298-31.77 6.198-12.852 1.07-25.47 3.01-38.243 4.728-22.02 2.964-44.496 5.275-65.012 13.658-26.12 10.674-49.065 31.191-62.738 56.722-6.114 11.416-10.374 23.834-14.72 34.836-8.973 22.715-18.314 39.398-28.885 61.322-8.297 17.204-17.35 37.636-33.568 63.069-10.105 15.847-22.99 33.635-29.241 27.407-3.326-3.314-4.773-13.423-6.16-22.215-3.86-24.491-7.245-38.76-9.92-55.695-1.977-12.514-3.567-26.484-4.71-41.535-.418-5.486-.776-11.115-4.249-14.632-2.601-2.634-6.95-4.082-10.768-3.775-4.935.396-8.984 3.725-13.183 6.607-13.612 9.345-28.806 14.003-44.678 16.992-18.825 3.546-38.604 4.744-56.732 5.446-4.045.157-8.007.289-12.054.416-16.252.513-33.864.958-54.809-.072-3.084-.152-6.241-.336-9.292-.783-4.152-.61-8.108-1.708-9.84-.862-1.462.714-1.34 2.813-5.289 12.376zm1060.222-299.69c-4.765.258-9.767 1.203-14.678 2.061-27.811 4.86-52.736 6.903-77.61 15.292-11.678 3.939-23.348 9.276-33.198 16.657-17.078 12.798-28.69 31.738-40.118 50.375-71.591 116.766-135.914 221.652-206.993 337.965-24.087 39.413-48.95 80.139-70.423 114.35-10.933 17.42-20.988 33.148-32.975 57.909-1.69 3.492-3.42 7.165-4.627 11.01-2.307 7.35-2.709 15.328.834 20.434 3.942 5.684 12.77 7.81 21.556 7.223 5.564-.371 11.112-1.83 16.362-3.225 38.963-10.344 61.534-17.081 91.844-25.613 13.135-3.697 27.723-7.73 39.586-15.591 10.231-6.78 18.434-16.405 25.044-26.819 16.334-25.73 22.943-56.273 39.306-81.7 8.828-13.719 20.495-25.948 34.513-34.66 14.06-8.737 30.485-13.935 45.976-17.105 15.786-3.23 30.603-4.356 48.99-5.899 2.607-.218 5.284-.444 7.925-.23 5.144.416 10.147 2.504 12.25 6.26 1.583 2.83 1.52 6.604 1.419 10.3-.427 15.532-1.566 29.676-.356 43.687.842 9.745 2.822 19.428 7.46 29.456 1.63 3.524 3.587 7.09 6.393 8.549 3.855 2.005 9.311.03 14.563-1.775 38.857-13.364 66.55-17.505 105.133-26.994 6.324-1.556 12.943-3.254 15.985-7.814 1.746-2.616 2.315-6.174 2.62-9.8.618-7.36.145-15.007-.35-22.508-4.2-63.821-9.991-117.174-15.084-173.847-6.6-73.441-12.024-152.449-10.205-228.094.2-8.34.49-16.64-1.797-25.11-2.525-9.354-8.192-18.913-16.086-22.678-3.966-1.891-8.493-2.32-13.259-2.062zm-103.374 201.422c.434-.052.815.096 1.131.476 1.277 1.534 1.508 6.86 1.745 11.659.646 13.069 1.338 22.22 2.077 32.04a7486 7486 0 0 1 2.94 40.206c.298 4.255.598 8.607-.958 11.796-2.925 5.994-12.4 7.886-20.195 9.318-11.736 2.155-19.666 3.266-32.761 6.932-6.38 1.787-13.987 4.18-16.209 1.857-2.255-2.357 1.04-9.573 4.106-16.045 9.195-19.404 16.344-32.108 23.362-43.82 5.875-9.806 11.658-18.917 21.302-35.698 4.742-8.252 10.42-18.36 13.46-18.721m422.477-250.065c-15.241 3.354-32.388 6.74-48.452 12.81-12.217 4.617-23.81 10.786-32.81 19.4-10.237 9.798-17.121 22.759-22.974 36.6-3.273 7.742-6.224 15.76-9.115 23.894-20.848 58.664-38.589 123.395-55.03 180.796-19.818 69.19-37.747 127.718-54.455 192.83-2.057 8.013-4.094 16.126-7.6 23.58-3.066 6.52-7.255 12.536-9.972 20.76-2.461 7.45-3.714 16.713 0 20.737 3.782 4.097 12.715 2.762 21.07 1.42 38.142-6.125 64.24-12.391 94.648-18.338 9.648-1.888 19.73-3.743 29.757-7.094 12.062-4.031 24.041-10.227 31.099-19.676 7.574-10.143 9.476-24.033 11.66-37.74 6.987-43.849 16.861-85.827 27.59-123.317 7.77-27.15 15.988-51.94 27.866-87.179 1.959-5.811 4.017-11.906 7.64-13.018 3.68-1.13 8.976 2.89 13.64 7.015 25.276 22.36 32.006 47.878 43.105 71.072 18.712 39.105 49.84 71.6 73.465 119.336 3.119 6.302 6.107 12.869 11.167 14.747 4.026 1.495 9.362.022 14.674-1.09 17.666-3.702 35.056-3.427 46.99-13.657 4.54-3.891 8.29-9.301 11.036-14.993 2.967-6.147 4.765-12.624 6.429-18.614 11.944-42.995 17.057-60.97 34.438-131.678 2.373-9.651 4.974-20.284 7.331-27.745 1.787-5.653 3.433-9.484 1.207-11.066-1.12-.796-3.219-1.023-5.278-1.292-7.837-1.02-15.1-2.64-25.1-2.579-4.495.028-9.542.394-11.123-2.21-1.97-3.245 1.44-11.103 6.38-12.607 3.122-.95 6.855.638 8.93 0 3.983-1.222 1.859-10.642 3.645-16.748 1.339-4.577 4.875-7.292 6.952-10.805 2.251-3.807 2.79-8.551 2.347-13.723-.348-4.072-1.303-8.41 0-10.961 2.26-4.423 11.306-3.48 18.285-5.158 11.778-2.832 17.667-13.127 22.126-23.209 15.054-34.037 13.814-65.63 26.526-104.957 1.786-5.526 3.847-11.204 1.41-15.145-1.411-2.282-4.33-3.98-7.298-4.928-4.236-1.352-8.57-1.172-12.571 0-7.515 2.2-13.852 7.899-21.057 10.687-7.62 2.948-16.21 2.642-24.679 3.814-10.51 1.454-20.833 5.184-30.996 0-5.96-3.04-11.865-9.146-10.958-14.5.569-3.36 3.819-6.424 3.934-10.702.168-6.209-6.266-14.975-9.822-13.316-1.655.772-2.687 3.805-3.663 6.777-10.059 30.627-14.224 54.876-18.18 77.273-2.266 12.826-4.463 25.043-7.434 44.846-1.699 11.327-3.65 25.135-9.638 24.148-2.57-.424-5.884-3.574-8.94-6.683-16.411-16.7-25.376-32.237-36.42-47.617-10.387-14.465-22.613-28.791-34.103-44.895-8.405-11.78-16.415-24.51-28.475-29.831-8.944-3.947-20.114-3.817-30.46-2.75-13.335 1.376-25.298 4.31-38.744 7.27z"/></g><path fill="#d03602" d="M1428.642 1063.727c6.511-8.05 12.377-16.42 17.98-24.733 20.718-30.746 37.832-60.736 43.26-97.072 5.74-38.413-1.576-83.918-28.393-109.15-14.36-13.509-34.31-21.207-54.091-26.851-19.21-5.48-38.258-9.025-57.573-11.154-27.049-2.98-54.617-3.185-82.127 0-44.195 5.117-88.242 18.982-128.05 31.821-41.135 13.27-77.74 25.445-129.67 42.166-1.15.37-2.307.743-3.443 1.094-9.086 2.81-16.793 4.266-25.244 8.57-1.599.813-3.224 1.73-4.64 2.915-3.845 3.218-6.139 8.418-8.393 13.798-9.723 23.212-18.692 49.78-29.03 80.186-14.923 43.884-32.698 95.76-51.99 151.83 14.352 0 29.577-.121 43.982-.906 28.704-1.564 54.155-5.754 85.231-9.898 10.767-1.436 22.207-2.866 31.899-4.915 9.821-34.013 21.484-69.352 33.856-102.629 2.13-5.73 4.28-11.397 6.398-17.192 2.84-7.773 5.619-15.774 10.262-22.509 5.368-7.785 13.226-13.88 21.27-19.105 20.817-13.521 42.883-21.212 68.957-26.81 13.592-2.917 28.272-5.266 42.853-7.027 15.549-1.878 30.986-3.089 46.307.621 13.7 3.317 27.306 10.568 35.793 20.822 10.613 12.825 13.216 30.346 9.61 45.316-4.39 18.221-17.978 32.66-34.958 46.5-20.54 16.74-46.041 32.599-69.63 46.014 14.84-1.977 29.936-3.22 44.83-4.175 28.979-1.857 57.19-2.615 87.431-1.1 22.777 1.141 46.704 3.573 68.631 3.705a242 242 0 0 0 8.68-10.135zm-586.994 423.957c-27.321-2.732-53.243-4.44-80.287 3.425-46.59 134.248-86.559 249.095-102.83 296.028-5.413 15.618-8.203 23.714-9.87 31.862-2.036 9.945-2.399 19.967 2.3 23.64 4.827 3.774 14.997.845 24.897-2.075 129.77-38.28 212.783-74.991 304.676-120.207 89.998-44.283 188.506-96.722 279.34-157.732 73.633-49.466 142.222-104.57 186.034-182.042-38.88-11.01-74.899-6.47-110.132 2.97-42.639 11.424-84.128 30.022-128.71 36.219-19.85 2.76-40.312 3.06-59.503-1.94a131 131 0 0 1-8.964-2.707c-13.409 10.678-27.562 20.578-41.9 30.9-10.021 7.214-20.133 14.633-29.384 21.193-46.453 32.94-71.197 44.23-116.523 66.59-6.298 3.106-12.993 6.426-20.738 8.332-6.988 1.719-14.831 2.286-17.154-1.133-1.884-2.774-.137-8.17 1.606-13.76 2.818-9.042 5.625-18.592 8.235-27.68a2186 2186 0 0 0 3.255-11.448c-27.384 6.174-56.589 2.34-84.348-.437zM2690.97 767.015c1.927-32.183.609-64.626-9.908-95.475-6.364-18.667-16.095-36.751-31.979-48.489-11.405-8.427-25.981-13.582-39.689-12.814-15.253.855-29.43 9.044-43.023 17.404-19.66 12.093-38.095 24.54-54.907 38.619-10.782 9.029-20.897 18.728-34.738 25.429-11.412 5.524-25.357 9.01-35.286 3.826-5.615-2.932-9.946-8.637-14.352-14.03-5.862-7.172-11.856-13.79-19.254-18.492-15.057-9.57-35.926-11.193-53.927-6.696-18.753 4.684-34.393 16.01-49.487 27.487-32.705 24.871-62.845 50.463-92.072 81.038a710 710 0 0 0-27.245 30.231c37.188 5.368 73.888 5.144 110.61 2.519 43.087-3.08 86.206-9.465 129.407-14.675 54.893-6.62 109.91-11.34 165.022-12.487 33.466-.697 66.967-.076 100.461 2.206q.201-2.799.368-5.601zm436.244-91.275c11.398-17.795 20.303-37.311 23.668-52.68 3.068-14.01 1.533-24.572-12.542-42.379-7.905-10-19.765-22.286-30.225-27.01-6.276-2.835-12.047-2.948-17.854-2.158-7.595 1.033-15.25 3.61-22.638 6.388-3.065 1.153-6.084 2.341-9.182 3.31-15.805 4.947-33.65 4.21-49.643 4.01-9.515-.118-18.375-.045-29.614-1.074-4.502-.412-9.384-1-11.319-3.571-2.197-2.92-.589-8.399 1.708-13.373.917-1.984 1.943-3.888 1.329-5.211-.584-1.258-2.65-1.992-4.712-1.834-.23.017-.458.046-.689.075-9.499 1.21-21.056 3.876-31.983 5.8-13.045 2.295-25.192 3.532-38.556 4.397-4.84.313-9.84.577-13.8 2.655-4.148 2.174-7.158 6.336-10.01 10.681-10.005 15.247-18.061 32.75-26.268 50.25-12.08 25.754-24.486 51.497-36.91 76.979 6.567-2.256 14.397-1.63 21.757-.816 13.025 1.441 24.576 3.474 35.993-3.64 7.343-4.575 14.63-12.934 20.221-11.505 2.993.764 5.5 4.33 9.706 7.799 6.806 5.611 18.06 10.963 17.39 10.177-.01-.011-.017-.02.055 0 .425-1.188.904-2.37 1.418-3.53 1.563-3.532 3.444-6.86 5.233-10.034 12.59-22.332 20.65-37.067 33.357-56.159a80 80 0 0 1 1.438-2.108c4.468-6.262 10.737-11.452 16.417-14.113 7.826-3.666 14.532-2.529 24.767-1.35 8.891 1.024 20.445 2.079 29.183 6.782 6.375 3.43 11.25 8.803 13.273 14.14 3.077 8.12-.447 16.162-4.959 23.803a111.5 111.5 0 0 1-9.967 14.224c5.973 1.466 11.962 3.554 17.986 5.117 14.363 3.728 28.921 4.473 43.677 5.251 13.412.708 26.987 1.443 40.108 4.056q1.109-1.665 2.188-3.349zm211.669-65.497c1.332-2.919 2.707-5.968 4.894-8.077 2.884-2.78 7.182-3.924 11.418-4.978 25.928-6.45 49.528-9.538 74.971-13.046 3.924-.54 7.891-1.092 11.89-1.606 10.058-1.293 20.316-2.354 28.625-7.15 8.852-5.107 15.492-14.453 20.553-23.873 6.312-11.75 10.167-23.613 14.75-37.06 1.896-5.563 3.916-11.397 1.888-15.852-1.925-4.228-7.495-7.217-13.13-8.065-1.73-.261-3.468-.32-5.159-.307-8.636.068-16.065 2.011-23.8 3.523-6.004 1.173-12.193 2.085-18.32 3.003-46.265 6.929-89.059 14.147-181.766 36.459-6.853 1.65-13.979 3.381-18.273 7.999-2.832 3.045-4.433 7.345-6.054 11.679-12.829 34.301-26.887 70.658-41.301 107.433 15.064-1.201 29.887-2.046 44.853-2.384 24.112-.544 48.597.228 72.917 2.107 7.044-20.418 13.338-32.925 21.042-49.802zm-1032.205 658.381c-2.935-3.446-7.536-6.02-11.853-6.207-6.168-.268-11.756 4.34-17.673 7.3-10.016 5.01-20.975 5.298-31.77 6.198-12.851 1.07-25.47 3.01-38.243 4.728-22.02 2.964-44.495 5.275-65.011 13.658-11.855 4.844-23.054 11.715-33.03 20.162 1.52 3.095 3.39 6.11 5.54 8.757 3.803 4.681 8.487 8.216 13.686 9.02 3.868.599 8.02-.313 12.131-1.244 29.78-6.744 57.37-14.478 85.54-22.085 23.845-6.438 48.108-12.784 72.165-19.596q6.802-1.925 13.575-3.905c-.21-6.182-1.185-12.242-5.057-16.787zm935.691-106.882c-10.387-14.465-22.613-28.791-34.103-44.895-8.404-11.78-16.415-24.51-28.475-29.832-8.943-3.946-20.114-3.817-30.46-2.75-13.335 1.377-25.298 4.31-38.744 7.27-15.242 3.354-32.388 6.74-48.452 12.81-12.217 4.617-23.81 10.787-32.81 19.4-10.237 9.798-17.122 22.759-22.974 36.6-3.274 7.742-6.224 15.76-9.115 23.894a1342 1342 0 0 0-9.73 28.434 1302 1302 0 0 1 37.544-7.78c58.81-11.291 118.42-18.604 178.192-22.504a1615 1615 0 0 1 51.661-2.533c-4.236-6.102-8.225-12.12-12.53-18.114zm-421.463 3.308c-2.526-9.352-8.192-18.91-16.086-22.675-7.932-3.783-18.114-1.716-27.936 0-27.811 4.859-52.738 6.902-77.61 15.291-11.68 3.939-23.348 9.277-33.198 16.658-17.078 12.797-28.69 31.737-40.118 50.375l-2.5 4.078c9.443 1.35 19.755 3.543 29.677 4.434 10.574.95 20.706.419 28.86-4.198 7.496-4.243 13.32-11.939 20.465-17.316 10.576-7.957 24.046-10.834 37.256-13.643 15.798-3.36 31.222-6.624 46.7-8.396 12.007-1.374 24.046-1.85 36.317-.777.193-7.911.341-15.795-1.828-23.83z" style="display:inline"/></svg>