<!-- Created by ERK --><svg xmlns="http://www.w3.org/2000/svg" xml:space="preserve" width="750" height="300"><path d="M496.879 34.318q-9.405 0-9.406 9.604v124.824h28.216v-96.02q0-7.49 3.856-5.761l71.387 44.17 84.648 53.673q6.02 3.938 9.406 3.938 9.406-.001 9.407-9.604V34.318h-28.217v96.02q0 7.49-3.858 5.761l-71.386-44.17-84.649-53.673q-6.019-3.938-9.404-3.938m-440.274.002c-.578 0-.998.44-.998.932v12.507c0 .512.42.942.998.942H205.98c12.627 0 18.62 9.104 18.62 21.797 0 12.643-5.993 21.726-18.62 21.726H87.809c-18.351 0-32.2 15.415-32.2 35.862v39.687c0 .543.417.973.996.973h26.928a.97.97 0 0 0 .967-.973v-39.687c0-12.612 7.247-21.51 17.762-21.51h113.277c25.423 0 37.887-15.621 37.887-36.068 0-20.415-12.464-36.188-37.887-36.188zm319.461 0c-25.474 0-37.957 15.742-37.957 36.18v62.086c0 12.684-5.99 21.789-18.632 21.789h-72.239c-.506 0-.925.417-.925.898v12.531c0 .512.42.942.925.942h81.768c25.464 0 37.978-15.671 37.978-36.12V70.5c0-12.694 5.943-21.819 18.657-21.819h73.017c.573 0 1.024-.41 1.024-.922V35.252c0-.491-.45-.932-1.024-.932z" style="font-size:194.624px;line-height:0;font-family:&quot;The Rave Is In Your Pants&quot;;-inkscape-font-specification:&quot;The Rave Is In Your Pants&quot;;letter-spacing:0;word-spacing:0;display:inline;stroke-width:6;stroke-linecap:square;stroke-miterlimit:10;paint-order:fill markers stroke;fill:#fff"/><g style="display:inline;fill:#fff"><path d="M523.708 228.313c6.157-.256 12.684.695 12.684 8.244 0 5.463-4.03 8.521-9.277 8.521-6.147 0-9.268-4.398-9.031-10.229h-7.897c.185 10.074 5.811 16.836 16.929 16.836 9.277 0 17.041-5.627 17.041-14.729 0-6.24-3.283-11.006-8.726-12.092v-.102c4.563-1.709 6.772-5.625 6.772-10.424 0-8.51-7.672-12.846-15.119-12.846-9.736 0-15.588 6.965-15.956 16.406h7.774c-.104-5.002 2.576-9.902 7.998-9.902 4.337 0 7.487 2.793 7.487 6.875 0 5.912-5.38 7.723-10.679 7.59zm-395.491 22.453h8.684v-18.863h13.103c14.074.063 16.78-9.072 16.78-15.158 0-6.146-2.706-15.25-16.78-15.25h-21.787zm8.684-42.275h12.765c4.567 0 8.475 1.719 8.475 8.193 0 6.207-4.741 8.182-8.648 8.182h-12.591zm35.034-6.997h7.891v49.271h-7.891zm46.611 23.045c0-7.568-7.395-10.424-14.371-10.424-7.897 0-15.711 2.721-16.253 11.896h7.938c.241-3.877 3.396-5.625 7.814-5.625 3.248 0 7.416.766 7.416 4.838 0 4.602-5.068 3.938-10.745 5-6.547.758-13.722 2.23-13.722 11.141 0 6.936 5.83 10.412 12.233 10.412 4.199 0 9.226-1.34 12.382-4.367.604 3.324 2.93 4.367 6.04 4.367 1.33 0 3.866-.521 4.956-.85v-5.482c-.767.123-1.448.123-1.841.123-1.488 0-1.846-.756-1.846-2.721zm-8.004 14.268c0 4.963-5.35 6.762-8.827 6.762-2.788 0-7.237-1.012-7.237-4.563 0-4.174 3.038-5.4 6.439-5.891 3.437-.613 7.237-.613 9.625-2.168zm24.825 11.928-.899 2.762c-.941 2.955-1.887 4.971-5.575 4.971-1.232 0-2.501-.275-3.728-.572v6.709c1.774.195 3.657.359 5.467.359 8.254 0 10.091-5.779 12.663-12.152l13.901-37.713h-8.295l-9.007 26.656h-.148l-9.334-26.656h-8.546zm23.485-16.346c.179 12.273 9.298 17.594 20.591 17.594 9.814 0 19.587-4.43 19.587-15.426 0-5.145-3.079-10.637-9.594-12.682-2.537-.688-13.43-3.488-14.192-3.715-3.539-1.021-5.927-2.895-5.927-6.371 0-5.002 5.028-6.455 9.078-6.455 5.943 0 10.245 2.342 10.684 8.787h8.572c0-10.352-8.572-15.814-18.887-15.814-8.935 0-18.059 4.604-18.059 14.504 0 5.115 2.45 10.281 10.925 12.51 6.766 1.842 11.261 2.773 14.729 4.092 2.03.809 4.097 2.322 4.097 6.004 0 3.816-2.864 7.539-10.464 7.539-6.915 0-12.52-2.967-12.52-10.566zm43.027-19.291h5.907v-10.74h7.928v10.74h7.093v5.861h-7.093v19.055c0 3.264.317 4.941 3.764 4.941 1.12 0 2.24 0 3.33-.234v6.014c-1.749.193-3.375.398-5.068.398-8.214 0-9.804-3.119-9.953-9.113v-21.061h-5.907zm57.179 9.441c0-7.568-7.375-10.424-14.361-10.424-7.815 0-15.67 2.721-16.212 11.896h7.927c.328-3.877 3.406-5.625 7.886-5.625 3.156 0 7.355.766 7.355 4.838 0 4.602-5.038 3.938-10.746 5-6.597.758-13.722 2.23-13.722 11.141 0 6.936 5.825 10.412 12.193 10.412 4.229 0 9.267-1.34 12.412-4.367.619 3.324 2.9 4.367 6.158 4.367 1.227 0 3.718-.521 4.919-.85v-5.482c-.833.123-1.529.123-1.958.123-1.442 0-1.852-.756-1.852-2.721zm-7.887 14.268c0 4.963-5.385 6.762-8.863 6.762-2.741 0-7.237-1.012-7.237-4.563 0-4.174 2.997-5.4 6.398-5.891 3.478-.613 7.283-.613 9.702-2.168zm12.454-23.709h5.927v-10.74h7.927v10.74h7.094v5.861h-7.094v19.055c0 3.264.266 4.941 3.774 4.941 1.078 0 2.199 0 3.319-.234v6.014c-1.698.193-3.396.398-5.1.398-8.244 0-9.773-3.119-9.921-9.113v-21.061h-5.927zm27.714 0h7.887v35.668h-7.887zm31.842 36.68c11.467 0 18.023-7.855 18.023-18.83 0-10.945-6.557-18.832-18.023-18.832-11.497 0-18.043 7.887-18.043 18.832 0 10.974 6.546 18.83 18.043 18.83zm0-6.209c-7.098 0-10.167-6.383-10.167-12.621 0-6.18 3.069-12.561 10.167-12.561 7.018 0 10.137 6.381 10.137 12.561-.001 6.238-3.12 12.621-10.137 12.621zm23.965 5.197h7.855v-21.031c0-5.195 3.366-9.348 8.664-9.348 4.603 0 6.813 2.371 6.935 7.926v22.453h7.917v-24.488c0-7.979-4.909-12.162-12.683-12.162-4.654 0-8.776 2.434-11.109 6.414l-.174-.143v-5.289h-7.405zm-55.807-49.272h7.887v7.455h-7.887z" style="display:inline;fill:#fff;stroke:red;stroke-width:0;stroke-miterlimit:4;stroke-dasharray:none;stroke-opacity:1" transform="translate(-104.697 11.254)"/><path d="M420.63 245.178c-2.267 0-4.39.814-6.009 2.484-1.623 1.635-2.437 3.665-2.437 5.977 0 2.345.814 4.376 2.435 6.023h.002v.002c1.619 1.654 3.74 2.502 6.01 2.502 2.268 0 4.384-.848 6.008-2.504v-.002c1.615-1.647 2.437-3.672 2.437-6.021 0-2.326-.816-4.354-2.435-5.975-1.625-1.673-3.746-2.486-6.01-2.486m0 1.603c1.998 0 3.488.66 4.87 2.014h.002c1.374 1.34 1.979 2.948 1.979 4.846 0 1.952-.609 3.556-1.98 4.9-1.384 1.367-2.874 2.025-4.87 2.025s-3.49-.658-4.871-2.025v-.002c-1.374-1.342-1.979-2.95-1.979-4.898 0-1.9.605-3.506 1.979-4.848 1.383-1.355 2.875-2.012 4.87-2.012m-3.56 2.055v9.58h2.078v-3.611h1.006c.769 0 1.377.12 1.594.26.38.266.681.868.682 1.886v1.465h2.074v-.928l-.047-.064c-.11-.155-.111-.316-.111-.535v-.66c0-.513-.18-1.038-.514-1.557l-.002-.002c-.24-.36-.678-.509-1.084-.69.299-.086.619-.151.85-.3.352-.213.592-.504.728-.842.137-.34.178-.717.178-1.135 0-.598-.08-1.117-.303-1.55s-.595-.77-1.111-.985l-.008-.002-.008-.002c-.668-.23-1.482-.328-2.604-.328zm2.073 1.603h1.011c.91 0 1.49.112 1.912.305.25.18.518.53.518 1.088 0 .62-.233.965-.79 1.188-.239.093-.87.167-1.48.167h-1.171z" style="display:inline;fill:#fff" transform="translate(-34.248)"/><path d="M882.9 883.14h21.91l54.1 87.29h.33v-87.29h19.75v118.49h-21.91l-53.94-87.13h-.5v87.13H882.9Zm131.11 80.49c0 13.44 7.3 25.39 23.07 25.39 10.95 0 17.59-4.81 20.91-14.27h17.92c-4.15 18.75-20.08 29.21-38.83 29.21-26.89 0-41.99-18.75-41.99-45.14 0-24.4 15.93-45.31 41.49-45.31 27.05 0 43.65 24.4 40.49 50.12zm44.14-12.45c-.66-11.95-8.8-22.74-21.57-22.74-13.11 0-22.07 9.96-22.57 22.74zm23.07-35.35h14.27v-25.72h18.92v25.72h17.09v14.11h-17.09v45.81c0 7.8.66 11.78 9.13 11.78 2.66 0 5.31 0 7.97-.66v14.6c-4.15.33-8.13 1-12.28 1-19.75 0-23.4-7.63-23.73-21.91v-50.62h-14.27v-14.11zm54.44 0h20.08l16.76 64.06h.33l16.1-64.06h19.08l15.43 64.06h.33l17.43-64.06h19.25l-26.89 85.8h-19.42l-15.93-63.73h-.33l-15.77 63.73h-19.91zm131.28 42.82c0-26.22 15.77-45.14 43.31-45.14 27.55 0 43.32 18.92 43.32 45.14 0 26.39-15.77 45.31-43.32 45.31-27.55-.01-43.31-18.93-43.31-45.31m67.71 0c0-14.77-7.47-30.2-24.4-30.2s-24.4 15.43-24.4 30.2c0 14.94 7.47 30.37 24.4 30.37s24.4-15.44 24.4-30.37m33.02-42.82h17.76v16.6h.33c2.16-9.13 13.44-18.92 25.06-18.92 4.32 0 5.48.33 7.14.5v18.26c-2.66-.33-5.48-.83-8.13-.83-12.95 0-23.23 10.46-23.23 29.37v40.83h-18.92v-85.81zm57.26-32.69h18.92v67.38l34.19-34.69h23.23l-32.86 31.53 36.01 54.27h-23.07l-26.22-41.66-11.28 10.95v30.7h-18.92z" class="st1" style="fill:#fff;stroke-width:2.40213" transform="translate(100.195 -155.007)scale(.4163)"/></g></svg>