<?xml version="1.0" encoding="UTF-8"?>
<!-- Created by ERK -->
<svg width="750" height="300" version="1.0" xml:space="preserve" xmlns="http://www.w3.org/2000/svg">
    
<path transform="translate(39.847 11.254)" d="m197.56 240.09h-11.214v-21.876h-50.619v21.876h-11.214v-49.48h11.214v21.842h50.619v-21.842h11.214zm26.155-9.2474-6.5905 9.2474h-8.3503l32.849-46.237q2.3118-3.2435 5.6588-3.2435h2.2774q3.3125 0 5.5898 3.14l32.918 46.341h-12.801l-6.556-9.2474zm4.1061-5.7624h36.783l-17.046-24.016q-0.6556-0.89713-1.3112-0.89713-0.69011 0-1.4147 1.0006zm141.06 9.2474v5.7624h-57.624q-7.2116 0-11.318-3.9681t-4.1061-9.834v-21.876q0-5.8659 4.1061-9.834t11.318-3.9681h57.624v5.7624h-52.828q-4.2096 0-6.625 2.3464-2.3809 2.3464-2.3809 5.6934v21.876q0 3.347 2.3809 5.6934 2.4154 2.3464 6.625 2.3464zm70.632-43.718h15.355l-48.894 24.74 48.894 24.74h-15.355l-46.479-22.877v22.877h-11.214v-49.48h11.214v23.222zm102.83 0v5.7969h-24.637q-4.1406 0-6.6595 2.1048-2.5189 2.1048-2.5189 5.9004v22.704q0 5.5208-3.9336 9.2474-3.8991 3.7266-10.973 3.7266h-30.123v-5.7969h24.706q4.4857 0 6.7975-2.2773 2.3464-2.3118 2.3464-5.7624v-23.015q0-5.9004 3.9336-9.2474 3.9336-3.3815 10.697-3.3815z" display="none" aria-label="HACKS"/><path d="m464.26 34.319h-82.591c-25.474 0-37.958 15.741-37.958 36.179v62.087c0 12.684-5.989 21.788-18.631 21.788h-72.24c-0.506 0-0.925 0.419-0.925 0.9v12.53c0 0.512 0.419 0.941 0.925 0.941h81.768c25.464 0 37.979-15.67 37.979-36.118v-62.128c0-12.694 5.943-21.818 18.657-21.818h73.017c0.573 0 1.023-0.409 1.023-0.921v-12.509c0-0.491-0.451-0.931-1.024-0.931zm-243.12 0h-158.93c-0.578 0-0.998 0.44-0.998 0.931v12.509c0 0.512 0.419 0.941 0.998 0.941h149.37c12.627 0 18.621 9.104 18.621 21.797 0 12.643-5.994 21.726-18.621 21.726h-118.17c-18.351 0-32.2 15.415-32.2 35.862v39.687c0 0.543 0.419 0.973 0.998 0.973h26.927a0.97 0.97 0 0 0 0.967-0.973v-39.687c0-12.612 7.247-21.511 17.762-21.511h113.28c25.423 0 37.887-15.62 37.887-36.067 0-20.415-12.464-36.188-37.887-36.188zm457.87 65.535c-0.356-0.399-0.356-1.084 0-1.473 7.917-6.557 11.835-16.438 11.835-27.874 0-20.416-12.438-36.188-37.938-36.188h-158.89c-0.542 0-0.94 0.44-0.94 0.972v12.468a0.93 0.93 0 0 0 0.94 0.941h149.35c12.591 0 18.667 9.104 18.667 21.797 0 12.643-6.035 21.726-18.667 21.726h-0.185l-149.16 0.031c-0.542 0-0.94 0.389-0.94 0.961v12.459c0 0.501 0.398 0.9 0.94 0.9h149.35c16.468 0.194 18.636 16.232 18.636 24.436l0.031 1.544c0 12.714-6.076 21.859-18.667 21.859h-149.35c-0.542 0-0.94 0.388-0.94 0.899v12.49a0.93 0.93 0 0 0 0.94 0.941h158.89c25.521 0 37.938-16.939 37.938-36.189v-1.544c-1e-3 -12.274-3.919-23.996-11.836-31.156z" display="none" stroke-width="0"/><path d="m496.88 34.318c-6.2703 0-9.4062 3.2023-9.4062 9.6035v124.82h28.217v-96.02c0-4.993 1.2847-6.914 3.8555-5.7617l71.387 44.17 84.648 53.674c4.013 2.6245 7.149 3.9375 9.4063 3.9375 6.2703 0 9.4062-3.2023 9.4062-9.6035v-124.82h-28.217v96.02c0 4.993-1.2866 6.914-3.8574 5.7617l-71.387-44.17-84.648-53.674c-4.013-2.6245-7.147-3.9375-9.4043-3.9375zm-440.27 2e-3c-0.578 0-0.99805 0.44064-0.99805 0.93164v12.508c0 0.51199 0.41905 0.9414 0.99805 0.9414h149.37c12.627 0 18.621 9.1039 18.621 21.797 0 12.643-5.9941 21.727-18.621 21.727h-118.17c-18.351 0-32.199 15.414-32.199 35.861v39.688c0 0.543 0.41709 0.97265 0.99609 0.97265h26.928a0.97 0.97 0 0 0 0.9668-0.97265v-39.688c0-12.612 7.2467-21.51 17.762-21.51h113.28c25.423 0 37.887-15.621 37.887-36.068 0-20.415-12.464-36.188-37.887-36.188zm319.46 0c-25.474 0-37.957 15.742-37.957 36.18v62.086c0 12.684-5.9908 21.789-18.633 21.789h-72.238c-0.50599 0-0.92578 0.41744-0.92578 0.89844v12.531c0 0.512 0.41979 0.9414 0.92578 0.9414h81.768c25.464 0 37.979-15.671 37.979-36.119v-62.127c0-12.694 5.9422-21.818 18.656-21.818h73.018c0.573 0 1.0234-0.40988 1.0234-0.92187v-12.508c0-0.491-0.45044-0.93164-1.0234-0.93164z" stroke-linecap="square" stroke-miterlimit="10" stroke-width="6" style="paint-order:fill markers stroke"/><g transform="translate(115.47 -297.07)" display="none"><path transform="translate(-185.92 308.32)" d="m523.71 228.31c6.157-0.256 12.684 0.695 12.684 8.244 0 5.463-4.03 8.521-9.277 8.521-6.147 0-9.268-4.398-9.031-10.229h-7.897c0.185 10.074 5.811 16.836 16.929 16.836 9.277 0 17.041-5.627 17.041-14.729 0-6.24-3.283-11.006-8.726-12.092v-0.102c4.563-1.709 6.772-5.625 6.772-10.424 0-8.51-7.672-12.846-15.119-12.846-9.736 0-15.588 6.965-15.956 16.406h7.774c-0.104-5.002 2.576-9.902 7.998-9.902 4.337 0 7.487 2.793 7.487 6.875 0 5.912-5.38 7.723-10.679 7.59zm-395.49 22.453h8.684v-18.863h13.103c14.074 0.063 16.78-9.072 16.78-15.158 0-6.146-2.706-15.25-16.78-15.25h-21.787zm8.684-42.275h12.765c4.567 0 8.475 1.719 8.475 8.193 0 6.207-4.741 8.182-8.648 8.182h-12.591v-16.375zm35.034-6.997h7.891v49.271h-7.891zm46.611 23.045c0-7.568-7.395-10.424-14.371-10.424-7.897 0-15.711 2.721-16.253 11.896h7.938c0.241-3.877 3.396-5.625 7.814-5.625 3.248 0 7.416 0.766 7.416 4.838 0 4.602-5.068 3.938-10.745 5-6.547 0.758-13.722 2.23-13.722 11.141 0 6.936 5.83 10.412 12.233 10.412 4.199 0 9.226-1.34 12.382-4.367 0.604 3.324 2.93 4.367 6.04 4.367 1.33 0 3.866-0.521 4.956-0.85v-5.482c-0.767 0.123-1.448 0.123-1.841 0.123-1.488 0-1.846-0.756-1.846-2.721v-18.308zm-8.004 14.268c0 4.963-5.35 6.762-8.827 6.762-2.788 0-7.237-1.012-7.237-4.563 0-4.174 3.038-5.4 6.439-5.891 3.437-0.613 7.237-0.613 9.625-2.168zm24.825 11.928-0.899 2.762c-0.941 2.955-1.887 4.971-5.575 4.971-1.232 0-2.501-0.275-3.728-0.572v6.709c1.774 0.195 3.657 0.359 5.467 0.359 8.254 0 10.091-5.779 12.663-12.152l13.901-37.713h-8.295l-9.007 26.656h-0.148l-9.334-26.656h-8.546zm23.485-16.346c0.179 12.273 9.298 17.594 20.591 17.594 9.814 0 19.587-4.43 19.587-15.426 0-5.145-3.079-10.637-9.594-12.682-2.537-0.688-13.43-3.488-14.192-3.715-3.539-1.021-5.927-2.895-5.927-6.371 0-5.002 5.028-6.455 9.078-6.455 5.943 0 10.245 2.342 10.684 8.787h8.572c0-10.352-8.572-15.814-18.887-15.814-8.935 0-18.059 4.604-18.059 14.504 0 5.115 2.45 10.281 10.925 12.51 6.766 1.842 11.261 2.773 14.729 4.092 2.03 0.809 4.097 2.322 4.097 6.004 0 3.816-2.864 7.539-10.464 7.539-6.915 0-12.52-2.967-12.52-10.566h-8.62zm43.027-19.291h5.907v-10.74h7.928v10.74h7.093v5.861h-7.093v19.055c0 3.264 0.317 4.941 3.764 4.941 1.12 0 2.24 0 3.33-0.234v6.014c-1.749 0.193-3.375 0.398-5.068 0.398-8.214 0-9.804-3.119-9.953-9.113v-21.061h-5.907v-5.861zm57.179 9.441c0-7.568-7.375-10.424-14.361-10.424-7.815 0-15.67 2.721-16.212 11.896h7.927c0.328-3.877 3.406-5.625 7.886-5.625 3.156 0 7.355 0.766 7.355 4.838 0 4.602-5.038 3.938-10.746 5-6.597 0.758-13.722 2.23-13.722 11.141 0 6.936 5.825 10.412 12.193 10.412 4.229 0 9.267-1.34 12.412-4.367 0.619 3.324 2.9 4.367 6.158 4.367 1.227 0 3.718-0.521 4.919-0.85v-5.482c-0.833 0.123-1.529 0.123-1.958 0.123-1.442 0-1.852-0.756-1.852-2.721v-18.308zm-7.887 14.268c0 4.963-5.385 6.762-8.863 6.762-2.741 0-7.237-1.012-7.237-4.563 0-4.174 2.997-5.4 6.398-5.891 3.478-0.613 7.283-0.613 9.702-2.168zm12.454-23.709h5.927v-10.74h7.927v10.74h7.094v5.861h-7.094v19.055c0 3.264 0.266 4.941 3.774 4.941 1.078 0 2.199 0 3.319-0.234v6.014c-1.698 0.193-3.396 0.398-5.1 0.398-8.244 0-9.773-3.119-9.921-9.113v-21.061h-5.927v-5.861zm27.714 0h7.887v35.668h-7.887zm31.842 36.68c11.467 0 18.023-7.855 18.023-18.83 0-10.945-6.557-18.832-18.023-18.832-11.497 0-18.043 7.887-18.043 18.832 0 10.974 6.546 18.83 18.043 18.83zm0-6.209c-7.098 0-10.167-6.383-10.167-12.621 0-6.18 3.069-12.561 10.167-12.561 7.018 0 10.137 6.381 10.137 12.561-1e-3 6.238-3.12 12.621-10.137 12.621zm23.965 5.197h7.855v-21.031c0-5.195 3.366-9.348 8.664-9.348 4.603 0 6.813 2.371 6.935 7.926v22.453h7.917v-24.488c0-7.979-4.909-12.162-12.683-12.162-4.654 0-8.776 2.434-11.109 6.414l-0.174-0.143v-5.289h-7.405zm-55.807-49.272h7.887v7.455h-7.887z" display="inline" stroke-width="0"/><path transform="translate(-115.47 297.07)" d="m420.63 245.18c-2.2683 0-4.3902 0.81397-6.0098 2.4844-1.6235 1.6352-2.4375 3.6647-2.4375 5.9766 0 2.3458 0.81416 4.376 2.4356 6.0234h2e-3v2e-3c1.6184 1.6542 3.739 2.502 6.0098 2.502 2.2678 0 4.3845-0.8478 6.0078-2.5039v-2e-3c1.6149-1.6471 2.4375-3.6717 2.4375-6.0215 0-2.3254-0.81599-4.3541-2.4356-5.9746-1.6246-1.6732-3.7454-2.4863-6.0098-2.4863zm0 1.6035c1.9974 0 3.4875 0.65897 4.8691 2.0137h2e-3c1.3736 1.3406 1.9785 2.9486 1.9785 4.8457 0 1.9521-0.60803 3.5563-1.9805 4.9004-1.3832 1.3673-2.8734 2.0254-4.8691 2.0254-1.9958 0-3.4896-0.65821-4.8711-2.0254v-2e-3c-1.3736-1.3422-1.9785-2.9495-1.9785-4.8984 0-1.8988 0.60475-3.5054 1.9785-4.8476 1.3832-1.3547 2.8752-2.0117 4.8711-2.0117zm-3.5606 2.0547v9.5801h2.0781v-3.6113h1.0059c0.76822 0 1.3767 0.11941 1.5938 0.25976 0.37949 0.2668 0.68143 0.86876 0.68164 1.8867v1.4648h2.0742v-0.92774l-0.0469-0.0644c-0.11045-0.15443-0.11133-0.31564-0.11133-0.53516v-0.66015c0-0.51305-0.17888-1.0372-0.51367-1.5566l-2e-3 -2e-3c-0.23929-0.36078-0.67818-0.50849-1.084-0.68945 0.29896-0.0864 0.61869-0.15147 0.84961-0.30078 0.35245-0.2131 0.59217-0.5036 0.72852-0.8418 0.13669-0.33903 0.17773-0.71641 0.17773-1.1348 0-0.59835-0.0797-1.1173-0.30273-1.5508-0.22309-0.43349-0.59488-0.76874-1.1113-0.98437l-0.016-4e-3c-0.6679-0.2295-1.4814-0.32812-2.6035-0.32812zm2.0723 1.6035h1.0117c0.91061 0 1.4904 0.11159 1.9121 0.30469 0.24999 0.17969 0.51757 0.52945 0.51757 1.0879 0 0.62005-0.23276 0.96469-0.78906 1.1875-0.2398 0.093-0.86999 0.16797-1.4805 0.16797h-1.1719z" display="inline"/><g transform="translate(-1.3911)"><path d="m387.92 510.59v49.271h7.8906v-23.135h21.627v23.135h7.8906v-49.271h-7.8906v20.275h-21.627v-20.275z" display="inline" stroke-width="0"/><path d="m464.34 532.77c0-7.568-7.375-10.424-14.361-10.424-7.815 0-15.67 2.721-16.212 11.896h7.927c0.328-3.877 3.406-5.625 7.886-5.625 3.156 0 7.355 0.766 7.355 4.838 0 4.602-5.038 3.938-10.746 5-6.597 0.758-13.722 2.23-13.722 11.141 0 6.936 5.825 10.412 12.193 10.412 4.229 0 9.267-1.34 12.412-4.367 0.619 3.324 2.9 4.367 6.158 4.367 1.227 0 3.718-0.521 4.919-0.85v-5.482c-0.833 0.123-1.529 0.123-1.958 0.123-1.442 0-1.852-0.756-1.852-2.721v-18.308zm-7.887 14.268c0 4.963-5.385 6.762-8.863 6.762-2.741 0-7.237-1.012-7.237-4.563 0-4.174 2.997-5.4 6.398-5.891 3.478-0.613 7.283-0.613 9.702-2.168z" display="inline" stroke-width="0"/><path d="m488.35 522.34c-11.497 0-18.043 7.887-18.043 18.832 0 10.974 6.546 18.83 18.043 18.83 8.9013 0 14.841-4.7348 17.055-11.986h-8.3301c-1.5429 3.3358-4.3873 5.7773-8.7246 5.7773-7.098 0-10.168-6.3831-10.168-12.621 0-6.18 3.07-12.561 10.168-12.561 4.4168 0 7.286 2.5274 8.8086 5.9414l7.5449-2.1348c-2.6248-6.1526-8.2665-10.078-16.354-10.078z" display="inline" stroke-width="0"/><path d="m512.33 510.59v49.271h7.8906v-11.865l5.7031-5.8359 11.26 17.701h6.9453l-13.998-22.006 13.355-13.666h-8.1953l-15.07 15.422v-29.021z" display="inline" stroke-width="0"/><path d="m561.84 522.35c-3.2551 0-6.5546 0.82848-9.0928 2.6127-2.5383 1.7842-4.2863 4.5829-4.2863 8.2739 0 1.9077 0.46377 3.8829 1.7468 5.5786 1.2822 1.6945 3.3601 3.0743 6.4426 3.8862 2e-3 4.5e-4 2e-3 -4.4e-4 4e-3 0l2e-3 2e-3c4.7538 1.294 7.9034 1.9522 10.244 2.8419 0.64445 0.25728 1.2408 0.60673 1.6736 1.1345 0.43367 0.52885 0.74005 1.247 0.74005 2.4024 1e-5 1.1568-0.41128 2.246-1.4144 3.0936-1.0031 0.8476-2.6535 1.4688-5.1991 1.4688-2.3202 0-4.3601-0.50717-5.7739-1.5628-1.4138-1.0556-2.2803-2.6364-2.2803-5.1221v-0.72126h-7.4831l0.0808 1.4425c0.23852 4.1026 1.8812 7.2254 4.4948 9.2412 2.7704 2.1368 6.5059 3.0898 10.577 3.0898 3.5478 0 7.1115-0.78839 9.8479-2.639 2.7364-1.8506 4.6018-4.8266 4.6018-8.8938 0-3.8938-2.3732-8.0531-7.2296-9.5774l-0.0264-8e-3c-0.9022-0.24466-3.2512-0.85483-5.449-1.4256-1.0989-0.28539-2.1574-0.56019-2.9752-0.77385-0.81776-0.21367-1.4347-0.37871-1.5064-0.40008h-4e-3l-2e-3 -2e-3c-1.1688-0.33721-2.0941-0.80695-2.6991-1.4068-0.605-0.59991-0.93352-1.3118-0.93352-2.3648 0-1.5112 0.67739-2.3465 1.7487-2.947 1.0713-0.6006 2.5588-0.85651 3.8918-0.85651 1.988 0 3.6234 0.39827 4.7615 1.2434 1.1381 0.84516 1.8645 2.1379 2.0079 4.2431l0.0451 0.67244h7.4042v-0.72127c0-3.8269-1.6242-6.8467-4.1886-8.8336-2.5644-1.987-6.0288-2.9715-9.7709-2.9715z" stroke-linecap="square" stroke-miterlimit="20" stroke-width=".96169" style="paint-order:fill markers stroke"/></g></g><g transform="translate(109.26)" display="none"><path transform="translate(-70.449 11.254)" d="m523.71 228.31c6.157-0.256 12.684 0.695 12.684 8.244 0 5.463-4.03 8.521-9.277 8.521-6.147 0-9.268-4.398-9.031-10.229h-7.897c0.185 10.074 5.811 16.836 16.929 16.836 9.277 0 17.041-5.627 17.041-14.729 0-6.24-3.283-11.006-8.726-12.092v-0.102c4.563-1.709 6.772-5.625 6.772-10.424 0-8.51-7.672-12.846-15.119-12.846-9.736 0-15.588 6.965-15.956 16.406h7.774c-0.104-5.002 2.576-9.902 7.998-9.902 4.337 0 7.487 2.793 7.487 6.875 0 5.912-5.38 7.723-10.679 7.59zm-395.49 22.453h8.684v-18.863h13.103c14.074 0.063 16.78-9.072 16.78-15.158 0-6.146-2.706-15.25-16.78-15.25h-21.787zm8.684-42.275h12.765c4.567 0 8.475 1.719 8.475 8.193 0 6.207-4.741 8.182-8.648 8.182h-12.591v-16.375zm35.034-6.997h7.891v49.271h-7.891zm46.611 23.045c0-7.568-7.395-10.424-14.371-10.424-7.897 0-15.711 2.721-16.253 11.896h7.938c0.241-3.877 3.396-5.625 7.814-5.625 3.248 0 7.416 0.766 7.416 4.838 0 4.602-5.068 3.938-10.745 5-6.547 0.758-13.722 2.23-13.722 11.141 0 6.936 5.83 10.412 12.233 10.412 4.199 0 9.226-1.34 12.382-4.367 0.604 3.324 2.93 4.367 6.04 4.367 1.33 0 3.866-0.521 4.956-0.85v-5.482c-0.767 0.123-1.448 0.123-1.841 0.123-1.488 0-1.846-0.756-1.846-2.721v-18.308zm-8.004 14.268c0 4.963-5.35 6.762-8.827 6.762-2.788 0-7.237-1.012-7.237-4.563 0-4.174 3.038-5.4 6.439-5.891 3.437-0.613 7.237-0.613 9.625-2.168zm24.825 11.928-0.899 2.762c-0.941 2.955-1.887 4.971-5.575 4.971-1.232 0-2.501-0.275-3.728-0.572v6.709c1.774 0.195 3.657 0.359 5.467 0.359 8.254 0 10.091-5.779 12.663-12.152l13.901-37.713h-8.295l-9.007 26.656h-0.148l-9.334-26.656h-8.546zm23.485-16.346c0.179 12.273 9.298 17.594 20.591 17.594 9.814 0 19.587-4.43 19.587-15.426 0-5.145-3.079-10.637-9.594-12.682-2.537-0.688-13.43-3.488-14.192-3.715-3.539-1.021-5.927-2.895-5.927-6.371 0-5.002 5.028-6.455 9.078-6.455 5.943 0 10.245 2.342 10.684 8.787h8.572c0-10.352-8.572-15.814-18.887-15.814-8.935 0-18.059 4.604-18.059 14.504 0 5.115 2.45 10.281 10.925 12.51 6.766 1.842 11.261 2.773 14.729 4.092 2.03 0.809 4.097 2.322 4.097 6.004 0 3.816-2.864 7.539-10.464 7.539-6.915 0-12.52-2.967-12.52-10.566h-8.62zm43.027-19.291h5.907v-10.74h7.928v10.74h7.093v5.861h-7.093v19.055c0 3.264 0.317 4.941 3.764 4.941 1.12 0 2.24 0 3.33-0.234v6.014c-1.749 0.193-3.375 0.398-5.068 0.398-8.214 0-9.804-3.119-9.953-9.113v-21.061h-5.907v-5.861zm57.179 9.441c0-7.568-7.375-10.424-14.361-10.424-7.815 0-15.67 2.721-16.212 11.896h7.927c0.328-3.877 3.406-5.625 7.886-5.625 3.156 0 7.355 0.766 7.355 4.838 0 4.602-5.038 3.938-10.746 5-6.597 0.758-13.722 2.23-13.722 11.141 0 6.936 5.825 10.412 12.193 10.412 4.229 0 9.267-1.34 12.412-4.367 0.619 3.324 2.9 4.367 6.158 4.367 1.227 0 3.718-0.521 4.919-0.85v-5.482c-0.833 0.123-1.529 0.123-1.958 0.123-1.442 0-1.852-0.756-1.852-2.721v-18.308zm-7.887 14.268c0 4.963-5.385 6.762-8.863 6.762-2.741 0-7.237-1.012-7.237-4.563 0-4.174 2.997-5.4 6.398-5.891 3.478-0.613 7.283-0.613 9.702-2.168zm12.454-23.709h5.927v-10.74h7.927v10.74h7.094v5.861h-7.094v19.055c0 3.264 0.266 4.941 3.774 4.941 1.078 0 2.199 0 3.319-0.234v6.014c-1.698 0.193-3.396 0.398-5.1 0.398-8.244 0-9.773-3.119-9.921-9.113v-21.061h-5.927v-5.861zm27.714 0h7.887v35.668h-7.887zm31.842 36.68c11.467 0 18.023-7.855 18.023-18.83 0-10.945-6.557-18.832-18.023-18.832-11.497 0-18.043 7.887-18.043 18.832 0 10.974 6.546 18.83 18.043 18.83zm0-6.209c-7.098 0-10.167-6.383-10.167-12.621 0-6.18 3.069-12.561 10.167-12.561 7.018 0 10.137 6.381 10.137 12.561-1e-3 6.238-3.12 12.621-10.137 12.621zm23.965 5.197h7.855v-21.031c0-5.195 3.366-9.348 8.664-9.348 4.603 0 6.813 2.371 6.935 7.926v22.453h7.917v-24.488c0-7.979-4.909-12.162-12.683-12.162-4.654 0-8.776 2.434-11.109 6.414l-0.174-0.143v-5.289h-7.405zm-55.807-49.272h7.887v7.455h-7.887z" display="inline" stroke-width="0"/><path d="m420.63 245.18c-2.2683 0-4.3902 0.81397-6.0098 2.4844-1.6235 1.6352-2.4375 3.6647-2.4375 5.9766 0 2.3458 0.81416 4.376 2.4356 6.0234h2e-3v2e-3c1.6184 1.6542 3.739 2.502 6.0098 2.502 2.2678 0 4.3845-0.8478 6.0078-2.5039v-2e-3c1.6149-1.6471 2.4375-3.6717 2.4375-6.0215 0-2.3254-0.816-4.3541-2.4356-5.9746-1.6246-1.6732-3.7454-2.4863-6.0098-2.4863zm0 1.6035c1.9974 0 3.4875 0.65897 4.8691 2.0137h2e-3c1.3736 1.3406 1.9785 2.9486 1.9785 4.8457 0 1.9521-0.60803 3.5563-1.9805 4.9004-1.3832 1.3673-2.8734 2.0254-4.8691 2.0254-1.9958 0-3.4896-0.65821-4.8711-2.0254v-2e-3c-1.3736-1.3422-1.9785-2.9495-1.9785-4.8984 0-1.8988 0.60474-3.5054 1.9785-4.8476 1.3832-1.3547 2.8752-2.0117 4.8711-2.0117zm-3.5606 2.0547v9.5801h2.0781v-3.6113h1.0059c0.76822 0 1.3767 0.11941 1.5938 0.25976 0.37949 0.2668 0.68143 0.86876 0.68164 1.8867v1.4648h2.0742v-0.92774l-0.0469-0.0644c-0.11045-0.15443-0.11133-0.31564-0.11133-0.53516v-0.66015c0-0.51305-0.17888-1.0372-0.51367-1.5566l-2e-3 -2e-3c-0.23929-0.36078-0.67818-0.50849-1.084-0.68945 0.29896-0.0864 0.61869-0.15147 0.84961-0.30078 0.35245-0.2131 0.59217-0.5036 0.72852-0.8418 0.13669-0.33903 0.17773-0.71641 0.17773-1.1348 0-0.59835-0.0797-1.1173-0.30273-1.5508-0.22309-0.43349-0.59488-0.76874-1.1113-0.98437l-0.016-4e-3c-0.6679-0.2295-1.4814-0.32812-2.6035-0.32812zm2.0723 1.6035h1.0117c0.91061 0 1.4904 0.11159 1.9121 0.30469 0.24999 0.17969 0.51758 0.52945 0.51758 1.0879 0 0.62005-0.23276 0.96469-0.78906 1.1875-0.2398 0.093-0.86999 0.16797-1.4805 0.16797h-1.1719z" display="inline"/></g><g transform="translate(-34.248)"><path transform="translate(-70.449 11.254)" d="m523.71 228.31c6.157-0.256 12.684 0.695 12.684 8.244 0 5.463-4.03 8.521-9.277 8.521-6.147 0-9.268-4.398-9.031-10.229h-7.897c0.185 10.074 5.811 16.836 16.929 16.836 9.277 0 17.041-5.627 17.041-14.729 0-6.24-3.283-11.006-8.726-12.092v-0.102c4.563-1.709 6.772-5.625 6.772-10.424 0-8.51-7.672-12.846-15.119-12.846-9.736 0-15.588 6.965-15.956 16.406h7.774c-0.104-5.002 2.576-9.902 7.998-9.902 4.337 0 7.487 2.793 7.487 6.875 0 5.912-5.38 7.723-10.679 7.59zm-395.49 22.453h8.684v-18.863h13.103c14.074 0.063 16.78-9.072 16.78-15.158 0-6.146-2.706-15.25-16.78-15.25h-21.787zm8.684-42.275h12.765c4.567 0 8.475 1.719 8.475 8.193 0 6.207-4.741 8.182-8.648 8.182h-12.591v-16.375zm35.034-6.997h7.891v49.271h-7.891zm46.611 23.045c0-7.568-7.395-10.424-14.371-10.424-7.897 0-15.711 2.721-16.253 11.896h7.938c0.241-3.877 3.396-5.625 7.814-5.625 3.248 0 7.416 0.766 7.416 4.838 0 4.602-5.068 3.938-10.745 5-6.547 0.758-13.722 2.23-13.722 11.141 0 6.936 5.83 10.412 12.233 10.412 4.199 0 9.226-1.34 12.382-4.367 0.604 3.324 2.93 4.367 6.04 4.367 1.33 0 3.866-0.521 4.956-0.85v-5.482c-0.767 0.123-1.448 0.123-1.841 0.123-1.488 0-1.846-0.756-1.846-2.721v-18.308zm-8.004 14.268c0 4.963-5.35 6.762-8.827 6.762-2.788 0-7.237-1.012-7.237-4.563 0-4.174 3.038-5.4 6.439-5.891 3.437-0.613 7.237-0.613 9.625-2.168zm24.825 11.928-0.899 2.762c-0.941 2.955-1.887 4.971-5.575 4.971-1.232 0-2.501-0.275-3.728-0.572v6.709c1.774 0.195 3.657 0.359 5.467 0.359 8.254 0 10.091-5.779 12.663-12.152l13.901-37.713h-8.295l-9.007 26.656h-0.148l-9.334-26.656h-8.546zm23.485-16.346c0.179 12.273 9.298 17.594 20.591 17.594 9.814 0 19.587-4.43 19.587-15.426 0-5.145-3.079-10.637-9.594-12.682-2.537-0.688-13.43-3.488-14.192-3.715-3.539-1.021-5.927-2.895-5.927-6.371 0-5.002 5.028-6.455 9.078-6.455 5.943 0 10.245 2.342 10.684 8.787h8.572c0-10.352-8.572-15.814-18.887-15.814-8.935 0-18.059 4.604-18.059 14.504 0 5.115 2.45 10.281 10.925 12.51 6.766 1.842 11.261 2.773 14.729 4.092 2.03 0.809 4.097 2.322 4.097 6.004 0 3.816-2.864 7.539-10.464 7.539-6.915 0-12.52-2.967-12.52-10.566h-8.62zm43.027-19.291h5.907v-10.74h7.928v10.74h7.093v5.861h-7.093v19.055c0 3.264 0.317 4.941 3.764 4.941 1.12 0 2.24 0 3.33-0.234v6.014c-1.749 0.193-3.375 0.398-5.068 0.398-8.214 0-9.804-3.119-9.953-9.113v-21.061h-5.907v-5.861zm57.179 9.441c0-7.568-7.375-10.424-14.361-10.424-7.815 0-15.67 2.721-16.212 11.896h7.927c0.328-3.877 3.406-5.625 7.886-5.625 3.156 0 7.355 0.766 7.355 4.838 0 4.602-5.038 3.938-10.746 5-6.597 0.758-13.722 2.23-13.722 11.141 0 6.936 5.825 10.412 12.193 10.412 4.229 0 9.267-1.34 12.412-4.367 0.619 3.324 2.9 4.367 6.158 4.367 1.227 0 3.718-0.521 4.919-0.85v-5.482c-0.833 0.123-1.529 0.123-1.958 0.123-1.442 0-1.852-0.756-1.852-2.721v-18.308zm-7.887 14.268c0 4.963-5.385 6.762-8.863 6.762-2.741 0-7.237-1.012-7.237-4.563 0-4.174 2.997-5.4 6.398-5.891 3.478-0.613 7.283-0.613 9.702-2.168zm12.454-23.709h5.927v-10.74h7.927v10.74h7.094v5.861h-7.094v19.055c0 3.264 0.266 4.941 3.774 4.941 1.078 0 2.199 0 3.319-0.234v6.014c-1.698 0.193-3.396 0.398-5.1 0.398-8.244 0-9.773-3.119-9.921-9.113v-21.061h-5.927v-5.861zm27.714 0h7.887v35.668h-7.887zm31.842 36.68c11.467 0 18.023-7.855 18.023-18.83 0-10.945-6.557-18.832-18.023-18.832-11.497 0-18.043 7.887-18.043 18.832 0 10.974 6.546 18.83 18.043 18.83zm0-6.209c-7.098 0-10.167-6.383-10.167-12.621 0-6.18 3.069-12.561 10.167-12.561 7.018 0 10.137 6.381 10.137 12.561-1e-3 6.238-3.12 12.621-10.137 12.621zm23.965 5.197h7.855v-21.031c0-5.195 3.366-9.348 8.664-9.348 4.603 0 6.813 2.371 6.935 7.926v22.453h7.917v-24.488c0-7.979-4.909-12.162-12.683-12.162-4.654 0-8.776 2.434-11.109 6.414l-0.174-0.143v-5.289h-7.405zm-55.807-49.272h7.887v7.455h-7.887z" stroke-width="0"/><path d="m420.63 245.18c-2.2683 0-4.3902 0.81397-6.0098 2.4844-1.6235 1.6352-2.4375 3.6647-2.4375 5.9766 0 2.3458 0.81416 4.376 2.4356 6.0234h2e-3v2e-3c1.6184 1.6542 3.739 2.502 6.0098 2.502 2.2678 0 4.3845-0.8478 6.0078-2.5039v-2e-3c1.6149-1.6471 2.4375-3.6717 2.4375-6.0215 0-2.3254-0.81599-4.3541-2.4356-5.9746-1.6246-1.6732-3.7454-2.4863-6.0098-2.4863zm0 1.6035c1.9974 0 3.4875 0.65897 4.8691 2.0137h2e-3c1.3736 1.3406 1.9785 2.9486 1.9785 4.8457 0 1.9521-0.60803 3.5563-1.9805 4.9004-1.3832 1.3673-2.8734 2.0254-4.8691 2.0254-1.9958 0-3.4896-0.65821-4.8711-2.0254v-2e-3c-1.3736-1.3422-1.9785-2.9495-1.9785-4.8984 0-1.8988 0.60475-3.5054 1.9785-4.8476 1.3832-1.3547 2.8752-2.0117 4.8711-2.0117zm-3.5606 2.0547v9.5801h2.0781v-3.6113h1.0059c0.76822 0 1.3767 0.11941 1.5938 0.25976 0.37949 0.2668 0.68143 0.86876 0.68164 1.8867v1.4648h2.0742v-0.92774l-0.0469-0.0644c-0.11045-0.15443-0.11133-0.31564-0.11133-0.53516v-0.66015c0-0.51305-0.17888-1.0372-0.51367-1.5566l-2e-3 -2e-3c-0.23929-0.36078-0.67818-0.50849-1.084-0.68945 0.29896-0.0864 0.61869-0.15147 0.84961-0.30078 0.35245-0.2131 0.59217-0.5036 0.72852-0.8418 0.13669-0.33903 0.17773-0.71641 0.17773-1.1348 0-0.59835-0.0797-1.1173-0.30273-1.5508-0.22309-0.43349-0.59488-0.76874-1.1113-0.98437l-0.016-4e-3c-0.6679-0.2295-1.4814-0.32812-2.6035-0.32812zm2.0723 1.6035h1.0117c0.91061 0 1.4904 0.11159 1.9121 0.30469 0.24999 0.17969 0.51757 0.52945 0.51757 1.0879 0 0.62005-0.23276 0.96469-0.78906 1.1875-0.2398 0.093-0.86999 0.16797-1.4805 0.16797h-1.1719z"/><g transform="matrix(.4163 0 0 .4163 134.44 -155.01)" stroke-width="2.4021">
				<path class="st1" d="m882.9 883.14h21.91l54.1 87.29h0.33v-87.29h19.75v118.49h-21.91l-53.94-87.13h-0.5v87.13h-19.74z"/>
				<path class="st1" d="m1014 963.63c0 13.44 7.3 25.39 23.07 25.39 10.95 0 17.59-4.81 20.91-14.27h17.92c-4.15 18.75-20.08 29.21-38.83 29.21-26.89 0-41.99-18.75-41.99-45.14 0-24.4 15.93-45.31 41.49-45.31 27.05 0 43.65 24.4 40.49 50.12zm44.14-12.45c-0.66-11.95-8.8-22.74-21.57-22.74-13.11 0-22.07 9.96-22.57 22.74z"/>
				<path class="st1" d="m1081.2 915.83h14.27v-25.72h18.92v25.72h17.09v14.11h-17.09v45.81c0 7.8 0.66 11.78 9.13 11.78 2.66 0 5.31 0 7.97-0.66v14.6c-4.15 0.33-8.13 1-12.28 1-19.75 0-23.4-7.63-23.73-21.91v-50.62h-14.27v-14.11z"/>
				<path class="st1" d="m1135.7 915.83h20.08l16.76 64.06h0.33l16.1-64.06h19.08l15.43 64.06h0.33l17.43-64.06h19.25l-26.89 85.8h-19.42l-15.93-63.73h-0.33l-15.77 63.73h-19.91z"/>
				<path class="st1" d="m1266.9 958.65c0-26.22 15.77-45.14 43.31-45.14 27.55 0 43.32 18.92 43.32 45.14 0 26.39-15.77 45.31-43.32 45.31-27.55-0.01-43.31-18.93-43.31-45.31zm67.71 0c0-14.77-7.47-30.2-24.4-30.2s-24.4 15.43-24.4 30.2c0 14.94 7.47 30.37 24.4 30.37s24.4-15.44 24.4-30.37z"/>
				<path class="st1" d="m1367.7 915.83h17.76v16.6h0.33c2.16-9.13 13.44-18.92 25.06-18.92 4.32 0 5.48 0.33 7.14 0.5v18.26c-2.66-0.33-5.48-0.83-8.13-0.83-12.95 0-23.23 10.46-23.23 29.37v40.83h-18.92v-85.81z"/>
				<path class="st1" d="m1424.9 883.14h18.92v67.38l34.19-34.69h23.23l-32.86 31.53 36.01 54.27h-23.07l-26.22-41.66-11.28 10.95v30.7h-18.92z"/>
			</g></g></svg>
