<!-- Created by ERK --><svg width="750" height="211" version="1.1" xml:space="preserve" xmlns="http://www.w3.org/2000/svg"><path d="m496.88 34.318q-9.405 0-9.406 9.604v124.82h28.216v-96.02q0-7.49 3.856-5.761l71.387 44.17 84.648 53.673q6.02 3.938 9.406 3.938 9.406-1e-3 9.407-9.604v-124.82h-28.217v96.02q0 7.49-3.858 5.761l-71.386-44.17-84.649-53.673q-6.019-3.938-9.404-3.938m-440.27 2e-3c-0.578 0-0.998 0.44-0.998 0.932v12.507c0 0.512 0.42 0.942 0.998 0.942h149.38c12.627 0 18.62 9.104 18.62 21.797 0 12.643-5.993 21.726-18.62 21.726h-118.17c-18.351 0-32.2 15.415-32.2 35.862v39.687c0 0.543 0.417 0.973 0.996 0.973h26.928a0.97 0.97 0 0 0 0.967-0.973v-39.687c0-12.612 7.247-21.51 17.762-21.51h113.28c25.423 0 37.887-15.621 37.887-36.068 0-20.415-12.464-36.188-37.887-36.188zm319.46 0c-25.474 0-37.957 15.742-37.957 36.18v62.086c0 12.684-5.99 21.789-18.632 21.789h-72.239c-0.506 0-0.925 0.417-0.925 0.898v12.531c0 0.512 0.42 0.942 0.925 0.942h81.768c25.464 0 37.978-15.671 37.978-36.12v-62.126c0-12.694 5.943-21.819 18.657-21.819h73.017c0.573 0 1.024-0.41 1.024-0.922v-12.507c0-0.491-0.45-0.932-1.024-0.932z" fill="#fff" stroke-linecap="square" stroke-miterlimit="10" stroke-width="6" style="paint-order:fill markers stroke"/></svg>
