<!-- Created by ERK --><svg xmlns="http://www.w3.org/2000/svg" xml:space="preserve" width="502.3" height="141.62" viewBox="0 0 502.3 141.62"><path d="M50.373 0c5.858 1.092 11.616 2.652 17.346 4.278 3.278.952 6.547 1.937 9.795 2.986 5.102 1.625 10.182 3.465 14.803 6.209 2.07 1.257 4.058 2.677 5.757 4.409a22 22 0 0 1 4.454 6.255c2.015 4.208 2.705 8.909 2.909 13.531.096 3.016.09 6.058-.473 9.035-.468 2.587-1.3 5.138-2.684 7.385-1.222 1.985-2.921 3.701-4.983 4.807-1.978 1.066-4.243 1.574-6.486 1.529-3.402.036-6.703-1.049-9.756-2.47-.055-10.153-.008-20.308-.024-30.46-.022-1.837.103-3.693-.267-5.505-.26-1.404-.833-2.819-1.935-3.772-.731-.659-1.678-1.031-2.63-1.232-.963-.183-1.99.226-2.586.999-.991 1.238-1.251 2.882-1.296 4.423-.008 27.181.01 54.363-.008 81.542q-10.969-3.475-21.935-6.96c-.008-32.33-.005-64.659-.001-96.989M17.507 68.783c9.533-3.375 19.056-6.782 28.593-10.146.015 3.743 0 7.487.006 11.233-.006.508.027 1.018-.037 1.523-7.538 2.672-15.061 5.391-22.592 8.08-1.044.394-2.115.841-2.92 1.638-.375.374-.68.926-.475 1.462.258.631.902.974 1.496 1.234 1.652.672 3.458.767 5.218.848 1.962-.031 3.932-.178 5.854-.602 1.299-.255 2.549-.693 3.787-1.158 3.218-1.165 6.436-2.337 9.659-3.49.024 3.166.004 6.334.01 9.503-.01.633.029 1.27-.034 1.901-3.958.711-7.963 1.194-11.986 1.257-8.101.183-16.221-1.071-23.916-3.603-2.524-.731-5.032-1.704-7.139-3.307-1.16-.898-2.198-2.027-2.726-3.416-.442-1.176-.41-2.535.141-3.67.531-1.132 1.459-2.027 2.481-2.722 2.365-1.633 4.973-2.878 7.616-3.989 2.277-.972 4.639-1.728 6.964-2.576"/><path d="M94.21 64.52c2.162-.25 4.338-.309 6.511-.387 7.151.027 14.338.917 21.178 3.062 1.342.408 2.642.936 3.979 1.362 2.383.871 4.769 1.927 6.677 3.64 1.147 1.046 2.135 2.455 2.149 4.064.068 1.309-.525 2.565-1.374 3.531-1.616 1.812-3.752 3.057-5.897 4.143-2.283 1.164-4.737 1.915-7.131 2.801-14.612 5.247-29.225 10.492-43.835 15.745-.002-4.093.004-8.185-.002-12.276.022-.163-.068-.448.163-.491 11.118-3.956 22.233-7.923 33.349-11.889 1.503-.562 3.122-.969 4.398-1.989.522-.41 1.033-1.062.777-1.765-.267-.615-.905-.956-1.492-1.21-1.664-.659-3.476-.787-5.246-.836-2.771.019-5.567.361-8.202 1.249-7.919 2.775-15.824 5.584-23.745 8.35.001-4.395-.002-8.787.002-13.181 5.731-2.011 11.715-3.23 17.741-3.923m30.91 32.376c.901-.005 1.805-.001 2.707-.003.51.007 1.072.126 1.433.517.364.411.393 1.008.293 1.523-.056.34-.356.541-.573.779.189.167.43.324.475.596.104.52-.006 1.068.161 1.578.105.18.212.362.22.578-.374.01-.747.003-1.121.009-.252-.593-.064-1.26-.221-1.871-.062-.249-.32-.404-.566-.396-.61-.026-1.222-.008-1.83-.009-.009.758.022 1.519-.018 2.276a28 28 0 0 0-.955.001c-.016-1.862-.005-3.719-.005-5.578m.978.884v1.541c.545.003 1.091.007 1.638.002.271-.002.586-.053.762-.283a.98.98 0 0 0 .014-.981c-.14-.235-.437-.258-.681-.273-.578-.017-1.156-.007-1.733-.006"/><path d="M126.69 94.796c1.729-.216 3.535.559 4.571 1.961 1.131 1.446 1.338 3.532.539 5.184-.806 1.714-2.65 2.915-4.559 2.852-1.757.039-3.459-.984-4.324-2.499-.782-1.335-.875-3.044-.27-4.464.68-1.639 2.282-2.836 4.043-3.034m-.376.923a4.175 4.175 0 0 0-3.119 4.968 4.17 4.17 0 0 0 1.808 2.611c1.403.922 3.37.871 4.712-.142 1.385-.978 2.043-2.857 1.567-4.484-.294-1.1-1.08-2.036-2.07-2.581a4.17 4.17 0 0 0-2.898-.372"/><path d="M389.97 24.061q-4.51 0-4.51 4.604v59.847h13.53V42.475q0-3.591 1.848-2.762l34.227 21.177 40.585 25.734q2.886 1.888 4.51 1.888 4.51 0 4.51-4.605V24.06h-13.53v46.037q0 3.591-1.849 2.763l-34.227-21.177-40.585-25.734q-2.885-1.888-4.509-1.888m-211.09.001a.463.463 0 0 0-.479.447v5.997c0 .245.201.45.479.45h71.617c6.054 0 8.928 4.366 8.928 10.452 0 6.062-2.874 10.417-8.928 10.417H193.84c-8.798 0-15.438 7.39-15.438 17.194v19.028c0 .26.2.466.478.466h12.91a.465.465 0 0 0 .464-.466V69.019c0-6.047 3.475-10.313 8.516-10.313h54.311c12.189 0 18.165-7.49 18.165-17.293 0-9.788-5.976-17.35-18.165-17.35zm153.17 0c-12.214 0-18.199 7.547-18.199 17.346v29.767c0 6.081-2.872 10.447-8.934 10.447h-34.635c-.242 0-.443.2-.443.43v6.009c0 .245.2.451.443.451h39.204c12.21 0 18.21-7.513 18.21-17.317V41.408c0-6.086 2.848-10.46 8.944-10.46h35.008c.275 0 .49-.197.49-.443v-5.997c0-.235-.215-.446-.49-.446z" style="paint-order:fill markers stroke"/><path d="M492.41 82.049h2.32v-.831h-5.63v.831h2.33v6.418h.98zm8.71-.831-2.04 6.191-2.1-6.191h-1.35v7.249h.98v-5.89l1.96 5.89h.97l1.95-5.89v5.89h.81v-7.249zM177.68 110.62v22.59h3.957v-20.165h2.428c1.752 0 2.542.047 2.84.172.587.245 1.192.992 1.44 1.775.13.41.237 1.3.275 2.289.078 2.023-.156 3.28-.774 4.096-.644.85-1.038.985-2.86.985h-1.563v2.452l4.913-.095.87-.41c1.588-.75 2.74-2.282 3.206-4.256.26-1.103.256-3.568-.008-4.75-.254-1.138-.782-2.283-1.376-2.976a6 6 0 0 0-1.064-.921c-1.152-.74-1.595-.786-7.207-.786zm17.484 0v22.59h3.956v-22.59h-1.978zm49.614 0c-1.772 0-3.595.063-4.052.136-1.03.164-2.23.708-2.911 1.324-.686.62-1.27 1.55-1.587 2.528-.197.608-.26 1.162-.267 2.33-.012 1.61.124 2.296.678 3.381.36.706 1.32 1.725 1.978 2.106.765.443 1.743.678 3.426.813 1.28.104 1.578.167 1.995.443q.492.324.857 1.065c.341.695.36.84.359 2.337-.002 1.492-.023 1.64-.352 2.266-.222.425-.544.798-.88 1.021l-.532.352-3.362.04-3.357.036v2.413h3.82c2.324 0 4.087-.058 4.498-.144 1.564-.33 2.866-1.343 3.498-2.724.532-1.164.72-2.359.65-4.152-.074-1.891-.354-2.921-1.109-4.052-.939-1.404-1.988-1.885-4.654-2.13-.986-.09-1.997-.248-2.245-.354-.55-.232-1.062-.817-1.289-1.468-.223-.64-.22-2.497.008-3.281.224-.775.905-1.488 1.624-1.703.346-.105 1.512-.156 3.474-.156H248v-2.426zm45.466 0v3.319h3.957v-3.319h-1.979zm-38.044 2.553.04 8.136c.036 8.008.042 8.148.316 8.874a7 7 0 0 0 .73 1.352 4.1 4.1 0 0 0 2.001 1.467c.402.141 1.085.196 2.381.2l1.819.008v-2.424h-1.188c-1.131 0-1.206-.016-1.528-.352-.2-.207-.395-.613-.474-.989-.087-.406-.123-2.515-.1-5.807l.036-5.169 4.275-.072v-2.417h-4.339v-2.807h-1.982zm27.323 0v8.036c0 7.772.009 8.064.264 8.838.303.922.918 1.834 1.587 2.345.255.196.761.458 1.124.582.506.175 1.072.228 2.417.232l1.755.004v-2.425h-1.133c-.946 0-1.186-.04-1.463-.26-.184-.143-.391-.473-.464-.733-.08-.29-.131-2.585-.131-5.93v-5.457h4.347l-.037-1.18-.036-1.181-2.137-.035-2.137-.037v-2.8h-1.978zm-3.49 2.775-4.223.068c-4.542.07-5.012.126-6.346.802-1.491.756-2.53 2.223-3.002 4.235-.197.84-.232 1.563-.232 4.754 0 3.624.01 3.793.291 4.487.566 1.398 1.408 2.261 2.62 2.68.535.185 1.092.228 2.928.23l2.266.006v-2.426h-1.587c-1.503 0-1.605-.018-1.963-.319-.236-.199-.428-.53-.518-.886-.178-.704-.186-6.257-.012-7.6.248-1.91.678-2.806 1.576-3.287.309-.165.842-.224 2.346-.263l1.946-.052v14.833h4.084v-4.767c0-2.62-.041-6.504-.089-8.63zm-59.939.004-4.243.064c-4.611.07-5.274.155-6.533.83-3.72 2.255-4.551 12.227-1.807 15.118.46.468 1.224.93 1.862 1.125.176.054 1.367.101 2.649.106l2.328.013v-2.424h-1.63c-1.84 0-2.082-.087-2.43-.877-.154-.352-.215-1.045-.254-2.912-.058-2.652.127-5.53.414-6.485.258-.858.739-1.517 1.304-1.795.413-.202.793-.24 2.405-.243l1.914-.004.032 7.37.032 7.37h3.957v-8.63zm4.26.028c-1.15 0-2.088.014-2.086.032s1.314 3.87 2.915 8.563l2.912 8.535-1.64 4.228a419 419 0 0 0-1.639 4.267c0 .02.783.02 1.74 0l1.738-.036 5.085-12.763c2.798-7.02 5.09-12.776 5.09-12.794s-.826-.032-1.84-.032c-1.336 0-1.87.044-1.942.16-.054.087-1.031 2.569-2.17 5.515-1.136 2.947-2.118 5.374-2.184 5.396s-.97-2.46-2.005-5.515l-1.883-5.556zm69.89 0v17.229h3.957v-17.23h-1.979zm23.929.064-.037 8.582h.005l-.036 8.583h4.088v-14.832l1.946.052c2.066.054 2.41.14 2.991.761.455.487.78 1.374.925 2.528.075.604.136 3.378.136 6.286v5.205h3.955l-.004-5.073c0-5.38-.095-6.657-.613-8.116-.706-1.984-2.004-3.16-4.116-3.733-.698-.19-1.444-.222-5.03-.231zm-10.003.036c-1.116 0-2.228.14-3.027.415-1.063.365-1.731.794-2.401 1.539-.727.809-1.254 1.904-1.563 3.242-.188.821-.234 1.51-.222 3.51.01 2.104.052 2.641.279 3.474.384 1.411.887 2.362 1.65 3.135.753.76 1.865 1.343 3.117 1.627.563.127 1.343.168 2.536.136 2.057-.055 3.035-.32 4.235-1.14 1.006-.688 1.767-1.774 2.198-3.14.616-1.95.725-5.165.252-7.537-.23-1.153-.79-2.402-1.413-3.163-.586-.715-1.545-1.342-2.572-1.683-.83-.275-1.953-.415-3.07-.415zm.048 2.376c.58 0 1.16.112 1.615.343.594.302.968.826 1.292 1.819.212.649.265 1.24.315 3.386.065 2.803-.063 4.125-.498 5.12-.307.704-.803 1.251-1.349 1.484-.233.1-.846.175-1.415.175-.807 0-1.116-.057-1.567-.294a2.5 2.5 0 0 1-.917-.866c-.577-.93-.767-2.151-.775-4.9-.006-2.619.129-3.67.611-4.735.164-.362.494-.803.738-.99.465-.354 1.205-.542 1.95-.542m27.172 14.824h-.41v-2.803h-.937v-.393h2.29v.392h-.939zm2.838-.742.876-2.454h.64v3.198h-.427v-2.673l-.97 2.671h-.26l-.966-2.671v2.671h-.405v-3.198h.64z"/><path d="M470.6 109.79v23.613h3.664v-8.898h.065l6.552 8.898h4.498l-7.195-9.38 6.842-7.583h-4.434l-6.263 7.324h-.065V109.79zm-96.988.674v22.939h3.502v-19.34h.064l8.643 19.34h5.559v-22.94h-3.536v19.149h-.064l-8.45-19.148zm36.924 1.574v4.402h-2.826v2.795h2.826v9.543q0 1.156.162 2.055.16.868.643 1.512.513.61 1.412.931.9.32 2.379.32.738 0 1.476-.064.74-.065 1.285-.129v-2.73a10.5 10.5 0 0 1-1.67.129q-.675 0-1.06-.096a1.08 1.08 0 0 1-.61-.387q-.226-.29-.29-.802a13 13 0 0 1-.063-1.415v-8.867h3.727v-2.795H414.2v-4.402zm-9.787 4.016q-1.863 0-3.373.675a7.2 7.2 0 0 0-2.54 1.832q-1.059 1.188-1.638 2.827-.546 1.638-.545 3.566 0 1.928.578 3.566a8.1 8.1 0 0 0 1.766 2.795q1.156 1.157 2.86 1.832 1.702.643 3.888.643 2.892 0 5.107-.772l-.48-2.73q-.964.352-2.121.545-1.125.161-2.186.162-2.474 0-4.047-1.285-1.575-1.318-1.767-3.729h11.855v-1.574q0-1.896-.483-3.437-.45-1.575-1.38-2.635a6.1 6.1 0 0 0-2.315-1.67q-1.35-.61-3.18-.611zm50.268 0q-1.896 0-3.438.611a7.5 7.5 0 0 0-2.603 1.734q-1.06 1.124-1.637 2.795-.579 1.64-.58 3.696.001 2.088.58 3.726c.58 1.638.93 2.024 1.637 2.795a7.3 7.3 0 0 0 2.603 1.768q1.542.61 3.438.611c1.896.001 2.4-.204 3.406-.611a6.9 6.9 0 0 0 2.602-1.768q1.093-1.157 1.672-2.795.578-1.638.578-3.726 0-2.056-.578-3.696-.58-1.67-1.672-2.795a6.6 6.6 0 0 0-2.602-1.734q-1.51-.61-3.406-.611m17.203 0q-3.278 0-4.434 2.634h-.064v-2.248h-3.567v16.963h3.662v-9.06q0-1.446.32-2.537.323-1.092.87-1.735c.547-.643.814-.739 1.35-.931q.802-.32 1.54-.29.835 0 1.381.128l.163-2.86a7 7 0 0 0-.643-.031 6 6 0 0 0-.578-.033m-49.324.386 4.51 16.963h4.54l3.173-13.879h.062l3.11 13.88h4.539l4.539-16.964H439.7l-3.078 13.72h-.063l-3.11-13.72h-4.632l-3.018 13.72h-.062l-3.139-13.72zm-18.146 2.248q1.83 0 2.89 1.254 1.093 1.221 1.061 3.278v.064h-8.45q.224-2.056 1.382-3.31 1.189-1.286 3.117-1.286m50.268.162q1.188 0 2.056.45.868.449 1.415 1.252.577.803.834 1.927.288 1.093.289 2.41 0 2.764-1.123 4.434-1.125 1.64-3.471 1.672-2.314-.032-3.47-1.703-1.124-1.671-1.124-4.402 0-1.318.256-2.41.29-1.093.836-1.895a3.96 3.96 0 0 1 1.445-1.285q.868-.45 2.057-.45" style="paint-order:stroke markers fill"/><path d="M355.51 126.33q0-1.22-.514-2.024-.514-.835-1.35-1.317-.835-.514-1.895-.707-1.06-.225-2.153-.225t-2.152.096-2.25.29l.611-11.985h12.273v3.053h-8.996l-.353 5.686q.739-.064 1.285-.096t.932-.032q1.67 0 3.148.45 1.51.417 2.667 1.285t1.831 2.217q.675 1.317.675 3.116 0 1.928-.707 3.374-.675 1.413-1.831 2.377-1.125.932-2.699 1.414-1.542.482-3.277.482-1.767 0-3.47-.322-1.67-.289-3.213-.996l.996-2.923q1.221.578 2.603.9 1.381.289 2.827.289.996 0 1.928-.225.931-.257 1.606-.771.675-.547 1.06-1.382.418-.835.418-2.024" aria-label="5" style="paint-order:stroke markers fill"/></svg>