<!-- Created by ERK --><?xml version="1.0" encoding="UTF-8" standalone="no"?>
<svg
   xml:space="preserve"
   width="750"
   height="211"
   version="1.1"
   id="svg4"
   sodipodi:docname="psn5.svg"
   inkscape:version="1.3.2 (091e20e, 2023-11-25, custom)"
   xmlns:inkscape="http://www.inkscape.org/namespaces/inkscape"
   xmlns:sodipodi="http://sodipodi.sourceforge.net/DTD/sodipodi-0.dtd"
   xmlns="http://www.w3.org/2000/svg"
   xmlns:svg="http://www.w3.org/2000/svg"><defs
     id="defs4" /><sodipodi:namedview
     id="namedview4"
     pagecolor="#505050"
     bordercolor="#eeeeee"
     borderopacity="1"
     inkscape:showpageshadow="0"
     inkscape:pageopacity="0"
     inkscape:pagecheckerboard="0"
     inkscape:deskcolor="#505050"
     inkscape:zoom="2.22"
     inkscape:cx="375"
     inkscape:cy="114.18919"
     inkscape:window-width="2560"
     inkscape:window-height="1351"
     inkscape:window-x="-9"
     inkscape:window-y="-9"
     inkscape:window-maximized="1"
     inkscape:current-layer="svg4" /><path
     d="m 496.879,34.318 q -9.405,0 -9.406,9.604 v 124.824 h 28.216 v -96.02 q 0,-7.49 3.856,-5.761 l 71.387,44.17 84.648,53.673 q 6.02,3.938 9.406,3.938 9.406,-0.001 9.407,-9.604 V 34.318 h -28.217 v 96.02 q 0,7.49 -3.858,5.761 L 590.932,91.929 506.283,38.256 q -6.019,-3.938 -9.404,-3.938 M 56.605,34.32 c -0.578,0 -0.998,0.44 -0.998,0.932 v 12.507 c 0,0.512 0.42,0.942 0.998,0.942 H 205.98 c 12.627,0 18.62,9.104 18.62,21.797 0,12.643 -5.993,21.726 -18.62,21.726 H 87.809 c -18.351,0 -32.2,15.415 -32.2,35.862 v 39.687 c 0,0.543 0.417,0.973 0.996,0.973 h 26.928 a 0.97,0.97 0 0 0 0.967,-0.973 v -39.687 c 0,-12.612 7.247,-21.51 17.762,-21.51 h 113.277 c 25.423,0 37.887,-15.621 37.887,-36.068 0,-20.415 -12.464,-36.188 -37.887,-36.188 z m 319.461,0 c -25.474,0 -37.957,15.742 -37.957,36.18 v 62.086 c 0,12.684 -5.99,21.789 -18.632,21.789 h -72.239 c -0.506,0 -0.925,0.417 -0.925,0.898 v 12.531 c 0,0.512 0.42,0.942 0.925,0.942 h 81.768 c 25.464,0 37.978,-15.671 37.978,-36.12 V 70.5 c 0,-12.694 5.943,-21.819 18.657,-21.819 h 73.017 c 0.573,0 1.024,-0.41 1.024,-0.922 V 35.252 c 0,-0.491 -0.45,-0.932 -1.024,-0.932 z"
     style="font-size:194.624px;line-height:0;font-family:'The Rave Is In Your Pants';-inkscape-font-specification:'The Rave Is In Your Pants';letter-spacing:0;word-spacing:0;display:inline;stroke-width:6;stroke-linecap:square;stroke-miterlimit:10;paint-order:fill markers stroke"
     id="path1" /></svg>
