<!-- Created by ERK --><svg xmlns="http://www.w3.org/2000/svg" width="1457.8" height="452.579" viewBox="0 0 385.709 119.745"><path d="M60.563.124q9.207 5.292 14.5 14.076 5.29 8.678 5.29 19.156 0 15.346-9.948 26.14-7.09 7.62-15.663 9.843-2.01.53-7.408 1.693v-10.9q0-2.223.317-3.916.635-3.387 4.551-4.022.106-.211-.635-.211H32.411q.318 0 .53.211 3.28.53 4.021 4.022.106 2.117.106 3.81v11.006q-2.434-.105-6.985-1.693-8.784-2.116-15.98-10.266-6.986-7.831-8.785-16.933-.847-4.34-.847-8.784 0-12.17 6.88-21.696Q16.43 4.675 24.156.124 16.854 2.77 11.033 9.65 5.636 15.893 2.99 23.725.132 31.98.132 40.658q0 20.744 16.087 34.079 9.313 7.725 20.849 8.89v11.112q.53 1.482 5.82 24.977 1.588-11.219 3.493-20.003.953-4.445.953-5.08v-10.9q11.853-1.27 21.378-9.102 9.208-7.62 13.44-19.05 2.54-6.773 2.54-14.923 0-9.313-3.28-18.203-6.35-16.827-20.85-22.33Zm34.29 66.781q0 6.35 4.974 11.536 4.55 4.762 12.7 4.974-6.456-.318-9.843-6.985-.846-2.328-.846-5.61V39.919q-.424-3.599 3.916-5.08H91.36q2.964.846 3.493 4.974zm39.687 0q0 7.09-4.974 11.43-2.328 2.117-4.128 3.07-3.492 1.798-8.466 1.904 6.35-.212 9.63-6.985.953-1.799.953-4.974V39.812q.423-3.599-3.81-4.869h14.605q-3.28.741-3.81 4.869zm47.413 16.51h13.97q-3.28-1.588-5.715-6.88-4.868-10.477-8.043-17.144-.317-.741-1.8-3.81h.107l-8.361-19.79-3.598 9.207q-.953 2.222-3.916 9.101-.741 1.905-5.08 11.43-2.964 6.35-4.869 9.948-3.81 6.774-6.455 7.938h9.525q-2.329-.423-2.646-2.646l.317-2.117q1.376-4.656 3.387-8.149 1.905-2.54 6.879-2.54-3.81-.211-3.81-2.963 0-.74.423-1.8l2.117-5.185q.53-1.482 2.54-5.715 2.117-4.233 3.07-3.704 1.163.635 3.28 5.715 1.164 2.857 3.598 8.572.424 1.165.424 1.8 0 2.01-3.07 2.963l-1.058.317h.741q2.01.106 3.175.318 3.387 1.058 5.397 6.032l2.435 5.821q.317 3.07-2.964 3.281zm33.549-4.657q0 3.916 3.387 4.657h-13.335q2.858-.74 3.281-4.657l.106-37.676q0-4.022-3.281-4.763h13.335q-2.54.53-3.387 4.551v13.335q0 3.81 4.974 5.398-5.08 1.058-5.08 6.35zm19.156-21.378q8.573-11.112 17.674-23.177l-27.305 25.505h.106l-.106.106h.212q22.543 8.361 23.813 25.4.211-1.693.211-3.387 0-11.218-6.35-18.414-3.598-4.128-8.255-6.033zm38.206 4.022q-1.588 1.376-1.588 3.704v4.127q0 1.694.953 7.303 2.857 6.561 8.89 6.879-5.927-.212-11.113-4.128-5.609-4.339-5.609-10.054V41.082q-1.058-4.234-3.598-5.08h13.97q-3.493.846-3.493 5.291v13.441q0 2.752 1.482 3.916 0 .635 8.15.953-5.398.211-8.044 1.799zm13.758 22.225q8.255-.635 15.875-15.558v15.452q-1.164-1.588-3.598-1.588-1.482 0-5.503.847-4.022.847-6.774.847zm-2.751-47.625h16.086l.106 15.98q-1.376-12.911-16.192-15.98Zm64.981-13.123q3.598-7.62 5.82-8.255h-23.918q5.821 1.27 5.821 8.466l.106 67.945q-3.598 7.62-5.82 8.255h23.918q-5.927-1.27-5.927-8.467zm30.903 0q3.598-7.62 5.82-8.255h-23.917q5.82 1.27 5.82 8.466l.106 67.945q-3.598 7.62-5.82 8.255h23.918q-5.927-1.27-5.927-8.467z" style="font-size:105.833px;line-height:1.25;font-family:DpQuake;-inkscape-font-specification:&quot;DpQuake, Normal&quot;;fill:#000;stroke:#000;stroke-width:.264583;stroke-opacity:1"/></svg>