<!-- Created by ERK --><svg xmlns="http://www.w3.org/2000/svg" width="1142.796" height="451.999" viewBox="0 0 302.365 119.591"><g style="fill:#000;stroke:none"><path d="M60.43 0q9.208 5.292 14.5 14.076 5.291 8.678 5.291 19.156 0 15.345-9.948 26.14-7.09 7.62-15.663 9.843-2.011.529-7.408 1.693v-10.9q0-2.223.317-3.917.635-3.386 4.55-4.021.107-.212-.634-.212H32.279q.318 0 .53.212 3.28.529 4.02 4.021.107 2.117.107 3.81v11.007q-2.434-.106-6.985-1.693-8.784-2.117-15.981-10.266-6.985-7.832-8.784-16.933-.847-4.34-.847-8.784 0-12.171 6.88-21.696Q16.298 4.55 24.023 0 16.721 2.646 10.9 9.525q-5.398 6.244-8.044 14.076Q0 31.856 0 40.534q0 20.743 16.087 34.078 9.313 7.726 20.849 8.89v11.113q.529 1.481 5.82 24.976 1.588-11.218 3.493-20.002.953-4.445.953-5.08v-10.9q11.853-1.27 21.378-9.103 9.207-7.62 13.44-19.05 2.54-6.773 2.54-14.922 0-9.313-3.28-18.203Q74.93 5.503 60.43 0m34.29 66.78q0 6.35 4.975 11.536 4.55 4.763 12.7 4.975-6.456-.318-9.843-6.985-.847-2.329-.847-5.61V39.793q-.423-3.598 3.916-5.08H91.228q2.963.847 3.492 4.974zm39.688 0q0 7.091-4.974 11.43-2.329 2.117-4.128 3.07-3.492 1.799-8.466 1.905 6.35-.212 9.63-6.985.953-1.8.953-4.974V39.687q.423-3.598-3.81-4.868h14.605q-3.281.74-3.81 4.868zm47.413 16.51h13.97q-3.28-1.587-5.715-6.879-4.868-10.477-8.043-17.145-.318-.74-1.8-3.81h.106l-8.36-19.79-3.599 9.207q-.952 2.223-3.916 9.102-.74 1.905-5.08 11.43-2.963 6.35-4.868 9.948-3.81 6.773-6.456 7.938h9.525q-2.328-.424-2.646-2.646l.318-2.117q1.376-4.657 3.387-8.15 1.905-2.539 6.879-2.539-3.81-.212-3.81-2.963 0-.741.423-1.8l2.117-5.185q.529-1.482 2.54-5.715 2.116-4.234 3.069-3.704 1.164.635 3.28 5.714 1.165 2.858 3.6 8.573.422 1.164.422 1.8 0 2.01-3.069 2.962l-1.058.318h.74q2.012.106 3.176.317 3.386 1.059 5.397 6.033l2.434 5.82q.318 3.07-2.963 3.282m33.549-4.657q0 3.916 3.387 4.657h-13.335q2.857-.741 3.28-4.657l.107-37.677q0-4.021-3.281-4.762h13.335q-2.54.53-3.387 4.55v13.336q0 3.81 4.974 5.397-5.08 1.058-5.08 6.35zm19.156-21.378q8.572-11.113 17.674-23.178l-27.305 25.506h.106l-.106.106h.212q22.542 8.36 23.812 25.4.212-1.694.212-3.387 0-11.218-6.35-18.415-3.598-4.127-8.255-6.032m38.206 4.021q-1.588 1.376-1.588 3.704v4.128q0 1.693.953 7.302 2.857 6.562 8.89 6.88-5.927-.212-11.113-4.128-5.609-4.34-5.609-10.054V40.957q-1.058-4.233-3.598-5.08h13.97q-3.493.847-3.493 5.292v13.44q0 2.752 1.482 3.917 0 .635 8.149.952-5.398.212-8.043 1.8m13.758 22.225q8.255-.635 15.875-15.557v15.451q-1.164-1.587-3.598-1.587-1.482 0-5.504.847-4.021.846-6.773.846m-2.752-47.625h16.087l.106 15.981q-1.376-12.911-16.193-15.98" style="font-size:105.833px;line-height:1.25;font-family:DpQuake;-inkscape-font-specification:&quot;DpQuake, Normal&quot;;fill:#000;stroke:none;stroke-width:.264583"/></g></svg>