<!-- Created by ERK --><svg xmlns="http://www.w3.org/2000/svg" width="312.473" height="81.01" preserveAspectRatio="xMidYMid" viewBox="0 0 312.473 81.01"><g fill="#0e141b"><path d="M0 77.8C0 76 1.3 67.1 3 58c1.6-9.1 3.8-21.3 4.8-27.2C9.9 18.9 8.4 21 25 7.1L33.5 0h36.2c19.9 0 36.4.3 36.6.8.3.4-.8 8.1-2.5 17.2l-2.9 16.5-5.7 5C82.9 50.4 82.6 50.6 83.6 52.1c.5.8 1.8 3.9 2.9 6.9 1.8 5 2.3 5.5 5.3 5.8 3.7.4 3.9 1.8 1.8 10.7l-1.1 5h-28l-4.4-12.7L55.8 55h-6.4c-7.3 0-7.3 0-5.3-10.3l1.2-5.7h10.1c9.7-.1 10.2-.2 13.3-2.9 3.1-2.9 3.6-4.3 5.7-16.8L75 16H45.5l-3.6 3.3c-3.4 3-3.8 3.9-5.3 13.2-4.8 28.8-8.1 46.1-8.9 47.3-.7.8-4.8 1.2-14.3 1.2H0Zm24.5-4c.2-1.3 2.5-14.2 5.1-28.8l4.5-26.5 3.7-3.2 3.7-3.3H79v5.3c-.1 2.8-.7 8.3-1.4 12-1 5.4-2 7.5-4.6 10.3L69.6 43h-9.7c-5.4 0-10 .3-10.2.8-.3.4-.8 2.1-1.2 3.9l-.6 3.2 6.2.3 6.3.3 3.8 12.3L68.1 76h10.4c9.7 0 10.5-.1 10.5-1.9 0-1.1.3-2.6.6-3.5.5-1.2-.1-1.6-2.3-1.6-2.7 0-3.1-.5-4.9-6.2-1.7-5.5-2.3-6.3-4.7-6.6-2.3-.3-2.7-.8-2.7-3.6 0-3 1.1-4.2 10.8-12.4l10.8-9.1 2.2-12.4C100 11.9 101 5.8 101 5.1c0-.8-8.8-1.1-31.8-1.1H37.3L25.7 14c-6.5 5.6-11.9 11-12.2 12.3-.7 3.2-8.5 48-8.5 48.9 0 .5 4.3.8 9.5.8 9 0 9.5-.1 10-2.2m74.3 6c-.3-.7.8-8.5 2.4-17.3 1.5-8.8 3.1-17.9 3.4-20.3.6-3.9 1.5-5.1 9.3-11.8l8.6-7.4h25.3c22.3 0 25.3.2 25.9 1.6.3.9-.4 7.3-1.7 14.3-1.2 6.9-3.3 18.7-4.6 26.1s-2.6 14.1-2.9 14.8c-.3.9-3 1.2-10.2 1l-9.8-.3V77c.1-1.9.5-5.9.9-8.7l.8-5.3h-23.8l-1.4 8.3c-.7 4.5-1.8 8.5-2.4 8.9-2 1.3-19.4.9-19.8-.4M116.9 67l1.6-8.5 16.4-.3 16.4-.3-.7 6.8c-.3 3.8-.9 7.8-1.2 9.1-.6 2.1-.4 2.2 5.3 2.2h5.8l3.9-21.7c2.1-12 4-22.8 4.3-24l.5-2.3h-43.5l-6.8 5.5c-3.7 3.1-7.3 6.3-8 7.1-1 1.2-6.8 30.1-6.9 34.2 0 1 1.5 1.2 5.7 1l5.7-.3z"/><path d="M120 52.3c0-7 2.3-15.9 4.8-18.5l2.6-2.8h14.3c16.7 0 15.4-1.5 12.6 14.3l-1.6 9.7H120Zm29.5-7c.3-2.7.9-5.8 1.2-7 .5-2.3.4-2.3-9.9-2.3-9.6 0-10.6.2-12.5 2.3-1.1 1.2-2.4 4.3-2.7 7l-.7 4.7h23.9zm26.6 28.3-6.2-7.5 1.1-6.8c.6-3.7 1.6-7.3 2.2-8 .8-1 6.3-1.3 22.9-1.3H218l.4-2.2c2.4-11.7 2.3-11.8-11-11.8H197l-.5 2.8c-1.2 5.6-1.5 5.7-12.1 5.7h-9.9l.3-4.5c.2-2.5.8-7.2 1.5-10.5l1.2-6 25.7-.3 25.7-.2 6.4 7.4 6.3 7.4-1.9 11.4c-1 6.2-2.3 11.9-2.9 12.6-.8.9-6.6 1.2-22.9 1.2-17.3 0-21.9.3-21.9 1.3 0 3.3 2.3 3.7 22 3.7 10.7 0 20.1.4 20.8.9 1 .6 1.1 1.9.6 4.7-1.4 7.9.5 7.4-27.8 7.4h-25.3Zm53.9.9c0-1.3-2.9-1.5-19.9-1.5h-19.9l-1.6-2.5c-.9-1.3-1.6-4-1.6-5.9 0-6.9-1.1-6.6 23.5-6.6 20.4 0 22.4-.2 22.9-1.7.2-1 1-5 1.7-9l1.2-7.2-5.2-6-5.3-6.1h-22.4c-18.2 0-22.4.3-22.4 1.4 0 .7-.3 3.4-.6 6l-.7 4.6h5.6c6 0 5.9.1 6.9-6.5.3-1.9 1.2-2 14.2-2.3 18-.3 18.1-.3 17.3 11.8-.9 13.2 1.6 12-24.3 12H177l-.4 2.3c-1.3 5.6-1 6.6 3.8 12.6l4.9 6.1h22.4c19.2 0 22.3-.2 22.3-1.5m7.4 5c-.6-1.5-.2-4.2 4.7-30.6l2.1-11.7 8.5-7.1 8.5-7.1h25.3c14 0 25.6.4 25.9.9.5.8-1.7 15.3-2.9 19.2-.6 1.7-1.8 1.9-9.9 1.9-5.2 0-9.7-.5-10.3-1.1s-.8-2.3-.3-4.5l.8-3.4h-10.2c-11.8 0-14 1-15 6.7-.4 2.1-.9 4.6-1.2 5.5-.5 1.6 1.2 1.8 21.8 2l22.3.3-.3 4.9c-.1 2.7-.7 5.5-1.3 6.3-.9 1-5.9 1.3-23 1.3-12.6 0-21.9.4-21.9.9s-.3 1.6-.6 2.5c-.5 1.4 1.6 1.6 20.4 1.6 11.6 0 21.7.3 22.6.6 1.3.5 1.5 1.5 1 4.8-1.3 8.2 1.4 7.6-34.5 7.6-27.8 0-32-.2-32.5-1.5m61.6-5c0-1.3-3.1-1.5-21.5-1.5H256v-5.2c0-10.6-1.9-9.8 23.5-9.8 18.9 0 22.4-.2 22.9-1.5S300.1 55 281 55h-22v-4.4c0-8 1.8-14.9 4.6-17.4 2.3-2.1 3.4-2.2 16.5-2.2H294v9h5.4c3 0 5.7-.4 6-.8.3-.5.8-3.2 1.2-6l.7-5.2H264l-7.9 6.6-7.8 6.7-2.7 15.6c-1.5 8.6-3 16.4-3.2 17.4-.5 1.6 1.3 1.7 28 1.7 24.8 0 28.6-.2 28.6-1.5"/></g><g fill="#3e5267"><path d="M1 78c0-1.1 8.7-50.9 9.5-54.7.3-1.3 5.7-6.7 12.2-12.3L34.3 1h34.8c21.2 0 35 .4 35.4 1 .3.5-.7 7.9-2.1 16.5l-2.8 15.6-10 8.5C80.8 50 79.5 50.8 79.2 49c-.6-3.5.6-5 3.7-5 2.5 0 3-.4 3.3-2.7.2-2.2.9-2.9 3.1-3.1 1.9-.2 2.7-.9 2.7-2.4 0-1.1.8-2.2 1.9-2.5 2.1-.5 2.2-.7 4.6-14.8.9-5 1.8-10 2.1-11.2L101 5H68.1c-28.3 0-33 .2-33.5 1.5-.3.9-1.8 1.5-3.5 1.5-2.5 0-3 .4-3.3 2.8-.2 2.2-.8 2.8-3.5 3-2.6.3-3.2.8-3.5 3-.2 2.2-.9 2.8-3.5 3-2.6.3-3.3.8-3.3 2.5 0 1.2-2.1 14.5-4.7 29.5C5.2 75.3 4.3 79 2.8 79c-1 0-1.8-.5-1.8-1"/><path d="M24 77.3c0-1 2.1-14.1 4.7-29.1 4.1-23.6 5-27.2 6.5-27.2 1 0 1.8.5 1.8 1 0 1.1-8.7 51-9.5 54.8-.6 2.6-3.5 3-3.5.5m39.1-4.5c-2.6-7.6-2.6-8.8-.3-8.8 1.3 0 2.3 1.5 3.5 5.3 2.1 6.6 2.2 9.7.3 9.7-.8 0-2.3-2.5-3.5-6.2m25.4 2.5c.3-2.1.9-4.8 1.2-6 .5-2.1.1-2.3-2.9-2.3-3.3 0-3.5-.3-5.1-5.3-2.2-6.9-2.2-8.9 0-8.5 1.1.2 2.4 2.5 3.7 6.6 1.9 6 2.1 6.2 5.4 6.2 3 0 3.4.2 2.9 2.3-.4 1.2-.9 4.1-1.3 6.5-.5 3.3-1.1 4.2-2.6 4.2-1.8 0-1.9-.4-1.3-3.7m11.5 2.5c0-.7 1.5-9.8 3.4-20.3l3.4-19 4.8-4.3c2.7-2.4 6.2-5.3 7.7-6.4l2.8-2-.3 3.3c-.2 2.9-.7 3.5-3 3.7-1.9.2-2.8.9-2.8 2.1 0 2.1-1.9 4.1-4 4.1-1.4 0-2.3 3.5-5 20-3 17.3-3.7 20-5.2 20-1 0-1.8-.6-1.8-1.2m15-.3c0-1 .7-5.7 1.6-10.6l1.7-8.9h3.3c3.6 0 4.9 2.6 1.7 3.2-1.4.2-2.2 2.3-3.4 8.8-1.1 6.4-1.9 8.6-3.2 8.8-1.1.2-1.7-.3-1.7-1.3m30 .8c0-.5.7-4.3 1.5-8.6s1.5-8.1 1.5-8.3.7-.4 1.5-.4c1.8 0 1.9 3 .3 11.6-.9 5.1-1.5 6.4-3 6.4-1 0-1.8-.3-1.8-.7m15 0c0-.5 2-12.3 4.5-26.3s4.5-25.8 4.5-26.2c0-.5.9-.8 2.1-.8 1.7 0 2 .5 1.6 2.3-.3 1.2-2.5 13.3-4.8 27-3.8 21.3-4.6 24.7-6.1 24.7-1 0-1.8-.3-1.8-.7m17.7-5c-4.2-5.2-4.5-5.8-2.6-6.1 3.2-.5 4.9.5 4.9 3.2 0 1.8.6 2.5 2.3 2.8 1.6.2 2.3 1.1 2.5 3.1.5 4.3-2 3.3-7.1-3M230 75c0-3.3.3-4 2-4 2.1 0 2.5 1.6 1.4 5.8-1.1 3.9-3.4 2.7-3.4-1.8m8.3 2.3c.3-1 2-10.2 3.7-20.4l3.3-18.6 7.8-6.7c8.3-7 11.3-8.2 10.7-4.3-.2 1.7-1.1 2.3-3.5 2.5-2.6.3-3.2.8-3.5 3-.2 2.1-.9 2.8-3 3-1.8.2-2.8.9-2.8 1.9 0 .9-.6 2.4-1.4 3.2-.7.9-2.5 8.6-4 17.1-3.8 22-3.5 21-5.7 21-1.5 0-1.9-.5-1.6-1.7m60.7-1.8c0-2.8.4-3.5 2-3.5 2.1 0 2.4 1 1.4 4.8-1 3.6-3.4 2.7-3.4-1.3m-44-4.9c0-1.3.3-4.4.6-7 .6-4.4.8-4.6 4-4.6 1.9 0 3.4.5 3.4 1 0 .6-.6 1-1.4 1-1.4 0-2.6 2.9-2.6 6.8 0 1.3.6 2.2 1.5 2.2.8 0 1.5.7 1.5 1.5 0 1-1.1 1.5-3.5 1.5-3 0-3.5-.3-3.5-2.4m-67.4-3.3c-1.2-7.6-1-8.3 2.9-8.3 1.9 0 3.5.5 3.5 1 0 .6-.6 1-1.4 1-1.3 0-2.6 2-2.6 3.9 0 .5 1.1 2 2.5 3.5l2.4 2.6h-3.3c-3.1 0-3.4-.3-4-3.7m-15.1-7.5c1-6.6 1.5-7.8 3.2-7.8 1.3 0 1.5.8.9 4.6-.3 2.6-.6 5.3-.6 6 0 .8-.9 1.4-2.1 1.4-1.9 0-2-.4-1.4-4.2m-114.1-2c-.9-3.2-1.1-3.3-7.4-3.8-7.2-.6-6.9-.2-5.5-8.7.9-4.9 3.5-4.3 3.5.7v4h5.5c5 0 5.6.2 6.5 2.6.6 1.4 1 3.9 1 5.5 0 4-2.5 3.8-3.6-.3M233 59.3c0-1 .7-5.6 1.5-10.3 1-5.5 1.1-8.8.5-9.4s-1-2-1-3.2c0-1.6-.7-2.4-2.2-2.6-1.9-.2-2.3-1-2.6-4.3l-.2-4 4.1 4.5c7.4 8.2 7.3 7.7 5.5 17.7-.9 4.8-1.9 9.8-2.1 11.1-.6 2.6-3.5 3-3.5.5m69-.5c0-4.3 1.2-6.8 3.2-6.8 1.4 0 1.8.5 1.5 1.8-.3.9-.8 2.9-1.1 4.5-.8 3.3-3.6 3.7-3.6.5M216 53c0-.5.6-1 1.4-1 1.8 0 2.2-1.3 3.1-8.4.5-3.9.4-6.1-.5-7.1-1.1-1.3-.8-1.5 1.9-1.5 3.6 0 3.8.9 1.9 12l-1.2 7h-3.3c-1.8 0-3.3-.4-3.3-1m-96-2.8c0-4.3 2.1-14.5 3.2-15.9.6-.7 2.7-1.3 4.6-1.3h3.6l-3.1 3.3c-2.1 2.2-3.3 4.6-3.8 7.7-.3 2.5-.9 5.3-1.1 6.2-.3 1.1.2 1.8 1.8 2.1 1.5.3 1 .5-1.4.6-3.5.1-3.8-.1-3.8-2.7m30 .5c0-1.6 1.9-12.5 2.6-14.9.3-1.1-.2-1.8-1.8-2.1q-2.25-.45 1.5-.6c4.3-.1 4.3-.3 2.5 11.2-.9 6.4-1.5 7.7-3 7.7-1 0-1.8-.6-1.8-1.3m109-3.1c0-1.3.3-4.4.6-7 .6-4 1-4.6 3-4.6 1.9 0 2.4-.5 2.4-2.5 0-2.2.4-2.5 3.5-2.5 2.4 0 3.5.5 3.5 1.5 0 .8-.6 1.5-1.4 1.5-2.4 0-6.4 4-7 7-.3 1.7-.9 4.4-1.2 6-.7 3.6-3.4 4.1-3.4.6m-68-6.8c0-1.3.3-4 .6-6 .6-3.5.9-3.8 4-3.8 3.8 0 4.8 2.4 1.4 3.3-1.3.3-2 1.4-2 3 0 1.4-.3 3.2-.6 4.1-.9 2.4-3.4 1.9-3.4-.6m99 1c0-3 1.3-5.8 2.6-5.8.9 0 1.4 1.2 1.4 3.5 0 2.8-.4 3.5-2 3.5-1.1 0-2-.6-2-1.2m15.4-2.9c.4-2.4 1-6.3 1.3-8.6.4-3.3 1-4.3 2.4-4.3 2.2 0 2.3 1 .6 10-.9 5-1.6 6.6-3.1 6.8-1.7.4-1.8 0-1.2-3.9m-129.1-.8c.3-1.5.9-5.1 1.3-8 .5-4.1 1-5.1 2.5-5.1 2.2 0 2.2.1.8 9.1-1 5.8-1.5 6.9-3.2 6.9-1.6 0-1.9-.5-1.4-2.9M70.5 36c4.1-4.3 7.3-21 4-21-.8 0-1.5-.7-1.5-1.5 0-1 1.1-1.5 3.5-1.5 4.2 0 4.3.8 2 13.9C76.3 38.1 75.8 39 71.3 39h-3.7zM38.2 16.9c.3-3.1.6-3.4 4.1-3.7 2-.2 3.7 0 3.7.5 0 .4-1.9 2.1-4.1 3.7l-4 2.8z"/></g><g fill="#6a89aa"><path d="M1.4 76.3c.3-1.6 2.6-14.5 5.1-28.8C9.8 29 11.6 21 12.8 19.8c.9-.9 5.8-5.1 10.7-9.3 8.7-7.4 9-7.6 9.3-5 .4 3.3-1.3 5.5-4.4 5.5-1.6 0-2.4.7-2.6 2.3-.2 1.7-1.1 2.3-3.5 2.5-2.6.3-3.2.8-3.5 3-.2 1.9-1 2.8-2.5 3-1.7.2-2.3 1-2.3 2.7 0 1.3-2 13.9-4.5 27.9C7 66.5 5 78.2 5 78.5s-.9.5-2.1.5c-1.7 0-2-.4-1.5-2.7m60.8-7.1C58.5 57.8 58.4 57 60.8 57c1.4 0 2.5 2.3 5 9.8C69.5 78.2 69.6 79 67.2 79c-1.4 0-2.5-2.3-5-9.8m26.2 5.3c.6-3.8.5-4.5-.9-4.5-2.5 0-4-2-5.9-7.7-1.4-4.4-2.1-5.2-4.4-5.5-2.4-.3-2.7-.7-2.7-4.3 0-3.8.2-4 3.2-4.3 2.6-.3 3.2-.8 3.5-3 .2-2.2.9-2.8 3.5-3 2.6-.3 3.2-.8 3.5-3 .2-2.1.9-2.8 3.1-3 1.9-.2 2.7-.9 2.7-2.2 0-1 .4-2.1.9-2.5 1-.5 1.8-4.1 4.7-20.2 1.4-8.1 1.9-9.3 3.6-9.3 1.6 0 1.9.5 1.5 2.3-.3 1.2-1.5 7.8-2.7 14.7-1.1 6.9-2.4 13.2-2.8 14.1S93.8 38.7 88 43.6c-9.6 8.1-10.2 8.9-7.8 9.2 2.3.3 3 1.2 4.8 6.8 2 6 2.3 6.4 5.2 6.4h3.1l-.7 5.6c-.7 6.5-1.1 7.4-3.3 7.4-1.2 0-1.4-.8-.9-4.5m11.6 4.3c.1-4.2 7.4-40.6 8.2-41.3C122.3 25 126 22.8 126 27c0 1.5-.7 2-2.9 2-2.5 0-3 .4-3.3 2.8-.2 2.2-.8 2.8-3.5 3-2.6.3-3.3.8-3.3 2.4 0 1.2-.6 2.9-1.4 3.7-1.1 1.2-7.6 33.3-7.6 37.4 0 .4-.9.7-2 .7s-2-.1-2-.2m15-1.9c0-1.1.5-5.1 1.1-9 1-5.8 1.5-6.9 3.2-6.9s1.8.5 1.3 3.8c-2 11.4-2.8 14.2-4.2 14.2-.8 0-1.4-.9-1.4-2.1m30.4-.1c.3-1.3 1-4.9 1.6-8 .8-4.1 1.6-5.8 2.7-5.8 1.3 0 1.5.9.9 5.7-1 8.7-1.6 10.3-3.7 10.3-1.5 0-1.8-.5-1.5-2.2m14.6.6c0-1.5 7.4-44.9 8.5-50.1.4-1.4 1.3-2.3 2.5-2.3 1.7 0 1.9.5 1.3 3.3-.4 1.7-2.5 13.8-4.8 26.7-3.4 19.2-4.4 23.6-5.8 23.8-1.1.2-1.7-.3-1.7-1.4m17.1-5c-5.2-6.4-5.3-6.6-4.6-11.2 1.1-7.6 1.6-9.2 3.2-9.2 1.3 0 1.5 1 1.1 5.3-.8 7.8 0 11.5 2.6 11.9 1.5.2 2.2 1.1 2.4 3.1.2 1.9.9 2.7 2.3 2.7 1.2 0 1.9.7 1.9 2 0 3.7-3.4 2-8.9-4.6m52.3 3.5c.3-1.7.6-3.8.6-4.5 0-.8 1-1.4 2.1-1.4 1.9 0 2.1.4 1.5 3.1-.3 1.7-.6 3.8-.6 4.5 0 .8-1 1.4-2.1 1.4-1.9 0-2.1-.4-1.5-3.1M24 75.5c0-2.1 8-49.6 9.5-56.2.4-1.8 1.2-2.3 3.5-2.3 2.5 0 3-.4 3-2.4 0-1.3.7-2.7 1.6-3s9.9-.6 20.1-.6h18.6l-.6 6.8c-1 11-2.8 19.2-4.2 19.2-.7 0-1.5.9-1.8 2.1-.3 1.1-1.5 2.3-2.6 2.6-1.2.3-2.1.9-2.1 1.4 0 .4-4.4 1-9.7 1.1-8.9.3-9.8.5-10.1 2.3-.8 5.3-1.3 6.5-3 6.5s-1.8-.5-.7-6.2l1.1-6.3 10.1-.5c9.5-.5 10.4-.7 13.6-3.5 2.9-2.7 3.5-4 4.6-10.9.7-4.4 1.5-8.6 1.8-9.3.4-1-2.8-1.3-16.1-1.3H44l-3.6 3.3-3.5 3.2L32.5 47c-2.5 14-4.8 26.7-5.1 28.3-.7 3.4-3.4 3.6-3.4.2m215 1.8c0-.5 1.4-9.3 3.2-19.7l3.2-18.8 8-7c7.2-6.2 8.1-6.8 8.4-4.8.6 3.5-.5 5-3.7 5-2.5 0-3 .4-3.3 2.8-.2 2.1-.9 2.8-2.9 3-2.5.3-2.6.6-5.7 18.6-1.8 10-3.2 19-3.2 19.9 0 1.6-4 2.6-4 1m60-3.3c0-3.3.3-4 2-4 2.1 0 2.5 1.6 1.4 5.8-1.1 3.9-3.4 2.7-3.4-1.8m-44-5.7c0-1.6.3-4.5.6-6.5.6-3.5.9-3.8 4-3.8 3.8 0 4.8 2.4 1.4 3.3-1.3.3-2 1.4-2 3 0 1.4-.3 3.2-.6 4-.4 1.1.2 1.7 1.8 2 1.5.3 1 .5-1.4.6-3.5.1-3.8-.1-3.8-2.6M187 64v-6h3.5c3.9 0 5 2.4 1.5 3.3-2.4.6-2.6 3.4-.4 6.5 1.5 2.1 1.4 2.2-1.5 2.2H187Zm46-5.7c0-1.6.7-6.3 1.5-10.6 1.9-9.8 1.9-9.4-.5-10-1.4-.3-2-1.4-2-3.1 0-1.9-.5-2.6-2-2.6-1.6 0-2-.7-2-3.5 0-1.9.2-3.5.4-3.5s2.9 3.1 5.9 6.8l5.6 6.8-1.9 10.9c-1.1 6-2 11-2 11.2s-.7.3-1.5.3c-1 0-1.5-1-1.5-2.7m69-1.3c0-3.3.3-4 2-4 2.1 0 2.5 1.6 1.4 5.8-1.1 3.9-3.4 2.7-3.4-1.8m-86-3.4c0-.8.8-1.6 1.7-1.8 1.2-.2 2-2.1 2.9-6.8 1.1-6.1 1.1-6.6-.9-8.7-1.1-1.3-2.6-2.3-3.4-2.3-.7 0-1.3-.7-1.3-1.6 0-1.2.9-1.4 3.8-1.2 3.1.2 3.8.7 4.1 2.8.1 1.4.8 2.8 1.4 3.2.7.4.7 3.2-.2 9.2l-1.3 8.6h-3.4c-2.3 0-3.4-.5-3.4-1.4m42.4-5.8c.4-4 1.1-7.4 1.6-7.6.6-.2 1-1.7 1-3.3 0-2.7.3-2.9 3.7-2.9h3.7l-2.6 2.8c-2 2.1-2.8 4.2-3.4 9-.6 5.3-.4 6.2 1 6.2.9 0 1.6.7 1.6 1.5 0 1.1-1.1 1.5-3.6 1.5h-3.7zm-110.1 4.5c.9-.2 1.7-.5 1.7-.6s.7-4 1.5-8.7 1.5-8.6 1.5-8.7c0-.2.7-.3 1.5-.3 1.8 0 1.9 2.6.3 12l-1.2 7-3.6-.1c-1.9-.1-2.7-.3-1.7-.6"/><path d="M120 48.3c0-6.3 1.2-10.3 3.1-10.3 1.3 0 1.9-.9 2.1-3.2.3-3 .6-3.3 4.1-3.6 2.8-.2 3.7 0 3.7 1.2 0 .9-.5 1.6-1.1 1.6-2.8 0-6.7 4.1-7.3 7.7-1.4 8.2-1.8 9.3-3.2 9.3-.9 0-1.4-1-1.4-2.7m56-6.8c0-1.2 1-6.9 2.6-14.2.5-2.8 3.4-3 3.4-.3 0 1.1-.5 5.1-1.2 9-1 5.6-1.6 7-3 7-1 0-1.8-.7-1.8-1.5m114.7-3c.5-3.8.3-4.5-1.1-4.5-.9 0-1.6-.7-1.6-1.5 0-1 1.1-1.5 3.5-1.5 3.2 0 3.5.3 3.5 2.9 0 5.7-1.2 9.1-3.1 9.1-1.6 0-1.8-.6-1.2-4.5m14.3 2.4c0-1.1.5-5.1 1.1-9 1-5.6 1.5-6.9 3-6.9 1.1 0 1.9.4 1.9.8 0 1-1.8 11.6-2.5 15-.7 2.8-3.5 2.9-3.5.1M191 38c0-3.3.3-4 2-4 2.1 0 2.5 1.6 1.4 5.8-1.1 3.9-3.4 2.7-3.4-1.8"/></g><path fill="#b5d7f9" d="M4.1 63.3c1.5-8.7 3.8-21.7 5-29l2.3-13.1 11.3-9.6L34 2h70.7l-2.3 13.3c-1.3 7.2-2.6 14.4-3 16-.4 1.9-3.9 5.6-11.4 12-5.9 5-10.6 9.5-10.3 10 .2.4 1.5.7 2.8.7 1.9 0 2.6.9 4.1 5.3 2.1 6.5 3 7.7 6.1 7.7 2.3 0 2.4.2 1.8 4.3-1.3 8.4-.2 7.8-14.2 7.5l-12.6-.3L61.5 66l-4.2-12.5-6.2-.3-6.3-.3.7-5.2c.4-2.9.9-5.5 1.2-5.9.2-.5 4.6-.8 9.7-.8 9.1 0 9.3 0 13.3-3.5 3.7-3.1 4.2-4.2 5.2-10.2.7-3.8 1.4-8.3 1.7-10l.6-3.3h-32l-4 3.2c-2.3 1.8-4.3 4-4.6 4.8-.2.8-2.6 14-5.3 29.3L26.5 79H1.3Zm96.3 14c.5-1.8 6.6-36.3 6.6-37.5 0-.4 3.6-3.9 8-7.7l8-7.1h24.5c19.5 0 24.5.3 24.5 1.3 0 1.3-7.4 44.2-8.6 50-.6 2.7-.6 2.7-9.1 2.7h-8.6l.7-4.5c.3-2.5.9-6.5 1.2-9l.7-4.5h-27.2l-1 5.3c-.6 2.8-1.3 6.9-1.7 9l-.6 3.7h-9c-8 0-8.9-.2-8.4-1.7m50-27.5c1.6-7.4 2.6-13.1 2.6-14.3s-2.2-1.5-11.8-1.5c-11 0-12 .2-14 2.3s-4.1 8.9-4.2 13.5c0 2.2.2 2.2 13.5 2.2 13.2 0 13.5-.1 13.9-2.2m27.1 22.5c-3.8-4.7-5.4-7.4-5.1-8.8.2-1.1.8-4.1 1.1-6.7l.7-4.8h45.5l1.1-6.6c.9-5.6.9-7-.5-9-1.5-2.3-2-2.4-13.3-2.4-11.4 0-11.8.1-12.4 2.3-.3 1.2-.6 3.2-.6 4.5 0 2.1-.3 2.2-9.1 2.2h-9.1l.6-2.7c.3-1.6 1.1-5.6 1.7-9l1.2-6.3h49.3l5.2 6.5c2.9 3.5 5.2 7.4 5.2 8.7 0 1.2-.7 6.4-1.7 11.5l-1.6 9.3H190v2.8c0 5.8 1.6 6.2 23.9 6.2h20.2l-.7 3.8c-.4 2-.9 4-1.1 4.5-.2.4-11.4.7-24.8.7h-24.3zm61.5 6c0-1 5.8-35.2 6.5-37.9.2-1.1 4-5 8.4-8.7l7.9-6.7h49.4l-.5 2.3c-.3 1.2-1.1 5.2-1.7 9l-1.2 6.7h-8.9c-6.6 0-8.7-.3-8.5-1.2.3-.7.7-2.8 1-4.5l.6-3.3h-11.8c-11 0-11.9.1-14.3 2.4-1.5 1.4-2.9 4.1-3.3 6.3-.4 2.1-.9 5-1.2 6.6l-.6 2.7h45.5l-.7 3.1c-.3 1.7-.6 3.8-.6 4.5 0 1.2-4.2 1.4-23 1.4s-23 .2-23 1.4c0 .7-.3 2.8-.6 4.5l-.6 3.1h45.4l-.6 2.3c-.3 1.2-.6 3.2-.6 4.5V79h-31.5c-17.3 0-31.5-.3-31.5-.7"/></svg>