<!-- Created by ERK --><svg xmlns="http://www.w3.org/2000/svg" width="1920" height="1164" style="shape-rendering:geometricPrecision;text-rendering:geometricPrecision;image-rendering:optimizeQuality;fill-rule:evenodd;clip-rule:evenodd"><path fill="#221e1f" d="M137.5 189.5h137v98q-64.002-.25-128 .5-37.784 3.297-36.5 41.5-1 247.5 0 495-.589 33.89 32.5 39.5 65.998.75 132 .5v98q-73.001.25-146-.5-71.886-6.774-104.5-70.5-9.02-20.578-11-43-1-271.5 0-543 9.83-90.827 98.5-112.5 13.16-2.25 26-3.5m1571 0q40.53-.442 81 1.5c56.7 3.7 93.86 32.533 111.5 86.5 2.53 9.179 4.2 18.512 5 28q2.925 270.5 0 541c-6.33 59.664-38.5 97.164-96.5 112.5a155.5 155.5 0 0 1-20 3c-48.33.5-96.67.667-145 .5-.17-29.335 0-58.669.5-88 2.81-4.162 6.64-6.995 11.5-8.5q59.985-1.652 120-2 19.59-2.11 28.5-19.5a64.2 64.2 0 0 0 4-22q1.005-246 0-492 .78-17.146-9-31c-7.31-7.234-16.14-11.067-26.5-11.5-42.67-.5-85.33-.667-128-.5v-96q31.755-.603 63-2" style="opacity:.997"/><path fill="#ed1c23" d="M366.5 383.5q121.815-4.482 184.5 99 40.269 77.899 12 161-39.146 96.642-140.5 121.5-120.906 20.049-196.5-75.5-54.043-78.783-28-171 43.54-118.288 168.5-135" style="opacity:.995"/><path fill="#221e1f" d="M1496.5 411.5q58.875-3.875 111 23.5c19.46 11.141 27.13 27.975 23 50.5.57 10.232-.59 20.232-3.5 30q-7.65 11.986-19.5 3.5c-29-24-62.33-35-100-33-33.85 4-59.02 20.833-75.5 50.5-12.14 24.213-18.8 49.879-20 77-2.96 34.65 1.37 68.317 13 101 18.16 41.35 49.99 62.017 95.5 62 26.12-.429 50.45-7.262 73-20.5q11.55-7.778 24-14c7.29-1.053 11.46 2.114 12.5 9.5a286 286 0 0 1 1 46q-1.5 14.758-13.5 23.5c-24.2 15.068-50.53 24.401-79 28-39.43 5.224-77.77.89-115-13-42.74-18.746-72.58-49.913-89.5-93.5-12.25-34.085-18.08-69.251-17.5-105.5-.91-42.375 7.26-82.875 24.5-121.5 32.15-63.686 83.98-98.353 155.5-104" style="opacity:.995"/><path fill="#221e1f" d="M660.5 418.5q72.502-.25 145 .5 52.068.856 94 31 31.043 27.833 35.5 69.5 8.985 94.347-79.5 126.5 30.988 17.488 46.5 49.5a4344 4344 0 0 1 51 118q5.372 11.476 4 24a6.98 6.98 0 0 1-2.5 3.5 38.4 38.4 0 0 1-15 4 279.6 279.6 0 0 1-57 0q-11.221-.546-17.5-9.5a7420 7420 0 0 0-43-107q-9.204-21.421-23-40-15.378-15.812-37.5-17.5a512 512 0 0 0-32-.5 4647 4647 0 0 1-1.5 166q-5.875 6.313-14.5 7.5-30.597 5.181-61-1-7.032-1.38-10.5-7.5a39383 39383 0 0 1 0-397q.99-7.476 6-13a78 78 0 0 1 12.5-7m69 67a857 857 0 0 1 62 1.5q60.704 8.252 52.5 69.5-7.877 34.88-42.5 44.5a127 127 0 0 1-18 3q-26.995.75-54 .5z" style="opacity:.996"/><path fill="#221e1f" d="M1038.5 418.5c74.33-.167 148.67 0 223 .5 3.23 1.944 5.4 4.778 6.5 8.5a157.7 157.7 0 0 1 2 41c-.52 4.9-1.86 9.566-4 14a17.9 17.9 0 0 1-5.5 4.5c-51.33.5-102.67.667-154 .5v102c43.67-.167 87.33 0 131 .5 6.14 4.116 9.31 9.949 9.5 17.5q1.005 16 0 32c-.29 6.007-2.45 11.173-6.5 15.5a20.6 20.6 0 0 1-6 2q-63.855 1.245-127.5-.5c-.5 39.332-.67 78.665-.5 118 51.33-.167 102.67 0 154 .5q9.795 3.82 10.5 14.5 3 20 0 40-.705 10.68-10.5 14.5c-72.67.667-145.33.667-218 0q-18.27-1.779-22.5-19.5-1.005-193 0-386c1.9-10.73 8.07-17.397 18.5-20" style="opacity:.993"/></svg>