<!-- Created by ERK --><svg xmlns="http://www.w3.org/2000/svg" xmlns:xlink="http://www.w3.org/1999/xlink" xml:space="preserve" width="893.093" height="316.33" preserveAspectRatio="xMidYMid" viewBox="0 0 8930.932 3163.301"><defs><linearGradient id="j"><stop offset="0" style="stop-color:#c9ad85;stop-opacity:1"/><stop offset="1" style="stop-color:#c8ac83;stop-opacity:1"/></linearGradient><linearGradient id="i"><stop offset="0" style="stop-color:#c4a67a;stop-opacity:1"/><stop offset="1" style="stop-color:#c2a376;stop-opacity:1"/></linearGradient><linearGradient id="h"><stop offset="0" style="stop-color:#b99561;stop-opacity:1"/><stop offset="1" style="stop-color:#ba9562;stop-opacity:1"/></linearGradient><linearGradient id="g"><stop offset="0" style="stop-color:#b38c54;stop-opacity:1"/><stop offset="1" style="stop-color:#b38c54;stop-opacity:1"/></linearGradient><linearGradient id="f"><stop offset="0" style="stop-color:#b58f59;stop-opacity:1"/><stop offset="1" style="stop-color:#b58e57;stop-opacity:1"/></linearGradient><linearGradient id="e"><stop offset="0" style="stop-color:#bb9764;stop-opacity:1"/><stop offset="1" style="stop-color:#bb9866;stop-opacity:1"/></linearGradient><linearGradient id="d"><stop offset="0" style="stop-color:#caae87;stop-opacity:1"/><stop offset="1" style="stop-color:#c8ab83;stop-opacity:1"/></linearGradient><linearGradient id="c"><stop offset="0" style="stop-color:#c1a173;stop-opacity:1"/><stop offset="1" style="stop-color:#c09f70;stop-opacity:1"/></linearGradient><linearGradient id="b"><stop offset=".05" style="stop-color:#b68f59;stop-opacity:1"/><stop offset=".3" style="stop-color:#b28a52;stop-opacity:1"/><stop offset=".6" style="stop-color:#c3a478;stop-opacity:1"/><stop offset=".913" style="stop-color:#fefbfd;stop-opacity:1"/></linearGradient><linearGradient id="a"><stop offset=".05" style="stop-color:#ddc9de;stop-opacity:1"/><stop offset=".3" style="stop-color:#f2cde1;stop-opacity:1"/><stop offset=".6" style="stop-color:#f1cee1;stop-opacity:1"/><stop offset=".913" style="stop-color:#fefbfd;stop-opacity:1"/></linearGradient><linearGradient xlink:href="#a" id="m" x1="4393.907" x2="4762.222" y1="467.982" y2="1842.549" gradientUnits="userSpaceOnUse"/><linearGradient xlink:href="#b" id="n" x1="4393.907" x2="4762.222" y1="467.982" y2="1842.549" gradientUnits="userSpaceOnUse"/><linearGradient xlink:href="#c" id="q" x1="3226.549" x2="3449.358" y1="548.745" y2="1812.36" gradientUnits="userSpaceOnUse"/><linearGradient xlink:href="#d" id="p" x1="2692.815" x2="2915.625" y1="548.745" y2="1812.36" gradientUnits="userSpaceOnUse"/><linearGradient xlink:href="#e" id="r" x1="3720.465" x2="3943.274" y1="548.745" y2="1812.36" gradientUnits="userSpaceOnUse"/><linearGradient xlink:href="#f" id="s" x1="4159.352" x2="4382.162" y1="548.745" y2="1812.36" gradientUnits="userSpaceOnUse"/><linearGradient xlink:href="#g" id="t" x1="4730.219" x2="4953.028" y1="548.745" y2="1812.36" gradientUnits="userSpaceOnUse"/><linearGradient xlink:href="#h" id="u" x1="5321.218" x2="5544.027" y1="548.745" y2="1812.36" gradientUnits="userSpaceOnUse"/><linearGradient xlink:href="#i" id="v" x1="5837.951" x2="6060.76" y1="548.745" y2="1812.36" gradientUnits="userSpaceOnUse"/><linearGradient xlink:href="#j" id="w" x1="6471.899" x2="6694.708" y1="548.745" y2="1812.36" gradientUnits="userSpaceOnUse"/><filter id="k" width="1.041" height="1.041" x="-.02" y="-.02" style="color-interpolation-filters:sRGB"><feGaussianBlur stdDeviation="319.37"/></filter><filter id="l" width="1.031" height="1.028" x="-.015" y="-.014" style="color-interpolation-filters:sRGB"><feGaussianBlur stdDeviation="170.196"/></filter></defs><g style="display:inline;opacity:1;stroke-width:12.4322"><path d="M-7015.267-1380.853a18897.638 18897.638 0 0 0-37795.276 0 18897.638 18897.638 0 0 0 37795.276 0" style="display:inline;mix-blend-mode:normal;fill:#b58f59;fill-opacity:1;stroke:none;stroke-width:0;stroke-linecap:round;filter:url(#k);stroke-dasharray:none" transform="translate(3665.911 1692.717)scale(.08043)"/><path d="M-8716.055-1360.895a17196.85 17196.85 0 0 0-34393.7 0 17196.85 17196.85 0 0 0 34393.7 0" style="display:inline;fill:#fff;stroke:none;stroke-width:0;stroke-linecap:round;stroke-dasharray:none" transform="translate(3665.911 1692.717)scale(.08043)"/><path d="m-18474.242 1644.854-2743.629.024c572.998-490.068 1200.271-739.27 1909.845-742.499 709.574-3.228 1400.389 177.794 2052.694 456.022 95.437 40.708 205.082 29.637 290.456-29.326s134.552-157.583 130.272-261.251c-1.637-40.526-3.268-81.05-5.014-121.57a21134 21134 0 0 0-15.04-299.863c-5.728-99.92-12.18-199.797-18.906-299.655-6.726-99.866-13.725-199.713-20.743-299.558-7.018-99.846-14.054-199.69-20.818-299.554-6.763-99.857-13.253-199.733-19.208-299.64-5.954-99.9-11.374-199.834-15.993-299.81-9.237-199.948-15.27-400.07-15.847-600.25-.575-199.504 4.268-399.065 17.11-598.189 12.824-198.85 33.625-397.266 65.359-594.032 31.911-197.867 74.877-394.065 132.121-586.26 56.811-190.74 127.686-377.535 214.261-556.6 43.484-89.938 90.928-177.926 141.944-263.794 51.354-86.437 106.327-170.726 164.662-252.617a3682 3682 0 0 1 183.355-236.424c64.072-76.03 131.218-149.47 201.267-220.034 70.287-70.804 143.495-138.712 219.471-203.376 76.592-65.187 155.996-127.076 238.034-185.268 81.373-57.72 165.337-111.803 251.744-161.676a3080 3080 0 0 1 264.591-136.108c90.623-41.213 183.223-78.03 277.042-111.326 94.615-33.579 190.47-63.576 287.092-90.795 96.648-27.227 194.062-51.673 291.922-74.133 97.802-22.446 196.048-42.91 294.535-62.092 32.168-6.266 64.361-12.395 96.558-18.506 25.021-4.749 50.045-9.487 75.069-14.224 96.425-18.287 177.975-82.237 218.725-171.52s35.631-192.792-13.73-277.62c-407.699-700.625-785.496-1413.55-1003.904-2199.8-218.408-786.249-284.597-1609.449-208.336-2424.201 76.261-814.75 290.141-1594.887 657.876-2326.53 367.736-731.645 847.062-1423.78 1272.326-2126.643 59.562-98.442 58.09-222.157-3.796-319.154s-173.461-150.464-287.834-137.933c-2544.627 278.825-4788.739 1717.512-6665.214 3422.701-938.237 852.595-1801.741 1811.202-2533.788 2844.245s-1268.269 2194.68-1750.016 3384.347c665.745 409.781 1179.56 1025.643 1463.406 1754.039 283.845 728.394 322.206 1529.51 109.259 2281.635-212.948 752.13-665.566 1414.16-1289.105 1885.582-623.535 471.42-1383.927 726.485-2165.665 726.485s-1542.13-255.065-2165.665-726.485c-623.539-471.423-1076.157-1133.453-1289.105-1885.582-212.947-752.126-174.586-1553.24 109.259-2281.635s797.661-1344.258 1463.406-1754.039c-479.658-1184.507-1009.742-2335.889-1738.328-3367.83-728.585-1031.942-1596.01-1996.207-2532.788-2849.221-1873.557-1706.028-4124.203-3154.424-6677.902-3434.242-114.373-12.532-225.948 40.935-287.834 137.932s-63.358 220.712-3.796 319.154c424.325 701.309 883.651 1357.63 1263.152 2108.332s586.203 1508.041 665.035 2323.648 15.771 1635.313-200.526 2424.394-597.99 1513.284-1009.699 2220.802c-49.361 84.827-54.481 188.335-13.73 277.618 40.75 89.284 122.3 153.234 218.725 171.521 406.191 77.01 705.746 136.934 1066.498 267.39 360.753 130.457 670.417 308.138 957.1 542.531 573.367 468.788 996.909 1139.973 1191.668 1824.185s219.981 1414.38 191.26 2182.63c-14.361 384.124-37.603 695.248-67.844 1127.64-15.12 216.194-23.951 342.014-35.104 537.722q-8.364 146.78-13.739 275.51c-3.584 85.818-1.863 45.167-5.269 127.749-4.277 103.667 44.903 202.286 130.277 261.248s195.017 70.032 290.454 29.324c646.831-275.894 1337.459-457.929 2045.341-456.047s1339.828 248.723 1917.193 742.526l-2743.629-.024m0 .047a6066.14 6066.14 0 0 0-3007.95 798.285 6066.02 6066.02 0 0 0-3057.527 5180.938c-15.102 1054.893 245.176 2095.493 755.133 3019.065 509.957 923.571 1251.961 1698.183 2152.76 2247.355a6066.02 6066.02 0 0 0 6013.392 172.361 6066.16 6066.16 0 0 0 2277.952-2120.359h4283.66a6066.17 6066.17 0 0 0 2277.952 2120.359 6066.02 6066.02 0 0 0 6013.392-172.361c900.798-549.172 1642.802-1323.783 2152.759-2247.355 509.957-923.571 770.236-1964.171 755.134-3019.064a6066 6066 0 0 0-841.261-2996.19 6066.07 6066.07 0 0 0-2216.265-2184.749 6066.14 6066.14 0 0 0-3007.95-798.285" style="display:inline;opacity:1;fill:#000;fill-opacity:.498233;stroke:none;stroke-width:0;stroke-linecap:round;filter:url(#l);stroke-dasharray:none" transform="translate(3665.911 1692.717)scale(.08043)"/><path d="m-18637.315 1435.908-2743.629.024c572.998-490.068 1200.271-739.27 1909.845-742.499 709.574-3.228 1400.389 177.793 2052.694 456.022 95.437 40.708 205.082 29.637 290.456-29.326s134.552-157.583 130.272-261.252c-1.637-40.525-3.268-81.05-5.014-121.57a21134 21134 0 0 0-15.04-299.862c-5.728-99.92-12.18-199.797-18.906-299.655-6.726-99.866-13.725-199.713-20.743-299.558-7.018-99.846-14.054-199.69-20.818-299.554-6.763-99.857-13.253-199.733-19.208-299.64-5.954-99.9-11.374-199.834-15.993-299.81-9.237-199.948-15.27-400.07-15.847-600.25-.575-199.504 4.268-399.065 17.11-598.189 12.824-198.85 33.625-397.266 65.359-594.032 31.911-197.867 74.877-394.065 132.121-586.26 56.811-190.739 127.686-377.534 214.261-556.6 43.484-89.937 90.928-177.925 141.944-263.794 51.354-86.437 106.327-170.726 164.662-252.617a3682 3682 0 0 1 183.355-236.424c64.072-76.03 131.218-149.47 201.267-220.034 70.287-70.804 143.495-138.712 219.471-203.376 76.592-65.186 155.996-127.076 238.034-185.268 81.373-57.72 165.337-111.803 251.744-161.676a3080 3080 0 0 1 264.591-136.108c90.623-41.213 183.223-78.03 277.042-111.326 94.615-33.579 190.47-63.576 287.092-90.795 96.648-27.227 194.062-51.673 291.922-74.133 97.802-22.446 196.048-42.909 294.535-62.092 32.168-6.266 64.361-12.395 96.558-18.506 25.021-4.749 50.045-9.487 75.069-14.224 96.425-18.286 177.975-82.237 218.725-171.52s35.631-192.792-13.73-277.619c-407.699-700.626-785.496-1413.55-1003.904-2199.8s-284.597-1609.45-208.336-2424.202c76.261-814.75 290.141-1594.887 657.876-2326.53 367.736-731.645 847.062-1423.78 1272.326-2126.643 59.562-98.442 58.09-222.157-3.796-319.154s-173.461-150.464-287.834-137.933c-2544.627 278.825-4788.739 1717.512-6665.214 3422.701-938.237 852.595-1801.741 1811.202-2533.788 2844.245s-1268.269 2194.68-1750.016 3384.348c665.745 409.78 1179.56 1025.642 1463.406 1754.038s322.206 1529.51 109.259 2281.635c-212.948 752.13-665.566 1414.16-1289.105 1885.582-623.535 471.42-1383.927 726.485-2165.665 726.485s-1542.13-255.065-2165.665-726.485c-623.539-471.423-1076.157-1133.453-1289.105-1885.582-212.947-752.125-174.586-1553.24 109.259-2281.635s797.661-1344.257 1463.406-1754.038c-479.658-1184.508-1009.742-2335.89-1738.328-3367.83-728.585-1031.943-1596.01-1996.208-2532.788-2849.222-1873.557-1706.028-4124.203-3154.424-6677.902-3434.242-114.373-12.532-225.948 40.935-287.834 137.932s-63.358 220.712-3.796 319.154c424.325 701.309 883.651 1357.63 1263.152 2108.332s586.203 1508.041 665.035 2323.648 15.771 1635.313-200.526 2424.394-597.99 1513.284-1009.699 2220.802c-49.361 84.827-54.481 188.335-13.73 277.618 40.75 89.284 122.3 153.235 218.725 171.522 406.191 77.009 705.746 136.933 1066.498 267.39s670.417 308.137 957.1 542.53c573.367 468.788 996.909 1139.973 1191.668 1824.185s219.981 1414.38 191.26 2182.63c-14.361 384.125-37.603 695.249-67.844 1127.64-15.12 216.195-23.951 342.015-35.104 537.723q-8.364 146.78-13.739 275.509c-3.584 85.818-1.863 45.168-5.269 127.749-4.277 103.667 44.903 202.286 130.277 261.248s195.017 70.032 290.454 29.325c646.831-275.895 1337.459-457.93 2045.341-456.047s1339.828 248.723 1917.193 742.525l-2743.629-.024m0 .047a6066.14 6066.14 0 0 0-3007.95 798.285 6066.02 6066.02 0 0 0-3057.527 5180.938c-15.102 1054.894 245.176 2095.493 755.133 3019.065 509.957 923.571 1251.961 1698.183 2152.76 2247.355a6066.02 6066.02 0 0 0 6013.392 172.361 6066.16 6066.16 0 0 0 2277.952-2120.359h4283.66a6066.17 6066.17 0 0 0 2277.952 2120.359 6066.02 6066.02 0 0 0 6013.392-172.361c900.798-549.172 1642.802-1323.783 2152.759-2247.355 509.957-923.571 770.236-1964.17 755.134-3019.064a6066 6066 0 0 0-841.261-2996.19 6066.07 6066.07 0 0 0-2216.265-2184.748 6066.14 6066.14 0 0 0-3007.95-798.286" style="display:inline;fill:#fff;stroke:none;stroke-width:0;stroke-linecap:round;stroke-dasharray:none" transform="translate(3665.911 1692.717)scale(.08043)"/><path d="M-20644.661 521.029c-634.719 251.19-1132.186 752.992-1698.84 1292.879h3706.191a5688.2 5688.2 0 0 1 2842.912 761.39 5688.1 5688.1 0 0 1 2081.827 2080.336 5688.06 5688.06 0 0 1 763.405 2842.347c.707 998.015-261.183 1978.656-759.364 2843.446s-1215.119 1583.291-2078.821 2083.345a5688.06 5688.06 0 0 1-2841.782 765.501 5688.1 5688.1 0 0 1-2843.996-757.291 5688.1 5688.1 0 0 1-2084.831-2077.358h-4709.882a5688.1 5688.1 0 0 1-2084.831 2077.358 5688.08 5688.08 0 0 1-5685.779-8.21c-863.701-500.054-1580.639-1218.555-2078.82-2083.345s-760.071-1845.432-759.364-2843.447a5688.06 5688.06 0 0 1 763.405-2842.347 5688.1 5688.1 0 0 1 2081.828-2080.335 5688.2 5688.2 0 0 1 2842.912-761.39h3706.186c-566.658-539.887-1064.125-1041.689-1698.844-1292.879-986.757-390.509-2305.238-175.317-3264.419 233.806 63.101-1531.636 385.447-3393.943-329.682-4894.844-364.915-765.876-999.971-1437.648-1758.911-1812.16-440.648-217.445-923.058-334.68-1403.114-425.726 312.487-537.004 621.824-1121.955 839.543-1729.77 473.207-1321.072 513.608-2750.157 192.994-4081.934-62.328-258.899-138.3-514.122-237.053-771.215-380.792-991.355-1100.315-2010.53-1491.271-2656.689 717.434 78.612 2040.417 477.662 3188.344 1084.381 352.565 186.343 688.617 392.275 1008.969 602.267 1635.671 1072.188 2862.073 2250.229 3965.355 3602.092 215.138 263.61 425.594 533.83 622.176 811.641 635.101 897.526 1125.394 1874.285 1587.914 3016.47-674.473 494.798-1175.346 1190.07-1431.088 1986.517s-253.271 1653.326 7.059 2448.24c260.331 794.918 765.204 1487.207 1442.515 1978.035 677.308 490.826 1492.42 755.097 2328.914 755.097 836.493 0 1651.605-264.27 2328.913-755.097 677.311-490.828 1182.184-1183.117 1442.515-1978.034 260.33-794.915 262.801-1651.794 7.059-2448.24-255.742-796.448-756.615-1491.72-1431.088-1986.518 462.519-1142.185 952.813-2118.944 1587.913-3016.47 196.582-277.81 407.038-548.031 622.176-811.641 1103.282-1351.863 2329.684-2529.904 3965.355-3602.092 320.352-209.992 656.404-415.924 1008.969-602.267 1147.927-606.719 2470.91-1005.769 3188.344-1084.381-390.956 646.159-1110.479 1665.334-1491.271 2656.689-98.753 257.093-174.725 512.316-237.053 771.215-320.614 1331.777-280.213 2760.862 192.994 4081.934 217.719 607.815 527.056 1192.765 839.543 1729.77-480.056 91.045-962.466 208.281-1403.114 425.726-758.94 374.512-1393.996 1046.284-1758.911 1812.16-715.129 1500.9-392.783 3363.208-329.682 4894.844-959.181-409.123-2277.662-624.315-3264.419-233.806" style="display:inline;fill:#000;stroke:none;stroke-width:0;stroke-linecap:round;stroke-dasharray:none" transform="translate(3665.911 1692.717)scale(.08043)"/><path d="M-28577.481 3665.899v415.703h5518.125v-415.703z" style="display:inline;fill:#545454;fill-opacity:1;stroke:none;stroke-width:0;stroke-linecap:round;stroke-dasharray:none" transform="translate(3665.911 1692.717)scale(.08043)"/><g aria-label="EMULATION STATION POWERED" style="font-style:normal;font-weight:400;font-size:331.262px;line-height:1.25;font-family:sans-serif;display:inline;fill:#000;fill-opacity:1;fill-rule:evenodd;stroke:none;stroke-width:8.28156"><path d="M1100.208 2171.2h8.39l-.604 3.495h-4.659l-1.747 9.77h4.637l-.647 3.45h-4.615l-1.92 10.762h4.573l-.626 3.45h-8.39zm12.573 11.388-3.472 19.54h-3.73l5.628-30.927h4.68l-.474 22.278 7.462-22.278h5.132l-5.607 30.926h-3.731l3.43-19.302-6.277 19.302h-3.278zm16.024 15.053v.108q0 .367.238.647.28.28.647.28h1.984q1.056 0 1.315-1.078l4.788-26.397h3.666l-5.154 28.144q-.237 1.186-1.186 1.984-.97.798-2.222.798h-5.197q-1.1 0-1.898-.82-.798-.819-.798-1.962v-.54l4.982-27.604h3.58zm14.515 1.036h4.572l-.626 3.45h-8.39l5.608-30.926h3.753zm15.786-5.133 1.36-13.695-4.724 13.695zm-4.572 3.494-1.747 5.09h-3.946l11.646-30.927h3.71l-2.416 30.926h-3.516l.496-5.09zm22.581-22.343h-2.567l-4.96 27.432h-3.774l5.003-27.433h-2.653l.626-3.493h8.993zm.668 27.432h-3.73l5.628-30.926h3.71zm6.384-4.377q0 .366.259.646.258.28.647.28h1.984q1.056 0 1.315-1.078l3.947-21.89v-.13q0-.387-.259-.646-.259-.237-.647-.237h-2.006q-.452 0-.84.301-.367.28-.454.712l-3.946 21.933zm9.252-26.55q1.121 0 1.92.82.819.82.819 1.984 0 .324-.043.496l-4.443 24.845q-.237 1.186-1.208 1.984-.97.798-2.2.798h-5.154q-1.143 0-1.94-.82-.799-.819-.799-1.962v-.54l4.443-24.8q.237-1.208 1.186-2.006.97-.798 2.178-.798zm.841 30.927 5.607-30.926h3.731q1.618 16.735 1.682 23.615.216-6.082 3.365-23.615h3.73l-5.606 30.926h-3.731q-1.596-16.67-1.661-23.055-.216 5.349-3.364 23.055zm29.61-19.043q3.56 6.103 3.861 6.815.561 1.035.561 2.243 0 .604-.13 1.23l-1.1 5.973q-.258 1.186-1.185 1.984-.97.798-2.222.798h-5.154q-1.143 0-1.92-.82-.754-.797-.754-1.962v-.496l1.358-7.85h3.58l-1.164 6.642v.108q0 .367.258.647.26.28.626.28h1.984q.474 0 .863-.301.388-.324.496-.777l.776-4.356q.043-.194.043-.41 0-.884-.755-2.221-.345-.626-1.854-3.451-1.683-3.17-1.941-3.666-.82-1.618-.82-3.192 0-.475.065-.95l.927-5.348q.238-1.207 1.208-2.005.95-.798 2.178-.798h5.176q1.122 0 1.941.82.841.819.841 1.983 0 .324-.043.496l-1.358 7.613h-3.623l1.143-6.405q.043-.065.043-.13 0-.366-.28-.646-.281-.237-.648-.237h-1.984q-.474 0-.841.301-.367.28-.453.712l-.625 3.43q-.065.387-.065.797 0 1.553.992 3.149zm19.023-8.389h-2.567l-4.96 27.432h-3.774l5.003-27.433h-2.653l.626-3.493h8.993zm6.189 18.849 1.359-13.695-4.723 13.695zm-4.572 3.494-1.747 5.09h-3.946l11.646-30.927h3.709l-2.415 30.926h-3.516l.496-5.09zm22.58-22.343h-2.566l-4.96 27.432h-3.774l5.003-27.433h-2.653l.626-3.493h8.993zm.669 27.432h-3.731l5.629-30.926h3.71zm6.384-4.377q0 .366.259.646.258.28.647.28h1.984q1.056 0 1.315-1.078l3.947-21.89v-.13q0-.387-.259-.646-.259-.237-.647-.237h-2.006q-.453 0-.84.301-.367.28-.454.712l-3.946 21.933zm9.252-26.55q1.121 0 1.92.82.819.82.819 1.984 0 .324-.043.496l-4.443 24.845q-.237 1.186-1.208 1.984-.97.798-2.2.798h-5.154q-1.143 0-1.941-.82-.798-.819-.798-1.962v-.54l4.443-24.8q.237-1.208 1.186-2.006.97-.798 2.178-.798zm.841 30.927 5.607-30.926h3.731q1.618 16.735 1.682 23.615.216-6.082 3.365-23.615h3.73l-5.607 30.926h-3.73q-1.597-16.67-1.661-23.055-.216 5.349-3.365 23.055zm31.422-17.339q.475 0 .842-.302.366-.28.43-.733l1.532-8.045v-.13q0-.387-.259-.646-.259-.237-.625-.237h-3.084l-1.876 10.093zm-9.856 17.34 5.608-30.927h8.13q1.143 0 1.941.82.82.819.82 1.983 0 .151-.065.496l-1.984 10.956q-.216 1.208-1.165 2.006t-2.178.798h-4.853l-2.523 13.867zm17.793-4.378q0 .366.259.646t.647.28h1.984q1.057 0 1.315-1.078l3.947-21.89v-.13q0-.387-.259-.646-.259-.237-.647-.237h-2.006q-.452 0-.84.301-.367.28-.453.712l-3.947 21.933zm9.252-26.55q1.121 0 1.92.82.819.82.819 1.984 0 .324-.043.496l-4.443 24.845q-.237 1.186-1.208 1.984-.97.798-2.2.798h-5.154q-1.143 0-1.94-.82-.799-.819-.799-1.962v-.54l4.443-24.8q.237-1.208 1.186-2.006.97-.798 2.178-.798zm17.62 0-1.769 20.122 7.247-20.121h3.947l-11.647 30.926h-3.709l1.725-18.633-6.642 18.633h-3.71l2.416-30.926h3.515l-1.768 20.121 7.246-20.121zm11.473 0h8.39l-.604 3.495h-4.659l-1.747 9.77h4.637l-.647 3.45h-4.615l-1.92 10.762h4.573l-.626 3.45h-8.389zm15.226 13.588q.475 0 .841-.324.367-.302.432-.755l1.466-8v-.13q0-.389-.258-.647-.28-.237-.67-.237h-2.975l-1.833 10.093zm.216 4.572q0-.367-.259-.626-.259-.258-.625-.258h-2.998l-2.415 13.651h-3.775l5.543-30.926h8.303q1.122 0 1.941.82.82.797.863 1.962 0 .108-.086.517l-1.726 9.748q-.41 2.028-2.393 2.588.754.28 1.143.993.301.56.301 1.25 0 .151-.022.324 0 .323-.022.496l-2.242 12.228h-3.796l2.264-12.66zm9.727-18.16h8.389l-.604 3.495h-4.658l-1.747 9.77h4.637l-.647 3.45h-4.616l-1.92 10.762h4.573l-.625 3.45h-8.39zm13.004 27.477q.475 0 .841-.302.367-.302.432-.777l3.99-21.89q.021-.065.021-.13 0-.387-.258-.646-.26-.237-.647-.237h-3.343l-4.378 23.981zm6.362-27.476q1.143 0 1.963.82.82.819.82 1.983 0 .13-.087.496l-4.464 24.845q-.215 1.186-1.164 1.984-.95.798-2.179.798h-8.885l5.607-30.926z" style="font-style:italic;font-variant:normal;font-weight:400;font-stretch:normal;font-size:44.1684px;line-height:1.25;font-family:SNES;-inkscape-font-specification:&quot;SNES, Italic&quot;;font-variant-ligatures:normal;font-variant-caps:normal;font-variant-numeric:normal;font-variant-east-asian:normal;display:inline;fill:#000;fill-opacity:1;fill-rule:evenodd;stroke:none;stroke-width:0;stroke-dasharray:none" transform="matrix(1.31079 0 0 .7629 -50.91 336.181)"/></g><path d="m-28223.391 2324.079-278.484 1039.37h5177.73l278.484-1039.37z" style="display:inline;fill:#000;fill-opacity:1;stroke:none;stroke-width:0;stroke-linecap:round;stroke-dasharray:none" transform="translate(3665.911 1692.717)scale(.08043)"/><g aria-label="RETROBAT" style="font-style:normal;font-weight:400;font-size:227.926px;line-height:1.25;font-family:sans-serif;display:inline;opacity:1;fill:#b48f59;fill-opacity:1;fill-rule:evenodd;stroke:#fff;stroke-width:0;stroke-miterlimit:4;stroke-dasharray:none;stroke-opacity:1"><path stroke="none" d="M1268.639 1745.804q2.448 0 4.34-1.67 1.892-1.557 2.226-3.895l7.568-41.289v-.668q0-2.003-1.336-3.338-1.447-1.225-3.45-1.225h-15.358l-9.46 52.085zm1.113 23.594q0-1.892-1.336-3.228-1.335-1.335-3.227-1.335h-15.47l-12.465 70.448h-19.476l28.602-159.593h42.848q5.787 0 10.016 4.23 4.229 4.117 4.452 10.127 0 .556-.445 2.67l-8.904 50.305q-2.114 10.461-12.353 13.355 3.895 1.447 5.898 5.12 1.558 2.893 1.558 6.454 0 .78-.111 1.67 0 1.669-.111 2.56l-11.575 63.102h-19.587l11.686-65.329zm50.192-93.708h43.293l-3.116 18.03h-24.04l-9.014 50.415h23.928l-3.339 17.806h-23.816l-9.905 55.535h23.593l-3.227 17.807h-43.293zm96.046 18.03h-13.245l-25.597 141.563h-19.476l25.82-141.564h-13.689l3.227-18.029h46.41zm35.056 52.084q2.449 0 4.34-1.67 1.893-1.557 2.226-3.895l7.568-41.289v-.668q0-2.003-1.335-3.338-1.447-1.225-3.45-1.225h-15.358l-9.46 52.085zm1.113 23.594q0-1.892-1.335-3.228-1.336-1.335-3.228-1.335h-15.47l-12.464 70.448h-19.476l28.602-159.593h42.847q5.787 0 10.017 4.23 4.229 4.117 4.451 10.127 0 .556-.445 2.67l-8.903 50.305q-2.115 10.461-12.354 13.355 3.896 1.447 5.899 5.12 1.558 2.893 1.558 6.454 0 .78-.111 1.67 0 1.669-.112 2.56l-11.574 63.102h-19.587l11.685-65.329zm40.844 43.292q0 1.892 1.336 3.34 1.335 1.446 3.339 1.446h10.238q5.454 0 6.79-5.565l20.366-112.961v-.668q0-2.003-1.336-3.338-1.335-1.225-3.339-1.225h-10.35q-2.337 0-4.34 1.558-1.892 1.447-2.337 3.673l-20.367 113.184zm47.745-137q5.787 0 9.905 4.23 4.229 4.228 4.229 10.238 0 1.67-.223 2.56l-22.926 128.208q-1.224 6.121-6.232 10.239-5.009 4.118-11.352 4.118h-26.599q-5.898 0-10.016-4.23-4.118-4.228-4.118-10.127v-2.782l22.926-127.986q1.224-6.232 6.121-10.35 5.008-4.118 11.24-4.118zm65.884 145.125q-1.113 6.232-6.01 10.35-4.896 4.118-11.24 4.118h-44.294l28.936-159.593h41.957q5.898 0 10.016 4.23 4.23 4.228 4.23 10.238 0 .779-.335 2.56l-9.348 50.304q-2.115 10.461-12.354 13.355 3.896 1.447 5.899 5.12 1.558 2.893 1.558 6.454 0 .78-.111 1.67 0 1.669-.112 2.56zm3.784-121.865v-.668q0-2.003-1.335-3.338-1.336-1.225-3.228-1.225h-15.914l-9.46 52.085h15.47q2.448 0 4.34-1.67 1.892-1.557 2.226-3.895zm-33.387 65.885-9.46 52.53h15.358q2.449 0 4.34-1.558 1.893-1.447 2.226-3.784l7.568-42.069v-.556q0-1.892-1.335-3.228-1.336-1.335-3.228-1.335zm88.254 26.154 7.012-70.67-24.373 70.67zm-23.594 18.029-9.014 26.265h-20.367l60.098-159.593h19.142l-12.465 159.593h-18.14l2.56-26.265zm116.523-115.298h-13.244l-25.597 141.563h-19.476l25.82-141.564h-13.69l3.228-18.029h46.41z" style="font-style:italic;font-variant:normal;font-weight:400;font-stretch:normal;font-size:227.926px;font-family:SNES;-inkscape-font-specification:&quot;SNES, Italic&quot;;font-variant-ligatures:normal;font-variant-caps:normal;font-variant-numeric:normal;font-variant-east-asian:normal;fill:#b48f59;fill-opacity:1;stroke:none;stroke-width:0;stroke-miterlimit:4;stroke-dasharray:none;stroke-opacity:1" transform="matrix(.79722 0 0 .50864 406.886 1028.529)"/></g><path d="M-29682.984 7445.404a3448.82 3448.82 0 0 0-6897.638 0 3448.82 3448.82 0 0 0 6897.638 0" style="display:inline;fill:#b58f59;fill-opacity:1;stroke:none;stroke-width:0;stroke-linecap:round;stroke-dasharray:none" transform="translate(3665.911 1692.717)scale(.08043)"/><path d="M-29890.858 7445.404a3240.945 3240.945 0 0 0-6481.89 0 3240.945 3240.945 0 0 0 6481.89 0" style="display:inline;fill:#000;stroke:none;stroke-width:0;stroke-linecap:round;stroke-dasharray:none" transform="translate(3665.911 1692.717)scale(.08043)"/><path d="M-33982.188 4875.313V6595h-1719.687v1700.801h1719.687v1719.707h1700.782V8295.801h1719.687V6595h-1719.687V4875.313Z" style="display:inline;fill:#fff;stroke:none;stroke-width:0;stroke-linecap:round;stroke-dasharray:none" transform="translate(3665.911 1692.717)scale(.08043)"/><path d="M-28339.197 9249.565c-77.966-98.016-61.712-240.677 36.303-318.649l1390.209-1105.814c98.029-77.731 240.489-61.389 318.37 36.521s61.758 240.394-36.032 318.405l-1390.208 1105.861c-98.016 77.946-240.677 61.692-318.642-36.324m3995.463-1069.537c97.785-78.013 113.904-220.493 36.026-318.399-77.879-97.907-220.333-114.251-318.365-36.524l-1390.205 1105.811c-97.986 77.981-114.222 220.618-36.268 318.62 77.953 98.001 220.587 114.268 318.605 36.353z" style="display:inline;fill:#202020;fill-opacity:1;stroke:none;stroke-width:0;stroke-linecap:round;stroke-dasharray:none" transform="translate(3665.911 1692.717)scale(.08043)"/><path d="M1237.795 2008.819a510.236 510.236 0 0 0-1020.472 0 510.236 510.236 0 0 0 1020.472 0" style="display:inline;opacity:1;fill:#111;fill-opacity:1;stroke:none;stroke-width:0;stroke-linecap:round;stroke-opacity:1;stroke-dasharray:none" transform="matrix(.80433 0 0 .80478 1581.65 678.881)"/><path d="M-19846.763 7463.63a982.678 982.678 0 0 0-1965.355 0 982.678 982.678 0 0 0 1965.355 0m2192.126-2192.126a982.678 982.678 0 0 0-1965.355 0 982.678 982.678 0 0 0 1965.355 0m2192.126 2192.126a982.678 982.678 0 0 0-1965.355 0 982.678 982.678 0 0 0 1965.355 0m-2192.126 2192.126a982.678 982.678 0 0 0-1965.355 0 982.678 982.678 0 0 0 1965.355 0" style="display:inline;fill:#fff;stroke:none;stroke-width:0;stroke-linecap:round;stroke-dasharray:none" transform="translate(3665.911 1692.717)scale(.08043)"/></g><g style="display:inline"><g style="display:inline"><g style="font-style:normal;font-weight:400;font-size:1832.5px;line-height:1.25;font-family:sans-serif;display:inline;fill:url(#m);fill-opacity:1;fill-rule:evenodd;stroke:#000;stroke-width:43.6388;stroke-linecap:round;stroke-linejoin:round;stroke-miterlimit:4;stroke-dasharray:none;stroke-opacity:1;paint-order:stroke fill markers" transform="matrix(1.26236 0 .00305 1.25833 48.518 -118.637)"><path stroke="none" d="M2688.8 517.187a21.82 21.82 0 0 0-21.488 17.959l-229.95 1283.117a21.822 21.822 0 0 0 21.476 25.657h156.591a21.82 21.82 0 0 0 21.472-18.005l97.035-548.375h106.075c5.007 0 7.01.83 10.526 4.346s4.338 5.501 4.338 10.508l.01 2.546-93.617 523.323a21.822 21.822 0 0 0 21.475 25.657h157.49a21.82 21.82 0 0 0 21.456-17.88l93.052-507.337a22 22 0 0 0 .188-1.226c.767-6.14 1.02-13.285 1.044-22.103.574-5.003.917-9.875.917-14.606 0-22.27-5.013-43.441-15.136-62.24l-.046-.11c-5.48-10.045-12.38-18.952-20.343-26.697 38.806-22.614 64.87-59.616 74.462-107.067a22 22 0 0 0 .094-.512l71.529-404.118c2.41-11.396 3.976-16.91 3.976-25.595a22 22 0 0 0-.014-.808c-1.374-37.09-16.014-70.529-42.285-96.155-26.17-26.116-59.562-40.279-95.844-40.279zm148.848 188.587h105.256c5.906 0 9.274 1.227 12.94 4.144 2.749 2.93 3.718 5.277 3.718 10.725l.01 3.384-60.488 330.003a22 22 0 0 0-.141.854c-1.07 7.487-3.667 12.206-10.161 17.555a22 22 0 0 0-.574.48c-6.64 5.859-12.293 7.963-20.457 7.963h-98.232zm442.598-188.587a21.82 21.82 0 0 0-21.472 17.912l-232.642 1283.117a21.822 21.822 0 0 0 21.475 25.704h348.057a21.82 21.82 0 0 0 21.472-17.927l25.952-143.155a21.822 21.822 0 0 0-21.475-25.72h-163.631l71.85-402.845h173.209a21.82 21.82 0 0 0 21.44-17.803l26.85-143.17a21.822 21.822 0 0 0-21.444-25.828H3363.58l64.665-361.698h175.003a21.82 21.82 0 0 0 21.503-18.098l25.06-144.956a21.822 21.822 0 0 0-21.507-25.533zm426.809 0a21.82 21.82 0 0 0-21.487 17.974l-25.941 144.94a21.822 21.822 0 0 0 21.475 25.673h83.889l-202.895 1112.411a21.822 21.822 0 0 0 21.475 25.735h156.576a21.82 21.82 0 0 0 21.488-17.927l202.542-1120.22h88.252a21.82 21.82 0 0 0 21.425-17.725l27.75-144.955a21.822 21.822 0 0 0-21.427-25.906zm448.269 0a21.82 21.82 0 0 0-21.472 17.959l-229.95 1283.117a21.822 21.822 0 0 0 21.476 25.657h156.576a21.82 21.82 0 0 0 21.487-18.005l97.035-548.375h106.075c5.007 0 6.995.83 10.51 4.346 3.516 3.515 4.354 5.501 4.354 10.508l-.01 2.546-93.601 523.323a21.822 21.822 0 0 0 21.475 25.657h157.474a21.82 21.82 0 0 0 21.471-17.88l93.052-507.337a22 22 0 0 0 .189-1.226c.767-6.138 1.02-13.286 1.043-22.103.575-5.004.917-9.874.917-14.606 0-22.27-5.013-43.441-15.136-62.24l-.062-.11c-5.48-10.046-12.364-18.952-20.327-26.697 38.806-22.614 64.87-59.615 74.462-107.067a22 22 0 0 0 .094-.512l71.528-404.118c2.41-11.396 3.977-16.91 3.977-25.595a22 22 0 0 0-.014-.808c-1.374-37.09-16.014-70.529-42.285-96.155-26.17-26.116-59.562-40.279-95.844-40.279zm148.864 188.587h105.256c5.906 0 9.258 1.227 12.925 4.144 2.749 2.93 3.733 5.277 3.733 10.725l.01 3.384-60.488 330.003a22 22 0 0 0-.14.854c-1.07 7.487-3.683 12.206-10.178 17.555a22 22 0 0 0-.558.48c-6.639 5.859-12.293 7.963-20.457 7.963h-98.232zm533.852-188.587c-38.21 0-73.946 13.168-104.219 38.06l-.186.154c-29.711 24.985-49.133 57.794-56.58 95.706l-.078.372-184.312 1028.984a22 22 0 0 0-.35 3.85l.01 22.366c0 36.693 13.674 70.352 39.282 96.652 25.704 26.399 59.338 40.589 96.168 40.589h213.854c38.722 0 74.781-13.133 105.115-38.074 30.267-24.886 50.147-57.387 57.646-94.883a22 22 0 0 0 .094-.435l184.317-1030.784-.313 1.444c1.97-7.885 2.445-15.957 2.445-25.875 0-37.277-14.035-71.323-40.285-97.63-25.623-26.266-58.89-40.496-95.179-40.496zm51.004 188.587h83.223c6.056 0 8.731 1.158 11.734 3.818 2.998 3.094 4.027 5.398 4.027 11.051l-.01 3.415-163.234 905.355c-2.792 11.424-6.91 17.678-11.532 21.466-4.667 3.825-10.834 6.24-21.738 6.24h-82.311c-5.484 0-7.35-.851-10.82-4.61-3.942-4.272-4.952-7.038-4.952-12.045l.01-2.53 163.333-907.683c1.401-6.97 4.143-11.47 10.638-16.437l.14-.109c7.491-5.826 13.816-7.931 21.494-7.931zm771.299-188.602-337.335.015a21.82 21.82 0 0 0-21.472 17.912L5068.91 1818.216a21.822 21.822 0 0 0 21.46 25.704h356.117c38.723 0 74.621-13.156 104.42-38.214 29.761-25.026 48.945-58.014 55.745-96.032v-.016l70.692-391.002a22 22 0 0 0 .174-1.18c.767-6.143 1.02-13.29 1.043-22.118.573-4.997.917-9.865.917-14.59 0-22.27-5.013-43.442-15.136-62.241l-.062-.11c-5.48-10.045-12.364-18.952-20.327-26.696 38.806-22.614 64.87-59.616 74.462-107.067l.063-.326 75.165-404.445-.016.031c1.896-10.11 3.061-17.308 3.061-24.601 0-37.283-14.043-71.338-40.3-97.646-25.69-26.328-59.266-40.496-96.045-40.496zM5469.18 705.774h109.743c5.225 0 7.658.98 10.836 3.803 3.013 3.103 4.027 5.402 4.027 11.066l-.01 3.29-63.133 329.942a22 22 0 0 0-.173 1.009c-1.07 7.487-3.667 12.206-10.161 17.555a22 22 0 0 0-.574.48c-6.64 5.859-12.293 7.963-20.457 7.963h-98.232zm-103.76 571.766h106.123c5.007 0 7.01.83 10.526 4.346s4.338 5.501 4.338 10.508l.01 2.53-60.504 336.305a22 22 0 0 0-.125.776c-1.063 7.439-3.425 11.502-9.555 16.189a22 22 0 0 0-.604.48c-6.576 5.416-12.534 7.56-21.03 7.56h-97.38zm748.576-760.353a21.82 21.82 0 0 0-20.426 14.125l-483.179 1283.102a21.822 21.822 0 0 0 20.429 29.506h163.74a21.82 21.82 0 0 0 20.644-14.73l67.406-196.425h135.751l-18.245 187.22a21.82 21.82 0 0 0 21.711 23.935h145.854a21.82 21.82 0 0 0 21.756-20.116l100.217-1283.102a21.82 21.82 0 0 0-21.758-23.515zm-41.001 563.82-36.03 363.156h-89.211zm385.485-563.82a21.82 21.82 0 0 0-21.473 17.974l-25.956 144.94a21.822 21.822 0 0 0 21.49 25.673h83.89l-202.895 1112.411a21.822 21.822 0 0 0 21.475 25.735h156.576a21.82 21.82 0 0 0 21.472-17.927l202.557-1120.22h88.252a21.82 21.82 0 0 0 21.425-17.725l27.736-144.955a21.822 21.822 0 0 0-21.428-25.906z" style="-inkscape-font-specification:&quot;SNES, Italic&quot;;fill:#000;fill-rule:nonzero;stroke:none;stroke-width:0;stroke-dasharray:none"/></g><g stroke="none" aria-label="RETROBAT" style="font-style:normal;font-weight:400;font-size:1832.5px;line-height:1.25;font-family:sans-serif;display:inline;fill:url(#n);fill-opacity:1;fill-rule:evenodd;stroke:#000;stroke-width:43.6388;stroke-linecap:round;stroke-linejoin:round;stroke-miterlimit:4;stroke-dasharray:none;stroke-opacity:1;paint-order:stroke fill markers" transform="matrix(1.26236 0 .00305 1.25833 48.518 -118.637)"><path d="M2867.749 1102.707q19.685 0 34.896-13.422 15.211-12.526 17.896-31.317l60.844-331.962v-5.368q0-16.106-10.737-26.843-11.632-9.843-27.738-9.843h-123.479l-76.056 418.755zm8.948 189.692q0-15.21-10.738-25.948t-25.948-10.738h-124.374l-100.215 566.393h-156.585l229.957-1283.108h344.489q46.528 0 80.53 34.002 34 33.107 35.79 81.424 0 4.474-3.579 21.475l-71.582 404.439q-17 84.108-99.32 107.373 31.317 11.631 47.423 41.16 12.527 23.264 12.527 51.896 0 6.264-.895 13.422 0 13.422-.895 20.58l-93.056 507.337h-157.48l93.95-525.233z" style="font-style:italic;font-variant:normal;font-weight:400;font-stretch:normal;font-size:1832.5px;font-family:SNES;-inkscape-font-specification:&quot;SNES, Italic&quot;;font-variant-ligatures:normal;font-variant-caps:normal;font-variant-numeric:normal;font-variant-east-asian:normal;display:inline;fill:url(#p);fill-opacity:1;stroke:none;stroke-width:0;stroke-linecap:round;stroke-linejoin:round;stroke-miterlimit:4;stroke-dasharray:none;stroke-opacity:1;paint-order:stroke fill markers"/><path d="M3280.24 538.998h348.068l-25.054 144.954h-193.271l-72.477 405.333h192.377l-26.843 143.164h-191.482l-79.635 446.493h189.692l-25.948 143.164h-348.068z" style="font-style:italic;font-variant:normal;font-weight:400;font-stretch:normal;font-size:1832.5px;font-family:SNES;-inkscape-font-specification:&quot;SNES, Italic&quot;;font-variant-ligatures:normal;font-variant-caps:normal;font-variant-numeric:normal;font-variant-east-asian:normal;display:inline;fill:url(#q);fill-opacity:1;stroke:none;stroke-width:0;stroke-linecap:round;stroke-linejoin:round;stroke-miterlimit:4;stroke-dasharray:none;stroke-opacity:1;paint-order:stroke fill markers"/><path d="M4052.432 683.952h-106.479l-205.798 1138.154h-156.586l207.588-1138.154H3681.1l25.948-144.954h373.122z" style="font-style:italic;font-variant:normal;font-weight:400;font-stretch:normal;font-size:1832.5px;font-family:SNES;-inkscape-font-specification:&quot;SNES, Italic&quot;;font-variant-ligatures:normal;font-variant-caps:normal;font-variant-numeric:normal;font-variant-east-asian:normal;display:inline;fill:url(#r);stroke:none;stroke-width:0;stroke-linecap:round;stroke-linejoin:round;stroke-miterlimit:4;stroke-dasharray:none;stroke-opacity:1;paint-order:stroke fill markers"/><path d="M4334.286 1102.707q19.685 0 34.896-13.422 15.21-12.526 17.896-31.317l60.844-331.962v-5.368q0-16.106-10.737-26.843-11.632-9.843-27.738-9.843h-123.479l-76.056 418.755zm8.948 189.692q0-15.21-10.738-25.948t-25.948-10.738h-124.374l-100.215 566.393h-156.585L4155.33 538.998h344.488q46.529 0 80.53 34.002 34.002 33.107 35.791 81.424 0 4.474-3.579 21.475l-71.582 404.439q-17 84.108-99.32 107.373 31.317 11.631 47.423 41.16 12.527 23.264 12.527 51.896 0 6.264-.895 13.422 0 13.422-.895 20.58l-93.056 507.337h-157.48l93.95-525.233z" style="font-style:italic;font-variant:normal;font-weight:400;font-stretch:normal;font-size:1832.5px;font-family:SNES;-inkscape-font-specification:&quot;SNES, Italic&quot;;font-variant-ligatures:normal;font-variant-caps:normal;font-variant-numeric:normal;font-variant-east-asian:normal;display:inline;fill:url(#s);fill-opacity:1;stroke:none;stroke-width:0;stroke-linecap:round;stroke-linejoin:round;stroke-miterlimit:4;stroke-dasharray:none;stroke-opacity:1;paint-order:stroke fill markers"/><path d="M4671.616 1640.467q0 15.21 10.738 26.843 10.736 11.632 26.843 11.632h82.32q43.842 0 54.58-44.739l163.744-908.197v-5.368q0-16.106-10.737-26.843-10.737-9.843-26.843-9.843h-83.214q-18.791 0-34.897 12.527-15.21 11.632-18.79 29.527l-163.744 909.987Zm383.859-1101.469q46.529 0 79.635 34.002 34.002 34.001 34.001 82.32 0 13.42-1.79 20.58l-184.323 1030.78q-9.843 49.213-50.107 82.32-40.266 33.106-91.267 33.106h-213.852q-47.423 0-80.53-34.001-33.105-34.002-33.106-81.425v-22.37l184.323-1028.99q9.843-50.109 49.213-83.215 40.265-33.107 90.372-33.107z" style="font-style:italic;font-variant:normal;font-weight:400;font-stretch:normal;font-size:1832.5px;font-family:SNES;-inkscape-font-specification:&quot;SNES, Italic&quot;;font-variant-ligatures:normal;font-variant-caps:normal;font-variant-numeric:normal;font-variant-east-asian:normal;display:inline;fill:url(#t);fill-opacity:1;stroke:none;stroke-width:0;stroke-linecap:round;stroke-linejoin:round;stroke-miterlimit:4;stroke-dasharray:none;stroke-opacity:1;paint-order:stroke fill markers"/><path d="M5585.182 1705.786q-8.948 50.106-48.318 83.214-39.37 33.105-90.372 33.106h-356.12l232.64-1283.108h337.331q47.423 0 80.53 34.002 34.001 34.001 34.001 82.32 0 6.262-2.684 20.58l-75.161 404.438q-17 84.108-99.32 107.373 31.317 11.631 47.423 41.16 12.527 23.264 12.527 51.896 0 6.264-.895 13.422 0 13.422-.895 20.58zm30.422-979.78v-5.368q0-16.106-10.737-26.843-10.737-9.843-25.949-9.843h-127.952l-76.056 418.755h124.373q19.686 0 34.897-13.422 15.21-12.526 17.895-31.317zm-268.432 529.708-76.056 422.333h123.479q19.685 0 34.896-12.526 15.21-11.633 17.896-30.423l60.844-338.225v-4.474q0-15.21-10.737-25.948t-25.949-10.737z" style="font-style:italic;font-variant:normal;font-weight:400;font-stretch:normal;font-size:1832.5px;font-family:SNES;-inkscape-font-specification:&quot;SNES, Italic&quot;;font-variant-ligatures:normal;font-variant-caps:normal;font-variant-numeric:normal;font-variant-east-asian:normal;display:inline;fill:url(#u);fill-opacity:1;stroke:none;stroke-width:0;stroke-linecap:round;stroke-linejoin:round;stroke-miterlimit:4;stroke-dasharray:none;stroke-opacity:1;paint-order:stroke fill markers"/><path d="m6056.729 1465.986 56.37-568.183-195.955 568.183zm-189.693 144.953-72.477 211.167h-163.744l483.18-1283.108h153.9l-100.214 1283.108h-145.849l20.58-211.167z" style="font-style:italic;font-variant:normal;font-weight:400;font-stretch:normal;font-size:1832.5px;font-family:SNES;-inkscape-font-specification:&quot;SNES, Italic&quot;;font-variant-ligatures:normal;font-variant-caps:normal;font-variant-numeric:normal;font-variant-east-asian:normal;display:inline;fill:url(#v);fill-opacity:1;stroke:none;stroke-width:0;stroke-linecap:round;stroke-linejoin:round;stroke-miterlimit:4;stroke-dasharray:none;stroke-opacity:1;paint-order:stroke fill markers"/><path d="M6803.866 683.952h-106.478l-205.799 1138.154h-156.585l207.588-1138.154h-110.058l25.949-144.954h373.121z" style="font-style:italic;font-variant:normal;font-weight:400;font-stretch:normal;font-size:1832.5px;font-family:SNES;-inkscape-font-specification:&quot;SNES, Italic&quot;;font-variant-ligatures:normal;font-variant-caps:normal;font-variant-numeric:normal;font-variant-east-asian:normal;display:inline;fill:url(#w);fill-opacity:1;stroke:none;stroke-width:0;stroke-linecap:round;stroke-linejoin:round;stroke-miterlimit:4;stroke-dasharray:none;stroke-opacity:1;paint-order:stroke fill markers"/></g><path d="M8773 2152H2980.352A1217.4 1217.4 0 0 1 2707 2537h6025.52z" style="display:inline;fill:#475860;fill-opacity:1;stroke:none;stroke-width:0;stroke-linecap:round;stroke-dasharray:none;stroke-opacity:1" transform="translate(123.931 134.696)"/></g><g style="display:inline;stroke:none;stroke-width:0;stroke-dasharray:none"><path d="M3331.66 2229.824a15 15 0 0 0-14.668 11.895l-43.652 205.43a15.002 15.002 0 0 0 14.668 18.105h130.605a15 15 0 0 0 14.688-11.875l5.156-24.356a15.002 15.002 0 0 0-14.668-18.105h-53.008l8.184-38.477h59.375a15 15 0 0 0 14.668-11.894l5.176-24.336a15.002 15.002 0 0 0-14.668-18.125h-53.008l7.207-33.906h59.375a15 15 0 0 0 14.668-11.895l5.176-24.336a15.002 15.002 0 0 0-14.668-18.125zm169.473 0a15 15 0 0 0-14.668 11.895l-43.653 205.43a15.002 15.002 0 0 0 14.688 18.105h59.063a15 15 0 0 0 14.687-11.875l10.45-49.258 8.593 48.75a15 15 0 0 0 14.766 12.383h52.05a15 15 0 0 0 13.067-7.617l22.578-39.922-6.25 29.433a15.002 15.002 0 0 0 14.668 18.106h59.082a15 15 0 0 0 14.668-11.875l43.652-205.43a15.002 15.002 0 0 0-14.687-18.125h-79.531a15 15 0 0 0-13.047 7.617l-65.02 114.961-19.414-110.175a15 15 0 0 0-14.766-12.403z" style="fill:#000;stroke:none;stroke-width:0;stroke-linecap:round;stroke-linejoin:round;stroke-dasharray:none;paint-order:stroke fill markers" transform="translate(123.931 134.696)"/><path d="M3791.875 2229.824a15 15 0 0 0-14.668 11.895l-38.789 182.617c-1.614 7.595.304 15.908 4.219 21.66s9.063 9.371 14.257 12.031c10.389 5.32 21.648 7.227 31.895 7.227h107.012c7.853 0 17.09-.163 26.445-2.773s21.184-9.817 23.945-22.813l40.723-191.719a15.002 15.002 0 0 0-14.668-18.125h-59.102a15 15 0 0 0-14.667 11.895l-35.938 169.199h-31.523l34.628-162.969a15.002 15.002 0 0 0-14.687-18.125zm225.449 0a15 15 0 0 0-14.668 11.895l-43.632 205.43a15.002 15.002 0 0 0 14.667 18.105h130.586a15 15 0 0 0 14.688-11.875l5.176-24.356a15.002 15.002 0 0 0-14.688-18.105h-52.988l34.61-162.969a15.002 15.002 0 0 0-14.669-18.125z" style="fill:#000;stroke:none;stroke-width:0;stroke-linecap:round;stroke-linejoin:round;stroke-dasharray:none;paint-order:stroke fill markers" transform="translate(123.931 134.696)"/><path d="M4265.781 2229.824a15 15 0 0 0-12.52 6.738l-135.898 205.43a15.002 15.002 0 0 0 12.52 23.262h62.012a15 15 0 0 0 12.851-7.266l15.742-26.21h40.528l-.157 18.359a15 15 0 0 0 15 15.117h56.29a15 15 0 0 0 15-15.45l-6.27-205.429a15 15 0 0 0-15-14.55zm-4.16 133.457-.137 14.16h-8.359zm135.079-133.457a15 15 0 0 0-14.669 11.875l-5.176 24.356a15.002 15.002 0 0 0 14.669 18.125h21.913l-34.628 162.968a15.002 15.002 0 0 0 14.668 18.106h59.101a15 15 0 0 0 14.668-11.875l35.938-169.2h28.28a15 15 0 0 0 14.669-11.894l5.176-24.336a15.002 15.002 0 0 0-14.688-18.125z" style="fill:#000;stroke:none;stroke-width:0;stroke-linecap:round;stroke-linejoin:round;stroke-dasharray:none;paint-order:stroke fill markers" transform="translate(123.931 134.696)"/><path d="M4564.61 2229.824a15 15 0 0 0-14.669 11.895l-43.632 205.43a15.002 15.002 0 0 0 14.668 18.105h59.082a15 15 0 0 0 14.668-11.875l43.652-205.43a15.002 15.002 0 0 0-14.668-18.125z" style="fill:#000;stroke:none;stroke-width:0;stroke-linecap:round;stroke-linejoin:round;stroke-dasharray:none;paint-order:stroke fill markers" transform="translate(123.931 134.696)"/><path d="M4686.035 2229.824c-7.888 0-17.14.191-26.484 2.813-9.345 2.62-21.125 9.78-23.887 22.773l-35.879 168.926c-1.613 7.595.304 15.908 4.219 21.66s9.063 9.371 14.258 12.031c10.388 5.32 21.648 7.227 31.894 7.227h107.012c7.852 0 17.09-.163 26.445-2.773s21.164-9.817 23.926-22.813l35.879-168.906c1.613-7.595-.304-15.928-4.219-21.68s-9.063-9.352-14.258-12.012c-10.388-5.32-21.648-7.246-31.894-7.246zm33.262 54.356h31.523l-26.914 126.738h-31.523zm158.75-54.356a15 15 0 0 0-14.668 11.895l-43.652 205.43a15.002 15.002 0 0 0 14.687 18.105h60.996a15 15 0 0 0 14.785-12.422l13.418-77.266 34.649 80.606a15 15 0 0 0 13.77 9.082h59.335a15 15 0 0 0 14.668-11.875l43.653-205.43a15.002 15.002 0 0 0-14.668-18.125h-62.13a15 15 0 0 0-14.863 12.95l-11.445 82.578-35.02-86.172a15 15 0 0 0-13.886-9.356z" style="fill:#000;stroke:none;stroke-width:0;stroke-linecap:round;stroke-linejoin:round;stroke-dasharray:none;paint-order:stroke fill markers" transform="translate(123.931 134.696)"/><path d="M5132.52 2229.824c-9.487 0-19.507 1.714-28.868 6.23-9.36 4.517-18.845 12.933-21.504 25.45l-7.246 34.102c-2.381 11.204 2.178 21.339 7.618 28.515s12.184 12.642 18.828 17.188l28.066 19.199h-56.152a15 15 0 0 0-14.668 11.894l-9.746 45.84c-3.23 15.198 5.691 29.016 15.918 36.25s22.322 10.762 34.453 10.762h107.031c9.473 0 19.485-1.697 28.848-6.211 9.362-4.513 18.862-12.942 21.523-25.469l8.965-42.187c2.072-9.734-2.056-18.05-6.328-23.555s-9.272-9.421-14.043-12.52l-31.758-20.624 51.875.273a15 15 0 0 0 14.766-11.875l11.113-52.324c1.614-7.596-.304-15.908-4.219-21.66s-9.083-9.371-14.277-12.032c-10.389-5.32-21.628-7.246-31.875-7.246zm34.57 54.356h31.523l-6.875 32.343a15 15 0 0 0 .371 4.297l-28.828-18.73zm-20.176 88.3 28.75 19.668-3.965 18.77h-31.543l6.856-32.285a15 15 0 0 0-.098-6.152zm171.406-142.656a15 15 0 0 0-14.668 11.895l-5.175 24.336a15.002 15.002 0 0 0 14.668 18.125h21.914l-34.63 162.968a15.002 15.002 0 0 0 14.688 18.106h59.063a15 15 0 0 0 14.687-11.875l35.938-169.2h28.281a15 15 0 0 0 14.668-11.894l5.176-24.336a15.002 15.002 0 0 0-14.668-18.125zm246.25 0a15 15 0 0 0-12.52 6.738l-135.898 205.43a15.002 15.002 0 0 0 12.52 23.262h62.012a15 15 0 0 0 12.851-7.266l15.742-26.21h40.528l-.157 18.359a15 15 0 0 0 15 15.117h56.29a15 15 0 0 0 15-15.45l-6.27-205.429a15 15 0 0 0-15-14.55zm-4.16 133.457-.136 14.16h-8.36zm133.555-133.457a15 15 0 0 0-14.668 11.895l-5.176 24.336a15.002 15.002 0 0 0 14.668 18.125h21.914l-34.629 162.968a15.002 15.002 0 0 0 14.688 18.106h59.062a15 15 0 0 0 14.688-11.875l35.937-169.2h28.282a15 15 0 0 0 14.667-11.894l5.176-24.336a15.002 15.002 0 0 0-14.668-18.125z" style="fill:#000;stroke:none;stroke-width:0;stroke-linecap:round;stroke-linejoin:round;stroke-dasharray:none;paint-order:stroke fill markers" transform="translate(123.931 134.696)"/><path d="M5863.418 2229.824a15 15 0 0 0-14.687 11.895l-43.633 205.43a15.002 15.002 0 0 0 14.668 18.105h59.082a15 15 0 0 0 14.668-11.875l43.652-205.43a15.002 15.002 0 0 0-14.688-18.125z" style="fill:#000;stroke:none;stroke-width:0;stroke-linecap:round;stroke-linejoin:round;stroke-dasharray:none;paint-order:stroke fill markers" transform="translate(123.931 134.696)"/><path d="M5984.824 2229.824c-7.889 0-17.14.191-26.484 2.813-9.345 2.62-21.126 9.78-23.887 22.773l-35.879 168.926c-1.613 7.595.304 15.908 4.219 21.66s9.064 9.371 14.258 12.031c10.388 5.32 21.648 7.227 31.894 7.227h107.012c7.852 0 17.09-.163 26.445-2.773s21.166-9.817 23.926-22.813l35.88-168.906c1.613-7.596-.305-15.928-4.22-21.68s-9.063-9.352-14.257-12.012c-10.389-5.32-21.649-7.246-31.895-7.246zm33.262 54.356h31.523l-26.914 126.738h-31.523zm160.274-54.356a15 15 0 0 0-14.669 11.895l-43.652 205.43a15.002 15.002 0 0 0 14.688 18.105h60.996a15 15 0 0 0 14.765-12.422l13.438-77.285 34.648 80.625a15 15 0 0 0 13.77 9.082h59.336a15 15 0 0 0 14.668-11.875l43.652-205.43a15.002 15.002 0 0 0-14.668-18.125h-62.129a15 15 0 0 0-14.863 12.95l-11.445 82.578-35.02-86.172a15 15 0 0 0-13.887-9.356zm332.87 0a15 15 0 0 0-14.667 11.895l-43.633 205.43a15.002 15.002 0 0 0 14.668 18.105h59.082a15 15 0 0 0 14.668-11.875l17.187-80.938h76.348c7.852 0 17.09-.162 26.445-2.773 9.356-2.61 21.164-9.836 23.926-22.832l16.172-76.074c1.613-7.596-.324-15.928-4.239-21.68s-9.063-9.351-14.257-12.012c-10.389-5.32-21.648-7.246-31.895-7.246zm66.055 54.356h31.543l-7.207 33.906h-31.523z" style="fill:#000;stroke:none;stroke-width:0;stroke-linecap:round;stroke-linejoin:round;stroke-dasharray:none;paint-order:stroke fill markers" transform="translate(123.931 134.696)"/><path d="M6752.832 2229.824c-7.889 0-17.12.191-26.465 2.813-9.344 2.62-21.145 9.78-23.906 22.773l-35.879 168.926c-1.614 7.594.305 15.908 4.219 21.66s9.083 9.371 14.277 12.031c10.389 5.32 21.628 7.227 31.875 7.227h107.031c7.852 0 17.09-.163 26.446-2.773 9.355-2.611 21.166-9.817 23.926-22.813l35.878-168.906c1.614-7.596-.303-15.928-4.218-21.68s-9.064-9.352-14.258-12.012c-10.389-5.32-21.648-7.246-31.895-7.246zm33.281 54.356h31.524l-26.934 126.738h-31.523zm143.633-54.356a15 15 0 0 0-14.98 15.664l8.965 205.43a15 15 0 0 0 14.98 14.336h57.89a15 15 0 0 0 12.715-7.05l48.204-77.169.605 69.356a15 15 0 0 0 15 14.863h58.75a15 15 0 0 0 12.5-6.719l135.898-205.43a15.002 15.002 0 0 0-12.52-23.28h-62.108a15 15 0 0 0-12.715 7.05l-56.23 90.04-.723-82.227a15 15 0 0 0-15-14.864h-49.297a15 15 0 0 0-12.735 7.051l-55.41 88.75-1.406-81.055a15 15 0 0 0-15-14.746z" style="fill:#000;stroke:none;stroke-width:0;stroke-linecap:round;stroke-linejoin:round;stroke-dasharray:none;paint-order:stroke fill markers" transform="translate(123.931 134.696)"/><path d="M7297.988 2229.824a15 15 0 0 0-14.687 11.895l-43.633 205.43a15.002 15.002 0 0 0 14.668 18.105h130.605a15 15 0 0 0 14.668-11.875l5.176-24.356a15.002 15.002 0 0 0-14.668-18.105h-53.008l8.184-38.477h59.375a15 15 0 0 0 14.668-11.894l5.176-24.336a15.002 15.002 0 0 0-14.668-18.125h-53.008l7.207-33.906h59.375a15 15 0 0 0 14.668-11.895l5.176-24.336a15.002 15.002 0 0 0-14.668-18.125zm167.891 0a15 15 0 0 0-14.668 11.895l-43.633 205.43a15.002 15.002 0 0 0 14.668 18.105h59.082a15 15 0 0 0 14.668-11.875l17.207-80.938h33.067l-15.86 74.707a15.002 15.002 0 0 0 14.668 18.106h59.082a15 15 0 0 0 14.668-11.875l17.402-81.914c1.482-6.97-.475-13.412-3.593-18.75 5.137-4.062 9.631-9.645 11.23-17.168l13.75-64.785c1.614-7.596-.304-15.928-4.219-21.68-3.914-5.752-9.063-9.352-14.257-12.012-10.389-5.32-21.648-7.246-31.895-7.246zm66.074 54.356h33.067l-7.188 33.906h-33.086zm158.399-54.356a15 15 0 0 0-14.668 11.895l-43.653 205.43a15.002 15.002 0 0 0 14.688 18.105h130.605a15 15 0 0 0 14.668-11.875l5.176-24.356a15.002 15.002 0 0 0-14.668-18.105h-53.008l8.164-38.477h59.375a15 15 0 0 0 14.668-11.894l5.176-24.336a15.002 15.002 0 0 0-14.668-18.125h-52.988l7.187-33.906h59.375a15 15 0 0 0 14.688-11.895l5.156-24.336a15.002 15.002 0 0 0-14.668-18.125zm168.906 0a15 15 0 0 0-14.668 11.895l-43.653 205.43a15.002 15.002 0 0 0 14.669 18.105h149.14c7.88 0 17.123-.171 26.465-2.793s21.146-9.8 23.906-22.793l35.88-168.906c1.612-7.594-.325-15.928-4.24-21.68-3.915-5.753-9.061-9.352-14.257-12.012-10.392-5.32-21.641-7.246-31.895-7.246zm66.074 54.356h33.047l-26.914 126.738h-33.066z" style="fill:#000;stroke:none;stroke-width:0;stroke-linecap:round;stroke-linejoin:round;stroke-dasharray:none;paint-order:stroke fill markers" transform="translate(123.931 134.696)"/></g><g style="display:inline"><path d="m3331.659 2244.826-43.644 205.434h130.606l5.167-24.348h-71.52l14.55-68.478h71.52l5.176-24.348h-71.52l13.577-63.912h71.52l5.174-24.348zm169.469 0-43.635 205.434h59.078l26.509-124.783 21.986 124.783h52.053l70.562-124.783-26.509 124.783h59.079l43.643-205.434h-79.536l-85.58 151.345-26.67-151.345zm412.027 0-36.42 171.444a12.175 12.175 0 0 1-11.904 9.643h-44.826c-3.869 0-6.754-3.566-5.95-7.353l36.907-173.734h-59.079l-38.798 182.624c-3.295 15.51 19.8 22.81 35.701 22.81h107.018c14.79 0 33.08-1.355 35.707-13.71l40.73-191.724zm104.17 0-43.635 205.434h130.598l5.176-24.348h-71.521l38.468-181.086zm248.448.004-135.893 205.43h62.014l20.104-33.478h64.148l-.29 33.478h56.294l-6.27-205.43zm11.323 63.549-.733 84.057h-49.75zm119.607-63.553-5.176 24.348h40.424l-38.467 181.086h59.086l38.467-181.086h40.425l5.166-24.348zm167.915 0-43.642 205.434h59.086l43.642-205.434zm121.415 0c-14.809 0-33.096 1.435-35.705 13.712l-35.879 168.912c-3.295 15.51 19.799 22.81 35.7 22.81h107.02c14.787 0 33.079-1.355 35.705-13.711l35.879-168.913c3.295-15.509-19.799-22.81-35.7-22.81zm30.971 24.348h44.83c3.867 0 6.754 3.566 5.95 7.353L4738.1 2416.27a12.16 12.16 0 0 1-11.898 9.642h-44.833c-3.868 0-6.755-3.566-5.952-7.352l29.687-139.743a12.17 12.17 0 0 1 11.9-9.643m161.041-24.348-43.635 205.434h61.002l22.075-126.988 54.555 126.988h59.328l43.643-205.434h-62.12l-19.146 138.005-56.076-138.005zm281.817 24.348a6.084 6.084 0 0 0-5.949 4.821l-5.706 26.878a12.18 12.18 0 0 0 5.277 12.743l83.568 54.273c7.483 4.86 15.502 12.68 13.863 20.38l-8.967 42.194c-2.922 13.76-20.81 19.798-35.7 19.798h-107.02c-17.562 0-39.342-11.765-35.7-28.898l9.739-45.85h59.078l-9.142 43.047c-.804 3.787 2.082 7.353 5.95 7.353h49.76a6.08 6.08 0 0 0 5.95-4.822l5.875-27.663a12.17 12.17 0 0 0-5.034-12.58l-75.877-51.914c-11.573-7.918-22.629-19.011-20.25-30.204l7.245-34.106c2.92-13.752 20.78-19.798 35.7-19.798h108.314c15.903 0 38.997 7.301 35.701 22.81l-11.115 52.32-59.014-.307 9.16-43.123c.804-3.786-2.082-7.352-5.95-7.352zm158.458-24.348-5.166 24.348h40.424l-38.469 181.086h59.079l38.467-181.086h40.424l5.174-24.348zm246.243.004-135.893 205.43h62.014l20.104-33.478h64.148l-.29 33.478h56.294l-6.27-205.43zm11.323 63.549-.733 84.057h-49.75zm118.078-63.553-5.167 24.348h40.424l-38.469 181.086h59.079l38.469-181.086h40.432l5.166-24.348zm169.446 0-43.644 205.434h59.086l43.636-205.434zm121.413 0c-14.81 0-33.096 1.435-35.705 13.712l-35.877 168.912c-3.295 15.51 19.8 22.81 35.7 22.81h107.018c14.787 0 33.077-1.355 35.7-13.711l35.884-168.913c3.295-15.509-19.8-22.81-35.7-22.81zm30.971 24.348h44.825c3.871 0 6.758 3.566 5.955 7.353l-29.69 139.743a12.17 12.17 0 0 1-11.9 9.642h-44.826c-3.869 0-6.755-3.566-5.948-7.352l29.684-139.743a12.17 12.17 0 0 1 11.9-9.643m162.563-24.348-43.636 205.434h60.995l22.075-126.988 54.562 126.988h59.329l43.643-205.434h-62.12l-19.146 138.005-56.077-138.005zm508.391 22.811-16.161 76.086c-2.627 12.356-20.918 13.712-35.706 13.711h-88.486l-19.717 92.827H6467.6l43.635-205.435h139.812c15.901 0 38.996 7.301 35.7 22.81m-121.602 1.537-13.576 63.913h57.268a6.08 6.08 0 0 0 5.95-4.822l10.991-51.739c.804-3.786-2.082-7.352-5.95-7.352zm187.697-24.347c-14.81 0-33.096 1.435-35.706 13.712l-35.88 168.912c-3.297 15.51 19.797 22.81 35.701 22.81h107.02c14.788 0 33.078-1.355 35.701-13.711l35.884-168.913c3.295-15.509-19.8-22.81-35.701-22.81zm30.971 24.348h44.83c3.867 0 6.753 3.566 5.95 7.353l-29.69 139.743a12.17 12.17 0 0 1-11.9 9.642h-44.825c-3.869 0-6.755-3.566-5.952-7.352l29.687-139.743a12.17 12.17 0 0 1 11.9-9.643m145.936-24.348 8.965 205.434h57.888l75.463-120.838 1.054 120.838h58.749l135.893-205.434h-62.112l-83.495 133.704-1.168-133.704h-49.308l-82.255 131.713-2.293-131.713zm368.232 0-43.635 205.434h130.598l5.176-24.348h-71.521l14.542-68.478h71.52l5.176-24.348h-71.521l13.577-63.912h71.52l5.174-24.348zm221.819 24.348-13.577 63.913h58.821a6.084 6.084 0 0 0 5.95-4.822l10.994-51.739c.804-3.786-2.082-7.352-5.955-7.352zm-53.912-24.348h141.365c15.901 0 38.996 7.301 35.701 22.81l-13.762 64.792c-2.246 10.569-16.306 15.08-27.883 15.29v.778c10.213 2.455 22.376 9.85 20.248 19.858l-17.4 81.907h-59.08l18.157-85.474c.804-3.786-2.082-7.352-5.949-7.353h-56.236l-19.717 92.827h-59.087zm224.467 0-43.642 205.434h130.606l5.174-24.348h-71.519l14.542-68.478h71.52l5.174-24.348h-71.52l13.577-63.912h71.52l5.175-24.348zm168.899.001-43.643 205.433h149.14c14.792 0 33.079-1.434 35.687-13.71l35.878-168.914c3.299-15.509-19.796-22.81-35.718-22.81zm53.927 24.347h56.237c3.852 0 6.739 3.567 5.915 7.353l-30.685 144.565a6.09 6.09 0 0 1-5.956 4.82h-58.82z" style="fill:#fff;fill-opacity:1;stroke:none;stroke-width:0;stroke-linecap:round;stroke-linejoin:round;stroke-dasharray:none;stroke-opacity:1;paint-order:stroke fill markers" transform="translate(123.931 134.696)"/></g></g></svg>