<!-- Created by ERK --><svg xmlns="http://www.w3.org/2000/svg" xml:space="preserve" width="4291.96" height="1551.567" viewBox="0 0 1135.581 410.519"><path d="m871.711-300.365-37.247 37.247v20.692H769.33v-55.442l-40.379 34.61v20.448h-60.64l-14.454 14.454v-14.454H592.95l-10.556 10.556v-10.556H514.83v-17.004h9.8l30.75-30.751h-50.783l-27.447 27.447v-35.726l-44.61 38.79v17.244h-25.516l15.633-14.076h-97.745v-6.684l-35.514 31.977v-25.293h-98.633l35.248 31.184h22.24v111.595l37.918-34.141v33.714l37.442-33.714v33.714l36.4-32.776h44.436l28.09-25.292v60.311l41.146-35.778v33.354l36.84-32.595h64.94v32.595l36.84-32.595h99.08l16.645-13.966v48.446l34.479-34.48h106.17v32.595l36.844-32.595h41.552v-95.5h-60.91l-14.454 14.454zM364.76-225.702h15.587l-15.587 14.035zm334.01 13.643h29.8v27.594zm-44.912 16.106 25.007 21.358H658.35l-4.494 4.492z" style="display:inline;fill:#fff;fill-opacity:1;stroke:#000;stroke-width:.409211;stroke-linecap:round;stroke-opacity:1" transform="matrix(1.5 0 0 1.5 -285.338 578.281)"/><g style="display:inline;fill:#922d32;fill-opacity:1;stroke:none"><path d="M1254.072 385.2v140.274h-24v-197h-169.5l45.211 40h61.288v237.725l63-56.725h24.548v55.737l61.902-55.737h24.551v55.737l63-56.725V368.474h63.574l44.424-40h-170.998v197m0 0h-24v-197l-63 56.725" style="display:inline;fill:#922d32;fill-opacity:1;stroke:none;stroke-width:.944827;stroke-linecap:round" transform="translate(-660.765 -10.05)scale(.64966)"/><path d="m1506.071 360.974-78.999 71.132v117.368h78.5l70.998-63.929V360.974Zm7.999 24.419v118.75l-23.998 21.61v-118.75Z" style="display:inline;stroke:none;stroke-width:.944827;stroke-linecap:round" transform="translate(-660.765 -10.05)scale(.64966)"/><path d="m1592.572 611.211 70.998-61.737m0 0V250.71l-70.998 61.738V611.21m94.998-5.999V399.974h-16.5v-39h16.5V312.71l62-62h72.001l-39 39h-32v71.263h70.873l-39 39h-31.874v149.5z" style="display:inline;fill:#922d32;fill-opacity:1;stroke:none;stroke-width:.944827;stroke-linecap:round" transform="translate(-660.765 -10.05)scale(.64966)"/><path d="M1907.571 518.474v31h-142.499v-109.5l79-79h62.5v46.596l-78.196 70.904v40zm-79.195-118.5v33.264l33.264-33.264zm180.194 149.5v-148.5h-23v148.5l-63 55.737V391.974l31.002-31h117.999v188.5zm80 0h126l39-32.725v-21.275l-103.13-95.5h47.099l40.386-39H2127.57l-39 39v33l100.108 85.5m0 0h-84.106l-16.002 16v15" style="display:inline;fill:#922d32;fill-opacity:1;stroke:none;stroke-width:.944827;stroke-linecap:round" transform="translate(-660.765 -10.05)scale(.64966)"/><path d="M2368.685 399.974h-29.615V542.21l-63 63V399.974h-55.5l40.387-39h15.113V304.71l63-54v110.263h70z" style="display:inline;fill:#922d32;fill-opacity:1;stroke:none;stroke-width:.944827;stroke-linecap:round" transform="translate(-660.765 -10.05)scale(.64966)"/><path d="M2418.376 518.474h79.195v31h-142.5v-109.5l79-79h62.5v46.596l-78.195 70.904zm0-85.236 33.263-33.264h-33.263zm102.195-72.264V304.71l54-54v56.263zm54 188.5h-54V392.086l54-54zm88.01-148.5v148.5l-63.01 55.737V391.974l31-31h118v188.5h-62.998v-148.5Z" style="display:inline;fill:#922d32;fill-opacity:1;stroke:none;stroke-width:.944827;stroke-linecap:round" transform="translate(-660.765 -10.05)scale(.64966)"/></g><path d="M203.342-398.746v74h36.001v-33h19v59l34-32.834v-14.626l-15.492-16.04 15.491-14.96v-21.54zm36.001 11.5h19v21h-19zm95.821 18.999h40v13h-40v17.5h40v13h-76v-73.999h76v13h-40zm46.822-30.499v74h33.999v-33h18v59l31-31v-69zm33.999 11.5h18v21h-18zm55.823 62.499h83m-83 0v-73.999h36.002v61h46.998v13m16.347-74v74h36.002v-33h19v59l33.999-32.834v-14.626l-15.492-16.04 15.492-14.96v-21.54zm36.002 11.5h19v21h-19zm88.939 1.499v87l33.001-28.184v-58.816h27.998m-61 0h-27v-12.999h88v13m44.939-1.001v49h49v13h-85m0 0v-73.999h85v12h-49m57.939-12v100l32.448-27.712h6.847v27.712l32.447-27.712h6.848v27.712l33.002-28.185v-71.815h-33.002v63.788h-6.293v-63.788h-33.002v63.788h-6.293v-63.788z" style="display:inline;fill:#75797a;fill-opacity:1;stroke:none;stroke-width:.944827;stroke-linecap:round" transform="translate(153.433 424.677)"/><path d="M199.108-401.392v74h36.002v-33h19v59l33.999-32.833v-14.626l-15.492-16.041 15.492-14.96v-21.54zm36.002 11.5h19v21h-19zm95.82 18.999h40v13h-40v17.5h40v13h-75.999v-73.999h76v13h-40v17.5m46.822-30.5v74h33.999v-33h18v59l31-31v-69zm33.999 11.5h18v21h-18zm55.823 62.5h83m-83 0v-74h36.002v61h46.997v13m16.348-74v74h36.002v-33h19v59l33.999-32.833v-14.626l-15.492-16.041 15.492-14.96v-21.54zm36.002 11.5h19v21h-19zm88.938 1.499v87l33.002-28.184v-58.816h27.998m-61 0h-27v-12.999h88v13m44.938-1v49h49.001v13h-85m0 0v-74h85v12h-49m57.939-12v100l32.449-27.713h6.846v27.713l32.448-27.712h6.847v27.712l33.001-28.185v-71.815H934.33v63.788h-6.294l.001-63.788h-33.002v63.787h-6.293v-63.787z" style="fill:#e7e7e8;fill-opacity:1;stroke:#000;stroke-width:.944827;stroke-linecap:round" transform="translate(153.433 424.677)"/><path d="M-638.867-96.472a88 88 0 0 0-41.249 17.27 42.5 42.5 0 0 0-16.664 33.745v23.5l15.405-3.273c7.465-1.587 14.495 4.106 14.496 11.737v100h-74.8v-100c0-7.631 7.03-13.324 14.494-11.737l15.407 3.274-.001-23.5a42.5 42.5 0 0 0-16.665-33.745 88 88 0 0 0-41.249-17.27l-89.088-12.523v79.002h-407.697l197 197h217.298v316.198l92.65-92.65v132.65l92.651-92.65v52.65l110.498-110.5V167.007h217.3l197-197h-407.698v-79.001l-89.088 12.523" style="display:inline;fill:#fff;fill-opacity:1;stroke:#000;stroke-width:.944827;stroke-linecap:round" transform="translate(378.227 31.769)scale(.29003)"/><g style="display:inline;stroke:none"><path d="m957.67 216.974-38.5 38.5h-229.6v218l-68.498 68.5v-92.65l-24.151 24.15v40l-68.5 68.5v-132.65l-92.65 92.65v-286.5h-229.6l-38.5-38.5h336.6v214.073l24.15-24.15V216.974h68.5m0 0v214.073l24.151-24.15V216.974H957.67m-851.5-61.5 39.001 39h359.1v-104.5c0-15.188 12.312-27.5 27.5-27.5h4.65a40.6 40.6 0 0 0-32.15-26.277m0 0L429.17 24.972v122h-78.5l46.501-46.5h-346l38.5 38.5h216.674l-16.5 16.5H106.171m514.901 39.002H980.17l39.002-39H835.496l-16.5-16.5h216.675l38.5-38.5H728.17l46.5 46.5h-78.499V24.973l-75.1 11.224a40.6 40.6 0 0 0-32.15 26.277h4.65c15.188 0 27.5 12.312 27.5 27.5z" style="display:inline;fill:#922d32;fill-opacity:1;stroke:none;stroke-width:.944827;stroke-linecap:round" transform="translate(10.777 .02)scale(.29003)"/></g></svg>