<?xml version="1.0" encoding="UTF-8"?>
<!-- Created by ERK -->
<svg width="2772.7" height="1006.1" version="1.1" viewBox="0 0 2772.7 1006.1" xml:space="preserve" xmlns="http://www.w3.org/2000/svg" xmlns:xlink="http://www.w3.org/1999/xlink"><defs><linearGradient id="linearGradient36"><stop stop-color="#a93d71" offset="0"/><stop stop-color="#872f5c" offset=".62676"/></linearGradient><linearGradient id="linearGradient2" x1="250.43" x2="1062.9" y1="449.34" y2="485" gradientUnits="userSpaceOnUse"><stop stop-color="#b04277" offset=".34025"/><stop stop-color="#190b11" offset="1"/></linearGradient><linearGradient id="linearGradient35" x1="1170" x2="1774.3" y1="519.43" y2="519.43" gradientUnits="userSpaceOnUse"><stop stop-color="#341523" offset="0"/><stop stop-color="#b04277" offset="1"/></linearGradient><linearGradient id="linearGradient37" x1="2216.9" x2="1890.3" y1="512.33" y2="525.3" gradientUnits="userSpaceOnUse" xlink:href="#linearGradient36"/><linearGradient id="linearGradient39" x1="2661.2" x2="2362.1" y1="501.51" y2="518.8" gradientUnits="userSpaceOnUse"><stop stop-color="#ad3971" offset="0"/><stop stop-color="#913461" offset="1"/></linearGradient><linearGradient id="linearGradient41" x1="897.06" x2="1055" y1="643.74" y2="643.74" gradientUnits="userSpaceOnUse"><stop stop-color="#b04277" offset=".19894"/><stop stop-color="#5c233e" offset=".66373"/></linearGradient><linearGradient id="linearGradient45" x1="1230.4" x2="1230.4" y1="584.03" y2="983.37" gradientUnits="userSpaceOnUse"><stop stop-color="#391527" offset=".13556"/><stop stop-color="#b04277" offset=".56514"/></linearGradient><linearGradient id="linearGradient95" x1="1145" x2="1167.9" y1="781.31" y2="660.22" gradientUnits="userSpaceOnUse"><stop stop-color="#a83e70" offset=".28345"/><stop stop-color="#371825" offset="1"/></linearGradient><linearGradient id="linearGradient98" x1="999.59" x2="1131.6" y1="303.7" y2="461.07" gradientUnits="userSpaceOnUse"><stop stop-color="#ae4276" offset=".34507"/><stop offset="1"/></linearGradient><linearGradient id="linearGradient180" x1="2216.9" x2="1890.3" y1="512.33" y2="525.3" gradientTransform="translate(1.4075)" gradientUnits="userSpaceOnUse" xlink:href="#linearGradient36"/></defs><g transform="translate(-30.758 -23.76)" fill="url(#linearGradient2)" stroke="#000" stroke-linecap="round" stroke-width="3.571"><path d="m342.63 273.62-116.9-8.0939 168.59 28.78c-14.642-12.137-32.724-19.372-51.697-20.686z"/><path d="m394.32 294.31-168.59-28.78v53.739l197.66 25.631c-2.0201-14.183-7.9232-27.531-17.057-38.568-3.6197-4.3739-7.6414-8.3989-12.012-12.022z"/><path d="m423.52 392.54-197.79-19.337v-53.935l197.66 25.631c0.57891 4.0662 0.83452 8.172 0.76421 12.279l-0.5639 32.951c-0.0136 0.804-0.037 1.6076-0.0702 2.4107z"/><path d="m225.73 423.58v-50.377l197.79 19.337c-0.63013 15.285-4.7561 30.221-12.061 43.662z"/><path d="m399.4 453.68c-15.836 18.408-38.908 29.002-63.191 29.014l-110.48 0.056v-59.171l185.73 12.622c-3.3898 6.2378-7.4339 12.097-12.064 17.479z"/><path d="m336.83 595.69-111.1-2.062v44.065l162.46-9.5382c-9.7324-19.547-29.528-32.06-51.36-32.465z"/><path d="m225.73 679.83v-42.133l162.46-9.5382c2.5253 5.0722 4.3016 10.484 5.2732 16.066l3.701 21.266z"/><path d="m397.16 665.49-171.43 14.338v45.691l178.45-19.75z"/><path d="m225.73 777.2v-51.686l178.44-19.749 7.853 45.12z"/><path d="m412.03 750.89-186.3 26.314v42.076l193.28-28.262z"/><path d="m292.33 850.55v-32.395l-66.602 9.86v-8.736l193.28-28.26 5.925 34.042z"/><path d="m424.94 825.06-132.61 25.488v38.328l138.51-29.893z"/><path d="m292.33 927.3v-38.422l138.51-29.893 5.838 33.545z"/><path d="m474.25 212.79c-21.727-18.691-74.85-40.216-74.85-40.216l454 109.52v16.333z"/><path d="m506.36 248.02c-9.2382-13.003-20.022-24.835-32.113-35.238l379.15 85.639v21.095z"/><path d="m530.95 294.8c-1.9582-5.3043-4.1306-10.527-6.512-15.655-5.0631-10.902-11.114-21.318-18.076-31.117l347.03 71.496v31.997z"/><path d="m543.78 360.51c-0.71729-22.45-5.0485-44.638-12.827-65.71l322.45 56.721v23.004l141.56 4.327v-2.43l141.41 24.876-21.26 33.296z"/><path d="m540.62 403.98c2.5658-14.343 3.6248-28.915 3.1597-43.478l571.33 74.084-15.36 24.055z"/><path d="m540.62 403.98 559.13 54.661-14.88 23.317-555.69-37.763c5.1487-12.989 8.9818-26.461 11.442-40.215z"/><path d="m529.17 444.2 555.69 37.763-11.97 18.734-560.28-25.087c4.5493-6.4259 8.5064-13.251 11.823-20.392 1.6843-3.6267 3.2641-7.3009 4.7374-11.018z"/><path d="m478.03 509.07c13.509-8.9091 25.238-20.258 34.588-33.465l560.28 25.087-12.94 20.265z"/><path d="m426.9 528.95c18.26-2.9204 35.689-9.6966 51.126-19.877l581.93 11.887-6.37 9.988-152.95-1.33-45.813 2.061z"/><path d="m564.88 544.72-0.206 17.764-73.871 1.3141c-16.393-21.354-41.712-33.964-68.633-34.182 1.5815-0.19372 3.1594-0.41646 4.7325-0.66808l427.92 2.729z"/><path d="m490.8 563.8 73.871-1.3141-0.375 32.339-57.691 2.4068c-2.824-12.143-8.2127-23.542-15.805-33.432z"/><path d="m506.61 597.23 57.691-2.4068-0.416 35.956-51.266 3.5-4.777-30.693c-0.33208-2.1333-0.74304-4.2536-1.232-6.3562z"/><path d="m563.88 630.78-51.266 3.5 4.8555 31.207 46.072-5.584z"/><path d="m976.72 651.33 17.392-27.239-93.477 8.683-337.09 27.128-46.072 5.584 6.27 40.281z"/><path d="m976.72 651.33-452.98 54.436 6.0723 39.016 427.9-63.691z"/><path d="m937.72 712.41-342.72 60.941-59.373 8.789-5.814-37.357 427.9-63.692z"/><path d="m937.72 712.41-342.72 60.941 0.92188 27.988 326.54-65.025z"/><path d="m902.02 768.33-304.91 69.122-1.188-36.109 326.54-65.027z"/><path d="m902.02 768.33-304.91 69.121 1.0137 30.793 285.76-71.508z"/></g><g transform="translate(-30.758 -23.76)" fill="url(#linearGradient35)" stroke="#000" stroke-width="3.571"><path d="m1583.8 225.2c-22.219 14.114-41.042 33.484-56.715 55.341l-136.22 46.824 27.94-40.472 181.83-71.088c-5.7918 2.8206-11.415 5.9511-16.835 9.3945z" stroke-linecap="round"/><path d="m1365.6 364.02 25.3-36.65 136.22-46.824c-7.2796 10.151-13.88 20.839-19.826 31.785-2.0341 3.7448-3.9916 7.52-5.8735 11.323z" stroke-linecap="round"/><path d="m1486.9 357.45-141.94 36.381 20.59-29.817 135.82-40.366c-5.4618 11.045-10.283 22.329-14.472 33.802z" stroke-linecap="round"/><path d="m1324.7 423.17 20.25-29.336 141.94-36.381c-4.0006 10.954-7.4256 22.081-10.287 33.335z" stroke-linecap="round"/><path d="m1302 456.13 22.76-32.962 151.9-32.382c-1.542 6.0708-2.9192 12.179-4.1332 18.317-1.3219 6.6834-2.4502 13.403-3.4078 20.152z" stroke-linecap="round"/><path d="m1279.8 488.32 22.22-32.184 167.12-26.875c-1.8588 13.087-3.0792 26.284-3.832 39.54z" stroke-linecap="round"/><path d="m1464.3 521.17c-0.01-0.53639-0.01-1.0727-0.018-1.609-0.1904-16.946 0.017-33.901 0.9768-50.762l-185.51 19.519-27.13 39.3z" stroke-linecap="round"/><path d="m1229 561.86 23.64-34.246 211.68-6.4481c0.2158 16.91 0.8357 33.808 2.1379 50.622z" stroke-linecap="round"/><path d="m1205.2 596.26 23.75-34.396 237.46 9.9278c1.4891 19.252 3.8704 38.393 7.5541 57.314z" stroke-linecap="round"/><path d="m1189.3 619.32 15.92-23.057 268.76 32.846c2.4014 12.321 5.3568 24.548 8.9806 36.653 0.7159 2.3914 1.458 4.778 2.2278 7.1584z" stroke-linecap="round"/><path d="m1427.1 705.79v-40.035l-145.61 2.46v1.651l-108.55-26.782 15.91-23.042 296.87 54.352c5.7565 17.57 12.944 34.798 21.607 51.191z" stroke-linecap="round"/><path d="m1427.1 734.68v-28.884l80.23 19.795c7.37 13.952 15.806 27.3 25.332 39.741z" stroke-linecap="round"/><path d="m1427.1 765.33v-30.652l105.56 30.652c6.3628 8.3082 13.212 16.212 20.556 23.62 12.95 13.065 27.438 24.591 43.294 34.074z" stroke-linecap="round"/><path d="m1706.4 325.3c-24.104-11.184-57.635-3.1971-80.341 13.852-5.0885 3.8207-9.6334 8.0965-13.707 12.731l103.4-21.001c-2.949-2.1715-6.0637-4.0554-9.354-5.582z" stroke-linecap="round"/><path d="m1715.8 330.88-103.4 21.001c-8.0705 9.1774-14.297 19.761-19.251 31.002l146.07-25.05c-6.4253-10.389-14.106-20.102-23.418-26.953z" stroke-linecap="round"/><path d="m1741.7 362.11c-0.8279-1.4317-1.678-2.8563-2.551-4.2684l-146.07 25.05c-3.6596 8.295-6.6252 16.948-9.1283 25.657l168.71-24.141c-3.1318-7.5866-6.7599-15.032-10.961-22.298z" stroke-linecap="round"/><path transform="translate(38.389 32.496)" d="m1714.1 351.94-168.51 24.111c-0.054 0.18887-0.12 0.37554-0.1739 0.56446-2.8317 9.9317-5.0643 19.93-6.8066 29.975l186.47-20.133c-2.729-11.738-6.3289-23.273-10.975-34.518z" stroke-linecap="square"/><path d="m1763.6 418.93-186.61 20.15c-1.5163 8.7303-2.656 17.496-3.4867 26.287l195.55-15.067c-1.2877-10.541-3.0472-21.027-5.4518-31.37z" stroke-linecap="round"/><path d="m1769.1 450.3-195.55 15.067c-0.9649 10.238-1.5103 20.508-1.7389 30.792l200.21-8.0821c-0.504-12.573-1.3752-25.214-2.9153-37.777z" stroke-linecap="round"/><path d="m1772.2 494.3c-0.064-2.07-0.1367-4.1424-0.2171-6.2169l-200.21 8.0821c-0.1933 8.8939-0.1504 17.798 0.066 26.7l200.67-1.6921c0.078-8.9301-0.036-17.878-0.314-26.873z" stroke-linecap="round"/><path d="m1772.5 521.17-200.67 1.6921c0.054 2.2526 0.1192 4.505 0.1949 6.7571 0.186 5.5327 0.4323 11.063 0.7477 16.587l198.77 3.8692c0.5652-9.6393 0.8737-19.262 0.9599-28.905z" stroke-linecap="round"/><path d="m1771.6 550.07-198.77-3.8692c0.5207 9.0495 1.2292 18.08 2.1701 27.068l193.59 10.003c1.3741-11.127 2.359-22.175 3.0078-33.202z" stroke-linecap="round"/><path d="m1768.6 583.28-193.59-10.003c0.5595 5.3193 1.1993 10.624 1.9304 15.909 0.4798 3.469 0.999 6.9296 1.568 10.38l185.16 15.304c2.0137-10.63 3.6448-21.145 4.9328-31.59z" stroke-linecap="round"/><path d="m1763.2 617.03c0.1403-0.72253 0.2789-1.4445 0.4174-2.166l-185.16-15.304c2.0266 12.291 4.685 24.455 8.4495 36.422l165.78 20.661c4.7042-12.683 7.9121-26.241 10.509-39.613z" stroke-linecap="round"/><path d="m1598.1 663.92 140.31 20.456c5.9602-8.362 10.571-17.776 14.26-27.729l-165.78-20.661c2.9706 9.4456 6.6305 18.768 11.211 27.934z" stroke-linecap="round"/><path d="m1599.1 665.76c5.8855 11.435 13.237 22.62 22.076 31.78l82.349 14.917c6.8222-2.9192 13.229-6.6602 18.858-11.072 6.2678-4.9127 11.571-10.657 16.094-17.009l-140.31-20.456c0.3078 0.61387 0.6189 1.2272 0.9342 1.8399z" stroke-linecap="round"/><path d="m1621.1 697.54c8.382 8.6846 18.101 15.549 29.176 19.082 16.563 5.2829 36.16 3.1142 53.172-4.1651z" stroke-linecap="round"/></g><g transform="translate(-30.758 -23.76)" stroke="#000" stroke-linecap="round" stroke-width="3.571"><path d="m1787.1 228.3 126.1-38.628v48.774l-96.288 25.366c-8.5425-13.207-18.382-25.448-29.815-35.512z" fill="url(#linearGradient37)"/><path d="m1838.3 303.74c-2.4787-5.5476-5.1164-11.056-7.9276-16.521-4.0985-7.9685-8.5658-15.847-13.46-23.408l96.288-25.366v48.774z" fill="url(#linearGradient37)"/><path d="m1854 345.66c-4.4134-14.187-9.5797-28.175-15.721-41.921l74.901-16.521 35.12-2.142v43.753z" fill="url(#linearGradient37)"/><path d="m1865.4 389.7c-0.7728-3.6284-1.5807-7.2474-2.4249-10.856-2.6118-11.166-5.5698-22.235-8.9758-33.185l94.301-16.831v49.581z" fill="url(#linearGradient37)"/><path d="m1865.4 389.7 82.9-11.291v42.069l-76.03 7.6281c-1.8876-12.892-4.1618-25.706-6.8667-38.406" fill="url(#linearGradient37)"/><path d="m1948.3 463.43-71.4 4.5499c-1.1679-13.345-2.6961-26.648-4.6309-39.869l76.03-7.6281z" fill="url(#linearGradient37)"/><path d="m1876.9 468.56 71.351-4.5079v40.25l-69 1.9919c-0.4923-12.593-1.2633-25.182-2.3511-37.734z" fill="url(#linearGradient37)"/><path d="m1879.9 535.18c-0.068-9.6211-0.2814-19.255-0.6574-28.886l69-1.9919v42.069l-68.33-0.47807c0.017-3.5694 0.012-7.1406-0.013-10.714z" fill="url(#linearGradient37)"/><path d="m1878.6 587.67c0.8802-13.886 1.2877-27.815 1.3522-41.774l68.328 0.47807v44.422z" fill="url(#linearGradient37)"/><path d="m1948.3 633.07-73.58-5.9538c1.8018-13.102 3.0642-26.256 3.9-39.447l69.68 3.1262z" fill="url(#linearGradient37)"/><path d="m1874.7 627.11 73.578 5.9538v46.271l-81.48-9.8088c3.3648-14.069 5.9518-28.213 7.9025-42.416z" fill="url(#linearGradient37)"/><path d="m1856.3 705.57c4.1236-11.953 7.5836-23.971 10.475-36.044l81.485 9.8088v40.478z" fill="url(#linearGradient37)"/><path d="m1948.3 767.84v-48.027l-91.959-14.243c-2.4121 6.9957-5.0526 13.969-7.9387 20.919-3.2699 7.8739-6.855 15.717-10.763 23.413l75.54 15.06z" fill="url(#linearGradient37)"/><path d="m1815 787.1c8.48-11.602 16.004-24.187 22.604-37.192l75.536 15.06v45.636z" fill="url(#linearGradient37)"/><path d="m1913.2 810.6-98.14-23.504c-9.8959 13.539-21.094 25.741-33.65 35.712l131.79 37.296z" fill="url(#linearGradient37)"/><path d="m2051.3 318.54 0.1602 57.004 11.93-1.5195z" fill="url(#linearGradient37)"/><path d="m2063.4 374.02-11.93 1.5195 0.1797 59.127 24.529-1.9883z" fill="url(#linearGradient37)"/><path d="m2076.2 432.68-24.529 1.9883 0.1 36.564 32.461-1.7031z" fill="url(#linearGradient37)"/><path d="m2084.2 469.53-32.461 1.7031 0.1 34.098 39.941-1.0274z" fill="url(#linearGradient37)"/><path d="m2091.8 504.3-39.941 1.0274 0.1 32.83h47.221z" fill="url(#linearGradient37)"/><path d="m2052 538.16 0.092 30.541 54.068 1.293-6.9395-31.834z" fill="url(#linearGradient37)"/><path d="m2052.1 568.7 0.09 30.225 60.91 2.9004-6.9316-31.832z" fill="url(#linearGradient37)"/><path d="m2052.2 598.93 0.08 29.367 67.639 4.7754-6.8086-31.242z" fill="url(#linearGradient37)"/><path d="m2052.2 628.29 0.1094 37.51 76.33 7.6289-8.8008-40.363z" fill="url(#linearGradient37)"/><path d="m2052.3 665.8 0.1 33.408 84.16 10.615-7.9297-36.395z" fill="url(#linearGradient37)"/><path d="m2052.4 699.21 0.09 31.869 91.721 13.855-7.6504-35.109z" fill="url(#linearGradient37)"/><path d="m2052.5 731.08 0.09 30.461 99.031 17.32-7.4004-33.926z" fill="url(#linearGradient37)"/><path d="m2052.6 761.54 0.051 14.861 30.01 2.459v22.945l77.369 15.604-8.3984-38.549z" fill="url(#linearGradient37)"/><path d="m2082.7 801.81v33.732l85.561 19.465-8.1914-37.594z" fill="url(#linearGradient37)"/><path d="m2082.7 835.54v32.867l93.641 23.656-8.0801-37.059z" fill="url(#linearGradient37)"/><path d="m2201.1 167.07-89.199 23.219 10.029 45.631 77.869-17.479z" fill="url(#linearGradient37)"/><path d="m2201.2 218.44-77.869 17.479 10.199 46.406 66.371-12.516z" fill="url(#linearGradient180)"/><path d="m2231.4 267.81-32.869 2.0059-66.371 12.516 10.891 49.537 88.35-13.328z" fill="url(#linearGradient37)"/><path d="m2231.4 318.54-88.35 13.328 6.8496 31.139 81.5-10.387z" fill="url(#linearGradient37)"/><path d="m2231.4 352.62-81.5 10.387 10.451 47.531 71.049-6.5488z" fill="url(#linearGradient37)"/><path d="m2231.4 403.99-71.049 6.5488 8.539 38.838 62.51-3.9844z" fill="url(#linearGradient37)"/><path d="m2231.4 445.39-62.51 3.9844 7.7793 35.398 54.73-2.0859z" fill="url(#linearGradient37)"/><path d="m2231.4 482.69-54.73 2.0859 9.6817 43.996 45.049-0.30078z" fill="url(#linearGradient37)"/><path d="m2231.4 528.47-45.049 0.30078 10.27 46.738 34.779 0.91406z" fill="url(#linearGradient37)"/><path d="m2196.6 575.51 7.3594 33.438 27.42 1.3594v-33.883z" fill="url(#linearGradient37)"/><path d="m2204 608.94 27.42 124.75v-123.39z" fill="url(#linearGradient37)"/></g><g transform="translate(-30.758 -23.76)" fill="url(#linearGradient39)" stroke="#000" stroke-linecap="round" stroke-width="3.571"><path d="m2393.4 151.98-25.621 7.4121-0.9199 52.189 26.541-6.6289z"/><path d="m2393.4 204.95-26.541 6.6289-0.8398 48.012-33 2.0137 0.041 13.336 91.299-18.908-30.959 1.8887z"/><path d="m2424.4 256.03-91.299 18.908 0.1093 38.631 91.19-16.141z"/><path d="m2424.4 297.43-91.19 16.141 0.1192 45.65 91.07-12.877z"/><path d="m2424.4 346.35-91.07 12.877 0.1308 48.566 90.94-9.418z"/><path d="m2424.4 398.37-90.94 9.418 0.1407 48.893 90.799-5.9434z"/><path d="m2424.4 450.74-90.799 5.9434 0.1093 42.012 90.69-2.9688z"/><path d="m2424.4 495.72-90.69 2.9688 0.1 36.1 90.59-0.41797z"/><path d="m2424.4 534.38-90.59 0.41797 0.1211 43.842 90.469 2.6699z"/><path d="m2333.9 578.63 0.1093 39.521 90.359 5.4512v-42.303z"/><path d="m2334 618.16 0.1289 46.176 90.23 8.6856v-49.41z"/><path d="m2334.1 664.33 0.1016 39.875 90.129 11.471v-42.66z"/><path d="m2334.2 704.21 0.1289 44.977 90 14.607v-48.113z"/><path d="m2334.4 749.18 0.1211 43.584 58.92 11.561 30.959 2.5391v-43.076z"/><path d="m2334.5 792.77 0.1484 56.816 58.772 14.127v-59.383z"/><path d="m2334.6 849.58 0.1602 56.832 58.611 16.68v-59.385z"/><path d="m2664.3 241.4-134.38 8.1973 0.07 16.701z"/><path d="m2664.3 241.4-134.31 24.898 0.17 40.668 134.14-21.18z"/><path d="m2664.3 285.78-134.14 21.18 0.1386 33.541 134-18.119z"/><path d="m2664.3 322.38-134 18.119 0.1602 37.344 133.84-14.721z"/><path d="m2664.3 363.13-133.84 14.721 0.1504 36.896 133.69-11.371z"/><path d="m2531.6 650.11 0.1504 36.279 132.56 13.031v-39.512z"/><path d="m2531.7 686.38 0.17 40.227 132.39 16.605v-43.801z"/><path d="m2531.9 726.61 0.1699 41.963 132.22 20.324v-45.682z"/><path d="m2532.1 768.57 0.1992 47.135 132.02 10.82v-37.631z"/></g><g transform="translate(-28.972 -86.226)" fill="url(#linearGradient41)" stroke="#000" stroke-linecap="round" stroke-width="3.571"><path d="m898.85 592.09v32.867l134.85-3.1914 18.1-28.346z"/><path d="m1033.7 621.76-134.85 3.1914v34.746l114.87-6.6504z"/><path d="m1013.7 653.05-114.87 6.6504v35.543l93.477-8.6836z"/></g><g transform="translate(-28.972 -86.226)" fill="url(#linearGradient45)" stroke="#000" stroke-linecap="round" stroke-width="3.571"><path d="m1293.7 664.34-15.311 0.25977 1.25 66.09 31.621-0.53516z"/><path d="m1314.9 663.98-21.15 0.35742 17.56 65.814 43.68-0.73632z"/><path d="m1334.5 663.65-19.609 0.33203 40.09 65.436 40.51-0.68555z"/><path d="m1348.9 663.4-14.43 0.24414 60.99 65.082 29.801-0.50391z"/></g><g transform="translate(7.6309 8.7363)" fill="url(#linearGradient95)" stroke="#000" stroke-linecap="round" stroke-width="3.571"><path d="m1151 651.15-47.029 3.7383-106.23 153.87 57.66-4.582z"/><path d="m1179.9 648.85-28.9 2.2988-95.6 153.03 59.721-4.748z"/><path d="m1210.3 646.44-30.391 2.416-64.779 150.58 62.77-4.9902z"/><path d="m1243.1 643.83-32.808 2.6074-32.4 148 65.209-5.1816z"/></g><g transform="translate(-28.972 -86.226)" fill="url(#linearGradient98)" stroke="#000" stroke-linecap="round" stroke-width="3.571"><path d="m851.61 436.99 240.37 93.5 6.9395-10.879-172.73-80.342z"/><path d="m926.19 439.27 172.73 80.342 8.5605-13.408-114.31-64.885z"/><path d="m993.17 401.8v39.516l114.31 64.885 10.391-16.273z"/><path d="m993.17 358.41v43.393l124.71 88.127 10.039-15.719z"/><path d="m993.17 319.71v38.693l134.74 115.8 7.9395-12.438z"/><path d="m993.17 287.67v32.043l142.68 142.06 5.9609-9.3398z"/><path d="m993.17 287.67 148.64 164.76 14.42-22.58-93.961-134.09z"/><path d="m1062.3 295.76 93.961 134.09 16.16-25.311-54.131-102.21z"/><path d="m1118.3 302.32 54.131 102.21 23.35-36.561-20.5-58.98z"/><path d="m1175.2 309 20.5 58.98 33.609-52.643z"/></g><path d="m815.14 0v358.03l156.56 4.7871v-152.95l215.92 25.291-376.85 590.22v180.74l593.06-72.002v-299.76l-160.61 2.7148v153.98l-222.72 17.703 384.25-556.57v-161.95zm1918.1 91.611-378.08 29.674v120.85l30.959-1.8867v534.72l-30.959-2.5391v133.49l378.08 49.586v-326.86h-107.2v165.98l-117.05-9.5938-0.9395-225.59 127.26 2.6094-0.5625-134.04-127.24 0.5293-0.8184-195.65 119.35-7.2793v161.74l107.2-3.3945zm-2730.7 8.8008-2.5117 135.37 66.527 4.6074v566.88l-59.922 9.3691v137.87l262.47-44.635v-124.17l-66.602 9.8594v-218.05l103.46 1.9219c24.524 0.45509 45.177 18.152 49.383 42.316l46.754 268.63 173.19-33.922-3.8027-115.51-60.326 8.9297-26.643-171.2c-5.3378-34.295-28.822-61.711-59.678-73.66 33.005-12.661 60.42-37.566 75.668-70.398 26.856-57.828 26.856-124.56 0-182.39-30.323-65.293-92.777-109.84-164.38-117.26zm2342.3 21.688-181.76 14.264-2.9785 117.67 33.074-2.0176v388.88l-109.56-498.3-208.66 16.379v112.45l35.119-2.1406v466.65l-35.119-2.877v109.86l184.53 24.203v-118.94l-30.029-2.4609-1.1133-380.37 111.65 512.32 171.66 22.516-1.7949-655.3 32.857-2.0039zm-685.86 42.908c-39.017-0.0876-77.706 9.668-109.88 30.105-34.005 21.601-59.944 54.585-79.113 89.877-16.998 31.295-28.755 64.649-35.529 98.902-7.2967 36.893-8.7836 74.597-8.3633 111.99 0.5591 49.762 4.5064 99.819 19.01 148.26 13.952 46.604 37.615 91.573 72.059 126.32 23.799 24.009 52.726 43.075 85.783 54.143 38.594 12.921 82.752 15.108 119.64-0.18554 48.66-20.171 81.462-69.327 102.01-118.81 26.413-63.602 32.592-128.95 32.131-194.24-0.374-52.954-5.1176-106.41-17.182-157.99-7.4618-31.901-17.757-63.21-33.258-93.348-14.51-28.21-33.699-55.879-60.779-73.004-25.323-16.013-56.264-21.952-86.537-22.02zm-1456.5 84.797 108.88 7.5371c22.773 1.5768 43.895 12.421 58.449 30.008 10.678 12.902 16.386 29.191 16.1 45.936l-0.56445 32.951c-0.36954 21.61-8.2858 42.405-22.381 58.789-14.416 16.757-35.405 26.395-57.51 26.406l-102.97 0.0527zm1450.7 54.121c6.9835 0.30264 13.546 1.7514 19.297 4.4199 12.779 5.9293 23.512 19.101 31.986 33.756 22.551 38.999 28.089 83.974 29.471 128.67 1.2532 40.547-0.8753 79.909-8.871 121.07-6.0878 31.342-15.572 62.198-38.127 79.877-17.705 13.877-45.04 20.402-65.125 13.996-19.71-6.2868-35.895-25.842-46.863-47.152-12.115-23.539-17.831-48.366-21.4-74.17-2.6758-19.344-4.1188-39.022-4.7832-58.787-1.3461-40.047 0.5372-79.781 11.492-118.2 7.393-25.929 18.723-50.382 39.539-66.012 12.974-9.7415 30.26-16.388 46.279-17.391 2.4038-0.15042 4.7774-0.17705 7.1054-0.0762zm-775.83 194.09-350.68 15.775-1.5098 130.49 352.19-28.344z" stroke-linecap="round"/><path d="m822.64 8.7363v342.02l141.56 4.3281v-153.64l236.18 27.666-382.12 598.47v170.08l578.06-70.18v-285.49l-145.61 2.4609v153.54l-245.36 19.502 391.89-567.64v-153.17zm1903.1 90.986-363.08 28.496v105.94l30.959-1.8887v550.83l-30.959-2.5391v118.77l363.08 47.617v-310.81h-92.201v166.62l-132.02-10.82-1-240.16 127.26 2.6094-0.5-118.85-127.24 0.5293-0.8789-210.24 134.38-8.1973v161.98l92.201-2.9199zm-2715.9 8.9902-2.2285 120.08 66.396 4.5996v580.3l-59.922 9.3691v122.56l247.47-42.084v-109.14l-66.602 9.8594v-234.38l111.1 2.0625c28.067 0.52083 51.82 20.876 56.633 48.531l45.441 261.08 159.41-31.223-3.3164-100.73-59.373 8.7891-27.789-178.55c-6.5855-42.311-42.851-73.622-85.67-73.969 44.653-5.4695 83.321-33.601 102.27-74.402 25.927-55.829 25.927-120.25 0-176.08-29.215-62.908-89.364-105.81-158.36-112.96zm2327.3 21.51-166.79 13.09-2.5996 102.74 32.869-2.0059v465.89l-122.98-559.35-195.24 15.324v97.549l35.119-2.1426v482.77l-35.119-2.877v95.141l169.53 22.234v-103.48l-30.01-2.459-1.3399-457.87 125.56 576.16 157.93 20.715-1.791-653.81 33-2.0137zm-678.23 42.285c-37.753-0.0848-75.056 9.3804-105.84 28.936-32.538 20.669-57.795 52.611-76.543 87.127-16.624 30.605-28.13 63.235-34.764 96.777-7.1453 36.128-8.638 73.314-8.2207 110.45 0.5553 49.421 4.4904 98.756 18.693 146.2 13.663 45.639 36.829 89.525 70.201 123.19 23.058 23.262 50.99 41.646 82.838 52.309 37.187 12.45 79.714 14.375 114.39 0 45.74-18.961 77.825-66.281 97.959-114.76 25.874-62.304 32.014-126.53 31.557-191.31-0.3711-52.541-5.0829-105.45-16.984-156.33-7.3611-31.471-17.472-62.167-32.625-91.627-14.185-27.579-32.788-54.076-58.117-70.094-23.685-14.978-53.252-20.794-82.547-20.859zm-1463.9 69.258 116.9 8.0938c24.819 1.7184 47.847 13.542 63.709 32.709 11.817 14.28 18.139 32.313 17.822 50.846l-0.56445 32.951c-0.39945 23.359-8.9594 45.843-24.195 63.553-15.836 18.408-38.909 29.001-63.191 29.014l-110.48 0.0566zm1458.6 54.666c7.8204 0.33749 15.346 1.9658 22.125 5.1113 15.082 6.9978 26.474 21.5 35.322 36.803 23.532 40.694 29.079 87.041 30.475 132.19 1.2659 40.96-0.8849 80.936-9.0039 122.74-6.1835 31.835-15.829 64.727-40.863 84.35-19.665 15.414-48.827 22.64-72.031 15.238-22.758-7.2589-39.787-28.587-51.252-50.863-12.658-24.594-18.534-50.344-22.162-76.576-2.7202-19.665-4.1786-39.6-4.8496-59.562-1.3595-40.447 0.5092-80.998 11.775-120.51 7.6035-26.668 19.488-52.863 42.248-69.953 14.192-10.656 32.61-17.771 50.314-18.879 2.6556-0.16618 5.2955-0.19648 7.9024-0.084zm-783.65 209.43-335.76 15.104-1.334 115.18 337.09-27.129z" fill="#cb131f"/><path d="m2732.6 556.29-5.2109 0.37305h-7.5508v51.701h7.5508v-44.471l16.92 44.596h3.9707l16.91-44.596v44.471h7.5585v-51.701h-7.5585l-5.2012-0.37305-13.699 36.113zm-58.121 0.0449v7.5586h17.01v45.354h7.5605v-45.354h17.01v-7.5586z"/></svg>
