<?xml version="1.0" encoding="UTF-8"?>
<!-- Created by ERK -->
<svg width="471.71" height="82.558" version="1.1" xml:space="preserve" xmlns="http://www.w3.org/2000/svg"><path d="m7.3001 66.658 0.00125-39.516c0.62-0.62875 1.4262-0.675 2.2288-0.67625a6033.8 6033.8 0 0 1 32.956 5e-3 4.625 4.625 0 0 1 1.375 0.185c1.5312 0.855 0.29875 1.5938-0.21125 2.1475-2.7575 2.9925-4.7738 6.3838-5.8938 10.304-2.6938 9.43-0.89125 17.891 5.4575 25.374 0.38625 0.455 0.84125 0.85375 1.1362 1.3862 0.3175 0.57375 0.245 1.0112-0.43 1.2475-0.775 0.255-1.575 0.23-2.3688 0.23125-10.412 0.0075-20.824 0.01-31.235-0.0038-1.0462-0.0012-2.1487 0.14625-3.0162-0.68375" fill="#2b2321"/><path d="m111.64 27.143v39.511c-0.56 0.57375-1.2862 0.66625-2.0262 0.66875-8.7762 0.02625-17.554 0.06125-26.33-0.0175a3.75 3.75 0 0 1-0.97875-0.155c-1.2862-0.52375-0.605-1.2575-0.1075-1.8275 1.0438-1.195 2.0925-2.3788 2.9812-3.7 2.0625-3.065 3.3225-6.4388 4.0012-10.058 0.19125-1.0238 0.19375-2.12 0.87375-3.0062 0.51-0.36625 1.1125-0.3725 1.7025-0.4 0.85-0.04125 1.375-0.3725 1.3488-1.315-0.0225-0.83875-0.5025-1.145-1.2638-1.1962-0.58875-0.03875-1.1912-0.03125-1.7238-0.36-0.70625-0.7225-0.69375-1.6988-0.85125-2.5875-0.92875-5.2762-3.1112-9.9188-6.75-13.882-0.4975-0.54-1.7475-1.2412-0.26625-2.1438 0.78125-0.24375 1.5838-0.2175 2.3812-0.21875 7.9938-0.0075 15.986-0.01125 23.98 0.0038 1.0488 0.0025 2.1575-0.1525 3.0288 0.68375" fill="#2b2321"/><path d="m111.64 27.143-29.892-0.035c-0.61125 0.29875-1.0225-0.1225-1.4162-0.4475-3.6162-2.9862-7.7175-4.935-12.31-5.895-0.455-0.095-1.9112 0.05625-0.76375-1.215 2.84-0.55875 5.71-0.17625 8.5638-0.2525 2.775-0.075 2.8325-0.07875 2.8425-2.7662 0.0062-1.665-0.01875-3.3312 0.0025-4.9962 0.01625-1.2312-0.4575-1.835-1.7562-1.8338-6.795 0.00875-13.59-0.0025-20.385 0.0075-1.0912 0.00125-1.7875 0.39-1.8775 1.57-0.09625 1.265-0.83375 1.9025-2.0625 2.0162-0.9425 0.0875-1.4325 0.61125-1.5188 1.5388-0.11625 1.2425-0.795 1.905-2.0375 2.06-0.76375 0.095-1.4725 0.34375-1.4062 1.3325 0.07125 1.0588 0.91875 1.015 1.6288 1.0338 2.2638 0.06 4.53 0.0087 6.795 0.02875 0.92875 0.0075 1.8688-0.0825 2.7725 0.2275 1.2975 1.0888-0.1175 1.1125-0.585 1.2625-1.5712 0.50125-3.2075 0.76375-4.755 1.3862-2.5362 1.0188-4.8962 2.3038-7.01 4.055-0.5675 0.47125-1.12 1.1962-2.0625 0.885l-37.102 0.03625-0.06875-3.6025c-0.78-1.2275-0.7625-2.47-0.07625-3.7262 1.0012-0.725 2.165-0.53375 3.2775-0.53625 8.6425-0.01875 17.285-0.04375 25.926 0.01875 1.785 0.01375 2.8-0.5075 2.8362-2.3825 0.0575-0.21875 0.15625-0.42375 0.28375-0.61 0.1875-0.18125 0.41625-0.39 0.6675-0.37 2.2012 0.17625 2.7512-1.1725 2.8075-2.9938a1.0875 1.0875 0 0 1 0.38375-0.46c0.29-0.15875 0.61-0.2825 0.9325-0.25625 1.635 0.13625 2.2312-0.69 2.1325-2.2162-0.0175-0.25875 0.08875-0.51125 0.19125-0.755q0.14625-0.275 0.4175-0.425c2.3612 0.18125 3.01-1.435 3.4412-3.28l3.5712-0.0825c1.2275-0.7775 2.455-0.78375 3.6812 5e-3l10.72-0.00625c1.2288-0.7775 2.4575-0.78125 3.685 0.00375l17.921-0.00125a35 35 0 0 1 14.488 0c0.53 0.0075 1.07 0.08125 1.5888 0.01125 1.54-0.21125 2.24 0.3525 1.9762 1.9525-0.215 1.305 0.36875 1.87 1.6638 1.6575 1.6212-0.265 2.06 0.4675 1.9575 1.9938-0.115 1.7162-9e-3 3.4462 0 5.17q1.41 3.645 0 7.2875z" fill="#b7aba9"/><path d="m66.844 19.96c5.6125 1.0375 10.602 3.3725 14.9 7.1488 3.7088 3.9725 6.585 8.4162 7.715 13.821 0.28375 1.3588 0.43375 2.7462 0.64625 4.12 0.77875 1.2338 0.77375 2.4688 0.0037 3.7038-0.65375 6.68-3.0788 12.541-7.9575 17.276-0.18 0.17375-0.27375 0.43625-0.4075 0.65875-1.245 2.09-3.35 3.1725-5.3138 4.3588-2.8838 1.7438-6.1075 2.52-9.45 2.8162-1.4175 0.665-2.7125 0.7125-4.2012-0.1075-1.0425-0.57375-2.3788 0.44125-3.6138 0.11125-4.8925-0.265-9.1212-2.205-12.952-5.1388-0.735-0.5625-1.5625-1.0488-1.8212-2.04-3.4475-3.6738-6.27-7.7612-7.4538-12.714-2.3462-9.8112-0.23-18.534 6.7588-25.952 0.26375-0.27875 0.47125-0.61 0.70625-0.91625 4.3062-3.7538 9.3-6.0738 14.892-7.1488 2.5162-1.1012 5.0325-1.105 7.5488 0.0025" fill="#fdfdf9"/><path d="m44.391 66.688c4.2712 3.7375 9.2375 6.0462 14.775 7.1788-15.522 0.01125-31.042 0.0062-46.564 0.0675-1.43 5e-3 -1.9012-0.445-1.7612-1.8175 0.09375-0.91625 0.21-2.0475-1.2988-1.7962-2.0788 0.34625-2.5588-0.6775-2.2925-2.4675 0.05875-0.3925 0.035-0.79625 0.04875-1.1962z" fill="#b8aaa9"/><path d="m28.906 9.0659c0.5975 0.0075 1.2025-0.04375 1.79 0.035 1.39 0.18375 1.9925-0.35875 1.7625-1.76-0.24875-1.5112 0.41-1.92 1.8838-1.8812 4.1775 0.11125 8.3588 0.07125 12.54 0.09125 0.8125 1.1862 0.7625 2.3688-0.01875 3.5462l0.0063-0.00625c-0.205 0.1675-0.41125 0.39125-0.67375 0.3925-1.6975 0.00875-2.5325 0.84125-2.54 2.54-0.0012 0.2625-0.22625 0.46875-0.3925 0.67375l5e-3 -5e-3c-0.14875 0.1225-0.30375 0.31625-0.475 0.3175-1.8725 0.01375-2.7988 0.94-2.8138 2.8125-0.0012 0.1725-0.19375 0.32625-0.3175 0.47625l0.0062-0.0062c-0.6475 0.58625-1.4525 0.63-2.2562 0.63125a4820 4820 0 0 1-28.201-0.0075 4.5 4.5 0 0 1-1.3825-0.19 1.45 1.45 0 0 1-0.63875-0.455c0.0225-0.46375 0.1225-0.93875 0.055-1.3888-0.25875-1.7075 0.3225-2.5062 2.1425-2.205 0.9025 0.14875 1.6738-0.09875 1.4525-1.2388-0.43875-2.2612 0.79125-2.5812 2.5838-2.3538 0.32625 0.04125 0.66375-0.01 0.995-0.01875a35 35 0 0 1 14.488 0" fill="#b6aba9"/><path d="m66.981 73.863c1.5112-0.41875 3.025-0.83125 4.5338-1.2575 3.9138-1.1012 7.0988-3.4638 10.23-5.9175l29.892-0.03375c0.0125 0.59875-0.0337 1.2062 0.0525 1.795 0.22375 1.5162-0.4075 2.1-1.8862 1.8562-1.4512-0.23875-1.9 0.4575-1.73 1.8038 0.14125 1.1275-0.0475 1.8362-1.5375 1.8288-13.185-0.06875-26.37-0.06-39.555-0.075" fill="#b8aaaa"/><path d="m104.52 5.4646h-14.488c0.1175-3.5738 0.1175-3.5738 3.77-3.5738 2.7788 0 5.565 0.12625 8.3325-0.0425 1.9488-0.1175 2.6625 0.53875 2.355 2.4288-0.0625 0.38375 0.0162 0.79125 0.03 1.1875" fill="#c4c3c3"/><path d="m28.906 9.0659h-14.488c0.11625-3.5612 0.11625-3.5612 3.6838-3.58q3.5662-1.4375 7.1325 0.0025c3.5575 0.01125 3.5575 0.01125 3.6712 3.5775" fill="#c4c3c3"/><path d="m7.2789 19.88-0.0475 3.6588c-0.53-0.01375-1.0688-0.095-1.5888-0.0275-1.5412 0.2-2.25-0.365-1.9875-1.97 0.2175-1.3288-0.41125-1.8325-1.685-1.6438-1.4262 0.21375-1.9612-0.26875-1.97-1.8212-0.01-1.6162 0.64875-1.8775 2.0188-1.8062 1.7188 0.09 3.4475 0.0087 5.1712 0.0012l0.15 0.04125c0.70875 1.2025 0.71625 2.3912-0.06125 3.5675" fill="#c4c4c3"/><path d="m111.71 23.538v-7.2875c1.86 0.01375 3.7225 0.11 5.5762 0.01625 1.4112-0.0725 1.665 0.5775 1.6238 1.7862-0.0362 1.0838-5e-3 2.0712-1.5262 1.84-1.6125-0.24625-2.3812 0.335-2.105 2.0412 0.1975 1.2275-0.37375 1.6888-1.5788 1.575-0.65625-0.0625-1.3262 0.015-1.99 0.02875" fill="#c3c3c3"/><path d="m25.235 5.4871-7.1312-0.0025c-0.125-3.5938-0.125-3.5938 3.355-3.5925h0.2c3.6588 0 3.6588 0 3.5762 3.595" fill="#1a1316"/><path d="m57.705 5.4684-3.6812-5e-3c0.015-0.45875 0.07875-0.92375 0.035-1.3762-0.14-1.425 0.0375-2.2738 1.9088-2.2688 1.9262 0.00625 1.7375 1.0662 1.7062 2.2725-0.01125 0.45875 0.02 0.9175 0.03125 1.3775" fill="#c4c3c3"/><path d="m72.111 5.4671-3.685-0.0025c0.01375-0.46 0.0775-0.92375 0.03375-1.3775-0.13875-1.4238 0.035-2.2738 1.9088-2.2675 1.9262 0.00625 1.7412 1.0612 1.71 2.2688-0.0125 0.45875 0.02 0.91875 0.0325 1.3788" fill="#c4c3c3"/><path d="m46.863 9.0959 0.01875-3.5462 3.5712-0.00375c0.04 3.5412 0.04 3.5412-3.59 3.55" fill="#a09795"/><path d="m90.11 48.755-0.0037-3.7038c0.4575 0.0175 0.915 0.0475 1.3725 0.05 2.1125 0.01375 2.1962 0.29625 2.1988 2.9775 0 0.66-0.565 0.60625-1.0175 0.61875q-1.275 0.03125-2.55 0.0575" fill="#c6c2bf"/><path d="m66.844 19.96-7.5488-0.0025c-3.6575-0.02125-7.3175-0.1375-10.97-0.01875-1.6062 0.0525-1.4825-0.7825-1.4688-1.8275 0.0125-1.0162-0.17875-2.105 1.4525-1.8212 1.6425 0.28375 2.55-0.21375 2.1625-2.0812-0.25375-1.2275 0.2825-1.7262 1.5112-1.5162 1.5488 0.26625 2.4275-0.17125 2.0912-1.9525-0.2375-1.2575 0.24125-1.6925 1.59-1.6788 7.3188 0.0675 14.64 0.0575 21.959 0.0075 1.25-0.00875 1.7438 0.265 1.6812 1.63a97.5 97.5 0 0 0-0.0125 7.7838c0.04125 1.1862-0.3825 1.4475-1.4762 1.4375-3.6562-0.0375-7.3138 0.01875-10.971 0.04" fill="#0e090c"/><path d="m93.774 9.0921c3.0662-0.00125 6.1338 0.0325 9.2-0.02 1.0288-0.01875 1.5562 0.1175 1.5312 1.3662-0.08 3.9325-0.0538 7.8662-0.0113 11.799 0.01 0.9275-0.2325 1.2838-1.22 1.2775q-9.5987-0.05625-19.199 0c-0.99 5e-3 -1.2288-0.34625-1.2188-1.2712 0.04125-3.9325 0.06625-7.8675-0.0125-11.799-0.025-1.2438 0.49625-1.3888 1.53-1.37 3.1325 0.05375 6.2662 0.01875 9.4 0.0175" fill="#0e090d"/><path d="m7.2789 19.88 0.06125-3.5675 32.327-0.02c-0.0063 3.6025-0.0063 3.6038-3.5438 3.6025z" fill="#a19795"/><path d="m39.663 16.297c0.0075-3.5975 0.0075-3.5975 3.6062-3.6062-0.0075 3.5988-0.0075 3.5988-3.6062 3.6062" fill="#a19795"/><path d="m43.263 12.696c5e-3 -3.9225-0.30375-3.5975 3.6062-3.6062-0.0063 3.5988-0.0063 3.5988-3.6062 3.6062" fill="#a29795"/><path d="m52.913 68.193c-5.0875-2.8062-9.2212-6.5725-11.395-12.068-3.53-8.9288-2.445-17.344 3.9138-24.595 6.6475-7.58 15.216-9.92 24.78-6.895 9.4288 2.98 14.914 9.8262 16.142 19.608 2.0512 16.328-13.255 29.5-29.161 25.336-0.63625-0.1675-1.2862-0.28375-1.93-0.42375-0.90375-0.025-1.7938-0.08625-2.35-0.9625" fill="#1b1318"/><path d="m52.913 68.193 2.35 0.9625c-2.0275 0.64375-2.38 0.5-2.35-0.9625" fill="#fefefe"/><path d="m89.879 19.896c-3.405-0.0012-3.405-0.0012-3.405-3.3975 0-3.8025 0-3.8025 3.8-3.8038 3.4012-0.0025 3.4012-0.0025 3.4012 3.4025-0.0012 3.8-0.0012 3.8-3.7962 3.7988" fill="#fefdfb"/><path d="m63.556 63.102c-9.3125 0.2825-16.692-6.9538-16.715-16.239-0.02-8.9212 7.2912-16.304 16.371-16.192 9.0275 0.11125 15.982 7.1375 16.082 16.262 0.09625 8.7025-7.3062 16.39-15.739 16.169" fill="#3c3041"/><path d="m63.208 59.5c-7.2338 0.42625-12.695-6.4938-12.824-12.311-0.16375-7.4512 6.72-13.069 12.434-12.934 7.2488 0.1725 12.654 5.545 12.912 12.682 0.215 5.96-5.725 12.986-12.522 12.562" fill="#1a1418"/><path d="m65.3 7.7596h-2.8162c-0.34375 0-0.625-0.28125-0.625-0.625v-2.7062c0-0.34375 0.28125-0.625 0.625-0.625h2.8162c0.34375 0 0.625 0.28125 0.625 0.625v2.7062c0 0.34375-0.28125 0.625-0.625 0.625" fill="#fdfbfc"/><path d="m28.373 29.592h-15.198c-0.6875 0-1.25-0.5625-1.25-1.25v-4.845c0-0.6875 0.5625-1.25 1.25-1.25h15.198c0.6875 0 1.25 0.5625 1.25 1.25v4.845c0 0.6875-0.5625 1.25-1.25 1.25" fill="#e5e2e1"/><path d="m18.758 25.716h-3.4688v-3.4688h3.4688zm7.545 0h-3.4688v-3.4688h3.4688z" fill="#d4102e"/><path d="m452.85 60.156h-324.01l3.7512 3.6388h324.01z" fill="#d50f2a"/><path d="m457.76 65.477h-324.01l3.7512 3.6382 324.01 5e-4z" fill="#e5e2e1"/><path d="m440.1 50.744v7.9238h3.9883v-7.9238z" fill="#d50f2a" stroke-width="1.25"/><path d="m440.1 50.717v3.9883h7.9238v-3.9883z" fill="#d50f2a" stroke-width="1.25"/><path d="m449.34 50.76v3.9062h3.9902v-3.9062z" fill="#d50f2a" stroke-width="1.25"/><path d="m454.81 50.76v3.9062h3.9883v-3.9062z" fill="#d50f2a" stroke-width="1.25"/><path d="m459.84 50.717v3.9883h7.9238v-3.9883z" fill="#d50f2a" stroke-width="1.25"/><path d="m463.9 50.744v7.9238h3.9883v-7.9238z" fill="#d50f2a" stroke-width="1.25"/><path d="m463.9 60.037v3.9062h3.9883v-3.9062z" fill="#d50f2a" stroke-width="1.25"/><path d="m463.9 65.508v3.9062h3.9883v-3.9062z" fill="#d50f2a" stroke-width="1.25"/><path d="m467.89 70.932v11.626h-3.9888v-11.626z" fill="#d50f2a"/><path d="m460.08 74.75v3.9902h11.627v-3.9902z" fill="#d50f2a" stroke-width="1.25"/><path d="m454.81 74.793v3.9062h3.9883v-3.9062z" fill="#d50f2a" stroke-width="1.25"/><path d="m449.34 74.793v3.9062h3.9902v-3.9062z" fill="#d50f2a" stroke-width="1.25"/><path d="m440.1 74.75v3.9902h7.9238v-3.9902z" fill="#d50f2a" stroke-width="1.25"/><path d="m440.1 70.768v7.9219h3.9883v-7.9219z" fill="#d50f2a" stroke-width="1.25"/><path d="m440.1 65.477v3.6387h3.9883v-3.6387z" fill="#d50f2a" stroke-width="1.25"/><path d="m444.09 63.795h-3.9888v-3.6388h3.9888z" fill="#e5e2e1"/><path d="m128.44 1.498v13.027h3.2598v-11.4h6.5156v-1.627zm13.844 4.8867v1.627h6.5195v1.6289h-6.5195v1.6309h-1.627v1.627h1.627v1.627h9.7734v-6.5137h-1.627v-1.627zm15.479 0v1.627h-1.6328v4.8867h-1.627v1.627h3.2598v-1.625h1.627v-4.8887h3.2598v6.5137h3.2539v-8.1406zm12.215 0v1.627h-1.627v4.8867h1.627v1.6289l8.1465-2e-3v-1.627h-6.5137v-1.627h8.1406v-3.2598h-1.627v-1.627zm12.221 0v13.029h3.2578v-4.8887h6.5156v-1.625h1.627v-4.8887h-1.627v-1.627zm15.473 0v1.627h-1.627v4.8867h1.6289v1.6289l8.1465-2e-3v-1.627h-6.5156v-1.627h8.1426v-3.2598h-1.627v-1.627zm13.848 0v1.627h-1.627v1.6289h1.627v1.6309h-1.627v3.2559l3.2578-2e-3v-3.2539h4.8887v3.2539h3.2559v-8.1406zm-39.91 1.627h4.8887v1.6289h-4.8887zm13.848 0h4.8887v4.8867h-4.8887zm13.848 0h4.8887v1.6289h-4.8887zm13.846 0h4.8887v1.6289h-4.8887zm-69.234 3.2598h4.8887v1.627h-4.8887z" fill="#a19795" stroke-width=".21"/><path d="m136.46 52.812v-4.005h-4.016v-4.005h-4.005v-16.042h4.005v-4.005h4.016v-4.005h16.03v4.005h4.006v4.005h-8.01v-4.005h-8.021v4.005h-4.005v16.042h4.005v4.005h8.02v-4.005h8.01v4.005h-4.004v4.005zm26.054 0v-20.036h8.02v8.01h4.006v-4.005h4.005v-4.005h8.02v4.005h-4.004v4.005h-4.016v4.016h4.016v4.005h4.005v4.005h-8.021v-4.005h-4.005v-4.005h-4.005v8.01zm50.106-4.005v-12.026h-12.026v12.026zm-20.047 16.031v-32.062h24.052v4.005h4.005v12.026h-4.005v4.005h-16.03v12.026zm34.075-12.026v-20.036h8.021v10.024h4.005v-4.016h4.005v-4.005h4.016v-2.004h8.01v20.036h-8.01v-10.011h-4.016v4.005h-4.005v4.005h-4.005v2.002zm34.076 0v-20.036h8.02v8.01h12.026v-8.01h8.01v20.036h-8.01v-8.01h-12.026v8.01z" fill="#e5e2e1" stroke-width=".51678"/><path d="m294.8 52.812v-20.036h8.022v16.031h4.005v-16.03h8.02v16.03h4.005v-16.03h8.021v20.035zm58.128-4.005v-12.026h-12.026v12.026zm-16.042 4.005v-4.005h-4.005v-12.026h4.005v-4.005h20.047v4.005h4.005v12.026h-4.005v4.005zm38.091 0v-16.03h-8.021v-4.007h24.052v4.005h-8.021v16.031zm38.069-4.005v-4.005h-8.01v4.005zm-16.03 4.005v-20.036h8.02v8.01h12.026v4.016h4.005v4.005h-4.005v4.005zm28.056 0v-20.036h8.021v20.036z" fill="#fff" stroke-width=".51678"/></svg>
