<!-- Created by ERK --><svg xmlns="http://www.w3.org/2000/svg" width="329.983" height="303.046" viewBox="0 0 520.866 478.346"><defs><clipPath id="i" clipPathUnits="userSpaceOnUse"/><clipPath id="h" clipPathUnits="userSpaceOnUse"/><clipPath id="g" clipPathUnits="userSpaceOnUse"/><clipPath id="f" clipPathUnits="userSpaceOnUse"/><clipPath id="e" clipPathUnits="userSpaceOnUse"/><clipPath id="d" clipPathUnits="userSpaceOnUse"/><clipPath id="c" clipPathUnits="userSpaceOnUse"/><clipPath id="b" clipPathUnits="userSpaceOnUse"/><clipPath id="a" clipPathUnits="userSpaceOnUse"/></defs><g transform="translate(0 -574.016)"><path d="m118.03 637.947 79.822-40.54 4.4 60.966-58.766 15.713z" style="fill:#fff;fill-rule:evenodd;stroke:#fff;stroke-width:1.75983px;stroke-linecap:butt;stroke-linejoin:miter;stroke-opacity:1"/><path d="M212.307 644.546c24.107-26.411 52.45 11.201 70.394-7.857 10.046-12.355 24.862-70.029 72.593-44.938 30.035 27.462-29.687 54.596 1.57 69.45" style="fill:none;fill-rule:evenodd;stroke:#000;stroke-width:1.75983px;stroke-linecap:butt;stroke-linejoin:miter;stroke-opacity:1"/><path d="m231.791 703.626-3.142-22.312 42.424-13.827-11.627 42.424 29.225-4.714 27.026 22.626 16.656-45.252 14.77 4.085-15.713 64.422-55.937-16.34 10.056 32.996 39.91 11.942 2.514 68.821 30.169 14.77h-54.366l-14.142-61.594-42.424-12.884-53.738 26.712 59.394 47.452h-79.82l25.769-16.341-47.767-32.054 87.363-58.766-8.8-22.94-51.223-20.427-2.828-43.367 10.37-4.714 15.399 30.797 14.141 11.313z" style="fill:#000;fill-rule:evenodd;stroke:none;stroke-width:1px;stroke-linecap:butt;stroke-linejoin:miter;stroke-opacity:1"/><path d="M162.655 614.377c11.945 8.69 19.059-3.28 33.625-2.514m-47.766 8.485c23.476 22.655 30.136 12.955 36.773 5.665 3.103-3.41 9.096-2.998 13.507-1.58" style="fill:none;fill-rule:evenodd;stroke:#000;stroke-width:1.75983px;stroke-linecap:butt;stroke-linejoin:miter;stroke-opacity:1"/><path d="M124.63 631.661c9.155 4.623 21.88 2.185 26.277 6.693 23.342 23.93 25.22-8.46 47.887-.093" style="fill:none;fill-rule:evenodd;stroke:#000;stroke-width:1.75983px;stroke-linecap:butt;stroke-linejoin:miter;stroke-opacity:1"/><path d="M128.087 648.631c25.794 20.414 48.538-4.337 73.536 6.6" style="fill:none;fill-rule:evenodd;stroke:#000;stroke-width:1.75983px;stroke-linecap:butt;stroke-linejoin:miter;stroke-opacity:1"/><path d="m123.373 637.947 71.022-33.94 4.4 52.48-51.538 13.2-1.729 17.244 60.494-24.158.943-81.392-96.476 52.794 33.625 51.853 3.457-16.656zm210.237 50.909c-30.905-16.171-8.927-51.224 8.477-21.676 1.106 1.878 1.98 3.492 4.407 4.078 1.515.269 5.114-1.827 6.257-2.312 45.23-19.195 25.466 43.588-19.141 19.91z" style="fill:#000;fill-rule:evenodd;stroke:#000;stroke-width:1.75983px;stroke-linecap:butt;stroke-linejoin:miter;stroke-opacity:1"/><circle cx="354.508" cy="686.499" r="2.043" style="fill:#fff;fill-opacity:1;stroke:none;stroke-opacity:1"/><circle cx="362.207" cy="683.199" r="2.043" style="fill:#fff;fill-opacity:1;stroke:none;stroke-opacity:1"/><circle cx="368.807" cy="678.8" r="2.043" style="fill:#fff;fill-opacity:1;stroke:none;stroke-opacity:1"/><path d="m102.209 968.014 43.405-.035c17.753 0 32.142-14.389 32.142-32.142 0-17.75-14.389-32.14-32.142-32.14l-11.27.053a1.625 1.625 0 0 1-1.625-1.624c0-.903.727-1.63 1.625-1.63l43.302.005.024-13.608h-43.336c-8.398 0-15.204 6.808-15.204 15.203 0 8.399 6.806 15.204 15.204 15.204l11.326.125c10.166 0 18.404 8.24 18.404 18.402 0 10.168-8.238 18.407-18.404 18.407h-43.434z" clip-path="url(#a)" style="fill:#0089cf;fill-opacity:1;fill-rule:nonzero;stroke:none;stroke-width:2.45421"/><path d="M102.226 951.03h43.434c8.399 0 15.204-6.805 15.204-15.203 0-8.393-6.805-15.201-15.204-15.201l-11.326-.126c-10.165 0-18.404-8.236-18.404-18.404 0-10.163 8.239-18.401 18.404-18.401l43.337-.02-.025-13.68-43.302-.014c-17.751 0-32.14 14.391-32.14 32.145 0 17.749 14.389 32.138 32.14 32.138l11.203.01a1.573 1.573 0 0 1 0 3.146l-43.338.015z" clip-path="url(#b)" style="fill:#0089cf;fill-opacity:1;fill-rule:nonzero;stroke:none;stroke-width:2.45421"/><path d="M211.396 954.32c-7.52 0-13.687-6.026-13.687-13.685v-43.508c0-7.378 6.168-13.477 13.687-13.477l46.33.013-.001-13.665-46.328-.01c-15.067 0-27.279 12.214-27.279 27.276v43.37c0 15.062 12.212 27.274 27.279 27.274l46.136.02-.014-13.628z" clip-path="url(#c)" style="fill:#0089cf;fill-opacity:1;fill-rule:nonzero;stroke:none;stroke-width:2.45421"/><path d="M201.03 897.264c0-5.743 4.618-10.401 10.366-10.401h46.33l-.001 13.643H217.81c-3.2.002-3.238 3.215-3.238 3.215h33.284l.01 13.599h-46.858z" clip-path="url(#d)" style="fill:#0089cf;fill-opacity:1;fill-rule:nonzero;stroke:none;stroke-width:2.45421"/><path d="M211.396 951.011c-5.733 0-10.379-4.648-10.379-10.376l-.01-20.068h46.859l-.01 13.64h-33.287c.04 3.21 3.24 3.215 3.24 3.215h39.723l-.014 13.572z" clip-path="url(#e)" style="fill:#0089cf;fill-opacity:1;fill-rule:nonzero;stroke:none;stroke-width:2.45421"/><path d="M290.189 954.283c-7.52 0-13.65-6.131-13.65-13.648v-43.371c0-7.515 6.093-13.614 13.613-13.614l44.855-.01.005-13.65-44.966-.002c-15.066 0-27.278 12.215-27.278 27.276v43.371c0 15.061 12.317 27.274 27.384 27.274l44.86.02-.005-64.222h-38.553v13.613h24.927v36.968z" clip-path="url(#f)" style="fill:#0089cf;fill-opacity:1;fill-rule:nonzero;stroke:none;stroke-width:2.45421"/><path d="M279.748 940.635c0 5.743 4.658 10.472 10.404 10.472l28.014.002v-30.572h-21.675v13.658h8.042l.032 3.215-8.003-.012a3.203 3.203 0 0 1-3.2-3.203l-.052-30.506s-.007-3.18 3.218-3.247h38.516l-.037-13.613-44.855.034c-5.746 0-10.404 4.658-10.404 10.401z" clip-path="url(#g)" style="fill:#0089cf;fill-opacity:1;fill-rule:nonzero;stroke:none;stroke-width:2.45421"/><path d="M377.16 886.637a4.44 4.44 0 0 1 8.39.01l21.76 64.533h-31.865l.035-15.176h10.658l-4.808-14.289-15.616 46.203h-16.092z" clip-path="url(#h)" style="fill:#0089cf;fill-opacity:1;fill-rule:nonzero;stroke:none;stroke-width:2.45421"/><path d="M411.711 954.287h-36.214v13.631h55.133l-28.677-85.114c-2.513-8.298-10.786-14.39-20.605-14.39-9.815 0-18.086 6.087-20.601 14.375l-28.945 85.13h14.436l28.078-82.757a7.6 7.6 0 0 1 7.007-4.665 7.59 7.59 0 0 1 6.997 4.64z" clip-path="url(#i)" style="fill:#0089cf;fill-opacity:1;fill-rule:nonzero;stroke:none;stroke-width:2.45421"/><g style="font-style:normal;font-weight:400;font-size:86.6665px;line-height:125%;font-family:sans-serif;letter-spacing:0;word-spacing:0;fill:#000;fill-opacity:1;stroke:none;stroke-width:1px;stroke-linecap:butt;stroke-linejoin:miter;stroke-opacity:1"><path d="M29.549 1020.375v2.253c.086 3.467-.26 7.02-.78 9.1-.607 2.08-1.993 3.12-3.987 3.12-2.946 0-4.073-1.82-4.42-7.193-.26-3.12-.346-8.407-.346-14.733 0-7.02.173-12.047.606-13.953.52-2.774 1.907-4.074 4.16-4.074 3.467 0 4.42 2.34 4.42 11.007v.866h14.56c0-7.713-.347-10.4-1.647-13.26-2.686-6.066-8.233-8.84-17.333-8.84-7.54 0-12.913 2.167-16.206 6.5-3.12 4.074-4.16 9.707-4.16 23.4 0 12.48.693 17.854 2.86 22.014 2.946 5.72 8.406 8.406 16.813 8.406 5.46 0 9.966-1.04 12.826-3.033 3.38-2.253 5.894-6.327 6.587-10.66.607-3.293.607-3.64.693-10.92z" style="font-style:normal;font-variant:normal;font-weight:900;font-stretch:condensed;font-family:&quot;Nimbus Sans Novus D OT&quot;;-inkscape-font-specification:&quot;Nimbus Sans Novus D OT Heavy Condensed&quot;"/></g><g style="font-style:normal;font-weight:400;font-size:86.6665px;line-height:125%;font-family:sans-serif;letter-spacing:0;word-spacing:0;fill:#000;fill-opacity:1;stroke:none;stroke-width:1px;stroke-linecap:butt;stroke-linejoin:miter;stroke-opacity:1"><path d="M100.512 1007.56v-21.233h-15.34v57.807h15.34v-23.92h8.84v23.92h15.253v-57.807h-15.253v21.234z" style="font-style:normal;font-variant:normal;font-weight:900;font-stretch:condensed;font-family:&quot;Nimbus Sans Novus D OT&quot;;-inkscape-font-specification:&quot;Nimbus Sans Novus D OT Heavy Condensed&quot;"/></g><g style="font-style:normal;font-weight:400;font-size:86.6665px;line-height:125%;font-family:sans-serif;letter-spacing:0;word-spacing:0;fill:#000;fill-opacity:1;stroke:none;stroke-width:1px;stroke-linecap:butt;stroke-linejoin:miter;stroke-opacity:1"><path d="m177.508 986.772-14.213 57.806h15.773l1.734-9.62h12.133l1.733 9.62h15.86l-13.953-57.806zm9.187 12.133 4.16 24.18h-8.147z" style="font-style:normal;font-variant:normal;font-weight:900;font-stretch:condensed;font-family:&quot;Nimbus Sans Novus D OT&quot;;-inkscape-font-specification:&quot;Nimbus Sans Novus D OT Heavy Condensed&quot;"/></g><g style="font-style:normal;font-weight:400;font-size:86.6665px;line-height:125%;font-family:sans-serif;letter-spacing:0;word-spacing:0;fill:#000;fill-opacity:1;stroke:none;stroke-width:1px;stroke-linecap:butt;stroke-linejoin:miter;stroke-opacity:1"><path d="M246.498 986.327v57.807h14.04V1011.2l10.14 32.933h16.38v-57.807h-14.213v31.807l-9.707-31.807z" style="font-style:normal;font-variant:normal;font-weight:900;font-stretch:condensed;font-family:&quot;Nimbus Sans Novus D OT&quot;;-inkscape-font-specification:&quot;Nimbus Sans Novus D OT Heavy Condensed&quot;"/></g><g style="font-style:normal;font-weight:400;font-size:86.6665px;line-height:125%;font-family:sans-serif;letter-spacing:0;word-spacing:0;fill:#000;fill-opacity:1;stroke:none;stroke-width:1px;stroke-linecap:butt;stroke-linejoin:miter;stroke-opacity:1"><path d="M326.494 986.772v57.806h14.04v-32.933l10.14 32.933h16.38v-57.806h-14.213v31.806l-9.707-31.806z" style="font-style:normal;font-variant:normal;font-weight:900;font-stretch:condensed;font-family:&quot;Nimbus Sans Novus D OT&quot;;-inkscape-font-specification:&quot;Nimbus Sans Novus D OT Heavy Condensed&quot;"/></g><g style="font-style:normal;font-weight:400;font-size:86.6665px;line-height:125%;font-family:sans-serif;letter-spacing:0;word-spacing:0;fill:#000;fill-opacity:1;stroke:none;stroke-width:1px;stroke-linecap:butt;stroke-linejoin:miter;stroke-opacity:1"><path d="M404.713 986.327v57.807h35.013V1032h-19.933v-11.614h17.853v-11.873h-17.853V998.46h19.067v-12.134z" style="font-style:normal;font-variant:normal;font-weight:900;font-stretch:condensed;font-family:&quot;Nimbus Sans Novus D OT&quot;;-inkscape-font-specification:&quot;Nimbus Sans Novus D OT Heavy Condensed&quot;"/></g><g style="font-style:normal;font-weight:400;font-size:86.6665px;line-height:125%;font-family:sans-serif;letter-spacing:0;word-spacing:0;fill:#000;fill-opacity:1;stroke:none;stroke-width:1px;stroke-linecap:butt;stroke-linejoin:miter;stroke-opacity:1"><path d="m478.487 987.66.174 57.807h33.626v-12.133h-18.546V987.66z" style="font-style:normal;font-variant:normal;font-weight:900;font-stretch:condensed;font-family:&quot;Nimbus Sans Novus D OT&quot;;-inkscape-font-specification:&quot;Nimbus Sans Novus D OT Heavy Condensed&quot;"/></g></g></svg>