<!-- Created by ERK --><svg xmlns="http://www.w3.org/2000/svg" xmlns:xlink="http://www.w3.org/1999/xlink" xml:space="preserve" width="3816.787" height="1165.208" viewBox="0 0 1009.858 308.295"><defs><linearGradient id="b"><stop offset="0" style="stop-color:#e50a05;stop-opacity:1"/><stop offset="1" style="stop-color:#0a0908;stop-opacity:1"/></linearGradient><linearGradient id="a"><stop offset="0" style="stop-color:#7e0907;stop-opacity:1"/><stop offset="1" style="stop-color:#fffffe;stop-opacity:1"/></linearGradient><linearGradient xlink:href="#a" id="c" x1="180.384" x2="259.901" y1="117.333" y2="151.862" gradientTransform="translate(2.787 1.465)" gradientUnits="userSpaceOnUse"/><radialGradient xlink:href="#b" id="d" cx="64.01" cy="157.693" r="44.5" fx="64.01" fy="157.693" gradientTransform="rotate(53.309 139.95 156.211)scale(1.52273 1.36504)" gradientUnits="userSpaceOnUse"/></defs><path d="M164.19 64.579 45.26 302.919h-42L151.756 10.67c5.924-11.66 22.577-11.672 28.518-.02L301.76 248.918h-42L169.568 64.6c-1.092-2.232-4.27-2.245-5.379-.021" style="display:inline;fill:url(#c);stroke:none;stroke-width:.944827;stroke-linecap:round;stroke-opacity:1"/><path d="M126.26 177.418a44.5 44.5 0 0 0-89 0 44.5 44.5 0 0 0 89 0" style="display:inline;fill:url(#d);stroke:none;stroke-width:.944827;stroke-linecap:round"/><g style="fill:#fff"><path d="M347.745 244.918h157.514l34.001-34H360.756l-23.997-23.997V5.918h-35v193.015c0 1.591.633 3.118 1.758 4.243l39.986 39.985a6 6 0 0 0 4.242 1.757m199.272-41.742 39.985 39.985a6 6 0 0 0 4.243 1.757H724.05l35.209-34H604.258l-23.998-23.997V5.918h-35v193.015c0 1.591.632 3.118 1.757 4.243" style="display:inline;fill:#fff;fill-opacity:1;stroke:none;stroke-width:.944827;stroke-linecap:round"/><path d="M837.88 124.918h96.29c3.11 0 6.099 1.208 8.336 3.368l39.666 38.305c4.885 4.718 4.885 12.547 0 17.264l-59.745 57.696a12 12 0 0 1-8.337 3.367H739.886l35.208-34h123.82c3.11 0 6.099-1.207 8.336-3.368l30.52-29.474a3 3 0 0 0 0-4.316l-46.434-44.842h-101.14l-47.295-45.672c-4.886-4.718-4.886-12.547 0-17.265l58.71-56.695a12 12 0 0 1 8.336-3.368h172.94l-30.152 34H825.123a12 12 0 0 0-8.336 3.368L787.3 71.76a3 3 0 0 0 0 4.317z" style="fill:#fff;fill-opacity:1;stroke:none;stroke-width:.944827;stroke-linecap:round"/><path d="M979.826 244.62v-15.538h-5.803v-2.079h13.963v2.079h-5.828v15.537z" aria-label="T" style="font-size:24.6094px;line-height:0;font-family:Arial;-inkscape-font-specification:Arial;letter-spacing:0;word-spacing:0;stroke-width:7.44095;stroke-linecap:square;stroke-miterlimit:60;paint-order:fill markers stroke;fill:#fff"/><path d="M991.047 244.62v-17.617h3.51l4.169 12.473q.577 1.742.84 2.608.301-.962.938-2.824l4.218-12.257h3.136v17.616h-2.247v-14.744l-5.119 14.744h-2.103l-5.095-14.996v14.996z" aria-label="M" style="font-size:24.6094px;line-height:0;font-family:Arial;-inkscape-font-specification:Arial;letter-spacing:0;word-spacing:0;stroke-width:7.44095;stroke-linecap:square;stroke-miterlimit:60;paint-order:fill markers stroke;fill:#fff"/><path d="m127.416 303.933 10.68-27.812h3.966l11.383 27.812h-4.193l-3.244-8.423h-11.63l-3.054 8.423zm8.025-11.42h9.429l-2.903-7.703q-1.328-3.51-1.973-5.768-.531 2.675-1.499 5.312zm26.334 11.42V276.12h5.54l6.582 19.692q.911 2.751 1.328 4.117.475-1.518 1.48-4.458l6.66-19.351h4.95v27.812h-3.547v-23.278l-8.082 23.278h-3.32l-8.044-23.676v23.676zm56.232-27.812h3.68v16.069q0 4.192-.948 6.659t-3.433 4.021q-2.467 1.537-6.489 1.537-3.908 0-6.393-1.347t-3.548-3.889q-1.062-2.561-1.062-6.981v-16.07h3.68v16.05q0 3.624.664 5.35.683 1.708 2.315 2.638 1.65.93 4.022.93 4.06 0 5.786-1.841t1.726-7.076zm14.06 18.876 3.472-.303q.246 2.087 1.138 3.434.91 1.328 2.808 2.162 1.897.816 4.268.816 2.106 0 3.719-.626t2.39-1.707q.797-1.1.797-2.39 0-1.31-.76-2.277-.758-.987-2.503-1.65-1.12-.437-4.952-1.348-3.832-.93-5.369-1.745-1.992-1.044-2.978-2.58-.968-1.556-.968-3.472 0-2.106 1.195-3.927 1.196-1.84 3.491-2.789 2.296-.948 5.103-.948 3.093 0 5.445 1.005 2.372.987 3.643 2.922t1.366 4.382l-3.529.266q-.285-2.637-1.935-3.984-1.632-1.347-4.838-1.347-3.339 0-4.875 1.233-1.518 1.214-1.518 2.94 0 1.5 1.081 2.467 1.063.967 5.54 1.992 4.496 1.005 6.166 1.764 2.428 1.12 3.585 2.846 1.157 1.707 1.157 3.946 0 2.22-1.27 4.192-1.272 1.954-3.662 3.055-2.372 1.081-5.35 1.081-3.775 0-6.336-1.1-2.543-1.1-4.003-3.301-1.442-2.22-1.518-5.009m32.746 8.936V276.12h20.11v3.282h-16.43v8.518h15.386v3.263h-15.386v9.467h17.075v3.282zm31.228 0V276.12h5.54l6.583 19.692q.91 2.751 1.328 4.117.474-1.518 1.48-4.458l6.659-19.351h4.951v27.812h-3.547v-23.278l-8.082 23.278h-3.32l-8.044-23.676v23.676zm38.059 0V276.12h20.11v3.282h-16.43v8.518h15.386v3.263H337.78v9.467h17.074v3.282zm31.304 0V276.12h3.775l14.608 21.836V276.12h3.529v27.812h-3.775l-14.608-21.855v21.855zm40.676 0v-24.53h-9.163v-3.282h22.045v3.282h-9.201v24.53zm37.605 0V276.12h3.68v24.53h13.697v3.282zm27.89 0V276.12h3.68v27.812zm15.633 0V276.12h3.775l14.608 21.836V276.12h3.53v27.812h-3.776l-14.608-21.855v21.855zm33.448 0V276.12h3.68v13.792l13.812-13.792h4.99l-11.668 11.27 12.18 16.543h-4.857l-9.903-14.077-4.553 4.44v9.637zm28.516 0 10.68-27.812h3.966l11.383 27.812h-4.193l-3.244-8.423h-11.63l-3.054 8.423zm8.025-11.42h9.428l-2.902-7.703q-1.328-3.51-1.973-5.768-.531 2.675-1.499 5.312zm39.462.511v-3.263l11.78-.019v10.32q-2.712 2.163-5.596 3.264-2.883 1.081-5.919 1.081-4.097 0-7.455-1.745-3.34-1.765-5.047-5.085t-1.707-7.417q0-4.06 1.688-7.57 1.708-3.529 4.895-5.236t7.342-1.707q3.016 0 5.445.986 2.447.968 3.832 2.713t2.106 4.553l-3.32.91q-.626-2.124-1.556-3.338t-2.656-1.935q-1.726-.74-3.832-.74-2.523 0-4.364.778-1.84.758-2.978 2.01-1.12 1.253-1.746 2.751-1.062 2.58-1.062 5.597 0 3.718 1.271 6.223 1.29 2.504 3.737 3.718t5.199 1.214q2.39 0 4.667-.91 2.276-.93 3.452-1.974v-5.179zm22.786 10.909V276.12h20.11v3.282h-16.43v8.518h15.386v3.263h-15.386v9.467H640.2v3.282zm47.489 0V276.12h3.68v24.53h13.697v3.282zm27.889 0V276.12h3.68v27.812zm23.62 0-10.775-27.812h3.984l7.228 20.204q.873 2.429 1.461 4.553.645-2.276 1.499-4.553l7.512-20.204h3.757l-10.89 27.812zm23.546 0V276.12h20.11v3.282h-16.43v8.518h15.386v3.263H745.67v9.467h17.075v3.282zm46.388-8.936 3.472-.303q.247 2.087 1.138 3.434.91 1.328 2.808 2.162 1.897.816 4.269.816 2.105 0 3.718-.626t2.39-1.707q.797-1.1.797-2.39 0-1.31-.759-2.277-.759-.987-2.504-1.65-1.12-.437-4.951-1.348-3.833-.93-5.37-1.745-1.991-1.044-2.978-2.58-.967-1.556-.967-3.472 0-2.106 1.195-3.927 1.195-1.84 3.49-2.789 2.296-.948 5.104-.948 3.092 0 5.445 1.005 2.371.987 3.642 2.922t1.366 4.382l-3.529.266q-.284-2.637-1.935-3.984-1.631-1.347-4.837-1.347-3.34 0-4.876 1.233-1.518 1.214-1.518 2.94 0 1.5 1.082 2.467 1.062.967 5.54 1.992 4.495 1.005 6.165 1.764 2.428 1.12 3.586 2.846 1.157 1.707 1.157 3.946 0 2.22-1.271 4.192-1.271 1.954-3.662 3.055-2.371 1.081-5.35 1.081-3.775 0-6.336-1.1-2.542-1.1-4.003-3.301-1.442-2.22-1.518-5.009m40.506 8.936v-11.781l-10.72-16.031h4.478l5.483 8.385q1.518 2.353 2.827 4.705 1.252-2.182 3.035-4.913l5.388-8.177h4.287l-11.098 16.03v11.782zm22.33-8.936 3.472-.303q.247 2.087 1.139 3.434.91 1.328 2.807 2.162 1.898.816 4.269.816 2.106 0 3.718-.626t2.39-1.707q.798-1.1.798-2.39 0-1.31-.76-2.277-.758-.987-2.504-1.65-1.119-.437-4.951-1.348-3.832-.93-5.369-1.745-1.992-1.044-2.978-2.58-.968-1.556-.968-3.472 0-2.106 1.195-3.927 1.195-1.84 3.49-2.789 2.296-.948 5.104-.948 3.093 0 5.445 1.005 2.371.987 3.642 2.922 1.272 1.935 1.366 4.382l-3.528.266q-.285-2.637-1.935-3.984-1.632-1.347-4.838-1.347-3.339 0-4.876 1.233-1.517 1.214-1.517 2.94 0 1.5 1.081 2.467 1.062.967 5.54 1.992 4.496 1.005 6.165 1.764 2.429 1.12 3.586 2.846 1.157 1.707 1.157 3.946 0 2.22-1.27 4.192-1.272 1.954-3.662 3.055-2.372 1.081-5.35 1.081-3.776 0-6.337-1.1-2.542-1.1-4.003-3.301-1.442-2.22-1.517-5.009m39.747 8.936v-24.53h-9.163v-3.282h22.045v3.282h-9.201v24.53zm22.236 0V276.12h20.11v3.282h-16.43v8.518h15.386v3.263h-15.385v9.467h17.074v3.282zm31.229 0V276.12h5.54l6.582 19.692q.911 2.751 1.328 4.117.475-1.518 1.48-4.458l6.66-19.351h4.95v27.812h-3.547v-23.278l-8.082 23.278h-3.32l-8.044-23.676v23.676z" aria-label="AMUSEMENT LINKAGE LIVE SYSTEM" style="font-size:38.8533px;line-height:0;font-family:Arial;-inkscape-font-specification:Arial;letter-spacing:5.50333px;word-spacing:0;stroke-width:11.7478;stroke-linecap:square;stroke-miterlimit:60;paint-order:fill markers stroke;fill:#fff"/></g></svg>