<?xml version="1.0" encoding="UTF-8"?>
<!-- Created by ERK -->
<svg width="1230mm" height="340mm" version="1.1" viewBox="0 0 1230 340" xml:space="preserve" xmlns="http://www.w3.org/2000/svg" xmlns:xlink="http://www.w3.org/1999/xlink"><defs>
	
	
	

		
		
	<linearGradient id="linearGradient39"><stop stop-color="#f6f6f6" offset="0"/><stop stop-color="#666" offset="1"/></linearGradient><linearGradient id="linearGradient8" x1="75.281" x2="75.281" y1=".59526" y2="25.164" gradientTransform="matrix(5.8 0 0 5.8472 9.6163e-8 151.98)" gradientUnits="userSpaceOnUse" xlink:href="#linearGradient39"/>
		
		
		
	
		
		
		
	</defs><ellipse cx="826.53" cy="289.84" rx="10.831" ry="10.919" fill="none" stroke="#000" stroke-linecap="round" stroke-miterlimit="4.5" stroke-width=".24416" style="paint-order:fill markers stroke"/><path d="m826.53 279.64c-5.5992 0-10.128 4.5533-10.128 10.198s4.5284 10.21 10.128 10.21c5.5992 0 10.128-4.5654 10.128-10.21s-4.5286-10.198-10.128-10.198z" fill="#fff" stroke-linecap="round" stroke-miterlimit="4.5" style="paint-order:fill markers stroke"/><path d="m172.1 228.66 11.381-30.747 3.6447 30.747zm-12.291 29.374h30.956l5.4678 44.061h55.994l25.95-80.778 12.751 80.778h29.592l32.777-85.366 5.4647 85.366h32.777l-9.1063-148.7h-39.154l-30.5 78.48-11.839-78.48h-35.053l-40.061 122.08-15.025-122.08h-43.705l-48.714 123.46 6.3747-48.19h-59.183l-4.1004 29.374h25.953l-1.8231 10.096c-4.5531 2.7507-15.022 3.2102-19.119 3.2102-4.0974 0-34.597-2.7507-33.233-35.798 1.3643-33.044 45.069-63.794 96.968-46.813l5.012-31.669c-34.602-11.93-125.48-5.2523-134.76 76.649-5.4616 48.188 38.244 71.138 67.378 70.683 16.845 0.91895 35.968-5.5092 42.795-9.1819l-2.2743 6.886h34.6z" fill="url(#linearGradient8)" stroke-width=".26458"/><path d="m478.48 302.11 4.5531-33.061h-51.891l3.1858-25.689h45.063l4.5593-33.046h-44.614l3.1889-23.871h51.888l5.012-33.044h-86.042l-20.487 148.71z" fill="url(#linearGradient8)" stroke-width=".26458"/><path d="m569.08 210.32h19.123c14.114 0 16.845-9.1804 17.296-12.849 0.45588-3.6743-3.6385-11.018-10.922-11.018h-22.308zm-8.1932 58.744h25.953c14.107 0 17.295-11.012 17.746-14.686 0.45878-3.6712-3.6385-11.011-10.922-11.011h-29.133zm-38.239 33.047 20.487-148.7h62.823c15.028 0 36.878 17.442 34.148 40.848-2.7301 23.407-10.016 24.784-15.025 28.455 7.742 6.8798 15.481 17.897 12.295 38.55-3.1889 20.658-20.034 40.848-49.626 40.848z" fill="url(#linearGradient8)" stroke-width=".26458"/><path d="m712.94 152.03c-23.676-0.91896-57.82 12.85-69.201 68.387-11.381 55.531 19.119 78.021 47.345 81.692 28.23 3.6712 67.837-14.227 75.12-67.467 7.2862-53.241-18.67-81.234-53.264-82.612zm-3.6431 31.669c9.559 0 30.044 6.4266 25.035 44.975-5.0089 38.553-28.68 43.143-37.33 42.223-8.6536-0.91895-26.406-6.8799-21.397-42.223 5.0058-35.337 23.67-45.435 33.692-44.975z" fill="url(#linearGradient8)" stroke-width=".26458"/><path d="m749.82 153.4h36.875l18.214 42.232 27.314-42.232h37.774l-53.261 83.536-8.6474 65.175h-34.142l10.015-74.365z" fill="url(#linearGradient8)" stroke-width=".26458"/><path d="m826.53 278.21c-6.3646 0-11.543 5.2096-11.543 11.626 0 6.4163 5.1789 11.637 11.543 11.637 6.3645 0 11.543-5.221 11.543-11.637 0-6.4163-5.1789-11.626-11.543-11.626zm0 1.4275c5.5992 0 10.127 4.5536 10.127 10.198s-4.5282 10.21-10.127 10.21c-5.5992 0-10.127-4.565-10.127-10.21s4.5282-10.198 10.127-10.198z" fill="url(#linearGradient8)" style="paint-order:fill markers stroke"/><path d="m823.83 284.47h3.6861c1.6036 0 3.3485 0.24149 3.3485 2.2541 0 2.647-2.8052 2.3454-4.6192 2.3454l-2.4154-3e-3v1.2516h2.9049l3.683 5.9996h1.8707l-3.8964-5.9996c2.2958-0.0591 4.0759-1.0025 4.0759-3.5614 0-1.0985-0.48025-2.2541-1.4472-2.8049-0.96524-0.57712-2.0563-0.6374-3.1444-0.6374h-5.6104v13h1.5652v-11.844z" fill="url(#linearGradient8)" stroke-width=".26458"/><path d="m604.3 318.86c-1.9659 0-3.7564 0.40531-5.3325 1.2273h-3e-3c-1.5563 0.80322-2.8633 1.9121-3.8938 3.3057a0.75008 0.75008 0 0 0-3e-3 3e-3c-1.0166 1.388-1.7671 3.0167-2.2562 4.8674-0.37232 1.3762-0.56224 2.6994-0.56224 3.9672 0 1.3898 0.28991 2.7704 0.85784 4.1217a0.75008 0.75008 0 0 0 0 3e-3c0.59295 1.4006 1.6101 2.5783 2.9884 3.5006 1.4186 0.94914 3.1611 1.4082 5.1578 1.4082 2.2921 0 4.3883-0.5764 6.2265-1.7265 1.8392-1.1507 3.2973-2.8026 4.3517-4.9015 1.0495-2.0894 1.5818-4.2753 1.5818-6.5241 0-2.7129-0.84378-5.0021-2.5316-6.7009-1.6772-1.6968-3.9283-2.5513-6.582-2.5513zm-481.86 0c-2.0774 0-4.028 0.54686-5.7934 1.6258-1.7793 1.0874-3.1774 2.6716-4.1682 4.6922a0.75008 0.75008 0 0 0-5.3e-4 0c-0.98006 2.0086-1.4676 4.2292-1.4676 6.627 0 2.9521 0.73316 5.326 2.282 6.9877a0.75008 0.75008 0 0 0 2e-3 3e-3c1.5475 1.6493 3.7266 2.4691 6.3484 2.4691 2.3317 0 4.4244-0.64717 6.1888-1.9358a0.75008 0.75008 0 0 0 3e-3 -3e-3c1.7684-1.3015 3.083-3.1794 3.9403-5.5588a0.75008 0.75008 0 0 0-0.59376-0.99578l-4.1889-0.63357a0.75008 0.75008 0 0 0-0.82631 0.51109c-0.4067 1.2625-0.9979 2.1492-1.7575 2.7383a0.75008 0.75008 0 0 0-3e-3 3e-3c-0.7759 0.60791-1.5737 0.88778-2.4862 0.88781-0.96658 0-1.6864-0.32575-2.3451-1.0692h-1e-3c-0.62052-0.71094-0.96945-1.7554-0.96945-3.251 0-1.3782 0.27663-2.7582 0.84129-4.1568a0.75008 0.75008 0 0 0 5.3e-4 0c0.55828-1.3914 1.2737-2.3493 2.1177-2.944 0.89091-0.62109 1.799-0.9126 2.7952-0.9126 0.92011 0 1.5538 0.22153 2.0211 0.6201a0.75008 0.75008 0 0 0 9e-3 7e-3c0.4543 0.37529 0.82195 1.0416 1.0222 2.1094a0.75008 0.75008 0 0 0 0.80926 0.60825l3.9827-0.38552a0.75008 0.75008 0 0 0 0.67231-0.83458c-0.25619-2.1678-1.1424-3.9687-2.6381-5.2612-1.5015-1.3067-3.4758-1.9467-5.796-1.9467zm98.792 0c-2.0774 0-4.028 0.54686-5.7934 1.6258-1.7793 1.0874-3.1774 2.6716-4.1682 4.6922a0.75008 0.75008 0 0 0-5.3e-4 0c-0.98006 2.0086-1.4676 4.2292-1.4676 6.627 0 2.9521 0.73316 5.326 2.282 6.9877a0.75008 0.75008 0 0 0 2e-3 3e-3c1.5475 1.6493 3.7266 2.4691 6.3484 2.4691 2.3317 0 4.4244-0.64717 6.1888-1.9358a0.75008 0.75008 0 0 0 3e-3 -3e-3c1.7685-1.3015 3.083-3.1794 3.9403-5.5588a0.75008 0.75008 0 0 0-0.59376-0.99578l-4.1889-0.63357a0.75008 0.75008 0 0 0-0.82631 0.51109c-0.4067 1.2625-0.99789 2.1492-1.7575 2.7383a0.75008 0.75008 0 0 0-3e-3 3e-3c-0.77589 0.60791-1.5737 0.88781-2.4862 0.88781-0.96557 0-1.6854-0.32533-2.3435-1.0671h-5.3e-4c-0.62184-0.71099-0.97151-1.7563-0.97151-3.2536 0-1.3782 0.27663-2.7582 0.84129-4.1568a0.75008 0.75008 0 0 0 5.3e-4 0c0.55828-1.3914 1.2737-2.3493 2.1177-2.944 0.89091-0.62109 1.799-0.9126 2.7952-0.9126 0.92011 0 1.5538 0.22156 2.0211 0.62013a0.75008 0.75008 0 0 0 9e-3 7e-3c0.4543 0.37529 0.82144 1.0416 1.0216 2.1094a0.75008 0.75008 0 0 0 0.80977 0.60825l3.9827-0.385a0.75008 0.75008 0 0 0 0.67231-0.8351c-0.25619-2.1678-1.1424-3.9682-2.6381-5.2607-1.5015-1.3067-3.4758-1.9472-5.796-1.9472zm194.11 0c-2.4536 0-4.4458 0.59727-5.8513 1.8769-1.3706 1.2478-2.0918 2.9041-2.0918 4.7847 0 1.08 0.23347 2.0696 0.71829 2.9207 0.47199 0.82857 1.1295 1.5173 1.942 2.0381a0.75008 0.75008 0 0 0 9e-3 6e-3c0.78685 0.48803 1.9491 1.0586 3.5274 1.7456a0.75008 0.75008 0 0 0 3e-3 0c1.5523 0.67173 2.548 1.2324 2.6862 1.3524a0.75008 0.75008 0 0 0 0.0119 0.01c0.35965 0.29972 0.47387 0.55054 0.47387 0.94001 0 0.46903-0.15721 0.79997-0.62889 1.1787-0.39293 0.31554-1.2093 0.56536-2.4794 0.56536-1.5257 0-2.3984-0.3465-2.79-0.80925a0.75008 0.75008 0 0 0-3e-3 -3e-3c-0.15952-0.18677-0.41669-0.90765-0.46871-2.0955a0.75008 0.75008 0 0 0-0.78859-0.71573l-3.9548 0.20619a0.75008 0.75008 0 0 0-0.71057 0.72864c-0.0395 1.4525 0.22458 2.7802 0.81029 3.9414 0.60764 1.2046 1.6563 2.1395 3.0412 2.7818a0.75008 0.75008 0 0 0 6e-3 3e-3c1.3934 0.63156 3.01 0.93536 4.8297 0.93536 2.6422 0 4.8133-0.67242 6.3846-2.0795 1.5449-1.3844 2.3714-3.1528 2.3714-5.1335 0-1.606-0.55994-3.0236-1.6464-4.0788-0.81812-0.80423-2.3119-1.577-4.6607-2.589h-3e-3c-1.5182-0.65985-2.5074-1.2152-2.7988-1.465a0.75008 0.75008 0 0 0-7e-3 -6e-3c-0.30517-0.25533-0.40617-0.47348-0.40617-0.85784 0-0.4165 0.11674-0.66616 0.45734-0.94982 0.27762-0.22456 0.93189-0.43614 1.9895-0.43614 1.0565 0 1.7423 0.23336 2.1565 0.59015 0.43738 0.37685 0.70411 0.90244 0.79066 1.7286a0.75008 0.75008 0 0 0 0.7798 0.67074l3.9827-0.1788a0.75008 0.75008 0 0 0 0.71416-0.80151c-0.14002-2.0105-0.95925-3.7177-2.4092-4.9542-1.4669-1.2589-3.4998-1.8485-5.9872-1.8485zm89.394 0c-2.4536 0-4.4464 0.59727-5.8518 1.8769-1.3706 1.2478-2.0919 2.9041-2.0919 4.7847 0 1.08 0.23349 2.0696 0.71831 2.9207 0.47199 0.82857 1.129 1.5173 1.9415 2.0381a0.75008 0.75008 0 0 0 0.01 6e-3c0.78684 0.48803 1.9486 1.0586 3.5269 1.7456a0.75008 0.75008 0 0 0 3e-3 0c1.5523 0.67173 2.548 1.2324 2.6862 1.3524a0.75008 0.75008 0 0 0 0.0119 0.01c0.35967 0.29972 0.4744 0.55054 0.4744 0.94001 0 0.46903-0.1578 0.79997-0.62945 1.1787-0.39293 0.31554-1.2093 0.56536-2.4794 0.56536-1.5257 0-2.3979-0.3465-2.7895-0.80925a0.75008 0.75008 0 0 0-3e-3 -3e-3c-0.15952-0.18677-0.4167-0.90765-0.46871-2.0955a0.75008 0.75008 0 0 0-0.78807-0.71573l-3.9553 0.20619a0.75008 0.75008 0 0 0-0.71054 0.72864c-0.0395 1.4525 0.22455 2.7802 0.81028 3.9414 0.60762 1.2046 1.6568 2.1395 3.0416 2.7818a0.75008 0.75008 0 0 0 6e-3 3e-3c1.3934 0.63156 3.01 0.93536 4.8297 0.93536 2.6422 0 4.8133-0.67242 6.3846-2.0795 1.5449-1.3844 2.3719-3.1528 2.3719-5.1335 0-1.6054-0.5596-3.0226-1.6454-4.0778-0.81766-0.80489-2.3122-1.5783-4.6628-2.5911h-3e-3c-1.5182-0.65984-2.5073-1.2152-2.7988-1.465a0.75008 0.75008 0 0 0-7e-3 -6e-3c-0.30515-0.25532-0.4067-0.47345-0.4067-0.85781 0-0.41624 0.11674-0.66585 0.45681-0.94929 0.27731-0.22477 0.93162-0.43667 1.9901-0.43667 1.0565 0 1.7423 0.23333 2.1565 0.59012 0.43738 0.37685 0.70459 0.90245 0.79116 1.7286a0.75008 0.75008 0 0 0 0.77928 0.67077l3.9827-0.1788a0.75008 0.75008 0 0 0 0.71466-0.80151c-0.14004-2.0105-0.95975-3.7177-2.4097-4.9542-1.4669-1.2588-3.4992-1.8485-5.9867-1.8485zm292.1 0.34366h-4.424a0.75008 0.75008 0 0 0-0.68368 1.0583l5.4668 12.111-1.5901 7.6295a0.75008 0.75008 0 0 0 0.73432 0.90331h4.1475a0.75008 0.75008 0 0 0 0.73433-0.59582l1.5379-7.3256 9.1658-12.589a0.75008 0.75008 0 0 0-0.60616-1.1911h-4.8235a0.75008 0.75008 0 0 0-0.61547 0.32092l-2.8494 4.0891-1.9125 2.6691a0.75008 0.75008 0 0 0-0.0135 0.0185c-0.15881 0.23659-0.2743 0.44601-0.42014 0.6744-0.21029-0.52361-0.33245-0.88106-0.6537-1.6175l-2.5084-5.7051a0.75008 0.75008 0 0 0-0.68627-0.44802zm-83.661 0h-8.9715a0.75008 0.75008 0 0 0-0.73433 0.59635l-4.2302 20.202a0.75008 0.75008 0 0 0 0.7338 0.90382h4.162a0.75008 0.75008 0 0 0 0.73382-0.59635l1.6252-7.7685h1.0857c0.90998 0 1.4819 0.16397 1.6418 0.26924 0.44881 0.31647 1.0179 1.0777 1.557 2.3125 1.0421 2.4043 1.7395 4.1739 2.0805 5.2581a0.75008 0.75008 0 0 0 0.7152 0.52504h4.4648a0.75008 0.75008 0 0 0 0.69763-1.0258c-1.1476-2.9059-2.1903-5.1647-3.1512-6.8012a0.75008 0.75008 0 0 0-4e-3 -6e-3c-0.22241-0.37065-0.45759-0.70275-0.69919-1.0165 1.5671-0.38002 2.8507-1.0436 3.776-2.0433a0.75008 0.75008 0 0 0 3e-3 -3e-3c1.158-1.2614 1.741-2.8979 1.741-4.7656 0-1.3129-0.29641-2.4896-0.91363-3.4701-0.59807-0.96427-1.4382-1.6726-2.4567-2.0423-0.99319-0.37299-2.2631-0.52917-3.8566-0.52917zm-690.73 0a0.75008 0.75008 0 0 0-0.65319 0.38085l-11.424 20.202a0.75008 0.75008 0 0 0 0.65267 1.1193h4.2721a0.75008 0.75008 0 0 0 0.65888-0.39222l2.2123-4.0726h6.9153l0.57878 3.8272a0.75008 0.75008 0 0 0 0.74156 0.63767h3.9414a0.75008 0.75008 0 0 0 0.74001-0.87024l-3.2794-20.202a0.75008 0.75008 0 0 0-0.74052-0.62992zm289.6 0a0.75008 0.75008 0 0 0-0.73379 0.59685l-4.2168 20.202a0.75008 0.75008 0 0 0 0.73379 0.90331h15.779a0.75008 0.75008 0 0 0 0.73382-0.59428l0.71623-3.376a0.75008 0.75008 0 0 0-0.73329-0.90588h-10.812l0.92088-3.9848h9.863a0.75008 0.75008 0 0 0 0.73433-0.59687l0.70281-3.3765a0.75008 0.75008 0 0 0-0.73432-0.90278h-9.5354l0.64958-3.0887h10.209a0.75008 0.75008 0 0 0 0.73433-0.59741l0.70278-3.376a0.75008 0.75008 0 0 0-0.73432-0.90279zm291.92 4.6282c1.151 0 1.9971 0.35885 2.7192 1.1276a0.75008 0.75008 0 0 0 3e-3 3e-3c0.70268 0.74046 1.0759 1.7635 1.0759 3.2184 0 1.3046-0.31004 2.6617-0.95343 4.0876a0.75008 0.75008 0 0 0 0 3e-3c-0.63058 1.408-1.4089 2.4094-2.3156 3.0592-0.92377 0.65958-1.8309 0.96221-2.7874 0.96221-1.2081 0-2.0687-0.37153-2.7781-1.1581-0.72191-0.80036-1.0749-1.7494-1.0749-2.9843 0-2.1189 0.58354-4.0318 1.7735-5.809v-3e-3c1.1736-1.7381 2.5412-2.5063 4.3377-2.5063zm104.29 0.24805h3.9651c1.173 0 1.9373 0.18999 1.9947 0.22272 0.40317 0.24935 0.53486 0.48162 0.53486 1.0113 0 0.45927-0.14013 0.88723-0.47697 1.3513-0.32197 0.44357-0.75464 0.76567-1.371 0.98909a0.75008 0.75008 0 0 0-3e-3 0c-0.49225 0.18068-1.9759 0.35398-4.1785 0.35398h-1.2826zm-684.66 2.312 0.74672 5.1868h-3.8587z" display="none" fill="#666" style="paint-order:fill markers stroke"/><path class="st2" d="m269.45 20.793c-1.4552-7.8052-9.869-12.859-35.375-14.393-38.126-2.2754-105.86 17.701-124.62 30.824-4.8419 3.3867-6.006 17.833-1.4552 24.871 8.9694 13.864 34.449 16.933 55.668 22.225 21.22 5.2917 39.105 12.144 39.264 16.378 0.18521 5.3446-12.488 7.4612-31.221 10.345-41.619 6.4294-110.73 17.304-134.22 17.171-2.4606 0-4.8683-0.74083-6.9321-2.0902l-2.0108-1.2965c-1.3229-0.84666-2.9104-1.2435-4.4715-1.0848l-13.309 1.3229c-3.7571 0.37042-6.641 3.5454-6.641 7.329v4.4979c0 9.2075 2.8575 11.906 13.229 10.636 23.125-2.8046 53.525-4.9742 86.439-8.546 42.069-4.5508 88.715-13.467 98.954-19.129 13.6-7.5406 10.186-32.253-6.1383-39.846-23.125-10.769-61.939-16.298-76.174-22.225-6.1648-2.5665-4.0481-4.9477 1.9579-8.0433 10.134-5.2387 30.348-14.129 61.172-20.637 39.211-8.2815 60.484-7.1702 72.284-3.2544 4.2333 1.4023 11.88 4.5508 3.6512 8.7048-4.9477 2.5135-15.214 5.7679-22.701 7.9375-8.255 2.4077-6.5617 23.151 0.15875 19.923s23.521-7.5671 30.48-17.383c4.2598-6.006 3.3073-17.251 2.0108-24.236z" fill="#30308f" stroke-width=".26458"/><path class="st2" d="m515.51 63.788c-3.5719-7.5142-12.568-5.7679-23.68-3.2808-17.119 3.81-39.423 13.256-79.507 42.783-1.1377 0.84667-2.5135-0.68792-1.561-1.7198 13.176-14.34 30.771-33.655 35.348-39 4.154-4.8419-3.9158-16.642-12.568-11.589-28.601 16.616-76.412 44.212-101.39 60.246-8.3873 5.3975-11.853 2.3019-7.0115-4.6567 25.135-35.957 40.614-38.814 38.418-49.715-3.0427-15.108-12.409-4.1275-17.859 0.42333-8.3344 6.985-21.59 16.642-42.624 28.337-19.579 10.874-45.932 25.717-55.88 31.194-9.525 5.2123-12.409 0.13229-7.329-5.9796 3.8894-4.6831 41.116-36.565 54.081-47.863 0 0 8.0962-5.5298 4.2862-11.165-4.3921-6.5087-6.6675-9.1546-15.319-0.60854-7.5935 7.4877-56.621 50.641-61.807 58.764-5.0535 7.9375-5.0535 10.821-2.8575 16.298 2.249 5.6886 8.2815 9.816 15.028 8.7048 11.589-1.905 34.555-13.996 54.372-25.585 9.3927-5.5033 25.506-15.796 34.687-21.722 1.0319-0.66146 2.196 0.66146 1.3758 1.5875-5.7944 6.5881-14.235 16.933-15.822 22.939-1.7992 6.7469 10.954 15.266 21.299 11.695 12.197-4.2069 60.563-33.02 82.682-46.381 1.2435-0.76729 2.54 0.92604 1.4552 1.9315-14.076 13.203-40.005 39.529-72.046 81.227-4.5508 5.9267 10.372 14.922 13.494 10.874 11.43-14.684 28.046-35.481 50.139-50.35 1.0848-0.71437 1.3494-0.87312 2.3812-1.5875 1.2965 1.6404 2.9898 3.0162 3.7571 3.8894 9.869 11.324 27.199 13.547 54.663-1.0583 0 0 34.502-18.441 46.09-35.216 3.81-5.5033 9.4456-11.324 3.7042-23.416zm-37.015 34.131c-30.824 20.32-53.869 29.157-63.315 17.198 49.345-32.2 74.612-40.084 86.704-41.672 1.7462-0.23812 2.9369 1.7462 1.8785 3.1485-5.371 7.3554-18.997 17.198-25.268 21.325z" fill="#30308f" stroke-width=".26458"/><path class="st2" d="m783.67 104.75c-15.954 0-53.525-0.0529-84.19 8.2285-3.0162 0.82021-5.6621 0.21167-2.2754-7.0379 5.08-10.874 10.557-24.395 5.1858-35.692-3.3867-7.1173-11.112-13.07-19.103-20.399 3.7835-3.3602 9.2075-25.188-7.0115-28.813-7.5142-1.6933-12.859 0.66146-13.97 9.2075-0.42333 3.3338-0.0265 6.7204 0.87313 9.9748 0.9525 3.4131 2.4077 6.5352 4.6831 9.3398-17.013 16.14-34.951 30.956-56.78 45.376-20.452 13.52-43.471 25.903-71.702 30.824-7.8846 1.3758-27.49 4.2598-8.1227-19.95 21.405 5.2917 47.36-6.2971 62.071-16.06 13.811-9.1546 29.104-17.701 27.728-28.469-3.4131-26.855-44.529-9.8425-73.554 8.6519-47.387 30.189-47.016 60.087-31.724 66.913 29.422 13.15 91.07-16.245 160.68-79.349 19.473 23.76 13.679 19.791 1.7992 49.9-2.1431 5.424-5.5298 26.776 11.959 23.31 41.487-8.255 100.33-14.631 146.47-8.89 1.9844 0.23813 3.5983 1.6933 4.101 3.6248l0.3175 1.1906c0.47625 1.8785 2.196 3.1485 4.1275 3.1221l14.552-0.34395c3.1221-0.0794 5.7415-2.3283 6.3235-5.3975 0.76729-4.0481 1.1377-9.4192-1.3229-12.356-4.2069-5.08-35.348-6.9056-81.121-6.9056zm-172.83-44.768c1.3758 0.21167 1.9579 1.9315 1.0054 2.9369-16.272 17.119-60.722 35.295-70.062 31.459 11.589-13.229 48.763-37.677 69.056-34.396zm62.971-17.462 0.0264 0.02646z" fill="#30308f" stroke-width=".26458"/><path class="st3" d="m265.3 14.576c-1.4552-7.8052-9.869-12.859-35.375-14.393-38.126-2.3019-105.86 17.701-124.62 30.824-4.8419 3.3867-6.006 17.833-1.4552 24.871 8.9694 13.864 34.449 16.933 55.668 22.225 21.22 5.2917 39.105 12.144 39.264 16.378 0.1852 5.3446-12.488 7.4613-31.221 10.345-41.619 6.4558-110.73 17.33-134.22 17.198-2.4606 0-4.8683-0.74083-6.9321-2.0902l-2.0108-1.2965c-1.3229-0.84666-2.9104-1.2435-4.4715-1.0848l-13.309 1.3229c-3.7571 0.39687-6.6146 3.5454-6.6146 7.329v4.4979c0 9.2075 2.8575 11.906 13.229 10.636 23.125-2.8046 53.525-4.9742 86.439-8.546 42.069-4.5508 88.715-13.467 98.954-19.129 13.6-7.5406 10.186-32.253-6.1383-39.846-23.125-10.769-61.939-16.298-76.174-22.225-6.1648-2.5665-4.0481-4.9477 1.9579-8.0433 10.134-5.2388 30.348-14.129 61.172-20.638 39.211-8.3079 60.484-7.1702 72.258-3.2544 4.2333 1.4023 11.88 4.5508 3.6512 8.7048-4.9477 2.5135-15.214 5.7679-22.701 7.9375-8.255 2.4077-6.5617 23.151 0.15875 19.923 6.7204-3.2279 23.521-7.5671 30.48-17.383 4.2598-6.0325 3.3073-17.277 2.0108-24.262z" fill="#ec2024" stroke-width=".26458"/><path class="st3" d="m511.36 57.571c-3.5719-7.5142-12.568-5.7679-23.68-3.2808-17.119 3.81-39.423 13.256-79.507 42.783-1.1377 0.84667-2.5135-0.68792-1.561-1.7198 13.176-14.34 30.771-33.655 35.348-39 4.154-4.8419-3.9158-16.642-12.568-11.589-28.601 16.616-76.412 44.212-101.39 60.246-8.3873 5.3975-11.853 2.3019-7.0114-4.6567 25.135-35.957 40.614-38.814 38.418-49.715-3.0427-15.108-12.409-4.1275-17.859 0.42333-8.3344 6.985-21.59 16.642-42.624 28.337-19.579 10.874-45.932 25.718-55.88 31.194-9.525 5.2123-12.409 0.13229-7.329-5.9796 3.8894-4.6831 41.116-36.565 54.081-47.863 0 0 8.0962-5.5298 4.2862-11.165-4.3921-6.5088-6.6675-9.1546-15.319-0.60854-7.5936 7.4877-56.621 50.641-61.807 58.764-5.0535 7.9375-5.0535 10.821-2.8575 16.298 2.249 5.6885 8.2815 9.816 15.028 8.7048 11.589-1.905 34.555-13.996 54.372-25.585 9.3927-5.5033 25.506-15.796 34.687-21.722 1.0319-0.66146 2.196 0.66146 1.3758 1.5875-5.7944 6.5881-14.235 16.933-15.822 22.939-1.7992 6.7469 10.954 15.266 21.299 11.695 12.197-4.2069 60.563-33.02 82.682-46.381 1.2435-0.76729 2.54 0.92604 1.4552 1.9315-14.076 13.203-40.005 39.529-72.046 81.227-4.5508 5.9267 10.372 14.922 13.494 10.874 11.43-14.684 28.046-35.481 50.139-50.35 1.0848-0.71438 1.3494-0.87313 2.3812-1.5875 1.2965 1.6404 2.9898 3.0162 3.7571 3.8894 9.869 11.324 27.199 13.547 54.663-1.0583 0 0 34.502-18.441 46.09-35.216 3.81-5.5033 9.4456-11.324 3.7042-23.416zm-37.015 34.131c-30.824 20.32-53.869 29.157-63.315 17.198 49.345-32.2 74.612-40.084 86.704-41.672 1.7462-0.23812 2.9369 1.7462 1.8785 3.1485-5.371 7.3554-18.971 17.198-25.268 21.325z" fill="#ec2024" stroke-width=".26458"/><path class="st3" d="m779.52 98.528c-15.954 0-53.525-0.05292-84.19 8.2285-3.0162 0.82021-5.6621 0.21167-2.2754-7.0379 5.08-10.874 10.557-24.395 5.1858-35.692-3.3867-7.1173-11.112-13.07-19.103-20.399 3.7835-3.3602 9.2075-25.188-7.0115-28.813-7.5142-1.6933-12.859 0.66146-13.97 9.2075-0.42333 3.3338-0.0264 6.7204 0.87313 9.9748 0.9525 3.4131 2.4077 6.5352 4.6831 9.3398-17.013 16.14-34.951 30.956-56.78 45.376-20.452 13.52-43.471 25.903-71.702 30.824-7.8846 1.3758-27.49 4.2598-8.1227-19.95 21.405 5.2917 47.36-6.2971 62.071-16.06 13.811-9.1546 29.104-17.701 27.728-28.469-3.4131-26.855-44.529-9.8425-73.554 8.6519-47.387 30.189-47.016 60.087-31.724 66.913 29.422 13.15 91.07-16.245 160.68-79.349 19.473 23.76 13.679 19.791 1.7992 49.9-2.1431 5.424-5.5298 26.776 11.959 23.31 41.487-8.255 100.33-14.631 146.47-8.89 1.9844 0.23812 3.5983 1.6933 4.101 3.6248l0.3175 1.1906c0.47625 1.8785 2.196 3.1485 4.1275 3.1221l14.552-0.34396c3.1221-0.0794 5.7415-2.3283 6.3235-5.3975 0.76729-4.0481 1.1377-9.4192-1.3229-12.356-4.1804-5.08-35.348-6.9056-81.121-6.9056zm-172.83-44.768c1.3758 0.21167 1.9579 1.9315 1.0054 2.9369-16.272 17.119-60.722 35.295-70.062 31.459 11.589-13.229 48.763-37.677 69.056-34.396zm62.997-17.462 0.0264 0.02646s-0.0264 0-0.0264-0.02646z" fill="#ec2024" stroke-width=".26458"/><path d="m870.31 296.58v-5.0536h359.38v10.107h-359.38z" fill="#f00" stroke="#f00" stroke-width=".6173"/><path d="m871.39 308.49v27.434h7.9542v-16.605l4.7001 16.605h3.2542l4.7001-16.605v16.605h7.9542v-27.434h-10.847l-3.442 14.078-3.4278-14.078z" fill="#fff" stroke-width=".38263"/><path d="m902.49 308.49v27.434h16.27v-6.1364h-7.5927v-4.6926h6.5083v-6.1364h-6.5083v-4.3322h7.5927v-6.1364z" fill="#fff" stroke-width=".38263"/><path d="m920.93 308.49v27.434h12.654c7.231 0 7.2312-6.4976 7.2312-6.4976v-14.439s-5.8e-4 -6.4976-9.4009-6.4976zm8.3157 6.1364c2.8924 0 3.6294 0.71527 3.6156 4.3322v6.4976c0 3.6098-0.72321 4.3314-3.6156 4.3314z" fill="#fff" stroke-width=".38263"/><path d="m943.34 308.49v27.434h8.6772v-27.434z" fill="#fff" stroke-width=".38263"/><path d="m959.25 308.49-5.423 27.434h8.6772l0.72297-5.0538h3.9771l0.72296 5.0538h8.6772l-5.423-27.434zm5.955 5.7753 1.2763 10.469h-2.5312z" fill="#fff" stroke-width=".38263"/><path d="m986.37 308.49v27.434h16.27v-6.1364h-7.592v-4.6926h6.5075v-6.1364h-6.5075v-4.3322h7.592v-6.1364z" fill="#fff" stroke-width=".38263"/><path d="m1004.4 308.49v27.434h7.9542v-14.8l5.423 14.8h7.9542v-27.434h-7.9542v13.717l-4.7001-13.717z" fill="#fff" stroke-width=".38263"/><path d="m1028.3 308.49v27.434h8.678v-10.829h3.6148v10.829h8.678v-27.434h-8.678v10.469h-3.6148v-10.469z" fill="#fff" stroke-width=".38263"/><path d="m1056.5 308.49-5.423 27.434h8.6771l0.723-5.0538h3.9771l0.723 5.0538h8.6772l-5.4231-27.434zm5.9692 5.7753 1.2621 10.469h-2.5312z" fill="#fff" stroke-width=".38263"/><path d="m1075.3 308.49v27.434h7.9542v-14.8l5.423 14.8h7.9542v-27.434h-7.9542v13.717l-4.7-13.717z" fill="#fff" stroke-width=".38263"/><path d="m1105.3 308.49c-3.6155 0-6.5083 3.249-6.5083 6.8587v14.078c0 3.6098 2.8928 6.8587 6.5083 6.8587h6.8698c3.6155 0 6.5075-3.249 6.5075-6.8587v-3.9703h-7.9542c0 3.6098 5e-4 4.6926-1.6156 4.6926-1.6379 0-1.6386-1.0828-1.6386-4.6926v-6.4976c0-3.6098 5e-4 -4.6934 1.6275-4.6934 1.6269 0 1.6267 1.0836 1.6267 4.6934h7.9542c-0.062-0.76526 0-3.6099 0-3.6099 0-3.6098-2.892-6.8587-6.5075-6.8587z" fill="#fff" stroke-width=".38263"/><path d="m1120.9 308.49v27.434h16.27v-6.1364h-7.5927v-4.6926h6.5075v-6.1364h-6.5075v-4.3322h7.5927v-6.1364z" fill="#fff" stroke-width=".38263"/><path d="m1138.9 308.49v27.434h7.9542v-16.244l4.7 16.244h3.2542l4.7001-16.605v16.605h7.9542v-27.434h-10.485l-3.7853 14.078-3.8066-14.078z" fill="#fff" stroke-width=".38263"/><path d="m1170 308.49v27.434h16.27v-6.1364h-7.5919v-4.6926h6.5075v-6.1364h-6.5075v-4.3322h7.5919v-6.1364z" fill="#fff" stroke-width=".38263"/><path d="m1188.1 308.49v27.434h7.9542v-14.8l5.423 14.8h7.9542v-27.434h-7.9542v13.717l-4.7001-13.717z" fill="#fff" stroke-width=".38263"/><path d="m1211.3 308.49v6.1364h4.7001v21.298h8.678v-21.298h4.7v-6.1364z" fill="#fff" stroke-width=".38263"/><path d="m955.63 202-82.434 82.302h18.801l57.848-57.756v57.756h10.123l57.848-57.756v57.756h14.462v-82.302h-10.123l-56.402 56.312v-56.312z" fill="#fff" stroke-width=".38263"/><path d="m1056.9 202c-9.0388 0-15.908 11.19-15.908 20.214v8.6637c0 9.0244 6.8688 20.214 15.908 20.214h30.371c7.231 0 8.6772 5.0539 8.6772 8.6637 0 3.6098-1.4462 8.6637-8.6772 8.6637h-46.278v15.883h53.509c9.0388 0 15.908-11.191 15.908-20.215v-8.6629c0-9.0244-6.8697-20.215-15.908-20.215h-30.37c-7.231 0-8.6771-5.0532-8.6771-8.6629 0-3.6098 1.4461-8.6637 8.6771-8.6637h46.279v-15.883z" fill="#fff" stroke-width=".38263"/><path d="m1117.6 202v62.087c0 10.829 4.7 20.215 17.354 20.215h37.601c12.654 0 17.354-9.3858 17.354-20.215v-62.087h-15.908v55.951c0 9.0244-5.4228 11.912-10.846 11.912h-18.801c-5.4233 0-10.846-2.8881-10.846-11.912v-55.951z" fill="#fff" stroke-width=".38263"/><path d="m1220.3 202-23.14 23.103v8.6629h17.354v50.537h14.462v-82.302z" fill="#fff" stroke-width=".38263"/></svg>
