<!-- Created by ERK --><svg xmlns="http://www.w3.org/2000/svg" xml:space="preserve" width="7547.827" height="1286.97" viewBox="0 0 1997.029 340.511"><g style="display:inline;fill:#cbcbca;fill-opacity:1;stroke:none"><path d="M97.23 1268.751H66.968l-9.167 16.875H41.656l43.177-76.354h17.448l12.396 76.354H99.781Zm-1.928-12.708-4.427-30.73-18.437 30.73zm376.668 2.083 15.833 2.396q-4.635 12.865-13.906 19.687-9.27 6.771-21.719 6.771-14.01 0-21.927-8.437-7.864-8.438-7.864-24.48 0-13.02 5.26-23.802 5.312-10.833 14.688-16.562 9.375-5.73 20.416-5.73 12.396 0 20.052 6.667 7.657 6.615 9.01 18.073l-15.051 1.459q-1.25-6.667-4.844-9.636-3.542-3.02-9.48-3.02-6.51 0-12.187 3.958-5.625 3.958-9.01 12.396-3.386 8.385-3.386 16.77 0 9.167 4.375 14.167 4.427 5 10.99 5 6.094 0 11.146-3.958 5.104-3.958 7.604-11.719m373.387 0 15.833 2.396q-4.635 12.865-13.906 19.687-9.271 6.771-21.72 6.771-14.01 0-21.926-8.437-7.865-8.438-7.865-24.48 0-13.02 5.26-23.802 5.313-10.833 14.688-16.562t20.417-5.73q12.396 0 20.052 6.667 7.656 6.615 9.01 18.073l-15.052 1.459q-1.25-6.667-4.843-9.636-3.542-3.02-9.48-3.02-6.51 0-12.187 3.958-5.625 3.958-9.01 12.396-3.386 8.385-3.386 16.77 0 9.167 4.375 14.167 4.427 5 10.99 5 6.093 0 11.145-3.958 5.105-3.958 7.605-11.719m318.074 27.5 15.937-76.354h56.615l-2.656 12.76h-40.886l-3.646 17.344h39.532l-2.657 12.76h-39.531l-4.792 20.73h44.427l-2.708 12.76zm369.896-24.74 14.948-.78q.313 7.135 2.448 9.635 3.438 4.062 12.709 4.062 7.708 0 11.146-2.76 3.437-2.76 3.437-6.667 0-3.385-2.812-5.73-1.98-1.718-10.886-5.572-8.854-3.854-12.969-6.406-4.062-2.604-6.406-6.72-2.344-4.114-2.344-9.635 0-9.635 6.98-15.99 6.979-6.353 20.208-6.353 13.437 0 20.781 6.302 7.396 6.302 8.125 16.77l-15.052.678q-.573-5.47-3.958-8.386t-10-2.916q-6.51 0-9.323 2.291-2.76 2.292-2.76 5.781 0 3.282 2.551 5.417 2.553 2.188 11.303 5.99 13.177 5.677 16.77 9.219 5.365 5.208 5.365 13.385 0 10.104-8.02 17.292-7.97 7.135-22.24 7.135-9.844 0-17.084-3.281-7.187-3.333-10.156-9.219t-2.76-13.542m337.866 0 14.948-.78q.313 7.135 2.448 9.635 3.438 4.062 12.708 4.062 7.709 0 11.146-2.76t3.438-6.667q0-3.385-2.813-5.73-1.979-1.718-10.885-5.572-8.854-3.854-12.969-6.406-4.062-2.604-6.406-6.72-2.344-4.114-2.344-9.635 0-9.635 6.98-15.99 6.978-6.353 20.208-6.353 13.437 0 20.781 6.302 7.396 6.302 8.125 16.77l-15.052.678q-.573-5.47-3.959-8.386-3.385-2.916-10-2.916-6.51 0-9.323 2.291-2.76 2.292-2.76 5.781 0 3.282 2.552 5.417 2.552 2.188 11.302 5.99 13.178 5.677 16.771 9.219 5.365 5.208 5.365 13.385 0 10.104-8.021 17.292-7.969 7.135-22.24 7.135-9.843 0-17.083-3.281-7.188-3.333-10.156-9.219-2.97-5.885-2.76-13.542m370.053-5.208q0-6.77 2.032-14.27 2.656-10.053 8.073-17.449 5.468-7.396 13.75-11.667 8.28-4.322 18.854-4.322 14.167 0 22.865 8.802 8.75 8.802 8.75 23.333 0 12.083-5.678 23.386-5.677 11.302-15.416 17.396-9.74 6.093-22.032 6.093-10.677 0-17.916-4.843-7.24-4.844-10.26-11.98-3.022-7.187-3.022-14.479m15.521-.312q0 7.864 4.792 13.177t12.604 5.312q6.354 0 12.188-4.167 5.885-4.218 9.687-12.708 3.854-8.542 3.854-16.615 0-9.01-4.843-14.114-4.844-5.156-12.344-5.156-11.51 0-18.75 10.729-7.188 10.729-7.188 23.542m404.533 30.26h-15.73l15.99-76.354h33.907q8.75 0 13.593 1.823 4.896 1.77 7.865 6.562 3.02 4.792 3.02 11.615 0 9.74-5.832 16.094-5.834 6.302-17.657 7.812 3.021 2.708 5.677 7.135 5.26 8.959 11.72 25.313h-16.876q-2.031-6.458-7.969-20.156-3.229-7.396-6.875-9.948-2.24-1.51-7.812-1.51h-6.407zm9.01-43.073h8.334q12.656 0 16.77-1.51 4.167-1.51 6.511-4.74t2.344-6.77q0-4.168-3.386-6.25-2.083-1.25-9.01-1.25h-17.292zm355.158 43.073h-15.677l6.198-29.74-21.042-46.614h16.719l9.479 21.562q3.385 7.76 4.531 11.198 1.927-3.385 4.48-7.187l7.239-10.105 10.781-15.468h18.23l-35 48.073z" aria-label="A C C E S S O R Y" style="font-style:italic;font-weight:700;font-size:106.667px;line-height:0;font-family:Arial;-inkscape-font-specification:&quot;Arial Bold Italic&quot;;letter-spacing:0;word-spacing:0;fill:#cbcbca;fill-opacity:1;stroke:none;stroke-width:0;stroke-linecap:square;stroke-linejoin:round;stroke-miterlimit:.5;paint-order:fill markers stroke" transform="translate(0 -.003)scale(.26458)"/></g><g style="fill:#cbcbca;fill-opacity:1"><path d="M163.6 634.6C55.9 701.3 4 803.1 17.8 941.4c16 160.4 223.8 261.5 399.8 159.7 15.4-8.9 9.4-7.5 15.1-12.6l35.2-223.7H258l-16.1 103h87.7l-10 55.4c-50.2 20.2-135.7 12.6-172.3-52.8-23.1-41.4-44.5-133.8 52.8-218.8 79.2-69.2 216.2-81.7 295.4-45.2 0 0 10-57.9 17.6-112-152-52.8-270.3-8.8-349.5 40.2" class="st4" style="fill:#cbcbca;fill-opacity:1" transform="translate(0 -.003)scale(.26458)"/><path d="m711.2 864.7-20.7-107-47.8 106.9zm749.9 271.5H1348l-15.1-340.7-147.1 340.7h-75.5l-62.9-308-98 308H757.1l-29-164.7H597.4l-74.2 164.7H405.1l242.6-550.7h139.6l74.2 445.1 144.6-445.1H1118l55.3 301.7 128.3-301.7h135.7zm324.4 0 18.9-118.1H1607l15.7-98.1h171.6l18.9-118.2h-173.5l15.1-98h197.4l18.8-118.2h-313.1l-87.9 550.6zm257.7-547.5-87.4 546.5h254.6c104.8 0 258-154.5 118.5-280.8 143.5-148.4 1.3-264.5-74.9-265.7-61.1-1-212.1 0-212.1 0zm62.4 330.6h94.8c89.8 0 87.4 109.8-12.4 109.8h-99.8zm34.9-214.6h73.6c79.9 0 63.6 102.4-12.5 102.4H2123z" class="st4" style="fill:#cbcbca;fill-opacity:1" transform="translate(0 -.003)scale(.26458)"/><path d="M2583.4 1031.4c59.9 26.8 133.1-25.7 163.6-117.4 30.5-91.6 6.8-187.6-53.1-214.4-59.9-26.6-133.1 25.9-163.6 117.4-30.6 91.7-6.7 187.7 53.1 214.4m-171.3-217.8c35.1-152.2 165.2-252.2 290.7-223.1 125.4 29 198.5 175.9 163.4 328-35.2 152.3-165.3 252.2-290.7 223.2-125.3-29.1-198.5-175.9-163.4-328.1" class="st4" style="fill:#cbcbca;fill-opacity:1" transform="translate(0 -.003)scale(.26458)"/><path d="M3255.2 585.6h-132l-111.9 179.8-70.4-179.8h-129.5L2944.7 876l-41 260.2h113.1l34.7-230z" class="st4" style="fill:#cbcbca;fill-opacity:1" transform="translate(0 -.003)scale(.26458)"/><path d="M817.642 289.61h1.429c1.666 0 2.46-.476 2.46-1.693 0-1.27-.846-1.8-2.593-1.8h-1.27v3.493m10.266.82c0 4.816-3.942 8.732-8.758 8.732-4.841 0-8.784-3.943-8.784-8.732 0-4.868 3.969-8.784 8.784-8.784s8.758 3.969 8.758 8.784m-8.81-10.874c-6.007 0-10.848 4.868-10.848 10.874 0 5.953 4.841 10.848 10.848 10.848 5.98 0 10.874-4.868 10.874-10.848a10.857 10.857 0 0 0-10.874-10.874m.317 4.71c3.387 0 5.133 1.164 5.133 3.466 0 1.587-1.005 2.751-2.646 3.175l2.699 5.37h-3.228l-2.302-4.92h-1.429v4.92h-2.937v-12.011z" class="st4" style="display:inline;fill:#cbcbca;fill-opacity:1;stroke-width:.264583"/></g><path d="M2961.9 395.9c-60.3 0-202.3-.2-318.2 31.1-11.4 3.1-21.4.8-8.6-26.6 19.2-41.1 39.9-92.2 19.6-134.9-12.8-26.9-42-49.4-72.2-77.1 14.3-12.7 34.8-95.2-26.5-108.9-28.4-6.4-48.6 2.5-52.8 34.8-1.6 12.6-.1 25.4 3.3 37.7 3.6 12.9 9.1 24.7 17.7 35.3-64.3 61-132.1 117-214.6 171.5-77.3 51.1-164.3 97.9-271 116.5-29.8 5.2-103.9 16.1-30.7-75.4 80.9 20 179-23.8 234.6-60.7 52.2-34.6 110-66.9 104.8-107.6-12.9-101.5-168.3-37.2-278 32.7-179.1 114.1-177.7 227.1-119.9 252.9 111.2 49.7 344.2-61.4 607.3-299.9 73.6 89.8 51.7 74.8 6.8 188.6-8.1 20.5-20.9 101.2 45.2 88.1 156.8-31.2 379.2-55.3 553.6-33.6 7.5.9 13.6 6.4 15.5 13.7l1.2 4.5c1.8 7.1 8.3 11.9 15.6 11.8l55-1.3c11.8-.3 21.7-8.8 23.9-20.4 2.9-15.3 4.3-35.6-5-46.7-15.9-19.2-133.6-26.1-306.6-26.1m-653.2-169.2c5.2.8 7.4 7.3 3.8 11.1-61.5 64.7-229.5 133.4-264.8 118.9 43.8-50 184.3-142.4 261-130m238-66 .1.1zm-598.3 80.4c-13.5-28.4-47.5-21.8-89.5-12.4-64.7 14.4-149 50.1-300.5 161.7-4.3 3.2-9.5-2.6-5.9-6.5 49.8-54.2 116.3-127.2 133.6-147.4 15.7-18.3-14.8-62.9-47.5-43.8-108.1 62.8-288.8 167.1-383.2 227.7-31.7 20.4-44.8 8.7-26.5-17.6 95-135.9 153.5-146.7 145.2-187.9-11.5-57.1-46.9-15.6-67.5 1.6-31.5 26.4-81.6 62.9-161.1 107.1-74 41.1-173.6 97.2-211.2 117.9-36 19.7-46.9.5-27.7-22.6C921.3 401.2 1062 280.7 1111 238c0 0 30.6-20.9 16.2-42.2-16.6-24.6-25.2-34.6-57.9-2.3-28.7 28.3-214 191.4-233.6 222.1-19.1 30-19.1 40.9-10.8 61.6 8.5 21.5 31.3 37.1 56.8 32.9 43.8-7.2 130.6-52.9 205.5-96.7 35.5-20.8 96.4-59.7 131.1-82.1 3.9-2.5 8.3 2.5 5.2 6-21.9 24.9-53.8 64-59.8 86.7-6.8 25.5 41.4 57.7 80.5 44.2 46.1-15.9 228.9-124.8 312.5-175.3 4.7-2.9 9.6 3.5 5.5 7.3-53.2 49.9-151.2 149.4-272.3 307-17.2 22.4 39.2 56.4 51 41.1 43.2-55.5 106-134.1 189.5-190.3 4.1-2.7 5.1-3.3 9-6 4.9 6.2 11.3 11.4 14.2 14.7 37.3 42.8 102.8 51.2 206.6-4 0 0 130.4-69.7 174.2-133.1 14.4-20.8 35.7-42.8 14-88.5m-139.9 129c-116.5 76.8-203.6 110.2-239.3 65 186.5-121.7 282-151.5 327.7-157.5 6.6-.9 11.1 6.6 7.1 11.9-20.3 27.8-71.8 65-95.5 80.6M1018.4 78.6c-5.5-29.5-37.3-48.6-133.7-54.4-144.1-8.6-400.1 66.9-471 116.5-18.3 12.8-22.7 67.4-5.5 94 33.9 52.4 130.2 64 210.4 84s147.8 45.9 148.4 61.9c.7 20.2-47.2 28.2-118 39.1-157.3 24.3-418.5 65.4-507.3 64.9-9.3 0-18.4-2.8-26.2-7.9l-7.6-4.9c-5-3.2-11-4.7-16.9-4.1l-50.3 5c-14.2 1.4-25.1 13.4-25.1 27.7v17c0 34.8 10.8 45 50 40.2 87.4-10.6 202.3-18.8 326.7-32.3 159-17.2 335.3-50.9 374-72.3 51.4-28.5 38.5-121.9-23.2-150.6-87.4-40.7-234.1-61.6-287.9-84-23.3-9.7-15.3-18.7 7.4-30.4 38.3-19.8 114.7-53.4 231.2-78C842 78.7 922.4 82.9 967 97.7c16 5.3 44.9 17.2 13.8 32.9-18.7 9.5-57.5 21.8-85.8 30-31.2 9.1-24.8 87.5.6 75.3s88.9-28.6 115.2-65.7c16.1-22.7 12.5-65.2 7.6-91.6" class="st2" style="display:inline;fill:#cbcbca;fill-opacity:1" transform="translate(0 -.003)scale(.26458)"/><g style="display:inline;fill:#ec2024;fill-opacity:1"><path d="M1002.7 55.1C997.2 25.6 965.4 6.5 869 .7 724.9-8 468.9 67.6 398 117.2c-18.3 12.8-22.7 67.4-5.5 94 33.9 52.4 130.2 64 210.4 84s147.8 45.9 148.4 61.9c.7 20.2-47.2 28.2-118 39.1-157.3 24.4-418.5 65.5-507.3 65-9.3 0-18.4-2.8-26.2-7.9l-7.6-4.9c-5-3.2-11-4.7-16.9-4.1l-50.3 5C10.8 450.8 0 462.7 0 477v17c0 34.8 10.8 45 50 40.2 87.4-10.6 202.3-18.8 326.7-32.3 159-17.2 335.3-50.9 374-72.3 51.4-28.5 38.5-121.9-23.2-150.6-87.4-40.7-234.1-61.6-287.9-84-23.3-9.7-15.3-18.7 7.4-30.4 38.3-19.8 114.7-53.4 231.2-78 148.2-31.4 228.6-27.1 273.1-12.3 16 5.3 44.9 17.2 13.8 32.9-18.7 9.5-57.5 21.8-85.8 30-31.2 9.1-24.8 87.5.6 75.3s88.9-28.6 115.2-65.7c16.1-22.8 12.5-65.3 7.6-91.7m930 162.5c-13.5-28.4-47.5-21.8-89.5-12.4-64.7 14.4-149 50.1-300.5 161.7-4.3 3.2-9.5-2.6-5.9-6.5 49.8-54.2 116.3-127.2 133.6-147.4 15.7-18.3-14.8-62.9-47.5-43.8-108.1 62.8-288.8 167.1-383.2 227.7-31.7 20.4-44.8 8.7-26.5-17.6 95-135.9 153.5-146.7 145.2-187.9-11.5-57.1-46.9-15.6-67.5 1.6-31.5 26.4-81.6 62.9-161.1 107.1-74 41.1-173.6 97.2-211.2 117.9-36 19.7-46.9.5-27.7-22.6 14.7-17.7 155.4-138.2 204.4-180.9 0 0 30.6-20.9 16.2-42.2-16.6-24.6-25.2-34.6-57.9-2.3-28.7 28.3-214 191.4-233.6 222.1-19.1 30-19.1 40.9-10.8 61.6 8.5 21.5 31.3 37.1 56.8 32.9 43.8-7.2 130.6-52.9 205.5-96.7 35.5-20.8 96.4-59.7 131.1-82.1 3.9-2.5 8.3 2.5 5.2 6-21.9 24.9-53.8 64-59.8 86.7-6.8 25.5 41.4 57.7 80.5 44.2 46.1-15.9 228.9-124.8 312.5-175.3 4.7-2.9 9.6 3.5 5.5 7.3-53.2 49.9-151.2 149.4-272.3 307-17.2 22.4 39.2 56.4 51 41.1 43.2-55.5 106-134.1 189.5-190.3 4.1-2.7 5.1-3.3 9-6 4.9 6.2 11.3 11.4 14.2 14.7 37.3 42.8 102.8 51.2 206.6-4 0 0 130.4-69.7 174.2-133.1 14.4-20.8 35.7-42.8 14-88.5m-139.9 129c-116.5 76.8-203.6 110.2-239.3 65 186.5-121.7 282-151.5 327.7-157.5 6.6-.9 11.1 6.6 7.1 11.9-20.3 27.8-71.7 65-95.5 80.6" class="st3" style="fill:#ec2024;fill-opacity:1" transform="translate(0 -.003)scale(.26458)"/><path d="M2946.2 372.4c-60.3 0-202.3-.2-318.2 31.1-11.4 3.1-21.4.8-8.6-26.6 19.2-41.1 39.9-92.2 19.6-134.9-12.8-26.9-42-49.4-72.2-77.1 14.3-12.7 34.8-95.2-26.5-108.9-28.4-6.4-48.6 2.5-52.8 34.8-1.6 12.6-.1 25.4 3.3 37.7 3.6 12.9 9.1 24.7 17.7 35.3-64.3 61-132.1 117-214.6 171.5-77.3 51.1-164.3 97.9-271 116.5-29.8 5.2-103.9 16.1-30.7-75.4 80.9 20 179-23.8 234.6-60.7 52.2-34.6 110-66.9 104.8-107.6-12.9-101.5-168.3-37.2-278 32.7-179.1 114.1-177.7 227.1-119.9 252.9 111.2 49.7 344.2-61.4 607.3-299.9 73.6 89.8 51.7 74.8 6.8 188.6-8.1 20.5-20.9 101.2 45.2 88.1 156.8-31.2 379.2-55.3 553.6-33.6 7.5.9 13.6 6.4 15.5 13.7l1.2 4.5c1.8 7.1 8.3 11.9 15.6 11.8l55-1.3c11.8-.3 21.7-8.8 23.9-20.4 2.9-15.3 4.3-35.6-5-46.7-15.8-19.2-133.6-26.1-306.6-26.1M2293 203.2c5.2.8 7.4 7.3 3.8 11.1-61.5 64.7-229.5 133.4-264.8 118.9 43.8-50 184.3-142.4 261-130m238.1-66 .1.1s-.1 0-.1-.1" class="st3" style="display:inline;fill:#ec2024;fill-opacity:1" transform="translate(0 -.003)scale(.26458)"/></g><path d="M1321.273 18.193c-4.532 4.606-9.624 9.783-11.316 11.505-8.76 8.917-12.951 13.136-13.271 13.362-.194.139-6.698 6.708-14.452 14.599-18.917 19.252-24.806 25.23-26.037 26.428-.569.553-4.723 4.744-9.237 9.312-4.51 4.569-9.212 9.306-10.449 10.526a393 393 0 0 0-5.015 5.087 1174 1174 0 0 1-7.692 7.848c-9.308 9.42-23.37 23.609-24.394 24.613-2.634 2.582-30.375 30.72-34.99 35.487a371 371 0 0 1-5.016 5.081c-2.11 2.09-14.523 14.573-18.766 18.882-1.064 1.08-4.596 4.65-7.846 7.934-3.252 3.284-5.91 6.166-5.91 6.408 0 .896 3.323.997 27.587.856l24.815-.146 1.954-1.795c1.874-1.724 23.984-24.032 45.353-45.753 17.779-18.072 20.579-20.908 20.905-21.165.172-.138 2.529-2.502 5.234-5.253a7297 7297 0 0 1 20.925-21.175 6287 6287 0 0 0 16.64-16.863c4.486-4.569 9.742-9.892 11.677-11.83a838 838 0 0 0 7.557-7.697c6.59-6.81 5.948-13.506 6.095 63.538.105 54.406.283 67.484.923 67.817.914.475 22.858.568 24.966.105.85-.183 5.154-4.117 10.877-9.934 5.212-5.296 13.4-13.592 18.194-18.437a5200 5200 0 0 0 13.369-13.548c2.557-2.606 5.141-5.21 5.747-5.79.603-.576 4.785-4.802 9.293-9.39a7155 7155 0 0 1 19.895-20.136c16.898-17.037 28.252-28.532 33.529-33.946 21.16-21.709 23.685-24.127 24.68-23.624.32.161.55 28.396.55 67.396 0 60.742.092 67.15.972 67.427 1.64.513 37.594.342 39.295-.186l1.582-.491-.157-102.578-.154-102.579h-27.043l-11.707 11.89a6055 6055 0 0 1-16.917 17.116c-4.981 4.998-24.024 24.283-30.486 30.875a4165 4165 0 0 1-18.461 18.656 5813 5813 0 0 0-13.972 14.12 44155 44155 0 0 1-20.843 21.11 5359 5359 0 0 0-15.505 15.748c-3.055 3.124-5.861 5.595-6.233 5.495-.619-.17-.763-78.995-.222-122.173l.16-12.837-14.221-.136-14.222-.133zm239.41-7.113c-35.889 15.31-34.929 107.876 1.27 122.482l3.386 1.367 44.307.252 44.307.251 3.215 1.191c13.643 5.044 16.477 24.925 4.81 33.722l-2.767 2.087h-61.199c-54.818 0-61.3.083-62.169.79-1.686 1.382-1.437 41.756.262 42.501.858.375 22.957.493 73.076.395l71.848-.143 2.536-1.11c36.713-16.066 36.735-105.256.03-121.544l-3.796-1.683-45.23-.252c-39.683-.222-45.495-.35-47.387-1.055-14.526-5.414-14.985-29.048-.708-36.312l2.249-1.142 58.91-.139c57.489-.133 58.923-.161 59.544-1.11.416-.634.579-8.004.474-21.256l-.16-20.284-72-.103-71.998-.103zm162.919-.914c-.714.582-.499 171.271.218 174.631 2.95 13.803 15.31 25.064 32.901 29.975l4.308 1.203h100.922l5.35-1.566c16.237-4.754 28.08-15.507 31.382-28.492.646-2.537.806-20.342.806-89.497V10.088h-41.535l-.157 73.999-.154 73.998-1.72 2.819c-6.378 10.45-13.763 12.517-44.74 12.52-30.354 0-37.228-1.833-43.739-11.657l-2.107-3.179-.308-74.25-.308-74.25-20.35-.133c-11.194-.073-20.539.023-20.77.211m239.432 6.114c-3.47 3.554-8.443 8.598-11.046 11.21-2.6 2.61-12.366 12.442-21.702 21.848l-16.972 17.1.166 12.6.164 12.6 19.796.251c10.886.139 19.966.393 20.175.564.213.174.367 27.87.348 61.55l-.034 61.234 1.588.496c2.092.65 37.842.652 39.932.003l1.581-.49-.157-102.579-.154-102.578-13.686-.136-13.682-.136zm-269.57 252.492c-7.015 2.135-11.597 7.113-15.126 16.428-4.154 10.974-3.003 31.047 2.486 43.282 7.843 17.483 34.388 15 39.277-3.672.341-1.302.908-3.444 1.255-4.76.73-2.759.905-2.595-6.277-5.789-5.824-2.59-6.446-2.524-6.978.755-1.821 11.168-11.48 13.433-15.637 3.667-1.938-4.545-1.917-23.664.028-28.486 3.757-9.306 12.868-8.9 15.262.677.446 1.777 1.864 2.293 3.972 1.44.717-.29 2.828-1.028 4.69-1.64 5.731-1.884 5.953-4.273 1.131-12.28-5.353-8.89-14.492-12.541-24.082-9.622m-566.739 1.16c-1.021.22-1.074 2.163-.923 34.299l.157 34.067h11.692l.16-21.268c.154-20.317.708-26.063 1.659-17.166.24 2.258.704 4.682 1.033 5.389.33.707.997 3.901 1.483 7.098 1.616 10.599 2.191 13.833 3.093 17.39.492 1.937.892 4.575.889 5.861-.012 2.827.265 2.948 6.77 2.948 5.62 0 5.039.657 6.439-7.3.535-3.045 1.379-7.482 1.877-9.858.498-2.379.905-5.291.905-6.471 0-1.183.387-3.429.864-4.992.474-1.563 1.05-4.739 1.28-7.057.228-2.32.579-4.568.782-4.999.99-2.111 1.298 2.57 1.338 20.355.05 22.25-.572 20.43 6.908 20.216l5.135-.146v-68.461l-8.47-.141c-10.345-.171-10.708-.048-11.182 3.788-.197 1.593-.662 4.304-1.03 6.023-.927 4.307-4.102 23.67-4.235 25.819-.227 3.712-3.083-4.732-4.341-12.837-3.098-19.961-3.622-22.272-5.135-22.604-1.511-.332-15.554-.292-17.148.048m63.384 0c-1.021.219-1.074 2.162-.923 34.298l.157 34.067 18.769.14c24.187.182 21.538 1.09 21.538-7.394 0-8.381 1.302-7.596-12.615-7.596-13.843 0-12.615.667-12.615-6.849 0-3.433.07-6.282.154-6.335.086-.053 5.138-.224 11.23-.377l11.077-.282.172-6.756c.216-8.409 1.114-7.79-11.738-8.094l-10.588-.252-.178-4.656c-.21-5.583-2.022-4.8 11.87-5.132l11.693-.28.172-7.01c.13-5.267-.025-7.107-.615-7.417-.81-.418-35.622-.49-37.56-.075m51.692-.018c-1.022.234-1.074 2.187-.923 34.316l.157 34.067 12.406.136c14.049.153 16.596-.287 21.043-3.652 8.31-6.29 12.03-24.86 8.827-44.054-1.554-9.3-6.554-17.075-12.738-19.804-2.397-1.06-25.101-1.855-28.772-1.009m53.54.214c-1.008.48-1.076 2.648-1.076 34.205v33.692l1.384.285c.76.153 4.154.216 7.539.133l6.154-.146.157-34.044.16-34.047-1.391-.305c-2.262-.495-11.76-.33-12.926.227m41.089-.083c-1.204.382-1.782 1.875-3.437 8.852-.33 1.384-.988 3.99-1.468 5.789-.48 1.8-1.295 4.97-1.815 7.047-.517 2.077-1.527 6.041-2.24 8.81a785 785 0 0 0-2.206 8.809c-.502 2.076-1.188 4.682-1.53 5.789-.341 1.107-1.006 3.712-1.477 5.789-.815 3.582-1.83 7.568-3.433 13.443-1.117 4.113-1.016 4.176 6.729 4.176 8.018 0 7.932.055 8.701-5.472.886-6.358.582-6.162 9.357-5.996l7.437.141.772 2.517c.425 1.385.976 3.763 1.222 5.286.569 3.521.532 3.506 8.723 3.516 7.929.008 7.956-.008 6.744-3.894-.495-1.59-1.086-4.027-1.31-5.411-.225-1.384-.665-3.083-.98-3.776-.531-1.18-1.777-6.26-3.085-12.584a97 97 0 0 0-1.434-5.79 253 253 0 0 1-1.803-6.795 645 645 0 0 0-1.668-6.544c-.975-3.718-2.104-8.39-3.32-13.74-.55-2.434-1.27-4.996-1.593-5.696-.327-.697-.591-1.825-.591-2.507 0-1.993-11.63-3.252-16.295-1.76m65.063.059-1.384.455v33.393c0 25.297.178 33.535.738 33.994.782.639 36.935.916 38.904.299 1.456-.458 1.456-14.034 0-14.493-.535-.166-5.775-.304-11.642-.304-13.81 0-12.616.622-12.616-6.57 0-7.276-.966-6.71 12-7.022l10.462-.251.169-7.174c.095-3.944.095-7.21 0-7.258-.092-.046-5.154-.217-11.246-.378l-11.077-.292-.182-4.269c-.243-5.74-.692-5.547 12.914-5.547h10.96v-7.246c0-6.142-.148-7.292-.972-7.551-1.551-.486-35.495-.29-37.028.214m51.385-.171c-1.013.216-1.077 2.267-1.077 34.162v33.931l1.384.284c.763.157 3.877.217 6.923.136l5.539-.148.307-16.698c.17-9.181.514-16.866.77-17.072.255-.206.464-.055.464.337 0 .393.434 1.387.96 2.213.526.825 1.65 2.977 2.492 4.782s1.936 4.027 2.425 4.936c.49.908.89 1.882.89 2.167 0 .282.504 1.465 1.122 2.625.616 1.16 1.613 3.131 2.216 4.377.6 1.246 1.48 3.01 1.953 3.919.474.908.871 1.928.884 2.265.012.337.553 1.518 1.209 2.625.655 1.108 1.197 2.273 1.209 2.59.034.929 1.637 1.186 7.406 1.186 2.99 0 5.877-.139 6.412-.305 1.674-.526 1.462-67.404-.218-68.139-1.28-.561-9.305-.702-11.579-.204l-1.384.305v15c0 8.251-.17 15.362-.372 15.8-.674 1.43-1.954.838-2.908-1.344a239 239 0 0 0-2.24-4.908c-1.455-3.081-1.717-3.647-5.794-12.585-1.578-3.46-3.11-6.745-3.41-7.3a63 63 0 0 1-1.297-2.662c-.419-.909-1.262-1.873-1.868-2.14-1.096-.478-10.342-.58-12.418-.135m57.537.17-1.384.456v33.69c0 30.256.098 33.722.972 33.996.535.166 3.56.305 6.72.305 8.51 0 7.692 1.495 7.692-14.047 0-15.85-.627-14.65 7.662-14.64 8.43.011 7.676-1.39 7.867 14.617l.163 13.818 6.154.146c3.385.083 6.778.02 7.538-.134l1.385-.284v-33.7c0-39.07 1.01-34.746-8.114-34.733-7.84.01-7.221-1-7.412 12.096l-.166 11.304-6.154.146c-9.88.236-8.923 1.49-8.923-11.674 0-11.25 0-11.258-1.384-11.563-2.093-.458-11.04-.314-12.616.202m69.867-.174c-.664.141-1.187.914-1.406 2.079-.19 1.022-.754 3.008-1.25 4.417-.498 1.407-.904 3.068-.904 3.693 0 .621-.412 2.527-.914 4.233-.501 1.707-1.489 5.369-2.19 8.137l-2.176 8.558a1659 1659 0 0 1-3.363 13.088 231 231 0 0 0-1.461 6.04c-.44 1.939-1.096 4.544-1.456 5.79-1.95 6.718-2.603 9.474-2.6 10.949l.01 1.636h6.727c8.212 0 8.26-.033 9.172-5.815.944-5.977.677-5.821 9.566-5.653l7.44.141.474 2.014c.261 1.107.729 3.456 1.036 5.22.736 4.213.597 4.15 8.714 3.984l7.025-.143-.092-2.265c-.05-1.246-.693-4.418-1.431-7.048-.735-2.63-1.71-6.481-2.172-8.557-.459-2.077-1.133-4.908-1.502-6.293a1139 1139 0 0 1-1.572-6.04 2915 2915 0 0 0-1.822-7.048 302 302 0 0 1-1.56-6.292c-1.418-6.127-2.36-9.927-2.997-12.082-1.049-3.551-2.006-7.603-2.356-9.974-.253-1.72-.634-2.27-1.831-2.643-1.502-.466-13.074-.564-15.105-.126m40.901.174-1.384.455v33.69c0 30.256.098 33.722.972 33.996 1.828.571 12.286.332 13.058-.3.545-.445.745-4.99.757-17.24l.022-16.638 1.364 2.293c1.387 2.326 3.067 5.689 5.458 10.921.726 1.594 1.695 3.61 2.154 4.48.455.874.83 1.818.83 2.1s.404 1.152.896 1.938c.489.783 1.492 2.783 2.221 4.445.733 1.66 1.717 3.765 2.185 4.674.468.908.852 1.98.852 2.38 0 1.05 1.994 1.315 8.616 1.148l5.846-.148.157-33.946c.126-26.826 0-34.032-.616-34.349-1.274-.662-11.184-.49-12.341.211-.93.562-1.056 2.266-1.197 15.976-.142 13.72-.265 15.363-1.16 15.504-.662.106-1.148-.317-1.43-1.251-.238-.775-.795-2.09-1.238-2.92-.446-.83-1.517-3.096-2.381-5.034-.868-1.938-3.133-6.808-5.034-10.822-1.905-4.015-3.71-7.954-4.015-8.754-1.21-3.17-8.957-4.662-14.591-2.81m112.614 0-1.384.456v33.393c0 25.297.178 33.535.738 33.994.782.639 36.935.916 38.904.299 1.456-.458 1.456-14.034 0-14.493-.535-.166-5.775-.304-11.643-.304-13.809 0-12.615.622-12.615-6.57 0-7.276-.966-6.71 12-7.022l10.461-.251.17-7.174c.095-3.944.095-7.21 0-7.258-.092-.046-5.154-.217-11.247-.378l-11.076-.292-.182-4.269c-.243-5.74-.692-5.547 12.914-5.547h10.96v-7.246c0-6.142-.148-7.292-.973-7.551-1.55-.486-35.495-.29-37.027.214m49.23 0-1.384.455v33.393c0 38.116-.659 34.598 6.461 34.598 7.028 0 6.462 1.96 6.462-22.333 0-11.621.166-20.99.372-20.823.203.166.61 2.074.902 4.236.292 2.165.938 5.293 1.433 6.954.496 1.662 1.2 5.173 1.57 7.803.704 5.024 1.861 11.95 3.187 19.129.945 5.104.822 5.016 6.859 5.026 5.581.01 5.378.204 6.52-6.285.39-2.215 1.003-5.613 1.363-7.55.36-1.939 1.018-5.79 1.461-8.558a693 693 0 0 1 1.474-8.81c.366-2.076.834-5.076 1.037-6.67.308-2.393.938-3.455 1.643-2.768.07.07.28 9.187.461 20.261l.333 20.136h11.692l.157-33.672c.12-25.426-.018-33.848-.572-34.391-.77-.76-17.757-.806-18.677-.053-.231.191-.668 2.23-.97 4.53-.304 2.303-.836 5.205-1.18 6.451-.349 1.246-.89 4.304-1.2 6.796-.315 2.492-.878 6.23-1.253 8.306a711 711 0 0 0-1.111 6.292c-.837 4.954-3.028.778-4.36-8.306-1.212-8.278-1.997-12.876-2.874-16.863-.486-2.215-.883-4.657-.883-5.424 0-1.037-.406-1.523-1.578-1.888-1.966-.612-15.465-.589-17.345.028m65.535-.171c-1.022.218-1.074 2.162-.923 34.298l.157 34.067 18.769.14c24.187.182 21.538 1.09 21.538-7.394 0-8.381 1.302-7.596-12.615-7.596-13.843 0-12.615.667-12.615-6.849 0-3.433.07-6.282.154-6.335.086-.053 5.138-.224 11.23-.377l11.077-.282.172-6.756c.216-8.409 1.114-7.79-11.738-8.094l-10.588-.252-.178-4.656c-.21-5.583-2.022-4.8 11.87-5.132l11.693-.28.172-7.01c.13-5.267-.025-7.107-.615-7.417-.81-.418-35.622-.49-37.56-.075m49.541.17-1.385.456v33.69c0 30.256.1 33.722.973 33.996 1.827.571 12.286.332 13.058-.3.545-.445.745-4.99.757-17.24l.022-16.638 1.363 2.293c1.388 2.326 3.068 5.689 5.458 10.921.726 1.594 1.696 3.61 2.154 4.48.455.874.83 1.818.83 2.1s.404 1.152.896 1.938c.49.782 1.493 2.783 2.222 4.445.732 1.66 1.717 3.765 2.184 4.674.468.908.853 1.98.853 2.38 0 1.05 1.994 1.314 8.615 1.148l5.846-.148.157-33.946c.126-26.826 0-34.032-.615-34.349-1.274-.662-11.185-.49-12.342.211-.929.562-1.055 2.266-1.197 15.975-.141 13.72-.264 15.364-1.16 15.505-.661.106-1.147-.317-1.43-1.251-.237-.775-.794-2.09-1.237-2.92-.447-.83-1.517-3.096-2.382-5.034-.868-1.938-3.132-6.808-5.034-10.822-1.904-4.015-3.71-7.954-4.015-8.754-1.21-3.17-8.957-4.662-14.59-2.81m54.153-.186c-.566.19-.77 2.178-.77 7.514v7.256l5.693.008c3.132.003 6.317.143 7.077.31l1.384.304v26.055c0 30.312-.904 27.282 8.09 27.078l6.371-.144.16-26.13c.108-17.891.37-26.338.828-26.789.462-.455 2.806-.704 7.532-.802l6.865-.141.172-6.791c.151-5.948.04-6.871-.886-7.425-1.055-.632-40.664-.911-42.516-.302M1264.3 286.407c3.948 2.464 4.43 4.443 4.43 18.165 0 15.802-1.775 19.247-9.67 18.782l-2.637-.156-.16-18.845c-.126-14.729.01-18.937.615-19.275 1.336-.742 5.213-.047 7.422 1.33m80.476 7.163c.323 1.897.972 4.923 1.446 6.722 2.619 9.952 2.714 9.565-2.415 9.565-4.72 0-4.736-.018-3.954-4.078 3.252-16.863 3.87-18.401 4.923-12.21m243.874-1.708c.157.9.61 3.108 1.003 4.908 3.188 14.59 3.4 13.088-1.849 13.088-3.185 0-4.308-.176-4.308-.672 0-.926 1.628-9.59 2.382-12.668.338-1.384.785-3.365.99-4.405.462-2.32 1.398-2.454 1.782-.251" style="display:inline;fill:#cbcbca;fill-opacity:1;fill-rule:evenodd;stroke:none;stroke-width:2.78287"/><path d="M1124.74 227.625c-.286.377-.542 21.568-.354 29.337l.034 1.385h870.704l.37-1.636c.84-3.708.043-28.58-.93-29.081-1.277-.662-869.326-.665-869.824-.005" style="fill:#ec2024;fill-opacity:1;fill-rule:evenodd;stroke:none;stroke-width:2.78287"/><path d="M884.366 156.626h200.13v34.528h-200.13Zm64.968-68.149h70.193v170.826h-70.193z" style="display:inline;fill:#cbcbca;fill-opacity:1;stroke-width:0;stroke-linecap:square;stroke-linejoin:round;stroke-miterlimit:.5;paint-order:fill markers stroke" transform="translate(4.998 19.082)"/><path d="M884.366 156.626h200.13v34.528h-200.13Zm64.968-68.149h70.193v170.826h-70.193z" style="display:inline;fill:#ec2024;fill-opacity:1;stroke-width:0;stroke-linecap:square;stroke-linejoin:round;stroke-miterlimit:.5;paint-order:fill markers stroke"/><g style="display:inline;fill:#30308f;fill-opacity:1"><path d="M97.23 1268.751H66.968l-9.167 16.875H41.656l43.177-76.354h17.448l12.396 76.354H99.781Zm-1.928-12.708-4.427-30.73-18.437 30.73zm376.668 2.083 15.833 2.396q-4.635 12.865-13.906 19.687-9.27 6.771-21.719 6.771-14.01 0-21.927-8.437-7.864-8.438-7.864-24.48 0-13.02 5.26-23.802 5.312-10.833 14.688-16.562 9.375-5.73 20.416-5.73 12.396 0 20.052 6.667 7.657 6.615 9.01 18.073l-15.051 1.459q-1.25-6.667-4.844-9.636-3.542-3.02-9.48-3.02-6.51 0-12.187 3.958-5.625 3.958-9.01 12.396-3.386 8.385-3.386 16.77 0 9.167 4.375 14.167 4.427 5 10.99 5 6.094 0 11.146-3.958 5.104-3.958 7.604-11.719m373.387 0 15.833 2.396q-4.635 12.865-13.906 19.687-9.271 6.771-21.72 6.771-14.01 0-21.926-8.437-7.865-8.438-7.865-24.48 0-13.02 5.26-23.802 5.313-10.833 14.688-16.562t20.417-5.73q12.396 0 20.052 6.667 7.656 6.615 9.01 18.073l-15.052 1.459q-1.25-6.667-4.843-9.636-3.542-3.02-9.48-3.02-6.51 0-12.187 3.958-5.625 3.958-9.01 12.396-3.386 8.385-3.386 16.77 0 9.167 4.375 14.167 4.427 5 10.99 5 6.093 0 11.145-3.958 5.105-3.958 7.605-11.719m318.074 27.5 15.937-76.354h56.615l-2.656 12.76h-40.886l-3.646 17.344h39.532l-2.657 12.76h-39.531l-4.792 20.73h44.427l-2.708 12.76zm369.896-24.74 14.948-.78q.313 7.135 2.448 9.635 3.438 4.062 12.709 4.062 7.708 0 11.146-2.76 3.437-2.76 3.437-6.667 0-3.385-2.812-5.73-1.98-1.718-10.886-5.572-8.854-3.854-12.969-6.406-4.062-2.604-6.406-6.72-2.344-4.114-2.344-9.635 0-9.635 6.98-15.99 6.979-6.353 20.208-6.353 13.437 0 20.781 6.302 7.396 6.302 8.125 16.77l-15.052.678q-.573-5.47-3.958-8.386t-10-2.916q-6.51 0-9.323 2.291-2.76 2.292-2.76 5.781 0 3.282 2.551 5.417 2.553 2.188 11.303 5.99 13.177 5.677 16.77 9.219 5.365 5.208 5.365 13.385 0 10.104-8.02 17.292-7.97 7.135-22.24 7.135-9.844 0-17.084-3.281-7.187-3.333-10.156-9.219t-2.76-13.542m337.866 0 14.948-.78q.313 7.135 2.448 9.635 3.438 4.062 12.708 4.062 7.709 0 11.146-2.76t3.438-6.667q0-3.385-2.813-5.73-1.979-1.718-10.885-5.572-8.854-3.854-12.969-6.406-4.062-2.604-6.406-6.72-2.344-4.114-2.344-9.635 0-9.635 6.98-15.99 6.978-6.353 20.208-6.353 13.437 0 20.781 6.302 7.396 6.302 8.125 16.77l-15.052.678q-.573-5.47-3.959-8.386-3.385-2.916-10-2.916-6.51 0-9.323 2.291-2.76 2.292-2.76 5.781 0 3.282 2.552 5.417 2.552 2.188 11.302 5.99 13.178 5.677 16.771 9.219 5.365 5.208 5.365 13.385 0 10.104-8.021 17.292-7.969 7.135-22.24 7.135-9.843 0-17.083-3.281-7.188-3.333-10.156-9.219-2.97-5.885-2.76-13.542m370.053-5.208q0-6.77 2.032-14.27 2.656-10.053 8.073-17.449 5.468-7.396 13.75-11.667 8.28-4.322 18.854-4.322 14.167 0 22.865 8.802 8.75 8.802 8.75 23.333 0 12.083-5.678 23.386-5.677 11.302-15.416 17.396-9.74 6.093-22.032 6.093-10.677 0-17.916-4.843-7.24-4.844-10.26-11.98-3.022-7.187-3.022-14.479m15.521-.312q0 7.864 4.792 13.177t12.604 5.312q6.354 0 12.188-4.167 5.885-4.218 9.687-12.708 3.854-8.542 3.854-16.615 0-9.01-4.843-14.114-4.844-5.156-12.344-5.156-11.51 0-18.75 10.729-7.188 10.729-7.188 23.542m404.533 30.26h-15.73l15.99-76.354h33.907q8.75 0 13.593 1.823 4.896 1.77 7.865 6.562 3.02 4.792 3.02 11.615 0 9.74-5.832 16.094-5.834 6.302-17.657 7.812 3.021 2.708 5.677 7.135 5.26 8.959 11.72 25.313h-16.876q-2.031-6.458-7.969-20.156-3.229-7.396-6.875-9.948-2.24-1.51-7.812-1.51h-6.407zm9.01-43.073h8.334q12.656 0 16.77-1.51 4.167-1.51 6.511-4.74t2.344-6.77q0-4.168-3.386-6.25-2.083-1.25-9.01-1.25h-17.292zm355.158 43.073h-15.677l6.198-29.74-21.042-46.614h16.719l9.479 21.562q3.385 7.76 4.531 11.198 1.927-3.385 4.48-7.187l7.239-10.105 10.781-15.468h18.23l-35 48.073z" aria-label="A C C E S S O R Y" style="font-style:italic;font-weight:700;font-size:106.667px;line-height:0;font-family:Arial;-inkscape-font-specification:&quot;Arial Bold Italic&quot;;letter-spacing:0;word-spacing:0;fill:#30308f;fill-opacity:1;stroke-width:0;stroke-linecap:square;stroke-linejoin:round;stroke-miterlimit:.5;paint-order:fill markers stroke" transform="translate(0 -.003)scale(.26458)"/></g><g style="display:inline;fill:#30308f;fill-opacity:1"><path d="M163.6 634.6C55.9 701.3 4 803.1 17.8 941.4c16 160.4 223.8 261.5 399.8 159.7 15.4-8.9 9.4-7.5 15.1-12.6l35.2-223.7H258l-16.1 103h87.7l-10 55.4c-50.2 20.2-135.7 12.6-172.3-52.8-23.1-41.4-44.5-133.8 52.8-218.8 79.2-69.2 216.2-81.7 295.4-45.2 0 0 10-57.9 17.6-112-152-52.8-270.3-8.8-349.5 40.2" class="st4" style="fill:#30308f;fill-opacity:1" transform="translate(0 -.003)scale(.26458)"/><path d="m711.2 864.7-20.7-107-47.8 106.9zm749.9 271.5H1348l-15.1-340.7-147.1 340.7h-75.5l-62.9-308-98 308H757.1l-29-164.7H597.4l-74.2 164.7H405.1l242.6-550.7h139.6l74.2 445.1 144.6-445.1H1118l55.3 301.7 128.3-301.7h135.7zm324.4 0 18.9-118.1H1607l15.7-98.1h171.6l18.9-118.2h-173.5l15.1-98h197.4l18.8-118.2h-313.1l-87.9 550.6zm257.7-547.5-87.4 546.5h254.6c104.8 0 258-154.5 118.5-280.8 143.5-148.4 1.3-264.5-74.9-265.7-61.1-1-212.1 0-212.1 0zm62.4 330.6h94.8c89.8 0 87.4 109.8-12.4 109.8h-99.8zm34.9-214.6h73.6c79.9 0 63.6 102.4-12.5 102.4H2123z" class="st4" style="fill:#30308f;fill-opacity:1" transform="translate(0 -.003)scale(.26458)"/><path d="M2583.4 1031.4c59.9 26.8 133.1-25.7 163.6-117.4 30.5-91.6 6.8-187.6-53.1-214.4-59.9-26.6-133.1 25.9-163.6 117.4-30.6 91.7-6.7 187.7 53.1 214.4m-171.3-217.8c35.1-152.2 165.2-252.2 290.7-223.1 125.4 29 198.5 175.9 163.4 328-35.2 152.3-165.3 252.2-290.7 223.2-125.3-29.1-198.5-175.9-163.4-328.1" class="st4" style="fill:#30308f;fill-opacity:1" transform="translate(0 -.003)scale(.26458)"/><path d="M3255.2 585.6h-132l-111.9 179.8-70.4-179.8h-129.5L2944.7 876l-41 260.2h113.1l34.7-230z" class="st4" style="fill:#30308f;fill-opacity:1" transform="translate(0 -.003)scale(.26458)"/><path d="M817.642 289.61h1.429c1.666 0 2.46-.476 2.46-1.693 0-1.27-.846-1.8-2.593-1.8h-1.27v3.493m10.266.82c0 4.816-3.942 8.732-8.758 8.732-4.841 0-8.784-3.943-8.784-8.732 0-4.868 3.969-8.784 8.784-8.784s8.758 3.969 8.758 8.784m-8.81-10.874c-6.007 0-10.848 4.868-10.848 10.874 0 5.953 4.841 10.848 10.848 10.848 5.98 0 10.874-4.868 10.874-10.848a10.857 10.857 0 0 0-10.874-10.874m.317 4.71c3.387 0 5.133 1.164 5.133 3.466 0 1.587-1.005 2.751-2.646 3.175l2.699 5.37h-3.228l-2.302-4.92h-1.429v4.92h-2.937v-12.011z" class="st4" style="display:inline;fill:#30308f;fill-opacity:1;stroke-width:.264583"/></g></svg>