<!-- Created by ERK --><svg xmlns="http://www.w3.org/2000/svg" xmlns:xlink="http://www.w3.org/1999/xlink" width="1475.593" height="622.661" viewBox="0 0 1106.695 466.996"><defs><linearGradient id="a"><stop offset=".329" style="stop-color:#258103;stop-opacity:1"/><stop offset="1" style="stop-color:#e6f500;stop-opacity:1"/></linearGradient><linearGradient xlink:href="#a" id="f" x1="172.137" x2="172.222" y1="98.837" y2="109.117" gradientTransform="translate(-7014.854 -4269.056)scale(43.19963)" gradientUnits="userSpaceOnUse"/><linearGradient xlink:href="#a" id="b" x1="172.137" x2="172.222" y1="98.837" y2="109.117" gradientTransform="translate(-7014.854 -4269.056)scale(43.19963)" gradientUnits="userSpaceOnUse"/><linearGradient xlink:href="#a" id="c" x1="172.137" x2="172.222" y1="98.837" y2="109.117" gradientTransform="translate(-7014.854 -4269.056)scale(43.19963)" gradientUnits="userSpaceOnUse"/><linearGradient xlink:href="#a" id="d" x1="172.137" x2="172.222" y1="98.837" y2="109.117" gradientTransform="translate(-7014.854 -4269.056)scale(43.19963)" gradientUnits="userSpaceOnUse"/><linearGradient xlink:href="#a" id="e" x1="172.137" x2="172.222" y1="98.837" y2="109.117" gradientTransform="translate(-7014.854 -4269.056)scale(43.19963)" gradientUnits="userSpaceOnUse"/></defs><path d="M111.974 344.215h-4.148v39.916h-4.665l-5.184-36.806q-3.11 0-10.368-1.037t-9.85-2.073q-1.036 0-4.147-.519-3.11-1.037-3.629-1.555-2.073-1.037-6.739-3.11-4.147-2.074-5.184-3.11l-3.628-3.63q-1.556-1.555-3.11-2.591l-1.556-1.556q0-1.036-2.592-4.147-2.074-3.629-3.11-4.665-1.037-1.556-3.11-5.703-1.556-4.665-1.556-5.702-1.037-1.037-2.592-5.184-1.037-4.147-1.037-5.184v-31.622q0-2.074 2.592-7.258t3.63-6.739q-1.556 0-5.703-.518-4.147-.519-8.295-.519l-8.294-1.036q-4.147-.519-5.702-.519-1.037 0-3.11-1.037t-3.111-2.073q-1.037 0-3.11-2.074-1.556-2.592-2.592-2.592 0-.518-1.037-3.629-.519-1.555-1.037-2.591v-13.997q0-.519 1.037-5.184 1.037-4.666 1.037-6.22 1.036-2.074 2.592-6.74 2.073-5.184 3.628-10.368 2.074-5.702 3.63-10.368l2.073-6.22q.518-2.593 5.184-9.85 4.665-7.776 6.22-12.442 1.037-2.073 3.63-8.294 2.591-6.22 5.702-13.478t5.702-13.479q2.592-6.739 3.629-9.33 2.592-6.221 6.739-11.924 4.665-6.22 9.33-11.923 4.666-6.22 8.814-12.96 4.147-6.739 6.22-14.515.519-.518 2.074-3.11l3.11-5.184q2.074-3.11 3.63-5.703l3.11-4.665q0-.519 1.555-3.629 2.073-3.629 3.11-5.702 1.555-1.555 4.666-5.184 3.628-4.147 4.665-4.666 1.037-2.073 5.184-6.22l5.703-5.703q.518 0 3.628-2.592t4.147-3.629q.519 0 3.63-1.036Q124.414.518 125.97 0h19.18l6.222 6.22q1.036.519 2.592 3.63 2.073 3.11 3.11 4.146 0 1.037 1.555 6.221l3.11 7.776q1.037 1.555 3.63 8.294 2.591 6.221 2.591 7.776 0 1.037.519 4.148 1.036 2.592 2.073 5.702t1.555 6.22q1.037 2.593 1.037 4.148 0 1.037 1.037 5.702 1.555 4.147 1.555 6.22.519 3.111 2.074 8.814 1.555 5.184 3.11 10.886t2.592 10.368 1.555 5.702q0 2.592 2.074 6.74 2.592 3.628 2.592 7.257 1.037 3.629 2.074 10.368 1.555 6.22 1.555 7.257v18.662q0 1.037-1.555 3.111-1.037 1.555-2.074 2.592l-4.147 6.22q-3.11 4.666-3.629 5.185-1.037 1.037-5.702 4.665-4.148 3.11-5.184 4.147-1.037 0-4.666 1.037-3.11 1.037-4.665 1.037h-2.592q-.519 0-2.592-1.037t-2.592-1.037q-1.037-1.036-1.556-2.592-1.036-3.11-1.036-3.628-1.037-1.037-2.074-4.147-.518-3.11-1.555-3.63 0-2.073-1.555-6.22-1.037-4.666-1.037-5.702 0-1.556-.519-5.184 0-4.147-.518-8.813t-1.037-8.813v-5.184q-1.037-3.11-1.555-5.702t-1.037-4.666q-.518-2.592-.518-3.628-1.037-5.184-4.666-12.442-3.11-7.257-4.147-9.85-.518-2.073-2.592-9.33-2.073-7.776-2.592-10.368-1.037-2.592-2.592-6.74-1.037-4.147-2.592-8.294-2.073-4.666-3.629-9.85h-3.11v6.221q.519 4.666.519 10.368v9.85q.518 4.665.518 6.22 0 2.074-1.555 8.295-1.037 5.702-1.555 7.257 0-1.036-1.556-4.665-1.036-3.629-1.036-4.666-.519-1.555-1.037-4.665l-1.037-7.258q0-4.147-.518-7.776-.519-3.629-1.037-5.184l-4.666 10.887v51.32l-3.11 4.666-4.147-4.665v-41.99q-1.037 1.036-3.11 3.628-1.556 2.592-3.63 5.703-2.073 2.592-3.628 5.184t-2.074 4.147q-.518 1.037-3.11 6.739-2.592 5.184-5.703 12.442-3.11 7.257-6.739 14.515-3.11 7.257-4.665 11.404-.519 2.074-2.592 4.666-2.074 2.073-2.592 4.147-1.037 3.11-3.11 8.294-1.556 5.184-3.63 10.368-1.555 5.184-3.11 9.85-1.555 4.147-2.073 4.665 0 1.037 1.036 5.184 1.556 4.148 1.556 5.703 1.555 0 6.22.518h20.736q5.184 0 7.776-.518h3.11q2.593-.519 5.703-1.037 3.629-.518 6.739-.518 3.11-.519 4.147-.519 2.074-.518 5.703-1.037 3.628-1.036 7.257-1.555t6.22-1.037q2.593-.518 3.111-.518h44.582q1.555 1.037 7.776 3.11 6.74 2.074 9.331 3.11 1.037 1.038 5.184 5.703 4.666 4.147 5.703 6.22.518 1.556 2.592 5.703 2.592 4.147 2.592 5.703v30.585q0 .518-1.037 3.629t-1.037 4.147q-.518 1.037-1.555 3.629-1.037 2.073-2.592 4.665l-3.11 5.184q-1.556 2.592-2.074 4.147t-1.555 3.11q-1.037 1.037-2.074 2.593l-1.037 2.073q-2.073 2.074-5.184 6.221-3.11 3.629-4.147 4.666 0 1.036-2.073 3.11l-2.592 2.592q-1.037 1.037-3.63 3.11-2.591 2.074-5.701 4.666l-5.184 4.147q-2.074 1.555-2.592 2.074-1.037 1.036-4.666 3.11-3.11 2.074-4.147 3.11-1.037 0-3.629 2.074-2.592 1.555-6.22 3.629-3.111 1.555-6.221 3.629-2.592 1.555-3.11 2.073-.52 0-2.074 1.555-.519.519-.519 1.037v7.776q0 1.555.519 7.258.518 6.22.518 12.96.518 6.739 1.037 12.441t.518 6.74v36.805q0 1.037-.518 3.629l-1.037 6.22q0 3.111-.518 5.703-.519 3.11-.519 3.629-1.037-1.555-2.073-6.74-.519-5.183-1.556-7.257-.518-4.147-1.555-15.033-.518-10.368-1.555-22.81-.518-11.923-1.037-22.81-.518-10.367-.518-14.514zm-32.141-83.98v3.628q0 2.074.518 4.666.519 2.592 1.037 5.702 0 2.074 1.555 6.221 2.074 3.629 4.148 5.702 0 .519 4.147 5.184 4.665 4.666 6.739 6.221.518 0 2.592 1.555 2.073 1.037 2.592 1.037h27.993q.519 0 2.592-1.037l5.184-2.073 5.184-3.11q2.592-1.556 3.629-2.593 1.037-.518 3.11-2.592t3.11-2.592q.519-2.073 2.593-5.702 2.592-4.147 2.592-6.22v-13.997q0-1.037-2.592-5.184-2.074-4.666-2.592-5.703-1.037-.518-4.666-2.592-3.11-2.592-4.147-2.592-.519-1.037-6.22-1.555-5.703-1.037-7.777-1.037h-13.997q-2.591 0-7.257.519-4.666 0-9.85.518-4.665 0-8.812.518-3.63.519-4.147 1.037-1.037 0-3.11 1.037-1.556.518-2.593 1.037 0 2.073-1.037 7.257-.518 5.184-.518 6.74z" aria-label="S" style="font-size:518.396px;font-family:&quot;a dripping marker&quot;;-inkscape-font-specification:&quot;a dripping marker, Normal&quot;;white-space:pre;fill:url(#b);stroke:#ababab;stroke-width:0" transform="scale(1.09675 .91178)"/><path d="M210.469 348.362q-1.037 0-4.666 1.037-3.11 1.036-4.147 1.036-.519-.518-3.11-2.592-2.074-2.073-2.074-2.592v-82.943q.518-15.033 1.037-35.25.518-20.218 1.037-43.546 1.036-23.328 1.555-43.545t1.036-35.251q.519-15.034.519-18.663 1.037-1.555 4.147-7.775 3.629-6.74 4.666-8.295 0-1.037 3.11-4.147l4.666-4.666q1.036-.518 4.147-2.592 3.11-2.073 4.147-2.592 1.555-1.555 3.11-2.591 1.037-1.037 2.592-1.556h8.295q1.036 0 2.073 1.556 1.037 1.555 1.037 2.591 0 .519 1.037 3.63 1.555 3.11 1.555 4.146v11.405q0 1.037-.518 4.666-.519 3.11-1.037 6.739 0 3.629-.519 7.257-.518 3.11-.518 4.148 0 4.665-.518 21.772-.519 16.589-1.556 39.917-.518 22.81-1.555 49.247-1.037 25.92-2.073 49.248-.519 22.81-1.556 39.916-.518 16.59-.518 21.255-1.037 2.073-2.074 5.184-.518 3.11-1.555 4.147-1.555 1.555-2.592 3.629l-3.11 4.147q0 1.037-1.037 3.11t-1.037 3.11q0 2.074-.518 7.258-.518 5.702-1.037 11.923 0 6.22-.518 11.405-.519 5.702-.519 7.776-.518 2.592-1.555 7.257l-1.037 9.331q-.518 5.184-1.036 9.332v5.702q0 1.037-1.556 7.776-1.036 6.739-1.036 8.813 0 .518-1.037 5.184-1.037 4.665-2.074 6.22 0 1.037-1.037 4.147t-1.036 3.63z" aria-label="I" style="font-size:518.396px;font-family:&quot;a dripping marker&quot;;-inkscape-font-specification:&quot;a dripping marker, Normal&quot;;white-space:pre;fill:url(#c);stroke:#ababab;stroke-width:0" transform="scale(1.09675 .91178)"/><path d="M377.392 337.476q.519-1.037-1.555-1.556-1.555-1.036-3.11-2.592l-6.22 53.395-3.63 2.074q-1.037-1.037-1.037-4.666 0-3.11-1.036-3.629v-7.776q.518-6.22.518-13.478.518-6.739 1.037-12.96.518-6.22.518-7.776v-5.702q.519-4.147.519-8.294.518-4.148.518-7.776v-4.666q-.518-.518-1.037-1.555-1.037-2.074-1.037-3.11-1.036-1.556-4.147-6.221-2.592-4.666-3.628-6.22l-3.11-4.667q-1.556-3.628-3.63-7.257t-4.147-6.22l-2.073-4.148q-1.556-1.037-5.703-5.184-3.628-4.666-7.776-9.331-3.628-5.184-7.257-9.85-3.11-4.665-4.666-6.739-.518 1.037-1.037 3.629v3.11q-.518 1.556-.518 4.666 0 1.555-.518 2.592v12.441q.518 9.332.518 20.218.518 10.886.518 20.736.519 9.33.519 11.923-.519.518-.519 2.592 0 1.037-.518 2.073v4.666q-1.037.518-4.147 4.666-2.592 3.628-3.629 4.147-1.037 1.037-3.629 3.11-2.073 2.074-5.184 4.666l-6.22 4.147-3.63 3.629-5.183 2.073q-1.037 0-3.11-.518h-3.11q-1.038 0-2.074-.519h-1.556q-1.036 0-1.555-.518l-2.073-2.592v-8.813q0-3.11-.519-6.22-.518-3.63-1.037-5.184v-17.626q.519-3.629.519-4.665v-10.368q0-3.63-.519-6.221 0-3.11-.518-4.147 0-2.592-.518-7.776v-25.92q0-3.11-1.037-9.331l-1.037-13.478q-.518-6.74-1.555-12.442-.519-5.702-.519-7.258 0-2.073-.518-7.257t-1.555-10.368q-.519-5.702-1.037-10.368-.518-5.184-1.037-6.739 0-1.037-1.036-4.666-.519-4.147-1.556-8.294-.518-4.147-1.555-8.294-.518-4.147-.518-5.703 2.073 0 2.592-1.555.518-.518.518-2.592.518-2.073.518-4.147.519-2.592.519-4.666v-2.592q1.037 0 3.11-3.11 2.592-3.11 3.629-3.629 4.147-3.11 6.74-5.702.518 0 4.146-1.555 3.63-2.074 4.666-3.11.518-.519 1.555-.519t2.074-.518q1.555 0 2.592-.519.518.519 1.555.519t1.555.518h4.665q1.037.518 2.593 2.592 1.555 2.074 2.592 3.629 0 .518 1.036 2.592t2.074 4.665q1.555 2.074 2.074 4.666 1.036 2.073 1.036 2.592 1.037 2.592 4.147 6.739t3.11 5.184q.52 1.037 3.63 5.184 3.11 3.629 6.739 8.294 4.147 4.147 7.257 8.813 3.63 4.147 5.184 6.74 3.11 3.11 10.368 11.922t15.034 19.18q8.294 9.85 15.552 19.182 7.257 8.812 10.367 12.441v-1.555l.519-1.037q0-1.555-.519-5.184l-1.036-8.294q-.519-4.147-1.037-7.776t-.518-4.666q0-3.628-1.037-16.588t-2.074-27.994q-1.037-15.552-2.073-28.512t-1.556-16.588q0-2.592-.518-4.666-.518-1.555-.518-3.629l-4.148-1.036q-2.073-.519-3.628-1.556-3.63-1.036-2.592-4.665v-6.22q0-1.038.518-1.556.518-1.037 2.074-3.629 1.555-3.11 2.592-4.147 0-1.037 1.555-2.592t1.555-2.592l3.11-4.666q2.592-3.11 3.11-2.591 1.556-2.592 6.221-5.703 4.666-3.11 7.258-4.665 1.555-1.037 3.629-2.074 4.147-2.074 4.665-2.074l3.11-1.555q2.074-1.037 3.111-.518h1.037q.518 0 1.037.518h6.22q1.037.519 2.592 3.11 1.556 2.593 2.074 3.63 0 1.555.518 3.628 1.037 4.147 1.037 4.666 0 1.037.519 6.739 1.036 5.184.518 7.776 0 2.073.518 11.405 1.037 8.812 1.556 19.699.518 10.886 1.036 20.217.519 9.331.519 11.405.518 2.592 1.037 7.257.518 4.147.518 8.813.518 4.666.518 8.294.519 3.11.519 3.63 1.037 7.775 2.592 23.327 2.073 15.552 4.665 35.25 2.592 19.7 5.184 41.473 3.11 21.254 5.703 40.953 2.592 19.18 4.665 34.732t3.11 22.81l-.518 2.592q0 2.073-.518 3.629 0 1.036-3.11 4.665-2.593 3.629-3.111 4.666-.518.518-3.11 2.073-2.074 2.074-4.666 4.147t-5.184 3.63l-2.592 2.591q-1.037 1.037-5.702 2.074-4.147 1.555-6.221 2.592-1.037 0-2.074-.519h-1.036l-2.592-.518q-1.037-1.037-3.63-4.666-2.073-3.628-3.11-4.665-1.555-2.074-4.665-8.813-2.592-6.22-5.702-13.478t-6.221-13.997q-2.592-6.22-4.147-8.813l-4.666-.518-7.776 61.69-3.629 7.257v-15.034q.519-4.665.519-9.331 0-4.147-.519-5.702.519-3.63 1.556-11.923 1.036-7.776 2.073-16.59 1.037-8.812 2.074-17.106 1.037-7.776 1.555-10.887z" aria-label="N" style="font-size:518.396px;font-family:&quot;a dripping marker&quot;;-inkscape-font-specification:&quot;a dripping marker, Normal&quot;;white-space:pre;fill:url(#d);stroke:#ababab;stroke-width:0" transform="scale(1.09675 .91178)"/><path d="M525.135 341.623q-1.555-.519-5.702-2.074-3.629-2.073-7.776-4.147-3.629-2.592-7.258-4.666-3.628-2.073-4.665-3.11-2.074-1.037-5.703-2.592-3.11-2.074-3.11-3.11-1.555-1.556-5.702-5.184l-7.776-7.776q-4.147-4.147-7.776-7.258-3.629-3.629-4.147-4.665 0-.519-4.148-6.74-4.147-6.739-6.22-10.367-1.037 0-2.074-1.556-.518-2.073-1.555-3.11l-3.11-7.776q-1.556-5.184-2.592-6.22 0-1.556-1.037-6.221-1.037-4.666-1.037-5.184v-46.138l1.037-5.184q.518-2.592.518-4.665.519-2.592.519-4.147 1.036-.519 1.555-3.63 1.037-3.11 1.555-4.146l3.629-7.258 5.184-10.368q2.592-5.702 4.665-10.368 2.592-4.665 3.11-6.22 1.037-.519 4.148-4.666 3.11-4.666 4.147-5.184l7.776-7.776 10.368-10.368 9.85-9.85q4.665-4.665 5.702-6.22.518-.518 2.592-2.074l5.184-3.11q3.11-2.074 5.702-3.629 2.592-2.073 4.147-3.11 2.074-.519 8.294-3.629l8.295-4.147q1.555-1.037 7.776-3.11 6.739-2.074 9.33-3.11 1.556 0 7.777-1.038 6.739-1.036 8.294-1.036h16.589q1.555 0 8.294 1.036t9.331 1.037q1.037 1.037 4.147 2.074t3.63 2.073q2.073 0 6.22 2.592 4.666 2.074 5.702 2.592 1.556 1.037 5.703 4.666 4.147 3.11 5.184 4.147.518 0 3.628 4.147t4.148 5.703l1.036 2.073q1.037.518 1.556 1.555.518 1.555 1.036 2.592v11.923q0 .519-1.555 3.63-1.037 3.11-2.073 4.146-1.037 1.555-3.63 4.666l-5.702 5.702-5.184 6.221q-2.591 2.592-4.147 3.629-1.036 0-4.665 1.037-3.11 1.036-4.666 1.036h-4.665q-2.074-1.036-5.184-4.147l-4.148-4.147q0-1.037-1.555-4.147-1.036-3.11-1.036-3.629-.519-1.037-3.63-4.147-3.11-3.629-4.146-4.666-1.037-.518-5.703-2.592-4.147-2.073-5.702-2.592-1.037-1.036-4.666-2.592-3.11-1.555-4.147-1.555H553.13q0 2.592-.519 8.295 0 5.702-.518 11.923-.519 6.22-1.555 11.923-.519 5.702-1.037 7.776 0 1.555-1.555 6.739-1.037 5.184-1.037 7.257l-4.666-5.702v-48.21l-6.739 20.217-2.592-2.074q-.518-2.074-1.555-5.702-.519-4.147-.519-6.221h-3.11q-1.037 1.037-2.592 1.555l-2.073 1.037q-1.037.518-1.556.518-1.036 1.037-4.147 3.11-3.11 1.556-3.629 1.556l-4.665 4.665q-3.11 3.11-4.147 4.666-1.556 1.037-4.666 5.702-3.11 4.148-3.11 5.184-1.037 1.037-3.11 5.703l-3.111 6.22q-.518.519-1.555 3.63-.519 3.11-1.555 4.146 0 2.592-1.037 7.776t-1.037 6.221v27.993q0 1.037 1.037 5.184 1.037 3.63 1.037 6.221 1.036 1.037 2.073 4.666 1.037 3.11 1.037 4.147 1.037.518 3.11 5.184 2.074 4.665 3.11 6.22l2.074 3.111q1.037 1.037 1.555 2.592 1.037 1.037 1.037 2.074 2.074 2.073 5.184 6.739 3.11 4.147 4.147 4.147 1.037 2.073 5.184 6.739l5.184 5.184q1.556.518 6.221 3.629 4.666 3.11 5.184 4.147l4.147 2.074q3.11 1.555 6.221 3.628 3.629 1.555 7.258 3.63 3.628 1.554 5.183 2.073.519 0 3.63 1.555 3.11 1.037 4.146 1.037l4.666 1.555q3.629.518 6.74 1.037 3.11.518 5.701 1.036h3.11q1.556 0 5.703-1.036 4.666-1.556 5.703-2.592t5.184-4.666 5.183-5.702q2.592-3.63 5.703-9.85 3.629-6.739 3.629-7.776v-38.361q-4.148-.518-13.479-1.037t-20.217-.518q-10.886-.519-20.736-1.037-9.331-.518-13.478-1.037-3.11 0-9.331-.518-5.703-.519-11.923-.519-6.221-.518-11.405-1.036-5.184-.519-6.74-.519-1.036-.518-4.147-1.037-3.11-1.036-3.628-2.073-1.037-1.037-1.555-2.074-1.037-2.073-1.037-2.592v-3.629q0-1.555 1.037-4.665.518-1.555 1.555-3.11.518-1.556 3.11-4.666l6.22-6.22 5.703-5.703q3.11-2.592 4.147-3.629 1.037 0 4.148-1.037 3.628-1.555 4.665-1.555h17.107q8.294 0 20.736.518 12.96 0 26.957.519 14.515 0 28.511.518 14.515 0 26.439.519 11.923 0 19.699.518h9.85q1.036 0 4.146.518 3.63 0 7.258.519 4.147.518 7.776 1.037h4.665l4.148 4.147v9.849q0 1.037-1.556 3.11-1.555 2.074-2.592 3.111-.518 1.037-2.592 4.666-2.073 3.628-2.592 4.665-1.036 0-1.555.519-1.037 1.036-1.037 2.073-1.555 1.555-6.22 4.666-4.666 3.11-5.184 3.11-2.074 1.037-8.295 3.11-6.22 2.074-8.294 3.11-1.037.52-2.074 3.63-.518 3.11-1.555 4.147v8.295q.519 1.036 1.037 5.183 1.037 4.147 2.074 9.85 1.036 5.184 1.555 10.368 1.037 5.184 1.555 8.294.518 1.555 1.037 7.257 1.037 5.703 2.073 6.74 0 1.555.519 4.665 1.037 3.11 2.073 6.74l2.074 6.22 1.555 4.666q0 1.036.519 4.147 1.036 3.11 1.555 6.739 1.037 3.11 1.555 5.702 1.037 2.592 1.037 3.11v5.703q.518 4.147.518 5.702 0 3.11-.518 6.74v5.184q-1.037 2.073-2.074 3.628t-2.073 2.592q-.519 1.037-.519 2.074-2.073 2.073-6.739 5.702-4.147 3.629-5.184 4.666-1.555 1.037-5.702 3.629t-5.703 2.592h-8.812l-2.074-2.592q-1.037-1.037-3.11-8.295-1.556-6.739-2.592-9.33l-1.037-4.148q-.519-1.555-1.555-3.629-.519-1.555-1.037-2.592 0-1.555-1.037-6.739t-2.592-11.405-3.11-11.923q-1.037-5.702-1.037-7.257 0-1.037-1.555-4.148-1.037-3.11-1.037-4.147-1.555 1.555-6.74 5.703-5.183 4.147-7.257 5.702-2.592 2.074-6.739 5.702-4.147 3.11-4.665 3.11-2.074.52-8.295 3.63l-8.294 4.147q-1.555 1.036-8.294 3.628t-9.332 2.592q1.037 1.556 1.037 7.776 0 6.74-1.037 9.332 0 1.036-1.555 6.22-1.037 5.703-1.037 7.776-.518-1.037-1.555-2.073-.518-.519-.518-1.037-1.037 0-2.074-4.666-.518-4.665-1.037-6.22 0-2.074-1.555-7.776-1.037-5.184-1.037-7.258l-1.036-1.037q-1.037-1.037-2.592-1.037h-2.592q0 2.592-.519 9.332 0 6.739-.518 13.996-.518 7.776-1.037 14.515v9.331q-.518 1.556-1.037 5.184l-1.036 7.258q0 4.147-.519 7.776-.518 4.147-.518 5.702t-1.555 6.74q-1.037 5.183-1.037 7.257-1.037 0-2.074 1.037-.518 1.037-1.555 1.037 0-1.556-1.555-6.74-1.037-5.184-1.037-7.257v-27.994q0-.518-1.037-5.702-1.037-4.665-1.037-5.702-.518-1.555-1.036-6.74-.519-5.183-1.037-10.886-.519-5.702-1.037-10.886v-7.258z" aria-label="G" style="font-size:518.396px;font-family:&quot;a dripping marker&quot;;-inkscape-font-specification:&quot;a dripping marker, Normal&quot;;white-space:pre;fill:url(#e);stroke:#ababab;stroke-width:0" transform="scale(1.09675 .91178)"/><path d="M760.486 328.663q-1.036 1.037-2.073 1.555l-2.074 1.037q-.518.518-1.555.518-1.555 1.037-3.629 2.592-4.147 3.11-4.665 3.629-3.11 1.037-6.221 2.592l-4.147 2.073q-1.037 0-2.592.519-1.037.518-2.074.518t-2.592-.518q-1.036-.519-2.073-.519l-1.037-1.036-1.037-1.037V329.7l1.037-4.148q.518-2.592.518-4.665.519-2.592.519-3.11 1.037-3.63 2.073-9.85t1.037-7.258V219.8q0-.519-1.037-1.037l-2.073-2.074h-2.074q-.518.519-3.11 1.037-2.074.518-4.666 1.037-2.073 0-4.147.518l-2.074.519h-13.997q-1.036-.519-1.554-1.037-1.037-1.037-1.037-2.074l-1.037-1.037q-.518-.518-.518-2.592 0-1.555.518-2.592l1.037-2.073q0-1.037.518-2.592 1.555-2.592 2.074-3.11.518-1.037 2.592-4.148t2.592-4.147q0-1.037 2.592-2.592 2.592-2.073 3.628-3.11 1.037 0 5.184-3.629t5.184-4.665q1.556 0 2.592-1.037.519-.519 1.037-1.555v-5.184q-.518-1.037-1.555-8.813-.518-7.776-1.555-17.107t-2.074-17.107q-.518-8.295-1.037-9.85l-5.184-10.368-3.11-4.665q-2.073-3.63-3.11-3.63-1.037-2.073-5.184-6.22-4.147-4.665-5.184-5.702-1.037 0-4.666-2.074-3.629-2.592-4.665-3.11l-2.074-2.592V69.983q0-1.037 2.592-5.184 2.074-4.665 2.592-5.702 1.037-2.074 5.184-6.22l5.702-5.703q2.074-.519 6.221-2.592 4.666-2.074 5.702-2.592h7.776q.519 0 3.63 1.555 3.11 1.037 6.22 2.592 3.629 1.555 6.22 2.592 3.111 1.037 4.148 1.037 2.592 1.555 7.776 4.147 5.184 2.073 6.22 2.073 2.593 1.037 7.258 2.592 5.184 1.556 10.368 3.63 5.702 1.554 9.85 3.11 4.665 1.555 5.702 2.073 1.037 0 5.184 1.037t9.331 2.592q5.702 1.555 10.886 3.11 5.703 1.037 8.813 1.037 1.037 0 6.22 1.555 5.185 1.037 7.777 1.037 1.037.519 3.628 1.555l5.184 1.037q2.592.519 4.666 1.037h3.11q3.63 0 11.924 1.037 8.294.518 17.625 1.555t17.625 2.073q8.295.519 11.924 1.037l1.036 1.037 1.037 1.037v11.923l-2.073 4.666q-1.037 1.555-3.11 4.147l-4.148 5.184-4.147 5.184q-2.074 2.592-2.592 3.11l-5.703 110.418-4.665 2.592V129.08l-2.074 1.037q-.518.519-1.036.519-.519 0-.519.518-.518.518-1.037 7.776-.518 6.739-1.036 15.033 0 7.776-.519 14.515l-.518 6.221q0 1.037-2.074 2.074l-2.073 1.037v-48.73q-2.074-.518-7.776-1.036-5.184-.519-11.405-.519l-11.405-1.037q-5.184-.518-7.257-.518-1.555 0-5.184-.518-3.11-.519-6.74-.519-3.628-.518-6.739-1.037t-4.147-.518q-1.555-.518-7.776-1.555-6.22-1.555-13.478-3.11-6.74-1.556-12.96-2.593t-7.776-1.036h-2.073q0 1.036-.519 4.147-.518 3.11.519 4.147v7.776q.518 6.74.518 15.033.518 8.295 1.037 15.552l.518 6.74q3.11.518 10.887 1.036 7.775.519 16.07 1.037 8.813.518 16.07 1.037 7.776.518 10.886 1.037 1.037 0 5.184 1.036 4.666 1.037 5.703 1.037.518 1.037 2.592 3.11 2.592 1.556 2.592 2.593v8.294q0 1.037-1.037 3.11-1.037 1.555-1.037 2.592-1.037 2.074-3.11 5.184-1.555 2.074-2.592 3.11-1.037 2.074-4.147 5.185l-4.148 4.147q-2.073 1.036-6.739 3.11-4.147 1.555-5.184 1.555-.518.519-1.555.519-1.037.518-3.11.518-1.555 0-3.63-.518-2.073-.519-3.11-.519t-6.739-1.037q-5.702-1.036-7.257-1.036h-13.997v72.057q1.555 0 8.813-1.037 7.257-1.037 8.813-1.037 2.073 0 7.776-.518 6.22-.519 12.96-.519 6.739-.518 12.441-1.036 6.22-.519 8.813-.519-1.037-1.555-3.629-6.739t-2.592-7.258q0-1.036-1.037-6.22-1.037-5.703-1.037-7.776v-3.629q0-1.037 1.037-4.147t1.037-3.629 1.037-3.629q.518-1.555 1.555-2.592.518-1.036 3.11-3.11l5.184-5.184q2.592-2.592 5.184-4.666 2.592-2.592 4.147-3.628 1.037-.519 2.592-1.037 2.074-1.037 3.11-2.074h10.887q.518 1.555 1.037 2.592.518 1.555 2.073 3.11 0 1.037 1.037 6.221 1.037 4.666 1.037 5.184l4.147 8.295q3.629 6.22 4.666 8.294.518 1.555 3.629 5.702t4.147 5.703q.518 1.037 3.11 3.628 2.592 2.074 5.184 4.666l5.184 5.184q2.592 2.074 4.147 3.11 1.037 1.037 6.74 5.703 5.702 4.147 7.257 5.702 1.037 1.037 4.147 3.11t3.629 3.11q1.555.52 6.22 3.111 5.185 2.074 10.887 4.666t10.368 5.184q5.184 2.592 6.739 3.629 1.037.518 3.11 2.591 2.592 2.074 2.592 2.592v10.886q0 1.038-1.555 3.63-1.037 2.073-1.555 2.073-1.037 1.555-3.629 4.147-2.073 2.592-4.665 5.184l-5.184 5.184q-2.074 2.592-3.11 3.11-1.038 0-3.111 1.037-2.074 1.556-3.11 1.556h-13.997q-1.037 0-3.629-1.037-2.592-.519-6.22-1.555l-6.221-2.074q-2.592-1.037-3.11-1.555-4.148-1.037-11.406-2.592-6.739-2.074-13.996-3.629t-12.96-2.592q-5.184-1.555-6.22-1.555-1.038 0-2.593-.518-3.11-1.037-3.629-1.037-.518 0-2.592 1.037-2.073.518-2.592.518 0 1.037-.518 4.665l-1.037 7.258q0 4.147-.518 7.776-.519 3.629-.519 4.666 0 1.555-1.555 7.257-1.037 5.702-2.073 6.74 0 1.036-1.556 3.11-1.036 2.073-1.036 3.11 0-1.037-.519-4.147 0-2.592-.518-5.703l-1.037-6.22v-4.147q-.518-1.037-1.037-5.184-.518-3.63-1.037-8.295t-1.036-8.812v-5.703l-2.592-2.592q-1.037 0-2.592 1.037-1.037.518-2.074.518v82.425l-3.629 13.997q-1.036-.518-2.073-3.629t-1.037-4.147q0-1.555-.518-5.184-.519-3.11-1.037-7.257 0-3.63-.519-7.776-.518-3.63-.518-5.184-.518-3.63-1.037-13.479-.518-9.33-1.037-20.217 0-10.886-.518-20.218-.518-9.849-1.037-13.996z" aria-label="E" style="font-size:518.396px;font-family:&quot;a dripping marker&quot;;-inkscape-font-specification:&quot;a dripping marker, Normal&quot;;white-space:pre;fill:url(#f);stroke:#ababab;stroke-width:0" transform="scale(1.09675 .91178)"/><path d="M272.07 250.203q.274-.55.549-1.373.549-1.649.549-1.923.55-.55 1.648-2.198 1.374-1.648 1.374-1.923l2.197-2.197q1.648-1.923 2.198-2.472.549-.275 2.472-1.374 1.923-1.373 2.472-1.373 0-.55 1.648-1.099 1.648-.55 2.472-1.099h1.374l3.296 3.297q.275.549.55 1.648.549.824.549 1.373.55.824 1.098 4.395.55 3.296.55 4.12v6.593q.275 5.22.275 13.185.274 7.691.274 16.481.275 8.79.275 16.482.275 7.69.275 13.185.274 5.493.274 6.317.824-.274 2.198-1.373 1.373-1.373 3.021-2.747 1.648-1.648 3.022-2.747l2.472-1.648q.275-.55 1.923-1.648 1.648-1.099 2.197-1.648.55 0 1.649-.55 1.098-.824 1.648-.824t1.098-.274q.825-.275 1.374-.55.824-.274 1.648-.824h10.713l6.043 3.022q1.099.824 3.846 3.57 2.746 2.748 3.57 3.846.55.55 2.198 3.571 1.648 2.747 1.923 3.846.275.55.824 1.923.824 1.373 1.373 3.021.824 1.649 1.374 3.297.824 1.648 1.099 2.472 0 .55.549 2.197.824 1.648 1.373 3.846.824 1.923 1.374 4.12l.824 3.297q.275.549.824 1.922.55 1.374 1.099 3.022.55 1.373.824 2.747.55 1.373.55 2.197 0 1.1 1.098 5.494 1.099 4.12 2.197 9.065 1.374 4.67 2.473 9.064l1.648 4.945q0 .55.55 1.923.548 1.373.823 3.296.55 1.648.824 3.296.55 1.374.55 1.648.549 1.1.824 3.571.55 2.198.55 2.747v1.099q0 .55-1.1 3.021-.824 2.198-1.373 3.297-.55.55-1.648 2.197-.824 1.648-1.374 2.198-.274.55-.55.824-.548.55-1.373.55-.549.274-2.197 1.373t-1.923 1.373q-1.373 1.373-3.296 1.373-.275.275-.824.55-.55.275-1.648.275-1.374 0-1.923-.275l-1.099-.55q-.275 0-.55-.274-.274-.275-.823-.275-.275-.275-.55-.824 0-.275-.824-1.373-.55-1.1-.55-1.374 0-.55-.548-2.197-.55-1.923-.55-2.473-.55-1.373-1.923-6.592-1.373-5.22-2.747-11.262t-2.746-11.262q-1.374-5.22-1.649-6.593-.549-1.099-1.648-4.944-1.098-4.12-1.648-5.494l-.824-2.472q-.55-1.923-1.373-3.846-.55-2.197-1.374-4.12-.55-1.923-.55-2.747t-1.373-3.571l-1.922-3.846q0-.274-.275-.55-.55-.548-.55-.823-.274-.55-.549-1.374-.275-.549-1.648-2.197-1.373-1.923-1.923-2.472v20.601q-.55-.55-1.373-3.296-.55-3.022-1.099-4.12 0-.824-.275-3.297-.274-2.472-.549-5.219 0-3.021-.275-5.493-.274-2.473-.274-3.297-.275-.549-1.374-1.922-1.099-1.374-1.373-1.374l-1.648-.824q-1.1-.824-1.649-.824 0 .55-1.373 1.648-1.099.824-1.648 1.374-.55 1.373-1.648 4.944-.824 3.57-.824 4.395v70.87q0 .549-.824 3.021-.55 2.198-1.1 3.296 0 .55-1.373 2.747-1.098 2.472-1.648 3.022-.55.824-3.57 3.57l-3.846 3.846q-.55.275-2.198 1.374-1.648 1.373-2.197 1.373h-7.416l-1.374-1.099-.824-1.648q-.275-.824-.824-1.373 0-.824-.55-3.022t-.55-3.021q0-1.648-.823-6.043-.55-4.395-.55-6.044-.274-1.648-.824-5.219-.274-3.57-.55-7.416-.274-4.12-.548-7.417V385.9q0-1.648-.275-6.318 0-4.944-.275-11.262 0-6.593-.274-13.735 0-7.416-.275-13.734 0-6.592-.275-11.262v-6.318q0-.55-.275-5.22 0-4.943-.274-11.536 0-6.867-.275-14.558 0-7.966-.275-14.834 0-6.867-.274-11.536-.275-4.67-.275-5.22-.275-.274-.275-.549v-.275q-.274-.274-.274-.549-.275-.55-.55-1.373v-3.846z" aria-label="h" style="font-size:274.688px;font-family:&quot;a dripping marker&quot;;-inkscape-font-specification:&quot;a dripping marker, Normal&quot;;fill:#fbce02;stroke:#248003;stroke-width:2" transform="scale(1.09102 .91657)"/><path d="M430.015 502.367q0-.824 1.098-2.473.55-.824 1.1-1.373.274-.275.274-.55 0-.549.275-.823.274-.55.549-1.374 0-.55.275-1.099v-.824q.274-.274.274-.55l-.55-2.197q.276-1.922-.274-6.317-.274-4.12-.824-9.065-.275-4.945-.824-9.34-.275-4.12 0-6.043 0-.55-.275-2.472v-3.846q0-2.197-.274-4.12v-2.472q-.55-1.923-1.099-8.24-.55-6.044-1.099-13.186-.274-7.142-.824-13.46-.275-6.317-.275-7.965v-1.648q-1.098.549-3.021 1.922-1.648 1.1-3.571 2.473t-3.571 2.746q-1.648 1.1-2.197 1.649l-1.649.549q-1.373.55-3.296 1.373-1.648.55-3.296 1.374-1.648.55-1.923.824l-2.197 1.099q0 .549-.55 2.197l-.55 1.648q-.274.275-1.098.275-.275 0-.55-.275 0 .55-.823.824-.55.55-.55 1.099-.824 1.099-1.648 4.67t-1.648 7.416q-.824 4.12-1.648 7.692-.824 3.57-1.099 4.944l-2.472 7.417-1.648 4.12q-1.099 2.747-1.648 3.296 0 .55-.824 2.198-.55 1.648-.824 1.922l7.69-52.19q-.274 0-1.098-1.099t-1.373-1.373q-.55-.55-1.923-2.198l-2.747-3.296q-1.374-1.923-2.472-3.571-1.099-1.648-1.374-2.198 0-.55-1.373-3.57-1.374-3.022-2.472-4.67.549-.824-.275-3.297-.824-2.746-1.373-3.296 0-.824-.55-3.845-.55-3.297-.55-4.395-.274-.825-.823-3.297-.55-2.472-1.1-5.219-.548-3.021-1.098-5.494-.274-2.472-.274-3.57 0-.55-.275-1.923l-.55-3.297q-.274-1.922-.549-3.296-.275-1.648-.275-2.197.275-1.1-.274-2.473-.275-1.373.274-1.648-.549-1.098-1.373-3.296-.824-2.472-1.099-3.021 0-.825.55-3.571.549-2.747.549-3.846v-1.648q0-1.374.275-2.747 0-1.373.274-3.022.55 0 2.198-1.648 1.648-1.923 2.197-2.747l2.747-2.747q2.472-2.197 3.571-2.746.275-.55 2.198-1.1 2.197-.549 3.021 0 .55-.549 2.198-1.373 1.923-.824 2.472-.824.824.275 1.373.824l1.374 1.374 1.373 1.648q0 .55.275 2.197.275 1.649-.275 2.198.275.824.55 3.296.274 2.198.274 4.67v6.867q0 .55.275 2.472.275 1.648.275 3.571.274 1.923.274 3.571.275 1.648.275 1.923.275.824.55 2.747.274 1.648.274 3.296.275 1.648.55 3.022.274 1.373.274 1.648 0 .55.275 2.472.55 1.648.824 3.571.55 1.923.824 3.571.55 1.648.55 1.923.274 1.373.823 3.57.55 1.924 1.1 4.121.823 2.198 1.098 4.12.55 1.923.824 2.747.55 1.099 1.648 2.198.55.824 1.374 1.648l1.373 1.373q.55.55 1.099 1.648.55 1.1.55 2.198h1.373q.549 0 1.098-.275.824-.274 1.374-.274 0-.275.274-1.649.55-1.373 1.1-3.296.823-1.923 1.373-3.57.824-1.924 1.648-3.297 1.099-.55 1.373-3.571.55-3.022 1.099-3.846.275-.549.55-1.922l1.098-2.747q.55-1.374.824-2.472.55-1.374.55-1.649.274-1.098.824-3.021.549-2.198 1.098-4.12.824-2.198 1.1-3.846l.548-1.648q.275-1.374.825-2.747.549-1.374.549-2.472.275-1.1.824-2.198 0-1.923.55-5.494.549-3.57.549-4.12v-6.867q.274-6.043.274-12.91v-12.91q.275-6.044.275-6.868l.275-1.923q.274-1.923.824-4.395.55-2.747 1.099-5.219.824-2.747 1.373-4.395 0-.55.275-2.747.274-2.197.55-4.67.548-2.472.823-4.67.55-2.471.55-3.295.274 0 1.373-2.198l1.373-2.747q.825-.274 2.198-1.099 1.648-1.098 3.022-1.922 1.373-1.1 2.472-1.923 1.373-1.099 1.923-1.099.274-.55 2.746-1.373 2.473-.824 3.297-.824h1.373l.55.549q.274.275.549.275.55 0 1.648 1.373 1.373 1.099 1.373 1.648-.274 1.923-.274 3.296v2.747q0 1.374.274 2.198 0 1.099-.274 2.747v3.021q-.275 1.923-.275 4.12 0 1.374-.55 6.868-.274 5.494-1.098 13.46-.55 7.69-1.374 16.48t-1.648 16.482q-.549 7.691-1.098 13.46-.275 5.494-.275 6.592 0 .824-.275 3.846 0 3.021-.274 6.867l-.55 7.691q0 3.571.275 5.769-.55 1.099-.824 4.944v17.306q0 4.12-.55 6.317.275.824.55 3.297.274 2.197.274 4.67.275 2.472.275 4.944.275 2.197.275 3.021.275 1.099.55 6.318.274 4.944.274 10.713.275 5.768.55 10.713.274 4.944.549 6.043.274.824.549 3.296.275 2.747.55 5.769.549 3.021.823 5.493.55 2.747 1.1 3.571-.55.824-.275 3.846.274 3.296.549 6.867.55 3.571 1.099 6.593t.549 3.845q0 .275-.55 2.198-.274 2.197-.274 2.747-.275.824-.824 2.197-.275 1.374-.275 1.923 0 .55-1.099 2.747-.824 2.472-1.922 3.021-.55.55-1.923 1.374-1.099.824-2.747 1.648-1.648 1.099-3.022 1.923t-1.648 1.099q-.55 0-2.747.824t-2.746.824h-1.923q-.824 0-1.374-.275h-1.099q-1.098 0-2.746-.55-1.649-.274-2.198-.274l-1.373-1.373z" aria-label="y" style="font-size:274.688px;font-family:&quot;a dripping marker&quot;;-inkscape-font-specification:&quot;a dripping marker, Normal&quot;;fill:#fbce02;stroke:#248003;stroke-width:2" transform="scale(1.09102 .91657)"/><path d="M468.196 455.395q0-.824-.275-3.022 0-2.197-.274-4.67l-.55-4.394v-2.747q-.274-2.472-.824-9.34-.549-6.867-1.373-15.657-.55-8.79-1.374-18.679-.549-10.163-1.098-19.228-.55-9.064-1.099-15.932-.55-6.867-.55-9.614 0-.55-.274-1.923v-13.46q0-3.845-.275-7.965-.274-4.395-.55-8.24 0-3.847-.274-4.67v-3.022q0-1.374-.275-2.472-.274-1.374-.549-1.923 0-.275-.275-2.198l-.549-4.395q-.275-2.197-.275-4.12-.274-2.197-.274-2.747 0-.275.274-2.197v-3.022q0-.55.275-1.373v-1.648q0-1.1.275-1.923 0-.55.55-1.648.823-1.1.823-1.649.55-.274 1.923-1.373 1.373-1.373 2.747-2.472 1.648-1.374 3.021-2.472 1.374-1.1 2.198-1.649.55 0 1.648-.549 1.099-.824 1.648-.55h2.472q.275.275 1.648.275h1.374q.55.824 1.923 2.198 1.373 1.373 2.747 3.021l3.021 3.022q1.374 1.373 2.198 1.923l1.373 1.373q1.374.824 2.472 1.923 1.374.824 2.473 1.923 1.098.824 1.648 1.099 1.373.824 5.768 3.57 4.395 2.748 9.34 6.044 5.219 3.296 9.339 6.043 4.395 2.747 5.219 3.57l1.373 1.374q1.374.824 2.747 1.923 1.374.824 2.472 1.923 1.1.824 1.649 1.373.824.55 3.296 3.022 2.747 2.472 3.57 3.846.825 0 1.374.549l.55.55q1.098 1.373 2.197 3.845 1.374 2.472 1.374 3.022.549.824 1.922 4.395 1.374 3.57 1.923 4.395.275 1.098.55 3.57.549 2.198.549 2.747 0 .275-.275 4.12-.274 3.846-.55 6.044-.274 1.099-.274 2.472t-.275 2.747q-.274 1.648-.274 3.57 0 .55-1.648 3.846t-2.198 5.22q-.275.549-.824 1.098-.55.55-.824 1.099-.275.275-.55 0 0 .55-1.098 2.472l-1.648 2.472q-1.374.824-3.296 2.747l-2.198 2.198q0 .55-1.373 1.648-1.374.824-1.374 1.373-1.099.275-4.12 2.473t-3.846 3.021q-.55 0-1.373 2.472-.55 2.198-.55 2.747-.274.824-1.098 2.747-.824 1.648-.824 2.198l-.55.549q-.274.275-1.373.275 0-.275-.55-1.374-.549-1.099-.549-1.373-.275-.55-.55-2.472-.274-1.923-.274-2.473l-3.846 1.1-1.648 16.755q-.275.275-.824.55-1.099.549-1.648.549h-1.099q-.55-.55-1.099-2.472-.274-1.923 0-2.473 0-1.373-.274-5.768-.275-4.395-.275-5.768-1.373-.824-5.219-1.374-3.57-.824-5.219-1.373l-1.099.55-2.472 45.597q0 .55-1.373 2.472-1.374 1.923-1.923 3.022-.55.275-1.648 1.099-1.1 1.099-2.473 2.197-1.098 1.099-2.472 1.923-1.098 1.099-1.648 1.374-.824.274-3.021 1.373t-3.022.824h-2.472l-2.198-.275q-.274 0-.824-.549-.274-.55-.824-.824zm19.228-137.07q0 .55-.274 2.473v2.472q.274.55.824 4.395.55 3.846.824 8.79.55 4.67.824 9.614.55 4.67.824 7.142.275 1.099.55 3.296.549 1.923.549 2.472l.549.55q.55.55.55 1.373.823.55 2.472 1.923 1.648 1.099 3.296 2.472 1.648 1.374 2.747 2.472 1.373 1.1 1.648 1.374 1.099 1.373 4.12 3.296 3.296 1.648 4.395 1.648 1.374.275 2.472.275 1.1.275 1.923.275h1.648q1.1.274 3.846.549h3.296q.275 0 1.099-1.648t.824-2.198q.275-.549.275-2.472.274-2.197.274-3.296v-1.099q.275-.824.275-1.648 0-1.099.275-2.197-.55-.824-.824-3.022-.275-2.197-.275-3.022-.55-1.373-1.923-4.944t-1.923-4.395q0-.275-1.098-1.648-1.1-1.374-2.473-2.747-1.098-1.648-2.472-3.022-1.099-1.648-1.648-2.197-.55 0-1.648-.55-.824-.274-1.373-.823-.275 1.373-1.374 4.944-.824 3.57-1.373 4.944l-1.648 1.374q-.275 0-.55-.824-.275-.275-.275-.824-.549-.275-1.098-1.923-.275-1.648-.275-2.198v-1.923q0-1.648-.275-3.57v-5.22q0-.274-.824-.824l-1.098-1.098q-1.374-.824-3.571-2.198l-4.395-2.747q-2.198-1.648-4.12-2.747-1.649-1.098-1.924-1.098z" aria-label="p" style="font-size:274.688px;font-family:&quot;a dripping marker&quot;;-inkscape-font-specification:&quot;a dripping marker, Normal&quot;;fill:#fbce02;stroke:#248003;stroke-width:2" transform="scale(1.09102 .91657)"/><path d="M626.416 423.256q-.549 0-.824-.274h-1.648q0 .55-.55.55-.549 0-.549.274-.824 1.099-2.472 4.12-1.373 3.296-1.648 4.395v-1.923q.275-1.373.275-1.923-.275-.274-.55-3.296-.274-3.021-.274-4.12-.824 0-3.022-.824-1.923-.824-4.12-1.648l-4.395-1.648q-2.198-.824-3.022-.824-.824-.275-2.472-1.1-1.648-1.098-3.57-2.197-1.924-1.373-3.572-2.472-1.373-1.099-1.923-1.648-.549 0-1.648-.55-1.098-.823-2.472-1.922t-2.747-1.923q-1.099-.824-1.648-1.373-.824-.55-1.648-1.374l-2.472-2.472q-.824-1.099-2.472-3.022-1.374-2.197-1.923-2.747-.55-.549-2.472-3.021-1.923-2.747-2.473-3.571-.549 0-1.098-1.923l-.824-3.296q0-.55-.825-3.022-.824-2.747-1.098-3.296 0-.824-.275-2.472-.275-1.923-.275-2.472.275-1.374.55-2.473.274-1.098.55-1.922.274-1.1.274-1.648 0-1.374.55-3.571l.549-2.198q.274-.55 1.098-.275 1.099.275 1.923.824 1.099.275 1.923.824 1.099.275 1.648 0v-1.648q-.55-.274-2.747-1.098-1.923-1.1-4.395-2.198l-4.395-2.747q-1.923-1.373-2.197-2.197-.275 0-2.198-1.923-1.923-2.198-2.472-3.296-.55-.275-1.373-1.374-.825-1.373-.825-1.648 0-.55-1.098-2.197-.824-1.923-1.1-2.473-.548-1.373-1.098-3.845-.55-2.747-.824-3.846-5.494-16.481-4.12-26.92 1.373-10.437 7.416-15.657 6.318-5.493 16.207-6.317t21.151 1.922q11.537 2.747 23.074 8.516 11.811 5.494 21.425 13.185 9.89 7.691 16.482 17.03 6.867 9.065 8.515 18.68-.275.549-.275.823v.275l-.274-.275q-.55-.274-1.1-.824l-1.098-.55q-.55-.274-1.099 0 0 .55-1.373 3.572-1.373 2.747-1.373 3.296-.55.55-1.923 1.374-1.1.824-1.648 1.373-.275 0-2.198 1.373-1.648 1.1-2.197 1.649h-1.1q-.549-.275-1.373-.275-1.098 0-1.922-.275h-.825q-1.373 0-1.648-.275h-1.648q-.55 0-.55-.549.276-.824-.274-.824.275-.55-.55-1.648-.549-1.374-.549-1.923 0-.275-.274-1.923-.275-1.923-.824-3.021 2.197-2.198 2.472-4.67t-.55-4.67q-.824-2.472-2.472-3.845-1.648-1.648-3.021-1.923-.275 0-2.747-3.022-2.198-3.021-4.945-6.318-2.746-3.57-5.219-6.317-2.197-3.022-2.472-3.022 0 .55-.275-1.373-.274-2.198-.549-1.923-.55 1.099-1.099 3.845-.274 1.1-.274 2.198-.275 2.197-1.1 6.592-.823 4.396-1.922 9.34-.824 4.944-1.648 9.34-.824 4.394-.824 6.317 3.021 3.022 7.691 5.494 4.67 2.197 8.24 4.395.55 0 3.297.824 3.022.824 6.318 1.923 3.57.824 6.592 2.197 3.022 1.099 3.846 2.198.55.55 1.923 1.648 1.373.824 3.021 1.648 1.649.824 2.747 1.648 1.374.824 1.923.824 1.099 1.374 4.12 3.571 3.297 1.923 4.12 3.022.275.274 1.649 1.373 1.373 1.099 2.747 2.472 1.373 1.1 2.472 2.198 1.373 1.099 1.923 1.373.55.55 1.648 1.923 1.099 1.099 2.197 2.472l2.473 2.472q1.098 1.1 1.648 1.1.274.549 2.472 4.12 2.472 3.296 3.57 4.67 0 .549.276 1.647.274 1.1.274 1.649-.274.824-.55 1.373-.549 1.648-.549 1.923-.274.55-.274 1.923t-.275 1.922q0 .55-.824 1.923-.824 1.374-1.099 1.648-.55.55-2.472 2.198-1.648 1.373-1.648 1.923-.824.824-3.846 3.021-3.021 1.923-4.12 3.022-.824.55-3.022 1.099-1.922.549-3.021.824-.824.549-3.296.824-2.198.55-2.747 1.098-1.374.55-4.945.824-3.57.55-4.395.825-.824-.275-3.021-.275h-11.812l-1.923 34.336h-1.098q0-.275-.275-1.648v-2.472q0-1.374.275-2.747.274-1.1.824-1.374-.275-1.648-.824-5.494-.55-3.845-1.1-8.24-.548-4.395-.823-8.24t.275-5.495zm-34.06-63.178q0 .55-.55 1.099l-.55.55q.55 1.098 1.1 3.57.548 2.198.823 2.747l1.648 2.472q1.099 1.648 2.472 3.571 1.374 1.923 2.473 3.571l2.197 2.198q0 .55 1.374 2.472 1.648 1.923 2.197 2.472.824.55 3.846 2.472 3.021 1.923 3.845 3.297.824.274 3.297 2.197 2.746 1.923 3.845 1.923.824.55 1.923 1.099 2.198 1.098 3.022 1.098 1.648 1.374 4.395 2.198 1.373.55 3.021.824.275 0 1.648.55 1.648.274 3.571.823 1.923.275 3.846.824 1.923.275 2.747.275.55 0 1.648.275l2.747.55q1.373.549 3.021.823l1.648-1.373q-.549-.275-.824-.55l-.824-.824q-.824-.824-1.648-1.922-.55-.55-1.373-1.1-.55-.823-1.099-1.098-.824-.824-3.022-2.747l-2.746-2.747q-.55-.274-2.473-1.648-1.922-1.648-4.12-3.296l-4.395-3.296q-1.923-1.648-2.747-2.473-.274 0-1.373-.549-.824-.824-2.198-1.648-1.373-1.099-3.021-1.923-1.374-1.099-2.198-1.373-1.099-.55-3.845-2.747t-3.022-2.198q-1.373-.549-4.12-1.922-2.747-1.649-6.043-3.297-3.022-1.923-6.044-3.57-2.746-1.649-4.12-2.748zm-15.658-49.444q-.275.824-.824 3.297-.55 2.472-.55 2.746-.274.55.55 3.022.824 2.198 1.373 3.296.55 2.198 2.747 3.846 2.472 1.373 3.296 1.923l1.374 1.373q1.373.824 3.021 2.198 1.649 1.098 3.022 2.472 1.648 1.099 2.197 1.648 2.473.55 4.67 3.022t5.769 3.296q0-1.099.274-1.923.55-.824.55-1.923.274-3.296 1.098-8.515.824-5.494 1.649-10.713.824-5.494 1.648-9.614t.824-4.67v-1.923q0-1.373-.55-1.373-.274 0-1.098 2.198-.55 2.197-1.649 8.24l-1.648 1.648q0-.55-.549-2.197-.275-1.923-.275-2.198 0-1.098.275-1.098.275-.275.275-1.1 2.472-1.373 1.373-2.746-.824-1.648-3.846-2.747-3.021-1.373-7.416-1.648t-8.24.55q-3.846.549-6.593 3.02-2.747 2.198-2.747 6.593z" aria-label="s" style="font-size:274.688px;font-family:&quot;a dripping marker&quot;;-inkscape-font-specification:&quot;a dripping marker, Normal&quot;;fill:#fbce02;stroke:#248003;stroke-width:2" transform="scale(1.09102 .91657)"/><path d="M738.49 427.926q0 1.099-.825 4.945-.55 4.12-1.099 5.493l-1.373 2.472-2.472-1.373v-17.58q-.55-.275-2.472-.824-1.649-.275-3.571-.824-1.923-.55-3.846-.824l-2.472-.824q-.55 0-1.923-.275-1.099-.55-2.472-1.099-1.374-.55-2.747-.824-1.374-.55-1.923-.824-.55 0-2.747-.824-1.923-1.099-3.021-1.648-.275-.55-1.923-1.648-1.648-1.099-2.198-1.648-.824-.824-3.296-2.472t-2.747-1.649q-.55-.824-3.021-3.296-2.198-2.472-3.297-2.747 0-.55-1.923-2.747-1.648-2.197-2.472-3.57-.55-.55-1.648-2.198-.824-1.648-1.373-2.198-.275-.549-1.099-1.648l-1.099-2.747q-.55-1.648-1.373-2.746-.55-1.374-.824-1.649-.55-.824-1.648-4.12-.824-3.57-1.374-4.944 0-.824-.55-4.12-.549-3.572-.549-4.396v-14.833q0-.55.55-3.57.55-3.022.55-3.846.549-1.648 1.373-4.945 1.098-3.57 1.648-4.67.274 0 .824-1.098.824-1.099 1.373-2.472l1.099-2.747q.824-1.374 1.099-2.198.55-.55 1.373-2.197 1.099-1.648 1.648-1.923l2.472-3.296q1.923-2.473 1.923-3.022l2.198-2.197q1.923-1.649 2.747-2.198 0-.55 2.197-2.197 2.198-1.649 3.296-1.923l4.395-3.296q1.374-.55 4.67-2.198 3.571-1.648 4.395-1.923.55 0 2.198-.824 1.922-.824 2.472-1.373 1.373 0 3.296-.55 2.198-.549 2.747-.549h16.206q.275 0 3.572.55 3.57.549 5.493.549.824.55 3.846 1.373 3.021.824 3.57.824.825 0 4.121 1.374 3.571 1.098 4.395 1.373l2.198 1.099q1.648.824 3.57 1.648 1.923.824 3.572 1.923 1.922.824 2.746 1.099l2.473 1.648q1.648.824 1.648 1.373.824.824 3.296 3.022t2.747 3.021q.55.55 1.923 3.022 1.373 2.197 1.373 2.747v9.064q-.275.824-.55 1.923-.274.824-.823 1.648l-.55 1.1q0 .274-.549 1.373-.275 1.098-.824 1.373-.275.55-1.923 3.022-1.648 2.197-2.197 2.746-.55.55-2.198 2.473t-2.197 2.472q-1.1.55-3.571 2.197-2.198 1.648-2.747 1.923 0 .275-1.099 1.099-1.099.55-2.472 1.373-1.374.55-2.747 1.374-1.373.55-2.198.824-.549 0-2.472.55-1.648.549-2.472.549-1.099.549-3.022 1.098-1.922.55-2.472.55-.824 0-3.021.274-2.198.275-4.67.55-2.472 0-4.67.274-1.922.275-2.472.275h-14.833q-.824 0-4.12-.275-3.022-.274-6.593-.274-3.57-.275-6.592-.55-3.022-.274-3.571-.274h-4.67q0 .55.55 2.472.823 1.648.823 2.197.55.824 2.198 4.395 1.648 3.297 2.197 4.12.55 1.1 1.649 2.748 1.373 1.648 1.373 2.197.824.55 2.472 2.198l3.571 3.57 3.571 3.571q1.923 1.649 2.747 2.198 0 .55 1.648 1.648 1.923 1.099 2.747 1.648l4.395 2.198q3.296 1.648 4.395 1.923.275 0 1.923.824 1.648.549 2.197.549 1.374.55 4.945 1.099 3.57.274 4.395.824h8.79q.824-.55 3.021-.824 2.198-.55 3.022-1.099l1.373-1.373v-17.58q.275-.825.55-1.923.274-.824.55-1.374.274-.824.548-1.373.275-.275.275-.55 0-.549.275-.824.275-.549.55-1.373l7.416-7.417q.55-.549 2.747-1.648 2.472-1.098 3.57-1.648h2.473q.55.55 1.923 1.648 1.373 1.099 1.373 1.648.275.275.55 3.297.549 3.021 1.098 4.12v10.164q-.55 1.098-1.099 3.845-.274 2.747-.549 3.571 0 .275-.55 1.648-.549 1.099-1.373 2.472-.55 1.374-1.373 2.747-.824 1.374-1.374 1.923-.274.824-1.373 2.747-1.099 1.648-1.374 1.648l-2.197 2.198-3.022 3.021-3.296 3.296q-1.373 1.374-2.197 1.923 0 .55-1.648 1.648l-2.473 1.648q-.55.275-3.021 1.374l-2.747 1.373q-1.099 0-4.12 1.374-2.747 1.373-3.297 1.923-.55 0-1.648.549-.824.824-1.373.824 0 1.648-.275 5.768 0 4.12-.275 8.79-.274 4.945-.824 9.065-.274 4.395-.55 6.043 0 .824-.548 3.571-.275 2.747-.825 3.846 0 .275-.549 1.373-.55 1.1-.55 1.374-.549-.824-1.098-3.571-.55-2.747-.55-3.846 0-1.648-.274-5.494-.275-3.57-.55-7.966 0-4.12-.274-7.965-.275-3.571-.275-4.945zm-42.028-95.866q.55 0 2.472.275 1.923 0 4.12.274 2.198 0 4.12.275h3.022l2.198.55q1.099.274 1.923.549 1.922.55 6.317 1.099 4.67.549 6.044.549h34.061l5.494-1.648q-.55-.824-3.297-3.571t-4.12-3.846q-.275-.274-1.648-1.098-1.374-.825-3.296-1.649-1.923-1.098-3.846-1.922-1.648-.824-2.747-1.1-.275 0-1.648-.274-1.099-.55-2.747-1.099-1.373-.549-2.747-.824-1.098-.55-1.648-.55-1.373-.548-4.12-1.373-2.747-.824-3.296-.824h-22.25q-.824.55-3.022 1.923-2.197 1.374-3.021 1.374l-.824.824q-.275.274-.275.55 0 .274-.275.274-.55.55-1.648 3.021-1.099 2.198-1.648 2.747-.275.55-.824 2.198-.275 1.648-.824 1.923z" aria-label="e" style="font-size:274.688px;font-family:&quot;a dripping marker&quot;;-inkscape-font-specification:&quot;a dripping marker, Normal&quot;;fill:#fbce02;stroke:#248003;stroke-width:2" transform="scale(1.09102 .91657)"/><path d="M816.776 419.685h-1.923q-.55 0-1.648.55-.825.55-1.374 1.099 0 .549-.55 2.746-.549 2.473-.549 3.022 0 .275-.824 1.374-.55 1.098-.55 1.373-.548-.275-1.373-1.373-.549-1.1-.549-1.374 0-.275-.275-1.648 0-1.099-.274-2.472 0-1.099-.275-2.198t-.55-1.099q-.274-.549-2.197-1.648t-1.923-1.648q-.824-.55-3.296-2.747t-2.747-2.747q0-.549-1.373-2.746-1.374-2.473-1.923-3.297 0-.549-.824-2.197-.55-1.923-.55-2.472-.274-.824-.824-3.022-.274-2.472-.824-3.021 0-1.1-.549-4.395-.55-3.297-.55-4.396V336.73q.275-3.297.55-6.867.275-3.846.275-7.142.274-3.297.274-4.12v-13.46q.55-.55 2.473-3.846 2.197-3.296 3.845-4.944 0-.275 1.099-1.374 1.373-1.099 1.648-1.373.55-.55 2.198-1.648 1.922-1.1 2.472-1.649l1.373-.824q.55-.274 1.374-.549h1.922q.275-.275.55-.275t.55.275h1.647q.275 0 1.374 1.099 1.373 1.099 1.373 1.373v6.318q0 .824-.274 3.571-.275 2.472-.55 5.494t-.55 5.768q-.274 2.472-.274 3.296v60.431q.55 1.1.824 3.572.55 2.197.824 2.747 0 .274.55 1.922.824 1.649.824 2.198.55.55.824 1.923.55 1.373 1.099 1.373 1.098.824 3.021 3.296 1.923 2.198 2.472 2.747h4.395q1.099 0 1.648-1.922.55-.55 1.649-2.198t1.648-1.923q.549-1.648 2.747-6.043t2.746-6.043q.824-1.374 1.923-4.12 1.374-2.747 1.374-3.297V363.1q0-.55-.55-3.022-.274-2.472-.824-5.219t-1.099-5.219-.824-3.022q0-.824-.274-2.746-.275-1.923-.55-3.571 0-1.923-.274-3.297-.275-1.648-.275-2.197v-22.25q0-1.099 1.373-3.021 1.374-2.198 1.923-3.297.275 0 1.374-1.098 1.098-1.1 2.472-2.473l2.747-2.746 2.197-2.198q.275 0 1.374-.55 1.098-.823 1.373-.823h2.198q.549-.275 1.098-.275.55 0 1.374.275h1.648l.55.549q.274.275.274.55l.275.274q0 .55.55 1.648.823 1.099.823 1.648.824.824 1.923 3.846 1.373 3.021 1.373 3.57 0 .55.275 2.198.55 1.374 1.099 3.297.55 1.922.824 3.845.55 1.648.55 2.198 0 .824.274 2.472.275 1.373.275 3.022l.549 3.296q.275 1.373.275 1.923 0 .824.274 1.922.55 2.198.55 3.022t-.55 3.022q-.274 1.922-.274 2.197 0 .55-.275 2.472-.275 1.648-.55 3.571 0 1.923-.274 3.846-.275 1.648-.275 2.197v2.748q.55 1.647 1.648 6.042 1.1 4.395 1.649 6.043.274 1.1 1.373 4.67 1.099 3.571 2.472 7.691l2.747 8.241q1.373 3.846 2.198 5.769.274 1.373 1.373 4.12t1.373 3.296q.55.55 1.649 2.472 1.098 1.923 1.648 2.472l.824 1.649q.274.549.55.824v4.944q0 .55-.825 2.198-.55 1.648-.55 2.197l-1.922 1.923q-1.374 1.648-3.022 3.296t-3.296 3.022q-1.648 1.648-2.472 2.197-1.099.275-1.923.55l-2.197.549h-3.297q-.274 0-1.373-.55-1.099-.549-1.374-.549 0-.55-1.373-3.021-1.373-2.198-1.923-3.297-.275-.274-1.099-2.197-.549-1.923-1.373-4.395t-1.648-4.67-1.374-3.57q-.274-.275-1.098-1.924-.55-1.922-1.374-3.845t-1.373-3.571-.55-2.198q-.549-.55-1.098-.824l-.55-1.098q0 .549-.824 1.098-.55.275-.55.824-.274.275-1.373 1.648-1.098 1.1-2.472 2.747l-2.197 2.747q-1.1 1.374-1.374 1.648-.55.275-2.197 1.923l-2.198 2.198q-.55.274-1.648 1.373-1.099.824-2.472 1.923-1.099 1.099-2.198 1.923t-1.648.824l-1.098 1.373q0 1.374-.275 4.67-.275 3.57-.55 7.417 0 3.845-.274 7.141-.275 3.571-.275 4.945-.55.55-1.099 2.197-.274 1.648-.824 1.923 0-.275-.824-1.923-.55-1.648-.55-2.197 0-1.099-.549-4.395-.274-3.022-.824-6.318t-1.098-6.318q-.275-2.747-.275-3.846z" aria-label="u" style="font-size:274.688px;font-family:&quot;a dripping marker&quot;;-inkscape-font-specification:&quot;a dripping marker, Normal&quot;;fill:#fbce02;stroke:#248003;stroke-width:2" transform="scale(1.09102 .91657)"/><path d="M955.218 423.256q-.55 0-.824-.274h-1.648q0 .55-.55.55-.549 0-.549.274-.824 1.099-2.472 4.12-1.374 3.296-1.648 4.395v-1.923q.274-1.373.274-1.923-.274-.274-.549-3.296t-.275-4.12q-.824 0-3.021-.824-1.923-.824-4.12-1.648l-4.396-1.648q-2.197-.824-3.021-.824-.824-.275-2.472-1.1-1.648-1.098-3.571-2.197-1.923-1.373-3.571-2.472-1.374-1.099-1.923-1.648-.55 0-1.648-.55-1.099-.823-2.472-1.922-1.374-1.099-2.747-1.923-1.099-.824-1.648-1.373-.824-.55-1.648-1.374l-2.473-2.472q-.824-1.099-2.472-3.022-1.373-2.197-1.923-2.747-.549-.549-2.472-3.021-1.923-2.747-2.472-3.571-.55 0-1.099-1.923l-.824-3.296q0-.55-.824-3.022-.824-2.747-1.099-3.296 0-.824-.274-2.472-.275-1.923-.275-2.472.275-1.374.55-2.473.274-1.098.549-1.922.274-1.1.274-1.648 0-1.374.55-3.571l.55-2.198q.274-.55 1.098-.275 1.099.275 1.923.824 1.098.275 1.923.824 1.098.275 1.648 0v-1.648q-.55-.274-2.747-1.098-1.923-1.1-4.395-2.198l-4.395-2.747q-1.923-1.373-2.198-2.197-.274 0-2.197-1.923-1.923-2.198-2.472-3.296-.55-.275-1.374-1.374-.824-1.373-.824-1.648 0-.55-1.099-2.197-.824-1.923-1.098-2.473-.55-1.373-1.1-3.845-.549-2.747-.823-3.846-5.494-16.481-4.12-26.92 1.373-10.437 7.416-15.657 6.318-5.493 16.207-6.317 9.888-.824 21.15 1.922 11.537 2.747 23.074 8.516 11.812 5.494 21.426 13.185 9.889 7.691 16.481 17.03 6.868 9.065 8.516 18.68-.275.549-.275.823v.275l-.275-.275q-.55-.274-1.098-.824l-1.1-.55q-.549-.274-1.098 0 0 .55-1.373 3.572-1.374 2.747-1.374 3.296-.55.55-1.923 1.374-1.098.824-1.648 1.373-.274 0-2.197 1.373-1.648 1.1-2.198 1.649h-1.099q-.549-.275-1.373-.275-1.099 0-1.923-.275h-.824q-1.373 0-1.648-.275h-1.648q-.55 0-.55-.549.275-.824-.274-.824.274-.55-.55-1.648-.549-1.374-.549-1.923 0-.275-.275-1.923-.274-1.923-.824-3.021 2.198-2.198 2.472-4.67.275-2.472-.549-4.67-.824-2.472-2.472-3.845-1.648-1.648-3.022-1.923-.274 0-2.747-3.022-2.197-3.021-4.944-6.318-2.747-3.57-5.219-6.317-2.197-3.022-2.472-3.022 0 .55-.275-1.373-.275-2.198-.55-1.923-.549 1.099-1.098 3.845-.275 1.1-.275 2.198-.274 2.197-1.098 6.592-.825 4.396-1.923 9.34-.824 4.944-1.648 9.34-.824 4.394-.824 6.317 3.021 3.022 7.69 5.494 4.67 2.197 8.241 4.395.55 0 3.297.824 3.021.824 6.318 1.923 3.57.824 6.592 2.197 3.022 1.099 3.846 2.198.55.55 1.922 1.648 1.374.824 3.022 1.648t2.747 1.648q1.373.824 1.923.824 1.099 1.374 4.12 3.571 3.296 1.923 4.12 3.022.275.274 1.649 1.373 1.373 1.099 2.746 2.472 1.374 1.1 2.473 2.198 1.373 1.099 1.922 1.373.55.55 1.649 1.923 1.098 1.099 2.197 2.472l2.472 2.472q1.099 1.1 1.648 1.1.275.549 2.473 4.12 2.472 3.296 3.57 4.67 0 .549.275 1.647.275 1.1.275 1.649-.275.824-.55 1.373-.549 1.648-.549 1.923-.275.55-.275 1.923t-.274 1.922q0 .55-.824 1.923-.824 1.374-1.1 1.648-.548.55-2.471 2.198-1.648 1.373-1.648 1.923-.824.824-3.846 3.021-3.022 1.923-4.12 3.022-.824.55-3.022 1.099-1.923.549-3.021.824-.825.549-3.297.824-2.197.55-2.747 1.098-1.373.55-4.944.824-3.57.55-4.395.825-.824-.275-3.022-.275h-11.811l-1.923 34.336h-1.099q0-.275-.274-1.648v-2.472q0-1.374.274-2.747.275-1.1.824-1.374-.274-1.648-.824-5.494t-1.098-8.24q-.55-4.395-.825-8.24t.275-5.495zm-34.061-63.178q0 .55-.55 1.099l-.549.55q.55 1.098 1.099 3.57.55 2.198.824 2.747l1.648 2.472q1.099 1.648 2.472 3.571 1.374 1.923 2.472 3.571l2.198 2.198q0 .55 1.373 2.472 1.648 1.923 2.198 2.472.824.55 3.845 2.472 3.022 1.923 3.846 3.297.824.274 3.296 2.197 2.747 1.923 3.846 1.923.824.55 1.923 1.099 2.197 1.098 3.021 1.098 1.648 1.374 4.395 2.198 1.374.55 3.022.824.275 0 1.648.55 1.648.274 3.57.823 1.924.275 3.847.824 1.922.275 2.746.275.55 0 1.649.275l2.746.55q1.374.549 3.022.823l1.648-1.373q-.55-.275-.824-.55l-.824-.824q-.824-.824-1.648-1.922-.55-.55-1.374-1.1-.549-.823-1.098-1.098-.824-.824-3.022-2.747l-2.747-2.747q-.55-.274-2.472-1.648-1.923-1.648-4.12-3.296l-4.395-3.296q-1.923-1.648-2.747-2.473-.275 0-1.374-.549-.824-.824-2.197-1.648-1.374-1.099-3.022-1.923-1.373-1.099-2.197-1.373-1.099-.55-3.846-2.747t-3.021-2.198q-1.374-.549-4.12-1.922-2.748-1.649-6.044-3.297-3.021-1.923-6.043-3.57-2.747-1.649-4.12-2.748zm-15.658-49.444q-.274.824-.824 3.297-.549 2.472-.549 2.746-.275.55.55 3.022.823 2.198 1.373 3.296.55 2.198 2.747 3.846 2.472 1.373 3.296 1.923l1.373 1.373q1.374.824 3.022 2.198 1.648 1.098 3.022 2.472 1.648 1.099 2.197 1.648 2.472.55 4.67 3.022t5.768 3.296q0-1.099.275-1.923.55-.824.55-1.923.274-3.296 1.098-8.515.824-5.494 1.648-10.713.824-5.494 1.648-9.614t.824-4.67v-1.923q0-1.373-.549-1.373-.275 0-1.099 2.198-.55 2.197-1.648 8.24l-1.648 1.648q0-.55-.55-2.197-.274-1.923-.274-2.198 0-1.098.275-1.098.274-.275.274-1.1 2.472-1.373 1.374-2.746-.824-1.648-3.846-2.747-3.021-1.373-7.416-1.648t-8.241.55q-3.846.549-6.593 3.02-2.747 2.198-2.747 6.593z" aria-label="s" style="font-size:274.688px;font-family:&quot;a dripping marker&quot;;-inkscape-font-specification:&quot;a dripping marker, Normal&quot;;fill:#fbce02;stroke:#248003;stroke-width:2" transform="scale(1.09102 .91657)"/></svg>