<!-- Created by ERK --><svg xmlns="http://www.w3.org/2000/svg" width="2022.841" height="590.616" viewBox="0 0 155.956 45.535"><path fill="#33348e" d="M54.796 9.322c-1.903.023-3.513.068-5.62-.249-1.632-.25-2.154-.861-2.154-2.017 0-1.292 2.765-2.198 5.893-2.198 1.88 0 3.717.159 5.348 1.11 1.406.793 2.765.86 2.81 3.173l2.833.068-.091-6.867h-2.652l-.634 1.654a10.5 10.5 0 0 0-1.224-.657q-.65-.27-1.315-.498a16 16 0 0 0-2.584-.522 15 15 0 0 0-2.062-.136c-4.102 0-11.513.975-11.399 5.28.137 5.122 5.802 5.825 12.17 6.165 2.311.136 5.62.181 5.734 2.81.068 1.7-3.332 2.266-5.258 2.244-3.06 0-7.139-.884-8.09-1.95-.59-.68-1.02-1.337-1.247-1.948-.25-.635-.408-1.043-.453-1.247h-2.629v7.842h3.241l.046-1.745c2.832 1.133 6.776 1.722 9.767 1.722 2.675 0 5.054-.43 7.14-1.269 2.084-.861 3.399-2.833 3.285-4.94-.248-4.783-7.229-5.916-10.855-5.825m39.592-.748c-.77-1.654-2.2-3.196-4.284-4.578q-3.127-2.108-8.43-2.108h-.045c-3.423.023-6.164.68-8.204 2.017-2.063 1.337-3.512 2.81-4.374 4.397a8.3 8.3 0 0 0-.658 1.744 6.8 6.8 0 0 0-.203 1.586c0 .477.045.975.181 1.496.113.498.317 1.042.567 1.563.77 1.677 2.22 3.195 4.328 4.578 2.085 1.383 4.873 2.085 8.363 2.085h.045c3.536 0 6.345-.702 8.43-2.085s3.514-2.901 4.284-4.578q.328-.762.543-1.563c.114-.521.182-1.02.182-1.496a6.7 6.7 0 0 0-.182-1.473q-.215-.811-.543-1.585m-7.07 8c-1.134 1.042-2.403 1.7-3.763 1.972-.34.068-.657.113-.974.136a7 7 0 0 1-.93.045h-.022c-.203 0-.384 0-.589-.022q-.33-.007-.657-.046-2.278-.27-4.216-1.904c-1.269-1.064-1.926-2.764-1.948-5.121s.702-4.147 2.199-5.326C77.89 5.13 79.636 4.54 81.63 4.54h.022c2.04 0 3.763.589 5.214 1.768 1.45 1.179 2.175 2.968 2.175 5.326 0 2.242-.567 3.875-1.724 4.94zm56.544-14.051v2.56h.43c.567 0 .68.092 1.02.25.341.159.43.544.16.793l-4.103 3.694-4.397-3.309c-.022-.022-.045-.045-.068-.045s-.023-.022-.023-.046c-.068-.068-.159-.158-.227-.249a.46.46 0 0 1-.136-.34c0-.317.16-.52.432-.611.27-.091.634-.137 1.042-.137h.497v-2.56h-11.738v2.56h.839c.679 0 1.269.068 1.721.204.454.113.908.362 1.338.68.09.068.203.135.294.248.09.091.181.16.295.272l6.594 5.825V18c0 .227-.112.408-.294.543-.182.16-.453.227-.793.227h-2.266v2.243h12.76V18.77h-2.267c-.34 0-.612-.068-.792-.227a.65.65 0 0 1-.273-.543v-5.71l5.757-5.507c.022-.046.068-.091.09-.113.522-.544 1.089-.952 1.7-1.201.612-.25 1.473-.386 2.583-.386h.409v-2.56zm-29.69 2.629h2.313c.975 0 1.541.113 1.7.362.159.227.227.498.227.816v8.703h-.273L106.694 2.59h-9.79v2.56h1.654c.974 0 1.541.114 1.7.363.159.227.25.498.25.816v11.264c0 .318-.091.59-.25.815q-.238.34-1.7.34h-1.654v2.244h11.24v-2.244h-1.63c-.998 0-1.564-.113-1.723-.34-.158-.227-.226-.498-.226-.815V6.783h.226l13.757 14.278h3.285V6.33c0-.318.07-.59.228-.816.16-.25.724-.362 1.722-.362h1.971V2.59h-11.581v2.56z" style="stroke-width:.738204;fill:#fff"/><g style="fill:#fff"><path d="M113.05 35.743h-9.443v-3.564h9.443zm17.735-8.354-8.341 14.765h-5.297l8.663-14.901h-9.467v-3.527h14.442zm18.02 0-8.341 14.765h-5.297l8.663-14.901h-9.468v-3.527h14.443zm18.02 0-8.342 14.765h-5.297l8.664-14.901h-9.468v-3.527h14.443z" aria-label="-777" style="font-weight:700;font-size:25.3463px;font-family:Play;-inkscape-font-specification:&quot;Play, Bold&quot;;fill:#fff;stroke:#33348e;stroke-width:.289644" transform="translate(2.466 4)scale(.90933)"/><path d="M59.758 36.435q0 2.723-2.315 4.431-2.302 1.696-6.262 1.696-2.29 0-3.998-.396-1.695-.409-3.18-1.028V36.72h.52q1.472 1.176 3.292 1.807 1.831.631 3.514.631.434 0 1.139-.074t1.151-.248q.545-.222.891-.556.359-.335.359-.99 0-.607-.52-1.04-.507-.446-1.497-.68-1.04-.248-2.203-.459-1.151-.223-2.166-.557-2.327-.755-3.354-2.042-1.015-1.3-1.015-3.218 0-2.574 2.302-4.195 2.314-1.634 5.94-1.634 1.82 0 3.59.36 1.782.346 3.081.878v4.245h-.507q-1.114-.891-2.735-1.485-1.61-.607-3.292-.607-.594 0-1.188.087-.582.074-1.127.297-.482.186-.829.57-.346.37-.346.853 0 .73.557 1.126.557.384 2.104.706 1.014.21 1.943.408.94.198 2.017.545 2.116.693 3.119 1.893 1.015 1.189 1.015 3.094zm22.574 5.792h-4.728V29.888l-3.416 8.008h-3.28l-3.415-8.008v12.34h-4.48v-18.43h5.52l4.145 9.245 4.134-9.245h5.52zm13.032.36q-2.055 0-3.8-.607-1.732-.606-2.982-1.807-1.25-1.2-1.944-2.995-.68-1.795-.68-4.146 0-2.19.656-3.973t1.906-3.057q1.2-1.225 2.97-1.893 1.782-.668 3.886-.668 1.163 0 2.092.136.94.123 1.732.334.83.235 1.498.532.68.285 1.188.532v4.468h-.545q-.346-.297-.878-.705-.52-.409-1.189-.805-.68-.396-1.472-.668-.792-.273-1.696-.273-1.002 0-1.906.322-.903.31-1.67 1.04-.73.705-1.189 1.869-.445 1.163-.445 2.821 0 1.733.483 2.896.495 1.164 1.237 1.832.755.68 1.683.978.928.284 1.832.284.866 0 1.708-.26.854-.26 1.572-.705.606-.359 1.126-.767t.854-.706h.495v4.406q-.693.31-1.324.582t-1.325.47q-.903.26-1.695.396t-2.178.136z" aria-label="SMC" style="font-weight:700;font-size:25.3463px;font-family:Play;-inkscape-font-specification:&quot;Play, Bold&quot;;fill:#fff;stroke:#33348e;stroke-width:.289644" transform="translate(2.466 4)scale(.90933)"/></g><path fill="#33348e" d="M6.95 15.512c.735 0 1.322.663 1.322 1.426 0 .714-.587 1.377-1.322 1.377-.723-.015-1.307-.623-1.321-1.377 0-.763.588-1.426 1.321-1.426m5.824-.204c.868-.011 1.576.725 1.565 1.63 0 .867-.686 1.581-1.565 1.581-.836-.005-1.512-.71-1.516-1.58 0-.917.685-1.631 1.516-1.631m5.874-.254c.978 0 1.76.815 1.76 1.884.004 1.015-.786 1.839-1.76 1.835-.98 0-1.811-.815-1.811-1.835 0-1.069.83-1.884 1.81-1.884m5.823-.256c1.125 0 2.054.968 2.054 2.14 0 1.121-.929 2.09-2.054 2.09-1.1-.022-1.985-.945-2.007-2.09 0-1.17.93-2.14 2.007-2.14M6.95 8.936c.734 0 1.32.612 1.32 1.376s-.586 1.377-1.32 1.377-1.322-.611-1.322-1.377c0-.765.588-1.376 1.321-1.376m5.823-.203c.881 0 1.565.714 1.565 1.58.01.906-.697 1.643-1.565 1.631-.853-.01-1.533-.743-1.516-1.63 0-.868.685-1.58 1.516-1.58m5.874-.255c.974-.004 1.764.82 1.76 1.834 0 1.02-.783 1.886-1.76 1.886-.994-.016-1.796-.85-1.811-1.886 0-1.02.83-1.834 1.81-1.834m5.823-.254c1.125 0 2.054.967 2.054 2.09 0 1.172-.929 2.14-2.054 2.14-1.078 0-2.007-.968-2.007-2.14 0-1.123.93-2.09 2.007-2.09M1.078 2.617c.636 0 1.125.51 1.125 1.12.01.652-.5 1.183-1.125 1.173C.468 4.898-.015 4.372 0 3.737c0-.61.491-1.12 1.078-1.12M6.95 2.36c.735 0 1.322.611 1.322 1.376 0 .766-.587 1.377-1.322 1.377-.733 0-1.321-.613-1.321-1.377 0-.763.588-1.376 1.321-1.376m5.824-.254c.881 0 1.565.764 1.565 1.63.01.906-.697 1.642-1.565 1.63-.853-.01-1.533-.742-1.516-1.63 0-.866.685-1.63 1.516-1.63m5.874-.204c.978 0 1.76.815 1.76 1.834s-.783 1.887-1.76 1.887c-.98 0-1.811-.867-1.811-1.887 0-1.019.83-1.834 1.81-1.834m5.823-.254c1.125 0 2.054.916 2.054 2.088s-.929 2.09-2.054 2.09c-1.078 0-2.007-.917-2.007-2.09s.93-2.088 2.007-2.088M6.95 22.137c.734 0 1.32.612 1.32 1.376s-.586 1.376-1.32 1.376-1.322-.612-1.322-1.376.588-1.376 1.321-1.376m5.823-.254c.868-.012 1.576.725 1.565 1.63-.007.898-.704 1.623-1.565 1.63-.831 0-1.516-.765-1.516-1.63 0-.916.685-1.63 1.516-1.63m5.874-.254c.978 0 1.76.866 1.76 1.886.004 1.014-.786 1.838-1.76 1.834-.98 0-1.811-.815-1.811-1.834s.83-1.886 1.81-1.886m5.823-.256c1.125 0 2.054.968 2.054 2.14 0 1.122-.929 2.09-2.054 2.09-1.1-.023-1.985-.945-2.007-2.09 0-1.172.93-2.14 2.007-2.14m5.97-.153c1.224 0 2.2 1.02 2.2 2.293 0 1.222-.978 2.243-2.2 2.243-1.186-.01-2.144-1.009-2.154-2.243.001-1.273.979-2.293 2.153-2.293M6.95 28.713c.734 0 1.32.611 1.32 1.375.004.762-.59 1.38-1.32 1.376-.731.003-1.325-.615-1.322-1.376 0-.762.588-1.375 1.321-1.375m5.823-.256c.868-.01 1.576.726 1.565 1.63 0 .867-.686 1.631-1.565 1.631-.831 0-1.516-.764-1.516-1.63 0-.917.685-1.63 1.516-1.63m5.874-.254c.978 0 1.76.867 1.76 1.886.004 1.015-.786 1.839-1.76 1.835-.98 0-1.811-.815-1.811-1.835 0-1.019.83-1.886 1.81-1.886M24.47 28c1.125 0 2.054.92 2.054 2.09 0 1.174-.929 2.09-2.054 2.09-1.107-.003-2.003-.937-2.007-2.09 0-1.172.93-2.09 2.007-2.09m5.97-.202c1.224 0 2.2 1.017 2.2 2.292 0 1.224-.978 2.295-2.2 2.295-1.175 0-2.154-1.07-2.154-2.295.001-1.275.979-2.292 2.153-2.292m6.361-.155c1.322 0 2.35 1.073 2.35 2.447 0 1.377-1.028 2.448-2.35 2.448-1.304.018-2.366-1.089-2.35-2.448-.016-1.358 1.046-2.464 2.35-2.447M6.95 35.288c.735 0 1.322.61 1.322 1.376 0 .764-.587 1.375-1.322 1.375-.73.003-1.324-.614-1.321-1.375 0-.765.588-1.376 1.321-1.376m5.824-.254c.881 0 1.565.765 1.565 1.63.01.905-.697 1.642-1.565 1.63-.853-.01-1.533-.742-1.516-1.63 0-.865.685-1.63 1.516-1.63m5.874-.204c.974-.003 1.764.82 1.76 1.834 0 1.018-.783 1.886-1.76 1.886-.994-.016-1.796-.85-1.811-1.886 0-1.02.83-1.834 1.81-1.834m5.823-.254c1.125 0 2.054.916 2.054 2.09 0 1.172-.929 2.09-2.054 2.09-1.106-.005-2.002-.938-2.007-2.09 0-1.176.93-2.09 2.007-2.09m5.97-.205c1.224 0 2.2 1.02 2.2 2.295s-.978 2.293-2.2 2.293c-1.175 0-2.154-1.018-2.154-2.293s.979-2.295 2.153-2.295m6.361-.152c1.322 0 2.35 1.07 2.35 2.447 0 1.375-1.028 2.447-2.35 2.447-1.304.017-2.366-1.089-2.35-2.447-.016-1.359 1.046-2.465 2.35-2.447M6.95 41.863c.735 0 1.322.612 1.322 1.376s-.587 1.376-1.322 1.376c-.733 0-1.321-.612-1.321-1.376s.588-1.376 1.321-1.376m5.824-.254c.881 0 1.565.763 1.565 1.63.01.905-.697 1.642-1.565 1.63-.853-.01-1.533-.742-1.516-1.63 0-.867.685-1.63 1.516-1.63m5.874-.205c.974-.003 1.764.82 1.76 1.835 0 1.02-.783 1.886-1.76 1.886-.994-.015-1.797-.85-1.811-1.886 0-1.018.83-1.835 1.81-1.835m5.823-.254c1.125 0 2.054.97 2.054 2.09 0 1.173-.929 2.09-2.054 2.09-1.106-.004-2.002-.937-2.007-2.09 0-1.12.93-2.09 2.007-2.09m5.97-.152c1.224 0 2.2 1.017 2.2 2.243 0 1.275-.978 2.294-2.2 2.294-1.175 0-2.154-1.02-2.154-2.294.01-1.235.968-2.233 2.153-2.243m-.098-39.605c1.224 0 2.251 1.071 2.251 2.344 0 1.325-1.028 2.345-2.25 2.345-1.245.003-2.254-1.049-2.252-2.345 0-1.275 1.029-2.344 2.251-2.344M1.078 9.191c.609-.014 1.113.489 1.125 1.123.01.651-.5 1.182-1.125 1.172-.61-.012-1.093-.538-1.078-1.172C0 9.7.491 9.19 1.078 9.19m0 6.577c.636 0 1.125.51 1.125 1.172-.011.634-.516 1.137-1.125 1.12C.485 18.057.006 17.558 0 16.94c0-.664.491-1.172 1.078-1.172m0 6.573c.636 0 1.125.51 1.125 1.172-.012.634-.516 1.137-1.125 1.122C.485 24.63.006 24.131 0 23.513c-.014-.634.47-1.16 1.078-1.172m0 6.576c.636 0 1.125.56 1.125 1.17-.011.635-.516 1.139-1.125 1.123C.485 31.205.006 30.705 0 30.088c0-.611.491-1.17 1.078-1.17m0 6.627c.636 0 1.125.51 1.125 1.122-.011.634-.516 1.137-1.125 1.12-.593-.003-1.072-.503-1.078-1.12 0-.614.491-1.122 1.078-1.122m0 6.576c.636 0 1.125.51 1.125 1.12.01.652-.5 1.183-1.125 1.173C.468 44.4-.015 43.875 0 43.24c0-.613.491-1.121 1.078-1.121" style="fill:red;stroke-width:1.62683"/></svg>