<?xml version="1.0" encoding="UTF-8"?>
<!-- Created by ERK -->
<svg width="778.96" height="274.11" version="1.1" viewBox="0 0 778.96 274.11" xml:space="preserve" xmlns="http://www.w3.org/2000/svg"><path d="m0 58.248q0-8.7126 3.3284-16.348t9.0063-13.314q5.7758-5.7758 13.412-9.1042t16.348-3.3284h64.415v28.096h-64.415q-2.9368 0-5.4821 1.0768-2.5453 1.0768-4.5032 3.0348-1.86 1.86-2.9368 4.4053-1.0768 2.5453-1.0768 5.4821 0 2.9369 1.0768 5.58 1.0768 2.5453 2.9368 4.5032 1.9579 1.86 4.5032 2.9368 2.5453 1.0768 5.4821 1.0768h28.096q8.7127 0 16.348 3.3284 7.7337 3.2305 13.412 9.0063 5.7758 5.6779 9.0063 13.412 3.3284 7.6358 3.3284 16.348 0 8.7126-3.3284 16.348-3.2305 7.6358-9.0063 13.412-5.6779 5.6779-13.412 9.0063-7.6358 3.3284-16.348 3.3284h-62.359v-28.096h62.359q2.9368 0 5.4821-1.0768 2.5453-1.0768 4.4053-2.9368 1.9579-1.9579 3.0347-4.5032 1.0768-2.5453 1.0768-5.4821t-1.0768-5.4821q-1.0768-2.5453-3.0347-4.4053-1.86-1.9579-4.4053-3.0348-2.5453-1.0768-5.4821-1.0768h-28.096q-8.7127 0-16.348-3.3284t-13.412-9.0063q-5.6779-5.7758-9.0063-13.412-3.3284-7.7337-3.3284-16.446zm154.58 98.287h-26.725v-146.55h26.725v46.304q4.7968-3.6221 9.8874-5.0905 5.0905-1.5663 10.377-1.5663 9.6916 0 18.208 3.72 8.5169 3.6221 14.782 10.083 6.3632 6.3632 9.9853 14.978 3.72 8.5169 3.72 18.208v59.912h-26.921v-59.912h0.19579q0-4.1116-1.5663-7.7337-1.5663-3.72-4.3074-6.4611-2.7411-2.7411-6.3632-4.3074-3.6221-1.5663-7.7337-1.5663-4.2095 0-7.9295 1.5663t-6.4611 4.3074q-2.7411 2.7411-4.3074 6.4611-1.5663 3.6221-1.5663 7.7337zm117.47-133.33q0 3.72-1.4684 6.9505-1.3705 3.2305-3.8179 5.6779-2.4474 2.3495-5.7758 3.8179-3.2305 1.3705-6.9506 1.3705t-7.0484-1.3705q-3.2305-1.4684-5.6779-3.8179-2.3495-2.4474-3.8179-5.6779-1.3705-3.2305-1.3705-6.9505 0-3.6221 1.3705-6.8526 1.4684-3.3284 3.8179-5.6779 2.4474-2.4474 5.6779-3.8179 3.3284-1.4684 7.0484-1.4684t6.9506 1.4684q3.3284 1.3705 5.7758 3.8179 2.4474 2.3495 3.8179 5.6779 1.4684 3.2305 1.4684 6.8526zm-4.6011 133.33h-26.921v-104.85h26.921zm47.283 39.941h-26.921v-144.79h6.4611l10.671 12.628q3.6221-3.4263 7.9295-6.4611 4.3074-3.0347 8.9084-5.1884 4.699-2.2516 9.6916-3.5242 4.9926-1.2726 10.083-1.2726 11.062 0 20.754 4.0137 9.7895 3.9158 17.034 11.16 7.3421 7.2442 11.552 17.523 4.2095 10.181 4.2095 22.614 0 12.922-4.2095 23.299-4.2095 10.279-11.552 17.523-7.2442 7.1463-17.034 10.964-9.6916 3.8179-20.754 3.8179-3.5242 0-7.0484-0.78316-3.4263-0.78316-6.8527-2.0558-3.3284-1.3705-6.6569-3.0347-3.2305-1.6642-6.2653-3.4263zm53.549-93.294q0-6.6569-2.1537-11.943-2.0558-5.2863-5.6779-8.9084-3.6221-3.72-8.5169-5.6779t-10.377-1.9579-10.377 1.9579q-4.7969 1.9579-8.419 5.6779-3.6221 3.6221-5.7758 8.9084-2.0558 5.2863-2.0558 11.943 0 6.3632 2.0558 11.65 2.1537 5.2863 5.7758 9.0063 3.6221 3.72 8.419 5.7758 4.8948 2.0558 10.377 2.0558t10.377-2.0558q4.8948-2.0558 8.5169-5.7758 3.6221-3.72 5.6779-9.0063 2.1537-5.2863 2.1537-11.65zm199.02 0q0 11.747-4.2095 21.928-4.2095 10.083-11.454 17.523-7.2442 7.3421-17.034 11.65-9.6917 4.2095-20.852 4.2095-11.062 0-20.852-4.2095-9.6916-4.3074-17.034-11.65-7.2442-7.44-11.454-17.523-4.2095-10.181-4.2095-21.928 0-11.943 4.2095-22.124 4.2095-10.181 11.454-17.523 7.3422-7.44 17.034-11.65 9.7895-4.2095 20.852-4.2095 11.16 0 20.852 4.0137 9.7895 3.9158 17.034 11.258 7.2442 7.2442 11.454 17.523 4.2095 10.181 4.2095 22.712zm-26.921 0q0-6.4611-2.1537-11.65-2.0558-5.2863-5.6779-9.0063-3.6222-3.8179-8.5169-5.7758-4.7969-2.0558-10.279-2.0558t-10.377 2.0558q-4.7968 1.9579-8.4189 5.7758-3.5242 3.72-5.58 9.0063-2.0558 5.1884-2.0558 11.65 0 6.0695 2.0558 11.258 2.0558 5.1884 5.58 9.0063 3.6221 3.8179 8.4189 6.0695 4.8948 2.1537 10.377 2.1537t10.279-2.0558q4.8947-2.0558 8.5169-5.7758 3.6221-3.72 5.6779-9.0063 2.1537-5.2863 2.1537-11.65zm74.498 53.353h-26.725v-78.218h-13.02v-26.627h13.02v-4.9926q0-9.6916 3.6221-18.208 3.72-8.5169 10.083-14.782 6.461-6.3632 14.978-9.9853 8.5169-3.72 18.208-3.72h20.068v26.627h-20.068q-4.3074 0-8.0274 1.5663-3.6221 1.4684-6.3632 4.2095-2.6432 2.6432-4.2095 6.3632-1.5663 3.6221-1.5663 7.9295v4.9926h32.795v26.627h-32.795z" stroke-linecap="square" stroke-miterlimit="10" style="paint-order:stroke fill markers" aria-label="Ship of"/><path d="m524.39 171.27v68.846l-39.789-66.961h-22.561v100.96h20.561v-68.961l39.789 68.961h22.561v-102.85zm234 0v68.846l-39.789-66.961h-22.56v100.96h20.56v-68.961l39.789 68.961h22.561v-102.85zm-576.41 0.53711c-19.689 0-39.738 13.598-39.738 38.098v64.211h22.561v-20.211h34.629v20.211h22.561v-64.211c0-24.5-20.459-38.098-40.012-38.098zm458.09 0c-19.689 0-39.738 13.598-39.738 38.098v64.211h22.561v-20.211h34.629v20.211h22.561v-64.211c0-24.5-20.459-38.098-40.012-38.098zm-597.24 1.3476v100.96h22.561v-36.885h36.508v36.885h22.561v-100.96h-22.561v42.135h-36.508v-42.135zm290.21 0v100.96h22.561v-27.193l8.4785-10.365 26.525 37.559h28.439l-39.926-56 35.961-44.961h-27.482l-31.996 39.172v-39.172zm90.74 0v100.96h22.561v-100.96zm137.57 0v100.96h22.561v-100.96zm-321.32 0.13477v100.83h22.561v-20.211h18.494l9.9453 20.211h25.568s-11.996-25.98-14.184-29.48c10.255-7.2692 16.816-19.249 16.816-32.711 0-22.481-17.5-38.635-39.514-38.635zm-58.051 20.73c8.7508 0 17.314 6.0572 17.451 17.096v22.576h-34.629v-22.576c0-11.038 7.88-17.096 17.178-17.096zm458.09 0c8.7508 0 17.314 6.0572 17.451 17.096v22.576h-34.629v-22.576c0-11.038 7.88-17.096 17.178-17.096zm-377.47 1.2109h16.58c9.7079 0 17.5 9.4037 17.5 19.365 0 9.6923-7.9288 19.365-17.5 19.365h-16.58z" fill="#eb802b" stroke-linecap="square" stroke-miterlimit="10" style="paint-order:stroke fill markers"/></svg>
