<?xml version="1.0" encoding="UTF-8"?>
<!-- Created by ERK -->
<svg width="4500" height="1810" version="1.1" viewBox="0 0 4500 1810" xml:space="preserve" xmlns="http://www.w3.org/2000/svg"><defs><linearGradient id="linearGradient143" x1="809.32" x2="2134.9" y1="944.54" y2="944.54" gradientTransform="translate(757.93 693.79)" gradientUnits="userSpaceOnUse"><stop stop-color="#82040a" offset="0"/><stop stop-color="#93180f" offset=".25181"/><stop stop-color="#ab0f09" offset=".31693"/><stop stop-color="#c61a14" stop-opacity=".99608" offset=".38278"/><stop stop-color="#e5200e" offset=".4233"/><stop stop-color="#f32415" stop-opacity=".99608" offset=".49204"/><stop stop-color="#119314" stop-opacity=".95686" offset=".53473"/><stop stop-color="#119612" stop-opacity=".99608" offset=".60203"/><stop stop-color="#109512" stop-opacity=".98824" offset=".64472"/><stop stop-color="#0c7a17" stop-opacity=".99608" offset=".7055"/><stop stop-color="#08611d" stop-opacity=".96078" offset=".74674"/><stop stop-color="#085e1d" stop-opacity=".99608" offset="1"/></linearGradient><linearGradient id="linearGradient155" x1="542.72" x2="2448.3" y1="272.2" y2="272.2" gradientTransform="translate(757.93 693.79)" gradientUnits="userSpaceOnUse"><stop offset="0"/><stop stop-color="#100d64" offset=".49783"/><stop offset="1"/></linearGradient><linearGradient id="linearGradient163" x1="2552.8" x2="2552.8" y1="-388.29" y2="11.133" gradientUnits="userSpaceOnUse"><stop stop-color="#ffb701" offset="0"/><stop stop-color="#fde621" offset="1"/></linearGradient><linearGradient id="linearGradient164" x1="2150.2" x2="2150.2" y1="-362.34" y2="1.7195" gradientUnits="userSpaceOnUse"><stop stop-color="#ffb701" offset="0"/><stop stop-color="#fde621" offset="1"/></linearGradient><linearGradient id="linearGradient165" x1="1695.8" x2="1695.8" y1="-362.34" y2=".42485" gradientUnits="userSpaceOnUse"><stop stop-color="#ffb701" offset="0"/><stop stop-color="#fdeb22" offset="1"/></linearGradient><linearGradient id="linearGradient166" x1="996.43" x2="996.43" y1="-386.05" y2="-2.3369" gradientUnits="userSpaceOnUse"><stop stop-color="#ffb701" offset="0"/><stop stop-color="#fdeb22" offset="1"/></linearGradient><linearGradient id="linearGradient167" x1="368.09" x2="368.09" y1="-373.87" y2="1.7992" gradientUnits="userSpaceOnUse"><stop stop-color="#ffb701" offset="0"/><stop stop-color="#fde621" offset="1"/></linearGradient><linearGradient id="linearGradient176" x1="389.63" x2="389.63" y1="-56.52" y2="255.53" gradientUnits="userSpaceOnUse"><stop stop-color="#feb106" offset="0"/><stop stop-color="#fff04d" offset="1"/></linearGradient><linearGradient id="linearGradient177" x1="2568.1" x2="2568.1" y1="-58.609" y2="254.46" gradientUnits="userSpaceOnUse"><stop stop-color="#feb304" offset="0"/><stop stop-color="#fff04d" offset="1"/></linearGradient><linearGradient id="linearGradient178" x1="2150.2" x2="2150.2" y1="-48.802" y2="245.6" gradientUnits="userSpaceOnUse"><stop stop-color="#fdaa0a" offset="0"/><stop stop-color="#fff04d" offset="1"/></linearGradient><linearGradient id="linearGradient179" x1="1794.1" x2="1794.1" y1="-61.854" y2="245.6" gradientUnits="userSpaceOnUse"><stop stop-color="#fcbb0a" offset="0"/><stop stop-color="#fff04d" offset="1"/></linearGradient><linearGradient id="linearGradient180" x1="1477.3" x2="1477.3" y1="-57.14" y2="245.6" gradientUnits="userSpaceOnUse"><stop stop-color="#fcb80b" offset="0"/><stop stop-color="#fff04d" offset="1"/></linearGradient><linearGradient id="linearGradient181" x1="993.82" x2="993.82" y1="-57.164" y2="257.05" gradientUnits="userSpaceOnUse"><stop stop-color="#fdb206" offset="0"/><stop stop-color="#fff04d" offset="1"/></linearGradient><linearGradient id="linearGradient203" x1="1471.8" x2="1471.8" y1="1043" y2="1636.2" gradientTransform="translate(756.15 .35252)" gradientUnits="userSpaceOnUse"><stop stop-color="#facd7b" offset="0"/><stop stop-color="#e9ad31" offset="1"/></linearGradient><linearGradient id="linearGradient207" x1="1473.7" x2="1473.7" y1="1093.6" y2="1598.6" gradientTransform="translate(756.15 .35252)" gradientUnits="userSpaceOnUse"><stop stop-color="#f42" offset="0"/><stop stop-color="#fc3119" offset=".5"/><stop stop-color="#f81e11" offset="1"/></linearGradient><linearGradient id="linearGradient210" x1="658.23" x2="658.23" y1="1126.2" y2="1591.8" gradientUnits="userSpaceOnUse"><stop stop-color="#fff" stop-opacity=".30163" offset="0"/><stop stop-color="#fff" offset=".49783"/><stop stop-color="#fff" stop-opacity=".37073" offset="1"/></linearGradient><linearGradient id="linearGradient213" x1="1206.9" x2="1206.9" y1="1120.8" y2="1540.3" gradientUnits="userSpaceOnUse"><stop stop-color="#fff" stop-opacity=".29756" offset="0"/><stop stop-color="#fff" offset=".49928"/><stop stop-color="#fff" stop-opacity=".29919" offset="1"/></linearGradient><linearGradient id="linearGradient219" x1="1611.9" x2="1611.9" y1="1117.5" y2="1403" gradientUnits="userSpaceOnUse"><stop stop-color="#fff" offset="0"/><stop stop-color="#fff" stop-opacity=".80163" offset="1"/></linearGradient><linearGradient id="linearGradient221" x1="2356.2" x2="2356.2" y1="1147.3" y2="1581.4" gradientUnits="userSpaceOnUse"><stop stop-color="#fff" stop-opacity=".29837" offset="0"/><stop stop-color="#fff" offset=".49783"/><stop stop-color="#fff" stop-opacity=".30488" offset="1"/></linearGradient><linearGradient id="linearGradient240" x1="2525.7" x2="2755.2" y1="628.28" y2="607.77" gradientUnits="userSpaceOnUse"><stop stop-color="#164bb5" offset="0"/><stop stop-color="#164bb5" stop-opacity="0" offset="1"/></linearGradient><linearGradient id="linearGradient242" x1="999.45" x2="989.45" y1="583.08" y2="529.36" gradientUnits="userSpaceOnUse"><stop stop-color="#1750bb" offset="0"/><stop stop-color="#1750bb" stop-opacity=".4" offset="1"/></linearGradient><linearGradient id="linearGradient6" x1="330.31" x2="330.31" y1="395.41" y2="762.47" gradientTransform="translate(757.93 693.79)" gradientUnits="userSpaceOnUse"><stop stop-color="#2075e5" offset="0"/><stop stop-color="#37a7fd" offset="1"/></linearGradient><linearGradient id="linearGradient8" x1="2626.5" x2="2626.5" y1="387.77" y2="762.47" gradientTransform="translate(757.93 693.79)" gradientUnits="userSpaceOnUse"><stop stop-color="#2279e7" offset="0"/><stop stop-color="#37a7fd" offset="1"/></linearGradient></defs><path d="m2179.1 1721.4 68.73 83.59 68.721-83.59z"/><path d="m2242.9 101.33-72.32 89.762h144.65z"/><path d="m2212.9 5.0381c-40.713 0.22324-81.401 2.0362-121.97 5.4316l2.3613 28.248c39.837-3.3342 79.79-5.1128 119.76-5.332zm63.055 0.92578-0.9844 28.328c39.951 1.3911 79.833 4.3413 119.55 8.8418l3.1972-28.168c-40.456-4.5831-81.075-7.5853-121.77-9.002zm-242.02 10.328c-40.418 4.878-80.633 11.331-120.55 19.344l5.5801 27.791c39.195-7.868 78.681-14.203 118.37-18.992zm415.87 5.4629-4.1367 28.043c39.55 5.8306 78.855 13.201 117.83 22.096l6.3086-27.635c-39.693-9.059-79.723-16.566-120-22.504zm-594.82 26.77c-39.583 9.5325-78.778 20.607-117.5 33.195l8.7636 26.957c38.018-12.36 76.502-23.232 115.37-32.592zm772.83 10.143-7.3594 27.375c38.605 10.376 76.791 22.254 114.47 35.607l9.4687-26.717c-38.375-13.6-77.264-25.698-116.58-36.266zm-943.82 41.518c-38.238 13.979-75.917 29.445-112.95 46.361l11.779 25.783c36.362-16.611 73.357-31.796 110.9-45.521zm1118.8 16.779-10.529 26.318c37.117 14.846 73.642 31.135 109.49 48.828l12.543-25.42c-36.506-18.02-73.704-34.607-111.5-49.727zm-1286.3 55.777c-36.351 18.335-71.973 38.081-106.79 59.193l14.699 24.236c34.181-20.73 69.159-40.118 104.85-58.121zm1446.4 19.01-13.428 24.965c35.208 18.935 69.662 39.236 103.29 60.857l15.332-23.844c-34.245-22.02-69.336-42.694-105.19-61.979z"/><path d="m3545.4 1456.6c0.923-70.804-18.248-145.23-46.458-206.59-28.21-61.364-67.865-119.85-115.21-174.57l346.8-89.998-143.3-375.91 108.73-373.63c-12.206-1.5777-24.411-3.1553-36.617-4.7328-6.1027-0.78878-12.205-1.5776-18.308-2.3663s-6.8266-0.88236-18.308-2.3663c-11.481-1.484-20.273-2.62-26.376-3.4082s-3.4876-0.45994-10.24-1.3207c-13.505-1.7214-24.94-2.9892-36.692-4.1202-47.005-4.524-94.435-6.6993-147.41-6.5073-105.94 0.38398-197.4 22.481-277.88 80.414l6e-4 -54.469h-1080.4l-0.1587 72.421c-156.86-125.7-403.98-134.27-563.51-8.8532l13.614-48.23c-92.671-10.579-181.76-21.604-278.44-25.343-96.679-3.7392-190.26-2.7233-274.3 38.387-84.046 41.11-152.05 119.53-167.11 211.64-15.057 92.109 14.493 189.56 87.736 253.83l-92.049 285.57 306.2 67.139c-45.686 55.324-79.582 102.93-111.27 171.65-31.683 68.718-46.54 135.97-44.57 201.76 1.9495 65.123 9.5151 132.52 35.773 193.08l96.203 71.287c301.96-30.878 605.44-42.317 908.8-45.272l68.629-77.515 71.92 74.768 72.47-74.768 73.79 74.768 71.52-74.768 73.65 74.768 71.97-72.567 67.19 77.953c301.82 5.475 603.23 19.686 904.23 42.633l78.394-90.094c20.653-54.294 30.215-116.85 30.968-174.65" fill="url(#linearGradient155)"/><path d="m1566.5 1685.5c131.31-5.3536 262.73-8.225 394.13-9.5048l68.629-77.515 71.92 74.768 72.47-74.768 73.79 74.768 71.52-74.768 73.65 74.768 71.97-72.567 67.19 77.953c120.37 2.1834 240.67 5.7564 360.91 10.719-118.7-11.3-237.66-18.144-356.89-20.533l-66.719-77.403c-2.1598-2.504-5.9936-2.638-8.3198-0.2909l-68.118 68.68-69.669-70.731c-2.2424-2.2776-5.9245-2.2506-8.1328 0.06l-67.488 70.554-69.679-70.597c-2.2327-2.2633-5.8912-2.2468-8.1029 0.037l-68.358 70.516-67.969-70.667c-2.294-2.3856-6.1359-2.3063-8.3303 0.172l-67.159 75.854c-130.6 3.0415-261.02 9.8734-391.24 20.496z" fill="url(#linearGradient143)"/><path d="m1056.6 1456.3-28.502-113.86h117.57l-27.315-116.98h115.79l-26.721-113.06-106.9-23.156c-86.641 102.79-162.11 228.82-157.97 367.06z" fill="url(#linearGradient6)"/><path d="m3359 1081.6c91.555 103.21 165.59 232.18 163.73 374.69l-98.352-2e-4 29.98-113.86h-121.15l30.59-116.98h-117.55l28.79-113.06h-17.52l2.26-5.473z" fill="url(#linearGradient8)"/><path d="m1100.5 1089.2c-86.641 102.79-162.11 228.82-157.97 367.06h18.907c-2.0488-64.865 17.101-135.01 45.16-193 28.059-57.994 67.502-114.32 114.85-169.52z" fill="#f9f9f9" fill-opacity=".20291"/><path d="m3522.7 1456.3c1.8602-142.52-72.176-271.48-163.73-374.69l-20.652 5.2702c97.46 107.59 167.33 234.6 165.49 369.42z" fill="#f9f9f9" fill-opacity=".20291"/><path d="m3608.2 1188.3c-7.1868-51.222-60.823-81.849-108.59-62.006 36.781 2.6606 66.71 30.644 71.834 67.163s-15.949 71.659-50.577 84.339c51.382 5.9318 94.519-38.274 87.332-89.496z" fill="#fd361b"/><path d="m874.03 1167.6c16.112-44.326 67.168-64.817 109.45-43.928-35.085 0.2376-66.319 22.276-78.305 55.251s-2.1937 69.926 24.549 92.637c-45.829-11.14-71.81-59.633-55.698-103.96z" fill="#1f8c3f"/><path d="m1088.7 1262.8a26.457 26.457 0 0 0-52.913 0 26.457 26.457 0 0 0 52.913 0z" fill="#1d6ee2"/><path d="m3436.2 1262.8a26.457 26.457 0 0 0-52.913 0 26.457 26.457 0 0 0 52.913 0z" fill="#1d6ee2"/><path d="m1144 1098.6 55.59 43.523 3.2539-30.775z" fill="#103ca7"/><path d="m3289.8 1123.4 30.879 44.998 25.941-44.998z" fill="#103ca7"/><path d="m1068 1207.6a83.922 83.922 0 0 0-167.84 0 83.922 83.922 0 0 0 167.84 0z"/><path d="m3572.2 1204.3a78.238 78.238 0 0 0-156.48 0 78.238 78.238 0 0 0 156.48 0z"/><path d="m1048.8 1207.6a64.751 64.751 0 0 0-129.5 0 64.751 64.751 0 0 0 129.5 0z" fill="#fff"/><path d="m3559.6 1204.3a65.64 65.64 0 0 0-131.28 0 65.64 65.64 0 0 0 131.28 0z" fill="#fff"/><path d="m1822.7 1005.7-325.29 268.61-73.106-238.34-478.31 621.85 293.29-31.74 117.56-151.16 50.721 105.36 142.95-110.1-4.834 121.37 313.3-0.543 51.352-74.17h114.53l44.631 71.154 317.87-1.9473v-165.68l361.69 213.95-2.1504-30.6 274.02 7.9395 31.279-71.873 121.25 5.6914 57.16 83.568 277.14 12.275-453.85-594.75-152.58 272.1-26.389-278.02-193.33 25.953-208.89-21.271 5.0605 182.68-338.19-210.92v257.96l-162.77-249.08-166.79 238.23zm-18.869 37.642-13.692 278.9 186.18-265.93 180.27 275.86v-284.43l339.06 211.46-5.3984-194.99 191.63 19.514 177.79-23.867 29.859 314.61 166.54-297.01 416.09 545.26-232.31-10.291-57.15-83.545-141.41-6.6386-31.369 72.078-239.78-6.9473 5.2403-9.334h-47.34l1.7696 25.133-359.46-212.63v178.59l-291.49 1.7872-44.6-71.098h-132.84l-51.361 74.186-286.68 0.4961 5.5762-140-155.17 119.51-53.529-111.2-129.98 167.13-246.53 26.682 433.95-564.17 70.908 231.18z"/><path d="m1803.8 1043.3-315.21 260.29-70.908-231.18-433.95 564.17 246.53-26.682 129.98-167.13 53.529 111.2 155.17-119.51-5.5762 140 286.68-0.4961 51.361-74.186h132.84l44.6 71.098 291.49-1.7872v-178.59l359.46 212.63-1.7696-25.133h47.34l-5.2403 9.334 239.78 6.9473 31.369-72.078 141.41 6.6386 57.15 83.545 232.31 10.291-416.09-545.26-166.54 297.01-29.859-314.61-177.79 23.867-191.63-19.514 5.3984 194.99-339.06-211.46v284.43l-180.27-275.86-186.18 265.93zm1024.3 59.115-8.541 15.434-103.94 8.664-10.67-8.664zm-297.26 2.3711 128.75 13.062-10.57 8.664-107.26-10.551zm-760.57 5.4375-13.522 275.47-126.33 161.3h-35.686l7.0098-175.96-176.88 136.23-58.525-121.57-152.06 195.52-163.4 17.684 355.09-461.65 67.006 218.45zm424.03 7.625 339.9 209.05 1.3008-45.414 6.2597 60.312-338.83-204.78v266.32l-8.6309-8.7402zm-219.21 3.3379 268.15 410.76h-12.041l-256.11-394.26-271.99 394.26 115.48 8.707-135.6-0.4141zm1086.8 26.473 331.31 434.07-129.97-5.3301 7.75-4.3007 101.85-1.2539-310.94-410.88-217.54 382.74 138.53 12.053 4.0996 4.3848-155.45-7.4961z" fill="url(#linearGradient203)"/><path d="m2832.5 1094-136.94 18.383 37.17 435.41h52.83l78.789-118.21zm-311.11 3.7715 6 216.88-340.61-212.43v293.78l114.02 143.31 39.279-0.2402v-201.56l355.48 210.28-30.68-435.41zm-751.16 12.492-297.29 245.49-67.006-218.45-355.09 461.65 163.4-17.684 152.06-195.52 58.525 121.57 176.88-136.23-7.0098 175.96h35.686l126.33-161.3zm205.19 0-305.8 436.77 161.49 1.1543 54.432-78.611h165.41l44.529 70.996 160.49-0.9844zm1084.5 22.104-239 426.22 169.4 4.9101 31.529-72.445 177.28 8.3242 57.119 83.504 152.61 6.7597zm-1084.5 175.36 40.471 64.522h-85.141zm1109.5 21.375 44.4 66.904h-69.41z" fill="url(#linearGradient207)"/><g transform="translate(756.15 .35252)"><path d="m1007.5 1126.2-294.67 241.67-63.963-217.04-339.92 441.04 144.13-15.774-122.64 2.1778 315.2-406.2 61.809 214.91 298.84-252.34z" fill="url(#linearGradient210)"/><path d="m1218.9 1120.8-292.11 419.05 135.6 0.4141-115.48-8.707 271.99-394.26 256.11 394.26h12.041z" fill="url(#linearGradient213)"/><path d="m1181.1 1351.9-28.051 32.51h121.27l-19.44-25.816 9.8809 18.387h-97.941z" fill="#fff"/><path d="m1438.1 1117.5v276.75l8.6309 8.7402v-266.32l338.83 204.78-6.2597-60.312-1.3008 45.414z" fill="url(#linearGradient219)"/><path d="m1774.7 1104.4 10.92 11.176 107.26 10.551 10.57-8.664z" fill="#fff"/><path d="m2070.9 1101.9-122.08 15.648 10.67 8.664 103.51-11.884z" fill="#fff"/><path d="m2377 1387 22.24 21.732h-117.3l15.949-18.303-2.3691 12.186h87.959z" fill="#fff"/><path d="m2305.8 1147.3-230.36 403.98 155.45 7.4961-4.0996-4.3848-138.53-12.053 217.54-382.74 310.94 410.88-101.85 1.2539-7.75 4.3007 129.97 5.3301z" fill="url(#linearGradient221)"/></g><path d="m769.5 1016.4c117.3 14.54 230.3 28.851 353.19 27.323 61.446-0.764 118.94-4.2567 174.32-25.736 55.376-21.48 105.48-58.818 141.13-105.08 76.548 80.748 180.96 128.87 295.95 132.16 115 3.2855 223.1-32.86 308.08-104.82l-0.2096 93.645h386.35v-35.141l20.38 35.141h675.41l-6e-4 -71.752c86.481 58.762 197.03 82.743 298.28 80.433 101.25-2.309 206.76-31.104 308.12-57.171l-143.3-375.91 108.73-373.63c-12.206-1.5777-24.411-3.1553-36.617-4.7328-6.1027-0.78878-12.205-1.5776-18.308-2.3663s-6.8266-0.88236-18.308-2.3663c-11.481-1.484-20.273-2.62-26.376-3.4082s-3.4876-0.45994-10.24-1.3207c-13.505-1.7214-24.94-2.9892-36.692-4.1202-47.005-4.524-94.435-6.6993-147.41-6.5073-105.94 0.38398-197.4 22.481-277.88 80.414l6e-4 -54.469h-1080.4l-0.1587 72.421c-156.86-125.7-403.98-134.27-563.51-8.8532l13.614-48.23c-92.671-10.579-181.76-21.604-278.44-25.343-96.679-3.7392-190.26-2.7233-274.3 38.387-84.046 41.11-152.05 119.53-167.11 211.64-15.057 92.109 14.493 189.56 87.736 253.83z"/><path d="m786.99 1005.2c28.758 3.5568 57.516 7.1135 86.271 10.696 3.5943 0.4478 7.1886 0.896 10.784 1.337 3.595 0.441 7.191 0.8748 10.789 1.2937 7.195 0.8379 14.397 1.6166 21.604 2.3437 14.418 1.4547 28.857 2.7032 43.309 3.7827 14.454 1.0797 28.921 1.9903 43.395 2.7682 14.466 0.7776 28.939 1.4226 43.417 1.9393 14.475 0.5165 28.955 0.9047 43.438 1.0829 14.49 0.1783 28.982 0.1463 43.47-0.1752 14.492-0.3216 28.979-0.9329 43.443-1.8919 7.2114-0.4781 14.417-1.0427 21.613-1.7146 7.1822-0.6706 14.355-1.4481 21.501-2.4379 7.1401-0.9892 14.252-2.1904 21.314-3.6369 7.085-1.4513 14.119-3.1494 21.089-5.0862 14.045-3.9027 27.828-8.7742 41.213-14.574 13.276-5.7534 26.158-12.421 38.487-19.971 12.393-7.59 24.227-16.073 35.545-25.225 11.331-9.1628 22.146-18.997 31.94-29.732 9.7972-10.739 18.573-22.38 27.349-34.021 76.2 86.408 184.47 137.81 304.31 139.98s231.43-41.789 314.19-121.58l-0.2415 110.24h359.86v-71.08l41.23 71.08h654.56l3e-4 -84.472c82.422 63.943 193.69 93.062 294.33 93.329 50.323 0.1335 105.03-6.1485 155.27-15.971 12.561-2.4555 25.718-5.29 38.246-8.2169 6.2641-1.4634 13.577-3.2441 19.054-4.6185 2.7388-0.6872 8.704-2.2104 9.5124-2.4178 0.8083-0.20748 9.2771-2.3896 9.5081-2.4491 1.8484-0.47634 27.205-6.9989 76.071-19.568l-139.62-366.23 105.66-363.06c-97.816-12.643-189.9-24.732-294.65-22.519-104.75 2.2134-195.82 30.546-273.39 93.774l-3e-4 -68.043h-616.64v28.728l-14.44-28.728h-422.88l-0.1911 88.022c-159.91-148.7-443.63-152.72-601.54 1.7148l21.522-76.249c-44.665-5.0984-90.009-10.718-134.02-14.944s-81.178-6.885-134.4-8.7984c-53.227-1.9134-88.688-2.7338-134.94 2.2248-46.248 4.9586-88.886 16.194-129.23 36.36-80.693 40.332-145.38 117.02-158.08 206.06-12.707 89.037 19.795 183.13 90.816 241.89z" fill="#fff"/><g transform="translate(756.15 .35252)"><path transform="translate(1.7855 693.44)" d="m152 22.441-17.699 5.6289-87.74 272.21 19.994-12.756z" fill="#096999"/><path d="m703.6 274.71c-85.862-9.8013-165.1-19.01-257.98-22.111-92.875-3.1011-176.68-0.84525-253.98 38.533-77.299 39.379-138.71 113.73-149.33 199.97-10.629 86.243 23.404 175.68 93.771 230.41l17.698-5.6288c-2.1399-1.5442-4.26-3.117-6.3594-4.7197-4.3668-3.3334-8.6442-6.7955-12.824-10.398-4.1795-3.6028-8.2642-7.3514-12.189-11.203-7.8492-7.7029-15.114-15.859-21.714-24.531-6.5999-8.6717-12.514-17.875-17.733-27.618-1.3047-2.4357-2.5687-4.91-3.7793-7.3956s-2.3699-4.9863-3.48-7.5015c-2.2201-5.0304-4.2432-10.119-6.0807-15.261-3.6751-10.286-6.6118-20.788-8.8532-31.495-1.1207-5.3535-2.0667-10.758-2.8378-16.215-0.77115-5.4563-1.3672-10.975-1.781-16.471-0.82765-10.992-0.94325-21.959-0.35431-32.902 0.29447-5.4714 0.76609-10.937 1.4204-16.396 0.65428-5.459 1.4926-10.919 2.521-16.357 2.0567-10.875 4.8315-21.472 8.3572-31.777s7.8195-20.312 12.912-30.008c2.5464-4.8483 5.2905-9.6198 8.2326-14.314 1.4711-2.3473 2.9871-4.6678 4.5386-6.95s3.1408-4.5299 4.7665-6.7446c6.5029-8.8586 13.587-17.189 21.173-25.063 7.5858-7.8741 15.666-15.299 24.201-22.31 2.1337-1.7528 4.2964-3.4789 6.4749-5.1682 2.1785-1.6894 4.376-3.3447 6.5923-4.9667 4.4325-3.244 8.9399-6.3544 13.52-9.3353 9.1602-5.9616 18.611-11.406 28.342-16.348s19.744-9.3839 30.038-13.324c2.5734-0.98493 5.1684-1.9398 7.7695-2.859s5.2082-1.803 7.8211-2.652c5.2258-1.6979 10.475-3.2567 15.747-4.6809 10.544-2.8484 21.179-5.1495 31.889-7.0074 21.42-3.7158 43.136-5.6743 65.027-6.5886 5.4728-0.22858 10.96-0.39125 16.441-0.49808 5.4806-0.10679 10.958-0.15839 16.432-0.16439 10.948-0.0127 21.885 0.15412 32.815 0.41444 21.861 0.52064 43.701 1.3482 65.522 2.4838s43.621 2.5879 65.399 4.372 43.535 3.9002 65.271 6.3471c5.4338 0.61171 10.867 1.2378 16.3 1.858 16.3 1.8606 32.6 3.7213 48.899 5.5819z" fill="#46b8ff"/><path d="m679.28 869.35c-7.82 11.96-15.64 23.919-24.608 34.988-8.979 11.082-19.109 21.27-29.767 30.791-4.5596 4.0729-9.2158 8.0234-13.982 11.84-4.7359 3.7921-9.5805 7.4518-14.533 10.964-13.163 9.3353-27.089 17.63-41.586 24.735-12.836 6.2911-26.12 11.65-39.718 16.055-13.499 4.3724-27.308 7.8036-41.278 10.244-6.9815 1.2199-14.003 2.1925-21.042 3.0031-7.0619 0.8133-14.141 1.4636-21.228 2.0279-14.208 1.1313-28.444 1.9168-42.69 2.396-14.226 0.4786-28.462 0.6519-42.696 0.5982-14.23-0.054-28.457-0.3342-42.681-0.7583-14.228-0.4243-28.452-0.9923-42.67-1.6805-14.226-0.6885-28.446-1.4974-42.657-2.4505-14.206-0.9527-28.403-2.0495-42.578-3.3736-14.171-1.3238-28.32-2.8747-42.459-4.5109-28.282-3.2731-56.522-6.8874-84.762-10.502l19.995-12.755c19.027 2.3586 38.053 4.717 57.08 7.0755 4.7567 0.58961 9.5129 1.1841 14.272 1.7447 4.7592 0.5606 9.5207 1.0954 14.284 1.6063 9.5272 1.0217 19.063 1.9476 28.606 2.7902 19.086 1.6851 38.201 3.0378 57.338 4.1378 9.5686 0.54997 19.143 1.0364 28.722 1.4676 9.579 0.43121 19.164 0.81121 28.751 1.1313 38.346 1.2808 76.598 1.5215 114.63-0.7143 9.507-0.55899 19-1.2687 28.477-2.1588 9.4771-0.89011 18.935-1.9924 28.35-3.5636s18.789-3.6102 28.118-6.1375c4.6645-1.2637 9.318-2.6497 13.96-4.1623 2.321-0.75632 4.6391-1.5443 6.9543-2.3646s4.6317-1.6747 6.9315-2.5567c9.1992-3.5283 18.145-7.5017 26.844-11.911 8.6986-4.4094 17.15-9.255 25.35-14.541 8.2006-5.2862 16.149-11.017 23.865-17.156 7.7161-6.1391 15.095-12.596 22.106-19.382s13.657-13.904 19.9-21.389c6.2429-7.4848 12.083-15.336 17.462-23.606 1.3447-2.0676 2.6622-4.1646 3.9405-6.2737 1.2783-2.1092 2.5196-4.2334 3.7236-6.373 2.4079-4.2791 4.6664-8.6194 6.7725-13.022 0.6962-1.4554 1.3754-2.9178 2.0376-4.3871z" fill="#35b5ff"/><path transform="translate(1.7855 693.44)" d="m668.81-301.81c-9.931 13.015-18.981 26.569-27.181 40.646l40.804-144.56 19.38-13.004z" fill="#196c9c"/><path d="m628.09 486.57 15.323-54.289c65.58-112.58 181.8-184.07 319.11-191.99 68.657-3.9631 130.53 2.8667 191 24.352s117.46 57.903 160.21 105.44l15.022 43.534c-4.3318-6.3566-8.8903-12.538-13.672-18.547-7.7698-9.7649-16.12-19.082-25.023-27.971-4.4517-4.4446-9.0422-8.782-13.77-13.013-2.3641-2.1155-4.7648-4.2062-7.1853-6.2581s-4.864-4.0682-7.33-6.0495c-9.8637-7.9254-20.085-15.295-30.64-22.147-10.555-6.851-21.445-13.183-32.662-19.005-5.6087-2.911-11.3-5.6946-17.074-8.3483-5.7732-2.6537-11.588-5.159-17.443-7.519-11.71-4.7199-23.582-8.8599-35.614-12.42-12.033-3.5597-24.228-6.5394-36.572-8.9791-6.1724-1.2199-12.382-2.3048-18.628-3.2601-3.123-0.47766-6.255-0.92292-9.3959-1.3365s-6.2936-0.79568-9.4427-1.1456c-12.596-1.3995-25.168-2.2887-37.719-2.7496-6.2752-0.23042-12.545-0.3536-18.81-0.37901-6.2652-0.0254-12.526 0.0469-18.781 0.22504-12.51 0.3564-25 1.1356-37.466 2.4134-12.465 1.2778-24.906 3.0535-37.318 5.4214-6.206 1.184-12.405 2.5163-18.595 4.0113s-12.318 3.1395-18.378 4.9389c-12.119 3.5989-23.966 7.8259-35.53 12.705-11.564 4.8794-22.852 10.396-33.874 16.529-5.5106 3.0666-10.954 6.2876-16.331 9.6631-2.6884 1.6877-5.3636 3.4165-8.0126 5.1777s-5.2697 3.5533-7.8628 5.3758c-10.372 7.2898-20.303 15.063-29.813 23.296-9.51 8.2333-18.6 16.926-27.266 26.083-4.333 4.5784-8.5598 9.273-12.678 14.086-2.0593 2.4065-4.0915 4.8427-6.0963 7.3088-2.0048 2.4662-3.9835 4.9643-5.9238 7.4788-7.7612 10.058-14.951 20.428-21.58 31.104-6.6285 10.676-12.695 21.659-18.191 32.953-3.1753 6.5262-6.1593 13.157-8.9479 19.894z" fill="#39b6ff"/><path transform="translate(1.7855 693.44)" d="m685.96 162.3c1.9697 2.4962 3.9722 4.9732 5.9974 7.4195 2.0253 2.4464 4.0758 4.8652 6.1511 7.2569 4.1507 4.7834 8.4006 9.4585 12.747 14.028 8.6931 9.1393 17.772 17.858 27.226 26.166 9.4546 8.3082 19.282 16.209 29.514 23.669 5.1157 3.7302 10.34 7.3543 15.656 10.852s10.698 6.8502 16.146 10.056c10.897 6.4115 22.06 12.236 33.507 17.431s23.18 9.7635 35.227 13.636c6.0236 1.9364 12.128 3.6975 18.313 5.2756s12.393 2.9626 18.623 4.1745c12.46 2.4238 25.006 4.1576 37.618 5.36 6.306 0.60119 12.629 1.0694 18.965 1.4242 3.1684 0.17739 6.3402 0.32642 9.5153 0.44956 3.1751 0.12315 6.3592 0.22055 9.5346 0.29429 25.404 0.58996 50.646-0.31036 75.645-3.4556 12.5-1.5726 24.939-3.708 37.304-6.5202 3.0915-0.70308 6.1783-1.4486 9.2603-2.2385 3.082-0.78992 6.1647-1.6259 9.2265-2.5038 6.1237-1.7558 12.16-3.6802 18.113-5.7647 11.907-4.169 23.484-8.9725 34.772-14.335 11.288-5.3622 22.286-11.283 33.023-17.709 10.737-6.4251 21.213-13.354 31.448-20.747 5.1176-3.6967 10.184-7.5147 15.17-11.435 4.9862-3.9206 9.8759-7.9319 14.666-12.037 9.5807-8.2093 18.765-16.791 27.52-25.776s17.082-18.373 24.931-28.209c3.9246-4.9183 7.7296-9.949 11.407-15.1 0.9612-1.3464 1.9136-2.7009 2.8584-4.0638l-15.217 43.771c-78.907 89.103-194.63 142.16-319.49 141.4-124.86-0.76352-238.42-56.067-313.85-149.15l-2.4668-28.136c3.525 4.9083 7.1702 9.748 10.935 14.519z" fill="#036898"/><path transform="translate(1.7855 693.44)" d="m1312.2-430.37-0.2285 107.01 15.02 43.535 0.2988-135.42z" fill="#066998"/><path d="m1327.8 833.33-15.221 43.771-0.2793 129.96 15.15-15.119z" fill="#3cb6ff"/><path d="m1314 263.07 15.09 15.119h377.11l9.3203-15.119z" fill="#33b4ff"/><path transform="translate(1.7855 693.44)" d="m1325.7 298.51-15.15 15.119h333.37l-15.119-15.119z" fill="#0a6c9a"/><path d="m1630.6 843.86v148.09l15.119 15.119v-107.02z" fill="#4dbaff"/><path transform="translate(1.7855 693.44)" d="m1713.7-430.37-9.3203 15.119 60.26 119.94-15.121-63.768z" fill="#22759f"/><path d="m1751.3 263.07v71.295l15.121 63.768v-119.94z" fill="#45b1f9"/><path transform="translate(1.7855 693.44)" d="m1628.8 150.42 15.119 56.191 62.08 107.02 8.7109-15.119z" fill="#47b8fe"/><path transform="translate(1.7855 693.44)" d="m1749.5-430.37 15.121 15.119h559.95l15.121-15.119z" fill="#37b5ff"/><path d="m1716.5 991.95-8.7109 15.119h633.71l-15.121-15.119z" fill="#046998"/><path d="m2341.5 263.07-15.121 15.119v105.94l15.121-37.141z" fill="#29739d"/><path transform="translate(1.7855 693.44)" d="m2324.6 177.58v120.93l15.121 15.119v-99.543z" fill="#48b9ff"/><path transform="translate(1.7855 693.44)" d="m2904-435.67c-98.248-12.699-191.83-24.521-296.1-19.819-104.27 4.7014-196.15 41.718-268.15 109.04l-15.119 37.14c2.5245-2.8431 5.0911-5.65 7.7009-8.4216 6.7445-7.1625 13.78-14.087 21.101-20.778 3.6605-3.3455 7.4002-6.6387 11.192-9.8566 3.7915-3.2179 7.6307-6.3579 11.516-9.4215 15.543-12.255 31.828-23.295 48.888-33.066 8.5302-4.8853 17.256-9.4511 26.188-13.678 4.4663-2.1133 8.9845-4.1416 13.557-6.0815 4.5722-1.9399 9.2125-3.7964 13.865-5.5441 9.3051-3.4954 18.666-6.5608 28.082-9.2003 9.4158-2.6396 18.886-4.8608 28.402-6.7258 19.032-3.7299 38.248-6.0344 57.586-7.3912 19.338-1.3569 38.8-1.7628 58.319-1.7195 9.7596 0.0216 19.533 0.14456 29.315 0.3422s19.556 0.47864 29.322 0.8516c19.532 0.7459 39.033 1.8582 58.494 3.4191 9.7306 0.78045 19.451 1.6734 29.161 2.6913 4.8549 0.50896 9.7071 1.0492 14.556 1.6225 4.8493 0.57328 9.6948 1.1898 14.539 1.816 19.379 2.5047 38.757 5.0094 58.135 7.5141z" fill="#48b9ff"/><path d="m2630.2 1015.6c50.243 1.6608 105.09-3.4014 155.65-12.418 12.642-2.2543 26.163-4.9568 38.591-7.6756 6.2138-1.3594 12.514-2.7967 18.9-4.3118 6.3864-1.5151 19.106-4.6995 19.418-4.779 1.2482-0.31797 26.675-6.8567 76.28-19.617l-20.152-10.426c-18.67 4.802-37.338 9.6039-56.006 14.406-4.6671 1.2005-9.3374 2.3831-14.014 3.5317-4.6764 1.1487-9.358 2.268-14.045 3.3567-9.3742 2.1773-18.77 4.2317-28.19 6.1511-18.84 3.8388-37.777 7.1392-56.829 9.7911-19.052 2.6518-38.22 4.656-57.529 5.8728-4.8272 0.30422-9.6632 0.55901-14.508 0.76181-4.8453 0.2029-9.7016 0.3536-14.546 0.4494-9.6897 0.1915-19.354 0.1644-28.99-0.097-19.273-0.522-38.435-1.9774-57.471-4.5071-19.036-2.5298-37.945-6.1328-56.706-10.988-4.6903-1.2138-9.3713-2.5062-14.043-3.8804s-9.321-2.8269-13.93-4.3535c-9.2184-3.0533-18.297-6.4093-27.234-10.074-17.873-7.3288-35.186-15.873-51.908-25.7-4.1804-2.4566-8.3236-4.9941-12.428-7.6151-4.1047-2.621-8.1663-5.3231-12.158-8.0899-7.9838-5.5337-15.718-11.344-23.196-17.44-13.852-11.292-26.83-23.555-38.824-36.916l15.119 36.503c77.353 69.758 188.26 104.74 288.75 108.07z" fill="#0d6b99"/><path d="m2905.7 257.77-19.451 12.73-99.059 340.4 15.93-0.64453z" fill="#036998"/><path transform="translate(1.7855 693.44)" d="m2801.4-83.186-15.93 0.64453 131.7 345.47 20.15 10.426z" fill="#47b9ff"/><path transform="translate(1.7855 693.44)" d="m46.558 300.28c28.24 3.6145 56.48 7.2288 84.762 10.502 14.139 1.6362 28.288 3.1872 42.459 4.5109 14.175 1.3242 28.372 2.421 42.578 3.3737 14.211 0.95305 28.431 1.7619 42.657 2.4505 14.218 0.68818 28.442 1.2562 42.67 1.6805 14.223 0.42412 28.451 0.70462 42.681 0.75831 14.234 0.0537 28.47-0.11956 42.696-0.59818 14.245-0.47925 28.481-1.2647 42.69-2.3961 7.0863-0.56426 14.166-1.2146 21.228-2.0279 7.0391-0.81064 14.061-1.7832 21.042-3.0031 13.969-2.4409 27.778-5.872 41.278-10.244 13.598-4.4043 26.882-9.7637 39.718-16.055 14.498-7.1056 28.423-15.4 41.586-24.735 4.9525-3.5123 9.7971-7.1719 14.533-10.964 4.7663-3.8164 9.4225-7.767 13.982-11.84 10.658-9.5204 20.788-19.709 29.767-30.791 8.9681-11.068 16.788-23.028 24.608-34.988 75.426 93.086 188.99 148.39 313.85 149.15 124.86 0.76353 240.59-52.297 319.49-141.4l-0.2818 129.96h333.37v-107.02l62.08 107.02h633.71l1e-3 -99.543c77.353 69.758 188.26 104.74 288.75 108.07 50.243 1.6608 105.09-3.4014 155.65-12.418 12.642-2.2543 26.163-4.9568 38.591-7.6756 6.2138-1.3594 12.514-2.7967 18.9-4.3118 6.3864-1.5151 19.106-4.6995 19.418-4.779 1.2482-0.31797 26.675-6.8567 76.28-19.617l-135.92-356.54 102.58-352.48c-98.248-12.699-191.83-24.521-296.1-19.819-104.27 4.7014-196.15 41.718-268.15 109.04l-1e-3 -83.914h-590.19v71.295l-35.82-71.295h-401.52l-0.2322 107.01c-80.221-89.216-198.66-132.49-326.97-130.66-128.31 1.834-242.19 55.264-316.17 152.21l33.003-116.92c-85.862-9.8013-165.1-19.01-257.98-22.111-92.875-3.1011-176.68-0.84525-253.98 38.533-77.299 39.379-138.71 113.73-149.33 199.97-10.629 86.243 23.404 175.68 93.771 230.41z" display="none" fill="#47b7fd"/></g><path d="m3097.6 907.88-15.119-36.502c11.993 13.361 24.972 25.624 38.824 36.916 7.478 6.096 15.213 11.908 23.197 17.441 3.9919 2.7668 8.0535 5.4688 12.158 8.0898 4.1046 2.621 8.2474 5.1586 12.428 7.6152 16.722 9.8266 34.033 18.37 51.906 25.699 8.9367 3.6644 18.016 7.0209 27.234 10.074 4.6092 1.5267 9.2602 2.9793 13.932 4.3535 4.6714 1.3742 9.3508 2.6651 14.041 3.8789 18.761 4.8553 37.671 8.4585 56.707 10.988 19.036 2.5298 38.198 3.9858 57.471 4.5078 9.6363 0.2614 19.3 0.2891 28.99 0.098 4.8449-0.096 9.6996-0.2463 14.545-0.4492 4.8453-0.2028 9.6826-0.4574 14.51-0.76167 19.309-1.2168 38.477-3.2212 57.529-5.873s37.988-5.9522 56.828-9.791c9.4202-1.9194 18.817-3.9751 28.191-6.1524 4.687-1.0886 9.3686-2.2068 14.045-3.3555 4.6763-1.1487 9.3465-2.3327 14.014-3.5332 18.668-4.8019 37.336-9.6023 56.006-14.404v0l-131.7-345.47 99.059-340.4c-19.377-2.5046-38.757-5.009-58.135-7.5137-4.8446-0.62618-9.6898-1.2431-14.539-1.8164-4.8492-0.57328-9.7017-1.1141-14.557-1.623-9.7098-1.0179-19.43-1.911-29.16-2.6914-19.461-1.5609-38.962-2.674-58.494-3.4199-9.7662-0.37296-19.541-0.65393-29.322-0.85158-9.7816-0.19763-19.555-0.32018-29.314-0.34179-19.519-0.0433-38.98 0.36385-58.318 1.7207-19.338 1.3569-38.554 3.6607-57.586 7.3906-9.5159 1.865-18.986 4.087-28.402 6.7266-9.4157 2.6396-18.777 5.7038-28.082 9.1992-4.6526 1.7477-9.2931 3.605-13.865 5.5449-4.5722 1.9399-9.0903 3.9668-13.557 6.0801-8.9326 4.2266-17.657 8.7925-26.188 13.678-17.06 9.7705-33.346 20.812-48.889 33.066-3.8857 3.0637-7.7241 6.2039-11.516 9.4219-3.7915 3.218-7.5309 6.51-11.191 9.8555-7.3211 6.691-14.357 13.617-21.102 20.779-2.6098 2.7716-5.1766 5.5788-7.7011 8.4219l15.119-37.141-15.121 37.141v-105.94h-559.95v119.94l-60.26-119.94h-377.11l-0.2988 135.42c-4.3318-6.3566-8.8905-12.54-13.672-18.549-7.7698-9.7649-16.12-19.081-25.024-27.971-4.4517-4.4446-9.0414-8.7826-13.77-13.014-2.3641-2.1155-4.765-4.2059-7.1855-6.2578s-4.8641-4.0675-7.3301-6.0488c-9.8637-7.9254-20.085-15.295-30.641-22.146-10.555-6.851-21.445-13.184-32.662-19.006-5.6087-2.911-11.301-5.694-17.074-8.3476-5.7732-2.6537-11.586-5.1596-17.441-7.5195-11.71-4.7199-23.582-8.8602-35.615-12.42-12.033-3.5597-24.228-6.5388-36.572-8.9785-6.1724-1.2199-12.383-2.3045-18.629-3.2598-3.123-0.47766-6.2536-0.92238-9.3945-1.3359s-6.2943-0.79662-9.4434-1.1465c-12.596-1.3995-25.168-2.2891-37.719-2.75-6.2752-0.23042-12.545-0.3535-18.811-0.37891-6.2652-0.0254-12.526 0.0484-18.781 0.22657-12.51 0.3564-24.999 1.1344-37.465 2.4121-12.465 1.2778-24.906 3.0539-37.318 5.4219-6.2059 1.184-12.405 2.5167-18.596 4.0117-6.1907 1.495-12.317 3.14-18.377 4.9394-12.119 3.599-23.967 7.8257-35.531 12.705-11.564 4.8794-22.852 10.396-33.873 16.529-5.5106 3.0666-10.953 6.2866-16.33 9.6621-2.6883 1.6877-5.3647 3.4165-8.0137 5.1777s-5.2702 3.5545-7.8632 5.377c-10.372 7.2898-20.303 15.062-29.812 23.295-9.51 8.2333-18.6 16.927-27.266 26.084-4.333 4.5784-8.5591 9.2729-12.678 14.086-2.0593 2.4065-4.0909 4.8424-6.0957 7.3086s-3.9835 4.964-5.9238 7.4785c-7.7613 10.058-14.952 20.427-21.58 31.104-6.6285 10.676-12.696 21.661-18.191 32.955-3.1753 6.5262-6.1587 13.157-8.9473 19.895l-7.039 3.416 15.324-54.289 40.803-144.56c-16.3-1.8606-32.599-3.7214-48.898-5.582-5.4333-0.62022-10.867-1.2457-16.301-1.8574-21.735-2.4468-43.491-4.5636-65.27-6.3477-21.778-1.7841-43.58-3.2374-65.4-4.373-21.821-1.1356-43.661-1.9618-65.522-2.4824-10.93-0.26032-21.866-0.42872-32.814-0.41602-5.474 6e-3 -10.951 0.0592-16.432 0.16602-5.4806 0.10683-10.969 0.26946-16.441 0.49804-21.891 0.9143-43.607 2.8721-65.027 6.5879-10.71 1.8579-21.345 4.1594-31.889 7.0078-5.2719 1.4242-10.52 2.9818-15.746 4.6797-2.6129 0.84896-5.2212 1.7331-7.8223 2.6524s-5.1961 1.8744-7.7695 2.8594c-10.294 3.9397-20.306 8.3816-30.037 13.324s-19.182 10.386-28.342 16.348c-4.5801 2.9808-9.087 6.092-13.52 9.3359-2.2163 1.622-4.4153 3.2774-6.5938 4.9668s-4.3409 3.4152-6.4746 5.168c-8.5348 7.0113-16.615 14.435-24.201 22.309-7.5858 7.8741-14.669 16.206-21.172 25.064-1.6257 2.2147-3.2161 4.462-4.7676 6.7441-1.5515 2.2822-3.066 4.6019-4.5371 6.9492-2.9421 4.6946-5.686 9.4662-8.2324 14.314-5.0929 9.6965-9.3883 19.705-12.914 30.01s-6.2987 20.9-8.3555 31.775c-1.0284 5.4377-1.8672 10.898-2.5215 16.357-0.65428 5.459-1.1254 10.925-1.4199 16.396-0.58894 10.943-0.47413 21.909 0.35351 32.9 0.41383 5.4958 1.0101 11.016 1.7812 16.473 0.77115 5.4563 1.7172 10.861 2.8379 16.215 2.2414 10.707 5.1784 21.209 8.8535 31.494 1.8376 5.1428 3.86 10.231 6.0801 15.262 1.11 2.5152 2.2699 5.0163 3.4805 7.502 1.2106 2.4856 2.4746 4.9588 3.7793 7.3945 5.2188 9.7428 11.132 18.947 17.732 27.619 6.5999 8.6717 13.864 16.828 21.713 24.531 3.9246 3.8514 8.01 7.5984 12.189 11.201 4.1795 3.6028 8.4574 7.065 12.824 10.398 2.0994 1.6026 4.2194 3.1766 6.3594 4.7207l-85.445 265.08c19.027 2.3586 38.053 4.7177 57.08 7.0762 4.7567 0.58961 9.5142 1.1835 14.273 1.7441 4.7592 0.5606 9.5196 1.0966 14.283 1.6074 9.5272 1.0217 19.063 1.9465 28.605 2.7891 19.086 1.6851 38.201 3.0387 57.338 4.1387 9.5686 0.54997 19.144 1.0356 28.723 1.4668s19.164 0.8107 28.75 1.1308c38.346 1.2808 76.599 1.5229 114.63-0.7129 9.5071-0.55894 19-1.27 28.477-2.1601 9.4771-0.89011 18.936-1.9913 28.352-3.5625 9.4154-1.5712 18.788-3.6113 28.117-6.1387 4.6645-1.2637 9.3189-2.6495 13.961-4.1621 2.321-0.75632 4.6379-1.543 6.9531-2.3633s4.6319-1.6746 6.9317-2.5566c9.1991-3.5283 18.145-7.5027 26.844-11.912 8.6987-4.4094 17.151-9.2548 25.352-14.541 8.2006-5.2862 16.147-11.017 23.863-17.156 7.7161-6.1391 15.096-12.597 22.107-19.383s13.658-13.904 19.9-21.389c6.2429-7.4848 12.082-15.337 17.461-23.607 1.3447-2.0676 2.6631-4.1643 3.9414-6.2734 1.2783-2.1092 2.5187-4.2335 3.7227-6.373 2.4079-4.2791 4.6674-8.6189 6.7734-13.021 0.6962-1.4554 1.3749-2.9174 2.0371-4.3867 3.525 4.9083 7.1705 9.7482 10.936 14.52 1.9697 2.4962 3.9727 4.9736 5.998 7.4199 2.0253 2.4464 4.0751 4.8642 6.1504 7.2559 4.1507 4.7834 8.3995 9.4596 12.746 14.029 8.693 9.1393 17.772 17.856 27.227 26.164 9.4546 8.3082 19.282 16.21 29.514 23.67 5.1158 3.7302 10.34 7.3543 15.656 10.852s10.698 6.8509 16.146 10.057c10.897 6.4115 22.06 12.236 33.508 17.432s23.179 9.762 35.226 13.635c6.0236 1.9364 12.128 3.6992 18.312 5.2773 6.1845 1.5781 12.393 2.9619 18.623 4.1738 12.46 2.4238 25.007 4.157 37.619 5.3593 6.3061 0.6012 12.628 1.0691 18.965 1.4239 3.1683 0.1774 6.3405 0.328 9.5156 0.4511 3.1751 0.1232 6.3597 0.2193 9.5351 0.293 25.404 0.59 50.645-0.3098 75.645-3.455 12.5-1.5727 24.939-3.7073 37.305-6.5196 3.0915-0.70308 6.1778-1.4484 9.2598-2.2383 3.082-0.78992 6.1647-1.626 9.2265-2.5039 6.1237-1.7558 12.16-3.6812 18.113-5.7656 11.907-4.169 23.483-8.9718 34.772-14.334 11.288-5.3622 22.286-11.284 33.023-17.709s21.214-13.355 31.449-20.748c5.1175-3.6967 10.184-7.515 15.17-11.436 4.9862-3.9206 9.8757-7.9305 14.666-12.035 9.5807-8.2093 18.766-16.792 27.522-25.777s17.08-18.372 24.93-28.209c3.9246-4.9183 7.7309-9.9489 11.408-15.1 0.9612-1.3464 1.9126-2.7015 2.8574-4.0645l-7.6074 21.885 7.6093-21.885-0.3496 158.62h303.1v-148.09l85.91 148.09h609.88v-120.93z" fill="#1324a8" stroke-linecap="round" stroke-width="2"/><g transform="translate(756.15 .35252)" fill="#042673"><path transform="translate(1.7855 693.44)" d="m388.41-381.43c-13.1 0.0135-26.175 0.29338-39.207 1.0117-13.032 0.71835-26.022 1.8731-38.951 3.6738s-25.797 4.2453-38.574 7.627c-6.3888 1.6908-12.755 3.614-19.098 5.7852-3.1714 1.0856-6.3306 2.2312-9.4551 3.4297s-6.2215 2.4517-9.2891 3.7598c-12.27 5.2321-24.087 11.337-35.428 18.355-2.8353 1.7547-5.6412 3.5666-8.416 5.4375s-5.5219 3.8036-8.2285 5.7891c-5.4132 3.971-10.635 8.1323-15.666 12.484-10.061 8.7041-19.385 18.142-27.74 28.545-2.0889 2.6006-4.1162 5.2631-6.0781 7.9902-1.9619 2.7272-3.8614 5.5266-5.666 8.3574-3.6093 5.6617-6.8654 11.482-9.7578 17.469s-5.4153 12.141-7.582 18.457c-1.0834 3.1579-2.0801 6.3554-2.9902 9.5918-0.91016 3.2364-1.7337 6.5142-2.4668 9.791-1.4663 6.5537-2.5806 13.144-3.3691 19.77-0.78854 6.6251-1.2515 13.284-1.3965 19.977-0.0725 3.3464-0.0647 6.7011 0.02344 10.064 0.08815 3.3634 0.25763 6.7316 0.50586 10.074 0.49647 6.6852 1.3072 13.305 2.4355 19.859s2.5728 13.042 4.3516 19.461c1.7787 6.4194 3.8911 12.77 6.375 19.043 2.4839 6.2732 5.2931 12.35 8.4297 18.203 3.1366 5.8536 6.6047 11.49 10.424 16.896 3.8191 5.4066 7.984 10.586 12.457 15.564 2.2365 2.4891 4.5551 4.9335 6.9355 7.3164s4.8118 4.6954 7.2891 6.9434c4.9544 4.4959 10.093 8.7352 15.389 12.756s10.748 7.8234 16.342 11.428c5.5943 3.6044 11.329 7.012 17.199 10.232 2.9349 1.6102 5.9126 3.1746 8.916 4.6719 3.0035 1.4973 6.0261 2.9228 9.0703 4.2695 6.0885 2.6934 12.264 5.0654 18.533 7.0918 6.2691 2.0264 12.63 3.709 19.078 5.0762 6.4477 1.3672 12.98 2.422 19.582 3.2207 6.6016 0.79866 13.286 1.3419 19.977 1.6914s13.394 0.51877 20.096 0.69922c3.3509 0.09023 6.7017 0.18233 10.051 0.30078 3.3491 0.11845 6.6961 0.26121 10.039 0.47266 3.343 0.21145 6.6812 0.49348 10.014 0.86523 3.3325 0.37176 6.66 0.83516 9.9805 1.3906 1.6602 0.27773 3.3201 0.57588 4.9707 0.90039 1.6506 0.32452 3.2913 0.67906 4.9141 1.0977 1.6227 0.4186 3.2272 0.9008 4.8027 1.4785 1.5756 0.57772 3.1269 1.2536 4.627 2.0645 1.5001 0.81081 2.918 1.7437 4.25 2.7988s2.5784 2.2298 3.6816 3.5117c0.55164 0.64094 1.0708 1.3121 1.5469 2.0176 0.4761 0.70547 0.90969 1.4489 1.2754 2.2168 0.36571 0.76786 0.66927 1.5695 0.87305 2.4004 0.20378 0.83084 0.29943 1.6739 0.26953 2.5293-0.0299 0.85539-0.17555 1.7013-0.39844 2.5195-0.2229 0.81821-0.52874 1.6226-0.89258 2.3926-0.72769 1.5399-1.673 2.9425-2.7949 4.2324s-2.3825 2.4206-3.7832 3.3828c-0.70037 0.48109-1.4401 0.91945-2.1894 1.3145-0.74934 0.395-1.5132 0.75063-2.2871 1.0801-1.5477 0.65889-3.1354 1.2141-4.7363 1.7305-1.601 0.5164-3.2172 0.99028-4.8477 1.4277-3.261 0.8749-6.5435 1.6005-9.834 2.2266-6.5809 1.2521-13.203 2.1115-19.848 2.7637s-13.312 1.0911-19.992 1.4062c-6.6801 0.31519-13.376 0.50452-20.072 0.62891-6.6961 0.12439-13.39 0.18169-20.086 0.22266-6.6955 0.04096-13.392 0.07558-20.088 0.10742-13.391 0.06368-26.781 0.09767-40.17-0.07422-6.6945-0.08595-13.388-0.22441-20.082-0.43945-3.3468-0.10752-6.6926-0.23393-10.039-0.38281-3.3464-0.14889-6.6926-0.32403-10.039-0.49219l-55.033 170.73c6.6397 0.82319 13.279 1.6564 19.922 2.4219 6.6425 0.76548 13.288 1.4802 19.936 2.1484 13.295 1.3366 26.601 2.4887 39.914 3.4922 26.626 2.007 53.282 3.4217 79.961 4.4394s53.381 1.6086 80.135 1.207c13.377-0.20077 26.767-0.65005 40.113-1.418 6.6732-0.38396 13.34-0.84754 19.996-1.3984 6.6566-0.55089 13.306-1.1734 19.938-1.9746s13.245-1.7952 19.828-3.082c6.5833-1.2868 13.155-2.8555 19.596-4.6758 12.881-3.6406 25.334-8.2963 37.359-13.967 6.0126-2.8353 11.917-5.9246 17.711-9.2774s11.498-6.9876 16.992-10.822c5.4945-3.8346 10.805-7.8738 15.953-12.094s10.131-8.6236 14.934-13.229c4.8021-4.6049 9.4239-9.4109 13.842-14.443 2.2089-2.5162 4.3656-5.0887 6.4688-7.7227s4.1438-5.3194 6.1055-8.041c7.8468-10.886 14.512-22.423 19.773-34.729 1.3154-3.0765 2.5436-6.2022 3.6836-9.375s2.1916-6.3919 3.1484-9.6172c1.9136-6.4505 3.4626-12.963 4.6895-19.531s2.1304-13.192 2.7441-19.865c0.30688-3.3368 0.54155-6.6875 0.70507-10.049 0.16351-3.3613 0.25617-6.7378 0.28125-10.102 0.0502-6.7275-0.16334-13.426-0.63867-20.094-0.47532-6.6678-1.2163-13.304-2.2539-19.908s-2.3702-13.175-4.041-19.707c-0.8354-3.266-1.7565-6.5256-2.7578-9.7383s-2.0859-6.3874-3.2539-9.5234c-2.336-6.2721-5.0111-12.387-8.0586-18.332-3.0474-5.9448-6.4723-11.716-10.299-17.303-1.9133-2.7932-3.9112-5.5189-5.9785-8.1699-2.0674-2.651-4.2077-5.2306-6.418-7.7422-4.4205-5.0232-9.12-9.7746-14.084-14.268-2.482-2.2465-5.0295-4.4282-7.6445-6.5449s-5.3049-4.174-8.043-6.1523c-5.4761-3.9568-11.124-7.5863-16.939-10.896-5.8152-3.3102-11.796-6.3028-17.932-9.002-3.0678-1.3496-6.1744-2.6256-9.3184-3.8301-3.1439-1.2045-6.3331-2.3408-9.5332-3.3984-12.8-4.2307-25.805-7.2482-38.975-9.2852s-26.5-3.1036-39.873-3.9258c-6.6867-0.4111-13.384-0.76194-20.074-1.1504-6.6906-0.38844-13.377-0.80909-20.051-1.3789-3.337-0.28492-6.6714-0.61915-9.9902-1.1035-1.6594-0.24217-3.3137-0.5225-4.9648-0.85547-1.6511-0.33296-3.3047-0.7208-4.9297-1.1719-3.25-0.90215-6.3998-2.0597-9.4199-3.5586-1.5101-0.74944-2.9936-1.5886-4.4141-2.5-1.4205-0.91136-2.785-1.8955-4.082-2.9707s-2.5377-2.2491-3.6445-3.5352c-0.5534-0.64304-1.0727-1.3128-1.5449-2.0215-0.47227-0.70871-0.892-1.4482-1.2285-2.2188-0.16826-0.38526-0.31622-0.77823-0.4375-1.1836-0.12127-0.40535-0.21539-0.82687-0.27344-1.25-0.11608-0.84626-0.078-1.6913 0.0547-2.5352 0.13278-0.84389 0.35706-1.6652 0.64062-2.4609 0.28357-0.79578 0.62793-1.5709 1.0195-2.3281 0.7832-1.5145 1.726-2.9113 2.7891-4.2148 0.53152-0.65179 1.094-1.2795 1.6894-1.8828s1.2244-1.1804 1.873-1.7207c1.2973-1.0806 2.6868-2.0268 4.1562-2.8594s3.0166-1.5477 4.582-2.1582c3.1309-1.221 6.38-2.0562 9.6856-2.707 1.6528-0.3254 3.3197-0.60361 4.9824-0.84961s3.3257-0.46191 4.9902-0.66211c6.6581-0.80083 13.329-1.2988 20.008-1.582 13.357-0.56649 26.748-0.27351 40.141 0.0664 6.6964 0.16997 13.392 0.33316 20.09 0.47266 6.6976 0.13949 13.396 0.2666 20.094 0.40625 13.395 0.27929 26.789 0.60771 40.174 1.1641 6.6924 0.27818 13.383 0.61256 20.07 1.0234 3.3437 0.20543 6.6852 0.43022 10.027 0.67578s6.6837 0.51545 10.025 0.77734l48.033-170.17c-6.5309-0.74531-13.061-1.4973-19.594-2.2094-6.5331-0.71214-13.07-1.3938-19.607-2.0449-13.075-1.3022-26.158-2.4815-39.252-3.5391-26.187-2.115-52.411-3.7399-78.668-4.9062-13.129-0.58318-26.271-1.0531-39.406-1.4141-13.136-0.36095-26.262-0.61506-39.361-0.60156zm0.41797 7.5586c12.751-8e-3 25.47 0.2386 38.031 0.58008 65.757 1.7876 127.18 6.1643 187.75 13.078l-43.934 155.65c-36.853-2.8904-72.063-3.0029-107.48-3.8711-23.139-0.56712-46.368-1.4563-70.24 1.6055-11.85 1.5198-23.859 4.0132-32.551 12.52-5.3328 5.2189-9.4158 12.7-8.791 19.506 0.72229 7.8685 7.7372 14.834 15.211 19.508 12.076 7.5526 25.347 9.1246 38.65 10.195 26.837 2.1601 53.813 2.2784 80.357 6.6914 25.182 4.1864 49.977 12.237 72.205 25.256 24.123 14.128 45.224 34.107 59.518 57.873 16.789 27.915 24.184 61.057 25.076 94.227 0.77737 28.91-3.3865 57.84-14.383 83.76-12.638 29.79-34.301 55.602-60.387 76.717-6.109 4.945-12.46 9.6335-18.996 13.959-27.479 18.186-58.212 29.974-89.785 35.342-9.3312 1.5865-18.737 2.6134-28.152 3.457-48.899 4.3812-98.097 3.8498-147.7 1.8926-49.433-1.9506-99.268-5.3178-146.69-11.195l50.449-156.51c28.049 1.4093 56.367 1.2082 87.74 1.041 36.639-0.1952 77.444-0.3424 104.54-9.168 3.9505-1.2869 7.6098-2.7585 10.816-4.9434 6.8694-4.6804 11.665-12.636 11.209-20.133-0.47149-7.7581-6.5671-15.024-13.574-19.479-6.5172-4.1428-13.824-5.852-20.895-7.1445-7.8699-1.4388-15.446-2.3615-24.246-2.9023-12.357-0.75944-27.127-0.76685-40.373-1.4805-39.108-2.107-64.92-10.381-92.635-25.775-26.238-14.574-54.182-35.529-73.027-63.037-34.021-49.661-38.389-120.68-16.641-173.36 10.547-25.548 27.238-46.781 47.143-64.797 30.147-27.285 67.669-47.188 109.63-57.783 35.377-8.933 73.908-11.248 112.16-11.271z"/><path transform="translate(1.7855 693.44)" d="m996.69-393.6c-5.5224-0.0312-11.042 0.0188-16.557 0.1582-11.029 0.27875-22.04 0.91307-33.033 1.9688s-21.968 2.5318-32.918 4.5176c-5.475 0.99287-10.944 2.1139-16.406 3.375-2.7313 0.63054-5.4622 1.297-8.1758 1.9961-2.7136 0.69905-5.4135 1.4306-8.0977 2.1973-10.737 3.0668-21.233 6.6864-31.473 10.896s-20.228 8.9958-29.979 14.33c-4.8751 2.6671-9.6897 5.4722-14.445 8.4141-4.7556 2.9419-9.4635 6.0284-14.062 9.2188-9.198 6.3807-18.001 13.192-26.432 20.41-8.4309 7.2178-16.49 14.841-24.174 22.873-3.8422 4.0163-7.5914 8.1364-11.244 12.359-1.8264 2.1115-3.628 4.2481-5.4062 6.4121s-3.5352 4.3575-5.2598 6.5684c-6.8981 8.8434-13.288 17.963-19.182 27.354-5.8934 9.3903-11.29 19.051-16.178 28.988-4.8878 9.9378-9.2662 20.154-13.113 30.658-1.9235 5.2522-3.7182 10.59-5.3633 15.941-1.6451 5.3512-3.145 10.724-4.5039 16.121-2.7178 10.794-4.8758 21.677-6.4902 32.646-1.6145 10.969-2.6856 22.025-3.207 33.168-0.26071 5.5717-0.38407 11.165-0.36523 16.781 0.0188 5.6162 0.1806 11.21 0.48047 16.777 0.59975 11.135 1.755 22.172 3.4726 33.107s3.9964 21.77 6.8672 32.5c1.4354 5.3648 3.02 10.703 4.7578 16.014 0.86892 2.6554 1.7756 5.3036 2.7207 7.9453 0.94515 2.6418 1.9292 5.2783 2.9453 7.8926 4.0643 10.457 8.6577 20.612 13.738 30.488s10.649 19.472 16.684 28.803c6.0343 9.3303 12.535 18.394 19.494 27.195 3.4796 4.4006 7.0609 8.7205 10.725 12.938 3.6637 4.217 7.4149 8.3386 11.25 12.369 7.6701 8.0612 15.676 15.756 24.012 23.094 8.3354 7.3374 16.997 14.321 26.012 20.92 4.5073 3.2993 9.1092 6.5057 13.791 9.5996s9.4233 6.0608 14.223 8.8984c9.5987 5.6753 19.434 10.834 29.527 15.43s20.445 8.6306 31.086 12.033c2.6603 0.85065 5.3398 1.6618 8.0371 2.4316s5.418 1.4977 8.1465 2.1836c5.4569 1.3718 10.936 2.5706 16.434 3.6152 10.995 2.0893 22.066 3.569 33.193 4.5957 5.5636 0.51335 11.141 0.91268 16.73 1.2168 2.7948 0.15206 5.5921 0.2803 8.3926 0.38672 2.8005 0.10643 5.6119 0.19087 8.4102 0.25586 22.386 0.51989 44.629-0.19979 66.65-2.834 11.01-1.3171 21.965-3.1137 32.852-5.502 5.4433-1.1941 10.868-2.537 16.275-4.043 2.7035-0.75302 5.4081-1.5482 8.0937-2.3828s5.3498-1.7084 7.9961-2.6172c10.585-3.6353 20.864-7.8476 30.879-12.561 10.014-4.7129 19.764-9.9258 29.279-15.58s18.798-11.752 27.867-18.25c4.5344-3.249 9.023-6.6024 13.441-10.043 4.4183-3.4405 8.7552-6.9603 13.006-10.561 8.5014-7.2005 16.663-14.725 24.453-22.604 7.7902-7.8784 15.209-16.111 22.209-24.742 3.4999-4.3158 6.8937-8.7304 10.176-13.254 1.641-2.2618 3.2545-4.5505 4.8378-6.8672s3.1379-4.6653 4.6524-7.0254c6.058-9.4405 11.484-19.134 16.295-29.072 4.8113-9.9382 9.0214-20.115 12.68-30.514 3.6582-10.398 6.7636-21.018 9.3418-31.848 1.289-5.4148 2.448-10.89 3.4726-16.4 1.0245-5.51 1.9089-11.024 2.6622-16.539 1.5065-11.03 2.4877-22.068 2.9804-33.115s0.4959-22.104 0.029-33.168c-0.4664-11.064-1.3992-22.137-2.8379-33.219-0.7194-5.5407-1.5675-11.09-2.539-16.586-0.9714-5.4964-2.0669-10.952-3.291-16.369-2.4481-10.834-5.4056-21.509-8.9122-32.01s-7.5616-20.829-12.228-30.965c-1.1668-2.534-2.3724-5.057-3.6172-7.5664-1.2449-2.5095-2.5309-5.0092-3.8496-7.4805-2.6376-4.9426-5.4102-9.7786-8.3164-14.508-5.8124-9.4584-12.173-18.481-19.064-27.082-6.8917-8.6011-14.306-16.789-22.207-24.588-3.9508-3.8995-8.0242-7.7022-12.219-11.408-2.0972-1.853-4.2253-3.6813-6.3711-5.4766s-4.3122-3.5602-6.498-5.293c-8.7436-6.931-17.802-13.371-27.154-19.354-9.3519-5.9827-18.997-11.507-28.93-16.584-4.9664-2.5385-10.013-4.969-15.111-7.2754-5.0983-2.3064-10.234-4.4836-15.404-6.5332-10.341-4.0993-20.825-7.69-31.453-10.771-10.628-3.0815-21.398-5.6558-32.301-7.7617-5.4512-1.053-10.936-1.9882-16.451-2.8125-5.5156-0.82428-11.074-1.5392-16.623-2.1426-11.098-1.2068-22.176-1.9776-33.236-2.3867-5.5305-0.20458-11.056-0.31838-16.578-0.34961zm-1.0098 7.5547c39.924 0.15527 79.448 4.6602 117.81 16.26 66.018 19.962 128.59 60.935 167.89 117.05 32.831 46.883 49.418 104.34 52.689 162.66 3.4704 61.88-8.049 124.74-37.553 177.47-22.377 39.994-55.098 74.163-92.307 102.02-31.186 23.349-65.522 42.266-102.17 53.451-38.435 11.729-79.415 14.955-120.11 14.01-29.522-0.68561-58.893-3.5674-87-11.293-43.546-11.969-84.058-35.567-119.01-65.65-48.351-41.612-86.071-95.631-104.47-156.31-20.446-67.422-17.042-143.07 8.7832-208.72 18.044-45.872 47.034-86.869 83.477-119.73 28.556-25.752 61.689-46.509 97.424-59.912 42.564-15.964 88.82-21.492 134.55-21.314z"/><path transform="translate(1.7855 693.44)" d="m1372.5-369.89-1.3692 623.05h212.3v-271.31l157.38 271.31h538.41v-623.05h-469.24v265.89l-133.59-265.89zm7.541 7.5586h291.69l145.81 290.21v-290.21h194.82v607.93h-267.19l-169.3-291.85v291.85h-197.16zm648.75 0h242.87v607.93h-242.87z"/><path transform="translate(1.7855 693.44)" d="m2639-395.81c-7.8225 0.0673-15.651 0.22849-23.484 0.52344s-15.657 0.72317-23.443 1.3242c-15.572 1.2021-31.018 3.0925-46.279 5.9902-7.6306 1.4489-15.216 3.1492-22.746 5.1445-7.5305 1.9953-15.006 4.2934-22.424 6.9004-3.7092 1.3035-7.4128 2.6868-11.074 4.1348-3.6615 1.448-7.2829 2.9599-10.867 4.5352-7.1685 3.1505-14.186 6.5504-21.062 10.182-13.753 7.2626-26.945 15.449-39.615 24.494-6.3353 4.5227-12.54 9.2609-18.613 14.215-6.0735 4.9539-12.033 10.142-17.773 15.482-11.481 10.682-22.154 22.019-31.969 34.051-9.8149 12.032-18.774 24.756-26.748 38.279-1.9936 3.3808-3.9265 6.8152-5.791 10.295-1.8645 3.4797-3.6504 6.9854-5.3555 10.516-3.41 7.0605-6.4978 14.223-9.2871 21.48-5.5785 14.515-9.9664 29.406-13.272 44.641-1.6526 7.6174-3.0321 15.321-4.1465 23.109-0.5572 3.894-1.0474 7.8073-1.4687 11.713-0.4213 3.9056-0.7764 7.8105-1.0645 11.715-1.1526 15.617-1.2637 31.226-0.4082 46.824 0.4278 7.7992 1.0992 15.596 2.0118 23.391 0.9127 7.7946 2.0698 15.602 3.4609 23.309 2.7821 15.414 6.5044 30.513 11.242 45.273 4.7377 14.76 10.489 29.181 17.416 43.209 1.7317 3.5071 3.5383 6.989 5.4219 10.445 1.8836 3.4563 3.8492 6.8936 5.875 10.268 4.0516 6.748 8.3567 13.273 12.92 19.57 9.1263 12.595 19.288 24.281 30.361 35.162 5.5367 5.4407 11.302 10.679 17.289 15.723 2.9937 2.5219 6.0442 4.9952 9.1484 7.4199 3.1041 2.4247 6.2515 4.792 9.4278 7.0938 12.705 9.2072 25.931 17.43 39.627 24.771 13.696 7.3414 27.861 13.8 42.492 19.379 3.6578 1.3948 7.3443 2.7346 11.06 4.0195 3.7161 1.2849 7.4588 2.5128 11.203 3.6797 7.4887 2.3337 15.013 4.4302 22.572 6.3047 15.118 3.7491 30.373 6.6145 45.744 8.7109s30.86 3.4237 46.453 4.0723c7.7965 0.32426 15.624 0.47792 23.467 0.47266 7.8426-5e-3 15.661-0.17062 23.459-0.48047 15.596-0.6197 31.11-1.8173 46.551-3.502s30.811-3.8558 46.121-6.4395c15.31-2.5836 30.561-5.5813 45.76-8.9297 7.5995-1.6742 15.187-3.4358 22.762-5.2793 3.7873-0.92177 7.572-1.8646 11.354-2.8262s7.5593-1.94 11.342-2.9121l-109.47-287.14c-2.1613 2.8068-4.3239 5.6151-6.4864 8.4219-1.0813 1.4034-2.1589 2.8096-3.2519 4.2012s-2.1987 2.7701-3.3164 4.1367c-4.4708 5.4666-9.1317 10.741-13.971 15.836-4.8389 5.0952-9.855 10.011-15.053 14.744-5.1978 4.7333-10.578 9.2838-16.158 13.631-2.7903 2.1735-5.6317 4.296-8.5273 6.3633-2.6336 1.8802-5.3161 3.7162-8.0274 5.4902-0.2698 0.17653-0.5401 0.35207-0.8105 0.52734-5.9744 3.8733-12.1 7.455-18.404 10.693-6.3042 3.2384-12.787 6.1363-19.488 8.6094-3.3508 1.2365-6.7477 2.3608-10.16 3.3535-3.4123 0.99272-6.8494 1.857-10.312 2.5801-6.9262 1.4462-13.957 2.3338-21.117 2.5371-1.79 0.05083-3.5873 0.05858-5.3731 0.02148s-3.5651-0.118-5.3379-0.24414c-3.5456-0.25228-7.0664-0.68264-10.559-1.3008-3.4923-0.61814-6.9558-1.4239-10.391-2.4355-1.7174-0.50583-3.4309-1.0666-5.1133-1.6719-1.6825-0.60527-3.3388-1.2568-4.9687-1.957-3.2599-1.4004-6.4152-2.9914-9.4609-4.7793-3.0458-1.7879-5.9808-3.776-8.8125-5.9512-1.4158-1.0876-2.8102-2.2244-4.1661-3.3984-1.356-1.174-2.6732-2.3838-3.9531-3.625-2.5598-2.4825-4.9723-5.0953-7.2422-7.834s-4.3967-5.603-6.3769-8.5977c-1.9803-2.9947-3.7875-6.081-5.4043-9.2383-1.6169-3.1573-3.049-6.3926-4.2813-9.7109s-2.2652-6.7209-3.0644-10.221c-0.3996-1.7499-0.7391-3.525-1.0098-5.2949-0.2708-1.7699-0.4751-3.5404-0.6074-5.3145-0.2641-3.548-0.2349-7.1064 0.086-10.672 0.1604-1.7827 0.393-3.5746 0.6914-5.3477 0.038-0.23223 0.08-0.4638 0.1211-0.69531 0.2737-1.5361 0.5947-3.0563 0.959-4.5625 0.8386-3.4663 1.9053-6.8581 3.1582-10.188 1.2529-3.3294 2.6925-6.5973 4.291-9.8125s3.3369-6.3411 5.1817-9.3828c3.6896-6.0835 7.8091-11.852 12.234-17.396 2.2127-2.7724 4.502-5.4888 6.8633-8.1523 2.3612-2.6636 4.8018-5.2797 7.3028-7.8262 10.004-10.186 20.883-19.184 32.535-27.137 5.8259-3.9761 11.846-7.6894 18.045-11.16 3.0994-1.7354 6.2485-3.4137 9.4317-5.0176 3.1831-1.6039 6.3934-3.1322 9.6328-4.5762 6.4787-2.888 13.074-5.4454 19.803-7.623s13.589-3.9756 20.607-5.3281c3.5093-0.67627 7.0453-1.2355 10.58-1.6445 3.5348-0.40905 7.076-0.6702 10.629-0.75s7.116 0.0206 10.691 0.35156c3.5755 0.33093 7.1029 0.8882 10.553 1.6992s6.8298 1.8779 10.144 3.1797 6.579 2.8494 9.6953 4.5801c3.1164 1.7306 6.1051 3.6491 8.9746 5.7461 1.4348 1.0485 2.8386 2.1429 4.2129 3.2812s2.723 2.3238 4.0313 3.5488c2.6167 2.45 5.0606 5.0346 7.332 7.7539s4.3704 5.5734 6.2832 8.5723c0.4782 0.74973 0.944 1.509 1.3984 2.2773 0.4543 0.76836 0.8966 1.5468 1.3418 2.3223 2.6708 4.6531 5.3415 9.3058 8.0137 13.959l75.322-258.83c-3.8844-0.50226-7.7702-1.0109-11.656-1.5015-3.8858-0.49063-7.7721-0.95863-11.66-1.4043-7.7758-0.89132-15.556-1.6958-23.34-2.4199-15.568-1.4482-31.152-2.5775-46.748-3.4434-15.596-0.86588-31.206-1.4682-46.826-1.8457-7.8101-0.18876-15.622-0.32129-23.438-0.40234-7.8153-0.0811-15.632-0.10642-23.455-0.0391zm25.209 7.6172c51.555 0.58998 103 3.4472 152.19 9.8047l-67.891 233.29c-12.004-20.91-33.462-37.698-57.18-43.348-15.577-3.7107-32.129-2.6164-48.008 0.6582-20.722 4.2733-40.298 12.26-58.529 22.359-24.124 13.363-45.895 30.421-64.342 52.277-17.748 21.028-32.418 46.495-32.211 72.969 0.2401 30.622 20.385 62.591 47.434 79.131 15.022 9.1863 32.173 13.613 49.229 14.215 63.266 2.2328 125.22-48.167 160.03-93.346l101.64 266.62c-113.83 29.278-244.5 44.666-358.33 0-54.764-21.489-105.63-56.878-140.25-103.72-30.806-41.69-48.742-92.456-55.674-144.91-8.2217-62.212-0.9646-126.8 25.338-182.36 19.994-42.233 50.991-79.247 87.795-108.99 33.283-26.894 71.314-47.84 111.58-59.742 47.061-13.912 97.172-15.473 147.18-14.9z"/></g><g transform="translate(757.93 693.79)"><path d="m642.62 38.95c0.77737 28.91-3.3865 57.84-14.383 83.759-12.638 29.79-34.302 55.603-60.387 76.718-6.109 4.945-12.46 9.6324-18.996 13.958-27.479 18.186-58.212 29.975-89.786 35.343-9.3312 1.5865-18.736 2.6122-28.151 3.4558-48.899 4.3812-98.097 3.8506-147.7 1.8934-49.433-1.9506-99.268-5.3181-146.69-11.196l50.449-156.51c28.049 1.4093 56.368 1.2078 87.741 1.0406 36.639-0.1952 77.444-0.3435 104.54-9.1691 3.9505-1.2869 7.6094-2.7584 10.816-4.9432 6.8694-4.6804 11.663-12.635 11.208-20.131-0.47149-7.7581-6.5652-15.026-13.572-19.48-6.5172-4.1428-13.825-5.8516-20.895-7.1442-7.8699-1.4388-15.446-2.3618-24.246-2.9027-12.357-0.75944-27.127-0.76548-40.373-1.4791-39.108-2.107-64.921-10.382-92.636-25.777-4.0435-2.2459-8.1274-4.6434-12.212-7.193 27.883-21.88 60.978-37.027 96.284-42.924 33.708-5.6311 69.431-2.831 100.79 9.3951 24.265 9.4616 45.913 24.568 70.463 34.225 26.895 10.579 57.272 14.617 85.227 10.066 27.93-4.5471 53.443-17.668 79.511-30.358 8.3833 21.829 12.363 45.586 13.002 69.357z" fill="url(#linearGradient176)"/><path d="m1296.5 87.409c-22.377 39.994-55.098 74.162-92.307 102.02-31.186 23.349-65.523 42.267-102.17 53.452-38.435 11.729-79.416 14.955-120.11 14.01-29.522-0.68561-58.893-3.5665-86.999-11.292-43.546-11.969-84.058-35.568-119.01-65.651-48.351-41.612-86.071-95.632-104.47-156.31-6.6279-21.855-10.75-44.574-12.414-67.537 2.6096-1.08 5.2348-2.1245 7.8783-3.1252 14.196-5.3741 28.922-9.4858 43.537-10.066 31.586-1.2542 62.654 13.987 94.002 22.146 15.209 3.9582 30.484 6.2492 45.82 7.2834 1.7571 18.608 8.2006 36.815 19.296 51.3 13.172 17.195 32.9 29.143 53.818 34.458 21.186 5.3826 43.593 3.9609 64.705-1.3865 33.361-8.4501 63.488-26.703 88.739-50.84 18.582-17.763 34.524-38.713 43.077-62.344 27.608 0.24837 55.254 3.8599 80.117 14.483 18.872 8.0633 36.14 20.166 55.082 28.024 22.797 9.4571 48.017 12.766 73.496 11.297-6.0006 31.753-16.548 62.319-32.08 90.079z" fill="url(#linearGradient181)"/><path d="m1575.9 245.6h-197.16l0.56-257.18c6.9039-2.0086 13.716-4.3152 20.391-6.8902 32.392-12.497 61.538-31.318 93.218-36.851 26.66-4.6566 55.114 0.09687 82.99 9.0704z" fill="url(#linearGradient180)"/><path d="m2012.4 245.6h-267.19l-169.3-291.85c13.062 4.2052 25.998 9.3371 38.561 14.862 26.708 11.744 51.736 25.262 78.527 29.912 30.612 5.3129 63.525-0.9525 95.125-13.05 47.959-18.359 92.895-50.151 137.89-47.124 28.55 1.921 57.124 17.86 86.383 32.238z" fill="url(#linearGradient179)"/><path d="m2271.7 245.6h-242.87l3e-4 -267.22c30.108 13.681 60.811 23.913 90.932 23.313 45.391-0.90483 89.458-26.409 135.09-44.326 5.5942-2.1966 11.212-4.2791 16.85-6.1707z" fill="url(#linearGradient178)"/><path d="m2488.3 226.43c-54.764-21.489-105.63-56.878-140.25-103.72-30.806-41.69-48.742-92.454-55.674-144.91-1.3963-10.566-2.3461-21.2-2.8321-31.846 10.019-2.4808 20.089-4.1156 30.191-4.482 64.522-2.3405 130.37 47.053 186.49 69.661 7.9677 11.17 18.125 20.859 29.504 27.817 15.022 9.1863 32.173 13.613 49.228 14.215 63.266 2.2328 125.22-48.168 160.03-93.347l101.64 266.62c-113.83 29.278-244.5 44.665-358.33-2.2e-4z" fill="url(#linearGradient177)"/></g><g transform="translate(757.93 693.79)"><path d="m293.64-53.736c33.708-5.6311 69.431-2.831 100.79 9.3951 24.265 9.4616 45.913 24.568 70.463 34.225 26.895 10.579 57.272 14.617 85.227 10.066 27.93-4.5471 53.443-17.668 79.511-30.358-3.3146-8.6309-7.3176-16.96-12.075-24.87-14.293-23.766-35.394-43.743-59.517-57.871-22.228-13.019-47.023-21.071-72.205-25.257-26.545-4.413-53.52-4.5306-80.357-6.6906-13.304-1.0708-26.573-2.6434-38.65-10.196-7.4738-4.6741-14.491-11.639-15.213-19.507-0.62475-6.8059 3.4597-14.288 8.7925-19.507 8.6921-8.5063 20.701-11 32.551-12.519 23.872-3.0617 47.101-2.1725 70.24-1.6054 35.421 0.86816 70.631 0.9814 107.48 3.8718l43.934-155.65c-60.569-6.9138-121.99-11.29-187.75-13.078-50.246-1.3659-103.02-1.2203-150.19 10.69-41.958 10.595-79.481 30.499-109.63 57.784-19.905 18.016-36.595 39.249-47.142 64.797-21.748 52.679-17.38 123.7 16.641 173.36 15.941 23.269 38.392 41.849 60.814 55.843 27.883-21.88 60.978-37.027 96.284-42.924z" fill="url(#linearGradient167)"/><path d="m680.23-185.08c18.044-45.872 47.033-86.869 83.475-119.73 28.556-25.752 61.69-46.51 97.425-59.912 42.564-15.964 88.82-21.493 134.55-21.315 39.924 0.15527 79.45 4.66 117.81 16.26 66.018 19.962 128.59 60.936 167.89 117.06 32.831 46.883 49.419 104.34 52.69 162.66 1.6435 29.305-0.075 58.829-5.4729 87.394-25.479 1.4689-50.699-1.8397-73.496-11.297-18.942-7.858-36.21-19.961-55.082-28.024-24.863-10.623-52.509-14.235-80.117-14.483 1.4932-4.1255 2.7613-8.3326 3.779-12.619 5.2859-22.263 3.8166-46.657-5.8015-67.996-9.6315-21.369-27.435-39.673-48.652-47.991-10.647-4.1743-22.153-5.8341-33.676-6.4761-13.427-0.7481-26.875-0.11417-39.874 2.6205-16.01 3.368-31.338 9.9226-45.895 17.772-24.371 13.141-46.582 29.911-64.968 50.675-14.701 16.603-26.956 35.759-32.159 57.497-2.7198 11.362-3.5132 23.428-2.3893 35.331-15.336-1.0342-30.611-3.3252-45.82-7.2834-31.348-8.1585-62.416-23.4-94.002-22.146-14.615 0.5803-29.34 4.6921-43.537 10.066-2.6436 1.0007-5.2688 2.0452-7.8783 3.1252-3.4696-47.875 3.7433-96.81 21.197-141.18z" fill="url(#linearGradient166)"/><path d="m1926-61.653c-44.996-3.0275-89.932 28.764-137.89 47.124-31.6 12.097-64.513 18.363-95.125 13.05-26.791-4.6498-51.82-18.168-78.527-29.912-39.374-17.313-82.396-30.771-121.55-23.932-31.68 5.5335-60.826 24.355-93.218 36.851-6.6746 2.5751-13.487 4.8816-20.393 6.8902l0.7683-350.75h291.69l145.81 290.21v-290.21h194.82v332.92c-29.261-14.377-57.835-30.317-86.385-32.238z" fill="url(#linearGradient165)"/><path d="m2271.7-48.802c-5.6375 1.8917-11.255 3.9742-16.85 6.1707-45.631 17.917-89.698 43.421-135.09 44.326-30.121 0.60043-60.824-9.6314-90.932-23.313l-3e-4 -340.72h242.87z" fill="url(#linearGradient164)"/><path d="m2748.6-145.1c-12.002-20.91-33.46-37.698-57.177-43.348-15.577-3.7107-32.128-2.6169-48.007 0.65763-20.722 4.2733-40.297 12.26-58.529 22.359-24.124 13.363-45.895 30.423-64.343 52.279-17.748 21.028-32.419 46.494-32.212 72.968 0.1391 17.74 6.9592 35.932 17.929 51.314-56.129-22.609-121.97-72.002-186.5-69.661-10.102 0.36647-20.172 2.0012-30.191 4.482-2.3753-52.043 6.3344-104.39 28.17-150.51 19.994-42.233 50.992-79.248 87.795-108.99 33.283-26.894 71.314-47.839 111.58-59.741 47.061-13.912 97.171-15.472 147.18-14.9 51.555 0.58998 103 3.4459 152.19 9.8034z" fill="url(#linearGradient163)"/></g><g transform="translate(757.93 693.79)" fill="#ffb201"><path d="m388.83-373.87c-38.252 0.023-76.783 2.3385-112.16 11.271-41.958 10.595-79.48 30.498-109.63 57.783-19.905 18.016-36.595 39.249-47.143 64.797-21.748 52.679-17.381 123.7 16.641 173.36 18.845 27.508 46.789 48.463 73.027 63.037 27.715 15.394 53.526 23.668 92.635 25.775 13.246 0.71362 28.017 0.72103 40.373 1.4805 8.8005 0.54088 16.376 1.4635 24.246 2.9023 7.07 1.2926 14.377 3.0017 20.895 7.1445 7.0071 4.4542 13.103 11.72 13.574 19.479 0.4556 7.4966-4.3396 15.452-11.209 20.133-3.2066 2.1848-6.8659 3.6564-10.816 4.9434-27.092 8.8256-67.896 8.9728-104.54 9.168-31.373 0.16714-59.691 0.36829-87.74-1.041l-50.449 156.51c47.418 5.8776 97.252 9.2447 146.69 11.195 49.602 1.9572 98.8 2.4887 147.7-1.8926 9.4156-0.84362 18.821-1.8705 28.152-3.457 31.574-5.3682 62.307-17.156 89.785-35.342 6.5356-4.3255 12.887-9.014 18.996-13.959 26.085-21.115 47.748-46.927 60.387-76.717 10.996-25.919 15.16-54.85 14.383-83.76-0.89191-33.17-8.2876-66.311-25.076-94.227-14.293-23.766-35.395-43.745-59.518-57.873-22.228-13.019-47.023-21.069-72.205-25.256-26.545-4.413-53.52-4.5313-80.357-6.6914-13.304-1.0708-26.574-2.6427-38.65-10.195-7.4738-4.6741-14.489-11.639-15.211-19.508-0.62475-6.8059 3.4582-14.287 8.791-19.506 8.6921-8.5063 20.701-11 32.551-12.52 23.872-3.0617 47.102-2.1726 70.24-1.6055 35.421 0.86816 70.632 0.98068 107.48 3.8711l43.934-155.65c-60.569-6.9138-121.99-11.291-187.75-13.078-12.561-0.34148-25.281-0.58775-38.031-0.58008zm-14.982 17.146c12.596-0.23126 25.284-0.14308 37.92 0.0918 12.635 0.23486 25.218 0.61636 37.633 1.082 12.414 0.46569 24.66 1.0163 36.789 1.6641 12.129 0.64776 24.14 1.3928 36.059 2.2324 11.919 0.83965 23.743 1.7726 35.479 2.7988s23.381 2.145 35.057 3.3652l-34.717 123c-6.5635-0.40582-13.171-0.74324-19.701-1.0215s-12.981-0.49733-19.398-0.68359c-6.417-0.18625-12.801-0.33796-19.154-0.47461-6.3537-0.13665-12.678-0.25885-18.967-0.38672-6.2888-0.12786-12.541-0.26208-18.846-0.41797-6.3045-0.15588-12.662-0.33445-19.121-0.4414-6.4594-0.1069-13.022-0.14145-19.695-0.0137-6.6732 0.12778-13.456 0.41834-20.314 0.97656-3.4293 0.27912-6.8782 0.62503-10.398 1.0469-3.5202 0.42183-7.1116 0.92062-10.887 1.6426-3.7751 0.72197-7.734 1.667-11.764 3.041-4.0297 1.374-8.1312 3.1766-12.123 5.6191-1.9959 1.2213-3.964 2.6022-5.8633 4.1602s-3.7296 3.2922-5.4336 5.168-3.2822 3.8926-4.7188 6.0606-2.7303 4.4869-3.8301 6.9883-2.0052 5.1862-2.5957 8.0762c-0.29525 1.445-0.5108 2.9402-0.625 4.4922-0.11384 1.552-0.12718 3.1604-0.01 4.7793 0.11741 1.6189 0.36551 3.2484 0.71485 4.8008 0.34933 1.5523 0.8007 3.0272 1.3281 4.4316 1.0548 2.8089 2.4102 5.3386 3.9141 7.6172s3.1562 4.3065 4.8887 6.1523 3.5449 3.5098 5.3926 5.0293c3.6953 3.0391 7.5302 5.5041 11.404 7.543 3.8741 2.0389 7.7879 3.651 11.65 4.9219 3.8624 1.2708 7.6739 2.1991 11.391 2.9102 3.7168 0.71103 7.3398 1.2043 10.818 1.5879s6.8125 0.65857 10.109 0.9082c3.2969 0.24963 6.555 0.47317 9.8008 0.67969s6.4801 0.39616 9.6934 0.57812c6.4264 0.36391 12.771 0.70339 19.035 1.1016 6.2641 0.39817 12.448 0.85375 18.533 1.4453s12.074 1.3186 17.988 2.2578c5.9143 0.93924 11.755 2.0906 17.533 3.4805 5.7786 1.3899 11.496 3.0171 17.105 4.8887 5.6096 1.8716 11.113 3.9885 16.48 6.3672 10.735 4.7574 20.932 10.566 30.395 17.439s18.191 14.812 25.793 23.531c3.8012 4.3597 7.3213 8.9141 10.516 13.635 3.1943 4.7207 6.0636 9.6065 8.6367 14.688 5.1463 10.162 9.1082 21.104 11.979 32.547 2.8704 11.443 4.6486 23.388 5.4727 35.477 0.82402 12.089 0.69476 24.319-0.45703 36.23s-3.3262 23.502-6.6641 34.504c-3.3378 11.002-7.8395 21.415-13.553 31.365s-12.637 19.438-20.527 28.389c-7.8902 8.9504-16.746 17.362-26.271 25.123-4.7626 3.8803-9.6939 7.599-14.723 11.07-5.0288 3.4714-10.155 6.6964-15.395 9.6894-10.479 5.9861-21.407 11.043-32.623 15.154-5.6078 2.0557-11.289 3.8756-17.021 5.4609-5.7326 1.5854-11.517 2.935-17.348 4.043-5.8303 1.108-11.706 1.974-17.738 2.6953-6.0321 0.72131-12.22 1.2983-18.426 1.8066-6.2055 0.5083-12.427 0.94735-18.66 1.3125-6.2328 0.36513-12.476 0.65678-18.732 0.88476-12.513 0.45598-25.078 0.65816-37.691 0.66016s-25.275-0.19575-38-0.5293-25.513-0.80334-38.312-1.3672c-12.8-0.56386-25.611-1.2228-38.371-2.002s-25.469-1.6785-38.09-2.7168c-6.3107-0.51916-12.6-1.0731-18.844-1.6621-6.2438-0.58904-12.442-1.2138-18.656-1.8828l40.119-124.46c8.3457 0.2836 16.634 0.44731 25.045 0.53711 8.4107 0.0902 16.942 0.10569 25.617 0.0879 8.6754-0.0178 17.495-0.068 26.602-0.11914 9.1067-0.0511 18.502-0.10405 27.955-0.29688 9.4532-0.19283 18.964-0.52663 28.285-1.1465 4.6603-0.30992 9.2734-0.69167 13.814-1.166 4.5411-0.47434 9.0098-1.0416 13.381-1.7246 4.371-0.68302 8.6438-1.4815 12.816-2.4336 2.0863-0.47606 4.1487-0.99015 6.1621-1.541s3.9774-1.139 5.9805-1.7988c2.0031-0.65979 4.0444-1.3915 6.1797-2.3008s4.3652-1.9947 6.582-3.3438c2.2168-1.349 4.421-2.9622 6.4258-4.7246s3.8106-3.6743 5.4473-5.7422c1.6366-2.0679 3.1046-4.2917 4.3594-6.668s2.2967-4.9058 3.0703-7.5996c0.7736-2.6939 1.2776-5.5519 1.373-8.5273s-0.2181-6.0683-0.86914-8.918c-0.65103-2.8497-1.6392-5.4566-2.8223-7.8633s-2.5602-4.6141-4.0606-6.6465c-3.0008-4.0647-6.4915-7.4285-10.281-10.262-1.8949-1.4166-3.8642-2.7001-5.8438-3.8203-1.9795-1.1202-3.9698-2.0781-5.9297-2.9043-3.9197-1.6524-7.7216-2.7819-11.275-3.6406-1.7769-0.42937-3.491-0.79007-5.127-1.1113-1.636-0.32126-3.194-0.60392-4.7559-0.86914-3.1238-0.53045-6.2666-0.99704-9.4551-1.3945-3.1885-0.39749-6.4219-0.72459-9.7812-0.98828s-6.8446-0.46504-10.4-0.62305c-7.1116-0.316-14.51-0.46274-21.674-0.67188-3.582-0.10457-7.1042-0.22492-10.484-0.38477-3.3802-0.15984-6.6174-0.3595-9.75-0.60547-6.2651-0.49193-12.112-1.169-17.621-2.0234-5.5086-0.85449-10.678-1.8856-15.623-3.0996-4.9448-1.214-9.6651-2.6107-14.273-4.2012-4.6083-1.5904-9.1052-3.3745-13.604-5.3809-4.4983-2.0064-8.9978-4.2345-13.586-6.6914-9.1763-4.9138-18.706-10.744-27.887-17.35-9.1803-6.6059-18.012-13.988-25.965-22.098-3.9766-4.0546-7.7334-8.2913-11.197-12.689s-6.6333-8.9582-9.5332-13.736c-5.7999-9.5563-10.519-19.985-14.125-30.939-7.211-21.909-9.97-45.92-8.3594-68.965 0.80531-11.522 2.7029-22.803 5.6113-33.439 1.4542-5.3182 3.1608-10.477 5.1133-15.436 1.9525-4.9588 4.1501-9.7184 6.5879-14.326 4.8755-9.2156 10.711-17.821 17.359-25.914 6.6485-8.0933 14.111-15.676 22.152-22.74 8.0418-7.0645 16.663-13.611 25.777-19.561 9.1139-5.9492 18.72-11.3 28.768-16.023 10.047-4.7232 20.533-8.8177 31.402-12.217 10.869-3.3991 22.122-6.1029 33.76-8.1953 23.276-4.1849 48.102-5.926 73.295-6.3887z"/><path d="m995.68-386.04c-45.732-0.17785-91.988 5.3503-134.55 21.314-35.735 13.403-68.868 34.16-97.424 59.912-36.443 32.864-65.433 73.86-83.477 119.73-25.825 65.655-29.23 141.3-8.7832 208.72 18.401 60.678 56.121 114.7 104.47 156.31 34.955 30.083 75.468 53.681 119.01 65.65 28.107 7.7255 57.478 10.607 87 11.293 40.692 0.94502 81.672-2.2808 120.11-14.01 36.652-11.185 70.988-30.102 102.17-53.451 37.208-27.859 69.93-62.027 92.307-102.02 29.504-52.733 41.023-115.59 37.553-177.47-3.2711-58.325-19.858-115.78-52.689-162.66-39.299-56.119-101.87-97.093-167.89-117.05-38.362-11.6-77.886-16.104-117.81-16.26zm-0.0664 17.008c20.942 0.0784 41.765 1.4016 62.201 4.3652 20.436 2.9637 40.483 7.5678 60.152 14.166 19.669 6.5983 38.958 15.191 57.201 25.553s35.439 22.493 50.949 36.137c15.51 13.643 29.334 28.8 40.986 45.352s21.133 34.498 28.631 53.512c7.4978 19.014 13.013 39.093 16.643 59.703s5.3742 41.753 5.2812 62.809-2.0214 42.027-5.9219 62.398c-3.9006 20.372-9.772 40.145-17.676 58.809-3.9518 9.3319-8.4135 18.387-13.41 27.148-4.9968 8.7617-10.53 17.23-16.547 25.422-12.034 16.384-26 31.66-41.346 45.707-7.6727 7.0236-15.69 13.74-23.963 20.135s-16.802 12.467-25.523 18.135c-17.444 11.335-35.662 21.05-54.451 28.604-9.3948 3.7769-18.934 7.0152-28.668 9.7012-9.7343 2.686-19.665 4.8195-29.758 6.4824-20.185 3.3258-41.014 4.7636-62.072 4.9238-10.529 0.0801-21.115-0.15926-31.574-0.72852s-20.793-1.4698-30.945-2.8301-20.125-3.1796-29.893-5.5859-19.331-5.3986-28.752-8.9766c-18.842-7.156-37.115-16.657-54.467-27.969s-33.783-24.436-48.914-38.861-28.962-30.154-41.145-46.955c-12.182-16.801-22.715-34.675-31.25-53.375-8.5346-18.7-15.069-38.227-19.451-58.385-4.3818-20.158-6.609-40.948-6.7344-61.799s1.8494-41.762 5.8887-62.162c4.0392-20.4 10.142-40.289 18.242-59.229 8.1004-18.939 18.2-36.928 30.016-53.736 11.815-16.808 25.346-32.434 40.297-46.582s31.32-26.82 48.732-37.607c8.7063-5.3938 17.673-10.315 26.842-14.709 9.1684-4.3936 18.537-8.2586 28.121-11.59 19.167-6.6626 39.191-11.194 59.732-14.043s41.603-4.016 62.545-3.9375zm31.977 160.19c-2.3441-0.0282-4.6906-0.0137-7.043 0.0469-4.7048 0.12106-9.436 0.42857-14.18 0.95508-4.7437 0.5265-9.4994 1.2727-14.189 2.2598-9.38 1.9742-18.493 4.9104-27.18 8.4062-8.6867 3.4959-16.948 7.5509-24.959 11.947-8.0111 4.3964-15.773 9.1342-23.295 14.283-7.5221 5.1491-14.804 10.71-21.762 16.678-6.9575 5.9676-13.591 12.342-19.883 19.16s-12.243 14.078-17.648 21.904-10.267 16.219-14.211 25.193c-1.972 4.4874-3.7155 9.1206-5.1758 13.904-1.4602 4.7837-2.6379 9.7182-3.502 14.713-1.7282 9.9893-2.1999 20.219-1.4707 30.391 0.72919 10.172 2.66 20.287 5.8359 30.029s7.5968 19.111 13.371 27.701c2.8871 4.2952 6.1119 8.3958 9.5976 12.203s7.2324 7.3216 11.182 10.555c7.8985 6.4661 16.61 11.806 25.814 15.971 9.2046 4.1643 18.903 7.1526 28.658 8.9355s19.569 2.3609 29.246 2.0137c9.6767-0.34724 19.215-1.6182 28.492-3.5859 9.2772-1.9677 18.293-4.6323 27.045-7.8984s17.24-7.134 25.432-11.535 16.086-9.3354 23.658-14.727 14.82-11.24 21.752-17.482c6.9325-6.2422 13.55-12.877 19.77-19.969 6.2197-7.0913 12.042-14.638 17.236-22.641s9.7586-16.461 13.449-25.414c3.6906-8.9534 6.5073-18.403 8.1992-28.129 1.6918-9.7263 2.2581-19.731 1.6406-29.729-0.6174-9.9978-2.4185-19.99-5.5781-29.689-3.1595-9.6992-7.6768-19.105-13.361-27.73s-12.537-16.47-20.348-23.223c-3.9055-3.3764-8.0506-6.4802-12.43-9.2598s-8.9929-5.2347-13.773-7.2695c-4.7804-2.0349-9.7284-3.649-14.637-4.8809s-9.7761-2.0811-14.559-2.6895c-4.7826-0.60832-9.4783-0.97557-14.166-1.1914-2.3439-0.10791-4.6853-0.17884-7.0293-0.20703zm-2.1036 16.994c3.3521 3e-3 6.7097 0.10399 10.066 0.29101 11.522 0.642 23.029 2.3003 33.676 6.4746 21.217 8.3185 39.021 26.624 48.652 47.992 9.6181 21.339 11.087 45.734 5.8008 67.996-6.8473 28.839-25.029 54.099-46.856 74.963-25.25 24.137-55.379 42.39-88.74 50.84-21.112 5.3475-43.519 6.7693-64.705 1.3867-20.919-5.3148-40.647-17.262-53.818-34.457-18.193-23.749-23.878-57.507-16.906-86.631 5.2036-21.738 17.458-40.895 32.158-57.498 18.386-20.765 40.598-37.533 64.969-50.674 14.557-7.8493 29.887-14.405 45.896-17.773 9.7492-2.051 19.75-2.9193 29.807-2.9102z"/><path d="m1380.1-362.34-1.3301 607.93h197.16v-291.85l169.3 291.85h267.19v-607.93h-194.82v290.21l-145.81-290.21zm16.971 17.008h264.23l173.3 344.95v-344.95h160.81v573.92h-240.39l-196.1-338.06v338.06h-163.11z"/><path d="m2028.8-362.34v607.93h242.87v-607.93zm17.01 17.008h208.85v573.92h-208.85z"/><path d="m2664.2-388.19c-50.01-0.5723-100.12 0.988-147.18 14.9-40.263 11.903-78.293 32.848-111.58 59.742-36.804 29.739-67.801 66.754-87.795 108.99-26.302 55.559-33.56 120.15-25.338 182.36 6.9323 52.454 24.868 103.22 55.674 144.91 34.616 46.847 85.484 82.236 140.25 103.72 113.83 44.666 244.5 29.278 358.33 0l-101.64-266.62c-34.809 45.179-96.764 95.579-160.03 93.346-17.055-0.60194-34.206-5.0286-49.229-14.215-27.048-16.54-47.193-48.509-47.434-79.131-0.2075-26.474 14.463-51.941 32.211-72.969 18.447-21.856 40.218-38.915 64.342-52.277 18.232-10.099 37.808-18.086 58.529-22.359 15.879-3.2746 32.431-4.3689 48.008-0.6582 23.718 5.65 45.175 22.438 57.18 43.348l67.891-233.29c-49.188-6.3575-100.64-9.2147-152.19-9.8047zm-21.773 16.928c7.2857-0.0392 14.599-1e-3 21.922 0.084 14.646 0.17022 29.327 0.52742 43.916 1.0977 14.589 0.57025 29.085 1.3543 43.473 2.3808 7.1938 0.51328 14.361 1.0865 21.473 1.7227 7.1116 0.63616 14.168 1.3352 21.242 2.1074l-53.322 183.23c-5.7761-5.1418-12.084-9.6987-18.824-13.555s-13.913-7.0113-21.43-9.2773c-3.7583-1.133-7.6022-2.0446-11.44-2.7188-3.8374-0.67419-7.6678-1.1104-11.478-1.3535-7.6212-0.48618-15.163-0.19585-22.502 0.60938-7.3389 0.80524-14.475 2.1249-21.445 3.7969-6.9699 1.672-13.774 3.6973-20.424 6.0371-6.6494 2.3398-13.144 4.9947-19.467 7.8945-6.3224 2.8998-12.472 6.0447-18.488 9.4082-12.032 6.7271-23.529 14.327-34.42 22.965-5.4452 4.319-10.74 8.8967-15.852 13.74-5.1112 4.8435-10.04 9.952-14.793 15.35s-9.3299 11.086-13.631 17.102-8.3259 12.36-11.867 19.021c-3.5412 6.6618-6.5979 13.641-8.9453 20.93-2.3475 7.2886-3.9848 14.887-4.6113 22.756-0.3132 3.9344-0.3743 7.9372-0.166 11.914s0.6859 7.9278 1.3965 11.83c1.4212 7.8045 3.7757 15.411 6.8926 22.703 3.1169 7.2924 6.9959 14.271 11.504 20.818 4.508 6.5473 9.6443 12.664 15.332 18.229 5.6876 5.5644 11.927 10.577 18.588 14.818 6.6608 4.241 13.744 7.7097 20.98 10.393s14.623 4.5797 22.051 5.7949c7.4273 1.2152 14.895 1.7478 22.281 1.6719 14.773-0.15184 29.226-2.7407 43.104-7.0625s27.179-10.376 39.775-17.574c6.2981-3.5993 12.42-7.4847 18.35-11.594 5.9295-4.109 11.666-8.4426 17.189-12.934s10.834-9.1395 15.92-13.898c2.5432-2.3795 5.0307-4.7872 7.4472-7.2012 2.4165-2.4139 4.7615-4.8347 7.084-7.3086l84.59 221.89c-6.9095 1.6512-13.815 3.2303-20.775 4.7422-6.9606 1.5119-13.976 2.9576-21.024 4.3223-14.095 2.7292-28.316 5.1349-42.613 7.1445s-28.67 3.6227-43.053 4.7598c-14.383 1.137-28.776 1.7983-43.117 1.9102-28.682 0.22379-57.155-1.7521-84.951-6.5137-27.796-4.7615-54.914-12.309-80.949-23.193s-50.987-25.104-73.252-42.232c-11.132-8.5644-21.593-17.856-31.18-27.805-9.5867-9.9483-18.299-20.553-26.062-31.834-7.7632-11.281-14.577-23.238-20.498-35.736s-10.95-25.539-15.115-38.969c-8.3315-26.86-13.213-55.275-14.664-83.742s0.5274-56.986 6.2949-84.309c2.8837-13.662 6.7146-27.024 11.527-39.928 4.8127-12.903 10.607-25.348 17.387-37.322 13.56-23.949 31.06-46.018 51.215-65.66s42.966-36.858 67.295-50.715c12.165-6.9283 24.709-13.016 37.506-18.109 12.797-5.0936 25.846-9.1936 39.223-12.365 26.753-6.3433 54.815-8.9781 83.65-9.8789 7.2089-0.22519 14.466-0.34169 21.752-0.38086z"/></g><g transform="translate(757.93 693.79)" fill="#fff332"><path d="m392.38-357.1c-6.3261-0.0294-12.647-1e-3 -18.945 0.10742-25.193 0.43542-50.02 2.1508-73.301 6.3106-11.64 2.0799-22.895 4.7708-33.768 8.1582s-21.364 7.4713-31.416 12.184c-10.052 4.7123-19.665 10.053-28.785 15.992s-17.749 12.477-25.799 19.533-15.52 14.629-22.178 22.715-12.499 16.686-17.385 25.896c-2.4427 4.6052-4.6476 9.3616-6.6055 14.318-1.9579 4.9567-3.6689 10.113-5.1289 15.43-2.92 10.633-4.8307 21.912-5.6484 33.434-1.6355 23.043 1.0978 47.058 8.2852 68.975 3.5937 10.958 8.3022 21.392 14.092 30.955 2.8948 4.7813 6.0604 9.3442 9.5195 13.746 3.4592 4.4019 7.2114 8.6423 11.184 12.701 7.9445 8.1177 16.766 15.509 25.939 22.125 4.9573 3.5753 10.017 6.9234 15.068 10.023-48.492-30.239-69.439-83.49-66.771-134.99 1.6441-31.738 12.258-62.81 30.922-87.416 25.035-33.005 64.554-54.378 105.01-66.65 49.111-14.9 99.598-16.384 150.19-15.586 45.97 0.72554 92.026 3.3365 137.04 6.6113l18.434-24.033c-8.3239-0.83839-16.649-1.626-25.021-2.3672-11.734-1.0389-23.561-1.9854-35.479-2.8379-11.918-0.85252-23.927-1.6106-36.055-2.2715-12.128-0.66086-24.373-1.224-36.787-1.7031-12.414-0.47909-24.998-0.87453-37.633-1.123-6.3176-0.12425-12.649-0.21083-18.975-0.24023zm-53.416 163.52c-7.675 6.2424-19.026 15.621-20.57 26.393-1.1547 8.053 3.1719 16.885 8.9004 23.732 9.715 11.614 23.463 17.52 37.486 21.035 17.45 4.3743 35.327 5.0452 53.129 6.2031 16.488 1.0725 32.913 2.5644 49.354 4.3164 41.007 4.3699 82.119 10.366 115.92 39.818-6.2406-6.4311-13.097-12.36-20.389-17.656-9.4628-6.8734-19.66-12.682-30.395-17.439-5.3675-2.3787-10.871-4.4956-16.48-6.3672-5.6096-1.8716-11.327-3.4988-17.105-4.8887-5.7786-1.3899-11.619-2.5412-17.533-3.4805-5.9143-0.93925-11.903-1.6662-17.988-2.2578s-12.269-1.0471-18.533-1.4453c-6.2642-0.39818-12.609-0.73766-19.035-1.1016-3.2132-0.18196-6.4475-0.3716-9.6934-0.57812-3.2458-0.20652-6.5039-0.43006-9.8008-0.67969s-6.6308-0.52457-10.109-0.9082-7.1016-0.87686-10.818-1.5879c-3.7168-0.71102-7.5282-1.6393-11.391-2.9102-3.8625-1.2708-7.7763-2.883-11.65-4.9219-3.8741-2.0389-7.709-4.5039-11.404-7.543-1.8477-1.5196-3.6601-3.1835-5.3926-5.0293s-3.3848-3.8737-4.8887-6.1523-2.8592-4.8083-3.9141-7.6172c-0.52742-1.4044-0.97879-2.8793-1.3281-4.4316-0.34934-1.5523-0.59744-3.1819-0.71485-4.8008s-0.10407-3.2273 0.01-4.7793c0.1142-1.552 0.32975-3.0472 0.625-4.4922 0.5905-2.89 1.496-5.5748 2.5957-8.0762 0.35306-0.80302 0.72544-1.5871 1.1172-2.3535zm78.557 255.15c-0.17392 0.79555-0.37267 1.5778-0.59375 2.3477-0.77361 2.6939-1.8155 5.2233-3.0703 7.5996s-2.7228 4.6-4.3594 6.668c-1.6366 2.0679-3.4424 3.9797-5.4473 5.7422s-4.209 3.3756-6.4258 4.7246-4.4468 2.4344-6.582 3.3438c-2.1353 0.9093-4.1766 1.641-6.1797 2.3008-2.0031 0.65979-3.9671 1.248-5.9805 1.7988-2.0134 0.55086-4.0758 1.065-6.1621 1.541-4.1726 0.95212-8.4454 1.7506-12.816 2.4336-4.371 0.68302-8.8398 1.2503-13.381 1.7246-4.5411 0.47435-9.1541 0.8561-13.814 1.166-9.3207 0.61985-18.832 0.95365-28.285 1.1465-9.4532 0.19283-18.848 0.24574-27.955 0.29688-9.1067 0.0511-17.926 0.10133-26.602 0.11914-8.6754 0.0178-17.206 2e-3 -25.617-0.0879-5.6234-0.0601-11.192-0.15271-16.76-0.29297l12.096 13.809c36.043 0.64403 71.901 1.3013 107.71 0.48438 22.272-0.5081 44.524-1.5868 66.178-10.414 19.149-7.8063 37.83-21.671 24.049-46.451z"/><path d="m1226.1-288.81c-15.51-13.643-32.706-25.774-50.949-36.136s-37.532-18.955-57.201-25.553c-19.669-6.5982-39.717-11.202-60.153-14.165-20.436-2.9637-41.259-4.2875-62.202-4.366-20.942-0.0785-42.003 1.0885-62.545 3.9378s-40.564 7.381-59.731 14.044c-9.5836 3.3313-18.953 7.1953-28.122 11.589-9.1684 4.3936-18.135 9.3167-26.842 14.71-17.413 10.788-33.782 23.458-48.733 37.606s-28.482 29.775-40.297 46.583-21.914 34.797-30.014 53.736c-3.4302 8.0199-6.502 16.21-9.2107 24.537 33.024-81.384 111.95-132.4 195.37-154.84 59.375-15.972 121.03-17.472 181.77-10.174 71.509 8.5934 141.74 29.384 196.39 79.065-10.898-14.699-23.527-28.251-37.532-40.57z"/><path d="m1397-345.33-0.7207 328.13 17.77-318.86 19.201 14.738h208.45l10.42-14.738 102.4 176.41-93.291-185.68zm437.53 0v130.06l10-120.79 10.061 14.738h118.98l10.551-13.066 11.221 222.49v-233.43z"/><path d="m2045.8-345.33 20.07 24.006h172.6l16.18-24.006z"/><path d="m2642.5-371.26c-7.2858 0.0392-14.543 0.15567-21.752 0.38086-28.836 0.90078-56.898 3.5356-83.65 9.8789-13.376 3.1716-26.426 7.2716-39.223 12.365-12.797 5.0936-25.341 11.181-37.506 18.109-24.329 13.857-47.14 31.072-67.295 50.715s-37.655 41.711-51.215 65.66c-6.7797 11.974-12.574 24.419-17.387 37.322-1.1886 3.1867-2.3177 6.4022-3.3886 9.6426 40.561-82.287 123.73-132.9 211.08-156.15 76.566-20.378 156.35-19.733 234.19-12.727l28.17-27.809c-7.0734-0.77216-14.131-1.4713-21.242-2.1074-7.1117-0.63616-14.279-1.2094-21.473-1.7227-14.388-1.0266-28.884-1.8106-43.473-2.3808-14.589-0.57024-29.27-0.92744-43.916-1.0977-7.3229-0.0851-14.636-0.12316-21.922-0.084zm96.814 363.93c-2.3219 2.4739-4.6675 4.8947-7.084 7.3086s-4.904 4.8217-7.4472 7.2012c-5.0864 4.7589-10.396 9.4074-15.92 13.898s-11.26 8.8246-17.189 12.934-12.052 7.9945-18.35 11.594c-12.596 7.1985-25.898 13.252-39.775 17.574s-28.331 6.9107-43.104 7.0625c-7.3864 0.07592-14.854-0.45664-22.281-1.6719-7.4274-1.2152-14.815-3.1121-22.051-5.7949s-14.32-6.1516-20.98-10.393c-6.6608-4.241-12.9-9.254-18.588-14.818-5.6877-5.5644-10.824-11.681-15.332-18.229-0.3337-0.48472-0.6653-0.97154-0.9903-1.4609 21.481 55.767 82.457 67.353 135.51 57.564 46.92-8.657 87.642-34.032 118.93-68.744z"/></g><g transform="translate(757.93 693.79)" fill="#fff"><path d="m435.7-201.43c-6.6915-0.045-13.378 0.0234-20.057 0.30664s-13.35 0.7812-20.008 1.582c-1.6645 0.2002-3.3275 0.41611-4.9902 0.66211s-3.3296 0.52421-4.9824 0.84961c-3.3056 0.65082-6.5546 1.486-9.6856 2.707-1.5655 0.61049-3.1126 1.3256-4.582 2.1582s-2.859 1.7788-4.1562 2.8594c-0.64864 0.54028-1.2776 1.1174-1.873 1.7207s-1.1579 1.231-1.6894 1.8828c-1.0631 1.3036-2.0059 2.7003-2.7891 4.2148-0.3916 0.75725-0.73596 1.5324-1.0195 2.3281-0.28356 0.79578-0.50784 1.617-0.64062 2.4609-0.1327 0.8439-0.17077 1.6889-0.0547 2.5352 0.058 0.42313 0.15217 0.84465 0.27344 1.25 0.12128 0.40536 0.26924 0.79833 0.4375 1.1836 0.33651 0.77052 0.75624 1.51 1.2285 2.2188 0.47227 0.70872 0.99153 1.3784 1.5449 2.0215 0.69425 0.80671 1.4405 1.5694 2.2207 2.291-4.283-14.589 11.697-17.712 25.145-19.604 13.659-1.9211 24.707-2.5708 36.445-3.1035 13.327-0.60478 27.545-1.0575 41.512-1.1211 12.701-0.0578 25.196 0.20604 37.762 0.57422 24.328 0.71281 48.925 1.8162 72.618 7.6857l-2.094-14.772c-3.3417-0.26189-6.6834-0.53139-10.026-0.77695s-6.6836-0.47035-10.027-0.67578c-6.6874-0.41088-13.378-0.74526-20.07-1.0234-13.385-0.55635-26.779-0.88477-40.174-1.1641-6.6976-0.13965-13.396-0.26676-20.094-0.40625-6.6976-0.1395-13.393-0.30269-20.09-0.47266-6.6964-0.16996-13.393-0.32803-20.084-0.37305zm-335.59 10.389c-9.1086 35.791-5.9533 75.498 8.7812 109.63 12.7 29.416 34.003 54.688 59.385 75.311 27.201 22.1 59.086 38.859 92.699 44.385 16.654 2.7378 33.731 2.7189 50.807 3.4297 9.5295 0.39667 19.058 1.0206 28.363 1.7637 9.5831 0.76526 18.93 1.6567 28.994 3.9941 9.9569 2.3124 20.617 6.0405 17.48 19.016 1.1115-0.84043 2.128-1.7945 3.0508-2.8555 1.1219-1.2899 2.0672-2.6925 2.7949-4.2324 0.36384-0.76994 0.66968-1.5744 0.89258-2.3926 0.22289-0.8182 0.36854-1.6641 0.39844-2.5195 0.0299-0.85539-0.0658-1.6985-0.26953-2.5293-0.20378-0.83084-0.50734-1.6325-0.87305-2.4004-0.3657-0.76786-0.79929-1.5113-1.2754-2.2168-0.47609-0.70547-0.99523-1.3766-1.5469-2.0176-1.1033-1.2819-2.3497-2.4566-3.6816-3.5117-1.332-1.0551-2.7499-1.988-4.25-2.7988-1.5001-0.81081-3.0514-1.4867-4.627-2.0645-1.5756-0.57772-3.18-1.0599-4.8027-1.4785s-3.2634-0.77314-4.9141-1.0977c-1.6506-0.32452-3.3105-0.62266-4.9707-0.90039-3.3205-0.55546-6.648-1.0189-9.9805-1.3906-3.3325-0.37176-6.6707-0.65379-10.014-0.86523-3.343-0.21145-6.69-0.35421-10.039-0.47266-3.3491-0.11845-6.6998-0.21055-10.051-0.30078-6.7019-0.18045-13.405-0.34968-20.096-0.69922s-13.375-0.89274-19.977-1.6914c-6.6016-0.79866-13.134-1.8535-19.582-3.2207-6.4477-1.3672-12.809-3.0498-19.078-5.0762-6.2691-2.0264-12.445-4.3984-18.533-7.0918-3.0442-1.3467-6.0668-2.7722-9.0703-4.2695-3.0034-1.4973-5.9811-3.0617-8.916-4.6719-5.8698-3.2204-11.605-6.6281-17.199-10.232-5.5943-3.6044-11.046-7.4071-16.342-11.428s-10.434-8.2599-15.389-12.756c-2.4772-2.248-4.9087-4.5605-7.2891-6.9434s-4.699-4.8273-6.9355-7.3164c-4.4731-4.9782-8.6379-10.158-12.457-15.564s-7.2872-11.043-10.424-16.896c-3.1366-5.8536-5.9458-11.93-8.4297-18.203-2.4839-6.2732-4.5963-12.624-6.375-19.043-1.7787-6.4194-3.2232-12.907-4.3516-19.461s-1.9391-13.174-2.4355-19.859c-0.24823-3.3426-0.41771-6.7108-0.50586-10.074-0.08814-3.3634-0.09594-6.718-0.02344-10.064 0.12268-5.6628 0.47403-11.302 1.0566-16.916zm543.82 290.56c-0.63862 2.5385-1.3306 5.0681-2.0781 7.5879-0.9568 3.2252-2.0084 6.4443-3.1484 9.6172-1.14 3.1728-2.3682 6.2985-3.6836 9.375-5.2618 12.306-11.927 23.842-19.773 34.729-1.9617 2.7216-4.0024 5.407-6.1055 8.041s-4.2598 5.2064-6.4688 7.7227c-4.4179 5.0324-9.0397 9.8384-13.842 14.443-4.8021 4.6049-9.7854 9.0086-14.934 13.229s-10.459 8.2591-15.953 12.094c-5.4945 3.8346-11.198 7.4695-16.992 10.822s-11.698 6.4421-17.711 9.2774c-12.025 5.6705-24.478 10.326-37.359 13.967-6.4405 1.8203-13.012 3.389-19.596 4.6758-6.5833 1.2868-13.196 2.2808-19.828 3.082s-13.281 1.4237-19.938 1.9746c-6.6566 0.5509-13.323 1.0145-19.996 1.3984-13.346 0.76792-26.736 1.2172-40.113 1.418-26.754 0.40153-53.456-0.18931-80.135-1.207-26.679-1.0177-53.335-2.4324-79.961-4.4394-13.313-1.0035-26.619-2.1556-39.914-3.4922-6.6477-0.66829-13.293-1.383-19.936-2.1484-6.6425-0.76548-13.282-1.5987-19.922-2.4219l-2.6367 11.988c95.133 10.913 189.33 14.321 285.17 10.432 27.769-1.1267 55.677-2.865 82.078-10.432 30.962-8.8738 59.852-25.763 85.109-46.6 20.155-16.627 37.998-35.769 51.004-58.258 10.045-17.368 17.205-36.733 16.658-56.875z" fill-opacity=".5"/><path transform="translate(-1.7855 -693.44)" d="m626.08 326.73 0.22292 3.4536-46.162 181.49-2.094-14.772z" fill-opacity=".20444" stroke-miterlimit="20" stroke-width="2" style="paint-order:stroke fill markers"/><path d="m1102.1-130.63c10.631 18.64 14.494 40.784 9.7672 61.859 0.9658-3.5857 1.7373-7.2236 2.3036-10.917 0.598-3.8994 0.9708-7.8818 1.1044-11.824s0.034-7.864-0.3032-11.765c-0.3367-3.9005-0.91-7.78-1.7384-11.637-0.8284-3.8568-1.9238-7.7144-3.2599-11.424-2.6724-7.4188-6.327-14.344-10.938-20.789-1.1529-1.6112-2.3707-3.1958-3.6312-4.7241s-2.5675-3.0061-3.9209-4.4333c-2.7069-2.8544-5.5983-5.5082-8.6898-7.944-1.5458-1.2179-3.142-2.381-4.7929-3.4846-1.6508-1.1036-3.36-2.1484-5.0907-3.1069-3.4614-1.917-7.0445-3.508-10.753-4.7624s-7.5362-2.1912-11.45-2.8972c-3.9135-0.70602-7.8351-1.1689-11.754-1.4827-3.9186-0.31378-7.8377-0.4909-11.757-0.53653-3.9196-0.0456-7.8398 0.0475-11.761 0.30578-3.9208 0.25827-7.8422 0.68144-11.764 1.3037-1.9611 0.31112-3.9164 0.67155-5.8492 1.0811-1.9328 0.40951-3.8478 0.86858-5.7468 1.3724-7.5959 2.0151-14.938 4.7382-22.112 7.9278-3.5872 1.5948-7.1321 3.3078-10.643 5.1151-3.511 1.8073-6.9747 3.6977-10.379 5.6562-13.618 7.8339-26.354 16.825-38.053 27.177-5.8494 5.176-11.44 10.696-16.734 16.596s-10.209 12.065-14.592 18.604c-2.1917 3.2692-4.2498 6.6321-6.1466 10.108-0.94842 1.738-1.8587 3.5094-2.7175 5.2974-0.85872 1.788-1.666 3.592-2.4189 5.413-1.5059 3.6419-2.7948 7.3513-3.8419 11.136-0.9741 3.5209-1.7344 7.1083-2.2842 10.761 3.1145-10.462 7.538-20.261 12.999-29.434 12.944-21.741 31.718-39.966 52.712-55.177 20.677-14.982 43.507-27.039 67.917-32.135 10.336-2.1578 20.956-3.0671 31.679-2.9628 12.236 0.11905 24.607 1.558 35.782 6.1535 12.992 5.3429 24.368 14.953 32.901 26.444 2.1733 2.9266 4.1623 5.9753 5.9581 9.124m230.6 144.78c-2.5782 10.83-5.6834 21.449-9.3416 31.847-3.6583 10.398-7.8693 20.576-12.681 30.515-4.8112 9.9382-10.236 19.632-16.294 29.072-1.5145 2.3601-3.0703 4.7081-4.6536 7.0248s-3.196 4.6054-4.837 6.8672c-3.282 4.5235-6.6769 8.9394-10.177 13.255-6.9999 8.6315-14.419 16.864-22.209 24.742-7.7901 7.8784-15.952 15.403-24.453 22.603-4.2507 3.6003-8.5866 7.1194-13.005 10.56-4.4184 3.4405-8.9076 6.7949-13.442 10.044-9.0688 6.498-18.35 12.595-27.866 18.249s-19.266 10.867-29.28 15.579c-10.014 4.7129-20.293 8.927-30.878 12.562-2.6463 0.90883-5.3118 1.7814-7.9974 2.616s-5.3893 1.6303-8.0928 2.3834c-5.4071 1.506-10.833 2.848-16.276 4.0421-10.886 2.3882-21.841 4.1864-32.852 5.5035-22.021 2.6342-44.264 3.3531-66.65 2.8332-2.7983-0.065-5.6088-0.14987-8.4093-0.2563-2.8005-0.10642-5.5983-0.23457-8.3931-0.38663-5.5896-0.30412-11.167-0.70384-16.731-1.2172-11.127-1.0267-22.198-2.5066-33.193-4.5958-5.4976-1.0446-10.976-2.2419-16.433-3.6137-2.7284-0.68589-5.449-1.4152-8.1464-2.1851-2.6973-0.76988-5.3758-1.5809-8.0361-2.4315-10.641-3.4026-20.992-7.4373-31.086-12.033s-19.93-9.7533-29.529-15.429c-4.7993-2.8376-9.5391-5.8051-14.221-8.899-4.6818-3.0939-9.2852-6.3013-13.792-9.6006-9.0146-6.5985-17.675-13.582-26.011-20.92-8.3354-7.3374-16.343-15.032-24.013-23.093-3.835-4.0306-7.5856-8.1531-11.249-12.37-3.6637-4.217-7.2461-8.5356-10.726-12.936-6.9592-8.8012-13.459-17.865-19.494-27.195-6.0343-9.3303-11.603-18.927-16.684-28.803s-9.6732-20.031-13.738-30.488c-1.0161-2.6143-2.0003-5.2514-2.9455-7.8931-0.94516-2.6418-1.8522-5.2903-2.7211-7.9457-1.7378-5.3108-3.3223-10.649-4.7577-16.014-2.8708-10.73-5.1495-21.565-6.8671-32.5s-2.8741-21.971-3.4738-33.106c-0.29987-5.5675-0.46021-11.161-0.47901-16.778s0.10387-11.21 0.36458-16.781c0.36152-7.7262 0.98764-15.41 1.8758-23.052-15.57 70.698-1.0311 146.06 35.82 209.84 52.282 90.481 149.47 157.64 257.05 170.59 20.591 2.4785 41.562 2.9711 61.736 2.0582 76.164-3.4463 140.96-26.925 197.88-67.82 65.408-47.001 120.4-117.01 128.4-198.81-0.3266 1.4592-0.6626 2.9145-1.008 4.3654z" fill-opacity=".5"/><path d="m1366.9-375.56-1.3984 640.06h217.99v-11.34h-212.3l1.3692-623.05z" fill-opacity=".5"/><path d="m1583.5-18.156v22.596l150.85 260.06h548.47l-3.5293-11.34h-538.41z" fill-opacity=".5"/><path d="m2668.2-183.19c-3.5529 0.0798-7.0941 0.34095-10.629 0.75-3.5348 0.40904-7.0708 0.96826-10.58 1.6445-7.0186 1.3526-13.879 3.1504-20.607 5.3281s-13.324 4.735-19.803 7.623c-3.2394 1.444-6.4497 2.9723-9.6328 4.5762-3.1832 1.6039-6.3323 3.2822-9.4317 5.0176-6.1987 3.4708-12.219 7.184-18.045 11.16-11.652 7.9523-22.531 16.951-32.535 27.137-2.501 2.5465-4.9416 5.1626-7.3028 7.8262-2.3613 2.6636-4.6506 5.3799-6.8633 8.1523-4.4252 5.5448-8.5447 11.313-12.234 17.396-1.8448 3.0417-3.5832 6.1676-5.1817 9.3828s-3.0381 6.4831-4.291 9.8125-2.3196 6.7212-3.1582 10.188c-0.3643 1.5062-0.6853 3.0264-0.959 4.5625 19.472-39.906 53.543-70.225 91.35-93.109 13.712-8.3 27.917-15.622 43.174-20.455 12.619-3.9971 25.958-6.2919 39.172-5.1816 17.73 1.4897 35.233 9.1086 48.881 20.529 12.631 10.57 21.961 24.397 31.163 37.83l0.187-12.898c-2.6722-4.6532-5.3429-9.3064-8.0137-13.959-0.4452-0.77552-0.8875-1.5539-1.3418-2.3223-0.4544-0.76835-0.9202-1.5276-1.3984-2.2773-1.9128-2.9989-4.0118-5.853-6.2832-8.5723s-4.7153-5.3039-7.332-7.7539c-1.3083-1.225-2.657-2.4105-4.0313-3.5488s-2.7781-2.2327-4.2129-3.2812c-2.8695-2.097-5.8582-4.0155-8.9746-5.7461-3.1163-1.7306-6.3806-3.2783-9.6953-4.5801s-6.6946-2.3687-10.144-3.1797-6.9773-1.3683-10.553-1.6992c-3.5754-0.33097-7.1385-0.43136-10.691-0.35156zm-383.58 159.8c-2.7349 13.816-1.1716 27.268 1.3653 40.588 5.9046 31.002 17.076 61.284 32.627 89.32 29.072 52.413 73.447 96.98 125.75 125.12 61.851 33.284 134.79 43.6 205.42 42.607 70.279-0.98723 138.28-13.169 206.55-28.291l0.3984-14.316c-3.7818 0.97212-7.5621 1.9506-11.344 2.9121s-7.5663 1.9044-11.354 2.8262c-7.5748 1.8435-15.16 3.6051-22.76 5.2793-15.199 3.3484-30.45 6.346-45.76 8.9297-15.31 2.5836-30.682 4.7548-46.123 6.4395s-30.952 2.8822-46.549 3.502c-7.7982 0.30985-15.618 0.47547-23.461 0.48047s-15.668-0.1484-23.465-0.47266c-15.593-0.64852-31.084-1.9758-46.455-4.0723s-30.624-4.9619-45.742-8.7109c-7.5591-1.8745-15.086-3.971-22.574-6.3047-3.7444-1.1669-7.4851-2.3948-11.201-3.6797-3.7162-1.2849-7.4027-2.6247-11.06-4.0195-14.631-5.5792-28.796-12.038-42.492-19.379-13.696-7.3414-26.924-15.564-39.629-24.771-3.1763-2.3018-6.3237-4.6691-9.4278-7.0938-3.1042-2.4247-6.1528-4.898-9.1465-7.4199-5.9875-5.0438-11.754-10.282-17.291-15.723-11.073-10.881-21.233-22.567-30.359-35.162-4.5633-6.2977-8.8684-12.822-12.92-19.57-2.0258-3.374-3.9933-6.8113-5.8769-10.268-1.8836-3.4563-3.6882-6.9383-5.4199-10.445-6.9271-14.028-12.678-28.449-17.416-43.209-4.7378-14.76-8.4601-29.86-11.242-45.273-1.1841-6.5599-2.1987-13.192-3.0372-19.828z" fill-opacity=".5"/><path transform="translate(-1.7855 -693.44)" d="m2827.8 308.69-0.5726 7.1041-74.825 264.62 0.187-12.898z" fill-opacity=".20444" stroke-miterlimit="20" stroke-width="2" style="paint-order:stroke fill markers"/></g><g transform="translate(756.15 .35252)"><path d="m1029.3 521.09c-10.723-0.10433-21.343 0.80507-31.68 2.9629-24.409 5.0956-47.239 17.153-67.916 32.135-20.994 15.211-39.769 33.437-52.713 55.178l226.95-48.553c-1.7979-3.1487-3.7876-6.1984-5.9609-9.125-8.5336-11.492-19.908-21.1-32.9-26.443-11.175-4.5955-23.545-6.0352-35.781-6.1543z" fill="url(#linearGradient242)" stroke-linecap="round" stroke-width="2"/><path d="m2667.4 521.8c-1.6466-0.0355-3.2936-0.021-4.9394 0.0391-9.9178 0.36439-19.788 2.4045-29.252 5.4023-15.257 4.8327-29.461 12.155-43.174 20.455-37.806 22.884-71.878 53.203-91.35 93.109-4e-4 3e-3 0 7e-3 0 0.01l175.5 69.957c2.7108-1.7737 5.3922-3.6103 8.0254-5.4902 2.8952-2.067 5.7355-4.1901 8.5254-6.3633 5.5807-4.3471 10.96-8.8976 16.158-13.631 2.5985-2.3663 5.1499-4.7792 7.6582-7.2363 2.5086-2.4575 4.9731-4.9602 7.3926-7.5078 4.839-5.0952 9.4999-10.369 13.971-15.836 1.1177-1.3666 2.2234-2.7452 3.3164-4.1367 1.093-1.3916 2.1706-2.7978 3.2519-4.2012 2.1594-2.8028 4.6679-5.552 6.2266-8.7852 3.1418-6.5169 5.2949-13.651 6.0371-20.848 1.2696-12.311 1.7983-25.544-2.832-37.021-3.7537-9.3048-9.9503-17.423-17.1-24.74-4.2894-4.3897-8.9204-8.4923-13.574-12.387-13.647-11.42-31.151-19.04-48.881-20.529-1.6511-0.1387-3.3058-0.22412-4.959-0.25976z" fill="url(#linearGradient240)"/></g><g><path d="m1211.3 1575.9-155.62 16.84-4.7832 6.2227 163.4-17.686z" fill="#83040a"/><path d="m1751.1 1383.6-123.51 157.71 2.7598 5.6699 126.33-161.3z" fill="#82040a"/><path d="m1367.5 1375-1.1406 10.701 58.525 121.57 2.0781-8.7559z" fill="#ba1109"/><path d="m1607.9 1359.2-6.1465 11.892-7.0098 175.96 5.8985-5.6699z" fill="#cc160d"/><path d="m1600.6 1541.3-5.8985 5.6699h35.686l-2.7598-5.6699z" fill="#808080"/><path d="m1600.6 1541.3h27.027l2.7598 5.6699h-35.686z" fill="#84090b"/><path d="m1367.5 1375-156.2 200.85 3 5.3769 152.06-195.52z" fill="#8d0c0a"/><path d="m1607.9 1359.2-180.94 139.36-2.0781 8.7559 176.88-136.23z" fill="#86070a"/><path d="m1770.2 1110.2-5.9199 4.8848-13.176 268.51 5.5742 2.0781z" fill="#9a130c"/></g><g><path d="m1673.6 1541.4-3.9492 5.6426 161.49 1.1524-2.9492-5.6895z" fill="#84090b"/><path d="m2245.6 1534-146.93 0.9004-3.1289 5.6894 160.49-0.9843z" fill="#84040a"/><path d="m1882.6 1463.9 2.9707 5.6699h165.41l3.1387-5.6699z" fill="#94110b"/><path d="m2054.1 1463.9-3.1387 5.6699 44.529 70.994 3.1289-5.6894z" fill="#808080"/><path d="m2054.1 1463.9 44.52 70.975-3.1289 5.6894-44.529-70.994z" fill="#b00d0a"/><path d="m1882.6 1463.9-54.41 78.59 2.9492 5.6895 54.432-78.609z" fill="#808080"/><path d="m1882.6 1463.9 2.9707 5.6699-54.432 78.609-2.9492-5.6895z" fill="#8a060a"/><path d="m1975.4 1110.2-3.5 5.0039 273.62 418.72 10.43 5.6054z" fill="#ba120b"/></g><g><path d="m2193.9 1395.8-7.1309 0.1504 114.02 143.31 2.7188-5.6856z" fill="#a60c0a"/><path d="m2334.4 1327.6v205.86l5.6699 5.6347v-201.56z" fill="#9a190f"/><path d="m2659.2 1111.8 29.99 425.62 6.4199 10.381-30.68-435.41z" fill="#a90c0a"/><path d="m2334.4 1533.4-30.891 0.1894-2.7188 5.6856 39.279-0.2403z" fill="#808080"/><path d="m2334.4 1533.4 5.6699 5.6347-39.279 0.2403 2.7188-5.6856z" fill="#8e0a0b"/><path d="m2334.4 1327.6 5.6699 9.9394 355.48 210.28-6.4199-10.381z" fill="#a50e0a"/></g><g><path d="m2858.5 1428.1-75.98 114.01 3.0313 5.6699 78.789-118.21z" fill="#860b0b"/><path d="m2701.2 1111.6-5.6191 0.7558 37.17 435.41 5.209-5.6699z" fill="#ce1a0e"/><path d="m2738 1542.1-5.209 5.6699h52.83l-3.0313-5.6699z" fill="#808080"/><path d="m2738 1542.1h44.59l3.0313 5.6699h-52.83z" fill="#83040a"/><path d="m2832.5 1094-5.6191 0.7558 31.629 333.36 5.8398 1.4688z" fill="#a80f0b"/></g><g><path d="m3259.3 1577.3-3.0801 5.5391 152.61 6.7598-11.859-6.1992z" fill="#8a0f0d"/><path d="m2824.1 1553-3.1309 5.582 169.4 4.9082-3.6602-5.7773z" fill="#8c160e"/><path d="m3018.2 1485.2 3.6289 5.8457 177.28 8.3223 3.0801-5.5293z" fill="#95140d"/><path d="m3202.2 1493.8-3.0801 5.5293 57.119 83.504 3.0801-5.5391z" fill="#808080"/><path d="m3202.2 1493.8 57.119 83.494-3.0801 5.5391-57.119-83.504z" fill="#a70c0a"/><path d="m3018.2 1485.2-31.561 72.512 3.6602 5.7773 31.529-72.443z" fill="#808080"/><path d="m3018.2 1485.2 3.6289 5.8457-31.529 72.443-3.6602-5.7773z" fill="#8d090a"/><path d="m3059.9 1132.3-3.0293 5.3867 340.11 445.69 11.859 6.1992z" fill="#b90b06"/></g></svg>
