<!-- Created by ERK --><svg xmlns="http://www.w3.org/2000/svg" xml:space="preserve" id="Layer_1" x="0" y="0" viewBox="0 0 3839 465.6"><style id="style1" type="text/css">.st0{fill:#e41608}</style><g id="g21"><g id="g20"><g id="g19"><g id="g6"><g id="g5"><g id="g4" style="fill:#e41608;fill-opacity:1"><g id="g1" style="fill:#e41608;fill-opacity:1"><path id="polygon1" d="M1243.5 17.6 1048.8 460h217.9l82.2-186.8V99.5h54.6V460h199.4V17.6z" class="st0" style="fill:#e41608;fill-opacity:1"/></g><g id="g2" style="fill:#e41608;fill-opacity:1"><path id="path1" d="M1060.4 262H838.9v132.3h-54.6V75h54.6v132.4h221.5v-24.1c0-130.1-67.5-179.5-150.8-179.5H713.8C630.4 3.8 563 53.1 563 183.3v102.8c0 130.1 67.5 179.5 150.8 179.5h195.9c83.3 0 150.8-49.3 150.8-179.5V262z" class="st0" style="fill:#e41608;fill-opacity:1"/></g><g id="g3" style="fill:#e41608;fill-opacity:1"><path id="path2" d="M490 205.4v-88.1c0-55.1-44.7-99.7-99.7-99.7H0v442.5h199.4V99.6H254v173.6L336.2 460h214.9L447.6 261.7c24.4-7 42.4-29.6 42.4-56.3" class="st0" style="fill:#e41608;fill-opacity:1"/></g></g></g></g><g id="g18" style="fill:#fff"><path id="path6" d="M3658.9 7.8h-146.6c-2 0-3.7 1.4-4.1 3.3-.6 2.5 1.3 5.2 3.9 5.2 53.7 0 46.2 30.3 42.8 45.8l-75 338.3c-5.1 22.9-28 44.7-65 45.9-2 .1-3.6 1.4-4.1 3.3-.6 2.6 1.4 5.2 4.1 5.2h155.9c2 0 3.7-1.4 4.1-3.3.6-2.5-1.3-5.2-3.9-5.2-42.6 0-47.1-30.3-43.7-45.8l75.1-338.3c5.1-22.9 19.4-44.7 56.4-45.9 2-.1 3.6-1.4 4.1-3.3.7-2.6-1.3-5.2-4-5.2" style="fill:#fff"/><path id="path7" d="M3834.8 7.8h-146.6c-2 0-3.7 1.4-4.1 3.3-.6 2.5 1.3 5.2 3.9 5.2 53.7 0 46.2 30.3 42.8 45.8l-75 338.3c-5.1 22.9-28 44.7-65 45.9-2 .1-3.6 1.4-4.1 3.3-.6 2.6 1.4 5.2 4.1 5.2h155.9c2 0 3.7-1.4 4.1-3.3.6-2.5-1.3-5.2-3.9-5.2-42.6 0-47.1-30.3-43.7-45.8l75.1-338.3c5.1-22.9 19.4-44.7 56.4-45.9 2-.1 3.6-1.4 4.1-3.3.7-2.6-1.3-5.2-4-5.2" style="fill:#fff"/><g id="g8" style="fill:#fff"><path id="path8" d="m2137.3 386.4 43.1-194.1h65.8l6-27.2h-65.8l24-108.3c.7-3.3-3.7-5.1-5.4-2.2-20.1 33.6-37.4 111.7-127.1 125.4-2.8.5-5.1 2.7-5.4 5.5-.4 3.7 2.5 6.8 6.1 6.8h53c-.6.7-31.9 142.8-46.1 207.7-11.2 51.2 27.8 72.3 66.4 46.7 45.7-30.3 64.4-69.1 69-79.4.7-1.6.6-3.5-.4-4.9l-.1-.1c-2-3.1-6.6-3.2-8.7 0-47.5 71.5-70.9 71.5-75.3 43.8-.9-6.6-.5-13.3.9-19.7" style="fill:#fff"/></g><g id="g10" style="fill:#fff"><path id="path9" d="M3164.9 464.1c-21.6 0-51.4-5.2-71.1-29.7-20.6-25.7-25-66.3-13-120.8 12.5-56.4 58.2-151.9 150.5-151.9 29.7 0 52.5 9.7 67.8 28.8 35.2 44.2 17.8 122.8 17.6 123.6-13.9 60.2-65.7 150-151.8 150m63.6-287.6c-35.8 0-84.7 66.8-100.6 137.5-10.2 45.2-18 94.6 1.7 119.3 8.4 10.5 21.6 15.9 39.1 15.9 49.8 0 91.3-89.8 101.4-135.7 13.5-61.2 12.2-100.9-4.2-121.3-8.4-10.4-21-15.7-37.4-15.7" style="fill:#fff"/><path id="path10" d="M3231.2 162.7c-85.6 0-134.8 85-149.4 151-26.6 120.5 32.7 149.2 83 149.2 87.9 0 137.5-92 150.6-149.2 5.5-23.3 23.6-151-84.2-151m39.9 151.1c-9.1 41.1-49.7 136.5-102.5 136.5-66.8 0-55.9-74.7-42-136.5 16.4-72.5 65.3-138.4 101.7-138.4 62.1 0 57.4 72.5 42.8 138.4" style="fill:#fff"/></g><g id="g11" style="fill:#fff"><path id="path11" d="m2974.8 388.4 49.5-223.2h-92.4c-3.9 0-7.1 3.2-7.1 7.1s3.2 7.1 7.1 7.1h11.8c23.6 0 26.9 18.6 23.7 33.1 0 0-27.8 123.7-41 184.7-9.5 43.9 22.3 69.7 50.4 57.7 30.5-13 62.9-71 70.2-84.2 1-1.8.8-4-.6-5.6l-.1-.1c-2.1-2.4-6-2.2-7.8.4-40 59.3-74.9 73.4-63.7 23" style="fill:#fff"/></g><g id="g12" style="fill:#fff"><path id="path12" d="M2782.3 15.3c.1 3.8 3.2 6.8 7 6.8l16.3.1c19.1.2 33.3 17.9 29.2 36.7l-28.7 129.2c-7.9-13.5-22.5-19.9-44.7-23.9-40.2-7.3-111.1 19.1-158.1 129.8-44.9 105.8-.4 167.1 42 167.6 51 0 76.4-37.1 115.4-90.3-6.9 45.5 10.4 104 56.7 75.2 33.3-20.7 61.3-61.6 69.4-73.4 1.2-1.8 1.3-4.2.1-6l-.1-.1c-1.9-3-6.2-3.3-8.6-.7-53.1 59-77 64.2-65.8 13.8h-.1l82.5-372.3-105.4.2c-4 0-7.2 3.3-7.1 7.3m8.2 242.7-.6 2.8c-3.8 16.5-10.3 35.5-20 56.8-44.4 97.9-76.3 119.7-109.4 113.3s-37.6-64-8.4-135.5c29.2-71.6 78.8-122.2 111.9-115.8 24.6 4.7 37.2 28.8 26.5 78.4" style="fill:#fff"/></g><ellipse id="ellipse12" cx="3032.6" cy="42.6" rx="37.5" ry="28.2" style="fill:#fff" transform="rotate(-62.917 3032.716 42.592)"/><path id="path13" d="m2565.5 367.3-.1-.1c-2.1-3.2-6.7-3.4-9.1-.5-15.8 19.7-29.8 41.5-46.4 51.2-13.3 7.7-26.4 8.9-20.4-17.9l51.9-234.8h-48.5c-21 79.8-90.7 262.4-156.7 262.4-20.1 0-15-28.8-13.7-34.6l50.4-227.8h-88.5c-1.3 0-2.6.6-3.4 1.6-5 5.9-.8 12.6 4.9 12.6h6.5c5.6 0 11.2 1.9 15.4 5.7 5 4.7 9.2 12.9 6 27.4 0 0-27.8 125.2-38.2 171.9-9.8 43.8 15.9 89.4 64 71.6 38.9-14.4 91.1-93.8 109.4-123.2-7.5 31.6-16.9 82.2-11.9 100.2 8.7 31.1 42.9 32.5 61.3 18.2 40.9-31.6 61.5-66.5 67.3-78.5.9-1.8.8-3.8-.2-5.4" style="fill:#fff"/><g id="g17" style="fill:#fff"><g id="g16" style="fill:#fff"><g id="g15" style="fill:#fff"><g id="g14" style="fill:#fff"><path id="path14" d="M2080.4 57.9c3.2 14.2-3.4 46.5-45.8 28.9-20.7-8.6-56.1-61.8-128.6-61.8-32 0-54 12.1-70.9 28.4-22 21.2-29.9 54.5-20.1 75 10.8 22.5 48.6 40.8 67.4 49.4 37.6 17.3 108.9 35 131.9 76 18.3 32.4 17.8 102.3-57.6 165.3-34.2 28.5-81.8 45.9-140.5 42.7-52.7-2.9-127.1-20.9-152-66.1-11.1-20.1 12-54.6 43-35.7 56.6 34.6 73.3 77.4 150 79.1 73.4 1.7 117.2-52.2 125.2-85.2 5.7-23.5 15.9-66.8-69.9-99.4-24.9-9.4-100.5-33-130-66.6-34.7-39.6-11-102.2 18.5-131.6C1845.1 12.6 1885.4 0 1949 0c39.9 0 121.7 15.4 131.4 57.9" style="fill:#fff"/></g></g></g></g></g></g></g></g></svg>