<!-- Created by ERK --><svg xmlns="http://www.w3.org/2000/svg" viewBox="0 0 936 371"><g fill="#454648" style="display:inline;fill:#fff"><path d="m23.56 296.49 32.53-38.9a.61.6-51.5 0 1 .82-.1q31 22.72 69.77 21.46c6.22-.2 13.78-2.69 11.84-10.94-1.05-4.46-12.56-7.65-16.2-8.38q-23.48-4.76-35.81-8.4c-26.45-7.8-51.27-20.25-53-51.63-2.17-39.52 29.44-61.93 65.25-65.44 35.12-3.44 70.29 2.99 98.44 24.34a.61.6 36.7 0 1 .13.83l-29.63 41.19a.51.5 34.5 0 1-.69.12q-25.19-17.42-56.02-18.1c-4.7-.11-12.01.71-13.79 5.99-2.93 8.68 9.9 11.76 15.84 12.99 37.59 7.77 92.42 15.67 89.05 67.48-2.28 35.14-30.75 53.97-63.16 57.97-40.16 4.95-83.42-3.69-115.3-29.72a.54.53 40.1 0 1-.07-.76m244.92-23.02 99.47.36a.3.3 0 0 1 .3.3v50.32a.3.3 0 0 1-.3.3h-160.9a.3.3 0 0 1-.3-.3v-187.4a.3.3 0 0 1 .3-.3h159.42a.3.3 0 0 1 .3.3l-.03 50.65a.3.3 0 0 1-.3.3h-97.98a.3.3 0 0 0-.3.3v19.15a.3.3 0 0 0 .3.3h91.44a.3.3 0 0 1 .3.3v44.15a.3.3 0 0 1-.3.3h-91.36a.3.3 0 0 0-.3.3l-.06 20.37a.3.3 0 0 0 .3.3m221.02-83.09v133.87a.5.5 0 0 1-.5.5h-61.5a.5.5 0 0 1-.5-.5v-133.7a1.18 1.17-3.3 0 0-1.31-1.16q-4.17.49-8.14.35c-15.06-.52-30.22-.25-45.29-.27a.51.5 0 0 1-.51-.5v-51.72a.5.5 0 0 1 .5-.5h172.16a.6.6 0 0 1 .6.6l-.02 51.65a.5.49-90 0 1-.49.5h-54.13a.88.87 90 0 0-.87.88" style="fill:#fff"/></g><path fill="#b7d126" d="M614.12 118.75a.32.32 0 0 0-.32.32q-.06 57.87-.08 115.68c-.01 19.08 4.18 36.09 26.24 38.25 20.7 2.03 32.44-11.08 32.46-30.75q.05-52.49.11-104.99a.51.5-90 0 1 .5-.51h62.75a.42.41-90 0 1 .41.42q.24 53.37-.14 106.83c-.26 36.95-18.21 69.19-55.56 79.48q-32.56 8.98-66.67 1.98c-24.48-5.02-44.28-17.21-55.06-40.46-6.92-14.92-8.46-32.75-8.48-50.02q-.06-57.85-.02-115.75a.48.48 0 0 0-.48-.48H499.5q-.65 0-.24-.5L582.62 18.2a.38.37 44.6 0 1 .57 0l83.46 100.17a.23.23 0 0 1-.18.38zm189.9 155.55-.05 49.97a.49.49 0 0 1-.49.48h-61.82a.41.41 0 0 1-.41-.41V137.28a.49.48 0 0 1 .49-.48q43.3-.11 86.5.16c36.24.23 75.03 14.36 80.65 55.57 7.18 52.64-31.53 80.29-79.66 81q-12.34.18-24.73.28a.49.48-90 0 0-.48.49m.45-45.11c15.12.54 42.57 2.52 43.52-20.18 1.08-25.73-27.36-22.31-43.55-22.24a.44.44 0 0 0-.44.44v41.49a.49.49 0 0 0 .47.49" style="display:inline"/></svg>