<?xml version="1.0" encoding="UTF-8"?>
<!-- Created by ERK -->
<svg width="2500" height="1120" version="1.1" viewBox="0 0 2500 1120" xml:space="preserve" xmlns="http://www.w3.org/2000/svg"><path d="m1766.7 0.6232c-23.08-0.98985-43.648 15.488-47.721 38.225l-22.963 128.24h-333.67l4.7208-26.633v-2e-3c4.9759-28.066-17.241-54.564-45.744-54.564h-315.33c2.2349-6.1763 3.8067-12.62 4.4512-19.271 2.5324-26.137-17.76-49.61-43.988-50.883l-197.65-9.5898c-23.2-1.1256-43.941 15.425-47.994 38.295l-7.3477 41.449h-344.07c-22.398 0-41.833 16.297-45.742 38.35l-26.834 151.39c-4.9746 28.066 17.239 54.565 45.742 54.564h27.09l-71.648 404.25c-4.9745 28.066 17.24 54.563 45.742 54.562h27.865c-20.557 11.602-41.43 22.403-63.336 32.721-21.657 10.201-42.896 19.227-65.072 27.594-22.355 8.4346-37.968 13.7-67.074 22.133-32.885 9.5275-44.221 52.67-20.262 77.129 34.828 35.555 61.771 76.088 80.996 122.38 9.909 23.859 38.119 35.12 61.734 24.648 32.035-14.204 52.247-23.65 79.115-37.008 26.935-13.391 51.254-26.269 77.322-41.135 36.849-21.015 71.876-43.339 105.2-67.072l-17.83 100.59c-4.9741 28.065 17.239 54.564 45.742 54.562h165.05c22.396 0 41.835-16.291 45.744-38.344l24.363-137.46c66.436 69.012 144.3 124.66 232.75 167 19.706 9.4351 43.636 3.7074 56.932-13.633 22.318-29.108 46.795-56.204 72.998-81.736 20.739 24.488 35.687 52.324 45.049 84.607 7.8164 26.955 38.634 41.005 64.109 29.23 105.11-48.581 198.47-117.51 275.89-202.52 0.6193 2.1524 1.3704 4.2946 2.3438 6.4062 4.9846 10.813 5.4189 11.697 8.4238 18.377 2.976 6.6155 4.9435 11.157 7.211 16.855 4.4614 11.212 7.1959 20.195 8.7363 28.898 1.4802 8.3644 2.2489 21.212 2.1953 31.373-0.057 10.728-0.3837 16.87-1.6113 38.768-1.4777 26.356 19.985 49.058 46.385 49.057h170.98c77.311 1.6467 160.49-34.119 207.81-93.774 45.242-57.031 70.898-128.62 87.768-189.87l87.268-316.84v-2e-3c6.8872-25.016-8.6026-51.344-33.814-57.475-40.365-9.8156-81.759-14.775-123.3-14.775h-232.94c1.3553-4.9141 2.6457-9.5648 4.1153-14.943h470.02c22.341-1.2e-4 41.746-16.213 45.719-38.197l27.953-154.75v-4e-3c5.078-28.106-17.153-54.715-45.713-54.715h-352.9l7.5606-42.229c26.294-12.936 43.6-39.949 43.641-69.941 0.033-24.332-19.498-44.746-43.807-45.789zm-519.65 329.58h25.877l-4.7988 30.99c-4.303 27.786 17.791 53.564 45.906 53.564h230.79c-11.64 50.564-23.23 93.952-40.465 140.13-19.864 53.217-44.678 99.742-77.074 142.67-52.418 69.454-123.09 128.33-201.27 168.82-58.348-18.494-112.59-44.084-162.68-77.359h63.451c22.396 1.8e-4 41.835-16.292 45.744-38.346v-2e-3zm647.29 344.6c-5.0495 15.123-10.272 30.453-14.113 41.891-3.0535 9.0911-7.6979 23.075-11.508 34.609v2e-3c-3.8071 11.526-6.4752 19.655-11.422 34.555-9.8687 29.726-14.087 41.562-23.156 55.465-3.6203 5.5498-8.9643 10.814-13.414 14.184-1.9303 1.4619-3.4718 2.3692-4.582 2.9824l-195.7-5.1699c41.342-54.382 76.71-114.09 105.19-178.37z"/><path d="m337.3 115.73-26.834 151.4c-2.8725 16.206 9.5918 31.074 26.051 31.074l50.945-1.6e-4 -75.814 427.74c-2.8725 16.206 9.5918 31.074 26.051 31.074h98.963c-41.465 27.203-81.703 49.991-125.91 70.815-22.105 10.412-43.859 19.656-66.534 28.211-22.674 8.5553-39.151 14.106-68.569 22.629-19.219 5.568-25.539 29.631-11.538 43.925 36.547 37.311 64.994 80.104 85.178 128.7 5.6986 13.721 21.575 20.06 35.157 14.038 31.883-14.137 51.662-23.381 78.318-36.634 26.657-13.253 50.581-25.922 76.318-40.599 51.474-29.355 99.39-61.064 143.6-95.83l-26.625 150.21c-2.8724 16.206 9.5919 31.074 26.051 31.072l165.05 1e-4c12.83 0 23.811-9.2035 26.05-21.835l31.444-177.41c70.358 81.127 155.25 145.13 254 192.41 11.283 5.4023 24.808 2.1631 32.42-7.7645 39.514-51.535 84.774-97.57 135.78-138.11 16.643-13.227 11.679-39.687-8.6263-45.982-81.6-25.298-155.75-64.219-221.91-117.86h124.43c12.83 1e-4 23.811-9.2058 26.051-21.839l77.45-436.97h86.39l30.702-173.23c2.874-16.206-9.5903-31.074-26.05-31.074h-353.58c12.962-9.9956 21.211-24.909 22.79-41.201 1.4573-15.041-9.9578-28.245-25.051-28.977l-197.65-9.5893c-13.301-0.6453-25.008 8.696-27.332 21.808l-10.273 57.959h-360.83c-12.83 1e-6 -23.811 9.2059-26.051 21.839z" fill="#fff"/><path d="m1281.8 352.25c-2.4831 16.034 9.9194 30.505 26.143 30.505l255.9 1e-5c-13.752 62.08-26.401 112.36-46.841 167.12-20.44 54.761-46.216 103.16-79.847 147.72-67.261 89.12-162.63 161.61-266.83 201.54-18.865 7.2296-22.993 32.081-7.4786 45.022 39.918 33.296 66.864 74.49 81.298 124.26 4.5102 15.554 21.81 23.442 36.51 16.647 190.13-87.878 341.36-243.25 425.99-442.1l209.18-0.18895c-6.3136 20.635-16.661 50.232-22.724 68.282-3.0313 9.0249-7.6749 23.007-11.477 34.516-3.8016 11.509-6.4776 19.661-11.432 34.585-9.9089 29.847-14.958 44.104-25.386 60.09-10.428 15.986-27.222 26.444-31.778 26.324l-202.85-5.359c-19.602-0.51799-32.936 19.717-24.728 37.523 4.9735 10.789 5.4712 11.809 8.5014 18.545 3.0301 6.7358 5.1625 11.655 7.5541 17.666 4.783 12.021 8.0065 22.406 9.8471 32.806 1.8405 10.4 2.5598 23.857 2.5012 34.965-0.059 11.109-0.4133 17.869-1.6418 39.782-0.8505 15.17 11.222 27.938 26.417 27.936h171.4c70.524 1.5022 149.3-32.741 191.72-86.207 42.414-53.466 67.62-122.72 84.153-182.75l87.268-316.84c3.9616-14.389-4.7549-29.206-19.257-32.733-38.818-9.4393-78.624-14.21-118.57-14.21h-259.19c4.26-15.133 9.3046-33.447 15.132-54.942h485.26c12.799-7e-5 23.762-9.16 26.038-21.754l27.952-154.75c2.934-16.231-9.5392-31.16-26.033-31.16l-376.8-2e-4 13.729-76.672c24.528-7.356 41.339-29.917 41.374-55.525 0.019-13.816-10.862-25.189-24.664-25.781l-198.38-8.5092c-13.231-0.56746-24.843 8.7341-27.178 21.769l-25.911 144.72h-397.43z" fill="#fff"/><path d="m763.65 44.485-14.115 79.643h-383.02l-25.492 143.84h383.01l-7.6309 43.062h-300.51l-73.689 415.75h188.66c-101.75 78.959-216.71 143.15-340.79 179.18 36.442 38.251 64.987 81.642 85.633 130.17 126.99-56.281 249.98-126.1 351.54-222.12l-40.645 229.31h157.38l42.598-240.34c73.658 101.38 167.78 179.76 282.36 235.14 39.141-50.661 83.658-96.163 133.55-136.51-109.36-35.05-204.13-93.329-284.31-174.84h199.38l73.689-415.75h-317.48l7.6328-43.062h403.87l25.49-143.84h-403.86l8.541-48.184 9.959 0.03906c13.47 0.05385 25.206-9.1727 28.332-22.275zm-221.99 379.93h154.65l-7.4941 42.287h-154.65zm312.02 0h160.1l-7.4942 42.287h-160.1zm-337.76 145.21h154.65l-7.7578 43.766h-154.65zm312.03 0h160.1l-7.7559 43.766h-160.1z" fill="#aa0e0e"/><path d="m1761.8 38.954-29.791 166.37h-396.81l-22.801 147.19 288.97-2e-3c-21.35 100.37-45.496 204.44-95.602 295.03-29.848 53.962-68.906 103.14-113.9 145.9-59.362 56.425-129.05 101.68-204.76 131.62 40.789 35.47 69.077 79.041 84.865 130.71 95.911-44.93 184.02-108.07 255.8-186.43 47.117-51.436 87.2-109.43 119.47-171.14 14.539-27.808 27.491-56.373 39.246-85.457l268.8-0.24219c-7.2482 32.381-18.555 64.166-29.281 95.746-9.3215 27.443-18.204 54.732-27.449 82.564-8.8326 26.591-17.996 53.679-35.119 75.344-6.5693 8.3115-14.311 15.824-23.414 21.652-8.3258 5.3304-17.79 9.2495-27.748 8.9863l-196.79-5.1973c9.964 21.615 19.929 43.23 24.701 65.867 5.6152 26.635 4.0415 54.685 2.4668 82.736h167.75c54.79 1.2499 114.77-20.06 153.96-59.301 30.852-30.894 48.812-72.902 66.01-114.74 10.05-24.451 19.838-48.846 26.41-72.709l86.228-313.07c-35.283-8.2714-71.4-12.447-107.64-12.447h-299.37c11.354-38.41 21.805-77.045 32.168-115.42l505.25 2e-3 26.592-147.19h-408.41l23.93-133.67 13.318-1.4785c12.102-1.3438 21.622-10.961 22.842-23.078z" fill="#aa0e0e"/><path d="m810.32 454.86c-39.298 0-78.602 11.16-112.94 33.473-1.8074 1.1746-3.4445 2.5296-5.0078 3.9492v-34.42a3.0003 3.0003 0 0 0-3-3h-257.01a3.0003 3.0003 0 0 0-3 3v56.693a3.0003 3.0003 0 0 0 3 3h79.438v174.64a3.0003 3.0003 0 0 0 3 3h86.93a3.0003 3.0003 0 0 0 3-3v-174.64h74.451c-0.21873 1.6304-0.36913 3.286-0.36914 4.9844v104.97c4e-5 13.806 6.9899 26.684 18.566 34.207 68.672 44.625 157.2 44.625 225.88 0 11.577-7.5228 18.566-20.401 18.566-34.207v-104.97c-2e-5 -13.806-6.9899-26.684-18.566-34.207-34.336-22.313-73.639-33.473-112.94-33.473zm827.72 0c-39.298 0-78.602 11.16-112.94 33.473-11.576 7.5228-18.566 20.401-18.566 34.207v104.97c1e-4 13.806 6.9899 26.684 18.566 34.207 68.672 44.625 157.2 44.625 225.88 0 11.576-7.5228 18.566-20.401 18.566-34.207v-104.97c-1e-4 -13.806-6.9899-26.684-18.566-34.207-34.336-22.313-73.639-33.473-112.94-33.473zm-684.09 2e-3a3.0003 3.0003 0 0 0-3 3v169.73c4e-5 13.741 6.9237 26.568 18.412 34.107 69.229 45.43 158.84 45.43 228.07 0 11.489-7.5393 18.41-20.367 18.41-34.107v-169.73a3.0003 3.0003 0 0 0-3-3h-86.93a3.0003 3.0003 0 0 0-3 3v162.29a3.0003 3.0003 0 0 0 0 2e-3c1e-3 3.3487-1.9825 6.3516-5.0625 7.666-22.01 9.3927-46.898 9.3927-68.908 0-3.0804-1.3145-5.0664-4.3193-5.0664-7.668v-162.29a3.0003 3.0003 0 0 0-3-3zm285.35 0a3.0003 3.0003 0 0 0-3 3v234.33a3.0003 3.0003 0 0 0 3 3h86.93a3.0003 3.0003 0 0 0 3-3v-86.764h79.041v86.764a3.0003 3.0003 0 0 0 3 3h86.93a3.0003 3.0003 0 0 0 3-3v-234.33a3.0003 3.0003 0 0 0-3-3h-86.93a3.0003 3.0003 0 0 0-3 3v86.762h-79.041v-86.762a3.0003 3.0003 0 0 0-3-3zm544.25 0a3.0003 3.0003 0 0 0-3 3v169.73c1e-4 13.741 6.9237 26.568 18.412 34.107 69.229 45.43 158.84 45.43 228.07 0 11.489-7.5393 18.41-20.367 18.41-34.107v-169.73a3.0003 3.0003 0 0 0-3-3h-86.93a3.0003 3.0003 0 0 0-3 3v162.29c0 3.3494-1.9844 6.3536-5.0644 7.668-22.01 9.3927-46.898 9.3927-68.908 0-3.0801-1.3144-5.0644-4.3184-5.0645-7.668v-162.29a3.0003 3.0003 0 0 0-3-3zm-973.23 60.803c11.53 0 23.06 2.4952 33.762 7.4863 2.9435 1.3729 4.8144 4.3094 4.8144 7.5566v88.074c-7e-5 3.1402-1.7517 6.0005-4.5488 7.4277-21.376 10.907-46.677 10.907-68.053 0-2.7972-1.4272-4.5488-4.2875-4.5488-7.4277v-88.074c7e-5 -3.2482 1.8693-6.1839 4.8125-7.5566 10.701-4.9911 22.231-7.4863 33.762-7.4863zm827.72 0c11.53 0 23.06 2.4952 33.762 7.4863 2.9436 1.3729 4.8144 4.3093 4.8145 7.5566v88.074c-1e-4 3.1402-1.7517 6.0005-4.5489 7.4277-21.376 10.907-46.677 10.907-68.053 0-2.7972-1.4272-4.5488-4.2875-4.5488-7.4277v-88.074c0-3.2482 1.8692-6.1839 4.8125-7.5566 10.701-4.9911 22.231-7.4863 33.762-7.4863z"/><path d="m439.93 465.42v41.574h82.438v177.64h71.811v-177.64h87.643v-41.574zm370.39 0c-37.297 0-74.594 10.588-107.18 31.766-8.5825 5.5772-13.762 15.118-13.762 25.354v104.97c7e-5 10.235 5.1792 19.776 13.762 25.354 65.179 42.356 149.19 42.356 214.37 0 8.5825-5.5772 13.762-15.118 13.762-25.354v-104.97c-5e-5 -10.236-5.1792-19.776-13.762-25.354-32.59-21.178-69.886-31.766-107.18-31.766zm151.18 0v162.17c6e-5 10.187 5.1293 19.69 13.646 25.279 65.718 43.127 150.77 43.127 216.49 0 8.5169-5.5893 13.647-15.092 13.644-25.279v-162.17h-71.809v154.73l-11.477 17.381 11.48-17.381c0 7.5702-4.5178 14.41-11.48 17.381-24.657 10.522-52.541 10.522-77.197 0-6.9627-2.9713-11.48-9.8105-11.48-17.381v-154.73zm285.36 0v219.21h71.809v-89.764h100.16v89.764h71.81v-219.21h-71.81v89.764h-100.16v-89.764zm391.18 0c-37.296 3.7e-4 -74.592 10.588-107.18 31.766-8.5825 5.5772-13.762 15.118-13.76 25.354v104.97c0 10.236 5.1753 19.776 13.758 25.354 65.179 42.356 149.19 42.356 214.37 0 8.5825-5.5772 13.761-15.118 13.764-25.354v-104.97c0-10.236-5.1812-19.776-13.764-25.354-32.589-21.178-69.885-31.765-107.18-31.766zm153.08 0v162.17c0 10.187 5.1293 19.69 13.646 25.279 65.718 43.127 150.77 43.127 216.49 0 8.5169-5.5893 13.645-15.092 13.645-25.279v-162.17h-71.811v154.73c0 7.5687-4.5162 14.407-11.477 17.379l11.477-17.379-11.48 17.381c-24.656 10.521-52.539 10.522-77.195 0-6.9627-2.9713-11.48-9.8105-11.48-17.381v-154.73zm-980.79 39.684c13.055 0 26.11 2.8261 38.225 8.4766 6.6554 3.1041 10.91 9.7832 10.91 17.127v88.074c-6e-5 7.1026-3.9822 13.604-10.309 16.832-24.388 12.444-53.263 12.444-77.65 0-6.3264-3.228-10.309-9.7295-10.309-16.832v-88.074c8e-5 -7.3438 4.2528-14.023 10.908-17.127 12.115-5.6504 25.17-8.4766 38.225-8.4766zm827.72 0c13.055 0 26.11 2.8261 38.225 8.4766 6.6554 3.1041 10.91 9.7832 10.91 17.127v88.074c0 7.1026-3.9822 13.604-10.309 16.832-24.388 12.444-53.263 12.444-77.65 0-6.3264-3.228-10.311-9.7295-10.311-16.832v-88.074c0-7.3438 4.2548-14.023 10.91-17.127 12.115-5.6504 25.17-8.4766 38.225-8.4766z" fill="#fff"/></svg>
