<?xml version="1.0" encoding="UTF-8"?>
<!-- Created with ERK -->
<svg width="2704.1" height="988.06" version="1.1" viewBox="0 0 2704.1 988.06" xml:space="preserve" xmlns="http://www.w3.org/2000/svg" xmlns:xlink="http://www.w3.org/1999/xlink"><defs><linearGradient id="linearGradient5" x1="-387.8" x2="-337.87" y1="-84.35" y2="-84.35" gradientTransform="matrix(.26508 0 0 .26458 1352 839.06)" gradientUnits="userSpaceOnUse"><stop offset="0"/><stop stop-color="#818181" offset=".59671"/></linearGradient><radialGradient id="radialGradient368" cx="1784.1" cy="815.78" r="24.044" gradientTransform="matrix(1 0 0 .99674 -528.29 -43.063)" gradientUnits="userSpaceOnUse"><stop stop-color="#800000" offset="1e-4"/><stop stop-color="#4e0000" offset="1"/></radialGradient></defs><g><path d="m1000.4 159.56 32.059 24.002h189.68l-32.061-24.002zm513.64 0-32.061 24.002h189.68l32.059-24.002zm-589.79 44.002 32.062 23.996h303.39l4.3047-12.654-15.154-11.342zm531.01 0-15.152 11.342 4.3047 12.654h303.39l32.061-23.996zm-602.14 40.998c-28.448-5.2e-4 -50.399 24.984-46.686 53.135l62.258 472c3.084 23.384 23.054 40.865 46.686 40.865h239.67l-33.424 124.5 11.022 53h438.82l11.022-53-33.422-124.5h239.67c23.632 3e-5 43.604-17.481 46.688-40.865l62.256-472c3.7136-28.151-18.238-53.135-46.686-53.135l-400.8 2e-3 7.4824 22 393.32-2e-3c15.132-5.5e-4 26.81 13.289 24.834 28.264l-62.258 472c-1.64 12.438-12.262 21.736-24.832 21.736h-268.39l39.328 146.5h-415.23l39.328-146.5h-268.39c-12.569-7e-5 -23.191-9.2979-24.832-21.736l-62.258-472c-1.9751-14.975 9.7004-28.264 24.832-28.264l393.32 2e-3 7.4805-22zm343.42 566-28.59 106.5h368.22l-28.592-106.5zm-272.34 24 29.057 25h169.97l6.711-25zm649.99 0 6.7109 25h169.97l29.055-25zm-595.37 47 29.057 25h102.73l6.711-25zm607.98 0 6.7109 25h102.73l29.055-25z" stroke-linecap="round"/><path d="m1352 6-42.193 124.06h-121.11l96.535 72.268-40.408 118.82 107.18-74.906 107.18 74.906-40.408-118.82 96.535-72.268h-121.11zm0 52.887 29.988 88.178h82.223l-65.537 49.059 27.652 81.311-74.326-51.947-74.326 51.947 27.652-81.311-65.537-49.059h82.223z" stroke-linecap="round"/><path d="m1352 58.887-29.988 88.178h-82.223l65.537 49.059-27.652 81.311 74.326-51.947 74.326 51.947-27.652-81.311 65.537-49.059h-82.223z"/><path d="m806.1 427.14-16.58-125.7h-789.52l153.88 177.6zm10.168 77.102-6.9922-53.016-586.8 55.652 109.42 100.75zm15.051 114.1-10.986-83.297-400.87 89.684 115.35 103.52zm18.246 138.34-14.6-110.69-222.55 78.58 137.8 93.865z" stroke-linecap="round"/><path d="m1914.5 301.45-16.58 125.7 652.21 51.902 153.88-177.6zm-19.756 149.78-6.9922 53.016 484.37 103.39 109.42-100.75zm-11.057 83.818-10.986 83.297 296.51 109.9 115.35-103.52zm-14.633 110.94-14.6 110.69 99.35 61.754 137.8-93.865z" stroke-linecap="round"/><path d="m894.17 336.06v118h86.162v-40h-28.053v12.998h-30.059v-64h30.059v13h28.053v-40zm106.7 0v118h86.16v-118zm28.051 27h30.057v64h-30.057zm78.648-27v118h86.162v-50.045l-11.889-9.959 11.889-9.9551v-48.043zm28.053 27h30.057v14.104l-4.6543 3.8965h-25.402zm0 44h25.402l4.6543 3.8984v16.102h-30.057zm78.648-71v118h82.154v-27.002h-55.104v-20h40.074v-26h-40.074v-18h55.104v-27zm98.184 0v27h29.807v91.002h27.051v-91.002h29.807v-27zm102.69 0v118h86.162v-40h-28.053v12.998h-30.057v-64h30.057v13h28.053v-40zm105.2 0v118h28.053v-47.002h12.023l19.227 47.002h28.863l-24.545-60.004 24.545-57.998h-29.488l-19.043 45h-11.582v-45zm101.19 0v118h28.055v-11.123l30.057-49v60.123h28.051v-118h-28.051v10l-30.057 48.998v-58.998zm106.2 0v118h82.152v-27.002h-55.102v-20h40.074v-26h-40.074v-18h55.102v-27zm-814.78 141v128h32.062v-12l36.066-49.455v61.455h32.059v-128h-32.059v11.998l-36.066 49.457v-61.455zm124.73 0v128h32.062v-98h60.111v-29.998zm112.21 0v128h32.058v-38.096h68.129v-89.902zm32.058 29.998h36.068v29.906h-36.068zm92.676-29.998v128h98.184v-128zm32.059 29.998h34.064v68h-34.064zm90.672-29.998v128h98.184v-53.398l-12.656-10.6 12.656-10.602v-53.398zm32.06 29.998h34.062v15.963l-4.8203 4.0371h-29.242zm0 48h29.242l4.8203 4.0391v15.961h-34.062zm90.67-77.998v128h98.186v-89.627h-66.125v-38.371zm32.06 68.373h34.064v29.625h-34.064zm82.154-68.373v128h34.064v-128zm58.609 0v128h98.186v-30h-63.369v-20h44.082v-28h-44.082v-20h63.369v-29.998zm-749.22 151-24.486 59v59h28.053v-27h28.055v27h28.051v-118zm18.924 28h12.697v37h-28.055zm58.783-28v118h86.162v-50.043l-11.889-9.957 11.889-9.957v-48.043zm28.051 27h30.059v14.104l-4.6543 3.8965h-25.404zm0 44h25.404l4.6543 3.8984v16.102h-30.059zm74.141-71v27h29.807v91h27.051v-91h29.807v-27zm102.69 0v118h86.162v-118zm28.053 27h30.057v64h-30.057zm76.142-27v118h28.053v-70.543l27.553 39.75 27.553-39.75v70.543h28.053v-118h-28.053l-27.553 39.75-27.553-39.75zm153.73 0-24.484 59v59h28.053v-27h28.053v27h28.053v-118zm18.924 28h12.697v37h-28.053zm56.779-28v27h29.807v91h27.051v-91h29.807v-27zm102.69 0v118h82.154v-79.01h-54.102v-38.99zm28.053 64.99h26.051v26.01h-26.051zm66.125-64.99v118h28.053v-118z"/></g><g transform="translate(-453.77)" fill="#e6cf00"><path d="m2040.5 869.56 6.711 25h102.73l29.055-25z"/><path d="m1432.6 869.56 29.057 25h102.73l6.7109-25z"/><path d="m2027.9 822.56 6.7109 25h169.97l29.055-25z"/><path d="m1377.9 822.56 29.057 25h169.97l6.7109-25z"/><path d="m1650.3 798.56-28.59 106.5h368.22l-28.592-106.5z"/><path d="m1909 191.56-15.152 11.342 4.3047 12.654h303.39l32.06-23.996z"/><path d="m1378 191.56 32.062 23.996h303.39l4.3047-12.654-15.154-11.342z"/><path d="m1967.8 147.56-32.06 24.002h189.68l32.059-24.002z"/><path d="m1454.1 147.56 32.059 24.002h189.68l-32.06-24.002z"/><path d="m1805.8 0-42.193 124.06h-121.11l96.535 72.268-40.408 118.82 107.18-74.906 107.18 74.906-40.408-118.82 96.535-72.268h-121.11zm0 52.887 29.988 88.178h82.223l-65.537 49.059 27.652 81.311-74.326-51.947-74.326 51.947 27.652-81.311-65.537-49.059h82.223z"/><path d="m1586.4 976.06h438.83l11.02-53-33.422-124.5h239.67c23.632 3e-5 43.603-17.481 46.687-40.865l62.257-472c3.7135-28.151-18.238-53.135-46.686-53.134l-400.8 4.6e-4 7.4819 22 393.32-5e-4c15.132-5.5e-4 26.809 13.289 24.833 28.263l-62.257 472c-1.64 12.438-12.263 21.737-24.833 21.737l-268.39 6e-5 39.329 146.5h-415.23l39.329-146.5-268.39-6e-5c-12.569-7e-5 -23.192-9.2985-24.833-21.737l-62.257-472c-1.9751-14.975 9.7013-28.264 24.833-28.263l393.32 5e-4 7.4819-22-400.8-4.6e-4c-28.448-5.2e-4 -50.4 24.983-46.686 53.134l62.257 472c3.084 23.384 23.055 40.865 46.686 40.865l239.67-1e-5 -33.422 124.5 11.02 53"/></g><g fill="#666"><path d="m1279.4 770.06a23.544 23.5 0 0 0-47.088 0 23.544 23.5 0 0 0 47.088 0z"/><path d="m1290.9 849.16a20.001 35.068 89.349 0 0-70.132 0.79823 20.001 35.068 89.349 0 0 70.132-0.79823z"/><path d="m1290.9 846.66a20.001 35.068 89.349 0 0-70.132 0.79823 20.001 35.068 89.349 0 0 70.132-0.79823z"/><path d="m1408.1 853.06a27.051 16 0 0 0-54.102 0 27.051 16 0 0 0 54.102 0z"/><path d="m1481.3 853.06a27.051 16 0 0 0-54.102 0 27.051 16 0 0 0 54.102 0z"/><path d="m1481.3 850.56a27.051 16 0 0 0-54.102 0 27.051 16 0 0 0 54.102 0z"/><path d="m1408.1 850.56a27.051 16 0 0 0-54.102 0 27.051 16 0 0 0 54.102 0z"/><path d="m1249.3 798.64c4.2552 1.2225 8.7695 1.2225 13.024 0v46.863c-4.1102 2-8.9141 2-13.024 0z"/></g><g transform="translate(-453.77)" fill="#800000"><path d="m2322.6 634.09 349.6 80.479-211.36 93.865-153.06-62.025z" display="none"/><path d="m1289 634.09-349.6 80.479 211.36 93.865 153.05-62.025z" display="none"/><path d="m2337.3 522.71-10.971 83.184 464.92 112.35 176.93-103.52z" display="none"/><path d="m1274.3 522.71-630.88 92.018 176.93 103.52 464.92-112.35z" display="none"/><path d="m2348.3 439.87-6.8399 51.854 761.1 105.92 167.83-100.75z" display="none"/><path d="m1263.3 439.87-922.09 57.016 167.83 100.75 761.09-105.92z" display="none"/><path d="m2367.8 291.45-16.416 124.46 1024.1 53.135 236.04-177.6z" display="none"/><path d="m0 291.45 236.04 177.6 1024.1-53.135-16.418-124.46z" display="none"/><path d="m1805.8 52.887-29.988 88.178h-82.223l65.537 49.059-27.652 81.311 74.326-51.947 74.326 51.947-27.652-81.311 65.537-49.059h-82.223z"/><path d="m1303.3 746.68-14.6-110.69-222.55 78.58 137.8 93.865z" stroke-linecap="round"/><path d="m1285.1 608.35-10.986-83.297-400.87 89.684 115.35 103.52z" stroke-linecap="round"/><path d="m1270 494.25-6.9922-53.016-586.8 55.652 109.42 100.75z" stroke-linecap="round"/><path d="m1259.9 417.14-16.58-125.7h-789.52l153.88 177.6z" stroke-linecap="round"/><path d="m2322.9 635.99-14.6 110.69 99.35 61.754 137.8-93.865z" stroke-linecap="round"/><path d="m2337.5 525.05-10.986 83.297 296.51 109.9 115.35-103.52z" stroke-linecap="round"/><path d="m2348.6 441.23-6.9922 53.016 484.37 103.39 109.42-100.75z" stroke-linecap="round"/><path d="m2368.3 291.45-16.58 125.7 652.21 51.902 153.88-177.6z" stroke-linecap="round"/></g><g transform="translate(-453.77)" fill="#800000"><path d="m2210.6 618.06v118h28.053v-118z"/><path d="m2116.4 618.06v118h82.154v-79.01h-54.102v-38.99zm28.053 64.99h26.051v26.01h-26.051z"/><path d="m2013.7 618.06v27h29.807v91h27.051v-91h29.807v-27z"/><path d="m1938 618.06-24.484 59v59h28.053v-27h28.053v27h28.053v-118zm18.924 28h12.697v37h-28.053z"/><path d="m1784.3 618.06v118h28.053v-70.543l27.553 39.75 27.553-39.75v70.543h28.053v-118h-28.053l-27.553 39.75-27.553-39.75z"/><path d="m1680.1 618.06v118h86.162v-118zm28.053 27h30.057v64h-30.057z"/><path d="m1577.4 618.06v27h29.807v91h27.051v-91h29.807v-27z"/><path d="m1475.2 618.06v118h86.162v-50.043l-11.889-9.957 11.889-9.957v-48.043zm28.051 27h30.059v14.104l-4.6543 3.8965h-25.404zm0 44h25.404l4.6543 3.8984v16.102h-30.059z"/><path d="m1397.5 618.06-24.486 59v59h28.053v-27h28.055v27h28.051v-118zm18.924 28h12.697v37h-28.055z"/></g><g transform="translate(-453.77)" fill="#e6cf00"><path d="m2146.7 467.06v128h98.186v-30h-63.369v-20h44.082v-28h-44.082v-20h63.369v-29.998z"/><path d="m2088.1 467.06v128h34.064v-128z"/><path d="m1973.9 467.06v128h98.186v-89.627h-66.125v-38.371zm32.06 68.373h34.064v29.625h-34.064z"/><path d="m1851.1 467.06v128h98.184v-53.398l-12.656-10.6 12.656-10.602v-53.398zm32.06 29.998h34.062v15.963l-4.8203 4.0371h-29.242zm0 48h29.242l4.8203 4.0391v15.961h-34.062z"/><path d="m1728.4 467.06v128h98.184v-128zm32.059 29.998h34.064v68h-34.064z"/><path d="m1603.7 467.06v128h32.058v-38.096h68.129v-89.902zm32.058 29.998h36.068v29.906h-36.068z"/><path d="m1491.5 467.06v128h32.062v-98h60.111v-29.998z"/><path d="m1366.7 467.06v128h32.062v-12l36.066-49.455v61.455h32.059v-128h-32.059v11.998l-36.066 49.457v-61.455z"/></g><g transform="translate(-453.77)" fill="#800000"><path d="m2181.5 326.06v118h82.152v-27.002h-55.102v-20h40.074v-26h-40.074v-18h55.102v-27z"/><path d="m2075.3 326.06v118h28.055v-11.123l30.057-49v60.123h28.051v-118h-28.051v10l-30.057 48.998v-58.998z"/><path d="m1974.1 326.06v118h28.053v-47.002h12.023l19.227 47.002h28.863l-24.545-60.004 24.545-57.998h-29.488l-19.043 45h-11.582v-45z"/><path d="m1868.9 326.06v118h86.162v-40h-28.053v12.998h-30.057v-64h30.057v13h28.053v-40z"/><path d="m1766.2 326.06v27h29.807v91.002h27.051v-91.002h29.807v-27z"/><path d="m1668 326.06v118h82.154v-27.002h-55.104v-20h40.074v-26h-40.074v-18h55.104v-27z"/><path d="m1561.3 326.06v118h86.162v-50.045l-11.889-9.959 11.889-9.9551v-48.043zm28.053 27h30.057v14.104l-4.6543 3.8965h-25.402zm0 44h25.402l4.6543 3.8984v16.102h-30.057z"/><path d="m1454.6 326.06v118h86.16v-118zm28.051 27h30.057v64h-30.057z"/><path d="m1347.9 326.06v118h86.162v-40h-28.053v12.998h-30.059v-64h30.059v13h28.053v-40z"/></g><path d="m1279.4 770.06a23.544 23.5 0 0 0-47.088 0 23.544 23.5 0 0 0 47.088 0z" fill="url(#radialGradient368)"/><path d="m1290.9 843.16a20.001 35.068 89.349 0 0-70.132 0.79823 20.001 35.068 89.349 0 0 70.132-0.79823z"/><path d="m1290.9 840.66a20.001 35.068 89.349 0 0-70.132 0.79823 20.001 35.068 89.349 0 0 70.132-0.79823z" fill="#1a1a1a"/><path d="m1408.1 847.06a27.051 16 0 0 0-54.102 0 27.051 16 0 0 0 54.102 0z" fill="#500"/><path d="m1481.3 847.06a27.051 16 0 0 0-54.102 0 27.051 16 0 0 0 54.102 0z" fill="#500"/><path d="m1481.3 844.56a27.051 16 0 0 0-54.102 0 27.051 16 0 0 0 54.102 0z" fill="#800000"/><path d="m1408.1 844.56a27.051 16 0 0 0-54.102 0 27.051 16 0 0 0 54.102 0z" fill="#800000"/><path d="m1249.3 792.64c4.2552 1.2225 8.7695 1.2225 13.024 0v46.863c-4.1102 2-8.9141 2-13.024 0z" fill="url(#linearGradient5)"/><path d="m1352 52.887-29.988 88.178h-82.223l65.537 49.059-27.652 81.311 74.326-51.947 74.326 51.947-27.652-81.311 65.537-49.059h-82.223z" fill="none" stroke="#fff" stroke-linecap="round" stroke-width="2"/></svg>
