<!-- Created by ERK --><svg xmlns="http://www.w3.org/2000/svg" xmlns:xlink="http://www.w3.org/1999/xlink" xml:space="preserve" width="1092.068" height="988.057" viewBox="0 0 1092.068 988.057"><defs><linearGradient id="b"><stop offset="0" style="stop-color:maroon;stop-opacity:1"/><stop offset="1" style="stop-color:#4e0000;stop-opacity:1"/></linearGradient><linearGradient id="a"><stop offset="0" style="stop-color:#000;stop-opacity:1"/><stop offset=".597" style="stop-color:#818181;stop-opacity:1"/></linearGradient><linearGradient xlink:href="#a" id="d" x1="-387.803" x2="-337.866" y1="-84.35" y2="-84.35" gradientTransform="matrix(.26508 0 0 .26458 546.034 839.057)" gradientUnits="userSpaceOnUse"/><radialGradient xlink:href="#b" id="c" cx="1784.138" cy="815.784" r="24.044" fx="1784.138" fy="815.784" gradientTransform="matrix(1 0 0 .99674 -1334.285 -43.063)" gradientUnits="userSpaceOnUse"/></defs><g style="display:inline"><path d="m1000.373 159.557 32.059 24.002h189.681l-32.06-24.002zm513.64 0-32.06 24.002h189.682l32.058-24.002zM924.23 203.559l32.062 23.996h303.389l4.304-12.655-15.154-11.341zm531.007 0-15.152 11.341 4.305 12.655h303.388l32.06-23.996zm-602.14 40.998c-28.448 0-50.4 24.983-46.686 53.134l62.258 472c3.084 23.385 23.054 40.866 46.686 40.866h239.67l-33.424 124.5 11.021 53h438.824l11.022-53-33.422-124.5h239.668c23.632 0 43.603-17.481 46.687-40.866l62.256-472c3.714-28.15-18.237-53.135-46.685-53.134l-400.801.002 7.482 22 393.319-.002c15.132 0 26.81 13.289 24.834 28.263l-62.258 472c-1.64 12.439-12.262 21.737-24.832 21.737H1520.32l39.328 146.5H1144.42l39.328-146.5H915.354c-12.57 0-23.192-9.298-24.833-21.737l-62.257-472c-1.975-14.974 9.7-28.264 24.832-28.263l393.32.002 7.48-22zm343.416 566-28.59 106.5h368.225l-28.592-106.5zm-272.342 24 29.057 25H1123.2l6.711-25zm649.988 0 6.711 25h169.973l29.055-25zm-595.365 47 29.057 25h102.732l6.711-25zm607.982 0 6.711 25h102.733l29.054-25z" style="display:inline;fill:#000;stroke-linecap:round" transform="translate(-806)"/><path d="m1352.033 6-42.193 124.063h-121.113l96.535 72.267-40.408 118.816 107.18-74.906 107.179 74.906-40.408-118.816 96.535-72.267h-121.113zm0 52.887 29.989 88.177h82.222l-65.537 49.059 27.652 81.31-74.326-51.947-74.326 51.948 27.652-81.311-65.537-49.059h82.223z" style="display:inline;fill:#000;stroke-linecap:round" transform="translate(-806)"/><path d="m1352.033 58.887-29.988 88.177h-82.223l65.537 49.06-27.652 81.31 74.326-51.948 74.326 51.948-27.652-81.311 65.537-49.059h-82.222zm-457.859 277.17v118.002h86.162v-40h-28.053v12.998h-30.058v-64h30.058v13h28.053v-40zm106.701 0v118.002h86.16V336.057Zm28.05 27h30.058v64h-30.057zm78.65-27v118.002h86.161v-50.045l-11.888-9.96 11.888-9.954v-48.043zm28.052 27h30.057v14.103l-4.655 3.897h-25.402zm0 44h25.402l4.655 3.898v16.102h-30.057zm78.648-71v118.002h82.155v-27.002h-55.104v-20h40.074v-26h-40.074v-18h55.104v-27zm98.184 0v27h29.807v91.002h27.05v-91.002h29.807v-27zm102.693 0v118.002h86.162v-40h-28.052v12.998h-30.057v-64h30.057v13h28.053v-40zm105.198 0v118.002h28.052v-47.002h12.024l19.226 47.002h28.864l-24.545-60.004 24.545-57.998h-29.489l-19.043 45h-11.582v-45zm101.19 0v118.002h28.054v-11.123l30.056-49v60.123h28.051V336.057h-28.05v10l-30.057 48.998v-58.998zm106.2 0v118.002h82.153v-27.002h-55.102v-20h40.074v-26h-40.074v-18h55.102v-27zM912.957 477.059v127.998h32.063v-12l36.066-49.455v61.455h32.059V477.059h-32.059v11.998l-36.066 49.457v-61.455Zm124.735 0v127.998h32.062v-98h60.111v-29.998Zm112.212 0v127.998h32.059V566.96h68.129v-89.902Zm32.059 29.998h36.068v29.906h-36.068zm92.676-29.998v127.998h98.183V477.059Zm32.058 29.998h34.065v68h-34.065zm90.672-29.998v127.998h98.184v-53.399l-12.656-10.6 12.656-10.601v-53.398Zm32.06 29.998h34.063v15.963l-4.82 4.037h-29.242zm0 48h29.243l4.82 4.039v15.96h-34.062zm90.67-77.998v127.998h98.186V515.43h-66.125v-38.371Zm32.061 68.373h34.065v29.625h-34.065zm82.155-68.373v127.998h34.064V477.059Zm58.609 0v127.998h98.185v-30h-63.369v-20h44.082v-28h-44.082v-20h63.37v-29.998ZM943.705 628.057l-24.486 59v59h28.052v-27h28.055v27h28.051v-118zm18.924 28h12.697v37h-28.055zm58.783-28v118h86.162v-50.043l-11.888-9.957 11.888-9.957v-48.043zm28.05 27h30.06v14.103l-4.655 3.897h-25.404zm0 44h25.405l4.655 3.898v16.102h-30.06zm74.142-71v27h29.806v91h27.051v-91h29.807v-27zm102.693 0v118h86.162v-118zm28.053 27h30.056v64h-30.056zm76.142-27v118h28.053v-70.543l27.553 39.75 27.552-39.75v70.543h28.053v-118h-28.053l-27.552 39.75-27.553-39.75zm153.729 0-24.485 59v59h28.053v-27h28.053v27h28.053v-118zm18.924 28h12.697v37h-28.053zm56.779-28v27h29.807v91h27.05v-91h29.807v-27zm102.693 0v118h82.154v-79.01h-54.101v-38.99zm28.053 64.99h26.05v26.01h-26.05Zm66.125-64.99v118h28.053v-118z" style="display:inline;fill:#000;stroke:none;stroke-linecap:round" transform="translate(-806)"/></g><g style="display:inline"><path d="m2040.541 869.557 6.711 25h102.732l29.055-25zm-607.982 0 29.056 25h102.733l6.71-25zm595.365-47 6.71 25h169.974l29.054-25zm-649.988 0 29.056 25h169.973l6.71-25zm272.341-24-28.59 106.5h368.225l-28.592-106.5zm258.725-606.998L1893.85 202.9l4.304 12.655h303.389l32.06-23.996zm-531.008 0 32.063 23.996h303.388l4.305-12.655-15.154-11.341zm589.786-44.002-32.061 24.002H2125.4l32.059-24.002zm-513.641 0 32.058 24.002h189.682l-32.06-24.002z" style="display:inline;fill:#e6cf00;fill-opacity:1;stroke:none;stroke-linecap:round" transform="translate(-1259.765)"/><path d="m1805.799 0-42.193 124.063h-121.114l96.535 72.267-40.408 118.816 107.18-74.906 107.18 74.906-40.409-118.816 96.535-72.267h-121.113zm0 52.887 29.988 88.177h82.223l-65.537 49.06 27.652 81.31-74.326-51.948-74.326 51.948 27.652-81.311-65.537-49.059h82.223z" style="display:inline;fill:#e6cf00;fill-opacity:1;stroke:none;stroke-linecap:round" transform="translate(-1259.765)"/><path d="M1586.386 976.057h438.826l11.02-53-33.422-124.5h239.669c23.632 0 43.603-17.48 46.687-40.865l62.257-472c3.713-28.152-18.238-53.135-46.686-53.135h-400.802l7.482 22h393.32c15.132 0 26.808 13.289 24.833 28.263l-62.258 472c-1.64 12.439-12.262 21.737-24.832 21.737h-268.395l39.329 146.5h-415.23l39.33-146.5h-268.395c-12.57 0-23.192-9.298-24.833-21.737l-62.257-472c-1.975-14.974 9.702-28.263 24.833-28.263h393.32l7.481-22h-400.801c-28.448 0-50.4 24.983-46.686 53.134l62.257 472c3.084 23.385 23.055 40.866 46.686 40.866h239.67l-33.423 124.5z" style="display:inline;fill:#e6cf00;fill-opacity:1;stroke:none;stroke-width:1;stroke-linecap:round;stroke-dasharray:none" transform="translate(-1259.765)"/></g><g style="display:inline"><path d="M1279.397 770.057a23.544 23.5 0 0 0-47.088 0 23.544 23.5 0 0 0 47.088 0" style="display:inline;fill:#666;stroke:none;stroke-width:1;stroke-linecap:round;stroke-dasharray:none" transform="translate(-806)"/><path d="M1290.919 849.158a20.001 35.068 89.35 0 0-70.132.798 20.001 35.068 89.35 0 0 70.132-.798m0-2.5a20.001 35.068 89.35 0 0-70.132.798 20.001 35.068 89.35 0 0 70.132-.798" style="display:inline;fill:#666;fill-opacity:1;stroke:none;stroke-width:1;stroke-linecap:round;stroke-dasharray:none" transform="translate(-806)"/><path d="M1408.14 853.057a27.05 16 0 0 0-54.103 0 27.05 16 0 0 0 54.102 0m73.138 0a27.05 16 0 0 0-54.102 0 27.05 16 0 0 0 54.102 0" style="display:inline;fill:#666;stroke:none;stroke-width:1;stroke-linecap:round;stroke-dasharray:none" transform="translate(-806)"/><path d="M1481.277 850.557a27.05 16 0 0 0-54.102 0 27.05 16 0 0 0 54.102 0m-73.137 0a27.05 16 0 0 0-54.103 0 27.05 16 0 0 0 54.102 0" style="display:inline;fill:#666;stroke:none;stroke-width:1;stroke-linecap:round;stroke-dasharray:none" transform="translate(-806)"/><path d="M1249.34 798.64a23.6 23.6 0 0 0 13.025 0v46.863c-4.11 2-8.914 2-13.025 0z" style="display:inline;fill:#666;stroke:none;stroke-width:1;stroke-linecap:round;stroke-dasharray:none;stroke-opacity:1" transform="translate(-806)"/></g><g style="display:inline;fill:#d40000"><path d="m1805.799 52.887-29.988 88.177h-82.223l65.537 49.06-27.652 81.31 74.326-51.948 74.326 51.948-27.652-81.311 65.537-49.059h-82.223z" style="display:inline;fill:#d40000;stroke:none;stroke-linecap:round" transform="translate(-1259.765)"/></g><g style="display:inline;fill:#e6cf00;fill-opacity:1"><path d="M2210.56 618.057v118h28.053v-118zm-94.177 0v118h82.154v-79.01h-54.101v-38.99zm28.053 64.99h26.05v26.01h-26.05zm-130.746-64.99v27h29.806v91h27.05v-91h29.808v-27zm-75.704 0-24.484 59v59h28.053v-27h28.052v27h28.053v-118zm18.924 28h12.697v37h-28.052zm-172.652-28v118h28.053v-70.543l27.552 39.75 27.553-39.75v70.543h28.053v-118h-28.053l-27.553 39.75-27.552-39.75zm-104.195 0v118h86.162v-118zm28.052 27h30.057v64h-30.057zm-130.745-27v27h29.806v91h27.05v-91h29.807v-27zm-102.192 0v118h86.162v-50.043l-11.889-9.957 11.889-9.957v-48.043zm28.05 27h30.06v14.103l-4.655 3.897h-25.404zm0 44h25.405l4.654 3.898v16.102h-30.059zm-105.758-71-24.486 59v59h28.053v-27h28.055v27h28.05v-118zm18.925 28h12.697v37h-28.055z" style="display:inline;fill:#e6cf00;stroke:none;stroke-linecap:round;fill-opacity:1" transform="translate(-1259.765)"/></g><g style="display:inline"><path d="M2146.69 467.059v127.998h98.185v-30h-63.37v-20h44.083v-28h-44.082v-20h63.369v-29.998Zm-58.61 0v127.998h34.065V467.059Zm-114.215 0v127.998h98.186V505.43h-66.125v-38.371Zm32.06 68.373h34.065v29.625h-34.064zm-154.79-68.373v127.998h98.183v-53.399l-12.656-10.6 12.656-10.601v-53.398Zm32.06 29.998h34.063v15.963l-4.82 4.037h-29.243zm0 48h29.243l4.82 4.039v15.96h-34.063zm-154.791-77.998v127.998h98.184V467.059Zm32.059 29.998h34.064v68h-34.064zm-156.793-29.998v127.998h32.059V556.96h68.129v-89.902Zm32.059 29.998h36.068v29.906h-36.068zm-144.272-29.998v127.998h32.063v-98h60.11v-29.998Zm-124.734 0v127.998h32.062v-12l36.067-49.455v61.455h32.058V467.059h-32.058v11.998l-36.067 49.457v-61.455Z" style="display:inline;fill:#e6cf00;fill-opacity:1;stroke:none;stroke-linecap:round" transform="translate(-1259.765)"/></g><g style="display:inline;fill:#670000;fill-opacity:1"><path d="M2181.506 326.057v118.002h82.152v-27.002h-55.101v-20h40.074v-26h-40.074v-18h55.101v-27zm-106.201 0v118.002h28.054v-11.123l30.057-49v60.123h28.05V326.057h-28.05v10l-30.057 48.998v-58.998zm-101.19 0v118.002h28.053v-47.002h12.023l19.227 47.002h28.863l-24.545-60.004 24.545-57.998h-29.488l-19.043 45h-11.582v-45zm-105.197 0v118.002h86.162v-40h-28.053v12.998h-30.056v-64h30.056v13h28.053v-40zm-102.693 0v27h29.806v91.002h27.051v-91.002h29.807v-27zm-98.184 0v118.002h82.154v-27.002h-55.103v-20h40.074v-26h-40.074v-18h55.103v-27zm-106.701 0v118.002h86.162v-50.045l-11.889-9.96 11.889-9.954v-48.043zm28.053 27h30.056v14.103l-4.654 3.897h-25.402zm0 44h25.402l4.654 3.898v16.102h-30.056zm-134.753-71v118.002h86.16V326.057Zm28.051 27h30.057v64h-30.057zm-134.751-27v118.002h86.162v-40h-28.053v12.998h-30.059v-64h30.059v13h28.053v-40z" style="display:inline;fill:#670000;fill-opacity:1;stroke:none;stroke-linecap:round" transform="translate(-1259.765)"/></g><path d="M473.398 770.057a23.544 23.5 0 0 0-47.089 0 23.544 23.5 0 0 0 47.089 0" style="display:inline;fill:url(#c);stroke:none;stroke-width:1;stroke-linecap:round;stroke-dasharray:none"/><path d="M484.92 843.158a20.001 35.068 89.35 0 0-70.133.798 20.001 35.068 89.35 0 0 70.132-.798" style="display:inline;fill:#000;fill-opacity:1;stroke:none;stroke-width:1;stroke-linecap:round;stroke-dasharray:none"/><path d="M484.92 840.658a20.001 35.068 89.35 0 0-70.133.798 20.001 35.068 89.35 0 0 70.132-.798" style="display:inline;fill:#1a1a1a;fill-opacity:1;stroke:none;stroke-width:1;stroke-linecap:round;stroke-dasharray:none"/><path d="M602.14 847.057a27.051 16 0 0 0-54.102 0 27.051 16 0 0 0 54.102 0m73.137 0a27.051 16 0 0 0-54.102 0 27.051 16 0 0 0 54.102 0" style="display:inline;fill:#500;stroke:none;stroke-width:1;stroke-linecap:round;stroke-dasharray:none"/><path d="M675.277 844.557a27.051 16 0 0 0-54.102 0 27.051 16 0 0 0 54.102 0m-73.137 0a27.051 16 0 0 0-54.102 0 27.051 16 0 0 0 54.102 0" style="display:inline;fill:#670000;stroke:none;stroke-width:1;stroke-linecap:round;stroke-dasharray:none;fill-opacity:1"/><path d="M443.34 792.64a23.6 23.6 0 0 0 13.025 0v46.863c-4.11 2-8.914 2-13.024 0z" style="display:inline;fill:url(#d);stroke:none;stroke-width:1;stroke-linecap:round;stroke-dasharray:none;stroke-opacity:1"/><path d="m546.034 52.887-29.989 88.177h-82.222l65.537 49.059-27.652 81.31 74.326-51.947 74.326 51.948-27.652-81.311 65.537-49.059h-82.223z" style="display:inline;fill:none;stroke:#fff;stroke-width:2;stroke-linecap:round;stroke-dasharray:none;stroke-opacity:1"/></svg>