<!-- Created by ERK --><svg xmlns="http://www.w3.org/2000/svg" width="578.104" height="161.019" viewBox="0 0 152.957 42.603"><defs><clipPath id="a"><path d="M0 595.28h841.89V0H0Z"/></clipPath></defs><g style="fill:#000"><g clip-path="url(#a)" style="fill:#fff" transform="matrix(.33073 0 0 -.33073 -74.493 123.24)"><path fill="#0b5ed7" d="M306.448 371.75h-12.854v-16.736h-13.38v16.736h-12.852v-42.107h12.853v16.563h13.38v-16.563h12.853zm44.71-33.646v33.646h-12.853v-42.107h23.24l1.934 8.46zm-22.355 33.646H315.95v-42.107h12.853zm52.106 0h-12.847v-42.107h12.847zm63.368-10.746c0 2.291 2.292 3.35 5.984 3.35 4.051 0 8.455-.885 11.447-2.124l-1.053 9.167c-3.351.706-6.343 1.233-11.794 1.233-10.388 0-17.43-4.099-17.43-12.686 0-14.797 20.075-11.805 20.075-18.675 0-2.639-1.945-4.045-6.696-4.045-4.219 0-10.741 1.406-14.613 3.345l1.413-9.694c3.871-1.412 9.149-2.112 13.38-2.112 10.734 0 19.536 3.525 19.536 14.098 0 14.086-20.249 11.447-20.249 18.143m-36.255-21.32c11.961 0 19.537 6.169 19.537 16.916 0 11.8-8.096 16.03-21.302 16.03-5.105 0-11.268-.353-15.666-.88v-42.107h12.853v10.04zm6.863 16.736c0-5.457-2.639-9.161-9.335-9.161h-2.106v17.4a36 36 0 0 0 2.106.043c6.337 0 9.335-2.992 9.335-8.282m-172.164-16.737c11.967 0 19.537 6.17 19.537 16.917 0 11.8-8.096 16.03-21.297 16.03-5.11 0-11.267-.353-15.671-.88v-42.107h12.853v10.04zm6.869 16.737c0-5.457-2.645-9.161-9.335-9.161h-2.112v17.4c.748.043 1.454.043 2.112.043 6.337 0 9.335-2.992 9.335-8.282" style="fill:#fff;stroke-width:.598375"/></g><path d="M163.684 58.769v6.292h-.834l-.164-.845h-.059a2.06 2.06 0 0 1-.774.716q-.458.246-1.116.247a2 2 0 0 1-.786-.141 2 2 0 0 1-.564-.388h-.047q.024.212.035.564.024.363.024.833v1.832h-1.033v-9.11h1.033v4.062q0 1.49 1.409 1.49 1.044 0 1.444-.586.399-.588.399-1.691v-3.275z" aria-label="µ" style="font-size:11.7399px;line-height:125%;font-family:&quot;Century Gothic&quot;;letter-spacing:0;word-spacing:0;display:inline;stroke-width:.12229;fill:#fff" transform="translate(-10.727 -41.087)"/><g aria-label="VG 5000" style="font-size:36.3722px;font-family:&quot;Century Gothic&quot;;-inkscape-font-specification:&quot;Century Gothic&quot;;stroke-width:1.13663;stroke-opacity:0;fill:#fff"><path d="M10.727 56.908h2.842L22.218 77.1l8.809-20.193h2.841L22.502 83.033h-.568zm52.729 4.386-2.024 1.918q-2.185-2.148-4.795-3.25-2.593-1.118-5.062-1.118-3.072 0-5.86 1.51-2.771 1.509-4.299 4.102-1.527 2.575-1.527 5.452 0 2.948 1.58 5.612 1.581 2.646 4.37 4.174 2.788 1.51 6.109 1.51 4.032 0 6.82-2.274t3.303-5.896h-8.33v-2.522h11.26q-.035 6.056-3.605 9.626-3.552 3.552-9.519 3.552-7.246 0-11.473-4.938-3.25-3.8-3.25-8.79 0-3.713 1.865-6.91t5.115-4.99q3.25-1.811 7.352-1.811 3.321 0 6.252 1.207 2.93 1.19 5.718 3.836m31.294-4.386v2.486h-9.307l-1.296 7.122q1.705-.497 3.072-.497 3.57 0 5.879 2.397 2.326 2.38 2.326 6.11 0 2.575-1.19 4.724t-3.232 3.303q-2.025 1.137-4.689 1.137-3.179 0-5.363-1.936-2.185-1.954-2.61-5.044h2.68q.303 1.51 1.013 2.45.728.942 1.918 1.528 1.208.569 2.522.569 2.575 0 4.422-1.954t1.847-4.884q0-2.646-1.669-4.298t-4.458-1.652q-2.308 0-5.594 1.403l2.415-12.964Zm3.427 13.071q0-5.168 1.101-7.992 1.119-2.824 3.144-4.28 2.024-1.456 4.528-1.456 2.54 0 4.6 1.474 2.06 1.456 3.25 4.386 1.208 2.93 1.208 7.868 0 4.92-1.19 7.832-1.172 2.913-3.25 4.405-2.078 1.474-4.618 1.474-2.504 0-4.51-1.439-2.008-1.438-3.144-4.28-1.119-2.86-1.119-7.992m2.469.053q0 4.422.781 6.696.8 2.255 2.344 3.427 1.545 1.173 3.268 1.173 1.74 0 3.25-1.137 1.51-1.154 2.291-3.445.977-2.789.977-6.714 0-3.942-.87-6.447-.87-2.521-2.416-3.676-1.527-1.172-3.232-1.172-1.74 0-3.268 1.172-1.527 1.155-2.326 3.428-.8 2.255-.8 6.695m17.689-.053q0-5.168 1.102-7.992 1.118-2.824 3.143-4.28t4.529-1.456q2.54 0 4.6 1.474 2.06 1.456 3.25 4.386 1.207 2.93 1.207 7.868 0 4.92-1.19 7.832-1.172 2.913-3.25 4.405-2.078 1.474-4.617 1.474-2.504 0-4.511-1.439-2.007-1.438-3.144-4.28-1.119-2.86-1.119-7.992m2.469.053q0 4.422.781 6.696.8 2.255 2.345 3.427t3.268 1.173q1.74 0 3.25-1.137 1.51-1.154 2.29-3.445.977-2.789.977-6.714 0-3.942-.87-6.447-.87-2.521-2.415-3.676-1.527-1.172-3.232-1.172-1.74 0-3.268 1.172-1.528 1.155-2.327 3.428-.799 2.255-.799 6.695m17.689-.053q0-5.168 1.101-7.992 1.119-2.824 3.143-4.28t4.53-1.456q2.539 0 4.599 1.474 2.06 1.456 3.25 4.386 1.208 2.93 1.208 7.868 0 4.92-1.19 7.832-1.172 2.913-3.25 4.405-2.078 1.474-4.618 1.474-2.504 0-4.51-1.439-2.008-1.438-3.144-4.28-1.12-2.86-1.12-7.992m2.468.053q0 4.422.782 6.696.8 2.255 2.344 3.427 1.545 1.173 3.268 1.173 1.74 0 3.25-1.137 1.51-1.154 2.291-3.445.977-2.789.977-6.714 0-3.942-.87-6.447-.87-2.521-2.416-3.676-1.527-1.172-3.232-1.172-1.74 0-3.268 1.172-1.527 1.155-2.326 3.428-.8 2.255-.8 6.695" style="fill:#fff" transform="translate(-10.727 -41.087)"/></g></g></svg>