<!-- Created by ERK --><svg xmlns="http://www.w3.org/2000/svg" width="317.785" height="97.477"><g transform="translate(-190.75 -192.904)"><path d="M235.58 262.648h-12.578l-10.274-57.266h11.758l7.266 43.32 23.71-43.32h11.68z" style="font-style:oblique;font-weight:700;font-size:80px;line-height:.01%;font-family:sans-serif;-inkscape-font-specification:&quot;Arial Bold Oblique&quot;;letter-spacing:0;word-spacing:0;fill:#fff;fill-opacity:1;stroke:none"/><path d="M268.392 219.699h8.409l-1.582 7.617h-8.409zm-2.46 11.836h8.408l-6.504 31.113h-8.408zm16.201 0h7.851l-1.26 6.035q4.395-6.768 9.522-6.768 1.816 0 3.896.908l-3.222 6.885q-1.143-.41-2.432-.41-2.168 0-4.424 1.64-2.226 1.641-3.486 4.395-1.26 2.725-2.49 8.672l-2.051 9.756h-8.408zm38.407 19.395 8.175 1.317q-2.022 5.45-5.977 8.292t-9.17 2.841q-5.947 0-9.433-3.545-3.487-3.545-3.487-9.755 0-5.069 2.11-9.58t6.357-7.09q4.248-2.608 9.317-2.608 5.507 0 8.789 2.871 3.28 2.871 3.691 7.559l-7.998.85q-.293-2.608-1.611-3.838-1.29-1.23-3.399-1.23-2.431 0-4.54 1.816t-3.253 5.449q-1.113 3.603-1.113 6.767 0 2.754 1.348 4.248 1.347 1.495 3.369 1.495 2.021 0 3.896-1.465t2.93-4.395m13.506-1.201q0-8.643 4.863-13.77 4.893-5.156 12.832-5.156 6.885 0 10.752 3.809 3.867 3.78 3.867 10.195 0 7.559-4.834 13.066t-12.949 5.508q-4.395 0-7.793-1.758-3.398-1.757-5.068-4.98t-1.67-6.914m23.965-6.006q0-2.988-1.758-4.775-1.729-1.817-4.483-1.817-2.724 0-4.834 1.7-2.109 1.67-3.28 4.892-1.173 3.193-1.173 5.889 0 3.34 1.817 5.303 1.816 1.962 4.57 1.962 3.457 0 5.8-2.959 3.34-4.189 3.34-10.195m18.077-12.187h7.969l-.82 4.043q2.987-2.579 5.566-3.663 2.607-1.113 5.478-1.113 3.838 0 6.035 2.197 2.227 2.198 2.227 5.83 0 1.641-.967 6.211l-3.662 17.608h-8.408l3.691-17.666q.82-3.955.82-4.717 0-1.611-.966-2.52-.938-.937-2.637-.937-1.846 0-4.102 1.553-2.255 1.553-3.545 4.101-.937 1.817-2.109 7.412l-2.666 12.774h-8.408z" style="font-style:normal;font-weight:700;line-height:.01%;font-family:sans-serif;-inkscape-font-specification:&quot;Arial Bold Oblique&quot;;letter-spacing:0;word-spacing:0;fill:#fff;fill-opacity:1;stroke:none"/><path d="m407.777 247.687 10.742-1.29q.664 4.571 2.383 6.329 1.758 1.758 4.649 1.758 3.828 0 6.328-2.578 2.539-2.578 2.539-6.602 0-3.516-2.031-5.547-2.032-2.07-5.47-2.07-.859 0-1.796.156l1.953-9.336q.586.078 1.133.078 4.492 0 6.836-2.265 2.344-2.305 2.344-6.211 0-2.774-1.602-4.375-1.562-1.602-4.14-1.602-2.422 0-4.337 1.797-1.914 1.758-3.046 6.055l-10.235-2.031q1.953-6.329 5.43-9.727 5.273-5.078 12.969-5.078 7.89 0 11.992 4.414 4.101 4.375 4.101 10.508 0 4.453-2.617 8.047-2.617 3.593-7.187 5.273 3.633 1.914 5.351 4.961 1.719 3.047 1.719 6.367 0 6.328-4.492 11.64-6.133 7.266-15.82 7.266-7.266 0-11.993-4.14-4.687-4.18-5.703-11.797m57.563-24.453-10.977-1.64q1.328-7.97 6.172-12.188 4.883-4.258 12.188-4.258 8.007 0 12.578 4.336t4.57 11.015q0 3.399-1.406 6.836-1.407 3.399-4.61 7.149-2.304 2.656-7.539 7.539-5.234 4.844-6.953 6.64-1.68 1.758-3.242 3.75h19.844l-2.11 10.235h-34.804q.547-4.219 2.46-8.008 1.954-3.828 4.844-7.11 2.891-3.28 10.586-10.585 5.782-5.547 7.305-7.227 2.734-3.047 3.75-5.273 1.016-2.227 1.016-4.024 0-2.89-1.72-4.687-1.679-1.797-4.296-1.797-2.656 0-4.648 2.031-1.993 1.992-3.008 7.266" style="font-style:oblique;font-weight:700;font-size:80px;line-height:.01%;font-family:sans-serif;-inkscape-font-specification:&quot;Arial Bold Oblique&quot;;letter-spacing:0;word-spacing:0;fill:#fff;fill-opacity:1;stroke:none"/><rect width="294.344" height="9.675" x="243.173" y="273.889" rx="0" ry="0" style="fill:#fff;fill-opacity:1;fill-rule:nonzero;stroke:none" transform="scale(1 .98926)skewX(-8.314)"/></g></svg>