<?xml version="1.0" encoding="UTF-8"?>
<!-- Created by ERK -->
<svg width="1390.8" height="392.43" version="1.1" viewBox="0 0 1390.8 392.43" xml:space="preserve" xmlns="http://www.w3.org/2000/svg"><path d="m1239.6 241.24v151.18h60.471v-120.95h30.24v120.95h60.471v-120.95h-30.23v-30.236z"/><path d="m1088.6 241.24v30.236h-30.301v120.95h120.95v-30.236h30.228v-120.95zm30.18 30.236h30.23v90.709h-30.23z"/><path d="m876.86 241.24v151.18h60.471v-60.473h30.23v60.473h60.478v-60.473h-30.238v-30.236h30.238v-60.473zm60.471 30.236h30.23v30.236h-30.23z"/><path d="m725.67 241.24v30.084h30.236v121.1h60.469v-121.1h30.24v-30.084z"/><path d="m574.49 241.24v30.236h-30.234v120.95h60.471v-60.473h30.238v60.473h60.471v-151.18zm30.236 30.236h30.238v30.236h-30.238z"/><path d="m362.84 241.24v60.131h30.236v30.236h-30.236v60.814h60.654v-60.473h30.236v60.473h60.291v-59.373h-30.238v-30.236h30.238v-61.572h-60.291v60.473h-30.236v-60.473z"/><path d="m211.72 241.24v30.236h-30.301v120.95h120.95v-30.236h30.236v-120.95zm30.172 30.236h30.236v90.709h-30.236z"/><path d="m0 241.24v90.709h30.236v30.236h30.236v30.236h30.236v-30.236h30.236v-30.236h30.236v-90.709h-60.473v90.709h-30.236v-90.709z"/><path d="m665.2 119.56v60.473h60.473v-60.473z" fill="#00e756"/><path d="m755.91 90.709v60.473h60.469v-30.236h30.24v-30.236z" fill="#29adff"/><path d="m544.25 90.709v30.236h30.234v30.236h60.475v-60.473z" fill="#ffec27"/><path d="m665.2 28.848v60.473h60.473v-60.473z"/><path d="m755.91 0v60.473h60.469v-28.848h30.24v-31.625z" fill="#ff77a8"/><path d="m544.25 0v31.625h30.234v28.848h60.475v-60.473z" fill="#ffa300"/></svg>
