<?xml version="1.0" encoding="UTF-8"?>
<!-- Created by ERK -->
<svg width="770.61" height="159.74" version="1.1" viewBox="0 0 338.05 70.072" xmlns="http://www.w3.org/2000/svg" xmlns:xlink="http://www.w3.org/1999/xlink">
 <linearGradient id="a">
  <stop stop-color="#fff" offset=".011"/>
  <stop stop-color="#fffffe" offset=".32"/>
  <stop stop-color="#fdfdf9" offset=".431"/>
  <stop stop-color="#fafbf1" offset=".51"/>
  <stop stop-color="#f5f8e5" offset=".574"/>
  <stop stop-color="#eff3d4" offset=".629"/>
  <stop stop-color="#e8eebe" offset=".678"/>
  <stop stop-color="#dfe7a2" offset=".722"/>
  <stop stop-color="#d5e080" offset=".762"/>
  <stop stop-color="#c9d756" offset=".798"/>
  <stop stop-color="#bacf20" offset=".832"/>
  <stop stop-color="#97c129" offset=".891"/>
  <stop stop-color="#6bb42f" offset=".962"/>
  <stop stop-color="#58ae31" offset="1"/>
 </linearGradient>
 <radialGradient id="c" cx="268.9" cy="327.51" r="96.352" gradientTransform="matrix(1.1328 0 0 -1.083 18.92 500.02)" gradientUnits="userSpaceOnUse" xlink:href="#a"/>
 <radialGradient id="d" cx="-909.59" cy="327.51" r="96.352" gradientTransform="matrix(-1.1328 0 0 -1.083 -564.61 500.02)" gradientUnits="userSpaceOnUse" xlink:href="#a"/>
 <linearGradient id="b">
  <stop stop-color="#fff" offset=".011"/>
  <stop stop-color="#fffffe" offset=".326"/>
  <stop stop-color="#fdfdf9" offset=".44"/>
  <stop stop-color="#fafbf1" offset=".52"/>
  <stop stop-color="#f5f8e5" offset=".586"/>
  <stop stop-color="#eff3d4" offset=".642"/>
  <stop stop-color="#e8eebe" offset=".692"/>
  <stop stop-color="#dfe7a2" offset=".737"/>
  <stop stop-color="#d5e080" offset=".778"/>
  <stop stop-color="#c9d756" offset=".815"/>
  <stop stop-color="#bacf20" offset=".848"/>
  <stop stop-color="#b4cc22" offset=".855"/>
  <stop stop-color="#91bf2a" offset=".896"/>
  <stop stop-color="#74b62e" offset=".935"/>
  <stop stop-color="#5fb031" offset=".971"/>
  <stop stop-color="#58ae31" offset="1"/>
 </linearGradient>
 <radialGradient id="e" cx="-485.36" cy="262.33" r="86.042" gradientTransform="matrix(-.9659 -.7017 -.8867 1.1157 151.95 -433.33)" gradientUnits="userSpaceOnUse" xlink:href="#b"/>
 <radialGradient id="f" cx="203.37" cy="695.37" r="86.041" gradientTransform="matrix(.9659 -.7017 .8867 1.1157 -411.8 -433.33)" gradientUnits="userSpaceOnUse" xlink:href="#b"/>
 <radialGradient id="g" cx="343.53" cy="359.51" r="250.83" gradientTransform="matrix(1.0751 0 0 -1.0785 11.64 499.37)" gradientUnits="userSpaceOnUse">
  <stop stop-color="#fff" offset=".028"/>
  <stop stop-color="#e3e2e3" offset=".105"/>
  <stop stop-color="#b3b1b2" offset=".259"/>
  <stop stop-color="#969696" offset=".377"/>
  <stop stop-color="#8c8c8d" offset=".444"/>
  <stop stop-color="#919191" offset=".518"/>
  <stop stop-color="#9f9f9f" offset=".606"/>
  <stop stop-color="#b8b7b7" offset=".7"/>
  <stop stop-color="#dcdcdc" offset=".798"/>
  <stop stop-color="#e1e1e1" offset=".809"/>
 </radialGradient>
 <g transform="translate(.87766 .87721)" stroke-width="3.094">
  <g>
   <path d="m84.047 14.225 14.677 19.895-16.1 21.897h5.5066l13.36-18.13 13.308 18.13h5.5075l-16.048-21.897 14.65-19.895h-5.4792l-11.939 16.232-11.936-16.232z"/>
   <path d="m122.6 14.197v18.024h-5.6386c-0.764 0.949-2.4242 3.2417-3.0562 4.1897h8.7222v19.579h16.944c9.222 0 14.94-4.6639 14.94-12.2-0.026-3.268-1.2899-6.0609-3.6619-8.0899a10.645 10.645 0 0 0-2.74-1.7402c3.03-1.66 5.0054-4.7425 5.0054-8.3795 0-2.66-0.97493-11.383-13.57-11.383zm4.691 4.3757h12.28c3.32 0 8.8798 0.84316 8.8798 6.6402 0 4.4-3.2408 7.0103-8.8798 7.0103h-12.28zm-0.0266 17.868h12.28c4.69 0 10.224 1.2636 10.224 7.2716 0 6.904-6.4031 7.9322-10.224 7.9322v-8.57e-4h-12.28z"/>
   <path d="m176.54 13.25c-11.78 4.43e-4 -19.974 8.9852-19.974 21.845 0 12.86 8.1955 21.845 19.974 21.845 11.7 0 19.895-8.9859 19.895-21.845 0.027-12.86-8.1944-21.844-19.894-21.845zm0 4.4271c8.933 0 15.152 7.1668 15.152 17.418 0.026 10.25-6.2182 17.417-15.151 17.418-8.96 0-15.232-7.1678-15.232-17.418s6.2722-17.418 15.231-17.418z"/>
   <path d="m193.56 14.198 14.651 19.895-16.049 21.899h5.5083l13.307-18.131 13.36 18.131h5.4886l-16.081-21.871 14.677-19.895h-5.5075l-11.937 16.232-11.937-16.259z"/>
  </g>
  <path d="m321.58 53.303c-2.82 0-5.192-0.922-6.983-2.74-4.006-3.98-4.56-11.384-4.56-15.442 0-5.455 1.108-18.156 11.543-18.156s11.594 12.701 11.594 18.156c-0.026 5.481-1.16 18.182-11.594 18.182zm0-40.08c-9.935 0-15.627 7.985-15.627 21.924 0 13.914 5.692 21.898 15.627 21.898 5.639 0 9.855-2.45 12.516-7.326 2.556-4.637 3.083-10.487 3.083-14.598 0-6.561-1.528-21.898-15.6-21.898m-33.545 40.08c-5.902 0-10.54-4.743-10.54-10.804 0-6.298 4.533-11.04 10.54-11.04 2.741 0 5.297 1.053 7.194 2.977 2.082 2.082 3.268 5.033 3.268 8.063 0 6.061-4.611 10.804-10.461 10.804zm0-25.587c-4.505 0-8.669 2.214-11.199 5.85 0.501-7.931 3.057-16.575 11.674-16.575 4.822 0 8.485 3.136 9.276 8.011l0.131 0.764h4.006l-0.08-1.001c-0.79-7.088-5.902-11.515-13.36-11.515-13.07 0-15.836 12.99-15.836 23.9 0 13.017 5.322 19.921 15.362 19.921 8.275 0 14.493-6.271 14.493-14.572 0.027-8.564-6.06-14.783-14.466-14.783m-25.245 5.903c3.531-1.634 5.771-5.138 5.771-9.302 0-2.925-0.975-5.402-2.872-7.326-2.424-2.424-6.456-3.82-10.936-3.82-7.404 0-12.517 4.4-13.307 11.515l-0.106 1.001h4.006l0.132-0.764c0.79-4.875 4.453-8.01 9.275-8.01 4.849 0 9.803 2.53 9.803 7.404 0 2.082-0.659 3.768-1.95 4.98-2.056 2.003-5.903 2.504-7.88 2.504-0.71 0-1.765 0.026-2.819 0.026a98.817 98.817 0 0 0 0 3.953h2.82c3.742 0.026 6.667 0.817 8.485 2.53 1.502 1.396 2.266 3.372 2.266 5.85 0 5.981-5.402 9.09-10.725 9.09-3.478 0-6.324-1.054-8.248-3.056-1.897-1.977-2.846-4.796-2.688-8.195l0.027-0.949h-4.032l-0.026 0.87c-0.211 4.48 1.001 8.247 3.504 10.856 2.636 2.74 6.615 4.19 11.49 4.19 8.959 0 14.756-5.033 14.756-12.86-0.053-4.927-2.609-8.827-6.746-10.487"/>
 </g>
 <g transform="translate(.000304 -.00015123)" stroke-width="3.094">
  <g fill="#95c343">
   <path d="m84.047 14.225 14.677 19.895-16.1 21.897h5.5066l13.36-18.13 13.308 18.13h5.5075l-16.048-21.897 14.65-19.895h-5.4792l-11.939 16.232-11.936-16.232z"/>
   <path d="m122.6 14.197v18.024h-5.6386c-0.764 0.949-2.4242 3.2417-3.0562 4.1897h8.7222v19.579h16.944c9.222 0 14.94-4.6639 14.94-12.2-0.026-3.268-1.2899-6.0609-3.6619-8.0899a10.645 10.645 0 0 0-2.74-1.7402c3.03-1.66 5.0054-4.7425 5.0054-8.3795 0-2.66-0.97493-11.383-13.57-11.383zm4.691 4.3757h12.28c3.32 0 8.8798 0.84316 8.8798 6.6402 0 4.4-3.2408 7.0103-8.8798 7.0103h-12.28zm-0.0266 17.868h12.28c4.69 0 10.224 1.2636 10.224 7.2716 0 6.904-6.4031 7.9322-10.224 7.9322v-8.57e-4h-12.28z"/>
   <path d="m176.54 13.25c-11.78 4.43e-4 -19.974 8.9852-19.974 21.845 0 12.86 8.1955 21.845 19.974 21.845 11.7 0 19.895-8.9859 19.895-21.845 0.027-12.86-8.1944-21.844-19.894-21.845zm0 4.4271c8.933 0 15.152 7.1668 15.152 17.418 0.026 10.25-6.2182 17.417-15.151 17.418-8.96 0-15.232-7.1678-15.232-17.418s6.2722-17.418 15.231-17.418z"/>
   <path d="m193.56 14.198 14.651 19.895-16.049 21.899h5.5083l13.307-18.131 13.36 18.131h5.4886l-16.081-21.871 14.677-19.895h-5.5075l-11.937 16.232-11.937-16.259z"/>
  </g>
  <path d="m321.58 53.303c-2.82 0-5.192-0.922-6.983-2.74-4.006-3.98-4.56-11.384-4.56-15.442 0-5.455 1.108-18.156 11.543-18.156s11.594 12.701 11.594 18.156c-0.026 5.481-1.16 18.182-11.594 18.182zm0-40.08c-9.935 0-15.627 7.985-15.627 21.924 0 13.914 5.692 21.898 15.627 21.898 5.639 0 9.855-2.45 12.516-7.326 2.556-4.637 3.083-10.487 3.083-14.598 0-6.561-1.528-21.898-15.6-21.898m-33.545 40.08c-5.902 0-10.54-4.743-10.54-10.804 0-6.298 4.533-11.04 10.54-11.04 2.741 0 5.297 1.053 7.194 2.977 2.082 2.082 3.268 5.033 3.268 8.063 0 6.061-4.611 10.804-10.461 10.804zm0-25.587c-4.505 0-8.669 2.214-11.199 5.85 0.501-7.931 3.057-16.575 11.674-16.575 4.822 0 8.485 3.136 9.276 8.011l0.131 0.764h4.006l-0.08-1.001c-0.79-7.088-5.902-11.515-13.36-11.515-13.07 0-15.836 12.99-15.836 23.9 0 13.017 5.322 19.921 15.362 19.921 8.275 0 14.493-6.271 14.493-14.572 0.027-8.564-6.06-14.783-14.466-14.783m-25.245 5.903c3.531-1.634 5.771-5.138 5.771-9.302 0-2.925-0.975-5.402-2.872-7.326-2.424-2.424-6.456-3.82-10.936-3.82-7.404 0-12.517 4.4-13.307 11.515l-0.106 1.001h4.006l0.132-0.764c0.79-4.875 4.453-8.01 9.275-8.01 4.849 0 9.803 2.53 9.803 7.404 0 2.082-0.659 3.768-1.95 4.98-2.056 2.003-5.903 2.504-7.88 2.504-0.71 0-1.765 0.026-2.819 0.026a98.817 98.817 0 0 0 0 3.953h2.82c3.742 0.026 6.667 0.817 8.485 2.53 1.502 1.396 2.266 3.372 2.266 5.85 0 5.981-5.402 9.09-10.725 9.09-3.478 0-6.324-1.054-8.248-3.056-1.897-1.977-2.846-4.796-2.688-8.195l0.027-0.949h-4.032l-0.026 0.87c-0.211 4.48 1.001 8.247 3.504 10.856 2.636 2.74 6.615 4.19 11.49 4.19 8.959 0 14.756-5.033 14.756-12.86-0.053-4.927-2.609-8.827-6.746-10.487" fill="#fff"/>
 </g>
 <g transform="translate(.000304 -.00015123)" stroke-width="4.357">
  <path transform="matrix(.22952 0 0 .22952 -55.613 0)" d="m300.3 32.9c25.4-7.6 62.1 2.1 95.2 24.2l0.4 153.5c-12.1-2.4-24.8-7.5-36.6-14.2-12.1-6.9-24.1-15.9-36.6-26.5l31.8-81.7c-16.5-10.7-80.9-28.9-72.6-38.2 8.4-9.2 18.4-17.1 18.4-17.1z" fill="url(#c)"/>
  <path transform="matrix(.22952 0 0 .22952 -55.613 0)" d="m489 32.9c-25.4-7.6-62.1 2.1-95.2 24.2l-0.4 153.5c12.1-2.4 24.8-7.5 36.6-14.2 12.1-6.9 24.1-15.9 36.6-26.5l-31.8-81.7c16.5-10.7 80.9-28.9 72.6-38.2-8.4-9.2-18.4-17.1-18.4-17.1z" fill="url(#d)"/>
  <path transform="matrix(.22952 0 0 .22952 -55.613 0)" d="m300.2 272.4 86.4-98.1-32.1-86c-13.5 11.2-26.8 24.8-39.2 40.4-30.4 38.3-56.9 92.2-47.7 108.1s32.6 35.6 32.6 35.6z" fill="url(#e)"/>
  <path transform="matrix(.22952 0 0 .22952 -55.613 0)" d="m489.2 272.3-86.4-98.1 32.1-86c13.5 11.2 26.8 24.8 39.2 40.4 30.4 38.3 56.9 92.2 47.7 108.1s-32.6 35.6-32.6 35.6z" fill="url(#f)"/>
  <path transform="matrix(.22952 0 0 .22952 -55.613 0)" d="m275.6 248c-20.8-26.1-33.3-59.2-33.3-95.2 0-40.3 15.5-76.9 41-104.1 0 0 26.6 11.8 71.4 39.5-100 103.6-79.1 159.8-79.1 159.8zm119.1-189.3c0-0.1-0.1-0.1 0 0 60.9-44.1 98.8-22 98.8-22-26.6-22.9-61.1-36.7-98.9-36.7s-72.3 13.8-98.9 36.7c0 0 37.9-22.7 98.9 21.9m-110 199.4c27.7 29.1 66.7 47.3 110 47.3 43.4 0 82.5-18.2 110.2-47.5 0 0-16.1-66.6-110.7-136.6-84.8 62.7-109.5 136.8-109.5 136.8zm229.2-10c20.8-26.1 33.3-59.2 33.3-95.2 0-40.3-15.6-76.9-41-104.1 0 0-26.6 11.8-71.4 39.5 100 103.6 79.1 159.8 79.1 159.8z" fill="url(#g)"/>
 </g>
</svg>
