<?xml version="1.0" encoding="UTF-8"?>
<!-- Created by ERK -->
<svg width="2503.8" height="490.01" version="1.1" viewBox="11.272 1.898 170.43 33.358" xmlns="http://www.w3.org/2000/svg">
 <g transform="translate(.26541 .2723)">
  <g>
   <path d="m135.32 7.431c-5.826 0-9.8979 4.456-9.8979 10.835 0 6.389 4.0719 10.844 9.8979 10.844 5.82 0 9.8791-4.455 9.8791-10.844 0-6.379-4.0581-10.835-9.8791-10.835zm0 2.19c4.432 0 7.523 3.5571 7.523 8.6451 1e-3 5.092-3.091 8.6489-7.523 8.6489-4.438 0-7.5489-3.5569-7.5489-8.6489 0-5.088 3.1109-8.6451 7.5489-8.6451z"/>
   <path d="m147.31 7.896v20.719h2.3041v-16.641l12.283 16.655 2.311 2e-3v-20.719h-2.309v17.018l-12.535-17.031z"/>
   <path d="m166.8 7.898v20.735h14.648v-2.0291h-12.324v-7.6659h11.406v-2.029h-11.406v-6.984h12.182v-2.0271z"/>
  </g>
  <g>
   <path d="m49.311 7.912 7.2691 9.8729-7.971 10.863h2.731l6.6169-8.99 6.621 8.99h2.7281l-7.972-10.863 7.274-9.8729h-2.725l-5.93 8.0559-5.925-8.0559z"/>
   <path d="m68.439 7.912v8.94h-2.806a60.799 60.799 0 0 0-1.506 2.081h4.312v9.715l8.421 0.0011c4.562 0 7.396-2.3171 7.396-6.0541 0-1.632-0.61698-3.021-1.789-4.025a5.956 5.956 0 0 0-1.3581-0.86508c1.505-0.817 2.4921-2.3609 2.4921-4.1519 0-1.327-0.48907-5.641-6.7411-5.641zm2.328 2.1639h6.093c1.65 0 4.4109 0.41108 4.4109 3.2961 0 2.181-1.6089 3.4809-4.4109 3.4809h-6.093zm-9.31e-4 8.8601h6.093c2.311 0 5.0739 0.63798 5.0739 3.614 1e-3 3.423-3.1769 3.936-5.0739 3.936h-6.093z"/>
   <path d="m95.209 7.433c-5.824 0-9.8959 4.456-9.8959 10.835 0 6.389 4.0709 10.842 9.8959 10.842 5.82 0 9.8791-4.453 9.8791-10.842 0-6.379-4.0591-10.835-9.8791-10.835zm0 2.191c4.431 0 7.523 3.556 7.523 8.644 0 5.091-3.092 8.648-7.523 8.648-4.438 0-7.546-3.557-7.546-8.648 0-5.088 3.108-8.644 7.546-8.644z"/>
   <path d="m103.65 7.912 7.2741 9.874-7.966 10.864h2.7279l6.621-8.992 6.623 8.992h2.724l-7.9679-10.864 7.2689-9.874h-2.725l-5.923 8.0539-5.93-8.0539z"/>
  </g>
 </g>
 <g transform="translate(-.0068878)">
  <g fill="#6b6b6b">
   <path d="m135.32 7.431c-5.826 0-9.8979 4.456-9.8979 10.835 0 6.389 4.0719 10.844 9.8979 10.844 5.82 0 9.8791-4.455 9.8791-10.844 0-6.379-4.0581-10.835-9.8791-10.835zm0 2.19c4.432 0 7.523 3.5571 7.523 8.6451 1e-3 5.092-3.091 8.6489-7.523 8.6489-4.438 0-7.5489-3.5569-7.5489-8.6489 0-5.088 3.1109-8.6451 7.5489-8.6451z"/>
   <path d="m147.31 7.896v20.719h2.3041v-16.641l12.283 16.655 2.311 2e-3v-20.719h-2.309v17.018l-12.535-17.031z"/>
   <path d="m166.8 7.898v20.735h14.648v-2.0291h-12.324v-7.6659h11.406v-2.029h-11.406v-6.984h12.182v-2.0271z"/>
  </g>
  <g fill="#177d3e">
   <path d="m49.311 7.912 7.2691 9.8729-7.971 10.863h2.731l6.6169-8.99 6.621 8.99h2.7281l-7.972-10.863 7.274-9.8729h-2.725l-5.93 8.0559-5.925-8.0559z"/>
   <path d="m68.439 7.912v8.94h-2.806a60.799 60.799 0 0 0-1.506 2.081h4.312v9.715l8.421 0.0011c4.562 0 7.396-2.3171 7.396-6.0541 0-1.632-0.61698-3.021-1.789-4.025a5.956 5.956 0 0 0-1.3581-0.86508c1.505-0.817 2.4921-2.3609 2.4921-4.1519 0-1.327-0.48907-5.641-6.7411-5.641zm2.328 2.1639h6.093c1.65 0 4.4109 0.41108 4.4109 3.2961 0 2.181-1.6089 3.4809-4.4109 3.4809h-6.093zm-9.31e-4 8.8601h6.093c2.311 0 5.0739 0.63798 5.0739 3.614 1e-3 3.423-3.1769 3.936-5.0739 3.936h-6.093z"/>
   <path d="m95.209 7.433c-5.824 0-9.8959 4.456-9.8959 10.835 0 6.389 4.0709 10.842 9.8959 10.842 5.82 0 9.8791-4.453 9.8791-10.842 0-6.379-4.0591-10.835-9.8791-10.835zm0 2.191c4.431 0 7.523 3.556 7.523 8.644 0 5.091-3.092 8.648-7.523 8.648-4.438 0-7.546-3.557-7.546-8.648 0-5.088 3.108-8.644 7.546-8.644z"/>
   <path d="m103.65 7.912 7.2741 9.874-7.966 10.864h2.7279l6.621-8.992 6.623 8.992h2.724l-7.9679-10.864 7.2689-9.874h-2.725l-5.923 8.0539-5.93-8.0539z"/>
  </g>
 </g>
 <g transform="translate(-3.4149 36.558)">
  <path d="m48.42-17.981c0 9.212-7.553 16.679-16.87 16.679s-16.87-7.467-16.87-16.679c0-9.211 7.553-16.679 16.87-16.679s16.87 7.467 16.87 16.679z" fill="#666"/>
  <radialGradient id="a" cx="-1186.1" cy="1608.6" r="14.351" gradientTransform="matrix(0 1.6935 1.5038 0 -2387.8 1988.9)" gradientUnits="userSpaceOnUse">
   <stop stop-color="#fff" offset="0"/>
   <stop stop-color="#fff" stop-opacity="0" offset="1"/>
  </radialGradient>
  <path d="m48.42-17.981c0 9.212-7.553 16.679-16.87 16.679s-16.87-7.467-16.87-16.679c0-9.211 7.553-16.679 16.87-16.679s16.87 7.467 16.87 16.679z" fill="url(#a)"/>
  <path d="m48.42-17.981c0 9.212-7.553 16.679-16.87 16.679s-16.87-7.467-16.87-16.679c0-9.211 7.553-16.679 16.87-16.679s16.87 7.467 16.87 16.679z" fill="url(#a)"/>
  <path d="m48.42-17.981c0 9.212-7.553 16.679-16.87 16.679s-16.87-7.467-16.87-16.679c0-9.211 7.553-16.679 16.87-16.679s16.87 7.467 16.87 16.679z" fill="url(#a)"/>
  <path d="m27.27-25.287c-1.863 2.258-9.666 11.435-8.974 17.64 0.482 0.61 1.013 1.182 1.574 1.72-0.082-4.75 5.492-9.833 9.842-13.67l-2.443-5.69z" fill="#00a54d"/>
  <g transform="matrix(1.0075 0 0 1.0008 1.107 -34.878)">
   <linearGradient id="d" x1="-1022.5" x2="-1026.5" y1="1131.2" y2="1135.8" gradientTransform="matrix(1.0075 0 0 -1.0008 1054.3 1153.7)" gradientUnits="userSpaceOnUse">
    <stop stop-color="#97ca43" offset="0"/>
    <stop stop-color="#97ca43" stop-opacity="0" offset="1"/>
   </linearGradient>
   <path d="m25.967 9.583c-1.848 2.256-9.593 11.425-8.906 17.625 0.478 0.61 1.005 1.181 1.562 1.718-0.081-4.745 5.451-9.825 9.769-13.658z" fill="url(#d)"/>
  </g>
  <g transform="matrix(1.0075 0 0 1.0008 .968 -34.846)">
   <path d="m21.561 2.677a16.832 16.832 0 0 0-2.687 2.031c2.656 0.508 5.32 2.862 6.781 4.812 1.272 2.002 1.963 3.837 2.861 5.731a91.424 91.424 0 0 1 1.896-1.587l-4e-3 -8.226c-1.979-1.238-5.25-2.867-8.816-2.761-8e-3 5e-3 -0.024-5e-3 -0.031 0z" fill="#02a74d"/>
   <linearGradient id="e" x1="-1022.4" x2="-1018.8" y1="1142.3" y2="1150.4" gradientTransform="matrix(1.0075 0 0 -1.0008 1054.2 1153.6)" gradientUnits="userSpaceOnUse">
    <stop stop-color="#97ca43" offset="0"/>
    <stop stop-color="#97ca43" stop-opacity="0" offset="1"/>
   </linearGradient>
   <path d="m21.561 2.677a16.832 16.832 0 0 0-2.687 2.031c2.656 0.508 5.32 2.862 6.781 4.812 1.272 2.002 1.963 3.837 2.861 5.731a91.424 91.424 0 0 1 1.896-1.587l-4e-3 -8.226c-1.979-1.238-5.25-2.867-8.816-2.761-8e-3 5e-3 -0.024-5e-3 -0.031 0z" fill="url(#e)"/>
  </g>
  <g>
   <path d="m35.837-25.28c1.856 2.26 9.633 11.445 8.943 17.654-0.48 0.61-1.009 1.183-1.568 1.722 0.081-4.754-5.474-9.842-9.81-13.682l2.435-5.695z" fill="#00a54d"/>
   <g transform="matrix(-1.0042 0 0 1.0017 61.912 -34.88)">
    <linearGradient id="f" x1="1746" x2="1742" y1="1130.5" y2="1135.1" gradientTransform="matrix(-1.0042 0 0 -1.0017 1777.4 1153.9)" gradientUnits="userSpaceOnUse">
     <stop stop-color="#97ca43" offset="0"/>
     <stop stop-color="#97ca43" stop-opacity="0" offset="1"/>
    </linearGradient>
    <path d="m25.967 9.583c-1.848 2.256-9.593 11.426-8.906 17.625a16.95 16.95 0 0 0 1.562 1.719c-0.081-4.746 5.451-9.825 9.769-13.659z" fill="url(#f)"/>
   </g>
   <g transform="matrix(-1.0042 0 0 1.0017 62.051 -34.848)">
    <path d="m21.561 2.677a16.945 16.945 0 0 0-2.688 2.031c2.656 0.508 5.321 2.862 6.781 4.812 1.272 2.002 1.964 3.837 2.862 5.732 0.608-0.519 1.226-1.047 1.896-1.587l-4e-3 -8.227c-1.979-1.238-5.25-2.867-8.816-2.761-7e-3 5e-3 -0.024-5e-3 -0.031 0z" fill="#02a74d"/>
    <linearGradient id="g" x1="1746.1" x2="1749.2" y1="1142" y2="1147" gradientTransform="matrix(-1.0042 0 0 -1.0017 1777.5 1153.9)" gradientUnits="userSpaceOnUse">
     <stop stop-color="#97ca43" offset="0"/>
     <stop stop-color="#97ca43" stop-opacity="0" offset="1"/>
    </linearGradient>
    <path d="m21.561 2.677a16.945 16.945 0 0 0-2.688 2.031c2.656 0.508 5.321 2.862 6.781 4.812 1.272 2.002 1.964 3.837 2.862 5.732 0.608-0.519 1.226-1.047 1.896-1.587l-4e-3 -8.227c-1.979-1.238-5.25-2.867-8.816-2.761-7e-3 5e-3 -0.024-5e-3 -0.031 0z" fill="url(#g)"/>
   </g>
  </g>
 </g>
</svg>
