<?xml version="1.0" encoding="UTF-8"?>
<!-- Created by ERK -->
<svg width="1067.8" height="180.4" version="1.1" viewBox="0 0 1067.8 180.4" xmlns="http://www.w3.org/2000/svg">
 <ellipse cx="90" cy="90.2" rx="90.2" ry="90" fill="#fff" style="paint-order:fill markers stroke"/>
 <g transform="matrix(4 0 0 4 -209.6 -4.3985)" fill="#107c10" stroke-width=".25">
  <path d="m75 19.199c-6.8 5.2-18.401 17.8-14.801 21.4 3.9 3.5 9.1008 5.5996 14.801 5.5996s10.801-2.0996 14.801-5.5996c3.5-3.6-8.0008-16.2-14.801-21.4z"/>
  <path d="m90.002 7.4805c-1.0828 0.0375-3.7273 0.91953-8.9023 6.0195v0.09961c4.5 5.4 13.3 18.3 11.6 23.6v0.10156h0.10156c2.9-3.8 4.5996-8.5016 4.5996-13.602 0-6.2-2.5012-11.9-6.7012-16l-0.09961-0.099609c-0.05-0.05-0.23672-0.13164-0.59766-0.11914z"/>
  <path d="m59.896 7.4805c-0.37812-0.010938-0.59726 0.069141-0.69726 0.11914-4.2 4.2-6.7988 9.7996-6.7988 16.1 0 5.1 1.6996 9.9016 4.5996 13.602 0 0 0.09961 0.1 0.09961 0v-0.10156c-1.7-5.3 7.0996-18.2 11.6-23.6v-0.19922c-5.1-5.025-7.6684-5.8871-8.8027-5.9199z"/>
  <path d="m75 1.0996c-4.5 0-8.2992 1.2008-11.699 3.3008 0 0-0.1 0.099609 0 0.099609h0.09961c4.4-0.9 11 2.7992 11.6 3.1992 0.6-0.4 7.2996-4.0992 11.6-3.1992h0.09961c0.1 0 0 3.906e-4 0-0.099609-3.4-2-7.1992-3.3008-11.699-3.3008z"/>
 </g>
 <g transform="matrix(5.7285 0 0 5.7286 209.09 -579.48)" stroke-width=".17456">
  <path d="m12.301 107.3c-1.4 0-2.7008 0.19922-3.8008 0.69922-1.2 0.4-2.1 1.1004-3 1.9004-0.8 0.9-1.5004 1.9992-1.9004 3.1992s-0.59961 2.6016-0.59961 4.1016c0 1.4 0.19961 2.8 0.59961 4s1.1004 2.2992 1.9004 3.1992 1.8004 1.5996 2.9004 2.0996 2.2992 0.70117 3.6992 0.70117 2.5996-0.20117 3.5996-0.70117 1.9016-1.1992 2.6016-2.1992v2.5h2.6992v-10h-8.1992v2.5h5.5996c-0.1 1.6-0.70078 2.9004-1.8008 3.9004s-2.5992 1.5-4.1992 1.5c-1.9 0-3.4996-0.7-4.5996-2s-1.7012-3.1004-1.7012-5.4004 0.60117-4.1004 1.7012-5.4004c1.1-1.3 2.6-2 4.5-2 1.4 0 2.5996 0.39961 3.5996 1.0996s1.6004 1.7 1.9004 3h3c-0.3-2-1.2012-3.7004-2.7012-4.9004s-3.4988-1.7988-5.7988-1.7988z"/>
  <path d="m30 107.7-7.5 19.1h3l1.8008-5h8.5l1.7988 5h3l-7.2988-19.1zm1.6992 2.7988 3.3008 8.8008h-6.5996z"/>
  <path d="m42.5 107.7v19h2.8008v-15.102c0.4 1.2 0.89844 2.5004 1.3984 3.9004l4.4004 11.201h2.4004l4.3008-11.201c0.6-1.5 0.99844-2.8004 1.3984-3.9004v15.201h2.8008v-19.1h-3.9004l-3.7988 9.8984c-0.8 2-1.4 3.9016-2 5.6016-0.5-1.5-1.1004-3.2008-1.9004-5.3008l-3.9004-10.199z"/>
  <path d="m64.9 107.7v19h13.6v-2.6016h-10.699v-5.8984h9.5v-2.4004h-9.5v-5.5h10.799v-2.5996z"/>
  <path d="m85.9 107.7v19.1h2.9004v-7h5.1992c2.1 0 3.7008-0.49961 4.8008-1.5996s1.6992-2.6004 1.6992-4.4004c0.1-1.9-0.49922-3.4-1.6992-4.5-1.1-1.1-2.8008-1.5996-4.8008-1.5996zm2.9004 2.5996h5.1992c1.2 0 2.0992 0.30039 2.6992 0.90039s0.90039 1.4996 0.90039 2.5996-0.30039 1.9996-0.90039 2.5996-1.4992 0.90039-2.6992 0.90039h-5.1992z"/>
  <path d="m106 107.7-7.5 19.1h3l1.8008-5h8.5l1.7988 5h3l-7.2988-19.1zm1.5996 2.7988 3.3008 8.8008h-6.5996z"/>
  <path d="m124.5 107.5c-2 0-3.7004 0.50039-4.9004 1.4004-1.2 1-1.7988 2.2008-1.7988 3.8008s0.5 2.7992 1.5 3.6992 2.5 1.5004 4.5 1.9004l1.5996 0.29883c1.6 0.3 2.8004 0.70117 3.4004 1.2012 0.6 0.4 0.89844 1.1004 0.89844 1.9004 0 1-0.39961 1.7988-1.0996 2.2988s-1.7992 0.80078-3.1992 0.80078c-1.7 0-2.9008-0.39961-3.8008-1.0996-0.8-0.7-1.2988-1.8012-1.2988-3.2012h-2.9004c0 2.2 0.69961 3.9 2.0996 5s3.4004 1.7012 5.9004 1.7012c2.3 0 4.2-0.5 5.5-1.5s2-2.4012 2-4.2012c0-1.5-0.50039-2.7004-1.4004-3.4004-0.9-0.9-2.4992-1.5-4.6992-2l-1.7012-0.29883c-1.6-0.3-2.6988-0.70117-3.2988-1.2012s-0.90039-1.1-0.90039-2 0.4-1.5 1-2c0.7-0.5 1.7004-0.69922 2.9004-0.69922 1.6 0 2.8 0.30039 3.5 0.90039s1.0992 1.4992 1.1992 2.6992h2.6992c-0.1-1.8-0.7-3.3004-2-4.4004s-3.1992-1.5996-5.6992-1.5996z"/>
  <path d="m141.5 107.5c-2 0-3.7004 0.50039-4.9004 1.4004-1.2 1-1.7988 2.2008-1.7988 3.8008s0.5 2.7992 1.5 3.6992 2.5 1.5004 4.5 1.9004l1.5996 0.29883c1.6 0.3 2.8004 0.70117 3.4004 1.2012 0.6 0.4 0.89844 1.1004 0.89844 1.9004 0 1-0.39961 1.7988-1.0996 2.2988s-1.7992 0.80078-3.1992 0.80078c-1.7 0-2.9008-0.39961-3.8008-1.0996-0.8-0.7-1.2988-1.8012-1.2988-3.2012h-2.9004c0 2.2 0.69961 3.9 2.0996 5s3.4004 1.7012 5.9004 1.7012c2.3 0 4.2-0.5 5.5-1.5s2-2.4012 2-4.2012c0-1.5-0.50039-2.7004-1.4004-3.4004-0.9-0.9-2.4992-1.5-4.6992-2l-1.7012-0.29883c-1.6-0.3-2.6988-0.70117-3.2988-1.2012s-0.90039-1.1-0.90039-2 0.4-1.5 1-2c0.7-0.5 1.7004-0.69922 2.9004-0.69922 1.6 0 2.8 0.30039 3.5 0.90039s1.0992 1.4992 1.1992 2.6992h2.6992c-0.1-1.8-0.7-3.3004-2-4.4004s-3.1992-1.5996-5.6992-1.5996z"/>
 </g>
 <g transform="matrix(5.7285 0 0 5.7286 207.09 -581.48)" fill="#fff" stroke-width=".17456">
  <path d="m12.301 107.3c-1.4 0-2.7008 0.19922-3.8008 0.69922-1.2 0.4-2.1 1.1004-3 1.9004-0.8 0.9-1.5004 1.9992-1.9004 3.1992s-0.59961 2.6016-0.59961 4.1016c0 1.4 0.19961 2.8 0.59961 4s1.1004 2.2992 1.9004 3.1992 1.8004 1.5996 2.9004 2.0996 2.2992 0.70117 3.6992 0.70117 2.5996-0.20117 3.5996-0.70117 1.9016-1.1992 2.6016-2.1992v2.5h2.6992v-10h-8.1992v2.5h5.5996c-0.1 1.6-0.70078 2.9004-1.8008 3.9004s-2.5992 1.5-4.1992 1.5c-1.9 0-3.4996-0.7-4.5996-2s-1.7012-3.1004-1.7012-5.4004 0.60117-4.1004 1.7012-5.4004c1.1-1.3 2.6-2 4.5-2 1.4 0 2.5996 0.39961 3.5996 1.0996s1.6004 1.7 1.9004 3h3c-0.3-2-1.2012-3.7004-2.7012-4.9004s-3.4988-1.7988-5.7988-1.7988z"/>
  <path d="m30 107.7-7.5 19.1h3l1.8008-5h8.5l1.7988 5h3l-7.2988-19.1zm1.6992 2.7988 3.3008 8.8008h-6.5996z"/>
  <path d="m42.5 107.7v19h2.8008v-15.102c0.4 1.2 0.89844 2.5004 1.3984 3.9004l4.4004 11.201h2.4004l4.3008-11.201c0.6-1.5 0.99844-2.8004 1.3984-3.9004v15.201h2.8008v-19.1h-3.9004l-3.7988 9.8984c-0.8 2-1.4 3.9016-2 5.6016-0.5-1.5-1.1004-3.2008-1.9004-5.3008l-3.9004-10.199z"/>
  <path d="m64.9 107.7v19h13.6v-2.6016h-10.699v-5.8984h9.5v-2.4004h-9.5v-5.5h10.799v-2.5996z"/>
  <path d="m85.9 107.7v19.1h2.9004v-7h5.1992c2.1 0 3.7008-0.49961 4.8008-1.5996s1.6992-2.6004 1.6992-4.4004c0.1-1.9-0.49922-3.4-1.6992-4.5-1.1-1.1-2.8008-1.5996-4.8008-1.5996zm2.9004 2.5996h5.1992c1.2 0 2.0992 0.30039 2.6992 0.90039s0.90039 1.4996 0.90039 2.5996-0.30039 1.9996-0.90039 2.5996-1.4992 0.90039-2.6992 0.90039h-5.1992z"/>
  <path d="m106 107.7-7.5 19.1h3l1.8008-5h8.5l1.7988 5h3l-7.2988-19.1zm1.5996 2.7988 3.3008 8.8008h-6.5996z"/>
  <path d="m124.5 107.5c-2 0-3.7004 0.50039-4.9004 1.4004-1.2 1-1.7988 2.2008-1.7988 3.8008s0.5 2.7992 1.5 3.6992 2.5 1.5004 4.5 1.9004l1.5996 0.29883c1.6 0.3 2.8004 0.70117 3.4004 1.2012 0.6 0.4 0.89844 1.1004 0.89844 1.9004 0 1-0.39961 1.7988-1.0996 2.2988s-1.7992 0.80078-3.1992 0.80078c-1.7 0-2.9008-0.39961-3.8008-1.0996-0.8-0.7-1.2988-1.8012-1.2988-3.2012h-2.9004c0 2.2 0.69961 3.9 2.0996 5s3.4004 1.7012 5.9004 1.7012c2.3 0 4.2-0.5 5.5-1.5s2-2.4012 2-4.2012c0-1.5-0.50039-2.7004-1.4004-3.4004-0.9-0.9-2.4992-1.5-4.6992-2l-1.7012-0.29883c-1.6-0.3-2.6988-0.70117-3.2988-1.2012s-0.90039-1.1-0.90039-2 0.4-1.5 1-2c0.7-0.5 1.7004-0.69922 2.9004-0.69922 1.6 0 2.8 0.30039 3.5 0.90039s1.0992 1.4992 1.1992 2.6992h2.6992c-0.1-1.8-0.7-3.3004-2-4.4004s-3.1992-1.5996-5.6992-1.5996z"/>
  <path d="m141.5 107.5c-2 0-3.7004 0.50039-4.9004 1.4004-1.2 1-1.7988 2.2008-1.7988 3.8008s0.5 2.7992 1.5 3.6992 2.5 1.5004 4.5 1.9004l1.5996 0.29883c1.6 0.3 2.8004 0.70117 3.4004 1.2012 0.6 0.4 0.89844 1.1004 0.89844 1.9004 0 1-0.39961 1.7988-1.0996 2.2988s-1.7992 0.80078-3.1992 0.80078c-1.7 0-2.9008-0.39961-3.8008-1.0996-0.8-0.7-1.2988-1.8012-1.2988-3.2012h-2.9004c0 2.2 0.69961 3.9 2.0996 5s3.4004 1.7012 5.9004 1.7012c2.3 0 4.2-0.5 5.5-1.5s2-2.4012 2-4.2012c0-1.5-0.50039-2.7004-1.4004-3.4004-0.9-0.9-2.4992-1.5-4.6992-2l-1.7012-0.29883c-1.6-0.3-2.6988-0.70117-3.2988-1.2012s-0.90039-1.1-0.90039-2 0.4-1.5 1-2c0.7-0.5 1.7004-0.69922 2.9004-0.69922 1.6 0 2.8 0.30039 3.5 0.90039s1.0992 1.4992 1.1992 2.6992h2.6992c-0.1-1.8-0.7-3.3004-2-4.4004s-3.1992-1.5996-5.6992-1.5996z"/>
 </g>
</svg>
