<?xml version="1.0" encoding="UTF-8"?>
<!-- Created by ERK -->
<svg width="1810" height="387" version="1.1" viewBox="0 0 1810 387" xmlns="http://www.w3.org/2000/svg" xmlns:xlink="http://www.w3.org/1999/xlink">
 <path d="m188.5 0c-38.076 0-69.563 10.602-98.238 28.436-0.47024 0-0.47656 0.47809-0.47656 0.95898 0 0.48212 0.47702 0.49024 0.94727 0.49024 36.665-8.1911 92.127 24.093 97.299 27.467h0.4707 0.47656c5.1668-3.3736 60.629-35.658 97.295-27.467 0.47032 0 0.93946-0.008705 0.93946-0.49024 0-0.48212-4e-5 -0.95898-0.46875-0.95898-28.675-17.833-60.17-28.436-98.242-28.436h-0.00195zm128.15 54.307c-0.61039-0.030392-1.3017-0.029839-2.0781 0.017578-9.3201 0.56288-31.003 7.9661-74.367 51.703l-0.46875 0.48047s4e-5 0.48633 0.46875 0.48633c38.075 46.266 111.41 156.63 97.311 202.42v0.95703c0.4702 0 0.9375 0.00102 0.9375-0.48047 23.973-32.29 38.551-73.254 38.551-117.11 0-53.497-21.156-102.17-55.941-137.36-0.47032-0.48212-0.47511-0.47852-0.94531-0.47852-0.52906-0.18079-1.6356-0.54554-3.4668-0.63672zm-254.42 0.22461c-3.1735-0.12848-4.998 0.52842-5.8203 0.89062-0.47024 0-0.46725 0.48242-0.9375 0.48242-34.315 35.181-55.473 83.858-55.473 137.35 0 43.857 14.577 84.822 38.553 117.11 0 0.48212 0.4653 0.48438 0.93555 0.48438 0.47025 0 0.47025-0.48273 0-0.96485-14.57-45.785 59.224-156.15 97.301-202.41l0.47852-0.48438c0-0.48212-0.01265-0.49023-0.47852-0.49023-43.364-44.098-65.039-51.59-74.559-51.973zm126.27 100.66s-0.47071-0.00101-0.47071 0.48047c-56.407 43.857-153.23 152.77-123.62 183.62 32.904 29.879 76.614 47.711 124.09 47.711 47.473 0 90.721-17.832 124.1-47.711 29.144-30.846-67.213-139.76-123.62-183.62 0-0.48212-0.47851-0.48047-0.47851-0.48047z" clip-rule="evenodd" fill="#fff" image-rendering="optimizeQuality" shape-rendering="geometricPrecision" stroke-width=".096"/>
 <path d="m939.07 77.5c-15.407 0-29.929 2.7162-42.252 7.7031-12.765 5.437-23.771 13.144-33.014 23.568-9.6837 10.426-16.726 23.126-21.566 36.723-4.8423 13.599-7.041 29.462-7.041 46.234 0 16.771 2.1987 32.633 7.041 46.232 4.8402 13.598 11.883 25.837 21.566 36.264 9.6814 10.424 20.689 18.134 33.014 23.574 12.323 4.987 26.845 7.7012 42.252 7.7012 15.845 0 29.929-2.2608 42.254-7.7012 12.323-4.9869 23.328-13.15 33.012-23.574 9.2412-10.426 16.288-22.667 21.129-36.264 4.8402-13.599 7.0411-29.461 7.0411-46.232 0-17.226-2.6413-32.635-7.0411-46.234-4.4021-13.598-11.888-26.296-21.129-36.723-9.2433-10.424-20.688-18.584-33.012-23.568-12.765-4.9869-26.849-7.7031-42.254-7.7031zm-492.54 4.9844 73.504 104.71-80.105 113.78h36.088l62.508-88.393 62.062 88.393h36.088l-80.105-113.78 73.951-104.71h-36.1l-55.896 79.328-55.904-79.328h-36.09zm207.31 0v92.928h-27.723l-19.811 28.1h47.533v97.459h99.035c22.888 0 40.494-5.8922 52.818-16.77 12.326-10.88 18.492-26.293 18.492-45.33 0-11.787-3.085-22.666-9.6875-31.279-6.1623-8.6123-14.964-15.864-26.848-20.396 18.488-10.426 27.73-26.748 27.73-47.598 0-16.774-5.7232-30.82-17.166-41.246-11.445-10.426-27.736-15.867-49.303-15.867h-95.07-0.00195zm380.73 0 73.951 104.71-80.113 113.78h36.098l62.059-88.393 62.498 88.393h36.098l-80.553-113.78 73.951-104.71h-36.098l-55.896 79.328-55.895-79.328h-36.1zm-95.508 24.934c21.126 0 38.291 7.7044 51.055 22.664 12.765 14.96 18.932 35.808 18.932 61.646 0 25.837-6.1667 46.234-18.932 61.193-12.763 14.957-29.928 22.664-51.055 22.664-21.569 0-38.291-7.7067-51.057-22.664-12.765-14.96-19.369-35.355-19.369-61.193 0-25.839 6.6032-46.233 19.369-61.646 12.765-14.96 29.928-22.664 51.057-22.664zm-253.09 3.6172h60.734c11.885 0 21.135 2.7256 27.297 8.166 6.6003 5.437 9.6777 13.144 9.6777 22.664 0 11.333-3.0779 19.946-9.2402 25.383-6.1622 5.8927-15.41 8.6133-27.734 8.6133h-60.734v-64.826zm0 92.475h65.584c13.205 0 23.324 2.7214 29.928 8.6152 6.6025 5.4392 10.127 14.503 10.127 25.836 0 10.877-3.5257 19.498-10.566 25.391-7.0429 5.4392-17.168 8.6055-29.934 8.6055h-65.139v-68.447z" clip-rule="evenodd" fill="#fff" image-rendering="optimizeQuality" shape-rendering="geometricPrecision" stroke-width=".096"/>
 <path d="m1287 292.66c0.01 3.3687 0.6189 6.8666 2.4502 9.6883 1.2662 2.0145 3.2921 3.4695 5.5387 3.9452 2.1551 0.4435 4.4547 0.3063 6.4992-0.5717 2.0998-0.8957 3.6904-2.7515 4.7657-4.8118 1.1428-2.1319 1.7792-4.512 2.2551-6.8953 0.6625-2.7018 1.1819-5.4698 2.2603-8.0316 0.4659-1.2567 1.7357-2.062 2.9984-2.0178 1.3886-0.031 2.8165 0.6184 3.6431 1.8141 0.909 1.677 1.1772 3.6488 1.1837 5.5558 0 0.1653-0.01 0.5777-0.022 0.8377-0.1008 2.237-0.596 4.604-2.0609 6.3043-1.2272 1.3678-3.1003 1.7279-4.8127 1.7159-0.2568 0.041-0.6482-0.057-0.8249 0.067v7.237c2.0644 0.029 4.1717-0.1275 6.1142-0.9239 1.9861-0.7699 3.7062-2.1995 4.9781-3.9751 1.9516-2.6117 2.7127-5.975 2.9182-9.237 0.2184-3.6203-0.018-7.374-1.4037-10.737-1.0223-2.5086-2.8885-4.6644-5.2783-5.7569-2.3838-1.1072-5.1504-1.2538-7.6394-0.4642-2.1698 0.6838-3.9754 2.3456-5.1306 4.3774-1.4454 2.473-2.1663 5.3206-2.681 8.1501-0.3492 1.5099-0.6541 3.0302-0.9895 4.543-0.4059 1.5728-0.9133 3.1592-1.8133 4.4994-0.8117 1.0336-2.214 1.1811-3.3981 1.0285-1.2562-0.1376-2.1728-1.2511-2.6233-2.4229-0.6462-1.7409-0.6021-3.6596-0.5082-5.4963 0.1395-1.5781 0.3945-3.2744 1.4067-4.514 1.1223-1.3349 2.8645-1.7705 4.486-1.8845 0.33-4e-4 0.6378-0.022 0.5141-0.4562v-7.1886c-1.6834-0.022-3.3956 0.089-4.9943 0.6927-3.1195 1.1112-5.6206 3.8464-6.7106 7.111-0.6172 1.7593-0.9149 3.6277-1.0418 5.4939-0.2334-0.2862-0.056 0.4575-0.1038 0.6319 0.01 0.5638 0.016 1.1276 0.023 1.6913zm0-196.51c0.01 3.3844 0.6257 6.9012 2.4778 9.7282 1.3116 2.0735 3.4395 3.535 5.7674 3.9507 2.0787 0.3748 4.28 0.2229 6.2429-0.624 2.1-0.8944 3.6905-2.7508 4.7657-4.8108 1.1426-2.131 1.7785-4.5101 2.2552-6.8923 0.5851-2.4276 1.081-4.8589 1.9283-7.2161 0.3068-0.8099 0.6269-1.6834 1.3491-2.1821 1.0948-0.8619 2.617-0.7847 3.8377-0.2868 0.8553 0.3972 1.688 1.0346 2.0481 1.9771 0.6985 1.5621 0.9179 3.3116 0.9222 5.0245 0 0.1653-0.01 0.5777-0.022 0.8377-0.101 2.2374-0.5936 4.6057-2.0598 6.3064-1.2375 1.3835-3.1321 1.7364-4.8595 1.7203-0.2317 0.067-0.705-0.1164-0.7793 0.1144v7.375c2.0645 0.029 4.1712-0.1275 6.1143-0.922 1.9855-0.7709 3.7065-2.1989 4.978-3.975 1.9517-2.6119 2.7128-5.975 2.9183-9.2371 0.2189-3.6364-0.02-7.4092-1.4235-10.782-1.0364-2.5232-2.935-4.6801-5.3515-5.7542-1.3823-0.6457-2.8978-0.9031-4.4004-0.933-2.1353-0.2801-4.3881 0.3139-6.0538 1.7803-2.0689 1.7865-3.2527 4.4385-4.0362 7.0808-0.5494 1.8194-0.8065 3.7152-1.2583 5.5613-0.3759 1.687-0.6525 3.4106-1.2864 5.0195-0.3671 0.8947-0.717 1.8501-1.3844 2.5473-0.9227 0.8245-2.245 0.9021-3.3878 0.689-1.3486-0.2871-2.2055-1.6467-2.5705-2.9592-0.463-1.7565-0.415-3.6142-0.2668-5.4147 0.181-1.62 0.56-3.3984 1.8208-4.4753 1.2109-1.075 2.833-1.3346 4.3585-1.4559 0.3524 0.021 0.1106-0.5247 0.1817-0.7722v-6.6473c-1.6836-0.022-3.3954 0.091-4.9944 0.6927-3.1196 1.1123-5.6213 3.8474-6.7105 7.1129-0.7617 2.1766-1.0371 4.5071-1.1067 6.8158-0.061 0.2679 0 0.6879-0.018 1.0063zm1.8361 166.76h35.584v-27.974h-6.7231v20.489h-8.715v-18.208h-6.3641v18.208h-8.176v-20.489h-6.544v27.974h0.9384zm0-41.924h35.584v-7.4813h-14.18v-9.6329c0-0.3692 0.025-0.8854 0.088-1.3091 0.1635-1.2713 0.7465-2.6208 1.9255-3.1508 1.5012-0.7497 3.1991-0.5688 4.8074-0.6997 1.2341-0.091 2.4736-0.074 3.7044-0.1985 1.3433-0.1415 2.6607-0.6086 3.7628-1.4429 0.1681-0.2154 0.029-0.6089 0.075-0.896v-6.8549c-1.339 0.579-2.6837 1.1861-4.1255 1.4139-1.7112 0.3113-3.4549 0.3126-5.1819 0.4679-1.4196 0.1387-2.8734 0.048-4.253 0.4923-1.2856 0.4103-2.5911 0.9921-3.5019 2.0743-0.3043 0.3459-0.5709 0.728-0.8023 1.1319-0.6852-1.2035-1.6886-2.1631-2.8069-2.9051-2.2273-1.5795-5.065-1.8982-7.6641-1.4488-2.2953 0.3818-4.4278 1.7531-5.7628 3.7689-1.9133 2.7527-2.5965 6.2392-2.6035 9.601-0.01 5.6898 0 11.38 0 17.07h0.9385zm0-45.143h35.584v-7.4861h-36.522v7.4861h0.9384zm0-23.899h35.584v-28.159h-6.7231v20.674h-8.715v-18.208h-6.3641v18.208h-8.176v-20.674h-6.544v28.159h0.9384zm5.4322 51.933c0.065-1.5668 0.3319-3.2558 1.3491-4.4682 1.0937-1.2461 2.8266-1.5546 4.3565-1.2916 1.0278 0.15 2.0554 0.6066 2.7031 1.4944 0.9283 1.11 1.1963 2.6476 1.1982 4.087 0 0.3749-3e-4 0.9032-9e-4 1.3369v8.0874h-9.6107v-8.8706c-5e-4 -0.061 0-0.262 0.01-0.3753z" clip-rule="evenodd" fill="#fff" image-rendering="optimizeQuality" shape-rendering="geometricPrecision" stroke-width=".095999"/>
 <path d="m1720.7 76.658c-6.2704-0.11703-12.547 0.14465-18.74 0.68555-11.231 0.9809-22.789 3.0425-32.812 8.2031-9.2794 4.7774-17.638 11.909-23.828 20.313-5.2931 7.1857-8.3396 15.962-10.547 24.609-1.3587 5.3228-1.9389 10.926-1.5625 16.406 0.5043 7.3415 1.8639 14.865 5.0781 21.484 3.1976 6.5854 8.2156 12.307 13.672 17.188 4.9276 4.4077 10.89 7.5776 16.797 10.547 4.4937 2.2589 14.062 5.4688 14.062 5.4688l22.412-31.445s-8.6987-2.9818-12.312-4.8027c-3.6831-1.8559-7.0564-3.5112-10.357-6.7676-3.3566-3.3112-5.2864-8.12-6.3438-12.715-0.8468-3.6798-0.634-6.9913-0.1152-11.275 0.519-4.2858 2.7187-8.6153 5.459-11.951 3.2095-3.9071 7.6518-6.3192 12.324-8.252 4.5637-1.8878 9.5795-2.6395 14.502-3.0391 7.2111-0.5853 14.54-0.1794 21.684 0.9668 5.3821 0.8637 10.758 2.2165 15.744 4.4199 4.7668 2.1066 9.1343 5.0982 13.258 8.2852 2.757 2.1308 5.29 4.5692 7.5957 7.1816 2.527 2.8632 6.9707 9.6777 6.9707 9.6777l21.973-30.199s-6.2563-10.215-10.84-13.99c-9.5735-7.8861-21.248-13.494-33.203-16.797-9.9871-2.7591-20.418-4.0061-30.869-4.2012zm-135.69 2.8418v228h10.5v-228h-10.5zm-238.94 2.9219 161.72 228h48l-161.72-228h-48zm151.72 0-29.104 41.031 24.289 33.43 52.814-74.461h-48zm250.1 96.842-22.926 32.869s10.842 3.07 16.022 5.248c4.7831 2.0113 9.5598 4.206 13.811 7.1816 3.6836 2.5785 7.6087 5.2723 9.9433 9.1152 2.5743 4.2375 4.0012 9.407 3.8672 14.363-0.1676 6.1994-2.2039 12.626-5.8008 17.678-3.0866 4.3353-7.9 7.3783-12.705 9.666-5.9883 2.8509-12.763 3.8104-19.336 4.6953-6.2075 0.8357-12.564 1.3152-18.781 0.55273-7.7829-0.9544-15.554-3.0152-22.65-6.3516-5.2697-2.4777-10.1-5.9782-14.363-9.9453-3.9789-3.7028-7.3219-8.1061-10.219-12.705-2.6119-4.1465-6.3535-13.258-6.3535-13.258l-23.754 31.764s4.1872 7.8383 6.9043 11.326c4.2812 5.4957 9.0279 10.785 14.639 14.914 6.3345 4.6617 13.527 8.297 20.992 10.773 10.545 3.4982 21.795 4.6572 32.871 5.5234 8.8124 0.6892 17.732 0.71881 26.516-0.27539 8.147-0.9222 16.257-2.6432 24.031-5.248 7.3047-2.4474 14.482-5.5495 20.992-9.668 5.579-3.5293 10.784-7.8273 14.941-12.955 4.2023-5.1828 7.515-11.103 9.6407-17.428 2.5552-7.6029 3.8639-15.735 3.8359-23.756-0.0348-9.8975-0.6534-20.356-4.9395-29.277-3.4734-7.2298-9.6152-13.129-16.021-17.955-6.7754-5.1045-15.043-7.9135-22.926-11.049-5.9254-2.3568-18.23-5.7988-18.23-5.7988zm-349.67 43.537-62.148 87.621h48l38.438-54.191-24.289-33.43z" fill="#fff" stroke-miterlimit="20" stroke-width="2" style="paint-order:stroke fill markers"/>
</svg>
