<svg xmlns="http://www.w3.org/2000/svg" xml:space="preserve" viewBox="0 0 45 45"><title>game_info_publisher</title><path fill="#666" d="M7 16.9h2.8v-2.8H7zm11.3-2.8h2.8v-2.8h-2.8zm5.6 0h2.8v-2.8h-2.8zm5.6 0h2.8v-2.8h-2.8zM18.3 8.4h2.8V5.6h-2.8zm5.6 0h2.8V5.6h-2.8zm5.6 0h2.8V5.6h-2.8zM18.3 25.3h2.8v-2.8h-2.8zm5.6 0h2.8v-2.8h-2.8zm5.6 0h2.8v-2.8h-2.8zm-11.2 5.6h2.8v-2.8h-2.8zm11.2 0h2.8v-2.8h-2.8zm-11.2 5.7h2.8v-2.8h-2.8zm11.2 0h2.8v-2.8h-2.8zm8.5-2.8h2.8V31H38zm0-8.5v2.8h2.8v-2.8zm0 14.1h2.8v-2.8H38zM18.3 19.7h2.8v-2.8h-2.8zm5.6 0h2.8v-2.8h-2.8zm5.6 0h2.8v-2.8h-2.8zM7 22.5h2.8v-2.8H7zm0 5.6h2.8v-2.8H7zm0 5.7h2.8V31H7zm0 5.6h2.8v-2.8H7zm16.9-8.5h2.8v-2.8h-2.8z" style="fill:#fff"/><path fill="#666" fill-rule="evenodd" d="M43.6 42.2c0 1.5-1.3 2.8-2.8 2.8H4.2c-1.5 0-2.8-1.3-2.8-2.8V11.3c0-1.5 1.3-2.8 2.8-2.8h8.4V2.8c0-1.5 1.3-2.8 2.8-2.8h19.7C36.7 0 38 1.3 38 2.8v16.9h2.8c1.5 0 2.8 1.3 2.8 2.8zM12.7 11.3H4.2v30.9h8.4V11.3zm22.5-8.5H15.5v39.4h8.4v-8.4h2.8v8.4h8.4V2.8zm5.6 19.7H38v19.7h2.8z" style="fill:#fff"/></svg>