<svg xmlns="http://www.w3.org/2000/svg" xml:space="preserve" viewBox="0 0 45 45"><path fill="#666" d="M34.7 39.5v-7.1c0-2.4-1.1-4.7-2.9-6.4l-4.1-3.6 4.1-3.6c1.8-1.6 2.9-3.9 2.9-6.4V5.5c1.1-.4 1.9-1.4 1.9-2.6 0-1.6-1.3-2.8-2.8-2.8H11.3C9.7 0 8.4 1.3 8.4 2.8c0 1.2.8 2.3 1.9 2.6v7.1c0 2.4 1.1 4.7 2.9 6.4l4.1 3.6-4.1 3.6c-1.8 1.6-2.9 3.9-2.9 6.4v7.1c-1.1.4-1.9 1.4-1.9 2.6 0 1.6 1.3 2.8 2.8 2.8h22.5c1.6 0 2.8-1.3 2.8-2.8.1-1.2-.7-2.3-1.8-2.7m-1.9-.1H12.2v-6.9c0-1.9.8-3.7 2.2-4.9l4.9-4.3c.2-.2.3-.4.3-.7s-.1-.5-.3-.7l-4.9-4.3c-1.4-1.2-2.2-3-2.2-4.9V5.6h20.6v6.9c0 1.9-.8 3.7-2.2 4.9l-4.9 4.3c-.2.2-.3.4-.3.7s.1.5.3.7l4.9 4.3c1.4 1.2 2.2 3 2.2 4.9z" style="fill:#fff"/><path fill="#666" d="m30.7 36-7.5-9.4c-.4-.4-1.1-.4-1.5 0L14.3 36c-.2.3-.3.7-.1 1s.5.5.8.5h15c.4 0 .7-.2.8-.5.2-.4.2-.7-.1-1m-3.6-20.4c-.1-.4-.5-.6-.8-.6h-7.5q-.6 0-.9.6c-.1.4-.1.8.2 1l3.8 3.8c.2.2.4.3.7.3s.5-.1.7-.3l3.8-3.8c.1-.3.2-.7 0-1" style="fill:#fff"/></svg>