<svg xmlns="http://www.w3.org/2000/svg" xml:space="preserve" viewBox="0 0 52 50"><path fill="#666" d="M31.4 10.6c2.4 1.5 4.1 4.1 4.4 7 1 .5 2.1.7 3.2.7 4.2 0 7.6-3.4 7.6-7.7S43.2 3 39 3s-7.5 3.4-7.6 7.6m-5 15.7c4.2 0 7.6-3.4 7.6-7.7s-3.4-7.7-7.6-7.7-7.6 3.4-7.6 7.7 3.4 7.7 7.6 7.7m3.2.5h-6.5c-5.4 0-9.7 4.4-9.7 9.8v8l.5.2c5.1 1.6 9.6 2.1 13.3 2.1 7.2 0 11.3-2.1 11.6-2.2l.5-.3h.1v-7.9c0-5.4-4.4-9.7-9.8-9.7m12.6-7.9h-6.4c-.1 2.6-1.2 4.9-2.9 6.6 4.8 1.4 8.3 5.9 8.3 11.1v2.5c6.3-.3 10-2 10.2-2.1l.5-.3h.1v-8c-.1-5.4-4.4-9.8-9.8-9.8m-29.1-.5c1.5 0 2.8-.5 4.1-1.2.4-2.5 1.7-4.6 3.6-6.1v-.5c0-4.2-3.4-7.7-7.6-7.7s-7.6 3.4-7.6 7.7c-.1 4.3 3.3 7.8 7.5 7.8m6.8 7c-1.7-1.7-2.8-4-2.9-6.5-.3 0-.5-.1-.7-.1H9.8c-5.4 0-9.7 4.4-9.7 9.8v8l.5.2c4.1 1.3 7.8 1.9 10.9 2.1v-2.4c.1-5.2 3.6-9.7 8.4-11.1" style="fill:#fff"/></svg>