<svg xmlns="http://www.w3.org/2000/svg" xml:space="preserve" viewBox="0 0 45 45"><title>game_info_releasedate</title><path fill="#666" d="M44.9 7.9c-.3-1.2-1.4-2-2.6-2h-2.8v4.4c0 2.3-1.9 4.2-4.2 4.2s-4.2-1.9-4.2-4.2V5.9h-17v4.4c0 2.3-1.9 4.2-4.2 4.2s-4.2-1.9-4.2-4.2V5.9H2.9c-1.2 0-2.3.8-2.6 2H0v34.3C0 43.8 1.3 45 2.9 45h39.4c1.5 0 2.8-1.2 2.8-2.8V7.9zm-2.7 34.3H2.9V19.7h39.4z" style="fill:#fff"/><path fill="#666" d="M9.8 11.7c.8 0 1.4-.6 1.4-1.4V1.4c0-.8-.6-1.4-1.4-1.4S8.5.6 8.5 1.4v8.9c0 .8.6 1.4 1.3 1.4m25.4 0c.8 0 1.4-.6 1.4-1.4V1.4C36.6.6 36 0 35.2 0s-1.4.6-1.4 1.4v8.9c0 .8.6 1.4 1.4 1.4M9.1 23.9h6.1v3H9.1zm10.6 0h6.1v3h-6.1zm10.6 0h6v3h-6zM9.1 30h6.1v2.9H9.1zm10.6 0h6.1v2.9h-6.1zm10.6 0h6v2.9h-6zM9.1 36h6.1v3H9.1zm10.6 0h6.1v3h-6.1zm10.6 0h6v3h-6z" style="fill:#fff"/></svg>