<svg xmlns="http://www.w3.org/2000/svg" xml:space="preserve" viewBox="0 0 100 100"><title>rating</title><path fill="#666" d="M50 0C22.4 0 0 22.4 0 50s22.4 50 50 50 50-22.4 50-50S77.6 0 50 0m-1.1 58v.1c-.2 1.2-.8 2.2-1.7 3l-2.5 2.5-2.5 2.5c-.3.2-.5.7-.4 1.1.4 1.9.7 3.9 1 5.8l.3 1.7c.1.7.1 1.4.1 2-.1 1.5-1.2 2.7-2.6 3-.1 0-.2 0-.4.1s-.3.1-.5.1h-1.6c-1.7-.4-3.2-1.1-4.7-2-.6-.4-1.2-.7-1.8-1-.7-.4-1.4-.7-2-1h-.1c-.1 0-.1 0-.2.1-1.9 1-3.5 1.9-5.1 2.8-1.1.6-2.3 1.1-3.5 1.3h-1.5c-.2 0-.4 0-.6-.1-.1 0-.2-.1-.3-.1-.5-.1-1-.3-1.4-.7-1.1-1.1-1.5-2.7-1.1-4.2.4-2.6.8-5.2 1.3-7.7.1-.3 0-.7-.3-.9L14.4 64l-2.7-2.7c-.9-.7-1.5-1.8-1.7-3v-1.6c0-.2 0-.4.1-.5.8-1.6 2.5-2.6 4.2-2.7 1.4-.2 3-.4 4.5-.6 1.1-.2 2.1-.3 3.2-.5h.1l.1-.1c1.5-3.1 2.6-5.5 3.7-7.7.6-1.4 2-2.3 3.6-2.3.8 0 1.7.3 2.3.8s1 1.1 1.3 1.8l1.1 2.3c.8 1.7 1.7 3.4 2.5 5.2 0 0 0 .1.1.1h.1c1.1.2 2.2.3 3.3.5 1.5.2 3.1.5 4.6.7 1.8.1 3.3 1.2 4 2.8.1.1.1.3.1.5zM50 42.6c-.1 0-.1 0-.2.1-1.9 1-3.5 1.9-5.1 2.8-1.1.6-2.3 1.1-3.5 1.3h-1.5c-.2 0-.4 0-.6-.1-.1 0-.2-.1-.3-.1-.5-.1-1-.3-1.4-.7-1.1-1.1-1.5-2.7-1.1-4.2.4-2.6.8-5.2 1.3-7.7.1-.3 0-.7-.3-.9l-2.4-2.4-2.7-2.7c-.9-.7-1.5-1.8-1.7-3v-1.6c0-.2 0-.4.1-.5.8-1.6 2.5-2.6 4.2-2.7 1.4-.2 3-.4 4.5-.6 1.1-.2 2.1-.3 3.2-.5h.1l.1-.1c1.5-3.1 2.6-5.5 3.7-7.7C47 9.9 48.4 9 50 9c.8 0 1.7.3 2.3.8s1 1.1 1.3 1.8l1.1 2.3c.8 1.7 1.7 3.4 2.5 5.2 0 0 0 .1.1.1h.1c1.1.2 2.2.3 3.3.5 1.5.2 3.1.5 4.6.7 1.8.1 3.3 1.2 4 2.8.1.1.1.3.1.5V25c-.2 1.2-.8 2.2-1.7 3l-2.5 2.5-2.5 2.5c-.3.2-.5.7-.4 1.1.4 1.9.7 3.9 1 5.8l.3 1.7c.1.7.1 1.4.1 2-.1 1.5-1.2 2.7-2.6 3-.1 0-.2 0-.4.1s-.3.1-.5.1h-1.6c-1.7-.4-3.2-1.1-4.7-2-.6-.4-1.2-.7-1.8-1-.7-.4-1.4-.7-2-1 0-.2-.1-.2-.1-.2m40 15.5c-.2 1.2-.8 2.2-1.7 3l-2.5 2.5-2.5 2.5c-.3.2-.5.7-.4 1.1.4 1.9.7 3.9 1 5.8l.3 1.7c.1.7.1 1.4.1 2-.1 1.6-1.4 2.9-3 3.1-.2.1-.3.1-.5.1h-1.6c-1.7-.4-3.2-1.1-4.7-2-.6-.4-1.2-.7-1.8-1-.7-.4-1.4-.7-2-1h-.1c-.1 0-.1 0-.2.1-1.9 1-3.5 1.9-5.1 2.8-1.1.6-2.3 1.1-3.5 1.3h-1.5c-.2 0-.4 0-.6-.1-.1 0-.2-.1-.3-.1-.5-.1-1-.3-1.4-.7-1.1-1.1-1.5-2.7-1.1-4.2.4-2.6.8-5.2 1.3-7.7.1-.3 0-.7-.3-.9L55.5 64l-2.7-2.7c-.9-.7-1.5-1.8-1.7-3v-1.6c0-.2 0-.4.1-.5.8-1.6 2.5-2.6 4.2-2.7 1.4-.2 3-.4 4.5-.6 1.1-.2 2.1-.3 3.2-.5h.1l.1-.1c1.5-3.1 2.6-5.5 3.7-7.7.6-1.4 2-2.3 3.6-2.3.8 0 1.7.3 2.3.8s1 1.1 1.3 1.8l1.1 2.3c.8 1.7 1.7 3.4 2.5 5.2 0 0 0 .1.1.1h.1c1.1.2 2.2.3 3.3.5 1.5.2 3.1.5 4.6.7 1.8.1 3.3 1.2 4 2.8.1.1.1.3.1.5z" style="fill:#fff"/></svg>