<svg xmlns="http://www.w3.org/2000/svg" xml:space="preserve" viewBox="0 0 56 56"><title>game_info_developer</title><path fill="#666" d="M55.8 50.5V28.6c0-4.5-3.7-8.3-8.3-8.3l-9.2 10.8v2.4H17.1c-2 0-3.6 1.6-3.6 3.6s1.6 3.6 3.6 3.6h20.7s.8-.1.9-.1c.9 0 1.6-.4 2.2-1l7.1-7.7c.2-.2.6-.3.9-.1s.3.6.1.9l-7.2 7.8c-.8.9-1.9 1.4-3.1 1.4h-.3v8.5" style="fill:#fff"/><circle cx="36.9" cy="14.6" r="9.1" fill="#666" style="fill:#fff"/><path fill="#666" d="m-.1 25.2 6.5 19c.2.6.8 1 1.4 1H31c.8 0 1.5-.6 1.5-1.5 0-.8-.6-1.5-1.5-1.5H8.9l-6.2-18c-.3-.8-1.1-1.2-1.9-.9-.7.3-1.1 1.1-.9 1.9" style="fill:#fff"/></svg>