<svg xmlns="http://www.w3.org/2000/svg" xml:space="preserve" viewBox="0 0 47 47"><g fill="#666" style="fill:#fff;fill-opacity:1"><path d="M46.9 20.1c-.2-.3-.5-.6-.9-.6h-2.9C41.2 9.5 32.4 1.8 21.7 1.8 9.7 1.8 0 11.5 0 23.5s9.7 21.7 21.7 21.7c7.7 0 14.9-4.2 18.8-10.9.5-.9.2-2.2-.7-2.7s-2.2-.2-2.7.7c-3.2 5.5-9.1 8.9-15.4 8.9-9.8 0-17.8-8-17.8-17.8s8-17.8 17.8-17.8c8.4 0 15.5 5.9 17.3 13.8h-2.9q-.6 0-.9.6c-.2.3-.1.8.1 1.1l4.9 5.9c.2.2.5.4.8.4s.6-.1.8-.4l4.9-5.9c.3-.2.4-.6.2-1" style="fill:#fff;fill-opacity:1"/><path d="M21.7 6.7c-1.1 0-2 .9-2 2v12c-.9.6-1.5 1.7-1.5 2.8 0 1.9 1.6 3.5 3.5 3.5q.75 0 1.5-.3l6.9 4c.3.2.6.3 1 .3.7 0 1.3-.4 1.7-1 .5-.9.2-2.2-.7-2.7l-6.9-4c-.1-1-.6-2-1.4-2.5v-12c-.1-1.2-1-2.1-2.1-2.1m0 18.3c-.8 0-1.5-.7-1.5-1.5s.7-1.5 1.5-1.5 1.5.7 1.5 1.5-.7 1.5-1.5 1.5" style="fill:#fff;fill-opacity:1"/></g></svg>