<svg xmlns="http://www.w3.org/2000/svg" xml:space="preserve" viewBox="0 0 47 47"><g style="fill:#fff;fill-opacity:1"><path d="M41.725 23.293A19.816 19.816 0 0 1 21.91 43.109 19.816 19.816 0 0 1 2.093 23.293 19.816 19.816 0 0 1 21.909 3.476a19.816 19.816 0 0 1 19.816 19.817Z" style="fill:none;fill-rule:evenodd;stroke:#fff;stroke-width:3.96946;paint-order:markers fill stroke" transform="translate(1.4)"/><path fill="#666" d="M21.7 6.7c-1.1 0-2 .9-2 2v12c-.9.6-1.5 1.7-1.5 2.8 0 1.9 1.6 3.5 3.5 3.5q.75 0 1.5-.3l6.9 4c.3.2.6.3 1 .3.7 0 1.3-.4 1.7-1 .5-.9.2-2.2-.7-2.7l-6.9-4c-.1-1-.6-2-1.4-2.5v-12c-.1-1.2-1-2.1-2.1-2.1m0 18.3c-.8 0-1.5-.7-1.5-1.5s.7-1.5 1.5-1.5 1.5.7 1.5 1.5-.7 1.5-1.5 1.5" style="fill:#fff;fill-opacity:1" transform="translate(1.4)"/></g></svg>