<svg xmlns="http://www.w3.org/2000/svg" xml:space="preserve" viewBox="0 0 45 45"><path fill="none" d="M23.2 11.9v-1.4h-1.5v1.4c.5.1 1.1.1 1.5 0m-15 .1c-.3-.3-.8-.3-1.1 0L6 13.1c-.3.3-.3.8 0 1.1l1.6 1.6 2.1-2.1zm14.3 15.7c-.4 0-.7.3-.7.7s.3.7.7.7.7-.3.7-.7c0-.3-.3-.7-.7-.7M11.4 16.3l-1.1-1.1-1.1 1.1 1.1 1.1c.4-.4.7-.8 1.1-1.1m27.5-2.1c.3-.3.3-.8 0-1.1l-1-1.1c-.3-.3-.8-.3-1.1 0l-1.6 1.6 2.1 2.1zM24 6.7c0-.4-.3-.7-.8-.7h-1.5c-.4 0-.7.3-.7.7V9h3z"/><path fill="none" d="M20.3 11.5v-1c-.4 0-.7-.3-.7-.7v-3c0-1.2 1-2.2 2.2-2.2h1.5c1.2 0 2.2 1 2.2 2.2v3c0 .4-.3.7-.7.7v1c1.8-.9 3-2.7 3-4.7 0-2.9-2.4-5.2-5.3-5.2S17.3 4 17.3 6.9c0 1.9 1.1 3.7 3 4.6m13.3 4.8c.4.3.7.7 1.1 1.1l1.1-1.1-1.1-1.1zm-11.1-2.8c-8.3 0-15 6.7-15 15s6.7 15 15 15 15-6.7 15-15-6.7-15-15-15m9.1 23.9c0 .1-.1.1-.1.1-5 4.9-12.9 4.9-17.9 0-.1 0-.1-.1-.1-.1-4.9-5-4.9-12.9 0-17.9 0-.1.1-.1.1-.1 5-4.9 12.9-4.9 17.9 0 0 0 .1 0 .1.1l.1.1c4.8 4.9 4.8 12.9-.1 17.8"/><path fill="none" d="M31.5 27.7h2.2c-.2-2.5-1.1-4.8-2.8-6.7l-1.6 1.6c-.3.3-.8.3-1.1 0s-.3-.8 0-1.1l1.6-1.6c-1.9-1.6-4.2-2.6-6.7-2.8v2.2c0 .4-.3.7-.7.7s-.7-.3-.7-.7v-2.2c-2.5.2-4.8 1.1-6.7 2.8l1.6 1.6c.3.3.3.8 0 1.1s-.8.3-1.1 0L14 21.1c-1.6 1.9-2.6 4.2-2.8 6.7h2.2c.4 0 .7.3.7.7s-.3.7-.7.7h-2.2c.2 2.5 1.1 4.8 2.8 6.7l1.6-1.6c.3-.3.8-.3 1.1 0s.3.8 0 1.1L15.1 37c1.9 1.6 4.2 2.6 6.7 2.8v-2.2c0-.4.3-.7.7-.7s.7.3.7.7v2.2c2.5-.2 4.8-1.1 6.7-2.8l-1.6-1.6c-.3-.3-.3-.8 0-1.1s.8-.3 1.1 0l1.6 1.6c1.6-1.9 2.6-4.2 2.8-6.7h-2.2c-.4 0-.7-.3-.7-.7-.2-.4.2-.8.6-.8m-3 1.5h-3.9c0 .1-.1.2-.1.2-.5 1.1-1.9 1.6-3 1.1s-1.6-1.9-1.1-3l-2.7-2.7c-.3-.3-.3-.8 0-1.1s.8-.3 1.1 0l2.7 2.7c.1 0 .1-.1.2-.1 1.2-.4 2.5.2 2.9 1.4h3.9c.4 0 .7.3.7.7 0 .5-.3.8-.7.8"/><path fill="#666" d="M36.8 17.3c.3.3.8.3 1.1 0l2.1-2.1c.9-.9.9-2.3 0-3.2l-1.1-1c-.9-.9-2.3-.9-3.2 0l-2.1 2.1c-.3.3-.3.8 0 1.1l-1.2 1.2c-1.9-1.4-4-2.4-6.3-2.9 3.1-2 4-6.2 2-9.3s-6.2-4-9.3-2-4 6.2-2 9.3c.5.8 1.2 1.5 2 2-2.3.5-4.4 1.5-6.3 2.9l-1.2-1.2c.3-.3.3-.8 0-1.1L9.2 11c-.9-.9-2.3-.9-3.2 0l-1 1c-.9.9-.9 2.3 0 3.2l2.1 2.1c.3.3.8.3 1.1 0l1.2 1.2C7.2 21.4 6 24.9 6 28.5 6 37.6 13.4 45 22.5 45S39 37.6 39 28.5c0-3.6-1.2-7.1-3.4-10zm0-5.3c.3-.3.8-.3 1.1 0l1.1 1.1c.3.3.3.8 0 1.1l-1.6 1.6-2.1-2.1zM17.3 6.7c0-2.9 2.3-5.2 5.2-5.3s5.2 2.3 5.3 5.2c0 2-1.2 3.9-3 4.7v-1c.4 0 .7-.3.7-.7v-3c0-1.2-1-2.2-2.2-2.2h-1.5c-1.2 0-2.2 1-2.2 2.2v3c0 .4.3.7.7.7v1c-1.9-.7-3-2.5-3-4.6M21 9V6.7c0-.4.3-.7.7-.7h1.5c.5 0 .8.3.8.7V9zm2.2 1.5v1.4q-.75.15-1.5 0v-1.4zM7.7 15.7l-1.6-1.6c-.3-.3-.3-.8 0-1.1l1-1c.3-.3.8-.3 1.1 0l1.6 1.6zm1.5.6 1.1-1.1 1.1 1.1c-.4.3-.7.7-1.1 1.1zm26 12.2c0 7-5.7 12.7-12.7 12.7S9.8 35.5 9.8 28.5s5.7-12.7 12.7-12.7c7-.1 12.7 5.7 12.7 12.7m-.5-11.1c-.3-.4-.7-.7-1.1-1.1l1.1-1.1 1.1 1.1z" style="fill:#fff"/><path fill="#666" d="M31.5 19.5q0-.15 0 0c-5-5-13-5-18-.1-.1 0-.1.1-.1.1-4.9 5-4.9 12.9 0 17.9 0 .1.1.1.1.1 5 4.9 12.9 4.9 17.9 0 .1 0 .1-.1.1-.1 5-4.9 5-12.9 0-17.9.1 0 0 0 0 0m0 9.7h2.2c-.2 2.5-1.1 4.8-2.8 6.7l-1.6-1.6c-.3-.3-.8-.3-1.1 0s-.3.8 0 1.1l1.6 1.6c-1.9 1.6-4.2 2.6-6.7 2.8v-2.2c0-.4-.3-.7-.7-.7s-.7.3-.7.7v2.2c-2.5-.2-4.8-1.1-6.7-2.8l1.6-1.6c.3-.3.3-.8 0-1.1s-.8-.3-1.1 0L14 35.9c-1.6-1.9-2.6-4.2-2.8-6.7h2.2c.4 0 .7-.3.7-.7s-.3-.7-.7-.7h-2.2c.2-2.5 1.1-4.8 2.8-6.7l1.6 1.6c.3.3.8.3 1.1 0s.3-.8 0-1.1L15.1 20c1.9-1.6 4.2-2.6 6.7-2.8v2.2c0 .4.3.7.7.7s.7-.3.7-.7v-2.2c2.5.2 4.8 1.1 6.7 2.8l-1.6 1.6c-.3.3-.3.8 0 1.1s.8.3 1.1 0l1.6-1.6c1.6 1.9 2.6 4.2 2.8 6.7h-2.2c-.4 0-.7.3-.7.7-.2.4.2.7.6.7" style="fill:#fff"/><path fill="#666" d="M28.5 27.7h-3.9c-.4-1.2-1.7-1.8-2.9-1.4-.1 0-.1.1-.2.1l-2.7-2.7c-.3-.3-.8-.3-1.1 0s-.3.8 0 1.1l2.7 2.7c-.5 1.1-.1 2.5 1.1 3 1.1.5 2.5.1 3-1.1 0-.1.1-.2.1-.2h3.9c.4 0 .7-.3.7-.7s-.3-.8-.7-.8m-6 1.5c-.4 0-.7-.3-.7-.7s.3-.7.7-.7.7.3.7.7-.3.7-.7.7" style="fill:#fff"/></svg>