<svg xmlns="http://www.w3.org/2000/svg" xml:space="preserve" viewBox="0 0 45 45"><title>game_info_genre</title><path fill="#666" d="M4 22c-.2-.2-.4-.4-.5-.6-.9-1.6-1.7-3.3-2.5-4.9-.5-1.1-.1-2 .6-2.9.7-.7.7-.7.3-1.8-.7.2-1.4.5-2-.5.3-.2.6-.4.9-.5.7-.3 1-.6.9-1.4V7.7c.1-1.5 1-2.9 2.4-3.6 2.6-1.4 5.2-2.6 8-3.8 2-.9 3.9-.2 5.4 1.2.7.7 1.3.8 2.1.3.2-.1.5-.2.7-.3.4 1-.3 1.4-.9 1.9.3.7.7 1 1.6.9 1.4-.1 2.3.4 2.8 1.7.8 1.8 1.6 3.6 2.4 5.5.5 1.3.5 1.6-.8 2.2-.9.4-1.8.9-2.7 1.3-.1 0-.2 0-.4.1l-.9-1.2L8.8 20c.1.5.2 1 .4 1.6-.9.4-1.9.8-2.9 1.2-.8-.2-1.6-.6-2.3-.8M17.7 4.2c-.6-.6-1.1-1.2-1.7-1.8-.9-.9-2.2-1.1-3.3-.6C10.1 3 7.5 4.2 5 5.5c-1 .4-1.6 1.4-1.7 2.4 0 1 .1 2 .2 3.1 2.3-.5 12.3-5.3 14.2-6.8m1.2 6.6L7.8 16c.6 1.1 1.4 1.4 2.7.8 1.3-.5 2.5-1.2 3.8-1.8 1.2-.6 2.4-1.1 3.6-1.7s1.4-1.4 1-2.5m1.8-2.6c.5-.1.9-.6.8-1.1 0-.5-.5-.9-1-1-.5-.2-1.1.1-1.3.6-.2.7-.7 1.3-1.4 1.8-.2.1-.3.6-.2.7.2.2.5.3.8.2.8-.4 1.6-.8 2.3-1.2m-16 7.6c.8-.4 1.7-.7 2.4-1 .2-.2.3-.5.3-.7-.1-.2-.4-.4-.7-.3-.7.2-1.5.2-2.2-.1-.5-.2-1 0-1.3.5s-.3 1 .1 1.4c.3.5.9.5 1.4.2m17.7-6.1c-.6.3-.9.9-.6 1.5.3.5.9.8 1.5.5s.9-.9.6-1.5c-.3-.5-.9-.7-1.5-.5M4.9 18c-.6.3-.8.9-.5 1.5v.1c.3.5.9.8 1.5.5.5-.3.8-.9.5-1.5s-.9-.8-1.5-.6c.1 0 0 0 0 0m29.6-3.2c-5.8 0-10.6 4.7-10.6 10.6S28.7 36 34.5 36s10.6-4.7 10.6-10.6c0-5.8-4.7-10.6-10.6-10.6m-6.8 17.8c-1.9-1.9-3-4.4-3-7.1v-.2l2.8.9 1.9 5zM30 18l5-1.8 3.6 3.3-2.9 4.2-5.5-1zm11.1 14.7c-.2.2-.4.4-.6.5L36.3 35l-2.7-2.8 3.5-3.9 4.7.6zm1.3-13.2c1.3 1.7 1.9 3.8 1.9 5.9v.2l-.5-.1-1.7-4.7zM13.9 43.9l1.1-1.6c.7-1 1.5-1.7 1.8-1.5s.5.9.7 1.4c.1.3.4.6.7.8.9.6 2.1.4 2.7-.5s.4-2.1-.5-2.7q-.45-.3-.9-.3c-.5 0-1.2 0-1.5-.1-.3-.2 0-1.2.7-2.3l1.4-2c.7-1 .4-2.4-.6-3.2l-1.9-1.2c-1-.7-1.8-1.4-1.6-1.7s.8-.4 1.3-.6c.3-.1.6-.4.8-.7.6-.9.4-2.1-.5-2.7s-2.1-.4-2.7.5q-.3.45-.3.9c0 .5.1 1.2-.1 1.4-.2.3-1.1-.1-2.2-.8l-1.9-1.2c-1-.7-2.4-.4-3.2.6L6 28.3c-.7 1-1 2-.7 2.3.3.2.9.1 1.5.1q.6 0 .9.3c.9.6 1.1 1.8.5 2.7s-1.8 1.1-2.6.5c-.3-.2-.6-.4-.7-.7-.2-.5-.4-1.2-.7-1.4s-1.1.5-1.8 1.5l-1.2 1.9c-.7 1-.4 2.4.6 3.2l1.9 1.2c1 .7 2 1 2.2.8.2-.3.1-.9.1-1.4q0-.6.3-.9c.6-.9 1.8-1.1 2.7-.5s1.1 1.8.5 2.7c-.2.3-.5.5-.8.7-.5.2-1.1.4-1.3.6-.2.3.5 1 1.6 1.7l1.9 1.2c.9.4 2.3.1 3-.9" style="fill:#fff"/></svg>