<svg xmlns="http://www.w3.org/2000/svg" xml:space="preserve" viewBox="0 0 48 48"><path fill="#666" d="M48 32.1c-.6-5.5-5.8-10.7-11.4-11.3-.5-.1-.9-.1-1.4-.1h-8.8v-3.2h-1.6v-1.6c0-1.8-1.4-3.2-3.2-3.2h-4c-.9 0-1.6-.7-1.6-1.6s.7-1.6 1.6-1.6h12.9c1.8 0 3.2-1.4 3.2-3.2s-1.4-3.2-3.2-3.2h-4c-.9 0-1.6-.7-1.6-1.6h-1.6c0 1.8 1.4 3.2 3.2 3.2h4c.9 0 1.6.7 1.6 1.6s-.7 1.6-1.6 1.6h-13c-1.8 0-3.2 1.4-3.2 3.2s1.4 3.2 3.2 3.2h4c.9 0 1.6.7 1.6 1.6v1.6h-1.6v3.2h-8.8c-.5 0-.9 0-1.4.1C5.7 21.4.6 26.6-.1 32.2c-.8 7.1 4.3 13.4 11.3 14.2 2.9.3 5.8-.3 8.2-1.8 1.1-.7 2.3-1.1 3.5-1.2.6-.1 1.2-.1 1.9 0 1.3.1 2.5.6 3.6 1.3 6 3.7 14 1.9 17.7-4.2 1.6-2.6 2.2-5.5 1.9-8.4m-28.9 2.8c0 .4-.4.8-.8.8h-3.2v3.2c0 .4-.4.8-.8.8h-3.2c-.4 0-.8-.4-.8-.8v-3.2H7.1c-.4 0-.8-.4-.8-.8v-3.2c0-.4.4-.8.8-.8h3.2v-3.2c0-.4.4-.8.8-.8h3.2c.4 0 .8.4.8.8v3.2h3.2c.5 0 .8.4.8.8zm5.7-14.4h-1.6v-1.6h1.6zm10.4 4.8c1.8 0 3.2 1.4 3.2 3.2s-1.4 3.2-3.2 3.2-3.2-1.4-3.2-3.2 1.4-3.2 3.2-3.2m-5.6 11.2c-1.8 0-3.2-1.4-3.2-3.2s1.4-3.2 3.2-3.2 3.2 1.4 3.2 3.2-1.4 3.2-3.2 3.2m5.6 4.8c-1.8 0-3.2-1.4-3.2-3.2s1.4-3.2 3.2-3.2 3.2 1.4 3.2 3.2-1.4 3.2-3.2 3.2m5.6-4.8c-1.8 0-3.2-1.4-3.2-3.2s1.4-3.2 3.2-3.2 3.2 1.4 3.2 3.2-1.4 3.2-3.2 3.2" style="fill:#fff"/></svg>