<svg xmlns="http://www.w3.org/2000/svg" xml:space="preserve" viewBox="0 0 45 45"><path fill="#666" d="M33.7 23.3c0-.1.1-.2.1-.4 0-.7-.6-1.3-1.3-1.3H16.3c-.7 0-1.3.6-1.3 1.3 0 .1 0 .3.1.4zm6.7 2.7h-4.7c.1-.2.1-.4.1-.6 0-.9-.7-1.6-1.6-1.6H14.5c-.9 0-1.6.7-1.6 1.6 0 .2 0 .4.1.6h-1.5c.1-.5-.2-1.2-.9-1.2s-1 .6-.9 1.2H8.4c-.8 0-1.4.6-1.4 1.4v5c-3.8.8-5.3 5-1.8 7.6 1.8 1.4 4.4 1.3 6.6 1.2 3.4-.1 6.3.8 8.5 3.5.8 1 2.2-.4 1.4-1.4-1.8-2.2-4.2-3.6-7-4-1.5-.2-3.1-.1-4.6 0-.9 0-1.8-.1-2.6-.3-2.7-.7-2.8-3.9-.4-4.6v1c0 .8.6 1.4 1.4 1.4h32c.8 0 1.4-.6 1.4-1.4v-7.9c-.1-.9-.8-1.5-1.5-1.5M20.5 11.7l1.6 7.7h-3.2c-.6 0-1 .5-1 1 0 .2.1.5.2.6h12.5c.1-.2.2-.4.2-.6 0-.6-.5-1-1-1h-3.7l-1.8-8.6c1.6-1 2.7-2.9 2.7-5 0-3.2-2.6-5.9-5.9-5.9s-5.9 2.6-5.9 5.9c.1 3.1 2.4 5.6 5.3 5.9m2.6-9.2c1.6.8 2.2 2.8 1.5 4.4-.4 1-1.8.1-1.4-.8.4-.8-.1-1.7-.9-2.1-1-.6-.1-2 .8-1.5" style="fill:#fff"/></svg>