<svg xmlns="http://www.w3.org/2000/svg" width="24" height="24" viewBox="0 0 24 24"><path d="m.46 16.39 1.876-5.276C3.124 8.992.433 8.618.433 8.618c-.598-.344 0-.719 0-.719.625.156 1.087-.749 1.087-.749l.353-.843c.19-.5.245-.562.027-1.53-.217-.968.476-.92.598-.78.123.141.503.359.789.03.285-.327 1.005-.31 1.005-.31l.272-.625h.299l.299.624h5.272v.187h11.033v-.312h.218a.9.9 0 0 1 .19-.437c.897 0 1.087.78 1.087.78h.707c.407.844-.028 1.78-.028 1.78h-.788v2.528h-1.658l-.135.407h-4.13c-3.859 0-3.18 3.714-3.18 3.714-2.908 1.53-4.728.563-4.728.563-1.44-.344-1.712 1.061-1.712 1.061l-.978 4.465c-.082.78.033 1.247.033 1.247l-.001.064h.001v.63s.023.342-.388.289l-4.56-.441c-.11.214-.312.359-.543.359-.351 0-.634-.326-.634-.728 0-.08.014-.142.034-.195l-.138-.001c-.327-2.092.325-3.285.325-3.285m1.78-12.303c-.114 0-.207.107-.207.239 0 .131.093.238.207.238.115 0 .208-.107.208-.238 0-.132-.093-.239-.208-.239m5.747 7.37c.082.563.598.875.598.875 1.763.68 2.896.49 3.79.181 1.093-.377 1.02-1.587 1.02-1.587 0-1.654-1.495-1.622-1.495-1.622h-1.223c-.68 1.872.978 2.716.978 2.716.219.062 0 .25 0 .25-1.005-.031-1.82-1.905-1.82-1.905l.027-.78-.38-.281c-1.495 0-1.577 1.592-1.495 2.154M.461 19.872c0 .261.185.473.411.473.228 0 .412-.212.412-.473a.5.5 0 0 0-.034-.186l-.753-.007a.5.5 0 0 0-.036.193" style="stroke-width:.07256222;fill:#fff"/></svg>