<svg xmlns="http://www.w3.org/2000/svg" viewBox="0 0 99 19"><path d="M24 15.85V3.25h4.6q2.02 0 3.18.96 1.16.97 1.16 2.86 0 1.31-.56 2.15-.55.83-1.58 1.34l2.84 5.29h-2.57l-2.43-4.68H26.3v4.68zm2.3-6.61h1.69q2.54 0 2.54-2.05 0-.99-.58-1.5-.57-.51-1.87-.51H26.3zm16.538 6.61-1.04-2.99h-4.59l-1.04 2.99h-2.24l4.49-12.6h2.17l4.49 12.6zm-4.91-5h3.15l-1.57-4.5zm8.59 5V3.25h2.26l5.39 8.14V3.25h2.3v12.6h-1.89l-5.76-8.64v8.64zm12.725 0V3.25h4.71q1.8 0 3.22.76a5.34 5.34 0 0 1 2.2 2.17q.79 1.43.79 3.37t-.79 3.37a5.34 5.34 0 0 1-2.2 2.17q-1.42.76-3.22.76zm2.3-2.05h2.41q1.8 0 2.75-1.13.94-1.12.94-3.12t-.94-3.12q-.95-1.13-2.75-1.13h-2.41zm16.11 2.3q-1.78 0-3.19-.82a5.76 5.76 0 0 1-2.22-2.3q-.8-1.49-.8-3.43t.8-3.43a5.76 5.76 0 0 1 2.22-2.3q1.41-.82 3.19-.82t3.2.82a5.8 5.8 0 0 1 2.21 2.3q.8 1.49.8 3.43t-.8 3.43a5.8 5.8 0 0 1-2.21 2.3q-1.42.82-3.2.82m0-2.23q1.84 0 2.82-1.19t.98-3.13-.98-3.13-2.82-1.19-2.82 1.19-.98 3.13.98 3.13 2.82 1.19m7.522 1.98 1.75-12.6h1.89l3.08 5.74 3.06-5.74h1.89l1.74 12.6h-2.39l-1.08-8.44-3.22 5.79-3.24-5.77-1.08 8.42z" style="fill:#fff;white-space:pre"/><circle cx="6.101" cy="5.323" r="2.5" style="paint-order:stroke;stroke:#fff;fill:#fff" transform="translate(3.399 1.177)"/><circle cx="6.101" cy="5.323" r="2.5" style="stroke:#fff;fill-rule:evenodd;fill:none" transform="translate(-3.101 1.177)"/><circle cx="6.101" cy="5.323" r="2.5" style="stroke:#fff;fill:none" transform="translate(9.899 1.177)"/><circle cx="6.101" cy="5.323" r="2.5" style="paint-order:stroke;stroke:#fff;fill:none" transform="translate(3.399 7.677)"/><circle cx="6.101" cy="5.323" r="2.5" style="stroke:#fff;fill-rule:evenodd;fill:none" transform="translate(-3.101 7.677)"/><circle cx="6.101" cy="5.323" r="2.5" style="stroke:#fff;fill:none" transform="translate(9.899 7.677)"/></svg>