<svg xmlns="http://www.w3.org/2000/svg" viewBox="0 0 102 19"><circle cx="6.101" cy="5.323" r="2.5" style="paint-order:stroke;stroke:#fff;fill:none" transform="translate(3.399 1.177)"/><circle cx="6.101" cy="5.323" r="2.5" style="stroke:#fff;fill-rule:evenodd;fill:none" transform="translate(-3.1 1.177)"/><circle cx="6.101" cy="5.323" r="2.5" style="stroke:#fff;fill:none" transform="translate(9.899 1.177)"/><path d="M24 15.85V3.25h7.75v2.23H26.3v2.68h4.21v2.24H26.3v5.45zm16.066 0-1.04-2.99h-4.59l-1.04 2.99h-2.24l4.49-12.6h2.17l4.49 12.6zm-4.91-5h3.15l-1.57-4.5zm15.228-7.6h2.32l-4.48 12.6h-2.18l-4.48-12.6h2.32l3.24 9.27zm8.964 12.85q-1.78 0-3.19-.82a5.76 5.76 0 0 1-2.22-2.3q-.8-1.49-.8-3.43t.8-3.43a5.76 5.76 0 0 1 2.22-2.3q1.41-.82 3.19-.82t3.2.82a5.8 5.8 0 0 1 2.21 2.3q.8 1.49.8 3.43t-.8 3.43a5.8 5.8 0 0 1-2.21 2.3q-1.42.82-3.2.82m0-2.23q1.839 0 2.82-1.19t.98-3.13-.98-3.13q-.981-1.19-2.82-1.19-1.84 0-2.82 1.19t-.98 3.13.98 3.13 2.82 1.19m8.229 1.98V3.25h4.6q2.02 0 3.18.96 1.16.97 1.16 2.86 0 1.31-.56 2.15-.55.83-1.58 1.34l2.84 5.29h-2.57l-2.43-4.68h-2.34v4.68zm2.3-6.61h1.69q2.54 0 2.54-2.05 0-.99-.58-1.5-.57-.51-1.87-.51h-1.78zm8.968 6.61V3.25h2.3v12.6zm7.516 0V5.48h-3.56V3.25h9.43v2.23h-3.56v10.37zm7.532 0V3.25h8.06v2.23h-5.71v2.68h4.43v2.24h-4.43v3.22h5.89v2.23z" style="fill:#fff;white-space:pre"/><circle cx="6.101" cy="5.323" r="2.5" style="paint-order:stroke;stroke:#fff;fill:#fff" transform="translate(3.399 7.677)"/><circle cx="6.101" cy="5.323" r="2.5" style="stroke:#fff;fill-rule:evenodd;fill:none" transform="translate(-3.1 7.677)"/><circle cx="6.101" cy="5.323" r="2.5" style="stroke:#fff;fill:none" transform="translate(9.899 7.677)"/></svg>