<svg xmlns="http://www.w3.org/2000/svg" viewBox="0 0 91 19"><path d="M24 15.85V3.25h2.3V13.8h5.18v2.05zm16.57 0-1.04-2.99h-4.59l-1.04 2.99h-2.24l4.49-12.6h2.17l4.49 12.6zm-4.91-5h3.15l-1.57-4.5zm13.354 5.25q-2.59 0-3.9-1.5-1.32-1.5-1.32-4.15v-7.2h2.31v6.61q0 1.31.23 2.18.23.88.87 1.36.64.49 1.81.49t1.81-.49q.639-.48.87-1.36.24-.87.24-2.18V3.25h2.3v7.2q0 2.65-1.31 4.15-1.32 1.5-3.91 1.5m7.854-.25V3.25h2.26l5.39 8.14V3.25h2.3v12.6h-1.89l-5.76-8.64v8.64zm18.425.25q-1.91 0-3.37-.81a5.67 5.67 0 0 1-2.28-2.29q-.81-1.49-.81-3.45 0-1.94.84-3.43a5.84 5.84 0 0 1 2.32-2.3q1.48-.82 3.37-.82 1.82 0 3.26.74l-.25 2.19a10 10 0 0 0-1.48-.53 6 6 0 0 0-1.54-.19q-1.93 0-2.96 1.19-1.04 1.19-1.04 3.15t1.02 3.15q1.01 1.19 2.92 1.19a6.3 6.3 0 0 0 1.56-.18q.71-.18 1.52-.54l.25 2.19q-1.56.74-3.33.74m5.262-.25V3.25h2.3v4.99h5.76V3.25h2.3v12.6h-2.3V10.4h-5.76v5.45z" style="fill:#fff;white-space:pre"/><circle cx="6.101" cy="5.323" r="2.5" style="paint-order:stroke;stroke:#fff;fill:none" transform="translate(3.399 1.177)"/><circle cx="6.101" cy="5.323" r="2.5" style="stroke:#fff;fill-rule:evenodd;fill:#fff" transform="translate(-3.101 1.177)"/><circle cx="6.101" cy="5.323" r="2.5" style="stroke:#fff;fill:none" transform="translate(9.899 1.177)"/><circle cx="6.101" cy="5.323" r="2.5" style="paint-order:stroke;stroke:#fff;fill:none" transform="translate(3.399 7.677)"/><circle cx="6.101" cy="5.323" r="2.5" style="stroke:#fff;fill-rule:evenodd;fill:none" transform="translate(-3.101 7.677)"/><circle cx="6.101" cy="5.323" r="2.5" style="stroke:#fff;fill:none" transform="translate(9.899 7.677)"/></svg>