<?xml version="1.0" encoding="UTF-8" standalone="no"?>
<svg
   viewBox="0 0 128 128"
   version="1.1"
   id="svg1"
   sodipodi:docname="invader.svg"
   inkscape:version="1.3.2 (091e20e, 2023-11-25, custom)"
   xmlns:inkscape="http://www.inkscape.org/namespaces/inkscape"
   xmlns:sodipodi="http://sodipodi.sourceforge.net/DTD/sodipodi-0.dtd"
   xmlns="http://www.w3.org/2000/svg"
   xmlns:svg="http://www.w3.org/2000/svg">
  <defs
     id="defs1" />
  <sodipodi:namedview
     id="namedview1"
     pagecolor="#505050"
     bordercolor="#eeeeee"
     borderopacity="1"
     inkscape:showpageshadow="0"
     inkscape:pageopacity="0"
     inkscape:pagecheckerboard="0"
     inkscape:deskcolor="#505050"
     inkscape:zoom="8.8828125"
     inkscape:cx="64"
     inkscape:cy="64"
     inkscape:window-width="2560"
     inkscape:window-height="1351"
     inkscape:window-x="-9"
     inkscape:window-y="-9"
     inkscape:window-maximized="1"
     inkscape:current-layer="svg1" />
  <path
     d="M 83,52 V 62 H 93 V 52 Z M 43,52 V 62 H 53 V 52 Z m 0,40 h 20 v 10 H 43 Z m 50,0 v 10 H 73 V 92 Z M 93,32 V 22 h 10 V 32 Z M 43,32 H 53 V 42 H 83 V 32 h 10 v 10 h 10 v 10 h 10 v 10 h 10 V 92 H 113 V 72 H 103 V 92 H 93 V 82 H 43 V 92 H 33 V 72 H 23 V 92 H 13 V 62 H 23 V 52 H 33 V 42 H 43 Z M 33,22 H 43 V 32 H 33 Z"
     style="display:inline;fill:#000000;fill-rule:evenodd;stroke-width:0;stroke-miterlimit:4"
     id="path1-9" />
  <path
     d="M80.05 50.163v10h10v-10zm-40 0v10h10v-10zm0 40h20v10h-20zm50 0v10h-20v-10Zm0-60v-10h10v10zm-50 0h10v10h30v-10h10v10h10v10h10v10h10v30h-10v-20h-10v20h-10v-10h-50v10h-10v-20h-10v20h-10v-30h10v-10h10v-10h10zm-10-10h10v10h-10z"
     style="display:inline;fill:#fff;fill-rule:evenodd;stroke-width:0;stroke-miterlimit:4"
     id="path1" />
</svg>
