<svg xmlns="http://www.w3.org/2000/svg" width="23" height="23"><g style="fill-opacity:1;fill:url(#a);opacity:.15272727" transform="matrix(.05833 0 0 .05692 -10.12 -19.516)"><path d="m245.871 694.135-5.2-1.86-4.128-2.861c-5.354-3.71-11.742-10.863-17.7-19.818l-4.765-7.162-8.542-17-8.542-17-7.274-18.227-7.274-18.226-3.118-11.774-3.119-11.773-.069-20-.069-20 2.302-8 2.301-8 3.94-8.173 3.94-8.173 5.064-6.327c2.785-3.48 6.952-7.853 9.259-9.718l4.194-3.39 7.03-3.288 7.03-3.289 7.81-2.045 7.809-2.046 14.16-1.622 14.161-1.622 8.923-2.44c4.907-1.342 13.187-4.223 18.4-6.4l9.478-3.961 10.1-6.65 10.1-6.65 9.5-10.006a2085 2085 0 0 1 20-20.7l10.5-10.695 7.9-4.607 7.9-4.607 6.798-1.546 6.796-1.545 9.803.017 9.802.017 6.5 1.394c17.18 3.683 31.978 11.252 47.53 24.313l6.887 5.785 6.912 7.987c12.821 14.817 34.397 48.003 45.154 69.451l5.599 11.164 3.11 9.186 3.11 9.186.1 9.5.098 9.5-2.276 4.62-2.277 4.62-4.117 4.077-4.117 4.077-8.106 4.055-8.107 4.056-6.5 1.668-6.5 1.668-12-.069-12-.068-7.669-2.04c-8.887-2.365-13.634-4.636-23.33-11.162-13.012-8.758-37.365-21.162-50-25.468l-5-1.704-4.842.631-4.84.632-7.66 3.022c-13.241 5.226-28.844 14.404-39.568 23.276l-4.908 4.061-2.325 5.078-2.325 5.077-2.074 11.946-2.075 11.947-.842 22-.842 22-2.595 8-2.594 8-4.155 7.5-4.155 7.5-8.6 8.528-8.6 8.527-8.583 4.244-8.583 4.245-6.417.509-6.418.509zM268.18 574.84l13.44-7.093-5.523-10.575c-3.037-5.816-5.41-10.66-5.273-10.766s4.298-2.281 9.248-4.835 9.602-5.03 10.337-5.503l1.337-.86-7.187-13.661-7.187-13.662-10.298 5.525c-5.664 3.038-10.55 5.524-10.856 5.524-.307 0-2.87-4.5-5.694-10l-5.137-10h-.888c-1.34 0-25.827 13.029-26.483 14.091l-.571.924 5.295 9.928c2.912 5.46 5.078 10.114 4.814 10.342s-5.049 2.85-10.63 5.829l-10.15 5.415 6.992 12.985c3.846 7.142 7.211 13.209 7.479 13.481s5.252-1.97 11.079-4.983l10.593-5.48.344.984c.818 2.334 10.444 19.484 10.937 19.484.298 0 6.59-3.192 13.982-7.094m146.486-88.455 2.995-1.548 1.952-3.202 1.952-3.201v-6l-2.018-3.31-2.018-3.31-3.66-1.53-3.658-1.528-2.903.58-2.904.581-2.784 1.983-2.783 1.982-1.26 3.042-1.26 3.043.588 3.627.588 3.626 2.29 2.466c2.711 2.92 5.269 4.098 9.09 4.184l2.799.064zm42.024-23.334 3.882-3.882v-9.081l-2.532-3.01-2.533-3.01-3.467-1.145-3.468-1.144-3.467 1.144-3.467 1.144-2.448 2.91-2.448 2.909-.642 2.92-.641 2.92 1.497 3.582 1.496 3.582 3.31 2.018 3.31 2.018 3.868.004 3.868.004zm-77.607 1.443 3.446-1.44 2.018-3.31 2.018-3.31v-6l-1.952-3.202-1.952-3.201-2.995-1.549-2.994-1.548h-5.199l-2.994 1.548-2.995 1.549-1.952 3.201-1.952 3.202-.004 2.8-.004 2.799 1.548 2.995 1.549 2.994 3.201 1.952 3.202 1.952 2.282.004c1.255.002 3.833-.644 5.728-1.436zm42.592-23.159 2.95-2.826.81-3.038.81-3.037-.817-2.925-.816-2.925-2.695-2.813-2.695-2.812-3.341-.627-3.342-.627-3.003 1.244-3.004 1.244-2.395 2.846-2.395 2.847-.654 2.977-.654 2.977 1.74 3.665 1.738 3.665 3.08 1.936 3.08 1.937 4.326-.44 4.326-.44zm26.71-65.084 1.312-.526.605.604.604.605-1.917-.08-1.917-.078z" style="fill:#e6e6e6;fill-opacity:1"/><path d="m245.871 694.135-5.2-1.86-4.128-2.861c-5.354-3.71-11.742-10.863-17.7-19.818l-4.765-7.162-8.542-17-8.542-17-7.274-18.227-7.274-18.226-3.118-11.774-3.119-11.773-.069-20-.069-20 2.302-8 2.301-8 3.94-8.173 3.94-8.173 5.064-6.327c2.785-3.48 6.952-7.853 9.259-9.718l4.194-3.39 7.03-3.288 7.03-3.289 7.81-2.045 7.809-2.046 14.16-1.622 14.161-1.622 8.923-2.44c4.907-1.342 13.187-4.223 18.4-6.4l9.478-3.961 10.1-6.65 10.1-6.65 9.5-10.006a2085 2085 0 0 1 20-20.7l10.5-10.695 7.9-4.607 7.9-4.607 6.798-1.546 6.796-1.545 9.803.017 9.802.017 6.5 1.394c17.18 3.683 31.978 11.252 47.53 24.313l6.887 5.785 6.912 7.987c12.821 14.817 34.397 48.003 45.154 69.451l5.599 11.164 3.11 9.186 3.11 9.186.1 9.5.098 9.5-2.276 4.62-2.277 4.62-4.117 4.077-4.117 4.077-8.106 4.055-8.107 4.056-6.5 1.668-6.5 1.668-12-.069-12-.068-7.669-2.04c-8.887-2.365-13.634-4.636-23.33-11.162-13.012-8.758-37.365-21.162-50-25.468l-5-1.704-4.842.631-4.84.632-7.66 3.022c-13.241 5.226-28.844 14.404-39.568 23.276l-4.908 4.061-2.325 5.078-2.325 5.077-2.074 11.946-2.075 11.947-.842 22-.842 22-2.595 8-2.594 8-4.155 7.5-4.155 7.5-8.6 8.528-8.6 8.527-8.583 4.244-8.583 4.245-6.417.509-6.418.509zM268.18 574.84l13.44-7.093-5.523-10.575c-3.037-5.816-5.41-10.66-5.273-10.766s4.298-2.281 9.248-4.835 9.602-5.03 10.337-5.503l1.337-.86-7.187-13.661-7.187-13.662-10.298 5.525c-5.664 3.038-10.55 5.524-10.856 5.524-.307 0-2.87-4.5-5.694-10l-5.137-10h-.888c-1.34 0-25.827 13.029-26.483 14.091l-.571.924 5.295 9.928c2.912 5.46 5.078 10.114 4.814 10.342s-5.049 2.85-10.63 5.829l-10.15 5.415 6.992 12.985c3.846 7.142 7.211 13.209 7.479 13.481s5.252-1.97 11.079-4.983l10.593-5.48.344.984c.818 2.334 10.444 19.484 10.937 19.484.298 0 6.59-3.192 13.982-7.094m146.486-88.455 2.995-1.548 1.952-3.202 1.952-3.201v-6l-2.018-3.31-2.018-3.31-3.66-1.53-3.658-1.528-2.903.58-2.904.581-2.784 1.983-2.783 1.982-1.26 3.042-1.26 3.043.588 3.627.588 3.626 2.29 2.466c2.711 2.92 5.269 4.098 9.09 4.184l2.799.064zm42.024-23.334 3.882-3.882v-9.081l-2.532-3.01-2.533-3.01-3.467-1.145-3.468-1.144-3.467 1.144-3.467 1.144-2.448 2.91-2.448 2.909-.642 2.92-.641 2.92 1.497 3.582 1.496 3.582 3.31 2.018 3.31 2.018 3.868.004 3.868.004zm-77.607 1.443 3.446-1.44 2.018-3.31 2.018-3.31v-6l-1.952-3.202-1.952-3.201-2.995-1.549-2.994-1.548h-5.199l-2.994 1.548-2.995 1.549-1.952 3.201-1.952 3.202-.004 2.8-.004 2.799 1.548 2.995 1.549 2.994 3.201 1.952 3.202 1.952 2.282.004c1.255.002 3.833-.644 5.728-1.436zm42.592-23.159 2.95-2.826.81-3.038.81-3.037-.817-2.925-.816-2.925-2.695-2.813-2.695-2.812-3.341-.627-3.342-.627-3.003 1.244-3.004 1.244-2.395 2.846-2.395 2.847-.654 2.977-.654 2.977 1.74 3.665 1.738 3.665 3.08 1.936 3.08 1.937 4.326-.44 4.326-.44zm27.23-65.068.667-.667.667.667.667.667h-2.667z" style="fill:#e4e4e4;fill-opacity:1"/><path d="m448.905 376.267.666-.667.667.667.667.667h-2.667z" style="fill:#d9d8d8;fill-opacity:1"/><path d="M448.571 376.434c0-.275.225-.5.5-.5s.5.225.5.5-.225.5-.5.5a.5.5 0 0 1-.5-.5" style="fill:#646162;fill-opacity:1"/></g></svg>