<svg xmlns="http://www.w3.org/2000/svg" xml:space="preserve" baseProfile="tiny" viewBox="0 0 45.2 45.2"><path fill="#fff" d="M45.1 17.4c-.2-.9-1-1.5-1.9-1.5H28.9c-1.4-4.2-2.7-8.4-4.1-12.6l-.3-.9c-.1-.4-.5-.9-.9-1.1-.1 0-.2-.1-.3-.1H22c-.6.2-1.1.7-1.3 1.3-1.5 4.5-2.9 9-4.4 13.5H2c-.9 0-1.7.6-1.9 1.5-.3.9.2 1.7.9 2.3 3.8 2.8 7.6 5.5 11.4 8.3-1.4 4.2-2.8 8.5-4.1 12.7-.2.2-.3.5-.4.8-.5 1.6 1.5 3.3 2.9 2.3 3.9-2.8 7.8-5.7 11.7-8.5 3.6 2.6 7.3 5.3 10.9 7.9.3.2.5.4.8.6 1.4 1 3.5-.7 2.9-2.3-1.5-4.6-3-9.1-4.4-13.7 3.5-2.6 7.1-5.1 10.6-7.7.3-.2.5-.4.8-.6.8-.5 1.3-1.3 1-2.2M23.6 31.2c-.5-.4-1.5-.4-2 0-2.6 1.9-5.3 3.8-7.9 5.8.9-2.8 1.8-5.5 2.7-8.3l.3-.9c.3-.9-.2-1.7-.9-2.3-2.5-1.8-5.1-3.7-7.6-5.5h9.6c.9 0 1.7-.6 1.9-1.5 1-3 2-6 2.9-9 .9 2.7 1.8 5.4 2.6 8.1l.3.9c.3.9 1 1.5 1.9 1.5H37c-2.3 1.6-4.5 3.3-6.8 4.9-.3.2-.5.4-.8.6-.7.5-1.2 1.3-.9 2.3 1 3.1 2 6.1 3 9.2-2.4-1.7-4.7-3.4-7.1-5.2-.3-.2-.5-.4-.8-.6"/></svg>