<svg xmlns="http://www.w3.org/2000/svg" xml:space="preserve" width="800" height="800" viewBox="0 0 512 512"><path d="M437.02 74.981C388.668 26.628 324.38 0 256 0S123.333 26.628 74.98 74.981C26.628 123.333 0 187.62 0 256s26.628 132.667 74.98 181.019S187.62 512 256 512s132.667-26.628 181.02-74.981C485.372 388.668 512 324.38 512 256s-26.628-132.667-74.98-181.019M256 57.263c100.782 0 184.276 75.409 197.04 172.765L329.849 218.03c-13.813-26.755-41.72-45.102-73.849-45.102s-60.036 18.347-73.849 45.102L58.96 230.028C71.724 132.672 155.218 57.263 256 57.263M58.889 281.375l121.731 9.484c7.69 16.55 20.669 30.166 36.76 38.655l7.978 122.859c-86.845-13.498-155.259-83.43-166.469-170.998m197.111.434c-14.232 0-25.809-11.578-25.809-25.809S241.77 230.191 256 230.191 281.809 241.77 281.809 256 270.232 281.809 256 281.809m30.644 170.564 7.978-122.859a83.65 83.65 0 0 0 36.76-38.655l121.731-9.484c-11.212 87.568-79.626 157.5-166.469 170.998" style="fill:#fff"/></svg>