<svg xmlns="http://www.w3.org/2000/svg" width="64" height="64" viewBox="0 0 64 64"><circle cx="32" cy="32" r="28" fill="none" stroke="#fff" stroke-width="2"/><path fill="#fff" d="M32 4A28 28 0 0 0 4 32a28 28 0 0 0 28 28 28 28 0 0 0 28-28A28 28 0 0 0 32 4M17.979 15.98a2 2 0 0 1 1.436.605L32 29.171l12.586-12.586a2 2 0 0 1 1.374-.605 2 2 0 0 1 1.454 3.434L34.829 32l12.586 12.586a2 2 0 1 1-2.828 2.828L32 34.828 19.416 47.414a2 2 0 1 1-2.829-2.828L29.172 32 16.586 19.414a2 2 0 0 1 1.393-3.434"/></svg>