<svg xmlns="http://www.w3.org/2000/svg" width="30" height="24" viewBox="0 0 30 24"><g transform="translate(0 -796.36)"><rect width="6.326" height="5.999" x="2.37" y="802.341" ry=".271" style="fill:#1a1a1a;stroke-width:.0610645"/><rect width="8.57" height="2.775" x="10.267" y="804.034" ry=".125" style="fill:#1a1a1a;stroke-width:.0483424"/><rect width="7.754" height="7.142" x="20.45" y="801.81" ry="2.192" style="fill:#1a1a1a;stroke-width:.0727267"/><rect width="5.02" height="4.653" x="7.39" y="808.279" ry="1.428" style="fill:#1a1a1a;stroke-width:.0472283"/><rect width="5.02" height="4.653" x="17.083" y="808.463" ry="1.428" style="fill:#1a1a1a;stroke-width:.0472283"/><path d="m6.387 798.882-.166.002a6.7 6.7 0 0 0-1.308.186c-.393.09-.814.24-1.081.541-.419.472-.637 1.78-.637 1.78s-1.226.82-1.654 1.402c-.403.547-.614 1.22-.796 1.875-.12.433-.15.888-.19 1.336-.269 2.959-.579 5.651-.35 8.906.082 1.162.588 1.732 1.273 2.26.634.487 1.53.717 2.322.604.621-.089 1.175-.518 1.616-.964.921-.93 1.788-3.234 1.979-3.394.19-.159.444-.541.444-.541s.611.552.986.7a3.44 3.44 0 0 0 1.686.223c.73-.098 1.476-.38 2.035-.86.398-.34.828-1.336.828-1.336h3.054s.43.996.828 1.336c.56.48 1.305.761 2.035.86a3.4 3.4 0 0 0 1.686-.223c.375-.148.986-.7.986-.7s.254.382.444.541c.191.16 1.056 2.463 1.976 3.394.442.446.997.875 1.619.964a3.2 3.2 0 0 0 2.322-.605c.685-.527 1.19-1.097 1.273-2.259.229-3.255-.082-5.947-.35-8.906-.04-.448-.071-.902-.192-1.336-.182-.654-.392-1.328-.794-1.875-.429-.582-1.654-1.401-1.654-1.401s-.22-1.309-.639-1.78c-.267-.302-.686-.452-1.079-.542-.838-.193-1.792-.313-2.579.033-.452.2-.76.7-1.015 1.081-.255.382-.382 1.591-.382 1.591l-4.422-.018v-.014l-1.59.006-1.59-.006v.014l-4.422.018s-.127-1.21-.382-1.59c-.254-.382-.563-.883-1.016-1.082a2.8 2.8 0 0 0-1.104-.221m17.95 3.176a1.083 1.083 0 1 1 0 2.166 1.083 1.083 0 0 1 0-2.166m-19.775.612h1.743v1.296s-.632.833-.872.823c-.254-.011-.871-.823-.871-.823zm17.147 1.688a1.083 1.083 0 1 1 0 2.166 1.083 1.083 0 0 1 0-2.166m5.257 0a1.083 1.083 0 1 1 0 2.166 1.083 1.083 0 0 1 0-2.166m-24.11.079h1.297s.811.619.822.873c.01.24-.822.872-.822.872H2.857Zm3.858 0H8.01v1.745H6.714s-.832-.632-.822-.872c.01-.254.822-.873.822-.873m10.24.464 1.695.555-1.696.558zm-5.927.04h1.689v1.034h-1.69zm-5.594.89c.24-.01.872.823.872.823v1.296H4.562v-1.296s.617-.811.871-.822m18.904.829a1.083 1.083 0 1 1 0 2.166 1.083 1.083 0 0 1 0-2.166m-14.275 1.893a2.116 2.116 0 1 1-.002 4.23 2.116 2.116 0 0 1 .002-4.23m9.55 0a2.116 2.116 0 1 1-.002 4.23 2.116 2.116 0 0 1 .001-4.23" style="fill:#fff;stroke-width:.115433"/></g></svg>