<svg xmlns="http://www.w3.org/2000/svg" xmlns:xlink="http://www.w3.org/1999/xlink" width="20" height="17.731" viewBox="0 0 20 17.731"><linearGradient xlink:href="#a" id="b" x1="9.585" x2="9.585" y1="12.247" y2=".329" gradientUnits="userSpaceOnUse"><stop offset="0" stop-color="#141414"/><stop offset=".209" stop-color="#1c1c1d"/><stop offset=".549" stop-color="#333335"/><stop offset=".977" stop-color="#59595d"/><stop offset="1" stop-color="#5b5b5f"/></linearGradient><linearGradient id="a" x1="138.033" x2="150.641" y1="82.294" y2="82.294" gradientTransform="rotate(-90 39 111.64)" gradientUnits="userSpaceOnUse"><stop offset="0" stop-color="#141414"/><stop offset=".226" stop-color="#181818"/><stop offset=".46" stop-color="#242425"/><stop offset=".698" stop-color="#373739"/><stop offset=".937" stop-color="#535356"/><stop offset="1" stop-color="#5b5b5f"/></linearGradient><path fill="#fff" d="M2.438 14.686q-.032-.318-.229-.472-.2-.156-.596-.156-.732 0-.732.502a.37.37 0 0 0 .152.301q.152.121.487.202.397.094.689.174.29.08.533.186.137.056.257.14a.8.8 0 0 1 .205.208 1 1 0 0 1 .133.298q.05.174.05.421 0 .298-.124.527a1.2 1.2 0 0 1-.335.389 1.5 1.5 0 0 1-.496.242 2.1 2.1 0 0 1-.602.083q-.899 0-1.353-.347-.452-.348-.477-1.03h.831q.006.316.257.5.251.182.63.182.409 0 .621-.148a.47.47 0 0 0 .211-.403q0-.099-.025-.183c-.025-.084-.048-.106-.095-.152q-.072-.068-.196-.121c-.124-.053-.19-.067-.323-.097a10 10 0 0 1-.816-.201 2.1 2.1 0 0 1-.568-.255.96.96 0 0 1-.329-.369 1.3 1.3 0 0 1-.106-.552q0-.254.094-.478c.094-.224.157-.277.285-.388q.193-.165.475-.261.283-.095.667-.096.373 0 .67.096.299.097.512.273t.332.429q.119.25.131.555h-.82zm2.953 2.903v-3.4H4.15v-.72H7.5v.72H6.253v3.4zm4.938 0-.26-.85H8.548l-.291.85h-.912l1.47-4.12h.999l1.451 4.12zm-1.024-3.194h-.006l-.527 1.637h1.047zm5.416 3.194v-1.061q0-.298-.136-.425-.137-.127-.509-.127h-.918v1.613h-.838v-4.12h2.09q.285 0 .518.09t.401.249q.167.157.257.378.09.22.09.474 0 .336-.158.593c-.158.257-.258.292-.456.362q.274.087.388.267c.114.18.115.301.115.54v1.167zm-1.563-3.406v1.098h1.079q.348 0 .49-.155a.55.55 0 0 0 .143-.391.57.57 0 0 0-.14-.397q-.14-.155-.462-.155zm4.733 3.406v-3.4h-1.24v-.72H20v.72h-1.247v3.4z"/><path fill="url(#b)" d="M3.091 12.247c-.582 0-.987-.445-.987-1.083V1.412c0-.639.406-1.083.987-1.083q.24 0 .493.101l12.859 5.172c.542.217.623.523.623.686s-.081.468-.623.686L3.584 12.146a1.3 1.3 0 0 1-.493.101" style="fill-opacity:1;fill:#fff"/><path fill="url(#a)" d="M2.872 12.607c-.607 0-1.031-.47-1.031-1.145V1.145C1.841.471 2.265 0 2.872 0q.252 0 .513.106l13.43 5.471c.566.231.651.554.651.727 0 .171-.085.495-.651.726L3.385 12.5a1.3 1.3 0 0 1-.513.107m0-12.077c-.309 0-.501.235-.501.615v10.317c0 .379.192.615.501.615a.8.8 0 0 0 .313-.068l13.429-5.472c.265-.107.321-.213.321-.234s-.057-.127-.321-.235L3.186.598A.8.8 0 0 0 2.872.53" style="fill:#fff;fill-opacity:1"/></svg>