<svg xmlns="http://www.w3.org/2000/svg" width="29.4" height="24" viewBox="0 0 7.779 6.35"><defs><clipPath id="a" clipPathUnits="userSpaceOnUse"><path d="M-.45.15h1071.18v664.955H-.45Z"/></clipPath></defs><rect width="6.602" height="2.774" x=".638" y="1.032" rx="1.874" ry="1.339" style="fill:#1a1a1a;stroke-width:.269863"/><path d="M534.992 308.044c12.704 0 23.009 10.305 23.009 23.009s-10.305 23.01-23.009 23.01c-12.742 0-23.047-10.306-23.047-23.01s10.305-23.009 23.047-23.009m0-5.322c-15.665 0-28.331 12.667-28.331 28.331 0 15.627 12.666 28.331 28.331 28.331 15.627 0 28.331-12.704 28.331-28.331 0-15.664-12.704-28.331-28.331-28.331m-180.404-18.737c-28.369 0-51.378 22.972-51.378 51.341 0 28.368 23.009 51.34 51.378 51.34 28.331 0 51.34-22.972 51.34-51.34s-23.009-51.341-51.34-51.341m349.94 0c-28.331 0-51.34 22.972-51.34 51.341 0 28.368 23.009 51.34 51.34 51.34 28.369 0 51.341-22.972 51.341-51.34s-22.972-51.341-51.341-51.341m162.979-58.236c-17.613 0-31.891 14.278-31.891 31.854 0 17.613 14.278 31.891 31.891 31.891 17.576 0 31.853-14.278 31.853-31.891 0-17.576-14.277-31.854-31.853-31.854M198.13 207.424c-7.42 4.009-14.353 10.792-18.738 16.863-2.435 12.517-5.546 34.14-3.747 38.899 4.647 2.923 10.83 2.961 16.826 3.336h11.318c5.996-.375 12.216-.413 16.826-3.336.45-1.199.599-3.447.524-6.333-.262-8.694-2.473-23.197-4.272-32.566-4.384-6.071-11.317-12.854-18.737-16.863m-70.228-43.659c-2.923-.075-5.172.038-6.333.488-2.923 4.646-2.961 10.867-3.373 16.863v11.28c.412 5.996.45 12.217 3.373 16.864 1.161.45 3.41.562 6.333.487 8.657-.225 23.159-2.436 32.528-4.235 6.109-4.384 12.891-11.354 16.864-18.737-3.973-7.42-10.755-14.39-16.864-18.775-9.369-1.799-23.871-4.01-32.528-4.235m139.819 0c-8.694.225-23.197 2.436-32.566 4.235-6.071 4.385-12.854 11.355-16.864 18.775 4.01 7.383 10.793 14.353 16.864 18.737 12.517 2.399 34.14 5.509 38.899 3.748 2.923-4.647 2.961-10.868 3.335-16.864v-11.28c-.374-5.996-.412-12.217-3.335-16.863-1.199-.45-3.448-.563-6.333-.488m525.548-12.891c-17.613 0-31.891 14.278-31.891 31.891s14.278 31.854 31.891 31.854c17.576 0 31.854-14.241 31.854-31.854s-14.278-31.891-31.854-31.891m147.539 0c-17.613 0-31.854 14.278-31.854 31.891s14.241 31.854 31.854 31.854 31.853-14.241 31.853-31.854-14.24-31.891-31.853-31.891m-748.712-43.883c-5.996.375-12.216.412-16.826 3.335-.45 1.199-.599 3.448-.524 6.333.224 8.695 2.435 23.197 4.272 32.566 4.347 6.071 11.317 12.854 18.737 16.864 7.42-4.01 14.353-10.793 18.738-16.864 2.398-12.517 5.546-34.14 3.747-38.899-4.647-2.923-10.83-2.96-16.864-3.335zm675.411-31.367c-17.613 0-31.891 14.278-31.891 31.892 0 17.575 14.278 31.853 31.891 31.853 17.576 0 31.853-14.278 31.853-31.853 0-17.614-14.277-31.892-31.853-31.892M753.733 61.01a8.797 8.797 0 0 0-8.807 8.807V95.3c0 4.871 3.935 8.844 8.807 8.844s8.807-3.973 8.807-8.844V69.816a8.797 8.797 0 0 0-8.807-8.807m-440.18 0c-4.872 0-8.844 3.935-8.844 8.807v25.483c0 4.871 3.972 8.844 8.844 8.844s8.806-3.973 8.806-8.844V69.816a8.796 8.796 0 0 0-8.806-8.807m211.733-29.792 9.706.037 9.743-.037v.037l155.409.3.45 2.323v162.079c0 9.631-7.758 17.426-17.389 17.426H385.879c-9.631 0-17.388-7.795-17.388-17.426V33.877l.45-2.323 156.345-.3zM205.437.824c22.261-.936 43.884 2.961 62.921 11.355l2.81 11.468 24.584 8.057 67.455-.15v168.749c0 10.119 8.207 18.326 18.325 18.326h306.02c10.118 0 18.325-8.207 18.325-18.326V31.553l68.392.15 24.584-8.056 2.81-11.468C820.701 3.785 842.324-.112 864.584.824c22.26.937 45.157 6.746 66.593 17.839l.637 9.968c3.56 1.724 7.082 2.286 10.605 5.171 23.085 32.491 42.834 69.929 58.161 108.753 37.89 130.75 67.08 272.292 69.33 413.348-2.32 71.652-60.26 105.941-119.434 108.527-39.985-2.885-70.415-11.917-94.137-56.025-27.431-56.25-46.918-111.038-61.234-168.674-6.858-3.598-12.779-7.645-20.611-10.756-21.586 14.765-42.721 23.01-71.802 23.235-22.897-1.649-48.155-9.406-68.242-29.343l-92.713.412v.075l-6.745-.037-6.708.037-.038-.075-92.675-.412c-20.087 19.937-45.345 27.694-68.242 29.343-29.08-.225-50.216-8.47-71.802-23.235-7.832 3.111-13.753 7.158-20.611 10.756-14.315 57.636-33.802 112.424-61.234 168.674-23.722 44.108-54.151 53.14-94.137 56.025C60.372 661.844 2.435 627.555.075 555.903 2.36 414.847 31.554 273.305 69.403 142.555c15.328-38.824 35.115-76.262 58.199-108.753 3.523-2.885 7.045-3.447 10.605-5.171l.638-9.968C160.28 7.57 183.177 1.76 205.437.824" clip-path="url(#a)" style="fill:#fff;fill-opacity:1;fill-rule:evenodd;stroke:none" transform="translate(.016 .796)scale(.00724)"/></svg>