<svg xmlns="http://www.w3.org/2000/svg" width="20" height="12.473" viewBox="0 0 20 12.473"><linearGradient id="a" x1="10" x2="10" y1="0" y2="11.163" gradientUnits="userSpaceOnUse"><stop offset="0" stop-color="#5b5b5f"/><stop offset=".063" stop-color="#535356"/><stop offset=".302" stop-color="#373739"/><stop offset=".54" stop-color="#242425"/><stop offset=".774" stop-color="#181818"/><stop offset="1" stop-color="#141414"/></linearGradient><linearGradient id="b" x1="10" x2="10" y1="0" y2="12.473" gradientUnits="userSpaceOnUse"><stop offset="0" stop-color="#5b5b5f"/><stop offset=".015" stop-color="#58585b"/><stop offset=".149" stop-color="#3f3f41"/><stop offset=".296" stop-color="#2c2c2d"/><stop offset=".462" stop-color="#1e1e1f"/><stop offset=".664" stop-color="#161617"/><stop offset="1" stop-color="#141414"/></linearGradient><path fill="url(#a)" d="M20 9.91a2.563 2.563 0 0 1-2.562 2.563H2.562A2.563 2.563 0 0 1 0 9.91V2.563A2.56 2.56 0 0 1 2.562 0h14.877A2.56 2.56 0 0 1 20 2.563z"/><path fill="url(#b)" d="M17.438 1.512c.579 0 1.051.472 1.051 1.051V9.91c0 .58-.472 1.051-1.051 1.051H2.562A1.05 1.05 0 0 1 1.511 9.91V2.563c0-.579.472-1.051 1.051-1.051zm0-1.512H2.562A2.56 2.56 0 0 0 0 2.563V9.91a2.563 2.563 0 0 0 2.562 2.563h14.877a2.563 2.563 0 0 0 2.562-2.563V2.563A2.564 2.564 0 0 0 17.438 0"/><path fill="#fff" d="M7.57 2.477H5.697v7.519h5.411v-1.68H7.57zm5.234 0-.018.17q-.03.282-.119.485a.8.8 0 0 1-.245.315c-.11.087-.259.152-.438.196a3.2 3.2 0 0 1-.73.07h-.189V5.06h1.463v4.937h1.776v-7.52z"/></svg>