<svg xmlns="http://www.w3.org/2000/svg" xml:space="preserve" width="20.025" height="19.866" viewBox="0 0 20.025 19.866"><linearGradient id="a" x1="10.014" x2="10.014" y1="8.531" y2="0" gradientUnits="userSpaceOnUse"><stop offset=".3" style="stop-color:#1e1e1e"/><stop offset="1" style="stop-color:#5b5b5f"/></linearGradient><path fill="url(#a)" d="m13.35 5.557-3.336 2.975-3.337-2.975V1.115C6.677.499 7.176 0 7.792 0h4.442c.616 0 1.115.499 1.115 1.115z" style="fill:#666;fill-opacity:1"/><linearGradient id="b" x1="10.014" x2="10.014" y1="8.531" y2="0" gradientUnits="userSpaceOnUse"><stop offset="0" style="stop-color:#141414"/><stop offset=".226" style="stop-color:#181818"/><stop offset=".46" style="stop-color:#242425"/><stop offset=".698" style="stop-color:#373739"/><stop offset=".937" style="stop-color:#535356"/><stop offset="1" style="stop-color:#5b5b5f"/></linearGradient><path fill="url(#b)" d="M12.234.65c.256 0 .465.209.465.465v4.15L10.014 7.66 7.327 5.266v-4.15c0-.256.209-.465.465-.465zm0-.651H7.792c-.616 0-1.115.499-1.115 1.115v4.441l3.337 2.975 3.336-2.975v-4.44C13.35.499 12.851 0 12.234 0"/><linearGradient id="c" x1="-97.422" x2="-97.422" y1="-261.714" y2="-253.183" gradientTransform="matrix(-1 0 0 -1 -87.408 -241.848)" gradientUnits="userSpaceOnUse"><stop offset=".3" style="stop-color:#1e1e1e"/><stop offset="1" style="stop-color:#5b5b5f"/></linearGradient><path fill="url(#c)" d="m6.677 14.309 3.337-2.974 3.336 2.974v4.441c0 .617-.499 1.116-1.115 1.116H7.792a1.115 1.115 0 0 1-1.115-1.116z" style="fill:#666;fill-opacity:1"/><linearGradient id="d" x1="10.014" x2="10.014" y1="19.866" y2="11.335" gradientUnits="userSpaceOnUse"><stop offset="0" style="stop-color:#141414"/><stop offset=".226" style="stop-color:#181818"/><stop offset=".46" style="stop-color:#242425"/><stop offset=".698" style="stop-color:#373739"/><stop offset=".937" style="stop-color:#535356"/><stop offset="1" style="stop-color:#5b5b5f"/></linearGradient><path fill="url(#d)" d="M10.014 12.206 12.7 14.6v4.15a.467.467 0 0 1-.465.467H7.792a.467.467 0 0 1-.465-.467V14.6zm0-.871-3.337 2.974v4.441c0 .617.499 1.116 1.115 1.116h4.442c.616 0 1.115-.499 1.115-1.116v-4.441z"/><linearGradient id="e" x1="-104.177" x2="-110.849" y1="-171.054" y2="-171.054" gradientTransform="rotate(90 -136.37 -18.923)" gradientUnits="userSpaceOnUse"><stop offset=".3" style="stop-color:#1e1e1e"/><stop offset="1" style="stop-color:#5b5b5f"/></linearGradient><path fill="url(#e)" d="m14.469 13.27-2.975-3.337 2.975-3.335h4.441c.617 0 1.115.499 1.115 1.115v4.441c0 .615-.5 1.115-1.115 1.115z"/><linearGradient id="f" x1="15.76" x2="15.76" y1="13.27" y2="6.598" gradientUnits="userSpaceOnUse"><stop offset="0" style="stop-color:#141414"/><stop offset=".233" style="stop-color:#181818"/><stop offset=".473" style="stop-color:#242425"/><stop offset=".718" style="stop-color:#373739"/><stop offset=".964" style="stop-color:#525256"/><stop offset="1" style="stop-color:#57575b"/></linearGradient><path fill="url(#f)" d="M18.91 7.248c.256 0 .465.208.465.465v4.441a.465.465 0 0 1-.465.464h-4.15l-2.394-2.686 2.394-2.685h4.15m0-.649h-4.441l-2.975 3.335 2.975 3.337h4.441c.615 0 1.115-.5 1.115-1.115V7.713c0-.616-.498-1.115-1.115-1.115"/><linearGradient id="g" x1="17.436" x2="24.107" y1="-58.954" y2="-58.954" gradientTransform="rotate(-90 46.962 -16.257)" gradientUnits="userSpaceOnUse"><stop offset=".3" style="stop-color:#1e1e1e"/><stop offset="1" style="stop-color:#5b5b5f"/></linearGradient><path fill="url(#g)" d="m5.558 6.598 2.974 3.335-2.974 3.337H1.115C.5 13.27 0 12.77 0 12.154V7.712c0-.615.5-1.114 1.115-1.114z"/><linearGradient id="h" x1="4.266" x2="4.266" y1="13.27" y2="6.598" gradientUnits="userSpaceOnUse"><stop offset="0" style="stop-color:#141414"/><stop offset=".226" style="stop-color:#181818"/><stop offset=".46" style="stop-color:#242425"/><stop offset=".698" style="stop-color:#373739"/><stop offset=".937" style="stop-color:#535356"/><stop offset="1" style="stop-color:#5b5b5f"/></linearGradient><path fill="url(#h)" d="M5.267 7.248 7.66 9.933l-2.394 2.686H1.115a.465.465 0 0 1-.465-.464V7.712c0-.256.209-.464.465-.464zm.291-.65H1.115C.5 6.598 0 7.097 0 7.712v4.442c0 .615.5 1.115 1.115 1.115h4.442l2.974-3.337z"/></svg>