<svg xmlns="http://www.w3.org/2000/svg" width="20" height="12.473" viewBox="0 0 20 12.473"><linearGradient id="a" x1="10" x2="10" y1="0" y2="11.163" gradientUnits="userSpaceOnUse"><stop offset="0" stop-color="#5b5b5f"/><stop offset=".063" stop-color="#535356"/><stop offset=".302" stop-color="#373739"/><stop offset=".54" stop-color="#242425"/><stop offset=".774" stop-color="#181818"/><stop offset="1" stop-color="#141414"/></linearGradient><linearGradient id="b" x1="10" x2="10" y1="0" y2="12.473" gradientUnits="userSpaceOnUse"><stop offset="0" stop-color="#5b5b5f"/><stop offset=".015" stop-color="#58585b"/><stop offset=".149" stop-color="#3f3f41"/><stop offset=".296" stop-color="#2c2c2d"/><stop offset=".462" stop-color="#1e1e1f"/><stop offset=".664" stop-color="#161617"/><stop offset="1" stop-color="#141414"/></linearGradient><path fill="url(#a)" d="M20 9.91a2.563 2.563 0 0 1-2.563 2.563H2.562A2.56 2.56 0 0 1 0 9.91V2.563A2.56 2.56 0 0 1 2.562 0h14.876A2.56 2.56 0 0 1 20 2.563z"/><path fill="url(#b)" d="M17.438 1.512c.58 0 1.051.472 1.051 1.051V9.91c0 .58-.471 1.051-1.051 1.051H2.562c-.579 0-1.05-.471-1.05-1.051V2.563c0-.579.471-1.051 1.05-1.051zm0-1.512H2.562A2.56 2.56 0 0 0 0 2.563V9.91a2.56 2.56 0 0 0 2.562 2.563h14.876a2.563 2.563 0 0 0 2.563-2.563V2.563A2.564 2.564 0 0 0 17.438 0"/><path fill="#fff" d="M10.988 5.856c.201-.326.303-.705.303-1.126 0-.317-.058-.618-.17-.895a2.1 2.1 0 0 0-.492-.722 2.3 2.3 0 0 0-.756-.469 2.7 2.7 0 0 0-.966-.167H5.094v7.52h1.83V7.2h1.402c.473 0 .67.092.754.169q.176.166.176.599v2.028h1.842V7.785c0-.457-.076-.796-.229-1.037a1.15 1.15 0 0 0-.388-.369q.31-.202.507-.523M6.924 4.091H8.66c.314 0 .537.069.66.207.131.145.194.328.194.562a.77.77 0 0 1-.197.55q-.193.207-.711.207H6.924zm6.482-1.614-.018.17q-.03.282-.119.485a.8.8 0 0 1-.245.315c-.11.087-.259.152-.438.196a3.2 3.2 0 0 1-.73.07h-.188V5.06h1.463v4.937h1.776v-7.52z"/></svg>