<svg xmlns="http://www.w3.org/2000/svg" width="20.007" height="15.854" viewBox="0 0 20.007 15.854"><linearGradient id="a" x1="10.003" x2="10.003" y1="10.244" y2=".261" gradientUnits="userSpaceOnUse"><stop offset="0" stop-color="#141414"/><stop offset=".209" stop-color="#1c1c1d"/><stop offset=".549" stop-color="#333335"/><stop offset=".977" stop-color="#59595d"/><stop offset="1" stop-color="#5b5b5f"/></linearGradient><linearGradient id="b" x1="10.003" x2="10.003" y1="10.504" y2="0" gradientUnits="userSpaceOnUse"><stop offset="0" stop-color="#141414"/><stop offset=".226" stop-color="#181818"/><stop offset=".46" stop-color="#242425"/><stop offset=".698" stop-color="#373739"/><stop offset=".937" stop-color="#535356"/><stop offset="1" stop-color="#5b5b5f"/></linearGradient><path fill="url(#a)" d="M19.523 8.66c0 .645-.939 1.583-1.583 1.583H2.067c-.645 0-1.583-.939-1.583-1.583V1.845c0-.645.939-1.584 1.583-1.584h15.872c.645 0 1.583.939 1.583 1.584V8.66z"/><path fill="url(#b)" d="M17.939 10.504H2.067c-.793 0-1.844-1.051-1.844-1.844V1.845C.223 1.051 1.274 0 2.067 0h15.872c.793 0 1.844 1.051 1.844 1.845V8.66c.001.793-1.051 1.844-1.844 1.844M2.067.521c-.495 0-1.323.828-1.323 1.323V8.66c0 .495.829 1.323 1.323 1.323h15.872c.495 0 1.323-.829 1.323-1.323V1.845c0-.495-.829-1.323-1.323-1.323z"/><path fill="#fff" d="M2.048 13.295q-.027-.266-.193-.396c-.166-.13-.278-.13-.5-.13q-.615 0-.615.422 0 .152.127.252.127.103.409.169.333.078.578.146.246.067.449.156.114.047.216.117c.102.07.125.105.172.175a.9.9 0 0 1 .112.25q.042.146.042.354a.9.9 0 0 1-.104.443 1 1 0 0 1-.281.326q-.177.133-.417.203a1.4 1.4 0 0 1-.505.071q-.756 0-1.136-.292Q.02 15.27 0 14.697h.698a.5.5 0 0 0 .216.419.87.87 0 0 0 .529.154q.344 0 .521-.125c.177-.125.177-.196.177-.339a.5.5 0 0 0-.021-.153.3.3 0 0 0-.081-.128.5.5 0 0 0-.163-.102q-.105-.045-.271-.081-.397-.083-.686-.169c-.289-.086-.352-.128-.477-.213s-.217-.188-.276-.31-.089-.276-.089-.464q0-.214.078-.401c.078-.187.132-.233.24-.326s.241-.165.399-.219.344-.081.56-.081q.312 0 .563.081.25.08.43.229c.18.149.213.219.279.36s.103.296.109.466zm1.574 2.439v-3.46h2.543v.604h-1.84v.74h1.693v.61H4.326v.891h1.923v.615zm3.372 0v-3.46h.724v2.83h1.715v.63zm3.21 0v-3.46h2.543v.604h-1.84v.74H12.6v.61h-1.693v.891h1.923v.615zm6.421-1.188q-.057.297-.182.537c-.125.24-.188.297-.315.412s-.273.203-.44.266-.351.094-.553.094q-.339 0-.633-.115a1.4 1.4 0 0 1-.508-.344q-.214-.23-.336-.566c-.122-.336-.123-.485-.123-.784q0-.438.112-.79.111-.352.32-.594c.209-.242.308-.286.508-.373s.423-.13.67-.13q.323 0 .586.096c.263.096.327.153.453.266q.19.17.302.399.113.23.138.49H15.9q-.073-.297-.282-.461c-.209-.164-.295-.164-.469-.164q-.453 0-.667.326c-.214.326-.213.515-.213.894q0 .58.211.899.212.321.633.321.322 0 .519-.174c.197-.174.22-.284.269-.503h.724zm1.61 1.188v-2.856h-1.042v-.604h2.814v.604H18.96v2.856z" style="fill:#666;fill-opacity:1"/></svg>